# Blender v3.0.0 OBJ File: 'aa.blend'
# www.blender.org
mtllib Block_Bridge.mtl
o Block_Bridge
v 1.177629 1.805037 0.782883
v 1.398613 1.598887 0.782793
v 0.939585 2.006804 0.780163
v 0.939616 1.599021 -0.753868
v 1.187987 1.803881 -0.754069
v 0.939633 2.012138 0.137914
v 1.192865 1.803831 0.254101
v 1.208205 1.805162 -0.210703
v 0.939618 1.599702 0.780638
v 1.399353 1.599056 -0.414627
v 1.431762 1.599054 0.190426
v 1.399463 1.599022 -0.754068
v 1.099903 1.999769 0.782888
v 1.167931 1.939685 0.782907
v 1.428517 1.722965 0.026390
v 1.390485 1.790962 0.066816
v 1.387108 1.720936 0.782638
v 1.340015 1.792382 -0.753515
v 1.401005 1.730452 -0.754625
v 1.399748 1.775275 -0.426535
v 1.376607 1.799242 -0.372406
v 1.160044 2.007915 -0.754065
v 1.181125 2.003440 -0.197600
v 1.160756 2.008163 0.257032
v 1.173062 2.005399 0.298280
v 1.425948 1.763559 0.057955
v 1.426085 1.765223 -0.005655
v 1.392375 1.777725 0.556093
v 1.366176 1.799104 0.528461
v 1.377506 1.793110 -0.700674
v 1.399820 1.764206 -0.725615
v 0.939607 2.007923 -0.263192
v 0.939631 2.011285 -0.754055
v 1.029968 -0.000000 -0.289496
v 1.015386 0.000000 0.309645
v -0.984058 -0.000000 -0.289282
v -0.976327 0.000000 0.309454
v 0.995528 1.531692 0.435379
v 1.018778 1.630357 -0.450254
v -0.994626 1.650674 0.286787
v -0.996337 1.549146 -0.445743
v 0.179544 2.078023 -0.503197
v -0.986922 0.435881 -0.354765
v -0.944161 1.055199 -0.556819
v -0.971603 0.614727 0.457305
v -0.937974 1.256473 0.342356
v 1.026917 0.531804 -0.442336
v 1.021086 0.514576 0.393966
v 0.734633 -0.000001 -0.797714
v 0.794848 -0.000001 -0.888115
v 0.833371 1.124278 -0.889997
v 0.726241 1.017260 -0.798354
v 0.523023 1.383914 -0.800762
v 0.628681 1.443758 -0.871643
v -0.788461 -0.000001 -0.895565
v -0.693059 -0.000001 -0.750378
v -0.691995 1.015838 -0.798673
v -0.756674 1.159812 -0.889673
v -0.596088 1.442065 -0.887388
v -0.490557 1.381364 -0.800218
v 0.797765 0.000001 0.913368
v 0.738900 0.000001 0.834179
v 0.725524 1.015623 0.777020
v 0.802483 1.167924 0.896216
v 0.523368 1.385080 0.812201
v -0.692331 0.000001 0.794659
v -0.769349 0.000001 0.892940
v -0.766919 1.029961 0.900122
v -0.687541 0.980852 0.798793
v -0.591518 1.441906 0.911360
v 0.200621 1.723572 -0.863314
v 0.214159 1.542911 -0.812805
v -0.186996 1.542514 -0.807800
v -0.129496 1.701162 -0.870607
v -0.130920 1.696213 0.924890
v -0.182993 1.540204 0.821999
v 0.217816 1.542316 0.822636
v 0.161938 1.697273 0.926420
v -0.680980 0.715334 -0.727002
v -0.777068 0.836122 -0.876630
v -0.755252 0.455405 -0.880848
v -0.701980 0.403748 -0.796002
v -0.783988 0.831843 0.861201
v -0.675304 0.714991 0.827577
v -0.698178 0.403646 0.790733
v -0.762733 0.447262 0.874191
v 0.776874 0.813726 -0.877011
v 0.717638 0.715353 -0.785485
v 0.724709 0.403662 -0.770871
v 0.802149 0.455979 -0.886437
v 0.718071 0.715194 0.805869
v 0.783215 0.819594 0.896329
v 0.820025 0.472501 0.903547
v 0.728077 0.403755 0.787891
v -0.404933 1.570945 0.911873
v -0.490453 1.855604 0.903459
v 0.549769 1.876311 0.899296
v 0.403915 1.561150 0.909243
v 0.509544 1.849934 -0.912543
v 0.427342 1.564561 -0.862730
v -0.348832 1.573407 -0.887102
v -0.639703 1.813142 -0.884638
v -0.917012 1.154432 0.869380
v -0.477953 1.374016 0.773896
v -0.451357 1.421170 0.810818
v -0.513104 1.389727 0.855242
v -0.530765 1.341684 0.806334
v 0.676741 1.476889 0.910389
v 0.601749 1.472756 0.893717
v 0.604738 1.431378 0.894623
v 0.654732 1.408167 0.906189
v 0.613992 2.080705 0.309543
v 0.565880 2.098891 -0.403336
v -0.560678 2.046703 0.309267
v -0.871695 0.998216 -0.871177
v -0.940070 1.090753 -0.760301
v 0.282847 2.068661 0.309387
v 0.068831 2.060952 0.047996
v -0.249690 2.040461 0.309333
v 0.007520 2.050667 0.575773
v -0.596685 2.058201 -0.706263
v -0.605505 2.047704 -0.065520
v -0.322593 2.073449 -0.432179
v 0.084233 2.061356 -0.846762
v 0.015747 1.918693 -0.899141
v 0.547307 2.085167 -0.828776
v 0.531191 2.009879 -0.852906
v -0.618136 1.895043 -0.894892
v -0.604213 2.049901 -0.830063
v -0.877739 1.910445 -0.869135
v -0.964817 2.014899 0.305900
v -0.939046 2.045690 0.309995
v -0.878732 2.034701 -0.315403
v -0.969530 1.921133 -0.309500
v -0.986669 1.930289 -0.793844
v -0.910957 2.054487 -0.797507
v -0.955150 1.872007 0.795181
v -0.936272 0.000001 0.918005
v -0.972987 0.000001 0.883282
v -0.986880 1.653277 0.900625
v -0.944847 1.658579 0.904844
v -0.920009 0.576622 0.909782
v -0.963347 0.601160 0.879535
v -0.935185 2.051605 0.723722
v -0.915809 1.110345 0.898034
v -0.939861 1.030819 0.892289
v 1.001723 0.000001 0.850704
v 0.949695 0.000001 0.903870
v 1.000848 1.638104 0.850781
v 0.951180 1.556669 0.900522
v 1.012945 0.598754 0.826965
v 0.949553 0.568302 0.892404
v 0.927040 1.027826 0.896441
v 0.988516 1.111394 0.835839
v 0.908128 1.822686 0.890068
v 1.013643 1.845475 0.828152
v 0.943988 -0.000001 -0.888430
v 1.002281 -0.000001 -0.829308
v 0.934052 1.678487 -0.904497
v 0.996001 1.641629 -0.827083
v 0.947983 0.565733 -0.887893
v 1.008486 0.599707 -0.827447
v 0.983822 1.086698 -0.813266
v 0.914009 0.999249 -0.872598
v 0.984588 1.885536 -0.822909
v -0.969872 -0.000001 -0.853945
v -0.982037 0.584010 -0.791322
v -0.944230 0.575350 -0.838744
v -0.938809 1.572005 -0.889013
v -0.992351 1.645086 -0.857160
v -0.975731 1.691598 -0.873972
v -0.947743 1.666295 -0.888491
v -0.924123 0.978599 -0.859277
v -0.949677 1.000143 -0.828057
v -0.949836 1.124687 -0.844379
v -0.918822 1.078431 -0.874402
v 0.968233 2.042310 0.316818
v 0.995786 1.977107 0.330417
v 1.007310 1.988647 -0.316832
v 0.971342 2.058309 -0.307496
v 0.957929 2.053318 0.789465
v 1.005549 0.928459 0.327878
v 1.003007 1.111171 -0.517129
v 1.002376 1.274395 0.353068
v -0.000723 2.056816 0.829046
v 0.004808 1.948038 0.936910
v -0.556814 2.061231 0.844385
v -0.530572 1.994233 0.904827
v 0.777951 2.078686 0.862182
v -0.874953 1.985664 0.896326
v -0.872440 2.057065 0.840738
v 0.971475 1.994909 -0.808739
v 0.898627 2.060012 -0.792565
v 0.976568 2.055861 -0.754813
v -1.111422 1.804970 0.782841
v -1.333740 1.598887 0.782793
v -0.874712 2.006804 0.780163
v -0.874744 1.599021 -0.753866
v -1.122570 1.803777 -0.754049
v -0.874794 2.012514 0.137911
v -1.126264 1.803615 0.254055
v -1.146274 1.805516 -0.210655
v -0.874745 1.599702 0.780638
v -1.334480 1.599056 -0.414627
v -1.366889 1.599054 0.190426
v -1.334590 1.599022 -0.754068
v -1.035030 1.999769 0.782888
v -1.104396 1.939753 0.782947
v -1.363645 1.722965 0.026390
v -1.322235 1.720936 0.782638
v -1.275143 1.792382 -0.753515
v -1.336132 1.730452 -0.754625
v -1.334875 1.775275 -0.426535
v -1.311734 1.799242 -0.372406
v -1.118001 1.985121 -0.754078
v -1.141517 1.976634 -0.189524
v -1.118162 1.985226 0.279274
v -1.361076 1.763559 0.057955
v -1.361213 1.765223 -0.005655
v -1.338077 1.790455 0.033161
v -1.327502 1.777725 0.556093
v -1.301303 1.799104 0.528461
v -1.312634 1.793110 -0.700674
v -1.334948 1.764206 -0.725615
v -0.874686 2.007537 -0.263192
v -0.874791 2.011484 -0.754053
vt 0.436811 0.709422
vt 0.436811 0.779725
vt 0.385533 0.749841
vt 0.390821 0.714155
vt 0.892041 0.782558
vt 0.888610 0.709998
vt 0.911982 0.710021
vt 0.911982 0.797294
vt 0.956003 0.661948
vt 0.939326 0.662045
vt 0.934691 0.600086
vt 0.956003 0.591929
vt 0.753220 0.834559
vt 0.753220 0.886359
vt 0.717280 0.857276
vt 0.726092 0.824665
vt 0.058054 0.609329
vt 0.121345 0.591175
vt 0.121345 0.672098
vt 0.046513 0.649181
vt 0.290276 0.952203
vt 0.280172 0.923896
vt 0.323808 0.931550
vt 0.323808 0.950657
vt 0.337867 0.903179
vt 0.325819 0.901842
vt 0.327019 0.805962
vt 0.337867 0.803772
vt 0.988864 0.045114
vt 0.977236 0.015601
vt 0.988864 0.002611
vt 0.930943 0.301911
vt 0.931805 0.252059
vt 0.954791 0.252450
vt 0.954791 0.316530
vt 0.808453 0.888988
vt 0.808453 0.929385
vt 0.767963 0.919689
vt 0.826841 0.392425
vt 0.826841 0.486679
vt 0.792809 0.470695
vt 0.990841 0.252059
vt 0.990841 0.316430
vt 0.979403 0.255009
vt 0.319681 0.918673
vt 0.280172 0.897205
vt 0.319681 0.874712
vt 0.380069 0.786046
vt 0.355196 0.705195
vt 0.380069 0.665112
vt 0.794002 0.559196
vt 0.829028 0.503591
vt 0.829028 0.588181
vt 0.253282 0.885624
vt 0.208047 0.845491
vt 0.253282 0.839323
vt 0.807844 0.721598
vt 0.767963 0.679040
vt 0.807844 0.635086
vt 0.967704 0.586132
vt 0.957381 0.571484
vt 0.967704 0.561599
vt 0.954699 0.817545
vt 0.954699 0.882941
vt 0.931564 0.856903
vt 0.726739 0.984338
vt 0.717280 0.974449
vt 0.726739 0.959805
vt 0.248115 0.834100
vt 0.208047 0.794584
vt 0.248115 0.764910
vt 0.954036 0.459230
vt 0.930818 0.419185
vt 0.954036 0.392425
vt 0.688360 0.736979
vt 0.711981 0.697189
vt 0.711981 0.767830
vt 0.790807 0.973606
vt 0.767963 0.971022
vt 0.790807 0.934608
vt 0.092412 0.966779
vt 0.109712 0.938923
vt 0.109712 0.988760
vt 0.953673 0.698378
vt 0.934691 0.676602
vt 0.953673 0.667268
vt 0.065262 0.979940
vt 0.046513 0.951108
vt 0.065262 0.931436
vt 0.385533 0.953318
vt 0.406642 0.923750
vt 0.406642 0.977312
vt 0.520706 0.691198
vt 0.507641 0.672271
vt 0.520706 0.586751
vt 0.664311 0.863028
vt 0.707078 0.851465
vt 0.707078 0.898638
vt 0.109829 0.697936
vt 0.129915 0.677321
vt 0.129915 0.758604
vt 0.957381 0.527260
vt 0.978391 0.503591
vt 0.978391 0.556376
vt 0.756768 0.495434
vt 0.784667 0.482896
vt 0.784667 0.497189
vt 0.582960 0.244069
vt 0.630276 0.227157
vt 0.630276 0.246242
vt 0.322821 0.977984
vt 0.301589 0.971037
vt 0.322821 0.957426
vt 0.894453 0.461968
vt 0.863192 0.413128
vt 0.894453 0.392425
vt 0.761887 0.855623
vt 0.761887 0.875241
vt 0.758443 0.862927
vt 0.926305 0.335415
vt 0.926305 0.383327
vt 0.891349 0.336353
vt 0.140834 0.700656
vt 0.135366 0.693957
vt 0.140834 0.675604
vt 0.495025 0.653323
vt 0.495025 0.704199
vt 0.385533 0.696867
vt 0.990122 0.691344
vt 0.984539 0.688632
vt 0.990122 0.652235
vt 0.967790 0.213932
vt 0.979756 0.145892
vt 0.979756 0.217138
vt 0.794002 0.602223
vt 0.862118 0.593404
vt 0.862118 0.605526
vt 0.762740 0.731567
vt 0.717280 0.669277
vt 0.762740 0.635086
vt 0.961226 0.684368
vt 0.979316 0.652235
vt 0.979316 0.703604
vt 0.615005 0.844492
vt 0.610518 0.766907
vt 0.615005 0.760193
vt 0.954382 0.119590
vt 0.967293 0.051482
vt 0.967293 0.132765
vt 0.983614 0.533585
vt 0.995554 0.503591
vt 0.995554 0.544997
vt 0.547996 0.612374
vt 0.533805 0.521221
vt 0.547996 0.507927
vt 0.296366 0.992464
vt 0.280172 0.958647
vt 0.296366 0.957426
vt 0.030386 0.963279
vt 0.039320 0.894818
vt 0.039320 0.975008
vt 0.730531 0.265367
vt 0.782098 0.252059
vt 0.782097 0.330321
vt 0.643360 0.218960
vt 0.762943 0.213449
vt 0.762943 0.236984
vt 0.039505 0.379647
vt 0.002611 0.367258
vt 0.039505 0.253375
vt 0.759653 0.204834
vt 0.747744 0.200974
vt 0.759653 0.191522
vt 0.921706 0.990500
vt 0.913796 0.986673
vt 0.921706 0.958950
vt 0.561109 0.504588
vt 0.615819 0.503591
vt 0.615819 0.599478
vt 0.553219 0.614041
vt 0.425590 0.842316
vt 0.385533 0.800545
vt 0.425590 0.784948
vt 0.199290 0.488683
vt 0.205895 0.428630
vt 0.205895 0.497143
vt 0.574645 0.872773
vt 0.574645 0.926114
vt 0.541295 0.925605
vt 0.893734 0.583820
vt 0.867297 0.555074
vt 0.893734 0.503591
vt 0.314735 0.869489
vt 0.280172 0.844400
vt 0.314735 0.803772
vt 0.821894 0.348032
vt 0.787320 0.269927
vt 0.821894 0.252059
vt 0.129915 0.850599
vt 0.118067 0.771289
vt 0.129915 0.763827
vt 0.604815 0.432663
vt 0.671478 0.392425
vt 0.671478 0.487560
vt 0.603512 0.839984
vt 0.568885 0.793513
vt 0.603512 0.760624
vt 0.523028 0.939535
vt 0.523028 0.987180
vt 0.507393 0.960284
vt 0.427517 0.230531
vt 0.347399 0.237360
vt 0.374784 0.105240
vt 0.427517 0.097793
vt 0.347826 0.785459
vt 0.343090 0.747056
vt 0.347826 0.740596
vt 0.851594 0.720209
vt 0.844052 0.708413
vt 0.851594 0.702290
vt 0.379584 0.872681
vt 0.375659 0.864820
vt 0.379584 0.858996
vt 0.612879 0.944091
vt 0.612879 0.991736
vt 0.604314 0.982242
vt 0.621042 0.873854
vt 0.647574 0.841768
vt 0.647574 0.918343
vt 0.900882 0.913864
vt 0.924413 0.898644
vt 0.924413 0.953727
vt 0.669935 0.991425
vt 0.664311 0.977299
vt 0.669935 0.961200
vt 0.952905 0.329725
vt 0.952905 0.383327
vt 0.931528 0.370765
vt 0.953080 0.498368
vt 0.936502 0.467736
vt 0.953080 0.464819
vt 0.238647 0.979862
vt 0.228078 0.972932
vt 0.238647 0.946312
vt 0.931279 0.476781
vt 0.931279 0.498368
vt 0.898957 0.492806
vt 0.979820 0.817545
vt 0.979820 0.870913
vt 0.959922 0.843615
vt 0.863192 0.467674
vt 0.890832 0.467191
vt 0.890832 0.495265
vt 0.979504 0.392425
vt 0.979504 0.445206
vt 0.959259 0.411875
vt 0.500913 0.982966
vt 0.494605 0.938302
vt 0.500913 0.930464
vt 0.366305 0.931014
vt 0.366305 0.978476
vt 0.343522 0.954596
vt 0.960717 0.965015
vt 0.978096 0.946989
vt 0.978096 0.988089
vt 0.070485 0.938849
vt 0.086369 0.931436
vt 0.086369 0.979700
vt 0.814956 0.956581
vt 0.830900 0.940640
vt 0.830900 0.987055
vt 0.977390 0.450429
vt 0.977390 0.496781
vt 0.959259 0.481911
vt 0.114935 0.970662
vt 0.130677 0.938923
vt 0.130677 0.987428
vt 0.991000 0.770991
vt 0.976802 0.756339
vt 0.991000 0.709998
vt 0.978411 0.329725
vt 0.978411 0.383288
vt 0.958128 0.350146
vt 0.904240 0.607359
vt 0.898957 0.588951
vt 0.904240 0.585389
vt 0.972013 0.002611
vt 0.972013 0.045320
vt 0.949878 0.025231
vt 0.765808 0.601096
vt 0.787293 0.596509
vt 0.787293 0.629863
vt 0.926341 0.817545
vt 0.926341 0.893421
vt 0.900882 0.829087
vt 0.274670 0.835788
vt 0.274670 0.885624
vt 0.258505 0.861753
vt 0.760636 0.155002
vt 0.807963 0.097793
vt 0.807963 0.171885
vt 0.974356 0.246523
vt 0.967790 0.237861
vt 0.974356 0.222361
vt 0.654899 0.387202
vt 0.604815 0.301334
vt 0.654899 0.252059
vt 0.703261 0.199803
vt 0.742521 0.191522
vt 0.742521 0.204621
vt 0.273913 0.890847
vt 0.273913 0.943245
vt 0.244578 0.917380
vt 0.271532 0.827240
vt 0.253338 0.814591
vt 0.271532 0.764910
vt 0.096729 0.862501
vt 0.202401 0.858536
vt 0.202401 0.877621
vt 0.711981 0.837611
vt 0.705926 0.774369
vt 0.711981 0.773053
vt 0.280172 0.747383
vt 0.337867 0.740596
vt 0.337867 0.798549
vt 0.271226 0.948468
vt 0.271226 0.986066
vt 0.264816 0.984782
vt 0.937673 0.240299
vt 0.937673 0.246836
vt 0.860188 0.246259
vt 0.971579 0.709998
vt 0.971579 0.790921
vt 0.960733 0.778464
vt 0.949754 0.987741
vt 0.931564 0.961306
vt 0.949754 0.955458
vt 0.955510 0.802249
vt 0.941472 0.794082
vt 0.955510 0.709998
vt 0.865422 0.702290
vt 0.865422 0.716831
vt 0.856817 0.704859
vt 0.273023 0.340843
vt 0.273023 0.416719
vt 0.266446 0.409570
vt 0.365609 0.464852
vt 0.280172 0.496945
vt 0.300736 0.398846
vt 0.365609 0.398757
vt 0.818099 0.174083
vt 0.813691 0.157610
vt 0.818099 0.145892
vt 0.436171 0.938805
vt 0.419580 0.928335
vt 0.436171 0.847539
vt 0.605729 0.938868
vt 0.579868 0.902100
vt 0.605729 0.872773
vt 0.894577 0.315966
vt 0.860188 0.278420
vt 0.894577 0.252059
vt 0.035429 0.716376
vt 0.035429 0.813769
vt 0.002611 0.790211
vt 0.022890 0.712588
vt 0.960717 0.927171
vt 0.979071 0.888164
vt 0.979071 0.941766
vt 0.709880 0.970667
vt 0.696591 0.908659
vt 0.709880 0.903861
vt 0.590048 0.084565
vt 0.577327 0.002611
vt 0.654405 0.019038
vt 0.654405 0.086775
vt 0.343522 0.906687
vt 0.355218 0.858996
vt 0.370436 0.867238
vt 0.370436 0.925791
vt 0.725308 0.257545
vt 0.725308 0.328791
vt 0.673138 0.312011
vt 0.660122 0.252059
vt 0.040494 0.498819
vt 0.002611 0.418830
vt 0.040494 0.384870
vt 0.698038 0.101477
vt 0.698038 0.208226
vt 0.648272 0.175505
vt 0.643360 0.097793
vt 0.717280 0.909478
vt 0.741090 0.891582
vt 0.741090 0.937884
vt 0.717820 0.954582
vt 0.857969 0.481001
vt 0.832064 0.480254
vt 0.832613 0.411518
vt 0.857969 0.392425
vt 0.955494 0.888164
vt 0.955494 0.950235
vt 0.931564 0.929673
vt 0.774463 0.342484
vt 0.774463 0.351431
vt 0.729698 0.346590
vt 0.379487 0.981928
vt 0.371528 0.938749
vt 0.379487 0.931014
vt 0.916269 0.140034
vt 0.891344 0.099105
vt 0.916269 0.096924
vt 0.746313 0.904708
vt 0.760660 0.891582
vt 0.760660 0.966480
vt 0.807549 0.934608
vt 0.807549 0.992294
vt 0.796030 0.987737
vt 0.674142 0.629862
vt 0.621042 0.529042
vt 0.674142 0.503591
vt 0.591892 0.702117
vt 0.615005 0.682641
vt 0.615005 0.754970
vt 0.943561 0.146458
vt 0.943561 0.220882
vt 0.921231 0.220140
vt 0.921229 0.145892
vt 0.446682 0.709422
vt 0.505371 0.714224
vt 0.505371 0.766106
vt 0.442034 0.766113
vt 0.922103 0.064590
vt 0.929506 0.002611
vt 0.944655 0.002785
vt 0.944655 0.075426
vt 0.962567 0.146365
vt 0.962567 0.238383
vt 0.948784 0.233132
vt 0.951156 0.145892
vt 0.112563 0.844148
vt 0.102575 0.848913
vt 0.082142 0.779242
vt 0.112563 0.765053
vt 0.046513 0.836238
vt 0.048362 0.766119
vt 0.076919 0.765053
vt 0.076919 0.853508
vt 0.158423 0.523817
vt 0.240179 0.512895
vt 0.240179 0.590382
vt 0.146120 0.584317
vt 0.202824 0.695840
vt 0.160595 0.700656
vt 0.146120 0.637974
vt 0.202824 0.595605
vt 0.787586 0.474617
vt 0.739830 0.392754
vt 0.787586 0.392425
vt 0.372116 0.502168
vt 0.372116 0.585267
vt 0.293101 0.572346
vt 0.280172 0.505855
vt 0.502419 0.586751
vt 0.502419 0.648100
vt 0.416182 0.643522
vt 0.385533 0.601661
vt 0.099106 0.933621
vt 0.092412 0.917420
vt 0.161089 0.914529
vt 0.161089 0.933700
vt 0.520706 0.696655
vt 0.520706 0.760987
vt 0.514168 0.758426
vt 0.511302 0.696421
vt 0.280196 0.003215
vt 0.342176 0.002611
vt 0.342176 0.239830
vt 0.280172 0.246836
vt 0.547996 0.497386
vt 0.507241 0.502704
vt 0.502081 0.264075
vt 0.547996 0.252059
vt 0.444888 0.494831
vt 0.444088 0.253140
vt 0.496858 0.252059
vt 0.496858 0.502292
vt 0.140897 0.490529
vt 0.048586 0.489969
vt 0.046513 0.425129
vt 0.140897 0.402425
vt 0.683386 0.384569
vt 0.660122 0.334014
vt 0.724475 0.335556
vt 0.724475 0.379463
vt 0.213381 0.261689
vt 0.261223 0.258933
vt 0.261223 0.503263
vt 0.213356 0.501014
vt 0.776949 0.087960
vt 0.747137 0.089147
vt 0.726769 0.027886
vt 0.776949 0.002611
vt 0.838830 0.615851
vt 0.838830 0.721598
vt 0.815571 0.710918
vt 0.813067 0.613557
vt 0.886121 0.078437
vt 0.886121 0.140034
vt 0.859972 0.131062
vt 0.857306 0.080318
vt 0.207441 0.350702
vt 0.199682 0.350653
vt 0.199290 0.262078
vt 0.207441 0.258389
vt 0.603512 0.845207
vt 0.603512 0.867550
vt 0.508256 0.859696
vt 0.507393 0.853560
vt 0.725490 0.183473
vt 0.703261 0.114355
vt 0.755413 0.097793
vt 0.755413 0.186299
vt 0.768166 0.211030
vt 0.768493 0.196492
vt 0.818099 0.179617
vt 0.818099 0.236984
vt 0.916880 0.089474
vt 0.893982 0.089636
vt 0.894607 0.019620
vt 0.916880 0.002611
vt 0.638137 0.211338
vt 0.582960 0.221934
vt 0.584284 0.126364
vt 0.638137 0.097793
vt 0.071016 0.244304
vt 0.002611 0.248152
vt 0.006937 0.002863
vt 0.071016 0.002611
vt 0.615819 0.673048
vt 0.526159 0.677418
vt 0.541357 0.619264
vt 0.615819 0.627331
vt 0.296148 0.590490
vt 0.375306 0.596156
vt 0.375305 0.659492
vt 0.280172 0.659889
vt 0.734607 0.477674
vt 0.676701 0.474581
vt 0.688968 0.395114
vt 0.734607 0.392425
vt 0.659628 0.085260
vt 0.667742 0.010390
vt 0.721546 0.002611
vt 0.721546 0.068028
vt 0.349973 0.665112
vt 0.349973 0.735373
vt 0.280172 0.698175
vt 0.284141 0.666333
vt 0.241229 0.595605
vt 0.272910 0.597190
vt 0.272910 0.675334
vt 0.208047 0.675781
vt 0.952158 0.572356
vt 0.931160 0.574908
vt 0.930597 0.514496
vt 0.952158 0.503591
vt 0.842415 0.486224
vt 0.842415 0.498036
vt 0.836046 0.497900
vt 0.832064 0.490224
vt 0.379973 0.398757
vt 0.379973 0.488956
vt 0.370832 0.486737
vt 0.679365 0.588683
vt 0.687176 0.586907
vt 0.687176 0.593114
vt 0.210441 0.685634
vt 0.267136 0.681004
vt 0.267136 0.752219
vt 0.208047 0.759687
vt 0.135366 0.747707
vt 0.136007 0.719524
vt 0.202824 0.705879
vt 0.202824 0.764606
vt 0.960014 0.318594
vt 0.974181 0.252059
vt 0.974181 0.322699
vt 0.526571 0.519492
vt 0.526571 0.581230
vt 0.413027 0.581528
vt 0.385533 0.508380
vt 0.536485 0.102223
vt 0.577737 0.097793
vt 0.577737 0.232722
vt 0.519116 0.236245
vt 0.489382 0.930464
vt 0.489382 0.956328
vt 0.449261 0.955927
vt 0.442034 0.931764
vt 0.239355 0.935873
vt 0.208047 0.941089
vt 0.215320 0.897866
vt 0.239355 0.890847
vt 0.541808 0.682641
vt 0.586669 0.683126
vt 0.586669 0.747991
vt 0.526159 0.755401
vt 0.622540 0.716647
vt 0.683137 0.697189
vt 0.683137 0.762586
vt 0.621042 0.767995
vt 0.507393 0.925884
vt 0.507421 0.880919
vt 0.536072 0.872773
vt 0.536072 0.934312
vt 0.864039 0.325987
vt 0.883869 0.321189
vt 0.883869 0.351024
vt 0.860188 0.339341
vt 0.553451 0.493935
vt 0.553219 0.252059
vt 0.599592 0.254039
vt 0.599592 0.498368
vt 0.736912 0.811503
vt 0.717280 0.754307
vt 0.757600 0.736790
vt 0.757600 0.819442
vt 0.077526 0.266918
vt 0.140897 0.255482
vt 0.140897 0.383914
vt 0.052120 0.397202
vt 0.383886 0.092570
vt 0.347399 0.002611
vt 0.474799 0.011230
vt 0.474799 0.078906
vt 0.490449 0.026071
vt 0.572104 0.002611
vt 0.572104 0.085601
vt 0.480022 0.085267
vt 0.814956 0.919104
vt 0.817962 0.875878
vt 0.842437 0.870531
vt 0.842437 0.935417
vt 0.104606 0.759513
vt 0.046513 0.759830
vt 0.046640 0.696299
vt 0.104606 0.677321
vt 0.149791 0.938923
vt 0.149791 0.991831
vt 0.135929 0.987831
vt 0.135900 0.939363
vt 0.902102 0.227982
vt 0.892476 0.145892
vt 0.916006 0.146421
vt 0.916006 0.231836
vt 0.742322 0.572356
vt 0.679365 0.581684
vt 0.716452 0.505982
vt 0.742322 0.503591
vt 0.793684 0.619193
vt 0.803357 0.616424
vt 0.803357 0.629061
vt 0.792516 0.629863
vt 0.146120 0.497074
vt 0.146137 0.258389
vt 0.194067 0.264051
vt 0.194067 0.507672
vt 0.824077 0.363260
vt 0.886126 0.356654
vt 0.886126 0.383327
vt 0.816140 0.378638
vt 0.579868 0.975498
vt 0.599091 0.944091
vt 0.599091 0.982785
vt 0.513893 0.097793
vt 0.513893 0.226226
vt 0.434630 0.214930
vt 0.432740 0.122933
vt 0.847660 0.875872
vt 0.860741 0.870531
vt 0.860741 0.962613
vt 0.847994 0.962734
vt 0.144124 0.772529
vt 0.170404 0.769829
vt 0.170404 0.842159
vt 0.135366 0.842284
vt 0.076239 0.008047
vt 0.140897 0.002611
vt 0.140897 0.250259
vt 0.076534 0.249923
vt 0.978857 0.647012
vt 0.961226 0.605980
vt 0.978857 0.591929
vt 0.208133 0.002611
vt 0.208133 0.253166
vt 0.146120 0.246055
vt 0.146137 0.006729
vt 0.925374 0.503591
vt 0.925374 0.580166
vt 0.900807 0.572991
vt 0.898957 0.503932
vt 0.132738 0.585952
vt 0.046513 0.576668
vt 0.063660 0.511200
vt 0.132738 0.495752
vt 0.280522 0.384075
vt 0.280172 0.256384
vt 0.380310 0.252059
vt 0.380310 0.393534
vt 0.161089 0.883559
vt 0.161089 0.905147
vt 0.102914 0.909306
vt 0.096729 0.882844
vt 0.385533 0.501193
vt 0.386102 0.253547
vt 0.438865 0.252059
vt 0.438865 0.503157
vt 0.621042 0.665536
vt 0.712057 0.635086
vt 0.712057 0.691966
vt 0.983508 0.126790
vt 0.972516 0.058991
vt 0.983508 0.051482
vt 0.140401 0.591175
vt 0.140401 0.669984
vt 0.126568 0.657780
vt 0.541295 0.939920
vt 0.562439 0.931337
vt 0.562439 0.979257
vt 0.274949 0.253711
vt 0.213410 0.253475
vt 0.213356 0.003242
vt 0.274949 0.002611
vt 0.534888 0.988164
vt 0.528251 0.940487
vt 0.534888 0.939535
vt 0.867739 0.918252
vt 0.890238 0.897993
vt 0.890238 0.963362
vt 0.761958 0.850400
vt 0.758443 0.830528
vt 0.761958 0.824665
vt 0.002611 0.581366
vt 0.015555 0.504041
vt 0.040193 0.504490
vt 0.040193 0.603102
vt 0.222855 0.946312
vt 0.222855 0.994225
vt 0.208047 0.979722
vt 0.414357 0.918527
vt 0.385533 0.888186
vt 0.414357 0.847539
vt 0.883387 0.726821
vt 0.883387 0.797294
vt 0.851795 0.763309
vt 0.888759 0.002611
vt 0.888759 0.073214
vt 0.857306 0.035080
vt 0.925595 0.392425
vt 0.925595 0.469111
vt 0.899676 0.411933
vt 0.995817 0.993389
vt 0.983319 0.979315
vt 0.995817 0.946989
vt 0.883825 0.606750
vt 0.878195 0.597281
vt 0.883825 0.593404
vt 0.808766 0.875486
vt 0.805572 0.869241
vt 0.808766 0.862009
vt 0.166312 0.977694
vt 0.181285 0.950482
vt 0.181285 0.995687
vt 0.199290 0.412534
vt 0.206438 0.355925
vt 0.206438 0.423407
vt 0.836123 0.982599
vt 0.841615 0.940640
vt 0.841615 0.986591
vt 0.656826 0.923566
vt 0.656826 0.958224
vt 0.621042 0.955763
vt 0.985043 0.840098
vt 0.991314 0.817545
vt 0.991314 0.847821
vt 0.202401 0.769829
vt 0.202401 0.853313
vt 0.175627 0.829462
vt 0.990886 0.182437
vt 0.984979 0.169816
vt 0.990886 0.145892
vt 0.073175 0.926213
vt 0.046513 0.902236
vt 0.073175 0.858731
vt 0.905201 0.613557
vt 0.905201 0.684960
vt 0.875753 0.655225
vt 0.038463 0.706937
vt 0.013824 0.707365
vt 0.002611 0.632952
vt 0.038463 0.608325
vt 0.862074 0.503591
vt 0.862074 0.584812
vt 0.834251 0.544930
vt 0.490931 0.839856
vt 0.490931 0.848008
vt 0.478350 0.844687
vt 0.917205 0.735174
vt 0.936249 0.709998
vt 0.936249 0.803028
vt 0.676701 0.490728
vt 0.751545 0.482896
vt 0.751545 0.496832
vt 0.805572 0.851634
vt 0.809733 0.813292
vt 0.809733 0.856786
vt 0.186508 0.962142
vt 0.201283 0.950482
vt 0.201283 0.994825
vt 0.852083 0.002611
vt 0.852083 0.093703
vt 0.824482 0.037318
vt 0.908573 0.991391
vt 0.900882 0.960775
vt 0.908573 0.958950
vt 0.827117 0.345790
vt 0.836911 0.344046
vt 0.836911 0.350835
vt 0.881910 0.721241
vt 0.875753 0.709401
vt 0.881910 0.690183
vt 0.658410 0.841768
vt 0.658410 0.906533
vt 0.652797 0.898551
vt 0.989282 0.888164
vt 0.989282 0.938574
vt 0.984294 0.930186
vt 0.846572 0.726821
vt 0.846572 0.812322
vt 0.815823 0.810714
vt 0.814956 0.727234
vt 0.460999 0.922241
vt 0.442034 0.860315
vt 0.468578 0.854765
vt 0.468578 0.925241
vt 0.574301 0.931337
vt 0.574301 0.980082
vt 0.567662 0.979149
vt 0.002611 0.939902
vt 0.025163 0.894818
vt 0.025163 0.960221
vt 0.615005 0.849715
vt 0.615005 0.875450
vt 0.611489 0.869587
vt 0.434627 0.991791
vt 0.419580 0.958275
vt 0.434627 0.944028
vt 0.696479 0.773218
vt 0.696479 0.846242
vt 0.664311 0.807993
vt 0.500344 0.925241
vt 0.473801 0.919690
vt 0.492765 0.857764
vt 0.500344 0.854765
vt 0.799544 0.883765
vt 0.767963 0.847481
vt 0.799544 0.813292
vt 0.034049 0.889595
vt 0.002611 0.857043
vt 0.034049 0.818992
vt 0.810917 0.357046
vt 0.810917 0.377768
vt 0.733540 0.384569
vt 0.729698 0.356654
vt 0.925720 0.328745
vt 0.899800 0.309236
vt 0.925720 0.252059
vt 0.090940 0.858731
vt 0.090940 0.905274
vt 0.078398 0.872766
vt 0.872972 0.593404
vt 0.872972 0.606751
vt 0.867341 0.602874
vt 0.860793 0.222532
vt 0.860793 0.233661
vt 0.856146 0.227266
vt 0.244578 0.966534
vt 0.259593 0.948468
vt 0.259593 0.993722
vt 0.984080 0.590229
vt 0.989686 0.584597
vt 0.989686 0.647012
vt 0.271923 0.421942
vt 0.271923 0.498628
vt 0.266446 0.494760
vt 0.155014 0.942915
vt 0.160506 0.938923
vt 0.160506 0.984874
vt 0.850923 0.140670
vt 0.815139 0.108272
vt 0.850923 0.105825
vt 0.984979 0.195378
vt 0.991256 0.187660
vt 0.991256 0.218015
vt 0.870530 0.697066
vt 0.844052 0.637263
vt 0.870530 0.613557
vt 0.990590 0.392425
vt 0.990590 0.429164
vt 0.984727 0.405230
vt 0.193312 0.882844
vt 0.193312 0.945259
vt 0.166312 0.905954
vt 0.887253 0.217309
vt 0.856146 0.181167
vt 0.887253 0.145892
vt 0.983634 0.330529
vt 0.990219 0.329725
vt 0.990219 0.377097
vt 0.273460 0.590382
vt 0.245402 0.549023
vt 0.273460 0.509162
vt 0.853453 0.486224
vt 0.853453 0.497353
vt 0.847638 0.491937
vt 0.910424 0.659784
vt 0.929468 0.591929
vt 0.929468 0.684960
vt 0.432740 0.234469
vt 0.510357 0.231449
vt 0.510357 0.245532
vt 0.982613 0.483112
vt 0.997388 0.450429
vt 0.997388 0.494772
vt 0.850923 0.236984
vt 0.823322 0.202278
vt 0.850923 0.145892
vt 0.984493 0.776214
vt 0.984493 0.808655
vt 0.976802 0.806830
vt 0.842134 0.349091
vt 0.851928 0.344046
vt 0.851928 0.350835
vt 0.738120 0.959805
vt 0.738120 0.990864
vt 0.731962 0.971646
vt 0.337867 0.973167
vt 0.332254 0.916385
vt 0.337867 0.908402
vt 0.435801 0.835358
vt 0.430813 0.793336
vt 0.435801 0.784948
vt 0.380069 0.791269
vt 0.380069 0.853773
vt 0.343522 0.822251
vt 0.862516 0.817545
vt 0.862516 0.865308
vt 0.814956 0.858103
vt 0.659088 0.773218
vt 0.659088 0.836545
vt 0.621042 0.805104
vt 0.621747 0.777261
vt 0.949159 0.080649
vt 0.949159 0.132765
vt 0.923798 0.128394
vt 0.922103 0.082475
vt 0.273214 0.335620
vt 0.266446 0.333777
vt 0.267737 0.262801
vt 0.273214 0.258933
vt 0.869366 0.820710
vt 0.895659 0.817545
vt 0.895659 0.888961
vt 0.867739 0.892770
vt 0.760585 0.629488
vt 0.679365 0.629863
vt 0.686160 0.598768
vt 0.760585 0.608761
vt 0.691368 0.955977
vt 0.664311 0.954152
vt 0.666006 0.908232
vt 0.691368 0.903861
vt 0.751219 0.590278
vt 0.747545 0.503591
vt 0.788779 0.514931
vt 0.788779 0.590298
vt 0.516482 0.834633
vt 0.482641 0.834117
vt 0.478350 0.802791
vt 0.516482 0.771336
vt 0.809733 0.735990
vt 0.809733 0.808069
vt 0.771065 0.788331
vt 0.767963 0.726821
vt 0.528918 0.777367
vt 0.563662 0.760624
vt 0.563662 0.830499
vt 0.526159 0.838893
vt 0.473127 0.778139
vt 0.473127 0.849542
vt 0.442405 0.847481
vt 0.442034 0.771336
vt 0.785414 0.002612
vt 0.819259 0.002611
vt 0.819259 0.077978
vt 0.782172 0.088052
vt 0.044728 0.259675
vt 0.046771 0.253375
vt 0.046771 0.329521
vt 0.854965 0.338823
vt 0.827117 0.338371
vt 0.828633 0.254875
vt 0.854965 0.252059
vn -0.0245 -0.1073 -0.9939
vn -0.1249 -0.1356 -0.9829
vn -0.1248 -0.1356 -0.9829
vn 0.0623 0.0203 0.9979
vn 0.0624 0.0178 0.9979
vn 0.0709 0.0201 0.9973
vn 0.0702 0.0189 0.9974
vn -0.8337 0.0153 -0.5520
vn -0.8322 0.0164 -0.5542
vn -0.8323 0.0165 -0.5541
vn -0.8337 0.0155 -0.5520
vn -0.0982 -0.1436 -0.9847
vn -0.1922 -0.2776 -0.9413
vn 0.9992 -0.0357 0.0201
vn 0.9997 -0.0232 -0.0069
vn 0.9996 0.0078 0.0281
vn 0.9999 -0.0049 0.0165
vn 0.3934 0.2949 0.8708
vn 0.4410 0.2771 0.8536
vn 0.4411 0.2771 0.8536
vn 0.8994 0.4359 0.0321
vn 0.9012 0.4334 0.0017
vn 0.8926 0.4504 0.0189
vn 0.8929 0.4500 -0.0171
vn -0.9943 0.1065 -0.0014
vn 0.5091 -0.2834 -0.8127
vn 0.5089 -0.2829 -0.8130
vn 0.5096 -0.2843 -0.8121
vn 0.0321 -0.1510 -0.9880
vn -0.9887 0.1491 0.0118
vn -0.2147 -0.0411 0.9758
vn -0.0051 -0.0450 0.9990
vn 0.0805 0.0912 0.9926
vn 0.0701 0.0011 0.9975
vn 0.0713 -0.0015 0.9975
vn 0.0691 0.0015 0.9976
vn -0.0536 0.0134 0.9985
vn -0.1012 -0.0077 -0.9948
vn -0.8556 -0.5069 -0.1046
vn -0.0206 0.0174 0.9996
vn -0.0224 0.0289 0.9993
vn -0.0192 0.0238 0.9995
vn -0.3822 0.5820 -0.7178
vn -0.3826 0.5823 -0.7174
vn -0.3836 0.5788 -0.7196
vn 0.0053 0.0030 -1.0000
vn 0.0014 0.0038 -1.0000
vn 0.0064 0.0044 -1.0000
vn -0.0140 0.0342 -0.9993
vn 0.0111 -0.0082 0.9999
vn 0.3034 -0.5695 -0.7639
vn 0.7540 -0.0738 -0.6527
vn 0.7251 -0.1924 0.6612
vn -0.7017 0.0982 -0.7057
vn -0.8660 0.0481 0.4977
vn 0.1353 -0.0505 -0.9895
vn 0.0451 0.1308 0.9904
vn -0.0058 -0.0025 1.0000
vn -0.0137 -0.0024 0.9999
vn -0.0100 -0.0073 0.9999
vn -0.2862 -0.6031 0.7446
vn -0.2853 -0.6043 0.7439
vn -0.2853 -0.6038 0.7443
vn -0.0569 -0.0735 -0.9957
vn 0.0078 0.9977 -0.0674
vn -0.5089 0.2863 -0.8118
vn 0.9975 0.0413 -0.0569
vn 0.9971 0.0477 -0.0588
vn 0.9978 0.0474 -0.0474
vn -0.8835 0.2381 0.4034
vn -0.2185 -0.0017 -0.9758
vn -0.4213 -0.5471 0.7233
vn -0.0329 0.9992 0.0221
vn -0.0431 0.9987 0.0271
vn -0.0363 0.9989 0.0279
vn -0.3298 0.1682 -0.9289
vn 0.0216 0.3009 -0.9534
vn 0.8890 0.4579 0.0079
vn 0.8803 0.4742 0.0147
vn 0.8829 0.4696 -0.0016
vn -0.0289 0.9994 -0.0204
vn -0.8638 0.1967 0.4639
vn -0.9979 -0.0524 -0.0387
vn 0.7333 -0.0363 0.6790
vn 0.7231 -0.0333 0.6900
vn 0.7276 -0.0385 0.6850
vn 0.5903 0.1269 0.7971
vn 0.6853 -0.0543 -0.7263
vn 0.7908 0.0475 -0.6102
vn -0.5762 -0.0671 -0.8146
vn 0.9995 0.0069 0.0310
vn 0.9994 -0.0000 0.0351
vn 0.9992 0.0309 0.0237
vn -0.0499 0.7020 0.7105
vn -0.0270 0.9993 -0.0251
vn 0.3754 0.5964 -0.7095
vn -0.1923 -0.0794 -0.9781
vn 0.0966 0.9951 0.0198
vn 0.1072 0.9939 0.0260
vn 0.1051 0.9941 0.0248
vn 0.0952 0.9953 0.0190
vn 0.0025 0.0054 -1.0000
vn -0.0026 0.0071 -1.0000
vn 0.0005 0.0110 -0.9999
vn 0.6225 -0.2857 0.7287
vn 0.0801 -0.0027 0.9968
vn 0.0765 -0.0039 0.9971
vn 0.0405 0.0593 -0.9974
vn 0.0704 -0.0022 0.9975
vn 0.0702 -0.0010 0.9975
vn 0.0739 -0.0020 0.9973
vn 0.0073 0.9997 -0.0240
vn -0.9934 -0.0791 0.0835
vn -0.0049 0.9995 0.0300
vn 0.0201 0.9998 0.0003
vn -0.1121 -0.1822 0.9768
vn 0.9995 -0.0312 0.0066
vn 1.0000 0.0093 -0.0010
vn -0.8586 0.1273 -0.4965
vn -0.8561 -0.5060 -0.1048
vn -0.3825 0.5876 -0.7130
vn -0.3813 0.5850 -0.7158
vn -0.3777 0.5847 -0.7180
vn 0.0768 -0.0949 0.9925
vn -0.0589 -0.2340 -0.9704
vn -0.0283 0.0243 -0.9993
vn -0.1174 0.1137 -0.9866
vn 0.0653 0.0277 0.9975
vn 0.0646 0.0231 0.9976
vn 0.0667 0.0244 0.9975
vn 0.3058 -0.4455 0.8415
vn 0.6536 -0.5520 0.5178
vn -0.3073 -0.4503 -0.8383
vn -0.1704 -0.3993 -0.9008
vn 0.3233 -0.4473 -0.8339
vn 0.2768 -0.5581 -0.7822
vn 0.2753 -0.6841 0.6754
vn 0.7915 -0.1142 -0.6005
vn 0.4060 0.1168 0.9064
vn 0.7496 -0.1318 0.6487
vn -0.8399 0.0008 -0.5427
vn -0.8468 0.0716 0.5271
vn 0.1167 -0.0627 -0.9912
vn -0.0006 0.9993 -0.0387
vn -0.0127 0.9991 -0.0398
vn -0.0245 0.9988 -0.0430
vn 0.0022 -0.0048 1.0000
vn -0.0014 0.0004 1.0000
vn -0.0057 -0.0040 1.0000
vn -0.7013 -0.0351 0.7120
vn -0.2859 -0.6015 0.7459
vn -0.2859 -0.6023 0.7453
vn -0.2855 -0.6026 0.7452
vn -0.1922 -0.5705 0.7985
vn -0.0775 -0.0326 -0.9965
vn -0.1135 -0.0329 -0.9930
vn -0.0242 0.9988 0.0426
vn 0.0214 -0.7171 0.6967
vn 0.9998 0.0036 0.0179
vn -0.1039 -0.0966 -0.9899
vn -0.0292 0.0873 -0.9958
vn -0.0243 -0.0169 0.9996
vn -0.0182 0.9977 -0.0658
vn -0.7667 0.6420 -0.0020
vn -0.0027 1.0000 0.0030
vn -0.1450 0.4466 0.8829
vn -0.0902 -0.0748 0.9931
vn 0.7409 -0.0414 0.6703
vn 0.7363 -0.0364 0.6756
vn 0.7307 -0.0388 0.6816
vn 0.4947 0.0640 0.8667
vn 0.7727 -0.0327 -0.6339
vn -0.5586 -0.0483 -0.8280
vn -0.7320 -0.0498 -0.6795
vn -0.9983 0.0543 0.0209
vn -0.9989 0.0437 0.0147
vn -0.9983 0.0514 0.0289
vn -0.9983 0.0541 0.0211
vn 0.9550 0.1478 -0.2573
vn -0.9778 0.1949 0.0766
vn 0.1492 -0.0375 0.9881
vn 0.0305 -0.0227 0.9993
vn -0.0014 -0.1277 -0.9918
vn -0.0018 -0.1287 -0.9917
vn -0.0005 -0.1256 -0.9921
vn 0.0000 -0.1243 -0.9922
vn -0.7664 -0.0643 0.6391
vn -0.7737 -0.0622 0.6305
vn -0.7704 -0.0685 0.6339
vn 0.6820 0.0791 -0.7271
vn 0.9989 0.0457 0.0100
vn 0.9987 0.0473 0.0164
vn 0.9991 0.0398 0.0115
vn 0.9990 0.0427 0.0110
vn 0.8599 0.0547 -0.5075
vn 0.8602 0.0544 -0.5071
vn -0.0497 0.9982 -0.0343
vn -0.0499 0.9982 -0.0345
vn -0.0464 0.9985 -0.0305
vn -0.0461 0.9985 -0.0302
vn -0.0320 0.9994 0.0113
vn -0.0355 0.9991 0.0212
vn -0.0296 0.9994 0.0152
vn -0.0139 0.9990 -0.0428
vn -0.0134 0.9990 -0.0423
vn -0.0149 0.9989 -0.0438
vn -0.0153 0.9989 -0.0441
vn 0.2308 -0.5917 0.7724
vn 0.2322 -0.5884 0.7746
vn 0.2319 -0.5890 0.7741
vn 0.2306 -0.5923 0.7720
vn 0.1484 0.0392 0.9881
vn 0.1484 0.0392 0.9882
vn 0.2266 0.0075 0.9740
vn -0.1575 -0.0424 -0.9866
vn -0.3842 0.3661 0.8475
vn 0.0589 -0.0797 0.9951
vn -0.7605 -0.0686 0.6457
vn -0.7631 -0.0617 0.6433
vn -0.7673 -0.0656 0.6380
vn 0.6067 0.0538 -0.7931
vn 0.1182 0.2800 -0.9527
vn -0.0418 0.9990 0.0168
vn -0.0409 0.9988 0.0274
vn -0.0444 0.9988 0.0216
vn 0.1270 0.2304 -0.9648
vn -0.7794 0.6252 0.0394
vn -0.7795 0.6252 0.0394
vn -0.8502 0.5206 0.0782
vn -0.0529 0.9985 0.0133
vn -0.0559 0.9983 0.0161
vn -0.0512 0.9985 0.0172
vn -0.0532 0.9985 0.0133
vn -0.8017 0.0468 0.5959
vn -0.7961 0.0500 0.6031
vn 0.7148 0.0143 0.6992
vn 0.7170 0.0086 0.6970
vn 0.7171 0.0196 0.6967
vn 0.7145 0.0143 0.6995
vn 0.9419 0.3304 0.0602
vn 0.9558 0.2941 0.0044
vn 0.9636 0.2649 0.0354
vn 0.9636 0.2649 0.0355
vn -0.2234 0.0478 -0.9736
vn -0.1963 0.0346 -0.9799
vn -0.1964 0.0347 -0.9799
vn -0.9910 -0.1341 0.0039
vn -0.9901 -0.1399 0.0127
vn -0.9885 -0.1500 0.0184
vn -0.9972 0.0735 0.0134
vn -0.9970 0.0779 0.0045
vn -0.9970 0.0771 0.0062
vn -0.9972 0.0734 0.0136
vn 0.0201 0.9994 -0.0273
vn 0.9996 -0.0165 0.0238
vn 0.9993 -0.0254 0.0263
vn 0.9993 -0.0198 0.0303
vn 0.9996 -0.0178 0.0223
vn -0.0589 0.9981 0.0190
vn -0.0566 0.9983 0.0155
vn -0.0615 0.9980 0.0157
vn 0.7885 0.0172 0.6148
vn 0.7944 0.0137 0.6073
vn 0.7929 0.0139 0.6091
vn 0.7870 0.0174 0.6167
vn -0.7725 0.0040 -0.6350
vn -0.7813 0.0072 -0.6242
vn 0.9999 0.0145 -0.0005
vn 0.9998 0.0218 -0.0024
vn 0.9993 0.0386 -0.0024
vn 0.9990 0.0456 -0.0036
vn 0.9991 0.0431 -0.0032
vn 0.9993 0.0362 -0.0020
vn 0.4687 -0.8833 -0.0079
vn 0.4912 -0.8711 -0.0024
vn -0.9997 0.0161 0.0200
vn -0.9997 0.0161 0.0201
vn -1.0000 0.0042 0.0089
vn -1.0000 0.0062 0.0045
vn 0.0241 0.0426 0.9988
vn 0.0314 0.0377 0.9988
vn 0.0239 0.0427 0.9988
vn 0.0234 0.0430 0.9988
vn -0.9997 -0.0249 0.0015
vn -0.9995 -0.0321 0.0003
vn -0.9996 -0.0297 0.0008
vn -0.9997 -0.0246 0.0013
vn -0.9894 0.1332 0.0585
vn -0.9894 0.1333 0.0585
vn -0.9959 0.0792 0.0428
vn -0.9959 0.0793 0.0428
vn -0.0286 0.3566 -0.9338
vn -0.0206 0.3876 -0.9216
vn -0.0206 0.3877 -0.9216
vn -0.0113 -0.3645 -0.9311
vn 0.0394 -0.2663 -0.9631
vn -0.6868 0.0297 0.7262
vn -0.5668 0.0142 0.8237
vn -0.7802 0.6192 -0.0884
vn -0.7585 0.6461 -0.0848
vn -0.7585 0.6461 -0.0845
vn 0.1082 0.9939 -0.0208
vn 0.1261 0.9914 -0.0338
vn 0.0088 0.0062 -0.9999
vn 0.0094 0.0064 -0.9999
vn 0.0106 0.0031 -0.9999
vn 0.0058 0.0124 -0.9999
vn -0.0088 0.0013 -1.0000
vn -0.0021 0.0037 -1.0000
vn -0.0044 0.0033 -1.0000
vn -0.0107 0.0010 -0.9999
vn -0.9971 0.0759 -0.0076
vn -0.9966 0.0818 -0.0048
vn -0.9967 0.0806 -0.0054
vn -0.9972 0.0748 -0.0080
vn 0.8773 -0.4799 -0.0101
vn 0.8820 -0.4710 -0.0128
vn 0.8806 -0.4736 -0.0120
vn 0.8758 -0.4827 -0.0093
vn 0.9985 0.0358 -0.0415
vn 0.9985 0.0359 -0.0415
vn 0.9962 0.0525 -0.0689
vn -0.0273 0.9986 0.0459
vn -0.0272 0.9986 0.0452
vn -0.0278 0.9984 0.0485
vn -0.0278 0.9984 0.0486
vn 0.9978 -0.0229 -0.0618
vn 0.9979 -0.0225 -0.0610
vn 0.9979 -0.0227 -0.0614
vn 0.9978 -0.0234 -0.0627
vn 0.1024 0.9947 -0.0119
vn 0.0750 0.9966 -0.0354
vn 0.1023 0.9947 -0.0119
vn 0.9992 -0.0096 -0.0384
vn 0.9981 -0.0613 0.0029
vn -0.9945 -0.0992 -0.0334
vn -0.9946 -0.0968 -0.0369
vn -0.9946 -0.0973 -0.0361
vn -0.9945 -0.0996 -0.0328
vn 0.6703 -0.3042 0.6768
vn 0.6718 -0.3060 0.6746
vn 0.6713 -0.3054 0.6754
vn 0.6700 -0.3038 0.6774
vn -0.2176 0.0061 0.9760
vn -0.2173 0.0057 0.9761
vn -0.2203 0.0106 0.9754
vn -0.2205 0.0110 0.9753
vn -0.7763 0.0512 -0.6283
vn -0.5351 -0.1114 -0.8374
vn -0.0670 0.9977 0.0121
vn -0.0654 0.9977 0.0195
vn -0.0655 0.9977 0.0190
vn -0.0671 0.9977 0.0116
vn 0.9959 0.0698 -0.0579
vn 0.9958 0.0705 -0.0591
vn 0.9971 0.0525 -0.0555
vn 0.9968 0.0525 -0.0600
vn 0.7083 0.0239 0.7055
vn 0.7113 0.0287 0.7023
vn 0.7079 0.0331 0.7055
vn -0.9909 -0.1327 0.0230
vn -0.9914 -0.1293 0.0176
vn -0.9932 -0.1121 0.0319
vn 0.9998 0.0185 -0.0018
vn 0.9993 0.0273 0.0256
vn 0.9994 0.0186 0.0283
vn 0.9994 0.0213 0.0286
vn -0.0679 0.3904 -0.9181
vn -0.0679 0.3905 -0.9181
vn -0.0891 0.4269 -0.8999
vn 0.2788 0.0756 0.9574
vn 0.3106 0.0154 0.9504
vn -0.9998 0.0210 -0.0048
vn -0.9976 0.0586 0.0364
vn -0.0073 0.0238 0.9997
vn -0.0132 0.0228 0.9997
vn -0.0136 0.0254 0.9996
vn -0.0091 0.0280 0.9996
vn -0.0016 -0.5512 0.8343
vn -0.0023 -0.5501 0.8351
vn 0.0012 -0.5554 0.8316
vn 0.0016 -0.5560 0.8312
vn -0.8533 0.2719 0.4449
vn -0.8830 0.3073 0.3548
vn -0.9996 0.0275 -0.0002
vn -0.9996 0.0285 -0.0004
vn -0.9997 0.0258 0.0001
vn -0.9997 0.0248 0.0003
vn -0.0651 -0.0125 0.9978
vn -0.0651 -0.0126 0.9978
vn -0.0622 -0.0278 0.9977
vn 0.9990 0.0442 0.0096
vn 0.9993 0.0373 0.0076
vn 0.9992 0.0394 0.0074
vn 0.9991 0.0420 0.0061
vn -0.9998 -0.0068 0.0206
vn -1.0000 0.0005 0.0094
vn -0.9998 0.0032 0.0181
vn -0.9999 -0.0046 0.0129
vn 0.9986 -0.0090 -0.0512
vn 0.9987 -0.0102 -0.0496
vn -0.5057 -0.3438 0.7912
vn -0.5057 -0.3439 0.7912
vn -0.5114 -0.3544 0.7829
vn -0.5113 -0.3543 0.7829
vn -0.0027 0.9999 -0.0143
vn -0.0129 0.9994 -0.0333
vn -0.0128 0.9994 -0.0335
vn -0.0349 0.6618 0.7488
vn -0.0351 0.6618 0.7488
vn -0.0172 0.6146 0.7886
vn 0.0183 0.7045 0.7095
vn 0.0257 0.6752 0.7372
vn 0.0257 0.6751 0.7372
vn -0.0243 -0.0164 0.9996
vn -0.0269 -0.0139 0.9995
vn -0.0265 -0.0143 0.9995
vn -0.0234 -0.0173 0.9996
vn 0.6279 -0.6675 0.4002
vn 0.6452 -0.6485 0.4040
vn 0.9975 -0.0712 -0.0033
vn 0.9973 -0.0727 -0.0036
vn 0.9977 -0.0684 -0.0027
vn 0.9978 -0.0667 -0.0024
vn 0.8349 -0.0435 -0.5487
vn 0.8342 -0.0431 -0.5498
vn 0.8341 -0.0431 -0.5499
vn -0.5192 0.2505 -0.8171
vn 0.9999 0.0078 0.0071
vn 0.9999 -0.0074 0.0097
vn 0.9997 0.0003 0.0232
vn 0.7109 -0.0045 -0.7033
vn 0.7082 -0.0051 -0.7060
vn 0.7097 -0.0049 -0.7045
vn 0.7121 -0.0044 -0.7021
vn 0.1512 0.3290 -0.9322
vn 0.1515 0.3273 -0.9327
vn 0.1514 0.3278 -0.9325
vn 0.1510 0.3304 -0.9317
vn -0.8753 -0.4836 -0.0005
vn -0.8772 -0.4801 0.0005
vn -0.8766 -0.4813 0.0002
vn -0.8747 -0.4847 -0.0009
vn -0.8153 -0.0423 -0.5775
vn -0.8185 -0.0451 -0.5728
vn -0.8172 -0.0426 -0.5747
vn -0.9997 -0.0260 0.0024
vn -0.9996 -0.0264 0.0026
vn -0.9997 -0.0255 -0.0001
vn -0.9997 -0.0259 0.0052
vn 0.0224 0.3378 -0.9410
vn 0.0212 0.3356 -0.9418
vn 0.0257 0.3437 -0.9387
vn 0.0270 0.3460 -0.9378
vn -0.9996 -0.0101 -0.0247
vn -0.9996 -0.0103 -0.0251
vn -0.9996 -0.0194 -0.0181
vn -0.9997 -0.0189 -0.0176
vn -0.9985 0.0536 0.0070
vn -0.9976 0.0695 0.0011
vn -0.9978 0.0645 -0.0128
vn -0.9978 0.0663 -0.0080
vn -0.4457 -0.2359 -0.8635
vn -0.4627 -0.2620 -0.8469
vn -0.4576 -0.8891 0.0007
vn 0.0003 0.9993 -0.0386
vn 0.0555 0.9984 -0.0048
vn 0.6878 0.0202 0.7256
vn -0.8190 -0.0430 -0.5722
vn -0.8203 -0.0453 -0.5702
vn -0.8222 -0.0452 -0.5674
vn 0.0021 -1.0000 -0.0006
vn 0.0052 -1.0000 -0.0014
vn 0.0036 -1.0000 -0.0010
vn 0.0011 -1.0000 -0.0004
vn 0.4093 0.8674 0.2831
vn 0.0619 0.9979 -0.0185
vn 0.9985 -0.0115 0.0541
vn -0.0442 0.9988 -0.0216
vn -0.0442 0.9988 -0.0215
vn -0.1063 0.9943 0.0088
vn -0.1064 0.9943 0.0089
vn -0.0123 -0.0011 0.9999
vn 0.0509 0.9986 -0.0149
vn -0.0024 -0.0091 1.0000
vn -0.0047 -0.0055 1.0000
vn -0.0086 -0.0075 0.9999
vn 0.0007 0.0025 -1.0000
vn -0.0004 -0.0005 -1.0000
vn -0.0002 0.0027 -1.0000
vn 0.9941 0.0871 0.0645
vn 0.0017 0.0014 1.0000
vn 0.5518 0.5546 -0.6228
vn 0.2768 0.6007 -0.7500
vn 0.0039 0.0041 -1.0000
vn 0.0065 0.0060 -1.0000
vn 0.0012 0.0055 -1.0000
vn 0.5818 0.8133 -0.0031
vn 0.7817 0.6232 -0.0229
vn 0.3624 0.9020 0.2345
vn 0.0755 0.9949 -0.0673
vn 0.0317 0.9995 -0.0035
vn -0.0179 -0.0199 0.9996
vn 0.0516 0.9985 0.0172
vn 0.0699 0.9975 0.0052
vn 0.0435 0.9989 0.0182
vn 0.0232 0.9997 0.0083
vn 0.0295 0.9996 -0.0014
vn 0.8936 0.3028 0.3314
vn 0.9976 -0.0446 -0.0534
vn 0.6581 0.7451 0.1080
vn -0.0215 0.9971 0.0732
vn 0.9945 0.0938 0.0466
vn 0.9929 0.1051 0.0556
vn 0.9986 0.0495 0.0176
vn 0.5350 0.7495 -0.3899
vn -0.0222 -0.0040 -0.9997
vn 0.6894 0.7240 -0.0258
vn 0.7065 0.7076 -0.0113
vn 0.9899 0.1369 -0.0367
vn 0.9898 0.1376 -0.0364
vn 0.9900 0.1361 -0.0370
vn 0.9901 0.1357 -0.0371
vn -0.9980 -0.0035 -0.0638
vn -0.9980 -0.0065 -0.0626
vn -0.9978 0.0027 -0.0663
vn -0.9977 0.0061 -0.0677
vn -0.4079 0.8676 0.2845
vn -0.0612 0.9980 -0.0185
vn -0.9985 -0.0115 0.0541
vn 0.0125 -0.0014 0.9999
vn -0.1192 0.9911 -0.0597
vn 0.9978 0.0027 -0.0663
vn 0.9980 -0.0065 -0.0626
vn 0.9980 -0.0035 -0.0638
vn 0.9977 0.0061 -0.0677
vn 0.0024 -0.0089 1.0000
vn 0.0085 -0.0073 0.9999
vn 0.0047 -0.0053 1.0000
vn 0.0004 -0.0004 -1.0000
vn -0.9987 0.0430 0.0288
vn -0.9981 0.0520 0.0320
vn -0.9983 0.0493 0.0310
vn -0.9988 0.0406 0.0279
vn -0.9941 0.0871 0.0645
vn -0.0015 0.0014 1.0000
vn -0.5518 0.5546 -0.6228
vn -0.8457 0.3599 -0.3940
vn -0.0038 0.0040 -1.0000
vn -0.7124 0.7011 -0.0311
vn -0.6197 0.7846 0.0195
vn -0.7817 0.6232 -0.0229
vn -0.3601 0.9029 0.2347
vn -0.0745 0.9950 -0.0666
vn -0.0333 0.9994 -0.0047
vn 0.0179 -0.0197 0.9996
vn -0.0555 0.9983 0.0180
vn -0.0693 0.9976 0.0071
vn -0.4736 0.7807 0.4076
vn -0.0285 0.9996 -0.0018
vn -0.8921 0.3045 0.3338
vn -0.9976 -0.0446 -0.0534
vn -0.6518 0.7535 0.0858
vn -0.9945 0.0938 0.0466
vn -0.9929 0.1051 0.0556
vn -0.9986 0.0495 0.0176
vn -0.5350 0.7495 -0.3899
vn 0.0222 -0.0040 -0.9997
vn -0.6893 0.7240 -0.0258
vn -0.7065 0.7076 -0.0113
vn -0.0104 0.0012 0.9999
vn -0.0063 -0.0000 1.0000
vn -0.0130 0.0047 0.9999
vn 0.0103 0.0012 0.9999
vn 0.0128 0.0046 0.9999
vn 0.0062 0.0000 1.0000
vn 0.0003 -0.0004 -1.0000
vn 1.0000 -0.0022 0.0003
vn 0.6182 0.7858 0.0192
vn 0.6141 0.7890 0.0184
vn 0.6158 0.7877 0.0187
vn 0.6197 0.7846 0.0195
vn -0.9988 0.0224 0.0431
vn -0.9988 0.0225 0.0431
vn -0.9981 0.0377 0.0490
vn 0.9954 0.0915 0.0285
vn 0.9942 0.0975 0.0461
vn 0.9973 0.0664 0.0329
vn 0.9972 0.0718 0.0203
vn -1.0000 -0.0022 0.0003
vn -0.1114 0.9937 0.0098
vn -0.1122 0.9936 0.0102
vn -0.1087 0.9940 0.0085
vn -0.1078 0.9941 0.0080
vn -0.0000 0.0001 -1.0000
vn 0.0025 -0.0016 -1.0000
vn -0.0003 -0.0003 -1.0000
vn -0.1184 0.9929 -0.0123
vn 0.0229 0.9997 -0.0094
vn 0.0214 0.9997 -0.0105
vn 0.9909 0.1338 0.0114
vn 0.9906 0.1331 0.0331
vn 0.9954 0.0943 0.0158
vn 0.9946 0.1036 0.0071
vn 0.0155 0.9999 0.0069
vn 0.0164 0.9998 0.0074
vn 0.2200 0.9755 -0.0003
vn -0.9986 0.0310 -0.0417
vn -0.9987 0.0252 -0.0436
vn -0.9987 0.0270 -0.0430
vn -0.9986 0.0328 -0.0411
g Block_Bridge_Block_Bridge_Collor_Material
usemtl Collor_Material
s off
f 99/1/1 159/2/1 54/3/2 100/4/3
f 93/5/4 61/6/5 148/7/6 152/8/7
f 50/9/8 49/10/9 89/11/10 90/12/11
f 71/13/12 99/14/12 100/15/13 72/16/13
f 38/17/14 149/18/15 154/19/16 184/20/17
f 181/21/18 189/22/18 155/23/19 156/24/20
f 179/25/21 180/26/22 177/27/23 178/28/24
f 44/29/25 116/30/25 174/31/25
f 58/32/26 59/33/27 60/34/26 57/35/28
f 74/36/29 125/37/29 71/38/29
f 40/39/30 140/40/30 137/41/30
f 108/42/31 97/43/31 109/44/31
f 75/45/32 78/46/32 186/47/32
f 186/48/33 97/49/33 189/50/33
f 78/51/34 97/52/35 186/53/36
f 75/54/37 96/55/37 95/56/37
f 51/57/38 54/58/38 159/59/38
f 116/60/39 176/61/39 115/62/39
f 96/63/40 70/64/41 95/65/42
f 115/66/43 174/67/44 116/68/45
f 169/69/46 59/70/47 58/71/48
f 161/72/49 87/73/49 164/74/49
f 92/75/50 152/76/50 153/77/50
f 60/78/51 59/79/51 101/80/51
f 57/81/52 80/82/52 58/83/52
f 83/84/53 69/85/53 68/86/53
f 87/87/54 52/88/54 51/89/54
f 63/90/55 92/91/55 64/92/55
f 164/93/56 51/94/56 159/95/56
f 155/96/57 189/97/57 97/98/57
f 64/99/58 153/100/59 150/101/60
f 98/102/61 77/103/62 65/104/63
f 58/105/64 115/106/64 176/107/64
f 136/108/65 121/109/65 129/110/65
f 135/111/66 136/112/66 130/113/66
f 39/114/67 160/115/68 165/116/69
f 103/117/70 146/118/70 145/119/70
f 168/120/71 80/121/71 81/122/71
f 111/123/72 110/124/72 65/125/72
f 117/126/73 112/127/74 113/128/75
f 172/129/76 171/130/76 130/131/76
f 127/132/77 124/133/77 126/134/77
f 194/135/78 180/136/79 179/137/80
f 132/138/81 122/139/81 133/140/81
f 137/141/82 141/142/82 190/143/82
f 141/144/83 103/145/83 145/146/83
f 154/147/84 150/148/85 153/149/86
f 149/150/87 155/151/87 150/152/87
f 159/153/88 163/154/88 164/155/88
f 165/156/89 160/157/89 159/158/89
f 169/159/90 175/160/90 170/161/90
f 182/162/91 184/163/92 154/164/93
f 189/165/94 185/166/94 186/167/94
f 120/168/95 185/169/95 189/170/95
f 194/171/96 192/172/96 193/173/96
f 173/174/97 115/175/97 80/176/97
f 112/177/98 177/178/99 180/179/100 113/180/101
f 102/181/102 101/182/103 59/183/104
f 107/184/105 69/185/105 104/186/105
f 97/187/106 98/188/107 109/189/107
f 74/190/108 101/191/108 102/192/108
f 78/193/109 98/194/110 97/195/111
f 187/196/112 185/197/112 120/198/112
f 170/199/113 175/200/113 116/201/113
f 42/202/114 123/203/114 118/204/114
f 122/205/115 114/206/115 119/207/115
f 145/208/116 83/209/116 68/210/116
f 183/211/117 39/212/117 184/213/118 182/214/118
f 135/215/119 171/216/119 170/217/119
f 116/218/120 175/219/120 176/220/120
f 115/221/121 173/222/122 174/223/123
f 83/224/124 145/225/124 146/226/124
f 71/227/125 125/228/125 99/229/125
f 161/230/126 90/231/126 87/232/126
f 193/233/127 192/234/127 165/235/127
f 92/236/128 93/237/129 152/238/130
f 95/239/131 70/240/131 106/241/131
f 106/242/132 105/243/132 95/244/132
f 54/245/133 53/246/133 100/247/133
f 53/248/134 72/249/134 100/250/134
f 74/251/135 73/252/135 101/253/135
f 73/254/136 60/255/136 101/256/136
f 76/257/137 105/258/137 104/259/137
f 57/260/138 79/261/138 80/262/138
f 83/263/139 84/264/139 69/265/139
f 86/266/140 85/267/140 84/268/140
f 87/269/141 88/270/141 52/271/141
f 63/272/142 91/273/142 92/274/142
f 164/275/143 87/276/143 51/277/143
f 144/278/144 191/279/145 187/280/146
f 64/281/147 92/282/148 153/283/149
f 65/284/150 110/285/150 109/286/150
f 98/287/151 78/288/152 77/289/153
f 65/290/154 109/291/154 98/292/154
f 176/293/155 169/294/155 58/295/155
f 58/296/156 80/297/156 115/298/156
f 136/299/157 133/300/157 121/301/157
f 107/302/158 106/303/158 70/304/158
f 179/305/159 178/306/159 38/307/159
f 130/308/160 128/309/160 102/310/160
f 102/311/161 172/312/161 130/313/161
f 96/314/162 188/315/162 190/316/162
f 124/317/163 129/318/163 121/319/163
f 144/320/164 132/321/164 131/322/164
f 132/323/165 114/324/165 122/325/165
f 137/326/166 140/327/166 141/328/166
f 141/329/167 140/330/167 103/331/167
f 154/332/168 149/333/169 150/334/170
f 149/335/171 156/336/171 155/337/171
f 159/338/172 160/339/172 163/340/172
f 172/341/173 169/342/173 170/343/173
f 169/344/174 176/345/174 175/346/174
f 146/347/175 46/348/176 45/349/177 143/350/178
f 165/351/179 192/352/179 194/353/179
f 146/354/180 103/355/180 46/356/180
f 143/357/181 83/358/181 146/359/181
f 150/360/182 111/361/182 64/362/182
f 128/363/183 125/364/184 74/365/185 102/366/186
f 91/367/187 93/368/188 92/369/189
f 164/370/190 162/371/190 161/372/190
f 182/373/191 154/374/192 151/375/193 48/376/194
f 79/377/195 82/378/196 81/379/195 80/380/195
f 126/381/197 124/382/198 42/383/199 113/384/200
f 189/385/201 112/386/202 117/387/203
f 124/388/204 121/389/205 123/390/206 42/391/207
f 76/392/208 75/393/209 95/394/210 105/395/211
f 138/396/212 67/397/213 86/398/214 142/399/214
f 168/400/215 173/401/215 80/402/215
f 143/403/216 142/404/216 83/405/216
f 150/406/217 108/407/217 111/408/217
f 91/409/218 94/410/219 93/411/220
f 164/412/221 163/413/221 162/414/221
f 193/415/222 127/416/222 126/417/222
f 189/418/223 117/419/224 120/420/225
f 193/421/226 165/422/226 127/423/226
f 135/424/227 134/425/228 133/426/229 136/427/229
f 120/428/230 117/429/231 118/430/232 119/431/233
f 94/432/234 62/433/234 61/434/235 93/435/235
f 147/436/236 151/437/237 152/438/238 148/439/239
f 178/440/240 177/441/241 181/442/242 156/443/243
f 81/444/244 55/445/244 166/446/245 168/447/246
f 46/448/247 103/449/248 140/450/248 40/451/249
f 44/452/250 174/453/251 167/454/252 43/455/253
f 187/456/254 119/457/254 114/458/254
f 147/459/255 35/460/256 48/461/257 151/462/258
f 113/463/259 42/464/259 118/465/260 117/466/261
f 85/467/262 86/468/263 67/469/264 66/470/265
f 167/471/266 174/472/266 173/473/267 168/474/267
f 85/475/268 66/476/268 56/477/269 82/478/269
f 69/479/270 84/480/271 79/481/272 57/482/273
f 104/483/274 60/484/274 73/485/275 76/486/275
f 139/487/276 143/488/277 45/489/278 37/490/279
f 155/491/280 97/492/281 108/493/282 150/494/283
f 94/495/284 91/496/285 88/497/286 89/498/287
f 137/499/288 144/500/289 131/501/290 40/502/291
f 129/503/292 124/504/292 125/505/293 128/506/294
f 72/507/295 73/508/295 74/509/296 71/510/296
f 139/511/297 138/512/297 142/513/298 143/514/298
f 133/515/299 134/516/299 131/517/300 132/518/301
f 181/519/302 177/520/302 112/521/303 189/522/303
f 169/523/304 172/524/305 102/525/306 59/526/307
f 157/527/308 50/528/309 90/529/310 161/530/311
f 40/531/312 131/532/313 134/533/314 41/534/315
f 104/535/316 69/536/317 57/537/318 60/538/319
f 183/539/320 47/540/321 162/541/322 163/542/322
f 122/543/323 119/544/324 118/545/325 123/546/326
f 160/547/327 39/548/328 183/549/329 163/550/330
f 180/551/331 193/552/332 126/553/332 113/554/333
f 38/555/334 178/556/334 156/557/335 149/558/335
f 116/559/336 44/560/337 41/561/338 170/562/339
f 68/563/340 69/564/341 107/565/342 70/566/343
f 108/567/344 109/568/345 110/569/346 111/570/347
f 166/571/348 167/572/348 168/573/348
f 170/574/349 171/575/349 172/576/349
f 133/577/350 122/578/351 123/579/352 121/580/353
f 165/581/354 194/582/355 179/583/356 39/584/357
f 151/585/358 153/586/359 152/587/360
f 46/588/361 40/589/362 41/590/363 44/591/363
f 38/592/364 184/593/365 39/594/366 179/595/367
f 129/596/368 128/597/369 130/598/370 136/599/370
f 142/600/371 86/601/371 84/602/372 83/603/372
f 135/604/373 170/605/373 41/606/374 134/607/374
f 141/608/375 70/609/376 96/610/377 190/611/378
f 78/612/379 75/613/380 76/614/381 77/615/382
f 191/616/383 144/617/383 137/618/384 190/619/384
f 63/620/385 52/621/386 88/622/387 91/623/388
f 96/624/389 75/625/390 186/626/391 188/627/391
f 182/628/392 48/629/393 47/630/394 183/631/395
f 37/632/396 45/633/397 43/634/398 36/635/399
f 47/636/400 34/637/400 158/638/401 162/639/401
f 64/640/402 111/641/403 65/642/404 63/643/405
f 114/644/406 132/645/406 144/646/407 187/647/408
f 190/648/409 188/649/410 187/650/411 191/651/411
f 188/652/412 186/653/412 185/654/413 187/655/414
f 70/656/415 141/657/416 145/658/417 68/659/418
f 104/660/419 105/661/419 106/662/420 107/663/420
f 79/664/421 84/665/422 85/666/423 82/667/424
f 82/668/425 56/669/425 55/670/426 81/671/427
f 130/672/428 171/673/428 135/674/428
f 47/675/429 48/676/430 35/677/431 34/678/429
f 161/679/432 162/680/433 158/681/434 157/682/435
f 99/683/436 127/684/437 165/685/438 159/686/439
f 63/687/440 65/688/441 53/689/442 52/690/443
f 90/691/444 88/692/445 87/693/446
f 49/694/447 62/695/448 94/696/449 89/697/450
f 99/698/451 125/699/452 124/700/453 127/701/454
f 166/702/455 36/703/456 43/704/457 167/705/458
f 43/706/459 45/707/460 46/708/461 44/709/462
f 53/710/463 54/711/463 51/712/464 52/713/464
f 53/714/465 65/715/465 77/716/465 72/717/465
f 187/718/466 120/719/466 119/720/466
f 180/721/467 194/722/467 193/723/467
f 151/724/468 154/725/468 153/726/468
f 90/727/469 89/728/470 88/729/471
f 77/730/472 76/731/473 73/732/474 72/733/475
f 1/734/476 28/735/476 29/736/476
f 30/737/477 5/738/477 21/739/477
f 12/740/478 19/741/478 31/742/478
f 217/743/479 207/744/480 197/745/481 200/746/482
f 3/747/483 1/748/483 14/749/483
f 16/750/484 7/751/484 29/752/484
f 9/753/485 2/754/486 1/755/487
f 12/756/488 4/757/489 5/758/490
f 26/759/491 28/760/491 11/761/491
f 2/762/492 17/763/492 1/764/492
f 18/765/493 31/766/493 19/767/493
f 16/768/494 26/769/494 15/770/494
f 18/771/495 12/772/496 5/773/497
f 27/774/498 21/775/498 16/776/498
f 30/777/499 20/778/499 31/779/499
f 1/780/500 17/781/500 28/782/500
f 18/783/501 5/784/501 30/785/501
f 5/786/502 8/787/502 21/788/502
f 14/789/503 13/790/503 3/791/503
f 21/792/504 8/793/504 16/794/504
f 8/795/505 7/796/505 16/797/505
f 3/798/506 13/799/506 25/800/507 6/801/507
f 7/802/508 1/803/508 29/804/508
f 15/805/509 27/806/509 16/807/509
f 15/808/510 11/809/510 10/810/510
f 25/811/511 13/812/511 14/813/511
f 24/814/512 6/815/512 25/816/512
f 17/817/513 2/818/513 28/819/513
f 2/820/514 11/821/514 28/822/514
f 11/823/515 15/824/515 26/825/515
f 18/826/516 30/827/516 31/828/516
f 18/829/517 19/830/517 12/831/517
f 27/832/518 20/833/518 21/834/518
f 30/835/519 21/836/519 20/837/519
f 22/838/520 23/839/521 8/840/522 5/841/523
f 219/842/524 213/843/525 204/844/526 209/845/527
f 195/846/528 222/847/528 221/848/528
f 223/849/529 214/850/529 199/851/529
f 206/852/530 224/853/530 212/854/530
f 197/855/531 208/856/531 195/857/531
f 218/858/532 222/859/532 201/860/532
f 10/861/533 20/862/534 27/863/535 15/864/536
f 203/865/537 195/866/538 196/867/539
f 206/868/540 199/869/540 198/870/540
f 195/871/541 208/872/542 217/873/543 201/874/544
f 218/875/545 205/876/545 221/877/545
f 196/878/546 195/879/546 210/880/546
f 211/881/547 212/882/547 224/883/547
f 220/884/548 209/885/548 218/886/548
f 211/887/549 199/888/549 206/889/549
f 219/890/550 220/891/550 214/892/550
f 218/893/551 221/894/551 222/895/551
f 223/896/552 224/897/552 213/898/552
f 195/899/553 221/900/553 210/901/553
f 211/902/554 223/903/554 199/904/554
f 199/905/555 214/906/555 202/907/555
f 208/908/556 197/909/556 207/910/556
f 214/911/557 220/912/557 202/913/557
f 202/914/558 220/915/558 201/916/558
f 220/917/559 218/918/559 201/919/559
f 201/920/560 222/921/560 195/922/560
f 209/923/561 220/924/561 219/925/561
f 209/926/562 204/927/562 205/928/562
f 217/929/563 208/930/563 207/931/563
f 210/932/564 221/933/564 196/934/564
f 196/935/565 221/936/565 205/937/565
f 205/938/566 218/939/566 209/940/566
f 211/941/567 224/942/567 223/943/567
f 211/944/568 206/945/568 212/946/568
f 219/947/569 214/948/569 213/949/569
f 223/950/570 213/951/570 214/952/570
f 3/953/571 9/954/572 1/955/573
f 197/956/574 195/957/575 203/958/576
f 226/959/577 198/960/577 199/961/577 215/962/577
f 10/963/578 12/964/578 31/965/578 20/966/578
f 26/967/579 16/968/580 29/969/581 28/970/582
f 216/971/583 202/972/584 201/973/585 217/974/585
f 1/975/586 7/976/587 25/977/588 14/978/589
f 204/979/590 213/980/590 224/981/590 206/982/590
f 215/983/591 216/984/592 225/985/593 226/986/594
f 33/987/595 22/988/595 5/989/596 4/990/597
f 216/991/598 217/992/598 200/993/598 225/994/598
f 6/995/599 24/996/599 23/997/600 32/998/600
f 7/999/601 8/1000/602 23/1001/603 25/1002/604
f 22/1003/605 33/1004/605 32/1005/606 23/1006/606
f 24/1007/607 25/1008/607 23/1009/607
f 215/1010/608 199/1011/609 202/1012/610 216/1013/611
