# Blender v3.0.0 OBJ File: 'aa.blend'
# www.blender.org
mtllib Block_L_3.mtl
o Block_L_3
v 0.142540 0.000001 1.110912
v -0.534817 -0.000001 -1.079630
v -0.900238 0.000001 1.127266
v -1.748948 0.000001 1.112586
v -1.852330 -0.000001 -1.070343
v -1.112471 -0.000001 -1.086014
v 1.365018 -0.000001 -1.075995
v 0.864772 -0.000001 -1.091577
v 0.409382 0.000001 1.109655
v 1.796493 0.000001 1.110285
v 0.210580 1.682498 0.367812
v 0.034362 1.688394 -0.408905
v 0.133215 1.682777 -0.733005
v 2.097099 0.000000 0.562849
v 2.094474 0.000000 0.015264
v 2.103012 -0.000000 -0.532029
v -2.289177 -0.000000 -0.691055
v -2.302769 0.000000 0.014926
v -2.279456 0.000000 0.763936
v -0.510693 1.684983 -0.616027
v -0.829712 1.674254 0.019127
v -1.109768 1.673236 0.562771
v -1.884581 1.697776 -0.624375
v -1.774643 1.677890 0.181313
v -1.561600 1.675397 0.568130
v 1.563659 1.693068 -0.724400
v 1.700521 1.690260 -0.004955
v 1.767412 1.683767 0.528056
v 0.946729 1.689416 -0.686435
v 0.387306 1.697577 -0.036839
v 0.790592 1.702169 0.641669
v -0.233237 0.692551 1.124476
v -0.095732 1.403105 1.108874
v -0.306145 1.360651 -1.069927
v -0.093098 0.617160 -1.089757
v -0.821566 1.302127 1.105597
v -0.664149 0.923927 1.114941
v -1.494769 1.334635 1.106324
v -1.572485 0.419930 1.122468
v -1.162892 0.395095 -1.094540
v -1.073260 1.344685 -1.068161
v -1.825936 0.616855 -1.095526
v -1.870646 1.150695 -1.080080
v 1.355915 1.380242 1.100382
v 1.386247 0.466788 1.121130
v 0.630077 0.981222 1.116844
v 0.452762 0.734127 1.122244
v 0.282999 1.228643 -1.078157
v 0.263750 0.617287 -1.090383
v 1.147714 1.165853 -1.088635
v 1.667669 0.712176 -1.088901
v -2.316130 0.789885 -0.759876
v -2.275956 1.322290 -0.597216
v -2.317448 0.319831 0.125891
v -2.255429 1.308661 0.121441
v -2.304467 0.737052 0.794977
v -2.281676 1.060756 0.743983
v 2.082208 1.212861 -0.331864
v 2.129873 0.341095 -0.689286
v 2.083620 0.937819 0.015562
v 2.126512 0.484488 0.185377
v 2.080970 1.342818 0.712351
v 2.119144 0.435124 0.702100
v -2.186142 1.150063 -1.067998
v -2.257126 0.465794 -1.081769
v 0.903860 1.610515 1.103868
v 0.912181 1.675189 1.033048
v -0.653471 1.603570 1.110284
v 2.095548 1.613569 -0.361882
v -0.906697 1.574265 -1.079631
v -0.748400 1.683422 -0.966712
v 0.472692 1.681730 -1.002089
v 0.509336 1.519519 -1.079631
v 1.397844 1.683422 -1.018339
v 1.469040 1.556225 -1.080119
v 2.081432 1.172580 1.059768
v 2.033956 1.165885 1.109404
v 1.967615 1.152591 -1.076271
v 2.081352 1.159885 -0.959704
v 2.123373 0.593822 1.068962
v 2.070695 0.605626 1.126724
v -2.222128 1.683088 -0.080602
v -2.283087 1.622478 -0.078038
v -0.085570 1.672935 -1.060873
v 2.098983 0.000001 0.996779
v 2.031206 0.000001 1.099005
v 2.037868 -0.000001 -1.081634
v 2.078733 -0.000001 -0.952060
v -2.251799 -0.000001 -1.038208
v -2.240397 0.000001 1.109630
v -2.287186 0.000001 1.064813
v -1.581507 1.642288 -1.081914
v -1.589692 1.679666 -1.031889
v -1.510655 1.676047 -1.079720
v 1.290346 1.660066 1.096023
v 2.093008 1.638586 -0.513078
v 2.049919 1.683278 -0.547391
v 2.090751 1.643288 0.582407
v 2.045887 1.676494 0.559458
v -2.261719 1.664357 -0.730707
v 2.112745 0.587967 -1.042270
v 2.084743 0.625912 -1.091423
v 2.122583 0.661019 -1.090478
v -2.310284 0.633593 1.081468
v -2.266270 0.604999 1.121531
v -2.283473 1.547629 1.065279
v -2.240391 1.547577 1.110700
v -2.148942 1.638459 1.110211
v -2.239918 1.683380 0.974484
v -2.284895 1.638574 0.974401
v 2.093750 1.638292 0.929475
v 2.050260 1.683973 0.846034
v 1.799621 1.682874 1.065186
v 1.889103 1.638630 1.104523
v 2.051771 1.586972 1.109740
v 2.094068 1.589004 1.063674
v 1.996372 1.662102 -1.061231
v 2.050725 1.684052 -0.981647
v 2.095153 1.638281 -0.981216
v 2.094415 1.584512 -1.034903
v 2.052284 1.582619 -1.072742
v -2.218649 1.644150 -0.931048
v -2.106526 1.685317 -1.005738
v -2.075547 1.637170 -1.075438
v -2.265875 1.488902 -1.043443
v -2.238734 1.103810 -1.075331
v -2.280249 1.121789 -1.036375
v -2.276732 1.180564 -0.992601
v -2.272173 0.545506 -1.008465
v -2.293223 0.768076 -1.032281
v -2.238122 0.756805 -1.083298
v -2.239913 1.189201 1.107799
v -2.278565 1.167856 1.065823
v 0.947918 1.639634 1.111261
v 0.953956 1.682320 1.064413
v 0.207996 1.692454 1.058426
v 0.152015 1.638383 1.102317
v 0.244257 1.688053 1.110922
v -0.491574 1.648558 1.100016
v -0.679425 1.688616 1.062533
v -0.695332 1.638731 1.110257
v -1.728197 1.683424 1.065390
v -1.707957 1.638466 1.110303
v -1.673340 1.668468 1.081162
v 2.013006 1.689285 -0.327464
v 2.096532 1.633966 -0.291603
v -0.712202 1.666657 -1.034093
v -0.778246 1.638529 -1.079631
v 0.417671 1.641838 -1.068158
v 0.677087 1.683422 -1.034737
v 0.841413 1.597872 -1.091671
v 1.446455 1.638238 -1.070716
v 1.356130 1.638529 -1.079631
v 2.052194 1.064783 1.111869
v 2.095243 1.073996 1.066781
v 2.038631 1.219813 -1.073649
v 2.084354 1.223331 -1.029763
v 2.076938 0.431226 1.123170
v 2.115428 0.428609 1.073211
v -2.285410 1.638262 0.690384
v -2.240208 1.682092 0.678870
v -2.284903 1.682425 0.641787
vt 0.082470 0.842334
vt 0.079237 0.836540
vt 0.082470 0.794048
vt 0.846412 0.967072
vt 0.824331 0.940546
vt 0.846412 0.922852
vt 0.681748 0.730420
vt 0.652000 0.637706
vt 0.726636 0.651997
vt 0.726636 0.728992
vt 0.185806 0.956103
vt 0.143905 0.902900
vt 0.185806 0.902543
vt 0.121496 0.316541
vt 0.139019 0.241476
vt 0.139019 0.338463
vt 0.052834 0.100479
vt 0.002243 0.026693
vt 0.173427 0.002243
vt 0.173427 0.104613
vt 0.136749 0.376842
vt 0.121496 0.361703
vt 0.136749 0.342949
vt 0.575285 0.311608
vt 0.640057 0.244310
vt 0.640057 0.381820
vt 0.782866 0.839863
vt 0.776951 0.737741
vt 0.819844 0.740883
vt 0.819844 0.849771
vt 0.241446 0.083725
vt 0.241446 0.101310
vt 0.177913 0.097574
vt 0.699694 0.982198
vt 0.692190 0.970664
vt 0.699694 0.943381
vt 0.219222 0.841698
vt 0.143905 0.798066
vt 0.219222 0.776938
vt 0.700159 0.244310
vt 0.700159 0.372201
vt 0.644543 0.298701
vt 0.858102 0.376201
vt 0.848694 0.363572
vt 0.858102 0.348137
vt 0.730924 0.026873
vt 0.719997 0.020395
vt 0.730924 0.002243
vt 0.556706 0.987755
vt 0.548268 0.973948
vt 0.556706 0.939213
vt 0.943398 0.806818
vt 0.907680 0.738510
vt 0.943398 0.737741
vt 0.980112 0.250639
vt 0.987571 0.246975
vt 0.987571 0.326796
vt 0.979417 0.326862
vt 0.870049 0.343650
vt 0.824860 0.311248
vt 0.870049 0.244310
vt 0.844208 0.348137
vt 0.844208 0.378189
vt 0.824860 0.365582
vt 0.926596 0.984019
vt 0.920671 0.938928
vt 0.926596 0.931422
vt 0.903194 0.737741
vt 0.903194 0.844925
vt 0.869627 0.788872
vt 0.764653 0.355861
vt 0.704646 0.256150
vt 0.764653 0.244310
vt 0.166080 0.255377
vt 0.252219 0.244310
vt 0.252219 0.379383
vt 0.143905 0.384418
vt 0.902458 0.521214
vt 0.902458 0.611166
vt 0.860187 0.605523
vt 0.676731 0.993342
vt 0.670893 0.950050
vt 0.676731 0.943381
vt 0.275320 0.127413
vt 0.275320 0.239102
vt 0.188397 0.239824
vt 0.143905 0.109099
vt 0.810085 0.386885
vt 0.810085 0.521957
vt 0.768266 0.433989
vt 0.459585 0.239824
vt 0.381895 0.139313
vt 0.459585 0.063673
vt 0.568032 0.186616
vt 0.626796 0.063673
vt 0.626796 0.238247
vt 0.479247 0.834991
vt 0.443200 0.725677
vt 0.479247 0.712784
vt 0.454809 0.976413
vt 0.443200 0.953244
vt 0.454809 0.931280
vt 0.772465 0.846256
vt 0.756681 0.835164
vt 0.772465 0.791546
vt 0.753074 0.619193
vt 0.753074 0.631309
vt 0.746754 0.629052
vt 0.746701 0.621040
vt 0.438714 0.819614
vt 0.385857 0.735011
vt 0.438714 0.712784
vt 0.238449 0.388904
vt 0.238449 0.509916
vt 0.143905 0.418871
vt 0.574768 0.784418
vt 0.661753 0.749942
vt 0.661753 0.811509
vt 0.764623 0.619193
vt 0.764623 0.626026
vt 0.757561 0.623730
vt 0.380534 0.435530
vt 0.376667 0.424556
vt 0.380534 0.361326
vt 0.291430 0.071808
vt 0.375199 0.002243
vt 0.375199 0.093350
vt 0.130165 0.954887
vt 0.087000 0.921499
vt 0.130165 0.901936
vt 0.706920 0.467459
vt 0.718094 0.399483
vt 0.763780 0.386885
vt 0.763780 0.498435
vt 0.877817 0.922852
vt 0.877817 0.986703
vt 0.871957 0.926123
vt 0.135773 0.897449
vt 0.087000 0.842484
vt 0.135773 0.816715
vt 0.571473 0.648375
vt 0.567554 0.638482
vt 0.571473 0.628450
vt 0.040583 0.980498
vt 0.049103 0.926613
vt 0.049103 0.984059
vt 0.779794 0.925825
vt 0.779794 0.986044
vt 0.768892 0.967877
vt 0.023159 0.926613
vt 0.023159 0.992622
vt 0.015741 0.992282
vt 0.954040 0.386885
vt 0.954040 0.489177
vt 0.940933 0.388678
vt 0.755621 0.014945
vt 0.750986 0.007328
vt 0.755621 0.002243
vt 0.982135 0.103129
vt 0.971719 0.109701
vt 0.971628 0.036216
vt 0.982135 0.033844
vt 0.604870 0.944165
vt 0.574768 0.874851
vt 0.617239 0.876157
vt 0.617239 0.945490
vt 0.479821 0.989734
vt 0.471810 0.983994
vt 0.479821 0.931280
vt 0.944930 0.159514
vt 0.962608 0.140379
vt 0.962608 0.212061
vt 0.967142 0.033844
vt 0.967142 0.114075
vt 0.954103 0.101555
vt 0.137730 0.476104
vt 0.107477 0.423669
vt 0.137730 0.383473
vt 0.487961 0.459450
vt 0.494200 0.418581
vt 0.572420 0.386885
vt 0.572420 0.511579
vt 0.941546 0.524667
vt 0.961770 0.521214
vt 0.961770 0.586328
vt 0.978355 0.704464
vt 0.986230 0.624132
vt 0.986230 0.706970
vt 0.762165 0.514007
vt 0.757150 0.507053
vt 0.762165 0.502922
vt 0.315703 0.985822
vt 0.307938 0.952766
vt 0.315703 0.942136
vt 0.570799 0.244310
vt 0.570799 0.359863
vt 0.478905 0.333686
vt 0.481824 0.260125
vt 0.647514 0.745456
vt 0.574768 0.722686
vt 0.590712 0.662924
vt 0.647514 0.655086
vt 0.131011 0.485526
vt 0.138815 0.480590
vt 0.138815 0.495912
vt 0.130439 0.493018
vt 0.985803 0.932627
vt 0.992128 0.853939
vt 0.992128 0.941256
vt 0.961083 0.828476
vt 0.947884 0.758254
vt 0.961083 0.737741
vt 0.969181 0.216226
vt 0.976234 0.128135
vt 0.976234 0.239824
vt 0.959152 0.939109
vt 0.932993 0.894526
vt 0.959152 0.853939
vt 0.523262 0.175133
vt 0.464071 0.063673
vt 0.563546 0.072267
vt 0.563546 0.161135
vt 0.917294 0.033844
vt 0.917294 0.133689
vt 0.883148 0.105593
vt 0.966257 0.572365
vt 0.982115 0.521214
vt 0.982115 0.586625
vt 0.478812 0.511459
vt 0.478812 0.618642
vt 0.385857 0.578049
vt 0.386787 0.522043
vt 0.973868 0.677693
vt 0.950290 0.650378
vt 0.973868 0.624132
vt 0.878662 0.033844
vt 0.878662 0.127243
vt 0.832056 0.082979
vt 0.687704 0.988629
vt 0.681217 0.945675
vt 0.687704 0.943381
vt 0.376667 0.457517
vt 0.380848 0.440017
vt 0.380848 0.464190
vt 0.902329 0.233783
vt 0.863616 0.172242
vt 0.902329 0.140379
vt 0.053635 0.922127
vt 0.002243 0.903529
vt 0.053635 0.856988
vt 0.731123 0.807485
vt 0.739815 0.792032
vt 0.751156 0.791546
vt 0.751156 0.822176
vt 0.873315 0.624132
vt 0.873315 0.733255
vt 0.834740 0.707495
vt 0.935378 0.336166
vt 0.906477 0.304370
vt 0.935378 0.244310
vt 0.543782 0.903953
vt 0.487961 0.870652
vt 0.543782 0.837302
vt 0.742215 0.630101
vt 0.724688 0.620624
vt 0.742215 0.619193
vt 0.964695 0.309070
vt 0.939864 0.293006
vt 0.964695 0.244310
vt 0.080005 0.944031
vt 0.058121 0.942119
vt 0.080005 0.856988
vt 0.487961 0.925325
vt 0.525563 0.908440
vt 0.525563 0.952126
vt 0.752664 0.518670
vt 0.746069 0.511346
vt 0.752664 0.502922
vt 0.002243 0.343637
vt 0.019909 0.248701
vt 0.117010 0.241476
vt 0.117010 0.378986
vt 0.827570 0.137137
vt 0.776047 0.087162
vt 0.827570 0.033844
vt 0.989049 0.811886
vt 0.980875 0.806333
vt 0.989049 0.737741
vt 0.636475 0.527383
vt 0.576906 0.418870
vt 0.636475 0.386885
vt 0.996309 0.459717
vt 0.988799 0.451563
vt 0.996309 0.386885
vt 0.945804 0.717420
vt 0.920132 0.683361
vt 0.945804 0.624132
vt 0.903451 0.442368
vt 0.936446 0.386885
vt 0.936446 0.487125
vt 0.850898 0.940750
vt 0.867471 0.922852
vt 0.867471 0.965820
vt 0.036097 0.986907
vt 0.027646 0.978527
vt 0.036097 0.926613
vt 0.251911 0.388904
vt 0.251911 0.486330
vt 0.242936 0.484260
vt 0.379686 0.035093
vt 0.493782 0.002243
vt 0.493782 0.058012
vt 0.662572 0.063673
vt 0.715729 0.070573
vt 0.715729 0.149577
vt 0.631282 0.155912
vt 0.084243 0.626919
vt 0.084243 0.719816
vt 0.002243 0.663898
vt 0.190292 0.925059
vt 0.243230 0.902543
vt 0.243230 0.939246
vt 0.708490 0.938646
vt 0.670893 0.887518
vt 0.720416 0.884376
vt 0.720416 0.938895
vt 0.286943 0.002243
vt 0.286943 0.079239
vt 0.177913 0.074740
vt 0.901991 0.371347
vt 0.874535 0.279852
vt 0.901990 0.244310
vt 0.256705 0.503596
vt 0.375969 0.476941
vt 0.375969 0.569509
vt 0.761553 0.950813
vt 0.724903 0.935461
vt 0.731914 0.892106
vt 0.761553 0.884376
vt 0.731821 0.502922
vt 0.731821 0.523439
vt 0.721591 0.516589
vt 0.721364 0.508604
vt 0.958925 0.507532
vt 0.958526 0.473642
vt 0.971387 0.470831
vt 0.971387 0.512733
vt 0.285464 0.083725
vt 0.285464 0.092936
vt 0.272314 0.086260
vt 0.561864 0.984398
vt 0.561193 0.939298
vt 0.569071 0.939213
vt 0.569071 0.987013
vt 0.438714 0.890538
vt 0.381159 0.866990
vt 0.438714 0.824101
vt 0.812176 0.969743
vt 0.798546 0.962743
vt 0.812176 0.925825
vt 0.137365 0.507377
vt 0.137365 0.680298
vt 0.093410 0.650117
vt 0.772465 0.787060
vt 0.731123 0.699326
vt 0.772465 0.637706
vt 0.969608 0.682179
vt 0.969608 0.732488
vt 0.950290 0.724713
vt 0.240598 0.747495
vt 0.248930 0.744288
vt 0.248930 0.772364
vt 0.235570 0.766119
vt 0.389305 0.934994
vt 0.381159 0.896493
vt 0.434000 0.895024
vt 0.434000 0.941272
vt 0.011255 0.984303
vt 0.002243 0.970809
vt 0.011255 0.926613
vt 0.256705 0.472454
vt 0.325578 0.361326
vt 0.372180 0.383409
vt 0.372180 0.468233
vt 0.965181 0.374419
vt 0.939864 0.348579
vt 0.965181 0.313556
vt 0.916184 0.986583
vt 0.909045 0.941451
vt 0.916184 0.931422
vt 0.768892 0.881152
vt 0.770342 0.874818
vt 0.819844 0.854258
vt 0.819844 0.921339
vt 0.291146 0.920682
vt 0.291146 0.965231
vt 0.256705 0.962990
vt 0.376372 0.941007
vt 0.324484 0.893657
vt 0.376372 0.883561
vt 0.303451 0.916195
vt 0.256705 0.888658
vt 0.286414 0.842882
vt 0.303451 0.841435
vt 0.107477 0.491134
vt 0.110047 0.483568
vt 0.125952 0.480590
vt 0.125952 0.501787
vt 0.327234 0.751666
vt 0.256705 0.712319
vt 0.327234 0.661507
vt 0.906945 0.551920
vt 0.937059 0.521214
vt 0.937059 0.602224
vt 0.256705 0.653878
vt 0.353027 0.573995
vt 0.353027 0.657021
vt 0.898964 0.483257
vt 0.860960 0.440951
vt 0.898964 0.386885
vt 0.720202 0.633219
vt 0.652000 0.580200
vt 0.720202 0.531869
vt 0.357513 0.634616
vt 0.381348 0.573995
vt 0.381348 0.649454
vt 0.588339 0.055284
vt 0.663718 0.002243
vt 0.663718 0.058760
vt 0.716877 0.502922
vt 0.716877 0.526015
vt 0.706920 0.509491
vt 0.814571 0.477297
vt 0.818541 0.386885
vt 0.856474 0.414514
vt 0.856474 0.496868
vt 0.377408 0.239824
vt 0.318133 0.223181
vt 0.279807 0.098184
vt 0.377408 0.118812
vt 0.481079 0.839477
vt 0.481079 0.926793
vt 0.443200 0.897097
vt 0.252193 0.776938
vt 0.252193 0.873504
vt 0.223708 0.851942
vt 0.569584 0.934727
vt 0.548268 0.883193
vt 0.569584 0.837302
vt 0.979924 0.920656
vt 0.979924 0.978904
vt 0.963639 0.968564
vt 0.787581 0.714245
vt 0.776951 0.659773
vt 0.830253 0.637706
vt 0.830253 0.733255
vt 0.318583 0.937650
vt 0.307938 0.930304
vt 0.318583 0.841435
vt 0.771561 0.136214
vt 0.726155 0.155912
vt 0.720215 0.074123
vt 0.771561 0.033844
vt 0.559562 0.235634
vt 0.550094 0.187872
vt 0.559562 0.179620
vt 0.751465 0.832961
vt 0.751465 0.879890
vt 0.670893 0.875060
vt 0.790967 0.614707
vt 0.724688 0.562456
vt 0.790967 0.531869
vt 0.647514 0.650600
vt 0.594600 0.638611
vt 0.576906 0.567961
vt 0.647514 0.531869
vt 0.688056 0.520981
vt 0.694870 0.512035
vt 0.694870 0.525265
vt 0.920156 0.814169
vt 0.927191 0.811305
vt 0.927191 0.847388
vt 0.997757 0.624132
vt 0.997757 0.699545
vt 0.990716 0.688022
vt 0.915206 0.340652
vt 0.915206 0.380484
vt 0.906477 0.365053
vt 0.376372 0.815726
vt 0.376372 0.879075
vt 0.325600 0.838277
vt 0.329907 0.798678
vt 0.994993 0.105295
vt 0.986621 0.098302
vt 0.994993 0.033844
vt 0.984313 0.475257
vt 0.976185 0.394657
vt 0.984313 0.386885
vt 0.303187 0.994301
vt 0.296038 0.991530
vt 0.295632 0.924144
vt 0.303187 0.920682
vt 0.487961 0.714744
vt 0.515995 0.628450
vt 0.546157 0.674969
vt 0.515995 0.746675
vt 0.479177 0.623128
vt 0.479177 0.708298
vt 0.385857 0.704459
vt 0.737310 0.004889
vt 0.746500 0.002243
vt 0.746500 0.018324
vt 0.735410 0.012689
vt 0.570524 0.380430
vt 0.565349 0.375524
vt 0.570524 0.364349
vt 0.993839 0.521214
vt 0.993839 0.600219
vt 0.986601 0.595624
vt 0.859129 0.157791
vt 0.859129 0.233783
vt 0.814686 0.215305
vt 0.804663 0.152639
vt 0.376372 0.794192
vt 0.331721 0.731503
vt 0.376372 0.661507
vt 0.659824 0.734906
vt 0.659824 0.744788
vt 0.652000 0.743518
vt 0.569704 0.832815
vt 0.557740 0.750085
vt 0.569704 0.748169
vt 0.824331 0.810355
vt 0.865141 0.737741
vt 0.865141 0.849453
vt 0.976389 0.828649
vt 0.965569 0.738034
vt 0.976389 0.737741
vt 0.750986 0.024383
vt 0.757604 0.019432
vt 0.757604 0.027487
vt 0.583853 0.053934
vt 0.498268 0.025579
vt 0.500666 0.017896
vt 0.583853 0.002243
vt 0.560862 0.375173
vt 0.478905 0.372419
vt 0.560862 0.364349
vt 0.464071 0.208618
vt 0.545608 0.179620
vt 0.545608 0.235198
vt 0.683569 0.512035
vt 0.683569 0.520048
vt 0.640962 0.512825
vt 0.963639 0.866159
vt 0.981317 0.853939
vt 0.981317 0.916170
vt 0.928686 0.340652
vt 0.928686 0.379469
vt 0.919693 0.376237
vt 0.949616 0.117140
vt 0.921781 0.055522
vt 0.949616 0.033844
vt 0.980721 0.134906
vt 0.988929 0.128135
vt 0.988929 0.203703
vt 0.940443 0.140379
vt 0.940443 0.217000
vt 0.906815 0.168666
vt 0.800376 0.550088
vt 0.855701 0.531869
vt 0.855701 0.611166
vt 0.795453 0.608800
vt 0.483475 0.386885
vt 0.483475 0.506972
vt 0.397772 0.487039
vt 0.385857 0.420651
vt 0.677464 0.750446
vt 0.726636 0.734906
vt 0.726636 0.828475
vt 0.670893 0.810306
vt 0.313838 0.356840
vt 0.256705 0.244310
vt 0.381371 0.247006
vt 0.381371 0.337506
vt 0.915670 0.811305
vt 0.915670 0.848509
vt 0.907740 0.847090
vt 0.907680 0.811345
vt 0.794060 0.986361
vt 0.786176 0.985496
vt 0.784281 0.927663
vt 0.794060 0.925825
vt 0.102990 0.439040
vt 0.102990 0.502891
vt 0.016763 0.497657
vt 0.002243 0.383473
vt 0.736308 0.518267
vt 0.741582 0.502922
vt 0.741582 0.524119
vt 0.097524 0.785407
vt 0.093410 0.700683
vt 0.135773 0.684785
vt 0.135773 0.812228
vt 0.161596 0.846184
vt 0.211124 0.852747
vt 0.211124 0.892483
vt 0.143905 0.898056
vt 0.769139 0.316983
vt 0.789281 0.244310
vt 0.820374 0.262800
vt 0.820374 0.352305
vt 0.235813 0.614666
vt 0.235813 0.701161
vt 0.145937 0.659222
vt 0.143905 0.625699
vt 0.662609 0.942237
vt 0.621725 0.929950
vt 0.626950 0.888940
vt 0.662609 0.874851
vt 0.002243 0.825261
vt 0.074751 0.794048
vt 0.074751 0.852502
vt 0.563067 0.740161
vt 0.556159 0.743318
vt 0.550643 0.633449
vt 0.563067 0.628450
vt 0.245016 0.514403
vt 0.245016 0.610179
vt 0.143905 0.566842
vt 0.144207 0.525624
vt 0.088923 0.622433
vt 0.002243 0.607850
vt 0.002658 0.549988
vt 0.088923 0.507377
vt 0.878094 0.908772
vt 0.824331 0.918366
vt 0.831963 0.861309
vt 0.878094 0.853939
vt 0.800177 0.160398
vt 0.800177 0.233783
vt 0.757623 0.230919
vt 0.728816 0.190514
vt 0.593568 0.870364
vt 0.574768 0.815996
vt 0.652449 0.819698
vt 0.652449 0.870136
vt 0.388774 0.330311
vt 0.385857 0.256984
vt 0.474418 0.244310
vt 0.474418 0.382399
vt 0.139419 0.109099
vt 0.139419 0.236990
vt 0.031553 0.234389
vt 0.002243 0.139471
vt 0.974931 0.374419
vt 0.969668 0.251333
vt 0.974931 0.246975
vt 0.530049 0.912843
vt 0.540512 0.908440
vt 0.540512 0.973573
vt 0.532710 0.974972
vt 0.715511 0.050934
vt 0.670065 0.042757
vt 0.668204 0.024861
vt 0.715511 0.002243
vt 0.487961 0.561604
vt 0.569379 0.516066
vt 0.569379 0.623963
vt 0.498241 0.615144
vt 0.724329 0.160398
vt 0.724329 0.238168
vt 0.639761 0.213866
vt 0.631282 0.164449
vt 0.702434 0.507549
vt 0.649917 0.489357
vt 0.640962 0.433197
vt 0.702434 0.386885
vt 0.263324 0.824751
vt 0.256705 0.756153
vt 0.319582 0.771614
vt 0.319582 0.836949
vt 0.553254 0.823116
vt 0.487961 0.832815
vt 0.516629 0.751162
vt 0.553254 0.757705
vt 0.882580 0.869659
vt 0.928507 0.853939
vt 0.928507 0.926935
vt 0.886927 0.917261
vt 0.879056 0.635593
vt 0.915645 0.624132
vt 0.915645 0.717029
vt 0.877801 0.715404
vt 0.890578 0.931422
vt 0.890578 0.986921
vt 0.882580 0.984373
vt 0.247005 0.093617
vt 0.245932 0.083725
vt 0.267828 0.085502
vt 0.267828 0.093446
vt 0.665567 0.816961
vt 0.665567 0.869396
vt 0.657701 0.869033
vt 0.656936 0.815996
vt 0.467323 0.990197
vt 0.459295 0.990222
vt 0.459495 0.935569
vt 0.467323 0.931280
vt 0.904558 0.932511
vt 0.904558 0.977060
vt 0.897319 0.975047
vt 0.895064 0.931422
vt 0.085885 0.724302
vt 0.085885 0.789561
vt 0.003430 0.750456
vt 0.002243 0.743244
vt 0.987388 0.376827
vt 0.979417 0.377352
vt 0.980264 0.331667
vt 0.987388 0.331349
vt 0.759303 0.360347
vt 0.759303 0.375784
vt 0.704903 0.368910
vt 0.704646 0.360970
vt 0.149984 0.772452
vt 0.143905 0.705647
vt 0.230716 0.708145
vt 0.230716 0.771787
vt 0.971699 0.386885
vt 0.971699 0.466345
vt 0.958526 0.462366
vt 0.240300 0.616907
vt 0.248930 0.614666
vt 0.248930 0.739802
vt 0.251911 0.490816
vt 0.251911 0.503750
vt 0.243986 0.503434
vt 0.243226 0.490898
vn 0.0937 0.9366 -0.3377
vn -0.9919 -0.1019 -0.0753
vn -0.0042 0.0253 -0.9997
vn -0.0101 0.0196 -0.9998
vn -0.0011 0.0262 -0.9997
vn -0.0076 0.0210 -0.9998
vn -0.0028 1.0000 0.0018
vn 0.1072 0.6355 -0.7646
vn 0.0080 0.9997 0.0234
vn 0.0091 0.9997 0.0216
vn -0.0150 0.9974 0.0702
vn 0.0121 0.9994 0.0329
vn 0.2771 0.9052 0.3222
vn 0.0092 -0.0230 -0.9997
vn -0.0035 0.0207 0.9998
vn -0.0025 0.0251 0.9997
vn 0.0073 0.0254 0.9997
vn 0.0015 0.0250 0.9997
vn 0.0072 0.0159 -0.9998
vn 0.0001 0.0139 -0.9999
vn 0.0019 0.0150 -0.9999
vn -0.9905 -0.1034 -0.0909
vn -0.0026 -0.0333 0.9994
vn -0.0025 -0.0202 0.9998
vn -0.0043 -0.0270 0.9996
vn -0.0056 1.0000 0.0050
vn -0.0112 0.9999 0.0072
vn 0.0005 1.0000 0.0070
vn -0.4353 0.8702 -0.2309
vn -0.0750 0.4707 0.8791
vn -0.9999 -0.0162 -0.0038
vn -0.9999 -0.0138 0.0018
vn -0.9998 -0.0188 0.0014
vn -0.0074 -0.0446 -0.9990
vn -0.0095 -0.0419 -0.9991
vn -0.0036 -0.0440 -0.9990
vn -0.6881 -0.0441 0.7242
vn -0.6880 -0.0441 0.7244
vn -0.6905 -0.0438 0.7220
vn -0.6911 -0.0437 0.7214
vn -0.0423 0.9989 0.0186
vn -0.0431 0.9989 0.0181
vn -0.0427 0.9989 0.0186
vn -0.1478 0.3992 -0.9049
vn 0.9995 -0.0289 0.0124
vn 0.9995 -0.0276 0.0139
vn 0.9995 -0.0281 0.0157
vn 0.9944 0.1031 0.0240
vn 0.9959 0.0901 -0.0109
vn 0.0009 0.0023 -1.0000
vn 0.0012 0.0022 -1.0000
vn -0.9979 -0.0566 0.0311
vn 0.1182 0.0230 -0.9927
vn -0.0042 0.9999 -0.0142
vn -0.0044 0.9999 -0.0144
vn -0.0038 0.9999 -0.0137
vn 0.0311 -0.0313 -0.9990
vn -0.0085 -0.0064 -0.9999
vn -0.0050 -0.0199 0.9998
vn -0.0058 -0.0207 0.9998
vn -0.0005 -0.0236 0.9997
vn 0.0029 0.0162 0.9999
vn 0.0089 0.0120 0.9999
vn 0.0081 0.0188 0.9998
vn -0.8716 0.4324 -0.2310
vn -0.0645 0.0452 -0.9969
vn -0.5250 0.6585 0.5392
vn -0.5255 0.6581 0.5393
vn -0.5192 0.6634 0.5388
vn -0.5179 0.6645 0.5387
vn -0.0173 -0.0163 0.9997
vn -0.0130 -0.0191 0.9997
vn -0.0122 -0.0156 0.9998
vn 0.0100 -0.0145 0.9998
vn 0.0157 -0.0111 0.9998
vn -0.0111 0.0184 0.9998
vn -0.0032 0.0213 0.9998
vn -0.0114 0.0260 0.9996
vn -0.0165 0.7073 0.7067
vn -0.0123 0.7039 0.7102
vn -0.0099 0.6995 0.7146
vn 0.0336 0.9992 -0.0201
vn -0.0004 0.0220 0.9998
vn 0.0048 0.0167 0.9998
vn 0.0035 0.0241 0.9997
vn 0.9929 -0.1046 -0.0574
vn 0.9971 -0.0754 0.0142
vn 0.9973 -0.0714 0.0155
vn 0.9975 -0.0682 0.0168
vn -0.0678 -0.1480 0.9867
vn 0.0195 0.0040 -0.9998
vn 0.0124 0.0058 -0.9999
vn 0.0162 0.0020 -0.9999
vn -0.7851 -0.1472 -0.6016
vn -0.9961 0.0823 -0.0305
vn -0.9962 0.0812 -0.0316
vn 0.0798 -0.0599 0.9950
vn 0.2446 0.9673 0.0663
vn -0.0753 -0.0328 0.9966
vn 0.4511 0.5376 0.7123
vn 0.0058 0.1473 -0.9891
vn 0.0120 0.1172 -0.9930
vn 0.0319 0.9982 -0.0508
vn 0.0319 0.9982 -0.0507
vn -0.0910 0.9742 -0.2065
vn -0.0911 0.9742 -0.2065
vn 0.1953 0.9712 -0.1367
vn -0.0032 1.0000 -0.0071
vn -0.2464 0.9596 0.1357
vn -0.0158 0.9998 -0.0138
vn 0.0094 -0.0189 -0.9998
vn 0.9976 0.0583 -0.0367
vn -0.9971 0.0731 -0.0222
vn -0.9975 0.0685 -0.0175
vn -0.9976 0.0669 -0.0159
vn -0.9978 0.0626 -0.0195
vn 0.6880 0.2367 -0.6861
vn -0.9989 -0.0284 -0.0362
vn 0.5019 -0.5225 -0.6893
vn 0.7208 0.6931 0.0038
vn -0.0006 0.0243 0.9997
vn 0.0040 0.0209 0.9998
vn 0.0044 0.0228 0.9997
vn 0.0049 0.0233 0.9997
vn -0.0072 -0.0211 0.9998
vn -0.0061 -0.0200 0.9998
vn -0.0055 -0.0152 0.9999
vn -0.0086 -0.0250 0.9997
vn -0.4102 0.5604 -0.7195
vn -0.4106 0.5786 -0.7047
vn -0.0298 0.8692 -0.4936
vn 0.0186 0.5784 -0.8156
vn 0.0004 0.6843 0.7292
vn 0.0315 0.9976 0.0612
vn 0.0293 0.9979 0.0578
vn 0.0279 0.9980 0.0573
vn -0.9993 -0.0314 -0.0218
vn -0.9991 -0.0360 -0.0205
vn -0.9989 -0.0441 -0.0181
vn -0.9990 -0.0391 -0.0193
vn -0.9904 -0.0452 -0.1307
vn -0.0624 0.9343 0.3511
vn 0.9991 0.0421 -0.0099
vn 0.9989 0.0422 -0.0207
vn 0.9991 0.0421 -0.0086
vn 0.9991 0.0421 -0.0083
vn 0.0291 0.9992 -0.0265
vn -0.0445 0.9990 0.0043
vn -0.0069 -0.0043 1.0000
vn -0.0093 -0.0103 0.9999
vn -0.0043 -0.0112 0.9999
vn 0.3131 0.8917 0.3268
vn 0.0110 -0.0202 -0.9997
vn 0.0195 0.9998 0.0018
vn -0.5987 0.5094 -0.6180
vn -0.5988 0.5094 -0.6180
vn -0.5584 0.5912 -0.5820
vn -0.0118 0.0041 -0.9999
vn -0.0296 -0.0280 -0.9992
vn 0.0227 0.0090 -0.9997
vn 0.4161 0.5750 -0.7044
vn 0.0479 -0.0610 0.9970
vn -0.0089 -0.0249 0.9997
vn -0.0040 -0.0205 0.9998
vn -0.0049 -0.0135 0.9999
vn 0.9993 -0.0364 -0.0130
vn 0.9993 -0.0365 -0.0092
vn 0.9991 -0.0400 -0.0125
vn -0.1726 0.9301 -0.3242
vn 0.0039 0.0278 -0.9996
vn -0.0047 0.0314 -0.9995
vn -0.0046 0.0289 -0.9996
vn -0.0032 0.0321 -0.9995
vn 0.0185 -0.0146 -0.9997
vn 0.0292 0.0037 -0.9996
vn 0.0200 0.9998 0.0097
vn 0.0174 0.9998 0.0100
vn 0.0202 0.9997 0.0139
vn 0.9731 0.0203 0.2294
vn -0.0132 0.9999 0.0085
vn -0.0023 0.9999 -0.0155
vn -0.0065 0.9998 -0.0207
vn -0.0444 0.9988 0.0182
vn -0.0447 0.9988 0.0177
vn -0.0456 0.9988 0.0177
vn -0.1221 0.3765 -0.9183
vn 0.9995 -0.0281 0.0174
vn 0.9995 -0.0277 0.0155
vn 0.9994 -0.0279 0.0192
vn 0.9997 -0.0219 -0.0076
vn 0.9987 0.0425 0.0296
vn -0.0089 -0.0149 -0.9998
vn -0.0092 -0.0150 -0.9998
vn -0.0086 -0.0147 -0.9999
vn -0.0082 -0.0145 -0.9999
vn -0.9985 -0.0356 0.0416
vn -0.0308 -0.0032 -0.9995
vn 0.0440 0.8386 -0.5430
vn 0.0312 0.9953 -0.0916
vn 0.0172 0.9897 -0.1418
vn 0.2675 0.9238 -0.2740
vn -0.0126 0.0216 -0.9997
vn -0.0144 0.0252 -0.9996
vn -0.0106 0.0203 -0.9997
vn -0.0017 -0.0152 -0.9999
vn -0.0030 -0.0111 0.9999
vn 0.0007 -0.0169 0.9999
vn -0.0095 -0.0189 0.9998
vn -0.0383 0.0632 -0.9973
vn -0.1309 -0.0457 -0.9903
vn 0.5899 -0.6022 -0.5379
vn 0.5661 -0.6229 -0.5399
vn 0.2915 0.8946 0.3387
vn 0.2909 0.8949 0.3383
vn 0.2923 0.8942 0.3391
vn 0.2926 0.8940 0.3393
vn 0.6041 0.7630 -0.2299
vn -0.7277 -0.0071 0.6859
vn -0.7255 -0.0065 0.6882
vn -0.7313 -0.0080 0.6820
vn -0.7335 -0.0085 0.6797
vn -0.0132 0.0040 -0.9999
vn -0.6562 -0.1002 -0.7479
vn 0.0094 0.9999 -0.0108
vn -0.0023 0.9988 -0.0496
vn 0.9989 -0.0445 0.0150
vn 0.9988 -0.0478 0.0092
vn 0.9988 -0.0471 0.0134
vn 0.6796 0.7275 0.0942
vn 0.6958 0.7104 0.1058
vn 0.6958 0.7104 0.1059
vn -0.9992 0.0380 -0.0084
vn -0.9994 0.0336 -0.0100
vn -0.9994 0.0338 -0.0100
vn -0.9992 0.0382 -0.0083
vn 0.0130 -0.0139 0.9998
vn 0.0134 -0.0081 0.9999
vn 0.0163 -0.0029 0.9999
vn 0.0026 0.0231 0.9997
vn -0.0041 0.0253 0.9997
vn -0.0034 0.0226 0.9997
vn -0.0014 0.0228 0.9997
vn 0.0429 0.0256 0.9988
vn 0.0358 0.0012 -0.9994
vn -0.0003 0.0284 -0.9996
vn -0.0004 0.0275 -0.9996
vn -0.0002 0.0287 -0.9996
vn -0.9956 0.0355 -0.0866
vn -0.9961 0.0831 -0.0295
vn -0.9961 0.0837 -0.0281
vn 0.9924 -0.0726 -0.0989
vn 0.9488 -0.1008 -0.2992
vn -0.5740 0.5744 0.5835
vn -0.5735 0.5746 0.5840
vn -0.5748 0.5743 0.5829
vn -0.5802 0.5732 0.5786
vn -0.0270 0.9995 -0.0145
vn -0.0067 0.0354 0.9994
vn -0.0040 0.0363 0.9993
vn -0.0033 0.0368 0.9993
vn -0.0205 0.9997 -0.0131
vn -0.0219 0.9997 -0.0117
vn -0.0196 0.9997 -0.0115
vn 0.0075 0.9998 0.0189
vn 0.0091 0.9998 0.0203
vn 0.0050 0.9999 0.0146
vn 0.0112 0.0211 0.9997
vn 0.0105 0.0134 0.9999
vn 0.0125 0.0152 0.9998
vn 0.0283 0.9993 -0.0225
vn 0.0113 0.9999 -0.0008
vn 0.0003 1.0000 0.0008
vn 0.0060 1.0000 0.0028
vn 0.5252 0.4607 -0.7155
vn -0.9971 -0.0706 0.0271
vn -0.9971 -0.0706 0.0272
vn -0.9991 0.0295 -0.0308
vn -0.9991 0.0296 -0.0308
vn -0.0071 0.0132 0.9999
vn -0.0095 0.0102 0.9999
vn 0.0001 0.0134 0.9999
vn -0.0097 0.0166 0.9998
vn 0.0266 0.0102 -0.9996
vn -0.0013 -0.0490 -0.9988
vn 0.0012 -0.0520 -0.9986
vn -0.0045 -0.0501 -0.9987
vn 0.9988 -0.0357 -0.0323
vn 0.9990 -0.0358 -0.0262
vn 0.9986 -0.0413 -0.0316
vn 0.9993 -0.0290 -0.0236
vn 0.9991 -0.0350 -0.0226
vn 0.9990 -0.0351 -0.0283
vn 0.0000 -0.0055 1.0000
vn 0.0080 -0.0075 0.9999
vn 0.0081 -0.0085 0.9999
vn 0.0051 -0.0078 1.0000
vn -0.0080 0.0214 0.9997
vn -0.0059 0.0233 0.9997
vn -0.0024 0.0220 0.9998
vn -0.0741 0.9966 -0.0347
vn -0.0816 0.9964 -0.0237
vn -0.0031 0.9997 0.0251
vn -0.0255 0.9997 0.0034
vn 0.9873 0.1432 0.0689
vn -0.9964 -0.0849 0.0046
vn -0.9989 -0.0108 -0.0464
vn 0.9984 0.0568 -0.0071
vn 0.9984 0.0561 -0.0092
vn 0.9984 0.0564 -0.0085
vn 0.9983 0.0571 -0.0063
vn -0.4648 0.7960 0.3878
vn 0.6045 0.7960 -0.0300
vn 0.0139 0.6800 0.7331
vn -0.4444 0.8767 -0.1840
vn 0.0090 0.9992 -0.0379
vn -0.0945 0.9953 0.0225
vn -0.0517 0.8221 -0.5670
vn 0.0071 0.6258 0.7800
vn -0.7501 0.0638 0.6583
vn -0.6554 0.0473 0.7538
vn -0.0009 0.9998 -0.0192
vn 0.0025 0.9996 -0.0267
vn -0.0064 0.9996 -0.0288
vn -0.0077 0.9996 -0.0285
vn 0.0285 0.9976 0.0638
vn 0.0282 0.9977 0.0614
vn 0.0262 0.9976 0.0636
vn 0.5954 0.5713 -0.5649
vn 0.5982 0.5621 -0.5712
vn 0.5952 0.5718 -0.5646
vn 0.5951 0.5723 -0.5642
vn 0.5682 0.4949 -0.6574
vn 0.8420 -0.0714 -0.5348
vn -0.0069 0.0255 -0.9997
vn -0.0085 0.0260 -0.9996
vn -0.0120 0.0289 -0.9995
vn -0.0127 0.0283 -0.9995
vn -0.0237 0.9997 -0.0103
vn -0.0226 0.9997 -0.0117
vn -0.0257 0.9996 -0.0104
vn -0.3292 0.7298 -0.5992
vn 0.0930 0.7297 0.6774
vn 0.0207 0.9997 0.0111
vn 0.0129 0.9998 0.0127
vn 0.0173 0.9998 0.0138
vn -0.7051 0.7066 -0.0606
vn -0.4818 0.6510 0.5866
vn 0.0267 0.9976 0.0634
vn 0.0289 0.9976 0.0636
vn 0.0267 0.9978 0.0611
vn 0.0248 0.9978 0.0615
vn -0.7044 0.7094 0.0225
vn 0.0110 0.9999 0.0000
vn 0.0038 1.0000 -0.0024
vn 0.0081 1.0000 0.0034
vn -0.0142 0.7400 0.6724
vn -0.0319 0.0006 0.9995
vn -0.6744 0.0402 -0.7373
vn 0.0272 0.9995 0.0127
vn 0.0247 0.9997 0.0065
vn 0.0214 0.9997 0.0117
vn -0.0210 0.7473 -0.6642
vn -0.9940 -0.0214 -0.1070
vn 0.9996 -0.0282 0.0042
vn 0.9997 -0.0251 0.0009
vn 0.9996 -0.0266 0.0025
vn 0.9996 -0.0286 0.0045
vn 0.0094 0.0220 -0.9997
vn 0.0043 0.0278 -0.9996
vn 0.0080 0.0293 -0.9995
vn 0.0077 0.0296 -0.9995
vn -0.0091 0.0187 0.9998
vn -0.0031 0.0272 0.9996
vn -0.0126 0.0198 0.9997
vn -0.0034 0.0262 0.9997
vn -0.9974 0.0658 0.0300
vn -0.9975 0.0628 0.0317
vn -0.9974 0.0657 0.0300
vn -0.9974 0.0662 0.0298
vn -0.6987 0.7154 -0.0017
vn -0.6964 0.7176 -0.0024
vn -0.7034 0.7108 -0.0002
vn -0.7057 0.7085 0.0005
vn 0.7170 0.0514 0.6951
vn 0.7171 0.0514 0.6951
vn 0.7428 0.0465 0.6679
vn 0.7428 0.0466 0.6679
vn 0.0148 0.0144 0.9998
vn 0.0132 0.0178 0.9998
vn 0.0167 0.0235 0.9996
vn 0.0082 0.0201 0.9998
vn -0.5847 0.5914 0.5553
vn -0.0001 -0.0164 0.9999
vn -0.0060 -0.0117 0.9999
vn 0.0011 -0.0185 0.9998
vn -0.0015 -0.0164 0.9999
vn -0.0383 0.0439 -0.9983
vn -0.0204 0.0272 -0.9994
vn -0.0132 0.0113 0.9998
vn -0.0137 0.0123 0.9998
vn -0.0114 0.0076 0.9999
vn -0.0111 0.0069 0.9999
vn 0.0054 -0.0215 0.9998
vn 0.0060 -0.0238 0.9997
vn 0.0044 -0.0173 0.9998
vn 0.0055 -0.0233 0.9997
vn -0.9976 0.0682 -0.0130
vn -0.9980 0.0621 -0.0096
vn -0.9981 0.0617 0.0053
vn -0.9982 0.0593 0.0011
vn -0.0116 0.9992 -0.0382
vn 0.5964 0.8027 -0.0046
vn 0.5964 0.8026 -0.0046
vn 0.5547 0.8320 -0.0086
vn 0.9999 -0.0156 0.0068
vn 0.9995 -0.0247 0.0181
vn 0.9995 -0.0247 0.0182
vn -0.0146 0.0317 0.9994
vn -0.0068 0.0241 0.9997
vn -0.0068 0.0227 0.9997
vn 0.9988 -0.0492 -0.0044
vn 0.9988 -0.0492 -0.0043
vn 0.9990 -0.0446 0.0086
vn 0.9992 -0.0408 0.0015
vn 0.0003 0.9999 -0.0173
vn 0.0006 0.9996 -0.0284
vn -0.0197 0.9988 -0.0451
vn -0.0206 0.9997 0.0163
vn -0.0178 -0.0400 -0.9990
vn -0.0302 -0.0708 -0.9970
vn -0.0602 -0.1089 -0.9922
vn -0.0798 -0.0937 -0.9924
vn -0.0107 0.9999 0.0114
vn -0.0107 0.9999 0.0115
vn -0.0111 0.9999 0.0107
vn 0.0058 0.9999 -0.0089
vn 0.0058 1.0000 -0.0078
vn 0.0058 0.9999 -0.0100
vn -0.0053 0.6970 0.7171
vn -0.0005 0.6931 0.7208
vn -0.0001 0.6968 0.7172
vn -0.0201 0.8184 -0.5743
vn -0.0160 0.7997 -0.6002
vn -0.0162 0.7997 -0.6002
vn 0.9995 -0.0273 -0.0173
vn 0.9994 -0.0335 -0.0117
vn 0.9994 -0.0314 -0.0152
vn 0.9994 -0.0303 -0.0161
vn 0.0054 0.9999 0.0085
vn -0.0064 0.9998 -0.0183
vn -0.0126 0.9998 -0.0122
vn -0.1748 0.9554 -0.2381
vn -0.0610 -0.0163 -0.9980
vn -0.0036 -0.0229 -0.9997
vn -0.0212 -0.0243 -0.9995
vn 0.0064 1.0000 0.0067
vn 0.0086 1.0000 -0.0017
vn 0.0022 1.0000 0.0084
vn 0.0046 1.0000 0.0041
vn 0.9979 -0.0643 -0.0048
vn 0.9985 -0.0535 0.0091
vn 0.0020 1.0000 -0.0060
vn 0.0076 0.9999 -0.0136
vn 0.0074 0.9999 -0.0132
vn 0.0007 1.0000 -0.0044
vn -0.9998 -0.0140 0.0104
vn -0.9999 -0.0109 0.0030
vn -0.9999 -0.0095 0.0089
vn -0.9998 -0.0129 0.0140
vn -0.9990 -0.0358 -0.0262
vn -0.9990 -0.0326 -0.0320
vn -0.9990 -0.0325 -0.0315
vn -0.9990 -0.0357 -0.0257
vn -0.0002 0.7067 0.7075
vn -0.0061 0.7050 0.7092
vn -0.0067 0.7055 0.7087
vn 0.7401 0.0128 0.6723
vn 0.7914 -0.0223 0.6109
vn 0.7369 -0.0287 0.6754
vn 0.7244 -0.0312 0.6887
vn 0.7185 0.6955 0.0028
vn 0.7175 0.6965 0.0026
vn 0.7177 0.6963 0.0026
vn 0.7188 0.6952 0.0029
vn -0.6795 0.0162 -0.7335
vn -0.6804 0.0165 -0.7326
vn -0.6782 0.0159 -0.7347
vn -0.6776 0.0157 -0.7353
vn 0.0074 1.0000 0.0002
vn 0.0103 0.9999 0.0016
vn 0.0094 1.0000 0.0005
vn 0.6932 -0.0243 -0.7203
vn 0.6686 -0.0292 -0.7430
vn 0.8265 -0.1294 0.5479
vn 0.8264 -0.1294 0.5479
vn 0.7837 -0.1173 0.6099
vn 0.7837 -0.1173 0.6100
vn 0.0199 0.0168 -0.9997
vn 0.0154 0.0181 -0.9997
vn 0.0108 0.0170 -0.9998
vn 0.0171 0.0069 -0.9998
vn -0.9880 -0.0534 -0.1447
vn -0.0002 0.6951 0.7190
vn -0.0005 0.6914 0.7225
vn 0.0047 0.6913 0.7226
vn 0.7015 0.1441 0.6979
vn 0.7010 0.1435 0.6986
vn 0.7042 0.1476 0.6945
vn 0.7046 0.1481 0.6939
g Block_L_3_Block_L_3_Collor_Material
usemtl Collor_Material
s off
f 67/1/1 135/2/1 95/3/1
f 52/4/2 130/5/2 129/6/2
f 35/7/3 34/8/4 48/9/5 49/10/6
f 28/11/7 113/12/7 112/13/7
f 70/14/8 94/15/8 71/16/8
f 21/17/9 20/18/10 23/19/11 24/20/12
f 114/21/13 115/22/13 111/23/13
f 2/24/14 40/25/14 35/26/14
f 46/27/15 137/28/16 33/29/17 47/30/18
f 153/31/19 75/32/20 50/33/21
f 65/34/22 129/35/22 130/36/22
f 158/37/23 45/38/24 10/39/25
f 29/40/26 27/41/27 26/42/28
f 71/43/29 148/44/29 70/45/29
f 140/46/30 68/47/30 139/48/30
f 106/49/31 110/50/32 160/51/33
f 94/52/34 70/53/35 41/54/36
f 105/55/37 104/56/38 91/57/39 90/58/40
f 30/59/41 11/60/42 31/61/43
f 150/62/44 73/63/44 72/64/44
f 157/65/45 120/66/46 119/67/47
f 60/68/48 63/69/48 61/70/48
f 59/71/49 60/72/49 61/73/49
f 50/74/50 51/75/51 8/76/50 49/77/50
f 19/78/52 54/79/52 18/80/52
f 131/81/53 126/82/53 64/83/53
f 140/84/54 136/85/55 11/86/56 21/87/56
f 8/88/57 51/89/57 7/90/57
f 2/91/58 49/92/58 8/93/58
f 45/94/59 9/95/60 10/96/61
f 45/97/62 46/98/63 47/99/64
f 100/100/65 122/101/65 125/102/65
f 149/103/66 73/104/66 48/105/66
f 67/106/67 66/107/68 134/108/69 135/109/70
f 3/110/71 39/111/72 4/112/73
f 32/113/74 3/114/75 1/115/75
f 33/116/76 37/117/77 32/118/78
f 143/119/79 144/120/80 142/121/81
f 94/122/82 93/123/82 23/124/82
f 47/125/83 33/126/84 32/127/85
f 88/128/86 59/129/86 16/130/86
f 15/131/87 16/132/88 59/133/89 61/134/88
f 66/135/90 44/136/90 134/137/90
f 75/138/91 121/139/92 78/140/93
f 74/141/94 152/142/94 75/143/94
f 127/144/95 52/145/96 128/146/95
f 36/147/97 139/148/97 68/149/97
f 25/150/98 142/151/98 144/152/98
f 137/153/99 46/154/99 138/155/99
f 140/156/100 141/157/100 68/158/100
f 117/159/101 121/160/101 75/161/102 152/162/102
f 117/163/103 74/164/104 26/165/105 118/166/106
f 147/167/107 71/168/107 20/169/107
f 150/170/108 72/171/109 29/172/110
f 34/173/111 70/174/111 148/175/111
f 155/176/112 80/177/112 63/178/112
f 56/179/113 57/180/114 55/181/115 54/182/116
f 78/183/117 79/184/117 103/185/117
f 162/186/118 55/187/118 160/188/118
f 101/189/119 102/190/119 103/191/119
f 98/192/120 112/193/120 111/194/120
f 39/195/121 38/196/122 132/197/123 105/198/124
f 105/199/125 90/200/126 4/201/127 39/202/128
f 127/203/129 128/204/129 64/205/130 126/206/130
f 147/207/131 84/208/131 148/209/131
f 74/210/132 151/211/132 150/212/132
f 139/213/133 136/214/133 140/215/133
f 31/216/134 67/217/135 95/218/136
f 54/219/137 52/220/138 17/221/139 18/222/140
f 17/223/141 52/224/141 129/225/141
f 108/226/142 142/227/142 109/228/142
f 63/229/143 60/230/144 62/231/145 155/232/146
f 112/233/147 99/234/147 28/235/147
f 28/236/148 95/237/148 113/238/148
f 36/239/149 68/240/150 141/241/151
f 116/242/152 111/243/152 115/244/152
f 2/245/153 6/246/153 40/247/153
f 97/248/154 118/249/154 26/250/154
f 122/251/155 123/252/156 124/253/157 125/254/157
f 50/255/158 48/256/158 73/257/158
f 73/258/159 151/259/159 50/260/159
f 151/261/160 153/262/160 50/263/160
f 74/264/161 75/265/161 153/266/161
f 10/267/162 86/268/162 158/269/162
f 158/270/163 81/271/164 45/272/165
f 62/273/166 98/274/167 111/275/168
f 71/276/169 147/277/169 148/278/169
f 41/279/170 34/280/171 35/281/172 40/282/173
f 43/283/174 92/284/174 41/285/174
f 92/286/175 94/287/175 41/288/175
f 31/289/176 28/290/177 27/291/178
f 101/292/179 103/293/179 79/294/179
f 13/295/180 12/296/181 30/297/182
f 30/298/183 12/299/184 11/300/185
f 150/301/186 151/302/186 73/303/186
f 79/304/187 157/305/188 119/306/189
f 60/307/190 69/308/190 146/309/190
f 59/310/191 58/311/191 60/312/191
f 51/313/192 102/314/193 87/315/194 7/316/195
f 19/317/196 56/318/196 54/319/196
f 42/320/197 65/321/197 131/322/197
f 149/323/198 84/324/199 13/325/200 72/326/201
f 49/327/202 48/328/203 50/329/204
f 2/330/205 35/331/205 49/332/205
f 45/333/206 47/334/207 9/335/208
f 43/336/209 64/337/209 125/338/210 124/339/210
f 79/340/211 78/341/211 156/342/212 157/343/212
f 114/344/213 111/345/214 112/346/215 113/347/216
f 146/348/217 69/349/217 145/350/217
f 132/351/218 107/352/219 106/353/220 133/354/221
f 124/355/222 92/356/222 43/357/222
f 64/358/223 128/359/223 125/360/223
f 23/361/224 20/362/224 71/363/224
f 71/364/225 94/365/225 23/366/225
f 63/367/226 80/368/227 159/369/228
f 96/370/229 97/371/229 145/372/230 69/373/231
f 125/374/232 128/375/233 53/376/234 100/377/235
f 108/378/236 107/379/237 132/380/238
f 39/381/239 37/382/240 36/383/241 38/384/242
f 44/385/243 95/386/243 134/387/243
f 121/388/244 156/389/244 78/390/244
f 103/391/245 102/392/246 51/393/247 78/394/247
f 127/395/248 130/396/248 52/397/248
f 52/398/249 53/399/250 128/400/250
f 101/401/251 59/402/251 88/403/252 87/404/252
f 109/405/253 110/406/254 106/407/255 108/408/256
f 31/409/257 11/410/257 136/411/257
f 33/412/258 137/413/259 139/414/260
f 144/415/261 140/416/262 22/417/263
f 22/418/264 25/419/265 144/420/266
f 46/421/267 66/422/268 138/423/269
f 97/424/270 26/425/270 145/426/270
f 26/427/271 27/428/272 145/429/273
f 72/430/274 73/431/274 149/432/274
f 53/433/275 55/434/276 83/435/277 100/436/278
f 32/437/279 37/438/280 39/439/281 3/440/282
f 148/441/283 84/442/283 34/443/283
f 34/444/284 41/445/285 70/446/286
f 60/447/287 58/448/288 69/449/289
f 58/450/290 96/451/291 69/452/292
f 143/453/293 108/454/294 132/455/295 38/456/296
f 154/457/297 77/458/298 44/459/299
f 23/460/300 100/461/301 82/462/302 24/463/303
f 62/464/304 76/465/304 155/466/304
f 83/467/305 55/468/305 162/469/305
f 55/470/306 57/471/306 160/472/306
f 59/473/307 101/474/308 79/475/309 58/476/310
f 136/477/311 137/478/311 138/479/311
f 98/480/312 99/481/312 112/482/312
f 95/483/313 114/484/313 113/485/313
f 100/486/314 123/487/314 122/488/314
f 23/489/315 93/490/315 123/491/316 100/492/316
f 74/493/317 153/494/317 151/495/317
f 139/496/318 137/497/318 136/498/318
f 132/499/319 133/500/319 104/501/320 105/502/320
f 74/503/321 150/504/322 29/505/323 26/506/324
f 31/507/325 95/508/326 28/509/327
f 119/510/328 120/511/329 117/512/330 118/513/331
f 120/514/332 121/515/332 117/516/332
f 87/517/333 102/518/333 101/519/333
f 48/520/334 34/521/335 84/522/336 149/523/337
f 21/524/338 22/525/339 140/526/340
f 94/527/341 92/528/341 93/529/341
f 138/530/342 66/531/342 67/532/342
f 27/533/343 99/534/344 145/535/345
f 162/536/346 82/537/346 83/538/346
f 162/539/347 160/540/347 161/541/347
f 31/542/348 136/543/349 138/544/350 67/545/351
f 82/546/352 100/547/352 83/548/352
f 161/549/353 25/550/354 24/551/355
f 135/552/356 134/553/356 95/554/356
f 115/555/357 114/556/357 77/557/357
f 65/558/358 130/559/358 131/560/358
f 27/561/359 28/562/360 99/563/361
f 152/564/362 74/565/362 117/566/362
f 17/567/363 65/568/363 89/569/363
f 96/570/364 58/571/365 79/572/366 119/573/367
f 41/574/368 40/575/369 42/576/370 43/577/371
f 36/578/372 37/579/373 33/580/374 139/581/375
f 52/582/376 54/583/377 55/584/378 53/585/379
f 109/586/380 161/587/381 160/588/382 110/589/383
f 155/590/384 154/591/385 81/592/386 80/593/387
f 44/594/388 66/595/389 46/596/390 45/597/391
f 107/598/392 108/599/392 106/600/392
f 38/601/393 36/602/394 141/603/395 143/604/396
f 131/605/397 64/606/397 43/607/398 42/608/398
f 114/609/399 95/610/400 44/611/401 77/612/402
f 47/613/403 32/614/404 1/615/405 9/616/406
f 133/617/407 57/618/408 56/619/409 104/620/410
f 84/621/411 147/622/411 20/623/411
f 99/624/412 98/625/413 146/626/414 145/627/414
f 60/628/415 146/629/415 98/630/416 62/631/417
f 45/632/418 81/633/418 154/634/419 44/635/420
f 85/636/421 14/637/422 63/638/423 159/639/424
f 20/640/425 12/641/426 13/642/427 84/643/428
f 65/644/429 42/645/430 5/646/431 89/647/432
f 12/648/433 20/649/434 21/650/435 11/651/435
f 27/652/436 29/653/437 30/654/436 31/655/438
f 141/656/439 144/657/440 143/658/441
f 124/659/442 123/660/442 93/661/443 92/662/444
f 62/663/445 111/664/446 116/665/447 76/666/448
f 13/667/449 30/668/450 29/669/451 72/670/452
f 5/671/453 42/672/454 40/673/455 6/674/455
f 24/675/456 25/676/457 22/677/458 21/678/459
f 14/679/460 15/680/460 61/681/461 63/682/461
f 142/683/462 25/684/463 161/685/464 109/686/465
f 106/687/466 160/688/467 57/689/468 133/690/469
f 104/691/470 56/692/471 19/693/472 91/694/473
f 108/695/474 143/696/475 142/697/476
f 80/698/477 81/699/477 158/700/478 159/701/478
f 76/702/479 116/703/479 115/704/480 77/705/480
f 119/706/481 118/707/482 97/708/483 96/709/484
f 130/710/485 127/711/486 126/712/487 131/713/488
f 24/714/489 82/715/490 162/716/490 161/717/491
f 157/718/492 156/719/492 121/720/493 120/721/493
f 86/722/494 85/723/495 159/724/496 158/725/497
f 78/726/498 51/727/499 50/728/500 75/729/501
f 17/730/502 129/731/502 65/732/502
f 141/733/503 140/734/504 144/735/505
f 77/736/506 154/737/507 155/738/508 76/739/509
