# Blender v3.0.0 OBJ File: 'aa.blend'
# www.blender.org
mtllib Block_L_2.mtl
o Block_L_2
v 1.142857 0.000001 1.044750
v 1.103716 -0.000001 -1.109303
v 3.441059 -0.000001 -1.109291
v -1.078430 -0.000001 -1.102410
v -0.693096 0.000001 1.056392
v 1.687733 1.666386 0.504294
v 1.525319 1.688421 -0.603204
v 3.441920 0.000000 0.339790
v 3.433262 -0.000000 -0.649556
v -0.713016 1.693987 0.106574
v -1.254692 1.693932 -0.403142
v -3.122917 -0.000000 -0.618523
v -3.133327 0.000000 0.756267
v -1.827640 -0.000001 -1.125164
v -2.300747 -0.000001 -1.095005
v -2.609035 0.000001 1.052826
v -1.435299 0.000001 1.080639
v -1.558231 1.676473 0.741839
v -2.476112 1.669124 0.378684
v -1.857143 1.688981 -0.728467
v -2.399841 1.693248 -0.401643
v 0.656252 0.000001 1.070789
v -0.214510 0.000001 1.068393
v -0.043663 -0.000001 -1.109303
v 0.767670 -0.000001 -1.109303
v 0.254755 1.685898 0.467566
v -0.222925 1.680494 0.310847
v 0.512141 1.635729 0.058394
v -0.026046 1.711174 -0.729543
v 2.710026 -0.000001 -1.109303
v 2.146645 -0.000001 -1.109303
v 2.331614 0.000001 1.084285
v 2.988745 0.000001 1.068908
v 1.977122 1.688556 -0.383851
v 2.687229 1.690581 -0.387063
v 1.977007 1.669839 0.339091
v 2.737391 1.666744 0.337783
v 1.219124 0.497489 1.053584
v 1.246933 1.121192 1.064055
v 1.243573 1.148459 -1.099263
v 1.240561 0.614751 -1.106770
v -0.773998 0.626079 1.024985
v -0.939113 1.303213 1.070712
v -1.094528 1.341968 -1.096399
v -0.936832 0.614654 -1.092213
v -3.156112 0.918662 0.544425
v -3.098915 0.351383 0.558074
v -3.122642 1.252885 -0.500146
v -3.128235 0.699481 -0.059380
v 3.424620 1.331939 -0.569944
v 3.418003 0.461619 -0.604626
v 3.418743 0.915702 0.175483
v 3.424080 0.507743 0.027934
v -1.634334 1.153907 1.073008
v -1.662098 0.614217 1.050956
v -2.564041 1.372181 1.068454
v -2.530784 0.313938 1.040622
v -2.040298 0.543516 -1.112019
v -1.566898 0.945454 -1.109723
v -2.532963 0.453228 -1.080205
v -2.387085 1.323086 -1.105161
v 0.723181 0.934510 1.028129
v 0.349413 0.435313 1.047790
v -0.069662 1.363943 1.082225
v -0.212623 0.288663 1.057060
v 0.514122 0.317311 -1.117184
v 0.363079 1.402553 -1.102048
v -0.216682 0.379948 -1.090134
v -0.460407 1.085403 -1.075169
v 2.656815 1.171235 1.035067
v 2.410118 0.484134 1.055557
v 1.969929 1.413730 1.066188
v 1.793085 0.787269 1.081672
v 1.905932 1.269904 -1.069760
v 1.811888 0.485495 -1.084412
v 2.915962 1.288650 -1.071496
v 2.804350 0.309333 -1.090332
v -3.128200 1.408385 -0.338708
v -1.440643 1.582107 1.066779
v -2.997501 1.198547 1.063403
v -3.138748 1.057965 0.857882
v -2.946430 0.528179 1.049976
v -3.104927 0.527477 0.892021
v -3.136398 -0.000001 -1.116448
v -3.117660 0.531613 -0.954415
v -2.963367 0.490453 -1.088818
v 2.182057 1.664593 -1.005479
v 2.148113 1.632874 -1.110177
v 0.019881 1.699909 -0.927701
v -0.150856 1.438329 -1.092378
v -1.968204 1.532547 -1.106343
v -2.018020 1.679684 -1.015061
v 3.431906 1.616886 0.504416
v 0.456480 1.682979 0.925452
v 0.556725 1.535658 1.047362
v 1.973494 1.543732 1.060923
v 1.977164 1.681545 0.926745
v 3.347132 0.582468 -1.101975
v 3.416950 0.591751 -1.030526
v 3.353258 1.237668 -1.091203
v 3.420103 1.241746 -1.030267
v 3.429631 0.414530 0.929080
v 3.296585 0.410670 1.059234
v 1.438919 1.672036 1.055369
v 3.450238 0.000001 0.996845
v 3.351609 0.000001 1.103267
v -1.344482 1.651989 -1.098596
v -1.231361 1.659307 -1.082143
v -3.127140 0.000001 1.095352
v -3.189594 0.000001 1.032676
v 3.437504 1.605449 -0.662259
v 3.391768 1.689533 -0.674718
v -2.593185 1.684368 -1.078401
v -2.534672 1.566344 -1.092790
v -2.626804 1.621780 1.063971
v -2.633518 1.674340 1.018126
v 0.481968 1.569997 -1.108060
v 0.552302 1.675634 -0.983110
v -0.024049 1.676957 0.967753
v -0.020034 1.557042 1.069358
v 2.567703 1.684217 -0.957662
v 2.570839 1.622851 -1.092889
v 2.527075 1.676793 1.022963
v 2.476708 1.671749 1.063033
v -2.992775 1.681535 -1.068868
v -3.127758 1.541733 -1.066442
v -3.090370 1.530850 1.060336
v -2.952522 1.680182 1.024031
v -1.015201 1.595257 1.067378
v -1.079578 1.672173 1.036357
v -1.462745 1.695790 1.010878
v -1.477478 1.636246 1.064044
v -3.083584 1.194689 1.059882
v -3.125129 1.160469 1.020743
v -3.107704 1.102309 1.016890
v -3.092090 0.736389 1.059989
v -3.105926 0.691843 0.989364
v -3.119415 0.450739 1.020103
v -3.081131 1.265310 -1.103112
v -3.123543 1.314148 -1.066316
v -3.114589 0.621840 -1.062024
v 1.141863 1.688161 -1.066484
v 1.148934 1.621471 -1.096830
v 2.259651 1.671286 -1.064923
v -0.063202 1.642516 -1.093343
v -0.032163 1.694149 -1.069444
v 0.136132 1.681980 -1.065667
v -2.121296 1.635944 -1.091729
v -1.986045 1.680755 -1.068875
v 2.982086 1.645429 -1.098306
v 2.855595 1.684965 -1.068307
v 3.389641 1.553828 -1.113820
v 3.425492 1.582433 0.893317
v 3.381758 1.673052 0.870188
v 3.245411 1.663860 1.053900
v 3.374733 1.316572 1.041022
v 3.435627 1.289644 0.980418
v 3.427319 1.637514 0.377871
v 3.405140 1.682798 0.551192
v 0.638893 1.642217 1.058337
v 0.608487 1.682007 1.024073
v 0.417277 1.642906 1.061366
v 3.386824 0.496386 1.059444
v 3.390824 0.312229 1.061485
v -3.127170 1.629388 -0.981340
v -3.091667 1.682972 -0.975931
v -3.087452 1.672145 0.329688
v -3.130451 1.629158 0.340300
v -3.139328 1.639066 -0.248914
v -3.081821 1.694822 -0.281579
v -3.140964 1.576123 -0.366678
vt 0.321567 0.765522
vt 0.403964 0.703944
vt 0.403964 0.772840
vt 0.991868 0.348362
vt 0.974055 0.292617
vt 0.991868 0.279286
vt 0.989683 0.414505
vt 0.974055 0.368401
vt 0.989683 0.353174
vt 0.553020 0.563975
vt 0.553020 0.682174
vt 0.497474 0.665458
vt 0.997594 0.921798
vt 0.989477 0.898146
vt 0.997594 0.864154
vt 0.225579 0.494051
vt 0.225579 0.596097
vt 0.201128 0.569153
vt 0.303279 0.781489
vt 0.316755 0.777651
vt 0.316755 0.862250
vt 0.120030 0.559556
vt 0.120030 0.649164
vt 0.041392 0.634467
vt 0.412375 0.265453
vt 0.449084 0.264548
vt 0.449084 0.273967
vt 0.804163 0.435299
vt 0.795060 0.423035
vt 0.804163 0.404034
vt 0.575813 0.002406
vt 0.575813 0.110215
vt 0.504549 0.100503
vt 0.930460 0.391221
vt 0.930460 0.413768
vt 0.853197 0.409894
vt 0.120030 0.554745
vt 0.074350 0.425206
vt 0.120030 0.398178
vt 0.969244 0.279286
vt 0.969244 0.364308
vt 0.935965 0.320634
vt 0.372589 0.969713
vt 0.412088 0.929629
vt 0.412088 0.970848
vt 0.602264 0.123573
vt 0.616224 0.118549
vt 0.616224 0.138226
vt 0.568720 0.983451
vt 0.566074 0.948603
vt 0.576857 0.945306
vt 0.576857 0.987952
vt 0.412340 0.924818
vt 0.372589 0.867090
vt 0.412340 0.844657
vt 0.575440 0.653987
vt 0.568049 0.579609
vt 0.637768 0.601818
vt 0.637768 0.679561
vt 0.731755 0.114884
vt 0.731755 0.136071
vt 0.727119 0.130722
vt 0.995053 0.989667
vt 0.989761 0.933354
vt 0.995053 0.928695
vt 0.580624 0.121821
vt 0.597452 0.118549
vt 0.597452 0.138338
vt 0.560412 0.960676
vt 0.552180 0.906654
vt 0.560412 0.888658
vt 0.889083 0.555561
vt 0.889083 0.664702
vt 0.849538 0.637745
vt 0.969955 0.555561
vt 0.969955 0.634967
vt 0.943728 0.611220
vt 0.738997 0.554565
vt 0.685905 0.477223
vt 0.738997 0.440663
vt 0.910998 0.927722
vt 0.864868 0.900317
vt 0.910998 0.845313
vt 0.840662 0.936249
vt 0.840662 0.982177
vt 0.827270 0.969041
vt 0.544877 0.379226
vt 0.544877 0.434134
vt 0.483474 0.391138
vt 0.762190 0.387340
vt 0.711746 0.382448
vt 0.706713 0.313360
vt 0.762190 0.279286
vt 0.643164 0.002406
vt 0.643164 0.113737
vt 0.580624 0.013084
vt 0.964412 0.002406
vt 0.964412 0.084470
vt 0.929164 0.044595
vt 0.702860 0.139733
vt 0.697208 0.135885
vt 0.702860 0.120055
vt 0.217178 0.680622
vt 0.212300 0.674122
vt 0.217178 0.649746
vt 0.743808 0.569140
vt 0.782352 0.440663
vt 0.782352 0.590813
vt 0.855562 0.715664
vt 0.909027 0.670140
vt 0.909027 0.747619
vt 0.731037 0.565909
vt 0.731037 0.591730
vt 0.712606 0.581956
vt 0.649261 0.235336
vt 0.657130 0.215915
vt 0.707041 0.215261
vt 0.707041 0.272035
vt 0.619350 0.948861
vt 0.619350 0.981159
vt 0.612216 0.955054
vt 0.563237 0.559164
vt 0.497474 0.469023
vt 0.563237 0.440663
vt 0.143765 0.992578
vt 0.137452 0.980308
vt 0.143765 0.946359
vt 0.310328 0.996377
vt 0.302558 0.953420
vt 0.310328 0.940798
vt 0.974274 0.748119
vt 0.953315 0.687260
vt 0.974274 0.670140
vt 0.505226 0.980414
vt 0.497474 0.965050
vt 0.505226 0.948116
vt 0.662274 0.931414
vt 0.662274 0.992794
vt 0.642579 0.968531
vt 0.026294 0.765129
vt 0.002406 0.678080
vt 0.026294 0.663913
vt 0.975908 0.425684
vt 0.975908 0.502265
vt 0.956519 0.498698
vt 0.216821 0.763668
vt 0.209337 0.760732
vt 0.216821 0.695481
vt 0.626988 0.246428
vt 0.626988 0.269223
vt 0.570127 0.267760
vt 0.122809 0.925652
vt 0.174835 0.880817
vt 0.174835 0.941548
vt 0.906015 0.971099
vt 0.886353 0.968760
vt 0.906015 0.932533
vt 0.539476 0.987879
vt 0.534125 0.983624
vt 0.539476 0.948116
vt 0.931154 0.382884
vt 0.896184 0.345345
vt 0.931154 0.279286
vt 0.689969 0.926602
vt 0.642579 0.905617
vt 0.689969 0.845087
vt 0.968875 0.419314
vt 0.958425 0.417925
vt 0.968875 0.369119
vt 0.799725 0.969046
vt 0.778743 0.931919
vt 0.799725 0.905959
vt 0.332888 0.122889
vt 0.332888 0.138945
vt 0.313750 0.136663
vt 0.964334 0.932749
vt 0.984949 0.928695
vt 0.984949 0.989143
vt 0.686643 0.435138
vt 0.630879 0.430553
vt 0.686643 0.398754
vt 0.559599 0.260717
vt 0.559599 0.271674
vt 0.495163 0.261400
vt 0.626068 0.434134
vt 0.549688 0.422001
vt 0.626068 0.398754
vt 0.148576 0.980439
vt 0.155868 0.946359
vt 0.155868 0.982762
vt 0.166328 0.946359
vt 0.166328 0.987217
vt 0.160679 0.982643
vt 0.312457 0.669436
vt 0.314547 0.549739
vt 0.314547 0.681029
vt 0.830401 0.135314
vt 0.824460 0.103928
vt 0.830401 0.090329
vt 0.989625 0.766246
vt 0.989625 0.857012
vt 0.984004 0.853500
vt 0.835481 0.021315
vt 0.877023 0.002406
vt 0.877023 0.115419
vt 0.982959 0.138885
vt 0.969223 0.094625
vt 0.982959 0.080363
vt 0.997052 0.057808
vt 0.991394 0.006789
vt 0.997052 0.002406
vt 0.790248 0.435138
vt 0.747699 0.418240
vt 0.790248 0.404034
vt 0.935965 0.379027
vt 0.953613 0.369119
vt 0.953613 0.420268
vt 0.992957 0.274305
vt 0.977607 0.262649
vt 0.992957 0.203269
vt 0.209114 0.489240
vt 0.128066 0.376497
vt 0.209114 0.371041
vt 0.128066 0.557584
vt 0.196317 0.494051
vt 0.196317 0.602813
vt 0.912100 0.153744
vt 0.942296 0.144574
vt 0.942296 0.258230
vt 0.532773 0.122168
vt 0.532773 0.135761
vt 0.424395 0.128711
vt 0.335300 0.985214
vt 0.321567 0.951501
vt 0.335300 0.933620
vt 0.689231 0.574650
vt 0.685905 0.565839
vt 0.689231 0.559377
vt 0.031915 0.531214
vt 0.031915 0.659102
vt 0.002406 0.648818
vt 0.738716 0.272321
vt 0.711853 0.257240
vt 0.738716 0.215261
vt 0.697870 0.573421
vt 0.694043 0.565425
vt 0.697870 0.559377
vt 0.605965 0.987801
vt 0.598471 0.952945
vt 0.605965 0.945306
vt 0.537695 0.127051
vt 0.575813 0.115026
vt 0.575813 0.137464
vt 0.026230 0.769940
vt 0.026230 0.866360
vt 0.002406 0.820923
vt 0.418894 0.395673
vt 0.417800 0.304914
vt 0.478662 0.279286
vt 0.478662 0.435852
vt 0.913838 0.697831
vt 0.948504 0.670140
vt 0.948504 0.758749
vt 0.593660 0.945306
vt 0.593660 0.983872
vt 0.581668 0.962773
vt 0.742186 0.132027
vt 0.736566 0.118396
vt 0.742186 0.114884
vt 0.924353 0.093609
vt 0.881834 0.033515
vt 0.924353 0.002406
vt 0.959522 0.968432
vt 0.915809 0.939319
vt 0.959522 0.928695
vt 0.787164 0.485943
vt 0.833046 0.440663
vt 0.833046 0.550750
vt 0.036985 0.816214
vt 0.105768 0.815987
vt 0.105768 0.880007
vt 0.878289 0.491048
vt 0.915342 0.425684
vt 0.915342 0.529856
vt 0.566074 0.920465
vt 0.607404 0.861797
vt 0.607404 0.940495
vt 0.796614 0.163289
vt 0.848132 0.144574
vt 0.848132 0.240939
vt 0.002406 0.885034
vt 0.030249 0.871172
vt 0.030249 0.947233
vt 0.856853 0.936249
vt 0.856853 0.982869
vt 0.845474 0.954166
vt 0.623814 0.574797
vt 0.568049 0.521009
vt 0.623814 0.440663
vt 0.809918 0.279286
vt 0.809918 0.399120
vt 0.767002 0.334865
vt 0.791984 0.650299
vt 0.791984 0.678072
vt 0.783397 0.674650
vt 0.622544 0.856985
vt 0.566074 0.817714
vt 0.579973 0.783747
vt 0.622544 0.771248
vt 0.636829 0.837415
vt 0.627355 0.791185
vt 0.636829 0.771248
vt 0.307646 0.549739
vt 0.307646 0.644934
vt 0.232439 0.632165
vt 0.308939 0.139697
vt 0.239748 0.127760
vt 0.308939 0.122889
vt 0.778585 0.596542
vt 0.778585 0.678072
vt 0.712606 0.628176
vt 0.074129 0.965602
vt 0.036985 0.960370
vt 0.074129 0.884819
vt 0.352057 0.990047
vt 0.340111 0.972692
vt 0.352057 0.933620
vt 0.216916 0.775919
vt 0.216916 0.886247
vt 0.179647 0.812923
vt 0.635044 0.944049
vt 0.612216 0.901985
vt 0.635044 0.861797
vt 0.121620 0.136598
vt 0.121620 0.256433
vt 0.100070 0.148229
vt 0.701902 0.389614
vt 0.644839 0.332432
vt 0.701902 0.279286
vt 0.518017 0.948116
vt 0.518017 0.979381
vt 0.510038 0.962863
vt 0.233723 0.442759
vt 0.229091 0.375938
vt 0.233723 0.371041
vt 0.454743 0.958651
vt 0.417800 0.940329
vt 0.454743 0.896364
vt 0.747164 0.169405
vt 0.791803 0.144574
vt 0.791803 0.260245
vt 0.719082 0.935354
vt 0.694780 0.890517
vt 0.719082 0.845087
vt 0.367762 0.985141
vt 0.356869 0.972394
vt 0.367762 0.933620
vt 0.321567 0.899259
vt 0.367778 0.844657
vt 0.367778 0.928808
vt 0.642579 0.799213
vt 0.709566 0.765979
vt 0.709566 0.840275
vt 0.955107 0.923884
vt 0.915809 0.851381
vt 0.955107 0.845313
vt 0.211111 0.969984
vt 0.179647 0.908363
vt 0.211111 0.891059
vt 0.974766 0.559460
vt 0.989082 0.555561
vt 0.989082 0.637077
vt 0.773932 0.905959
vt 0.773932 0.951611
vt 0.723967 0.910760
vt 0.969223 0.066777
vt 0.978544 0.002406
vt 0.986582 0.002483
vt 0.986582 0.075552
vt 0.315902 0.869948
vt 0.315902 0.935986
vt 0.268086 0.899005
vt 0.803172 0.899275
vt 0.790226 0.893405
vt 0.803172 0.834774
vt 0.785414 0.834774
vt 0.785414 0.901147
vt 0.723967 0.881735
vt 0.069539 0.526402
vt 0.002406 0.501563
vt 0.035218 0.406690
vt 0.069539 0.398178
vt 0.629568 0.986035
vt 0.624161 0.964452
vt 0.629568 0.948861
vt 0.891372 0.279286
vt 0.891372 0.386410
vt 0.853197 0.335345
vt 0.411393 0.403774
vt 0.411393 0.534804
vt 0.405286 0.531224
vt 0.560150 0.652750
vt 0.560150 0.735213
vt 0.557831 0.722919
vt 0.282523 0.946399
vt 0.297747 0.940798
vt 0.297747 0.974482
vt 0.805402 0.766246
vt 0.805402 0.829962
vt 0.723967 0.798130
vt 0.873477 0.425684
vt 0.873477 0.550750
vt 0.837858 0.485000
vt 0.132641 0.984605
vt 0.122809 0.962177
vt 0.132641 0.946359
vt 0.529314 0.983775
vt 0.522828 0.972115
vt 0.529314 0.948116
vt 0.979193 0.859342
vt 0.963993 0.768319
vt 0.979193 0.766246
vt 0.227628 0.604157
vt 0.227628 0.644934
vt 0.213631 0.605315
vt 0.399735 0.551084
vt 0.411405 0.541916
vt 0.411405 0.614559
vt 0.396693 0.777651
vt 0.396693 0.839846
vt 0.321567 0.831244
vt 0.989971 0.502541
vt 0.989971 0.549027
vt 0.980719 0.542254
vt 0.497474 0.905585
vt 0.547368 0.888658
vt 0.547368 0.943304
vt 0.707671 0.119481
vt 0.722307 0.114884
vt 0.722307 0.136957
vt 0.490351 0.144574
vt 0.490351 0.259737
vt 0.412375 0.230977
vt 0.415138 0.151630
vt 0.412501 0.777651
vt 0.412501 0.829306
vt 0.401504 0.787060
vt 0.221990 0.900452
vt 0.263275 0.869948
vt 0.263275 0.947607
vt 0.230344 0.946181
vt 0.221990 0.775406
vt 0.224757 0.740665
vt 0.295512 0.727754
vt 0.295512 0.799473
vt 0.579904 0.690804
vt 0.637768 0.684373
vt 0.637768 0.766437
vt 0.566074 0.757527
vt 0.844727 0.563974
vt 0.844727 0.643973
vt 0.804723 0.637668
vt 0.787164 0.555561
vt 0.559893 0.391735
vt 0.549688 0.388515
vt 0.559893 0.379226
vt 0.974795 0.507077
vt 0.974795 0.549713
vt 0.965735 0.547876
vt 0.956519 0.508668
vt 0.993365 0.745992
vt 0.986361 0.746749
vt 0.979085 0.679745
vt 0.993365 0.670140
vt 0.830669 0.002406
vt 0.830669 0.085517
vt 0.768736 0.047553
vt 0.768038 0.013877
vt 0.400475 0.510898
vt 0.324503 0.494397
vt 0.321567 0.425564
vt 0.400475 0.403774
vt 0.096314 0.273690
vt 0.096314 0.393367
vt 0.018158 0.375550
vt 0.002406 0.295556
vt 0.104826 0.733621
vt 0.104826 0.811175
vt 0.042439 0.798445
vt 0.036985 0.756302
vt 0.707794 0.651855
vt 0.642579 0.678072
vt 0.654607 0.609175
vt 0.707794 0.579609
vt 0.425778 0.644229
vt 0.417800 0.574169
vt 0.491513 0.555410
vt 0.491513 0.651775
vt 0.484843 0.747695
vt 0.484843 0.825362
vt 0.421238 0.797695
vt 0.417800 0.754338
vt 0.128570 0.159093
vt 0.237939 0.144574
vt 0.237939 0.252241
vt 0.128066 0.245388
vt 0.565316 0.144574
vt 0.565316 0.255905
vt 0.505594 0.223095
vt 0.495163 0.155741
vt 0.859987 0.866187
vt 0.859987 0.931437
vt 0.812004 0.923488
vt 0.810213 0.872839
vt 0.123254 0.131787
vt 0.002406 0.099583
vt 0.016187 0.015029
vt 0.123254 0.002406
vt 0.434827 0.024847
vt 0.499737 0.002406
vt 0.499737 0.100208
vt 0.424395 0.117357
vt 0.129644 0.707573
vt 0.204525 0.695481
vt 0.204525 0.771108
vt 0.128066 0.763130
vt 0.981749 0.426167
vt 0.991625 0.425684
vt 0.991625 0.496673
vt 0.980719 0.497729
vt 0.229947 0.809327
vt 0.297916 0.804284
vt 0.297916 0.865137
vt 0.221990 0.821740
vt 0.244638 0.088259
vt 0.239748 0.029394
vt 0.340494 0.002406
vt 0.340494 0.118077
vt 0.454701 0.891553
vt 0.417800 0.830174
vt 0.486252 0.839094
vt 0.486252 0.891378
vt 0.907288 0.144574
vt 0.907288 0.224062
vt 0.852944 0.159763
vt 0.120030 0.861509
vt 0.112401 0.860912
vt 0.111342 0.735385
vt 0.120030 0.733621
vt 0.174835 0.775919
vt 0.174835 0.876005
vt 0.153649 0.868616
vt 0.128066 0.800172
vt 0.121620 0.261244
vt 0.121620 0.376766
vt 0.112357 0.370008
vt 0.104451 0.261530
vt 0.242750 0.257232
vt 0.259623 0.144574
vt 0.316755 0.183400
vt 0.316755 0.299090
vt 0.640028 0.287104
vt 0.640028 0.384147
vt 0.572507 0.360380
vt 0.571442 0.279286
vt 0.394924 0.614559
vt 0.321567 0.586062
vt 0.348899 0.526971
vt 0.394924 0.515710
vt 0.972796 0.203269
vt 0.972796 0.271719
vt 0.947108 0.247420
vt 0.938916 0.559934
vt 0.938916 0.639562
vt 0.893895 0.602719
vt 0.925391 0.555561
vt 0.644450 0.241617
vt 0.570127 0.224434
vt 0.585499 0.148312
vt 0.644450 0.144574
vt 0.674260 0.120461
vt 0.674260 0.134054
vt 0.657036 0.123252
vt 0.951163 0.148711
vt 0.982449 0.144574
vt 0.982449 0.195806
vt 0.947108 0.198458
vt 0.095259 0.268878
vt 0.029996 0.261490
vt 0.002406 0.202589
vt 0.095259 0.136598
vt 0.813013 0.849028
vt 0.810213 0.778094
vt 0.860056 0.766246
vt 0.860056 0.861375
vt 0.436681 0.547585
vt 0.417800 0.440663
vt 0.492662 0.468190
vt 0.492662 0.550599
vt 0.792315 0.746599
vt 0.723967 0.761435
vt 0.728259 0.690452
vt 0.792315 0.682883
vt 0.962152 0.131800
vt 0.934657 0.135982
vt 0.952387 0.099572
vt 0.962152 0.098421
vt 0.063748 0.531214
vt 0.063748 0.550927
vt 0.057709 0.543857
vt 0.566631 0.279286
vt 0.566631 0.374414
vt 0.483474 0.332230
vt 0.497798 0.287064
vt 0.902234 0.273093
vt 0.852944 0.244347
vt 0.861015 0.230089
vt 0.902234 0.228873
vt 0.406004 0.689619
vt 0.412106 0.619370
vt 0.412106 0.694987
vt 0.321567 0.358229
vt 0.329927 0.300537
vt 0.412989 0.279286
vt 0.412989 0.398962
vt 0.256325 0.314660
vt 0.316755 0.303901
vt 0.316755 0.413079
vt 0.241300 0.443165
vt 0.321567 0.215682
vt 0.353226 0.152929
vt 0.407563 0.144574
vt 0.407563 0.274474
vt 0.634194 0.138880
vt 0.621036 0.131919
vt 0.634194 0.118549
vt 0.715096 0.109909
vt 0.707671 0.038726
vt 0.763226 0.002406
vt 0.763226 0.110072
vt 0.996398 0.081739
vt 0.996398 0.148546
vt 0.987770 0.144698
vt 0.989799 0.080363
vt 0.174568 0.258187
vt 0.232564 0.257052
vt 0.232564 0.366230
vt 0.128066 0.316979
vt 0.801200 0.695452
vt 0.850750 0.670140
vt 0.850750 0.761435
vt 0.797127 0.742466
vt 0.814729 0.306834
vt 0.848385 0.279286
vt 0.848385 0.419224
vt 0.826014 0.409816
vt 0.702860 0.006103
vt 0.702860 0.115244
vt 0.647976 0.074781
vt 0.690909 0.002406
vt 0.551789 0.686985
vt 0.551789 0.783936
vt 0.497474 0.719076
vt 0.742888 0.397454
vt 0.742888 0.435138
vt 0.692187 0.429622
vt 0.691454 0.401519
vt 0.665402 0.210449
vt 0.649261 0.144574
vt 0.742353 0.148777
vt 0.742353 0.199925
vt 0.918665 0.776744
vt 0.918665 0.840501
vt 0.870462 0.821605
vt 0.864868 0.766246
vt 0.036727 0.533845
vt 0.052897 0.531214
vt 0.052897 0.552168
vt 0.643158 0.741359
vt 0.642579 0.683718
vt 0.719156 0.682883
vt 0.719156 0.761168
vt 0.930377 0.430277
vt 0.951708 0.425684
vt 0.951708 0.534450
vt 0.920153 0.524921
vt 0.939304 0.817333
vt 0.923477 0.777743
vt 0.959182 0.766246
vt 0.959182 0.823671
vt 0.419584 0.134552
vt 0.345306 0.136204
vt 0.382426 0.002406
vt 0.419584 0.003520
vt 0.080426 0.890341
vt 0.115656 0.884819
vt 0.115656 0.947013
vt 0.078940 0.957722
vt 0.652224 0.120461
vt 0.652224 0.138880
vt 0.639005 0.122274
vt 0.417800 0.678423
vt 0.488102 0.656587
vt 0.488102 0.742883
vt 0.424417 0.736341
vt 0.234937 0.139762
vt 0.133003 0.134987
vt 0.128066 0.080358
vt 0.234937 0.002406
vt 0.459554 0.928732
vt 0.476837 0.898678
vt 0.491541 0.896364
vt 0.491541 0.952427
vt 0.653745 0.559684
vt 0.628626 0.458456
vt 0.681093 0.440663
vt 0.681093 0.566195
vt 0.562184 0.647938
vt 0.557831 0.569522
vt 0.562184 0.563975
vt 0.497474 0.850329
vt 0.513527 0.788948
vt 0.545077 0.788747
vt 0.545077 0.883847
vt 0.401192 0.699132
vt 0.321567 0.698613
vt 0.326517 0.627674
vt 0.401192 0.619370
vt 0.984665 0.864154
vt 0.984665 0.920715
vt 0.963993 0.916960
vt 0.059971 0.728809
vt 0.036985 0.653975
vt 0.120030 0.654105
vt 0.120030 0.718297
vt 0.307646 0.721460
vt 0.221990 0.722943
vt 0.241006 0.649746
vt 0.307646 0.654478
vt 0.684184 0.984101
vt 0.667085 0.985671
vt 0.669143 0.937035
vt 0.684184 0.931414
vt 0.929846 0.098421
vt 0.929846 0.138157
vt 0.884221 0.136561
vt 0.881834 0.101799
vt 0.316755 0.544927
vt 0.234142 0.516937
vt 0.232439 0.499571
vt 0.316755 0.447977
vt 0.768038 0.134829
vt 0.819649 0.090329
vt 0.819649 0.136949
vt 0.213926 0.373021
vt 0.224280 0.371041
vt 0.224280 0.486204
vt 0.710366 0.940166
vt 0.710366 0.974835
vt 0.694780 0.971974
vt 0.315820 0.727754
vt 0.315820 0.763407
vt 0.300323 0.758612
vt 0.810213 0.943963
vt 0.822459 0.936249
vt 0.822459 0.988076
vt 0.549889 0.791637
vt 0.559288 0.788747
vt 0.559288 0.878355
vt 0.641931 0.274239
vt 0.631800 0.269290
vt 0.641931 0.246428
vt 0.881541 0.932533
vt 0.881541 0.978875
vt 0.864868 0.968859
vt 0.684414 0.138880
vt 0.679072 0.134287
vt 0.684414 0.120461
vt 0.277711 0.940798
vt 0.277711 0.990636
vt 0.268086 0.989776
vt 0.488625 0.264548
vt 0.488625 0.274437
vt 0.453896 0.271611
vt 0.128066 0.685316
vt 0.128299 0.607762
vt 0.207280 0.607624
vt 0.207280 0.690669
vn 0.0074 0.0106 -0.9999
vn 0.0077 0.0148 -0.9999
vn 0.0119 0.0161 -0.9998
vn 0.0406 0.9981 -0.0473
vn 0.0476 0.9978 -0.0471
vn 0.0332 0.9982 -0.0505
vn 0.0055 0.0651 0.9979
vn -0.0017 0.0772 0.9970
vn 0.0234 0.0810 0.9964
vn 0.0141 0.9994 0.0321
vn 0.0237 0.9992 0.0315
vn -0.0002 0.9998 0.0224
vn -0.0491 0.9988 0.0065
vn -0.0291 0.9992 0.0284
vn -0.0345 0.9977 0.0577
vn 0.0056 0.9997 0.0248
vn 0.0029 0.9997 0.0259
vn 0.0014 0.9995 0.0300
vn 0.9993 -0.0016 -0.0365
vn -0.0094 0.0243 0.9997
vn -0.0128 0.0223 0.9997
vn -0.0158 0.0184 0.9997
vn -0.0408 -0.0022 0.9992
vn 0.0766 -0.8467 0.5265
vn -0.0044 0.9999 -0.0092
vn -0.7118 0.6896 0.1338
vn 0.0164 0.9936 -0.1115
vn 0.0206 0.9938 -0.1092
vn 0.0191 0.9932 -0.1151
vn 0.0211 0.9945 -0.1030
vn 0.0238 0.9940 -0.1069
vn 0.0198 0.9939 -0.1089
vn -0.0103 0.1209 -0.9926
vn 0.3164 0.5751 -0.7544
vn 0.8898 0.4496 0.0790
vn 0.9365 0.3475 0.0462
vn -0.0340 0.0349 -0.9988
vn -0.0339 0.0353 -0.9988
vn 0.0382 -0.0031 -0.9993
vn 0.0341 0.0016 -0.9994
vn 0.0272 0.0030 -0.9996
vn 0.0382 0.0078 -0.9992
vn 0.8704 -0.3867 -0.3047
vn 0.8739 -0.3815 -0.3012
vn 0.8720 -0.3832 -0.3046
vn -0.0109 0.9937 0.1114
vn -0.5103 0.3103 0.8021
vn -0.5145 0.3044 0.8017
vn -0.5161 0.3096 0.7986
vn -0.0039 1.0000 0.0085
vn 0.0032 1.0000 0.0050
vn -0.0005 0.9999 0.0103
vn -0.0121 -0.1027 -0.9946
vn 0.0051 0.0636 -0.9980
vn -0.0019 0.0577 -0.9983
vn -0.0004 0.0617 -0.9981
vn 0.0000 0.0512 -0.9987
vn 0.0042 0.0519 -0.9986
vn -0.0056 0.0512 -0.9987
vn 0.0234 0.0554 0.9982
vn 0.9298 0.1043 0.3531
vn 0.9299 0.1039 0.3528
vn 0.9297 0.1044 0.3532
vn -0.0140 0.9998 0.0114
vn 0.0010 0.9998 0.0175
vn -0.0162 0.9999 0.0014
vn 0.9993 0.0348 -0.0121
vn 0.9993 0.0347 -0.0121
vn 0.9997 0.0220 -0.0101
vn 0.9994 0.0323 -0.0130
vn 0.0234 -0.0265 0.9994
vn 0.0534 -0.0259 0.9982
vn -0.8596 0.0255 -0.5103
vn -0.6636 -0.0127 -0.7480
vn -0.9956 0.0933 -0.0075
vn -0.9949 -0.1005 -0.0094
vn -0.6489 -0.3906 0.6529
vn -0.1345 -0.0806 0.9876
vn 0.0807 0.1633 0.9833
vn -0.6492 0.2485 -0.7188
vn -0.0658 -0.0146 0.9977
vn 0.0457 0.7032 -0.7095
vn -0.0097 0.9995 -0.0295
vn -0.0076 0.9997 -0.0236
vn -0.0125 0.9996 -0.0262
vn -0.9985 -0.0537 0.0141
vn -0.8381 0.0271 0.5448
vn 0.0676 0.9932 -0.0953
vn 0.0227 -0.0322 0.9992
vn 0.0553 0.9677 -0.2458
vn 0.7220 0.3485 -0.5978
vn -0.5957 0.2545 -0.7618
vn -0.5957 0.2546 -0.7618
vn -0.5958 0.2542 -0.7618
vn -0.9993 0.0270 0.0271
vn -0.5212 0.6717 -0.5265
vn -0.0453 0.9990 -0.0070
vn 0.0101 -0.0576 -0.9983
vn 0.1008 0.9940 -0.0418
vn 0.8780 0.4561 -0.1452
vn 0.9990 0.0406 0.0201
vn 0.5876 0.7143 0.3801
vn 0.1575 0.6867 0.7096
vn -0.0233 0.9995 -0.0199
vn 0.7017 0.1230 -0.7017
vn 0.7018 0.1229 -0.7017
vn 0.7017 0.1231 -0.7017
vn 0.0028 0.0584 -0.9983
vn 0.0000 0.0612 -0.9981
vn 0.0007 0.0617 -0.9981
vn 0.0260 0.6590 0.7517
vn -0.6792 -0.0147 0.7338
vn 0.0084 0.8908 -0.4543
vn -0.0398 0.5201 -0.8532
vn -0.0211 0.6431 0.7655
vn -0.0067 0.0474 -0.9989
vn 0.0350 0.9944 -0.0998
vn -0.0317 0.0289 0.9991
vn -0.0054 0.0475 -0.9989
vn -0.0421 0.0785 -0.9960
vn 0.0672 -0.0428 0.9968
vn -0.0110 0.9999 0.0115
vn -0.0005 0.9999 0.0132
vn -0.0142 0.9998 0.0155
vn 1.0000 0.0028 0.0006
vn 0.9999 -0.0143 0.0054
vn 0.9999 -0.0122 0.0011
vn 0.9966 -0.0808 0.0141
vn 0.9968 -0.0588 0.0535
vn 0.9990 -0.0433 0.0111
vn -0.0181 0.0166 0.9997
vn -0.0177 0.0206 0.9996
vn -0.0222 0.0140 0.9997
vn -0.0647 0.2917 0.9543
vn 0.0072 -0.7566 0.6539
vn -0.0187 0.9977 -0.0650
vn -0.9695 0.1454 -0.1974
vn 0.6025 0.4434 0.6636
vn -0.0557 0.9977 0.0397
vn -0.1084 0.0413 -0.9933
vn -0.0209 -0.0304 -0.9993
vn 0.0067 1.0000 -0.0023
vn 0.0122 0.9999 -0.0047
vn 0.0135 0.9999 -0.0021
vn 0.0077 1.0000 0.0029
vn 0.0000 -0.0248 -0.9997
vn 0.8730 -0.3799 -0.3060
vn 0.8738 -0.3765 -0.3078
vn 0.8726 -0.3804 -0.3065
vn -0.5013 0.3045 0.8099
vn -0.5061 0.3072 0.8059
vn -0.5008 0.3072 0.8092
vn 0.0420 0.0135 -0.9990
vn -0.0043 -0.0693 -0.9976
vn -0.0040 -0.0773 -0.9970
vn -0.0091 -0.0732 -0.9973
vn 0.0005 0.0583 -0.9983
vn 0.0053 0.0575 -0.9983
vn -0.0002 0.0525 -0.9986
vn 0.0381 -0.0044 -0.9993
vn 0.0660 0.0484 0.9966
vn 0.9988 0.0476 -0.0126
vn -0.0611 -0.0184 -0.9980
vn -0.0064 0.0464 -0.9989
vn -0.0068 0.0467 -0.9989
vn -0.1303 0.1087 -0.9855
vn -0.9991 -0.0314 0.0298
vn -0.9990 -0.0207 -0.0386
vn -0.7131 -0.5214 0.4686
vn 0.0000 0.0041 -1.0000
vn 0.0185 -0.0101 -0.9998
vn 0.0405 0.2442 -0.9689
vn -0.0084 -0.0694 0.9976
vn -0.0341 0.2411 -0.9699
vn 0.0110 0.0250 -0.9996
vn 0.0079 0.0222 -0.9997
vn 0.0116 0.0293 -0.9995
vn -0.9983 0.0461 0.0348
vn -0.9955 0.0906 0.0262
vn -0.0010 -0.0582 -0.9983
vn -0.0005 -0.0644 -0.9979
vn -0.0056 -0.0687 -0.9976
vn 0.0373 -0.1351 -0.9901
vn -0.9995 -0.0019 -0.0326
vn -0.9994 0.0321 -0.0138
vn -0.6330 0.7688 -0.0908
vn -0.0745 0.3086 0.9483
vn -0.9944 -0.0994 0.0345
vn 0.0091 -0.0260 0.9996
vn 0.0088 -0.0174 0.9998
vn 0.0169 -0.0338 0.9993
vn -0.0201 -0.0124 0.9997
vn -0.0067 -0.0017 1.0000
vn -0.0095 -0.0054 0.9999
vn -0.4499 0.0855 0.8890
vn 0.0159 0.9993 -0.0333
vn 0.0189 0.9986 -0.0503
vn 0.0278 0.9990 -0.0347
vn -0.0087 0.9996 -0.0275
vn -0.2636 0.9467 -0.1850
vn 0.1993 0.9360 -0.2902
vn -0.1367 0.3982 -0.9070
vn -0.0493 0.7763 -0.6285
vn -0.0225 0.9995 -0.0204
vn -0.0482 0.0424 0.9979
vn 0.0144 0.0752 0.9971
vn -0.0007 0.0405 0.9992
vn -0.0257 0.0084 -0.9996
vn -0.0253 0.0389 0.9989
vn -0.0237 0.0447 0.9987
vn 0.0190 0.9985 -0.0504
vn 0.0242 0.9987 -0.0441
vn 0.0270 0.9984 -0.0505
vn -0.0118 0.0196 -0.9997
vn -0.0026 0.4214 -0.9069
vn 0.0160 0.8682 -0.4959
vn -0.1603 0.8974 -0.4110
vn 0.0032 0.0147 0.9999
vn -0.0006 0.9999 -0.0141
vn -0.9970 -0.0703 0.0334
vn -0.9995 -0.0185 0.0260
vn -0.9995 0.0127 -0.0274
vn -0.9997 0.0072 -0.0225
vn -0.9997 0.0124 -0.0203
vn -0.0329 0.4359 0.8994
vn 0.2170 0.9268 -0.3064
vn -0.9994 -0.0306 -0.0141
vn -0.9998 -0.0164 0.0109
vn -0.9999 -0.0129 0.0002
vn -0.0126 0.3649 0.9310
vn -0.0065 1.0000 0.0045
vn -0.0115 0.9999 0.0114
vn -0.0098 0.9999 0.0119
vn -0.6113 -0.5978 -0.5187
vn 0.0213 0.9986 0.0486
vn 0.0406 0.9987 0.0300
vn -0.0277 0.1055 -0.9940
vn -0.0245 0.1090 -0.9937
vn -0.0201 0.1073 -0.9940
vn -0.0013 0.0117 0.9999
vn 0.0001 0.0144 0.9999
vn 0.0001 0.0143 0.9999
vn -0.0017 0.0110 0.9999
vn 0.0183 0.9998 -0.0037
vn 0.0182 0.9998 -0.0037
vn -0.0574 0.9966 -0.0594
vn -0.0100 0.0420 0.9991
vn -0.0100 0.0463 0.9989
vn -0.0104 0.0510 0.9986
vn -0.0007 -0.0373 0.9993
vn -0.0007 -0.0374 0.9993
vn 0.0113 -0.0517 0.9986
vn -0.2417 0.9476 -0.2087
vn -0.9796 -0.0163 0.2002
vn -0.9794 -0.0154 0.2016
vn -0.9801 -0.0179 0.1978
vn -0.9803 -0.0186 0.1967
vn -0.8346 0.5501 0.0289
vn -0.8965 0.4430 0.0052
vn -0.0020 1.0000 0.0013
vn -0.0022 1.0000 -0.0088
vn -0.0061 0.9999 -0.0097
vn -0.0321 0.9994 0.0097
vn 0.0402 0.0043 -0.9992
vn 0.0302 0.0041 -0.9995
vn 0.0327 0.0093 -0.9994
vn 0.0304 0.0080 -0.9995
vn -0.0361 0.0088 -0.9993
vn -0.0029 0.9999 -0.0105
vn -0.0084 0.9996 -0.0261
vn -0.0287 0.9978 -0.0601
vn -0.0442 0.9976 -0.0530
vn -0.0530 -0.0113 0.9985
vn -0.0506 -0.0110 0.9987
vn -0.0635 -0.0139 0.9979
vn 0.0024 -0.0638 -0.9980
vn -0.0377 -0.0223 -0.9990
vn 0.0078 0.0192 -0.9998
vn 0.0100 0.0126 -0.9999
vn 0.0204 0.0093 -0.9997
vn 0.0071 0.0068 -1.0000
vn -0.0023 0.0193 -0.9998
vn 0.0634 -0.0086 0.9979
vn 0.0636 -0.0084 0.9979
vn 0.0603 -0.0144 0.9981
vn 0.0598 -0.0153 0.9981
vn 0.9992 0.0394 0.0096
vn 0.9994 0.0314 0.0169
vn -0.0149 0.9995 0.0275
vn 0.0028 0.9997 0.0233
vn -0.0016 1.0000 0.0056
vn -0.0138 0.9998 0.0144
vn -1.0000 -0.0026 -0.0081
vn -0.9999 0.0022 -0.0122
vn -0.9999 0.0014 -0.0121
vn -0.9998 0.0040 -0.0189
vn -0.0033 0.9998 -0.0202
vn -0.0008 0.9999 -0.0170
vn -0.0048 0.9999 -0.0121
vn -0.0072 0.9998 -0.0190
vn 0.6738 -0.0030 -0.7389
vn 0.7149 0.0048 -0.6992
vn -0.0529 -0.0478 0.9975
vn -0.0519 -0.0463 0.9976
vn -0.0570 -0.0548 0.9969
vn -0.0586 -0.0575 0.9966
vn -0.0143 -0.0401 0.9991
vn 0.0032 -0.0268 0.9996
vn 0.0013 -0.0284 0.9996
vn -0.0273 0.0431 0.9987
vn -0.0292 0.0463 0.9985
vn -0.0280 0.0442 0.9986
vn -0.0251 0.0394 0.9989
vn -0.9951 0.0738 0.0655
vn -0.0078 0.6641 0.7476
vn -0.0083 0.6567 0.7541
vn -0.0081 0.6596 0.7515
vn -0.0076 0.6670 0.7450
vn -0.0060 -0.0316 -0.9995
vn 0.0162 0.0084 -0.9998
vn 0.0572 0.4142 0.9084
vn 0.0233 0.6467 0.7624
vn 0.0786 0.9960 0.0417
vn 0.0792 0.9960 0.0413
vn 0.0761 0.9962 0.0434
vn 0.0757 0.9962 0.0437
vn 0.0287 0.0590 0.9978
vn 0.0284 0.0587 0.9979
vn 0.0321 0.0547 0.9980
vn 0.0325 0.0544 0.9980
vn 0.9994 0.0334 -0.0027
vn 0.9996 0.0279 -0.0039
vn 0.9995 0.0300 0.0041
vn 0.9999 0.0096 -0.0042
vn 0.0377 0.0294 0.9989
vn 0.0059 0.0163 0.9999
vn 0.0293 -0.0453 0.9985
vn -0.0146 0.0408 0.9991
vn -0.0148 -0.0236 0.9996
vn 0.0169 -0.0633 0.9979
vn 0.0298 -0.0424 0.9987
vn 0.5684 -0.5998 0.5632
vn 0.9971 -0.0338 -0.0689
vn 0.9996 0.0135 -0.0231
vn 0.9914 0.0666 -0.1127
vn -0.0191 0.9997 0.0152
vn -0.0277 0.9989 0.0372
vn -0.0276 0.9989 0.0372
vn 1.0000 -0.0054 -0.0079
vn 0.9999 -0.0049 -0.0088
vn 0.9999 -0.0076 -0.0112
vn 1.0000 -0.0020 -0.0003
vn -0.0019 0.0277 0.9996
vn -0.0016 0.0303 0.9995
vn -0.0018 0.0284 0.9996
vn -0.0021 0.0251 0.9997
vn -0.0109 0.0198 0.9997
vn -0.0146 0.0288 0.9995
vn -0.0109 0.0197 0.9997
vn -0.0109 0.0196 0.9997
vn 0.7041 0.2374 0.6692
vn 0.7351 0.2166 0.6424
vn 0.9323 0.3608 0.0250
vn 1.0000 -0.0066 0.0047
vn 1.0000 -0.0058 -0.0003
vn 0.9999 0.0007 -0.0152
vn 1.0000 0.0034 -0.0088
vn -0.9959 0.0688 -0.0590
vn -0.9950 0.0715 -0.0697
vn -0.9955 0.0699 -0.0633
vn -0.9963 0.0674 -0.0535
vn -0.6639 -0.0132 -0.7477
vn 0.0078 0.0147 -0.9999
vn 0.0085 0.0141 -0.9999
vn -0.0030 0.9999 0.0096
vn -0.0044 0.9998 0.0217
vn -0.0040 0.9998 0.0184
vn -0.0047 0.9997 0.0260
vn -0.0382 -0.0150 0.9992
vn -0.0322 -0.0180 0.9993
vn -0.0416 -0.0123 0.9991
vn -0.0333 -0.0194 0.9993
vn 0.5709 0.5602 0.6002
vn -0.0431 0.0168 -0.9989
vn -0.0413 0.0179 -0.9990
vn -0.0330 0.0230 -0.9992
vn -0.0337 0.0225 -0.9992
vn -0.6899 0.7236 0.0205
vn -0.7040 0.7098 0.0225
vn -0.7041 0.7098 0.0225
vn 0.0034 0.9994 0.0336
vn 0.0060 0.9996 0.0260
vn -0.0041 1.0000 0.0066
vn -0.0044 0.9999 0.0156
vn 0.0255 0.0459 -0.9986
vn 0.0242 0.0477 -0.9986
vn 0.0047 -0.0059 -1.0000
vn 0.0041 -0.0040 -1.0000
vn 0.0044 -0.0048 -1.0000
vn 0.0049 -0.0068 -1.0000
vn -0.0130 0.9921 -0.1247
vn -0.1196 0.9603 -0.2521
vn 0.9998 -0.0114 -0.0157
vn -0.0138 0.0054 0.9999
vn -0.0162 0.0125 0.9998
vn -0.0228 0.0173 0.9996
vn -0.0060 0.0059 1.0000
vn -0.0039 0.0036 -1.0000
vn -0.0019 0.0079 -1.0000
vn -0.0022 0.0073 -1.0000
vn -0.0042 0.0029 -1.0000
vn -0.0640 -0.0006 -0.9980
vn -0.4298 0.7951 0.4278
vn -0.0249 0.9993 0.0261
vn -0.0294 0.9993 0.0220
vn 0.0184 0.9998 -0.0090
vn -0.0134 0.0566 0.9983
vn 0.0053 0.0382 0.9993
vn -0.0138 0.0078 0.9999
vn -0.9949 -0.0591 0.0821
vn -0.9949 -0.0599 0.0817
vn -0.9949 -0.0565 0.0834
vn -0.9949 -0.0557 0.0838
vn -0.0283 0.9983 -0.0503
vn -0.0278 0.9983 -0.0519
vn -0.0280 0.9983 -0.0511
vn -0.0285 0.9984 -0.0495
vn -0.9999 -0.0116 0.0003
vn -0.9998 -0.0194 -0.0087
vn -0.9989 -0.0281 -0.0362
vn -0.9986 -0.0457 -0.0264
vn -0.5932 0.5628 -0.5756
vn 0.0421 0.0137 -0.9990
vn -0.0107 0.9997 0.0215
vn -0.0356 0.9991 0.0251
vn 0.1021 0.1203 0.9875
vn -0.0939 0.0937 0.9912
vn -0.0938 0.0937 0.9912
vn 0.0102 0.0255 0.9996
vn -0.0004 0.0184 0.9998
vn -0.0003 0.0181 0.9998
vn 0.0045 0.0241 0.9997
vn 0.0118 0.9902 0.1395
vn 0.0016 0.0438 0.9990
vn 0.0062 0.0392 0.9992
vn -0.0002 0.0485 0.9988
vn -0.0028 0.0508 0.9987
vn 0.0487 0.0116 0.9987
vn 0.0489 0.0111 0.9987
vn 0.0485 0.0122 0.9988
vn -0.1782 0.6889 0.7026
vn 0.0114 0.9997 -0.0194
vn 0.0041 0.9999 -0.0134
vn 0.0121 0.9997 -0.0199
vn -0.0095 0.9995 0.0289
vn 0.0019 0.9990 0.0440
vn 0.0024 0.9993 0.0367
vn 0.0020 0.9993 0.0371
vn -0.1118 0.6402 0.7600
vn 0.0132 0.9581 0.2863
vn -0.0525 -0.0652 -0.9965
vn 0.9981 -0.0607 0.0073
vn 0.9550 0.2532 0.1546
vn -0.0298 0.0882 -0.9957
vn 0.8788 0.4771 -0.0061
vn 0.7335 -0.0012 0.6797
vn 0.1044 0.9066 -0.4090
vn -0.0211 0.1140 -0.9933
vn -0.0132 0.1163 -0.9931
vn -0.0165 0.1130 -0.9935
vn 0.7110 0.0263 0.7027
vn 0.6957 0.4736 0.5401
vn 0.1469 0.7131 -0.6855
vn -0.6027 0.4648 -0.6486
vn -0.7024 0.1297 0.6999
vn -0.7024 0.1294 0.6999
vn 0.6723 -0.1295 -0.7288
vn -0.0026 0.9997 0.0260
vn 0.0009 0.9996 0.0265
vn -0.0023 0.9997 0.0263
vn 0.0041 0.9995 0.0325
g Block_L_2_Block_L_2_Collor_Material
usemtl Collor_Material
s off
f 68/1/1 4/2/2 45/3/3
f 118/4/4 89/5/5 29/6/6
f 162/7/7 120/8/8 64/9/9
f 29/10/10 10/11/11 27/12/12
f 155/13/13 154/14/14 159/15/15
f 34/16/16 6/17/17 36/18/18
f 158/19/19 93/20/19 52/21/19
f 163/22/20 156/23/21 70/24/22
f 127/25/23 133/26/23 80/27/23
f 80/28/24 134/29/24 81/30/24
f 18/31/25 19/32/25 116/33/25
f 127/34/26 128/35/26 168/36/26
f 6/37/27 28/38/28 26/39/29
f 28/40/30 27/41/31 26/42/32
f 67/43/33 90/44/33 147/45/33
f 148/46/34 92/47/34 91/48/34
f 159/49/35 154/50/35 153/51/36 93/52/36
f 66/53/37 24/54/37 68/55/38
f 44/56/39 69/57/40 45/58/41 59/59/42
f 89/60/43 145/61/44 146/62/45
f 97/63/46 124/64/46 123/65/46
f 95/66/47 161/67/48 94/68/49
f 26/69/50 94/70/51 161/71/52
f 143/72/53 88/73/53 74/74/53
f 31/75/54 77/76/55 30/77/56
f 2/78/57 75/79/58 31/80/59
f 71/81/60 32/82/60 33/83/60
f 105/84/61 102/85/62 164/86/63
f 26/87/64 27/88/65 119/89/66
f 9/90/67 51/91/68 53/92/69 8/93/70
f 63/94/71 64/95/71 65/96/71
f 38/97/72 22/98/72 1/99/72
f 92/100/73 149/101/73 91/102/73
f 139/103/74 140/104/74 126/105/74
f 47/106/75 12/107/75 13/108/75
f 46/109/76 49/110/76 47/111/76
f 82/112/77 137/113/77 83/114/77
f 82/115/78 138/116/79 109/117/79 16/118/78
f 170/119/80 78/120/80 169/121/80
f 64/122/81 42/123/81 65/124/81
f 88/125/82 144/126/82 122/127/82
f 113/128/83 125/129/84 166/130/85
f 168/131/86 169/132/86 78/133/86
f 170/134/87 171/135/87 78/136/87
f 130/137/88 18/138/88 131/139/88
f 56/140/89 136/141/89 82/142/89
f 37/143/90 159/144/90 158/145/90
f 143/146/91 142/147/91 7/148/91
f 85/149/92 86/150/93 84/151/94
f 12/152/95 85/153/95 84/154/95
f 89/155/96 147/156/96 90/157/96
f 149/158/97 92/159/97 20/160/97
f 90/161/98 69/162/98 44/163/98
f 148/164/99 113/165/99 21/166/99
f 112/167/100 111/168/100 152/169/100
f 93/170/101 153/171/101 157/172/101
f 94/173/102 162/174/102 95/175/102
f 96/176/103 97/177/103 104/178/103
f 6/179/104 97/180/104 36/181/104
f 98/182/105 99/183/106 3/184/107
f 77/185/108 3/186/109 30/187/110
f 116/188/111 128/189/111 115/190/111
f 127/191/112 134/192/112 133/193/112
f 108/194/113 145/195/113 107/196/113
f 122/197/114 151/198/114 150/199/114
f 104/200/115 161/201/115 160/202/115
f 68/203/116 24/204/116 4/205/116
f 118/206/117 147/207/117 89/208/117
f 54/209/118 79/210/118 132/211/118
f 114/212/119 148/213/119 61/214/119
f 148/215/120 91/216/120 61/217/120
f 95/218/121 162/219/121 64/220/121
f 29/221/122 11/222/123 10/223/124
f 52/224/125 50/225/126 158/226/127
f 50/227/128 111/228/129 158/229/130
f 103/230/131 163/231/132 70/232/133
f 115/233/134 128/234/134 127/235/134
f 80/236/135 133/237/135 134/238/135
f 116/239/136 131/240/136 18/241/136
f 13/242/137 110/243/137 138/244/137
f 131/245/138 132/246/138 79/247/138
f 121/248/139 144/249/139 87/250/139
f 147/251/140 117/252/140 67/253/140
f 67/254/141 69/255/141 90/256/141
f 161/257/142 104/258/143 6/259/144 26/260/145
f 66/261/146 25/262/146 24/263/146
f 89/264/147 90/265/148 145/266/149
f 95/267/150 160/268/151 161/269/152
f 74/270/153 40/271/153 143/272/153
f 76/273/154 122/274/155 150/275/156
f 31/276/157 75/277/158 77/278/159
f 2/279/160 41/280/160 75/281/160
f 71/282/161 73/283/161 32/284/161
f 105/285/162 8/286/162 102/287/162
f 58/288/163 60/289/163 61/290/163
f 114/291/164 61/292/165 139/293/165
f 125/294/166 139/295/166 126/296/166
f 47/297/167 49/298/167 12/299/167
f 46/300/168 48/301/168 49/302/168
f 82/303/169 136/304/169 137/305/169
f 41/306/170 2/307/170 25/308/171 66/309/171
f 60/310/172 86/311/172 141/312/172
f 64/313/173 43/314/173 42/315/173
f 149/316/174 107/317/174 91/318/174
f 69/319/175 68/320/176 45/321/177
f 46/322/178 81/323/178 168/324/178
f 81/325/179 134/326/179 127/327/179
f 76/328/180 74/329/181 122/330/182
f 74/331/183 88/332/183 122/333/183
f 48/334/184 46/335/184 78/336/184
f 46/337/185 168/338/185 78/339/185
f 80/340/186 81/341/186 135/342/186
f 19/343/187 167/344/187 168/345/187
f 47/346/188 83/347/188 46/348/188
f 82/349/189 57/350/190 56/351/191
f 56/352/192 80/353/193 136/354/194
f 80/355/195 135/356/195 136/357/195
f 34/358/196 87/359/196 7/360/196
f 20/361/197 11/362/197 108/363/197
f 108/364/198 149/365/198 20/366/198
f 21/367/199 20/368/199 92/369/199
f 92/370/200 148/371/200 21/372/200
f 152/373/201 150/374/201 112/375/201
f 118/376/202 142/377/202 143/378/203 117/379/203
f 6/380/204 104/381/204 97/382/204
f 72/383/205 96/384/206 104/385/207
f 77/386/208 98/387/208 3/388/208
f 17/389/209 55/390/209 57/391/210 16/392/210
f 29/393/211 89/394/212 146/395/213
f 59/396/214 14/397/214 58/398/214
f 108/399/215 146/400/215 145/401/215
f 149/402/216 108/403/216 107/404/216
f 122/405/217 121/406/217 151/407/217
f 39/408/218 104/409/218 160/410/218
f 21/411/219 11/412/219 20/413/219
f 48/414/220 78/415/220 171/416/220
f 165/417/221 126/418/221 140/419/221
f 48/420/222 141/421/223 85/422/224
f 79/423/225 130/424/225 131/425/225
f 150/426/226 151/427/226 112/428/226
f 48/429/227 140/430/228 141/431/229
f 79/432/230 129/433/230 130/434/230
f 119/435/231 94/436/232 26/437/233
f 85/438/234 141/439/234 86/440/234
f 158/441/235 112/442/235 35/443/236 37/444/236
f 114/445/237 125/446/238 113/447/239
f 79/448/240 54/449/241 43/450/242 129/451/243
f 128/452/244 116/453/245 19/454/246 168/455/246
f 63/456/247 22/457/248 38/458/249 62/459/248
f 70/460/250 156/461/251 155/462/252 124/463/252
f 87/464/253 144/465/253 88/466/253
f 81/467/254 137/468/255 136/469/256 135/470/257
f 166/471/258 165/472/258 171/473/259 170/474/259
f 35/475/260 112/476/261 151/477/262 121/478/263
f 59/479/264 45/480/265 4/481/266 14/482/267
f 67/483/268 66/484/268 68/485/268 69/486/268
f 34/487/269 35/488/270 121/489/271 87/490/272
f 38/491/273 73/492/274 39/493/275 62/494/275
f 141/495/276 139/496/276 61/497/277 60/498/277
f 59/499/278 91/500/279 107/501/280 44/502/281
f 74/503/282 76/504/282 77/505/282 75/506/282
f 64/507/283 63/508/284 62/509/285 95/510/286
f 3/511/287 99/512/287 51/513/288 9/514/288
f 11/515/289 21/516/290 19/517/291 18/518/292
f 85/519/293 12/520/294 49/521/295 48/522/296
f 166/523/297 170/524/298 21/525/299 113/526/300
f 100/527/301 101/528/301 99/529/302 98/530/302
f 95/531/303 62/532/304 39/533/305 160/534/306
f 55/535/307 54/536/307 56/537/308 57/538/309
f 65/539/310 42/540/311 5/541/312 23/542/313
f 127/543/314 168/544/314 81/545/314
f 116/546/315 115/547/316 132/548/317 131/549/318
f 40/550/319 67/551/319 117/552/320 143/553/320
f 119/554/321 130/555/321 129/556/322 120/557/322
f 28/558/323 118/559/324 29/560/325 27/561/326
f 42/562/327 55/563/328 17/564/329 5/565/330
f 102/566/331 8/567/332 53/568/333 52/569/334
f 82/570/335 16/571/335 57/572/335
f 72/573/336 70/574/337 124/575/338 96/576/339
f 42/577/340 43/578/340 54/579/341 55/580/341
f 163/581/342 103/582/342 102/583/342
f 111/584/343 50/585/344 101/586/345 152/587/345
f 7/588/346 142/589/346 118/590/347 28/591/348
f 99/592/349 101/593/350 50/594/351 51/595/352
f 103/596/353 70/597/354 71/598/355 33/599/356
f 39/600/357 73/601/358 72/602/359 104/603/360
f 153/604/361 155/605/361 156/606/362 157/607/362
f 158/608/363 159/609/363 93/610/363
f 51/611/364 50/612/365 52/613/366 53/614/367
f 13/615/368 138/616/369 83/617/370 47/618/371
f 139/619/372 141/620/372 140/621/372
f 40/622/373 41/623/374 66/624/373 67/625/373
f 18/626/375 130/627/376 10/628/377 11/629/378
f 73/630/379 38/631/380 1/632/381 32/633/382
f 103/634/383 164/635/383 102/636/383
f 100/637/384 98/638/385 77/639/386 76/640/387
f 167/641/388 170/642/388 169/643/389 168/644/390
f 27/645/391 10/646/392 130/647/393 119/648/394
f 60/649/395 15/650/395 84/651/396 86/652/396
f 44/653/397 107/654/398 145/655/399 90/656/400
f 88/657/401 143/658/401 7/659/402 87/660/402
f 157/661/403 52/662/403 93/663/403
f 127/664/404 80/665/405 56/666/406 115/667/407
f 59/668/408 58/669/409 61/670/410 91/671/411
f 58/672/412 14/673/412 15/674/412 60/675/412
f 83/676/413 138/677/413 82/678/413
f 155/679/414 159/680/415 37/681/416 123/682/416
f 64/683/417 120/684/418 129/685/419 43/686/419
f 137/687/420 81/688/421 46/689/422 83/690/423
f 108/691/424 11/692/425 29/693/426 146/694/427
f 165/695/428 140/696/429 48/697/430 171/698/431
f 165/699/432 125/700/432 126/701/432
f 40/702/433 74/703/433 75/704/433 41/705/433
f 6/706/434 34/707/434 7/708/435 28/709/435
f 106/710/436 164/711/436 103/712/437 33/713/438
f 56/714/439 54/715/440 132/716/441 115/717/442
f 155/718/443 123/719/443 124/720/443
f 63/721/444 65/722/445 23/723/446 22/724/447
f 70/725/448 72/726/449 73/727/448 71/728/450
f 124/729/451 97/730/451 96/731/451
f 123/732/452 37/733/453 36/734/452 97/735/454
f 19/736/455 21/737/456 170/738/457 167/739/458
f 119/740/459 120/741/459 162/742/460 94/743/460
f 76/744/461 150/745/461 152/746/461 100/747/461
f 157/748/462 163/749/463 102/750/463 52/751/462
f 114/752/464 139/753/464 125/754/464
f 111/755/465 112/756/465 158/757/465
f 164/758/466 106/759/466 105/760/466
f 144/761/467 121/762/467 122/763/467
f 114/764/468 113/765/469 148/766/470
f 157/767/471 156/768/471 163/769/471
f 153/770/472 154/771/472 155/772/472
f 147/773/473 118/774/473 117/775/473
f 165/776/474 166/777/474 125/778/474
f 138/779/475 110/780/476 109/781/476
f 101/782/477 100/783/477 152/784/477
f 35/785/478 34/786/479 36/787/480 37/788/481
