# Blender v3.0.0 OBJ File: 'aa.blend'
# www.blender.org
mtllib Block_S_3.mtl
o Block_S_3
v -0.356500 -0.000001 -1.051427
v 0.376338 -0.000001 -1.054787
v -1.089431 0.000000 0.412570
v -1.090425 -0.000000 -0.320269
v 1.110169 -0.000000 -0.468123
v 1.106650 0.000000 0.378890
v -0.584859 0.000001 1.141999
v 0.087594 0.000001 1.145410
v -0.552035 1.661099 0.513693
v 0.428460 1.691319 0.029011
v -0.511693 1.698722 -0.605913
v 0.658591 1.668756 -0.324848
v -1.066054 1.317207 -0.129285
v -1.092135 0.411396 -0.471116
v -1.073951 0.911304 0.407961
v -1.090056 0.422783 0.412814
v 1.106153 1.468092 0.408440
v 1.103196 0.831891 0.411742
v 1.101274 0.853949 -0.480726
v 1.109515 0.611185 -0.622056
v 0.371987 0.888911 1.136767
v 0.376576 0.364979 1.150231
v -0.581012 1.143989 1.128128
v -0.380136 0.733828 1.135588
v -0.496758 1.144570 -1.026767
v -0.356772 0.484365 -1.051061
v 0.472241 1.333024 -1.034668
v 0.595990 0.550908 -1.057180
v 0.965079 1.121397 -1.034402
v 1.097457 1.013254 -0.906377
v -0.588864 1.607611 -1.051218
v -0.584092 1.682731 -0.979858
v -1.090482 0.583659 -0.973819
v -1.006843 0.596708 -1.053962
v -0.977536 1.144506 1.120486
v -1.068200 1.117009 1.037051
v 1.003716 0.982377 1.128867
v 1.095218 1.039016 1.052737
v -1.044839 0.000001 1.146638
v -1.089179 0.000001 1.102346
v -1.089467 -0.000001 -1.009358
v -1.045495 -0.000001 -1.053685
v 1.110112 0.000001 1.101524
v 1.065549 0.000001 1.145578
v 1.065400 -0.000001 -1.052642
v 1.109557 -0.000001 -1.008967
v -1.042121 1.683051 -0.341093
v -1.061786 1.652793 -0.316755
v -1.087543 1.603028 0.410870
v -1.040330 1.673527 0.420174
v 1.084809 1.663392 0.389769
v 1.101464 1.633495 0.478090
v 1.106681 1.561992 -0.726728
v 1.051764 1.673152 -0.677389
v 0.646270 1.648495 -1.032034
v 0.757983 1.631920 1.131161
v -0.052588 1.666325 1.110134
v -0.035302 1.597170 1.136305
v -1.046885 0.618703 1.142997
v -1.088555 0.599934 1.102759
v -1.045867 1.299558 -1.020651
v 1.065913 0.421280 -1.054175
v 1.109763 0.429755 -1.010034
v 0.963838 1.632689 -1.045759
v 0.966128 1.678751 -1.006273
v 1.066573 1.680073 -0.908352
v 1.090978 1.627893 -0.908800
v 1.100095 1.540861 -0.998434
v 1.053351 1.539924 -1.044948
v 1.054318 1.180032 -1.041586
v 1.097819 1.145750 -0.997959
v 1.100152 0.949299 -1.000432
v 1.055900 0.986124 -1.043374
v -0.620841 1.633681 -1.047662
v -0.616521 1.677765 -1.005170
v -0.376700 1.677522 -1.004758
v -0.474242 1.632398 -1.039522
v -0.971688 1.677628 -1.005012
v -0.980613 1.633861 -1.047069
v -1.032655 1.513956 -1.035339
v -1.072570 1.307504 -0.990638
v -1.076783 1.588200 -0.564234
v -1.043317 1.671153 -0.727182
v -1.040862 1.680026 0.773449
v -1.081151 1.634940 0.871954
v -1.080735 1.561140 1.092976
v -1.036155 1.558418 1.136050
v -0.750245 1.631809 1.138672
v -0.639911 1.675228 1.097721
v -1.088788 0.635422 -1.009702
v -1.045587 0.644006 -1.053315
v -1.046670 0.563045 -1.054240
v -1.090377 0.557505 -1.010392
v -1.021773 1.187329 1.121617
v -1.066159 1.169668 1.077170
v -1.067216 1.089204 1.079062
v -1.022016 1.100749 1.125374
v 1.041209 1.024056 1.122218
v 1.042081 0.950929 1.122624
v 1.085767 0.997902 1.075890
v 1.109239 0.500941 1.100709
v 1.065410 0.479045 1.145182
v 1.066329 0.425342 1.146342
v 1.110284 0.458054 1.103001
v 1.102578 1.633033 0.961382
v 1.061259 1.677769 0.962057
v 0.925485 1.634385 1.140322
v 1.055041 1.499050 1.135109
v 1.096063 1.499205 1.091849
vt 0.740491 0.991943
vt 0.731140 0.985411
vt 0.740491 0.898298
vt 0.357630 0.540009
vt 0.357145 0.532636
vt 0.357630 0.509779
vt 0.760770 0.577344
vt 0.745096 0.553072
vt 0.760770 0.517024
vt 0.854869 0.366137
vt 0.842638 0.336267
vt 0.854869 0.310090
vt 0.710997 0.898298
vt 0.710997 0.990953
vt 0.700975 0.901766
vt 0.823219 0.024491
vt 0.818046 0.008264
vt 0.823219 0.001789
vt 0.718235 0.368423
vt 0.699083 0.352209
vt 0.718235 0.331644
vt 0.523606 0.544397
vt 0.504037 0.531920
vt 0.523606 0.526534
vt 0.754219 0.744489
vt 0.862988 0.713717
vt 0.862988 0.811983
vt 0.024228 0.412535
vt 0.131688 0.389089
vt 0.131688 0.508690
vt 0.001789 0.551439
vt 0.796295 0.198611
vt 0.666534 0.173052
vt 0.796295 0.108347
vt 0.558834 0.651820
vt 0.628392 0.526534
vt 0.628392 0.710414
vt 0.124457 0.660050
vt 0.171985 0.586083
vt 0.171985 0.734437
vt 0.743655 0.253792
vt 0.839059 0.209202
vt 0.839059 0.325172
vt 0.135267 0.538603
vt 0.171093 0.389089
vt 0.171093 0.571143
vt 0.144297 0.309430
vt 0.170110 0.203456
vt 0.170110 0.320540
vt 0.358312 0.990250
vt 0.352450 0.981119
vt 0.358312 0.889790
vt 0.739971 0.368423
vt 0.721814 0.352615
vt 0.739971 0.331644
vt 0.757542 0.375698
vt 0.743655 0.359189
vt 0.757542 0.328751
vt 0.708348 0.555550
vt 0.741517 0.517024
vt 0.741517 0.590221
vt 0.795059 0.100463
vt 0.788523 0.016735
vt 0.795059 0.001789
vt 0.631971 0.875108
vt 0.750609 0.812219
vt 0.750609 0.894719
vt 0.814467 0.024491
vt 0.809287 0.010017
vt 0.814467 0.001789
vt 0.998211 0.930353
vt 0.992176 0.849118
vt 0.998211 0.842977
vt 0.169358 0.914473
vt 0.261545 0.834779
vt 0.261545 0.925727
vt 0.776095 0.370338
vt 0.783148 0.328751
vt 0.783148 0.372874
vt 0.797810 0.329365
vt 0.804835 0.328751
vt 0.804835 0.365773
vt 0.980465 0.196458
vt 0.991904 0.133143
vt 0.991904 0.212748
vt 0.988776 0.713717
vt 0.988776 0.818915
vt 0.976592 0.814162
vt 0.953667 0.030190
vt 0.953667 0.223299
vt 0.933162 0.212922
vt 0.082156 0.881664
vt 0.082156 0.955426
vt 0.001789 0.916025
vt 0.432769 0.973854
vt 0.403062 0.913220
vt 0.432769 0.886240
vt 0.285044 0.831200
vt 0.169358 0.760946
vt 0.285044 0.738016
vt 0.990319 0.456782
vt 0.990319 0.574717
vt 0.982327 0.458974
vt 0.981124 0.129565
vt 0.957246 0.109923
vt 0.981124 0.030190
vt 0.555255 0.526534
vt 0.555255 0.644365
vt 0.531196 0.547946
vt 0.894962 0.471231
vt 0.931509 0.379576
vt 0.931509 0.519218
vt 0.357708 0.466360
vt 0.349051 0.461935
vt 0.357708 0.346759
vt 0.955413 0.696565
vt 0.918684 0.623399
vt 0.955413 0.581064
vt 0.351863 0.486763
vt 0.351863 0.608621
vt 0.175564 0.606851
vt 0.498274 0.136577
vt 0.498274 0.172561
vt 0.432784 0.167929
vt 0.750630 0.988588
vt 0.744070 0.985778
vt 0.750630 0.898298
vt 0.968454 0.563752
vt 0.935088 0.512488
vt 0.968454 0.476026
vt 0.614116 0.944205
vt 0.552190 0.915392
vt 0.614116 0.851550
vt 0.116160 0.878085
vt 0.001789 0.835133
vt 0.116160 0.789144
vt 0.968600 0.316626
vt 0.933162 0.280176
vt 0.968600 0.226877
vt 0.833655 0.018820
vt 0.826798 0.013613
vt 0.833655 0.001789
vt 0.175564 0.253649
vt 0.358682 0.209202
vt 0.358682 0.343180
vt 0.300109 0.990771
vt 0.288622 0.937179
vt 0.300109 0.918180
vt 0.727562 0.971984
vt 0.714576 0.911377
vt 0.727562 0.898298
vt 0.129744 0.580111
vt 0.120265 0.562963
vt 0.129744 0.555018
vt 0.628392 0.713993
vt 0.628392 0.847971
vt 0.552190 0.780558
vt 0.470283 0.648385
vt 0.470283 0.761999
vt 0.362261 0.691484
vt 0.628129 0.980550
vt 0.617695 0.979132
vt 0.628129 0.851550
vt 0.612543 0.353486
vt 0.612543 0.373561
vt 0.603164 0.368105
vt 0.602783 0.357437
vt 0.842516 0.586583
vt 0.915105 0.581064
vt 0.915105 0.710138
vt 0.993262 0.316711
vt 0.986677 0.232529
vt 0.993262 0.226877
vt 0.974441 0.931251
vt 0.942403 0.873315
vt 0.974441 0.842977
vt 0.922026 0.713717
vt 0.922026 0.839398
vt 0.866567 0.803240
vt 0.463847 0.101884
vt 0.432784 0.027969
vt 0.575399 0.001789
vt 0.575399 0.132998
vt 0.339186 0.994494
vt 0.332375 0.926533
vt 0.339186 0.918180
vt 0.923165 0.306511
vt 0.842638 0.282770
vt 0.923165 0.209202
vt 0.453322 0.882661
vt 0.362261 0.781075
vt 0.453322 0.765578
vt 0.991173 0.129565
vt 0.984703 0.032813
vt 0.991173 0.026584
vt 0.470283 0.789652
vt 0.461188 0.773622
vt 0.470283 0.765578
vt 0.348871 0.914601
vt 0.288622 0.864633
vt 0.348871 0.785510
vt 0.981081 0.680515
vt 0.958991 0.663737
vt 0.981081 0.581064
vt 0.399484 0.971814
vt 0.362261 0.914850
vt 0.399484 0.886240
vt 0.815270 0.357761
vt 0.808414 0.336645
vt 0.815270 0.328751
vt 0.824330 0.357885
vt 0.818849 0.349616
vt 0.824330 0.328751
vt 0.169568 0.383723
vt 0.144297 0.341248
vt 0.169568 0.324118
vt 0.539796 0.167106
vt 0.533840 0.158379
vt 0.539796 0.136577
vt 0.976886 0.217274
vt 0.957246 0.138264
vt 0.976886 0.133143
vt 0.872919 0.201420
vt 0.866314 0.161838
vt 0.872919 0.153438
vt 0.353571 0.781931
vt 0.288622 0.668033
vt 0.353571 0.612200
vt 0.862735 0.030190
vt 0.862735 0.198611
vt 0.799874 0.079958
vt 0.357708 0.506200
vt 0.357145 0.490961
vt 0.357708 0.469939
vt 0.649372 0.972187
vt 0.631971 0.957763
vt 0.649372 0.898298
vt 0.794228 0.575561
vt 0.781725 0.537696
vt 0.794228 0.517024
vt 0.935088 0.424153
vt 0.968166 0.379576
vt 0.968166 0.472447
vt 0.575399 0.136577
vt 0.575399 0.203100
vt 0.559165 0.175509
vt 0.778146 0.581364
vt 0.764349 0.522098
vt 0.778146 0.517024
vt 0.972178 0.245518
vt 0.983098 0.226877
vt 0.983098 0.350148
vt 0.772516 0.328751
vt 0.772516 0.364735
vt 0.761121 0.348969
vt 0.152192 0.738016
vt 0.152192 0.945875
vt 0.124457 0.932210
vt 0.995054 0.665046
vt 0.984660 0.663644
vt 0.995054 0.581064
vt 0.348313 0.996339
vt 0.342764 0.922660
vt 0.348313 0.918180
vt 0.165320 0.738016
vt 0.165320 0.931009
vt 0.155771 0.914061
vt 0.972033 0.370760
vt 0.978748 0.355894
vt 0.978748 0.563752
vt 0.794231 0.367152
vt 0.786727 0.335758
vt 0.794231 0.328751
vt 0.599204 0.375227
vt 0.590042 0.360280
vt 0.599204 0.353486
vt 0.506893 0.463317
vt 0.504037 0.384484
vt 0.628392 0.379576
vt 0.628392 0.522956
vt 0.032025 0.709211
vt 0.120244 0.684862
vt 0.120244 0.785565
vt 0.001789 0.778352
vt 0.831414 0.361964
vt 0.837406 0.358089
vt 0.837406 0.375951
vt 0.831148 0.372532
vt 0.763186 0.860479
vt 0.839802 0.815562
vt 0.839802 0.917304
vt 0.754219 0.920666
vt 0.652951 0.977685
vt 0.657849 0.898298
vt 0.668116 0.898339
vt 0.668116 0.980206
vt 0.851830 0.942428
vt 0.843380 0.817032
vt 0.858006 0.815562
vt 0.858006 0.946676
vt 0.834419 0.346282
vt 0.827909 0.337910
vt 0.834419 0.328751
vt 0.116687 0.574471
vt 0.116687 0.681026
vt 0.037466 0.681283
vt 0.001789 0.555018
vt 0.697396 0.901641
vt 0.697396 0.984823
vt 0.686271 0.982729
vt 0.687457 0.898298
vt 0.501961 0.153815
vt 0.501853 0.142458
vt 0.530261 0.136577
vt 0.530261 0.160736
vt 0.500459 0.379576
vt 0.500459 0.546372
vt 0.362261 0.492423
vt 0.400055 0.382938
vt 0.436516 0.896509
vt 0.455522 0.886240
vt 0.455522 0.975051
vt 0.436348 0.969706
vt 0.973014 0.713717
vt 0.973014 0.801121
vt 0.954000 0.796391
vt 0.925604 0.723450
vt 0.993041 0.355894
vt 0.993041 0.453203
vt 0.982416 0.446870
vt 0.982327 0.357365
vt 0.888667 0.491699
vt 0.888667 0.573115
vt 0.801061 0.528601
vt 0.810514 0.492746
vt 0.120376 0.881664
vt 0.120376 0.969585
vt 0.092440 0.953953
vt 0.085735 0.894726
vt 0.317984 0.982638
vt 0.318119 0.918634
vt 0.328796 0.918180
vt 0.328796 0.985700
vt 0.171985 0.097741
vt 0.171985 0.199877
vt 0.002529 0.190223
vt 0.001789 0.001789
vt 0.988597 0.842977
vt 0.988597 0.958802
vt 0.981686 0.957399
vt 0.978020 0.844420
vt 0.206178 0.724107
vt 0.175564 0.612200
vt 0.285044 0.616607
vt 0.285044 0.734437
vt 0.827569 0.372859
vt 0.818849 0.375951
vt 0.820638 0.364054
vt 0.827569 0.361463
vt 0.358463 0.785510
vt 0.358463 0.886211
vt 0.352450 0.881332
vt 0.662955 0.006872
vt 0.662955 0.199868
vt 0.609061 0.169118
vt 0.578978 0.001789
vt 0.798638 0.016328
vt 0.798984 0.005628
vt 0.805708 0.001789
vt 0.805708 0.021865
vt 0.682692 0.902086
vt 0.682692 0.987873
vt 0.671695 0.979756
vt 0.671944 0.898298
vt 0.400145 0.549951
vt 0.526354 0.550022
vt 0.526354 0.633439
vt 0.362261 0.644806
vt 0.740077 0.327994
vt 0.636757 0.328065
vt 0.667266 0.209244
vt 0.740077 0.209202
vt 0.750641 0.808497
vt 0.631971 0.808640
vt 0.669683 0.713717
vt 0.750641 0.735944
vt 0.877075 0.929244
vt 0.866567 0.857417
vt 0.938824 0.842977
vt 0.938824 0.935346
vt 0.471157 0.898682
vt 0.465537 0.822574
vt 0.546666 0.804205
vt 0.546666 0.920738
vt 0.616122 0.360072
vt 0.624654 0.353486
vt 0.624654 0.375227
vt 0.616882 0.371367
vt 0.586463 0.364277
vt 0.507577 0.364119
vt 0.513211 0.353489
vt 0.586463 0.353486
vt 0.695504 0.331721
vt 0.695504 0.371597
vt 0.674156 0.363088
vt 0.685584 0.331644
vt 0.140718 0.385510
vt 0.001789 0.350062
vt 0.032245 0.207405
vt 0.140718 0.203456
vt 0.868994 0.310818
vt 0.868994 0.372777
vt 0.858538 0.371256
vt 0.858448 0.310090
vt 0.503999 0.375998
vt 0.362261 0.320427
vt 0.392752 0.241961
vt 0.503999 0.209202
vt 0.704769 0.379874
vt 0.704769 0.593187
vt 0.634492 0.574940
vt 0.631971 0.379576
vt 0.175564 0.152320
vt 0.176155 0.012679
vt 0.304768 0.001789
vt 0.304768 0.205623
vt 0.633178 0.349907
vt 0.512791 0.329112
vt 0.507577 0.250621
vt 0.633178 0.209202
vt 0.891383 0.488121
vt 0.801061 0.465372
vt 0.818959 0.393557
vt 0.891383 0.379576
vt 0.475487 0.775562
vt 0.473862 0.649364
vt 0.546666 0.648385
vt 0.546666 0.800626
vt 0.436016 0.176266
vt 0.539335 0.176140
vt 0.539335 0.186933
vt 0.432784 0.186242
vt 0.797482 0.502252
vt 0.708348 0.513446
vt 0.715740 0.399696
vt 0.797482 0.379576
vt 0.544958 0.198754
vt 0.544231 0.136775
vt 0.555587 0.136577
vt 0.555587 0.204623
vt 0.670578 0.370045
vt 0.639440 0.361815
vt 0.636757 0.351676
vt 0.670578 0.331644
vt 0.319686 0.005064
vt 0.429205 0.001789
vt 0.429205 0.155536
vt 0.308347 0.200900
vt 0.869935 0.059642
vt 0.929583 0.030190
vt 0.929583 0.132327
vt 0.866314 0.149859
vt 0.745958 0.597591
vt 0.745958 0.691237
vt 0.668630 0.710138
vt 0.631971 0.596766
vt 0.838937 0.697684
vt 0.749537 0.710138
vt 0.751588 0.589907
vt 0.838937 0.587696
vt 0.671973 0.092698
vt 0.666534 0.009459
vt 0.784944 0.001789
vt 0.784944 0.104769
vt 0.345472 0.346759
vt 0.345472 0.483184
vt 0.181613 0.468836
vt 0.175564 0.352691
vt 0.303687 0.919624
vt 0.314405 0.918180
vt 0.314405 0.992192
vt 0.303709 0.992177
vt 0.882892 0.310090
vt 0.882892 0.365599
vt 0.872572 0.363919
vt 0.277698 0.974546
vt 0.265124 0.970951
vt 0.277698 0.834779
vt 0.529751 0.190512
vt 0.529751 0.201265
vt 0.433738 0.201249
vt 0.432784 0.190587
vn -0.9982 -0.0062 0.0589
vn -0.1519 -0.0565 -0.9868
vn -0.0262 0.9757 0.2175
vn -0.0531 -0.0891 0.9946
vn -0.0135 -0.0317 0.9994
vn -0.0031 -0.0389 0.9992
vn -0.0029 -0.0369 0.9993
vn 0.4593 0.3534 0.8150
vn 0.7716 0.5364 -0.3419
vn 0.7723 0.5377 -0.3382
vn 0.7700 0.5396 -0.3404
vn -0.0698 0.6921 -0.7184
vn -0.0768 0.6843 -0.7252
vn -0.0755 0.6893 -0.7206
vn 0.0029 0.0498 -0.9988
vn 0.0177 0.0025 0.9998
vn 0.0123 0.0011 0.9999
vn 0.0120 0.0013 0.9999
vn 0.0007 -0.0096 1.0000
vn -0.0069 0.0256 0.9996
vn -0.0029 1.0000 0.0092
vn -0.9996 -0.0270 0.0079
vn -0.9993 -0.0152 -0.0352
vn -0.9993 -0.0262 -0.0274
vn -0.9994 -0.0195 -0.0294
vn 0.9994 0.0337 0.0009
vn 0.9994 0.0347 -0.0013
vn 0.9994 0.0353 0.0012
vn -0.0200 0.0528 -0.9984
vn -0.9992 0.0399 0.0104
vn 0.3135 -0.5405 -0.7807
vn 0.9896 0.1395 -0.0348
vn -0.2395 0.9209 0.3075
vn -0.2432 0.9191 0.3099
vn -0.2345 0.9208 0.3116
vn 0.8452 0.5340 0.0214
vn 0.0072 0.0008 1.0000
vn 0.7053 -0.5664 0.4263
vn 0.2056 0.0569 0.9770
vn -0.0363 0.9990 -0.0280
vn -0.8634 0.4985 -0.0778
vn -0.7470 0.0005 -0.6648
vn -0.7795 0.6256 -0.0325
vn -0.0145 0.3507 0.9364
vn -0.0168 0.3497 0.9367
vn -0.0130 0.3488 0.9371
vn 0.8921 0.4512 -0.0235
vn 0.9998 0.0186 -0.0081
vn -0.9993 -0.0368 -0.0104
vn 0.9988 0.0461 0.0147
vn 0.9801 -0.1848 0.0719
vn 0.9995 0.0318 -0.0009
vn 0.9996 0.0286 0.0003
vn 0.9996 0.0293 -0.0023
vn 0.9993 -0.0328 0.0162
vn -0.1666 0.9855 -0.0316
vn 0.1265 0.0443 0.9910
vn -0.0251 -0.0264 0.9993
vn 0.0276 0.9992 -0.0291
vn 0.0195 0.9987 -0.0465
vn -0.0775 0.9924 -0.0954
vn -0.0004 0.9997 0.0232
vn -0.0193 -0.0217 0.9996
vn -0.0193 -0.0283 0.9994
vn -0.0129 -0.0297 0.9995
vn 0.0023 -0.0208 0.9998
vn 0.0037 -0.0447 0.9990
vn 0.0008 -0.0388 0.9992
vn 0.0033 -0.0341 0.9994
vn 0.4477 0.3861 0.8065
vn -0.0249 0.9996 0.0121
vn -0.0457 -0.0529 -0.9976
vn -0.0740 -0.0095 -0.9972
vn 0.7766 0.5305 -0.3399
vn 0.7743 0.5334 -0.3405
vn 0.7760 0.5303 -0.3415
vn 0.0156 0.9996 -0.0218
vn 0.0214 0.9996 -0.0194
vn 0.0217 0.9995 -0.0210
vn 0.0112 0.0391 -0.9992
vn 0.0147 0.0446 -0.9989
vn 0.0174 0.0335 -0.9993
vn 0.0157 0.0347 -0.9993
vn 0.0205 0.0305 -0.9993
vn 0.0203 0.0221 -0.9995
vn -0.5797 -0.4513 -0.6784
vn -0.5797 -0.4514 -0.6784
vn -0.5807 -0.4666 -0.6671
vn 0.0571 0.9980 -0.0265
vn -0.9975 0.0461 0.0539
vn -0.9979 0.0406 0.0499
vn -0.9993 -0.0004 -0.0377
vn -0.9993 -0.0073 -0.0359
vn -0.9995 -0.0080 -0.0290
vn -0.0186 0.0015 0.9998
vn -0.0051 0.0101 0.9999
vn -0.0189 0.1300 0.9913
vn 0.0117 0.0193 -0.9997
vn 0.0138 0.0310 -0.9994
vn 0.0089 0.0017 -1.0000
vn 0.0078 -0.0010 -1.0000
vn 0.0076 -0.0032 -1.0000
vn 0.3131 -0.5697 -0.7599
vn 0.9998 -0.0124 -0.0136
vn 0.9999 -0.0147 -0.0081
vn 0.9998 -0.0123 -0.0138
vn 0.9998 -0.0066 -0.0174
vn 0.9998 -0.0173 -0.0106
vn 0.9995 -0.0054 -0.0305
vn 0.9997 -0.0058 -0.0238
vn 0.9997 -0.0116 -0.0225
vn 0.5518 0.5268 -0.6465
vn 0.8613 0.4055 -0.3061
vn -0.8992 0.3763 -0.2231
vn -0.9062 0.3741 -0.1970
vn 0.1081 -0.0310 -0.9937
vn -0.2402 0.9187 0.3136
vn -0.2412 0.9204 0.3078
vn -0.2414 0.9203 0.3079
vn 0.0231 0.9997 0.0125
vn -0.0002 -0.0131 0.9999
vn -0.7769 0.0003 0.6296
vn -0.0017 -0.0966 -0.9953
vn -0.0398 0.9988 0.0274
vn -0.0975 0.9943 0.0423
vn -0.9328 0.3602 -0.0082
vn -0.8301 0.5575 -0.0115
vn 0.0335 0.6393 0.7682
vn -0.0656 0.7017 -0.7094
vn -0.0682 0.6972 -0.7137
vn -0.0748 0.6954 -0.7147
vn 0.9996 0.0272 0.0027
vn 0.9997 0.0248 0.0013
vn 0.9996 0.0280 -0.0000
vn 0.7346 0.6785 -0.0010
vn -0.0511 0.0732 -0.9960
vn -0.0036 0.6151 -0.7884
vn 0.8996 0.4362 -0.0220
vn 0.6027 0.5549 0.5735
vn -0.4922 -0.5123 0.7037
vn -0.4898 -0.5204 0.6995
vn -0.4899 -0.5162 0.7025
vn 1.0000 0.0047 -0.0077
vn 1.0000 -0.0003 -0.0048
vn 0.9999 0.0077 -0.0100
vn 1.0000 0.0035 -0.0012
vn -1.0000 -0.0006 -0.0032
vn -1.0000 -0.0021 -0.0025
vn -1.0000 -0.0028 -0.0007
vn -1.0000 -0.0022 -0.0037
vn 0.4226 0.6079 -0.6723
vn 0.4287 0.6078 -0.6685
vn 0.4278 0.6078 -0.6690
vn 0.4207 0.6079 -0.6734
vn 0.0284 0.9994 -0.0193
vn 0.0301 0.9992 -0.0253
vn 0.0300 0.9995 -0.0132
vn 0.0289 0.9994 -0.0184
vn 0.7245 -0.0597 0.6867
vn 0.7244 -0.0597 0.6867
vn 0.7930 -0.0396 0.6079
vn -0.8325 0.5539 0.0087
vn -0.8314 0.5556 0.0086
vn -0.8341 0.5516 0.0088
vn -0.8352 0.5499 0.0088
vn -0.4893 -0.5204 0.6999
vn -0.4895 -0.5240 0.6970
vn -0.4850 -0.5252 0.6993
vn 0.0101 0.0059 0.9999
vn -0.7220 0.0624 0.6891
vn -0.7082 0.0649 0.7031
vn -0.7081 0.0649 0.7031
vn 0.5864 0.5351 -0.6081
vn 0.5891 0.5381 -0.6029
vn 0.5886 0.5375 -0.6039
vn 0.5862 0.5349 -0.6085
vn -0.9996 0.0283 0.0021
vn -0.9997 0.0239 0.0056
vn -0.9997 0.0244 0.0044
vn -0.9997 0.0240 0.0038
vn -0.2502 0.9156 0.3148
vn -0.2440 0.9171 0.3152
vn -0.2449 0.9167 0.3159
vn -0.2431 0.9187 0.3113
vn 0.9994 0.0350 0.0049
vn 0.9994 0.0339 0.0056
vn 0.9995 0.0327 0.0038
vn 0.9995 0.0310 0.0021
vn 0.7067 0.0261 -0.7070
vn 0.7072 0.0261 -0.7065
vn 0.7070 0.0261 -0.7068
vn -0.0227 -0.0653 -0.9976
vn -0.0275 -0.0582 -0.9979
vn -0.0275 -0.0583 -0.9979
vn -0.0216 -0.0670 -0.9975
vn -0.9794 0.1640 -0.1176
vn -0.6955 -0.0548 0.7164
vn -0.0139 0.9994 0.0331
vn -0.0130 0.9994 0.0331
vn -0.7417 0.0369 -0.6697
vn -0.7134 0.0346 -0.6999
vn 0.9999 -0.0039 0.0143
vn 0.9999 -0.0042 0.0142
vn 0.9999 -0.0035 0.0146
vn 0.9999 -0.0033 0.0148
vn 0.6914 0.0274 0.7219
vn 0.6974 0.0552 0.7145
vn -1.0000 0.0002 -0.0016
vn -1.0000 -0.0014 -0.0010
vn -1.0000 -0.0016 -0.0017
vn 0.0066 0.0047 -1.0000
vn -0.0206 -0.0011 -0.9998
vn 0.0056 0.0041 -1.0000
vn -0.0031 -0.0260 -0.9997
vn -0.5663 0.6699 -0.4802
vn -0.5667 0.6694 -0.4803
vn -0.5646 0.6717 -0.4797
vn -0.5645 0.6717 -0.4797
vn 0.6935 0.0686 0.7172
vn -0.0083 0.0030 -1.0000
vn -0.0047 -0.0000 -1.0000
vn -0.0042 -0.0059 -1.0000
vn -0.0051 -0.0057 -1.0000
vn -1.0000 0.0010 0.0019
vn -1.0000 -0.0011 0.0027
vn -1.0000 0.0005 0.0010
vn 0.0041 -0.0047 -1.0000
vn 0.0077 -0.0022 -1.0000
vn 0.0088 -0.0042 -1.0000
vn 0.0054 -0.0036 -1.0000
vn -0.0357 -0.0196 -0.9992
vn -0.0364 -0.0175 -0.9992
vn 0.0033 0.0065 -1.0000
vn 0.0012 -0.0094 -1.0000
vn -0.0099 0.0371 0.9993
vn -0.0099 0.0370 0.9993
vn 0.0073 0.0218 0.9997
vn 0.0074 0.0218 0.9997
vn -0.6052 0.6642 0.4388
vn -0.6196 0.6478 0.4432
vn 0.7031 -0.0026 0.7111
vn 0.9061 0.4171 0.0711
vn 0.9064 0.4165 0.0706
vn 0.9042 0.4206 0.0738
vn 0.9035 0.4219 0.0748
vn 1.0000 -0.0014 0.0078
vn 1.0000 -0.0002 -0.0001
vn 1.0000 0.0054 0.0026
vn 1.0000 0.0033 0.0057
vn -0.0007 0.6935 -0.7205
vn -0.0008 0.6930 -0.7209
vn -0.0006 0.6939 -0.7201
vn -0.9994 0.0336 0.0066
vn -0.9996 0.0296 -0.0019
vn -0.9998 0.0218 0.0041
vn -0.9996 0.0284 0.0052
vn 0.0353 0.9986 -0.0404
vn 0.0355 0.9985 -0.0412
vn 0.0354 0.9985 -0.0409
vn 0.0154 0.9987 0.0492
vn 0.0413 0.9983 0.0415
vn -0.0226 0.0076 0.9997
vn -0.0214 0.0077 0.9997
vn -0.0015 -0.0002 1.0000
vn -0.0109 0.0109 0.9999
vn 1.0000 -0.0015 -0.0030
vn 1.0000 -0.0005 -0.0011
vn 1.0000 0.0004 -0.0005
vn 1.0000 -0.0005 -0.0004
vn -1.0000 -0.0014 0.0028
vn -1.0000 -0.0027 0.0014
vn -1.0000 -0.0037 0.0007
vn -1.0000 -0.0040 -0.0001
vn -0.7067 0.0002 0.7075
vn -0.6951 0.0019 0.7189
vn -0.9994 0.0337 -0.0059
vn -0.9992 0.0388 -0.0036
vn -0.9993 0.0382 0.0022
vn -0.9991 0.0417 -0.0047
vn 0.7058 -0.0048 -0.7084
vn 0.7055 -0.0047 -0.7087
vn 0.7056 -0.0048 -0.7086
vn 0.7063 -0.0049 -0.7079
vn 0.5984 0.5441 0.5881
vn 1.0000 -0.0075 -0.0003
vn 1.0000 -0.0047 -0.0022
vn 1.0000 -0.0054 -0.0018
vn 1.0000 -0.0076 -0.0002
vn -0.0442 0.9985 -0.0334
vn -0.0448 0.9985 -0.0307
vn -0.0446 0.9985 -0.0313
vn -0.0440 0.9985 -0.0341
vn -0.9997 -0.0199 0.0155
vn -0.9997 -0.0201 0.0153
vn 0.0072 0.0326 0.9994
vn 0.0031 0.0257 0.9997
vn 0.0034 0.0263 0.9996
vn 0.0076 0.0333 0.9994
vn -0.0014 -0.0006 -1.0000
vn 0.0032 0.0008 -1.0000
vn 0.0066 -0.0007 -1.0000
vn 0.0060 -0.0006 -1.0000
vn -0.0141 0.0330 -0.9994
vn -0.0083 0.0275 -0.9996
vn -0.0088 0.0279 -0.9996
vn -0.0147 0.0336 -0.9993
vn 0.7050 -0.0033 -0.7092
vn 0.7096 -0.0021 -0.7046
vn 0.7079 -0.0023 -0.7063
vn 0.7032 -0.0034 -0.7110
vn -0.0004 0.6508 -0.7592
vn -0.0070 0.3528 0.9357
vn -0.0111 0.3537 0.9353
vn -0.0093 0.3519 0.9360
vn -0.7090 -0.0023 -0.7052
vn -0.7099 -0.0025 -0.7043
vn -0.7093 -0.0024 -0.7049
vn -0.7082 -0.0022 -0.7060
g Block_S_3_Block_S_3_Collor_Material
usemtl Collor_Material
s off
f 36/1/1 95/2/1 85/3/1
f 100/4/2 101/5/2 104/6/2
f 56/7/3 107/8/3 106/9/3
f 108/10/4 107/11/4 56/12/4
f 35/13/5 88/14/6 94/15/7
f 37/16/8 100/17/8 38/18/8
f 30/19/9 73/20/10 29/21/11
f 32/22/12 77/23/13 31/24/14
f 91/25/15 61/26/15 25/27/15
f 21/28/16 37/29/17 56/30/18 58/31/19
f 21/32/20 24/33/20 22/34/20
f 12/35/21 51/36/21 54/37/21
f 82/38/22 81/39/22 13/40/22
f 49/41/23 13/42/24 15/43/25
f 19/44/26 18/45/27 20/46/28
f 73/47/29 28/48/29 29/49/29
f 90/50/30 33/51/30 14/52/30
f 29/53/31 71/54/31 30/55/31
f 68/56/32 67/57/32 53/58/32
f 87/59/33 88/60/34 85/61/35
f 106/62/36 52/63/36 51/64/36
f 22/65/37 44/66/37 102/67/37
f 38/68/38 98/69/38 37/70/38
f 102/71/39 99/72/39 37/73/39
f 55/74/40 12/75/40 54/76/40
f 47/77/41 82/78/41 48/79/41
f 61/80/42 81/81/42 80/82/42
f 84/83/43 49/84/43 85/85/43
f 89/86/44 58/87/45 57/88/46
f 51/89/47 53/90/47 54/91/47
f 20/92/48 63/93/48 72/94/48
f 95/95/49 86/96/49 85/97/49
f 104/98/50 18/99/50 100/100/50
f 100/101/51 18/102/51 38/103/51
f 17/104/52 52/105/53 105/106/54
f 109/107/55 17/108/55 105/109/55
f 106/110/56 51/111/56 56/112/56
f 37/113/57 98/114/57 56/115/57
f 98/116/58 108/117/58 56/118/58
f 12/119/59 55/120/59 76/121/59
f 76/122/60 32/123/60 11/124/60
f 32/125/61 75/126/61 83/127/61
f 75/128/62 78/129/62 83/130/62
f 35/131/63 23/132/64 88/133/65
f 23/134/66 58/135/66 88/136/66
f 88/137/67 87/138/68 94/139/69
f 37/140/70 99/141/70 100/142/70
f 10/143/71 9/144/71 57/145/71
f 55/146/72 64/147/72 69/148/72
f 69/149/73 70/150/73 29/151/73
f 30/152/74 72/153/75 73/154/76
f 57/155/77 9/156/78 89/157/79
f 26/158/80 34/159/81 25/160/82
f 34/161/83 91/162/84 25/163/85
f 34/164/86 33/165/87 90/166/88 91/167/88
f 12/168/89 10/169/89 51/170/89
f 60/171/90 96/172/90 36/173/90
f 13/174/91 48/175/91 82/176/91
f 49/177/92 48/178/93 13/179/94
f 8/180/95 22/181/95 24/182/96 7/183/96
f 23/184/97 35/185/97 97/186/97
f 62/187/98 28/188/98 73/189/98
f 28/190/99 27/191/99 29/192/99
f 42/193/100 92/194/101 34/195/102
f 29/196/103 70/197/103 71/198/103
f 19/199/104 30/200/104 53/201/105
f 30/202/106 71/203/107 53/204/108
f 71/205/109 68/206/110 53/207/111
f 69/208/112 64/209/112 65/210/112
f 66/211/113 67/212/113 68/213/113
f 83/214/114 78/215/114 80/216/114
f 78/217/115 79/218/115 80/219/115
f 25/220/116 31/221/116 77/222/116
f 85/223/117 86/224/118 87/225/119
f 47/226/120 50/227/120 9/228/120
f 8/229/121 44/230/121 22/231/121
f 44/232/122 103/233/122 102/234/122
f 80/235/123 79/236/123 74/237/123
f 54/238/124 66/239/124 65/240/124
f 65/241/125 55/242/125 54/243/125
f 47/244/126 83/245/126 82/246/126
f 84/247/127 50/248/127 49/249/127
f 89/250/128 88/251/128 58/252/128
f 32/253/129 76/254/130 77/255/131
f 53/256/132 52/257/133 17/258/134
f 106/259/135 105/260/135 52/261/135
f 80/262/136 74/263/136 31/264/136
f 55/265/137 77/266/137 76/267/137
f 51/268/138 52/269/138 53/270/138
f 107/271/139 108/272/139 109/273/139
f 35/274/140 95/275/141 36/276/142
f 104/277/143 43/278/144 6/279/145 18/280/146
f 14/281/147 33/282/148 41/283/149 4/284/150
f 75/285/151 32/286/152 31/287/153 74/288/154
f 84/289/155 89/290/156 9/291/157 50/292/158
f 38/293/159 109/294/160 108/295/161 98/296/161
f 48/297/162 49/298/163 50/299/164 47/300/165
f 35/301/166 94/302/167 95/303/168
f 59/304/169 39/305/169 7/306/169 24/307/169
f 59/308/170 97/309/170 96/310/171 60/311/172
f 68/312/173 69/313/174 65/314/175 66/315/176
f 14/316/177 13/317/178 81/318/179 90/319/180
f 88/320/181 89/321/182 84/322/183 85/323/184
f 20/324/185 72/325/186 30/326/187 19/327/188
f 62/328/189 73/329/190 72/330/191 63/331/189
f 31/332/192 25/333/193 61/334/194 80/335/195
f 81/336/196 82/337/196 83/338/196 80/339/196
f 94/340/197 87/341/197 86/342/197 95/343/197
f 11/344/198 47/345/199 9/346/198 10/347/198
f 90/348/200 81/349/200 61/350/201 91/351/201
f 38/352/202 18/353/203 17/354/204 109/355/205
f 102/356/206 103/357/206 104/358/207 101/359/207
f 41/360/208 33/361/209 93/362/210
f 77/363/211 55/364/212 27/365/213 25/366/214
f 92/367/215 93/368/216 33/369/217 34/370/218
f 101/371/219 100/372/219 99/373/219 102/374/219
f 2/375/220 1/376/221 26/377/222 28/378/223
f 40/379/224 60/380/224 16/381/225 3/382/226
f 45/383/227 2/384/228 28/385/229 62/386/230
f 55/387/231 69/388/232 29/389/233 27/390/234
f 23/391/235 97/392/236 59/393/237 24/394/238
f 97/395/239 35/396/239 36/397/240 96/398/240
f 43/399/241 104/400/241 103/401/241 44/402/241
f 66/403/242 54/404/243 53/405/244 67/406/245
f 18/407/246 6/408/247 5/409/248 20/410/249
f 74/411/250 79/412/251 78/413/250 75/414/252
f 14/415/253 16/416/254 15/417/255 13/418/256
f 12/419/257 76/420/258 11/421/258 10/422/259
f 56/423/260 51/424/260 10/425/261 57/426/261
f 58/427/262 23/428/263 24/429/264 21/430/265
f 5/431/266 46/432/267 63/433/268 20/434/269
f 4/435/270 3/436/271 16/437/272 14/438/273
f 60/439/274 40/440/274 39/441/275 59/442/275
f 60/443/276 36/444/277 15/445/278 16/446/279
f 70/447/280 69/448/281 68/449/282 71/450/283
f 109/451/284 105/452/284 106/453/284 107/454/284
f 17/455/285 18/456/286 19/457/287 53/458/288
f 83/459/289 47/460/290 11/461/291 32/462/292
f 36/463/293 85/464/294 49/465/293 15/466/293
f 21/467/295 22/468/296 102/469/297 37/470/298
f 26/471/299 1/472/300 42/473/301 34/474/302
f 27/475/303 28/476/304 26/477/305 25/478/306
f 62/479/307 63/480/308 46/481/309 45/482/310
f 55/483/311 65/484/311 64/485/311
f 57/486/312 58/487/313 56/488/314
f 42/489/315 41/490/316 93/491/317 92/492/318
