# Blender v3.0.0 OBJ File: 'aa.blend'
# www.blender.org
mtllib Block_S_1.mtl
o Block_S_1
v 3.270846 0.000001 1.630968
v 3.282317 -0.000001 -0.925043
v -3.325319 0.000001 0.878954
v -3.339712 -0.000000 -0.706850
v 3.281872 0.000001 2.454317
v 3.261103 -0.000000 -0.017958
v -3.340463 0.000002 2.577924
v -3.341608 -0.000000 -0.166086
v -3.321901 0.751648 -1.072726
v -3.319654 1.114430 -1.058684
v -3.319665 0.438443 0.867014
v -3.326051 1.150776 1.130288
v 3.273623 -0.000001 -1.891024
v -3.335462 -0.000001 -2.167052
v 3.279906 0.746086 -0.840598
v 3.265059 1.379355 -1.060840
v 3.254218 0.622999 1.157194
v 3.256060 1.150858 1.130376
v -3.331213 1.325402 -1.844512
v -3.338811 0.368700 -2.440138
v 3.253756 0.867117 -2.318603
v 3.202342 1.348712 -2.399417
v -3.329458 1.290919 0.019166
v -3.328687 0.617622 0.035947
v -3.340860 1.301240 2.200410
v -3.331205 0.711210 2.236108
v 3.258112 0.929457 0.196359
v 3.248314 1.058384 0.103029
v 3.267600 1.237980 2.232365
v 3.284846 0.419399 2.512266
v -2.404199 1.634058 1.631101
v -1.151578 1.656962 1.117848
v -0.220857 1.693110 1.473496
v 0.436114 1.692102 1.131227
v 1.374667 1.676177 1.884950
v 2.313269 1.692092 1.131089
v 2.303004 1.671788 -0.820152
v 1.374705 1.689506 -0.701282
v 0.107466 1.678659 -1.184852
v -0.715612 1.678818 -1.500506
v -1.261091 1.688758 -1.329494
v -2.420595 1.714154 -1.274249
v 2.560446 0.000002 3.341138
v 1.383063 0.000002 3.338607
v 0.110735 0.000002 3.340463
v -0.505212 0.000002 3.340463
v -1.652471 0.000002 3.339275
v -2.393480 0.000002 3.341230
v -2.781446 -0.000002 -3.271895
v -1.862409 -0.000002 -3.268477
v -0.254983 -0.000002 -3.272318
v 0.756579 -0.000002 -3.259314
v 1.594303 -0.000002 -3.252275
v 2.627788 -0.000002 -3.269674
v 2.143240 1.696303 -2.583476
v 1.225852 1.710984 -1.703094
v 0.436034 1.691561 -2.434806
v -0.467412 1.684638 -2.326373
v -1.723947 1.698203 -2.523547
v -2.639612 1.706691 -2.153880
v 2.463637 1.674778 2.975423
v 1.347651 1.670763 2.245950
v 0.120688 1.681198 2.434525
v -0.634595 1.683837 2.952220
v -1.441408 1.700094 2.224950
v -2.009298 1.698250 2.480088
v 2.515971 1.679984 0.460172
v 1.381857 1.703677 0.639603
v 0.267344 1.696901 0.681226
v -0.592615 1.721052 -0.609168
v -1.482938 1.688545 0.070832
v -2.399160 1.665066 0.635358
v -2.749910 0.617578 -3.270438
v -1.549116 0.274465 -3.269144
v -0.522237 0.379739 -3.276861
v 0.451392 0.611220 -3.273840
v 1.386309 0.393441 -3.247359
v 2.402148 0.754595 -3.258689
v -2.560441 1.355557 -3.249530
v -1.468130 1.282672 -3.241023
v -0.502283 1.355332 -3.248515
v 0.663554 0.928627 -3.273234
v 1.374236 1.328606 -3.248477
v 2.579878 1.063791 -3.257071
v 2.324183 0.497022 3.337730
v 1.071669 0.708655 3.333044
v 0.309233 0.407707 3.336565
v -0.977460 0.596412 3.350439
v -1.617757 0.703851 3.331460
v -2.390958 0.428649 3.337083
v 2.267203 1.313091 3.328538
v 1.242934 0.959102 3.323949
v 0.435919 1.150792 3.319966
v -0.502409 1.452531 3.327796
v -1.440382 1.151036 3.326821
v -2.606897 1.278366 3.319634
v 1.536528 1.550287 -3.242450
v 1.583975 1.686073 -3.101440
v -0.402635 1.475668 -3.248668
v -0.268392 1.678595 -3.094730
v -2.290052 1.499291 -3.250205
v -2.404542 1.698963 -3.144840
v 3.105153 1.687067 1.384141
v 3.239508 1.533761 1.347116
v 3.181422 1.684942 -1.358768
v 3.211705 1.482215 -2.302982
v 2.885664 1.676619 -2.295726
v 0.389987 1.301702 3.322186
v 0.245566 1.683927 3.167727
v 2.489119 1.619709 3.320685
v -1.340547 1.488172 3.320363
v -1.312486 1.687196 3.119332
v -3.174936 1.690065 1.130239
v -3.306489 1.496992 1.053567
v -3.134054 1.689749 -2.150844
v -3.305791 1.528579 -2.028617
v -3.325841 0.767426 3.190555
v -3.188596 0.766929 3.329738
v 3.245993 1.201079 3.230042
v 3.161826 1.214292 3.324769
v 3.223521 1.269984 -3.126155
v 3.140618 1.226879 -3.237628
v 3.231270 1.372110 -3.228393
v 3.152251 0.527245 -3.259242
v 3.261063 0.536233 -3.152895
v 3.273432 -0.000002 -3.270068
v -3.319669 1.301380 -3.186336
v 3.268445 0.000002 3.255670
v 3.188597 0.000002 3.338396
v -3.241472 0.000002 3.339262
v -3.339784 0.000002 3.236616
v -3.336404 -0.000002 -3.221987
v -3.331804 0.413773 -3.220343
v 3.243906 1.639422 2.314923
v 3.204882 1.687545 2.362054
v 3.238564 1.652946 -0.125701
v -3.266016 1.684798 2.420304
v -3.326826 1.580332 2.352872
v -3.263204 1.674168 -0.093158
v -3.324468 1.559509 -0.076377
v -3.301084 1.208576 3.293507
v -0.693334 1.684344 3.275840
v -0.662633 1.638416 3.320306
v 1.513762 1.637946 3.320479
v 2.332350 1.639711 -3.239730
v 2.301703 1.690828 -3.201850
v 0.475104 1.573473 -3.259284
v 0.436251 1.680704 -3.194595
v -1.615964 1.630914 -3.245029
v -1.663049 1.694556 -3.102473
v -3.320756 1.642254 -3.087707
v -3.156831 1.638995 -3.247653
v -3.317449 1.522801 -3.203002
v -3.158494 1.638445 3.320496
v -3.310548 1.634224 3.162137
v -3.316438 1.394884 3.273877
v 3.226901 1.685526 2.879512
v 2.792422 1.684155 3.275565
v 2.833121 1.638815 3.320851
v 3.230324 1.428925 3.296948
v 3.245785 1.656652 -3.118831
v 3.134713 1.676561 -3.214641
v 1.121600 1.636746 -3.243430
v 1.698657 1.637375 -3.247211
v -0.428030 1.645663 -3.253021
v -0.385965 1.672490 -3.200206
v -0.235975 1.635153 -3.242255
v -2.438409 1.638654 -3.249843
v -2.330091 1.674107 -3.199100
v -2.276376 1.648881 -3.251357
v 3.249537 1.636883 1.515718
v 3.256806 1.592759 1.126180
v 3.194203 1.678190 1.120805
v 3.250771 1.637230 -1.306754
v 3.224635 1.644662 -2.290439
v 3.206416 1.684138 -2.055579
v 3.233340 1.591362 -2.150901
v 0.150149 1.638590 3.320496
v 0.424628 1.640395 3.321137
v 0.374987 1.689057 3.273886
v 2.492083 1.683749 3.275172
v -2.549985 1.687549 3.275302
v -2.582281 1.639228 3.320735
v -1.140199 1.639303 3.316123
v -3.313848 1.636881 0.894994
v -3.277540 1.687003 1.183114
v -3.312536 1.635932 -0.849116
v -3.269800 1.684026 -2.392444
v -3.323389 0.907796 3.281268
v -3.330129 0.554584 3.287466
v 3.224164 0.417753 3.335540
v 3.207215 1.127057 -3.251628
v 3.219737 0.578306 -3.262133
v -3.271547 1.318825 -3.247684
vt 0.421912 0.681526
vt 0.414989 0.678515
vt 0.421912 0.600198
vt 0.515887 0.084886
vt 0.515887 0.094607
vt 0.455566 0.085773
vt 0.883561 0.297762
vt 0.845226 0.273994
vt 0.883561 0.211931
vt 0.982049 0.593611
vt 0.964223 0.543489
vt 0.982049 0.518646
vt 0.541892 0.407609
vt 0.599254 0.324119
vt 0.599254 0.435527
vt 0.902073 0.183832
vt 0.864570 0.147051
vt 0.902073 0.102840
vt 0.948717 0.818548
vt 0.922176 0.778131
vt 0.948717 0.738322
vt 0.216711 0.946341
vt 0.216711 0.975804
vt 0.202901 0.971805
vt 0.054424 0.822901
vt 0.054424 0.864185
vt 0.006416 0.853152
vt 0.002532 0.793180
vt 0.750282 0.541258
vt 0.709446 0.490973
vt 0.750282 0.425291
vt 0.860833 0.541258
vt 0.846230 0.535974
vt 0.860833 0.517737
vt 0.798024 0.425291
vt 0.798024 0.523594
vt 0.755345 0.485380
vt 0.592428 0.990393
vt 0.583973 0.974860
vt 0.592428 0.949116
vt 0.563294 0.681892
vt 0.515750 0.592237
vt 0.563294 0.556083
vt 0.963310 0.413342
vt 0.963310 0.487815
vt 0.936316 0.470072
vt 0.722119 0.736267
vt 0.651601 0.672337
vt 0.722119 0.664030
vt 0.490983 0.711320
vt 0.490983 0.781580
vt 0.427072 0.740438
vt 0.578037 0.149140
vt 0.637062 0.102840
vt 0.637062 0.211012
vt 0.834854 0.664030
vt 0.834854 0.733259
vt 0.776346 0.700086
vt 0.326799 0.891242
vt 0.295691 0.809314
vt 0.326799 0.794169
vt 0.980307 0.211931
vt 0.980307 0.281422
vt 0.959270 0.239399
vt 0.776346 0.789824
vt 0.821857 0.738322
vt 0.821857 0.825854
vt 0.668058 0.829796
vt 0.656875 0.824278
vt 0.668058 0.800829
vt 0.729914 0.989265
vt 0.718616 0.938985
vt 0.729914 0.934966
vt 0.992031 0.413342
vt 0.992031 0.483651
vt 0.984888 0.414748
vt 0.405964 0.923379
vt 0.411814 0.921666
vt 0.411814 0.990902
vt 0.289552 0.914235
vt 0.275657 0.910687
vt 0.289552 0.859263
vt 0.331862 0.847435
vt 0.418178 0.834507
vt 0.418178 0.871214
vt 0.225577 0.924623
vt 0.284665 0.924128
vt 0.284665 0.947287
vt 0.804338 0.546321
vt 0.804338 0.657057
vt 0.767542 0.590991
vt 0.407469 0.612380
vt 0.331862 0.533369
vt 0.407469 0.525004
vt 0.323390 0.531584
vt 0.323390 0.644125
vt 0.306915 0.553757
vt 0.111895 0.485601
vt 0.198910 0.449839
vt 0.198910 0.531998
vt 0.704382 0.434952
vt 0.704382 0.541258
vt 0.652469 0.483996
vt 0.285210 0.622464
vt 0.285210 0.714774
vt 0.225577 0.667088
vt 0.409720 0.688800
vt 0.331862 0.643997
vt 0.409720 0.617444
vt 0.421912 0.595134
vt 0.412533 0.587591
vt 0.421912 0.525004
vt 0.768635 0.083355
vt 0.768635 0.097583
vt 0.763931 0.093806
vt 0.577947 0.678749
vt 0.568358 0.671548
vt 0.577947 0.656782
vt 0.664455 0.414761
vt 0.664455 0.429392
vt 0.651749 0.423406
vt 0.872090 0.410709
vt 0.834878 0.354528
vt 0.872090 0.319262
vt 0.899487 0.508625
vt 0.878083 0.504739
vt 0.862797 0.447493
vt 0.899487 0.425291
vt 0.879968 0.650765
vt 0.879968 0.733259
vt 0.839917 0.675703
vt 0.085058 0.331755
vt 0.105998 0.233017
vt 0.105998 0.355658
vt 0.864005 0.893093
vt 0.886259 0.887353
vt 0.886259 0.964510
vt 0.154085 0.893067
vt 0.164139 0.889835
vt 0.164139 0.961519
vt 0.147910 0.949563
vt 0.510243 0.790366
vt 0.510243 0.852378
vt 0.496047 0.840157
vt 0.869268 0.076042
vt 0.904060 0.002532
vt 0.904060 0.087626
vt 0.647406 0.445261
vt 0.647406 0.541258
vt 0.583973 0.508034
vt 0.325135 0.896306
vt 0.325135 0.964978
vt 0.295691 0.936496
vt 0.992265 0.974005
vt 0.985158 0.917705
vt 0.992265 0.907087
vt 0.952004 0.203247
vt 0.943772 0.190093
vt 0.952004 0.181280
vt 0.446873 0.985427
vt 0.439810 0.962080
vt 0.446873 0.951070
vt 0.714474 0.747126
vt 0.722119 0.741331
vt 0.722119 0.760644
vt 0.326004 0.649189
vt 0.326004 0.681527
vt 0.306915 0.672854
vt 0.432069 0.547871
vt 0.426976 0.535782
vt 0.432069 0.525004
vt 0.718616 0.911058
vt 0.778304 0.898581
vt 0.778304 0.929903
vt 0.220063 0.530936
vt 0.204325 0.468371
vt 0.220063 0.446176
vt 0.737448 0.636831
vt 0.737448 0.651002
vt 0.706041 0.647982
vt 0.957307 0.622158
vt 0.949359 0.614494
vt 0.957307 0.592602
vt 0.170434 0.957903
vt 0.184611 0.946341
vt 0.184611 0.979669
vt 0.079994 0.257791
vt 0.079994 0.356819
vt 0.018248 0.321759
vt 0.002532 0.233017
vt 0.198977 0.348033
vt 0.220063 0.342953
vt 0.220063 0.441112
vt 0.105653 0.642764
vt 0.089001 0.631251
vt 0.105653 0.542434
vt 0.300534 0.681272
vt 0.290274 0.668028
vt 0.300534 0.622464
vt 0.421674 0.693863
vt 0.421674 0.784228
vt 0.404859 0.771633
vt 0.687860 0.085346
vt 0.687860 0.096387
vt 0.677280 0.093038
vt 0.020932 0.945255
vt 0.032348 0.943041
vt 0.032348 0.984929
vt 0.456354 0.951070
vt 0.456354 0.994309
vt 0.451936 0.990339
vt 0.991382 0.166412
vt 0.986582 0.105289
vt 0.991382 0.102840
vt 0.991438 0.211931
vt 0.991438 0.269275
vt 0.985371 0.216424
vt 0.421786 0.789291
vt 0.421786 0.822885
vt 0.404859 0.793724
vt 0.424903 0.985951
vt 0.417121 0.964276
vt 0.424903 0.951070
vt 0.700743 0.231380
vt 0.694439 0.205026
vt 0.700743 0.190165
vt 0.331862 0.974444
vt 0.336194 0.951824
vt 0.336194 0.986438
vt 0.689375 0.223880
vt 0.642125 0.161040
vt 0.689375 0.102840
vt 0.215295 0.820137
vt 0.215295 0.888616
vt 0.170434 0.878966
vt 0.197837 0.992228
vt 0.189675 0.987424
vt 0.197837 0.946341
vt 0.965925 0.007814
vt 0.976885 0.002532
vt 0.976885 0.082892
vt 0.049836 0.903419
vt 0.046099 0.882788
vt 0.049836 0.869248
vt 0.620759 0.093752
vt 0.650157 0.085346
vt 0.650157 0.095700
vt 0.944295 0.626575
vt 0.928865 0.609543
vt 0.944295 0.592602
vt 0.942109 0.306967
vt 0.952783 0.286267
vt 0.952783 0.310659
vt 0.214115 0.599149
vt 0.220063 0.536000
vt 0.220063 0.613341
vt 0.959576 0.706094
vt 0.959576 0.732042
vt 0.950376 0.718573
vt 0.966626 0.176216
vt 0.943772 0.160565
vt 0.966626 0.102840
vt 0.803105 0.217432
vt 0.840163 0.211931
vt 0.840163 0.314198
vt 0.783368 0.904797
vt 0.793827 0.898581
vt 0.793827 0.977283
vt 0.982645 0.902024
vt 0.964934 0.838335
vt 0.982645 0.829628
vt 0.709320 0.838887
vt 0.673345 0.820667
vt 0.709320 0.744379
vt 0.427072 0.658058
vt 0.498575 0.633681
vt 0.498575 0.706257
vt 0.954337 0.320089
vt 0.975556 0.319262
vt 0.975556 0.389494
vt 0.150332 0.024518
vt 0.256246 0.002532
vt 0.256246 0.091119
vt 0.917112 0.738322
vt 0.917112 0.807048
vt 0.874099 0.799784
vt 0.420461 0.324115
vt 0.477501 0.220444
vt 0.477501 0.363347
vt 0.111895 0.918955
vt 0.142846 0.889835
vt 0.142846 0.958549
vt 0.746881 0.985374
vt 0.734978 0.938585
vt 0.746881 0.934966
vt 0.869036 0.825958
vt 0.826921 0.784555
vt 0.869036 0.738322
vt 0.829814 0.319262
vt 0.829814 0.418487
vt 0.790019 0.376229
vt 0.041036 0.937977
vt 0.002532 0.906780
vt 0.041036 0.869248
vt 0.471870 0.918410
vt 0.471870 0.946006
vt 0.428013 0.942955
vt 0.417121 0.923345
vt 0.331862 0.726445
vt 0.399796 0.693863
vt 0.399796 0.764172
vt 0.954206 0.281204
vt 0.921246 0.251434
vt 0.954206 0.211931
vt 0.990305 0.386227
vt 0.980619 0.326448
vt 0.990305 0.319262
vt 0.807315 0.190118
vt 0.759522 0.143299
vt 0.807315 0.102840
vt 0.657249 0.915792
vt 0.693141 0.908105
vt 0.693141 0.957661
vt 0.709320 0.903041
vt 0.657249 0.878588
vt 0.709320 0.843951
vt 0.954839 0.917500
vt 0.954839 0.971827
vt 0.930896 0.961826
vt 0.933749 0.907087
vt 0.735417 0.237854
vt 0.735417 0.351162
vt 0.688584 0.291220
vt 0.923801 0.623105
vt 0.899398 0.531588
vt 0.923801 0.518646
vt 0.894334 0.518646
vt 0.894334 0.621042
vt 0.865897 0.579694
vt 0.992987 0.879811
vt 0.987709 0.859476
vt 0.992987 0.829628
vt 0.980094 0.974434
vt 0.959903 0.925125
vt 0.980094 0.907087
vt 0.965191 0.286485
vt 0.965191 0.313560
vt 0.959270 0.302359
vt 0.455566 0.053207
vt 0.545799 0.002532
vt 0.545799 0.079823
vt 0.803088 0.455103
vt 0.857734 0.425291
vt 0.857734 0.496646
vt 0.636043 0.869965
vt 0.583973 0.847407
vt 0.636043 0.800829
vt 0.879934 0.626105
vt 0.879934 0.645419
vt 0.875518 0.639630
vt 0.105998 0.360722
vt 0.105998 0.444249
vt 0.093681 0.424396
vt 0.651812 0.868216
vt 0.641107 0.854238
vt 0.651812 0.800829
vt 0.931252 0.413342
vt 0.931252 0.508625
vt 0.904550 0.491395
vt 0.220513 0.723398
vt 0.196398 0.648421
vt 0.220513 0.622464
vt 0.533602 0.896720
vt 0.533602 0.930677
vt 0.477090 0.900813
vt 0.960862 0.002532
vt 0.960862 0.092654
vt 0.940898 0.021018
vt 0.083937 0.619590
vt 0.002532 0.558594
vt 0.083937 0.542434
vt 0.987624 0.707181
vt 0.977735 0.700319
vt 0.987624 0.631977
vt 0.972672 0.701030
vt 0.950376 0.678705
vt 0.972672 0.631977
vt 0.621868 0.439479
vt 0.604318 0.432848
vt 0.621868 0.430669
vt 0.959871 0.902024
vt 0.930896 0.853497
vt 0.959871 0.831021
vt 0.058361 0.723179
vt 0.106506 0.699890
vt 0.106506 0.787514
vt 0.083425 0.967834
vt 0.096998 0.932612
vt 0.096998 0.984052
vt 0.777562 0.993077
vt 0.768841 0.989081
vt 0.777562 0.934966
vt 0.968373 0.426544
vt 0.979824 0.413342
vt 0.979824 0.483515
vt 0.771283 0.838026
vt 0.718616 0.846010
vt 0.718657 0.811129
vt 0.771283 0.771122
vt 0.839678 0.536034
vt 0.803088 0.528362
vt 0.839678 0.501710
vt 0.603230 0.994384
vt 0.597491 0.949898
vt 0.603230 0.949116
vt 0.988843 0.813319
vt 0.981662 0.743426
vt 0.988843 0.738322
vt 0.510687 0.628617
vt 0.427072 0.584807
vt 0.510687 0.553621
vt 0.477090 0.966942
vt 0.491396 0.935741
vt 0.491396 0.976706
vt 0.751944 0.961315
vt 0.763777 0.934966
vt 0.763777 0.984788
vt 0.869093 0.204413
vt 0.864570 0.192099
vt 0.869093 0.188895
vt 0.945312 0.631977
vt 0.945312 0.716322
vt 0.917454 0.697549
vt 0.709753 0.979348
vt 0.698205 0.969622
vt 0.709753 0.908105
vt 0.821857 0.830917
vt 0.821857 0.933184
vt 0.803724 0.913715
vt 0.326243 0.475927
vt 0.324060 0.463532
vt 0.326243 0.449321
vt 0.535317 0.440197
vt 0.522608 0.433552
vt 0.535317 0.363004
vt 0.106832 0.473961
vt 0.103444 0.461960
vt 0.106832 0.449839
vt 0.106161 0.497318
vt 0.103444 0.491509
vt 0.106161 0.479024
vt 0.220112 0.728461
vt 0.220112 0.802890
vt 0.196398 0.744952
vt 0.925832 0.910589
vt 0.892611 0.858140
vt 0.925832 0.831021
vt 0.520966 0.986453
vt 0.510787 0.970728
vt 0.520966 0.935741
vt 0.533013 0.979478
vt 0.526030 0.961647
vt 0.533013 0.935741
vt 0.045574 0.991149
vt 0.037412 0.947323
vt 0.045574 0.943041
vt 0.434746 0.951070
vt 0.434746 0.997029
vt 0.429966 0.955416
vt 0.103352 0.693473
vt 0.089001 0.658951
vt 0.103352 0.647827
vt 0.510669 0.633681
vt 0.510669 0.698195
vt 0.503638 0.690593
vt 0.655220 0.088678
vt 0.672217 0.085346
vt 0.672217 0.095066
vt 0.573943 0.948056
vt 0.578909 0.944631
vt 0.578909 0.996079
vt 0.912391 0.733259
vt 0.885032 0.708208
vt 0.912391 0.631977
vt 0.760605 0.540286
vt 0.755345 0.536534
vt 0.760605 0.528657
vt 0.015869 0.943041
vt 0.015869 0.980136
vt 0.002532 0.972500
vt 0.937046 0.286757
vt 0.937046 0.304254
vt 0.929138 0.305965
vt 0.921246 0.286267
vt 0.959160 0.518646
vt 0.959160 0.587539
vt 0.928865 0.540685
vt 0.214825 0.925251
vt 0.170434 0.941278
vt 0.172315 0.894135
vt 0.214825 0.893679
vt 0.608749 0.220444
vt 0.608749 0.319056
vt 0.544187 0.293527
vt 0.541892 0.227771
vt 0.002532 0.496793
vt 0.098371 0.463994
vt 0.098371 0.537370
vt 0.012677 0.530298
vt 0.021871 0.370814
vt 0.087058 0.361883
vt 0.087058 0.458930
vt 0.002532 0.409915
vt 0.976599 0.803177
vt 0.965296 0.805077
vt 0.953781 0.756003
vt 0.976599 0.738322
vt 0.741643 0.259912
vt 0.798042 0.237854
vt 0.798042 0.307280
vt 0.740481 0.314198
vt 0.761138 0.655981
vt 0.742512 0.647942
vt 0.761138 0.636831
vt 0.144153 0.884772
vt 0.111895 0.820137
vt 0.165370 0.820983
vt 0.165370 0.884411
vt 0.572973 0.102840
vt 0.572973 0.208056
vt 0.532049 0.199116
vt 0.506798 0.135463
vt 0.571976 0.860173
vt 0.576912 0.777224
vt 0.576912 0.864267
vt 0.403890 0.916603
vt 0.331862 0.889531
vt 0.403890 0.876277
vt 0.384255 0.087950
vt 0.367509 0.002532
vt 0.450503 0.002678
vt 0.450503 0.097393
vt 0.225577 0.822699
vt 0.289444 0.797540
vt 0.289444 0.854200
vt 0.237543 0.849256
vt 0.576410 0.556083
vt 0.576410 0.651718
vt 0.568358 0.556875
vt 0.331862 0.397691
vt 0.335661 0.341300
vt 0.413283 0.335738
vt 0.413283 0.440197
vt 0.842851 0.643951
vt 0.828553 0.630347
vt 0.842851 0.626105
vt 0.650418 0.875029
vt 0.650418 0.947668
vt 0.625231 0.941297
vt 0.640212 0.879867
vt 0.326799 0.703659
vt 0.326799 0.789105
vt 0.292234 0.766656
vt 0.307375 0.693863
vt 0.399358 0.829444
vt 0.332233 0.814750
vt 0.331862 0.796907
vt 0.399358 0.769236
vt 0.910577 0.162492
vt 0.907137 0.102963
vt 0.938708 0.102840
vt 0.938708 0.183327
vt 0.486810 0.858898
vt 0.566912 0.863336
vt 0.566912 0.890546
vt 0.477090 0.891657
vt 0.106506 0.792577
vt 0.106506 0.873779
vt 0.064556 0.794346
vt 0.556476 0.010322
vt 0.615695 0.002532
vt 0.615695 0.097040
vt 0.550863 0.084583
vt 0.838828 0.873114
vt 0.826921 0.845139
vt 0.887547 0.831021
vt 0.887547 0.882290
vt 0.784956 0.414896
vt 0.751295 0.416835
vt 0.740481 0.338880
vt 0.784956 0.319262
vt 0.917785 0.343137
vt 0.949273 0.319262
vt 0.949273 0.392674
vt 0.915632 0.387940
vt 0.877153 0.396061
vt 0.886281 0.319409
vt 0.910568 0.319262
vt 0.910568 0.405093
vt 0.754459 0.185101
vt 0.694439 0.182046
vt 0.720857 0.107740
vt 0.754459 0.102840
vt 0.914228 0.915652
vt 0.914228 0.975764
vt 0.892611 0.953099
vt 0.725707 0.851074
vt 0.790404 0.851453
vt 0.790404 0.884159
vt 0.718616 0.893517
vt 0.620167 0.875122
vt 0.620167 0.944053
vt 0.583973 0.922770
vt 0.588179 0.875029
vt 0.106832 0.102840
vt 0.106832 0.227954
vt 0.002532 0.190751
vt 0.024834 0.107454
vt 0.145269 0.009416
vt 0.145269 0.094510
vt 0.043009 0.097776
vt 0.002532 0.002532
vt 0.055359 0.942644
vt 0.078361 0.932612
vt 0.078361 0.985882
vt 0.060273 0.976695
vt 0.585732 0.784352
vt 0.583973 0.756708
vt 0.668281 0.744379
vt 0.668281 0.795765
vt 0.135850 0.441360
vt 0.111895 0.342953
vt 0.193913 0.347759
vt 0.193913 0.444775
vt 0.584173 0.710844
vt 0.583973 0.648241
vt 0.639720 0.649597
vt 0.639720 0.739316
vt 0.860833 0.621042
vt 0.811357 0.609915
vt 0.809401 0.566222
vt 0.860833 0.546321
vt 0.675232 0.340472
vt 0.675232 0.409698
vt 0.618309 0.403252
vt 0.604318 0.324119
vt 0.434097 0.450999
vt 0.434097 0.518776
vt 0.374481 0.519941
vt 0.331862 0.445261
vt 0.338485 0.102840
vt 0.338485 0.215381
vt 0.237687 0.201703
vt 0.225577 0.129296
vt 0.112418 0.587538
vt 0.111895 0.543126
vt 0.208753 0.537061
vt 0.208753 0.604027
vt 0.826942 0.950336
vt 0.826921 0.887353
vt 0.858941 0.893604
vt 0.858941 0.954753
vt 0.859507 0.182582
vt 0.826052 0.181678
vt 0.812379 0.118268
vt 0.859507 0.102840
vt 0.970202 0.598675
vt 0.970202 0.624961
vt 0.965195 0.622051
vt 0.964223 0.599157
vt 0.809401 0.641877
vt 0.823490 0.626105
vt 0.823490 0.656416
vt 0.326799 0.220444
vt 0.326799 0.341485
vt 0.266031 0.341106
vt 0.225577 0.252927
vt 0.624614 0.242087
vt 0.683521 0.237854
vt 0.683521 0.319056
vt 0.613813 0.262573
vt 0.889724 0.216386
vt 0.916183 0.211931
vt 0.916183 0.307369
vt 0.888625 0.305910
vt 0.220513 0.102840
vt 0.220513 0.221166
vt 0.135182 0.215627
vt 0.111895 0.135104
vt 0.225577 0.374606
vt 0.309603 0.346548
vt 0.309603 0.444258
vt 0.234268 0.443221
vt 0.568221 0.896813
vt 0.568221 0.960043
vt 0.545444 0.952102
vt 0.538666 0.896720
vt 0.076914 0.624654
vt 0.076914 0.694827
vt 0.023636 0.694052
vt 0.002532 0.647141
vt 0.201584 0.246031
vt 0.201584 0.337889
vt 0.127836 0.305980
vt 0.111895 0.226230
vt 0.987112 0.579463
vt 0.991539 0.518646
vt 0.991539 0.583423
vt 0.850226 0.187646
vt 0.850226 0.203034
vt 0.836839 0.196051
vt 0.841893 0.012129
vt 0.864204 0.002532
vt 0.864204 0.092229
vt 0.822928 0.092375
vt 0.510687 0.548557
vt 0.439161 0.545157
vt 0.440785 0.497685
vt 0.510687 0.445261
vt 0.191257 0.692281
vt 0.191257 0.737927
vt 0.111895 0.754246
vt 0.131157 0.691101
vt 0.935834 0.093176
vt 0.913753 0.087234
vt 0.909124 0.013478
vt 0.935834 0.002532
vt 0.631893 0.216647
vt 0.631893 0.232790
vt 0.613813 0.227784
vt 0.270593 0.859263
vt 0.270593 0.919064
vt 0.244083 0.912930
vt 0.225577 0.868524
vt 0.574223 0.936863
vt 0.578910 0.875029
vt 0.578910 0.939568
vt 0.443098 0.440197
vt 0.418346 0.369696
vt 0.517545 0.372024
vt 0.517545 0.429551
vt 0.301852 0.543500
vt 0.301852 0.617400
vt 0.227709 0.610315
vt 0.225577 0.531584
vt 0.578909 0.450690
vt 0.578909 0.551020
vt 0.515750 0.509431
vt 0.541555 0.445261
vt 0.698740 0.071187
vt 0.697222 0.002532
vt 0.758867 0.012324
vt 0.758867 0.081255
vt 0.471870 0.913346
vt 0.437534 0.912170
vt 0.427072 0.868835
vt 0.471870 0.852035
vt 0.700978 0.652834
vt 0.656291 0.658966
vt 0.651601 0.576643
vt 0.700978 0.546321
vt 0.400900 0.921666
vt 0.400900 0.946761
vt 0.336877 0.938615
vt 0.331862 0.925361
vt 0.676541 0.414761
vt 0.676541 0.429325
vt 0.669519 0.423355
vt 0.415398 0.323741
vt 0.331862 0.330674
vt 0.345220 0.249640
vt 0.415398 0.220444
vt 0.286674 0.719838
vt 0.286674 0.792477
vt 0.225577 0.774909
vt 0.226240 0.726208
vt 0.774477 0.021103
vt 0.817865 0.002532
vt 0.817865 0.071768
vt 0.763931 0.078292
vt 0.213497 0.321108
vt 0.206647 0.230724
vt 0.218248 0.226230
vt 0.218248 0.323965
vt 0.569346 0.686956
vt 0.569346 0.772160
vt 0.515750 0.737557
vt 0.520703 0.696597
vt 0.450636 0.203807
vt 0.428144 0.108112
vt 0.501734 0.102840
vt 0.501734 0.206459
vt 0.106506 0.878843
vt 0.106506 0.927549
vt 0.060785 0.920125
vt 0.055359 0.906538
vt 0.583973 0.584650
vt 0.646538 0.546321
vt 0.646538 0.642318
vt 0.589712 0.643177
vt 0.423080 0.102840
vt 0.423080 0.212198
vt 0.343549 0.188865
vt 0.346974 0.119086
vt 0.727183 0.693910
vt 0.771283 0.664030
vt 0.771283 0.746913
vt 0.727812 0.766059
vt 0.189146 0.759310
vt 0.189146 0.815073
vt 0.111895 0.784455
vt 0.119016 0.759474
vt 0.762478 0.546321
vt 0.762478 0.631767
vt 0.711672 0.624070
vt 0.706041 0.559448
vt 0.692158 0.002532
vt 0.692158 0.080282
vt 0.620759 0.012921
vt 0.020393 0.713027
vt 0.053298 0.699890
vt 0.053298 0.776245
vt 0.002532 0.788117
vt 0.482564 0.324905
vt 0.503375 0.220444
vt 0.536829 0.221359
vt 0.536829 0.350989
vt 0.798042 0.232790
vt 0.705980 0.226022
vt 0.707199 0.214164
vt 0.798042 0.203661
vt 0.735417 0.412762
vt 0.681713 0.415412
vt 0.702712 0.356419
vt 0.735417 0.356226
vt 0.362445 0.090155
vt 0.263421 0.089384
vt 0.261310 0.017999
vt 0.362445 0.002532
vt 0.318997 0.449321
vt 0.318997 0.526521
vt 0.225577 0.507772
vt 0.235478 0.450469
vt 0.870455 0.626105
vt 0.870455 0.642417
vt 0.864379 0.641921
vt 0.509154 0.711320
vt 0.509154 0.785303
vt 0.496047 0.778955
vt 0.919292 0.916267
vt 0.925259 0.915652
vt 0.925259 0.990456
vt 0.184425 0.686037
vt 0.111895 0.615059
vt 0.184425 0.609090
vt 0.489460 0.786644
vt 0.489460 0.846971
vt 0.427072 0.838338
vt 0.535990 0.097555
vt 0.520951 0.088654
vt 0.535990 0.084886
vt 0.408953 0.878087
vt 0.417537 0.876277
vt 0.417537 0.908903
vt 0.803724 0.942071
vt 0.812969 0.938248
vt 0.812969 0.990777
vt 0.847914 0.635719
vt 0.859315 0.626105
vt 0.859315 0.641433
vt 0.991703 0.002532
vt 0.991703 0.061783
vt 0.981949 0.059577
vt 0.812379 0.198913
vt 0.831775 0.187646
vt 0.831775 0.204399
vt 0.466277 0.951070
vt 0.466277 0.987508
vt 0.461417 0.985129
vt 0.102061 0.935613
vt 0.106823 0.932612
vt 0.106823 0.979317
vt 0.608294 0.951406
vt 0.613171 0.949116
vt 0.613171 0.997468
vt 0.314667 0.351722
vt 0.323873 0.346548
vt 0.323873 0.440945
vt 0.981519 0.178384
vt 0.971690 0.176538
vt 0.981519 0.102840
vt 0.496460 0.939518
vt 0.505723 0.935741
vt 0.505723 0.990212
vt 0.604318 0.418073
vt 0.646685 0.414761
vt 0.646685 0.425606
vt 0.577845 0.764705
vt 0.574409 0.691414
vt 0.577845 0.686956
vt 0.566912 0.853098
vt 0.515750 0.853834
vt 0.518357 0.779514
vt 0.566912 0.777224
vn 0.2586 0.8585 0.4427
vn 0.7505 0.0676 0.6574
vn -0.9999 -0.0160 0.0066
vn -0.0228 0.9997 -0.0048
vn -0.0220 0.9998 -0.0019
vn -0.0234 0.9997 -0.0003
vn -0.9997 0.0223 -0.0029
vn 0.0630 0.9979 -0.0142
vn 0.0117 0.0351 -0.9993
vn 0.4118 0.7101 -0.5711
vn 0.4095 0.7123 -0.5700
vn 0.4117 0.7116 -0.5693
vn -0.0006 0.0204 -0.9998
vn 0.0040 0.0158 -0.9999
vn 0.0814 0.9951 -0.0553
vn -0.0025 -0.0000 -1.0000
vn 1.0000 0.0043 -0.0090
vn -0.9913 0.0793 0.1052
vn -0.9912 0.0740 0.1094
vn -0.9905 0.0804 0.1119
vn 0.9997 0.0222 -0.0059
vn 0.9999 -0.0052 -0.0134
vn 0.0202 0.9996 -0.0179
vn 0.0183 0.9997 -0.0157
vn 0.0271 0.9994 -0.0220
vn 0.0522 0.9981 0.0313
vn -0.0414 0.9991 -0.0064
vn 0.0194 0.9986 -0.0500
vn 0.0039 0.0105 0.9999
vn 0.0011 0.0082 1.0000
vn 0.0015 0.0089 1.0000
vn -0.0007 0.0092 1.0000
vn 0.0000 0.0096 1.0000
vn -0.0010 -0.0175 0.9998
vn -0.0226 -0.0752 0.9969
vn -0.0441 0.9557 -0.2911
vn 0.1795 0.9642 -0.1954
vn -0.7911 0.0342 -0.6108
vn -0.0475 0.1008 0.9938
vn -0.0062 -0.0210 0.9998
vn -0.0021 0.0167 0.9999
vn -0.0048 0.0123 0.9999
vn 0.0056 0.0413 0.9991
vn 0.0080 0.0432 0.9990
vn 0.0130 0.0409 0.9991
vn -0.1077 0.9932 -0.0432
vn -0.0217 0.9988 -0.0446
vn -0.0024 0.9999 0.0129
vn -0.0069 0.9999 0.0097
vn -0.0002 0.9999 0.0117
vn -0.0275 0.9996 0.0031
vn 0.0177 0.9997 0.0170
vn 0.0193 0.9996 0.0213
vn 0.0214 0.9996 0.0182
vn -0.0007 0.0301 -0.9995
vn -0.0038 0.0291 -0.9996
vn -0.0037 0.0320 -0.9995
vn -0.0142 -0.0059 -0.9999
vn -0.0171 -0.0015 -0.9999
vn -0.0056 0.0004 -1.0000
vn -0.0060 -0.0241 0.9997
vn -0.0018 -0.0165 0.9999
vn -0.0091 -0.0175 0.9998
vn -0.6824 0.0568 -0.7288
vn -0.6425 0.6852 -0.3430
vn -0.4048 0.7229 -0.5599
vn -0.0138 0.0197 -0.9997
vn -0.0140 0.0175 -0.9997
vn -0.0122 0.0195 -0.9997
vn -0.9998 0.0180 -0.0123
vn -0.9998 0.0136 -0.0141
vn -0.9998 0.0149 -0.0136
vn -0.9998 0.0185 -0.0121
vn 0.0015 -0.0013 -1.0000
vn -0.0000 0.0034 -1.0000
vn 0.0037 0.0022 -1.0000
vn -0.0007 -0.0015 -1.0000
vn -0.0024 0.0003 -1.0000
vn 0.0013 0.0016 -1.0000
vn -0.0479 0.9985 -0.0253
vn -0.8594 0.5110 -0.0167
vn -0.9993 0.0330 0.0179
vn -0.8594 0.5111 -0.0167
vn -0.0002 0.0401 0.9992
vn 0.0018 0.0457 0.9990
vn -0.0040 0.0460 0.9989
vn -0.0057 1.0000 0.0054
vn -0.0051 1.0000 0.0074
vn 0.0001 0.9999 0.0102
vn -0.0072 0.9974 -0.0720
vn 0.0057 0.0137 0.9999
vn -0.0425 0.9991 0.0035
vn 0.6587 0.1268 -0.7416
vn 0.0130 0.0473 -0.9988
vn 0.0195 0.0513 -0.9985
vn 0.0210 0.0575 -0.9981
vn 0.5761 0.6147 -0.5388
vn 0.0070 0.0221 -0.9997
vn 0.0249 -0.0219 -0.9995
vn 0.9983 0.0575 0.0069
vn 0.9992 0.0339 -0.0225
vn 0.6721 0.4813 0.5626
vn 0.9982 -0.0578 0.0179
vn -0.6396 0.0678 0.7657
vn 0.0341 0.9993 -0.0136
vn 0.0292 0.9994 -0.0182
vn 0.0270 0.9995 -0.0166
vn 0.0297 0.9995 -0.0129
vn 0.0856 0.7020 0.7070
vn -0.7080 0.7029 -0.0680
vn -0.0769 0.9959 0.0472
vn -0.9938 0.1101 -0.0157
vn 0.7869 -0.4654 -0.4052
vn 0.6814 0.1712 -0.7116
vn 0.7618 0.6471 -0.0299
vn -0.0022 0.5945 -0.8041
vn 0.0030 0.5959 -0.8031
vn 0.0008 0.5909 -0.8068
vn 0.5570 0.8303 0.0190
vn 0.9970 -0.0009 0.0778
vn -0.3496 -0.0122 0.9368
vn -0.9886 0.0852 0.1245
vn -0.9902 0.0838 0.1118
vn -0.9896 0.0821 0.1184
vn -0.9927 0.0774 -0.0929
vn -0.0171 0.9998 -0.0035
vn -0.0199 0.9998 -0.0025
vn -0.0193 0.9998 -0.0031
vn 0.9959 0.0865 -0.0256
vn 0.9385 0.0280 -0.3442
vn 0.9967 0.0806 0.0067
vn -0.0721 0.0798 -0.9942
vn 0.4135 0.7066 -0.5742
vn 0.4123 0.7083 -0.5729
vn 0.4121 0.7099 -0.5712
vn -0.0013 0.9996 -0.0298
vn 0.6583 0.2410 -0.7131
vn -0.1523 0.8562 0.4937
vn -0.3487 0.1250 -0.9289
vn -0.9998 0.0079 0.0186
vn -0.9999 0.0056 0.0162
vn -0.9998 0.0078 0.0190
vn 0.9940 0.0979 -0.0488
vn 0.9977 0.0661 -0.0135
vn -0.0720 -0.1484 0.9863
vn 0.9999 0.0017 -0.0134
vn 1.0000 -0.0036 -0.0036
vn 0.9999 -0.0040 -0.0102
vn -0.0204 0.9991 0.0367
vn -0.0798 0.9814 -0.1747
vn 0.0221 0.9997 0.0036
vn 0.0169 0.9999 0.0014
vn 0.0254 0.9997 0.0073
vn 0.0032 0.9989 -0.0478
vn 0.0490 0.9987 -0.0140
vn -0.9998 0.0173 0.0010
vn -0.9999 0.0146 -0.0016
vn -0.9998 0.0192 0.0020
vn 0.0349 0.9166 -0.3984
vn 0.0304 0.9136 -0.4054
vn 0.0288 0.9163 -0.3996
vn 0.0042 0.0083 1.0000
vn -0.0078 0.0035 1.0000
vn 0.0020 0.0081 1.0000
vn 0.0094 -0.0093 0.9999
vn -0.0289 0.0155 0.9995
vn -0.0244 0.0129 0.9996
vn -0.0275 0.0125 0.9995
vn -0.0544 -0.0368 0.9978
vn -0.0120 -0.0646 0.9978
vn -0.0854 -0.1336 0.9873
vn -0.0856 -0.1335 0.9873
vn 0.0012 1.0000 -0.0038
vn 0.0064 0.9999 -0.0155
vn 0.0068 1.0000 -0.0062
vn -0.0293 0.9995 -0.0094
vn -0.0364 0.9992 -0.0173
vn -0.0231 -0.0035 0.9997
vn -0.0037 0.0571 0.9984
vn -0.0039 0.0240 0.9997
vn -0.0261 0.0207 0.9994
vn -0.0259 0.0239 0.9994
vn -0.0251 0.0239 0.9994
vn 0.0013 0.0278 0.9996
vn -0.0045 0.0231 0.9997
vn -0.0134 0.0283 0.9995
vn -0.0028 0.0006 -1.0000
vn -0.0329 0.9993 -0.0155
vn 0.0094 0.9999 0.0130
vn 0.0109 0.9998 0.0158
vn 0.0101 0.9997 0.0216
vn -0.9883 0.1521 -0.0112
vn -0.9956 0.0576 -0.0739
vn -0.9969 -0.0247 0.0746
vn -0.9993 0.0073 -0.0362
vn -0.0177 0.9996 0.0241
vn 0.0352 -0.0007 -0.9994
vn 0.0008 1.0000 -0.0039
vn -0.5608 0.1114 -0.8205
vn 0.0064 -0.0228 -0.9997
vn 0.0066 -0.0172 -0.9998
vn 0.0112 -0.0189 -0.9998
vn -0.0187 0.0597 -0.9980
vn 0.0018 -0.0066 -1.0000
vn -0.0019 -0.0038 -1.0000
vn 0.0003 0.0012 -1.0000
vn -0.0059 -0.0161 -0.9999
vn 0.0084 0.0169 -0.9998
vn 0.9979 0.0643 0.0095
vn -0.0262 0.9991 0.0346
vn 0.0007 -0.0069 1.0000
vn -0.0032 -0.0146 0.9999
vn 0.0040 -0.0135 0.9999
vn 0.0081 0.0108 0.9999
vn -0.3932 0.5581 -0.7307
vn 0.0069 1.0000 0.0069
vn -0.0014 1.0000 0.0090
vn 0.0103 0.9999 0.0129
vn 0.0131 0.9997 -0.0201
vn 0.0161 0.9998 -0.0069
vn 0.0202 0.9997 -0.0124
vn -0.0197 0.9996 0.0180
vn -0.0199 0.9996 -0.0193
vn -0.0253 0.9995 0.0169
vn -0.0011 0.8673 -0.4978
vn -0.0671 0.9938 -0.0890
vn -0.0405 0.0604 0.9974
vn -0.0446 0.0704 0.9965
vn -0.0006 0.0204 0.9998
vn -0.0476 0.0548 0.9974
vn 0.4345 0.7689 0.4691
vn 0.4010 0.8020 0.4427
vn 0.0154 0.9960 0.0876
vn 0.0599 0.9982 0.0012
vn 0.1090 0.0935 0.9896
vn -0.0006 0.0264 0.9997
vn -0.0009 0.0284 0.9996
vn -0.0020 0.0270 0.9996
vn 0.7543 0.0960 -0.6495
vn 0.9986 0.0514 -0.0145
vn 0.9987 -0.0293 -0.0415
vn 0.9957 -0.0813 -0.0448
vn 0.9801 0.0664 -0.1871
vn -0.9966 -0.0827 -0.0054
vn 0.9955 -0.0939 0.0116
vn 0.9967 -0.0805 0.0146
vn 0.9975 -0.0668 0.0211
vn -0.6334 0.0990 0.7674
vn -0.0008 0.0244 0.9997
vn 0.0003 0.0254 0.9997
vn -0.0012 0.0264 0.9997
vn -0.9998 0.0103 0.0178
vn -0.9998 0.0070 0.0166
vn -0.0154 0.0350 0.9993
vn -0.0027 0.0331 0.9994
vn -0.0070 0.0331 0.9994
vn 0.0086 0.0166 0.9998
vn 0.0044 0.0190 0.9998
vn 0.0170 0.0237 0.9996
vn -0.0051 0.1356 -0.9908
vn -0.0563 0.0178 -0.9983
vn 0.9974 0.0696 0.0206
vn 0.9978 0.0602 0.0288
vn 0.9980 0.0622 0.0140
vn 0.9490 0.3130 -0.0366
vn 0.7293 -0.1461 0.6684
vn 0.0293 0.9148 -0.4029
vn 0.0312 0.9123 -0.4083
vn 0.0248 0.9118 -0.4099
vn -0.0674 0.9900 -0.1243
vn 0.5193 -0.7130 -0.4711
vn 0.1450 0.6879 -0.7112
vn 0.7807 0.5858 0.2176
vn 0.7807 0.5858 0.2175
vn 0.7584 0.6076 0.2360
vn 0.9939 0.1090 0.0172
vn -0.0887 0.0061 -0.9960
vn -0.0883 0.0067 -0.9961
vn -0.0889 0.0058 -0.9960
vn -0.0895 0.0050 -0.9960
vn -0.0044 1.0000 0.0075
vn -0.0066 0.9999 0.0086
vn -0.0027 1.0000 0.0066
vn -0.0023 1.0000 0.0064
vn -0.9999 0.0002 0.0123
vn -0.9999 0.0034 0.0116
vn -0.9999 0.0006 0.0158
vn 0.0139 0.9999 0.0052
vn 0.0093 0.9999 0.0098
vn 0.0091 0.9999 0.0146
vn 0.0186 0.9998 0.0069
vn 0.0100 -0.0031 -0.9999
vn 0.0093 -0.0085 -0.9999
vn 0.0092 -0.0079 -0.9999
vn 0.0069 -0.0131 -0.9999
vn -0.0052 0.9999 -0.0141
vn -0.0089 0.9999 -0.0101
vn -0.0069 0.9999 -0.0122
vn -0.0050 0.9999 -0.0143
vn -0.4820 0.6553 0.5815
vn 0.0173 0.9997 -0.0164
vn 0.0191 0.9997 -0.0126
vn 0.0225 0.9995 -0.0243
vn 0.0154 0.9995 -0.0285
vn 0.9997 0.0243 0.0003
vn 0.9997 0.0232 -0.0001
vn 0.9998 0.0220 -0.0005
vn 0.9997 0.0229 -0.0002
vn 0.0020 0.6977 0.7164
vn 1.0000 -0.0043 -0.0036
vn 1.0000 -0.0033 0.0030
vn 0.9999 -0.0099 0.0032
vn 0.0438 0.9988 0.0237
vn 0.0439 0.9988 0.0237
vn 0.0068 0.9999 -0.0114
vn 0.0067 0.9999 -0.0114
vn 0.0247 -0.0125 -0.9996
vn 0.0266 -0.0123 -0.9996
vn 0.0220 -0.0128 -0.9997
vn 0.8060 0.5917 0.0167
vn 0.0110 0.9998 0.0170
vn 0.0096 0.9999 0.0096
vn 0.0048 0.9999 0.0106
vn 0.0025 0.9999 0.0123
vn -0.6747 0.3171 0.6665
vn 0.1437 0.9889 0.0389
vn 0.0936 0.9955 0.0168
vn -0.9996 0.0270 0.0072
vn -0.9996 0.0283 0.0067
vn -0.9997 0.0234 0.0086
vn -0.9997 0.0219 0.0092
vn -0.9998 0.0177 0.0019
vn -0.9998 0.0191 0.0009
vn -0.9999 0.0163 0.0035
vn -0.9999 0.0153 0.0047
vn -1.0000 -0.0025 -0.0096
vn -1.0000 0.0037 0.0015
vn -1.0000 -0.0084 0.0009
vn -0.0059 0.0083 -0.9999
vn -0.0068 0.0040 -1.0000
vn -0.0082 0.0146 -0.9999
vn -0.0028 0.0036 -1.0000
vn -0.0016 -0.0060 1.0000
vn -0.0037 0.0034 1.0000
vn 0.0007 0.0065 1.0000
vn 0.9997 0.0127 -0.0207
vn 0.9997 0.0120 -0.0194
vn 0.9997 0.0128 -0.0210
vn 0.9997 0.0134 -0.0222
vn 0.0213 0.0283 -0.9994
vn 0.0175 0.0307 -0.9994
vn 0.0183 0.0302 -0.9994
vn 0.0217 0.0280 -0.9994
vn 1.0000 -0.0017 -0.0074
vn 0.9998 0.0110 -0.0140
vn -0.0135 0.9999 0.0045
vn -0.0153 0.9999 -0.0015
vn -0.0020 1.0000 -0.0078
vn -0.0158 0.9998 -0.0139
vn -0.9988 0.0290 0.0388
vn -0.9981 0.0466 0.0403
vn -0.0171 0.0018 -0.9999
vn -0.0168 0.0095 -0.9998
vn -0.0131 0.0056 -0.9999
vn -0.0130 0.0033 -0.9999
vn 0.9977 0.0566 0.0379
vn 0.9975 0.0665 0.0243
vn 0.9982 0.0536 0.0257
vn -0.0023 0.0097 1.0000
vn -0.0001 0.0518 0.9987
vn -0.0317 0.0177 0.9993
vn -0.0410 0.0864 0.9954
vn 0.0033 0.0056 1.0000
vn 0.0147 0.0035 0.9999
vn 0.0039 0.0047 1.0000
vn 0.0043 0.0065 1.0000
vn -0.0136 0.9997 0.0213
vn -0.0105 0.9996 0.0263
vn -0.0105 0.9996 0.0258
vn -0.0081 0.9997 0.0231
vn -0.0056 0.9999 -0.0098
vn -0.0064 0.9999 -0.0105
vn -0.0058 0.9999 -0.0100
vn -0.0051 0.9999 -0.0094
vn -0.1021 0.9946 -0.0201
vn 0.0523 0.9799 0.1926
vn -1.0000 -0.0001 -0.0083
vn -1.0000 0.0064 -0.0054
vn -0.9999 0.0126 -0.0080
vn -1.0000 0.0030 -0.0091
vn -0.0059 0.9998 -0.0193
vn -0.0065 0.9998 -0.0195
vn -0.0026 0.9998 -0.0185
vn -0.0015 0.9998 -0.0182
vn -0.0140 0.0088 0.9999
vn -0.0033 0.0074 1.0000
vn -0.0126 0.0098 0.9999
vn -0.0169 0.0171 0.9997
vn -0.0151 0.0254 0.9996
vn -0.0094 0.0309 0.9995
vn -0.0103 0.0289 0.9995
vn -0.0116 0.0328 0.9994
vn 0.9997 0.0004 0.0231
vn 0.9997 0.0005 0.0233
vn 0.9998 -0.0015 0.0216
vn 0.9998 -0.0016 0.0214
vn -0.9999 0.0136 -0.0086
vn -0.9998 0.0185 -0.0119
vn -0.9998 0.0205 -0.0079
vn -0.0136 0.9999 0.0068
vn -0.0075 0.9999 0.0126
vn -0.0171 0.9999 -0.0011
vn -0.0111 0.9999 0.0095
vn 0.0158 0.9998 -0.0116
vn 0.0116 0.9999 -0.0051
vn 0.0124 0.9999 -0.0064
vn 0.0163 0.9998 -0.0124
vn 0.9931 0.0912 0.0734
vn 0.9998 -0.0094 0.0167
vn 0.9998 -0.0094 0.0168
vn -0.9998 0.0133 0.0138
vn -0.9998 0.0133 0.0137
vn -0.9998 0.0158 0.0156
vn 0.0271 0.6861 0.7270
vn -0.0386 0.6886 0.7241
vn -0.0019 0.5794 0.8151
vn 0.0135 0.6164 0.7873
vn -0.5403 0.7918 0.2848
vn 0.0242 0.9997 0.0078
vn 0.0219 0.9997 0.0119
vn 0.0267 0.9996 0.0115
vn 0.0257 0.9996 0.0153
vn 0.0044 0.0064 1.0000
vn -0.0003 0.0123 0.9999
vn -0.0127 0.0121 0.9998
vn -0.0068 0.0256 0.9997
vn 0.0036 0.0176 0.9998
vn 0.0018 0.0111 0.9999
vn -0.0017 0.0389 0.9992
vn 0.0264 0.0203 0.9994
vn -0.0159 0.9994 0.0319
vn -0.0147 0.9995 0.0285
vn -0.0142 0.9992 0.0372
vn -0.0108 0.9994 0.0324
vn 0.0203 0.9998 -0.0055
vn 0.0161 0.9998 -0.0097
vn 0.0067 1.0000 -0.0073
vn 0.0115 0.9999 -0.0087
vn 0.9962 -0.0839 0.0242
vn 0.9968 -0.0779 0.0186
vn 0.9979 -0.0620 0.0175
vn 0.9977 -0.0581 0.0354
vn -0.0651 0.9964 -0.0551
vn -0.0261 0.9994 -0.0243
vn -0.0275 0.9992 -0.0288
vn -0.0041 0.9998 0.0180
vn 0.0026 0.9998 0.0176
vn -0.0041 0.9998 0.0185
vn 0.0072 0.9998 0.0206
vn 0.7784 0.6278 0.0035
vn 0.6225 0.6506 -0.4350
vn -0.9969 0.0696 -0.0357
vn -0.9953 0.0927 -0.0268
vn -0.0307 0.9977 -0.0612
vn -0.0307 0.9977 -0.0611
vn -0.0383 0.9981 -0.0489
vn 0.9984 0.0511 0.0262
vn 0.9995 0.0240 0.0221
vn 0.9993 0.0288 0.0227
vn 0.9983 0.0489 0.0317
vn -0.0066 -0.0141 -0.9999
vn -0.8245 0.4048 0.3954
vn 0.0018 0.0059 -1.0000
vn 0.0101 0.0124 -0.9999
vn 0.0095 0.0104 -0.9999
vn 0.0075 0.0120 -0.9999
vn -0.0027 0.6964 0.7176
vn -0.0003 0.6955 0.7186
vn 0.0017 0.6968 0.7173
vn 0.0143 0.0195 0.9997
vn 0.0136 0.0190 0.9997
vn 0.0140 0.0193 0.9997
vn 0.0147 0.0198 0.9997
vn -0.0102 0.0290 -0.9995
vn -0.0078 0.0268 -0.9996
vn -0.0131 0.0288 -0.9995
vn -0.0104 0.0287 -0.9995
vn -0.0870 0.9957 0.0315
vn -0.0725 0.9969 0.0313
vn -0.0343 0.9994 0.0001
vn -0.0633 0.9980 0.0020
vn 0.0046 0.0127 0.9999
vn 0.0072 0.0071 0.9999
vn 0.0090 0.0237 0.9997
vn 0.0025 0.0130 0.9999
vn 0.0204 0.0510 -0.9985
vn 0.0203 0.0487 -0.9986
vn 0.0211 0.0500 -0.9985
vn 0.0292 0.0427 -0.9987
vn -0.9999 -0.0078 -0.0078
vn -0.9998 -0.0171 -0.0114
vn -0.9998 -0.0150 -0.0106
vn -1.0000 -0.0063 -0.0072
vn 0.0537 0.9985 0.0082
vn -0.0610 0.9666 0.2488
vn 0.5990 0.4886 -0.6344
vn -0.0053 0.9996 0.0264
vn -0.0104 0.9994 0.0344
vn -0.0045 0.9994 0.0349
vn -0.0055 0.9995 0.0310
vn 0.0266 0.9996 -0.0015
vn 0.0172 0.9998 0.0046
vn 0.0267 0.9996 -0.0015
vn 0.0272 0.9996 -0.0019
vn -0.0721 -0.0417 -0.9965
vn -0.0771 -0.0250 -0.9967
vn -0.0041 0.0294 -0.9996
vn -0.0259 -0.0010 -0.9997
vn -0.0141 0.9113 -0.4115
vn -0.0183 0.8972 -0.4412
vn -0.9998 0.0220 -0.0035
vn 0.9997 0.0166 -0.0163
vn 0.9998 0.0147 -0.0165
vn 0.9997 0.0156 -0.0164
vn 0.9997 0.0178 -0.0162
vn -0.0859 0.9958 -0.0308
vn 0.1629 0.9672 -0.1950
vn -0.0110 0.9999 0.0060
vn -0.0791 0.9949 0.0631
vn 0.0114 0.9999 0.0110
vn 0.0148 0.9998 0.0096
vn 0.0111 0.9999 0.0076
vn 0.0117 0.9999 0.0124
vn 0.0039 0.9999 0.0139
vn 0.0042 0.9999 0.0131
vn 0.0052 0.9998 0.0175
vn 0.0030 0.9999 0.0140
vn 0.0000 -0.0005 1.0000
vn -0.0018 -0.0002 1.0000
vn 0.0004 0.0046 1.0000
vn -0.0008 0.0032 1.0000
vn -1.0000 -0.0011 0.0029
vn -1.0000 -0.0073 0.0036
vn -0.9998 -0.0084 0.0165
vn -0.9999 -0.0120 0.0083
vn -0.0298 0.9983 0.0498
vn 0.0051 -0.0084 -1.0000
vn 0.0128 -0.0173 -0.9998
vn 0.0129 -0.0173 -0.9998
vn -0.9999 0.0128 -0.0108
vn -0.9999 0.0126 -0.0109
vn -0.9999 0.0084 -0.0089
vn -0.9999 0.0088 -0.0089
vn -0.0165 0.0128 -0.9998
vn -0.0168 0.0126 -0.9998
vn -0.0147 0.0141 -0.9998
vn -0.0170 0.0154 -0.9997
vn 0.0033 0.0109 0.9999
vn -0.0021 0.0097 1.0000
vn 0.0395 0.0158 0.9991
vn 0.0003 -0.0150 0.9999
vn 0.0126 0.9999 -0.0108
vn 0.0187 0.9998 -0.0049
vn 0.0183 0.9998 -0.0098
vn 0.0188 0.9998 -0.0114
vn 0.0091 0.0267 -0.9996
vn 0.0090 0.0270 -0.9996
vn -0.0136 0.0743 -0.9971
vn 0.0120 0.0417 -0.9991
vn -0.7808 -0.0391 -0.6236
vn 0.9963 -0.0563 -0.0654
vn -0.0593 0.6174 0.7844
vn -0.0115 0.5518 0.8339
vn 0.0107 0.5789 0.8153
vn 1.0000 0.0021 0.0047
vn 0.9971 -0.0179 0.0735
vn -0.5723 0.5613 -0.5979
vn 0.7184 -0.0564 0.6934
vn -0.0287 0.5087 -0.8605
vn -0.6523 -0.4033 0.6418
vn -0.8795 0.4748 0.0334
vn -0.6874 0.3211 0.6515
vn -0.0050 0.6938 0.7201
vn -0.0071 0.6925 0.7214
vn -0.0025 0.6930 0.7209
vn -0.0012 0.6854 0.7281
vn 0.0021 0.5968 -0.8024
vn 0.0042 0.6018 -0.7987
vn 0.0073 0.5982 -0.8013
vn -0.8667 0.4987 0.0090
vn -0.8833 0.4679 -0.0276
vn 0.0250 0.5230 -0.8520
vn -0.7213 -0.0508 0.6908
vn 0.8269 -0.0243 0.5619
vn 0.9994 0.0265 0.0242
vn 0.9994 0.0302 0.0195
vn 0.9994 0.0296 0.0203
vn 0.9994 0.0259 0.0249
g Block_S_1_Block_S_1_Collor_Material
usemtl Collor_Material
s off
f 174/1/1 105/2/1 37/3/1
f 119/4/2 120/5/2 191/6/2
f 25/7/3 26/8/3 117/9/3
f 105/10/4 176/11/5 107/12/6
f 9/13/7 14/14/7 4/15/7
f 163/16/8 148/17/8 57/18/8
f 164/19/9 145/20/9 84/21/9
f 107/22/10 177/23/11 106/24/12
f 124/25/13 126/26/13 54/27/14 78/28/14
f 135/29/15 171/30/15 36/31/15
f 168/32/16 101/33/16 79/34/16
f 13/35/17 15/36/17 2/37/17
f 186/38/18 114/39/19 12/40/20
f 6/41/21 17/42/21 1/43/21
f 1/44/22 30/45/22 5/46/22
f 173/47/23 136/48/24 67/49/25
f 113/50/26 31/51/26 72/52/26
f 70/53/27 41/54/27 71/55/27
f 70/56/28 39/57/28 40/58/28
f 44/59/29 87/60/30 45/61/31
f 87/62/32 46/63/33 45/64/33
f 88/65/34 47/66/34 46/67/34
f 106/68/35 175/69/35 107/70/35
f 148/71/36 167/72/36 100/73/36
f 102/74/37 59/75/37 169/76/37
f 127/77/38 194/78/38 133/79/38
f 156/80/39 141/81/39 96/82/39
f 96/83/40 89/84/41 95/85/42
f 93/86/43 86/87/44 92/88/45
f 139/89/46 42/90/46 187/91/46
f 65/92/47 33/93/47 32/94/47
f 62/95/48 36/96/49 35/97/50
f 39/98/51 56/99/51 57/100/51
f 37/101/52 56/102/53 38/103/54
f 81/104/55 76/105/56 75/106/57
f 83/107/58 78/108/59 77/109/60
f 108/110/61 93/111/62 92/112/63
f 101/113/64 169/114/64 170/115/64
f 100/116/65 167/117/65 99/118/65
f 98/119/66 164/120/66 97/121/66
f 99/122/67 147/123/68 82/124/69
f 23/125/70 140/126/71 187/127/72 10/128/73
f 73/129/74 50/130/75 49/131/76
f 74/132/77 51/133/78 50/134/79
f 181/135/80 61/136/80 144/137/80
f 137/138/81 138/139/82 156/140/82 155/141/83
f 178/142/84 143/143/85 94/144/86
f 34/145/87 68/146/88 69/147/89
f 137/148/90 66/149/90 31/150/90
f 91/151/91 120/152/91 159/153/91
f 63/154/92 109/155/92 180/156/92
f 99/157/93 166/158/93 100/159/93
f 162/160/94 123/161/95 122/162/96
f 168/163/97 102/164/97 101/165/97
f 163/166/98 97/167/98 83/168/98
f 165/169/99 99/170/99 81/171/99
f 171/172/100 134/173/100 29/174/100
f 177/175/101 174/176/101 16/177/101
f 109/178/102 178/179/102 108/180/102
f 121/181/103 123/182/103 161/183/103
f 179/184/104 109/185/104 108/186/104
f 37/187/105 67/188/106 136/189/107 174/190/108
f 111/191/109 112/192/109 183/193/109
f 115/194/110 116/195/110 187/196/110
f 155/197/111 154/198/111 182/199/111
f 187/200/112 116/201/112 19/202/112
f 123/203/113 121/204/113 122/205/113
f 124/206/114 125/207/114 126/208/114
f 157/209/115 134/210/115 135/211/115
f 162/212/116 145/213/117 146/214/118
f 174/215/119 176/216/119 105/217/119
f 104/218/120 18/219/120 172/220/120
f 141/221/121 189/222/121 118/223/121
f 12/224/122 114/225/123 185/226/124
f 189/227/125 141/228/125 117/229/125
f 37/230/126 105/231/127 107/232/128
f 21/233/129 125/234/129 192/235/129
f 125/236/130 193/237/130 192/238/130
f 28/239/131 27/240/131 15/241/131
f 83/242/132 97/243/132 164/244/132
f 107/245/133 176/246/134 177/247/135
f 61/248/136 181/249/136 158/250/136
f 161/251/137 123/252/137 162/253/137
f 103/254/138 36/255/138 171/256/138
f 152/257/139 194/258/139 153/259/139
f 9/260/140 10/261/141 19/262/142
f 21/263/143 22/264/143 16/265/143
f 27/266/144 28/267/144 18/268/144
f 90/269/145 118/270/145 190/271/145
f 17/272/146 18/273/147 29/274/148
f 139/275/149 185/276/149 72/277/149
f 185/278/150 113/279/150 72/280/150
f 71/281/151 41/282/152 42/283/153
f 70/284/154 40/285/154 41/286/154
f 70/287/155 69/288/155 39/289/155
f 131/290/156 190/291/157 7/292/158
f 170/293/159 150/294/160 149/295/161
f 44/296/162 86/297/163 87/298/164
f 87/299/165 88/300/165 46/301/165
f 88/302/166 89/303/167 47/304/168
f 96/305/169 183/306/170 154/307/171 156/308/172
f 60/309/173 59/310/174 102/311/175
f 59/312/176 150/313/176 169/314/176
f 58/315/177 100/316/177 166/317/177
f 96/318/178 90/319/179 89/320/180
f 95/321/181 89/322/182 88/323/183
f 93/324/184 87/325/185 86/326/186
f 79/327/187 194/328/187 152/329/187 168/330/187
f 69/331/188 32/332/188 33/333/188
f 63/334/189 62/335/190 35/336/191
f 127/337/192 19/338/192 188/339/192
f 19/340/193 116/341/193 188/342/193
f 188/343/194 151/344/194 127/345/194
f 127/346/195 151/347/195 153/348/195
f 39/349/196 38/350/196 56/351/196
f 82/352/197 83/353/197 77/354/197
f 109/355/198 63/356/198 64/357/198
f 101/358/199 102/359/199 169/360/199
f 80/361/200 79/362/201 101/363/202
f 99/364/203 167/365/203 147/366/203
f 73/367/204 74/368/205 50/369/206
f 74/370/207 75/371/207 51/372/207
f 77/373/208 53/374/208 52/375/208
f 174/376/209 136/377/209 16/378/209
f 61/379/210 62/380/210 144/381/210
f 93/382/211 108/383/212 94/384/213
f 108/385/214 178/386/214 94/387/214
f 113/388/215 114/389/215 186/390/215
f 33/391/216 34/392/217 69/393/218
f 36/394/219 67/395/220 68/396/221
f 115/397/222 60/398/223 188/399/224
f 102/400/225 168/401/225 152/402/225
f 152/403/226 151/404/226 102/405/226
f 96/406/227 141/407/228 118/408/229 90/409/230
f 160/410/231 157/411/231 159/412/231
f 157/413/232 158/414/232 159/415/232
f 31/416/233 113/417/233 186/418/233
f 186/419/234 137/420/234 31/421/234
f 160/422/235 159/423/235 120/424/235
f 110/425/236 91/426/237 159/427/238
f 99/428/239 165/429/239 166/430/239
f 29/431/240 18/432/240 104/433/240
f 104/434/241 171/435/241 29/436/241
f 16/437/242 22/438/242 177/439/242
f 22/440/243 106/441/243 177/442/243
f 141/443/244 156/444/244 138/445/244
f 175/446/245 106/447/246 22/448/247
f 179/449/248 180/450/248 109/451/248
f 110/452/249 144/453/250 91/454/251
f 19/455/252 10/456/253 187/457/253
f 94/458/254 143/459/255 184/460/256
f 184/461/257 111/462/258 95/463/259
f 84/464/260 122/465/260 192/466/260
f 124/467/261 192/468/261 193/469/261
f 157/470/262 160/471/263 119/472/264
f 174/473/265 177/474/265 176/475/265
f 160/476/266 120/477/266 119/478/266
f 170/479/267 169/480/268 150/481/269
f 98/482/270 163/483/270 57/484/270
f 124/485/271 193/486/271 125/487/271
f 163/488/272 98/489/272 97/490/272
f 104/491/273 172/492/274 173/493/275 103/494/275
f 21/495/276 121/496/276 22/497/276
f 133/498/277 73/499/278 49/500/279 132/501/280
f 39/502/281 57/503/282 58/504/283 40/505/284
f 14/506/285 9/507/286 19/508/287 20/509/285
f 40/510/288 58/511/289 59/512/290 41/513/291
f 101/514/292 170/515/293 149/516/294 80/517/295
f 100/518/296 58/519/297 57/520/298 148/521/299
f 184/522/300 112/523/300 111/524/300
f 173/525/301 67/526/302 36/527/303 103/528/304
f 13/529/305 126/530/306 125/531/307 21/532/308
f 179/533/309 144/534/309 180/535/309
f 17/536/310 27/537/311 18/538/312
f 180/539/313 144/540/314 62/541/315 63/542/316
f 82/543/317 77/544/318 52/545/317 76/546/319
f 172/547/320 136/548/320 173/549/320
f 34/550/321 33/551/322 63/552/323 35/553/324
f 190/554/325 118/555/325 117/556/325
f 162/557/326 107/558/327 175/559/327 161/560/326
f 23/561/328 12/562/329 185/563/330 140/564/331
f 7/565/332 190/566/333 117/567/334 26/568/335
f 20/569/336 133/570/337 132/571/338 14/572/338
f 164/573/339 84/574/340 78/575/341 83/576/342
f 85/577/343 44/578/344 43/579/345
f 1/580/346 17/581/347 29/582/348 30/583/349
f 163/584/350 83/585/351 82/586/352 147/587/353
f 172/588/354 18/589/354 28/590/355 136/591/355
f 157/592/356 135/593/357 61/594/358 158/595/359
f 141/596/360 138/597/360 25/598/361 117/599/361
f 78/600/362 54/601/363 53/602/364 77/603/365
f 157/604/366 29/605/367 134/606/368
f 130/607/369 48/608/370 90/609/371 190/610/372
f 191/611/373 85/612/374 43/613/375 129/614/376
f 71/615/377 42/616/378 139/617/379 72/618/380
f 69/619/381 68/620/382 38/621/383 39/622/384
f 142/623/385 64/624/386 112/625/386 184/626/385
f 10/627/387 9/628/388 24/629/389 23/630/390
f 98/631/391 57/632/392 56/633/393 55/634/394
f 91/635/395 144/636/396 92/637/397 85/638/398
f 94/639/399 184/640/400 95/641/401 88/642/402
f 6/643/403 2/644/404 15/645/405 27/646/406
f 127/647/407 133/648/408 20/649/409 19/650/407
f 36/651/410 62/652/411 61/653/412 135/654/413
f 150/655/414 59/656/415 58/657/416 166/658/417
f 30/659/418 191/660/418 128/661/419 5/662/420
f 3/663/421 11/664/422 24/665/423 8/666/423
f 110/667/424 159/668/425 158/669/426 181/670/427
f 115/671/428 188/672/428 116/673/428
f 37/674/429 107/675/430 55/676/431 56/677/432
f 86/678/433 44/679/434 85/680/435 92/681/436
f 95/682/437 111/683/438 183/684/439 96/685/440
f 69/686/441 70/687/442 71/688/443 32/689/444
f 42/690/445 41/691/446 59/692/447 60/693/448
f 161/694/449 175/695/450 22/696/451 121/697/452
f 102/698/453 151/699/453 188/700/454 60/701/455
f 35/702/456 36/703/457 68/704/458 34/705/459
f 134/706/460 171/707/460 135/708/460
f 103/709/461 171/710/461 104/711/461
f 25/712/462 138/713/462 186/714/463 12/715/463
f 31/716/464 66/717/465 65/718/466 32/719/466
f 157/720/467 119/721/468 30/722/469 29/723/470
f 165/724/471 81/725/471 80/726/471 149/727/471
f 185/728/472 114/729/472 113/730/472
f 124/731/473 78/732/474 84/733/475 192/734/476
f 143/735/477 178/736/478 142/737/479
f 94/738/480 88/739/481 87/740/482 93/741/483
f 80/742/484 81/743/485 75/744/486 74/745/487
f 115/746/488 187/747/489 42/748/490 60/749/491
f 120/750/492 91/751/493 85/752/494 191/753/495
f 162/754/496 122/755/497 84/756/498 145/757/499
f 26/758/500 25/759/501 12/760/502 11/761/503
f 64/762/504 142/763/504 178/764/505 109/765/505
f 121/766/506 192/767/506 122/768/506
f 32/769/507 71/770/508 72/771/509 31/772/510
f 107/773/511 162/774/512 146/775/513 55/776/514
f 73/777/515 133/778/516 194/779/517 79/780/518
f 165/781/519 149/782/519 150/783/520 166/784/520
f 24/785/521 9/786/521 4/787/521 8/788/521
f 15/789/522 13/790/523 21/791/524 16/792/525
f 55/793/526 146/794/526 164/795/527 98/796/527
f 182/797/528 66/798/528 137/799/529 155/800/529
f 33/801/530 65/802/531 64/803/532 63/804/533
f 112/805/534 64/806/535 65/807/536 66/808/537
f 92/809/538 144/810/539 179/811/540 108/812/541
f 12/813/542 23/814/543 24/815/544 11/816/545
f 66/817/546 183/818/546 112/819/546
f 51/820/547 75/821/547 76/822/548 52/823/549
f 26/824/550 11/825/551 3/826/552 7/827/553
f 76/828/554 81/829/555 99/830/556 82/831/557
f 47/832/558 89/833/559 90/834/560 48/835/561
f 67/836/562 37/837/563 38/838/564 68/839/565
f 80/840/566 74/841/567 73/842/568 79/843/569
f 153/844/570 194/845/570 127/846/570
f 21/847/571 192/848/571 121/849/571
f 110/850/572 181/851/573 144/852/574
f 17/853/575 6/854/575 27/855/575
f 119/856/576 191/857/576 30/858/576
f 151/859/577 152/860/577 153/861/577
f 129/862/578 128/863/578 191/864/578
f 147/865/579 148/866/579 163/867/579
f 117/868/580 118/869/580 189/870/580
f 187/871/581 140/872/581 139/873/581
f 156/874/582 154/875/582 155/876/582
f 184/877/583 143/878/584 142/879/585
f 183/880/586 182/881/586 154/882/586
f 146/883/587 145/884/588 164/885/589
f 138/886/590 137/887/590 186/888/590
f 139/889/591 140/890/591 185/891/591
f 148/892/592 147/893/592 167/894/592
f 190/895/593 131/896/593 130/897/593
f 66/898/594 182/899/594 183/900/594
f 15/901/595 16/902/596 136/903/597 28/904/598
