# Blender v3.0.0 OBJ File: 'aa.blend'
# www.blender.org
mtllib Block_S_2.mtl
o Block_S_2
v 0.405043 0.000001 2.106981
v -0.034178 1.671982 -0.087713
v 2.160070 0.000000 0.108741
v -2.237257 0.000000 0.233820
v -0.033703 -0.000001 -2.296935
v -2.232445 -0.000001 -2.285420
v -0.034006 1.677132 -0.817579
v 0.339178 1.697858 -1.557777
v -2.231659 -0.000000 -0.686983
v -2.216196 -0.000001 -1.550472
v 2.160070 -0.000001 -1.181813
v 2.167225 -0.000001 -1.550463
v 0.231319 1.690594 1.052346
v 0.152101 1.668259 0.390462
v 2.154743 0.000001 1.541994
v 2.160070 0.000000 0.392093
v -2.228300 0.000001 0.900602
v -2.225460 0.000001 1.720161
v -0.316809 0.483561 2.122728
v 0.105715 1.107271 2.095029
v 2.176162 0.940385 -0.389445
v 2.165836 0.295922 0.027158
v -2.198952 1.306305 0.209300
v -2.190901 0.896424 0.021077
v -0.125443 0.878126 -2.288550
v 0.125015 0.439531 -2.280917
v -2.259014 1.173114 -0.625472
v -2.204821 0.443044 -0.812811
v -2.249321 0.935670 -1.582154
v -2.196793 0.338970 -1.415396
v 2.156914 0.370413 -0.897286
v 2.168842 1.286050 -1.193591
v 2.150461 0.606518 -1.549414
v 2.167534 1.191949 -1.753400
v -2.228798 1.152126 1.373076
v -2.193834 0.355508 1.400844
v -2.233547 1.455715 0.740605
v -2.203121 0.687268 0.427098
v 2.146120 1.037993 0.680127
v 2.147930 0.597560 0.629583
v 2.146698 1.342454 1.576619
v 2.154617 0.460231 1.161128
v -0.852327 0.000001 2.106428
v -1.676556 0.000001 2.116785
v -1.749365 1.672974 -0.087570
v -0.480705 1.677585 -0.087577
v -1.735451 -0.000001 -2.274819
v -0.522259 -0.000001 -2.278813
v -0.638340 1.682350 -0.630495
v -1.316982 1.648363 -1.308105
v -0.585367 1.666880 -1.259425
v -1.667490 1.664106 -1.925643
v -0.809105 1.675740 1.548655
v -1.671577 1.694840 1.217536
v -0.597096 1.674739 0.861743
v -1.212990 1.677114 0.642933
v -1.128466 0.858325 -2.246789
v -1.489059 1.137126 -2.284625
v -0.666170 0.221056 -2.279927
v -1.699921 0.397896 -2.248963
v -0.791225 0.588566 2.122617
v -1.495743 0.301988 2.099666
v -0.740351 1.140417 2.099444
v -1.494169 1.338200 2.117709
v 0.888412 1.677607 -0.347642
v 1.634342 1.681084 -0.088046
v 0.947500 0.000001 2.113180
v 1.788559 0.000001 2.108886
v 1.517622 -0.000001 -2.273852
v 0.697458 -0.000001 -2.290087
v 1.775108 1.663947 -0.649293
v 0.696405 1.676241 -0.817390
v 1.697542 1.646308 -1.318961
v 0.836351 1.679243 -1.874166
v 0.696127 1.695186 0.643414
v 1.401649 1.685732 0.613795
v 0.985420 1.654748 1.622939
v 1.758862 1.636849 1.251923
v 0.691128 0.605925 -2.269797
v 1.399628 0.440321 -2.250918
v 0.725754 1.139941 -2.294698
v 1.604866 1.294728 -2.296764
v 1.675703 0.508298 2.094215
v 0.920509 0.300293 2.107948
v 1.412287 1.134646 2.131938
v 0.819109 1.426110 2.098456
v 0.683571 1.655148 1.971751
v -0.877358 1.667520 1.845355
v -0.894457 1.559749 2.098607
v -1.533236 1.676411 2.015017
v -2.075542 0.683154 2.090175
v -2.199327 0.690661 1.949809
v -2.115589 1.652054 -0.655092
v -2.238114 1.534781 -0.583043
v -2.232125 1.587043 0.778493
v -2.134296 1.678241 0.788107
v -0.840490 1.574870 -2.257997
v -0.777603 1.679273 -2.172517
v 0.821497 1.669057 -2.183511
v 0.847336 1.574734 -2.289294
v -2.209725 0.432769 -2.154553
v -2.100956 0.436258 -2.254332
v 2.158491 1.496375 -0.907851
v 2.041832 1.664423 -0.662158
v 1.982355 1.694695 0.393214
v 2.149387 1.511797 0.415427
v 2.031814 1.648972 1.062270
v 2.143467 1.642544 1.126170
v 2.146898 0.592595 1.996736
v 2.007101 0.577776 2.096117
v -0.250202 1.637636 2.066050
v -0.311640 1.659719 2.085982
v 2.192697 0.000001 1.980617
v 2.099680 0.000001 2.115938
v 2.055385 1.670359 -0.278924
v 2.156971 1.551093 -0.335101
v -2.140087 0.000001 2.127130
v -2.245865 0.000001 2.041176
v -2.219815 1.606555 -0.037942
v -2.049091 1.677460 -0.087833
v 2.088247 -0.000001 -2.318511
v 2.159891 -0.000001 -2.146700
v -2.219280 1.568193 -1.464284
v -2.141628 1.670561 -1.515746
v 2.116516 1.655518 -1.805728
v 2.160789 1.633773 -1.842891
v -2.195080 1.631902 1.574031
v -2.184681 1.676263 1.564515
v -2.224350 1.314395 1.992560
v -2.133537 1.346025 2.108760
v 2.060747 1.372174 -2.293269
v 2.138796 1.395173 -2.239719
v 2.115631 0.781353 -2.264228
v 2.140447 0.770002 -2.158526
v -2.176500 1.395687 -2.282768
v -2.223797 1.392178 -2.208715
v -1.308117 1.675274 -2.240319
v -1.278526 1.632232 -2.290427
v 1.444368 1.634345 -2.282085
v 1.437023 1.678843 -2.237510
v -2.227305 1.508323 2.065989
v -2.189693 1.506218 2.107037
v -2.058741 1.647725 2.093491
v -2.194149 1.670126 1.935876
v -1.773952 1.683198 -2.248342
v -2.225579 1.616039 -1.845367
v -2.176668 1.674217 -1.813880
v 1.787256 1.685901 2.066201
v 1.758524 1.630781 2.101496
v 1.807127 1.642771 2.102286
v 2.124332 1.139704 2.104413
v 2.152979 1.154616 2.071851
v 2.163574 1.178110 2.105365
v 2.157730 1.604605 1.988623
v 1.938757 1.633729 -2.278003
v 1.875871 1.673174 -2.238336
v 2.116472 1.672980 -1.982099
v 2.153221 1.633866 -2.046508
v 2.160148 1.562022 -2.244449
v 2.115814 1.563420 -2.274774
v 0.770956 1.585848 2.103663
v 0.725000 1.665406 2.051549
v 0.489094 1.669539 2.060488
v 0.469625 1.628348 2.093602
v -1.007509 1.672900 2.062777
v -1.000547 1.633987 2.101159
v -1.654785 1.682472 1.964888
v -1.548626 1.591669 2.103444
v -1.521259 1.633667 2.104054
v -1.511719 1.675029 2.063172
v -2.175098 0.860042 2.094226
v -2.209919 0.862637 2.051736
v -2.211270 0.632884 2.055604
v -2.171722 0.633048 2.092437
v -2.231032 1.641397 -0.513053
v -2.181774 1.663611 -0.548290
v -2.193741 1.678509 -0.651325
v -2.232876 1.630842 -0.629573
v -2.181484 1.671313 0.747038
v -2.240822 1.640683 0.740918
v -0.757662 1.674745 -2.240260
v -0.782873 1.632180 -2.273460
v -0.848057 1.636046 -2.277442
v -0.825087 1.670878 -2.236278
v 0.913235 1.672236 -2.237340
v 0.927608 1.634349 -2.279113
v -0.311962 1.634545 -2.280854
v -0.285671 1.687809 -2.240621
v -2.233361 0.592878 -2.227562
v -2.149366 0.491199 -2.245322
v 2.116512 1.673077 -0.591152
v 2.156780 1.608690 -0.682748
v 2.116512 1.673077 -0.740585
v 2.155788 1.635321 0.271042
v 2.115682 1.681742 0.263150
v 2.110084 1.656838 0.415667
v 2.160663 1.652967 0.421918
v 2.039819 1.631865 1.482644
v 2.152057 1.599242 1.521102
v 2.107139 0.533230 2.095005
v 2.139410 0.548118 2.047468
v 2.147779 0.712111 2.053876
v 2.122122 0.728967 2.085119
vt 0.295208 0.654090
vt 0.295208 0.762302
vt 0.252612 0.712878
vt 0.831706 0.570568
vt 0.831706 0.668232
vt 0.789826 0.615651
vt 0.665360 0.981476
vt 0.661433 0.936727
vt 0.665360 0.934988
vt 0.563604 0.471535
vt 0.571841 0.461003
vt 0.571841 0.480989
vt 0.400347 0.551931
vt 0.400347 0.632432
vt 0.386978 0.554537
vt 0.590919 0.857432
vt 0.575449 0.842893
vt 0.590919 0.802550
vt 0.663925 0.586958
vt 0.654201 0.578114
vt 0.663925 0.554482
vt 0.931160 0.316966
vt 0.895885 0.271350
vt 0.931160 0.242143
vt 0.886531 0.597650
vt 0.922120 0.570568
vt 0.922120 0.646448
vt 0.915232 0.646145
vt 0.071571 0.372992
vt 0.071571 0.482133
vt 0.027484 0.472952
vt 0.002532 0.409201
vt 0.367745 0.849326
vt 0.308291 0.809107
vt 0.367745 0.785062
vt 0.626153 0.126504
vt 0.615006 0.113545
vt 0.626153 0.095275
vt 0.368053 0.236936
vt 0.368053 0.247042
vt 0.365480 0.241637
vt 0.994470 0.469944
vt 0.994470 0.538586
vt 0.982895 0.533082
vt 0.685555 0.344707
vt 0.626359 0.256887
vt 0.685555 0.242143
vt 0.988822 0.824156
vt 0.974789 0.820922
vt 0.988822 0.750745
vt 0.717263 0.710589
vt 0.670513 0.632468
vt 0.717263 0.593781
vt 0.948364 0.002532
vt 0.948364 0.078902
vt 0.915793 0.033630
vt 0.472707 0.933730
vt 0.472707 0.981459
vt 0.454576 0.959105
vt 0.861200 0.801571
vt 0.897465 0.750745
vt 0.897465 0.833996
vt 0.805143 0.808719
vt 0.805143 0.909024
vt 0.786414 0.813431
vt 0.874620 0.385917
vt 0.812515 0.338826
vt 0.874620 0.328254
vt 0.504390 0.934909
vt 0.480405 0.890676
vt 0.504390 0.853095
vt 0.384083 0.640001
vt 0.384083 0.711773
vt 0.308291 0.699615
vt 0.609943 0.124633
vt 0.596619 0.110595
vt 0.609943 0.095275
vt 0.557966 0.922612
vt 0.509453 0.882932
vt 0.557966 0.867958
vt 0.701279 0.389435
vt 0.706033 0.380089
vt 0.706033 0.393710
vt 0.678456 0.586094
vt 0.668989 0.568894
vt 0.678456 0.554482
vt 0.058346 0.776486
vt 0.002532 0.730053
vt 0.058346 0.691670
vt 0.842671 0.894632
vt 0.842671 0.961294
vt 0.810800 0.928370
vt 0.951872 0.971020
vt 0.982380 0.918661
vt 0.982380 0.973767
vt 0.503723 0.724019
vt 0.492725 0.644462
vt 0.503723 0.636708
vt 0.252612 0.575702
vt 0.301759 0.521303
vt 0.301759 0.649026
vt 0.931497 0.200923
vt 0.900784 0.135578
vt 0.931497 0.117191
vt 0.621295 0.242143
vt 0.621295 0.328587
vt 0.543819 0.308478
vt 0.715708 0.811390
vt 0.715708 0.885936
vt 0.670513 0.822155
vt 0.701186 0.221318
vt 0.696130 0.212551
vt 0.701186 0.206196
vt 0.977832 0.558954
vt 0.958340 0.476679
vt 0.977832 0.469944
vt 0.072635 0.684486
vt 0.069468 0.680498
vt 0.072635 0.654314
vt 0.002532 0.813476
vt 0.108753 0.781550
vt 0.108753 0.822214
vt 0.406406 0.610501
vt 0.501232 0.565250
vt 0.501232 0.631644
vt 0.946809 0.943340
vt 0.925056 0.839879
vt 0.946809 0.839198
vt 0.994103 0.688789
vt 0.988234 0.683178
vt 0.994103 0.634460
vt 0.369799 0.104283
vt 0.391201 0.104264
vt 0.391201 0.128148
vt 0.691130 0.002532
vt 0.691130 0.100942
vt 0.635701 0.043839
vt 0.895721 0.191173
vt 0.853482 0.141324
vt 0.895721 0.117191
vt 0.247549 0.694426
vt 0.172319 0.658117
vt 0.247549 0.620231
vt 0.527904 0.127824
vt 0.521636 0.116936
vt 0.527904 0.112826
vt 0.335819 0.116401
vt 0.342915 0.102886
vt 0.342915 0.128148
vt 0.618309 0.952285
vt 0.636577 0.934988
vt 0.636577 0.976007
vt 0.943956 0.354030
vt 0.971489 0.328254
vt 0.971489 0.399564
vt 0.470945 0.841388
vt 0.470945 0.887692
vt 0.406406 0.879540
vt 0.997468 0.374883
vt 0.992920 0.334210
vt 0.997468 0.328254
vt 0.696194 0.028356
vt 0.740121 0.002532
vt 0.740121 0.110466
vt 0.683520 0.569793
vt 0.692090 0.554482
vt 0.692090 0.584423
vt 0.895428 0.710750
vt 0.928670 0.655405
vt 0.928670 0.734780
vt 0.603249 0.333651
vt 0.603249 0.361662
vt 0.543819 0.352845
vt 0.576505 0.102398
vt 0.591555 0.095275
vt 0.591555 0.123287
vt 0.442339 0.114011
vt 0.457004 0.112826
vt 0.457004 0.125643
vt 0.963576 0.191462
vt 0.936561 0.142547
vt 0.963576 0.117191
vt 0.583766 0.479721
vt 0.576904 0.469415
vt 0.583766 0.461003
vt 0.516573 0.127948
vt 0.510356 0.118479
vt 0.516573 0.112826
vt 0.398212 0.992907
vt 0.391653 0.945394
vt 0.398212 0.942453
vt 0.641641 0.937818
vt 0.656369 0.934988
vt 0.656369 0.981380
vt 0.704278 0.586958
vt 0.697154 0.562910
vt 0.704278 0.554482
vt 0.978951 0.076694
vt 0.953427 0.003794
vt 0.978951 0.002532
vt 0.664363 0.349771
vt 0.664363 0.362112
vt 0.662449 0.356395
vt 0.364735 0.102886
vt 0.364735 0.128148
vt 0.348275 0.118046
vt 0.347979 0.111770
vt 0.176956 0.439992
vt 0.176956 0.444650
vt 0.172772 0.443681
vt 0.245427 0.699490
vt 0.245427 0.761936
vt 0.235952 0.702338
vt 0.698384 0.951485
vt 0.698384 0.989225
vt 0.693778 0.988157
vt 0.264507 0.943828
vt 0.264507 0.993828
vt 0.258963 0.986824
vt 0.994496 0.693853
vt 0.994496 0.744624
vt 0.988234 0.697707
vt 0.337274 0.226246
vt 0.381500 0.225431
vt 0.381500 0.231873
vt 0.599514 0.475468
vt 0.604694 0.461003
vt 0.604694 0.479006
vt 0.864185 0.480410
vt 0.872704 0.398909
vt 0.872704 0.490907
vt 0.954167 0.224213
vt 0.963130 0.196526
vt 0.963130 0.232321
vt 0.162881 0.862930
vt 0.162881 0.975062
vt 0.158072 0.971034
vt 0.153008 0.931347
vt 0.113816 0.885809
vt 0.153008 0.862930
vt 0.406406 0.902667
vt 0.474188 0.892756
vt 0.474188 0.928666
vt 0.688714 0.987395
vt 0.682942 0.960891
vt 0.688714 0.951485
vt 0.983171 0.634460
vt 0.983171 0.734881
vt 0.966731 0.730731
vt 0.781351 0.870253
vt 0.722327 0.828351
vt 0.781351 0.808719
vt 0.690166 0.896332
vt 0.716320 0.890999
vt 0.716320 0.938497
vt 0.670513 0.946421
vt 0.424999 0.933730
vt 0.424999 0.988711
vt 0.406406 0.952881
vt 0.386590 0.979172
vt 0.375966 0.960981
vt 0.386590 0.942453
vt 0.976552 0.335393
vt 0.987856 0.328254
vt 0.987856 0.410493
vt 0.495374 0.116287
vt 0.505292 0.112826
vt 0.505292 0.124913
vt 0.754154 0.930751
vt 0.754154 0.979286
vt 0.722327 0.944251
vt 0.805143 0.977756
vt 0.779900 0.931196
vt 0.805143 0.914087
vt 0.504390 0.735898
vt 0.504390 0.848032
vt 0.486697 0.830255
vt 0.401343 0.937389
vt 0.375966 0.911776
vt 0.401343 0.841388
vt 0.579684 0.589411
vt 0.579684 0.673642
vt 0.509453 0.604243
vt 0.639579 0.349771
vt 0.639579 0.362310
vt 0.635643 0.359079
vt 0.988926 0.629397
vt 0.966731 0.586052
vt 0.988926 0.565206
vt 0.509453 0.688116
vt 0.606364 0.678705
vt 0.606364 0.730835
vt 0.875267 0.558859
vt 0.819414 0.534321
vt 0.875267 0.495970
vt 0.164029 0.857866
vt 0.113816 0.835102
vt 0.164029 0.781550
vt 0.859122 0.490907
vt 0.819414 0.439029
vt 0.859122 0.399866
vt 0.059710 0.878378
vt 0.105269 0.827278
vt 0.105269 0.892607
vt 0.739006 0.549418
vt 0.654201 0.488357
vt 0.739006 0.486980
vt 0.933881 0.831153
vt 0.902529 0.813878
vt 0.933881 0.750745
vt 0.681741 0.117191
vt 0.681741 0.226332
vt 0.631366 0.139595
vt 0.848418 0.214602
vt 0.809672 0.165802
vt 0.848418 0.117191
vt 0.136993 0.986728
vt 0.128203 0.971016
vt 0.136993 0.936411
vt 0.002532 0.639821
vt 0.064404 0.592393
vt 0.064404 0.686607
vt 0.285649 0.988824
vt 0.279310 0.945537
vt 0.285649 0.943828
vt 0.810800 0.880644
vt 0.872835 0.839198
vt 0.872835 0.889569
vt 0.002532 0.862674
vt 0.054646 0.827278
vt 0.054646 0.891349
vt 0.842556 0.032751
vt 0.877780 0.002532
vt 0.877780 0.096238
vt 0.847322 0.739957
vt 0.791265 0.676914
vt 0.847322 0.673296
vt 0.591624 0.948271
vt 0.563030 0.902692
vt 0.591624 0.867958
vt 0.787355 0.106922
vt 0.745185 0.069555
vt 0.787355 0.002532
vt 0.368029 0.854390
vt 0.368029 0.903747
vt 0.308291 0.896887
vt 0.665449 0.767029
vt 0.665449 0.827159
vt 0.597260 0.790764
vt 0.629462 0.425069
vt 0.685376 0.367791
vt 0.685376 0.474371
vt 0.996850 0.171461
vt 0.991533 0.125906
vt 0.996850 0.117191
vt 0.360416 0.247057
vt 0.356738 0.241618
vt 0.360416 0.236936
vt 0.487662 0.636708
vt 0.487662 0.704459
vt 0.406406 0.665970
vt 0.890364 0.739957
vt 0.852386 0.687258
vt 0.890364 0.655405
vt 0.237218 0.888151
vt 0.302190 0.842883
vt 0.302190 0.888264
vt 0.994823 0.067503
vt 0.984014 0.060003
vt 0.994823 0.002532
vt 0.536632 0.986155
vt 0.509453 0.940777
vt 0.536632 0.927676
vt 0.754562 0.474371
vt 0.690440 0.400954
vt 0.754562 0.399866
vt 0.597260 0.894831
vt 0.662571 0.890905
vt 0.662571 0.929925
vt 0.961667 0.734881
vt 0.933734 0.696466
vt 0.961667 0.655405
vt 0.879684 0.342872
vt 0.902140 0.328254
vt 0.902140 0.451490
vt 0.474019 0.367791
vt 0.474019 0.481917
vt 0.406406 0.449068
vt 0.072032 0.649251
vt 0.069468 0.596365
vt 0.072032 0.592393
vt 0.300916 0.893328
vt 0.300916 0.981299
vt 0.292573 0.980414
vt 0.172772 0.384841
vt 0.193819 0.341107
vt 0.193819 0.434928
vt 0.300271 0.673250
vt 0.303006 0.654090
vt 0.303006 0.677974
vt 0.570385 0.862895
vt 0.509453 0.818975
vt 0.570385 0.802550
vt 0.150684 0.987004
vt 0.142057 0.953708
vt 0.150684 0.936411
vt 0.230888 0.699490
vt 0.230888 0.779719
vt 0.172319 0.774478
vt 0.475572 0.125389
vt 0.462068 0.113435
vt 0.475572 0.112826
vt 0.351674 0.236936
vt 0.351674 0.242128
vt 0.337274 0.242000
vt 0.691067 0.231354
vt 0.686804 0.210012
vt 0.691067 0.206196
vt 0.925056 0.978847
vt 0.933054 0.948404
vt 0.933054 0.986119
vt 0.308291 0.482775
vt 0.400909 0.466561
vt 0.400909 0.546867
vt 0.868114 0.974938
vt 0.847734 0.918621
vt 0.868114 0.894632
vt 0.989691 0.111893
vt 0.984014 0.109776
vt 0.989691 0.072567
vt 0.790233 0.323190
vt 0.733310 0.291115
vt 0.790233 0.242143
vt 0.971277 0.244784
vt 0.991440 0.242143
vt 0.991440 0.317115
vt 0.992966 0.462130
vt 0.988327 0.425371
vt 0.992966 0.415556
vt 0.380671 0.836018
vt 0.372808 0.789825
vt 0.380671 0.785062
vt 0.480405 0.944463
vt 0.492070 0.939973
vt 0.492070 0.980340
vt 0.614457 0.478550
vt 0.609758 0.468904
vt 0.614457 0.461003
vt 0.269571 0.994832
vt 0.274246 0.943828
vt 0.274246 0.997452
vt 0.351267 0.927147
vt 0.369340 0.908811
vt 0.369340 0.977634
vt 0.170691 0.826396
vt 0.230888 0.784783
vt 0.230888 0.849731
vt 0.536811 0.127824
vt 0.532967 0.123755
vt 0.536811 0.111174
vt 0.696216 0.394802
vt 0.690440 0.383184
vt 0.696216 0.380089
vt 0.303023 0.515352
vt 0.293204 0.467954
vt 0.303023 0.459472
vt 0.630579 0.362152
vt 0.626359 0.354901
vt 0.630579 0.349771
vt 0.123140 0.936411
vt 0.123140 0.995884
vt 0.113816 0.942479
vt 0.657385 0.361098
vt 0.653975 0.354770
vt 0.657385 0.349771
vt 0.623404 0.479806
vt 0.619520 0.466476
vt 0.623404 0.461003
vt 0.991533 0.224073
vt 0.996821 0.176524
vt 0.996821 0.230603
vt 0.106832 0.981655
vt 0.101548 0.902689
vt 0.106832 0.897671
vt 0.677879 0.990443
vt 0.670513 0.958974
vt 0.677879 0.951485
vt 0.995776 0.907504
vt 0.982503 0.842683
vt 0.995776 0.839198
vt 0.966213 0.316305
vt 0.936223 0.296762
vt 0.966213 0.242143
vt 0.911444 0.469944
vt 0.911444 0.558859
vt 0.880330 0.540639
vt 0.550157 0.110659
vt 0.550157 0.128148
vt 0.542353 0.120220
vt 0.906306 0.912921
vt 0.906306 0.972411
vt 0.877898 0.937613
vt 0.248185 0.950187
vt 0.253900 0.943828
vt 0.253900 0.994050
vt 0.594450 0.461003
vt 0.594450 0.481701
vt 0.588829 0.475303
vt 0.072260 0.773616
vt 0.063409 0.692878
vt 0.072260 0.691670
vt 0.571441 0.095275
vt 0.571441 0.127594
vt 0.556279 0.120116
vt 0.807681 0.557984
vt 0.744070 0.500092
vt 0.807680 0.486980
vt 0.993752 0.989664
vt 0.987444 0.986787
vt 0.993752 0.918661
vt 0.648912 0.360256
vt 0.644642 0.354948
vt 0.648912 0.349771
vt 0.437275 0.126283
vt 0.420030 0.115728
vt 0.437275 0.112826
vt 0.316903 0.215585
vt 0.288678 0.149634
vt 0.391201 0.133211
vt 0.391201 0.220368
vt 0.390800 0.245651
vt 0.386563 0.244291
vt 0.390800 0.225431
vt 0.959883 0.412538
vt 0.959883 0.447110
vt 0.907203 0.418011
vt 0.480990 0.121985
vt 0.480635 0.116084
vt 0.490311 0.112826
vt 0.490311 0.127460
vt 0.288140 0.458979
vt 0.288140 0.510528
vt 0.193162 0.516239
vt 0.174688 0.450274
vt 0.777819 0.200130
vt 0.753452 0.117191
vt 0.804608 0.121175
vt 0.804608 0.200652
vt 0.620700 0.666437
vt 0.585875 0.593781
vt 0.665449 0.596165
vt 0.665449 0.654306
vt 0.805736 0.803656
vt 0.726257 0.799621
vt 0.722327 0.769243
vt 0.805736 0.750745
vt 0.104220 0.261312
vt 0.194210 0.252060
vt 0.194210 0.336043
vt 0.083492 0.302224
vt 0.401343 0.461498
vt 0.308291 0.436208
vt 0.310334 0.389389
vt 0.401343 0.367791
vt 0.414966 0.128148
vt 0.397723 0.127991
vt 0.396264 0.122523
vt 0.414966 0.112826
vt 0.481499 0.048442
vt 0.506193 0.002532
vt 0.551216 0.008064
vt 0.551216 0.105218
vt 0.097951 0.129871
vt 0.097951 0.246368
vt 0.002532 0.222290
vt 0.023945 0.158570
vt 0.052535 0.898813
vt 0.052535 0.986785
vt 0.039638 0.981188
vt 0.046341 0.896412
vt 0.296282 0.349451
vt 0.302905 0.346474
vt 0.302905 0.454409
vt 0.293204 0.449825
vt 0.983263 0.415556
vt 0.983263 0.464626
vt 0.977787 0.462290
vt 0.976552 0.418559
vt 0.287509 0.934214
vt 0.237218 0.938764
vt 0.246583 0.893328
vt 0.287509 0.893550
vt 0.316246 0.953610
vt 0.308291 0.934502
vt 0.346203 0.908811
vt 0.346203 0.962430
vt 0.443269 0.980438
vt 0.430063 0.933870
vt 0.449513 0.933730
vt 0.449513 0.982426
vt 0.002532 0.939675
vt 0.022136 0.896412
vt 0.034574 0.897650
vt 0.034574 0.962474
vt 0.665411 0.877212
vt 0.660972 0.875799
vt 0.661346 0.834031
vt 0.665411 0.832222
vt 0.938321 0.981896
vt 0.938117 0.949841
vt 0.946545 0.948404
vt 0.946545 0.984108
vt 0.550157 0.139173
vt 0.550157 0.228088
vt 0.476573 0.203544
vt 0.472446 0.133211
vt 0.311083 0.591676
vt 0.381915 0.551931
vt 0.381915 0.626182
vt 0.308291 0.634938
vt 0.478156 0.711308
vt 0.478156 0.757131
vt 0.442559 0.774402
vt 0.406406 0.709523
vt 0.388519 0.286847
vt 0.388519 0.362728
vt 0.329366 0.349193
vt 0.308291 0.252400
vt 0.389146 0.645912
vt 0.400657 0.639691
vt 0.400657 0.711258
vt 0.395491 0.711773
vt 0.748389 0.200520
vt 0.686804 0.201132
vt 0.703588 0.129129
vt 0.748389 0.117191
vt 0.814351 0.399866
vt 0.814351 0.475811
vt 0.761434 0.441719
vt 0.759626 0.404022
vt 0.311052 0.746228
vt 0.380810 0.716837
vt 0.380810 0.779998
vt 0.308291 0.764051
vt 0.556925 0.927676
vt 0.556925 0.989839
vt 0.541695 0.982500
vt 0.550644 0.927812
vt 0.881468 0.570568
vt 0.881468 0.649021
vt 0.836770 0.636348
vt 0.837872 0.581705
vt 0.820205 0.760055
vt 0.856136 0.750745
vt 0.856136 0.826442
vt 0.810800 0.834134
vt 0.249987 0.823456
vt 0.237218 0.788245
vt 0.295208 0.767365
vt 0.295208 0.837819
vt 0.091950 0.416810
vt 0.083492 0.346047
vt 0.167708 0.341107
vt 0.167708 0.445607
vt 0.626303 0.226332
vt 0.561790 0.219990
vt 0.555221 0.183646
vt 0.626303 0.133211
vt 0.255918 0.123010
vt 0.200237 0.114347
vt 0.201749 0.108511
vt 0.255918 0.106329
vt 0.744435 0.673740
vt 0.786202 0.673296
vt 0.786202 0.745681
vt 0.722327 0.719248
vt 0.855643 0.205407
vt 0.888159 0.196236
vt 0.888159 0.233169
vt 0.853482 0.218312
vt 0.613245 0.934988
vt 0.613245 0.987128
vt 0.597260 0.975130
vt 0.716448 0.715652
vt 0.716448 0.806326
vt 0.670513 0.777427
vt 0.679616 0.725730
vt 0.224173 0.351288
vt 0.288140 0.346474
vt 0.288140 0.421174
vt 0.199273 0.445211
vt 0.953276 0.477801
vt 0.953276 0.536604
vt 0.916508 0.507373
vt 0.927314 0.469944
vt 0.969726 0.750745
vt 0.969726 0.815703
vt 0.944012 0.809837
vt 0.938944 0.757945
vt 0.177153 0.871974
vt 0.229839 0.854795
vt 0.229839 0.901766
vt 0.170691 0.889805
vt 0.580812 0.486980
vt 0.580812 0.584347
vt 0.529594 0.578513
vt 0.509453 0.507104
vt 0.377306 0.236936
vt 0.377306 0.244197
vt 0.373117 0.241313
vt 0.877898 0.871317
vt 0.919993 0.839198
vt 0.919993 0.904249
vt 0.883451 0.907858
vt 0.479623 0.399060
vt 0.543712 0.367791
vt 0.543712 0.471929
vt 0.479082 0.480872
vt 0.503855 0.942650
vt 0.503855 0.990613
vt 0.497134 0.987797
vt 0.498427 0.939973
vt 0.428161 0.486980
vt 0.504390 0.490638
vt 0.504390 0.545620
vt 0.406406 0.560187
vt 0.910729 0.099699
vt 0.882843 0.087469
vt 0.904617 0.004408
vt 0.910729 0.002532
vt 0.385874 0.720856
vt 0.399945 0.716837
vt 0.399945 0.832605
vt 0.163968 0.541262
vt 0.169257 0.539081
vt 0.169257 0.614251
vt 0.807452 0.389616
vt 0.733310 0.389649
vt 0.752297 0.328254
vt 0.807452 0.344254
vt 0.558541 0.480029
vt 0.548776 0.472542
vt 0.549351 0.467082
vt 0.558541 0.461003
vt 0.104581 0.193975
vt 0.110684 0.134395
vt 0.194210 0.133211
vt 0.194210 0.246996
vt 0.002532 0.523583
vt 0.070121 0.487197
vt 0.070121 0.587329
vt 0.006985 0.585545
vt 0.728247 0.242143
vt 0.728247 0.373237
vt 0.690619 0.344335
vt 0.698180 0.250425
vt 0.019282 0.267169
vt 0.077801 0.251431
vt 0.077801 0.367928
vt 0.002532 0.353837
vt 0.138592 0.012362
vt 0.195173 0.002532
vt 0.195173 0.128148
vt 0.104581 0.111774
vt 0.247549 0.615168
vt 0.174688 0.610277
vt 0.176350 0.543904
vt 0.247549 0.521303
vt 0.114037 0.534018
vt 0.078329 0.450671
vt 0.167708 0.451099
vt 0.167708 0.525033
vt 0.907203 0.383785
vt 0.920109 0.329114
vt 0.938893 0.328254
vt 0.938893 0.407475
vt 0.655909 0.832222
vt 0.655909 0.885842
vt 0.600472 0.864279
vt 0.597260 0.853665
vt 0.577558 0.371320
vt 0.624399 0.367791
vt 0.624399 0.428137
vt 0.548776 0.455939
vt 0.751143 0.664890
vt 0.722327 0.602960
vt 0.784763 0.593781
vt 0.784763 0.668232
vt 0.209730 0.156482
vt 0.283614 0.133211
vt 0.283614 0.247337
vt 0.199273 0.228753
vt 0.837492 0.090259
vt 0.792418 0.077432
vt 0.802988 0.016215
vt 0.837492 0.002532
vt 0.406406 0.800150
vt 0.407385 0.786300
vt 0.478322 0.779465
vt 0.478322 0.836324
vt 0.958223 0.644549
vt 0.927184 0.634341
vt 0.946120 0.572788
vt 0.958223 0.570568
vt 0.158905 0.621320
vt 0.090307 0.615751
vt 0.078329 0.587227
vt 0.158905 0.539081
vt 0.404240 0.073823
vt 0.399240 0.019976
vt 0.476436 0.002532
vt 0.476436 0.104527
vt 0.312847 0.237362
vt 0.312890 0.231776
vt 0.332211 0.225431
vt 0.332211 0.244457
vt 0.307783 0.225431
vt 0.307783 0.246661
vt 0.288678 0.237114
vt 0.289102 0.231471
vt 0.209004 0.062150
vt 0.200237 0.012464
vt 0.294508 0.002532
vt 0.294508 0.101266
vt 0.324186 0.078842
vt 0.299572 0.008520
vt 0.394176 0.002532
vt 0.394176 0.096353
vt 0.115251 0.693472
vt 0.078329 0.626384
vt 0.164218 0.630936
vt 0.164218 0.687279
vt 0.845057 0.321176
vt 0.795296 0.282624
vt 0.845057 0.242143
vt 0.538755 0.258585
vt 0.538755 0.362728
vt 0.495597 0.344480
vt 0.478054 0.242143
vt 0.725566 0.913694
vt 0.722327 0.905990
vt 0.774106 0.875317
vt 0.774106 0.925688
vt 0.584133 0.090212
vt 0.556279 0.002532
vt 0.630637 0.008619
vt 0.630637 0.086789
vt 0.303228 0.252400
vt 0.303228 0.341411
vt 0.233474 0.331249
vt 0.199273 0.261933
vt 0.917461 0.990384
vt 0.911370 0.916234
vt 0.917461 0.912921
vt 0.649138 0.572020
vt 0.585875 0.588717
vt 0.602662 0.490001
vt 0.649138 0.486980
vt 0.243122 0.996723
vt 0.237567 0.996040
vt 0.237218 0.944823
vt 0.243122 0.943828
vt 0.665449 0.671501
vt 0.665449 0.761965
vt 0.614579 0.742639
vt 0.615375 0.682695
vt 0.472991 0.260164
vt 0.472991 0.362728
vt 0.403206 0.346110
vt 0.393583 0.271618
vt 0.099517 0.012316
vt 0.099517 0.117106
vt 0.031308 0.124807
vt 0.002532 0.002532
vt 0.936561 0.229193
vt 0.941135 0.199043
vt 0.949104 0.196526
vt 0.949104 0.235545
vt 0.397998 0.186497
vt 0.467383 0.133211
vt 0.467382 0.238001
vt 0.396264 0.250143
vt 0.850121 0.265840
vt 0.890822 0.242143
vt 0.890822 0.322551
vt 0.879816 0.323077
vt 0.068170 0.905426
vt 0.096484 0.897671
vt 0.096484 0.944644
vt 0.059710 0.954930
vt 0.965094 0.405400
vt 0.971489 0.404628
vt 0.971489 0.457121
vt 0.965766 0.458606
vt 0.968640 0.195641
vt 0.979667 0.117191
vt 0.986469 0.117547
vt 0.986469 0.203415
vt 0.162474 0.700508
vt 0.167162 0.698535
vt 0.167162 0.760738
vt 0.161634 0.759992
vt 0.608312 0.338574
vt 0.616895 0.333651
vt 0.616895 0.353954
vt 0.611618 0.355345
vt 0.526042 0.752228
vt 0.583724 0.735898
vt 0.583724 0.797486
vt 0.509453 0.796734
vt 0.773912 0.930920
vt 0.773912 0.980488
vt 0.759218 0.976151
vt 0.768328 0.930751
vt 0.217882 0.986122
vt 0.210112 0.908258
vt 0.228967 0.906830
vt 0.228967 0.986440
vt 0.094936 0.698535
vt 0.156570 0.698621
vt 0.156570 0.759191
vt 0.078329 0.760417
vt 0.173838 0.911852
vt 0.205048 0.906830
vt 0.205048 0.966303
vt 0.170691 0.964669
vt 0.977439 0.913597
vt 0.951872 0.896178
vt 0.977439 0.839198
vt 0.325290 0.106329
vt 0.325290 0.120175
vt 0.260981 0.115458
vt 0.260992 0.109969
vn -0.0460 0.9988 -0.0190
vn -0.0411 0.9990 -0.0165
vn -0.0365 0.9991 -0.0202
vn -0.0195 0.0748 0.9970
vn 0.9629 -0.0588 -0.2632
vn -0.2327 0.7221 0.6515
vn -0.6791 0.7329 -0.0422
vn -0.0315 0.9854 0.1672
vn 0.3344 0.8443 -0.4187
vn 0.9999 0.0143 -0.0047
vn 0.9932 0.0791 -0.0859
vn 0.9762 0.0699 0.2053
vn 0.9762 0.0699 0.2054
vn 0.9996 0.0017 0.0283
vn 0.9997 0.0029 0.0252
vn 0.9996 0.0071 0.0270
vn 0.9997 0.0072 0.0254
vn 0.0010 0.9997 -0.0245
vn 0.9890 -0.1243 0.0797
vn -0.7677 0.5312 0.3583
vn 0.0562 0.9958 -0.0729
vn -0.0378 0.9990 -0.0251
vn -0.0371 0.9989 -0.0269
vn -0.0368 0.9990 -0.0268
vn 0.9965 -0.0807 0.0231
vn 1.0000 0.0041 0.0046
vn 1.0000 -0.0018 0.0063
vn 1.0000 0.0029 0.0030
vn 0.9999 0.0054 -0.0112
vn 0.9998 -0.0195 0.0000
vn -0.9958 0.0917 0.0035
vn 0.9992 -0.0071 0.0383
vn 0.9996 -0.0283 0.0024
vn 0.0104 0.9994 0.0317
vn 0.0130 0.9994 0.0336
vn 0.0152 0.9993 0.0352
vn -0.9937 -0.0907 0.0659
vn 0.0506 0.0817 -0.9954
vn -0.0822 0.0233 -0.9963
vn -0.5862 0.5679 0.5778
vn 0.0664 0.0340 0.9972
vn -0.9989 0.0458 0.0134
vn -0.9995 -0.0047 -0.0325
vn -0.0188 -0.0105 0.9998
vn -0.0042 0.0355 0.9994
vn -0.0114 0.0164 0.9998
vn 0.9999 -0.0099 -0.0029
vn 0.9999 -0.0085 -0.0122
vn 1.0000 -0.0039 -0.0074
vn -0.0049 -0.0330 0.9994
vn 0.0072 -0.0348 0.9994
vn -0.0004 -0.0332 0.9994
vn 0.0125 0.0491 0.9987
vn 0.0174 0.0458 0.9988
vn 0.0157 0.0520 0.9985
vn -0.0420 0.0215 -0.9989
vn 0.0552 -0.0638 -0.9964
vn 0.8016 0.0066 -0.5978
vn -0.0127 -0.0308 0.9994
vn -0.0131 -0.0297 0.9995
vn -0.0132 -0.0303 0.9995
vn -0.0814 0.0386 0.9959
vn -0.0185 0.0665 -0.9976
vn -0.0015 1.0000 0.0079
vn 0.0143 0.9999 -0.0019
vn -0.0018 1.0000 0.0017
vn 0.0746 0.9972 0.0018
vn 0.0102 0.9904 -0.1380
vn 0.3352 0.8893 -0.3111
vn 0.0336 -0.0512 0.9981
vn 0.0311 -0.0470 0.9984
vn 0.0265 -0.0482 0.9985
vn -0.9978 0.0515 -0.0414
vn 0.0012 0.9996 0.0286
vn -0.6052 -0.4227 -0.6746
vn 0.1880 0.0526 -0.9808
vn 0.3375 0.6007 0.7247
vn -0.0126 0.9997 -0.0220
vn -0.9994 -0.0300 0.0150
vn 0.0312 0.1884 -0.9816
vn -0.0188 0.9992 -0.0363
vn -0.8618 -0.2737 0.4271
vn -0.0088 0.0089 0.9999
vn 0.0081 0.0272 0.9996
vn -0.0113 -0.0052 0.9999
vn -0.1485 0.9135 0.3787
vn 0.6069 0.7158 0.3456
vn -0.7333 0.4566 -0.5038
vn -0.9983 0.0514 0.0269
vn -0.9983 0.0514 0.0265
vn -0.9982 0.0546 0.0263
vn 0.1176 0.4277 0.8962
vn -0.7148 0.6473 -0.2647
vn -0.0276 0.9968 -0.0748
vn -0.6590 0.2492 -0.7097
vn 0.6826 -0.4103 0.6047
vn 0.9997 0.0217 -0.0061
vn 0.9996 0.0265 -0.0056
vn 0.9997 0.0242 -0.0004
vn 0.5936 0.5596 0.5783
vn 0.5876 0.6004 0.5424
vn 0.5873 0.6019 0.5412
vn 0.5875 0.6008 0.5421
vn 0.5877 0.6001 0.5427
vn 0.6696 -0.6909 0.2727
vn 0.5634 0.0117 -0.8261
vn -0.9744 0.2239 -0.0211
vn -0.6645 0.6348 -0.3943
vn 0.0201 0.7692 -0.6387
vn 0.0241 0.7653 -0.6432
vn 0.0171 0.7640 -0.6450
vn 0.0021 0.7080 -0.7062
vn 0.0102 0.7058 -0.7083
vn 0.0197 0.7041 -0.7098
vn 0.4961 0.8641 0.0854
vn -0.2616 -0.0478 -0.9640
vn 0.8895 0.4508 0.0742
vn 0.4307 0.9024 -0.0149
vn 0.0200 0.0094 0.9998
vn 0.0243 0.0085 0.9997
vn 0.0238 0.0103 0.9997
vn -0.0295 0.9994 -0.0176
vn -0.0327 0.9992 -0.0225
vn -0.0370 0.9991 -0.0191
vn 0.0037 0.9936 0.1131
vn 0.0036 -0.0315 0.9995
vn 0.0384 0.0345 0.9987
vn 0.9998 -0.0099 -0.0155
vn 0.9997 -0.0234 -0.0119
vn 0.9997 -0.0220 -0.0128
vn 0.9997 -0.0164 -0.0166
vn 0.9994 -0.0262 -0.0246
vn -0.9817 0.0542 -0.1827
vn 0.0434 0.9989 0.0156
vn 0.3253 0.8349 -0.4439
vn 0.0161 0.9984 0.0538
vn 0.0248 0.9997 0.0054
vn 0.0220 0.9997 0.0097
vn 0.0218 0.9998 0.0045
vn 0.9788 0.2021 0.0321
vn 0.9992 0.0382 0.0081
vn -0.0292 0.9995 0.0133
vn -0.0319 0.9994 0.0149
vn -0.0220 0.9997 0.0128
vn -0.7872 0.5079 0.3497
vn 0.0150 0.9993 -0.0344
vn -0.0047 0.9999 0.0117
vn 0.0032 0.9999 0.0103
vn -0.0035 1.0000 0.0092
vn -0.0372 0.9988 -0.0309
vn -0.0338 0.9990 -0.0295
vn -0.0358 0.9989 -0.0294
vn 1.0000 -0.0020 0.0087
vn 0.9997 0.0230 -0.0066
vn 0.9995 0.0130 0.0301
vn 0.9998 0.0076 0.0198
vn 0.9996 0.0106 0.0244
vn -0.9980 0.0563 0.0287
vn 0.0140 0.0518 0.9986
vn 0.0112 0.0432 0.9990
vn 0.0107 0.0325 0.9994
vn 0.9996 0.0117 0.0273
vn 0.9996 0.0084 0.0273
vn 0.9995 0.0293 -0.0067
vn 0.9995 0.0317 0.0011
vn 0.9995 0.0316 -0.0024
vn -0.1036 0.9898 0.0980
vn 0.9997 -0.0235 -0.0115
vn 0.9996 -0.0202 -0.0219
vn 0.9997 -0.0235 0.0021
vn 0.0314 -0.2992 -0.9537
vn 0.0276 0.0806 -0.9964
vn 0.9989 -0.0384 -0.0267
vn -0.9987 0.0507 -0.0039
vn -0.9980 -0.0147 -0.0609
vn 0.9998 -0.0142 -0.0100
vn 0.9998 -0.0118 -0.0179
vn 0.9998 -0.0053 -0.0203
vn 0.0344 0.0388 0.9987
vn -0.0080 -0.0228 0.9997
vn -0.0052 -0.0331 0.9994
vn 0.0006 -0.0230 0.9997
vn -0.0200 -0.0178 0.9996
vn -0.0276 -0.0286 0.9992
vn -0.0250 -0.0285 0.9993
vn -0.0240 0.0345 -0.9991
vn 0.1468 -0.0288 -0.9888
vn 0.8858 -0.0375 -0.4626
vn -0.0117 0.9994 -0.0323
vn -0.0141 -0.0292 0.9995
vn -0.0143 -0.0287 0.9995
vn -0.0148 -0.0283 0.9995
vn 0.0283 0.0094 0.9996
vn 0.0285 0.0158 0.9995
vn 0.0271 0.0078 0.9996
vn 0.0249 0.0069 0.9997
vn 0.0291 0.0073 0.9995
vn 0.0313 0.0054 0.9995
vn 0.0055 0.0467 0.9989
vn -0.0209 0.9994 -0.0261
vn -0.0245 0.9993 -0.0280
vn -0.0235 0.9994 -0.0266
vn -0.9988 0.0433 0.0219
vn -0.0370 0.0497 -0.9981
vn -0.0029 -0.0109 -0.9999
vn -0.0071 -0.0063 -1.0000
vn -0.0033 -0.0072 -1.0000
vn -0.0429 0.9986 0.0318
vn -0.9538 0.1706 -0.2472
vn 0.3211 0.9470 0.0106
vn -0.0105 0.9997 0.0234
vn -0.0055 0.9998 0.0206
vn -0.0195 0.9995 0.0252
vn 0.3361 0.8256 -0.4533
vn -0.0205 0.9997 -0.0134
vn -0.0249 0.0913 0.9955
vn 0.0055 0.9996 -0.0291
vn -0.0022 0.9987 -0.0513
vn 0.0065 0.9997 -0.0232
vn -0.6244 -0.3985 -0.6718
vn 0.1252 0.0356 -0.9915
vn 0.3975 0.4534 0.7977
vn -0.0524 0.9982 -0.0303
vn 0.0186 0.9993 -0.0317
vn 0.0171 0.9993 -0.0328
vn 0.0176 0.9993 -0.0326
vn 0.0168 0.9992 -0.0354
vn 0.0160 0.9993 -0.0337
vn 0.0146 0.9993 -0.0334
vn 0.2903 0.6892 0.6639
vn -0.9989 -0.0433 0.0164
vn -0.9981 -0.0622 0.0012
vn -0.9984 0.0571 0.0054
vn -0.0913 0.9926 -0.0802
vn 0.2458 0.9641 0.1004
vn -0.8614 -0.1887 0.4715
vn 0.0042 0.9996 0.0268
vn 0.0085 0.9998 -0.0197
vn -0.0379 0.0292 0.9989
vn 0.4755 0.6594 0.5823
vn -0.6449 0.4489 -0.6185
vn -0.9986 0.0455 0.0263
vn -0.9985 0.0485 0.0271
vn -0.9983 0.0492 0.0303
vn 0.1491 0.3066 0.9401
vn 0.0284 0.0388 0.9988
vn -0.7301 0.6331 -0.2572
vn -0.9843 -0.0390 0.1722
vn -0.0140 -0.2474 -0.9688
vn 0.6980 0.1792 -0.6933
vn -0.1041 0.9945 -0.0117
vn 0.2766 0.9599 0.0452
vn 0.9994 0.0344 0.0091
vn 0.9996 0.0276 0.0039
vn 0.9996 0.0267 0.0023
vn 0.9992 0.0388 0.0076
vn 0.3359 0.7399 0.5829
vn 0.3232 0.2540 0.9116
vn 0.0077 0.7104 -0.7038
vn 0.0067 0.7143 -0.6998
vn 0.0072 0.7114 -0.7027
vn 0.7069 0.7069 -0.0260
vn -0.8430 0.0228 -0.5374
vn 0.7873 0.5956 0.1593
vn 0.0075 0.0596 0.9982
vn 0.2453 -0.1778 0.9530
vn -0.3410 0.5016 0.7951
vn 0.5658 -0.3591 0.7423
vn 0.0149 0.9992 0.0368
vn 0.0240 0.9986 0.0468
vn 0.0247 0.9978 0.0609
vn 0.0471 0.9976 0.0501
vn 0.5913 -0.3989 0.7009
vn 0.0306 0.9983 0.0490
vn -0.3728 0.6199 -0.6905
vn -0.4096 0.6289 -0.6608
vn 0.0127 0.9999 -0.0081
vn 0.0158 0.9995 -0.0281
vn 0.0158 0.9995 -0.0282
vn 0.0055 -0.0105 -0.9999
vn 0.0031 -0.0156 -0.9999
vn 0.0010 -0.0083 -1.0000
vn 0.0012 -0.0082 -1.0000
vn -0.0524 0.0710 -0.9961
vn -0.0780 0.0310 -0.9965
vn 0.0105 0.0210 0.9997
vn 0.0131 0.0186 0.9997
vn 0.0069 0.0285 0.9996
vn 0.0051 0.0300 0.9995
vn -0.0239 0.0544 -0.9982
vn -0.0239 0.0543 -0.9982
vn -0.0405 0.0238 -0.9989
vn -0.9983 0.0565 -0.0140
vn -0.9988 0.0485 -0.0082
vn -0.9989 0.0456 -0.0133
vn -0.9987 0.0502 -0.0060
vn -0.7209 -0.2458 0.6479
vn -0.7209 -0.2458 0.6480
vn -0.7278 -0.2525 0.6376
vn 0.0122 0.9999 0.0034
vn 0.0103 0.9999 0.0107
vn 0.0116 0.9999 0.0102
vn 0.0123 0.9999 -0.0007
vn -0.0034 0.0090 1.0000
vn -0.0384 0.0316 0.9988
vn -0.0546 0.0035 0.9985
vn -0.0147 0.0097 0.9998
vn -0.8085 0.5860 -0.0541
vn -0.8085 0.5861 -0.0541
vn -0.7846 0.6172 -0.0591
vn -0.0225 0.5411 0.8407
vn -0.0221 0.5473 0.8367
vn -0.0223 0.5448 0.8383
vn -0.0227 0.5387 0.8422
vn 0.0167 0.7571 -0.6531
vn 0.0124 0.7600 -0.6498
vn 0.0126 0.7614 -0.6481
vn 0.0192 0.7627 -0.6464
vn 0.0205 0.0640 -0.9977
vn 0.0212 0.0646 -0.9977
vn 0.0195 0.0632 -0.9978
vn 0.9993 0.0077 -0.0371
vn 0.9993 0.0077 -0.0372
vn 0.9990 -0.0118 -0.0434
vn 0.9991 0.0020 -0.0432
vn -0.3633 0.9285 0.0767
vn 0.2836 0.9588 -0.0144
vn 0.2148 0.9766 0.0026
vn 0.2149 0.9766 0.0025
vn 0.7615 -0.0350 0.6472
vn 0.7582 -0.0347 0.6511
vn 0.7596 -0.0348 0.6495
vn 0.7628 -0.0352 0.6456
vn 0.3493 0.8789 -0.3249
vn 0.3482 0.8800 -0.3231
vn 0.3515 0.8766 -0.3287
vn 0.3526 0.8755 -0.3304
vn 0.9997 -0.0185 -0.0168
vn 0.9999 -0.0069 -0.0097
vn -0.9994 0.0127 -0.0315
vn -0.9994 0.0127 -0.0314
vn -0.9994 0.0266 -0.0213
vn -0.9985 -0.0374 0.0388
vn -0.9953 -0.0330 0.0908
vn -0.9953 -0.0330 0.0907
vn 0.9999 0.0074 0.0081
vn 1.0000 0.0064 0.0063
vn 0.9999 0.0094 0.0132
vn 1.0000 0.0005 0.0061
vn 0.0484 0.9987 0.0160
vn 0.0737 0.9971 0.0211
vn 0.0345 0.0338 -0.9988
vn 0.0198 0.0573 -0.9982
vn -0.0243 0.9996 0.0167
vn -0.0239 0.9996 0.0161
vn -0.9963 -0.0859 0.0065
vn -0.9954 -0.0949 0.0112
vn -0.9914 -0.1308 0.0048
vn -0.9910 -0.1268 0.0428
vn 0.7363 0.6704 -0.0917
vn 0.7612 0.6410 -0.0981
vn 0.0703 -0.0435 -0.9966
vn 0.0706 -0.0439 -0.9965
vn 0.0690 -0.0415 -0.9968
vn 0.0685 -0.0409 -0.9968
vn -0.9986 0.0477 0.0235
vn -0.9987 0.0458 0.0221
vn -0.9987 0.0459 0.0222
vn 0.9994 0.0276 0.0194
vn 0.9999 0.0126 -0.0053
vn -0.9993 -0.0361 -0.0094
vn -0.9993 -0.0357 -0.0096
vn -0.9993 -0.0359 -0.0095
vn -0.9990 -0.0440 -0.0055
vn 0.0689 0.9957 -0.0624
vn -0.0056 0.9982 -0.0599
vn 0.8257 0.0115 0.5640
vn 0.8240 0.0107 0.5665
vn 0.0403 -0.0447 0.9982
vn 0.0390 -0.0470 0.9981
vn 0.0451 -0.0440 0.9980
vn 0.0385 -0.0403 0.9984
vn -0.0159 0.9990 0.0410
vn 0.0346 0.9986 0.0400
vn 0.0850 0.8620 0.4998
vn -0.0072 0.0377 -0.9993
vn -0.0085 0.0351 -0.9993
vn -0.0063 0.0394 -0.9992
vn -0.0057 0.0405 -0.9992
vn -0.0042 0.9994 -0.0341
vn 0.0003 1.0000 -0.0059
vn 0.0136 0.9996 -0.0257
vn 0.0247 0.9989 -0.0398
vn -0.0063 0.9997 -0.0256
vn -0.0025 0.9999 -0.0154
vn -0.0134 0.0536 0.9985
vn 0.0152 0.9996 -0.0227
vn 0.0194 0.9996 -0.0195
vn 0.0446 0.9987 -0.0244
vn 0.0407 0.9975 -0.0576
vn 0.0002 1.0000 -0.0028
vn -0.0046 1.0000 0.0050
vn 0.0005 1.0000 0.0063
vn 0.0045 1.0000 0.0048
vn -0.1583 0.5897 0.7920
vn -0.9966 0.0826 -0.0070
vn -0.9971 0.0754 -0.0125
vn -0.9965 0.0832 -0.0066
vn -0.9965 0.0836 -0.0063
vn 0.0144 0.9994 0.0319
vn 0.0187 0.9994 0.0301
vn 0.0185 0.9994 0.0302
vn 0.0144 0.9994 0.0326
vn -0.0174 0.6081 -0.7937
vn -0.0154 0.6206 -0.7840
vn 1.0000 0.0071 -0.0031
vn 1.0000 0.0065 -0.0028
vn 0.9999 0.0120 -0.0089
vn 0.9999 0.0149 -0.0063
vn 0.0150 0.9998 0.0097
vn -0.1018 0.9935 -0.0507
vn -0.1017 0.9935 -0.0507
vn 0.0467 0.7512 -0.6584
vn -0.0215 0.6325 0.7742
vn 0.0054 1.0000 0.0033
vn 0.0104 0.9999 0.0132
vn 0.0123 0.9999 0.0054
vn 0.0176 0.9998 0.0057
vn -0.3842 0.8279 0.4088
vn -0.4141 0.8133 0.4087
vn 0.0422 0.9991 0.0084
vn 0.0428 0.9990 0.0085
vn 0.0418 0.9991 0.0084
vn 0.0335 0.9994 0.0073
vn -0.9963 -0.0860 0.0026
vn -0.9970 -0.0763 0.0088
vn -0.9947 -0.0941 0.0409
vn -0.9970 -0.0766 0.0053
vn 1.0000 0.0085 -0.0000
vn 0.9998 -0.0148 -0.0102
vn 0.9999 -0.0133 -0.0064
vn -0.0061 0.0163 0.9998
vn -0.0139 0.0114 0.9998
vn 0.0249 -0.0076 0.9997
vn 0.0355 0.0204 0.9992
vn -0.0061 1.0000 -0.0032
vn -0.0036 0.9999 0.0098
vn -0.0036 1.0000 0.0080
vn -0.0059 0.9999 -0.0101
vn 0.0039 1.0000 -0.0002
vn 0.0153 0.9999 -0.0014
vn 0.0241 0.9997 0.0044
vn 0.0260 0.9996 -0.0101
vn 0.0167 -0.0571 -0.9982
vn 0.0133 -0.0563 -0.9983
vn 0.0103 -0.0485 -0.9988
vn 0.0334 -0.0391 -0.9987
vn -0.9978 -0.0392 -0.0540
vn -0.9978 -0.0391 -0.0540
vn -0.9958 -0.0881 -0.0230
vn 0.9962 -0.0180 -0.0853
vn 0.9967 -0.0048 -0.0814
vn 0.9786 0.1147 -0.1711
vn 0.9958 -0.0365 -0.0843
vn 0.0133 -0.0489 -0.9987
vn 0.0157 -0.0477 -0.9987
vn 0.0148 -0.0486 -0.9987
vn 0.0139 -0.0507 -0.9986
vn 0.0099 0.9976 0.0679
vn 0.0102 0.9977 0.0674
vn 0.0070 0.9974 0.0719
vn 0.0063 0.9973 0.0729
vn 0.0137 0.9982 0.0587
vn -0.0176 0.9998 -0.0069
vn -0.0175 0.9998 -0.0069
vn -0.9984 0.0548 -0.0135
vn -0.9980 0.0591 -0.0241
vn -0.9978 0.0642 -0.0179
vn -0.9978 0.0643 -0.0179
vn -0.9999 0.0076 0.0112
vn -0.9965 0.0646 0.0528
vn -0.9956 0.0607 -0.0720
vn -0.9964 0.0559 -0.0634
vn -0.9960 0.0582 -0.0676
vn -0.9950 0.0634 -0.0776
vn 0.0220 0.9992 0.0328
vn 0.0142 0.9997 0.0207
vn 0.0142 0.9997 0.0206
vn -0.0430 -0.0003 -0.9991
vn -0.0431 -0.0004 -0.9991
vn -0.0422 0.0005 -0.9991
vn -0.0417 0.0010 -0.9991
vn -0.7257 -0.3833 0.5713
vn -0.6963 -0.4054 0.5923
vn -0.5746 0.5812 0.5762
vn -0.5746 0.5812 0.5763
vn -0.5798 0.5903 0.5616
vn -0.5798 0.5903 0.5615
vn -0.0150 0.9997 0.0167
vn -0.0152 0.9998 0.0154
vn -0.0231 0.9997 0.0068
vn -0.0270 0.9996 0.0123
vn -0.0266 0.9995 0.0192
vn -0.0245 0.9995 0.0218
vn -0.0186 0.9993 0.0337
vn -0.0123 0.9996 0.0265
vn 0.0085 0.0409 0.9991
vn 0.0067 0.0397 0.9992
vn 0.0087 0.0410 0.9991
vn 0.0089 0.0411 0.9991
vn -0.0360 0.9994 0.0002
vn 0.0276 0.9993 0.0262
vn 0.0292 0.9993 0.0242
vn 0.0429 0.9986 0.0323
vn 0.0188 0.9995 0.0260
vn -0.5292 0.7025 -0.4760
vn -0.5291 0.7025 -0.4760
vn -0.4988 0.7503 -0.4340
vn -0.0180 -0.0424 -0.9989
vn -0.0184 -0.0420 -0.9989
vn -0.0176 -0.0428 -0.9989
vn -0.0171 -0.0433 -0.9989
vn -0.0265 -0.0174 0.9995
vn -0.0276 -0.0174 0.9995
vn -0.0241 -0.0209 0.9995
vn -0.0317 -0.0138 0.9994
vn 0.2665 0.9387 -0.2187
vn -0.9982 0.0557 -0.0211
vn -0.9984 0.0517 -0.0229
vn -0.9984 0.0523 -0.0226
vn -0.9982 0.0568 -0.0205
vn 0.0035 0.7026 0.7116
vn 0.0073 -0.0470 -0.9989
vn 0.0083 -0.0372 -0.9993
vn -0.0058 -0.0117 -0.9999
vn 0.0212 -0.0053 -0.9998
vn 0.0127 0.9998 -0.0153
vn 0.0128 0.9998 -0.0153
vn -0.0021 1.0000 -0.0073
vn -0.0188 0.9995 -0.0250
vn -0.0168 0.9995 -0.0261
vn -0.0220 0.9994 -0.0279
vn -0.0217 0.9994 -0.0269
vn -0.7876 0.6080 0.1000
vn -0.7705 0.6307 0.0919
vn 0.0270 0.9995 0.0148
vn 0.0217 0.9995 0.0209
vn 0.0238 0.9996 0.0122
vn 0.0211 0.9997 0.0125
vn 0.0223 0.0519 0.9984
vn 0.0137 0.0536 0.9985
vn 0.0021 0.0549 0.9985
vn -0.0049 0.0545 0.9985
vn -0.0021 0.0573 -0.9984
vn 0.0083 0.0471 -0.9989
vn -0.0119 0.7141 -0.7000
vn -0.0031 0.7242 -0.6896
vn -0.0095 0.7391 -0.6736
vn -0.0095 0.7390 -0.6736
vn -0.4539 0.8896 -0.0512
vn -0.3969 0.9161 -0.0562
vn -0.0163 -0.0061 0.9998
vn -0.0150 -0.0052 0.9999
vn -0.0176 -0.0069 0.9998
vn 0.5812 -0.0891 -0.8089
vn 0.5812 -0.0891 -0.8088
vn 0.5600 -0.0950 -0.8230
vn 0.0096 0.0333 -0.9994
vn -0.7935 0.0497 0.6066
vn -0.7704 0.0586 0.6349
vn 0.9093 -0.1020 -0.4035
vn 0.9228 0.0174 -0.3848
vn 0.9729 -0.0181 -0.2304
vn 0.9345 -0.0061 -0.3559
vn 0.9995 0.0277 -0.0123
vn 0.9996 0.0252 -0.0098
vn 0.9996 0.0251 -0.0097
vn -0.0136 0.0269 0.9995
vn -0.0226 0.0306 0.9993
vn -0.0205 0.0301 0.9993
vn -0.0113 0.0264 0.9996
vn 0.0018 0.9996 0.0281
vn -0.6306 0.0110 0.7760
vn -0.6815 0.0206 0.7316
g Block_S_2_Block_S_2_Collor_Material
usemtl Collor_Material
s off
f 193/1/1 125/2/2 73/3/3
f 149/4/4 86/5/4 85/6/4
f 154/7/5 153/8/5 152/9/5
f 90/10/6 167/11/6 168/12/6
f 95/13/7 128/14/7 96/15/7
f 144/16/8 143/17/8 167/18/8
f 104/19/9 192/20/9 103/21/9
f 32/22/10 34/23/10 126/24/10
f 113/25/11 15/26/11 109/27/12 201/28/13
f 21/29/14 39/30/15 40/31/16 22/32/17
f 7/33/18 51/34/18 49/35/18
f 132/36/19 159/37/19 158/38/19
f 90/39/20 169/40/20 170/41/20
f 45/42/21 93/43/21 176/44/21
f 65/45/22 14/46/23 75/47/24
f 106/48/25 197/49/25 108/50/25
f 16/51/26 42/52/27 15/53/28
f 39/54/29 42/55/29 40/56/29
f 22/57/30 16/58/30 3/59/30
f 36/60/31 17/61/31 18/62/31
f 106/63/32 21/64/32 194/65/32
f 32/66/33 33/67/33 34/68/33
f 125/69/34 156/70/35 140/71/36
f 24/72/37 27/73/37 28/74/37
f 155/75/38 160/76/38 131/77/38
f 58/78/39 145/79/39 138/80/39
f 179/81/40 95/82/40 96/83/40
f 143/84/41 142/85/41 130/86/41
f 38/87/42 4/88/42 17/89/42
f 38/90/43 23/91/43 24/92/43
f 84/93/44 1/94/45 67/95/46
f 41/96/47 202/97/48 109/98/49
f 19/99/50 43/100/51 1/101/52
f 43/102/53 62/103/54 44/104/55
f 25/105/56 59/106/56 57/107/56
f 57/108/57 60/109/57 58/110/57
f 97/111/58 184/112/58 98/113/58
f 64/114/59 171/115/60 91/116/61
f 169/117/62 168/118/62 64/119/62
f 59/120/63 47/121/63 60/122/63
f 46/123/64 56/124/65 55/125/66
f 13/126/67 163/127/67 87/128/67
f 98/129/68 184/130/68 137/131/68
f 158/132/69 159/133/69 155/134/69
f 85/135/70 84/136/71 83/137/72
f 92/138/73 36/139/73 18/140/73
f 72/141/74 8/142/74 7/143/74
f 101/144/75 190/145/75 102/146/75
f 196/147/76 106/148/76 105/149/76
f 87/150/77 164/151/77 86/152/77
f 185/153/78 74/154/78 140/155/78
f 172/156/79 129/157/79 35/158/79
f 60/159/80 102/160/80 190/161/80
f 77/162/81 162/163/81 148/164/81
f 161/165/82 87/166/82 86/167/82
f 164/168/83 20/169/84 86/170/85
f 88/171/86 89/172/86 112/173/86
f 165/174/87 89/175/87 88/176/87
f 94/177/88 176/178/88 93/179/88
f 119/180/89 94/181/90 27/182/91
f 93/183/92 178/184/92 94/185/92
f 98/186/93 182/187/93 97/188/93
f 188/189/94 181/190/94 98/191/94
f 101/192/95 102/193/95 6/194/95
f 103/195/96 193/196/96 104/197/96
f 21/198/97 103/199/98 192/200/99
f 109/201/100 200/202/100 201/203/100
f 105/204/101 106/205/102 194/206/103 195/207/104
f 151/208/105 152/209/105 153/210/105
f 132/211/106 133/212/106 131/213/106
f 144/214/107 128/215/107 127/216/107
f 146/217/108 135/218/108 136/219/108
f 138/220/109 145/221/110 137/222/111
f 156/223/112 139/224/113 140/225/114
f 126/226/115 157/227/115 125/228/115
f 189/229/116 135/230/116 190/231/116
f 191/232/117 116/233/117 192/234/117
f 193/235/118 126/236/118 125/237/118
f 112/238/119 89/239/120 63/240/121
f 73/241/122 71/242/123 193/243/124
f 71/244/125 104/245/125 193/246/125
f 149/247/126 161/248/126 86/249/126
f 85/250/127 151/251/127 149/252/127
f 41/253/128 199/254/129 154/255/130 152/256/131
f 41/257/132 108/258/132 199/259/132
f 129/260/133 141/261/133 144/262/133
f 167/263/134 90/264/134 54/265/134
f 104/266/135 191/267/135 192/268/135
f 52/269/136 137/270/136 145/271/136
f 52/272/137 147/273/138 124/274/139
f 126/275/140 193/276/140 103/277/140
f 103/278/141 32/279/141 126/280/141
f 7/281/142 8/282/143 51/283/144
f 90/284/145 168/285/145 169/286/145
f 176/287/146 120/288/146 45/289/146
f 65/290/147 2/291/148 14/292/149
f 75/293/150 14/294/151 13/295/152
f 39/296/153 106/297/153 108/298/153
f 16/299/154 40/300/154 42/301/154
f 22/302/155 40/303/156 16/304/157
f 36/305/158 38/306/158 17/307/158
f 44/308/159 62/309/160 91/310/161
f 39/311/162 21/312/163 106/313/163
f 21/314/164 116/315/165 194/316/166
f 125/317/167 157/318/167 156/319/167
f 21/320/168 22/321/169 31/322/170
f 138/323/171 183/324/171 97/325/171
f 58/326/172 135/327/172 145/328/172
f 34/329/173 33/330/173 134/331/173
f 38/332/174 24/333/174 4/334/174
f 38/335/175 37/336/175 23/337/175
f 41/338/176 152/339/177 202/340/178
f 61/341/179 63/342/179 64/343/179
f 19/344/180 61/345/181 43/346/182
f 43/347/183 61/348/184 62/349/185
f 57/350/186 59/351/186 60/352/186
f 81/353/187 100/354/187 186/355/187
f 97/356/188 183/357/188 184/358/188
f 13/359/189 14/360/189 55/361/189
f 64/362/190 130/363/191 171/364/192
f 64/365/193 63/366/194 89/367/195
f 89/368/196 166/369/197 64/370/198
f 166/371/199 169/372/199 64/373/199
f 50/374/200 49/375/201 51/376/202
f 29/377/203 123/378/203 146/379/203
f 26/380/204 5/381/204 48/382/204
f 59/383/205 48/384/206 47/385/207
f 13/386/208 111/387/208 163/388/208
f 35/389/209 127/390/209 128/391/209
f 124/392/210 177/393/210 93/394/210
f 137/395/211 52/396/212 98/397/213
f 160/398/214 155/399/214 159/400/214
f 66/401/215 76/402/215 105/403/215
f 83/404/216 110/405/216 203/406/216
f 65/407/217 66/408/218 71/409/219
f 101/410/220 189/411/220 190/412/220
f 196/413/221 197/414/221 106/415/221
f 87/416/222 163/417/222 164/418/222
f 99/419/223 74/420/223 185/421/223
f 188/422/224 8/423/225 99/424/226
f 8/425/227 74/426/228 99/427/229
f 148/428/230 150/429/230 154/430/230
f 36/431/231 92/432/231 35/433/231
f 92/434/232 172/435/232 35/436/232
f 27/437/233 94/438/233 178/439/233
f 77/440/234 87/441/234 162/442/234
f 198/443/235 199/444/235 108/445/235
f 161/446/236 162/447/236 87/448/236
f 170/449/237 165/450/237 90/451/237
f 165/452/238 88/453/238 90/454/238
f 164/455/239 111/456/239 20/457/239
f 165/458/240 166/459/240 89/460/240
f 94/461/241 175/462/241 176/463/241
f 119/464/242 175/465/243 94/466/244
f 93/467/245 177/468/245 178/469/245
f 110/470/246 114/471/246 200/472/246
f 98/473/247 181/474/247 182/475/247
f 37/476/248 95/477/248 180/478/248
f 182/479/249 187/480/249 97/481/249
f 25/482/250 187/483/250 188/484/250
f 115/485/251 191/486/251 104/487/251
f 107/488/252 196/489/252 105/490/252
f 192/491/253 116/492/254 21/493/255
f 21/494/256 32/495/256 103/496/256
f 109/497/257 110/498/257 200/499/257
f 150/500/258 153/501/258 154/502/258
f 156/503/259 155/504/260 139/505/261
f 126/506/262 158/507/262 157/508/262
f 189/509/263 136/510/263 135/511/263
f 191/512/264 115/513/264 116/514/264
f 63/515/265 20/516/265 111/517/265
f 111/518/266 112/519/266 63/520/266
f 179/521/267 180/522/267 95/523/267
f 202/524/268 110/525/268 109/526/268
f 76/527/269 75/528/270 77/529/271 78/530/272
f 202/531/273 203/532/273 110/533/273
f 52/534/274 145/535/274 147/536/274
f 185/537/275 186/538/275 100/539/276 99/540/276
f 72/541/277 65/542/277 71/543/278 73/544/279
f 59/545/280 25/546/281 26/547/282 48/548/283
f 80/549/284 133/550/284 121/551/285 69/552/285
f 83/553/286 84/554/287 67/555/288 68/556/289
f 81/557/290 25/558/291 188/559/292 100/560/292
f 24/561/293 28/562/294 9/563/295 4/564/296
f 130/565/297 142/566/298 141/567/299 129/568/299
f 14/569/300 2/570/301 46/571/302 55/572/303
f 20/573/304 84/574/305 85/575/306 86/576/307
f 177/577/308 124/578/309 123/579/310 178/580/310
f 149/581/311 148/582/312 162/583/313 161/584/314
f 137/585/315 184/586/316 183/587/317 138/588/318
f 47/589/319 6/590/320 102/591/319 60/592/321
f 158/593/322 126/594/323 34/595/324 132/596/325
f 175/597/326 119/598/326 120/599/326 176/600/326
f 154/601/327 199/602/327 198/603/328 148/604/329
f 152/605/330 151/606/331 203/607/332 202/608/333
f 158/609/334 155/610/335 156/611/336 157/612/337
f 32/613/338 21/614/338 31/615/339 33/616/338
f 136/617/340 189/618/341 29/619/342 146/620/342
f 24/621/343 23/622/343 119/623/344 27/624/345
f 109/625/346 15/626/347 42/627/348 41/628/349
f 107/629/350 108/630/350 197/631/351 196/632/351
f 70/633/352 79/634/352 80/635/353 69/636/353
f 167/637/354 54/638/354 128/639/354 144/640/355
f 101/641/356 30/642/357 29/643/358 189/644/359
f 194/645/360 116/646/360 115/647/361 195/648/361
f 97/649/362 57/650/363 58/651/364 138/652/365
f 10/653/366 30/654/366 101/655/367 6/656/368
f 11/657/369 12/658/369 33/659/370 31/660/370
f 35/661/371 37/662/372 38/663/373 36/664/374
f 148/665/375 198/666/375 78/667/376 77/668/376
f 113/669/377 201/670/377 200/671/378 114/672/378
f 203/673/379 151/674/380 85/675/381 83/676/382
f 107/677/383 78/678/383 198/679/384 108/680/384
f 143/681/385 168/682/385 167/683/385
f 82/684/386 81/685/387 186/686/388 139/687/389
f 96/688/390 54/689/390 56/690/391 45/691/391
f 71/692/392 66/693/393 115/694/394 104/695/395
f 130/696/396 64/697/396 168/698/396 143/699/396
f 195/700/397 115/701/398 66/702/399 105/703/400
f 2/704/401 65/705/402 72/706/403 7/707/404
f 148/708/405 149/709/405 150/710/405
f 127/711/406 35/712/407 129/713/408 144/714/409
f 140/715/410 74/716/411 73/717/412 125/718/413
f 181/719/414 188/720/414 187/721/415 182/722/415
f 39/723/416 108/724/417 41/725/418 42/726/419
f 45/727/420 120/728/420 179/729/421 96/730/422
f 99/731/423 100/732/423 188/733/423
f 164/734/424 163/735/424 111/736/424
f 2/737/425 7/738/426 49/739/427 46/740/428
f 92/741/429 173/742/429 174/743/430 91/744/430
f 74/745/431 8/746/432 72/747/433 73/748/434
f 28/749/435 27/750/436 29/751/437 30/752/438
f 3/753/439 11/754/439 31/755/440 22/756/441
f 1/757/442 84/758/443 20/759/444 19/760/445
f 46/761/446 49/762/447 45/763/448 56/764/449
f 53/765/450 55/766/451 56/767/452 54/768/453
f 81/769/454 82/770/455 80/771/456 79/772/457
f 23/773/458 37/774/459 180/775/460 119/776/460
f 132/777/461 34/778/462 134/779/463 133/780/464
f 82/781/465 131/782/466 133/783/467 80/784/468
f 107/785/469 105/786/470 76/787/471 78/788/472
f 53/789/473 111/790/473 13/791/474 55/792/475
f 9/793/476 28/794/477 30/795/478 10/796/479
f 95/797/480 37/798/480 35/799/481 128/800/481
f 18/801/482 118/802/483 173/803/484 92/804/485
f 90/805/486 88/806/486 53/807/487 54/808/488
f 97/809/489 187/810/490 25/811/491 57/812/492
f 171/813/493 172/814/493 92/815/494 91/816/494
f 143/817/495 144/818/496 141/819/497 142/820/498
f 188/821/499 98/822/500 51/823/501 8/824/502
f 50/825/503 51/826/504 98/827/505 52/828/506
f 19/829/507 20/830/508 63/831/509 61/832/510
f 128/833/511 54/834/511 96/835/511
f 13/836/512 87/837/513 77/838/514 75/839/515
f 146/840/516 147/841/517 145/842/518 135/843/518
f 190/844/519 135/845/520 58/846/521 60/847/522
f 64/848/523 91/849/524 62/850/525 61/851/526
f 53/852/527 112/853/527 111/854/527
f 123/855/528 29/856/529 27/857/530 178/858/531
f 166/859/532 165/860/532 170/861/532 169/862/532
f 25/863/533 81/864/534 79/865/535 26/866/536
f 65/867/537 75/868/538 76/869/539 66/870/539
f 50/871/540 93/872/541 45/873/542 49/874/543
f 124/875/544 147/876/544 146/877/545 123/878/545
f 124/879/546 93/880/547 50/881/548 52/882/549
f 117/883/550 44/884/551 91/885/552 174/886/553
f 155/887/554 131/888/554 82/889/555 139/890/555
f 140/891/556 139/892/557 186/893/558 185/894/559
f 119/895/560 180/896/560 179/897/561 120/898/561
f 150/899/562 149/900/563 151/901/562 153/902/564
f 132/903/565 131/904/566 160/905/567 159/906/567
f 26/907/568 79/908/568 70/909/568 5/910/568
f 171/911/569 130/912/569 129/913/570 172/914/570
f 134/915/571 122/916/572 121/917/573 133/918/574
f 33/919/575 12/920/575 122/921/576 134/922/577
f 68/923/578 114/924/579 110/925/580 83/926/581
f 53/927/582 88/928/582 112/929/582
f 118/930/583 117/931/583 174/932/584 173/933/584
