# Blender v3.0.0 OBJ File: 'aa.blend'
# www.blender.org
mtllib Block_L_1.mtl
o Block_L_1
v -1.475059 -0.000000 -2.133175
v -1.080188 1.690488 0.032051
v -3.295969 0.000000 0.216316
v 0.904686 -0.000000 -2.131954
v 1.059193 1.693726 -0.129201
v -0.844329 0.000000 2.262978
v 1.100289 0.000000 2.260341
v 3.310967 -0.000000 -0.193875
v 3.298573 0.000000 2.264591
v 2.399747 0.000000 2.254421
v 1.832997 0.000000 2.275768
v 2.555882 1.699322 0.065017
v 1.636864 1.698707 0.364200
v 1.570664 -0.000000 -2.125256
v 2.565251 -0.000000 -2.148564
v -0.684826 -0.000000 -2.140793
v 0.440502 -0.000000 -2.134838
v 0.325265 1.652651 -0.188702
v -0.364398 1.683314 0.167034
v 0.367421 0.000000 2.258675
v -0.411986 0.000000 2.265156
v -1.721034 1.689717 0.246208
v -2.724380 1.686535 0.293507
v -1.710411 -0.000000 -2.133175
v -2.787800 -0.000000 -2.155712
v -2.563291 0.000000 2.263707
v -1.486674 0.000000 2.266922
v -1.093830 1.675666 -1.155228
v -1.299694 1.684571 -0.482888
v -3.289274 -0.000000 -1.224533
v -3.295969 -0.000000 -0.856079
v 1.056370 1.666746 -1.143761
v 0.745293 1.680370 -0.843354
v 3.302308 -0.000000 -0.539098
v 3.303639 -0.000000 -1.596257
v 2.069722 1.702173 -0.558011
v 1.661774 1.691060 -1.506406
v 2.608414 1.678422 -0.577695
v 2.424729 1.674796 -1.321759
v -0.542705 1.680262 -0.917473
v -0.318405 1.690223 -1.666840
v 0.366200 1.652009 -0.665639
v -0.025779 1.725386 -1.505330
v -2.594454 1.677086 -0.982704
v -2.303430 1.666438 -1.542938
v -1.981161 1.681570 -0.564667
v -1.451229 1.671826 -1.407482
v -1.129253 1.668972 0.813675
v -0.818927 1.688761 1.455146
v 0.833100 1.707188 1.733592
v 1.043225 1.703214 0.969672
v -3.302337 0.000000 1.065941
v -3.294751 0.000000 1.795666
v 3.284298 0.000000 0.597305
v 3.297593 0.000000 1.587878
v 1.826131 1.681151 1.524863
v 1.826279 1.686078 0.795146
v 2.497208 1.660833 1.699329
v 2.555974 1.675960 0.794910
v 0.366826 1.659195 1.000381
v 0.287244 1.667176 1.520244
v -0.363479 1.677981 0.538921
v -0.251315 1.678506 1.744922
v -1.931217 1.662983 0.849602
v -1.857474 1.652424 1.816280
v -2.254920 1.688346 0.915054
v -2.687991 1.688423 1.746727
v -1.260822 0.381843 -2.109196
v -1.147197 0.945307 -2.119187
v -3.296779 0.988641 -0.106705
v -3.278381 0.616157 0.075401
v -0.944468 1.241330 2.245598
v -1.051600 0.601736 2.278499
v 1.086900 1.153041 2.248531
v 1.098733 0.416611 2.261558
v 1.097893 0.613905 -2.123024
v 1.093151 1.384041 -2.130414
v 3.278782 1.336197 0.009540
v 3.304249 0.591242 0.038798
v 1.623590 0.530172 2.274971
v 1.884107 1.290905 2.268520
v 2.394177 0.437356 2.247604
v 2.543420 1.147021 2.244193
v 1.825009 1.141725 -2.117116
v 1.807274 0.785311 -2.117253
v 2.561371 1.357758 -2.118882
v 2.775513 0.490576 -2.145577
v -0.416923 0.293968 2.265346
v -0.266982 1.314781 2.217533
v 0.186715 0.536055 2.257454
v 0.545388 0.995981 2.271751
v -0.478595 1.308609 -2.120869
v -0.145412 0.613537 -2.137833
v 0.106922 1.069467 -2.091107
v 0.365959 0.785175 -2.122311
v -1.484965 1.260837 2.256664
v -2.028987 0.670184 2.241512
v -2.704948 1.330427 2.246441
v -2.787088 0.901725 2.241001
v -2.475086 1.329775 -2.122406
v -2.653019 0.359719 -2.144184
v -1.635990 1.219929 -2.131634
v -1.838161 0.848343 -2.125591
v 3.305275 1.303442 -1.609967
v 3.280499 0.619646 -1.382146
v 3.269276 1.147028 -0.661221
v 3.279931 0.798460 -0.514497
v -3.272005 1.439099 -0.661076
v -3.318763 0.426310 -0.629673
v -3.284899 0.949340 -1.334877
v -3.263477 0.624633 -1.680859
v 3.271908 1.131431 0.775592
v 3.283879 0.808532 0.811687
v 3.260258 1.317697 1.526713
v 3.294122 0.443584 1.396312
v -3.277792 0.449375 0.578060
v -3.263030 1.151101 0.795185
v -3.299857 0.613567 1.512390
v -3.261941 1.356382 1.524891
v 3.304196 1.693532 -1.894589
v 3.113442 0.571538 -2.140465
v 3.289856 0.615724 -1.945619
v 3.182865 1.172556 -2.105130
v 3.280590 1.448837 -2.120336
v 3.274838 1.173748 -2.028001
v 3.295651 0.493480 2.147605
v 3.181191 0.492840 2.254222
v -3.172233 0.554249 2.256790
v -3.293521 0.482742 2.105267
v -3.270410 0.620672 -1.832153
v -3.181988 0.571174 -2.134151
v -1.746132 1.491571 -2.134808
v -1.729480 1.680089 -1.942486
v -0.344436 1.659415 -1.985920
v -0.443107 1.423607 -2.117173
v 0.996903 1.670212 -1.984524
v 1.825371 1.529575 -2.128613
v 1.788040 1.690517 -1.980531
v 3.284302 1.529885 -0.659234
v 3.132561 1.668764 -0.647641
v 3.327957 1.594886 -1.571012
v 3.225399 1.707345 -1.525147
v 3.098118 1.664715 0.731265
v 3.287934 1.400094 0.971362
v 1.966660 1.564489 2.271678
v 1.980050 1.666085 2.129031
v 0.353520 1.676324 2.139030
v 0.426034 1.417060 2.263534
v -1.575343 1.372549 2.262436
v -3.286277 1.581839 0.646378
v -3.136646 1.674662 0.640312
v -3.218315 1.688280 -0.507942
v -3.267444 1.616927 -0.511383
v -1.093917 1.681534 -1.927594
v -1.095497 1.653811 -2.085953
v -3.330505 -0.000000 -2.089817
v -3.254221 -0.000000 -2.159164
v -2.994951 1.690536 0.117020
v -3.275503 1.563157 -0.075863
v -0.930442 1.673894 2.212963
v -0.941459 1.506594 2.218837
v -3.145154 0.000000 2.291955
v -3.315536 0.000000 2.201043
v 3.199250 -0.000000 -2.150486
v 3.316246 -0.000000 -1.989041
v 3.223801 1.686559 -0.119878
v 3.283566 1.518580 -0.063748
v 2.638592 1.676515 2.083026
v 2.688798 1.614695 2.246074
v 2.548287 1.670706 -2.075017
v 2.555931 1.629308 -2.109323
v 2.507122 1.670628 -2.124097
v 0.213253 1.708539 -1.885724
v 0.292210 1.505132 -2.112317
v -0.015739 1.681880 2.201560
v -2.541845 1.629259 -2.107941
v -2.532217 1.672017 -2.074883
v -2.504947 1.668106 -2.125241
v 3.261754 1.643096 1.416110
v 3.276276 1.060988 2.239566
v -3.264087 1.649850 -1.887756
v -3.060169 1.682460 -2.085094
v -3.217676 1.157732 -2.112366
v -3.271854 1.135100 -2.062489
v -3.267139 1.190421 -2.092945
v -2.575332 1.628172 2.222862
v -2.566550 1.695353 2.204132
v -2.603420 1.672678 2.254375
v -3.227622 1.676811 1.689705
v -3.283632 1.538311 1.612549
v -3.281814 1.653435 1.821102
v -3.225663 1.576788 2.249950
v 3.288216 1.555961 2.154082
v 3.225148 1.686545 2.168334
v 3.127656 1.635788 2.254588
v 3.109341 1.691817 -2.086419
v 3.236717 0.733109 -2.124318
v 3.284592 0.747166 -2.074304
v 3.271912 0.476879 -2.101449
v 3.301747 1.048587 -2.066834
v 3.220276 1.125046 -2.114141
v 3.291894 0.559317 2.208579
v 3.240159 0.559142 2.256438
v -3.173131 1.255245 2.241264
v -3.265901 1.255748 2.149471
v -3.265430 1.143343 2.195461
v -3.218126 1.203907 2.243355
v -3.230506 0.776071 2.253319
v -3.282981 0.797708 2.201725
v -3.292320 0.354297 2.209522
v -3.239867 0.406378 2.259117
v -3.284029 0.710652 -2.077526
v -3.235708 0.655828 -2.126743
v -3.237783 0.532143 -2.128231
v -3.289890 0.519485 -2.081745
v -1.649437 1.664898 -2.113919
v -0.422687 1.649895 -2.129731
v -0.390926 1.660388 -2.068959
v -0.324371 1.675655 -2.070988
v -0.335754 1.632268 -2.127095
v 1.107323 1.675556 -2.063657
v 1.130265 1.538086 -2.131184
v 0.978520 1.630746 -2.124581
v 0.970139 1.677763 -2.074143
v 1.726895 1.626398 -2.119637
v 1.713185 1.688719 -2.088212
v 3.289574 1.638226 -0.768777
v 3.237767 1.676481 -0.758504
v 3.253365 1.686087 -0.553876
v 3.278267 1.626029 -0.562936
v 3.317524 1.643346 -1.493730
v 3.281239 1.625861 0.842162
v 3.257130 1.688358 0.790988
v 3.235722 1.683398 0.919730
v 3.284257 1.630014 0.985228
v 0.881959 1.687268 2.202480
v 0.905969 1.632389 2.247382
v 0.937730 1.693260 2.242660
v 2.069921 1.639824 2.265186
v 2.068166 1.671067 2.201701
v 0.327222 1.683069 2.210712
v 0.329877 1.625117 2.250213
v 0.425076 1.625180 2.250885
v 0.394368 1.675501 2.207080
v -1.736300 1.642622 2.257572
v -1.850585 1.666153 2.219604
v -1.715766 1.512233 2.231640
v -3.229940 1.673202 0.541897
v -3.286151 1.643431 0.548660
v -3.269607 1.625124 0.680332
v -3.245304 1.686216 0.690552
v -3.232057 1.678739 -1.569267
v -3.304228 1.576704 -1.552464
v -3.302547 1.678182 -1.519646
vt 0.391500 0.288820
vt 0.401604 0.287924
vt 0.401604 0.293825
vt 0.394263 0.944186
vt 0.394263 0.989101
vt 0.381531 0.979953
vt 0.277583 0.923871
vt 0.277583 0.973654
vt 0.273488 0.967171
vt 0.531828 0.977826
vt 0.514154 0.954460
vt 0.531828 0.936107
vt 0.794038 0.175570
vt 0.794038 0.193329
vt 0.785487 0.184090
vt 0.942698 0.750236
vt 0.934871 0.742836
vt 0.942698 0.724610
vt 0.486265 0.897365
vt 0.473130 0.867466
vt 0.486265 0.847831
vt 0.885079 0.002763
vt 0.885079 0.071038
vt 0.847291 0.030060
vt 0.705388 0.920501
vt 0.662204 0.908513
vt 0.705388 0.865500
vt 0.631248 0.917416
vt 0.571655 0.912853
vt 0.631248 0.879533
vt 0.073074 0.462988
vt 0.073074 0.536283
vt 0.002763 0.469136
vt 0.589217 0.988004
vt 0.583466 0.958927
vt 0.589217 0.955644
vt 0.381531 0.927715
vt 0.407071 0.867970
vt 0.407071 0.938660
vt 0.984806 0.052310
vt 0.971233 0.007241
vt 0.984806 0.002763
vt 0.407050 0.994647
vt 0.399788 0.952884
vt 0.407050 0.944186
vt 0.940889 0.583857
vt 0.940889 0.651599
vt 0.912563 0.645219
vt 0.176087 0.983637
vt 0.167195 0.965076
vt 0.176087 0.954667
vt 0.407349 0.755123
vt 0.407349 0.840575
vt 0.394283 0.757141
vt 0.172492 0.485456
vt 0.172492 0.498128
vt 0.169434 0.492964
vt 0.133268 0.982215
vt 0.119573 0.964388
vt 0.133268 0.939106
vt 0.407560 0.746803
vt 0.402381 0.707722
vt 0.407560 0.699192
vt 0.092073 0.379993
vt 0.092073 0.467705
vt 0.084616 0.380702
vt 0.656678 0.865500
vt 0.656678 0.939437
vt 0.638215 0.917574
vt 0.937391 0.194847
vt 0.937391 0.278467
vt 0.913991 0.233801
vt 0.002763 0.546831
vt 0.075849 0.541809
vt 0.075849 0.607444
vt 0.319770 0.785062
vt 0.304599 0.784775
vt 0.319770 0.695439
vt 0.890604 0.020201
vt 0.937320 0.002763
vt 0.937320 0.048518
vt 0.344748 0.397937
vt 0.324708 0.381611
vt 0.344748 0.369102
vt 0.845394 0.953418
vt 0.845394 0.992594
vt 0.838163 0.990641
vt 0.571655 0.703335
vt 0.634396 0.657841
vt 0.634396 0.722109
vt 0.874181 0.756608
vt 0.874181 0.833181
vt 0.838163 0.811304
vt 0.779751 0.477791
vt 0.741428 0.408755
vt 0.779751 0.392203
vt 0.964212 0.106293
vt 0.964212 0.169572
vt 0.945663 0.143696
vt 0.753154 0.751082
vt 0.716271 0.677993
vt 0.753154 0.658433
vt 0.778269 0.918458
vt 0.716271 0.894764
vt 0.778269 0.882602
vt 0.223392 0.857040
vt 0.298476 0.839190
vt 0.298476 0.871876
vt 0.841765 0.002763
vt 0.841765 0.089933
vt 0.808563 0.002953
vt 0.099933 0.452488
vt 0.163908 0.426696
vt 0.163908 0.508798
vt 0.779540 0.869298
vt 0.762975 0.852872
vt 0.779540 0.811007
vt 0.178985 0.461221
vt 0.236921 0.415066
vt 0.236921 0.508081
vt 0.212174 0.782210
vt 0.212174 0.846370
vt 0.167195 0.813863
vt 0.819147 0.557585
vt 0.850153 0.494825
vt 0.850153 0.584324
vt 0.467604 0.852165
vt 0.467604 0.897366
vt 0.413304 0.858787
vt 0.244852 0.476794
vt 0.244852 0.489088
vt 0.242447 0.483216
vt 0.984183 0.284063
vt 0.984183 0.340165
vt 0.973124 0.334501
vt 0.434959 0.993614
vt 0.427716 0.982437
vt 0.434959 0.950136
vt 0.078972 0.724045
vt 0.092664 0.718382
vt 0.092664 0.797129
vt 0.884079 0.948453
vt 0.879788 0.905220
vt 0.884079 0.898756
vt 0.785277 0.436825
vt 0.832361 0.392203
vt 0.832361 0.456650
vt 0.785608 0.807400
vt 0.832637 0.756608
vt 0.832637 0.820250
vt 0.375660 0.923282
vt 0.375660 0.971320
vt 0.369174 0.958857
vt 0.247066 0.092347
vt 0.262017 0.088086
vt 0.262017 0.102136
vt 0.662008 0.767687
vt 0.655279 0.757805
vt 0.662008 0.724964
vt 0.875868 0.373562
vt 0.845590 0.298012
vt 0.875868 0.284063
vt 0.983309 0.583857
vt 0.983309 0.634860
vt 0.970131 0.599342
vt 0.565449 0.879062
vt 0.549238 0.846127
vt 0.565449 0.830366
vt 0.191051 0.982188
vt 0.181613 0.976002
vt 0.191051 0.954667
vt 0.943005 0.356449
vt 0.918261 0.323894
vt 0.943005 0.284063
vt 0.554942 0.190509
vt 0.530276 0.184647
vt 0.554942 0.180138
vt 0.333005 0.404944
vt 0.342654 0.403462
vt 0.342654 0.408744
vt 0.152141 0.982922
vt 0.138794 0.980801
vt 0.152141 0.939106
vt 0.328373 0.934408
vt 0.363648 0.923282
vt 0.363648 0.963114
vt 0.536420 0.386729
vt 0.536420 0.402440
vt 0.513810 0.386750
vt 0.776426 0.362883
vt 0.776426 0.379282
vt 0.759198 0.378587
vt 0.097414 0.186778
vt 0.097414 0.200946
vt 0.096844 0.194980
vt 0.908246 0.384605
vt 0.898125 0.377367
vt 0.908246 0.359780
vt 0.602988 0.106293
vt 0.602988 0.174613
vt 0.530276 0.110263
vt 0.579387 0.279525
vt 0.579387 0.293259
vt 0.573642 0.284995
vt 0.293632 0.994399
vt 0.284651 0.957906
vt 0.293632 0.948101
vt 0.801919 0.731253
vt 0.801919 0.750051
vt 0.796596 0.745080
vt 0.161411 0.966543
vt 0.157666 0.962285
vt 0.161411 0.939106
vt 0.942846 0.093795
vt 0.955163 0.067213
vt 0.955163 0.099870
vt 0.948531 0.370190
vt 0.962949 0.349418
vt 0.962949 0.384374
vt 0.577940 0.955644
vt 0.577940 0.990610
vt 0.571655 0.964181
vt 0.243474 0.450031
vt 0.242447 0.432353
vt 0.243474 0.415066
vt 0.073446 0.797129
vt 0.002763 0.788096
vt 0.073446 0.752736
vt 0.598201 0.195360
vt 0.591111 0.187734
vt 0.598201 0.180138
vt 0.717063 0.328192
vt 0.753673 0.284063
vt 0.753673 0.385184
vt 0.428838 0.291557
vt 0.433705 0.287924
vt 0.433705 0.293654
vt 0.407129 0.291427
vt 0.412567 0.287924
vt 0.412567 0.293870
vt 0.584913 0.287564
vt 0.592267 0.279525
vt 0.592267 0.288741
vt 0.561243 0.822698
vt 0.565916 0.777882
vt 0.565916 0.823512
vt 0.322609 0.542804
vt 0.322609 0.591321
vt 0.317954 0.543390
vt 0.876090 0.981094
vt 0.884079 0.953978
vt 0.884079 0.987881
vt 0.155573 0.825126
vt 0.155210 0.788419
vt 0.161559 0.786421
vt 0.161559 0.829829
vt 0.067570 0.741960
vt 0.073370 0.710223
vt 0.073370 0.747211
vt 0.994312 0.149377
vt 0.988643 0.112517
vt 0.994312 0.106293
vt 0.485512 0.784333
vt 0.485512 0.841672
vt 0.465123 0.808220
vt 0.982126 0.392203
vt 0.982126 0.453351
vt 0.971956 0.394392
vt 0.574339 0.386807
vt 0.583877 0.382434
vt 0.583877 0.390257
vt 0.868140 0.392203
vt 0.868140 0.483137
vt 0.837887 0.431593
vt 0.942846 0.005584
vt 0.965708 0.002763
vt 0.965708 0.061687
vt 0.964568 0.658433
vt 0.964568 0.764008
vt 0.955359 0.755667
vt 0.094408 0.582066
vt 0.081650 0.570356
vt 0.094408 0.484397
vt 0.601336 0.393205
vt 0.597990 0.387491
vt 0.601336 0.382434
vt 0.028160 0.925201
vt 0.028160 0.962553
vt 0.002763 0.962127
vt 0.801409 0.357358
vt 0.759198 0.337565
vt 0.801409 0.284063
vt 0.710046 0.974448
vt 0.705985 0.970105
vt 0.710046 0.926027
vt 0.965018 0.098063
vt 0.960688 0.070269
vt 0.965018 0.067213
vt 0.960921 0.539887
vt 0.974865 0.494825
vt 0.974865 0.554537
vt 0.169434 0.476591
vt 0.173100 0.426696
vt 0.173100 0.479931
vt 0.831484 0.876579
vt 0.827280 0.868979
vt 0.831484 0.825775
vt 0.980806 0.975540
vt 0.988270 0.914013
vt 0.988270 0.978988
vt 0.739127 0.971051
vt 0.716271 0.944455
vt 0.739127 0.923983
vt 0.243526 0.728050
vt 0.174641 0.707189
vt 0.243526 0.670657
vt 0.055463 0.838085
vt 0.094067 0.802655
vt 0.094067 0.870582
vt 0.173406 0.582066
vt 0.099933 0.546750
vt 0.173406 0.514323
vt 0.072884 0.974936
vt 0.084060 0.946503
vt 0.084060 0.991323
vt 0.921459 0.684391
vt 0.949834 0.658433
vt 0.949834 0.719085
vt 0.388757 0.806980
vt 0.328373 0.800296
vt 0.388757 0.755123
vt 0.854473 0.097145
vt 0.847291 0.087852
vt 0.854473 0.076563
vt 0.980391 0.497611
vt 0.990413 0.494825
vt 0.990413 0.551388
vt 0.561648 0.634384
vt 0.492167 0.617831
vt 0.561648 0.568088
vt 0.803037 0.087213
vt 0.767425 0.031392
vt 0.803037 0.002763
vt 0.860969 0.953418
vt 0.860969 0.982388
vt 0.850920 0.961136
vt 0.840064 0.371948
vt 0.806935 0.298789
vt 0.840064 0.284063
vt 0.776675 0.747553
vt 0.758680 0.733185
vt 0.776675 0.731253
vt 0.871524 0.186336
vt 0.838264 0.143279
vt 0.871524 0.106293
vt 0.874291 0.274312
vt 0.836522 0.216176
vt 0.874291 0.201054
vt 0.961454 0.194847
vt 0.961454 0.261713
vt 0.942917 0.239733
vt 0.099933 0.840396
vt 0.149684 0.786421
vt 0.149684 0.843766
vt 0.692025 0.494825
vt 0.692025 0.565118
vt 0.630786 0.558580
vt 0.321048 0.790587
vt 0.321048 0.871484
vt 0.304599 0.796698
vt 0.322809 0.919544
vt 0.318795 0.916620
vt 0.322809 0.877402
vt 0.555628 0.779085
vt 0.555628 0.824840
vt 0.492167 0.823554
vt 0.099933 0.675950
vt 0.168997 0.654674
vt 0.168997 0.714222
vt 0.492167 0.712545
vt 0.546752 0.710379
vt 0.546752 0.773560
vt 0.327479 0.441748
vt 0.324708 0.437251
vt 0.327479 0.403462
vt 0.320282 0.993158
vt 0.312847 0.977190
vt 0.320282 0.948101
vt 0.448172 0.988985
vt 0.440484 0.975069
vt 0.448172 0.950136
vt 0.307321 0.993299
vt 0.299158 0.985117
vt 0.307321 0.948101
vt 0.245095 0.392020
vt 0.178985 0.409541
vt 0.185338 0.355013
vt 0.245095 0.319753
vt 0.821754 0.894754
vt 0.785608 0.831197
vt 0.821754 0.825775
vt 0.831308 0.900279
vt 0.831308 0.972665
vt 0.819290 0.969434
vt 0.328153 0.460644
vt 0.328153 0.474893
vt 0.323440 0.470949
vt 0.571655 0.834584
vt 0.627276 0.827271
vt 0.627276 0.874007
vt 0.565891 0.956318
vt 0.546296 0.899303
vt 0.565891 0.886317
vt 0.921198 0.956396
vt 0.889677 0.945545
vt 0.921198 0.911195
vt 0.906143 0.413996
vt 0.937022 0.392203
vt 0.937022 0.458933
vt 0.929346 0.724610
vt 0.929346 0.750236
vt 0.921459 0.734040
vt 0.659119 0.299452
vt 0.659119 0.388686
vt 0.610557 0.360413
vt 0.767682 0.923983
vt 0.767682 0.970719
vt 0.744653 0.970200
vt 0.486081 0.773971
vt 0.478419 0.725361
vt 0.486081 0.724835
vt 0.611230 0.986698
vt 0.606144 0.961732
vt 0.611230 0.955644
vt 0.940138 0.106293
vt 0.940138 0.184523
vt 0.916525 0.164355
vt 0.989755 0.383572
vt 0.984917 0.373630
vt 0.989755 0.349418
vt 0.085573 0.940977
vt 0.055463 0.928256
vt 0.085573 0.876108
vt 0.928025 0.942845
vt 0.952699 0.914013
vt 0.952699 0.958591
vt 0.957432 0.850019
vt 0.974626 0.838707
vt 0.974626 0.891148
vt 0.952654 0.776292
vt 0.969478 0.771304
vt 0.969478 0.825961
vt 0.396855 0.699192
vt 0.396855 0.749597
vt 0.328373 0.709283
vt 0.877050 0.143448
vt 0.910999 0.106293
vt 0.910999 0.177434
vt 0.553894 0.280939
vt 0.568117 0.279525
vt 0.568117 0.287216
vt 0.492167 0.655468
vt 0.556862 0.639910
vt 0.556862 0.704853
vt 0.980152 0.846267
vt 0.990837 0.838707
vt 0.990837 0.893775
vt 0.244540 0.505898
vt 0.242447 0.500377
vt 0.244540 0.494614
vt 0.632656 0.952286
vt 0.628888 0.926017
vt 0.632656 0.922942
vt 0.091318 0.277780
vt 0.082286 0.272643
vt 0.091318 0.186778
vt 0.638215 0.970174
vt 0.649849 0.944962
vt 0.649849 0.991937
vt 0.049938 0.802655
vt 0.049938 0.862585
vt 0.002763 0.836555
vt 0.533078 0.096486
vt 0.523258 0.090391
vt 0.533078 0.086724
vt 0.986925 0.248908
vt 0.994978 0.194847
vt 0.994978 0.255634
vt 0.955396 0.556486
vt 0.931250 0.509916
vt 0.955396 0.494825
vt 0.700459 0.926027
vt 0.700459 0.970863
vt 0.682858 0.935131
vt 0.167195 0.921056
vt 0.202640 0.908172
vt 0.202640 0.949141
vt 0.988379 0.703528
vt 0.994278 0.658433
vt 0.994278 0.703657
vt 0.244607 0.471269
vt 0.242447 0.463970
vt 0.244607 0.455557
vt 0.982853 0.711809
vt 0.970094 0.671268
vt 0.982853 0.658433
vt 0.805171 0.658433
vt 0.805171 0.725728
vt 0.758680 0.723288
vt 0.892599 0.359780
vt 0.892599 0.384605
vt 0.881394 0.368451
vt 0.486641 0.617875
vt 0.482229 0.572013
vt 0.486641 0.568088
vt 0.592464 0.394877
vt 0.589403 0.387833
vt 0.592464 0.382434
vt 0.422190 0.988627
vt 0.413304 0.964911
vt 0.422190 0.950136
vt 0.975003 0.824605
vt 0.982996 0.757642
vt 0.982996 0.825961
vt 0.486359 0.557315
vt 0.481712 0.554310
vt 0.486359 0.491106
vt 0.067358 0.991841
vt 0.055463 0.968892
vt 0.067358 0.946503
vt 0.979391 0.349418
vt 0.979391 0.384374
vt 0.968474 0.364722
vt 0.972663 0.276966
vt 0.966980 0.270755
vt 0.972663 0.251681
vt 0.992138 0.100088
vt 0.985620 0.067633
vt 0.992138 0.057835
vt 0.214911 0.851895
vt 0.214911 0.902647
vt 0.167195 0.877856
vt 0.508628 0.981575
vt 0.492167 0.943422
vt 0.508628 0.936107
vt 0.093656 0.991419
vt 0.089585 0.950858
vt 0.093656 0.946503
vt 0.299073 0.766698
vt 0.250620 0.740531
vt 0.299073 0.695439
vt 0.599053 0.289938
vt 0.597792 0.285134
vt 0.599053 0.279525
vt 0.980094 0.097381
vt 0.971233 0.063655
vt 0.980094 0.057835
vt 0.773207 0.966121
vt 0.773561 0.923983
vt 0.779366 0.926543
vt 0.779366 0.968096
vt 0.790623 0.362883
vt 0.790623 0.383465
vt 0.781952 0.374538
vt 0.622203 0.983913
vt 0.616755 0.958396
vt 0.622203 0.955644
vt 0.202509 0.986930
vt 0.196576 0.957620
vt 0.202509 0.954667
vt 0.284651 0.885318
vt 0.313269 0.877402
vt 0.313269 0.942575
vt 0.300771 0.941062
vt 0.675289 0.180270
vt 0.675289 0.195291
vt 0.670300 0.182966
vt 0.154694 0.933580
vt 0.099933 0.914191
vt 0.104906 0.905657
vt 0.154694 0.898226
vt 0.406717 0.623516
vt 0.400739 0.561884
vt 0.406717 0.560815
vt 0.099933 0.745850
vt 0.155554 0.719747
vt 0.155554 0.780896
vt 0.967598 0.343893
vt 0.948531 0.288851
vt 0.967598 0.284063
vt 0.987651 0.399538
vt 0.997237 0.392203
vt 0.997237 0.443418
vt 0.900618 0.479887
vt 0.873666 0.453986
vt 0.900618 0.392203
vt 0.791071 0.731253
vt 0.791071 0.750421
vt 0.782200 0.742404
vt 0.548368 0.279525
vt 0.548368 0.291293
vt 0.533482 0.281535
vt 0.925725 0.494825
vt 0.925725 0.569419
vt 0.898291 0.532957
vt 0.142683 0.417683
vt 0.099933 0.348871
vt 0.171086 0.337407
vt 0.171086 0.421170
vt 0.243526 0.733575
vt 0.243526 0.776684
vt 0.175573 0.767973
vt 0.167195 0.753197
vt 0.070232 0.612970
vt 0.070232 0.677417
vt 0.004782 0.657175
vt 0.002763 0.629158
vt 0.454704 0.920410
vt 0.480769 0.902891
vt 0.480769 0.957298
vt 0.475250 0.957011
vt 0.575918 0.188741
vt 0.576093 0.183217
vt 0.585586 0.180138
vt 0.585586 0.195360
vt 0.413304 0.831554
vt 0.415190 0.792750
vt 0.459597 0.784333
vt 0.459597 0.846639
vt 0.670300 0.156707
vt 0.675602 0.111575
vt 0.726077 0.106293
vt 0.726077 0.174744
vt 0.076761 0.186778
vt 0.076761 0.281732
vt 0.012927 0.261067
vt 0.002763 0.220979
vt 0.401942 0.635291
vt 0.401942 0.693667
vt 0.353735 0.689780
vt 0.328373 0.636180
vt 0.634971 0.821512
vt 0.571655 0.821745
vt 0.589576 0.775874
vt 0.634971 0.785519
vt 0.269877 0.034103
vt 0.330732 0.002763
vt 0.330732 0.090459
vt 0.269034 0.103425
vt 0.596571 0.005072
vt 0.596571 0.092768
vt 0.551655 0.092938
vt 0.542740 0.002763
vt 0.336028 0.873034
vt 0.376005 0.867970
vt 0.376005 0.917757
vt 0.328373 0.905342
vt 0.640496 0.780880
vt 0.655850 0.775874
vt 0.655850 0.854620
vt 0.650111 0.859104
vt 0.710745 0.719439
vt 0.644824 0.703049
vt 0.645786 0.691343
vt 0.710745 0.658433
vt 0.279125 0.918345
vt 0.223392 0.908696
vt 0.224872 0.888459
vt 0.279125 0.877402
vt 0.612972 0.076319
vt 0.602096 0.002763
vt 0.659826 0.018686
vt 0.659826 0.081777
vt 0.226100 0.948719
vt 0.223392 0.937320
vt 0.267962 0.923871
vt 0.267962 0.951782
vt 0.951907 0.838707
vt 0.951907 0.908487
vt 0.928025 0.895540
vt 0.937494 0.840243
vt 0.635341 0.404277
vt 0.685065 0.401833
vt 0.685065 0.465584
vt 0.622669 0.471254
vt 0.449178 0.944610
vt 0.413304 0.932369
vt 0.420888 0.908469
vt 0.449178 0.902891
vt 0.499465 0.877203
vt 0.492167 0.845677
vt 0.543712 0.830366
vt 0.543712 0.880791
vt 0.348621 0.299452
vt 0.348621 0.363576
vt 0.250620 0.338648
vt 0.251191 0.310742
vt 0.461077 0.121013
vt 0.461077 0.195528
vt 0.399137 0.178796
vt 0.392421 0.110953
vt 0.492167 0.460629
vt 0.497208 0.417841
vt 0.556525 0.410987
vt 0.556525 0.489300
vt 0.571655 0.555488
vt 0.587519 0.496842
vt 0.625260 0.494825
vt 0.625260 0.580842
vt 0.785277 0.474264
vt 0.788150 0.469703
vt 0.830965 0.462176
vt 0.830965 0.486853
vt 0.319183 0.369102
vt 0.319183 0.455118
vt 0.250620 0.425841
vt 0.255102 0.371476
vt 0.671408 0.738939
vt 0.710745 0.724964
vt 0.710745 0.790015
vt 0.667534 0.797275
vt 0.266604 0.481134
vt 0.317915 0.460644
vt 0.317915 0.530001
vt 0.250620 0.537278
vt 0.477674 0.388843
vt 0.508285 0.386729
vt 0.508285 0.403413
vt 0.473108 0.395031
vt 0.037137 0.083872
vt 0.002763 0.003207
vt 0.097604 0.002763
vt 0.097604 0.091963
vt 0.099933 0.860406
vt 0.156888 0.849292
vt 0.156888 0.892700
vt 0.217753 0.974468
vt 0.212160 0.973787
vt 0.208166 0.911235
vt 0.217753 0.908172
vt 0.657535 0.222053
vt 0.657535 0.287610
vt 0.606555 0.250515
vt 0.609465 0.201054
vt 0.716271 0.778117
vt 0.780082 0.756608
vt 0.780082 0.805481
vt 0.723978 0.802320
vt 0.849992 0.669743
vt 0.849992 0.731665
vt 0.815146 0.730366
vt 0.810697 0.658433
vt 0.395763 0.205413
vt 0.461992 0.201054
vt 0.461992 0.262803
vt 0.392421 0.281250
vt 0.881394 0.332857
vt 0.907068 0.284903
vt 0.912735 0.284063
vt 0.912735 0.354254
vt 0.106090 0.159015
vt 0.168943 0.120769
vt 0.168943 0.218851
vt 0.103130 0.232892
vt 0.796192 0.106802
vt 0.832739 0.106293
vt 0.832739 0.154743
vt 0.785487 0.170045
vt 0.542298 0.395078
vt 0.542037 0.388980
vt 0.556525 0.382434
vt 0.556525 0.405461
vt 0.077878 0.380258
vt 0.077878 0.457463
vt 0.002763 0.412634
vt 0.011640 0.383109
vt 0.183779 0.017107
vt 0.263508 0.002763
vt 0.263508 0.082560
vt 0.174613 0.063094
vt 0.715504 0.495011
vt 0.756860 0.494825
vt 0.756860 0.558540
vt 0.697551 0.526509
vt 0.048713 0.980125
vt 0.034830 0.979679
vt 0.033686 0.931764
vt 0.048713 0.925201
vt 0.574181 0.924650
vt 0.623362 0.922942
vt 0.623362 0.950119
vt 0.571655 0.930319
vt 0.382540 0.812506
vt 0.382540 0.862445
vt 0.328373 0.854314
vt 0.352628 0.815096
vt 0.562734 0.433696
vt 0.617143 0.401833
vt 0.617143 0.472696
vt 0.562051 0.489300
vt 0.492408 0.374176
vt 0.473108 0.299452
vt 0.535314 0.302973
vt 0.535314 0.381203
vt 0.561486 0.184408
vt 0.570392 0.180138
vt 0.570392 0.195313
vt 0.560468 0.190437
vt 0.255646 0.230094
vt 0.338564 0.219273
vt 0.338564 0.293926
vt 0.250620 0.284930
vt 0.183046 0.524916
vt 0.241900 0.513606
vt 0.241900 0.591919
vt 0.178985 0.587830
vt 0.855518 0.680431
vt 0.887062 0.658433
vt 0.887062 0.737468
vt 0.872609 0.738552
vt 0.407463 0.033392
vt 0.466139 0.002763
vt 0.466139 0.097810
vt 0.426683 0.100473
vt 0.761900 0.018375
vt 0.761900 0.081691
vt 0.725906 0.081557
vt 0.715587 0.002763
vt 0.935466 0.054044
vt 0.935466 0.094809
vt 0.890604 0.064178
vt 0.893509 0.057967
vt 0.676282 0.305992
vt 0.711537 0.299452
vt 0.711537 0.376942
vt 0.664645 0.385184
vt 0.187852 0.132744
vt 0.250866 0.120769
vt 0.250866 0.171772
vt 0.174469 0.213748
vt 0.244112 0.830773
vt 0.224283 0.832486
vt 0.217700 0.795778
vt 0.244112 0.782210
vt 0.644824 0.631574
vt 0.646549 0.600792
vt 0.707930 0.586367
vt 0.707930 0.652907
vt 0.617951 0.165572
vt 0.608513 0.128950
vt 0.664775 0.106293
vt 0.664775 0.184233
vt 0.966430 0.450555
vt 0.942548 0.432647
vt 0.961075 0.393320
vt 0.966430 0.392203
vt 0.093807 0.605391
vt 0.081650 0.599951
vt 0.082459 0.594375
vt 0.093807 0.587592
vt 0.466602 0.124560
vt 0.524751 0.106293
vt 0.524751 0.195528
vt 0.467737 0.180648
vt 0.601029 0.203310
vt 0.601029 0.274000
vt 0.537778 0.252733
vt 0.533482 0.201054
vt 0.472893 0.730779
vt 0.472893 0.777077
vt 0.427233 0.778808
vt 0.413304 0.724835
vt 0.527956 0.201054
vt 0.527956 0.286280
vt 0.479705 0.276543
vt 0.467517 0.227223
vt 0.062045 0.747211
vt 0.002763 0.730250
vt 0.003806 0.700364
vt 0.062045 0.682943
vt 0.437810 0.421875
vt 0.486641 0.410987
vt 0.486641 0.485581
vt 0.413304 0.470610
vt 0.777632 0.259406
vt 0.722707 0.263379
vt 0.724347 0.222376
vt 0.777632 0.201054
vt 0.779961 0.175336
vt 0.731603 0.158861
vt 0.750140 0.107189
vt 0.779961 0.106293
vt 0.407778 0.486673
vt 0.333863 0.481822
vt 0.363157 0.419921
vt 0.407778 0.415532
vt 0.257821 0.595466
vt 0.250620 0.568315
vt 0.312429 0.542804
vt 0.312429 0.619215
vt 0.907038 0.589850
vt 0.907038 0.651600
vt 0.866827 0.622320
vt 0.886955 0.590184
vt 0.169087 0.020401
vt 0.169087 0.115243
vt 0.110351 0.085950
vt 0.103130 0.002763
vt 0.467583 0.388652
vt 0.424103 0.405461
vt 0.413304 0.340134
vt 0.467583 0.299452
vt 0.517732 0.086724
vt 0.517732 0.095630
vt 0.472760 0.093503
vt 0.471665 0.087471
vt 0.298476 0.772223
vt 0.298476 0.833664
vt 0.254585 0.813147
vt 0.250620 0.774861
vt 0.757449 0.811215
vt 0.757449 0.877076
vt 0.716271 0.853620
vt 0.730912 0.811007
vt 0.900345 0.758418
vt 0.917235 0.756608
vt 0.917235 0.816824
vt 0.879707 0.797410
vt 0.676880 0.805232
vt 0.710745 0.802801
vt 0.710745 0.856177
vt 0.662204 0.859974
vt 0.449842 0.290197
vt 0.454142 0.287924
vt 0.454142 0.292667
vt 0.942548 0.474484
vt 0.950692 0.456418
vt 0.957310 0.456081
vt 0.957310 0.484554
vt 0.639298 0.586367
vt 0.639298 0.652315
vt 0.575784 0.633619
vt 0.571655 0.591431
vt 0.024708 0.868111
vt 0.048084 0.870309
vt 0.048084 0.918465
vt 0.002763 0.919675
vt 0.813126 0.593779
vt 0.813126 0.642778
vt 0.775336 0.642319
vt 0.767316 0.575702
vt 0.685722 0.006910
vt 0.710062 0.002763
vt 0.710062 0.092385
vt 0.665351 0.073795
vt 0.855678 0.516034
vt 0.892765 0.494825
vt 0.892765 0.561439
vt 0.879123 0.562580
vt 0.975281 0.966364
vt 0.962456 0.956304
vt 0.958225 0.914013
vt 0.975281 0.916425
vt 0.171291 0.590716
vt 0.171291 0.640251
vt 0.123597 0.649148
vt 0.099933 0.587592
vt 0.492167 0.541974
vt 0.566129 0.494825
vt 0.566129 0.562563
vt 0.492443 0.549417
vt 0.025330 0.099658
vt 0.094653 0.097489
vt 0.094653 0.181252
vt 0.002763 0.156962
vt 0.947129 0.824047
vt 0.941441 0.825961
vt 0.922760 0.768640
vt 0.947129 0.756608
vt 0.537215 0.003698
vt 0.537215 0.081198
vt 0.477451 0.059815
vt 0.471665 0.002763
vt 0.562051 0.392144
vt 0.562054 0.386055
vt 0.568814 0.382434
vt 0.568814 0.395949
vt 0.886427 0.207324
vt 0.908466 0.194847
vt 0.908466 0.267963
vt 0.879816 0.274312
vt 0.091877 0.700292
vt 0.082954 0.702594
vt 0.075758 0.624954
vt 0.091877 0.612970
vt 0.115372 0.313380
vt 0.099933 0.238418
vt 0.168943 0.240548
vt 0.168943 0.331881
vt 0.243526 0.597445
vt 0.243526 0.665131
vt 0.178985 0.637285
vt 0.181075 0.605221
vt 0.079151 0.293895
vt 0.092073 0.287257
vt 0.092073 0.373597
vt 0.086391 0.374467
vt 0.477896 0.654366
vt 0.477896 0.719309
vt 0.422444 0.715141
vt 0.413304 0.676093
vt 0.073625 0.287257
vt 0.073625 0.374732
vt 0.027787 0.369705
vt 0.002763 0.287478
vt 0.813765 0.954674
vt 0.785608 0.954425
vt 0.785870 0.913457
vt 0.813765 0.900279
vt 0.565916 0.710379
vt 0.565916 0.772357
vt 0.560148 0.770729
vt 0.552278 0.713012
vt 0.336784 0.029902
vt 0.401938 0.002763
vt 0.401938 0.093698
vt 0.336257 0.096509
vt 0.344730 0.492213
vt 0.407778 0.492199
vt 0.407778 0.555290
vt 0.328373 0.529463
vt 0.874262 0.898756
vt 0.874262 0.947892
vt 0.847450 0.940601
vt 0.838163 0.913090
vt 0.185962 0.240812
vt 0.245095 0.219273
vt 0.245095 0.314227
vt 0.174469 0.287790
vt 0.476579 0.648177
vt 0.413304 0.648840
vt 0.435845 0.576354
vt 0.476579 0.581308
vt 0.735902 0.392203
vt 0.735902 0.489300
vt 0.697551 0.483150
vt 0.698648 0.395272
vt 0.861302 0.648189
vt 0.819147 0.651838
vt 0.828427 0.599111
vt 0.861302 0.589850
vt 0.915933 0.658433
vt 0.915933 0.745334
vt 0.900704 0.736298
vt 0.892588 0.674125
vt 0.717181 0.201054
vt 0.717181 0.275894
vt 0.663061 0.236621
vt 0.663400 0.223536
vt 0.241540 0.111397
vt 0.174613 0.104198
vt 0.241540 0.088086
vt 0.315406 0.689914
vt 0.250620 0.662221
vt 0.264428 0.629675
vt 0.315406 0.624740
vt 0.336875 0.629766
vt 0.328373 0.560815
vt 0.395213 0.566680
vt 0.395213 0.629333
vt 0.541467 0.313277
vt 0.605031 0.299452
vt 0.605031 0.375862
vt 0.540840 0.362970
vt 0.895076 0.904786
vt 0.889677 0.838707
vt 0.922499 0.845521
vt 0.922499 0.905670
vt 0.830996 0.201054
vt 0.830996 0.264805
vt 0.783158 0.246254
vt 0.789400 0.208805
vt 0.354147 0.343479
vt 0.407778 0.299452
vt 0.407778 0.405026
vt 0.370394 0.410006
vt 0.386896 0.213748
vt 0.326221 0.185107
vt 0.325204 0.152991
vt 0.386896 0.110953
vt 0.677332 0.926129
vt 0.677332 0.979666
vt 0.662204 0.975552
vt 0.671218 0.926027
vt 0.344090 0.262833
vt 0.385974 0.219273
vt 0.385974 0.293825
vt 0.982090 0.458877
vt 0.982090 0.488728
vt 0.971956 0.484728
vt 0.099933 0.946953
vt 0.114047 0.939106
vt 0.114047 0.983223
vt 0.108387 0.983572
vt 0.761790 0.575702
vt 0.761790 0.652907
vt 0.713455 0.624549
vt 0.718057 0.586541
vt 0.476186 0.561024
vt 0.413304 0.570828
vt 0.415244 0.524460
vt 0.476186 0.491106
vt 0.649307 0.769345
vt 0.571655 0.770348
vt 0.581255 0.727635
vt 0.649307 0.731553
vt 0.976981 0.106625
vt 0.983117 0.106293
vt 0.983117 0.158410
vt 0.969738 0.158520
vt 0.495387 0.927816
vt 0.492167 0.890135
vt 0.540770 0.886317
vt 0.540770 0.930582
vt 0.994599 0.757642
vt 0.994599 0.801087
vt 0.988522 0.758020
vt 0.838163 0.863200
vt 0.884151 0.838707
vt 0.884151 0.893230
vt 0.600619 0.986194
vt 0.594743 0.984697
vt 0.600619 0.955644
vt 0.418092 0.292053
vt 0.423313 0.287924
vt 0.423313 0.293395
vt 0.444316 0.287924
vt 0.444316 0.292616
vt 0.439231 0.290107
vt 0.946415 0.589899
vt 0.964606 0.583857
vt 0.964606 0.647231
vt 0.966980 0.205213
vt 0.981400 0.194847
vt 0.981400 0.246156
vt 0.980886 0.717335
vt 0.980886 0.746605
vt 0.970094 0.743342
vt 0.813622 0.555255
vt 0.762386 0.509279
vt 0.813622 0.494825
vt 0.256392 0.118325
vt 0.319679 0.110953
vt 0.319679 0.213748
vt 0.261061 0.213160
vn -0.5899 0.5414 0.5991
vn -0.0518 0.9284 0.3679
vn -0.0817 0.0394 0.9959
vn 0.9936 -0.0649 -0.0928
vn 0.5892 0.1991 0.7831
vn 0.8355 0.4096 0.3663
vn 0.0231 0.9992 -0.0324
vn 0.0507 0.9984 -0.0258
vn 0.0430 0.9987 -0.0290
vn 0.0501 0.9985 -0.0214
vn 0.0099 -0.0224 0.9997
vn -0.0042 0.0636 -0.9980
vn -0.0096 0.0680 -0.9976
vn -0.0055 0.0728 -0.9973
vn 0.0053 0.0002 -1.0000
vn -0.0009 0.9956 -0.0940
vn 0.0217 0.9950 -0.0978
vn -1.0000 -0.0014 0.0091
vn -1.0000 -0.0027 0.0082
vn -0.0129 0.9999 -0.0044
vn -0.0162 0.9999 -0.0055
vn -0.0133 0.9999 -0.0061
vn -0.1088 0.9939 -0.0193
vn -0.6576 0.1547 -0.7373
vn -0.0303 0.9987 0.0408
vn 0.8863 0.3999 -0.2335
vn 0.8856 0.4067 -0.2242
vn 0.8850 0.4047 -0.2302
vn 0.9976 -0.0096 -0.0685
vn -0.9966 -0.0693 -0.0450
vn -0.8235 0.5643 0.0588
vn -0.8234 0.5639 0.0629
vn 0.0932 0.9927 0.0765
vn 0.0156 0.9998 -0.0130
vn 0.0174 0.9998 -0.0138
vn 0.0150 0.9998 -0.0144
vn -0.0012 1.0000 -0.0087
vn 0.0043 1.0000 -0.0057
vn 0.0036 0.9999 -0.0113
vn 0.0846 0.8078 0.5833
vn -0.9994 0.0312 0.0115
vn -0.9994 0.0334 0.0053
vn -0.9996 0.0252 0.0087
vn 0.6013 0.5097 -0.6153
vn -0.8236 0.5645 0.0545
vn -0.8260 0.5611 0.0537
vn -0.9986 0.0512 -0.0129
vn -0.9999 -0.0126 0.0051
vn 0.9999 0.0020 -0.0134
vn 1.0000 -0.0010 -0.0080
vn 0.9999 0.0076 -0.0117
vn -0.9989 -0.0438 -0.0181
vn -0.9986 -0.0534 0.0000
vn -0.9979 -0.0189 0.0622
vn 0.9996 0.0279 -0.0006
vn 0.9996 0.0284 -0.0052
vn 0.9996 0.0286 -0.0078
vn 0.0136 0.0220 -0.9997
vn 0.0125 0.0255 -0.9996
vn 0.0209 0.0242 -0.9995
vn 0.0105 0.0205 -0.9997
vn 0.0108 0.0051 -0.9999
vn 0.0171 0.0167 -0.9997
vn -0.9957 0.0808 0.0444
vn -0.9959 0.0771 0.0465
vn -0.9960 0.0785 0.0431
vn -0.0030 0.0355 0.9994
vn 0.0061 -0.0237 0.9997
vn -0.0281 -0.0367 -0.9989
vn 0.0752 0.0604 -0.9953
vn -0.8553 -0.0758 0.5125
vn 0.0679 0.0034 0.9977
vn 0.9992 -0.0393 0.0093
vn -0.1483 0.9889 0.0035
vn 0.9991 0.0293 0.0300
vn 0.9990 0.0340 -0.0280
vn 0.9990 0.0329 -0.0316
vn 0.9989 0.0347 -0.0323
vn 0.0407 0.0164 0.9990
vn 0.0375 0.0183 0.9991
vn 0.0310 0.0125 0.9994
vn -0.0937 0.0585 0.9939
vn -0.8032 0.3713 0.4658
vn -0.8037 0.3740 0.4628
vn -0.8021 0.3742 0.4654
vn -0.1193 -0.0293 -0.9924
vn -0.0578 0.0567 -0.9967
vn 0.0000 0.0627 -0.9980
vn -0.0036 0.0566 -0.9984
vn -0.0058 0.0652 -0.9979
vn -0.9975 0.0263 0.0650
vn -0.5231 0.8033 -0.2848
vn -0.0205 0.9997 -0.0097
vn -0.0168 0.9998 -0.0080
vn -0.0201 0.9997 -0.0133
vn 0.6223 -0.2607 -0.7381
vn 0.5351 0.5439 -0.6464
vn 0.6706 0.1749 0.7209
vn 0.0213 0.0227 0.9995
vn 0.0151 0.0212 0.9997
vn -0.8261 -0.5423 -0.1530
vn -0.7767 0.4821 -0.4054
vn 0.8602 0.1737 -0.4795
vn -0.8831 0.4477 -0.1404
vn 0.0489 0.9988 0.0007
vn 0.0476 0.9989 0.0028
vn 0.0535 0.9986 -0.0055
vn 0.6120 0.7046 -0.3592
vn -0.1342 0.9909 -0.0102
vn -0.3687 0.4996 0.7839
vn 0.3201 0.0397 -0.9465
vn 0.7592 0.6360 0.1381
vn 0.8051 0.0405 -0.5918
vn -0.3444 -0.1887 0.9197
vn -0.6357 -0.5116 0.5781
vn -0.0088 1.0000 -0.0029
vn -0.3274 0.4744 -0.8172
vn 0.0131 0.9999 -0.0094
vn 0.0222 0.9997 -0.0060
vn 0.0063 1.0000 -0.0007
vn 0.7898 0.0668 0.6097
vn -0.5712 0.3555 0.7398
vn -0.5566 0.2640 -0.7877
vn 0.0274 0.6076 -0.7938
vn -0.0395 0.6332 -0.7730
vn 0.5324 0.0443 -0.8453
vn -0.6869 0.0454 -0.7253
vn -0.7340 0.0370 0.6781
vn 0.7291 0.6841 0.0173
vn -0.5055 0.8444 0.1776
vn -0.0308 0.0455 -0.9985
vn -0.0305 0.0381 -0.9988
vn -0.0329 0.0422 -0.9986
vn -0.8171 0.2154 0.5347
vn -0.0587 -0.0059 -0.9983
vn 0.0286 0.0974 0.9948
vn 0.0334 0.0998 0.9944
vn 0.0304 0.1000 0.9945
vn -0.0119 -0.0612 0.9981
vn -0.0212 0.1949 0.9806
vn 0.9154 0.2545 0.3119
vn -0.0050 -0.0007 1.0000
vn 0.0242 0.0182 -0.9995
vn 0.0833 0.0338 0.9960
vn 0.5830 -0.1912 0.7897
vn 0.0083 0.9945 -0.1047
vn 0.0903 0.9955 -0.0284
vn -0.0874 0.0317 -0.9957
vn 0.0291 0.9996 -0.0046
vn -0.9965 0.0665 -0.0511
vn -0.9993 -0.0193 0.0331
vn -0.0196 0.9998 -0.0042
vn -0.0220 0.9997 -0.0060
vn -0.0185 0.9998 -0.0061
vn 0.0079 0.9965 0.0834
vn -0.1396 -0.0011 0.9902
vn -0.0803 0.0981 0.9919
vn -0.0018 0.9999 -0.0142
vn 0.0008 0.9999 -0.0167
vn -0.0060 0.9999 -0.0159
vn -0.5675 0.2848 -0.7726
vn 0.0567 0.0146 -0.9983
vn -0.0303 0.9987 0.0407
vn 0.0172 0.9998 -0.0091
vn 0.8827 0.4093 -0.2309
vn 0.8800 0.4144 -0.2323
vn 0.8828 0.4088 -0.2314
vn -0.0276 0.9946 0.0998
vn 0.5132 0.6106 -0.6031
vn -0.9990 0.0382 -0.0219
vn -0.9991 0.0383 -0.0179
vn -0.9988 0.0431 -0.0231
vn 0.0333 0.9993 0.0152
vn 0.0240 0.9995 0.0210
vn 0.0259 0.9995 0.0179
vn 0.9956 -0.0862 0.0368
vn -0.9989 0.0464 -0.0075
vn -0.0194 0.9996 -0.0214
vn -0.9940 -0.1065 -0.0249
vn -0.9295 0.0746 0.3612
vn -0.9999 0.0132 0.0110
vn -0.9996 0.0250 0.0095
vn -0.9998 0.0187 0.0074
vn 0.9999 0.0044 -0.0148
vn -0.9981 0.0392 0.0466
vn -0.2144 0.0164 -0.9766
vn -0.0107 0.1075 -0.9941
vn 0.9939 -0.0542 -0.0960
vn 0.9565 0.2515 -0.1477
vn 0.9994 -0.0018 0.0333
vn 0.9994 -0.0019 0.0337
vn 0.9996 -0.0071 0.0288
vn 0.9996 -0.0070 0.0283
vn -0.0114 -0.0117 -0.9999
vn -0.0116 -0.0151 -0.9998
vn -0.0123 -0.0096 -0.9999
vn -0.1241 0.9845 0.1240
vn 0.7397 0.4256 -0.5213
vn 0.0222 0.0477 0.9986
vn -0.0205 0.0141 -0.9997
vn -0.0049 0.1047 -0.9945
vn -0.0161 0.9998 0.0076
vn -0.0176 0.9998 0.0064
vn -0.8358 0.0295 0.5482
vn -0.0061 0.0477 0.9988
vn 0.0240 0.1001 0.9947
vn 0.0245 0.1031 0.9944
vn 0.0209 0.1006 0.9947
vn -0.1151 0.9804 0.1600
vn 0.9753 -0.1021 0.1957
vn 0.9981 -0.0490 0.0381
vn 0.0910 -0.0389 0.9951
vn 0.9996 0.0220 -0.0204
vn -0.9865 0.0788 0.1433
vn -0.9995 -0.0225 0.0211
vn -0.9940 -0.1072 -0.0236
vn -0.0078 -0.0250 0.9997
vn 0.0484 0.0656 0.9967
vn -0.8070 0.3669 0.4629
vn -0.8053 0.3691 0.4640
vn -0.8067 0.3664 0.4637
vn -0.0032 -0.0096 -0.9999
vn -0.9988 0.0175 0.0453
vn -0.5498 0.7223 -0.4196
vn -0.3876 -0.0419 -0.9209
vn 0.1091 0.9940 0.0074
vn -0.2197 0.9733 -0.0662
vn 0.0161 0.9997 0.0165
vn 0.0300 0.9992 0.0266
vn 0.0256 0.9995 0.0175
vn 0.6922 0.3454 -0.6337
vn -0.9999 -0.0073 -0.0075
vn -0.9995 0.0283 0.0169
vn 0.0262 0.0264 0.9993
vn 0.0168 0.0171 0.9997
vn 0.0217 0.0213 0.9995
vn -0.0108 -0.0086 0.9999
vn -0.0112 -0.0130 0.9999
vn -0.0093 -0.0109 0.9999
vn 0.0211 0.0222 0.9995
vn 0.0158 0.0260 0.9995
vn -0.8269 -0.5027 -0.2519
vn 0.9855 0.0536 -0.1612
vn -0.0191 0.9998 0.0115
vn -0.0121 0.9996 0.0259
vn -0.0100 0.9999 0.0059
vn 0.8764 -0.1052 -0.4699
vn -0.1481 0.0619 -0.9870
vn -0.9019 0.4104 -0.1344
vn 0.1358 0.0435 -0.9898
vn 0.0571 0.9961 0.0669
vn 0.0234 0.9995 -0.0212
vn -0.1808 0.0098 -0.9835
vn -0.3915 0.4483 0.8036
vn 0.8207 0.0475 -0.5694
vn 0.9940 -0.0395 0.1018
vn -0.0703 0.9975 -0.0072
vn 0.0064 0.0607 0.9981
vn -0.1474 0.9874 0.0573
vn 0.0075 0.9998 0.0207
vn -0.9279 0.3723 -0.0191
vn 0.2133 0.9763 -0.0369
vn -0.0086 0.6535 0.7568
vn -0.0038 0.6323 0.7748
vn -0.8366 0.4827 -0.2592
vn 0.7256 -0.0243 -0.6877
vn -0.6901 0.0481 0.7221
vn 0.9992 0.0342 0.0184
vn 0.9011 0.4332 0.0188
vn 0.9011 0.4331 0.0188
vn 0.9879 0.1142 -0.1046
vn 0.5452 0.3416 -0.7656
vn -0.0217 0.9990 -0.0389
vn -0.0233 0.9989 -0.0402
vn -0.0178 0.9992 -0.0355
vn -0.0168 0.9993 -0.0347
vn -0.0098 0.2697 0.9629
vn -0.0291 0.0490 -0.9984
vn -0.0315 0.0449 -0.9985
vn -0.0318 0.0517 -0.9982
vn -0.0651 -0.0494 -0.9967
vn -0.0790 0.8956 0.4378
vn 0.0181 0.9995 -0.0266
vn 0.5660 0.6255 -0.5371
vn 0.5223 0.6196 -0.5859
vn 0.0262 0.9997 0.0023
vn 0.0103 0.9997 0.0199
vn 0.0195 0.9997 0.0137
vn 0.0415 0.9989 0.0215
vn 0.0791 0.9969 0.0049
vn 0.9997 -0.0228 0.0050
vn 0.9998 -0.0194 0.0038
vn 0.9997 -0.0205 0.0094
vn 0.9997 -0.0213 0.0154
vn 0.9991 0.0380 0.0160
vn 0.9992 0.0349 0.0183
vn 0.9994 0.0308 0.0171
vn 0.9993 0.0356 0.0121
vn -0.3372 0.9330 -0.1257
vn -0.4770 0.8485 -0.2292
vn -0.3585 0.7899 0.4974
vn -0.4638 0.7756 0.4282
vn 0.9996 -0.0261 0.0076
vn 0.9997 -0.0256 0.0066
vn 0.9996 -0.0259 0.0072
vn 0.9994 -0.0306 0.0168
vn -0.0637 0.9977 -0.0248
vn -0.0634 0.9977 -0.0250
vn -0.0636 0.9977 -0.0249
vn -0.0659 0.9976 -0.0234
vn 0.0317 0.9995 0.0001
vn 0.0396 0.9992 -0.0093
vn 0.0311 0.9995 0.0008
vn 0.0307 0.9995 0.0013
vn -0.0070 0.9999 -0.0108
vn -0.0078 0.9999 -0.0140
vn -0.0076 0.9999 -0.0075
vn 0.0003 1.0000 -0.0063
vn -0.0212 -0.0070 0.9998
vn -0.0211 -0.0068 0.9998
vn -0.0243 -0.0032 0.9997
vn -0.0249 -0.0030 0.9997
vn 0.0268 0.9996 0.0119
vn 0.0266 0.9996 0.0022
vn 0.0214 0.9998 -0.0043
vn 0.0279 0.9996 0.0067
vn 0.0214 0.9995 0.0245
vn 0.0306 0.9993 0.0210
vn 0.0284 0.9994 0.0183
vn 0.0284 0.9994 0.0189
vn 0.0054 0.0426 -0.9991
vn 0.0074 0.0428 -0.9991
vn -0.0042 0.0469 -0.9989
vn -0.0013 0.0289 -0.9996
vn 0.9430 0.3307 -0.0365
vn 0.9452 0.3245 -0.0352
vn 0.9443 0.3270 -0.0357
vn 0.9422 0.3331 -0.0370
vn -0.0514 0.9986 0.0091
vn -0.0399 0.9991 0.0119
vn -0.0366 0.9993 0.0073
vn -0.0345 0.9993 -0.0113
vn 0.0126 -0.0540 -0.9985
vn 0.0270 0.9992 0.0299
vn 0.0273 0.9992 0.0297
vn 0.0251 0.9990 0.0379
vn 0.0314 0.9989 0.0340
vn -0.0229 0.9997 0.0070
vn -0.0187 0.9997 0.0174
vn -0.0269 0.9990 0.0349
vn -0.0087 0.9993 0.0359
vn 0.0533 0.0497 0.9973
vn 0.0621 0.0310 0.9976
vn 0.0621 0.0309 0.9976
vn 0.0101 0.0076 0.9999
vn 0.0091 0.0242 0.9997
vn -0.0089 0.0067 0.9999
vn 0.0073 0.0110 0.9999
vn 0.9974 -0.0410 -0.0599
vn 0.0137 0.9998 -0.0155
vn 0.0123 0.9998 -0.0161
vn 0.0125 0.9998 -0.0144
vn 0.0149 0.9998 -0.0140
vn -0.0008 1.0000 -0.0059
vn 0.0063 1.0000 0.0018
vn 0.0028 1.0000 0.0034
vn 0.0119 0.9999 0.0045
vn -0.0372 0.0082 0.9993
vn -0.0373 0.0077 0.9993
vn -0.0372 0.0085 0.9993
vn -0.0260 0.9963 0.0822
vn 0.0055 0.9997 0.0247
vn 0.0204 0.9991 0.0359
vn -0.0030 0.9998 -0.0175
vn -0.0020 0.9999 -0.0129
vn 0.0021 0.9999 -0.0159
vn -0.0883 0.4067 -0.9093
vn -0.0882 0.4067 -0.9093
vn -0.6943 0.2436 -0.6772
vn -0.0025 0.9998 -0.0199
vn -0.0015 0.9999 -0.0148
vn 0.0104 0.9999 -0.0108
vn 0.0080 0.9998 -0.0165
vn 1.0000 0.0029 0.0028
vn 0.9999 0.0104 0.0026
vn 1.0000 0.0067 -0.0023
vn 1.0000 0.0057 -0.0015
vn -0.0055 0.9991 0.0423
vn -0.0056 0.9991 0.0423
vn 0.0018 0.9996 0.0284
vn -0.0008 0.9994 0.0332
vn -0.4707 0.0097 0.8822
vn -0.6376 -0.0868 0.7655
vn -0.0085 0.9998 -0.0170
vn -0.0196 0.9995 -0.0265
vn -0.0375 0.9993 0.0044
vn -0.0279 0.9996 0.0011
vn 0.9882 -0.1212 -0.0940
vn 0.9939 -0.1060 -0.0295
vn 0.9990 -0.0298 -0.0332
vn 0.5974 0.8014 0.0287
vn 0.5975 0.8014 0.0287
vn 0.5648 0.8249 0.0241
vn -0.9999 -0.0036 0.0102
vn -1.0000 -0.0029 0.0087
vn 0.0083 0.0051 1.0000
vn 0.0093 -0.0026 1.0000
vn 0.0066 -0.0049 1.0000
vn 0.0133 -0.0004 0.9999
vn 0.0422 0.9986 -0.0333
vn 0.0415 0.9985 -0.0347
vn 0.0450 0.9986 -0.0282
vn 0.0456 0.9986 -0.0273
vn -0.9989 0.0459 -0.0076
vn -0.9991 0.0414 -0.0136
vn -0.9991 0.0412 -0.0133
vn -0.9989 0.0457 -0.0140
vn -0.1467 0.9375 0.3154
vn -0.1606 0.9678 0.1940
vn -0.0033 1.0000 -0.0017
vn -0.0041 1.0000 -0.0002
vn -0.0036 1.0000 -0.0085
vn -0.0032 1.0000 -0.0005
vn 0.0123 -0.0216 -0.9997
vn 0.0125 -0.0231 -0.9997
vn 0.0124 -0.0225 -0.9997
vn 0.0121 -0.0201 -0.9997
vn 0.6953 -0.4882 -0.5274
vn 0.6948 -0.4888 -0.5277
vn 0.6959 -0.4876 -0.5272
vn 0.7010 -0.4823 -0.5253
vn -0.0215 0.0255 -0.9994
vn -0.0181 0.0246 -0.9995
vn -0.0158 0.0306 -0.9994
vn -0.0092 0.0156 -0.9998
vn -0.0194 0.9998 -0.0029
vn -0.0133 0.9999 -0.0070
vn -0.0200 0.9998 -0.0043
vn -0.0198 0.9998 -0.0071
vn -0.0554 0.9984 -0.0061
vn -0.0584 0.9983 -0.0028
vn -0.0736 0.9973 -0.0026
vn -0.0691 0.9975 0.0117
vn 0.0284 0.9846 -0.1726
vn -0.0002 0.9961 -0.0884
vn 0.1690 0.7624 -0.6246
vn 0.1689 0.7622 -0.6250
vn 0.1691 0.7627 -0.6242
vn 0.0106 0.0191 -0.9998
vn -0.0030 0.0074 -1.0000
vn 0.0105 0.0191 -0.9998
vn 0.0114 0.0053 -0.9999
vn 0.0043 -0.0013 -1.0000
vn 0.0100 0.0117 -0.9999
vn 0.0104 0.0123 -0.9999
vn 0.9991 -0.0258 0.0337
vn 0.9991 -0.0250 0.0338
vn 0.9989 -0.0329 0.0325
vn 0.9989 -0.0342 0.0323
vn -0.4470 0.7479 0.4907
vn -0.5275 0.7564 0.3868
vn 0.0270 0.9996 -0.0029
vn 0.0217 0.9997 -0.0060
vn 0.0193 0.9998 -0.0095
vn 0.0192 0.9998 -0.0022
vn 0.0293 0.9995 0.0113
vn 0.0201 0.9998 0.0034
vn 0.0349 0.9994 0.0054
vn 0.0227 0.9997 0.0104
vn 0.0120 0.0349 0.9993
vn 0.0118 0.0344 0.9993
vn -0.0297 0.9994 0.0153
vn -0.0370 0.9988 0.0323
vn -0.0096 -0.0010 1.0000
vn -0.0023 -0.0029 1.0000
vn -0.0042 0.0004 1.0000
vn 0.0036 -0.0060 1.0000
vn -0.0261 0.9986 0.0451
vn -0.0239 0.9994 0.0264
vn -0.9987 -0.0270 0.0422
vn -0.9987 -0.0284 0.0425
vn -0.9988 -0.0261 0.0421
vn 0.0401 0.0161 -0.9991
vn 0.0405 0.0150 -0.9991
vn 0.0222 0.0208 -0.9995
vn 0.0261 0.0052 -0.9996
vn 0.9986 0.0129 0.0517
vn 0.0072 -0.0126 -0.9999
vn 0.0016 -0.0089 -1.0000
vn 0.0166 -0.0023 -0.9999
vn 0.0152 -0.0087 -0.9998
vn -0.0663 0.0007 0.9978
vn -0.0603 0.0160 0.9981
vn -0.9928 0.0544 -0.1070
vn -0.9951 0.0339 -0.0925
vn 0.5484 0.5812 0.6012
vn 0.5723 0.5766 0.5832
vn 0.0370 0.0447 0.9983
vn 0.0405 0.0408 0.9983
vn 0.0386 0.0429 0.9983
vn 0.0364 0.0453 0.9983
vn -0.0132 0.9999 0.0085
vn -0.0151 0.9998 0.0087
vn -0.0125 0.9999 0.0096
vn 0.0134 0.9993 -0.0357
vn 0.0136 0.9993 -0.0360
vn 0.0104 0.9994 -0.0317
vn -0.0093 0.0242 -0.9997
vn -0.0247 0.0324 -0.9992
vn -0.0225 0.0228 -0.9995
vn -0.0218 0.0358 -0.9991
vn -0.9986 0.0508 0.0109
vn 0.0053 1.0000 0.0053
vn 0.0170 0.9998 0.0066
vn 0.0264 0.9996 -0.0060
vn 0.0124 0.9998 -0.0130
vn -0.9989 -0.0373 -0.0274
vn -0.9989 -0.0368 -0.0273
vn -0.9989 -0.0390 -0.0279
vn -0.9988 -0.0405 -0.0283
vn 0.9993 0.0237 -0.0282
vn 0.9991 0.0263 -0.0325
vn 0.9991 0.0254 -0.0329
vn 0.9993 0.0288 -0.0251
vn 0.0123 0.0283 0.9995
vn 0.0076 0.0271 0.9996
vn 0.0165 0.0253 0.9995
vn 0.0161 0.0240 0.9996
vn 0.9991 0.0430 0.0067
vn 0.9992 0.0383 0.0114
vn 0.9995 0.0327 -0.0006
vn 0.9990 0.0440 0.0076
vn -0.9993 0.0364 -0.0090
vn -0.9990 0.0397 -0.0186
vn -0.9993 0.0337 -0.0145
vn -0.9992 0.0377 -0.0140
vn -0.0076 1.0000 0.0002
vn -0.0039 1.0000 -0.0036
vn -0.0078 0.9999 0.0068
vn 0.0006 1.0000 0.0041
vn 0.0371 0.9989 -0.0279
vn 0.0268 0.9996 -0.0123
vn 0.0270 0.9994 -0.0233
vn -0.6734 0.0634 -0.7365
vn -0.6714 0.0639 -0.7383
vn -0.6708 0.0641 -0.7388
vn -0.6728 0.0636 -0.7370
vn 0.0503 0.0424 -0.9978
vn 0.0497 0.0432 -0.9978
vn 0.0511 0.0414 -0.9978
vn 0.0512 0.0413 -0.9978
vn -0.0274 0.0601 -0.9978
vn -0.0400 0.0393 -0.9984
vn 0.9995 -0.0315 -0.0100
vn 0.9998 -0.0162 -0.0141
vn 0.9998 -0.0159 -0.0140
vn 0.9987 0.0405 0.0321
vn 0.9994 0.0317 0.0164
vn -0.7407 0.5073 -0.4405
vn -0.7260 -0.1802 0.6637
vn -0.7264 -0.1804 0.6632
vn -0.7253 -0.1796 0.6646
vn 0.0209 0.9998 0.0037
vn 0.0259 0.9997 -0.0012
vn 0.0258 0.9997 -0.0011
vn 0.0203 0.9998 0.0043
vn 0.0360 0.0401 -0.9985
vn 0.0373 0.0359 -0.9987
vn 0.0367 0.0368 -0.9986
vn 0.0319 0.0460 -0.9984
vn 0.0375 0.0162 0.9992
vn -0.0262 0.0026 0.9997
vn -0.0286 -0.0029 0.9996
vn -0.0280 -0.0016 0.9996
vn -0.0257 0.0038 0.9997
vn 0.0200 -0.0079 -0.9998
vn 0.0121 0.0021 -0.9999
vn 0.0206 -0.0012 -0.9998
vn 0.0208 -0.0100 -0.9997
vn 0.2709 0.0575 -0.9609
vn 0.8081 -0.0629 -0.5857
vn 0.8081 -0.0629 -0.5856
vn -0.0384 0.9991 -0.0193
vn -0.0380 0.9991 -0.0198
vn -0.0385 0.9991 -0.0191
vn -0.0438 0.9990 -0.0126
vn 0.0097 0.9999 -0.0107
vn 0.0077 0.9999 -0.0109
vn -0.0006 0.9999 -0.0102
vn -0.0034 1.0000 0.0065
vn -0.0070 0.9999 0.0114
vn -0.0391 0.9992 -0.0119
vn -0.1426 0.7119 -0.6877
vn -0.1426 0.7120 -0.6875
vn -0.1424 0.7115 -0.6881
vn -0.9992 0.0270 -0.0283
vn -0.9991 0.0300 -0.0289
vn -0.9992 0.0274 -0.0284
vn -0.9993 0.0243 -0.0279
vn 0.5758 -0.5335 0.6195
vn 0.5757 -0.5327 0.6203
vn 0.5757 -0.5330 0.6201
vn 0.5765 -0.5373 0.6156
vn -0.0145 -0.0113 -0.9998
vn -0.0190 -0.0157 -0.9997
vn -0.0122 -0.0143 -0.9998
vn -0.0149 -0.0097 -0.9998
vn -0.9994 -0.0014 0.0352
vn -0.9993 0.0046 0.0368
vn -0.9993 0.0024 0.0362
vn -0.9994 -0.0034 0.0346
vn 0.9996 0.0285 -0.0044
vn 0.9995 0.0300 -0.0029
vn 0.9993 0.0374 0.0010
vn 0.9993 0.0369 0.0012
vn -0.0016 0.9997 0.0248
vn 0.0072 0.9998 0.0211
vn 0.0073 0.9999 0.0143
vn -0.9305 0.3657 0.0200
vn -0.9306 0.3654 0.0199
vn -0.9304 0.3661 0.0201
vn -0.9302 0.3665 0.0201
vn 0.0057 0.0163 -0.9999
vn -0.0011 0.0124 -0.9999
vn 0.0012 0.0173 -0.9999
vn 0.0062 0.0165 -0.9998
vn -0.0129 0.0132 -0.9998
vn -0.0290 0.0185 -0.9994
vn -0.0238 0.0169 -0.9996
vn -0.0234 0.0173 -0.9996
vn -0.0040 -0.0228 0.9997
vn -0.0065 -0.0280 0.9996
vn -0.0061 -0.0271 0.9996
vn -0.0037 -0.0221 0.9997
vn -0.0045 0.9856 -0.1692
vn -0.0041 0.9858 -0.1680
vn -0.0051 0.9852 -0.1711
vn -0.0055 0.9850 -0.1724
vn -0.0129 0.0173 -0.9998
vn -0.0132 0.0164 -0.9998
vn -0.0125 0.0184 -0.9998
vn 0.0133 0.9994 0.0315
vn 0.0149 0.9996 0.0242
vn 0.0038 0.9995 0.0303
vn 0.0077 0.9996 0.0259
vn -0.0710 0.9935 -0.0893
vn -0.0713 0.9934 -0.0901
vn -0.0707 0.9936 -0.0886
vn -0.0707 0.9936 -0.0885
vn 0.0124 0.9999 -0.0087
vn 0.0109 0.9999 -0.0046
vn 0.0026 1.0000 -0.0054
vn 0.0095 0.9999 -0.0044
vn -0.9983 -0.0020 -0.0579
vn -0.9988 -0.0011 -0.0488
vn -0.9988 -0.0011 -0.0492
vn -0.9982 -0.0023 -0.0596
vn 0.0526 0.9986 -0.0083
vn 0.0519 0.9987 -0.0014
vn 0.0515 0.9986 0.0080
vn 0.0514 0.9986 0.0080
vn 0.0275 -0.0103 0.9996
vn 0.0303 -0.0134 0.9994
vn 0.0310 -0.0128 0.9994
vn 0.0337 -0.0075 0.9994
vn 0.0004 0.0786 0.9969
vn 0.0003 0.0789 0.9969
vn -0.9959 0.0790 0.0447
vn -0.9960 0.0759 0.0473
vn -0.9960 0.0785 0.0437
vn -0.9962 0.0760 0.0427
vn 0.1538 0.6989 -0.6984
vn 0.0071 0.9990 -0.0434
vn -0.0086 0.9983 -0.0581
vn 0.0397 -0.0034 0.9992
vn 0.0352 -0.0035 0.9994
vn 0.0356 -0.0032 0.9994
vn 0.0345 -0.0082 0.9994
vn 0.9992 0.0394 -0.0047
vn 0.9993 0.0378 -0.0002
vn 0.9995 0.0299 -0.0040
vn 0.9993 0.0357 -0.0096
vn 0.0063 -0.0296 -0.9995
vn 0.0097 -0.0150 -0.9998
vn 0.0033 -0.0253 0.9997
vn 0.0033 -0.0252 0.9997
vn -0.0195 0.0020 0.9998
vn -0.0053 -0.0129 0.9999
vn -0.0094 -0.0170 0.9998
vn -0.0059 -0.0174 0.9998
vn -0.0062 -0.0131 0.9999
vn 0.0517 0.9986 0.0142
vn 0.0291 0.9996 0.0041
vn 0.0366 0.9993 -0.0054
vn 0.0486 0.9388 0.3410
vn 0.0826 0.8951 0.4382
vn -0.0061 0.9997 0.0221
vn -0.0096 0.9997 0.0204
vn -0.0127 0.9997 0.0227
vn -0.8138 0.5804 0.0292
vn 0.9329 0.3541 0.0663
vn 0.9252 0.3742 0.0626
vn 0.0226 0.0457 -0.9987
vn 0.0310 0.0405 -0.9987
vn 0.0228 0.0392 -0.9990
vn 0.0217 0.0463 -0.9987
vn -0.0286 0.0178 0.9994
vn -0.0293 0.0172 0.9994
vn -0.0282 0.0181 0.9994
vn -0.0110 0.0180 0.9998
vn -0.0113 0.0183 0.9998
vn -0.0062 0.0292 0.9996
vn -0.0141 0.0088 0.9999
vn -0.0466 0.4365 -0.8985
vn -0.0480 0.4413 -0.8961
vn -0.0474 0.4394 -0.8970
vn -0.0459 0.4343 -0.8996
vn 0.0344 0.0292 0.9990
vn 0.0338 0.0230 0.9992
vn 0.0244 0.0263 0.9994
vn 0.0278 0.0129 0.9995
vn 0.6789 -0.0242 0.7338
vn 0.0003 0.9999 0.0145
vn -0.0064 0.9999 0.0156
vn -0.0027 0.9999 0.0168
vn -0.0240 0.5623 0.8266
vn -0.5410 -0.3698 -0.7554
vn 0.6348 0.5591 -0.5333
vn -0.1305 0.6547 -0.7445
vn 0.5707 0.1264 0.8114
vn -0.6975 -0.1330 0.7042
vn -0.0176 0.9998 0.0089
vn -0.0664 0.9978 0.0047
vn -0.0547 0.9985 -0.0030
vn -0.0566 0.9984 -0.0042
vn -0.0654 0.9978 -0.0096
g Block_L_1_Block_L_1_Collor_Material
usemtl Collor_Material
s off
f 205/1/1 207/2/1 204/3/1
f 195/4/2 168/5/2 169/6/2
f 180/7/3 127/8/3 203/9/3
f 120/10/4 141/11/4 104/12/4
f 195/13/5 193/14/5 194/15/5
f 147/16/6 242/17/6 148/18/6
f 142/19/7 120/20/7 196/21/7
f 36/22/8 12/23/9 38/24/10
f 6/25/11 88/26/11 73/27/11
f 68/28/12 16/29/13 1/30/14
f 93/31/15 17/32/15 16/33/15
f 175/34/16 241/35/16 147/36/16
f 134/37/17 154/38/17 41/39/17
f 53/40/18 210/41/19 129/42/19
f 37/43/20 138/44/21 226/45/22
f 40/46/23 43/47/23 41/48/23
f 136/49/24 222/50/24 77/51/24
f 228/52/25 39/53/25 140/54/25
f 136/55/26 223/56/27 224/57/28
f 232/58/29 144/59/29 112/60/29
f 117/61/30 150/62/30 249/63/30
f 152/64/31 254/65/32 153/66/32
f 22/67/33 66/68/33 64/69/33
f 60/70/34 63/71/35 61/72/36
f 51/73/37 13/74/38 5/75/39
f 145/76/40 146/77/40 238/78/40
f 3/79/41 116/80/42 71/81/43
f 124/82/44 196/83/44 120/84/44
f 159/85/45 152/86/46 153/87/45
f 117/88/47 118/89/47 119/90/47
f 119/91/48 250/92/48 117/93/48
f 54/94/49 115/95/50 55/96/51
f 109/97/52 30/98/52 31/99/52
f 3/100/53 109/101/53 31/102/53
f 70/103/54 109/104/54 71/105/54
f 105/106/55 106/107/56 107/108/57
f 101/109/58 24/110/59 25/111/60
f 100/112/61 103/113/62 101/114/63
f 130/115/64 215/116/65 156/117/66
f 97/118/67 26/119/67 27/120/67
f 73/121/68 27/122/68 6/123/68
f 174/124/69 77/125/69 94/126/69
f 94/127/70 93/128/70 92/129/70
f 147/130/71 243/131/71 244/132/71
f 161/133/72 149/134/72 96/135/72
f 227/136/73 139/137/73 106/138/73
f 143/139/74 233/140/74 166/141/74
f 180/142/75 202/143/75 126/144/75
f 107/145/76 78/146/77 79/147/78
f 91/148/79 75/149/80 74/150/81
f 162/151/82 128/152/82 211/153/82
f 129/154/83 211/155/84 128/156/85
f 225/157/86 137/158/86 84/159/86
f 77/160/87 95/161/87 94/162/87
f 24/163/88 68/164/89 1/165/90
f 184/166/91 212/167/91 130/168/91
f 131/169/92 215/170/92 130/171/92
f 187/172/93 67/173/94 189/174/95
f 123/175/96 124/176/96 125/177/96
f 125/178/97 201/179/97 123/180/97
f 126/181/98 127/182/98 9/183/98
f 207/184/99 208/185/99 99/186/100
f 212/187/101 131/188/101 130/189/101
f 133/190/102 216/191/102 132/192/102
f 134/193/103 217/194/103 218/195/103
f 134/196/104 220/197/104 135/198/104
f 136/199/105 173/200/106 32/201/107
f 141/202/108 142/203/108 231/204/108
f 166/205/109 229/206/109 140/207/109
f 143/208/110 232/209/110 233/210/110
f 172/211/111 171/212/111 86/213/111
f 141/214/112 120/215/112 142/216/112
f 234/217/113 144/218/113 143/219/113
f 246/220/114 149/221/114 245/222/114
f 246/223/115 247/224/115 149/225/115
f 63/226/116 160/227/116 175/228/116
f 150/229/117 251/230/117 151/231/117
f 152/232/118 158/233/119 44/234/120
f 186/235/121 187/236/121 188/237/121
f 236/238/122 237/239/122 238/240/122
f 252/241/123 253/242/123 254/243/123
f 176/244/124 182/245/124 177/246/124
f 170/247/125 196/248/125 171/249/125
f 200/250/126 197/251/126 201/252/126
f 212/253/127 184/254/127 183/255/127 213/256/127
f 206/257/128 208/258/128 207/259/128
f 179/260/129 235/261/129 234/262/129
f 158/263/130 152/264/130 159/265/130
f 92/266/131 155/267/132 135/268/133
f 205/269/134 206/270/134 207/271/134
f 69/272/135 16/273/135 68/274/135
f 161/275/136 72/276/137 89/277/138
f 98/278/139 96/279/139 149/280/139
f 149/281/140 247/282/140 98/283/140
f 147/284/141 241/285/141 242/286/141
f 6/287/142 21/288/142 88/289/142
f 93/290/143 95/291/143 17/292/143
f 238/293/144 237/294/144 74/295/144
f 98/296/145 186/297/145 188/298/145
f 143/299/146 59/300/146 234/301/146
f 177/302/147 45/303/147 178/304/147
f 131/305/148 213/306/148 183/307/148
f 218/308/149 154/309/149 134/310/149
f 53/311/150 163/312/150 210/313/150
f 110/314/151 108/315/151 253/316/151
f 226/317/152 221/318/153 37/319/154
f 40/320/155 42/321/155 43/322/155
f 242/323/156 175/324/156 148/325/156
f 175/326/157 89/327/157 148/328/157
f 28/329/158 29/330/159 40/331/160
f 136/332/161 221/333/161 222/334/161
f 92/335/162 135/336/162 94/337/162
f 142/338/163 39/339/163 228/340/163
f 39/341/164 38/342/164 140/343/164
f 136/344/165 77/345/166 223/346/167
f 43/347/168 42/348/168 33/349/168
f 121/350/169 122/351/169 199/352/169
f 249/353/170 159/354/171 70/355/172
f 51/356/173 57/357/174 13/358/175
f 114/359/176 112/360/176 144/361/176
f 3/362/177 52/363/177 116/364/177
f 62/365/178 48/366/178 49/367/178
f 190/368/179 250/369/179 119/370/179
f 250/371/180 150/372/180 117/373/180
f 71/374/181 116/375/182 117/376/183
f 54/377/184 113/378/184 115/379/184
f 3/380/185 71/381/185 109/382/185
f 123/383/186 201/384/186 197/385/186
f 197/386/187 121/387/187 87/388/187
f 122/389/188 198/390/188 200/391/188
f 200/392/189 125/393/189 104/394/189
f 54/395/190 8/396/191 79/397/192 113/398/193
f 100/399/194 102/400/195 103/401/196
f 187/402/197 189/403/197 191/404/197
f 138/405/198 225/406/198 226/407/198
f 73/408/199 72/409/199 96/410/199
f 174/411/200 223/412/200 77/413/200
f 94/414/201 95/415/201 93/416/201
f 47/417/202 28/418/202 154/419/203
f 147/420/204 148/421/204 243/422/204
f 89/423/205 88/424/205 90/425/205
f 96/426/206 72/427/207 161/428/208
f 173/429/209 219/430/209 134/431/209
f 104/432/210 141/433/210 231/434/210
f 227/435/211 104/436/211 231/437/211
f 239/438/212 145/439/212 81/440/212
f 107/441/213 106/442/213 78/443/213
f 192/444/214 191/445/214 205/446/214
f 191/447/215 190/448/215 205/449/215
f 190/450/216 119/451/216 205/452/216
f 91/453/217 90/454/217 75/455/217
f 162/456/218 26/457/218 128/458/218
f 129/459/219 210/460/220 211/461/221
f 77/462/222 76/463/222 95/464/222
f 130/465/223 111/466/223 184/467/223
f 131/468/224 214/469/224 215/470/224
f 100/471/225 176/472/225 178/473/225
f 151/474/226 251/475/226 189/476/226
f 181/477/227 252/478/227 182/479/227
f 58/480/228 56/481/229 146/482/230
f 125/483/231 200/484/231 201/485/231
f 205/486/232 119/487/232 206/488/232
f 118/489/233 129/490/233 209/491/233
f 128/492/234 99/493/235 208/494/236
f 99/495/237 98/496/238 204/497/239
f 207/498/240 99/499/241 204/500/240
f 212/501/242 213/502/242 131/503/242
f 165/504/243 199/505/243 122/506/243
f 66/507/244 23/508/245 151/509/246
f 134/510/247 135/511/247 217/512/247
f 157/513/248 214/514/248 131/515/248
f 134/516/249 219/517/249 220/518/249
f 102/519/250 132/520/250 216/521/250
f 224/522/251 173/523/251 136/524/251
f 170/525/252 172/526/252 138/527/252
f 196/528/253 124/529/253 123/530/253
f 143/531/254 144/532/254 232/533/254
f 234/534/255 235/535/255 144/536/255
f 106/537/256 139/538/256 230/539/256
f 50/540/257 61/541/257 147/542/257
f 237/543/258 243/544/258 148/545/258
f 50/546/259 236/547/259 238/548/259
f 63/549/260 49/550/260 160/551/260
f 150/552/261 250/553/261 251/554/261
f 65/555/262 246/556/262 245/557/262
f 236/558/263 244/559/263 243/560/264 237/561/264
f 190/562/265 191/563/265 189/564/265
f 200/565/266 198/566/266 197/567/266
f 206/568/267 209/569/267 208/570/267
f 114/571/268 179/572/269 194/573/270 193/574/271
f 230/575/272 140/576/272 229/577/272
f 58/578/273 146/579/274 240/580/275 168/581/276
f 246/582/277 187/583/277 186/584/277
f 69/585/278 155/586/279 92/587/280
f 155/588/281 217/589/281 135/590/281
f 195/591/282 194/592/282 168/593/282
f 32/594/283 33/595/283 5/596/283
f 138/597/284 137/598/284 225/599/284
f 230/600/285 139/601/285 140/602/285
f 252/603/286 177/604/287 182/605/288
f 66/606/289 67/607/289 65/608/290 64/609/290
f 232/610/291 112/611/292 78/612/293 167/613/294
f 79/614/295 78/615/296 112/616/297 113/617/298
f 158/618/299 159/619/299 249/620/300 248/621/300
f 248/622/301 249/623/301 150/624/302 151/625/302
f 122/626/303 200/627/304 104/628/305 105/629/306
f 60/630/307 61/631/308 50/632/309 51/633/310
f 40/634/311 19/635/312 18/636/313 42/637/314
f 22/638/315 2/639/316 29/640/317 46/641/318
f 7/642/319 11/643/320 80/644/321 75/645/322
f 51/646/323 50/647/324 56/648/325 57/649/326
f 56/650/327 50/651/328 238/652/329 146/653/330
f 25/654/331 157/655/332 131/656/333 101/657/334
f 167/658/335 166/659/336 233/660/337 232/661/338
f 37/662/339 221/663/340 136/664/341 32/665/342
f 94/666/343 135/667/343 220/668/343 174/669/343
f 143/670/344 166/671/345 12/672/346 59/673/347
f 248/674/348 151/675/349 23/676/350 158/677/351
f 160/678/352 245/679/352 149/680/353 161/681/354
f 127/682/355 180/683/356 83/684/357 82/685/358
f 104/686/359 125/687/359 124/688/359 120/689/359
f 175/690/360 147/691/361 61/692/362 63/693/363
f 46/694/364 44/695/365 158/696/366 23/697/367
f 97/698/368 27/699/369 73/700/368 96/701/370
f 179/702/371 234/703/371 59/704/372 58/705/373
f 29/706/374 28/707/375 47/708/375 46/709/376
f 183/710/377 185/711/378 181/712/379 182/713/379
f 46/714/380 47/715/381 45/716/382 44/717/383
f 55/718/384 115/719/385 126/720/386 9/721/387
f 22/722/388 64/723/389 48/724/390 2/725/391
f 210/726/392 163/727/392 162/728/393 211/729/393
f 32/730/394 5/731/395 36/732/396 37/733/397
f 114/734/398 193/735/399 180/736/400
f 228/737/401 227/738/402 231/739/403 142/740/403
f 118/741/404 52/742/404 53/743/405 129/744/404
f 21/745/406 20/746/407 90/747/408 88/748/409
f 187/749/410 246/750/411 65/751/412 67/752/413
f 109/753/414 70/754/415 108/755/416 110/756/417
f 192/757/418 188/758/418 187/759/419 191/760/419
f 22/761/420 46/762/421 23/763/422 66/764/423
f 103/765/424 102/766/425 69/767/426 68/768/427
f 197/769/428 198/770/429 122/771/430 121/772/431
f 86/773/432 87/774/433 85/775/434 84/776/435
f 67/777/436 66/778/437 151/779/438 189/780/439
f 42/781/440 18/782/441 5/783/442 33/784/443
f 154/785/444 155/786/444 216/787/445 133/788/445
f 219/789/446 173/790/447 174/791/447 220/792/448
f 121/793/449 164/794/450 15/795/450 87/796/451
f 76/797/452 85/798/453 14/799/454 4/800/455
f 106/801/456 105/802/457 104/803/458 227/804/459
f 240/805/460 146/806/460 145/807/461 239/808/461
f 63/809/462 60/810/463 62/811/464 49/812/465
f 56/813/466 58/814/467 59/815/468 57/816/469
f 89/817/470 175/818/470 160/819/470 161/820/471
f 160/821/472 49/822/472 65/823/473 245/824/473
f 20/825/474 7/826/475 75/827/476 90/828/477
f 236/829/478 50/830/478 147/831/479 244/832/479
f 70/833/480 71/834/481 117/835/480 249/836/482
f 103/837/483 68/838/484 24/839/485 101/840/486
f 144/841/487 235/842/487 179/843/487 114/844/487
f 84/845/488 85/846/489 76/847/490 77/848/491
f 91/849/492 148/850/492 89/851/493 90/852/493
f 253/853/494 181/854/494 185/855/495 184/856/495
f 139/857/496 227/858/496 228/859/497 140/860/497
f 73/861/498 88/862/499 89/863/500 72/864/501
f 41/865/502 154/866/503 28/867/502 40/868/504
f 166/869/505 140/870/506 38/871/505 12/872/507
f 100/873/508 101/874/509 131/875/510 183/876/511
f 118/877/512 209/878/512 206/879/512 119/880/512
f 45/881/513 177/882/514 252/883/515 44/884/516
f 184/885/517 111/886/518 110/887/519 253/888/520
f 107/889/521 79/890/522 8/891/523 34/892/524
f 26/893/525 97/894/526 99/895/527 128/896/528
f 113/897/529 112/898/530 114/899/531 115/900/532
f 108/901/533 70/902/534 159/903/535 153/904/536
f 36/905/537 5/906/538 13/907/539 12/908/540
f 36/909/541 38/910/542 39/911/543 37/912/543
f 157/913/544 156/914/545 215/915/546 214/916/547
f 155/917/548 69/918/549 102/919/550 216/920/551
f 100/921/552 183/922/552 182/923/553 176/924/553
f 167/925/554 78/926/555 106/927/556 230/928/556
f 35/929/557 165/930/557 122/931/558 105/932/558
f 178/933/559 176/934/559 177/935/559
f 128/936/560 208/937/561 209/938/562 129/939/562
f 39/940/563 170/941/564 138/942/565 37/943/566
f 86/944/567 171/945/568 196/946/569 123/947/570
f 11/948/571 10/949/571 82/950/571 80/951/571
f 81/952/572 145/953/573 238/954/574 74/955/575
f 225/956/576 84/957/577 77/958/578 222/959/579
f 121/960/580 199/961/581 165/962/582 164/963/580
f 142/964/583 196/965/584 170/966/585 39/967/586
f 254/968/587 152/969/588 44/970/589 252/971/590
f 48/972/591 64/973/591 65/974/592 49/975/592
f 224/976/593 223/977/594 174/978/595 173/979/595
f 118/980/596 117/981/597 116/982/598 52/983/599
f 202/984/600 203/985/601 127/986/602 126/987/603
f 132/988/604 102/989/605 100/990/606 178/991/607
f 254/992/608 253/993/609 108/994/610 153/995/611
f 105/996/612 107/997/613 34/998/614 35/999/615
f 2/1000/616 48/1001/617 62/1002/618 19/1003/618
f 190/1004/619 189/1005/620 251/1006/621 250/1007/622
f 95/1008/623 76/1009/624 4/1010/625 17/1011/626
f 85/1012/627 87/1013/628 15/1014/629 14/1015/630
f 192/1016/631 204/1017/632 98/1018/633 188/1019/634
f 154/1020/635 218/1021/636 217/1022/637 155/1023/638
f 93/1024/639 16/1025/640 69/1026/639 92/1027/641
f 57/1028/642 59/1029/643 12/1030/644 13/1031/645
f 173/1032/646 134/1033/647 41/1034/648 43/1035/649
f 2/1036/650 19/1037/651 40/1038/652 29/1039/653
f 30/1040/654 109/1041/655 110/1042/656 111/1043/657
f 32/1044/658 173/1045/659 43/1046/660 33/1047/661
f 83/1048/662 169/1049/663 239/1050/664 81/1051/665
f 98/1052/666 247/1053/666 246/1054/666 186/1055/667
f 156/1056/668 30/1057/669 111/1058/670 130/1059/671
f 132/1060/672 178/1061/672 133/1062/672
f 179/1063/673 58/1064/673 168/1065/674 194/1066/674
f 81/1067/675 80/1068/676 82/1069/677 83/1070/678
f 126/1071/679 115/1072/680 114/1073/681 180/1074/682
f 86/1075/683 84/1076/683 137/1077/684 172/1078/684
f 83/1079/685 180/1080/686 195/1081/687 169/1082/687
f 97/1083/688 96/1084/689 98/1085/690 99/1086/691
f 18/1087/692 19/1088/692 62/1089/693 60/1090/694
f 239/1091/695 169/1092/695 168/1093/696 240/1094/696
f 133/1095/697 45/1096/698 47/1097/699
f 181/1098/700 253/1099/700 252/1100/700
f 166/1101/701 167/1102/701 230/1103/702 229/1104/702
f 87/1105/703 86/1106/704 123/1107/705 197/1108/706
f 74/1109/707 75/1110/708 80/1111/707 81/1112/709
f 10/1113/710 9/1114/711 127/1115/712 82/1116/713
f 226/1117/714 225/1118/715 222/1119/716 221/1120/717
f 148/1121/718 91/1122/719 74/1123/720 237/1124/721
f 202/1125/722 180/1126/722 203/1127/722
f 133/1128/723 47/1129/724 154/1130/725
f 242/1131/726 241/1132/726 175/1133/726
f 183/1134/727 184/1135/727 185/1136/727
f 170/1137/728 171/1138/728 172/1139/728
f 137/1140/729 138/1141/729 172/1142/729
f 193/1143/730 195/1144/730 180/1145/730
f 192/1146/731 205/1147/731 204/1148/731
f 133/1149/732 178/1150/732 45/1151/732
f 5/1152/733 18/1153/734 60/1154/735 51/1155/736
