# Blender v3.0.0 OBJ File: 'aa.blend'
# www.blender.org
mtllib Block_T.mtl
o Block_T
v -1.039119 -0.000000 1.869144
v 1.087563 -0.000000 1.872737
v -3.234940 -0.000000 1.872540
v -1.841571 -0.000000 -0.325478
v -2.242572 -0.000000 -0.327141
v -2.002604 -0.000000 1.881647
v -2.637456 -0.000000 1.868155
v 0.300875 1.698877 -0.148451
v -0.303107 1.657987 -0.368536
v 0.573874 0.000000 -2.522126
v -0.637202 0.000000 -2.516545
v -0.603738 -0.000000 1.871551
v 0.535864 -0.000000 1.882957
v 2.084463 -0.000000 -0.331053
v 2.778246 -0.000000 -0.319903
v 2.866382 -0.000000 1.865403
v 1.888531 -0.000000 1.864124
v -0.847989 1.709420 1.565098
v -1.248267 1.700755 -0.067837
v 1.394551 1.678653 0.514968
v 1.218962 1.689893 1.438923
v 3.352523 0.000000 0.103025
v 3.352565 0.000000 1.333373
v -3.235579 -0.000000 1.533222
v -3.234324 -0.000000 0.905918
v -1.773762 1.676304 0.390045
v -1.765711 1.709463 0.731863
v -2.496403 1.707402 0.405361
v -2.632063 1.737775 1.268028
v 0.672888 1.686843 0.436590
v 0.109855 1.701749 0.974010
v -0.622457 1.721478 0.254276
v -0.484268 1.703810 0.743091
v 1.883773 1.701357 1.135738
v 1.885457 1.693276 0.125095
v 2.446808 1.718547 0.926017
v 2.597977 1.674957 0.490773
v -1.038065 0.000000 -1.910248
v -1.033913 -0.000000 -1.057448
v 1.156744 0.000000 -0.878739
v 1.157140 -0.000000 -2.013615
v -0.630472 1.698084 -0.941490
v -0.267323 1.727332 -1.777687
v 0.720646 1.665967 -1.060482
v 0.172055 1.710897 -2.037909
v 0.984305 0.633228 1.880847
v 1.306369 1.093581 1.879865
v -1.100780 1.155062 1.876896
v -0.999349 0.778317 1.874082
v -1.761648 1.456919 1.860453
v -1.802212 0.416263 1.880304
v -2.392294 0.876600 1.862799
v -2.641664 0.412122 1.866262
v -1.450823 0.453452 -0.319181
v -1.391835 1.245345 -0.320955
v -2.757538 0.633358 -0.324014
v -2.205510 1.188871 -0.314808
v 0.506010 1.154429 1.879795
v 0.275051 0.480055 1.893619
v -0.155078 1.411219 1.866180
v -0.452179 0.684939 1.876564
v -0.267074 1.269607 -2.504797
v -0.005240 0.539562 -2.509314
v 0.636520 1.234269 -2.509629
v 0.521800 0.396361 -2.520657
v 1.865250 0.360020 1.864255
v 1.967148 1.438762 1.871379
v 2.663683 0.878908 1.857204
v 2.520563 1.350765 1.869235
v 1.484501 1.244469 -0.281998
v 1.744533 0.441336 -0.329344
v 2.600235 1.167071 -0.330611
v 2.610575 0.856914 -0.342149
v -3.218819 0.944390 0.210608
v -3.223121 1.445442 0.404888
v -3.223053 0.995262 0.964789
v -3.209692 1.323982 1.576346
v 3.332189 1.483686 0.308190
v 3.347839 0.837697 0.406545
v 3.335072 1.265801 1.297936
v 3.353984 0.464145 1.060693
v 1.152076 1.381076 -1.984244
v 1.159615 0.353187 -1.857663
v 1.147431 1.171595 -1.073653
v 1.154989 0.628365 -1.031609
v -1.037655 1.032171 -0.859068
v -1.024218 0.638672 -1.067795
v -1.042667 1.340111 -1.839388
v -1.033077 0.411415 -1.789969
v -1.041874 0.780830 -2.368164
v -0.944534 0.844451 -2.511151
v -0.958617 1.709737 -1.940567
v -1.036276 1.621494 -1.935093
v 0.304778 1.699235 -2.271735
v 0.349381 1.576198 -2.508301
v -0.562942 1.592860 -2.502175
v -0.603550 1.685223 -2.382103
v 1.014054 0.644926 -2.519999
v 1.159988 0.640062 -2.380171
v 1.143757 1.571564 -0.993889
v 1.151740 1.693402 -1.926438
v 1.025974 1.699878 -0.990601
v 1.886621 1.699878 -0.198916
v 1.670227 1.477840 -0.316805
v 2.862287 1.572860 -0.324025
v 2.812851 1.691629 -0.105891
v 3.268245 1.711523 1.375808
v 3.237343 0.669564 -0.326833
v 3.354706 0.667006 -0.208907
v 3.354066 0.592747 1.676539
v 3.189897 0.745553 1.869289
v 1.976828 1.544509 1.863407
v 1.990571 1.695782 1.706331
v 0.315108 1.710354 1.668152
v 0.388596 1.463929 1.861875
v -1.779394 1.694892 1.763710
v -1.773271 1.594146 1.861181
v -3.119476 0.589859 1.868889
v -3.234236 0.606436 -0.192646
v -3.030774 0.587519 -0.325660
v -3.215649 1.296173 -0.221273
v -3.109083 1.264134 -0.317699
v -2.094038 1.550507 -0.320406
v -2.140494 1.704130 -0.196394
v 1.157031 -0.000000 -0.444935
v 1.249020 -0.000000 -0.325511
v 1.125895 1.659205 -0.354899
v 1.115891 1.702127 -0.287499
v -1.167487 -0.000000 -0.333532
v -1.041021 -0.000000 -0.365191
v -1.073187 1.662348 -0.328594
v -0.999359 1.689676 -0.287428
v 1.073738 0.000000 -2.522681
v 1.154977 -0.000000 -2.455428
v -1.002235 0.000000 -2.521916
v 1.306714 1.647042 1.836906
v 1.310396 1.579688 1.868856
v -0.770098 1.698814 1.794815
v -0.809264 1.608053 1.871797
v 3.236981 -0.000000 -0.329358
v 3.349267 -0.000000 -0.230550
v 3.371837 -0.000000 1.813550
v 3.295727 -0.000000 1.889661
v -3.267025 -0.000000 -0.243192
v -3.151324 -0.000000 -0.360019
v -1.578211 1.631988 -0.325926
v -1.620861 1.693021 -0.279343
v -2.236473 1.664793 1.867943
v -0.142099 1.661396 1.865717
v 2.399940 1.706252 1.708536
v 2.445194 1.548863 1.851136
v 3.295709 1.697146 0.157710
v 3.354728 1.589706 0.194522
v -3.212446 1.679111 1.164955
v -3.188046 1.685042 0.551733
v -3.221115 1.602593 0.405363
v -1.035634 1.603336 -0.808163
v -0.998019 1.711695 -0.812170
v 1.148006 1.663325 -2.001786
v 1.159904 0.373024 -0.393086
v 1.207390 0.349462 -0.340899
v 1.244263 1.353464 -0.290892
v 1.158327 1.397852 -0.372370
v -1.025787 1.137458 -0.438788
v -1.067820 1.174905 -0.322598
v -1.184316 0.361420 -0.322046
v -1.036138 0.327887 -0.360655
v -1.022167 1.165044 -2.489105
v 1.144328 1.393683 -2.430224
v 1.112184 1.384137 -2.500485
v 3.330131 1.359589 -0.282702
v 3.276237 1.177586 1.850041
v 3.328289 1.181237 1.776303
v -3.172800 1.153537 1.857382
v 0.989141 1.699672 -2.476744
v 1.140867 1.679452 -2.349246
v 1.147751 1.569428 -2.443284
v 1.114877 1.535217 -2.509999
v -1.037701 1.613197 -2.409111
v -0.986084 1.691951 -2.422644
v -0.931908 1.688759 -2.479063
v -0.997371 0.917510 -2.510603
v -0.997880 0.762351 -2.513289
v -1.005042 1.703158 -1.996483
v 0.258108 1.634354 -2.512482
v 0.178568 1.684551 -2.475720
v 0.339924 1.662444 -2.513260
v -0.538826 1.677734 -2.514243
v -0.618948 1.662876 -2.513380
v 1.095050 0.912861 -2.496585
v 1.154624 0.976216 -2.494967
v 1.157494 0.579829 -2.483649
v 1.127766 1.681311 -0.889651
v 1.746079 1.662199 -0.330653
v 1.799024 1.705934 -0.286618
v 1.975038 1.709642 -0.297089
v 1.888411 1.617859 -0.302394
v 2.778174 1.699878 -0.286822
v 2.943223 1.697737 -0.286456
v 3.192560 1.700744 -0.287625
v 3.336366 1.661162 -0.107398
v 3.328299 1.659483 0.981647
v 3.341025 1.661548 1.438606
v 3.306175 1.699878 1.689193
v 3.103667 1.701140 1.840350
v 3.171959 1.558467 1.856406
v 3.333316 1.436289 1.823308
v 3.345894 0.846946 -0.288772
v 3.354428 0.559841 -0.289132
v 3.310452 0.811937 1.868533
v 3.279222 0.575731 1.870139
v 3.353532 0.465055 1.833409
v 1.594412 1.689518 1.834367
v 1.730208 1.662437 1.866819
v 2.136066 1.699183 1.827478
v 0.442619 1.656500 1.861086
v 0.213341 1.661422 1.863939
v -1.346284 1.661894 1.863852
v -1.843770 1.661775 1.864164
v -3.188665 0.704038 1.863722
v -3.238247 0.715838 1.811772
v -2.665263 1.698523 1.827479
v -3.221788 1.662525 1.522099
v -3.207071 1.537679 1.840105
v -3.220905 1.663366 0.084845
v -3.001723 1.697070 -0.285847
v -3.216636 1.472960 -0.284817
v -3.198281 0.388986 -0.325586
v -3.230502 0.742165 -0.287588
v -3.214806 1.345825 -0.285578
v -3.214617 1.216704 -0.285534
v -1.975349 1.701478 -0.288704
v -2.184176 1.657416 -0.314512
vt 0.292388 0.094996
vt 0.292388 0.123828
vt 0.206336 0.115922
vt 0.913734 0.211414
vt 0.902002 0.173628
vt 0.913734 0.169025
vt 0.490309 0.719951
vt 0.456259 0.631856
vt 0.490309 0.609390
vt 0.132621 0.917838
vt 0.132621 0.966376
vt 0.114718 0.939940
vt 0.085495 0.120267
vt 0.085495 0.224725
vt 0.016707 0.206184
vt 0.002801 0.141412
vt 0.845498 0.898491
vt 0.845498 0.973061
vt 0.833935 0.969087
vt 0.310222 0.744045
vt 0.281778 0.679324
vt 0.340232 0.680280
vt 0.340232 0.743635
vt 0.974706 0.070712
vt 0.964050 0.068023
vt 0.974706 0.002801
vt 0.485229 0.962590
vt 0.489401 0.957398
vt 0.489401 0.974083
vt 0.436812 0.751556
vt 0.436812 0.812018
vt 0.380102 0.781679
vt 0.466905 0.402200
vt 0.404592 0.389986
vt 0.381815 0.344377
vt 0.466905 0.322268
vt 0.954514 0.205168
vt 0.942884 0.183755
vt 0.954514 0.169025
vt 0.209818 0.619549
vt 0.191546 0.592638
vt 0.209818 0.578793
vt 0.437094 0.942284
vt 0.417534 0.894904
vt 0.437094 0.878226
vt 0.962404 0.594069
vt 0.948945 0.581666
vt 0.962404 0.564606
vt 0.693285 0.980364
vt 0.681969 0.971538
vt 0.693285 0.928801
vt 0.830741 0.390385
vt 0.830741 0.479921
vt 0.796388 0.455149
vt 0.989106 0.089157
vt 0.980307 0.080874
vt 0.989106 0.058802
vt 0.994001 0.798851
vt 0.987799 0.769849
vt 0.994001 0.760335
vt 0.088601 0.498065
vt 0.002801 0.438487
vt 0.088601 0.431630
vt 0.888261 0.904856
vt 0.853875 0.876672
vt 0.862771 0.842953
vt 0.888261 0.834164
vt 0.191908 0.468889
vt 0.191908 0.542130
vt 0.114718 0.521251
vt 0.456070 0.131832
vt 0.456070 0.223077
vt 0.387446 0.214360
vt 0.954251 0.299788
vt 0.943848 0.289901
vt 0.954251 0.276612
vt 0.495910 0.911334
vt 0.535261 0.897135
vt 0.535261 0.935576
vt 0.695417 0.760897
vt 0.658423 0.747888
vt 0.695417 0.697073
vt 0.369660 0.627360
vt 0.369660 0.729320
vt 0.348120 0.688093
vt 0.630879 0.297272
vt 0.528247 0.252767
vt 0.630879 0.250516
vt 0.023927 0.982798
vt 0.016417 0.979381
vt 0.023927 0.964279
vt 0.073574 0.965581
vt 0.080793 0.962243
vt 0.080793 0.986984
vt 0.093090 0.297640
vt 0.108928 0.213040
vt 0.108928 0.299454
vt 0.952721 0.089225
vt 0.960720 0.077308
vt 0.960720 0.090791
vt 0.086017 0.956642
vt 0.059746 0.928263
vt 0.086017 0.896999
vt 0.154445 0.917838
vt 0.154445 0.966788
vt 0.138222 0.946722
vt 0.189729 0.857567
vt 0.184616 0.829114
vt 0.189729 0.822616
vt 0.763485 0.784526
vt 0.795808 0.694941
vt 0.795808 0.798798
vt 0.735414 0.503488
vt 0.735414 0.607211
vt 0.698244 0.573968
vt 0.864716 0.624753
vt 0.899346 0.601007
vt 0.899346 0.675304
vt 0.884381 0.673407
vt 0.108077 0.616261
vt 0.065601 0.528620
vt 0.108077 0.503666
vt 0.499730 0.506663
vt 0.499730 0.597165
vt 0.442988 0.545815
vt 0.389735 0.987039
vt 0.380102 0.978925
vt 0.389735 0.946682
vt 0.914102 0.219228
vt 0.914102 0.301019
vt 0.888645 0.263745
vt 0.989344 0.097678
vt 0.989344 0.142789
vt 0.979990 0.100966
vt 0.511045 0.460803
vt 0.560431 0.407801
vt 0.560431 0.518633
vt 0.093171 0.727460
vt 0.016417 0.687463
vt 0.093171 0.677469
vt 0.107466 0.498065
vt 0.094202 0.493645
vt 0.107466 0.425146
vt 0.108077 0.671868
vt 0.016417 0.671619
vt 0.108077 0.621862
vt 0.701018 0.725879
vt 0.757884 0.694941
vt 0.757884 0.760187
vt 0.857210 0.497258
vt 0.836342 0.485872
vt 0.857210 0.474945
vt 0.276177 0.488663
vt 0.276177 0.585097
vt 0.220507 0.535373
vt 0.872756 0.390385
vt 0.872756 0.469344
vt 0.836342 0.450982
vt 0.909845 0.390385
vt 0.909845 0.459989
vt 0.878357 0.439226
vt 0.823133 0.002801
vt 0.823133 0.082355
vt 0.780909 0.080214
vt 0.107061 0.326175
vt 0.107061 0.419405
vt 0.076589 0.344786
vt 0.109117 0.002801
vt 0.109117 0.114666
vt 0.027647 0.096494
vt 0.002801 0.041331
vt 0.294862 0.981850
vt 0.281778 0.952069
vt 0.294862 0.936050
vt 0.083853 0.836400
vt 0.016441 0.833488
vt 0.016417 0.805068
vt 0.083853 0.789461
vt 0.575250 0.738493
vt 0.575250 0.789775
vt 0.558344 0.780123
vt 0.437387 0.513004
vt 0.381815 0.412511
vt 0.437387 0.407801
vt 0.637783 0.492097
vt 0.658502 0.486706
vt 0.658502 0.518633
vt 0.974515 0.977793
vt 0.959620 0.959723
vt 0.974515 0.936989
vt 0.956073 0.452868
vt 0.956073 0.471927
vt 0.944340 0.467186
vt 0.949465 0.760335
vt 0.949465 0.833643
vt 0.926996 0.805893
vt 0.751961 0.407801
vt 0.751961 0.493713
vt 0.707489 0.430394
vt 0.795728 0.977347
vt 0.790188 0.958977
vt 0.795728 0.946277
vt 0.220507 0.285736
vt 0.300190 0.235035
vt 0.300190 0.328309
vt 0.234114 0.326517
vt 0.595286 0.482246
vt 0.595286 0.512514
vt 0.566033 0.492704
vt 0.138084 0.760367
vt 0.172222 0.765112
vt 0.172222 0.804811
vt 0.114718 0.818803
vt 0.937283 0.194730
vt 0.919335 0.173518
vt 0.937283 0.169025
vt 0.848274 0.760335
vt 0.848274 0.825350
vt 0.801409 0.782633
vt 0.790255 0.604470
vt 0.812187 0.596863
vt 0.812187 0.606104
vt 0.991596 0.530972
vt 0.984462 0.514116
vt 0.991596 0.484629
vt 0.197509 0.469278
vt 0.208272 0.468889
vt 0.208272 0.572043
vt 0.189729 0.817015
vt 0.177901 0.795413
vt 0.189729 0.776872
vt 0.810691 0.991969
vt 0.801409 0.971088
vt 0.810691 0.955063
vt 0.204486 0.398044
vt 0.212981 0.392938
vt 0.212981 0.455945
vt 0.761813 0.197315
vt 0.761813 0.213258
vt 0.750830 0.205882
vt 0.814706 0.176807
vt 0.814706 0.194770
vt 0.811960 0.187828
vt 0.414009 0.952308
vt 0.437094 0.947885
vt 0.437094 0.966653
vt 0.911380 0.515321
vt 0.912959 0.501903
vt 0.943344 0.484629
vt 0.943344 0.542078
vt 0.769908 0.983753
vt 0.758893 0.970375
vt 0.769908 0.946277
vt 0.982029 0.478720
vt 0.969759 0.475879
vt 0.982029 0.451757
vt 0.700535 0.351395
vt 0.748170 0.317520
vt 0.748170 0.399059
vt 0.765345 0.602595
vt 0.741015 0.588426
vt 0.765345 0.582599
vt 0.962631 0.559005
vt 0.948945 0.495631
vt 0.962631 0.484629
vt 0.806359 0.206271
vt 0.789571 0.194188
vt 0.806359 0.176807
vt 0.269377 0.990854
vt 0.261705 0.984845
vt 0.269377 0.961032
vt 0.042250 0.920922
vt 0.053863 0.908942
vt 0.053863 0.974688
vt 0.060000 0.594169
vt 0.002801 0.576672
vt 0.014986 0.514152
vt 0.060000 0.503666
vt 0.676367 0.928801
vt 0.676367 0.976241
vt 0.662207 0.961835
vt 0.993977 0.842048
vt 0.987799 0.832188
vt 0.993977 0.804452
vt 0.629601 0.218366
vt 0.629601 0.233528
vt 0.581616 0.229307
vt 0.817903 0.294005
vt 0.817903 0.309167
vt 0.796405 0.299982
vt 0.929183 0.982969
vt 0.917755 0.948837
vt 0.929183 0.927992
vt 0.359545 0.981844
vt 0.351099 0.972215
vt 0.359545 0.963283
vt 0.735194 0.953757
vt 0.752091 0.892703
vt 0.752091 0.957541
vt 0.745229 0.209578
vt 0.712148 0.211328
vt 0.715218 0.197315
vt 0.745229 0.197648
vt 0.462426 0.002801
vt 0.462426 0.096606
vt 0.403531 0.074424
vt 0.398671 0.024794
vt 0.864954 0.818827
vt 0.853875 0.781269
vt 0.893142 0.760335
vt 0.893142 0.828563
vt 0.646883 0.469838
vt 0.643440 0.430760
vt 0.701888 0.407801
vt 0.701888 0.480721
vt 0.138021 0.218247
vt 0.114718 0.135974
vt 0.214905 0.162823
vt 0.214905 0.217372
vt 0.538519 0.011095
vt 0.538519 0.074102
vt 0.498800 0.083696
vt 0.468027 0.002801
vt 0.335731 0.474878
vt 0.340346 0.424689
vt 0.340346 0.481571
vt 0.211147 0.303421
vt 0.114718 0.304360
vt 0.136863 0.223849
vt 0.211147 0.231746
vt 0.987384 0.985053
vt 0.980116 0.940631
vt 0.987384 0.936989
vt 0.333344 0.749646
vt 0.333344 0.816522
vt 0.286160 0.800279
vt 0.281778 0.762427
vt 0.959620 0.928549
vt 0.971089 0.856183
vt 0.971089 0.931388
vt 0.575317 0.869379
vt 0.575317 0.942419
vt 0.569932 0.876889
vt 0.631665 0.966202
vt 0.635461 0.917369
vt 0.635461 0.972519
vt 0.165104 0.917838
vt 0.165104 0.979903
vt 0.160046 0.974412
vt 0.067973 0.962243
vt 0.067973 0.985981
vt 0.059746 0.963045
vt 0.807270 0.879874
vt 0.801409 0.830951
vt 0.844739 0.840412
vt 0.844739 0.892890
vt 0.987291 0.734886
vt 0.979801 0.692346
vt 0.987291 0.682147
vt 0.991496 0.883643
vt 0.997199 0.856183
vt 0.997199 0.895342
vt 0.867253 0.166691
vt 0.867253 0.211305
vt 0.837673 0.204535
vt 0.821008 0.168963
vt 0.226975 0.203896
vt 0.220507 0.135974
vt 0.304677 0.142289
vt 0.304677 0.229434
vt 0.990753 0.594361
vt 0.983538 0.565391
vt 0.990753 0.551482
vt 0.882473 0.910457
vt 0.892084 0.911332
vt 0.892084 0.970605
vt 0.879120 0.963477
vt 0.237288 0.893322
vt 0.237288 0.970471
vt 0.225937 0.968285
vt 0.316369 0.357189
vt 0.376214 0.322268
vt 0.376214 0.417711
vt 0.305791 0.419088
vt 0.740750 0.990325
vt 0.735194 0.975182
vt 0.740750 0.963142
vt 0.750402 0.295693
vt 0.747910 0.220783
vt 0.790804 0.219228
vt 0.790804 0.302204
vt 0.632468 0.911768
vt 0.580918 0.869748
vt 0.632468 0.869379
vt 0.059746 0.864401
vt 0.103663 0.842001
vt 0.103663 0.891398
vt 0.363643 0.113961
vt 0.415751 0.103170
vt 0.415751 0.125389
vt 0.329125 0.483062
vt 0.220507 0.450351
vt 0.329125 0.429715
vt 0.980146 0.211275
vt 0.980146 0.266530
vt 0.968326 0.219454
vt 0.838349 0.600814
vt 0.852270 0.582286
vt 0.852270 0.602675
vt 0.904729 0.074337
vt 0.873558 0.039624
vt 0.904729 0.002801
vt 0.495910 0.830256
vt 0.568187 0.807443
vt 0.568187 0.848608
vt 0.717316 0.073957
vt 0.717316 0.125692
vt 0.686132 0.076567
vt 0.921395 0.850582
vt 0.914022 0.849640
vt 0.898743 0.770001
vt 0.921395 0.760335
vt 0.692643 0.524234
vt 0.692643 0.607211
vt 0.637783 0.561084
vt 0.524204 0.985715
vt 0.514324 0.962364
vt 0.524204 0.941177
vt 0.247677 0.866191
vt 0.275648 0.832939
vt 0.275648 0.900850
vt 0.490309 0.802009
vt 0.458299 0.805834
vt 0.449920 0.756661
vt 0.490309 0.725552
vt 0.489186 0.811435
vt 0.489186 0.884963
vt 0.449920 0.880357
vt 0.358042 0.094996
vt 0.358042 0.125389
vt 0.297989 0.102020
vt 0.954019 0.939685
vt 0.935780 0.888028
vt 0.954019 0.856183
vt 0.873519 0.960359
vt 0.853875 0.928414
vt 0.873519 0.910457
vt 0.957646 0.681695
vt 0.957646 0.746609
vt 0.935100 0.726310
vt 0.600455 0.967358
vt 0.580918 0.953137
vt 0.600455 0.917369
vt 0.576015 0.244915
vt 0.528247 0.210376
vt 0.576015 0.131832
vt 0.632182 0.524234
vt 0.632182 0.618271
vt 0.580918 0.607052
vt 0.259054 0.776872
vt 0.259054 0.827338
vt 0.195331 0.783402
vt 0.512401 0.682310
vt 0.562238 0.674173
vt 0.562238 0.732892
vt 0.495910 0.729519
vt 0.395336 0.967306
vt 0.405103 0.946682
vt 0.405103 0.986357
vt 0.211989 0.625150
vt 0.211989 0.727597
vt 0.189368 0.711996
vt 0.938247 0.301019
vt 0.919703 0.286163
vt 0.938247 0.211275
vt 0.806561 0.497607
vt 0.796388 0.491012
vt 0.806561 0.485522
vt 0.380102 0.663425
vt 0.450391 0.613742
vt 0.450391 0.680618
vt 0.259054 0.771271
vt 0.218224 0.728755
vt 0.259054 0.679062
vt 0.896401 0.191661
vt 0.873345 0.151262
vt 0.896401 0.097678
vt 0.898743 0.856240
vt 0.930179 0.856183
vt 0.930179 0.922391
vt 0.991449 0.349720
vt 0.983389 0.314694
vt 0.991449 0.306728
vt 0.108928 0.207439
vt 0.091096 0.146157
vt 0.108928 0.120267
vt 0.904947 0.625885
vt 0.935673 0.601007
vt 0.935673 0.667107
vt 0.655167 0.002801
vt 0.655167 0.082765
vt 0.594654 0.059785
vt 0.600969 0.003976
vt 0.963474 0.691715
vt 0.974200 0.682147
vt 0.974200 0.754503
vt 0.944340 0.413428
vt 0.964158 0.390385
vt 0.964158 0.447267
vt 0.935780 0.972661
vt 0.947693 0.945286
vt 0.947693 0.980720
vt 0.479628 0.978357
vt 0.464802 0.943309
vt 0.479628 0.934605
vt 0.489232 0.951797
vt 0.485229 0.940871
vt 0.489232 0.934605
vt 0.692612 0.515774
vt 0.686323 0.490667
vt 0.692612 0.486706
vt 0.694934 0.297272
vt 0.636480 0.296330
vt 0.657282 0.230237
vt 0.694934 0.219228
vt 0.036638 0.980409
vt 0.029528 0.980861
vt 0.029661 0.967006
vt 0.036638 0.964279
vt 0.934095 0.079690
vt 0.910330 0.057504
vt 0.934095 0.002801
vt 0.723384 0.105103
vt 0.763484 0.097678
vt 0.763484 0.191714
vt 0.195331 0.873198
vt 0.242076 0.832939
vt 0.242076 0.887721
vt 0.495910 0.615990
vt 0.575317 0.609390
vt 0.575317 0.668572
vt 0.108005 0.960636
vt 0.091618 0.904528
vt 0.108005 0.896999
vt 0.472506 0.336166
vt 0.552852 0.322268
vt 0.552852 0.391207
vt 0.641382 0.885419
vt 0.691005 0.882842
vt 0.691005 0.923200
vt 0.910147 0.338908
vt 0.940122 0.306728
vt 0.940122 0.369221
vt 0.016417 0.934670
vt 0.036649 0.908942
vt 0.036649 0.958678
vt 0.796405 0.240055
vt 0.840959 0.219228
vt 0.840959 0.288404
vt 0.300463 0.970990
vt 0.312795 0.936050
vt 0.312795 0.983843
vt 0.666242 0.808441
vt 0.580918 0.806164
vt 0.588540 0.785814
vt 0.666242 0.770939
vt 0.189582 0.943234
vt 0.173034 0.928407
vt 0.189582 0.872883
vt 0.784587 0.989133
vt 0.775509 0.967863
vt 0.784587 0.946277
vt 0.580918 0.639542
vt 0.629887 0.623872
vt 0.629887 0.708292
vt 0.938739 0.462830
vt 0.915446 0.418597
vt 0.938739 0.390385
vt 0.538338 0.119552
vt 0.535179 0.111929
vt 0.538338 0.089297
vt 0.114718 0.629067
vt 0.183767 0.625150
vt 0.183767 0.689349
vt 0.751218 0.830525
vt 0.701018 0.819413
vt 0.751218 0.765788
vt 0.054145 0.887648
vt 0.016417 0.903341
vt 0.023141 0.844023
vt 0.054145 0.842001
vt 0.867957 0.002801
vt 0.867957 0.077238
vt 0.828734 0.071329
vt 0.575317 0.603789
vt 0.511045 0.572872
vt 0.575317 0.524234
vt 0.091657 0.312821
vt 0.109035 0.307313
vt 0.109035 0.320574
vt 0.902002 0.100305
vt 0.932943 0.097678
vt 0.932943 0.163423
vt 0.338945 0.805582
vt 0.374441 0.749646
vt 0.374441 0.834526
vt 0.626064 0.962301
vt 0.606056 0.937930
vt 0.626064 0.917369
vt 0.443913 0.846308
vt 0.439364 0.826237
vt 0.443913 0.817619
vt 0.544120 0.020161
vt 0.589053 0.002801
vt 0.589053 0.117636
vt 0.981119 0.446156
vt 0.969759 0.425522
vt 0.981119 0.390385
vt 0.929499 0.681695
vt 0.929499 0.750914
vt 0.899671 0.718282
vt 0.459201 0.981810
vt 0.445340 0.979542
vt 0.459201 0.934605
vt 0.656606 0.975827
vt 0.641382 0.958828
vt 0.656606 0.928801
vt 0.122328 0.698033
vt 0.177497 0.694950
vt 0.177497 0.754766
vt 0.114718 0.744351
vt 0.980641 0.272131
vt 0.980641 0.299195
vt 0.968326 0.286677
vt 0.495910 0.887056
vt 0.554813 0.854209
vt 0.554813 0.891534
vt 0.905779 0.484629
vt 0.905779 0.576685
vt 0.883407 0.567576
vt 0.706547 0.197315
vt 0.706547 0.205268
vt 0.647033 0.201994
vt 0.790577 0.887689
vt 0.790577 0.940676
vt 0.758893 0.907815
vt 0.238021 0.089395
vt 0.206336 0.002801
vt 0.300271 0.005835
vt 0.300271 0.077078
vt 0.947120 0.073924
vt 0.947120 0.090791
vt 0.939696 0.085770
vt 0.894340 0.210772
vt 0.890204 0.203112
vt 0.894340 0.197262
vt 0.206593 0.966832
vt 0.212481 0.961475
vt 0.212481 0.993986
vt 0.801409 0.926776
vt 0.828334 0.898491
vt 0.828334 0.949462
vt 0.567839 0.675523
vt 0.574379 0.674173
vt 0.574379 0.726073
vt 0.527372 0.315243
vt 0.550552 0.306593
vt 0.550552 0.316505
vt 0.281778 0.637591
vt 0.339773 0.590505
vt 0.339773 0.673723
vt 0.285933 0.662603
vt 0.327891 0.982003
vt 0.318396 0.951613
vt 0.327891 0.936050
vt 0.867745 0.097678
vt 0.867745 0.161090
vt 0.821008 0.159737
vt 0.468027 0.091957
vt 0.529578 0.089297
vt 0.529578 0.126203
vt 0.991970 0.256155
vt 0.985747 0.216538
vt 0.991970 0.211275
vt 0.894071 0.754734
vt 0.858119 0.708559
vt 0.894071 0.681695
vt 0.871137 0.306924
vt 0.904546 0.306728
vt 0.904546 0.376500
vt 0.002801 0.605162
vt 0.009959 0.599770
vt 0.009959 0.682010
vt 0.981746 0.819149
vt 0.981746 0.849505
vt 0.971839 0.834133
vt 0.679568 0.784728
vt 0.695417 0.766498
vt 0.695417 0.807177
vt 0.092844 0.804929
vt 0.108292 0.733061
vt 0.108292 0.811722
vt 0.993701 0.478720
vt 0.987630 0.468226
vt 0.993701 0.439196
vt 0.529805 0.969507
vt 0.535157 0.941177
vt 0.535157 0.981605
vt 0.621981 0.383609
vt 0.558453 0.391207
vt 0.582741 0.315780
vt 0.621981 0.310997
vt 0.941274 0.658542
vt 0.957873 0.601007
vt 0.957873 0.668482
vt 0.784654 0.606104
vt 0.770946 0.587478
vt 0.784654 0.582599
vt 0.701018 0.640083
vt 0.751724 0.612812
vt 0.751724 0.689340
vt 0.243230 0.671331
vt 0.218224 0.590698
vt 0.276177 0.600157
vt 0.276177 0.673461
vt 0.220336 0.955874
vt 0.195331 0.938361
vt 0.220336 0.893322
vt 0.963584 0.103451
vt 0.974389 0.097678
vt 0.974389 0.165064
vt 0.823445 0.955063
vt 0.823445 0.993168
vt 0.816292 0.982295
vt 0.731117 0.025523
vt 0.775308 0.002801
vt 0.775308 0.085348
vt 0.167433 0.872883
vt 0.167433 0.912237
vt 0.114718 0.910629
vt 0.825380 0.322242
vt 0.865536 0.317520
vt 0.865536 0.376500
vt 0.814980 0.356010
vt 0.563129 0.959656
vt 0.540863 0.954197
vt 0.563129 0.897135
vt 0.815407 0.171206
vt 0.769085 0.107917
vt 0.815407 0.097678
vt 0.443052 0.872110
vt 0.439364 0.860058
vt 0.443052 0.851909
vt 0.988777 0.643929
vt 0.980075 0.634531
vt 0.988777 0.601007
vt 0.276139 0.821461
vt 0.264656 0.816337
vt 0.276139 0.780537
vt 0.976690 0.857840
vt 0.985895 0.856183
vt 0.985895 0.907978
vt 0.327292 0.886997
vt 0.327292 0.930449
vt 0.281778 0.911720
vt 0.337267 0.584904
vt 0.281778 0.522546
vt 0.337267 0.488663
vt 0.988621 0.149530
vt 0.988621 0.192916
vt 0.980523 0.187438
vt 0.979990 0.148390
vt 0.178844 0.867283
vt 0.114718 0.858468
vt 0.178844 0.824404
vt 0.495910 0.772456
vt 0.552743 0.738493
vt 0.552743 0.801842
vt 0.411933 0.878226
vt 0.411933 0.941081
vt 0.380102 0.934713
vt 0.986916 0.053201
vt 0.980307 0.007374
vt 0.986916 0.002801
vt 0.002801 0.787056
vt 0.009599 0.772939
vt 0.009599 0.842809
vt 0.059845 0.599770
vt 0.059845 0.610273
vt 0.015561 0.607833
vt 0.109034 0.726742
vt 0.098772 0.720887
vt 0.109034 0.677469
vt 0.959842 0.306728
vt 0.959842 0.381165
vt 0.945723 0.378623
vt 0.640271 0.863778
vt 0.580918 0.836755
vt 0.640271 0.814042
vt 0.986720 0.392162
vt 0.993620 0.390385
vt 0.993620 0.429057
vt 0.002801 0.849296
vt 0.010117 0.848410
vt 0.010117 0.910927
vt 0.008088 0.404426
vt 0.002801 0.326175
vt 0.070988 0.332799
vt 0.070988 0.426029
vt 0.958449 0.002801
vt 0.958449 0.068323
vt 0.939696 0.061747
vt 0.977937 0.594677
vt 0.968232 0.592994
vt 0.977937 0.551482
vt 0.989847 0.383366
vt 0.983389 0.357546
vt 0.989847 0.355321
vt 0.655898 0.690837
vt 0.637783 0.619800
vt 0.695417 0.612812
vt 0.695417 0.691472
vt 0.376214 0.426867
vt 0.376214 0.502072
vt 0.350876 0.497192
vt 0.345947 0.424689
vt 0.783970 0.176807
vt 0.783970 0.212802
vt 0.769085 0.210602
vt 0.336735 0.975203
vt 0.345498 0.963283
vt 0.345498 0.981784
vt 0.310610 0.158457
vt 0.381845 0.131832
vt 0.381845 0.214071
vt 0.310278 0.229434
vt 0.010421 0.969515
vt 0.002801 0.967217
vt 0.010421 0.916528
vt 0.374398 0.966315
vt 0.365635 0.913917
vt 0.374398 0.907335
vt 0.336735 0.857900
vt 0.374441 0.840127
vt 0.374441 0.901734
vt 0.347292 0.899983
vt 0.965443 0.359352
vt 0.977789 0.306728
vt 0.977789 0.365801
vt 0.122665 0.104450
vt 0.114718 0.002801
vt 0.200735 0.016937
vt 0.200735 0.130373
vt 0.823504 0.303449
vt 0.839483 0.294005
vt 0.839483 0.311321
vt 0.443161 0.686219
vt 0.443161 0.745955
vt 0.380102 0.738059
vt 0.825421 0.595310
vt 0.832747 0.594044
vt 0.832747 0.606619
vt 0.449105 0.921362
vt 0.445340 0.897925
vt 0.489186 0.890564
vt 0.489186 0.929004
vt 0.360034 0.907335
vt 0.360034 0.957682
vt 0.336735 0.949290
vt 0.339787 0.909732
vt 0.600389 0.713893
vt 0.652559 0.723932
vt 0.652559 0.761407
vt 0.580918 0.765338
vt 0.714593 0.960956
vt 0.724740 0.955104
vt 0.724740 0.983547
vt 0.281778 0.840623
vt 0.328731 0.822123
vt 0.328731 0.881396
vt 0.283181 0.877180
vt 0.275544 0.681130
vt 0.275544 0.774936
vt 0.264656 0.771013
vt 0.269058 0.679062
vt 0.522646 0.146011
vt 0.522646 0.226552
vt 0.461672 0.181961
vt 0.466348 0.131832
vt 0.508723 0.941177
vt 0.508723 0.980742
vt 0.495910 0.942013
vt 0.974474 0.676546
vt 0.963474 0.605031
vt 0.974474 0.601007
vt 0.795717 0.561232
vt 0.810492 0.503488
vt 0.832747 0.507351
vt 0.832747 0.588443
vt 0.295141 0.411679
vt 0.220507 0.424114
vt 0.235106 0.362360
vt 0.295141 0.333910
vt 0.680722 0.486706
vt 0.680722 0.518237
vt 0.664103 0.507342
vt 0.311199 0.055492
vt 0.305872 0.022909
vt 0.393070 0.002801
vt 0.393070 0.085348
vt 0.757562 0.480709
vt 0.790787 0.390385
vt 0.790787 0.493713
vt 0.862811 0.487912
vt 0.877170 0.474945
vt 0.877170 0.492979
vt 0.661524 0.394366
vt 0.661525 0.401044
vt 0.651917 0.399232
vt 0.708992 0.989976
vt 0.701018 0.987796
vt 0.708992 0.955104
vt 0.211989 0.771253
vt 0.185072 0.742303
vt 0.211989 0.733198
vt 0.741015 0.561258
vt 0.790116 0.503488
vt 0.790116 0.576998
vt 0.271823 0.906451
vt 0.271823 0.955431
vt 0.247677 0.954811
vt 0.966238 0.760335
vt 0.966238 0.839576
vt 0.955066 0.834448
vt 0.646316 0.394366
vt 0.646316 0.401858
vt 0.627582 0.397710
vt 0.627826 0.513642
vt 0.600887 0.498169
vt 0.627826 0.482246
vt 0.647057 0.697073
vt 0.647057 0.708063
vt 0.637783 0.706849
vt 0.180995 0.990670
vt 0.173034 0.954744
vt 0.180995 0.948835
vt 0.971839 0.765250
vt 0.982198 0.760335
vt 0.982198 0.813548
vt 0.108292 0.817322
vt 0.108292 0.834652
vt 0.089958 0.826670
vt 0.575317 0.989185
vt 0.568730 0.949005
vt 0.575317 0.948019
vt 0.809379 0.317520
vt 0.809379 0.381733
vt 0.753771 0.357901
vt 0.761641 0.323101
vt 0.742309 0.226211
vt 0.742309 0.311919
vt 0.707688 0.299451
vt 0.700535 0.219228
vt 0.968232 0.488928
vt 0.978861 0.484629
vt 0.978861 0.545881
vt 0.505444 0.409132
vt 0.505444 0.501062
vt 0.442988 0.458351
vt 0.465037 0.407801
vt 0.348120 0.615114
vt 0.364006 0.519019
vt 0.374501 0.518605
vt 0.374501 0.621759
vt 0.747801 0.836126
vt 0.747801 0.887102
vt 0.701018 0.871931
vt 0.704052 0.836627
vt 0.912154 0.927992
vt 0.912154 0.980470
vt 0.898743 0.930731
vt 0.632471 0.369768
vt 0.627582 0.331563
vt 0.686620 0.310997
vt 0.686620 0.388765
vt 0.423543 0.106610
vt 0.455596 0.103170
vt 0.455596 0.116965
vt 0.421352 0.113056
vt 0.873345 0.202093
vt 0.884604 0.197262
vt 0.884604 0.212346
vt 0.986242 0.267321
vt 0.992389 0.262142
vt 0.992389 0.299195
vt 0.852518 0.700523
vt 0.852518 0.754734
vt 0.820127 0.750035
vt 0.801409 0.694941
vt 0.660768 0.076049
vt 0.671835 0.073617
vt 0.671835 0.082561
vt 0.185945 0.547731
vt 0.185945 0.619549
vt 0.123713 0.613548
vt 0.114718 0.565076
vt 0.850732 0.281400
vt 0.846560 0.233789
vt 0.883044 0.219228
vt 0.883044 0.293872
vt 0.763463 0.681045
vt 0.757325 0.612812
vt 0.805416 0.616676
vt 0.805416 0.686280
vt 0.725516 0.068015
vt 0.660768 0.041758
vt 0.664766 0.027943
vt 0.725516 0.002801
vt 0.937734 0.547679
vt 0.937734 0.588515
vt 0.911380 0.581853
vt 0.911958 0.550020
vt 0.877805 0.503488
vt 0.877805 0.576685
vt 0.849113 0.567091
vt 0.838349 0.510660
vt 0.247677 0.983668
vt 0.256104 0.961032
vt 0.256104 0.991602
vt 0.198885 0.392938
vt 0.198885 0.463288
vt 0.114718 0.452318
vt 0.116630 0.394016
vt 0.758893 0.866316
vt 0.782334 0.804887
vt 0.795808 0.804399
vt 0.795808 0.882088
vt 0.641432 0.211155
vt 0.589722 0.212765
vt 0.581616 0.178378
vt 0.641432 0.131832
vt 0.433763 0.872625
vt 0.380102 0.862119
vt 0.387726 0.825180
vt 0.433763 0.817619
vt 0.957983 0.098711
vt 0.957983 0.161291
vt 0.943566 0.159331
vt 0.938544 0.097678
vt 0.086056 0.230326
vt 0.086056 0.320574
vt 0.002801 0.260516
vt 0.521771 0.243049
vt 0.521771 0.316505
vt 0.477374 0.313500
vt 0.476365 0.233779
vt 0.820415 0.497790
vt 0.812162 0.486047
vt 0.820415 0.485522
vt 0.437387 0.608141
vt 0.380102 0.604744
vt 0.384163 0.532497
vt 0.437387 0.518605
vt 0.002801 0.766433
vt 0.009571 0.687611
vt 0.009571 0.767338
vt 0.122569 0.321644
vt 0.209705 0.309961
vt 0.209705 0.387337
vt 0.114718 0.348957
vt 0.859115 0.675304
vt 0.811017 0.664650
vt 0.840781 0.615366
vt 0.859115 0.612812
vt 0.729593 0.892703
vt 0.729593 0.949503
vt 0.712685 0.942535
vt 0.701018 0.903565
vt 0.393978 0.316667
vt 0.305791 0.293238
vt 0.323780 0.238722
vt 0.393978 0.235035
vt 0.972382 0.205168
vt 0.960115 0.176335
vt 0.972382 0.176259
vt 0.470764 0.244012
vt 0.470764 0.309535
vt 0.426194 0.316505
vt 0.399579 0.235035
vt 0.647033 0.169030
vt 0.717783 0.131832
vt 0.717783 0.191714
vt 0.962725 0.271011
vt 0.943848 0.234936
vt 0.962725 0.211275
vt 0.087242 0.783860
vt 0.016417 0.775467
vt 0.023119 0.736191
vt 0.087242 0.733061
vt 0.654893 0.815528
vt 0.691005 0.814042
vt 0.691005 0.876622
vt 0.645872 0.877241
vt 0.572647 0.407801
vt 0.637839 0.410469
vt 0.637839 0.475384
vt 0.566033 0.476645
vt 0.195331 0.965866
vt 0.200991 0.961475
vt 0.200991 0.996684
vt 0.680531 0.125692
vt 0.595057 0.123193
vt 0.594654 0.094129
vt 0.680531 0.088366
vn -0.1056 0.9942 -0.0211
vn -0.0053 -0.0058 1.0000
vn 0.0725 0.9973 0.0150
vn 0.9983 0.0129 -0.0577
vn 0.0167 0.9998 -0.0142
vn 0.0144 0.9998 -0.0119
vn 0.0180 0.9997 -0.0174
vn 0.0181 0.9997 -0.0177
vn -0.0076 0.0406 0.9991
vn -0.9999 0.0131 -0.0096
vn -0.9998 0.0150 -0.0103
vn -0.9998 0.0171 -0.0109
vn -0.2383 -0.1232 -0.9634
vn -0.7063 -0.4016 0.5829
vn 0.0356 0.9959 -0.0833
vn 0.0126 -0.0152 -0.9998
vn 0.0025 0.0029 -1.0000
vn -0.0057 -0.0306 -0.9995
vn 0.0034 -0.0234 -0.9997
vn 0.2357 0.0483 0.9706
vn 0.0045 0.0046 1.0000
vn 0.0070 0.0015 1.0000
vn 0.0027 0.0058 1.0000
vn 0.0737 0.0647 -0.9952
vn -0.7837 0.2222 0.5800
vn -0.2047 0.1479 -0.9676
vn 0.0651 0.9949 -0.0770
vn 0.0558 0.9935 -0.0988
vn 0.0579 0.9959 -0.0694
vn -0.4172 0.7087 -0.5689
vn 0.0485 0.9986 0.0205
vn 0.0140 0.9999 -0.0070
vn 0.0124 0.9999 -0.0098
vn 0.9989 -0.0468 0.0059
vn 0.9886 0.0939 0.1173
vn 0.9886 0.0939 0.1174
vn 0.0121 0.9994 -0.0333
vn -0.9998 0.0161 -0.0073
vn -1.0000 0.0081 -0.0021
vn -0.9999 0.0117 -0.0064
vn 0.8090 0.5735 -0.1289
vn 0.9996 -0.0052 -0.0278
vn -0.0309 0.9994 0.0179
vn -0.0603 0.9968 0.0531
vn 0.0484 0.9987 0.0187
vn -0.6311 -0.4517 -0.6306
vn -0.9853 -0.1153 -0.1258
vn 0.7346 0.6719 0.0941
vn -0.8780 0.1868 -0.4407
vn 0.9995 0.0272 -0.0166
vn 0.9996 0.0227 -0.0167
vn 0.9993 0.0312 -0.0193
vn 0.0002 0.0318 -0.9995
vn -0.1262 -0.2544 -0.9588
vn 1.0000 -0.0082 -0.0013
vn 1.0000 -0.0072 0.0003
vn 0.9998 0.0171 0.0039
vn 1.0000 0.0090 0.0007
vn 0.9997 0.0216 -0.0063
vn -0.0205 0.0759 -0.9969
vn 0.1850 -0.1369 -0.9731
vn -0.0206 0.0759 -0.9969
vn 1.0000 -0.0099 0.0013
vn 1.0000 0.0018 -0.0039
vn 1.0000 -0.0031 -0.0000
vn 0.9997 0.0226 0.0035
vn 0.9998 0.0207 0.0005
vn 0.9997 0.0236 -0.0010
vn -0.0199 0.0535 0.9984
vn -0.0205 0.0486 0.9986
vn -0.0250 0.0455 0.9987
vn -0.0002 -0.0255 0.9997
vn 0.4478 0.8762 0.1782
vn -0.0046 0.0188 -0.9998
vn -0.0173 0.0155 -0.9997
vn -0.9566 0.0088 -0.2911
vn -0.0100 -0.0276 0.9996
vn 0.0147 0.0155 0.9998
vn -0.4750 0.4005 -0.7836
vn -0.0070 -0.0004 -1.0000
vn -0.0014 0.0013 -1.0000
vn -0.0125 -0.0023 -0.9999
vn -0.9995 -0.0204 -0.0258
vn -0.0212 0.0044 0.9998
vn 0.0130 -0.0030 0.9999
vn 0.0099 -0.0048 0.9999
vn 0.0090 -0.0035 1.0000
vn 0.0093 -0.0058 0.9999
vn 0.0284 0.9982 0.0530
vn 0.0279 0.9985 0.0471
vn 0.0281 0.9984 0.0498
vn 0.0284 0.9982 0.0536
vn 0.0011 0.9700 0.2430
vn 0.0729 0.0395 -0.9966
vn 0.0619 0.0137 -0.9980
vn 0.0195 0.0983 0.9950
vn -0.9983 0.0516 0.0284
vn 0.7760 0.3049 -0.5522
vn 0.9810 0.1581 0.1122
vn 0.8259 0.4359 0.3576
vn -0.0068 -0.0090 0.9999
vn -0.0061 -0.0091 0.9999
vn -0.0061 -0.0078 1.0000
vn 0.0108 0.0623 -0.9980
vn -0.3205 -0.0538 -0.9457
vn 0.0417 0.9990 0.0147
vn -0.0328 0.9893 0.1420
vn -0.9933 -0.0851 0.0788
vn 1.0000 -0.0077 0.0021
vn 1.0000 -0.0076 -0.0007
vn 0.9999 -0.0100 -0.0039
vn 0.9999 -0.0103 0.0007
vn 0.6822 -0.1436 -0.7170
vn -0.0104 0.9979 -0.0637
vn -0.0135 0.9981 -0.0606
vn -0.0097 0.9982 -0.0598
vn 0.4008 0.8621 -0.3100
vn -0.0812 0.0269 0.9963
vn -0.7512 0.6595 -0.0274
vn -0.0186 0.9980 -0.0603
vn -0.9338 -0.0630 -0.3522
vn 0.0169 -0.0453 -0.9988
vn 0.6225 0.5847 -0.5202
vn 0.6966 -0.1335 -0.7050
vn 0.4854 0.4357 0.7580
vn -0.6056 0.1195 -0.7868
vn -0.0551 0.0286 -0.9981
vn -0.6055 0.1194 -0.7868
vn -0.0256 0.9997 0.0027
vn 0.3268 -0.5851 0.7422
vn 0.9999 -0.0038 0.0101
vn 0.9999 0.0017 0.0107
vn 0.9999 0.0118 0.0123
vn 0.3277 0.6660 0.6701
vn -0.0049 -0.0042 1.0000
vn -0.0106 -0.0006 0.9999
vn -0.0046 -0.0021 1.0000
vn 0.6564 0.5774 0.4855
vn 0.0476 0.0708 0.9964
vn -0.3645 0.0771 0.9280
vn 0.9997 0.0224 0.0020
vn 0.9999 0.0157 0.0030
vn 0.9997 0.0237 0.0000
vn 0.9997 0.0247 -0.0007
vn 0.0121 -0.0165 0.9998
vn 0.0067 -0.0146 0.9999
vn 0.0095 -0.0143 0.9999
vn -0.0109 0.0058 -0.9999
vn -0.9994 0.0342 0.0096
vn -0.9993 0.0345 0.0125
vn -0.9994 0.0349 0.0066
vn -0.5100 -0.4836 -0.7114
vn -0.0915 0.0768 -0.9928
vn 0.6599 0.5826 -0.4745
vn 0.0375 0.9990 0.0238
vn 0.0234 0.9994 0.0251
vn 0.0272 0.9992 0.0286
vn -0.2480 0.0192 -0.9686
vn -0.2428 0.0171 -0.9699
vn -0.2428 0.0170 -0.9699
vn 1.0000 0.0008 -0.0048
vn 0.9998 -0.0010 -0.0184
vn 1.0000 0.0096 -0.0019
vn 0.9998 0.0121 -0.0125
vn 0.0009 0.0222 0.9998
vn -0.0077 0.0226 0.9997
vn 0.0002 0.0175 0.9998
vn 0.0012 0.0220 0.9998
vn -0.9998 0.0065 0.0193
vn -0.9998 0.0065 0.0194
vn -0.9975 -0.0391 -0.0585
vn 0.9998 0.0165 0.0058
vn 1.0000 0.0050 0.0023
vn 0.9999 0.0102 0.0026
vn 0.9999 0.0144 0.0029
vn -0.0024 -0.0024 -1.0000
vn -0.0054 -0.0006 -1.0000
vn -0.0053 0.0019 -1.0000
vn -0.0017 0.0038 -1.0000
vn -0.0027 0.8353 -0.5498
vn 0.0051 0.0102 -0.9999
vn 0.0042 0.0102 -0.9999
vn 0.0058 0.0099 -0.9999
vn -0.3655 0.9300 0.0381
vn -0.0112 0.9998 0.0190
vn -0.0118 0.9999 0.0121
vn -0.0136 0.9999 0.0055
vn -0.9180 0.1312 -0.3744
vn 0.0358 0.6268 -0.7783
vn 0.9778 0.2090 0.0121
vn 0.0248 0.6943 -0.7193
vn 0.8138 -0.1208 0.5685
vn -0.9948 -0.0754 -0.0686
vn -0.9996 0.0010 0.0280
vn 0.4941 0.0436 0.8683
vn -0.0986 0.5212 0.8477
vn -0.0077 -0.0125 -0.9999
vn -0.0072 -0.0073 -0.9999
vn -0.0008 -0.0146 -0.9999
vn -0.0039 -0.0141 -0.9999
vn 0.0154 -0.0081 0.9998
vn 0.0165 -0.0079 0.9998
vn 0.0137 0.0022 0.9999
vn 0.0140 -0.0079 0.9999
vn -0.9562 0.2878 0.0539
vn 0.6372 -0.0402 -0.7697
vn 0.2574 0.0278 -0.9659
vn -0.0019 0.0595 -0.9982
vn -0.9999 -0.0098 0.0095
vn -0.9998 -0.0095 0.0152
vn -0.9999 -0.0097 0.0122
vn -0.9999 -0.0099 0.0089
vn 0.9960 -0.0129 0.0880
vn -0.0349 0.0022 -0.9994
vn 0.0091 0.0711 -0.9974
vn -0.0168 0.0176 0.9997
vn -0.0188 0.0182 0.9997
vn -0.0148 0.0167 0.9998
vn -0.0139 0.0213 0.9997
vn -0.0128 0.0195 0.9997
vn -0.0111 0.0209 0.9997
vn -0.0558 0.9962 0.0663
vn -0.0561 0.9963 0.0650
vn -0.0572 0.9964 0.0631
vn -0.0562 0.9964 0.0639
vn 0.9842 -0.1738 0.0331
vn -0.6720 0.5757 -0.4658
vn 0.0078 0.0032 1.0000
vn 0.0072 0.0045 1.0000
vn 0.0069 0.0038 1.0000
vn -0.0019 0.0142 0.9999
vn -0.2573 0.8954 0.3634
vn 0.0589 0.9261 -0.3726
vn 0.0495 0.9985 -0.0217
vn 0.0042 0.0124 -0.9999
vn 0.0045 0.0131 -0.9999
vn -0.0284 0.2043 -0.9785
vn -0.0752 0.0068 -0.9971
vn 0.0284 -0.0406 -0.9988
vn -0.0069 -0.0015 -1.0000
vn -0.0116 -0.0102 -0.9999
vn -0.0930 0.0119 0.9956
vn 0.0005 0.9987 -0.0500
vn 0.0015 0.9982 -0.0595
vn -0.0045 0.9984 -0.0555
vn 0.0041 0.0103 -0.9999
vn -0.1435 0.9801 0.1372
vn 0.0022 0.0586 0.9983
vn 0.0082 -0.0032 1.0000
vn 0.0056 -0.0016 1.0000
vn 0.0100 0.0013 0.9999
vn -0.0466 0.9973 -0.0574
vn -1.0000 0.0030 0.0061
vn -0.0086 0.0097 -0.9999
vn -0.0057 0.0139 -0.9999
vn 0.0185 -0.0094 0.9998
vn 0.0127 -0.0074 0.9999
vn 0.0170 -0.0137 0.9998
vn 0.0204 -0.0111 0.9997
vn -0.0107 0.9748 0.2226
vn -0.0507 -0.1077 -0.9929
vn 0.0128 0.0826 -0.9965
vn -0.6173 0.6113 -0.4952
vn -0.0249 0.9995 -0.0169
vn -0.0256 0.9931 -0.1144
vn -0.0119 0.9992 0.0395
vn 0.0407 0.9944 -0.0974
vn 0.0104 0.9477 0.3191
vn -0.1268 0.9876 -0.0928
vn 0.0713 0.9947 0.0740
vn -0.0411 0.9983 -0.0416
vn -0.0546 0.9977 -0.0407
vn -0.1070 0.9942 -0.0108
vn -0.1016 0.9948 0.0056
vn 0.9861 -0.1590 0.0472
vn -0.0007 0.9988 -0.0497
vn 0.0001 0.9992 -0.0392
vn 0.0048 0.9990 -0.0450
vn -0.9999 0.0128 0.0018
vn -0.9999 0.0110 -0.0019
vn -0.9999 -0.0104 -0.0093
vn -0.9999 -0.0082 -0.0073
vn -1.0000 -0.0063 -0.0063
vn -0.9996 -0.0142 -0.0241
vn 0.9985 0.0110 -0.0539
vn -0.9999 0.0153 0.0075
vn -0.9999 0.0107 0.0049
vn 0.9065 -0.0478 -0.4195
vn 0.9107 -0.0421 -0.4109
vn 0.9097 -0.0434 -0.4129
vn 0.9057 -0.0489 -0.4212
vn 0.9998 0.0146 -0.0132
vn 0.9999 0.0139 -0.0060
vn 0.9999 0.0171 0.0018
vn -0.9995 -0.0316 -0.0048
vn -0.0119 0.0242 -0.9996
vn 1.0000 0.0052 0.0084
vn 1.0000 -0.0043 -0.0024
vn 0.9999 0.0050 0.0127
vn 0.9988 0.0480 -0.0022
vn 1.0000 0.0022 -0.0006
vn 1.0000 0.0075 -0.0051
vn 0.9999 0.0130 -0.0021
vn -0.0111 0.0467 0.9988
vn -0.0160 0.0476 0.9987
vn -0.0164 0.0480 0.9987
vn 0.9984 0.0410 -0.0401
vn -0.9988 -0.0402 -0.0280
vn -0.9999 -0.0093 -0.0058
vn -1.0000 -0.0039 -0.0042
vn -1.0000 -0.0066 -0.0052
vn -0.0485 0.2417 -0.9691
vn 0.0778 0.9724 0.2200
vn 0.0138 0.9945 0.1040
vn 0.0564 0.9980 0.0270
vn -0.1179 0.9790 -0.1662
vn 0.0164 -0.0101 0.9998
vn 0.0199 -0.0079 0.9998
vn 0.0068 -0.0043 1.0000
vn -0.0213 0.0009 -0.9998
vn 0.1257 0.0983 -0.9872
vn -0.0240 -0.0020 0.9997
vn 0.0001 0.0021 1.0000
vn 0.0417 0.0389 -0.9984
vn -0.0040 0.0735 -0.9973
vn -0.9996 0.0151 0.0244
vn 0.0109 -0.0069 0.9999
vn 0.0116 -0.0078 0.9999
vn 0.0107 -0.0053 0.9999
vn 0.5789 0.5504 -0.6016
vn -1.0000 -0.0045 0.0019
vn -0.0992 0.9949 0.0170
vn 0.0041 0.1637 0.9865
vn 0.1647 0.0592 0.9846
vn -0.9996 0.0269 0.0121
vn -0.9996 0.0249 0.0164
vn -0.9995 0.0275 0.0151
vn -0.9204 0.0816 -0.3825
vn 0.0737 -0.0314 -0.9968
vn 0.1686 0.1822 -0.9687
vn -0.0045 -0.0162 -0.9999
vn 0.9997 0.0231 -0.0082
vn 0.9996 0.0253 -0.0121
vn 0.9996 0.0267 -0.0055
vn 0.9995 0.0308 -0.0024
vn 0.8258 0.4361 0.3576
vn 0.9998 0.0048 -0.0211
vn 0.9996 0.0141 -0.0262
vn 0.9997 0.0131 -0.0198
vn 0.0585 0.0475 -0.9972
vn 0.0590 -0.0509 -0.9970
vn 0.0169 -0.0107 -0.9998
vn 0.0257 -0.0048 -0.9997
vn 0.0227 -0.0112 -0.9997
vn 0.0284 0.9996 0.0023
vn 0.0253 0.9997 0.0017
vn 0.0282 0.9996 0.0022
vn 0.0287 0.9996 0.0023
vn -0.7942 0.5241 -0.3075
vn -0.6724 0.3266 -0.6642
vn 0.3420 -0.2988 -0.8909
vn 0.0244 0.9993 -0.0290
vn 0.0203 0.9995 -0.0254
vn 0.0201 0.9993 -0.0318
vn -0.0379 0.9956 -0.0857
vn 0.5203 0.7939 -0.3148
vn 0.0361 0.0343 -0.9988
vn -0.0039 0.0592 -0.9982
vn 0.0954 0.9945 0.0442
vn 0.0004 0.9978 -0.0656
vn -0.0073 0.9976 -0.0686
vn -0.0055 0.9974 -0.0713
vn -0.9984 0.0381 -0.0418
vn -0.1236 -0.1052 -0.9867
vn 0.0010 -0.0225 -0.9997
vn 0.0136 0.0178 -0.9997
vn 0.0147 0.0112 -0.9998
vn 0.0128 0.0114 -0.9999
vn 0.0180 0.0120 -0.9998
vn 0.0147 0.0130 -0.9998
vn 0.0192 0.0201 -0.9996
vn 0.6909 -0.3325 -0.6420
vn -0.0223 -0.1301 -0.9913
vn 0.0116 0.9990 0.0433
vn 0.0176 0.9989 0.0444
vn 0.0101 0.9988 0.0478
vn -0.0878 0.9959 0.0200
vn -0.1827 0.9176 0.3530
vn -0.0072 0.9999 -0.0097
vn -0.0797 0.9959 0.0434
vn 0.0736 0.1659 -0.9834
vn 0.5611 0.3528 0.7488
vn 0.9997 0.0252 -0.0054
vn 0.9995 0.0298 -0.0055
vn 0.9997 0.0217 -0.0060
vn 0.0089 -0.0156 0.9998
vn 0.0165 -0.0097 0.9998
vn 0.0165 0.0004 0.9999
vn 0.0137 -0.0034 0.9999
vn 0.9998 -0.0035 -0.0174
vn 0.9999 -0.0102 -0.0098
vn 0.9998 -0.0119 -0.0175
vn 0.9999 -0.0099 -0.0033
vn 1.0000 -0.0049 -0.0046
vn 1.0000 0.0060 -0.0042
vn 0.1003 0.9292 0.3558
vn -0.0197 -0.0016 0.9998
vn -0.0219 0.0043 0.9998
vn -0.0153 0.0027 0.9999
vn -0.0564 0.0322 0.9979
vn 1.0000 -0.0066 -0.0038
vn 1.0000 -0.0072 -0.0048
vn 1.0000 -0.0062 -0.0031
vn 1.0000 -0.0049 -0.0047
vn 0.0044 0.0004 1.0000
vn 0.0089 -0.0006 1.0000
vn 0.0131 0.0006 0.9999
vn 0.0119 -0.0089 0.9999
vn 0.0109 -0.0116 0.9999
vn 0.0105 -0.0119 0.9999
vn 0.0405 -0.0019 0.9992
vn -0.0612 0.0034 -0.9981
vn -0.2014 0.1215 -0.9719
vn -0.9999 -0.0063 -0.0116
vn -0.9999 -0.0043 -0.0108
vn -0.9999 -0.0030 -0.0134
vn -0.9994 0.0334 0.0099
vn -0.9993 0.0361 0.0084
vn -0.0305 0.9993 0.0217
vn -0.9349 0.3550 -0.0034
vn -0.8393 0.5412 -0.0516
vn -0.0233 0.9997 -0.0036
vn -0.0216 0.9987 -0.0467
vn -0.0415 0.9982 -0.0434
vn 0.0434 0.9989 0.0202
vn 0.0365 0.9990 0.0253
vn 0.0476 0.9985 0.0260
vn 0.0161 0.9996 0.0253
vn 0.0230 0.9993 0.0302
vn 0.0230 0.9991 0.0347
vn -0.0396 0.5886 -0.8075
vn -0.9067 0.4205 -0.0320
vn -0.9399 0.3221 -0.1132
vn -0.9417 -0.0145 -0.3360
vn -0.2700 -0.0891 -0.9587
vn -0.9999 0.0088 0.0138
vn -0.9998 0.0093 0.0188
vn -0.9998 0.0108 0.0160
vn 0.9012 0.0880 -0.4243
vn -0.0040 0.8432 -0.5376
vn -0.0152 0.0197 0.9997
vn -0.0150 0.0209 0.9997
vn -0.0165 0.0180 0.9997
vn -0.1364 0.6433 0.7533
vn 0.7071 -0.0024 0.7071
vn -0.0548 0.4255 0.9033
vn 0.0098 0.9994 0.0324
vn 0.0096 0.9995 0.0314
vn 0.0147 0.9992 0.0380
vn 0.0114 0.9991 0.0417
vn -0.0145 -0.0007 -0.9999
vn -0.0104 0.0008 -0.9999
vn -0.0066 -0.0013 -1.0000
vn -0.0079 -0.0057 -1.0000
vn -0.7103 -0.0235 -0.7035
vn 0.4611 0.7620 -0.4547
vn 0.0049 0.0116 -0.9999
vn 0.0106 0.0108 -0.9999
vn 0.0026 0.0036 -1.0000
vn -0.0001 0.0042 -1.0000
vn 0.0257 -0.0061 -0.9997
vn 0.0279 -0.0007 -0.9996
vn 0.0342 0.0023 -0.9994
vn 0.9998 -0.0054 -0.0210
vn -0.9993 -0.0305 -0.0233
vn -0.9997 0.0236 0.0026
vn 0.9919 0.1265 0.0104
vn 0.9905 0.1369 0.0104
vn 0.9912 0.1316 0.0135
vn -0.0031 0.9997 -0.0242
vn 0.0045 1.0000 -0.0080
vn 0.0045 1.0000 -0.0053
vn 0.0423 0.9990 -0.0153
vn -0.4193 0.4901 -0.7642
vn -0.9989 0.0458 -0.0028
vn -0.6225 -0.6155 -0.4834
vn 0.9998 -0.0186 0.0094
vn 0.9997 -0.0216 0.0103
vn 0.9997 -0.0208 0.0101
vn 0.9998 -0.0184 0.0093
vn 0.0573 0.9904 -0.1256
vn 0.0582 0.9954 0.0757
vn 0.0581 0.9954 0.0756
vn -0.0186 0.9997 0.0127
vn -0.0186 0.9997 0.0137
vn -0.0254 0.9996 0.0143
vn 0.8650 0.4975 0.0651
vn -0.0009 0.0039 -1.0000
vn 0.0021 -0.0002 -1.0000
vn 0.6922 0.0156 -0.7215
vn 0.7410 0.0062 -0.6715
vn 0.7410 0.0062 -0.6714
vn -0.0098 0.9989 0.0460
vn -0.0223 0.9996 0.0199
vn -0.1135 0.6873 0.7175
vn 0.8783 0.4780 -0.0129
vn -0.0477 0.9864 -0.1572
vn 0.0202 0.9974 0.0695
vn 0.0202 0.9974 0.0696
vn 0.0041 0.9997 0.0236
vn -0.0004 0.9998 0.0208
vn 0.0085 0.9996 0.0263
vn 0.2831 0.6874 0.6688
vn 0.0117 0.0064 0.9999
vn 0.0044 0.0068 1.0000
vn 0.0024 0.0099 0.9999
vn 0.0369 0.9993 -0.0004
vn 0.6796 -0.2695 -0.6822
vn -0.6488 0.6000 0.4681
vn 0.8100 0.1050 0.5770
vn -0.6789 0.6495 -0.3424
vn 0.0137 0.0774 -0.9969
vn 0.9927 0.1199 0.0140
vn 0.9924 0.1226 0.0085
vn 0.9917 0.1279 0.0116
vn 0.0316 0.9254 -0.3777
vn 0.5868 0.5658 -0.5793
vn -0.9990 -0.0302 0.0344
vn -0.4605 0.5545 -0.6932
vn 0.5775 0.8162 -0.0198
vn 0.0520 0.6328 0.7725
vn -0.4971 0.6463 0.5789
vn -0.7190 0.0352 0.6942
vn 0.0515 0.9978 0.0419
vn 0.0504 0.9979 0.0412
vn 0.0517 0.9978 0.0420
vn 0.0879 0.9896 -0.1135
vn 0.0739 0.9901 -0.1194
vn 0.0714 0.9946 -0.0748
vn 0.0791 0.9930 -0.0875
vn -0.0457 0.6576 0.7520
vn -0.0223 0.9991 -0.0354
vn -0.0110 0.9991 -0.0411
vn -0.0209 0.9991 -0.0361
vn -0.0230 0.9991 -0.0350
vn -0.9428 0.3245 -0.0764
vn -0.9990 0.0333 0.0314
vn -0.9999 -0.0056 -0.0087
vn -0.9999 -0.0030 -0.0131
vn -0.9999 -0.0038 -0.0133
vn -0.9999 -0.0068 -0.0086
vn 0.6583 -0.0843 -0.7480
vn -0.0053 0.9995 0.0313
vn -0.0056 0.9995 0.0318
vn 0.7904 0.0674 -0.6088
vn 0.7557 0.0845 -0.6495
vn 0.6334 0.4627 -0.6203
vn 0.0355 0.6219 -0.7823
vn -0.1081 0.9932 0.0433
vn -0.0992 0.9930 0.0638
vn 0.5831 0.5829 0.5659
vn 0.0064 0.0077 0.9999
vn 0.0095 0.0039 0.9999
vn 0.0086 0.0044 1.0000
vn 0.0059 0.0074 1.0000
vn -0.0077 -0.0159 -0.9998
vn -0.0069 -0.0168 -0.9998
vn -0.0096 -0.0103 -0.9999
vn -0.0077 -0.0081 -0.9999
vn -0.0168 0.0140 0.9998
vn -0.0156 0.0141 0.9998
vn -0.0168 0.0146 0.9998
vn -0.0168 0.0113 0.9998
vn -0.9999 0.0139 0.0075
vn -0.9999 0.0126 0.0102
vn -0.9999 0.0154 0.0073
vn -0.9998 0.0137 0.0131
vn 0.9997 0.0188 -0.0149
vn 0.9998 0.0157 -0.0137
vn 0.9997 0.0139 -0.0193
vn 0.9997 0.0132 -0.0199
vn -0.0293 0.0615 -0.9977
vn -0.0194 -0.0097 -0.9998
vn 0.7175 0.1347 -0.6834
vn 0.0380 0.9970 0.0674
vn 0.0434 0.9974 0.0574
vn 0.0052 1.0000 -0.0045
vn 0.0127 0.9990 0.0429
vn -0.0063 0.9982 -0.0600
vn -0.0063 0.9982 -0.0597
vn -0.0032 0.9980 -0.0626
vn -0.0043 0.9980 -0.0638
vn 0.0095 0.0460 0.9989
vn 0.0073 0.0047 1.0000
vn 0.0065 0.0049 1.0000
vn 0.0069 0.0037 1.0000
vn -0.0140 0.1052 0.9944
vn -0.0043 0.0893 0.9960
vn 0.0135 0.9992 0.0384
vn 0.0016 0.0227 0.9997
vn 0.0020 0.0278 0.9996
vn -0.0008 0.0385 0.9993
vn -0.0057 0.0365 0.9993
vn 0.7811 0.5939 -0.1927
vn -0.0343 0.9994 -0.0080
vn -0.0361 0.9993 -0.0081
vn -0.0352 0.9993 -0.0080
vn -0.0335 0.9994 -0.0080
vn 0.0300 0.4297 0.9025
vn -0.0376 0.0457 -0.9982
vn -0.0372 0.0468 -0.9982
vn -0.0402 0.0381 -0.9985
vn -0.0410 0.0358 -0.9985
vn 1.0000 -0.0029 0.0006
vn 1.0000 -0.0066 -0.0045
vn 0.0393 -0.0909 -0.9951
vn 0.0003 -0.2048 -0.9788
vn -0.9999 0.0103 -0.0053
vn -0.9999 0.0094 -0.0061
vn -0.9999 0.0029 -0.0170
vn 0.0621 0.9827 -0.1746
vn 0.0024 0.9998 0.0221
vn 0.0029 0.9997 0.0233
vn 0.0014 0.9998 0.0195
vn -0.0001 0.9999 0.0157
vn 0.0225 -0.0311 -0.9993
vn 0.0257 -0.0258 -0.9993
vn 0.0177 -0.0225 -0.9996
vn -0.9713 0.1241 0.2028
vn -0.0043 -0.0065 1.0000
vn -0.0056 -0.0061 1.0000
vn -0.0057 -0.0067 1.0000
vn 0.0212 -0.0182 0.9996
vn 0.0230 -0.0104 0.9997
vn 0.0227 -0.0117 0.9997
vn 0.0210 -0.0191 0.9996
vn -0.0114 0.0242 0.9996
vn -0.0112 0.0243 0.9996
vn -0.0113 0.0242 0.9996
vn -0.0174 0.0214 0.9996
vn 0.0214 0.9991 -0.0360
vn 0.0205 0.9989 -0.0414
vn 0.0235 0.9988 -0.0420
vn 1.0000 0.0064 0.0031
vn 1.0000 0.0026 -0.0007
vn 0.9999 0.0059 0.0087
vn 0.9999 0.0073 0.0095
g Block_T_Block_T_Collor_Material
usemtl Collor_Material
s off
f 44/1/1 102/2/1 101/3/1
f 218/4/2 117/5/2 50/6/2
f 27/7/3 116/8/3 218/9/3
f 153/10/4 171/11/4 201/12/4
f 21/13/5 30/14/6 31/15/7 114/16/8
f 52/17/9 220/18/9 118/19/9
f 167/20/10 87/21/11 39/22/12 130/23/11
f 231/24/13 122/25/13 56/26/13
f 220/27/14 221/28/14 118/29/14
f 132/30/15 32/31/15 9/32/15
f 15/33/16 14/34/17 71/35/18 73/36/19
f 172/37/20 207/38/20 206/39/20
f 217/40/21 149/41/22 60/42/23
f 64/43/24 190/44/24 98/45/24
f 115/46/25 216/47/25 114/48/25
f 198/49/26 105/50/26 72/51/26
f 35/52/27 36/53/28 37/54/29
f 103/55/30 197/56/30 104/57/30
f 35/58/31 103/59/31 195/60/31
f 30/61/32 21/62/33 20/63/33
f 80/64/34 173/65/34 210/66/35 110/67/36
f 27/68/37 28/69/37 29/70/37
f 25/71/38 76/72/39 74/73/40
f 105/74/41 198/75/41 106/76/41
f 202/77/42 203/78/42 80/79/42
f 19/80/43 147/81/43 26/82/43
f 19/83/44 33/84/44 32/85/44
f 43/86/45 44/87/45 45/88/45
f 182/89/46 91/90/46 90/91/46
f 187/92/47 95/93/47 94/94/47
f 100/95/48 101/96/48 102/97/48
f 96/98/49 97/99/49 188/100/49
f 191/101/50 169/102/51 82/103/52
f 129/104/53 54/105/53 166/106/53
f 181/107/54 189/108/54 96/109/54
f 83/110/55 40/111/56 41/112/56
f 83/113/57 84/114/58 85/115/59
f 140/116/60 15/117/61 108/118/61 209/119/62
f 22/120/63 81/121/64 23/122/65
f 79/123/66 80/124/67 81/125/68
f 111/126/69 210/127/70 172/128/71
f 67/129/72 68/130/72 69/131/72
f 107/132/73 205/133/73 203/134/73
f 63/135/74 10/136/74 11/137/74
f 63/138/75 64/139/75 65/140/75
f 90/141/76 183/142/76 135/143/76
f 59/144/77 12/145/77 13/146/77
f 46/147/78 58/148/78 59/149/78
f 120/150/79 228/151/79 119/152/79
f 54/153/80 57/154/81 55/155/82
f 167/156/83 86/157/83 87/158/83
f 6/159/84 53/160/84 7/161/84
f 1/162/85 51/163/85 6/164/85
f 48/165/86 51/166/87 49/167/88
f 44/168/89 43/169/90 42/170/91 9/171/92
f 149/172/93 217/173/93 114/174/93
f 208/175/94 73/176/94 72/177/95 171/178/95
f 67/179/96 69/180/96 151/181/96
f 25/182/97 119/183/97 144/184/97
f 200/185/98 201/186/98 171/187/98
f 203/188/99 204/189/99 207/190/99
f 110/191/100 211/192/100 212/193/100
f 61/194/101 48/195/102 49/196/103
f 161/197/104 70/198/104 71/199/104
f 175/200/105 178/201/105 170/202/105
f 116/203/106 27/204/106 29/205/107 148/206/107
f 77/207/108 174/208/108 224/209/108
f 160/210/109 125/211/110 40/212/111 85/213/112
f 190/214/113 99/215/113 98/216/113
f 92/217/114 43/218/115 97/219/116
f 94/220/117 185/221/117 186/222/117
f 216/223/118 115/224/118 58/225/118
f 92/226/119 93/227/119 158/228/119
f 45/229/120 94/230/120 186/231/120
f 168/232/121 182/233/121 90/234/121
f 185/235/122 95/236/122 62/237/122
f 100/238/123 102/239/123 193/240/123
f 103/241/124 194/242/124 195/243/124
f 204/244/125 206/245/125 207/246/125
f 179/247/126 181/248/127 96/249/127 168/250/128
f 113/251/129 215/252/129 150/253/129
f 210/254/130 111/255/130 110/256/130
f 109/257/131 79/258/132 22/259/133
f 113/260/134 214/261/134 112/262/134
f 16/263/135 211/264/136 111/265/137
f 114/266/138 217/267/138 115/268/138
f 67/269/139 112/270/139 214/271/139
f 118/272/140 221/273/140 3/274/140
f 79/275/141 78/276/142 202/277/143 80/278/144
f 148/279/145 50/280/146 219/281/147
f 230/282/148 227/283/148 226/284/148
f 229/285/149 119/286/150 74/287/151
f 119/288/152 229/289/152 120/290/152
f 145/291/153 228/292/153 120/293/153
f 123/294/154 233/295/154 124/296/154
f 124/297/155 26/298/156 232/299/157
f 129/300/158 166/301/158 167/302/159 130/303/160
f 163/304/161 160/305/162 85/306/163 84/307/164
f 214/308/165 137/309/166 47/310/167 67/311/168
f 38/312/169 89/313/170 90/314/171 135/315/171
f 82/316/172 84/317/173 83/318/174 99/319/175
f 62/320/176 95/321/177 64/322/178 63/323/179
f 131/324/180 147/325/180 132/326/180
f 57/327/181 54/328/182 5/329/181 56/330/183
f 158/331/184 131/332/184 132/333/184
f 34/334/185 21/335/186 213/336/186 113/337/187
f 164/338/188 166/339/188 165/340/188
f 185/341/189 188/342/189 186/343/189
f 127/344/190 193/345/190 128/346/190
f 127/347/191 195/348/191 194/349/191
f 173/350/192 207/351/192 172/352/192
f 164/353/193 131/354/193 157/355/194 86/356/194
f 143/357/195 212/358/195 211/359/195
f 213/360/196 137/361/196 214/362/196
f 131/363/197 165/364/198 55/365/199 146/366/200
f 67/367/201 47/368/202 66/369/203 68/370/204
f 225/371/205 156/372/205 155/373/205
f 134/374/206 133/375/207 98/376/207 192/377/206
f 72/378/208 197/379/208 196/380/208
f 89/381/209 87/382/210 88/383/211 90/384/212
f 169/385/213 177/386/213 176/387/213
f 226/388/214 233/389/214 57/390/215 122/391/215
f 50/392/216 48/393/217 218/394/218
f 48/395/219 139/396/220 218/397/221
f 218/398/222 138/399/223 18/400/223
f 18/401/224 27/402/224 218/403/225
f 78/404/226 171/405/226 153/406/226
f 105/407/227 106/408/227 199/409/227
f 118/410/228 53/411/229 52/412/230
f 52/413/231 174/414/231 220/415/231
f 224/416/232 222/417/232 223/418/232
f 101/419/233 159/420/234 94/421/234 45/422/233
f 122/423/235 57/424/235 56/425/236
f 56/426/237 120/427/237 229/428/237
f 229/429/238 231/430/238 56/431/238
f 126/432/239 161/433/239 71/434/240 14/435/241
f 52/436/242 148/437/242 222/438/242
f 132/439/243 19/440/244 32/441/245
f 54/442/246 4/443/246 5/444/246
f 21/445/247 136/446/247 213/447/247
f 60/448/248 58/449/248 115/450/248
f 115/451/249 217/452/250 60/453/251
f 9/454/252 8/455/252 44/456/252
f 88/457/253 86/458/253 157/459/253
f 98/460/254 65/461/255 64/462/255
f 13/463/256 2/464/257 46/465/258 59/466/259
f 200/467/260 199/468/260 201/469/260
f 72/470/261 70/471/261 104/472/261
f 104/473/262 197/474/262 72/475/262
f 103/476/263 196/477/263 197/478/263
f 20/479/264 21/480/264 34/481/264
f 8/482/265 9/483/265 32/484/265
f 32/485/266 33/486/266 31/487/266
f 27/488/267 26/489/267 28/490/267
f 148/491/268 219/492/268 116/493/268
f 19/494/269 26/495/269 27/496/269
f 222/497/270 148/498/270 29/499/270
f 29/500/271 28/501/272 155/502/273 154/503/274
f 78/504/275 153/505/275 202/506/275
f 19/507/276 132/508/277 147/509/278
f 156/510/279 225/511/279 75/512/280
f 225/513/281 227/514/282 121/515/283
f 227/516/284 230/517/284 121/518/284
f 82/519/285 159/520/285 101/521/285
f 39/522/286 87/523/286 89/524/287 38/525/287
f 169/526/288 170/527/289 178/528/290 177/529/291
f 99/530/292 191/531/293 82/532/294
f 87/533/295 86/534/295 88/535/295
f 129/536/296 4/537/296 54/538/296
f 83/539/297 85/540/298 40/541/299
f 79/542/300 109/543/300 208/544/300
f 22/545/301 79/546/302 81/547/303
f 68/548/304 111/549/305 172/550/306
f 142/551/307 23/552/307 212/553/307
f 223/554/308 154/555/308 77/556/308
f 75/557/309 74/558/310 76/559/311
f 232/560/312 146/561/312 123/562/312
f 21/563/313 114/564/313 216/565/314 136/566/314
f 18/567/315 138/568/315 149/569/315
f 205/570/316 204/571/316 203/572/316
f 47/573/317 46/574/318 66/575/319
f 63/576/320 65/577/320 10/578/320
f 91/579/321 182/580/321 168/581/321
f 59/582/322 61/583/322 12/584/322
f 46/585/323 47/586/323 58/587/323
f 64/588/324 95/589/324 175/590/325 170/591/325
f 167/592/326 164/593/326 86/594/326
f 1/595/327 49/596/328 51/597/329
f 175/598/330 176/599/330 177/600/330
f 24/601/331 3/602/331 221/603/331
f 114/604/332 31/605/332 149/606/332
f 151/607/333 215/608/333 67/609/333
f 215/610/334 112/611/334 67/612/334
f 74/613/335 119/614/336 25/615/337
f 119/616/338 228/617/338 144/618/338
f 171/619/339 72/620/339 105/621/339
f 105/622/340 199/623/340 171/624/340
f 199/625/341 200/626/341 171/627/341
f 171/628/342 78/629/343 79/630/344 208/631/345
f 110/632/346 111/633/346 211/634/346
f 163/635/347 84/636/348 100/637/349
f 161/638/350 162/639/350 70/640/350
f 95/641/351 187/642/351 175/643/351
f 191/644/352 64/645/353 170/646/354
f 8/647/355 32/648/356 31/649/357 30/650/358
f 90/651/359 91/652/359 183/653/359
f 179/654/360 180/655/360 181/656/360
f 190/657/361 191/658/361 99/659/361
f 180/660/362 184/661/363 97/662/364
f 184/663/365 92/664/365 97/665/365
f 94/666/366 95/667/366 185/668/366
f 56/669/367 5/670/367 145/671/368 120/672/368
f 159/673/369 176/674/369 175/675/369
f 97/676/370 43/677/371 45/678/372
f 88/679/373 168/680/373 90/681/373
f 62/682/374 96/683/374 188/684/374
f 185/685/375 62/686/375 188/687/375
f 11/688/376 135/689/377 183/690/378
f 183/691/379 91/692/380 11/693/381
f 103/694/382 104/695/382 194/696/382
f 70/697/383 162/698/383 104/699/383
f 198/700/384 196/701/385 106/702/386
f 196/703/387 103/704/387 35/705/387
f 102/706/388 44/707/388 193/708/388
f 28/709/389 124/710/389 226/711/390 225/712/390
f 108/713/391 73/714/391 208/715/391
f 204/716/392 205/717/392 206/718/392
f 110/719/393 81/720/394 80/721/395
f 66/722/396 46/723/397 2/724/398 17/725/399
f 22/726/400 141/727/401 209/728/402
f 209/729/403 109/730/404 22/731/405
f 113/732/406 213/733/406 214/734/406
f 111/735/407 68/736/408 16/737/409
f 16/738/410 143/739/410 211/740/410
f 41/741/411 134/742/412 99/743/413 83/744/414
f 60/745/415 149/746/416 139/747/417
f 52/748/418 50/749/419 148/750/420
f 50/751/421 117/752/421 219/753/421
f 233/754/422 123/755/422 57/756/422
f 122/757/423 230/758/423 226/759/423
f 121/760/424 231/761/425 74/762/426
f 231/763/427 229/764/427 74/765/428
f 42/766/429 43/767/429 92/768/429
f 179/769/430 93/770/430 184/771/431 180/772/431
f 155/773/432 28/774/433 225/775/434
f 28/776/435 26/777/436 124/778/437
f 26/779/438 147/780/439 232/781/440
f 131/782/441 146/783/441 147/784/441
f 155/785/442 156/786/442 154/787/442
f 158/788/443 157/789/443 131/790/443
f 164/791/444 165/792/444 131/793/444
f 164/794/445 167/795/445 166/796/445
f 154/797/446 76/798/447 77/799/448
f 170/800/449 169/801/449 191/802/449
f 127/803/450 128/804/450 195/805/450
f 50/806/451 52/807/452 51/808/451 48/809/453
f 205/810/454 150/811/454 151/812/454
f 143/813/455 142/814/455 212/815/455
f 213/816/456 136/817/456 137/818/456
f 35/819/457 37/820/458 106/821/459 196/822/460
f 165/823/461 166/824/462 54/825/463 55/826/464
f 228/827/465 145/828/465 144/829/465
f 192/830/466 98/831/466 99/832/466
f 63/833/467 11/834/468 91/835/469 62/836/470
f 191/837/471 190/838/472 64/839/473
f 134/840/474 192/841/474 99/842/474
f 179/843/475 168/844/475 88/845/476 93/846/476
f 193/847/477 163/848/478 100/849/479
f 33/850/480 19/851/481 27/852/482 18/853/483
f 123/854/484 124/855/484 232/856/484
f 221/857/485 77/858/485 76/859/485
f 121/860/486 230/861/486 122/862/486
f 207/863/487 173/864/488 80/865/489 203/866/490
f 106/867/491 152/868/491 201/869/492 199/870/493
f 34/871/494 113/872/495 150/873/496 36/874/496
f 152/875/497 153/876/497 201/877/497
f 65/878/498 98/879/499 133/880/498 10/881/498
f 160/882/500 163/883/500 162/884/501 161/885/502
f 37/886/503 202/887/503 152/888/504 106/889/504
f 117/890/505 218/891/505 116/892/505
f 202/893/506 153/894/506 152/895/506
f 175/896/507 187/897/507 94/898/508 159/899/509
f 128/900/510 8/901/511 30/902/510 20/903/512
f 215/904/513 151/905/513 150/906/513
f 66/907/514 17/908/515 16/909/516 68/910/516
f 42/911/517 92/912/517 158/913/517
f 108/914/518 208/915/518 109/916/518
f 92/917/519 184/918/519 93/919/519
f 173/920/520 172/921/520 210/922/520
f 225/923/521 226/924/521 227/925/521
f 72/926/522 196/927/522 198/928/522
f 193/929/523 127/930/524 163/931/525
f 226/932/526 124/933/526 233/934/526
f 177/935/527 178/936/527 175/937/527
f 77/938/528 224/939/528 223/940/528
f 122/941/529 231/942/529 121/943/529
f 202/944/530 107/945/530 203/946/530
f 139/947/531 138/948/531 218/949/531
f 215/950/532 113/951/532 112/952/532
f 174/953/533 221/954/533 220/955/533
f 132/956/534 9/957/535 42/958/536 158/959/536
f 36/960/537 107/961/538 202/962/539 37/963/540
f 138/964/541 139/965/541 149/966/541
f 44/967/542 8/968/543 128/969/544 193/970/545
f 88/971/546 157/972/546 158/973/547 93/974/547
f 121/975/548 74/976/549 75/977/550 225/978/551
f 140/979/552 209/980/552 141/981/552
f 35/982/553 195/983/554 128/984/553 20/985/553
f 161/986/555 126/987/555 125/988/556 160/989/556
f 109/990/557 209/991/557 108/992/557
f 147/993/558 146/994/558 232/995/558
f 29/996/559 154/997/559 223/998/560 222/999/560
f 116/1000/561 219/1001/561 117/1002/561
f 61/1003/562 60/1004/563 139/1005/564 48/1006/565
f 123/1007/566 146/1008/567 55/1009/568 57/1010/569
f 51/1011/570 52/1012/571 53/1013/572 6/1014/573
f 154/1015/574 156/1016/575 75/1017/576 76/1018/577
f 82/1019/578 169/1020/579 176/1021/580 159/1022/581
f 62/1023/582 91/1024/582 168/1025/583 96/1026/583
f 163/1027/584 127/1028/584 162/1029/584
f 18/1030/585 149/1031/586 31/1032/587 33/1033/588
f 186/1034/589 188/1035/590 97/1036/591 45/1037/592
f 222/1038/593 224/1039/593 174/1040/593 52/1041/593
f 3/1042/594 7/1043/594 53/1044/595 118/1045/596
f 69/1046/597 206/1047/597 205/1048/598 151/1049/598
f 101/1050/599 45/1051/599 44/1052/599
f 58/1053/600 47/1054/601 137/1055/602 216/1056/603
f 97/1057/604 96/1058/604 189/1059/604
f 35/1060/605 20/1061/606 34/1062/607 36/1063/608
f 136/1064/609 216/1065/609 137/1066/609
f 73/1067/610 71/1068/611 70/1069/612 72/1070/613
f 23/1071/614 81/1072/615 110/1073/614 212/1074/614
f 127/1075/616 194/1076/616 104/1077/617 162/1078/617
f 76/1079/618 25/1080/619 24/1081/620 221/1082/620
f 181/1083/621 97/1084/621 189/1085/621
f 150/1086/622 205/1087/623 107/1088/624 36/1089/625
f 15/1090/626 73/1091/627 108/1092/628
f 221/1093/629 174/1094/629 77/1095/629
f 49/1096/630 1/1097/631 12/1098/631 61/1099/632
f 172/1100/633 206/1101/634 69/1102/635 68/1103/636
f 59/1104/637 58/1105/638 60/1106/639 61/1107/640
f 181/1108/641 180/1109/642 97/1110/643
f 84/1111/644 82/1112/645 101/1113/646 100/1114/647
