# Blender v3.0.0 OBJ File: 'aa.blend'
# www.blender.org
mtllib Bones_Skull.mtl
o Bones_Skull
v -0.016947 -0.001702 0.160402
v -0.018876 0.021263 0.157859
v -0.014186 -0.002929 0.151410
v -0.015463 0.019745 0.146741
v -0.003386 -0.001144 0.164489
v -0.002110 0.021952 0.162912
v -0.000626 -0.002371 0.155497
v 0.001304 0.020435 0.151794
v -0.031079 0.000590 0.149464
v -0.032966 0.023461 0.146237
v -0.025730 -0.000371 0.142426
v -0.026352 0.022274 0.137535
v -0.020465 0.001670 0.157382
v -0.019843 0.024797 0.156027
v -0.015117 0.000710 0.150344
v -0.013230 0.023610 0.147325
v -0.032750 -0.000245 0.132452
v -0.034041 0.022478 0.128141
v -0.024679 -0.000504 0.130557
v -0.024062 0.022158 0.125797
v -0.029892 0.001385 0.144400
v -0.030508 0.024494 0.142914
v -0.021821 0.001126 0.142505
v -0.020529 0.024174 0.140570
v -0.036330 -0.002716 0.114346
v -0.037622 0.020007 0.110035
v -0.028259 -0.002975 0.112451
v -0.027643 0.019688 0.107692
v -0.033472 -0.001086 0.126294
v -0.034089 0.022023 0.124808
v -0.025402 -0.001344 0.124399
v -0.024110 0.021703 0.122465
v 0.016947 -0.001702 0.160402
v 0.018876 0.021263 0.157859
v 0.014186 -0.002929 0.151410
v 0.015463 0.019745 0.146741
v 0.003386 -0.001144 0.164489
v 0.002110 0.021952 0.162912
v 0.000626 -0.002371 0.155497
v -0.001304 0.020435 0.151794
v 0.031079 0.000590 0.149464
v 0.032966 0.023461 0.146237
v 0.025730 -0.000371 0.142426
v 0.026352 0.022274 0.137535
v 0.020465 0.001670 0.157382
v 0.019843 0.024797 0.156027
v 0.015117 0.000710 0.150344
v 0.013230 0.023610 0.147325
v 0.031770 -0.000245 0.132452
v 0.033062 0.022478 0.128141
v 0.023699 -0.000504 0.130557
v 0.023083 0.022158 0.125797
v 0.028912 0.001385 0.144400
v 0.029528 0.024494 0.142914
v 0.020841 0.001126 0.142505
v 0.019549 0.024174 0.140570
v 0.035351 -0.002716 0.114346
v 0.036643 0.020007 0.110035
v 0.027280 -0.002975 0.112451
v 0.026664 0.019688 0.107692
v 0.032493 -0.001086 0.126294
v 0.033109 0.022023 0.124808
v 0.024422 -0.001344 0.124399
v 0.023130 0.021703 0.122465
v 0.025145 0.117853 0.139889
v 0.026871 0.090511 0.141523
v 0.071587 0.070504 0.117961
v 0.082373 0.100924 0.109284
v 0.007771 0.083284 0.167038
v 0.019616 0.048386 0.159725
v 0.013324 0.035437 0.161381
v 0.079028 0.121968 0.115629
v 0.069820 0.033202 0.119600
v 0.085372 0.050729 0.118706
v 0.016775 0.063219 0.161141
v 0.090950 0.086270 0.109134
v 0.096413 0.097279 0.093157
v 0.016786 0.028425 0.161400
v 0.032295 0.031241 0.159785
v 0.072327 0.167411 0.106591
v 0.035826 0.172789 0.126576
v 0.029224 0.050910 0.156812
v 0.060622 0.091197 0.082974
v 0.054970 0.075680 0.089930
v 0.028406 0.087453 0.101580
v 0.028361 0.103971 0.100195
v 0.011154 0.105619 0.154284
v 0.048629 0.072539 0.133068
v 0.046707 0.048533 0.133150
v 0.040903 0.076977 0.097975
v 0.082152 0.128660 0.098652
v 0.077248 0.215896 0.030121
v 0.092212 0.190049 0.031018
v 0.039916 0.233107 0.030327
v 0.112343 0.038288 -0.009066
v 0.099596 0.015963 -0.003783
v 0.080249 0.006701 -0.042686
v 0.110391 0.034507 -0.031180
v 0.047381 0.006276 -0.039077
v 0.040828 0.229408 -0.029692
v 0.045502 0.198160 -0.088948
v 0.045390 0.093971 -0.134175
v 0.082803 0.184578 -0.074752
v 0.078696 0.211839 -0.020078
v 0.097882 0.184696 -0.016418
v 0.106828 0.170510 -0.060589
v 0.101058 0.080334 0.000507
v 0.114577 0.075087 -0.050889
v 0.020683 0.016812 -0.104163
v 0.046075 0.149837 -0.123559
v 0.086354 0.144208 -0.106428
v 0.102156 0.076027 0.092800
v 0.072408 0.036216 0.096237
v 0.088501 0.036651 0.097948
v 0.044140 0.039560 -0.117602
v 0.096496 0.010307 -0.039592
v 0.027463 0.006933 -0.033372
v 0.091593 0.074214 0.090643
v 0.077163 0.032157 0.043366
v 0.077221 0.086350 0.098929
v 0.011665 0.049329 0.105865
v 0.015969 0.034588 0.104980
v 0.011531 0.034919 0.145437
v 0.042390 0.033043 0.142000
v 0.032458 0.072917 0.148800
v 0.031204 0.012413 0.149853
v 0.013675 0.121044 0.146287
v 0.061449 0.033637 0.006935
v 0.058233 0.027387 0.002275
v 0.019449 0.034497 -0.006479
v 0.018263 0.029842 -0.031067
v 0.040279 0.019465 0.041436
v 0.016512 0.046705 0.067935
v 0.018448 0.035746 0.072859
v 0.010024 0.032546 0.074023
v 0.004067 0.048396 0.066896
v 0.005423 0.057426 0.106718
v 0.057425 0.118657 0.124462
v 0.046412 0.105037 0.092582
v 0.063258 0.021689 -0.091485
v 0.068049 0.066127 -0.122620
v 0.074431 0.035849 0.065015
v 0.047056 0.013397 -0.010026
v 0.003418 0.058091 0.106499
v 0.001449 0.076832 0.151753
v 0.004566 0.033885 0.104678
v 0.088594 0.040893 0.014143
v 0.035721 0.129612 0.138680
v 0.088779 0.116924 0.067627
v 0.036186 0.020826 0.068912
v 0.084695 0.065083 0.072771
v 0.099027 0.109688 0.019709
v 0.094443 0.060540 0.037580
v 0.058608 0.080871 0.085260
v 0.086128 0.075282 0.116021
v 0.099269 0.058621 0.104552
v 0.039959 0.216145 0.091938
v 0.076921 0.202168 0.080055
v 0.086957 0.183465 0.067999
v 0.028377 0.017030 0.002641
v 0.037794 0.008264 0.106084
v 0.095188 0.137964 0.040225
v 0.102587 0.131931 -0.008397
v 0.113681 0.122766 -0.059622
v 0.069030 0.122177 -0.122260
v 0.084370 0.143993 0.086844
v 0.056972 0.002582 -0.058971
v 0.102468 0.072465 -0.093932
v 0.095510 0.027335 -0.069793
v 0.102033 0.119667 -0.098394
v 0.078481 0.017921 -0.002856
v 0.059863 0.019746 0.017271
v -0.025145 0.117853 0.139889
v -0.026871 0.090511 0.141523
v -0.071587 0.070504 0.117961
v -0.082373 0.100924 0.109284
v -0.007771 0.083284 0.167038
v -0.019616 0.048386 0.159725
v -0.013324 0.035437 0.161381
v -0.079028 0.121968 0.115629
v -0.069820 0.033202 0.119600
v -0.085372 0.050729 0.118706
v -0.016775 0.063219 0.161141
v -0.090950 0.086270 0.109134
v -0.096413 0.097279 0.093157
v -0.016786 0.028425 0.161400
v -0.032295 0.031241 0.159785
v -0.072327 0.167411 0.106591
v -0.035826 0.172789 0.126576
v -0.029224 0.050910 0.156812
v -0.060622 0.091197 0.082974
v -0.054970 0.075680 0.089930
v -0.028406 0.087453 0.101580
v -0.028361 0.103971 0.100195
v -0.011154 0.105619 0.154284
v -0.048629 0.072539 0.133068
v -0.046707 0.048533 0.133150
v -0.040903 0.076977 0.097975
v -0.082152 0.128660 0.098652
v -0.077248 0.215896 0.030121
v -0.092212 0.190049 0.031018
v -0.039916 0.233107 0.030327
v -0.112343 0.038288 -0.009066
v -0.099596 0.015963 -0.003783
v -0.080249 0.006701 -0.042686
v -0.110391 0.034507 -0.031180
v 0.000000 0.019123 0.016236
v -0.047381 0.006276 -0.039077
v -0.040828 0.229408 -0.029692
v -0.045502 0.198160 -0.088948
v -0.045390 0.093971 -0.134175
v -0.082803 0.184578 -0.074752
v -0.078696 0.211839 -0.020078
v -0.097882 0.184696 -0.016418
v -0.106828 0.170510 -0.060589
v -0.101058 0.080334 0.000507
v -0.114577 0.075087 -0.050889
v -0.020683 0.016812 -0.104163
v -0.046075 0.149837 -0.123559
v -0.086354 0.144208 -0.106428
v -0.102156 0.076027 0.092800
v -0.072408 0.036216 0.096237
v -0.088501 0.036651 0.097948
v -0.044140 0.039560 -0.117602
v -0.096496 0.010307 -0.039592
v -0.027463 0.006933 -0.033372
v -0.091593 0.074214 0.090643
v -0.077163 0.032157 0.043366
v -0.077221 0.086350 0.098929
v -0.011665 0.049329 0.105865
v -0.015969 0.034588 0.104980
v -0.011531 0.034919 0.145437
v -0.042390 0.033043 0.142000
v -0.032458 0.072917 0.148800
v -0.031204 0.012413 0.149853
v -0.013675 0.121044 0.146287
v -0.061449 0.033637 0.006935
v -0.058233 0.027387 0.002275
v -0.019449 0.034497 -0.006479
v 0.000000 0.034608 0.004226
v -0.018263 0.029842 -0.031067
v -0.040279 0.019465 0.041436
v 0.000000 0.021114 0.034942
v -0.016512 0.046705 0.067935
v -0.018448 0.035746 0.072859
v -0.010024 0.032546 0.074023
v -0.004067 0.048396 0.066896
v -0.005423 0.057426 0.106718
v -0.057425 0.118657 0.124462
v -0.046412 0.105037 0.092582
v -0.063258 0.021689 -0.091485
v -0.068049 0.066127 -0.122620
v -0.074431 0.035849 0.065015
v -0.047056 0.013397 -0.010026
v -0.003418 0.058091 0.106499
v -0.001449 0.076832 0.151753
v -0.004566 0.033885 0.104678
v -0.088594 0.040893 0.014143
v -0.035721 0.129612 0.138680
v -0.088779 0.116924 0.067627
v -0.036186 0.020826 0.068912
v -0.084695 0.065083 0.072771
v -0.099027 0.109688 0.019709
v -0.094443 0.060540 0.037580
v -0.058608 0.080871 0.085260
v -0.086128 0.075282 0.116021
v -0.099269 0.058621 0.104552
v -0.039959 0.216145 0.091938
v -0.076921 0.202168 0.080055
v -0.086957 0.183465 0.067999
v -0.028377 0.017030 0.002641
v -0.037794 0.008264 0.106084
v -0.095188 0.137964 0.040225
v -0.102587 0.131931 -0.008397
v -0.113681 0.122766 -0.059622
v -0.069030 0.122177 -0.122260
v -0.084370 0.143993 0.086844
v -0.056972 0.002582 -0.058971
v -0.102468 0.072465 -0.093932
v -0.095510 0.027335 -0.069793
v -0.102033 0.119667 -0.098394
v -0.078481 0.017921 -0.002856
v -0.059863 0.019746 0.017271
v 0.000000 0.038821 0.168552
v 0.000000 0.012222 0.173021
v 0.000000 0.175596 0.135097
v 0.000000 0.096325 0.163130
v 0.000000 0.200680 -0.095408
v 0.000000 0.092508 -0.140186
v 0.000000 -0.000425 -0.083096
v 0.000000 0.239279 0.029406
v 0.000000 0.233474 -0.032562
v 0.000000 0.150822 -0.128139
v 0.000000 0.035470 -0.125918
v 0.000000 0.024960 0.148741
v 0.000000 0.002172 -0.060448
v 0.000000 0.004684 -0.047725
v 0.000000 0.028498 0.119260
v 0.000000 0.122487 0.148466
v 0.000000 0.024439 -0.040383
v 0.000000 0.025374 0.070361
v 0.000000 0.084772 0.167547
v 0.000000 0.217962 0.095418
v 0.000000 0.026331 0.092192
vt 0.924927 0.057924
vt 0.902542 0.032394
vt 0.924927 0.003943
vt 0.466789 0.753417
vt 0.466789 0.809881
vt 0.430892 0.785838
vt 0.436650 0.743429
vt 0.975540 0.187457
vt 0.975540 0.215414
vt 0.953557 0.216455
vt 0.961300 0.189444
vt 0.021969 0.794544
vt 0.004995 0.746959
vt 0.052427 0.748309
vt 0.052427 0.797609
vt 0.511057 0.896572
vt 0.477436 0.889115
vt 0.482560 0.860117
vt 0.511057 0.853419
vt 0.547331 0.817448
vt 0.569903 0.818078
vt 0.569903 0.863905
vt 0.531650 0.865229
vt 0.880970 0.424110
vt 0.880970 0.499739
vt 0.859605 0.499727
vt 0.337314 0.644639
vt 0.323078 0.597179
vt 0.337314 0.586396
vt 0.175973 0.742566
vt 0.175973 0.791380
vt 0.125967 0.789851
vt 0.175973 0.736659
vt 0.135809 0.726210
vt 0.143382 0.674077
vt 0.175973 0.664729
vt 0.413297 0.537162
vt 0.413297 0.599444
vt 0.355019 0.599862
vt 0.344349 0.535721
vt 0.974417 0.415123
vt 0.955917 0.387899
vt 0.974417 0.375116
vt 0.791884 0.294969
vt 0.822620 0.294538
vt 0.822620 0.348782
vt 0.784106 0.351767
vt 0.349340 0.608017
vt 0.390779 0.605769
vt 0.390779 0.675748
vt 0.344349 0.674599
vt 0.942892 0.969682
vt 0.910778 0.967500
vt 0.910778 0.949047
vt 0.942892 0.946866
vt 0.778077 0.505671
vt 0.744264 0.467023
vt 0.778077 0.430016
vt 0.113800 0.329312
vt 0.108380 0.255338
vt 0.181136 0.255422
vt 0.181136 0.329323
vt 0.958593 0.643081
vt 0.955089 0.599935
vt 0.970928 0.600975
vt 0.970928 0.645752
vt 0.188750 0.341272
vt 0.187709 0.262259
vt 0.251336 0.262318
vt 0.251336 0.343982
vt 0.396804 0.529813
vt 0.344349 0.521544
vt 0.352166 0.459968
vt 0.396804 0.443779
vt 0.586279 0.261440
vt 0.581500 0.186674
vt 0.635078 0.215536
vt 0.635078 0.262049
vt 0.361900 0.870827
vt 0.361900 0.919307
vt 0.336233 0.917752
vt 0.336401 0.886872
vt 0.483392 0.845727
vt 0.477436 0.813707
vt 0.516841 0.796811
vt 0.516841 0.847512
vt 0.061443 0.721298
vt 0.106898 0.714715
vt 0.106898 0.772241
vt 0.062682 0.762825
vt 0.436327 0.349404
vt 0.410629 0.287522
vt 0.489344 0.288223
vt 0.489344 0.330182
vt 0.216399 0.942712
vt 0.189162 0.920563
vt 0.216399 0.902704
vt 0.984075 0.467725
vt 0.968061 0.449337
vt 0.984075 0.438499
vt 0.107419 0.778148
vt 0.107419 0.829257
vt 0.061443 0.820265
vt 0.064585 0.789687
vt 0.665203 0.890643
vt 0.660078 0.861644
vt 0.693699 0.854188
vt 0.693699 0.897340
vt 0.670512 0.795482
vt 0.693699 0.796117
vt 0.693699 0.846405
vt 0.652824 0.848280
vt 0.061443 0.840733
vt 0.118699 0.835165
vt 0.118699 0.864646
vt 0.068181 0.863259
vt 0.461322 0.132419
vt 0.402869 0.153714
vt 0.404344 0.081989
vt 0.461322 0.069491
vt 0.769695 0.006620
vt 0.769695 0.064146
vt 0.724240 0.057562
vt 0.725480 0.016035
vt 0.969961 0.770331
vt 0.969961 0.824926
vt 0.957658 0.796362
vt 0.466789 0.737522
vt 0.410724 0.728968
vt 0.416169 0.690725
vt 0.466789 0.687972
vt 0.677709 0.391817
vt 0.722918 0.382004
vt 0.722918 0.424109
vt 0.752260 0.150717
vt 0.718714 0.113699
vt 0.752260 0.071730
vt 0.894330 0.678390
vt 0.894330 0.730353
vt 0.861819 0.718996
vt 0.864877 0.684335
vt 0.181136 0.075837
vt 0.181136 0.150252
vt 0.116495 0.138941
vt 0.107307 0.072568
vt 0.027915 0.931757
vt 0.012361 0.896955
vt 0.046528 0.904931
vt 0.046528 0.929315
vt 0.557522 0.735714
vt 0.535277 0.681526
vt 0.584750 0.686314
vt 0.584750 0.736836
vt 0.544237 0.872692
vt 0.569903 0.871136
vt 0.569903 0.919616
vt 0.544404 0.903571
vt 0.619741 0.433079
vt 0.653355 0.430016
vt 0.653355 0.487465
vt 0.593428 0.495875
vt 0.778028 0.604665
vt 0.752060 0.531503
vt 0.778028 0.513454
vt 0.980550 0.105006
vt 0.966769 0.085830
vt 0.980550 0.068974
vt 0.709711 0.716439
vt 0.742346 0.678390
vt 0.742346 0.757410
vt 0.913510 0.284727
vt 0.897076 0.230638
vt 0.913510 0.206149
vt 0.594464 0.004076
vt 0.594464 0.065822
vt 0.561694 0.055454
vt 0.535817 0.013623
vt 0.839623 0.748551
vt 0.839623 0.764424
vt 0.783283 0.753187
vt 0.793499 0.878066
vt 0.793499 0.936036
vt 0.780716 0.884359
vt 0.544689 0.167592
vt 0.467230 0.172797
vt 0.469075 0.151809
vt 0.544689 0.153344
vt 0.112148 0.478011
vt 0.112148 0.555564
vt 0.071542 0.531931
vt 0.087919 0.461225
vt 0.283557 0.649192
vt 0.257243 0.586396
vt 0.317170 0.594805
vt 0.317170 0.652254
vt 0.037452 0.937664
vt 0.037452 0.968245
vt 0.012361 0.955825
vt 0.189162 0.691583
vt 0.189808 0.631095
vt 0.229172 0.602251
vt 0.229172 0.675164
vt 0.499964 0.292767
vt 0.550991 0.287522
vt 0.550991 0.368144
vt 0.495252 0.369913
vt 0.875666 0.906189
vt 0.875666 0.939686
vt 0.855099 0.933667
vt 0.846418 0.901309
vt 0.513945 0.185534
vt 0.513945 0.269064
vt 0.455477 0.258036
vt 0.456905 0.188072
vt 0.454423 0.916110
vt 0.454423 0.953572
vt 0.428115 0.928705
vt 0.073154 0.278818
vt 0.101022 0.243180
vt 0.101022 0.310380
vt 0.958463 0.272067
vt 0.941739 0.236703
vt 0.958463 0.222362
vt 0.682486 0.128113
vt 0.658434 0.071730
vt 0.712807 0.076048
vt 0.712807 0.126743
vt 0.194606 0.744288
vt 0.189162 0.706044
vt 0.245226 0.697491
vt 0.245226 0.747041
vt 0.053409 0.617469
vt 0.053409 0.679834
vt 0.002954 0.643365
vt 0.071542 0.575504
vt 0.115816 0.561471
vt 0.115816 0.646517
vt 0.072768 0.641115
vt 0.962794 0.286701
vt 0.962794 0.348694
vt 0.951172 0.291621
vt 0.595075 0.851179
vt 0.627887 0.850219
vt 0.627887 0.899769
vt 0.935832 0.222362
vt 0.935832 0.284727
vt 0.919418 0.278648
vt 0.901358 0.593905
vt 0.901358 0.656631
vt 0.878653 0.603527
vt 0.182110 0.857440
vt 0.182110 0.919432
vt 0.165319 0.917502
vt 0.590658 0.602348
vt 0.593592 0.602037
vt 0.593592 0.670371
vt 0.697924 0.672482
vt 0.665228 0.663511
vt 0.652824 0.603930
vt 0.697924 0.611412
vt 0.927652 0.325051
vt 0.945264 0.293136
vt 0.945264 0.348694
vt 0.938299 0.424110
vt 0.938299 0.466985
vt 0.912818 0.466183
vt 0.896635 0.063573
vt 0.869835 0.016214
vt 0.896635 0.003943
vt 0.396804 0.355311
vt 0.396804 0.437872
vt 0.335907 0.430913
vt 0.338399 0.359515
vt 0.251336 0.438646
vt 0.194566 0.432542
vt 0.195035 0.360614
vt 0.251336 0.349889
vt 0.595681 0.720409
vt 0.595075 0.680545
vt 0.646917 0.679817
vt 0.646917 0.734368
vt 0.454120 0.003365
vt 0.495237 0.006550
vt 0.495237 0.053288
vt 0.434162 0.062373
vt 0.065127 0.609398
vt 0.002954 0.611562
vt 0.008741 0.544475
vt 0.065127 0.543543
vt 0.783935 0.524055
vt 0.820130 0.513454
vt 0.820130 0.574753
vt 0.502633 0.044884
vt 0.501144 0.003365
vt 0.529017 0.010584
vt 0.529017 0.062547
vt 0.851598 0.268422
vt 0.891168 0.246562
vt 0.891168 0.284727
vt 0.181158 0.970116
vt 0.165319 0.971156
vt 0.168823 0.928010
vt 0.181158 0.925340
vt 0.868665 0.945594
vt 0.868665 0.978431
vt 0.846418 0.957106
vt 0.610478 0.341051
vt 0.556899 0.369913
vt 0.561678 0.295146
vt 0.610478 0.294538
vt 0.886877 0.481962
vt 0.894286 0.424110
vt 0.906910 0.432546
vt 0.906910 0.492176
vt 0.827486 0.062680
vt 0.827854 0.031404
vt 0.863928 0.013036
vt 0.863928 0.063573
vt 0.332099 0.550337
vt 0.338061 0.516347
vt 0.338061 0.568732
vt 0.968702 0.305303
vt 0.980992 0.286701
vt 0.980992 0.322986
vt 0.866149 0.128329
vt 0.840863 0.124918
vt 0.834063 0.082167
vt 0.866149 0.071693
vt 0.817488 0.770331
vt 0.840511 0.770495
vt 0.840511 0.826177
vt 0.802399 0.826931
vt 0.247183 0.679803
vt 0.235079 0.632859
vt 0.247183 0.602251
vt 0.475252 0.355311
vt 0.475252 0.424109
vt 0.403975 0.408751
vt 0.402712 0.357658
vt 0.110218 0.002954
vt 0.193748 0.003089
vt 0.193748 0.059203
vt 0.107307 0.060007
vt 0.237975 0.752948
vt 0.237975 0.801751
vt 0.189162 0.753270
vt 0.819922 0.491310
vt 0.783984 0.464717
vt 0.819922 0.430016
vt 0.328103 0.707454
vt 0.328103 0.753717
vt 0.271468 0.728709
vt 0.748254 0.846854
vt 0.785754 0.825312
vt 0.785754 0.872159
vt 0.319944 0.385053
vt 0.329999 0.353894
vt 0.329999 0.422857
vt 0.937882 0.802682
vt 0.951750 0.770331
vt 0.951750 0.828655
vt 0.460331 0.873298
vt 0.468918 0.866403
vt 0.468918 0.888176
vt 0.383662 0.875240
vt 0.410262 0.869476
vt 0.410262 0.913276
vt 0.381117 0.905970
vt 0.381117 0.940942
vt 0.382864 0.921806
vt 0.413726 0.919183
vt 0.413726 0.948627
vt 0.109273 0.959211
vt 0.093659 0.930502
vt 0.109273 0.909911
vt 0.981634 0.584721
vt 0.967013 0.581587
vt 0.981634 0.552041
vt 0.404721 0.348418
vt 0.335907 0.349404
vt 0.337977 0.275852
vt 0.404721 0.274002
vt 0.276541 0.902857
vt 0.300816 0.863988
vt 0.311587 0.865878
vt 0.311587 0.898844
vt 0.640986 0.186674
vt 0.680996 0.203093
vt 0.680996 0.276007
vt 0.641632 0.247162
vt 0.997046 0.924877
vt 0.976931 0.924150
vt 0.997046 0.902581
vt 0.361900 0.933755
vt 0.361900 0.957369
vt 0.338516 0.954082
vt 0.333949 0.925215
vt 0.652527 0.147795
vt 0.601239 0.146924
vt 0.601759 0.084644
vt 0.652527 0.071730
vt 0.883888 0.240654
vt 0.851598 0.220464
vt 0.883888 0.186674
vt 0.004216 0.401877
vt 0.075494 0.386520
vt 0.075494 0.455318
vt 0.002954 0.452971
vt 0.052427 0.803516
vt 0.052427 0.851690
vt 0.012361 0.809294
vt 0.855911 0.741679
vt 0.825385 0.729368
vt 0.855911 0.678390
vt 0.101399 0.065073
vt 0.002954 0.066661
vt 0.008262 0.002954
vt 0.101399 0.007946
vt 0.267914 0.516347
vt 0.326192 0.516765
vt 0.326192 0.579047
vt 0.257243 0.580488
vt 0.904870 0.903068
vt 0.892246 0.911505
vt 0.884837 0.853653
vt 0.904870 0.843439
vt 0.777376 0.678390
vt 0.777376 0.764424
vt 0.748254 0.690817
vt 0.931974 0.817314
vt 0.906210 0.778588
vt 0.931974 0.770331
vt 0.466789 0.860496
vt 0.425278 0.854376
vt 0.466789 0.815788
vt 0.930835 0.028917
vt 0.952008 0.003943
vt 0.952008 0.051395
vt 0.167693 0.810027
vt 0.180425 0.797287
vt 0.180425 0.851259
vt 0.525115 0.739552
vt 0.525115 0.790904
vt 0.477436 0.751162
vt 0.809232 0.966220
vt 0.839693 0.963506
vt 0.839693 0.978689
vt 0.872182 0.770331
vt 0.872182 0.837531
vt 0.846418 0.798488
vt 0.576798 0.810613
vt 0.584751 0.742743
vt 0.584751 0.833955
vt 0.110214 0.437050
vt 0.116775 0.416539
vt 0.116775 0.445707
vt 0.977504 0.667950
vt 0.945338 0.666393
vt 0.945339 0.653217
vt 0.977504 0.651659
vt 0.991162 0.409625
vt 0.980325 0.394297
vt 0.991162 0.375116
vt 0.913510 0.185864
vt 0.913510 0.200242
vt 0.892457 0.186670
vt 0.920056 0.513454
vt 0.920056 0.570064
vt 0.898469 0.553753
vt 0.571775 0.925523
vt 0.571775 0.956864
vt 0.544237 0.926600
vt 0.511057 0.930436
vt 0.470106 0.928533
vt 0.482818 0.906435
vt 0.511057 0.902479
vt 0.796492 0.819404
vt 0.748254 0.810299
vt 0.796492 0.770331
vt 0.390779 0.681656
vt 0.390779 0.733502
vt 0.350911 0.733457
vt 0.336233 0.682422
vt 0.907266 0.602779
vt 0.929039 0.593905
vt 0.929039 0.645752
vt 0.369672 0.812165
vt 0.336233 0.774953
vt 0.369672 0.739410
vt 0.744727 0.599822
vt 0.708690 0.561808
vt 0.744727 0.521957
vt 0.976858 0.037897
vt 0.957915 0.015146
vt 0.976858 0.003943
vt 0.061443 0.870754
vt 0.099719 0.870554
vt 0.099719 0.904003
vt 0.065487 0.645568
vt 0.059317 0.626409
vt 0.065487 0.617469
vt 0.783935 0.604573
vt 0.790674 0.582048
vt 0.841191 0.580660
vt 0.841191 0.610141
vt 0.257243 0.667259
vt 0.328103 0.658162
vt 0.328103 0.701546
vt 0.654171 0.922088
vt 0.654171 0.957286
vt 0.627321 0.944704
vt 0.659263 0.469168
vt 0.696412 0.430016
vt 0.696412 0.509175
vt 0.774808 0.923995
vt 0.748254 0.907804
vt 0.774808 0.878066
vt 0.882587 0.966316
vt 0.904870 0.958594
vt 0.904870 0.986591
vt 0.319138 0.157825
vt 0.375258 0.144180
vt 0.375258 0.180465
vt 0.947650 0.187940
vt 0.947650 0.216455
vt 0.919418 0.207544
vt 0.311587 0.953761
vt 0.289944 0.930703
vt 0.311587 0.908765
vt 0.966769 0.123673
vt 0.986603 0.110913
vt 0.986603 0.136755
vt 0.945427 0.502336
vt 0.914564 0.499713
vt 0.912818 0.480577
vt 0.945427 0.472892
vt 0.989653 0.803157
vt 0.975869 0.781686
vt 0.989653 0.770331
vt 0.091566 0.318339
vt 0.102385 0.316287
vt 0.102385 0.380125
vt 0.292004 0.027408
vt 0.361403 0.002954
vt 0.361403 0.055634
vt 0.231433 0.807658
vt 0.231433 0.852020
vt 0.189162 0.817752
vt 0.595075 0.809423
vt 0.636612 0.797534
vt 0.636612 0.844312
vt 0.900302 0.770331
vt 0.900302 0.835354
vt 0.878089 0.822401
vt 0.928536 0.357674
vt 0.928536 0.411654
vt 0.906151 0.383203
vt 0.739012 0.846183
vt 0.699606 0.829287
vt 0.705562 0.797267
vt 0.739012 0.795482
vt 0.694476 0.249255
vt 0.686903 0.197123
vt 0.727066 0.186674
vt 0.727066 0.258604
vt 0.652824 0.703240
vt 0.703803 0.678390
vt 0.703803 0.734854
vt 0.660510 0.728211
vt 0.052427 0.736263
vt 0.002954 0.741052
vt 0.025199 0.686864
vt 0.052427 0.685742
vt 0.575592 0.188443
vt 0.575592 0.269064
vt 0.524565 0.263820
vt 0.519853 0.186674
vt 0.872746 0.593905
vt 0.872746 0.672482
vt 0.852183 0.666685
vt 0.949182 0.587508
vt 0.949182 0.645752
vt 0.934946 0.634968
vt 0.702830 0.789575
vt 0.652824 0.742290
vt 0.702830 0.740761
vt 0.224208 0.894906
vt 0.213437 0.896797
vt 0.189162 0.857927
vt 0.224208 0.861941
vt 0.252714 0.073315
vt 0.308350 0.069491
vt 0.308350 0.165839
vt 0.252363 0.162071
vt 0.535730 0.930279
vt 0.535730 0.970286
vt 0.517231 0.957503
vt 0.179987 0.506670
vt 0.179987 0.583959
vt 0.123731 0.568736
vt 0.122683 0.507674
vt 0.313231 0.171747
vt 0.313231 0.268094
vt 0.257595 0.264271
vt 0.257243 0.175515
vt 0.187432 0.173516
vt 0.251336 0.171747
vt 0.251336 0.254307
vt 0.187043 0.256352
vt 0.766786 0.186674
vt 0.766786 0.262329
vt 0.732974 0.225323
vt 0.382764 0.268036
vt 0.319138 0.268094
vt 0.320179 0.189081
vt 0.382764 0.186372
vt 0.124158 0.488264
vt 0.122683 0.416539
vt 0.181136 0.437834
vt 0.181136 0.500762
vt 0.478938 0.958357
vt 0.478938 0.938671
vt 0.511057 0.936343
vt 0.511057 0.960685
vt 0.828527 0.358567
vt 0.864969 0.357674
vt 0.864969 0.408211
vt 0.828895 0.389843
vt 0.595331 0.145902
vt 0.537656 0.123400
vt 0.535817 0.092176
vt 0.595331 0.071730
vt 0.175973 0.658821
vt 0.133004 0.652309
vt 0.122683 0.589867
vt 0.175973 0.601494
vt 0.012142 0.153495
vt 0.076782 0.142183
vt 0.076782 0.216599
vt 0.002954 0.219867
vt 0.660659 0.294538
vt 0.660659 0.379584
vt 0.616385 0.365551
vt 0.617612 0.299940
vt 0.843080 0.288201
vt 0.812040 0.262960
vt 0.843080 0.253096
vt 0.093659 0.981499
vt 0.117864 0.965118
vt 0.117864 0.984455
vt 0.524392 0.671847
vt 0.524392 0.719330
vt 0.477436 0.733644
vt 0.478645 0.684570
vt 0.915856 0.848823
vt 0.931876 0.843439
vt 0.931876 0.896674
vt 0.910778 0.893311
vt 0.419371 0.817112
vt 0.419371 0.862939
vt 0.396799 0.863569
vt 0.381117 0.815788
vt 0.821579 0.064146
vt 0.778744 0.052607
vt 0.775603 0.022029
vt 0.821579 0.013036
vt 0.661447 0.013160
vt 0.661447 0.059898
vt 0.620329 0.063084
vt 0.600372 0.004076
vt 0.445280 0.162123
vt 0.445280 0.179626
vt 0.388672 0.177837
vt 0.388733 0.174888
vt 0.284036 0.963360
vt 0.271733 0.937329
vt 0.284036 0.908765
vt 0.601006 0.585108
vt 0.600486 0.522828
vt 0.651775 0.521957
vt 0.651775 0.598023
vt 0.790043 0.166528
vt 0.835253 0.134237
vt 0.835253 0.176341
vt 0.743169 0.294538
vt 0.743169 0.373525
vt 0.709623 0.331556
vt 0.538329 0.871136
vt 0.538329 0.924371
vt 0.522309 0.918987
vt 0.517231 0.874499
vt 0.846275 0.621560
vt 0.846275 0.671848
vt 0.823088 0.672482
vt 0.805400 0.619685
vt 0.471102 0.665940
vt 0.481424 0.603497
vt 0.524392 0.596985
vt 0.524392 0.654312
vt 0.542882 0.499862
vt 0.535065 0.438285
vt 0.587521 0.430016
vt 0.587521 0.516050
vt 0.756207 0.940543
vt 0.774808 0.929903
vt 0.774808 0.965177
vt 0.751800 0.959247
vt 0.115816 0.704489
vt 0.061443 0.708808
vt 0.085495 0.652425
vt 0.115816 0.653794
vt 0.784136 0.071730
vt 0.784136 0.162941
vt 0.758168 0.144891
vt 0.978152 0.236035
vt 0.978152 0.272067
vt 0.964371 0.255211
vt 0.083181 0.197131
vt 0.115816 0.156160
vt 0.115816 0.235180
vt 0.916672 0.678390
vt 0.916672 0.756967
vt 0.900238 0.732478
vt 0.934444 0.412019
vt 0.950010 0.357674
vt 0.950010 0.415123
vt 0.957685 0.736360
vt 0.944901 0.730067
vt 0.957685 0.678390
vt 0.053349 0.857597
vt 0.053349 0.891047
vt 0.022038 0.889702
vt 0.012361 0.858323
vt 0.382810 0.043554
vt 0.367311 0.012875
vt 0.428255 0.002954
vt 0.428255 0.062373
vt 0.877051 0.179233
vt 0.850691 0.171190
vt 0.841160 0.137424
vt 0.877051 0.134237
vt 0.971024 0.933163
vt 0.945933 0.915002
vt 0.971024 0.902581
vt 0.904870 0.917412
vt 0.904870 0.952686
vt 0.886270 0.942046
vt 0.881863 0.923343
vt 0.828155 0.072484
vt 0.828155 0.128165
vt 0.805132 0.128329
vt 0.790043 0.071730
vt 0.420574 0.543086
vt 0.461180 0.519454
vt 0.461180 0.597006
vt 0.436951 0.613792
vt 0.646917 0.603930
vt 0.646917 0.673909
vt 0.605478 0.671662
vt 0.600486 0.605079
vt 0.087752 0.947373
vt 0.061443 0.934779
vt 0.087752 0.909911
vt 0.825830 0.455673
vt 0.853698 0.424110
vt 0.853698 0.491310
vt 0.957636 0.131059
vt 0.957636 0.180764
vt 0.940911 0.166423
vt 0.892562 0.565417
vt 0.864690 0.572636
vt 0.866178 0.531117
vt 0.892562 0.513454
vt 0.011096 0.462420
vt 0.065634 0.461225
vt 0.065634 0.532965
vt 0.002954 0.537636
vt 0.461180 0.682065
vt 0.410724 0.656169
vt 0.461180 0.619700
vt 0.916675 0.080646
vt 0.939340 0.068974
vt 0.939340 0.109969
vt 0.911413 0.108671
vt 0.961105 0.575446
vt 0.949483 0.570526
vt 0.961105 0.513454
vt 0.894251 0.293136
vt 0.894251 0.351766
vt 0.866521 0.310703
vt 0.938994 0.740755
vt 0.922580 0.684468
vt 0.938994 0.678390
vt 0.905664 0.179233
vt 0.882958 0.169611
vt 0.905664 0.116506
vt 0.654171 0.916180
vt 0.637380 0.856118
vt 0.654171 0.854188
vt 0.115098 0.791045
vt 0.118032 0.723022
vt 0.118032 0.791355
vt 0.282942 0.448558
vt 0.335959 0.467780
vt 0.335959 0.509739
vt 0.257243 0.510439
vt 0.925964 0.537096
vt 0.943576 0.513454
vt 0.943576 0.569011
vt 0.116558 0.928486
vt 0.159412 0.904341
vt 0.159411 0.929835
vt 0.900244 0.412090
vt 0.870876 0.360194
vt 0.900244 0.357674
vt 0.402712 0.441044
vt 0.461180 0.430016
vt 0.461180 0.513546
vt 0.404139 0.511008
vt 0.251336 0.522417
vt 0.194709 0.520079
vt 0.189266 0.454449
vt 0.251336 0.444553
vt 0.467087 0.497984
vt 0.472531 0.432354
vt 0.529158 0.430016
vt 0.529158 0.507880
vt 0.718333 0.006620
vt 0.718333 0.063084
vt 0.667354 0.038234
vt 0.675040 0.013262
vt 0.122794 0.244416
vt 0.121724 0.159376
vt 0.181136 0.156160
vt 0.181136 0.249431
vt 0.783283 0.729087
vt 0.819478 0.678390
vt 0.819478 0.739689
vt 0.733773 0.922989
vt 0.699606 0.930965
vt 0.715160 0.896163
vt 0.733773 0.898604
vt 0.699606 0.868396
vt 0.739177 0.852090
vt 0.739177 0.890255
vt 0.963543 0.151766
vt 0.985526 0.152807
vt 0.985526 0.180764
vt 0.971285 0.178777
vt 0.802962 0.974781
vt 0.780716 0.963269
vt 0.802962 0.941944
vt 0.799493 0.671133
vt 0.752060 0.672482
vt 0.769035 0.624898
vt 0.799493 0.621833
vt 0.594579 0.521957
vt 0.594579 0.596130
vt 0.535065 0.575684
vt 0.536903 0.544460
vt 0.454423 0.866403
vt 0.454423 0.910203
vt 0.427822 0.904440
vt 0.425278 0.873709
vt 0.123940 0.683124
vt 0.129902 0.664729
vt 0.129902 0.717114
vt 0.968702 0.346576
vt 0.980992 0.328893
vt 0.980992 0.365178
vt 0.773646 0.424109
vt 0.739169 0.417602
vt 0.728826 0.392057
vt 0.773646 0.388077
vt 0.822620 0.360658
vt 0.822620 0.414903
vt 0.791884 0.414472
vt 0.784106 0.357674
vt 0.265561 0.707454
vt 0.265561 0.785006
vt 0.253457 0.754399
vt 0.468136 0.529011
vt 0.524392 0.513788
vt 0.524392 0.591077
vt 0.467087 0.590073
vt 0.428115 0.980762
vt 0.428115 0.959480
vt 0.460224 0.961514
vt 0.460224 0.978728
vt 0.535277 0.777150
vt 0.569903 0.742743
vt 0.569903 0.811541
vt 0.607198 0.424109
vt 0.557926 0.387649
vt 0.607198 0.379401
vt 0.703832 0.653796
vt 0.746153 0.610573
vt 0.746153 0.672482
vt 0.336233 0.843378
vt 0.373734 0.818073
vt 0.373734 0.864920
vt 0.576798 0.877667
vt 0.586853 0.839862
vt 0.586853 0.908826
vt 0.937882 0.860536
vt 0.951750 0.834563
vt 0.951750 0.892887
vt 0.222306 0.917582
vt 0.230894 0.902704
vt 0.230894 0.924477
vt 0.709623 0.272915
vt 0.766231 0.271127
vt 0.766231 0.288630
vt 0.709684 0.275865
vt 0.127866 0.889314
vt 0.125967 0.858032
vt 0.159411 0.857440
vt 0.159411 0.898434
vt 0.960861 0.068974
vt 0.960861 0.118274
vt 0.945248 0.097683
vt 0.981634 0.513454
vt 0.981634 0.546134
vt 0.967013 0.516588
vt 0.286097 0.003757
vt 0.286097 0.059871
vt 0.202567 0.060007
vt 0.199656 0.002954
vt 0.657682 0.590510
vt 0.670086 0.530929
vt 0.702782 0.521957
vt 0.702782 0.583028
vt 0.919459 0.908600
vt 0.940025 0.902581
vt 0.940025 0.936078
vt 0.910778 0.940958
vt 0.985874 0.736360
vt 0.963593 0.735554
vt 0.985874 0.716232
vt 0.389088 0.767472
vt 0.424985 0.743429
vt 0.424985 0.799893
vt 0.394846 0.809881
vt 0.257712 0.431926
vt 0.257243 0.359998
vt 0.314013 0.353894
vt 0.314013 0.442650
vt 0.802399 0.871865
vt 0.839693 0.832838
vt 0.839693 0.879576
vt 0.529910 0.074162
vt 0.529910 0.145902
vt 0.475372 0.144707
vt 0.467230 0.069491
vt 0.706115 0.134020
vt 0.706115 0.174501
vt 0.658434 0.140896
vt 0.671801 0.424109
vt 0.613105 0.400437
vt 0.671801 0.391194
vt 0.114392 0.408782
vt 0.112321 0.335230
vt 0.181136 0.336216
vt 0.181136 0.410632
vt 0.246455 0.165839
vt 0.187043 0.162623
vt 0.188114 0.077583
vt 0.246455 0.072568
vt 0.778199 0.380571
vt 0.749076 0.368145
vt 0.778199 0.294538
vt 0.263106 0.880766
vt 0.263106 0.927748
vt 0.237341 0.919491
vt 0.826037 0.543893
vt 0.858782 0.513454
vt 0.858782 0.570129
vt 0.660078 0.925726
vt 0.681251 0.903248
vt 0.681251 0.950700
vt 0.317494 0.905219
vt 0.330226 0.863988
vt 0.330226 0.917960
vt 0.642755 0.791627
vt 0.595075 0.780016
vt 0.642755 0.740275
vt 0.983185 0.504214
vt 0.968061 0.474980
vt 0.983185 0.473633
vt 0.263104 0.874858
vt 0.237341 0.846701
vt 0.263104 0.807658
vt 0.396687 0.629111
vt 0.404640 0.605769
vt 0.404640 0.696981
vt 0.396687 0.711545
vt 0.403248 0.702888
vt 0.403248 0.732056
vt 0.317978 0.133062
vt 0.314257 0.069545
vt 0.396962 0.069491
vt 0.396962 0.133816
vt 0.589168 0.916163
vt 0.589168 0.950672
vt 0.578330 0.931492
vt 0.106614 0.887812
vt 0.118699 0.870554
vt 0.118699 0.895602
vt 0.921745 0.349746
vt 0.900158 0.309446
vt 0.921745 0.293136
vt 0.893135 0.736260
vt 0.893135 0.763820
vt 0.861819 0.737485
vt 0.828527 0.341292
vt 0.835328 0.298541
vt 0.860614 0.295130
vt 0.860614 0.351767
vt 0.319690 0.808714
vt 0.271468 0.799612
vt 0.319690 0.759624
vt 0.388672 0.192493
vt 0.449570 0.185534
vt 0.449570 0.268094
vt 0.391165 0.263890
vt 0.935004 0.131059
vt 0.935004 0.179233
vt 0.911571 0.132984
vt 0.806132 0.186674
vt 0.806132 0.259430
vt 0.772694 0.223886
vt 0.738356 0.430016
vt 0.738356 0.507880
vt 0.702319 0.468030
vt 0.976601 0.834563
vt 0.976601 0.868516
vt 0.957658 0.857314
vt 0.905506 0.109969
vt 0.872057 0.071868
vt 0.905506 0.071693
vt 0.381750 0.739410
vt 0.381750 0.767508
vt 0.375580 0.758569
vt 0.635078 0.164984
vt 0.635078 0.179232
vt 0.559465 0.180766
vt 0.557620 0.159779
vt 0.481160 0.415011
vt 0.552019 0.380724
vt 0.552019 0.424109
vt 0.839693 0.922492
vt 0.839693 0.957598
vt 0.812772 0.945168
vt 0.666566 0.334544
vt 0.703715 0.294538
vt 0.703715 0.373696
vt 0.839693 0.916585
vt 0.800478 0.892675
vt 0.839693 0.885484
vt 0.984301 0.678390
vt 0.984301 0.708517
vt 0.963593 0.689675
vt 0.845690 0.186674
vt 0.845690 0.247188
vt 0.812040 0.233614
vt 0.265573 0.962171
vt 0.237341 0.942566
vt 0.265573 0.933656
vt 0.616718 0.905676
vt 0.616718 0.950672
vt 0.595075 0.928735
vt 0.654171 0.986777
vt 0.632438 0.977174
vt 0.654171 0.963193
vt 0.878930 0.895402
vt 0.849477 0.889457
vt 0.846418 0.854795
vt 0.878930 0.843439
vt 0.990620 0.612926
vt 0.990620 0.645752
vt 0.976836 0.634397
vt 0.951334 0.500285
vt 0.962154 0.438499
vt 0.962154 0.502336
vt 0.584750 0.675618
vt 0.535065 0.619545
vt 0.584750 0.602037
vt 0.319690 0.814621
vt 0.319690 0.858081
vt 0.276541 0.824925
vt 0.161785 0.797287
vt 0.161785 0.851532
vt 0.125967 0.821446
vt 0.103614 0.451543
vt 0.081402 0.399473
vt 0.103614 0.386520
vt 0.544237 0.979062
vt 0.544237 0.962771
vt 0.576402 0.964329
vt 0.576402 0.977505
vt 0.741829 0.787658
vt 0.709711 0.785331
vt 0.709711 0.765644
vt 0.741829 0.763317
vt 0.907266 0.667950
vt 0.907266 0.651659
vt 0.939431 0.653217
vt 0.939431 0.666393
vt 0.127293 0.935742
vt 0.159411 0.938070
vt 0.159411 0.957756
vt 0.127293 0.960083
vt 0.700079 0.284198
vt 0.686903 0.284198
vt 0.686903 0.264511
vt 0.700079 0.264511
vt 0.127257 0.965991
vt 0.159411 0.967451
vt 0.159411 0.979801
vt 0.127257 0.981261
vt 0.804808 0.288153
vt 0.772694 0.285972
vt 0.772694 0.267519
vt 0.804808 0.265337
vt 0.085658 0.380613
vt 0.002954 0.380559
vt 0.006674 0.317042
vt 0.085658 0.316287
vt 0.221276 0.950801
vt 0.221276 0.969254
vt 0.189162 0.971435
vt 0.189162 0.948619
vt 0.652506 0.163553
vt 0.652506 0.180766
vt 0.640986 0.180766
vt 0.640986 0.163553
vt 0.731725 0.968581
vt 0.731725 0.980931
vt 0.699570 0.982391
vt 0.699570 0.967121
vt 0.977011 0.742267
vt 0.977011 0.763550
vt 0.944901 0.761515
vt 0.944901 0.744302
vt 0.012361 0.974153
vt 0.044506 0.975515
vt 0.044506 0.987035
vt 0.012361 0.988397
vt 0.948799 0.946866
vt 0.980909 0.948901
vt 0.980909 0.966114
vt 0.948799 0.968148
vt 0.221308 0.978704
vt 0.221308 0.990225
vt 0.189162 0.991586
vt 0.189162 0.977342
vt 0.980945 0.988300
vt 0.948799 0.986938
vt 0.948799 0.975418
vt 0.980945 0.974056
vt 0.692188 0.977890
vt 0.660078 0.975855
vt 0.660078 0.958642
vt 0.692188 0.956607
vt 0.989803 0.888668
vt 0.957658 0.887306
vt 0.957658 0.875786
vt 0.989803 0.874424
vt 0.584609 0.977863
vt 0.584609 0.956580
vt 0.616718 0.958615
vt 0.616718 0.975828
vt 0.271686 0.969267
vt 0.284036 0.969267
vt 0.284036 0.987720
vt 0.271686 0.987720
vt 0.581500 0.267957
vt 0.613665 0.269514
vt 0.613665 0.282690
vt 0.581500 0.284248
vt 0.194949 0.595411
vt 0.189162 0.528325
vt 0.251336 0.530488
vt 0.251336 0.596343
vt 0.008262 0.136276
vt 0.002954 0.072568
vt 0.101399 0.074156
vt 0.101399 0.131283
vt 0.699606 0.958886
vt 0.699606 0.939200
vt 0.731725 0.936872
vt 0.731725 0.961214
vt 0.461510 0.936344
vt 0.473031 0.936343
vt 0.473031 0.953556
vt 0.461510 0.953557
vt 0.329745 0.963277
vt 0.361900 0.964737
vt 0.361900 0.977087
vt 0.329745 0.978547
vt 0.329999 0.347903
vt 0.257243 0.347986
vt 0.262663 0.274012
vt 0.329999 0.274002
vt 0.511093 0.968052
vt 0.511093 0.980402
vt 0.478938 0.981862
vt 0.478938 0.966592
vt 0.750828 0.158806
vt 0.750828 0.177259
vt 0.718714 0.179441
vt 0.718714 0.156625
vt 0.975869 0.827517
vt 0.975869 0.809064
vt 0.988219 0.809064
vt 0.988219 0.827517
vt 0.625573 0.516050
vt 0.593428 0.514688
vt 0.593428 0.503168
vt 0.625573 0.501806
vt 0.055642 0.972528
vt 0.055642 0.955315
vt 0.087752 0.953280
vt 0.087752 0.974563
vt 0.774808 0.985329
vt 0.742663 0.983967
vt 0.742663 0.972447
vt 0.774808 0.971085
vt 0.322053 0.980951
vt 0.289944 0.978916
vt 0.289944 0.961703
vt 0.322053 0.959669
vt 0.934100 0.763875
vt 0.922580 0.763875
vt 0.922580 0.746662
vt 0.934100 0.746662
vt 0.990061 0.045166
vt 0.990061 0.056687
vt 0.957915 0.058048
vt 0.957915 0.043804
vt 0.067246 0.227819
vt 0.067246 0.310380
vt 0.003343 0.308611
vt 0.002954 0.225775
vt 0.233428 0.980960
vt 0.233428 0.969440
vt 0.265573 0.968078
vt 0.265573 0.982322
vt 0.381617 0.973782
vt 0.381617 0.956569
vt 0.413726 0.954534
vt 0.413726 0.975817
vt 0.922298 0.975589
vt 0.922298 0.992802
vt 0.910778 0.992802
vt 0.910778 0.975589
vt 0.619572 0.287643
vt 0.619572 0.267957
vt 0.632748 0.267957
vt 0.632748 0.287643
vn 0.5958 -0.0420 0.8021
vn -0.0664 -0.9969 0.0422
vn 0.0271 -0.9708 0.2385
vn -0.0734 0.1603 0.9843
vn -0.0734 0.1602 0.9843
vn -0.2801 0.0408 0.9591
vn 0.3096 -0.8310 0.4620
vn 0.3096 -0.8311 0.4620
vn 0.3477 -0.7488 0.5643
vn -0.3827 -0.2433 0.8913
vn -0.4190 -0.3163 0.8511
vn -0.1475 0.9847 0.0925
vn -0.1455 0.9847 0.0955
vn -0.1460 0.9847 0.0948
vn -0.1477 0.9847 0.0921
vn -0.9489 -0.2852 0.1351
vn -0.5548 0.8260 -0.0993
vn 0.9887 0.0276 0.1470
vn -0.8433 0.4955 0.2080
vn -0.9047 0.4092 0.1184
vn -0.4930 0.2339 0.8380
vn -0.4932 0.2337 0.8379
vn -0.4931 0.2338 0.8380
vn -0.4888 0.2389 0.8390
vn 0.0399 -0.9915 -0.1235
vn -0.3097 -0.9301 0.1977
vn -0.3727 -0.9224 0.1012
vn -0.3726 -0.9224 0.1012
vn -0.8655 0.5006 -0.0155
vn -0.8141 0.5798 0.0319
vn 0.6009 0.0629 0.7968
vn 0.4556 -0.5432 -0.7052
vn -0.9674 0.0150 0.2529
vn -0.9778 0.0553 0.2019
vn -0.9778 0.0554 0.2019
vn -0.0600 0.9967 -0.0542
vn -0.3543 0.9351 0.0064
vn -0.1451 -0.2859 -0.9472
vn -0.1366 -0.2789 -0.9506
vn -0.2011 -0.2377 -0.9503
vn -0.2402 -0.8539 -0.4617
vn -0.2347 -0.8572 -0.4584
vn -0.2355 -0.8567 -0.4589
vn -0.2407 -0.8535 -0.4621
vn 0.9744 0.0415 0.2208
vn 0.9741 -0.0020 0.2263
vn 0.8869 0.3503 0.3013
vn 0.7423 -0.0825 0.6649
vn -0.3506 -0.2653 0.8982
vn -0.3506 -0.2652 0.8982
vn -0.3248 0.2607 0.9091
vn 0.0424 -0.9612 0.2726
vn 0.0850 -0.9675 0.2381
vn 0.0849 -0.9675 0.2381
vn -0.9467 0.1299 -0.2948
vn -0.7807 0.3238 -0.5345
vn 0.6664 -0.5666 0.4847
vn 0.1861 0.4281 0.8844
vn -0.8755 -0.3849 0.2922
vn -0.8455 -0.4655 0.2619
vn -0.8787 -0.4330 0.2011
vn 0.3827 -0.2433 0.8913
vn 0.4189 -0.3163 0.8511
vn 0.4190 -0.3163 0.8511
vn -0.6289 0.7767 -0.0360
vn -0.6347 0.7716 -0.0421
vn -0.6335 0.7727 -0.0409
vn -0.6282 0.7772 -0.0354
vn -0.1583 -0.9485 0.2742
vn 0.0840 -0.9831 0.1626
vn -0.9299 -0.2744 -0.2449
vn -0.9191 -0.2448 -0.3088
vn -0.0424 -0.9612 0.2726
vn -0.0849 -0.9675 0.2381
vn 0.0230 -0.9809 0.1932
vn 0.0180 -0.9820 0.1882
vn 0.0293 -0.9812 0.1907
vn -0.0477 -0.9980 0.0423
vn -0.0477 -0.9980 0.0424
vn -0.1191 -0.9858 0.1185
vn -0.1191 -0.9858 0.1186
vn 0.4954 -0.6470 0.5796
vn 0.2666 0.1768 -0.9475
vn 0.9090 -0.3948 0.1337
vn 0.9176 -0.3802 0.1162
vn 0.9176 -0.3802 0.1163
vn 0.9090 -0.3948 0.1338
vn -0.9803 0.1121 0.1625
vn -0.9722 0.1433 0.1849
vn -0.6767 0.0865 0.7312
vn -0.6767 0.0864 0.7312
vn -0.5279 0.3213 0.7862
vn -0.1844 -0.9230 0.3377
vn -0.1931 -0.9246 0.3283
vn -0.8869 0.3503 0.3012
vn -0.8869 0.3503 0.3013
vn -0.7423 -0.0825 0.6649
vn -0.9987 0.0455 0.0246
vn -0.9522 0.2545 -0.1692
vn -0.9521 0.2545 -0.1692
vn -0.8615 -0.4536 0.2280
vn 0.3071 0.4364 0.8457
vn 0.1251 -0.2917 -0.9483
vn 0.1651 -0.2659 -0.9498
vn 0.1301 -0.3236 -0.9372
vn -0.8068 0.5833 -0.0933
vn -0.8919 -0.4174 0.1739
vn -0.8919 -0.4175 0.1739
vn -0.4006 -0.7773 0.4850
vn -0.0611 0.9980 -0.0149
vn -0.7936 -0.6055 -0.0595
vn 0.7604 -0.6098 0.2235
vn 0.9700 -0.1992 0.1397
vn 0.9700 -0.1991 0.1397
vn 0.7604 -0.6097 0.2235
vn -0.9772 0.1469 0.1532
vn -0.9446 -0.1053 -0.3108
vn 0.9987 0.0455 0.0246
vn 0.9522 0.2545 -0.1692
vn 0.9521 0.2545 -0.1692
vn 0.8636 0.2258 0.4508
vn 0.9546 -0.2977 0.0114
vn 0.9869 -0.0348 0.1575
vn -0.2215 0.6666 0.7117
vn -0.0961 0.6157 0.7821
vn -0.0974 0.1052 0.9897
vn -0.0975 0.1052 0.9897
vn -0.6964 0.0568 0.7154
vn -0.4306 0.9012 -0.0490
vn -0.4305 0.9012 -0.0490
vn -0.4176 0.9066 -0.0612
vn 0.4633 0.1468 0.8740
vn 0.8445 -0.5046 0.1795
vn 0.4187 -0.2881 0.8612
vn 0.3238 -0.9005 -0.2903
vn 0.1228 -0.9915 0.0435
vn 0.1229 -0.9915 0.0435
vn 0.0477 -0.9980 0.0423
vn 0.0477 -0.9980 0.0424
vn 0.1191 -0.9858 0.1186
vn 0.1352 0.7490 -0.6486
vn -0.8114 0.5451 -0.2108
vn -0.5630 0.8133 -0.1472
vn -0.3705 0.9128 -0.1720
vn 0.9851 -0.1709 0.0206
vn -0.1553 -0.7415 0.6528
vn 0.9338 -0.1739 -0.3129
vn -0.9036 0.0323 0.4272
vn -0.3294 -0.8773 0.3490
vn -0.8690 0.1657 0.4663
vn -0.9068 0.1533 0.3927
vn -0.9104 0.1654 0.3793
vn 0.0612 0.1966 0.9786
vn 0.6102 0.2579 0.7491
vn 0.8814 -0.4605 -0.1050
vn -0.3924 0.5387 -0.7456
vn -0.4653 0.5713 -0.6761
vn -0.4653 0.5714 -0.6761
vn -0.4099 0.8794 0.2421
vn -0.4071 0.8800 0.2446
vn -0.4075 0.8799 0.2442
vn -0.4102 0.8793 0.2418
vn -0.4153 -0.8193 -0.3953
vn -0.4178 -0.8208 -0.3896
vn -0.4174 -0.8206 -0.3904
vn -0.4128 -0.8179 -0.4008
vn 0.3674 -0.9234 -0.1108
vn 0.3674 -0.9235 -0.1108
vn 0.4683 -0.8834 0.0132
vn 0.4683 -0.8835 0.0132
vn -0.9627 -0.0312 -0.2689
vn -0.9580 -0.0182 -0.2863
vn -0.9580 -0.0183 -0.2863
vn -0.4514 -0.8895 0.0712
vn -0.0363 -0.9705 0.2383
vn 0.0041 -0.9628 0.2701
vn 0.0041 -0.9628 0.2700
vn 0.0996 -0.9785 0.1808
vn 0.0600 0.9967 -0.0542
vn 0.3543 0.9351 0.0064
vn 0.5120 0.2264 0.8286
vn -0.9744 0.0415 0.2208
vn -0.9741 -0.0020 0.2263
vn -0.2293 -0.2040 -0.9517
vn -0.2294 -0.2040 -0.9517
vn -0.1089 -0.1984 -0.9741
vn -0.8692 -0.4944 0.0078
vn -0.8690 -0.4948 0.0075
vn -0.8666 -0.4989 0.0038
vn -0.8691 -0.4947 0.0076
vn 0.1831 0.3458 0.9203
vn 0.2173 0.9745 -0.0561
vn -0.9035 0.4039 0.1432
vn -0.9035 0.4040 0.1432
vn -0.9989 0.0470 0.0049
vn -0.9993 0.0059 0.0379
vn -0.9961 0.0663 0.0575
vn -0.0984 0.1281 -0.9869
vn -0.9746 -0.0358 0.2211
vn -0.9741 -0.0170 0.2254
vn -0.9609 -0.0487 0.2724
vn -0.1539 0.9864 -0.0585
vn -0.1051 0.9901 -0.0928
vn 0.9770 -0.0213 0.2122
vn 0.9768 -0.0581 0.2061
vn 0.9804 -0.0263 0.1953
vn 0.4086 0.2986 -0.8625
vn 0.7001 0.0255 0.7136
vn 0.8553 -0.4819 0.1905
vn 0.8288 -0.4976 0.2559
vn 0.8313 -0.5281 0.1734
vn 0.4002 -0.3212 0.8583
vn 0.8899 -0.3473 -0.2957
vn 0.1285 0.3541 0.9263
vn 0.3902 -0.5643 -0.7276
vn 0.3967 -0.5760 -0.7147
vn -0.8231 -0.0053 0.5679
vn -0.7945 0.2438 0.5562
vn -0.7086 -0.2247 0.6689
vn -0.6204 0.2830 0.7314
vn -0.9868 0.0812 0.1401
vn -0.9888 0.1044 0.1064
vn -0.9888 0.1043 0.1064
vn 0.5038 0.7455 0.4363
vn 0.5358 0.7201 0.4409
vn -0.9546 -0.2977 0.0114
vn -0.9869 -0.0348 0.1575
vn -0.8917 0.4443 0.0858
vn -0.2736 0.4703 0.8390
vn 0.2735 0.4703 0.8391
vn 0.2736 0.4703 0.8390
vn -0.2735 0.4703 0.8390
vn -0.2427 0.2613 0.9342
vn -0.2427 0.2613 0.9343
vn -0.2121 0.2386 0.9477
vn -0.2120 0.2386 0.9477
vn -0.3215 -0.8385 -0.4399
vn 0.9773 -0.0144 0.2112
vn 0.9741 -0.0170 0.2254
vn 0.9614 -0.0426 0.2718
vn 0.9609 -0.0487 0.2724
vn 0.8736 -0.4111 -0.2603
vn 0.6224 -0.7820 -0.0320
vn -0.1147 0.8809 -0.4591
vn -0.1141 0.8808 -0.4596
vn -0.1191 0.8819 -0.4562
vn -0.1198 0.8820 -0.4557
vn 0.4931 0.2338 0.8380
vn 0.4932 0.2337 0.8379
vn 0.4931 0.2339 0.8380
vn 0.4889 0.2389 0.8390
vn 0.2294 -0.2040 -0.9517
vn 0.1089 -0.1984 -0.9741
vn 0.0042 -0.9935 0.1139
vn 0.9790 0.0150 0.2034
vn 0.5879 0.1134 -0.8010
vn 0.3973 -0.2065 0.8942
vn -0.0209 -0.9809 0.1936
vn 0.2789 -0.6851 -0.6729
vn 0.1885 0.0674 -0.9798
vn 0.2253 -0.9293 0.2927
vn -0.0161 -0.9188 0.3945
vn 0.5075 0.2529 0.8237
vn -0.9542 -0.1109 -0.2778
vn 0.4080 -0.2776 0.8698
vn 0.2981 -0.0339 0.9539
vn 0.9238 0.1289 0.3605
vn 0.9145 0.1553 0.3735
vn 0.8920 0.1364 0.4309
vn 0.6248 0.4595 0.6312
vn -0.8047 0.1091 0.5836
vn -0.8047 0.1092 0.5836
vn -0.8417 0.2068 0.4987
vn 0.1990 -0.6424 -0.7401
vn 0.4174 -0.8206 -0.3904
vn 0.4178 -0.8208 -0.3896
vn 0.4153 -0.8193 -0.3953
vn 0.4128 -0.8179 -0.4008
vn 0.2762 -0.8333 -0.4789
vn 0.9929 -0.0089 0.1187
vn 0.4522 -0.0022 -0.8919
vn 0.1751 -0.4673 0.8666
vn 0.5467 -0.0409 0.8363
vn 0.1264 0.0651 0.9898
vn 0.1583 -0.9485 0.2742
vn -0.0840 -0.9831 0.1626
vn 0.6384 0.5091 -0.5773
vn 0.7411 -0.4984 0.4498
vn 0.0027 -0.9853 0.1705
vn 0.0388 -0.9783 0.2035
vn 0.0273 -0.9799 0.1975
vn 0.0345 -0.9795 0.1985
vn 0.7290 0.4213 0.5395
vn 0.8945 0.1518 0.4206
vn 0.8453 -0.2868 0.4508
vn 0.6038 0.0369 0.7963
vn -0.5629 -0.3372 0.7546
vn 0.8231 -0.0053 0.5679
vn 0.7945 0.2438 0.5562
vn 0.4653 -0.2116 -0.8595
vn 0.0695 0.0218 0.9973
vn 0.9844 0.0836 0.1548
vn 0.9361 -0.3458 0.0647
vn 0.3051 -0.9225 0.2365
vn 0.9496 0.1897 0.2495
vn -0.5958 -0.0420 0.8021
vn 0.3506 -0.2653 0.8982
vn 0.3506 -0.2652 0.8982
vn 0.3248 0.2607 0.9091
vn 0.8433 0.4955 0.2080
vn 0.9047 0.4092 0.1184
vn 0.0535 -0.9954 0.0789
vn 0.0226 -0.9941 0.1058
vn 0.1916 -0.9244 0.3299
vn 0.1844 -0.9230 0.3377
vn 0.1848 -0.9231 0.3372
vn 0.1931 -0.9246 0.3283
vn 0.2215 0.6666 0.7118
vn 0.2215 0.6666 0.7117
vn 0.0961 0.6157 0.7821
vn 0.9489 -0.2852 0.1351
vn 0.5548 0.8260 -0.0993
vn -0.9887 0.0276 0.1470
vn -0.5038 0.7455 0.4363
vn -0.5358 0.7201 0.4409
vn -0.0699 0.9493 0.3066
vn -0.1415 0.9544 0.2627
vn -0.0399 -0.9915 -0.1235
vn 0.4671 0.5243 0.7120
vn 0.4320 0.5105 0.7435
vn 0.4321 0.5105 0.7434
vn 0.0699 0.9493 0.3066
vn 0.1415 0.9544 0.2627
vn 0.1460 0.5772 -0.8034
vn 0.1460 0.5772 -0.8035
vn 0.0944 0.5463 -0.8322
vn -0.4556 -0.5432 -0.7052
vn 0.1348 -0.2915 -0.9470
vn 0.1367 -0.2788 -0.9506
vn 0.1798 -0.2203 -0.9587
vn 0.2011 -0.2377 -0.9503
vn 0.9299 -0.2744 -0.2449
vn 0.9191 -0.2448 -0.3088
vn -0.2907 0.0812 0.9534
vn 0.8692 -0.4944 0.0078
vn 0.8690 -0.4947 0.0076
vn 0.8666 -0.4989 0.0038
vn 0.8690 -0.4948 0.0075
vn 0.9518 0.2032 0.2296
vn 0.9890 -0.1333 -0.0645
vn 0.6361 -0.7700 0.0503
vn 0.3189 -0.8936 -0.3158
vn 0.9803 0.1121 0.1625
vn 0.9723 0.1433 0.1849
vn 0.9722 0.1433 0.1849
vn 0.8114 0.5451 -0.2108
vn 0.5630 0.8132 -0.1472
vn 0.5630 0.8133 -0.1472
vn -0.6664 -0.5666 0.4847
vn -0.1861 0.4281 0.8844
vn 0.0156 -0.7663 -0.6423
vn -0.0156 -0.7663 -0.6423
vn 0.9694 -0.2201 -0.1087
vn 0.9579 -0.2746 -0.0839
vn 0.1455 0.9847 0.0955
vn 0.1478 0.9847 0.0921
vn 0.1477 0.9847 0.0921
vn 0.8755 -0.3849 0.2922
vn 0.8553 -0.4820 0.1901
vn 0.8787 -0.4330 0.2011
vn 0.8838 -0.3642 0.2937
vn -0.3674 -0.9234 -0.1108
vn -0.3674 -0.9235 -0.1108
vn -0.4684 -0.8834 0.0132
vn -0.4683 -0.8835 0.0132
vn 0.1500 -0.9609 0.2328
vn 0.3269 -0.9308 0.1638
vn -0.0230 -0.9809 0.1932
vn -0.0293 -0.9812 0.1907
vn -0.0180 -0.9820 0.1882
vn 0.2427 0.2613 0.9343
vn 0.2120 0.2386 0.9477
vn -0.4954 -0.6470 0.5796
vn -0.2666 0.1768 -0.9475
vn -0.9694 -0.2201 -0.1087
vn -0.9579 -0.2746 -0.0838
vn -0.9579 -0.2746 -0.0839
vn 0.6347 0.7716 -0.0421
vn 0.6282 0.7772 -0.0354
vn -0.6361 -0.7700 0.0503
vn -0.3189 -0.8936 -0.3158
vn 0.2355 -0.8567 -0.4589
vn 0.2347 -0.8572 -0.4584
vn 0.2402 -0.8539 -0.4617
vn 0.2407 -0.8535 -0.4621
vn 0.1770 0.7815 0.5983
vn 0.4716 0.6075 0.6392
vn -0.3238 -0.9005 -0.2903
vn -0.1229 -0.9915 0.0435
vn 0.8615 -0.4536 0.2280
vn -0.3071 0.4364 0.8457
vn -0.1251 -0.2917 -0.9483
vn -0.1301 -0.3236 -0.9372
vn -0.1019 -0.2711 -0.9571
vn 0.8068 0.5833 -0.0933
vn 0.0611 0.9980 -0.0149
vn 0.7936 -0.6055 -0.0595
vn 0.6957 -0.0533 0.7164
vn 0.6957 -0.0532 0.7164
vn 0.8052 0.0948 0.5854
vn 0.8919 -0.4174 0.1739
vn 0.8919 -0.4175 0.1739
vn 0.4006 -0.7773 0.4850
vn 0.7813 0.4337 0.4488
vn 0.6453 0.3028 0.7014
vn -0.8636 0.2258 0.4508
vn -0.1770 0.7815 0.5983
vn -0.4716 0.6075 0.6392
vn 0.9993 0.0059 0.0379
vn 0.9961 0.0663 0.0575
vn 0.9772 0.1469 0.1531
vn 0.9772 0.1469 0.1532
vn 0.9446 -0.1053 -0.3108
vn 0.8656 0.5006 -0.0155
vn 0.8655 0.5006 -0.0155
vn 0.8142 0.5798 0.0319
vn 0.8141 0.5798 0.0319
vn -0.4633 0.1468 0.8740
vn -0.8445 -0.5046 0.1795
vn -0.4187 -0.2881 0.8612
vn 0.0363 -0.9705 0.2383
vn -0.0041 -0.9628 0.2701
vn -0.0041 -0.9628 0.2700
vn -0.5499 -0.4583 -0.6983
vn -0.6073 -0.4988 -0.6184
vn -0.1352 0.7490 -0.6486
vn 0.8047 0.1092 0.5836
vn 0.8417 0.2068 0.4987
vn 0.3705 0.9128 -0.1720
vn -0.9851 -0.1709 0.0206
vn 0.1553 -0.7415 0.6528
vn -0.9338 -0.1739 -0.3129
vn 0.9036 0.0323 0.4272
vn 0.3294 -0.8773 0.3490
vn 0.9467 0.1299 -0.2948
vn 0.7807 0.3238 -0.5345
vn -0.0612 0.1966 0.9786
vn -0.6102 0.2579 0.7491
vn -0.8814 -0.4605 -0.1050
vn 0.4306 0.9012 -0.0490
vn 0.4305 0.9012 -0.0490
vn 0.4176 0.9066 -0.0612
vn 0.5809 -0.0713 -0.8108
vn 0.6409 -0.0063 -0.7676
vn 0.6410 -0.0063 -0.7676
vn -0.5809 -0.0713 -0.8108
vn -0.6409 -0.0063 -0.7676
vn -0.6410 -0.0063 -0.7676
vn -0.0535 -0.9954 0.0789
vn -0.0226 -0.9941 0.1058
vn -0.4665 0.8051 -0.3664
vn -0.4426 0.8071 -0.3907
vn 0.4514 -0.8895 0.0712
vn 0.6767 0.0864 0.7312
vn 0.5279 0.3213 0.7862
vn -0.0996 -0.9785 0.1808
vn 0.0734 0.1603 0.9843
vn 0.0734 0.1602 0.9843
vn 0.2801 0.0408 0.9591
vn -0.5120 0.2264 0.8286
vn -0.3096 -0.8311 0.4620
vn -0.3477 -0.7488 0.5643
vn -0.9518 0.2032 0.2296
vn -0.9890 -0.1334 -0.0645
vn -0.9890 -0.1333 -0.0645
vn -0.3902 -0.5643 -0.7275
vn -0.3902 -0.5643 -0.7276
vn -0.3967 -0.5760 -0.7147
vn -0.1831 0.3458 0.9203
vn -0.2173 0.9745 -0.0561
vn -0.7813 0.4337 0.4488
vn -0.6453 0.3028 0.7014
vn 0.3097 -0.9301 0.1977
vn 0.3726 -0.9224 0.1012
vn 0.3727 -0.9224 0.1012
vn 0.0984 0.1281 -0.9869
vn -0.4671 0.5243 0.7120
vn -0.4320 0.5105 0.7435
vn -0.4321 0.5105 0.7434
vn 0.9722 -0.0109 0.2340
vn -0.9770 -0.0213 0.2122
vn -0.9804 -0.0263 0.1953
vn -0.9803 -0.0122 0.1970
vn -0.4086 0.2986 -0.8625
vn -0.7001 0.0255 0.7136
vn -0.8553 -0.4819 0.1905
vn -0.8313 -0.5281 0.1734
vn -0.8454 -0.5112 0.1547
vn -0.4002 -0.3212 0.8583
vn -0.8899 -0.3473 -0.2957
vn -0.1285 0.3541 0.9263
vn -0.1500 -0.9609 0.2328
vn -0.3269 -0.9308 0.1639
vn -0.3269 -0.9308 0.1638
vn -0.6957 -0.0533 0.7164
vn -0.6957 -0.0532 0.7164
vn -0.8052 0.0948 0.5854
vn 0.7086 -0.2247 0.6689
vn 0.6204 0.2830 0.7314
vn 0.1539 0.9864 -0.0585
vn 0.1051 0.9901 -0.0928
vn 0.8790 0.2213 0.4224
vn 0.8690 0.1657 0.4663
vn 0.9157 0.1603 0.3684
vn 0.9104 0.1654 0.3793
vn 0.0974 0.1052 0.9897
vn 0.0975 0.1052 0.9897
vn 0.6964 0.0568 0.7154
vn 0.8917 0.4443 0.0858
vn 0.0664 -0.9969 0.0422
vn -0.0271 -0.9708 0.2384
vn -0.0271 -0.9708 0.2385
vn 0.4075 0.8799 0.2442
vn 0.4071 0.8800 0.2446
vn 0.4099 0.8794 0.2421
vn 0.4102 0.8793 0.2418
vn 0.3215 -0.8385 -0.4399
vn 0.5499 -0.4583 -0.6983
vn 0.6073 -0.4988 -0.6184
vn -0.8736 -0.4111 -0.2603
vn -0.6224 -0.7820 -0.0320
vn 0.9868 0.0812 0.1401
vn 0.9888 0.1043 0.1064
vn 0.4665 0.8051 -0.3664
vn 0.4426 0.8071 -0.3907
vn -0.0042 -0.9935 0.1139
vn -0.9790 0.0150 0.2034
vn -0.5879 0.1134 -0.8010
vn -0.3973 -0.2065 0.8942
vn 0.0209 -0.9809 0.1936
vn -0.2789 -0.6851 -0.6729
vn -0.1885 0.0674 -0.9798
vn -0.2253 -0.9293 0.2927
vn 0.0161 -0.9188 0.3945
vn -0.5075 0.2529 0.8237
vn 0.1222 0.2008 -0.9720
vn 0.1011 0.1845 -0.9776
vn -0.4080 -0.2776 0.8698
vn -0.2981 -0.0339 0.9539
vn -0.9238 0.1289 0.3605
vn -0.9170 0.1707 0.3604
vn -0.9145 0.1553 0.3735
vn -0.6248 0.4595 0.6312
vn 0.9035 0.4040 0.1432
vn 0.9989 0.0470 0.0049
vn -0.1990 -0.6424 -0.7401
vn 0.3924 0.5387 -0.7456
vn 0.4653 0.5714 -0.6760
vn 0.4653 0.5714 -0.6761
vn -0.2762 -0.8333 -0.4789
vn -0.9929 -0.0089 0.1187
vn -0.4522 -0.0022 -0.8919
vn -0.1751 -0.4673 0.8666
vn -0.5467 -0.0409 0.8363
vn -0.1264 0.0651 0.9898
vn -0.7604 -0.6098 0.2235
vn -0.9700 -0.1991 0.1397
vn -0.6384 0.5091 -0.5773
vn -0.7411 -0.4984 0.4498
vn -0.0027 -0.9853 0.1705
vn -0.0388 -0.9783 0.2035
vn -0.0345 -0.9795 0.1985
vn -0.0273 -0.9799 0.1975
vn -0.7290 0.4213 0.5395
vn -0.8945 0.1518 0.4206
vn -0.8453 -0.2868 0.4508
vn -0.6038 0.0369 0.7963
vn 0.5629 -0.3372 0.7546
vn -0.9090 -0.3948 0.1337
vn -0.9176 -0.3802 0.1162
vn -0.9176 -0.3802 0.1163
vn -0.4653 -0.2116 -0.8595
vn -0.0695 0.0218 0.9973
vn -0.9844 0.0836 0.1548
vn -0.9361 -0.3458 0.0647
vn -0.3051 -0.9225 0.2365
vn -0.9496 0.1897 0.2495
vn 0.9542 -0.1109 -0.2778
vn -0.2907 -0.1772 -0.9403
vn -0.9542 -0.0324 0.2974
vn 0.2907 0.0812 0.9534
vn 0.0000 -0.9908 0.1352
vn 0.7970 -0.1484 -0.5855
vn -0.6009 -0.1529 -0.7845
vn -0.1222 0.2008 -0.9720
vn -0.1011 0.1845 -0.9776
vn 0.6009 -0.1529 -0.7845
vn -0.7970 -0.1484 -0.5855
vn -0.9722 -0.0732 -0.2226
vn -0.2301 0.0686 0.9707
vn -0.9722 -0.0109 0.2340
vn 0.2301 0.0686 0.9707
vn 0.2301 -0.1940 -0.9536
vn 0.9542 -0.0324 0.2974
vn 0.9627 -0.0312 -0.2689
vn 0.9580 -0.0182 -0.2863
vn 0.9580 -0.0183 -0.2863
vn 0.1190 0.8819 -0.4562
vn 0.1141 0.8808 -0.4596
vn 0.1147 0.8809 -0.4591
vn 0.1198 0.8820 -0.4557
vn 0.2907 -0.1772 -0.9403
vn -0.7970 0.0139 0.6038
vn 0.9674 0.0150 0.2529
vn 0.9778 0.0554 0.2019
vn 0.7970 0.0139 0.6038
vn -0.6009 0.0629 0.7968
vn -0.2301 -0.1940 -0.9536
vn 0.9722 -0.0732 -0.2226
vn -0.1460 0.5772 -0.8034
vn -0.1460 0.5772 -0.8035
vn -0.0944 0.5463 -0.8322
g Bones_Skull_Bones_Skull_Collor_Material
usemtl Collor_Material
s off
f 126/1/1 78/2/1 285/3/1
f 271/4/2 242/5/2 283/6/3 254/7/3
f 190/8/4 187/9/5 186/10/6 178/11/6
f 250/12/7 249/13/8 176/14/9 191/15/9
f 117/16/10 131/17/10 300/18/11 297/19/11
f 198/20/12 192/21/13 175/22/14 196/23/15
f 70/24/16 121/25/16 122/26/16
f 243/27/17 301/28/17 135/29/17
f 162/30/18 152/31/18 163/32/18
f 200/33/19 201/34/19 270/35/20 269/36/20
f 259/37/21 189/38/22 188/39/23 180/40/24
f 73/41/25 113/42/25 114/43/25
f 253/44/26 228/45/26 242/46/27 261/47/28
f 201/48/29 200/49/29 213/50/30 214/51/30
f 46/52/31 45/53/31 41/54/31 42/55/31
f 140/56/32 115/57/32 141/58/32
f 217/59/33 216/60/33 274/61/34 275/62/35
f 135/63/36 146/64/36 122/65/37 134/66/37
f 224/67/38 211/68/39 289/69/40 294/70/40
f 278/71/41 251/72/42 218/73/43 290/74/44
f 162/75/45 159/76/45 166/77/46 149/78/46
f 77/79/47 91/80/47 72/81/48 68/82/48
f 182/83/49 181/84/50 197/85/51 175/86/51
f 99/87/52 97/88/52 171/89/53 143/90/54
f 275/91/55 215/92/56 220/93/56 281/94/55
f 114/95/57 74/96/57 73/97/57
f 87/98/58 127/99/58 299/100/58
f 262/101/59 264/102/60 228/103/61 253/104/59
f 300/105/62 241/106/62 226/107/63 297/108/64
f 193/109/65 198/110/66 196/111/67 174/112/68
f 205/113/69 282/114/70 204/115/70 225/116/69
f 217/117/71 279/118/71 280/119/72 206/120/72
f 282/121/73 205/122/73 208/123/74 254/124/74
f 117/125/75 167/126/76 99/127/77
f 243/128/78 132/129/79 150/130/80 301/131/81
f 95/132/82 147/133/82 171/134/82
f 110/135/83 165/136/83 102/137/83
f 271/138/84 226/139/85 241/140/86 239/141/87
f 274/142/88 214/143/88 215/144/89 275/145/89
f 173/146/90 174/147/91 195/148/92 236/149/92
f 194/150/93 173/151/93 249/152/94 250/153/94
f 180/154/95 199/155/96 185/156/97 176/157/97
f 255/158/98 257/159/99 232/160/100 256/161/98
f 137/162/101 75/163/101 69/164/101
f 87/165/102 287/166/102 69/167/102
f 141/168/103 115/169/104 102/170/105
f 122/171/106 123/172/106 70/173/106
f 272/174/107 235/175/108 233/176/109 181/177/109
f 122/178/110 146/179/110 123/180/110
f 137/181/111 133/182/111 121/183/111
f 248/184/112 183/185/113 178/186/114 230/187/115
f 227/188/116 199/189/116 260/190/117 262/191/117
f 144/192/118 145/193/119 123/194/120 146/195/118
f 112/196/121 77/197/121 76/198/121
f 147/199/122 107/200/123 152/201/123 153/202/122
f 189/203/124 286/204/124 303/205/125 268/206/125
f 182/207/126 175/208/127 266/209/128 267/210/128
f 202/211/129 209/212/130 213/213/131 200/214/131
f 284/215/132 285/216/132 78/217/132
f 147/218/133 119/219/133 171/220/133
f 138/221/134 148/222/134 65/223/134
f 304/224/135 272/225/135 261/226/136 301/227/137
f 261/228/138 242/229/139 243/230/140 301/231/140
f 243/232/141 133/233/141 132/234/141
f 214/235/142 213/236/142 212/237/143 215/238/143
f 134/239/144 243/240/144 135/241/144
f 136/242/145 301/243/145 243/244/145
f 243/245/146 133/246/146 136/247/146
f 69/248/147 284/249/147 145/250/147
f 243/251/148 134/252/148 133/253/148
f 144/254/149 137/255/149 145/256/149
f 269/257/150 270/258/150 277/259/151 188/260/152
f 96/261/153 95/262/153 171/263/153
f 73/264/154 89/265/154 124/266/154
f 113/267/155 151/268/155 118/269/155
f 210/270/156 219/271/156 220/272/157 212/273/158
f 202/274/159 200/275/160 269/276/161 268/277/162
f 278/278/163 205/279/164 280/280/165 251/281/166
f 298/282/167 295/283/168 235/284/169 272/285/170
f 279/286/171 217/287/171 275/288/172 281/289/173
f 298/290/174 304/291/174 161/292/174
f 254/293/175 208/294/175 226/295/176 271/296/177
f 143/297/178 171/298/178 172/299/178
f 231/300/179 257/301/179 246/302/180 245/303/180
f 82/304/181 125/305/181 75/306/181
f 277/307/182 270/308/182 273/309/183 260/310/183
f 223/311/184 221/312/185 227/313/186 222/314/186
f 203/315/187 206/316/188 225/317/189 204/318/190
f 127/319/191 148/320/191 299/321/191
f 71/322/192 123/323/192 284/324/192
f 247/325/193 246/326/194 257/327/195 255/328/195
f 194/329/196 193/330/196 174/331/197 173/332/197
f 91/333/198 77/334/198 118/335/198
f 260/336/199 263/337/200 264/338/201 262/339/201
f 209/340/202 202/341/202 291/342/203 292/343/203
f 162/344/204 149/345/205 152/346/206
f 111/347/207 165/348/207 110/349/207
f 147/350/208 95/351/208 107/352/208
f 147/353/209 153/354/210 119/355/211
f 138/356/212 72/357/212 148/358/212
f 156/359/213 114/360/213 112/361/213
f 302/362/214 69/363/214 287/364/214
f 240/365/215 207/366/215 271/367/216 239/368/216
f 266/369/217 184/370/217 221/371/218 267/372/218
f 83/373/219 120/374/219 68/375/219
f 83/376/220 154/377/220 120/378/220
f 274/379/221 273/380/221 201/381/222 214/382/223
f 175/383/224 192/384/224 265/385/225 229/386/225
f 258/387/226 264/388/227 263/389/227 216/390/226
f 71/391/228 70/392/228 123/393/228
f 195/394/229 287/395/230 87/396/231 299/397/232
f 286/398/233 189/399/234 259/400/235 299/401/236
f 285/402/237 295/403/237 126/404/237
f 153/405/238 152/406/239 149/407/240 151/408/241
f 116/409/242 169/410/242 98/411/242
f 113/412/243 73/413/243 161/414/243
f 292/415/244 288/416/245 210/417/246 209/418/247
f 80/419/248 81/420/249 148/421/250 72/422/251
f 118/423/252 112/424/252 114/425/253 113/426/253
f 290/427/254 167/428/254 296/429/254
f 149/430/255 166/431/255 91/432/255
f 111/433/256 170/434/256 165/435/256
f 72/436/257 138/437/257 68/438/257
f 297/439/258 296/440/258 117/441/258
f 115/442/259 140/443/259 109/444/259
f 77/445/260 112/446/260 118/447/260
f 171/448/261 119/449/261 172/450/261
f 145/451/262 137/452/262 69/453/262
f 71/454/263 284/455/263 78/456/263
f 4/457/264 3/458/264 1/459/264 2/460/264
f 127/461/265 65/462/265 148/463/265
f 70/464/266 82/465/266 75/466/266
f 80/467/267 91/468/268 166/469/269
f 125/470/270 88/471/270 66/472/270
f 190/473/271 197/474/272 233/475/273 187/476/273
f 109/477/274 294/478/274 115/479/274
f 169/480/275 97/481/276 167/482/277 140/483/278
f 116/484/279 97/485/279 169/486/279
f 163/487/280 152/488/280 107/489/280
f 141/490/281 102/491/281 165/492/281
f 126/493/282 79/494/282 78/495/282
f 67/496/283 88/497/283 89/498/283
f 70/499/284 71/500/284 78/501/284
f 97/502/285 116/503/286 96/504/286 171/505/285
f 111/506/287 103/507/287 106/508/287
f 114/509/288 156/510/288 74/511/288
f 117/512/289 296/513/289 167/514/289
f 99/515/290 167/516/291 97/517/292
f 68/518/293 76/519/293 77/520/293
f 145/521/294 284/522/294 123/523/294
f 124/524/295 79/525/295 126/526/295
f 69/527/296 75/528/296 125/529/296
f 76/530/297 68/531/297 120/532/297
f 112/533/298 76/534/298 155/535/299 156/536/299
f 136/537/300 135/538/300 301/539/300
f 69/540/301 302/541/301 284/542/301
f 162/543/302 93/544/302 159/545/302
f 142/546/303 151/547/303 113/548/303
f 132/549/304 172/550/304 119/551/304
f 80/552/305 72/553/305 91/554/305
f 235/555/306 285/556/306 186/557/306
f 89/558/307 73/559/308 74/560/309 67/561/309
f 159/562/310 93/563/310 92/564/311 158/565/311
f 243/566/312 242/567/312 271/568/313 207/569/313
f 138/570/314 65/571/315 86/572/316 139/573/317
f 303/574/318 286/575/319 81/576/320 157/577/320
f 178/578/321 231/579/321 230/580/321
f 243/581/322 246/582/322 301/583/322
f 273/584/323 274/585/323 263/586/323
f 154/587/324 84/588/324 67/589/325 120/590/325
f 268/591/326 303/592/326 291/593/327 202/594/327
f 181/595/328 223/596/328 222/597/328
f 157/598/329 81/599/329 80/600/330 158/601/331
f 291/602/332 303/603/332 157/604/333 94/605/333
f 288/606/334 101/607/335 110/608/336 293/609/336
f 251/610/337 252/611/337 224/612/337
f 289/613/338 102/614/339 115/615/340 294/616/341
f 169/617/342 168/618/342 108/619/343 98/620/343
f 1/621/344 5/622/344 6/623/344 2/624/344
f 95/625/345 96/626/346 116/627/347 98/628/348
f 107/629/349 95/630/350 98/631/350 108/632/349
f 142/633/351 113/634/351 161/635/352 150/636/352
f 106/637/353 105/638/353 163/639/354 164/640/355
f 103/641/356 104/642/356 105/643/357 106/644/358
f 223/645/359 181/646/359 182/647/359
f 195/648/360 299/649/360 236/650/360
f 290/651/361 218/652/361 294/653/362 109/654/362
f 245/655/363 244/656/363 230/657/364 231/658/364
f 67/659/365 84/660/365 90/661/366 88/662/367
f 151/663/368 142/664/369 119/665/370 153/666/371
f 126/667/372 295/668/373 298/669/374 161/670/375
f 244/671/376 247/672/376 255/673/377 248/674/377
f 226/675/378 208/676/379 278/677/380
f 148/678/381 81/679/381 286/680/382 299/681/382
f 203/682/383 282/683/383 258/684/383
f 219/685/384 211/686/384 276/687/384
f 121/688/385 133/689/385 134/690/386 122/691/387
f 88/692/388 90/693/388 85/694/389 66/695/389
f 272/696/390 222/697/390 253/698/391 261/699/391
f 109/700/392 140/701/393 167/702/394 290/703/395
f 266/704/396 175/705/396 229/706/397 184/707/397
f 150/708/398 161/709/398 304/710/399 301/711/399
f 248/712/400 177/713/400 183/714/400
f 195/715/401 177/716/401 287/717/401
f 252/718/402 211/719/403 224/720/404
f 231/721/405 178/722/405 232/723/405
f 231/724/406 232/725/406 257/726/406
f 248/727/407 230/728/407 244/729/407
f 89/730/408 88/731/409 125/732/410 82/733/410
f 124/734/411 126/735/412 161/736/413 73/737/413
f 125/738/414 66/739/414 87/740/415 69/741/415
f 221/742/416 184/743/416 185/744/416
f 120/745/417 67/746/417 155/747/418 76/748/418
f 66/749/419 85/750/419 86/751/420 65/752/420
f 149/753/421 91/754/422 118/755/423 151/756/423
f 104/757/424 92/758/425 93/759/426 105/760/427
f 284/761/428 186/762/428 285/763/428
f 258/764/429 282/765/429 228/766/429
f 249/767/430 173/768/430 259/769/430
f 117/770/431 99/771/431 143/772/432 160/773/433
f 251/774/434 280/775/434 279/776/435 252/777/435
f 243/778/436 242/779/436 244/780/436
f 124/781/437 89/782/437 82/783/438 79/784/438
f 245/785/439 246/786/439 243/787/439
f 247/788/440 243/789/440 301/790/440
f 243/791/441 247/792/441 244/793/441
f 177/794/442 256/795/442 284/796/442
f 243/797/443 244/798/443 245/799/443
f 255/800/444 256/801/444 248/802/444
f 164/803/445 170/804/446 111/805/446 106/806/445
f 204/807/447 282/808/447 203/809/447
f 181/810/448 233/811/448 197/812/448
f 222/813/449 227/814/449 262/815/449
f 104/816/450 100/817/451 94/818/452 92/819/452
f 165/820/453 170/821/453 168/822/454 141/823/455
f 279/824/456 281/825/456 276/826/457 252/827/458
f 160/828/459 132/829/459 243/830/460 207/831/460
f 212/832/461 213/833/461 209/834/462 210/835/462
f 298/836/463 272/837/463 304/838/463
f 87/839/464 66/840/464 65/841/465 127/842/465
f 254/843/466 283/844/466 282/845/466
f 78/846/467 79/847/468 82/848/469 70/849/469
f 190/850/470 183/851/470 234/852/470
f 68/853/471 138/854/471 139/855/472 83/856/472
f 216/857/473 217/858/474 206/859/475 203/860/473
f 160/861/476 207/862/477 240/863/478 130/864/478
f 236/865/479 299/866/479 259/867/479
f 179/868/480 284/869/480 232/870/480
f 195/871/481 174/872/481 234/873/482 177/874/482
f 132/875/483 119/876/483 142/877/484 150/878/485
f 199/879/486 227/880/486 185/881/486
f 188/882/487 189/883/487 268/884/488 269/885/489
f 50/886/490 54/887/490 53/888/490 49/889/490
f 273/890/491 263/891/492 260/892/493
f 220/893/494 219/894/494 276/895/494
f 258/896/495 216/897/495 203/898/495
f 258/899/496 228/900/497 264/901/498
f 249/902/499 259/903/499 180/904/499
f 267/905/500 221/906/500 223/907/500
f 302/908/501 287/909/501 177/910/501
f 144/911/502 136/912/502 133/913/503 137/914/504
f 234/915/505 196/916/506 197/917/507 190/918/507
f 191/919/508 176/920/508 229/921/508
f 191/922/509 229/923/509 265/924/509
f 291/925/510 94/926/510 100/927/511 292/928/511
f 166/929/512 159/930/513 158/931/514 80/932/515
f 155/933/516 67/934/517 74/935/518 156/936/518
f 179/937/519 232/938/519 178/939/519
f 172/940/520 132/941/520 160/942/521 143/943/522
f 158/944/523 92/945/524 94/946/525 157/947/526
f 285/948/527 235/949/527 295/950/527
f 168/951/528 169/952/528 140/953/529 141/954/529
f 225/955/530 206/956/530 280/957/530
f 222/958/531 272/959/531 181/960/531
f 93/961/532 162/962/532 163/963/533 105/964/533
f 100/965/534 104/966/534 103/967/535 101/968/535
f 290/969/536 296/970/536 278/971/536
f 260/972/537 199/973/537 277/974/537
f 220/975/538 276/976/538 281/977/538
f 180/978/539 176/979/539 249/980/539
f 297/981/540 226/982/540 296/983/540
f 224/984/541 218/985/541 251/986/541
f 185/987/542 227/988/542 221/989/542
f 282/990/543 283/991/543 228/992/543
f 256/993/544 177/994/544 248/995/544
f 179/996/545 186/997/545 284/998/545
f 102/999/546 289/1000/546 293/1001/547 110/1002/547
f 236/1003/548 259/1004/548 173/1005/548
f 178/1006/549 183/1007/549 190/1008/549
f 188/1009/550 277/1010/551 199/1011/552
f 234/1012/553 174/1013/553 196/1014/553
f 146/1015/554 135/1016/554 136/1017/555 144/1018/555
f 218/1019/556 224/1020/556 294/1021/556
f 111/1022/557 110/1023/557 101/1024/558 103/1025/559
f 225/1026/560 280/1027/560 205/1028/560
f 274/1029/561 216/1030/561 263/1031/561
f 252/1032/562 276/1033/562 211/1034/562
f 235/1035/563 186/1036/563 187/1037/563
f 175/1038/564 197/1039/564 196/1040/564
f 178/1041/565 186/1042/565 179/1043/565
f 137/1044/566 121/1045/567 70/1046/567 75/1047/566
f 220/1048/568 215/1049/568 212/1050/568
f 223/1051/569 182/1052/569 267/1053/569
f 226/1054/570 278/1055/570 296/1056/570
f 208/1057/571 205/1058/572 278/1059/573
f 176/1060/574 185/1061/574 184/1062/574
f 256/1063/575 232/1064/575 284/1065/575
f 233/1066/576 235/1067/576 187/1068/576
f 177/1069/577 234/1070/577 183/1071/577
f 184/1072/578 229/1073/578 176/1074/578
f 160/1075/579 130/1076/580 131/1077/581 117/1078/579
f 247/1079/582 301/1080/582 246/1081/582
f 177/1082/583 284/1083/583 302/1084/583
f 273/1085/584 270/1086/584 201/1087/584
f 253/1088/585 222/1089/585 262/1090/585
f 242/1091/586 228/1092/586 283/1093/586
f 188/1094/587 199/1095/587 180/1096/587
f 36/1097/588 34/1098/588 33/1099/588 35/1100/588
f 36/1101/589 35/1102/589 39/1103/589 40/1104/589
f 38/1105/590 40/1106/590 39/1107/590 37/1108/590
f 38/1109/591 37/1110/591 33/1111/591 34/1112/591
f 37/1113/592 39/1114/592 35/1115/592 33/1116/592
f 42/1117/593 41/1118/593 43/1119/593 44/1120/593
f 44/1121/594 43/1122/594 47/1123/594 48/1124/594
f 293/1125/595 289/1126/595 211/1127/596 219/1128/596
f 15/1129/597 11/1130/597 12/1131/597 16/1132/597
f 55/1133/592 51/1134/592 49/1135/592 53/1136/592
f 11/1137/598 9/1138/598 10/1139/598 12/1140/598
f 56/1141/599 52/1142/599 51/1143/599 55/1144/599
f 56/1145/600 55/1146/600 53/1147/600 54/1148/600
f 26/1149/601 25/1150/601 29/1151/601 30/1152/601
f 29/1153/602 31/1154/602 32/1155/602 30/1156/602
f 50/1157/603 49/1158/603 51/1159/603 52/1160/603
f 60/1161/599 59/1162/599 63/1163/599 64/1164/599
f 64/1165/600 63/1166/600 61/1167/600 62/1168/600
f 58/1169/490 62/1170/490 61/1171/490 57/1172/490
f 45/1173/592 47/1174/592 43/1175/592 41/1176/592
f 6/1177/604 5/1178/604 7/1179/604 8/1180/604
f 164/1181/605 108/1182/605 168/1183/606 170/1184/607
f 101/1185/608 288/1186/609 292/1187/610 100/1188/611
f 7/1189/612 3/1190/612 4/1191/612 8/1192/612
f 61/1193/592 63/1194/592 59/1195/592 57/1196/592
f 48/1197/613 47/1198/613 45/1199/613 46/1200/613
f 163/1201/614 107/1202/614 108/1203/615 164/1204/615
f 13/1205/616 15/1206/616 16/1207/616 14/1208/616
f 9/1209/617 13/1210/617 14/1211/617 10/1212/617
f 13/1213/592 9/1214/592 11/1215/592 15/1216/592
f 20/1217/618 19/1218/618 17/1219/618 18/1220/618
f 31/1221/619 27/1222/619 28/1223/619 32/1224/619
f 58/1225/603 57/1226/603 59/1227/603 60/1228/603
f 18/1229/601 17/1230/601 21/1231/601 22/1232/601
f 17/1233/592 19/1234/592 23/1235/592 21/1236/592
f 27/1237/618 25/1238/618 26/1239/618 28/1240/618
f 219/1241/620 210/1242/621 288/1243/622 293/1244/622
f 21/1245/602 23/1246/602 24/1247/602 22/1248/602
f 23/1249/619 19/1250/619 20/1251/619 24/1252/619
f 29/1253/592 25/1254/592 27/1255/592 31/1256/592
f 5/1257/592 1/1258/592 3/1259/592 7/1260/592
