# Blender v3.0.0 OBJ File: 'aa.blend'
# www.blender.org
mtllib Bones_Torso.mtl
o Bones_Torso
v 0.512883 0.175635 -0.038980
v 0.512884 0.175635 0.038979
v 0.317012 0.152708 -0.038980
v 0.095896 0.114298 -0.038980
v -0.170661 0.114618 -0.038980
v -0.296080 0.135720 -0.038980
v -0.296080 0.135720 0.038980
v -0.170661 0.114618 0.038980
v 0.095896 0.114298 0.038980
v 0.317012 0.152708 0.038979
v 0.522578 0.092589 -0.038980
v 0.522578 0.092589 0.038979
v 0.329280 0.070022 -0.038980
v 0.104515 0.031132 -0.038980
v -0.177578 0.031294 -0.038980
v -0.313547 0.053955 -0.038980
v -0.313547 0.053955 0.038980
v -0.177578 0.031294 0.038980
v 0.104516 0.031132 0.038980
v 0.329280 0.070022 0.038979
v -0.167742 0.131967 -0.058818
v -0.293124 0.153291 -0.058794
v -0.293124 0.153291 0.058795
v -0.167742 0.131967 0.058818
v -0.180628 0.012999 -0.058714
v -0.316560 0.035874 -0.058739
v -0.316560 0.035874 0.058739
v -0.180628 0.012999 0.058715
v -0.080531 0.114510 -0.038980
v -0.080531 0.114510 0.038980
v -0.082195 0.031239 -0.038980
v -0.082195 0.031239 0.038980
v 0.007683 0.114404 0.038980
v 0.011160 0.031186 0.038980
v 0.007683 0.114404 -0.038980
v 0.011160 0.031186 -0.038980
v 0.007719 0.144748 -0.049393
v -0.080494 0.145088 -0.049372
v 0.011142 -0.000000 -0.049318
v -0.082213 -0.000000 -0.049339
v -0.080494 0.145088 0.049373
v -0.082212 0.000000 0.049339
v 0.007719 0.144748 0.049393
v 0.011143 0.000000 0.049319
v 0.192049 0.134779 -0.038980
v 0.192049 0.134780 0.038980
v 0.204231 0.052089 -0.038980
v 0.204232 0.052089 0.038980
v 0.187620 0.155572 -0.050643
v 0.091700 0.133995 -0.050747
v 0.091700 0.133995 0.050746
v 0.208434 0.032092 -0.050721
v 0.108944 0.010059 -0.050616
v 0.108944 0.010059 0.050616
v 0.187620 0.155572 0.050643
v 0.208434 0.032092 0.050720
v -0.497165 0.188367 -0.038979
v -0.497165 0.188367 0.038980
v -0.517140 0.107198 -0.038979
v -0.517140 0.107198 0.038980
v -0.492053 0.207893 -0.061102
v -0.586569 0.232739 -0.061091
v -0.586569 0.232739 0.061092
v -0.522295 0.087488 -0.061081
v -0.617990 0.112610 -0.061092
v -0.617990 0.112610 0.061093
v -0.492053 0.207893 0.061103
v -0.522294 0.087488 0.061082
v -0.486948 0.158161 -0.166861
v -0.413696 0.143833 -0.025132
v -0.412188 0.142463 -0.204525
v -0.338539 0.127775 -0.025132
v -0.574048 0.272113 -0.316503
v -0.498954 0.256191 -0.353355
v -0.646705 0.381399 -0.452674
v -0.571831 0.368030 -0.491156
v -0.661746 0.533416 -0.476820
v -0.586126 0.519477 -0.513453
v -0.612421 0.745889 -0.403636
v -0.537380 0.729605 -0.440435
v -0.488475 0.849938 -0.285169
v -0.433227 0.838134 -0.312112
v 0.101481 0.086802 -0.018663
v 0.038515 0.128668 -0.292506
v -0.255316 0.116737 -0.255193
v -0.154504 0.078914 -0.019385
v -0.178429 0.116714 -0.291786
v -0.077650 0.078914 -0.019385
v -0.331899 0.217328 -0.407126
v -0.255049 0.217333 -0.443788
v -0.411425 0.307691 -0.544399
v -0.335161 0.309532 -0.582341
v -0.451174 0.445807 -0.568607
v -0.374250 0.448281 -0.605109
v -0.441784 0.657051 -0.470761
v -0.364695 0.657918 -0.506902
v -0.375816 0.840671 -0.310945
v -0.333498 0.840671 -0.331127
v 0.024627 0.086802 -0.018663
v -0.038780 0.128933 -0.256579
v -0.098521 0.207063 -0.405752
v -0.021664 0.207052 -0.442387
v -0.166000 0.317945 -0.540647
v -0.094015 0.320507 -0.559686
v -0.220525 0.458230 -0.581483
v -0.148491 0.461897 -0.598489
v -0.232581 0.668757 -0.484148
v -0.160431 0.669737 -0.500654
v -0.209272 0.852451 -0.312867
v -0.169624 0.852451 -0.322297
v 0.288696 0.134383 -0.025576
v 0.275978 0.126481 -0.261543
v 0.214536 0.123269 -0.025576
v 0.193737 0.114582 -0.243952
v 0.166313 0.185966 -0.309050
v 0.245360 0.197803 -0.331431
v 0.109824 0.294004 -0.449254
v 0.182253 0.307014 -0.459321
v 0.040263 0.425674 -0.496431
v 0.112384 0.440190 -0.504852
v -0.013658 0.630470 -0.401162
v 0.058918 0.642338 -0.409073
v -0.037124 0.812699 -0.228282
v 0.002879 0.818694 -0.232986
v -0.486948 0.158161 0.166861
v -0.413696 0.143833 0.025132
v -0.412188 0.142463 0.204525
v -0.338539 0.127775 0.025132
v -0.574047 0.272113 0.316504
v -0.498954 0.256192 0.353356
v -0.646704 0.381400 0.452674
v -0.571830 0.368031 0.491157
v -0.661745 0.533417 0.476821
v -0.586125 0.519478 0.513454
v -0.612420 0.745890 0.403636
v -0.537379 0.729606 0.440435
v -0.488475 0.849938 0.285168
v -0.433226 0.838134 0.312112
v 0.101481 0.086802 0.018663
v 0.038516 0.128669 0.292505
v -0.255316 0.116737 0.255193
v -0.154504 0.078915 0.019385
v -0.178429 0.116714 0.291786
v -0.077650 0.078915 0.019385
v -0.331898 0.217328 0.407126
v -0.255048 0.217333 0.443788
v -0.411424 0.307692 0.544399
v -0.335160 0.309533 0.582341
v -0.451173 0.445808 0.568607
v -0.374249 0.448282 0.605109
v -0.441783 0.657052 0.470761
v -0.364694 0.657919 0.506902
v -0.375815 0.840672 0.310944
v -0.333498 0.840672 0.331126
v 0.024627 0.086802 0.018663
v -0.038780 0.128934 0.256579
v -0.098520 0.207064 0.405752
v -0.021663 0.207053 0.442387
v -0.165999 0.317946 0.540647
v -0.094014 0.320508 0.559686
v -0.220524 0.458231 0.581483
v -0.148490 0.461898 0.598489
v -0.232580 0.668757 0.484147
v -0.160430 0.669737 0.500653
v -0.209271 0.852451 0.312867
v -0.169623 0.852451 0.322296
v 0.288696 0.134383 0.025576
v 0.275978 0.126481 0.261542
v 0.214536 0.123269 0.025576
v 0.193738 0.114582 0.243952
v 0.166314 0.185967 0.309049
v 0.245361 0.197804 0.331430
v 0.109825 0.294005 0.449253
v 0.182254 0.307015 0.459320
v 0.040264 0.425675 0.496431
v 0.112385 0.440191 0.504851
v -0.013658 0.630470 0.401161
v 0.058918 0.642338 0.409072
v -0.037124 0.812699 0.228281
v 0.002879 0.818694 0.232985
v -0.499260 0.121021 -0.176203
v -0.422092 0.104534 -0.025131
v -0.424103 0.104964 -0.212857
v -0.346935 0.088477 -0.025132
v -0.589494 0.239538 -0.334614
v -0.514336 0.223480 -0.371268
v -0.665141 0.361608 -0.482996
v -0.589983 0.345551 -0.519649
v -0.678064 0.538434 -0.513936
v -0.602906 0.522376 -0.550589
v -0.622000 0.769897 -0.435029
v -0.546842 0.753839 -0.471682
v -0.493177 0.881773 -0.309723
v -0.437929 0.869969 -0.336667
v 0.100000 0.047148 -0.025132
v 0.033711 0.090541 -0.304495
v -0.260443 0.078858 -0.267841
v -0.155820 0.039148 -0.025132
v -0.183589 0.078857 -0.304495
v -0.078966 0.039148 -0.025132
v -0.340662 0.182880 -0.426252
v -0.263808 0.182880 -0.462906
v -0.425277 0.284352 -0.574634
v -0.348423 0.284352 -0.611287
v -0.468111 0.449699 -0.605574
v -0.391257 0.449699 -0.642227
v -0.456004 0.679121 -0.501799
v -0.379150 0.679121 -0.538452
v -0.388332 0.867895 -0.338264
v -0.346015 0.867895 -0.358446
v 0.023146 0.047148 -0.025132
v -0.043143 0.090541 -0.267842
v -0.106566 0.173205 -0.426253
v -0.029712 0.173205 -0.462906
v -0.174887 0.296036 -0.573799
v -0.102880 0.296036 -0.590923
v -0.229619 0.461382 -0.621289
v -0.157612 0.461382 -0.638414
v -0.240207 0.690805 -0.517529
v -0.168199 0.690805 -0.534654
v -0.216001 0.879579 -0.342324
v -0.176353 0.879579 -0.351753
v 0.294701 0.094651 -0.025132
v 0.277622 0.089451 -0.277381
v 0.220541 0.083536 -0.025132
v 0.195681 0.077171 -0.258790
v 0.164720 0.156118 -0.336452
v 0.243757 0.167963 -0.358843
v 0.108277 0.271861 -0.483430
v 0.180928 0.282749 -0.491973
v 0.035309 0.428119 -0.537040
v 0.107960 0.439007 -0.545583
v -0.020688 0.651711 -0.435217
v 0.051962 0.662599 -0.443760
v -0.044464 0.839030 -0.258333
v -0.004462 0.845025 -0.263037
v -0.499260 0.121022 0.176204
v -0.422092 0.104534 0.025132
v -0.424102 0.104964 0.212857
v -0.346935 0.088477 0.025132
v -0.589493 0.239538 0.334615
v -0.514335 0.223481 0.371268
v -0.665140 0.361609 0.482997
v -0.589982 0.345552 0.519650
v -0.678063 0.538434 0.513936
v -0.602905 0.522377 0.550589
v -0.621999 0.769897 0.435029
v -0.546841 0.753840 0.471682
v -0.493177 0.881774 0.309723
v -0.437928 0.869970 0.336666
v 0.100000 0.047148 0.025132
v 0.033712 0.090542 0.304495
v -0.260442 0.078858 0.267842
v -0.155820 0.039148 0.025132
v -0.183588 0.078858 0.304495
v -0.078966 0.039148 0.025132
v -0.340661 0.182881 0.426253
v -0.263807 0.182881 0.462906
v -0.425276 0.284353 0.574634
v -0.348422 0.284353 0.611288
v -0.468110 0.449700 0.605574
v -0.391256 0.449700 0.642227
v -0.456003 0.679122 0.501799
v -0.379149 0.679122 0.538452
v -0.388332 0.867896 0.338264
v -0.346015 0.867896 0.358446
v 0.023146 0.047148 0.025132
v -0.043142 0.090542 0.267842
v -0.106565 0.173206 0.426253
v -0.029711 0.173206 0.462906
v -0.174886 0.296037 0.573799
v -0.102879 0.296037 0.590923
v -0.229618 0.461383 0.621289
v -0.157611 0.461383 0.638413
v -0.240206 0.690806 0.517529
v -0.168198 0.690806 0.534653
v -0.216001 0.879580 0.342323
v -0.176352 0.879580 0.351752
v 0.294701 0.094651 0.025131
v 0.277623 0.089452 0.277380
v 0.220541 0.083536 0.025132
v 0.195682 0.077171 0.258790
v 0.164721 0.156118 0.336452
v 0.243758 0.167964 0.358842
v 0.108278 0.271862 0.483430
v 0.180929 0.282750 0.491972
v 0.035310 0.428120 0.537039
v 0.107961 0.439008 0.545582
v -0.020687 0.651712 0.435216
v 0.051963 0.662600 0.443759
v -0.044464 0.839031 0.258332
v -0.004461 0.845026 0.263036
vt 0.878214 0.845758
vt 0.817985 0.845758
vt 0.817985 0.808565
vt 0.878214 0.808565
vt 0.585437 0.964344
vt 0.585437 0.921345
vt 0.622630 0.921345
vt 0.622630 0.964344
vt 0.985800 0.055511
vt 0.985800 0.102926
vt 0.979131 0.092102
vt 0.338346 0.946477
vt 0.338346 0.900971
vt 0.375539 0.900971
vt 0.375539 0.946477
vt 0.663858 0.103090
vt 0.626664 0.103090
vt 0.626664 0.002693
vt 0.663858 0.002693
vt 0.560148 0.750269
vt 0.522955 0.750269
vt 0.522955 0.656184
vt 0.560148 0.656184
vt 0.472190 0.726030
vt 0.412950 0.726030
vt 0.412950 0.667738
vt 0.472190 0.667738
vt 0.115019 0.914965
vt 0.115019 0.964143
vt 0.107321 0.954105
vt 0.967907 0.382453
vt 0.967907 0.424538
vt 0.930713 0.424538
vt 0.930713 0.382453
vt 0.178311 0.979235
vt 0.178311 0.939346
vt 0.215504 0.939346
vt 0.215504 0.979235
vt 0.535587 0.101861
vt 0.535559 0.002693
vt 0.575435 0.003271
vt 0.575435 0.103668
vt 0.236062 0.724942
vt 0.305118 0.723308
vt 0.305118 0.767846
vt 0.235899 0.767027
vt 0.631554 0.373810
vt 0.668748 0.373810
vt 0.668748 0.472978
vt 0.631554 0.472978
vt 0.124100 0.666974
vt 0.124128 0.572889
vt 0.163989 0.574128
vt 0.163989 0.666973
vt 0.042572 0.781579
vt 0.042572 0.841808
vt 0.002696 0.841657
vt 0.002693 0.781388
vt 0.856610 0.005228
vt 0.875643 0.002693
vt 0.875643 0.124498
vt 0.856462 0.124403
vt 0.390933 0.836678
vt 0.399782 0.790069
vt 0.399782 0.846093
vt 0.338346 0.795913
vt 0.338346 0.737631
vt 0.385548 0.737626
vt 0.385548 0.795918
vt 0.469623 0.922597
vt 0.469623 0.971895
vt 0.461968 0.961744
vt 0.340269 0.895586
vt 0.338346 0.855109
vt 0.388175 0.855216
vt 0.388175 0.894815
vt 0.727606 0.868702
vt 0.717464 0.874266
vt 0.717464 0.825944
vt 0.727606 0.831509
vt 0.222849 0.882324
vt 0.178311 0.882314
vt 0.178311 0.835256
vt 0.222849 0.835246
vt 0.058038 0.671068
vt 0.118715 0.671057
vt 0.118715 0.727179
vt 0.058038 0.727168
vt 0.925328 0.385705
vt 0.925328 0.428705
vt 0.885600 0.427959
vt 0.885572 0.382453
vt 0.523060 0.588392
vt 0.580051 0.585036
vt 0.580051 0.650799
vt 0.522955 0.649069
vt 0.763431 0.813972
vt 0.772868 0.765709
vt 0.772868 0.822798
vt 0.671885 0.811143
vt 0.681320 0.762756
vt 0.681320 0.819879
vt 0.985989 0.002693
vt 0.985989 0.050126
vt 0.979131 0.039248
vt 0.472190 0.731415
vt 0.472190 0.778822
vt 0.465605 0.768021
vt 0.519265 0.517680
vt 0.534169 0.512738
vt 0.534169 0.559816
vt 0.519265 0.554873
vt 0.218068 0.930709
vt 0.178311 0.933961
vt 0.178340 0.888455
vt 0.218068 0.887709
vt 0.865919 0.643408
vt 0.828726 0.643408
vt 0.828726 0.583139
vt 0.865919 0.583139
vt 0.752433 0.095538
vt 0.715240 0.095538
vt 0.715240 0.002693
vt 0.752433 0.002693
vt 0.647346 0.892495
vt 0.687020 0.888360
vt 0.687020 0.932898
vt 0.647319 0.934580
vt 0.327912 0.684704
vt 0.332860 0.630381
vt 0.332860 0.699605
vt 0.565533 0.661152
vt 0.580010 0.656184
vt 0.580010 0.703313
vt 0.565533 0.698345
vt 0.801064 0.153366
vt 0.801064 0.207797
vt 0.797408 0.192935
vt 0.626169 0.378524
vt 0.626169 0.472821
vt 0.585554 0.472061
vt 0.585553 0.377725
vt 0.338508 0.730608
vt 0.338346 0.688523
vt 0.407565 0.687703
vt 0.407565 0.732241
vt 0.412950 0.857820
vt 0.455036 0.857810
vt 0.455036 0.904939
vt 0.412950 0.904929
vt 0.178311 0.781515
vt 0.226926 0.781465
vt 0.226926 0.829861
vt 0.178311 0.829811
vt 0.871304 0.637344
vt 0.876257 0.583139
vt 0.876257 0.652215
vt 0.881264 0.249195
vt 0.881028 0.140548
vt 0.899781 0.135586
vt 0.899781 0.255280
vt 0.966068 0.683543
vt 0.984449 0.677385
vt 0.984449 0.763248
vt 0.965880 0.757327
vt 0.641063 0.808465
vt 0.641063 0.863012
vt 0.637446 0.848035
vt 0.413528 0.790640
vt 0.412950 0.731415
vt 0.460152 0.731458
vt 0.460152 0.790697
vt 0.987848 0.492894
vt 0.987848 0.542820
vt 0.983349 0.532516
vt 0.802808 0.834095
vt 0.812416 0.828481
vt 0.812416 0.876902
vt 0.802808 0.871288
vt 0.692925 0.931125
vt 0.692898 0.889040
vt 0.732599 0.890722
vt 0.732599 0.935260
vt 0.180027 0.773535
vt 0.178311 0.713863
vt 0.226863 0.716339
vt 0.226863 0.776080
vt 0.385251 0.801303
vt 0.385251 0.849724
vt 0.338346 0.849675
vt 0.338346 0.801353
vt 0.716042 0.267473
vt 0.696661 0.267539
vt 0.696661 0.248111
vt 0.716042 0.248046
vt 0.461968 0.906969
vt 0.467575 0.857514
vt 0.467575 0.917212
vt 0.763119 0.833785
vt 0.772868 0.828183
vt 0.772868 0.876579
vt 0.763119 0.870978
vt 0.802808 0.931899
vt 0.808396 0.882287
vt 0.808396 0.942029
vt 0.987922 0.437738
vt 0.987922 0.487509
vt 0.983349 0.477365
vt 0.058038 0.798429
vt 0.098533 0.797231
vt 0.098533 0.853574
vt 0.058937 0.853281
vt 0.504829 0.619061
vt 0.515376 0.569551
vt 0.515376 0.628778
vt 0.580010 0.922851
vt 0.580010 0.971568
vt 0.572589 0.959297
vt 0.276499 0.532127
vt 0.276499 0.512684
vt 0.295871 0.512812
vt 0.295871 0.532255
vt 0.058616 0.732621
vt 0.105240 0.732564
vt 0.105240 0.791804
vt 0.058038 0.791846
vt 0.632060 0.806830
vt 0.585437 0.806835
vt 0.585437 0.748533
vt 0.632060 0.748538
vt 0.407565 0.626283
vt 0.407565 0.682306
vt 0.341802 0.682318
vt 0.341802 0.626271
vt 0.510615 0.926070
vt 0.510615 0.974779
vt 0.503262 0.962529
vt 0.510615 0.870064
vt 0.510615 0.920685
vt 0.502299 0.909067
vt 0.328506 0.624996
vt 0.235899 0.619282
vt 0.252113 0.586396
vt 0.328506 0.584362
vt 0.088842 0.407993
vt 0.088842 0.506882
vt 0.048747 0.500344
vt 0.048674 0.401860
vt 0.581017 0.092917
vt 0.580820 0.002693
vt 0.621279 0.006795
vt 0.621279 0.098325
vt 0.226863 0.707688
vt 0.186251 0.708478
vt 0.191688 0.623487
vt 0.226863 0.618377
vt 0.762449 0.408862
vt 0.762188 0.273328
vt 0.781367 0.273635
vt 0.781367 0.412170
vt 0.381539 0.905868
vt 0.400096 0.900971
vt 0.400096 0.982285
vt 0.380924 0.982285
vt 0.281972 0.632679
vt 0.322527 0.630381
vt 0.322527 0.716030
vt 0.281906 0.717923
vt 0.180726 0.002693
vt 0.180726 0.142428
vt 0.146299 0.129812
vt 0.140261 0.006286
vt 0.539554 0.378557
vt 0.580168 0.377725
vt 0.580168 0.475904
vt 0.539554 0.476736
vt 0.674215 0.460913
vt 0.674133 0.373810
vt 0.714742 0.375575
vt 0.714742 0.463694
vt 0.892540 0.681881
vt 0.911193 0.677385
vt 0.911193 0.781124
vt 0.891962 0.780363
vt 0.732497 0.671780
vt 0.692898 0.672000
vt 0.697213 0.586412
vt 0.732497 0.583139
vt 0.180726 0.271265
vt 0.140130 0.272728
vt 0.158373 0.148618
vt 0.180726 0.147813
vt 0.271114 0.146613
vt 0.271114 0.282148
vt 0.235360 0.274021
vt 0.231305 0.154915
vt 0.709855 0.003482
vt 0.709855 0.092793
vt 0.674679 0.087683
vt 0.669243 0.002693
vt 0.772868 0.685922
vt 0.772868 0.760323
vt 0.738506 0.752006
vt 0.738363 0.677385
vt 0.500402 0.004998
vt 0.530174 0.002693
vt 0.530174 0.102285
vt 0.489673 0.105421
vt 0.585633 0.487530
vt 0.625896 0.482121
vt 0.625896 0.573652
vt 0.585437 0.577754
vt 0.819908 0.851143
vt 0.867814 0.851914
vt 0.867814 0.891514
vt 0.817985 0.891620
vt 0.367688 0.279403
vt 0.407752 0.273328
vt 0.407752 0.386130
vt 0.372038 0.384050
vt 0.625035 0.654507
vt 0.625035 0.743148
vt 0.589752 0.739875
vt 0.585437 0.654287
vt 0.792023 0.162078
vt 0.792023 0.236603
vt 0.757679 0.228331
vt 0.757676 0.153366
vt 0.148747 0.886863
vt 0.167864 0.884440
vt 0.167864 0.974897
vt 0.148808 0.972513
vt 0.002693 0.501776
vt 0.002693 0.403260
vt 0.042994 0.408358
vt 0.042994 0.506875
vt 0.942074 0.683604
vt 0.960495 0.677385
vt 0.960495 0.770612
vt 0.941217 0.772241
vt 0.647323 0.751285
vt 0.647319 0.681751
vt 0.687513 0.687747
vt 0.687513 0.757371
vt 0.534169 0.396566
vt 0.534169 0.507353
vt 0.499182 0.502758
vt 0.499019 0.393033
vt 0.732978 0.751169
vt 0.692898 0.758051
vt 0.693007 0.684702
vt 0.732978 0.677385
vt 0.089115 0.392508
vt 0.048674 0.396475
vt 0.048811 0.287828
vt 0.089115 0.282744
vt 0.580051 0.485322
vt 0.580051 0.579651
vt 0.550291 0.577200
vt 0.539554 0.482121
vt 0.412950 0.660008
vt 0.412950 0.569551
vt 0.453505 0.571896
vt 0.453505 0.662353
vt 0.690279 0.948368
vt 0.707882 0.940645
vt 0.707882 0.995505
vt 0.688551 0.996249
vt 0.626169 0.367626
vt 0.585553 0.368425
vt 0.585554 0.274088
vt 0.626169 0.273328
vt 0.407565 0.618330
vt 0.367023 0.620886
vt 0.367023 0.526099
vt 0.407565 0.523543
vt 0.737886 0.589226
vt 0.778076 0.583139
vt 0.778076 0.652763
vt 0.737882 0.658759
vt 0.043051 0.393109
vt 0.002693 0.397874
vt 0.002788 0.287336
vt 0.043051 0.281952
vt 0.362719 0.123017
vt 0.322110 0.124022
vt 0.340366 0.003513
vt 0.362719 0.002693
vt 0.100449 0.015308
vt 0.134876 0.002693
vt 0.134876 0.142428
vt 0.094411 0.138834
vt 0.942353 0.891151
vt 0.941203 0.803039
vt 0.960458 0.803237
vt 0.960458 0.898024
vt 0.236481 0.779190
vt 0.255036 0.773232
vt 0.255036 0.893501
vt 0.235899 0.890346
vt 0.271070 0.529369
vt 0.235899 0.532969
vt 0.236065 0.423228
vt 0.271070 0.418565
vt 0.129869 0.517430
vt 0.094603 0.519257
vt 0.110470 0.398399
vt 0.129869 0.397092
vt 0.276520 0.632274
vt 0.276520 0.717923
vt 0.235966 0.715625
vt 0.235899 0.630381
vt 0.831956 0.006143
vt 0.851077 0.002693
vt 0.851077 0.126107
vt 0.831708 0.126481
vt 0.134668 0.268082
vt 0.094411 0.273520
vt 0.094411 0.153251
vt 0.134668 0.147813
vt 0.512079 0.742139
vt 0.477575 0.750677
vt 0.477717 0.676055
vt 0.512079 0.667738
vt 0.534169 0.384115
vt 0.499019 0.387648
vt 0.499182 0.277923
vt 0.534169 0.273328
vt 0.175375 0.519779
vt 0.140130 0.521496
vt 0.155988 0.400667
vt 0.175375 0.399420
vt 0.084235 0.946049
vt 0.082680 0.858959
vt 0.101935 0.859163
vt 0.101935 0.953950
vt 0.493634 0.377068
vt 0.453506 0.383383
vt 0.453506 0.279644
vt 0.493634 0.273328
vt 0.186251 0.411748
vt 0.226552 0.406649
vt 0.226552 0.505165
vt 0.186251 0.510264
vt 0.631554 0.280424
vt 0.671552 0.273328
vt 0.671552 0.359192
vt 0.631554 0.366287
vt 0.226552 0.291500
vt 0.226552 0.401264
vt 0.186248 0.396180
vt 0.186111 0.287533
vt 0.530083 0.145346
vt 0.530083 0.244938
vt 0.500311 0.242633
vt 0.489582 0.142210
vt 0.672048 0.144990
vt 0.712575 0.142210
vt 0.712575 0.230329
vt 0.671966 0.232094
vt 0.054647 0.015439
vt 0.089026 0.002693
vt 0.089026 0.146267
vt 0.048552 0.142801
vt 0.535496 0.144017
vt 0.575344 0.142210
vt 0.575344 0.242607
vt 0.535468 0.243185
vt 0.004408 0.716331
vt 0.051245 0.713786
vt 0.051245 0.773527
vt 0.002693 0.776003
vt 0.676937 0.279259
vt 0.717124 0.273328
vt 0.717124 0.356142
vt 0.676937 0.362073
vt 0.449233 0.262429
vt 0.449233 0.142210
vt 0.484197 0.146950
vt 0.484197 0.267169
vt 0.786819 0.561494
vt 0.786479 0.437821
vt 0.805658 0.437738
vt 0.805658 0.565246
vt 0.190152 0.011063
vt 0.225850 0.002693
vt 0.225850 0.141228
vt 0.186111 0.132802
vt 0.905899 0.008285
vt 0.924476 0.002693
vt 0.924476 0.103687
vt 0.905166 0.103965
vt 0.717960 0.150476
vt 0.752291 0.142210
vt 0.752291 0.228337
vt 0.717960 0.236603
vt 0.408865 0.147017
vt 0.443848 0.142210
vt 0.443848 0.262443
vt 0.408865 0.267250
vt 0.403339 0.126107
vt 0.368104 0.128426
vt 0.383938 0.003969
vt 0.403339 0.002693
vt 0.585542 0.645546
vt 0.585437 0.584869
vt 0.642533 0.583139
vt 0.642533 0.648902
vt 0.316725 0.122387
vt 0.276358 0.126942
vt 0.276359 0.007248
vt 0.316725 0.002693
vt 0.124366 0.886830
vt 0.143362 0.884029
vt 0.143362 0.974486
vt 0.124245 0.972074
vt 0.756803 0.359487
vt 0.722509 0.367787
vt 0.722509 0.281628
vt 0.756803 0.273328
vt 0.449324 0.007433
vt 0.484288 0.002693
vt 0.484288 0.122911
vt 0.449324 0.127651
vt 0.402954 0.393342
vt 0.402954 0.513680
vt 0.383555 0.512373
vt 0.367688 0.391516
vt 0.332943 0.578977
vt 0.235899 0.574403
vt 0.251683 0.541308
vt 0.332943 0.538354
vt 0.316667 0.501167
vt 0.276499 0.507299
vt 0.276573 0.408815
vt 0.316667 0.402278
vt 0.271114 0.410969
vt 0.235899 0.413180
vt 0.251724 0.288750
vt 0.271114 0.287533
vt 0.175375 0.526882
vt 0.175375 0.567504
vt 0.083967 0.562287
vt 0.078158 0.527457
vt 0.316865 0.151168
vt 0.316865 0.270863
vt 0.276499 0.266308
vt 0.276499 0.146613
vt 0.758229 0.142427
vt 0.757818 0.002693
vt 0.776996 0.002954
vt 0.776996 0.146528
vt 0.499444 0.660008
vt 0.458890 0.662353
vt 0.458890 0.571896
vt 0.499444 0.569551
vt 0.497527 0.112382
vt 0.610318 0.110806
vt 0.610318 0.129978
vt 0.489673 0.129936
vt 0.580168 0.274160
vt 0.580168 0.372340
vt 0.539554 0.371508
vt 0.539554 0.273328
vt 0.226793 0.518205
vt 0.226793 0.612992
vt 0.186251 0.610436
vt 0.186251 0.515649
vt 0.585888 0.816193
vt 0.604664 0.812220
vt 0.604664 0.915960
vt 0.585437 0.915081
vt 0.048674 0.271921
vt 0.048674 0.151652
vt 0.088930 0.157090
vt 0.088930 0.277359
vt 0.043288 0.153115
vt 0.043288 0.276567
vt 0.020936 0.275762
vt 0.002693 0.151652
vt 0.543751 0.267482
vt 0.535468 0.249955
vt 0.633975 0.248571
vt 0.633975 0.267819
vt 0.510167 0.564165
vt 0.412950 0.563590
vt 0.418759 0.528760
vt 0.510167 0.523543
vt 0.722236 0.568281
vt 0.722236 0.482121
vt 0.756529 0.490421
vt 0.756529 0.576580
vt 0.013429 0.514711
vt 0.043190 0.512260
vt 0.043190 0.606588
vt 0.002693 0.609789
vt 0.448121 0.407355
vt 0.448121 0.518158
vt 0.413116 0.513495
vt 0.412950 0.403754
vt 0.412950 0.851227
vt 0.413849 0.796375
vt 0.453445 0.796082
vt 0.453445 0.852425
vt 0.322250 0.279415
vt 0.362303 0.273328
vt 0.362303 0.393973
vt 0.326614 0.391475
vt 0.687513 0.583139
vt 0.687513 0.676366
vt 0.652442 0.672497
vt 0.647919 0.583553
vt 0.587505 0.156418
vt 0.621306 0.142210
vt 0.621306 0.239361
vt 0.580729 0.237449
vt 0.042287 0.708401
vt 0.002693 0.707987
vt 0.007216 0.619043
vt 0.042287 0.615174
vt 0.443939 0.004903
vt 0.443939 0.128339
vt 0.424549 0.127122
vt 0.408724 0.002693
vt 0.236479 0.975304
vt 0.235864 0.898886
vt 0.255036 0.898886
vt 0.255036 0.980200
vt 0.357495 0.401075
vt 0.357495 0.521434
vt 0.338108 0.520187
vt 0.322250 0.399358
vt 0.886150 0.372571
vt 0.885572 0.274089
vt 0.904803 0.273328
vt 0.904803 0.377068
vt 0.493634 0.395084
vt 0.493634 0.498823
vt 0.453506 0.492508
vt 0.453506 0.388769
vt 0.338532 0.614295
vt 0.338365 0.529131
vt 0.357495 0.526819
vt 0.357495 0.618376
vt 0.911317 0.645753
vt 0.909712 0.555543
vt 0.928958 0.555273
vt 0.928958 0.653789
vt 0.819023 0.975291
vt 0.817985 0.901949
vt 0.836838 0.897006
vt 0.836838 0.982869
vt 0.866641 0.903138
vt 0.885210 0.897006
vt 0.885210 0.983165
vt 0.866462 0.978104
vt 0.502222 0.761020
vt 0.516811 0.756062
vt 0.516811 0.803171
vt 0.502222 0.798213
vt 0.862021 0.386534
vt 0.860969 0.276000
vt 0.880186 0.273328
vt 0.880186 0.393597
vt 0.691276 0.237677
vt 0.691276 0.267539
vt 0.671966 0.267340
vt 0.671966 0.237479
vt 0.905893 0.229912
vt 0.905166 0.135586
vt 0.924475 0.135885
vt 0.924475 0.235477
vt 0.164180 0.679242
vt 0.164180 0.753025
vt 0.124209 0.745709
vt 0.124100 0.672359
vt 0.818323 0.681296
vt 0.837327 0.677385
vt 0.837327 0.802828
vt 0.817985 0.803180
vt 0.762175 0.441046
vt 0.781093 0.437738
vt 0.781093 0.576274
vt 0.761915 0.576580
vt 0.276499 0.390806
vt 0.280863 0.278746
vt 0.316551 0.276248
vt 0.316551 0.396893
vt 0.049085 0.516368
vt 0.067851 0.512267
vt 0.067851 0.655841
vt 0.048674 0.656102
vt 0.310751 0.726771
vt 0.329881 0.723308
vt 0.329881 0.846745
vt 0.310504 0.847129
vt 0.003066 0.850729
vt 0.021946 0.847193
vt 0.021946 0.945372
vt 0.002693 0.945026
vt 0.935966 0.280201
vt 0.954072 0.273328
vt 0.954072 0.368115
vt 0.934816 0.368313
vt 0.084893 0.587046
vt 0.118715 0.572889
vt 0.118715 0.665671
vt 0.078158 0.663169
vt 0.413677 0.985718
vt 0.412950 0.916098
vt 0.431566 0.910324
vt 0.431566 0.993138
vt 0.979084 0.211494
vt 0.979002 0.141961
vt 0.997307 0.135586
vt 0.997307 0.218400
vt 0.524333 0.763538
vt 0.542228 0.755654
vt 0.542228 0.875873
vt 0.522955 0.873255
vt 0.311446 0.943161
vt 0.310504 0.853854
vt 0.329726 0.852515
vt 0.329726 0.949733
vt 0.615703 0.133173
vt 0.615703 0.110806
vt 0.635047 0.111026
vt 0.635047 0.133394
vt 0.811852 0.395212
vt 0.811514 0.273328
vt 0.830856 0.273681
vt 0.830856 0.399123
vt 0.094603 0.385632
vt 0.098953 0.280985
vt 0.134668 0.278905
vt 0.134668 0.391707
vt 0.856610 0.254856
vt 0.856462 0.135681
vt 0.875643 0.135586
vt 0.875643 0.257392
vt 0.413138 0.393562
vt 0.413138 0.273328
vt 0.448121 0.278135
vt 0.448121 0.398369
vt 0.523122 0.885339
vt 0.542085 0.881258
vt 0.542085 0.972815
vt 0.522955 0.970503
vt 0.693559 0.877386
vt 0.692898 0.766601
vt 0.712079 0.763436
vt 0.712079 0.883655
vt 0.437678 0.917744
vt 0.455567 0.910324
vt 0.455567 0.993138
vt 0.436951 0.987365
vt 0.960496 0.351767
vt 0.959457 0.277373
vt 0.978457 0.273328
vt 0.978457 0.359455
vt 0.478958 0.868412
vt 0.477575 0.758680
vt 0.496837 0.756062
vt 0.496837 0.876295
vt 0.778918 0.772274
vt 0.797423 0.766007
vt 0.797423 0.886240
vt 0.778253 0.883076
vt 0.688554 0.128040
vt 0.669243 0.128238
vt 0.669243 0.098377
vt 0.688554 0.098178
vt 0.807279 0.124557
vt 0.806945 0.002693
vt 0.826322 0.003081
vt 0.826322 0.128513
vt 0.027698 0.941870
vt 0.027332 0.847534
vt 0.046585 0.847193
vt 0.046585 0.945372
vt 0.917618 0.809640
vt 0.935817 0.803039
vt 0.935817 0.901555
vt 0.916575 0.901164
vt 0.150363 0.766258
vt 0.167920 0.758411
vt 0.167920 0.879055
vt 0.148747 0.879048
vt 0.886594 0.542465
vt 0.885155 0.437738
vt 0.904327 0.437742
vt 0.904327 0.549887
vt 0.043167 0.002693
vt 0.043167 0.146267
vt 0.008788 0.133520
vt 0.002693 0.006158
vt 0.910439 0.443303
vt 0.929021 0.437738
vt 0.929021 0.537330
vt 0.909712 0.537629
vt 0.955326 0.091329
vt 0.954469 0.002693
vt 0.973746 0.004322
vt 0.973746 0.097549
vt 0.843262 0.904584
vt 0.861077 0.897006
vt 0.861077 0.982869
vt 0.842224 0.977926
vt 0.286557 0.904416
vt 0.305118 0.898311
vt 0.305118 0.984438
vt 0.286488 0.979037
vt 0.548991 0.867989
vt 0.547613 0.758273
vt 0.566886 0.755654
vt 0.566886 0.875873
vt 0.647980 0.769025
vt 0.666500 0.762756
vt 0.666500 0.882975
vt 0.647319 0.879810
vt 0.693939 0.128172
vt 0.693939 0.108745
vt 0.713320 0.108810
vt 0.713320 0.128238
vt 0.180488 0.282878
vt 0.180488 0.394035
vt 0.140225 0.388651
vt 0.140130 0.278113
vt 0.916952 0.772028
vt 0.916578 0.677731
vt 0.935832 0.677385
vt 0.935832 0.775564
vt 0.676664 0.564936
vt 0.676664 0.482121
vt 0.716851 0.488052
vt 0.716851 0.570866
vt 0.934831 0.648054
vt 0.934343 0.555273
vt 0.953515 0.555273
vt 0.953515 0.652424
vt 0.477945 0.885885
vt 0.496903 0.881680
vt 0.496903 0.970739
vt 0.477575 0.971580
vt 0.892413 0.902806
vt 0.891962 0.803918
vt 0.911190 0.803039
vt 0.911190 0.906778
vt 0.911231 0.365244
vt 0.910188 0.273719
vt 0.929431 0.273328
vt 0.929431 0.371844
vt 0.812600 0.751910
vt 0.778253 0.760621
vt 0.778255 0.685656
vt 0.812600 0.677385
vt 0.779328 0.970069
vt 0.778253 0.895552
vt 0.797294 0.891625
vt 0.797294 0.977784
vt 0.966031 0.974257
vt 0.965843 0.900473
vt 0.984412 0.894551
vt 0.984412 0.980415
vt 0.881265 0.008778
vt 0.899781 0.002693
vt 0.899781 0.122387
vt 0.881028 0.117424
vt 0.286307 0.887826
vt 0.286329 0.778062
vt 0.305118 0.773232
vt 0.305118 0.892926
vt 0.658704 0.267598
vt 0.639360 0.267819
vt 0.639360 0.245451
vt 0.658704 0.245231
vt 0.671279 0.489217
vt 0.671279 0.575080
vt 0.631281 0.567985
vt 0.631281 0.482121
vt 0.613484 0.907900
vt 0.612751 0.812220
vt 0.632060 0.812499
vt 0.632060 0.913493
vt 0.958900 0.643307
vt 0.958960 0.557657
vt 0.978017 0.555273
vt 0.978017 0.645730
vt 0.934895 0.442108
vt 0.953578 0.437738
vt 0.953578 0.534889
vt 0.934406 0.534889
vt 0.782722 0.006445
vt 0.801560 0.002693
vt 0.801560 0.130200
vt 0.782381 0.130118
vt 0.807281 0.257480
vt 0.806945 0.135586
vt 0.826315 0.135972
vt 0.826315 0.261432
vt 0.930227 0.139088
vt 0.949114 0.135586
vt 0.949114 0.233765
vt 0.929861 0.233424
vt 0.362859 0.147619
vt 0.362859 0.267943
vt 0.340507 0.267123
vt 0.322250 0.146613
vt 0.648661 0.989776
vt 0.647319 0.939966
vt 0.666664 0.940191
vt 0.666664 0.996534
vt 0.059594 0.866860
vt 0.077294 0.858959
vt 0.077294 0.953746
vt 0.058038 0.953949
vt 0.892044 0.919069
vt 0.910267 0.912163
vt 0.910267 0.994978
vt 0.891962 0.988602
vt 0.960002 0.445426
vt 0.977964 0.437738
vt 0.977964 0.523865
vt 0.958963 0.519821
vt 0.861604 0.444802
vt 0.879769 0.437738
vt 0.879769 0.558007
vt 0.860552 0.555336
vt 0.868022 0.791695
vt 0.867440 0.680540
vt 0.886576 0.677385
vt 0.886576 0.797654
vt 0.666580 0.236295
vt 0.626692 0.236282
vt 0.626719 0.143437
vt 0.666580 0.142210
vt 0.403480 0.144529
vt 0.403480 0.267943
vt 0.384078 0.266666
vt 0.368244 0.142210
vt 0.842969 0.797709
vt 0.842712 0.677385
vt 0.862054 0.677708
vt 0.862054 0.801160
vt 0.836498 0.276779
vt 0.855584 0.273328
vt 0.855584 0.396780
vt 0.836241 0.397104
vt 0.954621 0.223243
vt 0.954499 0.137998
vt 0.973617 0.135586
vt 0.973617 0.226043
vt 0.886594 0.562695
vt 0.904327 0.555273
vt 0.904327 0.667417
vt 0.885155 0.667422
vt 0.930803 0.009265
vt 0.949084 0.002693
vt 0.949084 0.099911
vt 0.929861 0.098572
vt 0.965913 0.883061
vt 0.965843 0.808440
vt 0.984474 0.803039
vt 0.984474 0.889166
vt 0.682158 0.868009
vt 0.671885 0.873561
vt 0.671885 0.825264
vt 0.682158 0.830816
vt 0.390933 0.779752
vt 0.390933 0.742558
vt 0.405811 0.737626
vt 0.405811 0.784684
vt 0.260421 0.778332
vt 0.279232 0.773232
vt 0.279232 0.892926
vt 0.260443 0.888096
vt 0.640432 0.110934
vt 0.659804 0.110806
vt 0.659804 0.130249
vt 0.640432 0.130377
vt 0.811379 0.441690
vt 0.830412 0.437738
vt 0.830412 0.563198
vt 0.811043 0.563584
vt 0.836046 0.558076
vt 0.835797 0.437738
vt 0.855167 0.438112
vt 0.855167 0.561527
vt 0.974633 0.374727
vt 0.992637 0.367970
vt 0.992637 0.424312
vt 0.973292 0.424538
vt 0.270973 0.002693
vt 0.270973 0.141228
vt 0.235276 0.132858
vt 0.231235 0.011119
vt 0.720128 0.459937
vt 0.720128 0.373810
vt 0.754458 0.382076
vt 0.754458 0.468203
vt 0.714996 0.988526
vt 0.713268 0.940645
vt 0.732599 0.941389
vt 0.732599 0.996249
vt 0.547983 0.966954
vt 0.547613 0.881258
vt 0.566941 0.882099
vt 0.566941 0.971158
vt 0.190166 0.154740
vt 0.225920 0.146613
vt 0.225920 0.282148
vt 0.186111 0.273846
vt 0.260600 0.978338
vt 0.260421 0.903372
vt 0.279168 0.898311
vt 0.279168 0.984470
vt 0.739439 0.899042
vt 0.757405 0.891327
vt 0.757405 0.977486
vt 0.738363 0.973559
vt 0.125483 0.766294
vt 0.143362 0.758411
vt 0.143362 0.878644
vt 0.124100 0.876026
vt 0.739028 0.879674
vt 0.738363 0.768873
vt 0.757534 0.765709
vt 0.757534 0.885942
vt 0.823340 0.643368
vt 0.783461 0.643559
vt 0.783465 0.583290
vt 0.823340 0.583139
vt 0.787085 0.277284
vt 0.806129 0.273328
vt 0.806129 0.398760
vt 0.786752 0.399149
vt 0.831948 0.255944
vt 0.831700 0.135586
vt 0.851077 0.135971
vt 0.851077 0.259406
vt 0.103918 0.806685
vt 0.112419 0.797231
vt 0.112419 0.853331
vt 0.802808 0.774833
vt 0.812245 0.766007
vt 0.812245 0.823096
vt 0.230390 0.935150
vt 0.223453 0.898609
vt 0.230390 0.887709
vt 0.717464 0.772173
vt 0.726899 0.763436
vt 0.726899 0.820559
vt 0.118324 0.781742
vt 0.110625 0.742602
vt 0.118324 0.732564
vt 0.635670 0.970643
vt 0.628015 0.931495
vt 0.635670 0.921345
vt 0.458830 0.805509
vt 0.467575 0.796082
vt 0.467575 0.852129
vt 0.502222 0.818021
vt 0.510615 0.808556
vt 0.510615 0.864679
vt 0.641063 0.803080
vt 0.637446 0.763510
vt 0.641063 0.748533
vt 0.575061 0.798179
vt 0.580014 0.783308
vt 0.580014 0.852384
vt 0.801064 0.267613
vt 0.797408 0.228045
vt 0.801064 0.213182
vt 0.575061 0.723600
vt 0.580010 0.708698
vt 0.580010 0.777922
vt 0.763119 0.892094
vt 0.768707 0.881964
vt 0.768707 0.941706
vt 0.052531 0.831160
vt 0.047957 0.791533
vt 0.052531 0.781388
vt 0.987901 0.605198
vt 0.983402 0.565576
vt 0.987901 0.555273
vt 0.574403 0.868012
vt 0.580010 0.857769
vt 0.580010 0.917466
vt 0.115636 0.909580
vt 0.107321 0.870577
vt 0.115636 0.858959
vt 0.170201 0.648046
vt 0.179921 0.637502
vt 0.179921 0.695783
vt 0.630420 0.664842
vt 0.640050 0.654287
vt 0.640050 0.712590
vt 0.169374 0.582606
vt 0.179921 0.572889
vt 0.179921 0.632116
vt 0.916575 0.906940
vt 0.953768 0.906940
vt 0.953768 0.951478
vt 0.916575 0.951478
vn -0.1420 0.9899 -0.0000
vn 0.0012 1.0000 -0.0000
vn -0.9861 0.1659 0.0000
vn -0.0006 -1.0000 0.0000
vn -0.2530 -0.9675 0.0000
vn -0.1163 0.9932 -0.0000
vn -0.9675 0.2531 0.0000
vn 0.9938 -0.0825 0.0741
vn 0.9933 0.1159 -0.0000
vn 0.0000 0.0000 1.0000
vn -0.0000 -0.0004 -1.0000
vn 0.0003 -0.0006 -1.0000
vn -0.0003 -0.0002 -1.0000
vn 0.2533 0.9674 -0.0000
vn -0.9628 0.0306 0.2684
vn -0.9628 0.0307 0.2684
vn -0.9665 -0.0057 0.2566
vn 0.9864 -0.1644 -0.0000
vn -0.2539 -0.9672 0.0000
vn -0.9772 0.2087 -0.0393
vn 0.0477 0.7095 0.7031
vn 0.0992 0.6910 0.7160
vn 0.9781 0.2083 -0.0000
vn -0.0000 -1.0000 0.0000
vn 0.1677 0.9858 -0.0000
vn -0.0000 -0.0000 -1.0000
vn -0.0001 -0.0007 -1.0000
vn 0.9927 -0.1076 0.0537
vn -0.9802 0.1956 -0.0295
vn -0.9864 0.1644 0.0000
vn 0.9861 -0.1659 -0.0000
vn -1.0000 0.0006 0.0000
vn 0.1420 -0.9899 0.0000
vn 0.1160 -0.9933 0.0000
vn -0.9994 0.0118 -0.0340
vn 1.0000 -0.0012 -0.0000
vn 0.9914 0.0414 0.1242
vn 0.2190 0.8608 -0.4594
vn 0.2239 0.8630 -0.4530
vn 0.2241 0.8580 -0.4622
vn 0.0000 -0.0004 1.0000
vn -0.0003 -0.0002 1.0000
vn 0.0039 1.0000 -0.0000
vn 0.2162 -0.9763 0.0000
vn 0.9971 0.0235 0.0727
vn 0.9307 -0.0929 0.3539
vn 0.9062 -0.0778 0.4156
vn 0.9062 -0.0778 0.4155
vn -0.8616 0.0257 -0.5070
vn -0.8615 0.0258 -0.5070
vn -0.9164 -0.0273 -0.3992
vn -0.9983 0.0199 -0.0552
vn -0.0000 -0.0001 -1.0000
vn 0.9838 0.1449 -0.1053
vn -0.9781 -0.2083 0.0000
vn -0.0006 -0.0009 1.0000
vn -0.0008 -0.0012 1.0000
vn 0.0006 0.0004 1.0000
vn 0.0008 0.0007 1.0000
vn -0.2195 0.9756 -0.0000
vn -0.0340 0.7476 0.6633
vn -0.9825 -0.1368 -0.1261
vn 0.9786 0.2057 -0.0000
vn 0.9831 0.1658 -0.0778
vn -0.9786 -0.1014 -0.1792
vn -0.0458 -0.7287 0.6833
vn -0.0889 -0.7160 0.6924
vn 0.9692 -0.2457 0.0149
vn 0.9698 -0.2436 0.0090
vn 0.9695 -0.2449 0.0025
vn 0.9674 -0.2532 -0.0063
vn 0.9662 -0.2577 0.0046
vn 0.9660 -0.2585 -0.0034
vn 0.1546 0.7441 -0.6500
vn -0.0000 -0.0001 1.0000
vn 0.2542 0.9671 -0.0000
vn -0.1659 -0.9861 0.0000
vn 0.9674 -0.2533 -0.0000
vn 0.9709 -0.2389 0.0135
vn 0.2089 0.9779 0.0057
vn 0.2027 0.9792 0.0058
vn 0.3786 0.8291 -0.4114
vn 0.3778 0.8293 -0.4116
vn 0.3801 0.8286 -0.4111
vn 0.3809 0.8283 -0.4109
vn 0.3758 0.8102 -0.4497
vn 0.3900 0.8050 -0.4470
vn 0.2745 0.7702 0.5757
vn 0.1279 0.7966 0.5908
vn 0.9746 0.0001 -0.2241
vn 0.9746 0.0002 -0.2241
vn 0.9702 -0.0475 -0.2376
vn -0.8664 0.1817 0.4652
vn -0.8696 0.1718 0.4629
vn -0.8686 0.1749 0.4637
vn -0.8653 0.1849 0.4659
vn 0.1877 0.8992 -0.3953
vn 0.1880 0.8992 -0.3950
vn 0.1873 0.8991 -0.3957
vn 0.0000 0.9905 -0.1374
vn 0.0630 0.9893 -0.1317
vn -0.2176 -0.8628 0.4563
vn -0.2163 -0.8646 0.4536
vn -0.2144 -0.8628 0.4578
vn 0.2030 0.8702 -0.4489
vn 0.2044 0.8678 -0.4529
vn 0.2154 0.8658 -0.4516
vn 0.2062 0.8651 -0.4572
vn 0.8149 -0.1335 -0.5641
vn 0.8148 -0.1336 -0.5641
vn 0.8297 -0.0883 -0.5512
vn 0.0625 0.7740 0.6301
vn -0.0536 0.7804 0.6230
vn -0.3142 0.6835 0.6589
vn -0.0000 0.9885 -0.1511
vn 0.0752 0.9851 -0.1544
vn 0.0751 0.9851 -0.1544
vn 0.1279 0.7966 -0.5908
vn 0.2745 0.7702 -0.5757
vn 0.1990 0.3444 -0.9175
vn 0.1991 0.3444 -0.9175
vn 0.2293 0.3388 -0.9125
vn -0.1179 0.7979 -0.5912
vn 0.3900 0.8050 0.4470
vn 0.3758 0.8102 0.4497
vn 0.0992 0.6910 -0.7160
vn 0.0478 0.7095 -0.7031
vn 0.0477 0.7095 -0.7031
vn -0.1483 0.9886 0.0252
vn -0.0536 0.7804 -0.6230
vn 0.0625 0.7740 -0.6301
vn 0.0377 0.3546 -0.9342
vn 0.0661 0.3537 -0.9330
vn 0.9283 0.0011 0.3719
vn 0.9290 0.0034 0.3702
vn 0.9287 0.0026 0.3708
vn 0.9280 0.0003 0.3725
vn -0.3931 -0.7983 -0.4563
vn -0.9557 -0.2256 0.1894
vn -0.9556 -0.2256 0.1894
vn -0.9526 -0.1766 0.2477
vn -0.9526 -0.1766 0.2478
vn 0.4057 0.2698 -0.8733
vn 0.4248 0.2619 -0.8666
vn 0.1616 -0.3810 -0.9104
vn 0.1825 -0.3811 -0.9063
vn 0.4744 0.1719 0.8633
vn 0.4744 0.1719 0.8634
vn 0.4557 0.1835 0.8710
vn 0.4558 0.1834 0.8710
vn 0.3420 -0.3765 0.8610
vn 0.3461 -0.3786 0.8584
vn 0.3450 -0.3780 0.8591
vn 0.3410 -0.3759 0.8616
vn 0.1137 -0.8023 0.5860
vn 0.1142 -0.8023 0.5859
vn 0.1133 -0.8023 0.5861
vn -0.1880 -0.8996 0.3942
vn -0.9608 -0.1438 -0.2368
vn -0.9601 -0.1595 -0.2296
vn 0.2190 0.8608 0.4594
vn -0.2217 -0.8573 0.4646
vn -0.2235 -0.8591 0.4604
vn -0.2203 -0.8591 0.4619
vn 0.4248 0.2619 0.8666
vn 0.4057 0.2698 0.8733
vn 0.3948 -0.4014 0.8265
vn 0.4029 -0.4033 0.8216
vn 0.4007 -0.4028 0.8230
vn 0.3926 -0.4009 0.8278
vn 0.3144 -0.6851 0.6571
vn 0.3154 -0.6852 0.6565
vn 0.3148 -0.6852 0.6569
vn 0.3137 -0.6850 0.6575
vn 0.0000 0.9905 0.1374
vn 0.0630 0.9893 0.1317
vn 0.8770 0.0427 -0.4787
vn 0.8770 0.0426 -0.4787
vn 0.8851 0.0638 -0.4611
vn -0.9062 -0.1336 -0.4012
vn -0.9062 -0.1336 -0.4011
vn -0.9318 -0.1176 -0.3433
vn 0.2296 -0.4037 0.8856
vn 0.2095 -0.4004 0.8920
vn 0.1696 -0.6836 0.7099
vn 0.1715 -0.6837 0.7093
vn 0.1706 -0.6837 0.7096
vn 0.1689 -0.6835 0.7101
vn 0.1881 0.8993 0.3949
vn 0.1883 0.8993 0.3947
vn 0.1874 0.8991 0.3957
vn 0.1870 0.8990 0.3960
vn -0.9817 -0.0470 -0.1846
vn -0.9804 -0.0509 -0.1903
vn -0.9809 -0.0495 -0.1883
vn -0.9822 -0.0455 -0.1825
vn -0.3953 0.3958 0.8289
vn 0.2293 0.3388 0.9125
vn 0.1990 0.3444 0.9175
vn 0.1991 0.3444 0.9175
vn 0.1825 -0.3811 0.9063
vn 0.1616 -0.3810 0.9104
vn 0.1856 -0.6637 0.7246
vn 0.1874 -0.6636 0.7243
vn 0.1869 -0.6636 0.7243
vn 0.1847 -0.6638 0.7248
vn -0.8766 -0.0432 -0.4794
vn -0.8765 -0.0432 -0.4794
vn -0.8860 -0.0682 -0.4586
vn -0.3766 -0.8318 0.4078
vn -0.3931 -0.7983 0.4563
vn -0.4625 -0.1855 0.8670
vn 0.3420 -0.3765 -0.8610
vn 0.3410 -0.3759 -0.8616
vn 0.3450 -0.3780 -0.8591
vn 0.3461 -0.3786 -0.8584
vn -0.1179 0.7979 0.5912
vn 0.2064 0.8675 0.4527
vn 0.2154 0.8658 0.4516
vn 0.2134 0.8662 0.4519
vn 0.2044 0.8678 0.4529
vn -0.0000 -0.9900 0.1407
vn -0.0640 -0.9889 0.1342
vn -0.0006 -0.0009 -1.0000
vn 0.0008 0.0007 -1.0000
vn 0.0007 0.0006 -1.0000
vn -0.0007 -0.0011 -1.0000
vn -0.4145 -0.2700 0.8691
vn -0.1635 0.3747 -0.9126
vn -0.9207 -0.0258 -0.3895
vn -0.9187 -0.0075 -0.3948
vn 0.0000 -0.9882 0.1535
vn -0.0743 -0.9850 0.1558
vn -0.7910 0.3450 -0.5052
vn -0.7795 0.3063 -0.5464
vn -0.2180 -0.3354 0.9165
vn -0.2126 0.3945 0.8940
vn -0.1692 0.6820 0.7115
vn -0.0001 -0.0007 1.0000
vn -0.3400 0.3762 0.8619
vn -0.9289 -0.0032 -0.3703
vn -0.0579 -0.3480 0.9357
vn -0.1635 0.3747 0.9126
vn 0.1695 -0.6836 -0.7099
vn 0.1689 -0.6835 -0.7101
vn 0.1706 -0.6837 -0.7096
vn 0.1715 -0.6837 -0.7093
vn -0.2089 -0.9779 0.0000
vn 0.3785 0.8291 0.4114
vn 0.3809 0.8283 0.4109
vn 0.3802 0.8286 0.4111
vn 0.3778 0.8293 0.4116
vn -0.1846 0.6623 0.7262
vn -0.2760 -0.7675 0.5786
vn -0.1413 -0.7920 0.5939
vn -0.3400 0.3762 -0.8619
vn 0.9386 0.0187 -0.3446
vn 0.9360 -0.0094 -0.3519
vn -0.1880 -0.8996 -0.3942
vn 0.9872 0.1485 -0.0582
vn 0.9949 0.0736 -0.0689
vn -0.2176 -0.8628 -0.4563
vn -0.2144 -0.8628 -0.4578
vn -0.2162 -0.8646 -0.4536
vn -0.2217 -0.8573 -0.4646
vn -0.2203 -0.8591 -0.4619
vn -0.2235 -0.8591 -0.4604
vn -0.8169 0.1294 -0.5621
vn -0.8304 0.0878 -0.5502
vn -0.3953 0.3958 -0.8289
vn -0.3142 0.6835 -0.6589
vn -0.8694 0.0578 0.4908
vn -0.8693 0.0579 0.4908
vn -0.8408 0.1032 0.5314
vn -0.1412 -0.7920 -0.5939
vn -0.1413 -0.7920 -0.5939
vn -0.2760 -0.7675 -0.5786
vn -0.0579 -0.3480 -0.9357
vn 0.1142 -0.8023 -0.5859
vn 0.1144 -0.8023 -0.5858
vn 0.1140 -0.8023 -0.5859
vn 0.1133 -0.8023 -0.5861
vn 0.2095 -0.4004 -0.8920
vn 0.2296 -0.4037 -0.8856
vn -0.0889 -0.7160 -0.6924
vn -0.0458 -0.7287 -0.6833
vn 0.1486 -0.9888 0.0110
vn 0.1506 -0.9885 0.0101
vn 0.1500 -0.9886 0.0104
vn 0.1481 -0.9889 0.0112
vn 0.0426 -0.7769 -0.6282
vn -0.0642 -0.7706 -0.6341
vn -0.0641 -0.7706 -0.6341
vn -0.0641 -0.7706 0.6341
vn 0.0425 -0.7769 0.6282
vn 0.0426 -0.7769 0.6282
vn -0.1846 0.6623 -0.7262
vn -0.8653 0.1849 -0.4659
vn -0.8696 0.1718 -0.4629
vn 0.1854 -0.6637 -0.7246
vn 0.1847 -0.6638 -0.7247
vn 0.1868 -0.6636 -0.7244
vn 0.1874 -0.6636 -0.7243
vn 0.8297 -0.0883 0.5512
vn 0.8148 -0.1336 0.5641
vn -0.3766 -0.8318 -0.4078
vn 0.8797 0.0755 -0.4696
vn 0.9137 0.1508 -0.3775
vn 0.9136 0.1509 -0.3775
vn -0.8408 0.1032 -0.5314
vn -0.8694 0.0578 -0.4908
vn -0.8693 0.0579 -0.4908
vn 0.9117 0.0257 0.4100
vn 0.8532 -0.0288 0.5208
vn 0.9145 0.3891 0.1106
vn 0.8826 0.3595 0.3029
vn 0.8826 0.3595 0.3030
vn -1.0000 0.0012 0.0000
vn 0.9306 0.1197 0.3460
vn 0.9025 0.1371 0.4083
vn 0.4530 0.5855 -0.6723
vn 0.8436 -0.2442 0.4782
vn 0.8487 -0.2614 0.4597
vn 0.4557 0.1834 -0.8710
vn 0.4558 0.1834 -0.8710
vn 0.4744 0.1719 -0.8634
vn 0.9331 0.1486 -0.3276
vn 0.9441 0.1301 -0.3029
vn 0.9441 0.1302 -0.3029
vn 0.9702 -0.0475 0.2376
vn 0.9746 0.0001 0.2241
vn 0.9746 0.0002 0.2241
vn 0.1483 -0.9889 -0.0111
vn 0.1503 -0.9886 -0.0103
vn 0.1504 -0.9886 -0.0102
vn 0.9360 -0.0094 0.3519
vn 0.9386 0.0187 0.3446
vn -0.9783 -0.1941 -0.0724
vn -0.9771 -0.1979 -0.0782
vn -0.9775 -0.1965 -0.0761
vn -0.9787 -0.1927 -0.0703
vn -0.8975 -0.0188 -0.4405
vn -0.8983 -0.0249 -0.4386
vn -0.8981 -0.0228 -0.4392
vn -0.8972 -0.0167 -0.4412
vn 0.8851 0.0638 0.4611
vn 0.8770 0.0427 0.4787
vn 0.2039 0.9790 -0.0058
vn 0.2089 0.9779 -0.0057
vn 0.2078 0.9782 -0.0057
vn 0.2027 0.9792 -0.0058
vn 0.8959 0.1862 0.4034
vn 0.8551 0.1275 0.5026
vn 0.8550 0.1275 0.5026
vn -0.8474 -0.1549 -0.5078
vn -0.9037 -0.1598 -0.3972
vn 0.9508 0.2890 -0.1117
vn 0.9620 0.2709 -0.0347
vn -0.9063 -0.0395 -0.4209
vn -0.9355 -0.1221 -0.3315
vn 0.2890 0.7411 -0.6060
vn 0.9441 0.1301 0.3029
vn 0.9441 0.1302 0.3029
vn 0.9331 0.1486 0.3276
vn -0.1483 0.9886 -0.0252
vn -0.9665 -0.0057 -0.2566
vn -0.9628 0.0306 -0.2684
vn -0.9628 0.0307 -0.2684
vn -0.2126 0.3945 -0.8940
vn 0.9137 0.1509 0.3774
vn 0.9137 0.1508 0.3775
vn 0.8797 0.0755 0.4695
vn 0.8797 0.0755 0.4696
vn -0.9629 -0.2682 0.0315
vn -0.9537 -0.2840 0.0993
vn 0.8551 0.1275 -0.5026
vn 0.8550 0.1274 -0.5026
vn 0.8959 0.1862 -0.4034
vn -0.8903 -0.2319 -0.3919
vn -0.9464 -0.2570 -0.1958
vn 0.9812 0.1253 0.1465
vn 0.9642 0.1450 0.2221
vn -0.9677 -0.1396 -0.2100
vn -0.9820 -0.1225 -0.1434
vn 0.4530 0.5855 0.6723
vn 0.9578 0.2869 -0.0175
vn 0.9519 0.3063 0.0120
vn 0.8975 0.0188 0.4406
vn 0.8972 0.0167 0.4412
vn 0.8981 0.0228 0.4393
vn 0.8983 0.0247 0.4386
vn 0.8650 -0.0683 0.4972
vn 0.8413 -0.1052 0.5303
vn 0.9949 0.0736 0.0689
vn 0.9872 0.1485 0.0582
vn -0.9840 -0.1476 -0.0996
vn -0.9897 -0.0942 -0.1079
vn 0.0000 -0.9900 -0.1407
vn -0.0640 -0.9889 -0.1342
vn 0.8487 -0.2614 -0.4598
vn 0.8487 -0.2614 -0.4597
vn 0.8436 -0.2442 -0.4782
vn -0.9526 -0.1766 -0.2477
vn -0.9526 -0.1766 -0.2478
vn -0.9557 -0.2256 -0.1894
vn -0.9556 -0.2256 -0.1894
vn 0.8532 -0.0288 -0.5208
vn 0.9117 0.0257 -0.4100
vn 0.9434 0.2494 0.2187
vn 0.8783 0.2222 0.4233
vn 0.9620 0.2709 0.0347
vn 0.9508 0.2890 0.1116
vn 0.9508 0.2890 0.1117
vn -0.9537 -0.2840 -0.0993
vn -0.9629 -0.2682 -0.0315
vn -0.0340 0.7476 -0.6633
vn 0.3948 -0.4014 -0.8265
vn 0.3926 -0.4009 -0.8278
vn 0.4007 -0.4028 -0.8230
vn 0.4028 -0.4033 -0.8217
vn -0.8975 -0.0188 0.4405
vn -0.8973 -0.0167 0.4412
vn -0.8981 -0.0228 0.4393
vn -0.8983 -0.0248 0.4386
vn -0.4145 -0.2700 -0.8691
vn 0.9021 -0.1928 -0.3861
vn 0.9000 -0.1998 -0.3875
vn 0.9408 0.2528 0.2261
vn 0.9408 0.2528 0.2260
vn 0.9360 0.2096 0.2829
vn -0.8304 0.0878 0.5502
vn -0.8169 0.1294 0.5621
vn 0.8413 -0.1052 -0.5303
vn 0.8650 -0.0683 -0.4972
vn 0.0662 0.3537 0.9330
vn 0.0661 0.3537 0.9330
vn 0.0377 0.3547 0.9342
vn -0.8868 -0.3686 -0.2789
vn -0.9138 -0.3967 -0.0876
vn -0.9165 -0.0273 0.3992
vn -0.9164 -0.0273 0.3992
vn -0.8615 0.0258 0.5070
vn 0.9062 -0.0778 -0.4156
vn 0.9062 -0.0778 -0.4155
vn 0.9307 -0.0929 -0.3539
vn -0.9301 0.0935 0.3553
vn -0.9085 0.0802 0.4102
vn 0.2890 0.7411 0.6060
vn -0.4625 -0.1855 -0.8670
vn -0.7795 0.3063 0.5464
vn -0.7795 0.3064 0.5464
vn -0.7910 0.3450 0.5052
vn 0.9283 0.0010 -0.3719
vn 0.9280 0.0002 -0.3725
vn 0.9288 0.0027 -0.3707
vn 0.9290 0.0034 -0.3701
vn 0.9015 -0.1946 0.3865
vn 0.9000 -0.1998 0.3875
vn 0.9005 -0.1980 0.3871
vn 0.9021 -0.1928 0.3861
vn -0.9187 -0.0075 0.3948
vn -0.9207 -0.0258 0.3895
vn 0.9854 0.1418 0.0945
vn 0.9791 0.1618 0.1234
vn 0.9791 0.1619 0.1234
vn 0.8975 0.0189 -0.4406
vn 0.8983 0.0248 -0.4386
vn 0.8980 0.0226 -0.4393
vn 0.8972 0.0167 -0.4412
vn 0.3141 -0.6851 -0.6573
vn 0.3136 -0.6850 -0.6576
vn 0.3148 -0.6852 -0.6569
vn 0.3154 -0.6852 -0.6565
vn 0.9547 0.1718 0.2429
vn 0.9559 0.1504 0.2524
vn -0.8860 -0.0682 0.4586
vn -0.8766 -0.0432 0.4794
vn -0.8765 -0.0432 0.4794
vn -0.9037 -0.1598 0.3972
vn -0.8474 -0.1549 0.5078
vn -0.9464 -0.2570 0.1959
vn -0.9464 -0.2570 0.1958
vn -0.8903 -0.2319 0.3919
vn 0.9025 0.1371 -0.4083
vn 0.9306 0.1197 -0.3460
vn -0.9318 -0.1176 0.3433
vn -0.9062 -0.1336 0.4011
vn -0.1692 0.6820 -0.7115
vn -0.9157 -0.0201 0.4014
vn -0.9161 -0.0194 0.4004
vn -0.9151 -0.0211 0.4027
vn -0.9147 -0.0217 0.4035
vn -0.9157 -0.0201 -0.4013
vn -0.9147 -0.0217 -0.4036
vn -0.9150 -0.0212 -0.4029
vn -0.9161 -0.0194 -0.4005
vn -0.9289 -0.0032 0.3703
vn -0.9290 -0.0037 0.3702
vn -0.9289 -0.0036 0.3702
vn -0.9289 -0.0029 0.3703
vn -0.9897 -0.0942 0.1079
vn -0.9840 -0.1476 0.0996
vn -0.9355 -0.1221 0.3315
vn -0.9063 -0.0395 0.4209
vn 0.8783 0.2222 -0.4233
vn 0.9434 0.2494 -0.2187
vn -0.9786 -0.2057 0.0000
vn 1.0000 -0.0006 -0.0000
vn -0.9085 0.0802 -0.4102
vn -0.9301 0.0935 -0.3553
vn 0.1546 0.7441 0.6500
vn 0.9791 0.1618 -0.1234
vn 0.9791 0.1619 -0.1234
vn 0.9854 0.1418 -0.0945
vn -0.9817 -0.0470 0.1846
vn -0.9822 -0.0455 0.1825
vn -0.9809 -0.0495 0.1882
vn -0.9804 -0.0509 0.1903
vn 0.9559 0.1504 -0.2523
vn 0.9559 0.1504 -0.2524
vn 0.9547 0.1718 -0.2429
vn -0.0000 -0.9882 -0.1535
vn -0.0743 -0.9850 -0.1558
vn -0.2180 -0.3354 -0.9165
vn -0.9601 -0.1595 0.2296
vn -0.9608 -0.1438 0.2368
vn -0.9608 -0.1439 0.2368
vn 0.9360 0.2096 -0.2829
vn 0.9408 0.2528 -0.2261
vn 0.9407 0.2528 -0.2261
vn 0.0000 0.9885 0.1511
vn 0.0751 0.9851 0.1544
vn 0.8826 0.3595 -0.3030
vn 0.9145 0.3891 -0.1107
vn 0.9145 0.3891 -0.1106
vn -0.9138 -0.3967 0.0876
vn -0.8868 -0.3685 0.2789
vn -0.8868 -0.3686 0.2789
vn 0.9642 0.1450 -0.2221
vn 0.9812 0.1253 -0.1465
vn -0.9820 -0.1225 0.1434
vn -0.9677 -0.1396 0.2100
vn 0.9519 0.3063 -0.0120
vn 0.9519 0.3062 -0.0119
vn 0.9578 0.2869 0.0175
vn -0.9783 -0.1941 0.0724
vn -0.9787 -0.1927 0.0703
vn -0.9776 -0.1965 0.0760
vn -0.9771 -0.1979 0.0782
vn 0.9927 -0.1076 -0.0537
vn -0.9802 0.1956 0.0295
vn 0.9938 -0.0825 -0.0741
vn -0.9772 0.2087 0.0393
vn -0.9983 0.0199 0.0552
vn 0.9971 0.0235 -0.0727
vn 0.9914 0.0414 -0.1242
vn -0.9994 0.0118 0.0340
vn 0.9831 0.1658 0.0778
vn -0.9786 -0.1014 0.1792
vn 0.9838 0.1449 0.1053
vn -0.9825 -0.1368 0.1261
vn 0.9709 -0.2389 -0.0135
vn 0.9665 -0.2565 -0.0052
vn 0.9661 -0.2583 -0.0037
vn 0.9660 -0.2587 0.0032
vn 0.9712 -0.2378 -0.0119
vn 0.9695 -0.2450 -0.0024
vn 0.9698 -0.2436 -0.0090
g Bones_Torso_Bones_Torso_Collor_Material
usemtl Collor_Material
s off
f 46/1/1 10/2/1 3/3/1 45/4/1
f 8/5/2 30/6/2 29/7/2 5/8/2
f 7/9/3 22/10/3 6/11/3
f 15/12/4 31/13/4 32/14/4 18/15/4
f 16/16/5 17/17/5 60/18/5 59/19/5
f 3/20/6 10/21/6 2/22/6 1/23/6
f 62/24/7 65/25/7 66/26/7 63/27/7
f 15/28/8 21/29/8 5/30/8
f 33/31/2 9/32/2 4/33/2 35/34/2
f 2/35/9 12/36/9 11/37/9 1/38/9
f 7/39/10 58/40/10 60/41/10 17/42/10
f 37/43/11 39/44/12 40/45/11 38/46/13
f 57/47/14 58/48/14 7/49/14 6/50/14
f 2/51/10 10/52/10 20/53/10 12/54/10
f 10/55/10 46/56/10 48/57/10 20/58/10
f 100/59/15 212/60/16 211/61/17 99/62/17
f 15/63/18 28/64/18 25/65/18
f 64/66/19 68/67/19 66/68/19 65/69/19
f 17/70/20 23/71/20 7/72/20
f 114/73/21 112/74/21 116/75/22 115/76/22
f 45/77/23 49/78/23 55/79/23 46/80/23
f 40/81/24 39/82/24 44/83/24 42/84/24
f 23/85/25 24/86/25 21/87/25 22/88/25
f 5/89/26 29/90/26 31/91/26 15/92/26
f 21/93/27 25/94/27 26/95/27 22/96/27
f 18/97/28 24/98/28 28/99/28
f 16/100/29 22/101/29 26/102/29
f 16/103/30 27/104/30 17/105/30
f 5/106/31 24/107/31 8/108/31
f 31/109/32 40/110/32 42/111/32 32/112/32
f 8/113/10 18/114/10 32/115/10 30/116/10
f 13/117/33 20/118/33 48/119/33 47/120/33
f 11/121/34 12/122/34 20/123/34 13/124/34
f 4/125/26 14/126/26 36/127/26 35/128/26
f 31/129/35 38/130/35 40/131/35
f 35/132/36 37/133/36 43/134/36 33/135/36
f 36/136/37 37/137/37 35/138/37
f 141/139/38 145/140/39 146/141/40 143/142/38
f 43/143/41 41/144/42 42/145/41 44/146/41
f 41/147/43 43/148/43 37/149/43 38/150/43
f 53/151/44 52/152/44 56/153/44 54/154/44
f 34/155/45 43/156/45 44/157/45
f 134/158/46 136/159/46 248/160/47 246/161/48
f 131/162/49 243/163/50 245/164/51 133/165/51
f 32/166/52 41/167/52 30/168/52
f 61/169/53 64/170/53 65/171/53 62/172/53
f 46/173/54 56/174/54 48/175/54
f 9/176/55 51/177/55 50/178/55 4/179/55
f 9/180/10 33/181/10 34/182/10 19/183/10
f 51/184/56 54/185/57 56/186/58 55/187/59
f 50/188/60 51/189/60 55/190/60 49/191/60
f 124/192/61 236/193/61 235/194/61 123/195/61
f 14/196/62 50/197/62 53/198/62
f 48/199/63 56/200/63 52/201/63 47/202/63
f 45/203/64 52/204/64 49/205/64
f 19/206/65 51/207/65 9/208/65
f 282/209/66 280/210/66 284/211/67 283/212/67
f 60/213/68 67/214/69 68/215/70
f 60/216/71 64/217/72 59/218/73
f 166/219/74 165/220/74 277/221/74 278/222/74
f 67/223/75 63/224/75 66/225/75 68/226/75
f 63/227/76 67/228/76 61/229/76 62/230/76
f 25/231/77 28/232/77 27/233/77 26/234/77
f 57/235/78 67/236/78 58/237/78
f 59/238/79 61/239/79 57/240/79
f 127/241/80 128/242/80 126/243/81 125/244/81
f 125/245/82 129/246/83 130/247/84 127/248/85
f 129/249/86 131/250/86 132/251/87 130/252/87
f 101/253/88 102/254/88 104/255/89 103/256/89
f 84/257/90 83/258/91 195/259/92 196/260/92
f 69/261/93 181/262/94 182/263/95 70/264/96
f 157/265/97 158/266/98 140/267/97 156/268/99
f 143/269/100 144/270/100 142/271/101 141/272/101
f 253/273/102 255/274/102 258/275/103 257/276/104
f 145/277/105 147/278/106 148/279/107 146/280/108
f 71/281/109 183/282/110 186/283/111 74/284/111
f 115/285/112 116/286/112 118/287/113 117/288/113
f 263/289/114 264/290/114 266/291/114 265/292/114
f 140/293/115 139/294/115 155/295/116 156/296/117
f 157/297/118 159/298/118 160/299/119 158/300/119
f 159/301/120 161/302/121 162/303/122 160/304/122
f 193/305/123 194/306/123 192/307/123 191/308/123
f 73/309/124 74/310/124 76/311/125 75/312/125
f 170/313/126 171/314/126 172/315/127 168/316/128
f 170/317/129 168/318/129 167/319/129 169/320/129
f 171/321/130 173/322/130 174/323/131 172/324/131
f 173/325/132 175/326/132 176/327/133 174/328/133
f 158/329/134 270/330/135 252/331/136 140/332/137
f 185/333/138 187/334/138 188/335/138 186/336/138
f 117/337/139 229/338/140 227/339/141 115/340/142
f 147/341/143 149/342/143 150/343/144 148/344/144
f 175/345/145 177/346/145 178/347/146 176/348/146
f 75/349/147 76/350/148 78/351/149 77/352/150
f 77/353/151 78/354/152 80/355/153 79/356/154
f 80/357/155 82/358/156 81/359/155 79/360/157
f 252/361/158 270/362/158 269/363/158 268/364/158
f 170/365/159 282/366/159 283/367/160 171/368/160
f 85/369/161 87/370/161 90/371/161 89/372/161
f 257/373/162 258/374/163 260/375/164 259/376/164
f 91/377/165 92/378/165 94/379/166 93/380/166
f 93/381/167 94/382/168 96/383/169 95/384/170
f 95/385/171 96/386/172 98/387/173 97/388/174
f 86/389/175 88/390/175 87/391/176 85/392/176
f 92/393/177 90/394/178 202/395/179 204/396/179
f 149/397/180 261/398/181 263/399/182 151/400/182
f 105/401/183 106/402/183 108/403/184 107/404/184
f 107/405/185 108/406/186 110/407/187 109/408/188
f 84/409/189 102/410/190 101/411/191 100/412/192
f 163/413/193 275/414/194 277/415/195 165/416/196
f 261/417/197 262/418/197 264/419/197 263/420/197
f 103/421/198 104/422/198 106/423/199 105/424/200
f 119/425/201 120/426/201 122/427/202 121/428/202
f 121/429/203 122/430/204 124/431/205 123/432/206
f 147/433/207 145/434/208 257/435/209 259/436/209
f 237/437/210 239/438/210 242/439/210 241/440/210
f 241/441/211 242/442/211 244/443/211 243/444/211
f 243/445/212 244/446/212 246/447/212 245/448/212
f 133/449/213 135/450/214 136/451/215 134/452/216
f 248/453/217 250/454/217 249/455/217 247/456/217
f 89/457/218 90/458/219 92/459/220 91/460/221
f 254/461/222 256/462/222 255/463/223 253/464/223
f 6/465/26 16/466/26 59/467/26 57/468/26
f 50/469/224 49/470/225 52/471/226 53/472/227
f 259/473/228 260/474/228 262/475/228 261/476/228
f 231/477/229 233/478/229 234/479/229 232/480/229
f 141/481/230 142/482/230 254/483/231 253/484/231
f 267/485/232 251/486/232 252/487/233 268/488/233
f 135/489/234 247/490/234 249/491/235 137/492/235
f 271/493/236 272/494/236 274/495/236 273/496/236
f 273/497/237 274/498/237 276/499/237 275/500/237
f 275/501/238 276/502/238 278/503/238 277/504/238
f 24/505/239 23/506/239 27/507/239 28/508/239
f 245/509/240 246/510/240 248/511/240 247/512/240
f 156/513/241 268/514/241 269/515/241 157/516/241
f 285/517/242 286/518/242 288/519/242 287/520/242
f 287/521/243 288/522/243 290/523/243 289/524/243
f 163/525/244 165/526/245 166/527/246 164/528/247
f 183/529/248 184/530/248 182/531/248 181/532/248
f 69/533/249 71/534/250 74/535/251 73/536/252
f 289/537/253 290/538/253 292/539/253 291/540/253
f 269/541/254 270/542/254 272/543/255 271/544/255
f 189/545/256 191/546/256 192/547/256 190/548/256
f 87/549/257 88/550/257 200/551/258 199/552/258
f 213/553/259 214/554/259 196/555/259 212/556/259
f 112/557/260 111/558/260 223/559/261 224/560/261
f 197/561/262 201/562/263 202/563/264 199/564/262
f 201/565/265 203/566/266 204/567/266 202/568/267
f 125/569/268 237/570/268 241/571/269 129/572/269
f 205/573/270 207/574/270 208/575/270 206/576/270
f 207/577/271 209/578/271 210/579/271 208/580/271
f 75/581/272 187/582/273 185/583/274 73/584/274
f 213/585/275 215/586/276 216/587/277 214/588/277
f 229/589/278 231/590/278 232/591/278 230/592/278
f 137/593/279 138/594/280 136/595/281 135/596/282
f 161/597/283 163/598/283 164/599/284 162/600/284
f 226/601/285 227/602/285 228/603/286 224/604/286
f 226/605/287 224/606/288 223/607/289 225/608/290
f 227/609/291 229/610/291 230/611/292 228/612/293
f 238/613/248 240/614/248 239/615/248 237/616/248
f 283/617/294 284/618/294 286/619/295 285/620/296
f 233/621/297 235/622/297 236/623/297 234/624/297
f 125/625/298 126/626/298 238/627/299 237/628/299
f 177/629/300 179/630/301 180/631/302 178/632/303
f 127/633/304 130/634/304 242/635/305 239/636/305
f 181/637/306 185/638/306 186/639/306 183/640/306
f 104/641/307 102/642/307 214/643/308 216/644/309
f 131/645/310 129/646/310 241/647/311 243/648/312
f 132/649/313 134/650/313 246/651/314 244/652/314
f 176/653/315 288/654/315 286/655/316 174/656/317
f 30/657/318 41/658/318 38/659/318 29/660/318
f 150/661/319 152/662/319 264/663/320 262/664/320
f 138/665/321 137/666/321 249/667/321 250/668/321
f 136/669/322 138/670/322 250/671/323 248/672/323
f 131/673/324 133/674/325 134/675/326 132/676/326
f 96/677/327 208/678/327 210/679/328 98/680/329
f 140/681/330 252/682/330 251/683/331 139/684/332
f 282/685/333 281/686/333 279/687/334 280/688/335
f 143/689/336 255/690/336 256/691/337 144/692/337
f 177/693/338 289/694/339 291/695/340 179/696/341
f 141/697/342 253/698/343 257/699/344 145/700/345
f 148/701/346 260/702/346 258/703/347 146/704/347
f 70/705/348 72/706/349 71/707/350 69/708/351
f 148/709/352 150/710/352 262/711/353 260/712/354
f 149/713/355 147/714/355 259/715/356 261/716/356
f 120/717/357 232/718/357 234/719/358 122/720/358
f 159/721/359 157/722/359 269/723/360 271/724/360
f 154/725/361 153/726/361 265/727/361 266/728/361
f 152/729/362 154/730/363 266/731/364 264/732/364
f 114/733/365 113/734/365 111/735/365 112/736/365
f 156/737/366 155/738/366 267/739/367 268/740/368
f 217/741/369 219/742/369 220/743/369 218/744/369
f 160/745/370 272/746/371 270/747/372 158/748/373
f 119/749/374 121/750/374 233/751/375 231/752/375
f 92/753/376 204/754/377 206/755/378 94/756/378
f 161/757/379 159/758/379 271/759/380 273/760/380
f 162/761/381 164/762/381 276/763/382 274/764/382
f 161/765/383 273/766/383 275/767/384 163/768/384
f 82/769/385 194/770/385 193/771/385 81/772/385
f 178/773/386 180/774/386 292/775/387 290/776/387
f 143/777/388 146/778/389 258/779/390 255/780/391
f 132/781/392 244/782/392 242/783/393 130/784/393
f 168/785/394 280/786/394 279/787/395 167/788/395
f 170/789/396 169/790/396 281/791/397 282/792/397
f 199/793/398 200/794/398 198/795/399 197/796/399
f 80/797/400 192/798/401 194/799/402 82/800/402
f 173/801/403 171/802/404 283/803/405 285/804/406
f 76/805/407 188/806/407 190/807/408 78/808/408
f 162/809/409 274/810/409 272/811/410 160/812/410
f 176/813/411 178/814/411 290/815/412 288/816/413
f 175/817/414 287/818/414 289/819/415 177/820/415
f 180/821/416 179/822/416 291/823/416 292/824/416
f 149/825/417 151/826/418 152/827/419 150/828/420
f 85/829/421 89/830/422 201/831/423 197/832/424
f 203/833/425 205/834/425 206/835/425 204/836/425
f 71/837/426 72/838/426 184/839/427 183/840/427
f 174/841/428 286/842/429 284/843/430 172/844/430
f 69/845/431 73/846/431 185/847/432 181/848/432
f 76/849/433 74/850/433 186/851/434 188/852/434
f 117/853/435 118/854/436 120/855/437 119/856/437
f 175/857/438 173/858/438 285/859/439 287/860/439
f 75/861/440 77/862/441 189/863/442 187/864/442
f 78/865/443 190/866/444 192/867/445 80/868/445
f 77/869/446 79/870/446 191/871/447 189/872/447
f 98/873/448 210/874/448 209/875/448 97/876/448
f 187/877/449 189/878/449 190/879/449 188/880/449
f 79/881/450 81/882/451 193/883/452 191/884/452
f 102/885/453 84/886/454 196/887/455 214/888/456
f 127/889/457 239/890/458 240/891/459 128/892/460
f 85/893/461 197/894/461 198/895/462 86/896/462
f 164/897/463 166/898/463 278/899/464 276/900/465
f 87/901/466 199/902/467 202/903/468 90/904/469
f 151/905/470 153/906/471 154/907/472 152/908/473
f 168/909/474 172/910/474 284/911/475 280/912/475
f 91/913/476 203/914/476 201/915/477 89/916/478
f 93/917/479 205/918/479 203/919/480 91/920/480
f 105/921/481 217/922/482 215/923/483 103/924/483
f 94/925/484 206/926/484 208/927/485 96/928/485
f 93/929/486 95/930/486 207/931/487 205/932/487
f 1/933/26 11/934/26 13/935/26 3/936/26
f 219/937/488 221/938/488 222/939/488 220/940/488
f 95/941/489 97/942/490 209/943/491 207/944/492
f 151/945/493 263/946/494 265/947/495 153/948/496
f 100/949/497 101/950/498 213/951/499 212/952/500
f 114/953/501 226/954/501 225/955/502 113/956/502
f 103/957/503 215/958/503 213/959/504 101/960/504
f 106/961/505 104/962/505 216/963/506 218/964/506
f 14/965/507 53/966/507 54/967/507 19/968/507
f 36/969/508 34/970/508 44/971/508 39/972/508
f 133/973/509 245/974/509 247/975/510 135/976/510
f 110/977/511 222/978/511 221/979/511 109/980/511
f 108/981/512 220/982/513 222/983/514 110/984/514
f 107/985/515 109/986/516 221/987/517 219/988/518
f 112/989/519 224/990/520 228/991/521 116/992/521
f 196/993/522 195/994/522 211/995/523 212/996/523
f 215/997/524 217/998/524 218/999/524 216/1000/524
f 114/1001/525 115/1002/525 227/1003/526 226/1004/527
f 118/1005/528 116/1006/528 228/1007/529 230/1008/530
f 99/1009/531 83/1010/531 84/1011/532 100/1012/532
f 120/1013/533 118/1014/533 230/1015/534 232/1016/535
f 119/1017/536 231/1018/536 229/1019/537 117/1020/538
f 106/1021/539 218/1022/539 220/1023/540 108/1024/540
f 105/1025/541 107/1026/541 219/1027/542 217/1028/542
f 3/1029/26 13/1030/26 47/1031/26 45/1032/26
f 122/1033/543 234/1034/544 236/1035/545 124/1036/545
f 121/1037/546 123/1038/547 235/1039/548 233/1040/549
f 7/1041/3 23/1042/3 22/1043/3
f 15/1044/550 25/1045/550 21/1046/550
f 15/1047/18 18/1048/18 28/1049/18
f 17/1050/551 27/1051/551 23/1052/551
f 18/1053/552 8/1054/552 24/1055/552
f 16/1056/553 6/1057/553 22/1058/553
f 16/1059/30 26/1060/30 27/1061/30
f 5/1062/31 21/1063/31 24/1064/31
f 31/1065/554 29/1066/554 38/1067/554
f 36/1068/555 39/1069/555 37/1070/555
f 34/1071/556 33/1072/556 43/1073/556
f 32/1074/557 42/1075/557 41/1076/557
f 46/1077/558 55/1078/558 56/1079/558
f 14/1080/559 4/1081/559 50/1082/559
f 45/1083/560 47/1084/560 52/1085/560
f 19/1086/561 54/1087/561 51/1088/561
f 60/1089/562 58/1090/562 67/1091/562
f 60/1092/563 68/1093/564 64/1094/565
f 57/1095/78 61/1096/78 67/1097/78
f 59/1098/566 64/1099/567 61/1100/568
f 14/1101/4 19/1102/4 34/1103/4 36/1104/4
