# Blender v3.0.0 OBJ File: 'aa.blend'
# www.blender.org
mtllib Bucket_1.mtl
o Bucket_1
v 0.001143 0.000009 -0.190562
v 0.001261 0.373412 -0.229447
v 0.073608 -0.000007 -0.176378
v 0.086114 0.399983 -0.216594
v 0.133442 -0.000005 -0.132630
v 0.161731 0.373395 -0.158165
v 0.212461 0.381129 0.016964
v 0.183790 0.370283 0.100866
v 0.105291 0.000008 0.130029
v 0.128132 0.373479 0.161080
v 0.044400 0.368523 0.196885
v -0.035799 -0.000003 0.160627
v -0.045858 0.369879 0.194835
v -0.103425 0.000000 0.130512
v -0.125841 0.373397 0.161521
v -0.152872 0.000000 0.075493
v -0.213760 0.374418 0.006668
v -0.167979 -0.000000 -0.068370
v -0.198302 0.375540 -0.083636
v -0.160019 0.390444 -0.158527
v -0.084163 0.373385 -0.211556
v 0.007318 0.355316 -0.222968
v 0.087030 0.367409 -0.211095
v 0.162792 0.379799 -0.160581
v 0.178080 -0.000003 0.005229
v 0.185533 0.381113 0.100378
v 0.155691 -0.000010 0.075896
v 0.127941 0.390864 0.160456
v 0.049766 0.380785 0.196174
v 0.037864 0.000007 0.160316
v -0.043784 0.375216 0.198700
v -0.120956 0.369906 0.161702
v -0.185804 0.373393 0.095023
v -0.175721 0.000000 0.005164
v -0.204570 0.374418 -0.080740
v -0.157801 0.375546 -0.153633
v -0.130838 0.000004 -0.132171
v -0.087326 0.402309 -0.215059
v -0.071660 -0.000002 -0.175962
v 0.001917 0.000017 -0.201511
v 0.076910 -0.000016 -0.188334
v 0.090468 0.368457 -0.224628
v 0.007177 0.355762 -0.236587
v 0.079079 0.000005 -0.185584
v 0.141267 -0.000006 -0.141423
v 0.174612 0.377768 -0.170565
v 0.093959 0.398921 -0.230193
v 0.142721 -0.000000 -0.139207
v 0.180859 -0.000000 -0.073151
v 0.219803 0.372165 -0.085880
v 0.173221 0.372164 -0.166563
v 0.189348 -0.000000 0.007624
v 0.165769 -0.000001 0.080195
v 0.200253 0.379724 0.106966
v 0.230512 0.379723 0.013829
v 0.165326 -0.000017 0.083422
v 0.112413 0.000017 0.138240
v 0.136826 0.389155 0.171324
v 0.195084 0.367768 0.109577
v 0.111510 -0.000003 0.140761
v 0.041679 0.000003 0.171319
v 0.054195 0.379688 0.209581
v 0.135370 0.372144 0.173478
v 0.039613 -0.000007 0.172178
v -0.037050 0.000006 0.171898
v -0.045567 0.370344 0.211458
v 0.047238 0.359889 0.211420
v -0.039510 -0.000001 0.171581
v -0.109193 -0.000001 0.140707
v -0.127592 0.369003 0.172892
v -0.049758 0.369090 0.207251
v -0.111199 -0.000000 0.139036
v -0.162234 -0.000000 0.082354
v -0.197373 0.372165 0.103245
v -0.135333 0.372164 0.172147
v -0.163492 -0.000000 0.080175
v -0.187066 -0.000000 0.007625
v -0.187331 -0.000000 0.005102
v -0.179360 -0.000000 -0.070735
v -0.218512 0.373184 -0.083767
v -0.227677 0.373214 0.006728
v -0.178570 0.000000 -0.073164
v -0.140452 -0.000000 -0.139186
v -0.168153 0.374436 -0.161238
v -0.211327 0.374309 -0.089349
v -0.138488 0.000007 -0.140766
v -0.076653 -0.000007 -0.186489
v -0.092414 0.400784 -0.228162
v -0.169333 0.388483 -0.168859
v -0.074784 -0.000001 -0.186932
v -0.000140 -0.000000 -0.202799
v -0.000178 0.372164 -0.243777
v -0.088339 0.372204 -0.224580
v -0.213834 0.373399 0.009116
v -0.227818 0.372164 0.011926
v -0.199000 0.372164 0.100624
v -0.213725 0.441701 0.009611
v -0.208736 0.457659 0.025020
v -0.212252 0.452985 0.014185
v -0.190881 0.457659 0.079971
v -0.185952 0.441701 0.095093
v -0.187383 0.452985 0.090723
v -0.222743 0.456422 0.027727
v -0.227733 0.440465 0.012321
v -0.226259 0.451749 0.016892
v -0.198875 0.440465 0.101136
v -0.203805 0.456422 0.086014
v -0.200307 0.451749 0.096766
v -0.197194 0.388057 0.060395
v -0.192509 0.403128 0.074829
v -0.188711 0.379433 0.086471
v -0.207268 0.403129 0.029409
v -0.202602 0.388057 0.043752
v -0.211086 0.379526 0.017608
v -0.216610 0.386821 0.046459
v -0.221275 0.401893 0.032116
v -0.225093 0.378290 0.020316
v -0.205433 0.401892 0.080872
v -0.210118 0.386821 0.066438
v -0.201635 0.378197 0.092514
v -0.202578 0.425382 0.043865
v -0.207263 0.410310 0.029430
v -0.210919 0.434626 0.018225
v -0.192505 0.410311 0.074851
v -0.197170 0.425382 0.060508
v -0.188826 0.434533 0.086222
v -0.221270 0.409074 0.032138
v -0.216586 0.424146 0.046572
v -0.224927 0.433390 0.020933
v -0.210094 0.424146 0.066551
v -0.205428 0.409075 0.080894
v -0.201749 0.433297 0.092265
v 0.141205 0.011532 -0.139540
v 0.180391 0.011532 -0.071668
v 0.188583 0.011532 0.006275
v 0.040327 0.011532 0.170929
v -0.038044 0.011532 0.170929
v -0.186300 0.011532 0.006275
v -0.178108 0.011532 -0.071668
v 0.001142 0.011532 -0.201900
v 0.077801 0.011532 -0.185606
v 0.164365 0.011532 0.080811
v 0.111924 0.011532 0.139052
v -0.109641 0.011532 0.139052
v -0.162082 0.011532 0.080811
v -0.138922 0.011532 -0.139540
v -0.075518 0.011532 -0.185606
v -0.058403 0.000000 0.150606
v -0.080750 0.000002 0.140204
v -0.095762 0.369966 0.172295
v -0.067596 0.363410 0.184444
v -0.062778 0.000001 0.161294
v -0.085782 0.000000 0.150645
v -0.101439 0.369069 0.183902
v -0.072329 0.362446 0.196439
v -0.117550 0.303053 0.155461
v -0.044003 0.303019 0.188559
v -0.123982 0.302602 0.166484
v -0.047896 0.302569 0.200699
v -0.073307 0.302472 0.189343
v -0.096321 0.324651 0.180507
v -0.068520 0.303122 0.177619
v -0.090802 0.325073 0.169009
v 0.149218 0.042957 -0.146755
v 0.190647 0.042957 -0.075000
v 0.199307 0.042957 0.007402
v 0.042569 0.042957 0.181477
v -0.040287 0.042957 0.181477
v -0.197024 0.042957 0.007402
v -0.188364 0.042957 -0.075000
v 0.001141 0.042957 -0.212684
v 0.082187 0.042957 -0.195457
v 0.173703 0.042957 0.086202
v 0.118262 0.042957 0.147776
v -0.115979 0.042957 0.147776
v -0.171421 0.042957 0.086202
v -0.146936 0.042957 -0.146755
v -0.079904 0.042957 -0.195457
v 0.001141 0.078901 -0.218785
v 0.084668 0.078901 -0.201031
v 0.205375 0.078901 0.008040
v 0.178987 0.078901 0.089253
v -0.041555 0.078901 0.187445
v -0.119565 0.078901 0.152712
v -0.194166 0.078901 -0.076885
v -0.151470 0.078901 -0.150838
v 0.153752 0.078901 -0.150838
v 0.196449 0.078901 -0.076885
v 0.121848 0.078901 0.152712
v 0.043838 0.078901 0.187445
v -0.176705 0.078901 0.089253
v -0.203092 0.078901 0.008040
v -0.082385 0.078901 -0.201031
v 0.001141 0.042957 -0.204120
v 0.078704 0.042957 -0.187633
v 0.190791 0.042957 0.006507
v 0.166287 0.042957 0.081921
v -0.038506 0.042957 0.173100
v -0.110946 0.042957 0.140848
v -0.180219 0.042957 -0.072354
v -0.140571 0.042957 -0.141025
v 0.142855 0.042957 -0.141025
v 0.182502 0.042957 -0.072354
v 0.113228 0.042957 0.140848
v 0.040789 0.042957 0.173100
v -0.164004 0.042957 0.081921
v -0.188507 0.042957 0.006507
v -0.076421 0.042957 -0.187633
v 0.001141 0.078901 -0.209959
v 0.081078 0.078901 -0.192968
v 0.196597 0.078901 0.007117
v 0.171343 0.078901 0.084840
v -0.039720 0.078901 0.178812
v -0.114378 0.078901 0.145572
v -0.185772 0.078901 -0.074158
v -0.144911 0.078901 -0.144932
v 0.147194 0.078901 -0.144932
v 0.188055 0.078901 -0.074158
v 0.116660 0.078901 0.145572
v 0.042003 0.078901 0.178812
v -0.169061 0.078901 0.084840
v -0.194315 0.078901 0.007117
v -0.078796 0.078901 -0.192968
v 0.164078 0.244082 -0.160152
v 0.209462 0.244026 -0.081187
v 0.219774 0.248972 0.009479
v 0.046669 0.244026 0.200970
v -0.044458 0.244084 0.201066
v -0.216973 0.244088 0.009499
v -0.207441 0.244088 -0.081199
v 0.001141 0.244088 -0.232743
v 0.090346 0.244088 -0.213782
v 0.192787 0.241369 0.096014
v 0.130244 0.243610 0.164293
v -0.127770 0.244088 0.164005
v -0.188792 0.244088 0.096232
v -0.161842 0.244088 -0.160177
v -0.088062 0.244088 -0.213782
v 0.001141 0.280032 -0.239458
v 0.093077 0.280032 -0.219916
v 0.225279 0.274391 0.010152
v 0.199526 0.277159 0.099841
v -0.045852 0.280021 0.207698
v -0.131717 0.280032 0.169437
v -0.213827 0.280032 -0.083274
v -0.166833 0.280032 -0.164671
v 0.169163 0.280019 -0.164696
v 0.216366 0.279918 -0.083280
v 0.135560 0.276225 0.168977
v 0.048202 0.279931 0.207789
v -0.194608 0.280032 0.099590
v -0.223652 0.280032 0.010201
v -0.090794 0.280032 -0.219916
v 0.001141 0.244088 -0.223316
v 0.086512 0.244088 -0.205171
v 0.210475 0.249619 0.008623
v 0.182364 0.243251 0.091175
v -0.042498 0.244103 0.191847
v -0.122229 0.244088 0.156379
v -0.198476 0.244088 -0.078286
v -0.154837 0.244088 -0.153870
v 0.157074 0.244113 -0.153846
v 0.200512 0.244254 -0.078291
v 0.124832 0.244393 0.156744
v 0.044713 0.244205 0.191758
v -0.180629 0.244088 0.091519
v -0.207599 0.244088 0.008513
v -0.084229 0.244088 -0.205171
v 0.001141 0.280032 -0.229743
v 0.089126 0.280032 -0.211042
v 0.215819 0.275259 0.009144
v 0.188755 0.278919 0.094902
v -0.043832 0.280033 0.198195
v -0.126007 0.280032 0.161578
v -0.204589 0.280032 -0.080272
v -0.159613 0.280032 -0.158170
v 0.161943 0.280026 -0.158195
v 0.207125 0.280041 -0.080271
v 0.129963 0.277079 0.161254
v 0.046189 0.280079 0.198289
v -0.186195 0.280032 0.094732
v -0.213991 0.280032 0.009185
v -0.086843 0.280032 -0.211042
v 0.001141 0.011532 -0.013425
v 0.170289 0.000000 -0.068337
v 0.178013 0.000000 0.005127
v 0.181640 -0.000000 -0.070749
v 0.189614 -0.000000 0.005112
v 0.216107 0.373399 0.009220
v 0.206708 0.373399 -0.080238
v 0.230369 0.372164 0.009377
v 0.220620 0.372164 -0.083386
v 0.216198 0.441701 0.009616
v 0.206804 0.441701 -0.079773
v 0.230463 0.440465 0.009877
v 0.214552 0.457659 -0.006206
v 0.215729 0.452985 0.005039
v 0.208512 0.457659 -0.063669
v 0.207317 0.452985 -0.074997
v 0.228816 0.456422 -0.005942
v 0.229993 0.451749 0.005303
v 0.220702 0.440465 -0.082997
v 0.222410 0.456422 -0.066893
v 0.221214 0.451749 -0.078221
v 0.210527 0.388057 -0.044062
v 0.208956 0.403129 -0.059062
v 0.207644 0.379526 -0.071395
v 0.213948 0.403128 -0.011566
v 0.212357 0.388057 -0.026657
v 0.215212 0.379433 0.000614
v 0.226621 0.386821 -0.026394
v 0.228212 0.401892 -0.011302
v 0.229477 0.378197 0.000878
v 0.222853 0.401893 -0.062286
v 0.224425 0.386821 -0.047285
v 0.221542 0.378290 -0.074619
v 0.212381 0.425382 -0.026545
v 0.213952 0.410311 -0.011544
v 0.215216 0.434533 0.000340
v 0.208960 0.410310 -0.059041
v 0.210551 0.425382 -0.043949
v 0.207743 0.434626 -0.070764
v 0.228217 0.409075 -0.011280
v 0.226645 0.424146 -0.026281
v 0.229481 0.433297 0.000604
v 0.224449 0.424146 -0.047173
v 0.222858 0.409074 -0.062265
v 0.221641 0.433390 -0.073988
vt 0.610710 0.800937
vt 0.610710 0.825113
vt 0.552592 0.823551
vt 0.551270 0.806225
vt 0.561970 0.596336
vt 0.537731 0.595393
vt 0.537727 0.534946
vt 0.561970 0.533947
vt 0.546315 0.820000
vt 0.546315 0.882481
vt 0.538752 0.880046
vt 0.540086 0.821243
vt 0.328076 0.809868
vt 0.303879 0.808997
vt 0.303924 0.751187
vt 0.328076 0.750119
vt 0.970346 0.866611
vt 0.970346 0.927229
vt 0.964261 0.925995
vt 0.964230 0.867855
vt 0.103174 0.878053
vt 0.110538 0.875721
vt 0.110538 0.937159
vt 0.104483 0.935906
vt 0.088922 0.789272
vt 0.146895 0.787466
vt 0.146895 0.811629
vt 0.087408 0.806582
vt 0.263763 0.605211
vt 0.269845 0.603957
vt 0.269845 0.664296
vt 0.262200 0.663191
vt 0.805289 0.327138
vt 0.781074 0.325228
vt 0.788032 0.265292
vt 0.805289 0.265213
vt 0.843191 0.603312
vt 0.843191 0.666768
vt 0.836980 0.665434
vt 0.836888 0.604644
vt 0.586947 0.890544
vt 0.593250 0.889204
vt 0.593250 0.951550
vt 0.586947 0.950210
vt 0.536288 0.073299
vt 0.536288 0.095438
vt 0.474862 0.096639
vt 0.473815 0.072371
vt 0.804664 0.920820
vt 0.780522 0.920015
vt 0.780522 0.867417
vt 0.804664 0.866611
vt 0.921079 0.920015
vt 0.896937 0.920820
vt 0.896937 0.866611
vt 0.921079 0.867416
vt 0.146895 0.870780
vt 0.122753 0.869974
vt 0.122753 0.817376
vt 0.146895 0.816571
vt 0.804691 0.805026
vt 0.804691 0.861670
vt 0.780522 0.860829
vt 0.780522 0.805868
vt 0.838743 0.805026
vt 0.862912 0.805868
vt 0.862912 0.860828
vt 0.838743 0.861670
vt 0.176005 0.844110
vt 0.151836 0.843268
vt 0.151836 0.788308
vt 0.176005 0.787466
vt 0.357186 0.871417
vt 0.333017 0.870575
vt 0.333017 0.815615
vt 0.357186 0.814773
vt 0.532096 0.871369
vt 0.507927 0.870528
vt 0.507927 0.815567
vt 0.532096 0.814726
vt 0.473768 0.871369
vt 0.449599 0.870528
vt 0.449599 0.815568
vt 0.473769 0.814726
vt 0.415512 0.871379
vt 0.391343 0.870537
vt 0.391343 0.815577
vt 0.415512 0.814735
vt 0.703567 0.857580
vt 0.679398 0.856739
vt 0.679398 0.801778
vt 0.703567 0.800937
vt 0.420453 0.871369
vt 0.420453 0.814726
vt 0.444622 0.815568
vt 0.444622 0.870528
vt 0.478710 0.870528
vt 0.478710 0.815567
vt 0.502879 0.814726
vt 0.502879 0.871369
vt 0.362161 0.871385
vt 0.362161 0.814742
vt 0.386330 0.815583
vt 0.386330 0.870544
vt 0.274786 0.872494
vt 0.274786 0.815850
vt 0.298955 0.816692
vt 0.298955 0.871652
vt 0.616594 0.800937
vt 0.674456 0.801688
vt 0.674456 0.823838
vt 0.615652 0.825082
vt 0.863546 0.266055
vt 0.863546 0.321015
vt 0.839377 0.321857
vt 0.839377 0.265213
vt 0.833802 0.861670
vt 0.809632 0.860829
vt 0.809632 0.805868
vt 0.833802 0.805026
vt 0.002471 0.860499
vt 0.026613 0.861304
vt 0.026613 0.913903
vt 0.002471 0.914708
vt 0.111550 0.869974
vt 0.087408 0.870780
vt 0.087408 0.816571
vt 0.111550 0.817376
vt 0.082404 0.852879
vt 0.082404 0.905477
vt 0.058262 0.906282
vt 0.058262 0.852073
vt 0.639794 0.883427
vt 0.615652 0.884232
vt 0.615652 0.830023
vt 0.639794 0.830828
vt 0.644735 0.883427
vt 0.644735 0.830828
vt 0.668877 0.830023
vt 0.668877 0.884232
vt 0.809605 0.920015
vt 0.809605 0.867417
vt 0.833747 0.866611
vt 0.833747 0.920820
vt 0.604495 0.883458
vt 0.580353 0.884263
vt 0.580353 0.830054
vt 0.604495 0.830859
vt 0.551270 0.830859
vt 0.575412 0.830054
vt 0.575412 0.884263
vt 0.551270 0.883458
vt 0.834435 0.266100
vt 0.834435 0.323993
vt 0.810231 0.324879
vt 0.810231 0.265213
vt 0.328076 0.871452
vt 0.303907 0.870611
vt 0.303907 0.815650
vt 0.328076 0.814809
vt 0.862885 0.920820
vt 0.838743 0.920015
vt 0.838743 0.867417
vt 0.862885 0.866611
vt 0.151836 0.902455
vt 0.151836 0.849856
vt 0.175978 0.849051
vt 0.175978 0.903260
vt 0.679398 0.915925
vt 0.679398 0.863327
vt 0.703540 0.862522
vt 0.703540 0.916731
vt 0.729232 0.996023
vt 0.729232 0.941063
vt 0.734788 0.942244
vt 0.734788 0.994842
vt 0.986307 0.562003
vt 0.986307 0.618646
vt 0.980580 0.617429
vt 0.980580 0.563220
vt 0.994074 0.202625
vt 0.994074 0.259268
vt 0.988347 0.258051
vt 0.988347 0.203842
vt 0.742627 0.996008
vt 0.742627 0.941048
vt 0.748184 0.942229
vt 0.748184 0.994827
vt 0.989368 0.988814
vt 0.989368 0.932170
vt 0.995095 0.933388
vt 0.995095 0.987596
vt 0.994074 0.057897
vt 0.988347 0.059114
vt 0.988347 0.002471
vt 0.994074 0.003688
vt 0.986147 0.354029
vt 0.986147 0.414513
vt 0.980031 0.413211
vt 0.980030 0.355327
vt 0.980031 0.420758
vt 0.986146 0.419455
vt 0.986146 0.479932
vt 0.980030 0.478636
vt 0.447044 0.995833
vt 0.441488 0.994652
vt 0.441488 0.942054
vt 0.447044 0.940873
vt 0.284012 0.938824
vt 0.284012 0.993785
vt 0.278456 0.992603
vt 0.278455 0.940005
vt 0.651038 0.950179
vt 0.644735 0.951519
vt 0.644735 0.889173
vt 0.651038 0.890513
vt 0.679424 0.921672
vt 0.679424 0.976632
vt 0.673868 0.975451
vt 0.673868 0.922853
vt 0.367718 0.994988
vt 0.362161 0.996169
vt 0.362161 0.941209
vt 0.367718 0.942390
vt 0.931747 0.936511
vt 0.931747 0.993155
vt 0.926020 0.991937
vt 0.926020 0.937728
vt 0.497429 0.995833
vt 0.497429 0.940873
vt 0.502986 0.942054
vt 0.502986 0.994652
vt 0.941747 0.933978
vt 0.947474 0.935195
vt 0.947474 0.989404
vt 0.941747 0.990621
vt 0.551270 0.951550
vt 0.551270 0.889204
vt 0.557573 0.890544
vt 0.557573 0.950210
vt 0.988347 0.069122
vt 0.994074 0.067905
vt 0.994074 0.124549
vt 0.988347 0.123331
vt 0.347682 0.996109
vt 0.347682 0.941149
vt 0.353238 0.942330
vt 0.353238 0.994928
vt 0.983406 0.002471
vt 0.983406 0.062964
vt 0.977290 0.061664
vt 0.977290 0.003771
vt 0.851930 0.982405
vt 0.851930 0.925761
vt 0.857657 0.926979
vt 0.857657 0.981188
vt 0.986345 0.923255
vt 0.986345 0.866611
vt 0.992072 0.867828
vt 0.992072 0.922038
vt 0.975288 0.867911
vt 0.981404 0.866611
vt 0.981404 0.927105
vt 0.975288 0.925805
vt 0.668877 0.950179
vt 0.662574 0.951519
vt 0.662574 0.889173
vt 0.668877 0.890513
vt 0.562514 0.951550
vt 0.562514 0.889204
vt 0.568817 0.890544
vt 0.568817 0.950210
vt 0.420453 0.942054
vt 0.426010 0.940873
vt 0.426010 0.995833
vt 0.420453 0.994652
vt 0.690482 0.921672
vt 0.690482 0.982165
vt 0.684366 0.980865
vt 0.684366 0.922972
vt 0.980580 0.680231
vt 0.980580 0.623588
vt 0.986307 0.624805
vt 0.986307 0.679014
vt 0.986146 0.288595
vt 0.986146 0.349088
vt 0.980030 0.347787
vt 0.980031 0.289894
vt 0.309463 0.940478
vt 0.309463 0.995439
vt 0.303907 0.994257
vt 0.303907 0.941659
vt 0.535888 0.125864
vt 0.473815 0.119842
vt 0.475280 0.102647
vt 0.535888 0.101580
vt 0.591172 0.533947
vt 0.591172 0.596373
vt 0.566912 0.595302
vt 0.566927 0.534888
vt 0.333033 0.808836
vt 0.333017 0.750986
vt 0.357220 0.750119
vt 0.357220 0.809832
vt 0.802800 0.665657
vt 0.778563 0.664731
vt 0.778563 0.604238
vt 0.802800 0.603312
vt 0.692223 0.795996
vt 0.667986 0.795070
vt 0.667986 0.734576
vt 0.692223 0.733650
vt 0.721402 0.795996
vt 0.697165 0.795070
vt 0.697165 0.734576
vt 0.721402 0.733650
vt 0.746952 0.265213
vt 0.746952 0.327575
vt 0.722707 0.326618
vt 0.722714 0.266140
vt 0.604686 0.795996
vt 0.580449 0.795070
vt 0.580449 0.734576
vt 0.604686 0.733650
vt 0.575632 0.134977
vt 0.551437 0.133148
vt 0.553521 0.072642
vt 0.575632 0.071520
vt 0.663044 0.733650
vt 0.663044 0.795996
vt 0.638807 0.795069
vt 0.638807 0.734576
vt 0.082467 0.788352
vt 0.082467 0.846246
vt 0.058262 0.847132
vt 0.058262 0.787466
vt 0.386366 0.809801
vt 0.362161 0.808915
vt 0.362171 0.751037
vt 0.386366 0.750119
vt 0.867854 0.866611
vt 0.891995 0.867416
vt 0.891995 0.920015
vt 0.867854 0.920820
vt 0.776132 0.327568
vt 0.751895 0.326640
vt 0.751893 0.266156
vt 0.776132 0.265213
vt 0.391311 0.808888
vt 0.391307 0.751004
vt 0.415512 0.750119
vt 0.415512 0.809794
vt 0.807742 0.662091
vt 0.807742 0.604198
vt 0.831946 0.603312
vt 0.831946 0.662978
vt 0.449599 0.750119
vt 0.473804 0.751005
vt 0.473804 0.808898
vt 0.449599 0.809785
vt 0.633865 0.795996
vt 0.609628 0.795070
vt 0.609628 0.734576
vt 0.633865 0.733650
vt 0.532096 0.751005
vt 0.532096 0.808898
vt 0.507891 0.809785
vt 0.507891 0.750119
vt 0.551270 0.733650
vt 0.575507 0.734576
vt 0.575507 0.795069
vt 0.551270 0.795996
vt 0.276820 0.809716
vt 0.274786 0.751753
vt 0.298938 0.750119
vt 0.298938 0.810909
vt 0.502950 0.751005
vt 0.502950 0.808898
vt 0.478745 0.809785
vt 0.478745 0.750119
vt 0.444658 0.751005
vt 0.444658 0.808899
vt 0.420453 0.809785
vt 0.420453 0.750119
vt 0.575703 0.951550
vt 0.575703 0.889204
vt 0.582006 0.890544
vt 0.582006 0.950210
vt 0.941749 0.867959
vt 0.948053 0.866611
vt 0.948053 0.929036
vt 0.941747 0.927708
vt 0.986145 0.484874
vt 0.986145 0.545320
vt 0.980030 0.544014
vt 0.980032 0.486164
vt 0.983406 0.067905
vt 0.983406 0.128399
vt 0.977290 0.127099
vt 0.977290 0.069205
vt 0.046208 0.911033
vt 0.052258 0.909755
vt 0.052258 0.970297
vt 0.046140 0.969032
vt 0.959289 0.866611
vt 0.959289 0.928976
vt 0.952995 0.927579
vt 0.953085 0.867903
vt 0.986307 0.746757
vt 0.986307 0.803401
vt 0.980580 0.802184
vt 0.980580 0.747975
vt 0.780522 0.927073
vt 0.786635 0.925762
vt 0.786635 0.986176
vt 0.780528 0.984884
vt 0.983406 0.257968
vt 0.977290 0.259268
vt 0.977290 0.198775
vt 0.983406 0.200075
vt 0.615653 0.890517
vt 0.621955 0.889173
vt 0.621955 0.951535
vt 0.615652 0.950199
vt 0.986307 0.685172
vt 0.986307 0.741816
vt 0.980580 0.740599
vt 0.980580 0.686390
vt 0.318560 0.940587
vt 0.324116 0.939406
vt 0.324116 0.994366
vt 0.318559 0.993185
vt 0.715868 0.940766
vt 0.715868 0.995726
vt 0.710312 0.994545
vt 0.710312 0.941947
vt 0.430951 0.942054
vt 0.436508 0.940873
vt 0.436508 0.995833
vt 0.430951 0.994652
vt 0.604495 0.951550
vt 0.598192 0.950210
vt 0.598192 0.890544
vt 0.604495 0.889204
vt 0.462571 0.940873
vt 0.462571 0.995833
vt 0.457014 0.994652
vt 0.457014 0.942054
vt 0.988347 0.134557
vt 0.994074 0.133340
vt 0.994074 0.189983
vt 0.988347 0.188766
vt 0.338574 0.994745
vt 0.333017 0.995926
vt 0.333017 0.940966
vt 0.338574 0.942147
vt 0.953562 0.935135
vt 0.959289 0.933918
vt 0.959289 0.990561
vt 0.953562 0.989344
vt 0.289561 0.939219
vt 0.295288 0.938001
vt 0.295288 0.994645
vt 0.289561 0.993427
vt 0.844177 0.675066
vt 0.844177 0.736990
vt 0.837937 0.735884
vt 0.836313 0.676206
vt 0.983406 0.133340
vt 0.983406 0.193833
vt 0.977290 0.192533
vt 0.977290 0.134640
vt 0.633200 0.889173
vt 0.633200 0.951528
vt 0.626897 0.950187
vt 0.626897 0.890511
vt 0.545056 0.887422
vt 0.545056 0.949811
vt 0.538755 0.948469
vt 0.538752 0.888756
vt 0.994371 0.720140
vt 0.991248 0.712686
vt 0.994371 0.705196
vt 0.098233 0.875721
vt 0.098233 0.937666
vt 0.087408 0.899839
vt 0.371886 0.876327
vt 0.371886 0.936267
vt 0.362161 0.912116
vt 0.533176 0.876311
vt 0.533176 0.938174
vt 0.523453 0.900394
vt 0.799688 0.975771
vt 0.791576 0.938313
vt 0.799688 0.925762
vt 0.431278 0.876311
vt 0.431278 0.935931
vt 0.420453 0.911813
vt 0.879338 0.792784
vt 0.866782 0.786181
vt 0.879338 0.773717
vt 0.944663 0.271155
vt 0.957177 0.264563
vt 0.957177 0.283653
vt 0.592593 0.979349
vt 0.592593 0.993493
vt 0.575703 0.988245
vt 0.568146 0.975576
vt 0.568146 0.989763
vt 0.551270 0.980888
vt 0.837209 0.580909
vt 0.824487 0.574629
vt 0.837209 0.562003
vt 0.968146 0.542665
vt 0.968146 0.556808
vt 0.951177 0.548413
vt 0.921361 0.283653
vt 0.907942 0.279048
vt 0.921361 0.265729
vt 0.568239 0.956491
vt 0.568239 0.970635
vt 0.551270 0.964886
vt 0.888219 0.562003
vt 0.888219 0.764757
vt 0.871931 0.563439
vt 0.887323 0.340380
vt 0.887323 0.542823
vt 0.870577 0.541302
vt 0.780522 0.685874
vt 0.831372 0.675066
vt 0.831372 0.800085
vt 0.707550 0.013279
vt 0.758400 0.002471
vt 0.758400 0.127491
vt 0.814191 0.127490
vt 0.763341 0.116682
vt 0.814191 0.002471
vt 0.717766 0.275589
vt 0.717766 0.327575
vt 0.595478 0.301581
vt 0.180550 0.730539
vt 0.180550 0.782525
vt 0.058262 0.756532
vt 0.707963 0.595361
vt 0.657112 0.584553
vt 0.707963 0.470341
vt 0.758400 0.257452
vt 0.707550 0.246644
vt 0.758400 0.132432
vt 0.712904 0.351188
vt 0.763754 0.340380
vt 0.763754 0.465400
vt 0.657112 0.351188
vt 0.707963 0.340380
vt 0.707963 0.465400
vt 0.819546 0.465399
vt 0.768695 0.454591
vt 0.819546 0.340380
vt 0.468873 0.072371
vt 0.468873 0.124357
vt 0.346585 0.098364
vt 0.763341 0.143241
vt 0.814191 0.132432
vt 0.814191 0.257451
vt 0.763754 0.595361
vt 0.712904 0.584553
vt 0.763754 0.470341
vt 0.053321 0.855558
vt 0.002471 0.844749
vt 0.053321 0.730539
vt 0.819546 0.595360
vt 0.768695 0.584552
vt 0.819546 0.470341
vt 0.313405 0.876394
vt 0.313405 0.935537
vt 0.303907 0.934420
vt 0.304051 0.877259
vt 0.862971 0.002646
vt 0.862971 0.204264
vt 0.846096 0.204171
vt 0.844509 0.002471
vt 0.002477 0.722141
vt 0.002471 0.671572
vt 0.251935 0.669972
vt 0.251935 0.725597
vt 0.915988 0.860952
vt 0.907578 0.860797
vt 0.907529 0.839277
vt 0.915988 0.838956
vt 0.366364 0.534355
vt 0.366364 0.543854
vt 0.361616 0.543446
vt 0.361616 0.533947
vt 0.922898 0.860396
vt 0.922703 0.816082
vt 0.931348 0.816398
vt 0.931348 0.860994
vt 0.321709 0.144021
vt 0.321709 0.194620
vt 0.073414 0.200253
vt 0.073414 0.138381
vt 0.523754 0.670124
vt 0.274836 0.666926
vt 0.274786 0.617672
vt 0.523754 0.612231
vt 0.342242 0.329788
vt 0.342246 0.279168
vt 0.590536 0.275589
vt 0.590536 0.335438
vt 0.275614 0.736500
vt 0.543109 0.735799
vt 0.543109 0.745177
vt 0.274786 0.744184
vt 0.870260 0.976363
vt 0.862598 0.975590
vt 0.862600 0.926538
vt 0.870260 0.925761
vt 0.643718 0.002552
vt 0.643718 0.256513
vt 0.594546 0.256415
vt 0.585575 0.002471
vt 0.342256 0.394784
vt 0.342242 0.345629
vt 0.591172 0.340380
vt 0.591172 0.400062
vt 0.580634 0.062412
vt 0.331715 0.056887
vt 0.331706 0.007835
vt 0.580634 0.002471
vt 0.002981 0.991968
vt 0.002938 0.975098
vt 0.010661 0.975958
vt 0.010661 0.992315
vt 0.899228 0.268911
vt 0.892172 0.269732
vt 0.888801 0.002966
vt 0.899228 0.002471
vt 0.002471 0.417290
vt 0.250766 0.411682
vt 0.250766 0.473184
vt 0.002471 0.467883
vt 0.591171 0.464670
vt 0.342242 0.459343
vt 0.342242 0.410343
vt 0.591171 0.405003
vt 0.591172 0.469611
vt 0.591172 0.529006
vt 0.342248 0.523678
vt 0.342242 0.474609
vt 0.073415 0.261419
vt 0.073414 0.210817
vt 0.321709 0.205194
vt 0.321709 0.267058
vt 0.953018 0.536943
vt 0.951177 0.288595
vt 0.960673 0.288741
vt 0.960673 0.537723
vt 0.328076 0.876394
vt 0.328076 0.934465
vt 0.318559 0.933147
vt 0.318737 0.877280
vt 0.924585 0.562782
vt 0.932245 0.562003
vt 0.932245 0.810990
vt 0.922703 0.811140
vt 0.944710 0.555421
vt 0.936630 0.556611
vt 0.936630 0.547112
vt 0.944710 0.545922
vt 0.762088 0.970792
vt 0.754844 0.971517
vt 0.753125 0.734830
vt 0.762088 0.733650
vt 0.284012 0.933883
vt 0.275069 0.932565
vt 0.274786 0.878510
vt 0.284012 0.877435
vt 0.023777 0.970211
vt 0.016076 0.969603
vt 0.015602 0.920575
vt 0.023777 0.919649
vt 0.868533 0.271395
vt 0.868487 0.226087
vt 0.877999 0.226881
vt 0.877999 0.272192
vt 0.006992 0.544630
vt 0.252641 0.548896
vt 0.252641 0.597760
vt 0.002471 0.603131
vt 0.081395 0.072371
vt 0.341643 0.077551
vt 0.341644 0.126384
vt 0.073414 0.133440
vt 0.258579 0.923237
vt 0.256876 0.669972
vt 0.266267 0.670173
vt 0.266267 0.923998
vt 0.939022 0.810353
vt 0.937186 0.562003
vt 0.946683 0.562150
vt 0.946683 0.811135
vt 0.931689 0.542676
vt 0.931689 0.556611
vt 0.922261 0.555447
vt 0.922261 0.543839
vt 0.213927 0.732874
vt 0.222760 0.730539
vt 0.222760 0.980770
vt 0.215279 0.979992
vt 0.964735 0.003246
vt 0.972349 0.002471
vt 0.972349 0.251446
vt 0.962863 0.251591
vt 0.910167 0.562765
vt 0.917761 0.562003
vt 0.917761 0.822303
vt 0.908451 0.821928
vt 0.264536 0.928939
vt 0.264536 0.979532
vt 0.256876 0.978759
vt 0.256920 0.929691
vt 0.007288 0.608072
vt 0.256279 0.613459
vt 0.256279 0.662489
vt 0.002471 0.665031
vt 0.846753 0.925762
vt 0.846753 0.976300
vt 0.839572 0.975662
vt 0.838688 0.926608
vt 0.895745 0.814533
vt 0.893160 0.562252
vt 0.903509 0.562003
vt 0.903509 0.815358
vt 0.249524 0.483724
vt 0.249524 0.534577
vt 0.009382 0.539689
vt 0.002471 0.478126
vt 0.910144 0.548377
vt 0.907942 0.288824
vt 0.917320 0.288595
vt 0.917320 0.549077
vt 0.041018 0.955062
vt 0.031554 0.955884
vt 0.031556 0.910575
vt 0.041018 0.909755
vt 0.967583 0.289358
vt 0.975089 0.288595
vt 0.975089 0.537566
vt 0.965614 0.537707
vt 0.895483 0.925761
vt 0.895483 0.976343
vt 0.887811 0.975572
vt 0.887819 0.926526
vt 0.536923 0.612231
vt 0.773621 0.612390
vt 0.773621 0.661371
vt 0.528695 0.665657
vt 0.400773 0.938119
vt 0.391351 0.937105
vt 0.391343 0.877423
vt 0.400773 0.876320
vt 0.415144 0.937822
vt 0.405714 0.936797
vt 0.405757 0.877403
vt 0.415144 0.876320
vt 0.904169 0.243446
vt 0.906603 0.003259
vt 0.914517 0.002471
vt 0.914517 0.248159
vt 0.010661 0.970156
vt 0.002471 0.969372
vt 0.003419 0.920400
vt 0.010661 0.919649
vt 0.178862 0.984251
vt 0.170284 0.984736
vt 0.170292 0.966607
vt 0.178862 0.965428
vt 0.274786 0.291037
vt 0.337301 0.275589
vt 0.337301 0.542379
vt 0.288162 0.544048
vt 0.825181 0.925762
vt 0.825181 0.976355
vt 0.817420 0.975500
vt 0.818101 0.926338
vt 0.185492 0.994116
vt 0.185491 0.984617
vt 0.193511 0.985628
vt 0.193511 0.995128
vt 0.298955 0.877435
vt 0.298955 0.933060
vt 0.289561 0.931859
vt 0.290439 0.878223
vt 0.908025 0.925761
vt 0.908025 0.976774
vt 0.900442 0.975285
vt 0.900424 0.926452
vt 0.882870 0.925761
vt 0.882870 0.976357
vt 0.875201 0.975616
vt 0.875358 0.926462
vt 0.734788 0.935356
vt 0.727155 0.936121
vt 0.726344 0.734195
vt 0.734788 0.733650
vt 0.546315 0.815059
vt 0.537037 0.814193
vt 0.537272 0.752605
vt 0.546315 0.750119
vt 0.386266 0.936662
vt 0.377051 0.935692
vt 0.376828 0.877393
vt 0.386266 0.876327
vt 0.846439 0.249224
vt 0.844509 0.209206
vt 0.862968 0.209538
vt 0.862968 0.253894
vt 0.652171 0.599942
vt 0.601641 0.600850
vt 0.596114 0.355540
vt 0.652171 0.340380
vt 0.971886 0.982769
vt 0.964232 0.981974
vt 0.964230 0.932975
vt 0.971886 0.932170
vt 0.067727 0.956531
vt 0.058262 0.957337
vt 0.058265 0.912029
vt 0.067727 0.911224
vt 0.819133 0.204129
vt 0.822698 0.002471
vt 0.839568 0.002573
vt 0.839568 0.218945
vt 0.935813 0.251519
vt 0.933988 0.002471
vt 0.943484 0.002621
vt 0.943484 0.252304
vt 0.991248 0.670434
vt 0.994343 0.662911
vt 0.994343 0.677992
vt 0.142843 0.875721
vt 0.142843 0.937666
vt 0.132258 0.886463
vt 0.175978 0.908201
vt 0.175978 0.960487
vt 0.167748 0.948013
vt 0.980584 0.281837
vt 0.980567 0.264661
vt 0.989152 0.265701
vt 0.989152 0.282250
vt 0.748184 0.734409
vt 0.748184 0.936106
vt 0.739729 0.935577
vt 0.740451 0.733650
vt 0.356675 0.534359
vt 0.356675 0.543858
vt 0.351929 0.543446
vt 0.351929 0.533947
vt 0.812479 0.925762
vt 0.812479 0.976331
vt 0.804629 0.975489
vt 0.804805 0.926520
vt 0.992857 0.387543
vt 0.991088 0.369945
vt 0.992857 0.365522
vt 0.651038 0.956460
vt 0.651038 0.993012
vt 0.643033 0.972498
vt 0.237729 0.996032
vt 0.228302 0.994869
vt 0.228302 0.983261
vt 0.237729 0.982098
vt 0.375166 0.967834
vt 0.373370 0.960424
vt 0.375166 0.941603
vt 0.541230 0.085767
vt 0.545063 0.072371
vt 0.545063 0.111716
vt 0.531206 0.602441
vt 0.529401 0.583595
vt 0.531206 0.576005
vt 0.679424 0.981574
vt 0.679424 0.995508
vt 0.669997 0.994345
vt 0.669997 0.982737
vt 0.400773 0.943060
vt 0.400773 0.988367
vt 0.394737 0.983708
vt 0.394949 0.947157
vt 0.515934 0.979747
vt 0.507927 0.963720
vt 0.515934 0.943197
vt 0.992855 0.452962
vt 0.991088 0.448537
vt 0.992855 0.430933
vt 0.639701 0.946123
vt 0.638142 0.939113
vt 0.639701 0.920086
vt 0.724290 0.978149
vt 0.721246 0.966948
vt 0.724290 0.941063
vt 0.992570 0.314658
vt 0.991088 0.295648
vt 0.992570 0.288595
vt 0.470531 0.990314
vt 0.468962 0.983565
vt 0.470531 0.964562
vt 0.830122 0.939256
vt 0.833595 0.925762
vt 0.833595 0.964772
vt 0.639719 0.915145
vt 0.638142 0.896120
vt 0.639719 0.889173
vt 0.648659 0.249310
vt 0.653554 0.002471
vt 0.702608 0.003340
vt 0.702608 0.263823
vt 0.991248 0.754212
vt 0.994371 0.746757
vt 0.994371 0.761702
vt 0.502986 0.876311
vt 0.502986 0.935931
vt 0.492401 0.925188
vt 0.994343 0.700254
vt 0.991248 0.692731
vt 0.994343 0.685172
vt 0.199881 0.994046
vt 0.199881 0.984547
vt 0.207909 0.985730
vt 0.207909 0.995229
vt 0.844177 0.792784
vt 0.836698 0.791983
vt 0.836313 0.743120
vt 0.844177 0.741931
vt 0.762088 0.993333
vt 0.754430 0.993546
vt 0.754447 0.977145
vt 0.762088 0.976459
vt 0.507927 0.985701
vt 0.515946 0.984689
vt 0.515946 0.994188
vt 0.507927 0.995200
vt 0.837358 0.982641
vt 0.846753 0.981241
vt 0.846753 0.995385
vt 0.837358 0.996785
vt 0.136802 0.947259
vt 0.142842 0.942608
vt 0.142842 0.987916
vt 0.136972 0.983811
vt 0.908025 0.995650
vt 0.898598 0.994486
vt 0.898598 0.982878
vt 0.908025 0.981715
vt 0.992855 0.479932
vt 0.991088 0.462328
vt 0.992855 0.457903
vt 0.531460 0.943115
vt 0.531460 0.979666
vt 0.523453 0.959143
vt 0.371305 0.534355
vt 0.376052 0.533947
vt 0.376052 0.543446
vt 0.371305 0.543854
vt 0.834462 0.250322
vt 0.832657 0.242732
vt 0.834462 0.223886
vt 0.532786 0.571064
vt 0.529401 0.559960
vt 0.532786 0.533947
vt 0.060057 0.988510
vt 0.058262 0.969689
vt 0.060057 0.962278
vt 0.386266 0.941603
vt 0.386266 0.986911
vt 0.380107 0.982120
vt 0.380504 0.945572
vt 0.663984 0.993012
vt 0.655979 0.976975
vt 0.663984 0.956460
vt 0.993017 0.610986
vt 0.991248 0.606563
vt 0.993017 0.588965
vt 0.598177 0.993268
vt 0.598177 0.979125
vt 0.607572 0.980525
vt 0.607572 0.994669
vt 0.326764 0.067429
vt 0.073414 0.057607
vt 0.073415 0.006992
vt 0.326764 0.002471
vt 0.802983 0.981521
vt 0.812479 0.981272
vt 0.812479 0.995459
vt 0.802983 0.995708
vt 0.237729 0.731389
vt 0.237729 0.977157
vt 0.228589 0.975502
vt 0.229546 0.730539
vt 0.953452 0.810360
vt 0.951624 0.562003
vt 0.961116 0.562150
vt 0.961116 0.811141
vt 0.984427 0.982786
vt 0.977188 0.982140
vt 0.976827 0.932970
vt 0.984427 0.932170
vt 0.895768 0.542114
vt 0.892264 0.288595
vt 0.903001 0.288717
vt 0.903001 0.542823
vt 0.520509 0.679659
vt 0.520509 0.730166
vt 0.283364 0.730858
vt 0.274786 0.675066
vt 0.767718 0.983135
vt 0.767029 0.733650
vt 0.775581 0.733695
vt 0.775581 0.983853
vt 0.721402 0.868933
vt 0.711013 0.867926
vt 0.711381 0.803532
vt 0.721402 0.800937
vt 0.244273 0.731317
vt 0.251935 0.730539
vt 0.251935 0.980186
vt 0.242670 0.980325
vt 0.883860 0.002471
vt 0.883860 0.219047
vt 0.867912 0.204599
vt 0.524402 0.607289
vt 0.274787 0.603659
vt 0.274786 0.554613
vt 0.524402 0.548990
vt 0.849182 0.354979
vt 0.865635 0.340380
vt 0.865635 0.556751
vt 0.250766 0.350547
vt 0.250766 0.401142
vt 0.002471 0.406741
vt 0.002471 0.344943
vt 0.923639 0.289426
vt 0.931824 0.288595
vt 0.931824 0.537644
vt 0.922261 0.537735
vt 0.201458 0.731299
vt 0.208986 0.730539
vt 0.208986 0.979473
vt 0.199881 0.979606
vt 0.887849 0.849622
vt 0.869721 0.849468
vt 0.867854 0.819486
vt 0.887849 0.805026
vt 0.824487 0.355169
vt 0.844240 0.340380
vt 0.844241 0.556956
vt 0.827884 0.557061
vt 0.938555 0.289288
vt 0.946235 0.288595
vt 0.946235 0.538719
vt 0.936766 0.538754
vt 0.187280 0.978894
vt 0.185491 0.730539
vt 0.194939 0.730685
vt 0.194939 0.979675
vt 0.920927 0.250814
vt 0.919458 0.002471
vt 0.929046 0.002632
vt 0.929047 0.251648
vt 0.269845 0.283571
vt 0.269845 0.334583
vt 0.010733 0.340001
vt 0.002471 0.275589
vt 0.921079 0.997529
vt 0.913392 0.997410
vt 0.913426 0.981059
vt 0.921079 0.980714
vt 0.936486 0.816608
vt 0.944932 0.816082
vt 0.944932 0.860643
vt 0.936289 0.860963
vt 0.579904 0.210718
vt 0.579904 0.261280
vt 0.331659 0.267058
vt 0.326650 0.208127
vt 0.964415 0.860375
vt 0.964242 0.820310
vt 0.972817 0.820523
vt 0.972817 0.860774
vt 0.870375 0.281650
vt 0.886295 0.277133
vt 0.886295 0.321695
vt 0.868487 0.321857
vt 0.052258 0.860499
vt 0.052258 0.904814
vt 0.031554 0.890377
vt 0.033436 0.860692
vt 0.977758 0.820219
vt 0.983942 0.815463
vt 0.983942 0.860774
vt 0.977950 0.856769
vt 0.926020 0.925892
vt 0.926130 0.867750
vt 0.936806 0.866611
vt 0.936806 0.931570
vt 0.721402 0.873874
vt 0.721402 0.935824
vt 0.710312 0.933316
vt 0.712301 0.874674
vt 0.262237 0.345665
vt 0.269845 0.344943
vt 0.269845 0.598907
vt 0.257656 0.599016
vt 0.775581 0.728709
vt 0.525462 0.727417
vt 0.525450 0.678448
vt 0.775581 0.675066
vt 0.127316 0.875721
vt 0.127316 0.937666
vt 0.116491 0.913548
vt 0.342741 0.876358
vt 0.342741 0.936024
vt 0.333017 0.900488
vt 0.487459 0.876311
vt 0.487459 0.938182
vt 0.477737 0.914103
vt 0.994371 0.803401
vt 0.991248 0.795946
vt 0.994371 0.788455
vt 0.160066 0.960487
vt 0.151836 0.920676
vt 0.160066 0.908201
vt 0.447044 0.876311
vt 0.447044 0.935931
vt 0.436220 0.900430
vt 0.151836 0.969624
vt 0.165343 0.965428
vt 0.165343 0.983115
vt 0.607572 0.974184
vt 0.594040 0.969924
vt 0.607572 0.956491
vt 0.032478 0.975152
vt 0.032478 0.989339
vt 0.015602 0.984027
vt 0.975625 0.282250
vt 0.962118 0.278053
vt 0.975625 0.264563
vt 0.575703 0.961029
vt 0.589099 0.956491
vt 0.589099 0.974407
vt 0.849119 0.780158
vt 0.861840 0.773878
vt 0.861840 0.792784
vt 0.082404 0.962293
vt 0.082404 0.976436
vt 0.065435 0.968042
vt 0.926303 0.270334
vt 0.939722 0.265729
vt 0.939722 0.283653
vt 0.326650 0.194351
vt 0.326654 0.143769
vt 0.575632 0.139918
vt 0.575632 0.200253
vt 0.074931 0.995522
vt 0.065435 0.995767
vt 0.065435 0.981623
vt 0.074931 0.981378
vt 0.523454 0.994106
vt 0.523453 0.984607
vt 0.531523 0.985635
vt 0.531523 0.995134
vt 0.873374 0.995442
vt 0.873374 0.981298
vt 0.882870 0.981543
vt 0.882870 0.995687
vt 0.342242 0.534359
vt 0.346988 0.533947
vt 0.346988 0.543446
vt 0.342242 0.543858
vt 0.093452 0.942608
vt 0.093452 0.987916
vt 0.087408 0.983267
vt 0.087562 0.946716
vt 0.949873 0.860963
vt 0.949873 0.820310
vt 0.959300 0.821473
vt 0.959300 0.859800
vt 0.357209 0.936208
vt 0.348145 0.935340
vt 0.347682 0.877447
vt 0.357209 0.876358
vt 0.703540 0.921672
vt 0.703540 0.972292
vt 0.695423 0.971437
vt 0.695991 0.922186
vt 0.950264 0.003252
vt 0.957922 0.002471
vt 0.957922 0.251455
vt 0.948426 0.251602
vt 0.827716 0.253926
vt 0.819133 0.254307
vt 0.819278 0.224563
vt 0.827716 0.223886
vt 0.824487 0.595350
vt 0.824487 0.585851
vt 0.832567 0.587041
vt 0.832567 0.596540
vt 0.967570 0.562815
vt 0.975639 0.562003
vt 0.975639 0.808891
vt 0.966058 0.808185
vt 0.992855 0.414513
vt 0.991088 0.396909
vt 0.992855 0.392484
vt 0.485743 0.943124
vt 0.485743 0.979674
vt 0.477737 0.959151
vt 0.127316 0.942608
vt 0.127316 0.987915
vt 0.121167 0.983113
vt 0.121629 0.946566
vt 0.843955 0.588438
vt 0.842150 0.580848
vt 0.843955 0.562003
vt 0.472795 0.915657
vt 0.468962 0.902260
vt 0.472795 0.876311
vt 0.116226 0.968838
vt 0.114430 0.950017
vt 0.116226 0.942608
vt 0.082404 0.912045
vt 0.082404 0.957352
vt 0.072942 0.956532
vt 0.072941 0.911224
vt 0.992634 0.514616
vt 0.991086 0.507793
vt 0.992634 0.488788
vt 0.988884 0.826659
vt 0.991947 0.815463
vt 0.991947 0.852305
vt 0.657545 0.946098
vt 0.655979 0.927073
vt 0.657545 0.920083
vt 0.636602 0.993028
vt 0.628598 0.976991
vt 0.636602 0.956476
vt 0.993017 0.637948
vt 0.991248 0.633525
vt 0.993017 0.615927
vt 0.657558 0.915141
vt 0.655979 0.908198
vt 0.657558 0.889173
vt 0.472433 0.959621
vt 0.468962 0.946126
vt 0.472433 0.920598
vt 0.992653 0.545320
vt 0.991086 0.526318
vt 0.992653 0.519558
vt 0.541230 0.124181
vt 0.544325 0.116658
vt 0.544325 0.131739
vt 0.462571 0.876311
vt 0.462571 0.935931
vt 0.451986 0.887053
vt 0.921079 0.925761
vt 0.921079 0.975773
vt 0.912967 0.963220
vt 0.991248 0.732536
vt 0.994371 0.725082
vt 0.994371 0.740026
vt 0.518512 0.876311
vt 0.518512 0.938256
vt 0.507927 0.927514
vt 0.994343 0.657970
vt 0.991248 0.650447
vt 0.994343 0.642889
vt 0.409109 0.947421
vt 0.415144 0.942764
vt 0.415144 0.988070
vt 0.409317 0.983973
vt 0.993017 0.584024
vt 0.991248 0.566426
vt 0.993017 0.562003
vt 0.623656 0.956476
vt 0.623656 0.993028
vt 0.615652 0.972514
vt 0.695423 0.978634
vt 0.704818 0.977233
vt 0.704818 0.991421
vt 0.695423 0.992822
vt 0.477737 0.985644
vt 0.485806 0.984615
vt 0.485806 0.994114
vt 0.477737 0.995143
vt 0.264905 0.993972
vt 0.256876 0.995156
vt 0.256876 0.985657
vt 0.264905 0.984474
vt 0.002471 0.254302
vt 0.017909 0.002471
vt 0.068473 0.004204
vt 0.068473 0.270647
vt 0.545056 0.991302
vt 0.537049 0.975274
vt 0.545056 0.954752
vt 0.992855 0.341628
vt 0.991088 0.337203
vt 0.992855 0.319599
vt 0.492480 0.969354
vt 0.490685 0.961945
vt 0.492480 0.943124
vt 0.270128 0.949927
vt 0.273514 0.938824
vt 0.273514 0.975938
vt 0.887849 0.800085
vt 0.886045 0.781239
vt 0.887849 0.773648
vt 0.103174 0.946901
vt 0.109324 0.942100
vt 0.109324 0.987408
vt 0.103626 0.983448
vt 0.826916 0.981546
vt 0.826916 0.995733
vt 0.817420 0.995483
vt 0.817420 0.981296
vt 0.052258 0.976640
vt 0.052258 0.990827
vt 0.042862 0.989426
vt 0.042862 0.975239
vt 0.893160 0.820299
vt 0.902588 0.821462
vt 0.902588 0.859789
vt 0.893160 0.860952
vt 0.866990 0.763979
vt 0.849182 0.764015
vt 0.850589 0.562092
vt 0.866990 0.562003
vn -0.9758 0.1933 0.1025
vn -0.9758 0.1933 0.1026
vn -0.9758 0.1930 0.1026
vn -0.0001 -0.1840 0.9829
vn 0.0908 0.9906 0.1026
vn 0.0907 0.9906 0.1026
vn -0.8521 0.1790 0.4919
vn -0.8521 0.1788 0.4918
vn -0.8520 0.1792 0.4919
vn -0.8521 0.1792 0.4918
vn -0.0356 -0.9974 0.0621
vn -0.1166 -0.9900 -0.0795
vn -0.9321 0.1994 -0.3024
vn -0.1039 -0.9879 -0.1156
vn -0.1039 -0.9878 -0.1156
vn 0.9386 -0.2080 0.2752
vn 0.0518 0.9982 0.0285
vn 0.0518 0.9983 0.0285
vn -0.0000 1.0000 0.0000
vn -0.0001 1.0000 -0.0003
vn 0.7184 -0.2091 0.6634
vn -0.9393 0.1569 -0.3052
vn -0.8553 0.1569 0.4938
vn 0.4017 0.1569 -0.9022
vn 0.7331 -0.1638 0.6601
vn 0.2051 -0.1638 -0.9649
vn -0.5798 -0.1638 -0.7981
vn -0.9811 -0.1638 -0.1031
vn 0.5798 -0.1638 -0.7981
vn -0.4012 -0.1638 0.9012
vn -0.9382 -0.1638 0.3048
vn -0.7331 -0.1638 0.6601
vn 0.4012 -0.1638 0.9012
vn 0.8543 -0.1638 -0.4932
vn 0.9382 -0.1638 0.3048
vn 0.9811 -0.1638 -0.1031
vn -0.7353 0.2016 -0.6471
vn -0.7351 0.2019 -0.6471
vn -0.2051 -0.1638 -0.9649
vn -0.8543 -0.1638 -0.4932
vn 0.7339 0.1569 -0.6608
vn 0.9822 0.1569 0.1032
vn -0.2053 0.1569 0.9660
vn 0.9393 0.1569 -0.3052
vn -0.5805 0.1569 0.7990
vn 0.0000 0.1569 -0.9876
vn 0.2053 0.1569 0.9660
vn 0.8553 0.1569 0.4938
vn -0.2048 0.1723 0.9635
vn 0.0000 -0.1638 0.9865
vn -0.7339 0.1569 -0.6608
vn -0.9822 0.1569 0.1032
vn 0.5805 0.1569 0.7990
vn 0.0000 -1.0000 -0.0000
vn 0.0021 -1.0000 0.0011
vn -0.0000 -1.0000 -0.0007
vn 0.0005 -1.0000 -0.0009
vn -0.0019 -1.0000 0.0006
vn -0.0003 -1.0000 0.0013
vn -0.0009 -1.0000 0.0011
vn 0.0017 -1.0000 0.0018
vn -0.0008 -1.0000 -0.0016
vn 0.0006 -1.0000 -0.0001
vn -0.0003 -1.0000 -0.0006
vn 0.9743 -0.2005 -0.1024
vn 0.9743 -0.2006 -0.1024
vn 0.9743 -0.2007 -0.1024
vn 0.8507 -0.1869 -0.4913
vn 0.8507 -0.1870 -0.4913
vn -0.0001 0.1766 -0.9843
vn -0.0001 0.1761 -0.9844
vn -0.0001 0.1762 -0.9843
vn -0.0000 0.1762 -0.9843
vn -0.2045 -0.1798 -0.9622
vn -0.9356 -0.1798 0.3040
vn -0.9783 -0.1798 -0.1028
vn 0.5781 -0.1811 -0.7957
vn -0.8519 -0.1798 -0.4919
vn 0.3926 -0.1912 0.8996
vn 0.3921 -0.1917 0.8997
vn -0.7310 -0.1798 0.6582
vn 0.2048 0.1723 0.9635
vn -0.5791 0.1731 0.7967
vn -0.5789 0.1731 0.7968
vn -0.5789 0.1736 0.7967
vn -0.4017 0.1569 -0.9022
vn -0.4000 -0.1802 0.8986
vn -0.3999 -0.1801 0.8987
vn -0.4002 -0.1811 0.8984
vn -0.4002 -0.1811 0.8983
vn 0.4006 0.1731 -0.8998
vn 0.4003 0.1722 -0.9000
vn 0.4004 0.1725 -0.8999
vn 0.4008 0.1738 -0.8995
vn 0.5790 0.1723 0.7969
vn 0.7320 0.1723 -0.6591
vn -0.5782 -0.1798 -0.7958
vn 0.9368 0.1723 -0.3044
vn 0.2045 -0.1798 -0.9622
vn -0.3923 0.1845 -0.9011
vn -0.3930 0.1838 -0.9010
vn -0.3930 0.1837 -0.9010
vn -0.3929 0.1839 -0.9010
vn 0.9797 0.1723 0.1030
vn 0.8531 0.1723 0.4925
vn 0.0033 1.0000 -0.0014
vn 0.0054 1.0000 -0.0008
vn 0.0041 1.0000 -0.0046
vn 0.0002 -1.0000 -0.0067
vn -0.0014 -1.0000 -0.0088
vn 0.0022 -1.0000 -0.0087
vn 0.0002 -1.0000 -0.0066
vn -0.0197 -0.9989 -0.0420
vn 0.0522 0.9973 0.0513
vn -0.0090 -0.9999 0.0081
vn -0.0110 -0.9999 0.0049
vn -0.0081 -1.0000 0.0052
vn -0.0008 1.0000 0.0021
vn -0.0021 1.0000 -0.0005
vn 0.0003 1.0000 0.0001
vn 0.0003 1.0000 -0.0003
vn -0.0000 1.0000 0.0003
vn -0.0003 1.0000 0.0001
vn 0.1367 0.9906 0.0048
vn 0.1368 0.9906 0.0048
vn 0.0001 -1.0000 0.0006
vn -0.0002 1.0000 0.0006
vn -0.0014 1.0000 -0.0013
vn 0.0014 1.0000 -0.0009
vn 0.0018 1.0000 0.0069
vn 0.0002 1.0000 0.0047
vn -0.0016 1.0000 0.0072
vn -0.9511 -0.0010 0.3090
vn -0.9511 -0.0011 0.3090
vn 0.9497 0.0039 -0.3130
vn 0.9508 0.0049 -0.3099
vn 0.9507 0.0045 -0.3102
vn -0.9511 -0.0007 0.3090
vn 0.9511 0.0010 -0.3090
vn 0.9515 0.0000 -0.3076
vn 0.9511 0.0011 -0.3090
vn 0.9516 0.0013 -0.3074
vn 0.9510 0.0005 -0.3092
vn 0.9506 0.0026 -0.3104
vn 0.9511 0.0005 -0.3088
vn -0.9511 -0.0005 0.3088
vn -0.9510 -0.0005 0.3092
vn -0.9510 -0.0001 0.3092
vn 0.9507 -0.0003 -0.3100
vn -0.9511 0.0001 0.3088
vn 0.4201 0.0945 -0.9025
vn -0.4181 -0.0983 0.9031
vn 0.1117 0.9928 0.0431
vn 0.1112 0.9929 0.0425
vn -0.4041 -0.0986 0.9094
vn -0.8608 -0.0964 -0.4998
vn -0.8619 -0.0970 -0.4976
vn -0.8546 -0.0938 -0.5108
vn -0.8535 -0.0933 -0.5127
vn 0.6031 0.7384 0.3017
vn 0.6030 0.7383 0.3021
vn -0.4238 0.0030 -0.9057
vn -0.8633 -0.0017 -0.5048
vn -0.8614 0.0027 -0.5080
vn -0.8613 0.0027 -0.5081
vn -0.8594 -0.0005 -0.5113
vn 0.9888 -0.1071 -0.1039
vn 0.2013 0.1005 0.9744
vn 0.2011 0.1005 0.9744
vn 0.2013 0.1004 0.9744
vn -0.2075 -0.1061 -0.9725
vn -0.2067 -0.1059 -0.9726
vn -0.2110 -0.1069 -0.9716
vn -0.2116 -0.1070 -0.9715
vn 0.9213 -0.0031 -0.3889
vn 0.9213 -0.0031 -0.3890
vn -0.9477 0.0940 -0.3051
vn -0.9479 0.0944 -0.3042
vn -0.9480 0.0944 -0.3040
vn -0.9479 0.0944 -0.3044
vn -0.8625 0.0996 0.4962
vn -0.8622 0.0995 0.4968
vn 0.9461 0.0997 -0.3081
vn 0.9463 0.0996 -0.3076
vn 0.9463 0.0996 -0.3075
vn 0.9460 0.0998 -0.3085
vn 0.0001 -1.0000 -0.0001
vn -0.8646 -0.0237 -0.5020
vn -0.8645 -0.0237 -0.5021
vn -0.8646 -0.0237 -0.5019
vn -0.7389 -0.1071 0.6653
vn -0.9896 0.0998 0.1040
vn 0.7391 0.0998 -0.6661
vn 0.7398 0.1000 -0.6653
vn 0.7400 0.1000 -0.6651
vn -0.9456 -0.1071 0.3072
vn -0.0051 -0.0107 0.9999
vn -0.0107 -0.0132 0.9999
vn -0.0026 -0.0162 0.9999
vn -0.0053 -0.0106 0.9999
vn 0.2742 0.9588 -0.0741
vn 0.2736 0.9590 -0.0742
vn 0.2738 0.9589 -0.0740
vn 0.2735 0.9590 -0.0743
vn 0.4115 -0.0117 0.9113
vn 0.4121 -0.0117 0.9110
vn 0.3869 -0.0277 0.9217
vn 0.3856 -0.0051 0.9226
vn -0.0061 0.9246 -0.3808
vn -0.9989 0.0123 -0.0460
vn -0.9988 0.0122 -0.0470
vn -0.9999 0.0145 -0.0078
vn -0.9999 0.0146 -0.0071
vn -0.1547 0.9873 0.0364
vn -0.1547 0.9873 0.0363
vn -0.1549 0.9873 0.0365
vn -0.1547 0.9873 0.0365
vn -0.0001 -1.0000 -0.0001
vn 0.4182 -0.0013 0.9083
vn 0.3999 -0.0156 0.9164
vn 0.3942 0.0076 0.9190
vn 0.4216 -0.0005 0.9068
vn -0.0082 0.0998 -0.9950
vn -0.0081 0.0998 -0.9950
vn 0.5977 0.0995 0.7955
vn 0.5976 0.0995 0.7956
vn 0.5975 0.0995 0.7956
vn -0.9478 -0.0007 0.3188
vn -0.9478 -0.0007 0.3187
vn -0.9478 -0.0007 0.3189
vn -0.2038 -0.0107 -0.9789
vn -0.2035 -0.0107 -0.9790
vn -0.2032 -0.0107 -0.9791
vn 0.0865 0.9962 -0.0091
vn -0.9921 -0.0090 -0.1251
vn 0.7435 -0.0111 0.6687
vn 0.7434 -0.0111 0.6688
vn -0.7436 -0.0106 0.6685
vn -0.7437 -0.0106 0.6684
vn -0.4022 0.0991 -0.9102
vn -0.4026 0.0992 -0.9100
vn 0.0003 -1.0000 -0.0002
vn 0.0001 -1.0000 -0.0002
vn 0.0000 -1.0000 -0.0003
vn -0.0005 -1.0000 -0.0002
vn 0.7410 -0.0081 0.6714
vn 0.6473 0.0018 0.7622
vn 0.6492 0.0016 0.7606
vn 0.7432 -0.0083 0.6690
vn -0.0070 -0.1073 0.9942
vn -0.0071 -0.1073 0.9942
vn -0.0073 -0.1072 0.9942
vn -0.7669 -0.0061 0.6417
vn -0.7668 -0.0061 0.6419
vn -0.7668 -0.0061 0.6418
vn -0.1940 0.0067 -0.9810
vn -0.5863 -0.0113 -0.8100
vn -0.5864 -0.0113 -0.8100
vn -0.5864 -0.0113 -0.8099
vn -0.1730 0.0957 0.9803
vn -0.1730 0.0959 0.9802
vn -0.1732 0.0958 0.9802
vn -0.1729 0.0956 0.9803
vn 0.0751 0.9962 -0.0434
vn -0.0645 0.9962 0.0581
vn 0.9850 -0.0012 -0.1723
vn 0.9851 -0.0012 -0.1723
vn 0.9851 -0.0013 -0.1720
vn 0.9851 -0.0013 -0.1721
vn -0.0004 -1.0000 0.0005
vn 0.0002 -1.0000 -0.0001
vn -0.0003 -1.0000 -0.0005
vn -0.0290 0.9976 0.0631
vn -0.5736 0.1014 0.8128
vn -0.5730 0.1012 0.8133
vn -0.5786 0.1026 0.8092
vn -0.5795 0.1029 0.8085
vn -0.0001 -1.0000 0.0002
vn -0.0002 -1.0000 0.0001
vn -0.0002 -1.0000 -0.0000
vn 0.0155 0.3763 0.9264
vn -0.0751 0.9962 -0.0433
vn -0.0000 -1.0000 0.0002
vn 0.9501 -0.0034 0.3121
vn 0.9501 -0.0034 0.3120
vn 0.9513 0.0016 0.3083
vn 0.9488 -0.0003 0.3160
vn -0.1849 0.9822 -0.0338
vn -0.0862 0.9962 -0.0091
vn -0.4056 -0.1009 0.9085
vn 0.7099 -0.1053 0.6964
vn -0.0153 -0.0065 0.9999
vn -0.0098 -0.0028 0.9999
vn -0.0182 -0.0020 0.9998
vn -0.3876 -0.0969 0.9167
vn -0.3877 -0.0970 0.9167
vn -0.3876 -0.0970 0.9167
vn -0.3875 -0.0969 0.9168
vn 0.2088 -0.0121 -0.9779
vn -0.9511 -0.0009 0.3090
vn -0.2717 0.9620 -0.0271
vn -0.2719 0.9620 -0.0265
vn -0.2717 0.9620 -0.0259
vn -0.2719 0.9620 -0.0268
vn -0.8669 0.0004 -0.4984
vn -0.8691 0.0029 -0.4946
vn -0.8653 0.0054 -0.5013
vn 0.2257 -0.0031 0.9742
vn 0.0002 -1.0000 0.0001
vn -0.9512 -0.0003 0.3085
vn -0.9510 -0.0006 0.3091
vn 0.0827 -0.9962 -0.0269
vn -0.0865 -0.9962 0.0091
vn 0.9945 0.0000 -0.1048
vn 0.9946 -0.0006 -0.1041
vn -0.9511 -0.0006 0.3090
vn -0.9509 -0.0006 0.3094
vn -0.9508 -0.0010 0.3097
vn -0.9509 -0.0003 0.3096
vn -0.9509 0.0002 0.3094
vn 0.9511 0.0029 -0.3090
vn 0.9510 0.0022 -0.3093
vn 0.9510 0.0090 -0.3090
vn 0.9501 0.0092 -0.3119
vn 0.9538 0.0370 -0.2981
vn 0.9531 0.0372 -0.3004
vn 0.9529 0.0375 -0.3010
vn -0.9508 0.0013 0.3098
vn -0.9509 0.0011 0.3096
vn -0.9507 0.0017 0.3102
vn -0.9509 -0.0005 0.3096
vn -0.9512 0.0008 0.3084
vn -0.7165 0.0981 -0.6906
vn -0.7166 0.0978 -0.6906
vn -0.7169 0.0977 -0.6903
vn -0.7166 0.0982 -0.6906
vn 0.9513 -0.0005 -0.3082
vn 0.9516 0.0007 -0.3074
vn 0.9510 0.0011 -0.3091
vn 0.0731 0.9236 0.3762
vn 0.0001 -1.0000 0.0007
vn -0.0000 -1.0000 -0.0002
vn -0.0001 -1.0000 -0.0005
vn 0.3627 0.3762 0.8526
vn -0.2429 -0.7072 -0.6640
vn -0.9945 0.0006 0.1045
vn -0.0827 0.9962 0.0269
vn 0.9506 0.0026 -0.3105
vn 0.9509 0.0003 -0.3096
vn 0.9509 -0.0010 -0.3094
vn 0.9510 0.0030 -0.3090
vn 0.9511 0.0006 -0.3090
vn 0.0188 0.0030 -0.9998
vn 0.9515 0.0019 -0.3076
vn 0.9510 0.0026 -0.3091
vn 0.9510 0.0008 -0.3091
vn -0.9945 0.0007 0.1043
vn 0.9510 0.0006 -0.3091
vn 0.9513 0.0003 -0.3084
vn -0.0482 -0.7072 -0.7054
vn 0.9455 -0.1075 0.3072
vn 0.0739 0.7018 -0.7086
vn 0.9670 -0.0108 0.2546
vn 0.4028 -0.0107 0.9152
vn 0.4026 -0.0107 0.9153
vn 0.4027 -0.0107 0.9153
vn -0.0001 -1.0000 -0.0000
vn -0.4046 -0.0274 0.9141
vn -0.4045 -0.0274 0.9141
vn 0.1639 -0.1010 -0.9813
vn 0.5916 -0.0037 -0.8062
vn 0.5905 -0.0038 -0.8070
vn 0.5906 -0.0038 -0.8070
vn 0.5917 -0.0037 -0.8062
vn 0.2170 0.9747 0.0531
vn 0.0009 -0.0041 1.0000
vn 0.0007 -0.0041 1.0000
vn 0.0005 -0.0042 1.0000
vn 0.0001 -0.0042 1.0000
vn 0.4379 0.0926 -0.8943
vn 0.4374 0.0927 -0.8945
vn 0.9895 0.1001 0.1041
vn -0.4364 -0.0965 0.8946
vn 0.8610 -0.1071 -0.4971
vn 0.8640 -0.0111 -0.5034
vn -0.9555 -0.0045 0.2950
vn -0.9555 -0.0045 0.2951
vn -0.9556 -0.0048 0.2945
vn -0.9556 -0.0046 0.2945
vn 0.3814 0.1068 -0.9182
vn 0.3883 0.0933 -0.9168
vn 0.3882 0.0933 -0.9168
vn 0.3884 0.0934 -0.9167
vn 0.3885 0.0934 -0.9167
vn -0.4062 0.0041 0.9138
vn -0.4067 0.0041 0.9136
vn -0.4064 0.0041 0.9137
vn -0.5842 -0.0093 -0.8115
vn 0.9948 -0.0110 -0.1014
vn -0.5942 -0.1056 -0.7974
vn 0.9522 -0.0060 0.3053
vn 0.9547 -0.0071 0.2975
vn 0.9535 -0.0024 0.3014
vn 0.9537 -0.0025 0.3008
vn 0.3972 -0.1053 0.9117
vn 0.3976 -0.1054 0.9115
vn 0.3969 -0.1052 0.9118
vn -0.9284 0.0572 -0.3672
vn -0.9283 0.0572 -0.3673
vn -0.9283 0.0572 -0.3674
vn 0.4058 0.0966 -0.9088
vn 0.4056 0.0968 -0.9089
vn 0.4060 0.0969 -0.9087
vn -0.3816 -0.1115 0.9176
vn -0.3812 -0.1112 0.9178
vn -0.3810 -0.1110 0.9179
vn 0.9494 0.0005 -0.3140
vn 0.9493 0.0030 -0.3142
vn 0.9482 0.0028 -0.3177
vn 0.9498 0.0006 -0.3130
vn 0.0822 0.9963 0.0267
vn 0.0892 0.8941 0.4390
vn 0.1942 0.0123 -0.9809
vn 0.2042 0.0116 -0.9789
vn -0.1591 0.0338 -0.9867
vn -0.1659 0.0342 -0.9855
vn 0.8618 0.0903 0.4991
vn 0.8614 0.0901 0.4999
vn 0.8610 0.0900 0.5006
vn 0.9945 -0.0011 -0.1045
vn -0.9945 0.0013 0.1045
vn 0.9945 -0.0007 -0.1045
vn 0.9945 -0.0000 -0.1043
vn -0.9945 0.0011 0.1046
vn 0.9945 -0.0010 -0.1045
vn -0.9945 0.0011 0.1045
vn -0.9945 0.0005 0.1047
vn -0.9945 0.0005 0.1043
vn 0.9945 -0.0005 -0.1043
vn 0.9945 -0.0005 -0.1047
vn -0.9889 -0.1066 -0.1034
vn -0.9889 -0.1064 -0.1039
vn -0.9891 -0.1072 -0.1006
vn -0.9892 -0.1073 -0.1001
vn 0.0756 0.6996 0.7105
vn -0.2079 0.3906 -0.8968
vn 0.2199 0.6996 0.6799
vn 0.1900 -0.0031 0.9818
vn 0.9510 0.0013 -0.3090
vn 0.9511 0.0007 -0.3088
vn -0.0180 0.9962 -0.0847
vn 0.0001 -1.0000 -0.0000
vn 0.0001 -1.0000 0.0003
vn -0.2140 -0.0105 -0.9768
vn -0.2140 -0.0106 -0.9768
vn 0.8956 0.0681 0.4396
vn 0.8957 0.0681 0.4395
vn -0.1493 0.9246 -0.3504
vn 0.6176 0.0063 -0.7864
vn 0.6178 0.0063 -0.7863
vn 0.6092 0.0071 -0.7930
vn 0.6090 0.0071 -0.7931
vn 0.9946 -0.0003 -0.1039
vn 0.9945 -0.0006 -0.1046
vn -0.9512 -0.0006 0.3086
vn -0.9511 -0.0004 0.3090
vn -0.2228 0.0064 -0.9748
vn -0.9945 0.0021 0.1044
vn -0.9945 0.0020 0.1048
vn -0.9945 0.0014 0.1045
vn 0.9945 -0.0006 -0.1045
vn 0.9945 -0.0003 -0.1052
vn 0.9945 0.0018 -0.1052
vn 0.9945 0.0010 -0.1052
vn 0.9946 0.0008 -0.1039
vn -0.9945 0.0010 0.1045
vn -0.9945 0.0003 0.1052
vn 0.0988 -0.7093 0.6979
vn -0.1749 0.3905 -0.9038
vn 0.0863 0.9236 0.3734
vn 0.5731 -0.1127 -0.8117
vn -0.9945 0.0006 0.1046
vn -0.9946 0.0003 0.1040
vn -0.9945 0.0009 0.1046
vn 0.9945 -0.0006 -0.1049
vn -0.3557 0.7018 -0.6172
vn 0.1936 -0.7093 0.6778
vn 0.4050 0.0945 -0.9094
vn 0.4046 0.0944 -0.9096
vn 0.4044 0.0946 -0.9097
vn 0.4048 0.0947 -0.9095
g Bucket_1_Bucket_1_Collor_Material
usemtl Collor_Material
s off
f 278/1/1 263/2/2 256/3/2 271/4/3
f 243/5/4 228/6/4 227/7/4 250/8/4
f 249/9/5 242/10/6 272/11/6 279/12/6
f 277/13/7 262/14/8 263/15/9 278/16/10
f 225/17/11 226/18/11 256/19/11 263/20/11
f 257/21/12 233/22/12 234/23/12 264/24/12
f 256/25/13 257/26/13 272/27/13 271/28/13
f 256/29/14 226/30/15 233/31/15 257/32/14
f 242/33/16 233/34/16 226/35/16 241/36/16
f 250/37/17 249/38/17 279/39/17 280/40/18
f 281/41/19 251/42/19 244/43/20 274/44/19
f 249/45/21 234/46/21 233/47/21 242/48/21
f 211/49/22 196/50/22 197/51/22 212/52/22
f 203/53/23 218/54/23 217/55/23 202/56/23
f 213/57/24 198/58/24 199/59/24 214/60/24
f 182/61/25 189/62/25 174/63/25 173/64/25
f 180/65/26 172/66/26 171/67/26 179/68/26
f 193/69/27 178/70/27 177/71/27 186/72/27
f 185/73/28 170/74/28 169/75/28 192/76/28
f 187/77/29 164/78/29 172/79/29 180/80/29
f 184/81/30 175/82/30 168/83/30 183/84/30
f 192/85/31 169/86/31 176/87/31 191/88/31
f 191/89/32 176/90/32 175/91/32 184/92/32
f 189/93/33 190/94/33 167/95/33 174/96/33
f 165/97/34 164/98/34 187/99/34 188/100/34
f 181/101/35 182/102/35 173/103/35 166/104/35
f 188/105/36 181/106/36 166/107/36 165/108/36
f 257/109/37 264/110/38 279/111/38 272/112/38
f 171/113/39 178/114/39 193/115/39 179/116/39
f 186/117/40 177/118/40 170/119/40 185/120/40
f 214/121/41 199/122/41 206/123/41 221/124/41
f 200/125/42 215/126/42 222/127/42 207/128/42
f 194/129/43 195/130/43 210/131/43 209/132/43
f 207/133/44 222/134/44 221/135/44 206/136/44
f 195/137/45 202/138/45 217/139/45 210/140/45
f 205/141/46 198/142/46 213/143/46 220/144/46
f 194/145/47 209/146/47 223/147/47 208/148/47
f 201/149/48 216/150/48 215/151/48 200/152/48
f 254/153/49 255/154/49 270/155/49 269/156/49
f 183/157/50 168/158/50 167/159/50 190/160/50
f 212/161/51 197/162/51 204/163/51 219/164/51
f 203/165/52 196/166/52 211/167/52 218/168/52
f 201/169/53 208/170/53 223/171/53 216/172/53
f 167/173/54 168/174/54 198/175/54 205/176/54
f 193/177/19 186/178/19 216/179/19 223/180/19
f 181/181/19 188/182/19 218/183/19 211/184/19
f 174/185/54 167/186/54 205/187/54 204/188/54
f 188/189/19 187/190/19 217/191/19 218/192/19
f 222/193/19 192/194/19 191/195/19 221/196/19
f 228/197/55 235/198/56 259/199/57 258/200/58
f 255/201/59 232/202/60 224/203/61 262/204/62
f 177/205/54 201/206/54 200/207/54 170/208/54
f 169/209/54 170/210/54 200/211/54 207/212/54
f 275/213/19 245/214/19 252/215/19 282/216/19
f 176/217/54 169/218/54 207/219/54 206/220/54
f 196/221/54 166/222/54 173/223/54 197/224/54
f 180/225/19 179/226/19 209/227/19 210/228/19
f 168/229/54 175/230/54 199/231/54 198/232/54
f 193/233/19 223/234/19 209/235/19 179/236/19
f 239/237/19 253/238/19 283/239/19 269/240/19
f 214/241/19 184/242/19 183/243/19 213/244/19
f 173/245/54 174/246/54 204/247/54 197/248/54
f 238/249/54 231/250/54 254/251/54 268/252/54
f 185/253/19 192/254/19 222/255/19 215/256/19
f 187/257/19 180/258/19 210/259/19 217/260/19
f 254/261/54 231/262/54 232/263/63 255/264/64
f 282/265/19 252/266/19 251/267/19 281/268/19
f 253/269/19 246/270/19 276/271/19 283/272/19
f 208/273/54 178/274/54 171/275/54 194/276/54
f 236/277/54 229/278/54 267/279/54 266/280/54
f 186/281/19 185/282/19 215/283/19 216/284/19
f 229/285/54 230/286/54 260/287/54 267/288/54
f 175/289/54 176/290/54 206/291/54 199/292/54
f 248/293/65 241/294/66 226/295/67 225/296/65
f 247/297/68 248/298/69 225/299/69 224/300/69
f 265/301/70 258/302/71 273/303/72 280/304/73
f 239/305/74 231/306/74 238/307/74 253/308/74
f 252/309/75 229/310/75 236/311/75 251/312/75
f 245/313/76 230/314/76 229/315/76 252/316/76
f 240/317/77 247/318/77 224/319/77 232/320/77
f 246/321/78 237/322/78 230/323/78 245/324/78
f 250/325/79 227/326/79 234/327/80 249/328/79
f 244/329/81 251/330/81 236/331/81 235/332/81
f 268/333/82 254/334/82 269/335/82 283/336/82
f 270/337/83 255/338/84 262/339/85 277/340/85
f 219/341/86 204/342/86 205/343/86 220/344/86
f 244/345/87 235/346/88 228/347/89 243/348/90
f 258/349/91 259/350/92 274/351/93 273/352/94
f 261/353/95 268/354/95 283/355/95 276/356/95
f 274/357/96 259/358/96 266/359/96 281/360/96
f 253/361/97 238/362/97 237/363/97 246/364/97
f 266/365/98 267/366/98 282/367/98 281/368/98
f 240/369/99 232/370/99 231/371/99 239/372/99
f 264/373/100 265/374/101 280/375/102 279/376/103
f 267/377/104 260/378/104 275/379/104 282/380/104
f 260/381/105 261/382/105 276/383/105 275/384/105
f 246/385/19 245/386/19 275/387/19 276/388/19
f 278/389/106 248/390/106 247/391/107 277/392/108
f 227/393/109 228/394/110 258/395/111 265/396/112
f 230/397/54 237/398/54 261/399/54 260/400/54
f 264/401/113 234/402/113 227/403/113 265/404/113
f 241/405/114 248/406/114 278/407/114 271/408/114
f 189/409/19 182/410/19 212/411/19 219/412/19
f 262/413/115 224/414/116 225/415/117 263/416/117
f 261/417/54 237/418/54 238/419/54 268/420/54
f 277/421/118 247/422/119 240/423/120 270/424/121
f 182/425/19 181/426/19 211/427/19 212/428/19
f 201/429/54 177/430/54 178/431/54 208/432/54
f 172/433/54 164/434/54 202/435/54 195/436/54
f 202/437/54 164/438/54 165/439/54 203/440/54
f 239/441/19 269/442/19 270/443/122 240/444/123
f 171/445/54 172/446/54 195/447/54 194/448/54
f 220/449/19 190/450/19 189/451/19 219/452/19
f 203/453/54 165/454/54 166/455/54 196/456/54
f 221/457/19 191/458/19 184/459/19 214/460/19
f 213/461/19 183/462/19 190/463/19 220/464/19
f 242/465/124 241/466/125 271/467/125 272/468/124
f 235/469/126 236/470/54 266/471/54 259/472/54
f 244/473/127 243/474/128 273/475/129 274/476/127
f 243/477/130 250/478/131 280/479/131 273/480/132
f 106/481/133 108/482/133 107/483/133
f 106/484/134 104/485/134 130/486/134
f 33/487/135 94/488/136 113/489/137
f 95/490/138 96/491/138 115/492/138
f 98/493/139 100/494/139 101/495/140
f 97/496/141 101/497/142 125/498/141
f 109/499/143 110/500/143 111/501/144
f 112/502/145 113/503/145 114/504/145
f 115/505/146 116/506/146 117/507/146
f 118/508/147 119/509/148 120/510/147
f 121/511/143 122/512/143 123/513/143
f 124/514/145 125/515/145 126/516/149
f 127/517/147 128/518/147 129/519/147
f 130/520/146 131/521/150 132/522/146
f 149/523/151 162/524/151 148/525/151
f 160/526/152 153/527/152 152/528/152
f 145/529/19 144/530/19 284/531/19
f 146/532/19 139/533/19 284/534/19
f 138/535/19 145/536/19 284/537/19
f 133/538/19 141/539/19 284/540/19
f 139/541/19 138/542/19 284/543/19
f 134/544/19 133/545/19 284/546/19
f 147/547/19 146/548/19 284/549/19
f 135/550/19 134/551/19 284/552/19
f 140/553/19 147/554/19 284/555/19
f 143/556/19 142/557/19 284/558/19
f 141/559/19 140/560/19 284/561/19
f 136/562/19 143/563/19 284/564/19
f 142/565/19 135/566/19 284/567/19
f 137/568/19 136/569/19 284/570/19
f 144/571/19 137/572/19 284/573/19
f 62/574/153 63/575/153 10/576/154 29/577/153
f 160/578/155 152/579/155 68/580/155 159/581/155
f 83/582/156 82/583/157 85/584/158 84/585/159
f 160/586/160 162/587/160 163/588/160 161/589/161
f 131/590/162 124/591/162 110/592/162 118/593/162
f 158/594/163 70/595/164 32/596/165 156/597/166
f 288/598/167 287/599/167 292/600/167 291/601/167
f 21/602/168 39/603/169 1/604/169 2/605/170
f 91/606/171 90/607/172 93/608/173 92/609/174
f 87/610/175 88/611/176 38/612/175 39/613/175
f 77/614/54 34/615/54 16/616/54 76/617/54
f 7/618/177 25/619/178 27/620/179 26/621/180
f 5/622/181 285/623/181 290/624/182 6/625/181
f 33/626/183 16/627/184 34/628/185 94/629/186
f 153/630/187 69/631/187 14/632/187 149/633/187
f 44/634/188 3/635/189 4/636/188 47/637/190
f 72/638/191 75/639/191 74/640/191 73/641/191
f 290/642/192 285/643/192 286/644/192 289/645/192
f 33/646/193 15/647/193 14/648/194 16/649/195
f 77/650/196 76/651/196 96/652/196 95/653/196
f 288/654/197 291/655/198 289/656/199 286/657/200
f 58/658/201 59/659/202 8/660/203 28/661/204
f 76/662/205 16/663/206 33/664/207 96/665/208
f 299/666/209 298/667/209 303/668/209 304/669/209
f 40/670/210 1/671/211 22/672/212 43/673/213
f 43/674/214 22/675/215 23/676/216 42/677/217
f 61/678/218 30/679/64 9/680/64 60/681/218
f 106/682/219 96/683/220 33/684/221 101/685/222
f 11/686/223 30/687/224 12/688/223 31/689/224
f 20/690/225 37/691/226 39/692/226 38/693/227
f 61/694/228 62/695/229 29/696/228 30/697/230
f 77/698/231 95/699/232 94/700/231 34/701/233
f 311/702/234 315/703/234 305/704/234 309/705/234
f 66/706/235 31/707/235 12/708/235 65/709/235
f 72/710/236 14/711/236 15/712/236 75/713/237
f 86/714/238 37/715/239 20/716/239 89/717/238
f 72/718/54 73/719/54 16/720/54 14/721/54
f 10/722/240 9/723/240 30/724/241 29/725/240
f 56/726/242 57/727/243 9/728/244 27/729/245
f 45/730/246 46/731/247 24/732/248 5/733/249
f 65/734/250 64/735/251 67/736/252 66/737/251
f 57/738/253 58/739/254 28/740/255 9/741/253
f 104/742/256 97/743/256 94/744/256 95/745/256
f 48/746/257 5/747/257 6/748/258 51/749/259
f 78/750/54 79/751/54 18/752/54 34/753/54
f 22/754/260 1/755/261 3/756/262 23/757/263
f 51/758/264 6/759/264 290/760/264 50/761/264
f 75/762/265 15/763/265 33/764/265 74/765/265
f 67/766/266 64/767/267 30/768/268 11/769/269
f 41/770/270 3/771/271 1/772/272 40/773/271
f 154/774/273 150/775/273 32/776/273 70/777/273
f 24/778/274 4/779/275 3/780/276 5/781/277
f 44/782/278 45/783/279 5/784/280 3/785/278
f 301/786/281 297/787/281 293/788/281 295/789/281
f 84/790/282 85/791/282 19/792/282 36/793/282
f 86/794/283 87/795/283 39/796/283 37/797/283
f 48/798/271 49/799/271 285/800/271 5/801/271
f 68/802/284 12/803/285 157/804/286 159/805/287
f 89/806/288 20/807/288 38/808/288 88/809/288
f 81/810/289 17/811/289 35/812/289 80/813/289
f 155/814/290 160/815/290 159/816/290 71/817/290
f 57/818/291 56/819/291 59/820/291 58/821/291
f 288/822/54 286/823/54 285/824/54 287/825/54
f 295/826/292 293/827/292 289/828/293 291/829/294
f 158/830/295 69/831/296 153/832/297 161/833/298
f 79/834/299 80/835/299 35/836/299 18/837/299
f 105/838/300 104/839/300 103/840/300
f 104/841/133 106/842/133 103/843/133
f 103/844/133 106/845/133 107/846/133
f 155/847/301 71/848/302 13/849/303 151/850/304
f 69/851/305 158/852/306 156/853/307 14/854/305
f 306/855/308 314/856/308 327/857/308 320/858/308
f 82/859/309 83/860/309 37/861/309 18/862/309
f 117/863/310 116/864/310 127/865/310
f 129/866/311 117/867/311 127/868/311
f 128/869/312 121/870/312 125/871/312 130/872/312
f 104/873/134 129/874/134 128/875/134
f 128/876/134 130/877/134 104/878/134
f 130/879/134 132/880/134 106/881/134
f 326/882/313 324/883/313 317/884/313 321/885/313
f 292/886/314 302/887/315 328/888/315 316/889/315
f 132/890/316 131/891/317 120/892/316
f 131/893/318 118/894/319 120/895/320
f 94/896/321 114/897/322 113/898/322
f 113/899/323 109/900/323 33/901/324
f 109/902/325 111/903/326 33/904/327
f 96/905/328 120/906/329 119/907/330
f 119/908/331 115/909/316 96/910/316
f 115/911/332 117/912/332 95/913/332
f 8/914/333 27/915/334 9/916/335 28/917/336
f 102/918/139 101/919/337 100/920/139
f 101/921/338 97/922/139 98/923/139
f 97/924/339 99/925/339 98/926/339
f 300/927/340 296/928/340 297/929/340 301/930/340
f 65/931/341 12/932/342 30/933/342 64/934/343
f 152/935/279 148/936/279 12/937/279 68/938/279
f 101/939/344 102/940/344 108/941/344 106/942/344
f 124/943/345 131/944/345 130/945/345 125/946/345
f 322/947/346 294/948/346 290/949/346 307/950/346
f 119/951/347 109/952/347 113/953/347 115/954/347
f 111/955/348 110/956/349 124/957/349
f 126/958/350 111/959/351 124/960/352
f 308/961/353 318/962/353 323/963/353 312/964/353
f 101/965/354 126/966/355 125/967/141
f 125/968/141 121/969/141 97/970/141
f 121/971/356 123/972/356 97/973/356
f 289/974/357 293/975/357 319/976/357 310/977/357
f 123/978/358 122/979/358 114/980/358
f 122/981/359 112/982/359 114/983/359
f 318/984/360 317/985/360 324/986/360 323/987/360
f 54/988/361 53/989/361 52/990/361 55/991/361
f 311/992/362 309/993/362 308/994/362 312/995/362
f 41/996/363 42/997/363 23/998/363 3/999/363
f 49/1000/364 50/1001/365 290/1002/366 285/1003/366
f 53/1004/367 27/1005/367 25/1006/54 52/1007/309
f 53/1008/368 54/1009/368 26/1010/369 27/1011/368
f 41/1012/370 40/1013/370 43/1014/370 42/1015/370
f 83/1016/371 84/1017/372 36/1018/373 37/1019/374
f 47/1020/375 4/1021/375 24/1022/375 46/1023/375
f 78/1024/376 34/1025/377 17/1026/378 81/1027/379
f 149/1028/380 163/1029/380 162/1030/381
f 17/1031/382 34/1032/382 18/1033/382 35/1034/382
f 160/1035/383 161/1036/383 153/1037/383
f 49/1038/384 48/1039/384 51/1040/384 50/1041/384
f 60/1042/385 9/1043/385 10/1044/385 63/1045/385
f 90/1046/386 39/1047/387 21/1048/388 93/1049/389
f 32/1050/390 150/1051/390 163/1052/390 156/1053/390
f 156/1054/391 163/1055/392 149/1056/393 14/1057/394
f 82/1058/395 18/1059/396 19/1060/397 85/1061/396
f 73/1062/398 74/1063/398 33/1064/398 16/1065/398
f 91/1066/399 92/1067/399 2/1068/399 1/1069/399
f 87/1070/400 86/1071/400 89/1072/400 88/1073/400
f 153/1074/54 149/1075/54 148/1076/54 152/1077/54
f 159/1078/401 157/1079/402 13/1080/403 71/1081/404
f 61/1082/405 60/1083/406 63/1084/407 62/1085/405
f 160/1086/408 155/1087/409 151/1088/408 162/1089/410
f 151/1090/411 13/1091/411 157/1092/412 162/1093/413
f 70/1094/414 158/1095/415 161/1096/416 154/1097/415
f 126/1098/417 101/1099/418 33/1100/419 111/1101/420
f 7/1102/421 26/1103/421 54/1104/421 55/1105/421
f 66/1106/422 67/1107/422 11/1108/422 31/1109/422
f 52/1110/423 25/1111/424 7/1112/425 55/1113/426
f 19/1114/427 18/1115/428 37/1116/429 36/1117/428
f 302/1118/430 295/1119/430 324/1120/430
f 290/1121/431 289/1122/431 305/1123/431
f 291/1124/432 292/1125/433 315/1126/432
f 293/1127/434 297/1128/434 296/1129/434
f 303/1130/435 300/1131/435 295/1132/435
f 293/1133/436 294/1134/436 317/1135/436
f 305/1136/437 306/1137/437 307/1138/437
f 308/1139/438 309/1140/438 310/1141/438
f 311/1142/439 312/1143/439 313/1144/439
f 314/1145/440 315/1146/440 316/1147/440
f 317/1148/437 318/1149/437 319/1150/437
f 320/1151/438 321/1152/438 322/1153/438
f 323/1154/440 324/1155/440 325/1156/440
f 326/1157/439 327/1158/439 328/1159/439
f 79/1160/441 78/1161/442 81/1162/443 80/1163/444
f 115/1164/445 113/1165/445 112/1166/445 116/1167/445
f 105/1168/446 99/1169/446 97/1170/446 104/1171/446
f 306/1172/447 305/1173/447 315/1174/447 314/1175/447
f 127/1176/448 116/1177/448 112/1178/448 122/1179/448
f 94/1180/449 97/1181/450 123/1182/450 114/1183/450
f 300/1184/234 303/1185/234 298/1186/234 296/1187/234
f 93/1188/451 21/1189/451 2/1190/451 92/1191/451
f 90/1192/452 91/1193/54 1/1194/453 39/1195/187
f 287/1196/454 285/1197/454 290/1198/455 292/1199/454
f 150/1200/456 154/1201/456 161/1202/457 163/1203/457
f 103/1204/458 98/1205/458 99/1206/458 105/1207/458
f 56/1208/459 27/1209/460 8/1210/461 59/1211/462
f 313/1212/463 312/1213/463 323/1214/463
f 325/1215/464 313/1216/464 323/1217/464
f 96/1218/465 106/1219/465 132/1220/465 120/1221/466
f 295/1222/430 325/1223/430 324/1224/430
f 324/1225/430 326/1226/430 302/1227/430
f 326/1228/430 328/1229/430 302/1230/430
f 302/1231/467 292/1232/467 290/1233/467 294/1234/467
f 289/1235/468 310/1236/469 309/1237/469
f 309/1238/470 305/1239/470 289/1240/470
f 305/1241/434 307/1242/434 290/1243/434
f 328/1244/471 327/1245/471 316/1246/471
f 327/1247/472 314/1248/472 316/1249/472
f 292/1250/473 316/1251/474 315/1252/474
f 315/1253/432 311/1254/432 291/1255/432
f 311/1256/475 313/1257/475 291/1258/475
f 299/1259/476 294/1260/476 298/1261/476
f 294/1262/476 293/1263/476 298/1264/476
f 298/1265/476 293/1266/476 296/1267/476
f 301/1268/435 295/1269/435 300/1270/435
f 295/1271/435 302/1272/435 303/1273/435
f 302/1274/435 304/1275/435 303/1276/435
f 129/1277/317 104/1278/317 95/1279/317 117/1280/317
f 307/1281/477 306/1282/477 320/1283/477
f 322/1284/346 307/1285/346 320/1286/346
f 326/1287/478 321/1288/478 320/1289/478 327/1290/478
f 294/1291/479 299/1292/479 304/1293/479 302/1294/479
f 102/1295/480 100/1296/480 107/1297/480 108/1298/480
f 46/1299/481 45/1300/481 44/1301/481 47/1302/481
f 319/1303/482 318/1304/482 310/1305/482
f 318/1306/483 308/1307/483 310/1308/483
f 294/1309/436 322/1310/436 321/1311/436
f 321/1312/436 317/1313/436 294/1314/436
f 317/1315/484 319/1316/484 293/1317/484
f 325/1318/485 295/1319/485 291/1320/485 313/1321/485
f 110/1322/486 109/1323/486 119/1324/486 118/1325/486
f 128/1326/487 127/1327/487 122/1328/487 121/1329/487
f 107/1330/347 100/1331/347 98/1332/347 103/1333/347
f 162/1334/488 157/1335/489 12/1336/490 148/1337/491
