# Blender v3.0.0 OBJ File: 'aa.blend'
# www.blender.org
mtllib Bucket_2.mtl
o Bucket_2
v -0.059482 0.412203 0.210789
v -0.137724 0.355699 0.172943
v -0.165486 0.000000 0.085725
v -0.199012 0.372799 0.104012
v -0.176897 -0.000000 -0.058583
v -0.211125 0.376577 -0.071786
v -0.161369 0.367339 -0.152641
v -0.077255 -0.000000 -0.163312
v -0.092149 0.372794 -0.198795
v -0.002267 0.363840 -0.214672
v 0.084891 0.369129 -0.191032
v 0.150811 0.336040 -0.136593
v 0.204381 0.365627 0.028853
v 0.142540 0.000000 0.093354
v 0.168432 0.374945 0.115246
v 0.100768 0.346501 0.180069
v 0.031219 0.409033 0.215171
v -0.050420 0.000000 0.173124
v -0.060771 0.354330 0.203579
v -0.117460 0.000000 0.142095
v -0.200036 0.376781 0.105658
v -0.186468 0.000000 0.014753
v -0.162595 0.368286 -0.149693
v -0.138599 -0.000000 -0.121995
v -0.091923 0.365271 -0.194765
v -0.007712 0.370779 -0.213475
v -0.004580 -0.000000 -0.177120
v 0.083751 0.372565 -0.194631
v 0.067184 -0.000000 -0.159962
v 0.150208 0.369315 -0.141304
v 0.125958 -0.000000 -0.115101
v 0.196381 0.388953 -0.063511
v 0.161274 -0.000000 -0.050082
v 0.167151 0.000000 0.023624
v 0.174545 0.365627 0.113399
v 0.106532 0.374945 0.180588
v 0.091632 0.000000 0.146885
v 0.030892 0.355622 0.212036
v 0.023659 0.000000 0.175744
v -0.053935 0.000000 0.183695
v -0.123438 0.000000 0.152678
v -0.064132 0.354764 0.216879
v -0.125144 0.000000 0.149996
v -0.175096 0.000000 0.092471
v -0.212992 0.375702 0.114687
v -0.148254 0.354365 0.184036
v -0.176141 0.000000 0.089999
v -0.197859 0.000000 0.016969
v -0.238710 0.371565 0.020220
v -0.212128 0.371565 0.109601
v -0.198074 0.000000 0.014361
v -0.188195 -0.000000 -0.061187
v -0.187336 -0.000000 -0.063640
v -0.147590 -0.000000 -0.128663
v -0.175550 0.370006 -0.159753
v -0.226017 0.378479 -0.078934
v -0.146168 -0.000000 -0.131374
v -0.082488 -0.000000 -0.173078
v -0.097915 0.363427 -0.207390
v -0.169886 0.365254 -0.163917
v -0.080667 -0.000000 -0.174941
v -0.005737 -0.000000 -0.188576
v -0.008832 0.369602 -0.227554
v -0.096351 0.371606 -0.212451
v -0.003368 -0.000000 -0.188608
v 0.070986 -0.000000 -0.171047
v 0.088551 0.371799 -0.207910
v -0.001892 0.363372 -0.228131
v 0.073350 -0.000000 -0.169835
v 0.133900 -0.000000 -0.123667
v 0.159283 0.368412 -0.150621
v 0.091613 0.368644 -0.202181
v 0.135541 -0.000000 -0.121528
v 0.171947 -0.000000 -0.054644
v 0.210274 0.389114 -0.067883
v 0.162288 0.334720 -0.144283
v 0.172696 -0.000000 -0.052124
v 0.178763 0.000000 0.023823
v 0.178420 0.000000 0.026419
v 0.153068 0.000000 0.098259
v 0.187320 0.364454 0.119615
v 0.217153 0.364454 0.035077
v 0.151698 0.000000 0.100499
v 0.099317 0.000000 0.155815
v 0.115720 0.373711 0.191513
v 0.179840 0.373709 0.123795
v 0.097064 0.000000 0.157086
v 0.026497 0.000000 0.186804
v 0.032593 0.354262 0.225551
v 0.109564 0.344786 0.191061
v 0.024213 0.000000 0.187347
v -0.051923 0.000000 0.185108
v -0.061465 0.410974 0.224941
v 0.032434 0.407820 0.229331
v 0.205132 0.372800 0.028635
v -0.226773 0.371560 -0.074898
v -0.238992 0.371560 0.017589
v 0.219434 0.371564 0.029154
v 0.211929 0.371565 -0.063842
v -0.227700 0.438538 0.016685
v 0.205139 0.441218 0.028326
v 0.203808 0.456629 0.012026
v 0.204788 0.452139 0.023036
v 0.200298 0.457617 -0.034012
v 0.214352 0.446618 -0.037857
v -0.223684 0.423808 -0.074629
v 0.218563 0.453437 0.017397
v 0.219351 0.439751 0.028558
v 0.218899 0.451178 0.021290
v 0.214157 0.456852 -0.036371
v 0.200355 0.447864 -0.035090
v -0.219962 0.387458 -0.018258
v -0.221832 0.402534 -0.003285
v -0.224685 0.372799 0.017825
v 0.200907 0.387731 -0.025105
v 0.199674 0.402545 -0.040217
v 0.197989 0.372800 -0.061048
v -0.215838 0.402534 -0.050671
v -0.217697 0.387458 -0.035611
v -0.212966 0.372797 -0.071298
v 0.203484 0.402630 0.007279
v 0.202205 0.387070 -0.007568
v -0.231499 0.386222 -0.039181
v -0.229653 0.401298 -0.054266
v -0.236175 0.401294 -0.003394
v -0.234219 0.386222 -0.018351
v -0.237714 0.377694 0.008918
v 0.216719 0.384163 -0.007705
v 0.217706 0.401194 0.008092
v 0.213638 0.401277 -0.043122
v 0.214875 0.385948 -0.027984
v -0.212691 0.425975 -0.058751
v -0.215671 0.409767 -0.050569
v -0.210176 0.426470 -0.070682
v -0.222007 0.409712 -0.003339
v -0.219976 0.424929 -0.018443
v 0.202267 0.424783 -0.007776
v 0.203473 0.409711 0.007340
v 0.199670 0.409712 -0.040255
v 0.200875 0.424783 -0.025220
v 0.198031 0.435752 -0.061435
v -0.229410 0.408411 -0.054320
v -0.226304 0.423627 -0.062383
v -0.234208 0.423401 -0.018398
v -0.236336 0.408464 -0.003454
v -0.241771 0.436392 0.016083
v 0.217718 0.408475 0.007987
v 0.216520 0.423547 -0.007154
v 0.214849 0.423547 -0.028094
v 0.213645 0.408476 -0.043129
v 0.212004 0.434513 -0.064303
v -0.019825 0.033869 -0.042087
v 0.048289 0.032183 0.085080
v -0.082870 0.032532 -0.069709
v -0.075126 0.032506 0.005865
v -0.067319 0.032410 0.032251
v -0.030267 0.032105 0.086108
v 0.024700 0.033972 0.182406
v 0.095686 0.032287 0.152875
v 0.168053 0.032859 -0.052102
v 0.131297 0.032507 -0.119645
v -0.080145 0.032762 -0.170164
v -0.143463 0.032324 -0.126542
v -0.121602 0.032648 0.147435
v -0.052126 0.031620 0.180456
v 0.148588 0.031887 0.097077
v -0.171607 0.026374 0.089019
v -0.193526 0.026374 0.015314
v -0.183572 0.026362 -0.060935
v -0.004549 0.026386 -0.184260
v 0.070241 0.026361 -0.166390
v 0.174186 0.025805 0.024527
v 0.148585 0.025697 0.097082
v -0.052163 0.026387 0.180463
v -0.121605 0.026365 0.147438
v -0.143466 0.026404 -0.126542
v -0.080142 0.026344 -0.170165
v 0.131297 0.026373 -0.119645
v 0.168054 0.026942 -0.052092
v 0.095720 0.026821 0.152871
v 0.024708 0.026427 0.182396
v 0.086855 -0.000000 -0.145113
v 0.106187 -0.000000 -0.129822
v 0.128245 0.369360 -0.157592
v 0.103671 0.362906 -0.175714
v 0.093620 -0.000000 -0.154524
v 0.113483 -0.000000 -0.138777
v 0.136508 0.368459 -0.167529
v 0.145543 0.302444 -0.136158
v 0.081680 0.302418 -0.185375
v 0.154378 0.301993 -0.145360
v 0.088287 0.301965 -0.196301
v 0.112364 0.362176 -0.185459
v 0.130717 0.323991 -0.165246
v 0.122499 0.324550 -0.155468
v -0.184637 0.045493 0.096104
v -0.208349 0.045522 0.016496
v -0.197597 0.045525 -0.065884
v -0.004154 0.045566 -0.199210
v 0.076641 0.046179 -0.179777
v 0.188950 0.045547 0.026478
v 0.161198 0.042848 0.104758
v -0.055603 0.045490 0.194891
v -0.130695 0.049025 0.159310
v -0.154265 0.045525 -0.136768
v -0.085849 0.045529 -0.183903
v 0.142623 0.045691 -0.129042
v 0.182346 0.045542 -0.056365
v 0.104224 0.049049 0.165221
v 0.027419 0.045493 0.196976
v -0.056836 0.075670 0.199963
v -0.133675 0.075901 0.163203
v -0.202419 0.075654 -0.067586
v -0.157978 0.075654 -0.140284
v 0.078879 0.083762 -0.184584
v 0.147431 0.076722 -0.130392
v 0.165762 0.075484 0.107571
v 0.106951 0.075889 0.169214
v -0.189207 0.075668 0.098616
v -0.213453 0.075655 0.016904
v -0.087808 0.075649 -0.188613
v -0.004076 0.075597 -0.204108
v 0.187205 0.075773 -0.057798
v 0.193959 0.075654 0.027116
v 0.028396 0.075669 0.202100
v -0.053470 0.042413 0.186010
v -0.125203 0.046009 0.152137
v -0.189014 0.042358 -0.062855
v -0.147656 0.042358 -0.130510
v 0.072603 0.042495 -0.171354
v 0.135750 0.042321 -0.123500
v 0.153375 0.039646 0.099955
v 0.099111 0.045973 0.157803
v -0.176625 0.042409 0.091728
v -0.199273 0.042362 0.015771
v -0.082358 0.042351 -0.175504
v -0.004368 0.042286 -0.190156
v 0.173610 0.042333 -0.053761
v 0.179942 0.042325 0.025306
v 0.025736 0.042410 0.188002
v -0.054884 0.078267 0.191805
v -0.128598 0.078373 0.156571
v -0.194520 0.078302 -0.064798
v -0.151896 0.078302 -0.134525
v 0.075278 0.086442 -0.177020
v 0.140129 0.078647 -0.127152
v 0.158588 0.078218 0.103183
v 0.102220 0.078397 0.162343
v -0.181839 0.078269 0.094603
v -0.205103 0.078299 0.016238
v -0.084595 0.078310 -0.180880
v -0.004288 0.078390 -0.195787
v 0.179157 0.078191 -0.055401
v 0.185659 0.078314 0.026035
v 0.026855 0.078269 0.193853
v -0.201801 0.243490 0.105458
v -0.227630 0.243481 0.018076
v -0.216328 0.248470 -0.072446
v -0.003667 0.252510 -0.220652
v 0.086207 0.254348 -0.199889
v 0.208255 0.243494 0.028995
v 0.177939 0.243488 0.114996
v -0.060156 0.243489 0.213916
v -0.142512 0.243489 0.174745
v -0.170249 0.240503 -0.150445
v -0.093389 0.243828 -0.201768
v 0.157195 0.244264 -0.141628
v 0.201050 0.243546 -0.061915
v 0.115229 0.243489 0.181214
v 0.031012 0.243489 0.216205
v -0.061572 0.276094 0.219841
v -0.146215 0.276094 0.179581
v -0.221225 0.271421 -0.074210
v -0.175336 0.272811 -0.155207
v 0.087493 0.273175 -0.202607
v 0.161729 0.275490 -0.145719
v 0.183113 0.276064 0.118165
v 0.118685 0.276094 0.186230
v -0.207181 0.276099 0.108380
v -0.234088 0.276138 0.018495
v -0.097119 0.272513 -0.207381
v -0.003607 0.273680 -0.224443
v 0.206433 0.271891 -0.063522
v 0.214105 0.275738 0.029820
v 0.032129 0.276094 0.222193
v -0.057966 0.243489 0.204749
v -0.136782 0.243489 0.167260
v -0.207544 0.248990 -0.069434
v -0.161233 0.242863 -0.143352
v 0.080713 0.244422 -0.188469
v 0.150497 0.242713 -0.136266
v 0.169885 0.243490 0.110076
v 0.109882 0.243489 0.173452
v -0.193522 0.243493 0.100951
v -0.218215 0.243577 0.017334
v -0.089918 0.243029 -0.193900
v -0.003854 0.244209 -0.208825
v 0.191971 0.243431 -0.059224
v 0.198962 0.243484 0.027775
v 0.029284 0.243489 0.206939
v -0.059459 0.279433 0.210999
v -0.140688 0.279433 0.172363
v -0.212951 0.274613 -0.071324
v -0.166339 0.278783 -0.148211
v 0.083612 0.279143 -0.194563
v 0.155470 0.280037 -0.140313
v 0.175392 0.279463 0.113436
v 0.113528 0.279433 0.178744
v -0.199192 0.279422 0.104032
v -0.224996 0.279308 0.017788
v -0.093999 0.276523 -0.199517
v -0.003742 0.279202 -0.215645
v 0.197701 0.278687 -0.060922
v 0.205525 0.279789 0.028570
v 0.030462 0.279433 0.213257
v 0.010048 0.000000 0.174964
v -0.020958 0.000000 0.174404
v -0.023513 0.412173 0.211649
v 0.014170 0.412155 0.212812
v 0.010428 0.000000 0.186533
v -0.021460 0.000000 0.185962
v -0.024182 0.411016 0.225792
v 0.014891 0.410990 0.227003
v 0.001333 0.000000 0.174645
v 0.003480 0.400339 0.210387
v 0.001465 0.000000 0.186225
v 0.003842 0.398978 0.224529
v -0.136915 0.331668 0.170380
v -0.106969 0.361632 0.185707
v -0.113010 0.362683 0.198028
v -0.143110 0.332811 0.182451
v -0.029985 0.026499 0.086059
v -0.067280 0.026380 0.032223
v -0.075156 0.026382 0.005868
v -0.083200 0.026501 -0.068930
v 0.174186 0.032154 0.024537
v 0.070222 0.031856 -0.166395
v -0.004530 0.033157 -0.184256
v 0.045537 0.025700 0.079795
v -0.183572 0.032496 -0.060934
v -0.193526 0.032519 0.015314
v -0.171607 0.032495 0.089019
v -0.021497 0.026086 -0.038940
v 0.040618 0.025915 -0.041879
v 0.047332 0.023295 0.035050
v 0.003260 0.026292 0.065908
v 0.037552 0.030698 -0.041536
v 0.047178 0.028623 0.035156
v 0.003797 0.035708 0.070656
vt 0.983777 0.122437
vt 0.983777 0.180795
vt 0.977843 0.179501
vt 0.978265 0.123380
vt 0.975368 0.222694
vt 0.975368 0.283668
vt 0.969463 0.282573
vt 0.968788 0.223743
vt 0.173081 0.222226
vt 0.229141 0.220521
vt 0.229141 0.244000
vt 0.171624 0.239003
vt 0.469006 0.892867
vt 0.468088 0.836843
vt 0.490907 0.835348
vt 0.490907 0.894182
vt 0.650487 0.906945
vt 0.650487 0.930258
vt 0.599556 0.929655
vt 0.598110 0.908640
vt 0.327441 0.900294
vt 0.302401 0.899541
vt 0.306362 0.848660
vt 0.327441 0.847882
vt 0.922358 0.590693
vt 0.861570 0.585924
vt 0.863287 0.572237
vt 0.922358 0.571793
vt 0.104792 0.720914
vt 0.104792 0.781003
vt 0.098240 0.779791
vt 0.098014 0.722153
vt 0.980124 0.836487
vt 0.980124 0.896606
vt 0.974032 0.895394
vt 0.974032 0.837700
vt 0.489293 0.899436
vt 0.489293 0.954083
vt 0.471815 0.953356
vt 0.468088 0.900051
vt 0.400298 0.889077
vt 0.400298 0.909485
vt 0.341224 0.904822
vt 0.340395 0.892622
vt 0.255515 0.922606
vt 0.261597 0.921391
vt 0.261597 0.981442
vt 0.255554 0.980370
vt 0.791552 0.286700
vt 0.791552 0.310029
vt 0.735390 0.308589
vt 0.734023 0.291804
vt 0.973248 0.485809
vt 0.979340 0.484594
vt 0.979340 0.544718
vt 0.973247 0.543506
vt 0.558082 0.981458
vt 0.552168 0.982715
vt 0.552168 0.924220
vt 0.558082 0.925477
vt 0.991943 0.426116
vt 0.991943 0.479241
vt 0.985865 0.478022
vt 0.985966 0.427125
vt 0.428957 0.941475
vt 0.405672 0.940744
vt 0.405593 0.889867
vt 0.428957 0.889074
vt 0.307435 0.790179
vt 0.330860 0.790925
vt 0.330860 0.841747
vt 0.302401 0.842627
vt 0.164451 0.890680
vt 0.187795 0.891459
vt 0.187795 0.942319
vt 0.164451 0.943098
vt 0.965165 0.004963
vt 0.972305 0.002627
vt 0.972305 0.061945
vt 0.966846 0.061005
vt 0.367471 0.939635
vt 0.367471 0.994272
vt 0.361979 0.993150
vt 0.361949 0.940750
vt 0.955597 0.843697
vt 0.955597 0.896794
vt 0.935942 0.896325
vt 0.935444 0.843203
vt 0.959910 0.057279
vt 0.940321 0.056597
vt 0.940321 0.003309
vt 0.959910 0.002627
vt 0.791566 0.884159
vt 0.731694 0.878843
vt 0.732974 0.863802
vt 0.791566 0.862804
vt 0.959910 0.117183
vt 0.940328 0.116506
vt 0.940321 0.063217
vt 0.959910 0.062533
vt 0.127492 0.942318
vt 0.127489 0.891459
vt 0.150833 0.890680
vt 0.150833 0.943099
vt 0.405552 0.882963
vt 0.405552 0.826982
vt 0.428957 0.826125
vt 0.428957 0.883820
vt 0.956434 0.830628
vt 0.936845 0.829946
vt 0.936841 0.776659
vt 0.956434 0.775975
vt 0.656099 0.787206
vt 0.656099 0.838026
vt 0.632527 0.838798
vt 0.627640 0.786316
vt 0.784758 0.853563
vt 0.786090 0.797456
vt 0.809022 0.797032
vt 0.809022 0.854716
vt 0.956469 0.770721
vt 0.936876 0.770044
vt 0.936841 0.716766
vt 0.956469 0.716052
vt 0.400298 0.883823
vt 0.376893 0.882964
vt 0.376900 0.826987
vt 0.400298 0.826125
vt 0.441782 0.949935
vt 0.439530 0.899049
vt 0.462834 0.898297
vt 0.462834 0.950700
vt 0.768263 0.941038
vt 0.768225 0.890198
vt 0.791566 0.889413
vt 0.791566 0.941845
vt 0.214252 0.922826
vt 0.193049 0.922134
vt 0.194684 0.868859
vt 0.214252 0.868144
vt 0.949276 0.283668
vt 0.925975 0.282856
vt 0.925977 0.232037
vt 0.949276 0.231223
vt 0.048092 0.779208
vt 0.048092 0.839296
vt 0.035868 0.838966
vt 0.034311 0.779810
vt 0.050273 0.917108
vt 0.029117 0.915750
vt 0.035182 0.857735
vt 0.050273 0.857391
vt 0.822047 0.896600
vt 0.820373 0.845776
vt 0.845411 0.844958
vt 0.845411 0.897400
vt 0.731701 0.941052
vt 0.731694 0.890189
vt 0.755045 0.889413
vt 0.755045 0.941829
vt 0.122235 0.924310
vt 0.103700 0.924265
vt 0.101897 0.865936
vt 0.122235 0.864251
vt 0.959902 0.177056
vt 0.940395 0.176447
vt 0.940321 0.123135
vt 0.959902 0.122437
vt 0.874996 0.908576
vt 0.874996 0.928218
vt 0.821641 0.927808
vt 0.820402 0.910360
vt 0.956490 0.710798
vt 0.936920 0.710162
vt 0.936841 0.656858
vt 0.956490 0.656161
vt 0.956473 0.596221
vt 0.956473 0.650907
vt 0.936841 0.650197
vt 0.936844 0.596929
vt 0.552168 0.918120
vt 0.552450 0.867223
vt 0.575738 0.866576
vt 0.575738 0.918966
vt 0.686791 0.879565
vt 0.663393 0.878686
vt 0.663481 0.822763
vt 0.686791 0.821824
vt 0.980876 0.223902
vt 0.986935 0.222694
vt 0.986935 0.275995
vt 0.980622 0.274723
vt 0.056597 0.943885
vt 0.062115 0.942750
vt 0.062115 0.997373
vt 0.056635 0.996280
vt 0.994554 0.122437
vt 0.994554 0.177056
vt 0.989031 0.175932
vt 0.989033 0.123543
vt 0.914252 0.938365
vt 0.920329 0.937146
vt 0.920329 0.990450
vt 0.914267 0.989242
vt 0.707470 0.940013
vt 0.713026 0.938875
vt 0.713026 0.993557
vt 0.707502 0.992454
vt 0.809022 0.859971
vt 0.809022 0.919147
vt 0.798875 0.917236
vt 0.799872 0.861453
vt 0.988729 0.003747
vt 0.994249 0.002627
vt 0.994249 0.057313
vt 0.988728 0.056192
vt 0.985488 0.592005
vt 0.991547 0.590784
vt 0.991547 0.644061
vt 0.985486 0.642845
vt 0.623516 0.936801
vt 0.629562 0.935512
vt 0.629562 0.988812
vt 0.623435 0.987652
vt 0.650487 0.935512
vt 0.650487 0.988947
vt 0.644534 0.987589
vt 0.644338 0.936554
vt 0.979962 0.350038
vt 0.973870 0.348826
vt 0.973870 0.291132
vt 0.979962 0.289920
vt 0.985026 0.908576
vt 0.985026 0.961963
vt 0.979109 0.960648
vt 0.978709 0.909830
vt 0.974140 0.591996
vt 0.980232 0.590784
vt 0.980232 0.650898
vt 0.974146 0.649696
vt 0.345918 0.939635
vt 0.345918 0.994304
vt 0.340397 0.993181
vt 0.340395 0.940749
vt 0.050273 0.922362
vt 0.050273 0.980855
vt 0.044392 0.979605
vt 0.044331 0.923623
vt 0.076269 0.941682
vt 0.076269 0.996317
vt 0.070752 0.995184
vt 0.070791 0.942780
vt 0.903027 0.938440
vt 0.908997 0.937146
vt 0.908997 0.990492
vt 0.902918 0.989376
vt 0.880362 0.938442
vt 0.886329 0.937146
vt 0.886329 0.990502
vt 0.880250 0.989386
vt 0.395001 0.939635
vt 0.395001 0.994284
vt 0.389478 0.993167
vt 0.389476 0.940751
vt 0.985216 0.291133
vt 0.991277 0.289920
vt 0.991277 0.343209
vt 0.985217 0.341996
vt 0.692071 0.823062
vt 0.698139 0.821824
vt 0.698139 0.882005
vt 0.692045 0.880802
vt 0.897664 0.937146
vt 0.897664 0.990492
vt 0.891694 0.989198
vt 0.891584 0.938264
vt 0.925584 0.938354
vt 0.931644 0.937146
vt 0.931644 0.990458
vt 0.925585 0.989252
vt 0.356695 0.939635
vt 0.356695 0.994288
vt 0.351173 0.993170
vt 0.351172 0.940752
vt 0.321989 0.906529
vt 0.327441 0.905548
vt 0.327441 0.964621
vt 0.318431 0.962447
vt 0.804789 0.924401
vt 0.804789 0.982895
vt 0.798875 0.981638
vt 0.798876 0.925658
vt 0.187795 0.858997
vt 0.167638 0.858720
vt 0.163602 0.805485
vt 0.187795 0.802766
vt 0.855486 0.897903
vt 0.850665 0.843203
vt 0.874996 0.844057
vt 0.874996 0.897359
vt 0.245469 0.123551
vt 0.245469 0.183732
vt 0.224135 0.182792
vt 0.224202 0.124348
vt 0.395001 0.914739
vt 0.395001 0.934381
vt 0.341656 0.933985
vt 0.340395 0.916508
vt 0.214315 0.802766
vt 0.214315 0.862890
vt 0.193049 0.862067
vt 0.193055 0.803576
vt 0.627640 0.900719
vt 0.627817 0.844929
vt 0.650487 0.844052
vt 0.650487 0.901691
vt 0.613557 0.842473
vt 0.613557 0.898540
vt 0.591618 0.898529
vt 0.590093 0.841646
vt 0.187795 0.864419
vt 0.187795 0.883319
vt 0.128515 0.885426
vt 0.127489 0.864251
vt 0.023862 0.857391
vt 0.023862 0.917442
vt 0.002627 0.916550
vt 0.002847 0.858061
vt 0.296694 0.856028
vt 0.296694 0.916143
vt 0.275435 0.915323
vt 0.275455 0.856827
vt 0.725264 0.882509
vt 0.704004 0.881697
vt 0.704004 0.823202
vt 0.725264 0.822390
vt 0.755334 0.857550
vt 0.732403 0.857063
vt 0.731694 0.801086
vt 0.755334 0.799926
vt 0.245115 0.850114
vt 0.243532 0.794227
vt 0.267793 0.793010
vt 0.267793 0.850763
vt 0.906838 0.894833
vt 0.906764 0.843935
vt 0.930190 0.843203
vt 0.930190 0.895592
vt 0.901509 0.903322
vt 0.880250 0.902510
vt 0.880250 0.844015
vt 0.901509 0.843203
vt 0.243532 0.856018
vt 0.264792 0.856830
vt 0.264792 0.915324
vt 0.243532 0.916137
vt 0.881676 0.909162
vt 0.932617 0.908576
vt 0.932617 0.931892
vt 0.880250 0.930208
vt 0.719747 0.933621
vt 0.665141 0.931848
vt 0.666403 0.914370
vt 0.719747 0.913976
vt 0.847036 0.319890
vt 0.847056 0.263911
vt 0.870461 0.263062
vt 0.870461 0.320762
vt 0.875715 0.319899
vt 0.875715 0.263919
vt 0.899120 0.263062
vt 0.899120 0.320757
vt 0.273047 0.849762
vt 0.273265 0.793776
vt 0.296694 0.793010
vt 0.296694 0.850774
vt 0.439429 0.892186
vt 0.439429 0.836205
vt 0.462834 0.835348
vt 0.462834 0.893043
vt 0.991557 0.656161
vt 0.991557 0.709429
vt 0.985498 0.708204
vt 0.985498 0.657385
vt 0.104789 0.786257
vt 0.104789 0.846264
vt 0.098014 0.845007
vt 0.098819 0.787260
vt 0.984982 0.357624
vt 0.991044 0.356409
vt 0.991044 0.409697
vt 0.984983 0.408483
vt 0.961744 0.657538
vt 0.968903 0.656161
vt 0.968903 0.716220
vt 0.962934 0.715211
vt 0.990280 0.909710
vt 0.995799 0.908576
vt 0.995799 0.963210
vt 0.990320 0.962112
vt 0.955278 0.289920
vt 0.955278 0.349177
vt 0.949762 0.348256
vt 0.945288 0.292526
vt 0.985379 0.837701
vt 0.991439 0.836487
vt 0.991439 0.889775
vt 0.985379 0.888562
vt 0.378699 0.994287
vt 0.378699 0.939635
vt 0.384222 0.940752
vt 0.384222 0.993170
vt 0.968778 0.836487
vt 0.968778 0.896794
vt 0.960851 0.894495
vt 0.962882 0.837628
vt 0.002627 0.923957
vt 0.008548 0.922696
vt 0.008548 0.981192
vt 0.002634 0.979936
vt 0.962852 0.591912
vt 0.968886 0.590784
vt 0.968886 0.650907
vt 0.961727 0.649525
vt 0.023862 0.922696
vt 0.023862 0.981185
vt 0.017941 0.979926
vt 0.017980 0.923940
vt 0.988728 0.063717
vt 0.994214 0.062567
vt 0.994214 0.115663
vt 0.988961 0.116106
vt 0.563336 0.925477
vt 0.569250 0.924220
vt 0.569250 0.982714
vt 0.563336 0.981457
vt 0.035050 0.922362
vt 0.035050 0.980962
vt 0.029207 0.979765
vt 0.029117 0.923584
vt 0.979728 0.356409
vt 0.979728 0.416529
vt 0.973636 0.415316
vt 0.973636 0.357622
vt 0.974384 0.657367
vt 0.980244 0.656161
vt 0.980244 0.716268
vt 0.974158 0.715122
vt 0.723835 0.938875
vt 0.723835 0.993522
vt 0.718280 0.992374
vt 0.718354 0.939961
vt 0.992463 0.771970
vt 0.992463 0.826882
vt 0.986974 0.825626
vt 0.986905 0.772937
vt 0.967866 0.419523
vt 0.967866 0.479241
vt 0.961974 0.478205
vt 0.959673 0.420518
vt 0.725264 0.908712
vt 0.665141 0.908722
vt 0.666821 0.887763
vt 0.725264 0.890177
vt 0.975738 0.773236
vt 0.981650 0.771970
vt 0.981650 0.830415
vt 0.975724 0.829159
vt 0.966739 0.123605
vt 0.972588 0.122437
vt 0.972588 0.180769
vt 0.965156 0.179669
vt 0.977560 0.003885
vt 0.983473 0.002627
vt 0.983473 0.061118
vt 0.977559 0.059862
vt 0.985484 0.487071
vt 0.990137 0.484594
vt 0.990137 0.540825
vt 0.984594 0.539773
vt 0.349057 0.845406
vt 0.336115 0.819571
vt 0.349057 0.790179
vt 0.153739 0.839604
vt 0.140449 0.808327
vt 0.153739 0.782576
vt 0.275435 0.935968
vt 0.288903 0.921397
vt 0.288903 0.954968
vt 0.810728 0.320762
vt 0.797315 0.296968
vt 0.810728 0.277024
vt 0.967993 0.544437
vt 0.959662 0.507459
vt 0.967993 0.484594
vt 0.546171 0.953327
vt 0.532699 0.931911
vt 0.546171 0.912950
vt 0.937872 0.942985
vt 0.947025 0.908576
vt 0.947025 0.966282
vt 0.311804 0.963205
vt 0.302401 0.928890
vt 0.311804 0.905548
vt 0.968615 0.349762
vt 0.960533 0.313625
vt 0.968615 0.289920
vt 0.702215 0.938875
vt 0.702215 0.976893
vt 0.692348 0.952843
vt 0.945288 0.391014
vt 0.954693 0.354431
vt 0.954693 0.414269
vt 0.814276 0.820204
vt 0.827759 0.797187
vt 0.827759 0.839404
vt 0.981551 0.721903
vt 0.981551 0.764849
vt 0.974739 0.727300
vt 0.350165 0.755932
vt 0.348528 0.720160
vt 0.350165 0.717772
vt 0.953637 0.216785
vt 0.940321 0.201412
vt 0.953637 0.182310
vt 0.904374 0.301760
vt 0.917894 0.280377
vt 0.917894 0.320757
vt 0.959947 0.391438
vt 0.968382 0.356409
vt 0.968382 0.414269
vt 0.475588 0.607542
vt 0.489182 0.583805
vt 0.489182 0.627689
vt 0.164451 0.950577
vt 0.177950 0.948352
vt 0.177950 0.971814
vt 0.150503 0.948353
vt 0.150503 0.961950
vt 0.127489 0.958205
vt 0.927612 0.571128
vt 0.940239 0.565761
vt 0.940239 0.590693
vt 0.791381 0.947099
vt 0.791381 0.960918
vt 0.768225 0.951415
vt 0.349057 0.875610
vt 0.336426 0.870227
vt 0.349057 0.850660
vt 0.759150 0.983152
vt 0.746087 0.979098
vt 0.759150 0.966050
vt 0.142124 0.222646
vt 0.142124 0.237559
vt 0.119258 0.232864
vt 0.580992 0.815404
vt 0.593738 0.810008
vt 0.593738 0.834861
vt 0.923149 0.314465
vt 0.927805 0.303621
vt 0.927805 0.320757
vt 0.234659 0.971634
vt 0.221030 0.969385
vt 0.234659 0.948827
vt 0.755546 0.947083
vt 0.755546 0.960796
vt 0.731694 0.956127
vt 0.546171 0.958581
vt 0.546171 0.972257
vt 0.524725 0.960748
vt 0.973455 0.990428
vt 0.968795 0.980217
vt 0.973455 0.973673
vt 0.971238 0.216785
vt 0.958892 0.211033
vt 0.971238 0.192658
vt 0.147378 0.227538
vt 0.160201 0.222646
vt 0.160201 0.247865
vt 0.451580 0.980289
vt 0.439530 0.973822
vt 0.451580 0.955954
vt 0.295786 0.733181
vt 0.247590 0.681640
vt 0.295786 0.671062
vt 0.556583 0.585258
vt 0.575738 0.570906
vt 0.575738 0.779987
vt 0.559928 0.780095
vt 0.241187 0.995093
vt 0.241186 0.984505
vt 0.250260 0.985634
vt 0.250260 0.995972
vt 0.376893 0.809547
vt 0.428962 0.771552
vt 0.428962 0.820871
vt 0.235449 0.068993
vt 0.235449 0.111844
vt 0.215489 0.097926
vt 0.217256 0.069181
vt 0.627158 0.304468
vt 0.675272 0.237101
vt 0.675272 0.315375
vt 0.113404 0.168089
vt 0.113404 0.246363
vt 0.065028 0.177704
vt 0.439429 0.818731
vt 0.491256 0.780768
vt 0.491256 0.830094
vt 0.954408 0.544405
vt 0.945288 0.543367
vt 0.945313 0.485686
vt 0.954408 0.484594
vt 0.215775 0.797512
vt 0.163602 0.759020
vt 0.215775 0.748189
vt 0.442939 0.765623
vt 0.491256 0.722456
vt 0.491256 0.775514
vt 0.696405 0.816383
vt 0.679046 0.777056
vt 0.696405 0.774212
vt 0.777496 0.799926
vt 0.777496 0.841671
vt 0.761550 0.839852
vt 0.733104 0.793915
vt 0.715968 0.585089
vt 0.733104 0.560067
vt 0.830016 0.596221
vt 0.830016 0.791933
vt 0.814276 0.597692
vt 0.618812 0.780184
vt 0.635069 0.571535
vt 0.635069 0.780330
vt 0.809022 0.596221
vt 0.809022 0.791777
vt 0.792804 0.790204
vt 0.940034 0.555391
vt 0.933200 0.297677
vt 0.940034 0.289920
vt 0.704004 0.817082
vt 0.709757 0.560067
vt 0.709757 0.817135
vt 0.996161 0.186381
vt 0.996161 0.217200
vt 0.990135 0.188198
vt 0.250260 0.979250
vt 0.243532 0.938793
vt 0.250260 0.921391
vt 0.056597 0.649247
vt 0.104850 0.639038
vt 0.104850 0.715660
vt 0.442939 0.655241
vt 0.488014 0.635199
vt 0.488014 0.717202
vt 0.381166 0.698582
vt 0.371348 0.697817
vt 0.371091 0.637462
vt 0.381166 0.636212
vt 0.850787 0.003417
vt 0.850787 0.242256
vt 0.840453 0.239997
vt 0.843652 0.002627
vt 0.343273 0.717772
vt 0.343273 0.784925
vt 0.302401 0.745390
vt 0.961403 0.908576
vt 0.961403 0.965556
vt 0.952279 0.964407
vt 0.952352 0.909421
vt 0.575738 0.861322
vt 0.552426 0.794200
vt 0.575738 0.785349
vt 0.002627 0.763929
vt 0.050919 0.720477
vt 0.050919 0.773953
vt 0.437685 0.766298
vt 0.376893 0.730137
vt 0.437685 0.716977
vt 0.306636 0.253512
vt 0.335320 0.252241
vt 0.335320 0.255661
vt 0.002627 0.376436
vt 0.002628 0.327572
vt 0.243466 0.326016
vt 0.243466 0.385832
vt 0.002627 0.456179
vt 0.238332 0.460963
vt 0.238332 0.508393
vt 0.002627 0.513685
vt 0.302366 0.982341
vt 0.302621 0.968525
vt 0.311804 0.968459
vt 0.311804 0.983372
vt 0.058131 0.721629
vt 0.065498 0.720914
vt 0.065498 0.937483
vt 0.056597 0.937496
vt 0.735180 0.318958
vt 0.735103 0.315358
vt 0.777110 0.315284
vt 0.777110 0.319151
vt 0.665303 0.939380
vt 0.673482 0.938875
vt 0.673482 0.981867
vt 0.665141 0.982367
vt 0.705364 0.304270
vt 0.680526 0.247332
vt 0.728769 0.237101
vt 0.728769 0.310029
vt 0.970469 0.830415
vt 0.961688 0.828042
vt 0.962033 0.778411
vt 0.970469 0.775975
vt 0.381591 0.055207
vt 0.381581 0.007738
vt 0.621904 0.002627
vt 0.621904 0.060309
vt 0.621903 0.065563
vt 0.621903 0.123219
vt 0.381581 0.118064
vt 0.381587 0.070626
vt 0.247590 0.396557
vt 0.487297 0.391087
vt 0.487297 0.450898
vt 0.247590 0.445426
vt 0.956473 0.550590
vt 0.956473 0.590967
vt 0.947352 0.590198
vt 0.947321 0.549819
vt 0.551470 0.318651
vt 0.309999 0.317423
vt 0.309991 0.270040
vt 0.551470 0.260920
vt 0.882387 0.596937
vt 0.889420 0.596221
vt 0.889420 0.825597
vt 0.879574 0.825742
vt 0.002634 0.445446
vt 0.002627 0.396577
vt 0.242335 0.391087
vt 0.242335 0.450924
vt 0.613557 0.326746
vt 0.613557 0.565135
vt 0.564711 0.565652
vt 0.556583 0.326016
vt 0.496696 0.986717
vt 0.496659 0.973120
vt 0.505878 0.973092
vt 0.505878 0.986933
vt 0.124831 0.202870
vt 0.119258 0.138147
vt 0.166370 0.123551
vt 0.166370 0.217392
vt 0.238105 0.748282
vt 0.238105 0.797840
vt 0.234686 0.797783
vt 0.234455 0.748189
vt 0.947025 0.971731
vt 0.947025 0.985412
vt 0.937848 0.985213
vt 0.937792 0.971536
vt 0.065028 0.315256
vt 0.065032 0.266388
vt 0.304737 0.260920
vt 0.304737 0.320762
vt 0.381608 0.252940
vt 0.381581 0.249584
vt 0.430902 0.249558
vt 0.430902 0.254397
vt 0.002627 0.570833
vt 0.002627 0.521969
vt 0.237753 0.518939
vt 0.237753 0.576440
vt 0.892218 0.326772
vt 0.899621 0.326016
vt 0.899621 0.566390
vt 0.890469 0.566530
vt 0.583772 0.907983
vt 0.592856 0.906945
vt 0.592856 0.964451
vt 0.583771 0.965484
vt 0.524366 0.672514
vt 0.531775 0.671756
vt 0.531775 0.907507
vt 0.522632 0.907652
vt 0.849140 0.247770
vt 0.849140 0.256911
vt 0.841358 0.256631
vt 0.840453 0.247510
vt 0.092760 0.915573
vt 0.085332 0.916320
vt 0.084582 0.721445
vt 0.092760 0.720914
vt 0.777330 0.967390
vt 0.777330 0.986106
vt 0.768235 0.984830
vt 0.768225 0.966172
vt 0.381166 0.704099
vt 0.381166 0.711527
vt 0.375579 0.711259
vt 0.375419 0.703837
vt 0.874996 0.933472
vt 0.874996 0.982342
vt 0.867594 0.981626
vt 0.867582 0.934188
vt 0.814697 0.988177
vt 0.810043 0.988576
vt 0.810172 0.979394
vt 0.814697 0.978996
vt 0.206112 0.969714
vt 0.205996 0.928080
vt 0.215200 0.928452
vt 0.215200 0.970668
vt 0.533835 0.977511
vt 0.533835 0.990985
vt 0.524725 0.989860
vt 0.524725 0.978635
vt 0.605514 0.984393
vt 0.598364 0.983751
vt 0.598110 0.936237
vt 0.605514 0.935512
vt 0.079328 0.721744
vt 0.079328 0.936428
vt 0.070752 0.934777
vt 0.071576 0.720914
vt 0.505776 0.967838
vt 0.496659 0.966930
vt 0.496783 0.914817
vt 0.505776 0.913894
vt 0.592856 0.972091
vt 0.592856 0.985815
vt 0.583777 0.984451
vt 0.583771 0.970738
vt 0.886669 0.242402
vt 0.884914 0.002627
vt 0.894072 0.002770
vt 0.894072 0.243158
vt 0.980611 0.430374
vt 0.980611 0.479241
vt 0.973120 0.478466
vt 0.973567 0.430969
vt 0.787362 0.788773
vt 0.782750 0.789294
vt 0.782828 0.780118
vt 0.787362 0.779583
vt 0.200741 0.928080
vt 0.200741 0.976905
vt 0.193662 0.976281
vt 0.193049 0.928846
vt 0.008093 0.002627
vt 0.246806 0.010288
vt 0.246806 0.059169
vt 0.002627 0.063739
vt 0.230481 0.976888
vt 0.230481 0.989999
vt 0.221309 0.989075
vt 0.221030 0.977791
vt 0.994968 0.551251
vt 0.994968 0.560436
vt 0.990388 0.560042
vt 0.990367 0.550857
vt 0.229201 0.748926
vt 0.229201 0.943573
vt 0.221030 0.943056
vt 0.221745 0.748189
vt 0.961364 0.984486
vt 0.952279 0.985840
vt 0.952279 0.972164
vt 0.961364 0.970810
vt 0.877890 0.326761
vt 0.885215 0.326016
vt 0.885215 0.566383
vt 0.876037 0.566523
vt 0.969485 0.770721
vt 0.961724 0.769985
vt 0.962375 0.722607
vt 0.969485 0.721903
vt 0.840453 0.933472
vt 0.840453 0.982336
vt 0.833038 0.981617
vt 0.833040 0.934187
vt 0.110104 0.704949
vt 0.110113 0.640365
vt 0.158348 0.639038
vt 0.158348 0.715204
vt 0.954419 0.419523
vt 0.954419 0.479340
vt 0.945301 0.478291
vt 0.945288 0.420560
vt 0.906835 0.560694
vt 0.904876 0.326345
vt 0.913910 0.326016
vt 0.913910 0.561365
vt 0.127469 0.070750
vt 0.210235 0.068993
vt 0.210235 0.118297
vt 0.119258 0.106684
vt 0.193065 0.982828
vt 0.200459 0.982159
vt 0.200459 0.990904
vt 0.193049 0.991685
vt 0.150503 0.985398
vt 0.142206 0.985855
vt 0.142214 0.968317
vt 0.150503 0.967204
vt 0.051343 0.715223
vt 0.002627 0.714127
vt 0.003099 0.649293
vt 0.051343 0.639038
vt 0.683993 0.326252
vt 0.733104 0.326016
vt 0.733104 0.548380
vt 0.679046 0.554813
vt 0.856316 0.326787
vt 0.856316 0.577724
vt 0.847036 0.576654
vt 0.848911 0.326016
vt 0.618181 0.935512
vt 0.618181 0.984355
vt 0.610769 0.983653
vt 0.610811 0.936194
vt 0.920661 0.554634
vt 0.919165 0.326016
vt 0.927945 0.326052
vt 0.927945 0.555391
vt 0.309460 0.712043
vt 0.302401 0.636212
vt 0.351388 0.641953
vt 0.351388 0.712517
vt 0.803478 0.260414
vt 0.806446 0.002627
vt 0.820745 0.002702
vt 0.820745 0.268153
vt 0.470334 0.588747
vt 0.470334 0.620857
vt 0.406184 0.629945
vt 0.388704 0.583805
vt 0.862328 0.982341
vt 0.854914 0.981620
vt 0.854921 0.934195
vt 0.862328 0.933472
vt 0.084645 0.922514
vt 0.093762 0.921574
vt 0.093762 0.965458
vt 0.084582 0.966252
vt 0.963534 0.223980
vt 0.963534 0.283668
vt 0.955055 0.281999
vt 0.954530 0.225075
vt 0.863373 0.565782
vt 0.861570 0.326016
vt 0.870783 0.326162
vt 0.870783 0.566539
vt 0.242287 0.068993
vt 0.246193 0.069045
vt 0.246193 0.113050
vt 0.240703 0.113121
vt 0.827486 0.267536
vt 0.825999 0.002627
vt 0.835198 0.002696
vt 0.835198 0.268256
vt 0.109414 0.929564
vt 0.109414 0.978428
vt 0.101897 0.977659
vt 0.101998 0.930276
vt 0.927688 0.003342
vt 0.935067 0.002627
vt 0.935067 0.225969
vt 0.925975 0.225700
vt 0.414606 0.946729
vt 0.414606 0.980712
vt 0.405861 0.979707
vt 0.405821 0.947592
vt 0.931587 0.824859
vt 0.924476 0.825555
vt 0.922857 0.597354
vt 0.931587 0.596221
vt 0.602474 0.834645
vt 0.604814 0.571037
vt 0.613557 0.570906
vt 0.613557 0.836392
vt 0.852331 0.837241
vt 0.850665 0.596221
vt 0.859855 0.596293
vt 0.859855 0.837949
vt 0.724341 0.799169
vt 0.724341 0.816760
vt 0.716048 0.815735
vt 0.715968 0.799686
vt 0.498087 0.672555
vt 0.505776 0.671756
vt 0.505776 0.908640
vt 0.496623 0.908246
vt 0.489293 0.988346
vt 0.480993 0.988746
vt 0.481115 0.959946
vt 0.489293 0.959337
vt 0.972895 0.117183
vt 0.965533 0.116597
vt 0.965164 0.069151
vt 0.972895 0.068333
vt 0.584276 0.901241
vt 0.581200 0.897869
vt 0.584276 0.881399
vt 0.621083 0.898671
vt 0.618812 0.875438
vt 0.621083 0.871357
vt 0.115084 0.984314
vt 0.121358 0.983822
vt 0.121358 0.992853
vt 0.114755 0.993494
vt 0.238150 0.840999
vt 0.234455 0.816052
vt 0.238150 0.803094
vt 0.226619 0.214287
vt 0.224135 0.192879
vt 0.226619 0.188986
vt 0.237765 0.881858
vt 0.234455 0.871067
vt 0.237765 0.846253
vt 0.245469 0.188986
vt 0.245469 0.250342
vt 0.234880 0.249068
vt 0.234935 0.189956
vt 0.237422 0.922692
vt 0.234455 0.897938
vt 0.237422 0.887112
vt 0.638785 0.972542
vt 0.634816 0.948008
vt 0.638785 0.935512
vt 0.992364 0.721903
vt 0.992364 0.763537
vt 0.986805 0.725927
vt 0.335141 0.915073
vt 0.332831 0.893056
vt 0.335141 0.889077
vt 0.527445 0.938034
vt 0.525902 0.931348
vt 0.527445 0.912950
vt 0.622166 0.823357
vt 0.618812 0.810308
vt 0.622166 0.785585
vt 0.906683 0.275123
vt 0.904374 0.271138
vt 0.906683 0.248449
vt 0.291387 0.988721
vt 0.289775 0.960222
vt 0.296497 0.961041
vt 0.296497 0.991126
vt 0.973455 0.908576
vt 0.973455 0.968419
vt 0.966657 0.950981
vt 0.474492 0.995148
vt 0.468088 0.993413
vt 0.474492 0.959337
vt 0.673792 0.815760
vt 0.666397 0.816570
vt 0.663393 0.573903
vt 0.673792 0.571535
vt 0.835377 0.320762
vt 0.817840 0.320614
vt 0.815982 0.291665
vt 0.835377 0.277640
vt 0.159158 0.911019
vt 0.156087 0.894160
vt 0.159158 0.890680
vt 0.074649 0.075480
vt 0.114004 0.068993
vt 0.114004 0.162834
vt 0.065028 0.157007
vt 0.762760 0.914711
vt 0.760300 0.910827
vt 0.762760 0.889413
vt 0.827379 0.590919
vt 0.818523 0.590774
vt 0.815982 0.327771
vt 0.827379 0.326016
vt 0.584276 0.876145
vt 0.580992 0.865412
vt 0.584276 0.840115
vt 0.658049 0.871406
vt 0.655741 0.867494
vt 0.658049 0.844052
vt 0.546515 0.977511
vt 0.546515 0.992216
vt 0.539098 0.991979
vt 0.539089 0.977681
vt 0.619369 0.318651
vt 0.610493 0.317992
vt 0.610261 0.253158
vt 0.619369 0.251079
vt 0.213422 0.992181
vt 0.206014 0.992082
vt 0.205996 0.976273
vt 0.213422 0.975923
vt 0.275465 0.984349
vt 0.275435 0.960222
vt 0.284521 0.961196
vt 0.284521 0.985862
vt 0.866910 0.596978
vt 0.874319 0.596221
vt 0.874319 0.836602
vt 0.865109 0.836745
vt 0.917603 0.830665
vt 0.910237 0.831465
vt 0.908985 0.596857
vt 0.917603 0.596221
vt 0.810182 0.973730
vt 0.810043 0.924401
vt 0.813977 0.924419
vt 0.813977 0.973742
vt 0.084629 0.987798
vt 0.084582 0.971506
vt 0.092032 0.972311
vt 0.092032 0.988121
vt 0.002627 0.793581
vt 0.029056 0.779208
vt 0.029056 0.852136
vt 0.122235 0.978568
vt 0.114755 0.977829
vt 0.114884 0.930501
vt 0.122235 0.929564
vt 0.845411 0.597093
vt 0.845411 0.839704
vt 0.835270 0.839219
vt 0.837931 0.596221
vt 0.656099 0.781062
vt 0.640324 0.780020
vt 0.656099 0.571535
vt 0.596519 0.570906
vt 0.596519 0.804754
vt 0.580992 0.766004
vt 0.755334 0.561214
vt 0.755334 0.794672
vt 0.738359 0.769805
vt 0.760588 0.599847
vt 0.777496 0.561214
vt 0.777496 0.794672
vt 0.487435 0.461681
vt 0.487435 0.510685
vt 0.253040 0.515591
vt 0.247590 0.456152
vt 0.740719 0.230832
vt 0.693339 0.231297
vt 0.687534 0.017505
vt 0.740719 0.002627
vt 0.789341 0.990444
vt 0.782584 0.990907
vt 0.785744 0.966172
vt 0.789341 0.966340
vt 0.971049 0.585529
vt 0.962048 0.584804
vt 0.961727 0.555184
vt 0.971049 0.550857
vt 0.538760 0.906936
vt 0.537029 0.671756
vt 0.546171 0.671939
vt 0.546171 0.907695
vt 0.382953 0.190378
vt 0.617274 0.194157
vt 0.617274 0.242982
vt 0.381581 0.244304
vt 0.978714 0.973847
vt 0.986146 0.973673
vt 0.986146 0.989481
vt 0.978709 0.990140
vt 0.136603 0.986784
vt 0.127489 0.986602
vt 0.127504 0.967681
vt 0.136603 0.967204
vt 0.985113 0.551419
vt 0.985113 0.580315
vt 0.976393 0.579835
vt 0.976304 0.550857
vt 0.994964 0.565975
vt 0.994964 0.575209
vt 0.990373 0.574916
vt 0.990367 0.565690
vt 0.976686 0.216489
vt 0.976492 0.186381
vt 0.984881 0.186458
vt 0.984881 0.216785
vt 0.420034 0.948913
vt 0.428957 0.946729
vt 0.428957 0.981204
vt 0.419861 0.982484
vt 0.318396 0.971448
vt 0.327441 0.969875
vt 0.327441 0.983689
vt 0.318319 0.985069
vt 0.238122 0.693614
vt 0.238122 0.742935
vt 0.163627 0.727102
vt 0.163602 0.709453
vt 0.810727 0.590886
vt 0.796023 0.590967
vt 0.792804 0.333898
vt 0.810727 0.326016
vt 0.903730 0.597036
vt 0.903730 0.836944
vt 0.894674 0.836449
vt 0.896258 0.596221
vt 0.731724 0.966262
vt 0.740833 0.966050
vt 0.740833 0.989128
vt 0.731694 0.990182
vt 0.849635 0.982200
vt 0.845707 0.982202
vt 0.845758 0.933949
vt 0.849635 0.933472
vt 0.004190 0.633784
vt 0.002627 0.581694
vt 0.239508 0.582879
vt 0.239508 0.630318
vt 0.142124 0.250235
vt 0.122579 0.250534
vt 0.123209 0.242813
vt 0.142124 0.242814
vt 0.678926 0.981725
vt 0.678736 0.938875
vt 0.687094 0.939160
vt 0.687094 0.982282
vt 0.496623 0.664339
vt 0.496855 0.582561
vt 0.546171 0.582512
vt 0.546171 0.666502
vt 0.872261 0.242371
vt 0.870475 0.002627
vt 0.879660 0.002769
vt 0.879660 0.243125
vt 0.059774 0.319926
vt 0.010938 0.320762
vt 0.002627 0.105051
vt 0.059774 0.068993
vt 0.316961 0.583805
vt 0.383450 0.592221
vt 0.383450 0.620986
vt 0.302401 0.630957
vt 0.496623 0.542462
vt 0.503873 0.326016
vt 0.551328 0.326618
vt 0.551328 0.577258
vt 0.312565 0.245247
vt 0.263710 0.246291
vt 0.252060 0.017768
vt 0.312565 0.002627
vt 0.702215 0.983909
vt 0.702215 0.995441
vt 0.693305 0.993367
vt 0.693242 0.982147
vt 0.163626 0.672524
vt 0.163602 0.654881
vt 0.238127 0.639038
vt 0.238127 0.688360
vt 0.462210 0.955954
vt 0.462210 0.995840
vt 0.459145 0.993856
vt 0.456834 0.957069
vt 0.173567 0.977068
vt 0.173567 0.990542
vt 0.164451 0.989417
vt 0.164451 0.978193
vt 0.682280 0.003211
vt 0.682280 0.231846
vt 0.627158 0.217225
vt 0.633465 0.002627
vt 0.176773 0.136845
vt 0.218881 0.123551
vt 0.218881 0.215267
vt 0.171624 0.201096
vt 0.254091 0.384883
vt 0.248720 0.326016
vt 0.491369 0.330118
vt 0.491369 0.377633
vt 0.857801 0.003298
vt 0.865220 0.002627
vt 0.865220 0.244097
vt 0.856042 0.244130
vt 0.387182 0.128474
vt 0.621759 0.132631
vt 0.621759 0.179959
vt 0.381581 0.185123
vt 0.317820 0.231735
vt 0.328836 0.002627
vt 0.376327 0.003536
vt 0.376327 0.246557
vt 0.511784 0.671804
vt 0.517377 0.671756
vt 0.517377 0.929561
vt 0.920720 0.002627
vt 0.920720 0.267528
vt 0.913670 0.259629
vt 0.673792 0.565458
vt 0.618812 0.566281
vt 0.626346 0.326016
vt 0.673792 0.326488
vt 0.827784 0.933472
vt 0.827784 0.982584
vt 0.820540 0.981509
vt 0.820402 0.934144
vt 0.901065 0.241007
vt 0.899327 0.002627
vt 0.908415 0.002763
vt 0.908415 0.241731
vt 0.395683 0.635853
vt 0.437685 0.635199
vt 0.437685 0.705933
vt 0.388704 0.711723
vt 0.622203 0.828611
vt 0.622203 0.866103
vt 0.618812 0.859243
vt 0.740637 0.278114
vt 0.734023 0.274004
vt 0.740637 0.237101
vt 0.358103 0.637005
vt 0.365836 0.636212
vt 0.365836 0.876596
vt 0.356642 0.876775
vt 0.295786 0.738435
vt 0.295786 0.787756
vt 0.243532 0.776389
vt 0.777496 0.847304
vt 0.777496 0.856466
vt 0.769677 0.856110
vt 0.769471 0.846926
vt 0.110136 0.730769
vt 0.158348 0.720458
vt 0.158348 0.777322
vt 0.247590 0.584142
vt 0.297147 0.583805
vt 0.297147 0.665808
vt 0.247840 0.665801
vt 0.135194 0.782576
vt 0.135194 0.858549
vt 0.110136 0.844879
vt 0.556725 0.266520
vt 0.605007 0.256451
vt 0.605007 0.318651
vt 0.519192 0.934816
vt 0.519192 0.983685
vt 0.511784 0.982965
vt 0.511860 0.935495
vt 0.301381 0.255661
vt 0.252060 0.255598
vt 0.252063 0.251802
vt 0.301381 0.251545
vt 0.656380 0.937063
vt 0.655916 0.887763
vt 0.659887 0.887780
vt 0.659887 0.937098
vt 0.745891 0.278069
vt 0.745897 0.274202
vt 0.763540 0.274186
vt 0.763540 0.278114
vt 0.114368 0.255646
vt 0.065047 0.255622
vt 0.065028 0.252266
vt 0.114368 0.251617
vt 0.220953 0.254093
vt 0.171624 0.253913
vt 0.171640 0.250407
vt 0.220953 0.249254
vt 0.679046 0.754681
vt 0.682459 0.560067
vt 0.698750 0.560162
vt 0.698750 0.768958
vt 0.750346 0.002703
vt 0.769893 0.002627
vt 0.769893 0.267497
vt 0.745973 0.267576
vt 0.782852 0.670388
vt 0.786822 0.670378
vt 0.786822 0.719727
vt 0.782750 0.719727
vt 0.787093 0.561227
vt 0.787093 0.610549
vt 0.782977 0.610548
vt 0.782750 0.561214
vt 0.436157 0.254302
vt 0.436156 0.250375
vt 0.485478 0.250368
vt 0.485478 0.254397
vt 0.109414 0.984809
vt 0.109414 0.996610
vt 0.100412 0.994906
vt 0.100307 0.983682
vt 0.798224 0.002739
vt 0.798224 0.268192
vt 0.779309 0.268149
vt 0.775147 0.002627
vt 0.680526 0.319107
vt 0.680527 0.315310
vt 0.729848 0.315284
vt 0.729848 0.319218
vt 0.183205 0.952068
vt 0.187459 0.948352
vt 0.187459 0.980463
vt 0.875232 0.257515
vt 0.870475 0.248405
vt 0.878127 0.248379
vt 0.878127 0.257520
vt 0.247590 0.573409
vt 0.247590 0.525984
vt 0.487911 0.520845
vt 0.487911 0.578551
vt 0.982083 0.067850
vt 0.982083 0.117172
vt 0.978558 0.117183
vt 0.978149 0.067850
vt 0.783568 0.615816
vt 0.787093 0.615803
vt 0.787093 0.665124
vt 0.782750 0.665113
vt 0.140460 0.845142
vt 0.149634 0.844858
vt 0.149634 0.858578
vt 0.140449 0.858873
vt 0.786822 0.774298
vt 0.782750 0.774329
vt 0.783027 0.725023
vt 0.786822 0.724982
vt 0.834365 0.326736
vt 0.841781 0.326016
vt 0.841781 0.589633
vt 0.832633 0.589745
vt 0.787550 0.332617
vt 0.787550 0.555959
vt 0.740189 0.555339
vt 0.738359 0.326016
vt 0.574512 0.924221
vt 0.578446 0.924220
vt 0.578446 0.973541
vt 0.574504 0.973542
vt 0.540054 0.254397
vt 0.490732 0.254397
vt 0.490732 0.250471
vt 0.540054 0.250456
vn 0.0823 -0.9956 -0.0448
vn -0.1048 0.8712 -0.4796
vn 0.8355 0.1989 0.5122
vn 0.1666 0.1852 0.9685
vn 0.1665 0.1855 0.9684
vn 0.1664 0.1858 0.9684
vn 0.4268 0.1635 -0.8895
vn 0.4266 0.1638 -0.8895
vn -0.7131 0.1583 -0.6830
vn -0.7131 0.1586 -0.6829
vn -0.1787 -0.1951 -0.9644
vn 0.1318 0.8332 -0.5370
vn -0.0088 0.9362 0.3514
vn 0.7112 -0.1654 0.6833
vn 0.6058 -0.1760 -0.7759
vn 0.3718 0.9190 0.1312
vn 0.9724 0.1961 0.1264
vn -0.2664 0.9365 0.2281
vn -0.2668 0.9363 0.2283
vn 0.0000 -1.0000 0.0000
vn 0.3070 -0.9367 -0.1682
vn -0.9847 0.1554 0.0786
vn -0.9848 0.1550 0.0784
vn -0.2381 0.1437 0.9605
vn 0.8426 0.1569 0.5151
vn 0.0604 -0.9967 0.0537
vn 0.2948 0.9553 -0.0235
vn 0.8658 -0.1579 -0.4748
vn 0.8657 -0.1582 -0.4749
vn -0.8417 -0.1638 -0.5145
vn -0.9711 -0.2014 -0.1284
vn -0.5596 -0.1636 -0.8124
vn 0.9793 0.1571 0.1278
vn 0.0247 0.1723 -0.9847
vn -0.9782 -0.1639 -0.1277
vn -0.5948 0.1441 0.7908
vn -0.8693 0.1651 0.4658
vn -0.8693 0.1645 0.4661
vn -0.9454 -0.1648 0.2812
vn -0.9454 -0.1652 0.2810
vn 0.7483 0.1726 -0.6405
vn 0.7473 0.1633 -0.6441
vn 0.9463 0.1593 -0.2813
vn 0.9463 0.1587 -0.2816
vn 0.9319 -0.1601 0.3256
vn 0.9318 -0.1605 0.3257
vn 0.0248 0.1603 -0.9867
vn 0.2272 -0.1639 -0.9600
vn -0.8500 -0.2106 -0.4829
vn -0.9324 0.1543 -0.3268
vn -0.9325 0.1540 -0.3267
vn -0.9327 0.1535 -0.3265
vn 0.5603 0.1567 0.8133
vn 0.8595 -0.1885 -0.4751
vn -0.1807 -0.1606 -0.9703
vn 0.3822 -0.1696 0.9084
vn 0.3821 -0.1701 0.9084
vn 0.9837 -0.1619 -0.0784
vn -0.0247 -0.1666 0.9857
vn -0.8680 0.1540 0.4722
vn 0.9433 0.1777 -0.2805
vn 0.0896 -0.9325 -0.3498
vn 0.1131 0.9546 0.2756
vn -0.0579 0.9485 -0.3114
vn 0.3386 -0.9405 -0.0271
vn 0.3381 -0.9407 -0.0270
vn 0.3391 -0.9404 -0.0272
vn 0.2942 0.9500 0.1048
vn 0.1479 -0.7955 -0.5876
vn -0.0076 0.9533 0.3018
vn -0.3167 -0.9438 0.0945
vn -0.3164 -0.9439 0.0944
vn 0.3292 -0.9405 0.0838
vn 0.1919 -0.9406 0.2800
vn -0.1510 0.9362 0.3175
vn 0.2214 -0.9291 -0.2963
vn 0.2577 0.9349 0.2440
vn -0.2920 0.9525 0.0868
vn 0.0067 -1.0000 -0.0005
vn -0.1258 0.9553 0.2676
vn -0.2200 -0.9450 0.2420
vn 0.1632 -0.9439 0.2870
vn -0.1749 0.9513 -0.2539
vn -0.1747 0.9514 -0.2536
vn -0.1905 -0.9419 -0.2765
vn -0.1903 -0.9421 -0.2763
vn -0.1909 -0.9417 -0.2769
vn -0.3282 0.9395 0.0978
vn -0.1760 -0.9452 0.2751
vn -0.0632 -0.9398 -0.3359
vn -0.3047 0.9516 -0.0398
vn -0.0289 -0.9092 -0.4153
vn 0.6049 -0.1326 -0.7851
vn 0.2364 -0.1460 -0.9606
vn -0.9419 -0.1852 0.2802
vn -0.7458 -0.1710 0.6439
vn -0.7473 -0.1802 0.6396
vn -0.2304 0.1868 0.9550
vn 0.5691 0.1959 0.7986
vn -0.5390 -0.2164 -0.8140
vn 0.9282 -0.1775 0.3269
vn 0.9282 -0.1780 0.3267
vn 0.9282 -0.1785 0.3265
vn 0.7143 -0.1795 0.6764
vn 0.3774 -0.1798 0.9084
vn -0.9821 0.1697 0.0813
vn -0.5908 0.1754 0.7875
vn 0.1814 0.1538 0.9713
vn -0.0247 -0.1798 0.9834
vn -0.4225 -0.1798 0.8883
vn -0.3816 0.1621 -0.9100
vn -0.3819 0.1613 -0.9100
vn -0.4272 -0.1706 0.8879
vn -0.4270 -0.1711 0.8879
vn -0.4268 -0.1715 0.8879
vn -0.7152 0.1725 -0.6773
vn 0.4231 0.1723 -0.8896
vn -0.9282 0.1744 -0.3286
vn -0.9286 0.1732 -0.3283
vn -0.9285 0.1735 -0.3283
vn -0.9284 0.1739 -0.3285
vn -0.3779 0.1723 -0.9097
vn -0.0082 -0.9453 0.3260
vn -0.0082 -0.9455 0.3256
vn 0.3088 0.8482 -0.4304
vn -0.3320 -0.9423 -0.0433
vn 0.4993 0.8316 -0.2432
vn -0.2257 0.9552 0.1914
vn 0.2522 -0.8743 -0.4147
vn -0.2860 -0.9422 -0.1748
vn -0.2624 0.9515 -0.1604
vn -0.2525 0.8859 -0.3892
vn -0.0001 -1.0000 -0.0001
vn 0.5259 0.8478 -0.0675
vn 0.0004 -1.0000 0.0001
vn 0.2306 0.9661 -0.1165
vn 0.0404 -0.9977 -0.0535
vn 0.1349 0.9362 0.3246
vn -0.3320 0.9386 -0.0941
vn 0.2228 0.9524 0.2079
vn -0.0166 0.9441 -0.3292
vn -0.3745 0.9081 -0.1874
vn 0.9803 -0.1827 -0.0754
vn 0.0051 -1.0000 -0.0019
vn 0.0801 -0.9869 0.1402
vn 0.0001 -1.0000 -0.0002
vn 0.2375 0.9567 -0.1681
vn 0.3727 0.0995 -0.9226
vn -0.3726 -0.1053 0.9220
vn -0.9736 0.0587 -0.2205
vn 0.9965 -0.0013 -0.0836
vn 0.9965 -0.0001 -0.0834
vn 0.9968 0.0005 -0.0799
vn 0.9969 -0.0015 -0.0788
vn 0.9969 -0.0006 -0.0787
vn 0.9968 -0.0018 -0.0797
vn 0.9969 -0.0018 -0.0786
vn -0.9966 -0.0024 0.0830
vn -0.9968 -0.0030 0.0794
vn -0.9971 -0.0060 0.0764
vn 0.9914 -0.0007 0.1308
vn 0.9915 0.0053 0.1303
vn 0.9915 0.0046 0.1301
vn 0.9965 -0.0206 -0.0804
vn -0.9780 -0.0427 -0.2041
vn -0.9916 -0.0020 -0.1297
vn -0.9915 0.0055 -0.1300
vn -0.9914 0.0017 -0.1310
vn 0.9785 0.0484 0.2004
vn 0.9971 -0.0089 -0.0760
vn 0.9969 0.0140 -0.0777
vn 0.9757 -0.0532 0.2125
vn -0.9970 0.0011 0.0777
vn -0.9970 0.0008 0.0780
vn -0.9969 0.0011 0.0790
vn -0.9969 0.0009 0.0787
vn -0.9969 0.0018 0.0788
vn -0.9969 0.0008 0.0789
vn -0.9971 -0.0000 0.0758
vn -0.9972 0.0016 0.0744
vn 0.9922 -0.0054 0.1244
vn 0.9918 -0.0042 0.1281
vn 0.9916 -0.0014 0.1295
vn -0.9967 -0.0003 0.0810
vn -0.9967 -0.0016 0.0812
vn 0.9916 0.0064 0.1288
vn 0.9915 0.0047 0.1301
vn -0.9965 -0.0013 0.0835
vn -0.9966 0.0073 0.0820
vn -0.9969 0.0021 0.0781
vn -0.9915 -0.0071 -0.1300
vn -0.9917 -0.0070 -0.1283
vn -0.9915 -0.0033 -0.1299
vn -0.9918 -0.0019 -0.1277
vn 0.9975 0.0079 -0.0708
vn 0.9966 0.0007 -0.0819
vn 0.9967 -0.0003 -0.0818
vn 0.9762 -0.0772 0.2026
vn 0.9795 0.0600 0.1921
vn -0.9968 -0.0002 0.0794
vn -0.9968 -0.0026 0.0803
vn -0.9968 0.0017 0.0795
vn -0.9968 0.0012 0.0796
vn -0.9969 0.0002 0.0781
vn -0.9742 0.0890 -0.2072
vn -0.9794 -0.0548 -0.1942
vn 0.9970 -0.0034 -0.0779
vn 0.9969 -0.0006 -0.0790
vn 0.9969 -0.0001 -0.0790
vn 0.9968 -0.0014 -0.0796
vn 0.9969 -0.0012 -0.0787
vn 0.0170 0.9998 0.0102
vn 0.0146 0.9998 0.0127
vn 0.0111 0.9999 0.0077
vn -0.5895 0.0935 0.8024
vn -0.7450 0.6613 0.0871
vn -0.7448 0.6615 0.0875
vn -0.7445 0.6618 0.0880
vn -0.0054 1.0000 -0.0033
vn -0.0069 1.0000 0.0066
vn -0.0054 1.0000 0.0021
vn 0.5843 -0.1111 -0.8039
vn 0.5800 -0.1063 -0.8076
vn 0.5860 -0.1040 -0.8036
vn -0.0148 0.9999 0.0054
vn -0.0163 0.9999 0.0036
vn 0.0179 0.9997 -0.0140
vn -0.0833 0.9962 0.0248
vn -0.0014 1.0000 -0.0044
vn -0.0047 1.0000 -0.0067
vn -0.0006 1.0000 -0.0030
vn 0.0034 1.0000 -0.0039
vn 0.6052 -0.1035 -0.7893
vn 0.6053 -0.0998 -0.7897
vn -0.6087 0.1020 0.7868
vn -0.6088 0.0950 0.7876
vn -0.6098 0.0961 0.7867
vn -0.6338 0.0941 0.7677
vn -0.6051 0.0949 0.7905
vn -0.5998 0.0895 0.7951
vn -0.5997 0.0955 0.7945
vn 0.6183 -0.0966 -0.7799
vn 0.5991 -0.0957 -0.7949
vn 0.6031 -0.0986 -0.7915
vn 0.5997 -0.0993 -0.7940
vn 0.1252 0.0895 -0.9881
vn -0.0341 -0.0953 0.9949
vn -0.9967 -0.0220 0.0778
vn -0.9966 -0.0087 0.0816
vn -0.9970 -0.0142 0.0757
vn -0.9967 0.0226 0.0776
vn 0.0041 -1.0000 -0.0035
vn 0.0025 -1.0000 -0.0030
vn 0.0076 -1.0000 -0.0015
vn 0.0084 -1.0000 0.0039
vn 0.0116 -0.9999 0.0081
vn 0.0883 0.9716 0.2196
vn 0.6050 -0.0208 -0.7959
vn 0.0093 -0.9999 0.0090
vn 0.0083 0.9962 -0.0865
vn -0.0028 -1.0000 0.0044
vn -0.0076 -1.0000 0.0010
vn -0.0102 -0.9999 0.0025
vn -0.0005 -1.0000 0.0033
vn 0.0014 -1.0000 0.0003
vn 0.0001 -1.0000 0.0016
vn 0.0008 -1.0000 -0.0010
vn 0.0027 -1.0000 -0.0030
vn -0.9989 -0.0281 -0.0386
vn 0.7227 -0.0971 0.6843
vn -0.9382 0.1003 -0.3311
vn 0.1192 0.6757 -0.7275
vn -0.5570 -0.0119 -0.8304
vn -0.5568 -0.0119 -0.8306
vn -0.5573 -0.0119 -0.8302
vn -0.5577 -0.0119 -0.8300
vn 0.8227 0.0264 -0.5679
vn -0.8548 -0.0056 -0.5190
vn -0.8572 -0.0048 -0.5149
vn -0.8561 -0.0027 -0.5168
vn -0.8564 -0.0028 -0.5163
vn -0.0523 0.9986 0.0105
vn 0.1516 0.9867 0.0589
vn 0.9539 0.0999 -0.2832
vn 0.9538 0.0998 -0.2835
vn 0.9866 0.1000 0.1293
vn 0.9865 0.1001 0.1297
vn 0.9866 0.0999 0.1288
vn -0.9530 -0.1073 0.2834
vn -0.1994 -0.0064 -0.9799
vn -0.2029 -0.0011 -0.9792
vn -0.1940 -0.0028 -0.9810
vn -0.7226 0.0902 -0.6853
vn -0.7220 0.0900 -0.6860
vn -0.7224 0.0901 -0.6856
vn -0.7221 0.0900 -0.6859
vn 0.7223 -0.0191 0.6913
vn -0.9857 -0.1073 -0.1296
vn -0.9858 -0.1074 -0.1290
vn -0.9857 -0.1072 -0.1301
vn -0.9857 -0.1072 -0.1302
vn -0.1745 -0.1054 -0.9790
vn 0.2173 0.7003 0.6800
vn -0.0018 -1.0000 0.0007
vn -0.0009 -1.0000 -0.0001
vn -0.0026 -1.0000 -0.0008
vn -0.9477 -0.3059 0.0915
vn -0.0562 0.7001 -0.7118
vn -0.0556 0.6999 -0.7121
vn -0.0552 0.6998 -0.7123
vn 0.9910 -0.1072 -0.0796
vn 0.9910 -0.1073 -0.0799
vn -0.0253 -0.0001 0.9997
vn -0.0252 0.0003 0.9997
vn -0.0253 -0.0006 0.9997
vn -0.0253 -0.0004 0.9997
vn 0.9375 -0.1075 0.3309
vn -0.1878 -0.0108 -0.9821
vn -0.1845 -0.0164 -0.9827
vn -0.1932 -0.0141 -0.9811
vn 0.0781 0.9966 0.0276
vn 0.3504 -0.0186 -0.9364
vn 0.0884 0.4904 0.8670
vn -0.8522 -0.0034 -0.5233
vn -0.8533 -0.0012 -0.5215
vn -0.8507 -0.0009 -0.5256
vn -0.0032 0.9090 -0.4167
vn -0.0039 0.9092 -0.4163
vn -0.0029 0.9090 -0.4169
vn -0.0028 -1.0000 -0.0000
vn -0.0002 -1.0000 -0.0028
vn 0.0509 -0.0031 -0.9987
vn -0.0317 0.0188 0.9993
vn -0.0863 0.9962 -0.0113
vn -0.8810 -0.0106 -0.4729
vn -0.0521 0.9900 -0.1312
vn -0.0302 -0.7093 -0.7043
vn -0.1780 -0.0106 -0.9840
vn -0.2580 0.0041 0.9661
vn -0.8483 -0.1077 -0.5185
vn 0.1674 0.9846 0.0498
vn 0.2028 0.0030 0.9792
vn 0.7271 0.0004 0.6865
vn 0.7305 0.0037 0.6829
vn 0.7249 0.0053 0.6889
vn 0.0819 -0.7072 0.7023
vn 0.3837 -0.0112 0.9234
vn 0.0007 -1.0000 -0.0004
vn -0.0008 -1.0000 -0.0016
vn 0.0006 -1.0000 -0.0007
vn 0.0630 0.9962 0.0597
vn 0.8941 -0.0035 -0.4479
vn 0.0328 0.9994 0.0076
vn 0.0028 -1.0000 0.0001
vn 0.0002 -1.0000 0.0028
vn 0.0428 0.9976 -0.0549
vn -0.0001 1.0000 0.0000
vn -0.0055 1.0000 0.0007
vn 0.0008 1.0000 -0.0013
vn 0.3911 -0.1055 0.9143
vn 0.3418 -0.0000 0.9398
vn -0.9834 -0.0007 0.1816
vn 0.0027 1.0000 -0.0008
vn 0.0088 1.0000 -0.0016
vn 0.0041 1.0000 0.0054
vn 0.0009 0.0895 -0.9960
vn -0.0140 0.9995 -0.0297
vn -0.0257 0.0066 0.9996
vn -0.0826 0.9947 -0.0619
vn -0.0282 -0.0109 0.9995
vn -0.4013 0.3037 0.8641
vn -0.9911 -0.0099 -0.1326
vn 0.8310 0.0280 -0.5556
vn 0.1578 0.9875 0.0007
vn 0.9609 0.0030 0.2767
vn 0.1107 0.0916 -0.9896
vn -0.7626 -0.0280 0.6463
vn 0.2232 0.9687 0.1083
vn -0.7891 0.0029 0.6143
vn -0.7631 0.0669 -0.6428
vn -0.9679 0.0312 -0.2493
vn 0.9960 -0.0055 -0.0892
vn 0.9963 -0.0029 -0.0859
vn 0.9962 0.0001 -0.0877
vn -0.1710 0.1232 -0.9775
vn 0.9968 0.0012 -0.0795
vn 0.9969 0.0011 -0.0791
vn 0.9969 0.0013 -0.0785
vn 0.9969 -0.0010 -0.0784
vn 0.9969 -0.0021 -0.0780
vn -0.9971 0.0157 0.0744
vn 0.1396 0.9901 -0.0175
vn 0.9915 0.0028 0.1304
vn 0.9916 0.0049 0.1294
vn 0.9911 0.0059 0.1332
vn 0.9959 0.0179 -0.0890
vn -0.9830 -0.0463 -0.1776
vn -0.9714 -0.0239 -0.2361
vn -0.9925 0.0483 -0.1121
vn -0.9911 -0.0048 -0.1333
vn -0.9917 -0.0054 -0.1284
vn -0.9916 -0.0002 -0.1292
vn 0.9706 0.0255 0.2392
vn 0.2944 0.4657 -0.8345
vn 0.9967 -0.0240 -0.0775
vn 0.9963 0.0306 -0.0797
vn -0.4345 -0.0080 0.9006
vn -0.4341 -0.0079 0.9008
vn -0.5839 0.1068 0.8047
vn 0.9696 -0.0259 0.2433
vn 0.0034 -1.0000 -0.0058
vn -0.0011 -1.0000 -0.0030
vn -0.0001 -1.0000 -0.0016
vn -0.9971 0.0012 0.0767
vn -0.9970 0.0005 0.0768
vn -0.9971 -0.0009 0.0763
vn -0.1138 -0.0966 0.9888
vn -0.1091 -0.0979 0.9892
vn -0.1126 -0.0989 0.9887
vn -0.9969 -0.0004 0.0786
vn -0.9968 -0.0005 0.0795
vn -0.9974 0.0001 0.0725
vn -0.9970 0.0020 0.0768
vn -0.9976 -0.0016 0.0698
vn -0.1937 0.8504 -0.4892
vn -0.1120 0.9198 -0.3761
vn -0.0237 -0.0110 0.9997
vn -0.9980 -0.0015 -0.0635
vn 0.8784 -0.0003 -0.4780
vn 0.0787 0.9969 0.0008
vn -0.5726 -0.0092 -0.8198
vn -0.6177 0.0928 0.7809
vn -0.6078 0.1011 0.7877
vn -0.6056 0.0947 0.7901
vn -0.6022 0.0949 0.7927
vn 0.6373 -0.0983 -0.7643
vn 0.6005 -0.0988 -0.7935
vn 0.6034 -0.0988 -0.7913
vn 0.6065 -0.1003 -0.7887
vn 0.2274 -0.1065 -0.9680
vn 0.2269 -0.1066 -0.9681
vn 0.3948 0.0954 -0.9138
vn -0.4601 0.2772 -0.8435
vn 0.1335 0.9905 0.0331
vn -0.4311 -0.0120 0.9022
vn -0.5298 -0.1057 -0.8415
vn 0.3999 0.9126 0.0856
vn -0.5644 0.7474 -0.3504
vn 0.0085 -0.0078 -0.9999
vn 0.0086 -0.0075 -0.9999
vn 0.6349 0.5789 0.5117
vn 0.2672 -0.0068 -0.9636
vn 0.0707 -0.7090 -0.7017
vn 0.0703 -0.7092 -0.7015
vn 0.0007 1.0000 0.0010
vn -0.0032 -0.0960 0.9954
vn 0.9428 -0.0112 0.3332
vn -0.0021 0.9965 0.0838
vn 0.9939 -0.0361 -0.1044
vn 0.5363 0.0985 0.8382
vn 0.7212 -0.0023 0.6927
vn 0.7189 0.0026 0.6951
vn 0.7155 -0.0006 0.6986
vn -0.0204 0.9996 0.0202
vn 0.2404 -0.0104 -0.9706
vn 0.8736 -0.1022 -0.4758
vn 0.0058 -0.9999 0.0163
vn 0.0029 -0.9998 0.0215
vn 0.0103 -0.9997 0.0220
vn -0.8742 0.0954 0.4762
vn -0.8747 0.0951 0.4753
vn -0.8746 0.0952 0.4754
vn -0.8743 0.0953 0.4760
vn -0.7465 -0.1129 0.6558
vn 0.1692 0.9830 0.0709
vn 0.0001 -1.0000 -0.0000
vn 0.0256 0.2205 0.9751
vn -0.0867 -0.9962 0.0069
vn -0.3888 -0.1007 0.9158
vn -0.0071 1.0000 -0.0010
vn -0.0122 0.9999 -0.0029
vn -0.0078 1.0000 -0.0013
vn 0.8507 0.0949 0.5171
vn 0.6068 0.0042 -0.7948
vn -0.2336 0.1008 0.9671
vn 0.7508 0.1014 -0.6527
vn 0.0364 0.0887 -0.9954
vn -0.1216 -0.0969 0.9878
vn -0.1199 -0.0939 0.9883
vn -0.1169 -0.0961 0.9885
vn 0.1788 0.0989 0.9789
vn 0.9961 -0.0007 -0.0888
vn 0.0009 -1.0000 0.0003
vn 0.0035 -1.0000 0.0012
vn -0.9965 -0.0343 0.0763
vn -0.9966 -0.0264 0.0779
vn -0.9970 -0.0187 0.0755
vn -0.9971 0.0047 0.0757
vn -0.9573 -0.0110 0.2888
vn 0.0017 -1.0000 0.0001
vn 0.0014 -1.0000 0.0002
vn 0.0013 -1.0000 -0.0016
vn -0.1788 0.9838 -0.0105
vn -0.0095 -0.9998 0.0201
vn -0.0029 -0.9998 0.0174
vn -0.0038 -0.9999 0.0099
vn 0.0118 -0.9996 -0.0254
vn -0.0141 -0.9999 0.0069
vn -0.0168 -0.9998 0.0090
vn -0.0153 -0.9999 0.0040
vn 0.0037 -1.0000 -0.0005
vn 0.0005 -1.0000 -0.0011
vn 0.0006 -1.0000 -0.0038
vn -0.5673 0.0000 -0.8235
vn 0.7258 0.0020 0.6879
vn 0.7258 0.0026 0.6879
vn 0.9585 0.0013 -0.2850
vn -0.4294 0.0023 0.9031
vn 0.3840 0.0002 0.9233
vn 0.5870 -0.1044 -0.8028
vn 0.5887 -0.0972 -0.8025
vn 0.5929 -0.1018 -0.7988
vn -0.0250 -0.0968 0.9950
vn 0.9430 -0.0003 0.3328
vn -0.1832 0.0011 -0.9831
vn -0.1833 -0.0001 -0.9831
vn -0.1833 0.0001 -0.9831
vn -0.1832 0.0006 -0.9831
vn -0.7597 0.0003 0.6503
vn -0.2885 0.4832 0.8266
vn 0.0326 0.0909 -0.9953
vn -0.8532 0.0002 -0.5216
vn -0.9181 0.3962 -0.0078
vn 0.0802 0.9107 0.4053
vn -0.9918 0.1000 0.0790
vn 0.6078 0.0002 -0.7941
vn 0.6079 0.0006 -0.7940
vn 0.6078 0.0001 -0.7941
vn 0.2324 -0.0001 -0.9726
vn -0.2372 0.7013 0.6723
vn -0.2367 0.7011 0.6727
vn -0.2375 0.7014 0.6720
vn 0.9968 0.0001 -0.0798
vn 0.9975 -0.0124 -0.0691
vn -0.3962 0.0996 -0.9128
vn -0.9916 0.0000 -0.1295
vn -0.9585 0.0000 0.2851
g Bucket_2_Bucket_2_Collor_Material
usemtl Collor_Material
s off
f 267/1/1 268/2/1 298/3/1 291/4/1
f 282/5/2 281/6/2 311/7/2 312/8/2
f 288/9/3 289/10/3 304/11/3 303/12/3
f 296/13/4 297/14/5 312/15/6 311/16/5
f 241/17/7 226/18/7 227/19/7 242/20/8
f 247/21/9 232/22/9 233/23/10 248/24/9
f 281/25/11 282/26/11 259/27/11 266/28/11
f 275/29/12 282/30/12 312/31/12 305/32/12
f 271/33/13 285/34/13 315/35/13 301/36/13
f 217/37/14 218/38/14 209/39/14 202/40/14
f 276/41/15 267/42/15 260/43/15 275/44/15
f 307/45/16 277/46/16 284/47/16 314/48/16
f 310/49/17 295/50/17 288/51/17 303/52/17
f 309/53/18 279/54/18 272/55/18 302/56/19
f 293/57/20 269/58/20 270/59/20 300/60/20
f 207/61/21 208/62/21 238/63/21 231/64/21
f 253/65/22 238/66/22 239/67/22 254/68/23
f 252/69/24 237/70/24 230/71/24 245/72/24
f 243/73/25 228/74/25 229/75/25 244/76/25
f 289/77/26 265/78/26 266/79/26 296/80/26
f 224/81/27 223/82/27 253/83/27 254/84/27
f 216/85/28 223/86/29 208/87/29 207/88/29
f 214/89/30 205/90/30 198/91/30 213/92/30
f 280/93/31 273/94/31 258/95/31 257/96/31
f 221/97/32 206/98/32 205/99/32 214/100/32
f 235/101/33 228/102/33 243/103/33 250/104/33
f 300/105/34 286/106/34 301/107/34 315/108/34
f 213/109/35 198/110/35 197/111/35 220/112/35
f 230/113/36 231/114/36 246/115/36 245/116/36
f 291/117/37 298/118/37 313/119/38 306/120/37
f 220/121/39 197/122/40 196/123/40 219/124/40
f 302/125/41 287/126/41 294/127/41 309/128/41
f 227/129/42 234/130/42 249/131/42 242/132/42
f 234/133/43 235/134/44 250/135/44 249/136/44
f 217/137/45 202/138/45 201/139/45 224/140/46
f 255/141/47 240/142/47 226/143/47 241/144/47
f 282/145/48 275/146/48 260/147/48 259/148/48
f 274/149/49 265/150/49 258/151/49 273/152/49
f 239/153/50 232/154/51 247/155/52 254/156/51
f 229/157/53 236/158/53 251/159/53 244/160/53
f 283/161/54 268/162/54 267/163/54 276/164/54
f 222/165/55 199/166/55 206/167/55 221/168/55
f 225/169/56 210/170/57 209/171/57 218/172/57
f 224/173/58 201/174/58 208/175/58 223/176/58
f 225/177/59 211/178/59 203/179/59 210/180/59
f 231/181/60 238/182/60 253/183/60 246/184/60
f 309/185/61 294/186/61 295/187/61 310/188/61
f 237/189/62 199/190/62 200/191/62 230/192/62
f 255/193/63 225/194/63 218/195/63 248/196/63
f 222/197/64 221/198/64 251/199/64 252/200/64
f 238/201/65 208/202/66 201/203/65 239/204/67
f 247/205/68 217/206/68 224/207/68 254/208/68
f 259/209/69 260/210/69 290/211/69 297/212/69
f 241/213/70 211/214/70 225/215/70 255/216/70
f 234/217/71 196/218/72 197/219/71 235/220/71
f 239/221/73 201/222/73 202/223/73 232/224/73
f 202/225/74 209/226/74 233/227/74 232/228/74
f 271/229/75 301/230/75 302/231/75 272/232/75
f 200/233/76 207/234/76 231/235/76 230/236/76
f 308/237/77 278/238/77 277/239/77 307/240/77
f 220/241/78 219/242/78 249/243/78 250/244/78
f 268/245/79 261/246/79 299/247/79 298/248/79
f 212/249/80 211/250/80 241/251/80 242/252/80
f 227/253/81 204/254/81 196/255/81 234/256/81
f 233/257/82 209/258/82 210/259/82 240/260/82
f 221/261/83 214/262/83 244/263/84 251/264/83
f 229/265/85 205/266/86 206/267/85 236/268/87
f 310/269/88 280/270/88 279/271/88 309/272/88
f 203/273/89 204/274/89 227/275/89 226/276/89
f 236/277/90 206/278/90 199/279/90 237/280/90
f 213/281/91 220/282/91 250/283/91 243/284/91
f 296/285/92 266/286/92 259/287/92 297/288/92
f 263/289/20 264/290/20 287/291/20 286/292/20
f 216/293/93 207/294/93 200/295/93 215/296/93
f 222/297/94 215/298/94 200/299/94 199/300/94
f 279/301/95 280/302/95 257/303/95 256/304/95
f 219/305/96 196/306/96 204/307/96 212/308/96
f 272/309/97 279/310/97 256/311/97 264/312/97
f 297/313/98 290/314/98 305/315/98 312/316/98
f 289/317/99 296/318/99 311/319/99 304/320/99
f 281/321/100 266/322/100 265/323/100 274/324/100
f 284/325/101 277/326/102 262/327/103 261/328/102
f 277/329/104 278/330/104 269/331/104 262/332/104
f 285/333/105 270/334/105 269/335/105 278/336/105
f 313/337/106 298/338/106 299/339/106 314/340/106
f 290/341/107 291/342/107 306/343/107 305/344/107
f 236/345/108 237/346/108 252/347/108 251/348/108
f 271/349/109 263/350/109 270/351/109 285/352/109
f 272/353/110 264/354/110 263/355/110 271/356/110
f 233/357/111 240/358/111 255/359/112 248/360/111
f 211/361/113 212/362/114 204/363/115 203/364/114
f 292/365/116 293/366/116 308/367/116 307/368/116
f 286/369/117 287/370/117 302/371/117 301/372/117
f 299/373/118 292/374/119 307/375/120 314/376/121
f 293/377/122 300/378/122 315/379/122 308/380/122
f 210/381/123 203/382/123 226/383/124 240/384/123
f 276/385/125 275/386/125 305/387/125 306/388/125
f 235/389/126 197/390/126 198/391/126 228/392/126
f 313/393/127 283/394/127 276/395/127 306/396/127
f 249/397/128 219/398/128 212/399/128 242/400/128
f 260/401/129 267/402/129 291/403/129 290/404/129
f 228/405/130 198/406/130 205/407/130 229/408/130
f 214/409/131 213/410/131 243/411/131 244/412/131
f 281/413/132 274/414/132 304/415/132 311/416/132
f 292/417/133 262/418/133 269/419/133 293/420/133
f 314/421/134 284/422/134 283/423/134 313/424/134
f 261/425/135 262/426/135 292/427/135 299/428/135
f 253/429/136 223/430/136 216/431/136 246/432/136
f 300/433/20 270/434/20 263/435/20 286/436/20
f 257/437/137 258/438/137 288/439/137 295/440/137
f 285/441/138 278/442/138 308/443/138 315/444/138
f 303/445/139 273/446/139 280/447/139 310/448/139
f 218/449/140 217/450/140 247/451/140 248/452/140
f 215/453/141 222/454/141 252/455/141 245/456/141
f 274/457/142 273/458/142 303/459/142 304/460/142
f 283/461/143 284/462/143 261/463/143 268/464/143
f 294/465/144 256/466/144 257/467/144 295/468/144
f 288/469/145 258/470/145 265/471/145 289/472/145
f 287/473/146 264/474/146 256/475/146 294/476/146
f 246/477/147 216/478/147 215/479/147 245/480/147
f 328/481/148 329/482/148 19/483/148
f 42/484/149 330/485/149 331/486/149
f 124/487/150 106/488/150 96/489/150
f 98/490/151 147/491/152 108/492/153
f 108/493/154 149/494/155 151/495/154
f 151/496/156 130/497/157 99/498/156
f 122/499/158 117/500/159 95/501/160
f 120/502/161 112/503/162 114/504/163
f 99/505/164 128/506/164 98/507/164
f 127/508/165 146/509/165 125/510/165
f 126/511/166 96/512/167 97/513/168
f 113/514/169 100/515/169 114/516/169
f 108/517/170 105/518/170 109/519/170
f 105/520/171 107/521/171 109/522/171
f 134/523/172 118/524/172 120/525/172
f 116/526/173 141/527/174 117/528/175
f 140/529/176 101/530/177 141/531/178
f 138/532/179 95/533/180 101/534/178
f 112/535/181 113/536/182 114/537/183
f 115/538/184 116/539/185 117/540/184
f 118/541/186 119/542/186 120/543/187
f 121/544/188 122/545/189 95/546/190
f 123/547/191 124/548/192 96/549/193
f 125/550/194 126/551/194 127/552/194
f 128/553/195 129/554/195 98/555/195
f 130/556/196 131/557/197 99/558/197
f 132/559/198 133/560/198 134/561/198
f 135/562/199 136/563/199 100/564/199
f 137/565/200 138/566/201 101/567/200
f 139/568/202 140/569/203 141/570/204
f 142/571/205 143/572/205 106/573/205
f 144/574/206 145/575/206 146/576/206
f 147/577/207 148/578/208 108/579/209
f 149/580/210 150/581/211 151/582/211
f 157/583/212 164/584/213 165/585/214
f 189/586/215 195/587/215 183/588/215 31/589/215
f 327/590/216 323/591/217 319/592/218 325/593/217
f 154/594/219 162/595/220 163/596/221
f 71/597/222 191/598/223 194/599/224 188/600/222
f 337/601/225 347/602/225 161/603/225
f 161/604/226 347/605/226 160/606/226
f 153/607/227 158/608/227 159/609/227
f 50/610/228 4/611/228 114/612/228 49/613/228
f 340/614/229 154/615/230 163/616/231
f 166/617/232 153/618/232 159/619/232
f 192/620/233 72/621/234 193/622/234
f 190/623/235 185/624/236 11/625/237
f 182/626/238 195/627/238 185/628/238
f 182/629/239 190/630/240 29/631/241
f 186/632/242 194/633/242 187/634/242
f 192/635/243 186/636/244 69/637/245
f 316/638/246 325/639/246 319/640/246
f 320/641/247 327/642/247 326/643/247
f 111/644/248 102/645/249 104/646/250
f 101/647/251 111/648/251 141/649/251
f 171/650/252 178/651/253 344/652/254
f 178/653/255 179/654/255 344/655/256
f 46/656/257 2/657/257 21/658/257 45/659/257
f 54/660/258 55/661/258 23/662/258 24/663/258
f 181/664/259 339/665/259 180/666/259
f 63/667/260 64/668/260 9/669/260 26/670/260
f 181/671/261 332/672/262 346/673/263
f 177/674/264 335/675/265 176/676/266
f 175/677/267 332/678/268 174/679/267
f 339/680/269 348/681/269 345/682/269
f 84/683/270 83/684/270 86/685/270 85/686/270
f 13/687/271 34/688/271 14/689/271 35/690/271
f 122/691/272 121/692/272 129/693/272 128/694/272
f 73/695/273 31/696/274 12/697/275 76/698/276
f 157/699/277 332/700/277 333/701/277 156/702/277
f 192/703/278 190/704/279 11/705/280 72/706/281
f 157/707/282 165/708/282 158/709/282 349/710/282
f 90/711/283 16/712/283 38/713/283 89/714/283
f 3/715/284 22/716/284 114/717/284 4/718/285
f 120/719/286 114/720/287 22/721/288 5/722/288
f 47/723/289 50/724/289 49/725/289 48/726/289
f 151/727/290 99/728/291 117/729/292 141/730/290
f 15/731/293 14/732/294 37/733/295 36/734/296
f 43/735/297 20/736/297 2/737/297 46/738/297
f 52/739/298 51/740/299 97/741/300 96/742/301
f 63/743/302 62/744/302 61/745/302 64/746/302
f 116/747/303 115/748/303 131/749/303 130/750/303
f 335/751/304 177/752/305 170/753/306 343/754/306
f 344/755/307 345/756/307 348/757/307 347/758/307
f 113/759/308 112/760/308 126/761/309 125/762/310
f 78/763/311 77/764/311 99/765/312 98/766/311
f 165/767/313 174/768/314 181/769/315 158/770/316
f 80/771/317 79/772/317 82/773/317 81/774/317
f 77/775/318 33/776/318 117/777/319 99/778/320
f 82/779/321 13/780/321 35/781/321 81/782/321
f 79/783/322 34/784/322 13/785/322 82/786/322
f 109/787/323 103/788/323 101/789/323 108/790/323
f 69/791/324 29/792/324 190/793/325 192/794/326
f 105/795/327 151/796/327 141/797/328 111/798/329
f 326/799/20 324/800/20 316/801/330 320/802/331
f 51/803/20 52/804/20 5/805/20 22/806/20
f 147/807/332 129/808/332 121/809/332 138/810/332
f 146/811/333 97/812/333 114/813/333 100/814/333
f 123/815/334 126/816/334 112/817/334 119/818/334
f 54/819/20 24/820/20 5/821/20 53/822/20
f 41/823/335 331/824/335 328/825/335 20/826/335
f 60/827/336 7/828/336 25/829/336 59/830/336
f 148/831/337 147/832/337 138/833/337 137/834/337
f 48/835/338 49/836/338 114/837/338 22/838/338
f 43/839/20 44/840/20 3/841/20 20/842/20
f 118/843/339 133/844/339 142/845/339 124/846/339
f 57/847/20 58/848/20 8/849/20 24/850/20
f 55/851/340 54/852/340 53/853/340 56/854/340
f 128/855/341 131/856/341 115/857/341 122/858/341
f 150/859/342 139/860/342 116/861/342 130/862/342
f 70/863/343 191/864/344 189/865/345 31/866/343
f 139/867/346 150/868/346 149/869/346 140/870/346
f 47/871/347 3/872/347 4/873/347 50/874/347
f 41/875/20 20/876/20 18/877/20 40/878/20
f 79/879/20 80/880/20 14/881/20 34/882/20
f 169/883/348 335/884/349 334/885/350 168/886/350
f 85/887/351 86/888/351 15/889/351 36/890/351
f 58/891/352 59/892/352 25/893/352 8/894/352
f 347/895/353 337/896/353 338/897/353 152/898/353
f 320/899/354 316/900/355 39/901/20 91/902/20
f 188/903/356 184/904/356 30/905/356 71/906/356
f 155/907/357 154/908/358 340/909/359 341/910/357
f 88/911/360 87/912/360 90/913/360 89/914/360
f 74/915/361 75/916/361 32/917/361 33/918/361
f 73/919/20 74/920/20 33/921/20 31/922/20
f 88/923/362 89/924/362 38/925/362 39/926/362
f 156/927/363 342/928/363 164/929/364 157/930/365
f 325/931/366 324/932/366 317/933/366 318/934/366
f 348/935/367 153/936/367 166/937/367 336/938/367
f 78/939/20 34/940/20 33/941/20 77/942/20
f 108/943/368 101/944/368 95/945/368 98/946/368
f 67/947/369 68/948/369 10/949/369 28/950/369
f 78/951/370 98/952/370 95/953/370 34/954/370
f 154/955/371 335/956/371 343/957/371 152/958/371
f 92/959/372 93/960/372 1/961/372 18/962/372
f 83/963/20 84/964/20 37/965/20 14/966/20
f 87/967/373 37/968/373 16/969/373 90/970/373
f 330/971/374 42/972/374 19/973/374 329/974/374
f 40/975/375 18/976/375 19/977/375 42/978/375
f 17/979/376 39/980/376 316/981/376 319/982/376
f 84/983/377 85/984/377 36/985/377 37/986/377
f 193/987/378 72/988/378 11/989/378 185/990/378
f 57/991/379 24/992/379 7/993/379 60/994/379
f 184/995/380 188/996/380 194/997/380 195/998/380
f 62/999/20 27/1000/20 8/1001/20 61/1002/20
f 124/1003/381 142/1004/381 106/1005/381
f 98/1006/382 129/1007/383 147/1008/384
f 111/1009/385 104/1010/385 110/1011/385 105/1012/385
f 108/1013/386 148/1014/387 149/1015/388
f 151/1016/389 150/1017/389 130/1018/390
f 122/1019/391 115/1020/391 117/1021/391
f 55/1022/392 56/1023/392 6/1024/392 23/1025/392
f 120/1026/393 119/1027/394 112/1028/395
f 99/1029/396 131/1030/396 128/1031/396
f 97/1032/397 146/1033/397 127/1034/397
f 146/1035/398 145/1036/398 125/1037/398
f 97/1038/399 127/1039/399 126/1040/399
f 126/1041/400 123/1042/401 96/1043/402
f 113/1044/403 135/1045/403 100/1046/403
f 339/1047/404 346/1048/404 349/1049/404 153/1050/404
f 108/1051/405 151/1052/405 105/1053/405
f 105/1054/406 110/1055/406 107/1056/406
f 53/1057/407 5/1058/407 6/1059/407 56/1060/408
f 30/1061/409 184/1062/409 195/1063/409 189/1064/409
f 134/1065/410 133/1066/410 118/1067/410
f 344/1068/411 343/1069/412 170/1070/412 171/1071/413
f 116/1072/414 139/1073/415 141/1074/416
f 320/1075/417 91/1076/418 94/1077/418 323/1078/419
f 140/1079/420 137/1080/421 101/1081/421
f 138/1082/422 121/1083/423 95/1084/424
f 326/1085/20 321/1086/20 317/1087/20 324/1088/20
f 76/1089/425 12/1090/425 32/1091/425 75/1092/425
f 187/1093/20 183/1094/20 182/1095/20 186/1096/20
f 144/1097/426 146/1098/426 100/1099/426 136/1100/426
f 51/1101/427 22/1102/427 114/1103/427 97/1104/427
f 65/1105/428 27/1106/428 10/1107/428 68/1108/428
f 179/1109/429 178/1110/429 161/1111/429 160/1112/429
f 187/1113/20 70/1114/20 31/1115/20 183/1116/20
f 153/1117/430 349/1118/430 158/1119/430
f 66/1120/20 29/1121/20 27/1122/20 65/1123/20
f 44/1124/431 45/1125/431 21/1126/431 3/1127/431
f 182/1128/432 183/1129/432 195/1130/432
f 182/1131/433 185/1132/434 190/1133/435
f 186/1134/436 193/1135/436 194/1136/436
f 192/1137/437 193/1138/438 186/1139/439
f 66/1140/440 65/1141/440 68/1142/441 67/1143/440
f 18/1144/442 20/1145/442 328/1146/442 19/1147/442
f 349/1148/443 346/1149/443 332/1150/443 157/1151/443
f 110/1152/444 104/1153/444 102/1154/444 107/1155/444
f 80/1156/445 81/1157/445 35/1158/445 14/1159/445
f 59/1160/446 58/1161/446 57/1162/446 60/1163/446
f 186/1164/20 182/1165/20 29/1166/20 69/1167/20
f 327/1168/447 325/1169/447 318/1170/447 322/1171/447
f 329/1172/448 328/1173/448 331/1174/448 330/1175/448
f 113/1176/449 125/1177/449 145/1178/449 135/1179/450
f 194/1180/451 193/1181/451 185/1182/451 195/1183/451
f 106/1184/452 134/1185/452 120/1186/452 96/1187/452
f 144/1188/453 136/1189/453 135/1190/454 145/1191/453
f 341/1192/455 342/1193/455 156/1194/455 155/1195/455
f 321/1196/456 326/1197/456 327/1198/456 322/1199/456
f 66/1200/457 67/1201/457 28/1202/457 29/1203/457
f 322/1204/458 318/1205/458 1/1206/458 93/1207/458
f 155/1208/459 334/1209/459 335/1210/459 154/1211/459
f 25/1212/460 7/1213/460 24/1214/460 8/1215/460
f 321/1216/20 92/1217/20 18/1218/20 317/1219/20
f 191/1220/461 71/1221/462 30/1222/462 189/1223/463
f 348/1224/464 336/1225/464 160/1226/464 347/1227/464
f 52/1228/465 96/1229/465 120/1230/465 5/1231/465
f 74/1232/466 73/1233/466 76/1234/466 75/1235/466
f 173/1236/467 339/1237/468 345/1238/469 172/1239/469
f 12/1240/470 31/1241/471 33/1242/472 32/1243/473
f 44/1244/474 43/1245/474 46/1246/474 45/1247/474
f 323/1248/475 94/1249/475 17/1250/475 319/1251/475
f 334/1252/476 333/1253/476 167/1254/476 168/1255/476
f 343/1256/477 344/1257/477 347/1258/477 152/1259/477
f 149/1260/478 148/1261/478 137/1262/478 140/1263/478
f 40/1264/479 42/1265/479 331/1266/479 41/1267/479
f 154/1268/480 152/1269/481 338/1270/481 162/1271/482
f 23/1272/483 6/1273/483 5/1274/483 24/1275/483
f 83/1276/484 14/1277/484 15/1278/484 86/1279/484
f 10/1280/485 27/1281/485 29/1282/485 28/1283/485
f 2/1284/486 20/1285/486 3/1286/486 21/1287/486
f 316/1288/487 324/1289/487 325/1290/487
f 320/1291/488 323/1292/489 327/1293/490
f 26/1294/491 9/1295/491 8/1296/491 27/1297/491
f 87/1298/20 88/1299/20 39/1300/20 37/1301/20
f 62/1302/492 63/1303/492 26/1304/492 27/1305/492
f 333/1306/493 332/1307/494 175/1308/493 167/1309/493
f 111/1310/495 103/1311/496 102/1312/497
f 101/1313/498 103/1314/498 111/1315/498
f 61/1316/499 8/1317/499 9/1318/499 64/1319/499
f 169/1320/500 176/1321/501 335/1322/502
f 143/1323/503 132/1324/503 134/1325/503 106/1326/503
f 173/1327/504 180/1328/505 339/1329/506
f 345/1330/507 344/1331/507 179/1332/507 172/1333/507
f 181/1334/508 346/1335/509 339/1336/510
f 181/1337/511 174/1338/512 332/1339/513
f 47/1340/20 48/1341/20 22/1342/20 3/1343/20
f 177/1344/514 176/1345/514 163/1346/514 162/1347/514
f 180/1348/515 173/1349/515 166/1350/515 159/1351/516
f 156/1352/517 333/1353/517 334/1354/517 155/1355/517
f 175/1356/518 174/1357/518 165/1358/518 164/1359/518
f 181/1360/519 180/1361/519 159/1362/519 158/1363/519
f 191/1364/520 70/1365/521 187/1366/521 194/1367/522
f 92/1368/523 321/1369/523 322/1370/523 93/1371/523
f 166/1372/524 173/1373/524 172/1374/524 336/1375/524
f 170/1376/525 177/1377/526 162/1378/527 338/1379/528
f 342/1380/529 167/1381/529 175/1382/529 164/1383/529
f 133/1384/530 132/1385/530 143/1386/530 142/1387/530
f 318/1388/531 317/1389/531 18/1390/531 1/1391/531
f 163/1392/532 176/1393/532 169/1394/532 340/1395/532
f 339/1396/533 153/1397/533 348/1398/533
f 107/1399/534 102/1400/534 103/1401/534 109/1402/534
f 33/1403/535 34/1404/535 95/1405/535 117/1406/535
f 178/1407/536 171/1408/537 337/1409/537 161/1410/538
f 337/1411/539 171/1412/539 170/1413/539 338/1414/539
f 123/1415/540 119/1416/541 118/1417/540 124/1418/542
f 336/1419/543 172/1420/543 179/1421/543 160/1422/543
f 91/1423/544 39/1424/544 17/1425/544 94/1426/544
f 16/1427/545 37/1428/545 39/1429/545 38/1430/545
f 340/1431/546 169/1432/546 168/1433/546 341/1434/546
f 168/1435/547 167/1436/547 342/1437/547 341/1438/547
