# Blender v3.0.0 OBJ File: 'aa.blend'
# www.blender.org
mtllib CanonBalls.mtl
o CanonBalls
v -0.007450 0.263280 0.372195
v -0.033678 0.325216 0.121175
v 0.028379 0.178674 0.396814
v 0.062870 0.263834 0.372195
v 0.088119 0.326176 0.304935
v 0.097361 0.348995 0.213055
v 0.088119 0.326176 0.121175
v 0.062870 0.263834 0.053914
v 0.112985 0.214503 0.372195
v 0.174921 0.240731 0.304935
v 0.197591 0.250332 0.213055
v 0.174921 0.240731 0.121175
v 0.112985 0.214503 0.053914
v 0.113539 0.144183 0.372195
v 0.175881 0.118934 0.304935
v 0.198700 0.109692 0.213055
v 0.175881 0.118934 0.121175
v 0.113540 0.144183 0.053914
v 0.028379 0.178674 0.029295
v 0.064208 0.094068 0.372195
v 0.090436 0.032132 0.304935
v 0.100037 0.009462 0.213055
v 0.090436 0.032132 0.121175
v 0.064208 0.094068 0.053914
v -0.006112 0.093514 0.372195
v -0.031361 0.031172 0.304935
v -0.040602 0.008353 0.213055
v -0.031361 0.031172 0.121175
v -0.006112 0.093514 0.053914
v -0.056227 0.142845 0.372195
v -0.118163 0.116617 0.304935
v -0.140833 0.107016 0.213055
v -0.118163 0.116617 0.121175
v -0.056227 0.142845 0.053914
v -0.056781 0.213165 0.372195
v -0.119123 0.238414 0.304935
v -0.141942 0.247656 0.213055
v -0.119123 0.238414 0.121175
v -0.056781 0.213165 0.053914
v -0.033678 0.325216 0.304935
v -0.043279 0.347886 0.213055
v -0.007450 0.263280 0.053914
v 0.423580 0.214140 0.280282
v 0.216451 0.233989 0.124593
v 0.506084 0.181731 0.245774
v 0.460595 0.265201 0.249173
v 0.396287 0.325486 0.213421
v 0.330391 0.346433 0.148099
v 0.280563 0.322430 0.070710
v 0.260156 0.259907 0.001990
v 0.515175 0.267126 0.204873
v 0.490822 0.328821 0.136691
v 0.439551 0.350284 0.059500
v 0.375099 0.325765 -0.006019
v 0.314736 0.261832 -0.042310
v 0.555347 0.218788 0.173332
v 0.560403 0.245097 0.082062
v 0.519895 0.253609 -0.003581
v 0.444679 0.242041 -0.060649
v 0.354908 0.213494 -0.073850
v 0.274636 0.175618 -0.039647
v 0.557580 0.148503 0.173028
v 0.564269 0.123359 0.081534
v 0.524360 0.113037 -0.004191
v 0.448545 0.120303 -0.061177
v 0.357140 0.143209 -0.074155
v 0.520564 0.097441 0.204137
v 0.500157 0.034919 0.135417
v 0.450329 0.010915 0.058028
v 0.384433 0.031862 -0.007294
v 0.320125 0.092148 -0.043045
v 0.465984 0.095516 0.248437
v 0.405621 0.031583 0.212147
v 0.341169 0.007064 0.146628
v 0.289898 0.028527 0.069436
v 0.265545 0.090222 0.001255
v 0.425812 0.143854 0.279977
v 0.336041 0.115307 0.266776
v 0.260825 0.103740 0.209708
v 0.220317 0.112251 0.124065
v 0.225373 0.138560 0.032795
v 0.332175 0.237046 0.267304
v 0.256360 0.244311 0.210318
v 0.223140 0.208846 0.033100
v 0.280205 0.176424 -0.291232
v 0.061000 0.221910 -0.423200
v 0.276404 0.155108 -0.198609
v 0.267973 0.107966 -0.280795
v 0.214890 0.079770 -0.354518
v 0.131377 0.078075 -0.400025
v 0.039814 0.103336 -0.405122
v -0.035267 0.148784 -0.368442
v 0.246940 0.068972 -0.226185
v 0.178459 0.012230 -0.259931
v 0.089311 0.000087 -0.290806
v 0.003383 0.035796 -0.310535
v -0.056300 0.109790 -0.313832
v 0.229427 0.082284 -0.159393
v 0.148125 0.035289 -0.144244
v 0.054285 0.026713 -0.157221
v -0.026951 0.058855 -0.194847
v -0.073814 0.123102 -0.247040
v -0.073748 0.202240 -0.299815
v 0.225692 0.140106 -0.119544
v 0.141656 0.135438 -0.075224
v 0.046815 0.142355 -0.077524
v -0.033419 0.159004 -0.125827
v -0.077549 0.180923 -0.207192
v 0.237924 0.208564 -0.129982
v 0.162843 0.254012 -0.093302
v 0.071279 0.279272 -0.098399
v -0.012233 0.277578 -0.143906
v -0.065317 0.249382 -0.217629
v 0.258957 0.247558 -0.184591
v 0.199273 0.321551 -0.187889
v 0.113345 0.357261 -0.207618
v 0.024197 0.345118 -0.238492
v -0.044284 0.288376 -0.272239
v 0.276470 0.234246 -0.251384
v 0.229607 0.298493 -0.303577
v 0.148372 0.330635 -0.341203
v 0.054531 0.322059 -0.354180
v -0.026770 0.275063 -0.339031
v 0.236076 0.198344 -0.372597
v 0.155841 0.214993 -0.420900
v -0.023036 0.217242 -0.378880
v -0.150101 0.208419 0.007833
v -0.171852 0.192020 -0.250611
v -0.226994 0.197760 0.062805
v -0.163942 0.140610 0.020305
v -0.134277 0.093658 -0.056919
v -0.145948 0.069486 -0.148175
v -0.195826 0.074571 -0.229010
v -0.270548 0.107551 -0.277765
v -0.219549 0.104781 0.044166
v -0.230591 0.031601 -0.015590
v -0.257160 -0.002171 -0.100452
v -0.292139 0.012514 -0.187680
v -0.326154 0.071722 -0.253903
v -0.284347 0.121921 0.065440
v -0.342824 0.061288 0.021258
v -0.386757 0.032108 -0.057903
v -0.404373 0.042201 -0.150832
v -0.390952 0.088861 -0.232629
v -0.350091 0.159587 -0.281376
v -0.320379 0.181988 0.071665
v -0.405233 0.165328 0.032040
v -0.458820 0.152243 -0.045454
v -0.466782 0.146241 -0.140051
v -0.426984 0.148929 -0.226404
v -0.306537 0.249797 0.059194
v -0.381259 0.282776 0.010439
v -0.431138 0.287861 -0.070396
v -0.442808 0.263689 -0.161651
v -0.413143 0.216738 -0.238875
v -0.250931 0.285626 0.035332
v -0.284946 0.344833 -0.030890
v -0.319925 0.359518 -0.118119
v -0.346495 0.325746 -0.202981
v -0.357536 0.252567 -0.262737
v -0.186133 0.268486 0.014058
v -0.172712 0.315147 -0.067739
v -0.190328 0.325239 -0.160668
v -0.234261 0.296060 -0.239829
v -0.292738 0.235427 -0.284011
v -0.110303 0.211107 -0.078520
v -0.118265 0.205104 -0.173117
v -0.256706 0.175359 -0.290236
v 0.462586 0.208419 -0.517746
v 0.308939 0.192020 -0.308798
v 0.556661 0.197761 -0.508558
v 0.481215 0.140610 -0.518031
v 0.408069 0.093658 -0.479390
v 0.356822 0.069486 -0.402986
v 0.341205 0.074572 -0.309294
v 0.365404 0.107551 -0.223417
v 0.538792 0.104781 -0.499419
v 0.507794 0.031601 -0.447151
v 0.471975 -0.002171 -0.365761
v 0.440930 0.012515 -0.277056
v 0.422980 0.071722 -0.204804
v 0.601588 0.121921 -0.472811
v 0.616561 0.061288 -0.401065
v 0.597567 0.032108 -0.312544
v 0.549697 0.042201 -0.230969
v 0.485776 0.088862 -0.178196
v 0.422933 0.159587 -0.168366
v 0.632819 0.181988 -0.453793
v 0.670655 0.165328 -0.368126
v 0.660030 0.152244 -0.274510
v 0.603791 0.146241 -0.198030
v 0.517007 0.148929 -0.159179
v 0.614190 0.249797 -0.453507
v 0.638389 0.282776 -0.367631
v 0.622772 0.287861 -0.273938
v 0.571525 0.263690 -0.197535
v 0.498379 0.216738 -0.158893
v 0.556614 0.285626 -0.472120
v 0.538664 0.344833 -0.399869
v 0.507619 0.359518 -0.311163
v 0.471800 0.325747 -0.229773
v 0.440802 0.252567 -0.177506
v 0.493818 0.268486 -0.498728
v 0.429897 0.315147 -0.445956
v 0.382027 0.325239 -0.364380
v 0.363033 0.296060 -0.275860
v 0.378006 0.235427 -0.204114
v 0.375803 0.211107 -0.478894
v 0.319564 0.205104 -0.402414
v 0.346775 0.175360 -0.223131
v 0.290137 0.400772 0.024790
v 0.474995 0.416785 -0.157162
v 0.198972 0.391490 -0.000720
v 0.273456 0.333687 0.011886
v 0.352944 0.293320 -0.021283
v 0.416137 0.281206 -0.091339
v 0.446103 0.300590 -0.179511
v 0.434812 0.346279 -0.262173
v 0.220454 0.301032 -0.020819
v 0.261142 0.236761 -0.077931
v 0.310134 0.215897 -0.156750
v 0.354301 0.244031 -0.236159
v 0.381810 0.313624 -0.294879
v 0.162180 0.321937 -0.054169
v 0.160207 0.272969 -0.135694
v 0.193584 0.257707 -0.223449
v 0.253366 0.280239 -0.293922
v 0.323535 0.334529 -0.328229
v 0.385289 0.406030 -0.317177
v 0.132768 0.384156 -0.068626
v 0.109266 0.380735 -0.160735
v 0.134762 0.382143 -0.252364
v 0.202425 0.388005 -0.318963
v 0.294124 0.396747 -0.342686
v 0.149449 0.451240 -0.055723
v 0.138158 0.496929 -0.138385
v 0.168124 0.516313 -0.226557
v 0.231317 0.504199 -0.296614
v 0.310805 0.463833 -0.329783
v 0.202451 0.483895 -0.023017
v 0.229960 0.553488 -0.081737
v 0.274127 0.581622 -0.161146
v 0.323118 0.560758 -0.239966
v 0.363807 0.496487 -0.297077
v 0.260726 0.462990 0.010332
v 0.330895 0.517280 -0.023974
v 0.390677 0.539812 -0.094447
v 0.424053 0.524550 -0.182203
v 0.422082 0.475582 -0.263727
v 0.381837 0.409515 0.001067
v 0.449499 0.415376 -0.065532
v 0.451493 0.413364 -0.249270
v -0.127600 0.400771 -0.211816
v -0.193860 0.416784 0.038960
v -0.036168 0.391490 -0.236352
v -0.106672 0.333686 -0.209220
v -0.158141 0.293320 -0.140160
v -0.176786 0.281206 -0.047674
v -0.157610 0.300590 0.043455
v -0.105751 0.346279 0.108810
v -0.044401 0.301032 -0.208108
v -0.050285 0.236761 -0.138232
v -0.052245 0.215897 -0.045448
v -0.049754 0.244031 0.045383
v -0.043481 0.313624 0.109923
v 0.022734 0.321937 -0.209130
v 0.065996 0.272969 -0.140002
v 0.082025 0.257707 -0.047492
v 0.066527 0.280239 0.043613
v 0.023654 0.334529 0.108901
v -0.035105 0.406030 0.130878
v 0.055406 0.384156 -0.211688
v 0.122586 0.380735 -0.144433
v 0.147370 0.382144 -0.052608
v 0.123117 0.388005 0.039182
v 0.056327 0.396748 0.106343
v 0.034478 0.451240 -0.214283
v 0.086336 0.496929 -0.148929
v 0.105512 0.516313 -0.057799
v 0.086867 0.504199 0.034686
v 0.035398 0.463833 0.103747
v -0.027793 0.483895 -0.215396
v -0.021519 0.553488 -0.150856
v -0.019029 0.581622 -0.060025
v -0.020988 0.560758 0.032759
v -0.026873 0.496487 0.102635
v -0.094928 0.462990 -0.214374
v -0.137800 0.517280 -0.149086
v -0.153298 0.539812 -0.057981
v -0.137269 0.524550 0.034529
v -0.094008 0.475582 0.103657
v -0.194391 0.409514 -0.144655
v -0.218644 0.415376 -0.052865
v -0.126680 0.413364 0.106215
v 0.369918 0.453966 0.095634
v 0.115606 0.469979 0.044600
v 0.399916 0.444684 0.185423
v 0.368587 0.386881 0.116682
v 0.296552 0.346515 0.069465
v 0.203111 0.334400 0.056425
v 0.113302 0.353785 0.081055
v 0.051190 0.399473 0.136756
v 0.371227 0.354227 0.178906
v 0.301124 0.289956 0.177241
v 0.208391 0.269092 0.180874
v 0.117875 0.297226 0.188831
v 0.053830 0.366819 0.198980
v 0.376291 0.375132 0.245858
v 0.309895 0.326164 0.293204
v 0.218518 0.310902 0.314777
v 0.126645 0.333434 0.304794
v 0.058893 0.387724 0.265932
v 0.033417 0.459224 0.208603
v 0.380812 0.437350 0.278317
v 0.317726 0.433930 0.349425
v 0.227561 0.435338 0.379695
v 0.134476 0.441199 0.361015
v 0.063415 0.449942 0.298391
v 0.382143 0.504435 0.257270
v 0.320030 0.550124 0.312971
v 0.230221 0.569508 0.337601
v 0.136780 0.557394 0.324560
v 0.064745 0.517027 0.277344
v 0.379503 0.537090 0.195045
v 0.315458 0.606683 0.205195
v 0.224941 0.634817 0.213152
v 0.132208 0.613953 0.216784
v 0.062105 0.549682 0.215119
v 0.374439 0.516185 0.128094
v 0.306687 0.570475 0.089231
v 0.214814 0.593007 0.079249
v 0.123437 0.577744 0.100821
v 0.057041 0.528777 0.148168
v 0.298856 0.462709 0.033010
v 0.205772 0.468570 0.014330
v 0.052520 0.466558 0.115709
v 0.496996 0.263280 0.342165
v 0.285397 0.325216 0.479733
v 0.502617 0.178674 0.299058
v 0.465001 0.263835 0.279545
v 0.393618 0.326176 0.287664
v 0.307594 0.348995 0.321239
v 0.229980 0.326176 0.371273
v 0.181573 0.263834 0.424360
v 0.442199 0.214503 0.234918
v 0.354124 0.240731 0.210367
v 0.261990 0.250332 0.231983
v 0.190486 0.240731 0.293975
v 0.158771 0.214503 0.379732
v 0.441947 0.144183 0.234424
v 0.353687 0.118934 0.209512
v 0.261486 0.109692 0.230996
v 0.190049 0.118934 0.293121
v 0.158519 0.144183 0.379239
v 0.175342 0.178674 0.466275
v 0.464393 0.094068 0.278354
v 0.392563 0.032132 0.285600
v 0.306377 0.009462 0.318856
v 0.228926 0.032132 0.369209
v 0.180964 0.094068 0.423168
v 0.496387 0.093514 0.340973
v 0.447980 0.031172 0.394060
v 0.370366 0.008353 0.444094
v 0.284342 0.031172 0.477669
v 0.212959 0.093514 0.485788
v 0.519189 0.142845 0.385601
v 0.487474 0.116617 0.471357
v 0.415970 0.107017 0.533350
v 0.323836 0.116617 0.554966
v 0.235761 0.142845 0.530415
v 0.519441 0.213165 0.386094
v 0.487911 0.238414 0.472212
v 0.416474 0.247656 0.534337
v 0.324273 0.238414 0.555821
v 0.236013 0.213165 0.530909
v 0.449034 0.325216 0.396124
v 0.371583 0.347887 0.446477
v 0.213567 0.263280 0.486979
v 0.029072 0.780296 0.007128
v 0.283586 0.832798 0.008068
v -0.002228 0.697221 -0.027033
v 0.032278 0.729409 0.055558
v 0.106481 0.751216 0.110933
v 0.200499 0.756798 0.124253
v 0.289140 0.744660 0.091951
v 0.348653 0.718054 0.022680
v 0.029607 0.659153 0.054117
v 0.101854 0.629528 0.108437
v 0.195157 0.616286 0.121372
v 0.284513 0.622973 0.089456
v 0.345981 0.647798 0.021240
v 0.022623 0.610682 0.003650
v 0.089757 0.545574 0.021026
v 0.181188 0.519344 0.020438
v 0.272416 0.539019 0.002044
v 0.338997 0.599327 -0.029227
v 0.363090 0.684109 -0.064997
v 0.015417 0.612390 -0.066281
v 0.077277 0.548533 -0.100098
v 0.166777 0.522760 -0.119424
v 0.259936 0.541977 -0.119080
v 0.331791 0.601035 -0.099158
v 0.012210 0.663276 -0.114711
v 0.071723 0.636670 -0.183981
v 0.160364 0.624532 -0.216283
v 0.254382 0.630115 -0.202963
v 0.328585 0.651921 -0.147588
v 0.014881 0.733533 -0.113270
v 0.076350 0.758358 -0.181486
v 0.165706 0.765045 -0.213402
v 0.259009 0.751802 -0.200467
v 0.331256 0.722178 -0.146147
v 0.021866 0.782004 -0.062803
v 0.088447 0.842312 -0.094074
v 0.179675 0.861987 -0.112468
v 0.271106 0.835756 -0.113056
v 0.338240 0.770649 -0.095680
v 0.100927 0.839354 0.027050
v 0.194086 0.858571 0.027394
v 0.345446 0.768941 -0.025749
vt 0.870252 0.613546
vt 0.894157 0.588256
vt 0.894157 0.623056
vt 0.895284 0.223622
vt 0.895284 0.258421
vt 0.871379 0.248912
vt 0.027415 0.929675
vt 0.003510 0.904385
vt 0.027415 0.894875
vt 0.995363 0.665565
vt 0.963027 0.652701
vt 0.995363 0.639837
vt 0.891902 0.819620
vt 0.867997 0.794330
vt 0.891902 0.784820
vt 0.937355 0.988277
vt 0.905020 0.975413
vt 0.937355 0.962549
vt 0.944156 0.887982
vt 0.944156 0.922782
vt 0.920251 0.913272
vt 0.929848 0.716708
vt 0.953753 0.691418
vt 0.953753 0.726218
vt 0.926209 0.106672
vt 0.926209 0.141472
vt 0.902304 0.116182
vt 0.262077 0.929675
vt 0.238172 0.904385
vt 0.262077 0.894875
vt 0.895284 0.326784
vt 0.895284 0.361584
vt 0.871379 0.336294
vt 0.810858 0.887982
vt 0.810858 0.922782
vt 0.786953 0.913272
vt 0.778767 0.988277
vt 0.746431 0.975413
vt 0.778767 0.962549
vt 0.922827 0.784820
vt 0.922827 0.819620
vt 0.898922 0.810110
vt 0.190630 0.853055
vt 0.190630 0.887855
vt 0.166725 0.862565
vt 0.954558 0.545972
vt 0.986893 0.533108
vt 0.986893 0.558835
vt 0.746431 0.871452
vt 0.770336 0.846161
vt 0.770336 0.880961
vt 0.589055 0.880961
vt 0.565150 0.855671
vt 0.589055 0.846161
vt 0.865664 0.975413
vt 0.898000 0.962549
vt 0.898000 0.988277
vt 0.870252 0.665127
vt 0.894157 0.639837
vt 0.894157 0.674637
vt 0.826309 0.975413
vt 0.858644 0.962549
vt 0.858644 0.988277
vt 0.077494 0.995170
vt 0.045159 0.982306
vt 0.077494 0.969443
vt 0.956007 0.588256
vt 0.956007 0.623056
vt 0.932102 0.613546
vt 0.957134 0.045330
vt 0.957134 0.080130
vt 0.933229 0.054840
vt 0.922827 0.742999
vt 0.922827 0.777799
vt 0.898922 0.752509
vt 0.926209 0.248661
vt 0.902304 0.223371
vt 0.926209 0.213861
vt 0.352718 0.853055
vt 0.352718 0.887855
vt 0.328813 0.862565
vt 0.926209 0.045330
vt 0.926209 0.080130
vt 0.902304 0.070620
vt 0.116850 0.962423
vt 0.084515 0.949559
vt 0.116850 0.936695
vt 0.150108 0.853055
vt 0.150108 0.887855
vt 0.126203 0.878345
vt 0.558130 0.846161
vt 0.558130 0.880961
vt 0.534225 0.855671
vt 0.319216 0.949559
vt 0.351551 0.936695
vt 0.351551 0.962423
vt 0.738245 0.955529
vt 0.705909 0.942666
vt 0.738245 0.929802
vt 0.650906 0.922782
vt 0.627001 0.897492
vt 0.650906 0.887982
vt 0.913231 0.846162
vt 0.913231 0.880962
vt 0.889326 0.871452
vt 0.035845 0.962423
vt 0.003510 0.949559
vt 0.035845 0.936696
vt 0.166725 0.982306
vt 0.199060 0.969443
vt 0.199060 0.995170
vt 0.895284 0.471766
vt 0.895284 0.506566
vt 0.871379 0.481276
vt 0.951176 0.900845
vt 0.983512 0.887982
vt 0.983512 0.913709
vt 0.993108 0.801474
vt 0.960773 0.788610
vt 0.993108 0.775747
vt 0.933229 0.131962
vt 0.957134 0.106672
vt 0.957134 0.141472
vt 0.891902 0.777799
vt 0.867997 0.752509
vt 0.891902 0.742999
vt 0.260911 0.962423
vt 0.228576 0.949559
vt 0.260911 0.936695
vt 0.885687 0.567908
vt 0.861782 0.542618
vt 0.885687 0.533108
vt 0.689293 0.846161
vt 0.689293 0.880961
vt 0.665388 0.855671
vt 0.681831 0.922782
vt 0.657926 0.897492
vt 0.681831 0.887982
vt 0.895284 0.172040
vt 0.895284 0.206840
vt 0.871379 0.181550
vt 0.404972 0.894875
vt 0.404972 0.929675
vt 0.381067 0.920165
vt 0.085681 0.878345
vt 0.109586 0.853055
vt 0.109586 0.887855
vt 0.922828 0.726218
vt 0.898923 0.700928
vt 0.922828 0.691418
vt 0.926209 0.300242
vt 0.902304 0.274952
vt 0.926209 0.265442
vt 0.269098 0.920165
vt 0.293003 0.894875
vt 0.293003 0.929675
vt 0.484428 0.846162
vt 0.484428 0.880962
vt 0.460523 0.871452
vt 0.851380 0.846162
vt 0.851380 0.880962
vt 0.827475 0.855671
vt 0.960773 0.821358
vt 0.993108 0.808494
vt 0.993108 0.834222
vt 0.976710 0.988277
vt 0.944375 0.975413
vt 0.976710 0.962549
vt 0.558130 0.929802
vt 0.558130 0.964602
vt 0.534225 0.939312
vt 0.957134 0.213861
vt 0.957134 0.248661
vt 0.933229 0.239151
vt 0.197650 0.920165
vt 0.221555 0.894875
vt 0.221555 0.929675
vt 0.925082 0.588256
vt 0.925082 0.623056
vt 0.901177 0.613546
vt 0.895284 0.275203
vt 0.895284 0.310003
vt 0.871379 0.284712
vt 0.650906 0.880961
vt 0.627001 0.855671
vt 0.650906 0.846161
vt 0.619981 0.887982
vt 0.619981 0.922782
vt 0.596076 0.897492
vt 0.964154 0.184904
vt 0.996490 0.172040
vt 0.996490 0.197768
vt 0.443907 0.846162
vt 0.443907 0.880962
vt 0.420002 0.855671
vt 0.045159 0.949559
vt 0.077494 0.936695
vt 0.077494 0.962423
vt 0.926209 0.420185
vt 0.926209 0.454985
vt 0.902304 0.445475
vt 0.882306 0.846162
vt 0.882306 0.880962
vt 0.858401 0.855671
vt 0.269098 0.982306
vt 0.301433 0.969443
vt 0.301433 0.995170
vt 0.913231 0.887982
vt 0.913231 0.922782
vt 0.889326 0.897492
vt 0.957134 0.378365
vt 0.957134 0.413165
vt 0.933229 0.403655
vt 0.343121 0.894875
vt 0.343121 0.929675
vt 0.319216 0.904385
vt 0.957134 0.297501
vt 0.957134 0.332301
vt 0.933229 0.307011
vt 0.957134 0.206840
vt 0.933229 0.181550
vt 0.957134 0.172040
vt 0.288291 0.878345
vt 0.312196 0.853055
vt 0.312196 0.887855
vt 0.926209 0.471766
vt 0.926209 0.506566
vt 0.902304 0.497056
vt 0.260911 0.995170
vt 0.228576 0.982307
vt 0.260911 0.969443
vt 0.925082 0.639837
vt 0.925082 0.674637
vt 0.901177 0.665127
vt 0.527205 0.846161
vt 0.527205 0.880961
vt 0.503300 0.855671
vt 0.895284 0.106672
vt 0.895284 0.141472
vt 0.871379 0.131962
vt 0.778767 0.955529
vt 0.746431 0.942665
vt 0.778767 0.929802
vt 0.951176 0.859025
vt 0.983512 0.846162
vt 0.983512 0.871889
vt 0.895284 0.378365
vt 0.895284 0.413165
vt 0.871379 0.403655
vt 0.965564 0.365048
vt 0.933229 0.352185
vt 0.965564 0.339321
vt 0.027415 0.887855
vt 0.003510 0.862565
vt 0.027415 0.853055
vt 0.892707 0.558398
vt 0.916612 0.533108
vt 0.916612 0.567908
vt 0.705909 0.975413
vt 0.738245 0.962549
vt 0.738245 0.988277
vt 0.729814 0.887982
vt 0.729814 0.922782
vt 0.705909 0.897492
vt 0.450927 0.955092
vt 0.474832 0.929802
vt 0.474832 0.964602
vt 0.964155 0.391228
vt 0.996490 0.378365
vt 0.996490 0.404092
vt 0.390907 0.962423
vt 0.358572 0.949559
vt 0.390907 0.936695
vt 0.619981 0.929802
vt 0.619981 0.964602
vt 0.596076 0.955092
vt 0.166725 0.920165
vt 0.190630 0.894875
vt 0.190630 0.929675
vt 0.895284 0.038310
vt 0.871379 0.013020
vt 0.895284 0.003510
vt 0.393240 0.853055
vt 0.393240 0.887855
vt 0.369335 0.862565
vt 0.957134 0.506566
vt 0.933229 0.481276
vt 0.957134 0.471766
vt 0.858644 0.955529
vt 0.826309 0.942666
vt 0.858644 0.929802
vt 0.960773 0.704282
vt 0.993108 0.691418
vt 0.993108 0.717146
vt 0.964154 0.250399
vt 0.996490 0.237535
vt 0.996490 0.263262
vt 0.993108 0.768727
vt 0.960773 0.755863
vt 0.993108 0.742999
vt 0.269098 0.949559
vt 0.301433 0.936695
vt 0.301433 0.962423
vt 0.786953 0.871452
vt 0.810858 0.846162
vt 0.810858 0.880962
vt 0.957134 0.003510
vt 0.957134 0.038310
vt 0.933229 0.028800
vt 0.351551 0.995170
vt 0.319216 0.982306
vt 0.351551 0.969443
vt 0.420002 0.955092
vt 0.443906 0.929802
vt 0.443906 0.964602
vt 0.926209 0.378365
vt 0.926209 0.413165
vt 0.902304 0.403655
vt 0.929848 0.810110
vt 0.953753 0.784820
vt 0.953753 0.819620
vt 0.589055 0.929802
vt 0.589055 0.964602
vt 0.565150 0.955092
vt 0.996490 0.029237
vt 0.964155 0.016374
vt 0.996490 0.003510
vt 0.150108 0.894875
vt 0.150108 0.929675
vt 0.126203 0.920165
vt 0.558130 0.887982
vt 0.558130 0.922782
vt 0.534225 0.897492
vt 0.527205 0.964602
vt 0.503300 0.939312
vt 0.527205 0.929802
vt 0.199060 0.962423
vt 0.166725 0.949559
vt 0.199060 0.936695
vt 0.895284 0.089891
vt 0.871379 0.064601
vt 0.895284 0.055091
vt 0.964154 0.217651
vt 0.996490 0.204788
vt 0.996490 0.230515
vt 0.819289 0.988277
vt 0.786953 0.975413
vt 0.819289 0.962549
vt 0.527205 0.922782
vt 0.503300 0.897492
vt 0.527205 0.887982
vt 0.238172 0.878345
vt 0.262077 0.853055
vt 0.262077 0.887855
vt 0.953753 0.777799
vt 0.929848 0.752509
vt 0.953753 0.742999
vt 0.158538 0.962423
vt 0.126203 0.949559
vt 0.158538 0.936696
vt 0.996490 0.299553
vt 0.964154 0.286690
vt 0.996490 0.273826
vt 0.926209 0.003510
vt 0.926209 0.038310
vt 0.902304 0.028800
vt 0.995363 0.613983
vt 0.963027 0.601120
vt 0.995363 0.588256
vt 0.069064 0.929675
vt 0.045159 0.904385
vt 0.069064 0.894875
vt 0.947538 0.533108
vt 0.947538 0.567908
vt 0.923633 0.542618
vt 0.069064 0.887855
vt 0.045159 0.862565
vt 0.069064 0.853055
vt 0.882306 0.887982
vt 0.882306 0.922782
vt 0.858401 0.897492
vt 0.944156 0.846162
vt 0.944156 0.880962
vt 0.920251 0.871452
vt 0.895284 0.429946
vt 0.895284 0.464746
vt 0.871379 0.439456
vt 0.729815 0.880962
vt 0.705909 0.855671
vt 0.729815 0.846162
vt 0.926209 0.172040
vt 0.926209 0.206840
vt 0.902304 0.197331
vt 0.619981 0.846161
vt 0.619981 0.880961
vt 0.596076 0.855671
vt 0.589055 0.887982
vt 0.589055 0.922782
vt 0.565150 0.913272
vt 0.116850 0.995170
vt 0.084515 0.982306
vt 0.116850 0.969443
vt 0.374047 0.894875
vt 0.374047 0.929675
vt 0.350141 0.920165
vt 0.450927 0.913272
vt 0.474832 0.887982
vt 0.474832 0.922782
vt 0.956007 0.639837
vt 0.956007 0.674637
vt 0.932102 0.649347
vt 0.126203 0.982307
vt 0.158538 0.969443
vt 0.158538 0.995170
vt 0.035845 0.995170
vt 0.003510 0.982307
vt 0.035845 0.969443
vt 0.231152 0.887855
vt 0.207247 0.862565
vt 0.231152 0.853055
vt 0.976711 0.955529
vt 0.944375 0.942666
vt 0.976711 0.929802
vt 0.109586 0.929675
vt 0.085681 0.904385
vt 0.109586 0.894875
vt 0.937355 0.955529
vt 0.905020 0.942666
vt 0.937355 0.929802
vt 0.851380 0.922782
vt 0.827475 0.897492
vt 0.851380 0.887982
vt 0.898000 0.955529
vt 0.865664 0.942666
vt 0.898000 0.929802
vt 0.964154 0.433048
vt 0.996490 0.420185
vt 0.996490 0.445912
vt 0.957134 0.454985
vt 0.933229 0.429695
vt 0.957134 0.420185
vt 0.770336 0.887982
vt 0.770336 0.922782
vt 0.746431 0.897492
vt 0.957134 0.290481
vt 0.933229 0.265191
vt 0.957134 0.255681
vt 0.902304 0.332552
vt 0.926209 0.307262
vt 0.926209 0.342062
vt 0.650906 0.929802
vt 0.650906 0.964602
vt 0.627001 0.955092
vt 0.996490 0.332301
vt 0.964154 0.319437
vt 0.996490 0.306574
vt 0.681831 0.929802
vt 0.681831 0.964602
vt 0.657926 0.939312
vt 0.964155 0.119536
vt 0.996490 0.106672
vt 0.996490 0.132399
vt 0.996490 0.071058
vt 0.964154 0.058194
vt 0.996490 0.045330
vt 0.443907 0.887982
vt 0.443907 0.922782
vt 0.420002 0.913272
vt 0.390907 0.995170
vt 0.358572 0.982306
vt 0.390907 0.969443
vt 0.786953 0.942666
vt 0.819289 0.929802
vt 0.819289 0.955529
vt 0.830857 0.558398
vt 0.854762 0.533108
vt 0.854762 0.567908
vt 0.891902 0.691418
vt 0.891902 0.726218
vt 0.867997 0.716708
vt 0.668769 0.038654
vt 0.668769 0.012927
vt 0.702271 0.003510
vt 0.702271 0.048071
vt 0.336703 0.288863
vt 0.336703 0.237409
vt 0.371332 0.240856
vt 0.371332 0.285416
vt 0.621227 0.581236
vt 0.586598 0.577789
vt 0.586598 0.533228
vt 0.621227 0.529782
vt 0.362315 0.742873
vt 0.328813 0.733456
vt 0.328813 0.707729
vt 0.362315 0.698312
vt 0.211756 0.054965
vt 0.211756 0.003510
vt 0.246385 0.006957
vt 0.246385 0.051518
vt 0.742793 0.371344
vt 0.709291 0.361928
vt 0.709291 0.336200
vt 0.742793 0.326784
vt 0.159705 0.646731
vt 0.159705 0.691292
vt 0.126203 0.681875
vt 0.126203 0.656148
vt 0.420002 0.519315
vt 0.420002 0.474754
vt 0.454630 0.471307
vt 0.454630 0.522761
vt 0.038139 0.405812
vt 0.003510 0.402365
vt 0.003510 0.357805
vt 0.038139 0.354358
vt 0.420002 0.649254
vt 0.453503 0.639837
vt 0.453503 0.684398
vt 0.420002 0.674981
vt 0.709291 0.038654
vt 0.709291 0.012927
vt 0.742793 0.003510
vt 0.742793 0.048071
vt 0.079788 0.123906
vt 0.079788 0.168467
vt 0.045159 0.171914
vt 0.045159 0.120459
vt 0.211756 0.299330
vt 0.246385 0.295883
vt 0.246385 0.347338
vt 0.211756 0.343891
vt 0.661749 0.223622
vt 0.661749 0.268182
vt 0.628247 0.258766
vt 0.628247 0.233038
vt 0.658367 0.752416
vt 0.658367 0.778143
vt 0.624866 0.787560
vt 0.624866 0.742999
vt 0.121437 0.412833
vt 0.121437 0.464287
vt 0.086808 0.460840
vt 0.086808 0.416279
vt 0.211756 0.588256
vt 0.246385 0.591703
vt 0.246385 0.636264
vt 0.211756 0.639711
vt 0.420002 0.597673
vt 0.453503 0.588256
vt 0.453503 0.632817
vt 0.420002 0.623400
vt 0.658367 0.700835
vt 0.658367 0.726562
vt 0.624866 0.735979
vt 0.624866 0.691418
vt 0.420002 0.299330
vt 0.454630 0.295883
vt 0.454630 0.347338
vt 0.420002 0.343891
vt 0.709291 0.387782
vt 0.742793 0.378365
vt 0.742793 0.422926
vt 0.709291 0.413509
vt 0.701144 0.639837
vt 0.701144 0.684398
vt 0.667642 0.674981
vt 0.667642 0.649254
vt 0.621227 0.416279
vt 0.621227 0.460840
vt 0.586598 0.464287
vt 0.586598 0.412832
vt 0.121437 0.588256
vt 0.121437 0.639711
vt 0.086808 0.636264
vt 0.086808 0.591703
vt 0.453503 0.839141
vt 0.420002 0.829724
vt 0.420002 0.803997
vt 0.453503 0.794581
vt 0.586598 0.171914
vt 0.586598 0.120459
vt 0.621227 0.123906
vt 0.621227 0.168467
vt 0.336703 0.416279
vt 0.371332 0.412833
vt 0.371332 0.464287
vt 0.336703 0.460840
vt 0.668769 0.568252
vt 0.668769 0.542525
vt 0.702271 0.533108
vt 0.702271 0.577669
vt 0.702271 0.361928
vt 0.668769 0.371344
vt 0.668769 0.326784
vt 0.702271 0.336200
vt 0.579578 0.357805
vt 0.579578 0.402365
vt 0.544949 0.405812
vt 0.544949 0.354358
vt 0.003510 0.299330
vt 0.038139 0.295883
vt 0.038139 0.347338
vt 0.003510 0.343891
vt 0.790335 0.141816
vt 0.790335 0.116089
vt 0.823837 0.106672
vt 0.823837 0.151233
vt 0.790335 0.439363
vt 0.823837 0.429946
vt 0.823837 0.474506
vt 0.790335 0.465090
vt 0.496280 0.006957
vt 0.496280 0.051518
vt 0.461651 0.054965
vt 0.461651 0.003510
vt 0.329683 0.588256
vt 0.329683 0.639711
vt 0.295054 0.636264
vt 0.295054 0.591703
vt 0.037012 0.742873
vt 0.003510 0.733456
vt 0.003510 0.707729
vt 0.037012 0.698312
vt 0.336703 0.577789
vt 0.336703 0.533229
vt 0.371332 0.529782
vt 0.371332 0.581236
vt 0.628247 0.542525
vt 0.661749 0.533108
vt 0.661749 0.577669
vt 0.628247 0.568252
vt 0.661749 0.429946
vt 0.661749 0.474507
vt 0.628247 0.465090
vt 0.628247 0.439363
vt 0.128458 0.006957
vt 0.163086 0.003510
vt 0.163086 0.054965
vt 0.128458 0.051518
vt 0.461651 0.240855
vt 0.496280 0.237409
vt 0.496280 0.288863
vt 0.461651 0.285416
vt 0.864358 0.422925
vt 0.830857 0.413509
vt 0.830857 0.387782
vt 0.864358 0.378365
vt 0.661749 0.165020
vt 0.628247 0.155603
vt 0.628247 0.129876
vt 0.661749 0.120459
vt 0.003510 0.113439
vt 0.003510 0.061985
vt 0.038139 0.065432
vt 0.038139 0.109992
vt 0.329683 0.343891
vt 0.295054 0.347338
vt 0.295054 0.295883
vt 0.329683 0.299330
vt 0.536801 0.588256
vt 0.536801 0.632817
vt 0.503300 0.623400
vt 0.503300 0.597673
vt 0.702271 0.106546
vt 0.668769 0.097129
vt 0.668769 0.071402
vt 0.702271 0.061985
vt 0.045159 0.054965
vt 0.045159 0.003510
vt 0.079788 0.006957
vt 0.079788 0.051518
vt 0.461651 0.402365
vt 0.461651 0.357805
vt 0.496279 0.354358
vt 0.496279 0.405812
vt 0.037012 0.785037
vt 0.003510 0.794454
vt 0.003510 0.749893
vt 0.037012 0.759310
vt 0.037012 0.646731
vt 0.037012 0.691292
vt 0.003510 0.681875
vt 0.003510 0.656148
vt 0.204736 0.416279
vt 0.204736 0.460840
vt 0.170107 0.464287
vt 0.170107 0.412833
vt 0.783315 0.158253
vt 0.783315 0.202814
vt 0.749813 0.193397
vt 0.749813 0.167670
vt 0.709291 0.516671
vt 0.709291 0.490944
vt 0.742793 0.481527
vt 0.742793 0.526088
vt 0.204736 0.061985
vt 0.204736 0.113439
vt 0.170107 0.109992
vt 0.170107 0.065432
vt 0.204736 0.123906
vt 0.204736 0.168467
vt 0.170107 0.171914
vt 0.170107 0.120459
vt 0.749813 0.038654
vt 0.749813 0.012927
vt 0.783315 0.003510
vt 0.783315 0.048071
vt 0.329683 0.109992
vt 0.295054 0.113439
vt 0.295054 0.061985
vt 0.329683 0.065432
vt 0.412981 0.285416
vt 0.378352 0.288863
vt 0.378352 0.237409
vt 0.412981 0.240855
vt 0.660622 0.588256
vt 0.660622 0.632817
vt 0.627120 0.623400
vt 0.627120 0.597673
vt 0.789208 0.623400
vt 0.789208 0.597673
vt 0.822709 0.588256
vt 0.822709 0.632817
vt 0.503300 0.581236
vt 0.503300 0.529782
vt 0.537929 0.533229
vt 0.537929 0.577789
vt 0.295054 0.171914
vt 0.295054 0.120459
vt 0.329683 0.123906
vt 0.329683 0.168467
vt 0.668769 0.129876
vt 0.702271 0.120459
vt 0.702271 0.165020
vt 0.668769 0.155603
vt 0.665388 0.735979
vt 0.665388 0.691418
vt 0.698889 0.700835
vt 0.698889 0.726562
vt 0.163086 0.226942
vt 0.128458 0.230388
vt 0.128458 0.178934
vt 0.163086 0.182381
vt 0.420002 0.533229
vt 0.454630 0.529782
vt 0.454630 0.581236
vt 0.420002 0.577789
vt 0.823837 0.223622
vt 0.823837 0.268182
vt 0.790335 0.258765
vt 0.790335 0.233038
vt 0.544949 0.123906
vt 0.579578 0.120459
vt 0.579578 0.171914
vt 0.544949 0.168467
vt 0.708164 0.674981
vt 0.708164 0.649254
vt 0.741666 0.639837
vt 0.741666 0.684398
vt 0.742793 0.429946
vt 0.742793 0.474507
vt 0.709291 0.465090
vt 0.709291 0.439363
vt 0.496280 0.061985
vt 0.496280 0.113439
vt 0.461651 0.109992
vt 0.461651 0.065432
vt 0.246385 0.529782
vt 0.246385 0.581236
vt 0.211756 0.577789
vt 0.211756 0.533229
vt 0.668769 0.422926
vt 0.668769 0.378365
vt 0.702271 0.387782
vt 0.702271 0.413509
vt 0.830857 0.258765
vt 0.830857 0.233038
vt 0.864358 0.223622
vt 0.864358 0.268182
vt 0.045159 0.357805
vt 0.079788 0.354358
vt 0.079788 0.405812
vt 0.045159 0.402366
vt 0.336703 0.226942
vt 0.336703 0.182381
vt 0.371332 0.178934
vt 0.371332 0.230388
vt 0.661749 0.061985
vt 0.661749 0.106546
vt 0.628247 0.097129
vt 0.628247 0.071402
vt 0.705909 0.735979
vt 0.705909 0.691418
vt 0.739411 0.700835
vt 0.739411 0.726562
vt 0.045159 0.343891
vt 0.045159 0.299330
vt 0.079788 0.295883
vt 0.079788 0.347338
vt 0.003510 0.591703
vt 0.038139 0.588256
vt 0.038139 0.639711
vt 0.003510 0.636264
vt 0.240749 0.698312
vt 0.240749 0.742873
vt 0.207247 0.733456
vt 0.207247 0.707729
vt 0.207247 0.836618
vt 0.207247 0.810891
vt 0.240749 0.801474
vt 0.240749 0.846035
vt 0.003510 0.460840
vt 0.003510 0.416279
vt 0.038139 0.412833
vt 0.038139 0.464287
vt 0.661749 0.172040
vt 0.661749 0.216601
vt 0.628247 0.207185
vt 0.628247 0.181457
vt 0.578451 0.588256
vt 0.578451 0.632817
vt 0.544949 0.623400
vt 0.544949 0.597673
vt 0.378352 0.182381
vt 0.412981 0.178934
vt 0.412981 0.230388
vt 0.378352 0.226942
vt 0.121437 0.343891
vt 0.086808 0.347338
vt 0.086808 0.295883
vt 0.121437 0.299330
vt 0.790335 0.361928
vt 0.790335 0.336200
vt 0.823837 0.326784
vt 0.823837 0.371344
vt 0.537929 0.182381
vt 0.537929 0.226942
vt 0.503300 0.230388
vt 0.503300 0.178934
vt 0.579578 0.474754
vt 0.579578 0.519315
vt 0.544949 0.522761
vt 0.544949 0.471307
vt 0.207247 0.646731
vt 0.240749 0.656148
vt 0.240749 0.681875
vt 0.207247 0.691292
vt 0.288291 0.810891
vt 0.321793 0.801474
vt 0.321793 0.846035
vt 0.288291 0.836618
vt 0.371332 0.354358
vt 0.371332 0.405812
vt 0.336703 0.402366
vt 0.336703 0.357805
vt 0.086808 0.182381
vt 0.121437 0.178934
vt 0.121437 0.230388
vt 0.086808 0.226942
vt 0.661749 0.003510
vt 0.661749 0.048071
vt 0.628247 0.038654
vt 0.628247 0.012927
vt 0.661749 0.275203
vt 0.661749 0.319763
vt 0.628247 0.310347
vt 0.628247 0.284619
vt 0.170107 0.343891
vt 0.170107 0.299330
vt 0.204736 0.295883
vt 0.204736 0.347338
vt 0.253405 0.639711
vt 0.253405 0.588256
vt 0.288034 0.591703
vt 0.288034 0.636264
vt 0.288291 0.733456
vt 0.288291 0.707729
vt 0.321793 0.698312
vt 0.321793 0.742873
vt 0.079788 0.285416
vt 0.045159 0.288863
vt 0.045159 0.237409
vt 0.079788 0.240855
vt 0.779933 0.691418
vt 0.779933 0.735979
vt 0.746431 0.726562
vt 0.746431 0.700835
vt 0.661749 0.326784
vt 0.661749 0.371344
vt 0.628247 0.361928
vt 0.628247 0.336200
vt 0.412981 0.354358
vt 0.412981 0.405812
vt 0.378352 0.402365
vt 0.378352 0.357805
vt 0.003510 0.051518
vt 0.003510 0.006957
vt 0.038139 0.003510
vt 0.038139 0.054965
vt 0.536801 0.787560
vt 0.503300 0.778143
vt 0.503300 0.752416
vt 0.536801 0.742999
vt 0.453503 0.735979
vt 0.420002 0.726562
vt 0.420002 0.700835
vt 0.453503 0.691418
vt 0.371332 0.474754
vt 0.371332 0.519315
vt 0.336703 0.522762
vt 0.336703 0.471307
vt 0.420002 0.402365
vt 0.420002 0.357805
vt 0.454630 0.354358
vt 0.454630 0.405812
vt 0.503300 0.639837
vt 0.536801 0.649254
vt 0.536801 0.674981
vt 0.503300 0.684398
vt 0.790335 0.012927
vt 0.823837 0.003510
vt 0.823837 0.048071
vt 0.790335 0.038654
vt 0.621227 0.240855
vt 0.621227 0.285416
vt 0.586598 0.288863
vt 0.586598 0.237409
vt 0.371332 0.171914
vt 0.336703 0.168467
vt 0.336703 0.123906
vt 0.371332 0.120459
vt 0.746431 0.752416
vt 0.779933 0.742999
vt 0.779933 0.787560
vt 0.746431 0.778143
vt 0.705909 0.778143
vt 0.705909 0.752416
vt 0.739411 0.742999
vt 0.739411 0.787560
vt 0.371332 0.054965
vt 0.336703 0.051518
vt 0.336703 0.006957
vt 0.371332 0.003510
vt 0.207247 0.785037
vt 0.207247 0.759310
vt 0.240749 0.749893
vt 0.240749 0.794454
vt 0.782188 0.588256
vt 0.782188 0.632817
vt 0.748686 0.623400
vt 0.748686 0.597673
vt 0.121437 0.471307
vt 0.121437 0.522762
vt 0.086808 0.519315
vt 0.086808 0.474754
vt 0.420002 0.003510
vt 0.454630 0.006957
vt 0.454630 0.051518
vt 0.420002 0.054965
vt 0.045159 0.785037
vt 0.045159 0.759310
vt 0.078661 0.749893
vt 0.078661 0.794454
vt 0.003510 0.226942
vt 0.003510 0.182381
vt 0.038139 0.178934
vt 0.038139 0.230388
vt 0.045159 0.061985
vt 0.079788 0.065432
vt 0.079788 0.109992
vt 0.045159 0.113439
vt 0.741666 0.588256
vt 0.741666 0.632817
vt 0.708164 0.623400
vt 0.708164 0.597673
vt 0.783315 0.326784
vt 0.783315 0.371344
vt 0.749813 0.361928
vt 0.749813 0.336200
vt 0.045159 0.577789
vt 0.045159 0.533229
vt 0.079788 0.529782
vt 0.079788 0.581236
vt 0.288034 0.120459
vt 0.288034 0.171914
vt 0.253405 0.168467
vt 0.253405 0.123906
vt 0.078661 0.691292
vt 0.045159 0.681875
vt 0.045159 0.656148
vt 0.078661 0.646731
vt 0.536801 0.691418
vt 0.536801 0.735979
vt 0.503300 0.726562
vt 0.503300 0.700835
vt 0.378352 0.519315
vt 0.378352 0.474754
vt 0.412981 0.471307
vt 0.412981 0.522761
vt 0.579578 0.178934
vt 0.579578 0.230388
vt 0.544949 0.226942
vt 0.544949 0.182381
vt 0.126203 0.759310
vt 0.159705 0.749893
vt 0.159705 0.794454
vt 0.126203 0.785037
vt 0.329683 0.529782
vt 0.329683 0.581236
vt 0.295054 0.577789
vt 0.295054 0.533229
vt 0.702271 0.223622
vt 0.702271 0.268182
vt 0.668769 0.258765
vt 0.668769 0.233038
vt 0.328813 0.836618
vt 0.328813 0.810891
vt 0.362315 0.801474
vt 0.362315 0.846035
vt 0.204736 0.474754
vt 0.204736 0.519315
vt 0.170107 0.522762
vt 0.170107 0.471307
vt 0.253405 0.230388
vt 0.253405 0.178934
vt 0.288034 0.182381
vt 0.288034 0.226942
vt 0.827475 0.829724
vt 0.827475 0.803997
vt 0.860977 0.794581
vt 0.860977 0.839141
vt 0.328813 0.656148
vt 0.362315 0.646731
vt 0.362315 0.691292
vt 0.328813 0.681875
vt 0.163086 0.288863
vt 0.128458 0.285416
vt 0.128458 0.240856
vt 0.163086 0.237409
vt 0.121437 0.168467
vt 0.086808 0.171914
vt 0.086808 0.120459
vt 0.121437 0.123906
vt 0.667642 0.623400
vt 0.667642 0.597673
vt 0.701144 0.588256
vt 0.701144 0.632817
vt 0.460523 0.803997
vt 0.494025 0.794581
vt 0.494025 0.839141
vt 0.460523 0.829725
vt 0.586598 0.006957
vt 0.621227 0.003510
vt 0.621227 0.054964
vt 0.586598 0.051518
vt 0.253405 0.357805
vt 0.288034 0.354358
vt 0.288034 0.405812
vt 0.253405 0.402366
vt 0.247769 0.785037
vt 0.247769 0.759310
vt 0.281271 0.749893
vt 0.281271 0.794454
vt 0.864359 0.151233
vt 0.830857 0.141816
vt 0.830857 0.116089
vt 0.864359 0.106672
vt 0.038139 0.237409
vt 0.038139 0.288863
vt 0.003510 0.285416
vt 0.003510 0.240856
vt 0.864358 0.216601
vt 0.830857 0.207184
vt 0.830857 0.181457
vt 0.864358 0.172040
vt 0.782188 0.639837
vt 0.782188 0.684398
vt 0.748686 0.674981
vt 0.748686 0.649254
vt 0.586598 0.402365
vt 0.586598 0.357805
vt 0.621227 0.354358
vt 0.621227 0.405812
vt 0.503300 0.003510
vt 0.537929 0.006957
vt 0.537929 0.051518
vt 0.503300 0.054965
vt 0.783315 0.526088
vt 0.749813 0.516671
vt 0.749813 0.490944
vt 0.783315 0.481527
vt 0.170107 0.533229
vt 0.204736 0.529782
vt 0.204736 0.581236
vt 0.170107 0.577789
vt 0.163086 0.581236
vt 0.128458 0.577789
vt 0.128458 0.533229
vt 0.163086 0.529782
vt 0.119183 0.801474
vt 0.119183 0.846035
vt 0.085681 0.836618
vt 0.085681 0.810891
vt 0.159705 0.698312
vt 0.159705 0.742873
vt 0.126203 0.733456
vt 0.126203 0.707729
vt 0.496279 0.120459
vt 0.496279 0.171914
vt 0.461651 0.168467
vt 0.461651 0.123906
vt 0.621227 0.474754
vt 0.621227 0.519315
vt 0.586598 0.522761
vt 0.586598 0.471307
vt 0.783315 0.429946
vt 0.783315 0.474507
vt 0.749813 0.465090
vt 0.749813 0.439363
vt 0.543822 0.778143
vt 0.543822 0.752416
vt 0.577323 0.742999
vt 0.577323 0.787560
vt 0.378352 0.295883
vt 0.412981 0.299330
vt 0.412981 0.343891
vt 0.378352 0.347338
vt 0.003510 0.474754
vt 0.038139 0.471307
vt 0.038139 0.522762
vt 0.003510 0.519315
vt 0.668769 0.310347
vt 0.668769 0.284619
vt 0.702271 0.275203
vt 0.702271 0.319763
vt 0.121437 0.061985
vt 0.121437 0.113439
vt 0.086808 0.109992
vt 0.086808 0.065432
vt 0.749813 0.258765
vt 0.749813 0.233038
vt 0.783315 0.223622
vt 0.783315 0.268182
vt 0.742793 0.533108
vt 0.742793 0.577669
vt 0.709291 0.568252
vt 0.709291 0.542525
vt 0.537929 0.171914
vt 0.503300 0.168467
vt 0.503300 0.123906
vt 0.537929 0.120459
vt 0.461651 0.529782
vt 0.496279 0.533229
vt 0.496279 0.577789
vt 0.461651 0.581236
vt 0.460523 0.700835
vt 0.494025 0.691418
vt 0.494025 0.735979
vt 0.460523 0.726562
vt 0.402837 0.698312
vt 0.402837 0.742873
vt 0.369335 0.733456
vt 0.369335 0.707729
vt 0.128458 0.591703
vt 0.163086 0.588256
vt 0.163086 0.639711
vt 0.128458 0.636264
vt 0.086808 0.577789
vt 0.086808 0.533229
vt 0.121437 0.529782
vt 0.121437 0.581236
vt 0.702271 0.216601
vt 0.668769 0.207184
vt 0.668769 0.181457
vt 0.702271 0.172040
vt 0.830857 0.038654
vt 0.830857 0.012927
vt 0.864358 0.003510
vt 0.864358 0.048071
vt 0.253405 0.577789
vt 0.253405 0.533228
vt 0.288034 0.529782
vt 0.288034 0.581236
vt 0.204736 0.636264
vt 0.170107 0.639711
vt 0.170107 0.588256
vt 0.204736 0.591703
vt 0.543822 0.803997
vt 0.577323 0.794580
vt 0.577323 0.839141
vt 0.543822 0.829724
vt 0.705909 0.829724
vt 0.705909 0.803997
vt 0.739411 0.794580
vt 0.739411 0.839141
vt 0.503300 0.285416
vt 0.503300 0.240855
vt 0.537929 0.237409
vt 0.537929 0.288863
vt 0.369335 0.846035
vt 0.369335 0.801474
vt 0.402836 0.810891
vt 0.402836 0.836618
vt 0.119183 0.698312
vt 0.119183 0.742873
vt 0.085681 0.733456
vt 0.085681 0.707729
vt 0.378352 0.533229
vt 0.412981 0.529782
vt 0.412981 0.581236
vt 0.378352 0.577789
vt 0.163086 0.522762
vt 0.128458 0.519315
vt 0.128458 0.474754
vt 0.163086 0.471307
vt 0.624866 0.829724
vt 0.624866 0.803997
vt 0.658367 0.794580
vt 0.658367 0.839141
vt 0.163086 0.120459
vt 0.163086 0.171914
vt 0.128458 0.168467
vt 0.128458 0.123906
vt 0.121437 0.288863
vt 0.086808 0.285416
vt 0.086808 0.240856
vt 0.121437 0.237409
vt 0.783315 0.378365
vt 0.783315 0.422926
vt 0.749813 0.413509
vt 0.749813 0.387782
vt 0.620100 0.588256
vt 0.620100 0.632817
vt 0.586598 0.623400
vt 0.586598 0.597673
vt 0.170107 0.237409
vt 0.204736 0.240856
vt 0.204736 0.285416
vt 0.170107 0.288863
vt 0.621227 0.182381
vt 0.621227 0.226942
vt 0.586598 0.230388
vt 0.586598 0.178934
vt 0.660622 0.639837
vt 0.660622 0.684398
vt 0.627120 0.674981
vt 0.627120 0.649254
vt 0.830857 0.429946
vt 0.864358 0.439362
vt 0.864358 0.465090
vt 0.830857 0.474506
vt 0.378352 0.109992
vt 0.378352 0.065432
vt 0.412981 0.061985
vt 0.412981 0.113439
vt 0.621227 0.295883
vt 0.621227 0.347338
vt 0.586598 0.343891
vt 0.586598 0.299330
vt 0.709291 0.258765
vt 0.709291 0.233038
vt 0.742793 0.223622
vt 0.742793 0.268182
vt 0.246385 0.182381
vt 0.246385 0.226942
vt 0.211756 0.230388
vt 0.211756 0.178934
vt 0.665388 0.778143
vt 0.665388 0.752416
vt 0.698889 0.742999
vt 0.698889 0.787560
vt 0.200227 0.691292
vt 0.166725 0.681875
vt 0.166725 0.656148
vt 0.200227 0.646731
vt 0.461651 0.230388
vt 0.461651 0.178934
vt 0.496279 0.182381
vt 0.496279 0.226942
vt 0.295054 0.519315
vt 0.295054 0.474754
vt 0.329683 0.471307
vt 0.329683 0.522762
vt 0.453503 0.743000
vt 0.453503 0.787560
vt 0.420002 0.778143
vt 0.420002 0.752416
vt 0.078661 0.733456
vt 0.045159 0.742873
vt 0.045159 0.698312
vt 0.078661 0.707729
vt 0.503300 0.295883
vt 0.537929 0.299330
vt 0.537929 0.343891
vt 0.503300 0.347338
vt 0.461651 0.519315
vt 0.461651 0.474754
vt 0.496279 0.471307
vt 0.496279 0.522761
vt 0.790335 0.207184
vt 0.790335 0.181457
vt 0.823837 0.172040
vt 0.823837 0.216601
vt 0.045159 0.836618
vt 0.045159 0.810891
vt 0.078661 0.801474
vt 0.078661 0.846035
vt 0.420002 0.113439
vt 0.420002 0.061985
vt 0.454630 0.065432
vt 0.454630 0.109992
vt 0.454630 0.288863
vt 0.420002 0.285416
vt 0.420002 0.240855
vt 0.454630 0.237409
vt 0.863231 0.684398
vt 0.829730 0.674981
vt 0.829730 0.649254
vt 0.863231 0.639837
vt 0.749813 0.568252
vt 0.749813 0.542525
vt 0.783315 0.533108
vt 0.783315 0.577669
vt 0.503300 0.109992
vt 0.503300 0.065432
vt 0.537929 0.061985
vt 0.537929 0.113439
vt 0.166725 0.733456
vt 0.166725 0.707729
vt 0.200227 0.698312
vt 0.200227 0.742873
vt 0.085681 0.785037
vt 0.085681 0.759310
vt 0.119183 0.749893
vt 0.119183 0.794454
vt 0.336703 0.343891
vt 0.336703 0.299330
vt 0.371332 0.295883
vt 0.371332 0.347338
vt 0.246385 0.464287
vt 0.211756 0.460840
vt 0.211756 0.416279
vt 0.246385 0.412833
vt 0.543822 0.700835
vt 0.577323 0.691418
vt 0.577323 0.735979
vt 0.543822 0.726562
vt 0.336703 0.636264
vt 0.336703 0.591703
vt 0.371332 0.588256
vt 0.371332 0.639711
vt 0.454630 0.123906
vt 0.454630 0.168467
vt 0.420002 0.171914
vt 0.420002 0.120459
vt 0.461651 0.597673
vt 0.495152 0.588256
vt 0.495152 0.632817
vt 0.461651 0.623400
vt 0.200227 0.846035
vt 0.166725 0.836618
vt 0.166725 0.810891
vt 0.200227 0.801474
vt 0.329683 0.402366
vt 0.295054 0.405812
vt 0.295054 0.354358
vt 0.329683 0.357805
vt 0.378352 0.171914
vt 0.378352 0.120459
vt 0.412981 0.123906
vt 0.412981 0.168467
vt 0.786953 0.829724
vt 0.786953 0.803997
vt 0.820455 0.794581
vt 0.820455 0.839141
vt 0.702271 0.481527
vt 0.702271 0.526088
vt 0.668769 0.516671
vt 0.668769 0.490944
vt 0.537929 0.474754
vt 0.537929 0.519315
vt 0.503300 0.522761
vt 0.503300 0.471307
vt 0.420002 0.416279
vt 0.454630 0.412832
vt 0.454630 0.464287
vt 0.420002 0.460840
vt 0.823837 0.481527
vt 0.823837 0.526088
vt 0.790335 0.516671
vt 0.790335 0.490944
vt 0.121437 0.051518
vt 0.086808 0.054965
vt 0.086808 0.003510
vt 0.121437 0.006957
vt 0.864358 0.490944
vt 0.864358 0.516671
vt 0.830857 0.526088
vt 0.830857 0.481527
vt 0.200227 0.749893
vt 0.200227 0.794454
vt 0.166725 0.785037
vt 0.166725 0.759310
vt 0.371332 0.113439
vt 0.336703 0.109992
vt 0.336703 0.065432
vt 0.371332 0.061985
vt 0.003510 0.168467
vt 0.003510 0.123906
vt 0.038139 0.120459
vt 0.038139 0.171914
vt 0.742793 0.120459
vt 0.742793 0.165020
vt 0.709291 0.155603
vt 0.709291 0.129876
vt 0.779933 0.839141
vt 0.746431 0.829724
vt 0.746431 0.803997
vt 0.779933 0.794580
vt 0.544949 0.577789
vt 0.544949 0.533229
vt 0.579578 0.529782
vt 0.579578 0.581236
vt 0.128458 0.109992
vt 0.128458 0.065432
vt 0.163086 0.061985
vt 0.163086 0.113439
vt 0.617845 0.839141
vt 0.584344 0.829724
vt 0.584344 0.803997
vt 0.617845 0.794580
vt 0.494025 0.649254
vt 0.494025 0.674981
vt 0.460524 0.684398
vt 0.460524 0.639837
vt 0.295054 0.230388
vt 0.295054 0.178934
vt 0.329683 0.182381
vt 0.329683 0.226942
vt 0.170107 0.054965
vt 0.170107 0.003510
vt 0.204736 0.006957
vt 0.204736 0.051518
vt 0.661749 0.526088
vt 0.628247 0.516671
vt 0.628247 0.490944
vt 0.661749 0.481527
vt 0.863231 0.632817
vt 0.829730 0.623400
vt 0.829730 0.597673
vt 0.863231 0.588256
vt 0.579578 0.051518
vt 0.544949 0.054965
vt 0.544949 0.003510
vt 0.579578 0.006957
vt 0.460523 0.752416
vt 0.494025 0.743000
vt 0.494025 0.787560
vt 0.460523 0.778144
vt 0.783315 0.319763
vt 0.749813 0.310347
vt 0.749813 0.284619
vt 0.783315 0.275203
vt 0.163086 0.412833
vt 0.163086 0.464287
vt 0.128458 0.460840
vt 0.128458 0.416279
vt 0.079788 0.474754
vt 0.079788 0.519315
vt 0.045159 0.522762
vt 0.045159 0.471307
vt 0.281271 0.646731
vt 0.281271 0.691292
vt 0.247769 0.681875
vt 0.247769 0.656148
vt 0.544949 0.464287
vt 0.544949 0.412832
vt 0.579578 0.416279
vt 0.579578 0.460840
vt 0.128458 0.402366
vt 0.128458 0.357805
vt 0.163086 0.354358
vt 0.163086 0.405812
vt 0.543822 0.649254
vt 0.577323 0.639837
vt 0.577323 0.684398
vt 0.543822 0.674981
vt 0.749813 0.090235
vt 0.749813 0.064508
vt 0.783315 0.055091
vt 0.783315 0.099652
vt 0.045159 0.182381
vt 0.079788 0.178934
vt 0.079788 0.230388
vt 0.045159 0.226942
vt 0.246385 0.354358
vt 0.246385 0.405812
vt 0.211756 0.402365
vt 0.211756 0.357805
vt 0.742793 0.099652
vt 0.709291 0.090235
vt 0.709291 0.064508
vt 0.742793 0.055091
vt 0.119183 0.646731
vt 0.119183 0.691292
vt 0.085681 0.681875
vt 0.085681 0.656148
vt 0.128458 0.347338
vt 0.128458 0.295883
vt 0.163086 0.299330
vt 0.163086 0.343891
vt 0.253405 0.061985
vt 0.288034 0.065432
vt 0.288034 0.109992
vt 0.253405 0.113439
vt 0.820455 0.691418
vt 0.820455 0.735979
vt 0.786953 0.726562
vt 0.786953 0.700835
vt 0.412981 0.412832
vt 0.412981 0.464287
vt 0.378352 0.460840
vt 0.378352 0.416279
vt 0.668769 0.465090
vt 0.668769 0.439363
vt 0.702271 0.429946
vt 0.702271 0.474507
vt 0.783315 0.141816
vt 0.749813 0.151233
vt 0.749813 0.106672
vt 0.783315 0.116089
vt 0.211756 0.519315
vt 0.211756 0.474754
vt 0.246385 0.471307
vt 0.246385 0.522762
vt 0.253405 0.285416
vt 0.253405 0.240855
vt 0.288034 0.237409
vt 0.288034 0.288863
vt 0.823837 0.378365
vt 0.823837 0.422925
vt 0.790335 0.413509
vt 0.790335 0.387781
vt 0.402836 0.794454
vt 0.369335 0.785037
vt 0.369335 0.759310
vt 0.402836 0.749893
vt 0.503300 0.405812
vt 0.503300 0.354358
vt 0.537929 0.357805
vt 0.537929 0.402365
vt 0.544949 0.109992
vt 0.544949 0.065432
vt 0.579578 0.061985
vt 0.579578 0.113439
vt 0.665388 0.829724
vt 0.665388 0.803997
vt 0.698889 0.794580
vt 0.698889 0.839141
vt 0.628247 0.422926
vt 0.628247 0.378365
vt 0.661749 0.387782
vt 0.661749 0.413509
vt 0.045159 0.639711
vt 0.045159 0.588256
vt 0.079788 0.591703
vt 0.079788 0.636264
vt 0.079788 0.464287
vt 0.045159 0.460840
vt 0.045159 0.416279
vt 0.079788 0.412833
vt 0.247769 0.733456
vt 0.247769 0.707729
vt 0.281271 0.698312
vt 0.281271 0.742873
vt 0.126203 0.846035
vt 0.126203 0.801474
vt 0.159705 0.810891
vt 0.159705 0.836618
vt 0.621227 0.065432
vt 0.621227 0.109992
vt 0.586598 0.113439
vt 0.586598 0.061985
vt 0.321793 0.646731
vt 0.321793 0.691292
vt 0.288291 0.681875
vt 0.288291 0.656148
vt 0.827475 0.752416
vt 0.860977 0.742999
vt 0.860977 0.787560
vt 0.827475 0.778143
vt 0.253405 0.464287
vt 0.253405 0.412833
vt 0.288034 0.416279
vt 0.288034 0.460840
vt 0.412981 0.006957
vt 0.412981 0.051518
vt 0.378352 0.054965
vt 0.378352 0.003510
vt 0.369335 0.656148
vt 0.402837 0.646731
vt 0.402837 0.691292
vt 0.369335 0.681875
vt 0.544949 0.288863
vt 0.544949 0.237409
vt 0.579578 0.240855
vt 0.579578 0.285416
vt 0.246385 0.123906
vt 0.246385 0.168467
vt 0.211756 0.171914
vt 0.211756 0.120459
vt 0.830857 0.310346
vt 0.830857 0.284619
vt 0.864358 0.275203
vt 0.864358 0.319763
vt 0.822709 0.674981
vt 0.789208 0.684398
vt 0.789208 0.639837
vt 0.822709 0.649254
vt 0.295054 0.288863
vt 0.295054 0.237409
vt 0.329683 0.240855
vt 0.329683 0.285416
vt 0.253405 0.347338
vt 0.253405 0.295883
vt 0.288034 0.299330
vt 0.288034 0.343891
vt 0.321793 0.749893
vt 0.321793 0.794454
vt 0.288291 0.785037
vt 0.288291 0.759310
vt 0.864358 0.371344
vt 0.830857 0.361928
vt 0.830857 0.336200
vt 0.864358 0.326784
vt 0.170107 0.405812
vt 0.170107 0.354358
vt 0.204736 0.357805
vt 0.204736 0.402366
vt 0.288034 0.522761
vt 0.253405 0.519315
vt 0.253405 0.474754
vt 0.288034 0.471307
vt 0.742793 0.172040
vt 0.742793 0.216601
vt 0.709291 0.207184
vt 0.709291 0.181457
vt 0.496280 0.416279
vt 0.496280 0.460840
vt 0.461651 0.464287
vt 0.461651 0.412832
vt 0.790335 0.310347
vt 0.790335 0.284619
vt 0.823837 0.275203
vt 0.823837 0.319763
vt 0.742793 0.319763
vt 0.709291 0.310347
vt 0.709291 0.284619
vt 0.742793 0.275203
vt 0.121437 0.354358
vt 0.121437 0.405812
vt 0.086808 0.402366
vt 0.086808 0.357805
vt 0.790335 0.055091
vt 0.823837 0.064508
vt 0.823837 0.090235
vt 0.790335 0.099652
vt 0.823836 0.533108
vt 0.823836 0.577669
vt 0.790335 0.568252
vt 0.790335 0.542525
vt 0.281271 0.801474
vt 0.281271 0.846035
vt 0.247769 0.836618
vt 0.247769 0.810891
vt 0.461651 0.295883
vt 0.496279 0.299330
vt 0.496279 0.343891
vt 0.461651 0.347338
vt 0.253405 0.051518
vt 0.253405 0.006957
vt 0.288034 0.003510
vt 0.288034 0.054965
vt 0.037012 0.801474
vt 0.037012 0.846035
vt 0.003510 0.836618
vt 0.003510 0.810891
vt 0.295054 0.460840
vt 0.295054 0.416279
vt 0.329683 0.412833
vt 0.329683 0.464287
vt 0.295054 0.006957
vt 0.329683 0.003510
vt 0.329683 0.054965
vt 0.295054 0.051518
vt 0.827475 0.726562
vt 0.827475 0.700835
vt 0.860977 0.691418
vt 0.860977 0.735979
vt 0.864358 0.055091
vt 0.864358 0.099652
vt 0.830857 0.090235
vt 0.830857 0.064508
vt 0.038139 0.529782
vt 0.038139 0.581236
vt 0.003510 0.577789
vt 0.003510 0.533229
vt 0.584344 0.778143
vt 0.584344 0.752416
vt 0.617845 0.742999
vt 0.617845 0.787560
vt 0.584344 0.726562
vt 0.584344 0.700835
vt 0.617845 0.691418
vt 0.617845 0.735979
vt 0.544949 0.299330
vt 0.579578 0.295883
vt 0.579578 0.347338
vt 0.544949 0.343891
vt 0.170107 0.178934
vt 0.204736 0.182381
vt 0.204736 0.226942
vt 0.170107 0.230388
vt 0.328813 0.785037
vt 0.328813 0.759310
vt 0.362315 0.749893
vt 0.362315 0.794454
vt 0.503300 0.416279
vt 0.537929 0.412832
vt 0.537929 0.464287
vt 0.503300 0.460840
vt 0.211756 0.065432
vt 0.246385 0.061985
vt 0.246385 0.113439
vt 0.211756 0.109992
vt 0.786953 0.742999
vt 0.820455 0.752416
vt 0.820455 0.778143
vt 0.786953 0.787560
vt 0.536801 0.839141
vt 0.503300 0.829724
vt 0.503300 0.803997
vt 0.536801 0.794580
vt 0.420002 0.226942
vt 0.420002 0.182381
vt 0.454630 0.178934
vt 0.454630 0.230388
vt 0.246385 0.288863
vt 0.211756 0.285416
vt 0.211756 0.240855
vt 0.246385 0.237409
vt 0.584344 0.674981
vt 0.584344 0.649254
vt 0.617845 0.639837
vt 0.617845 0.684398
vt 0.412981 0.591703
vt 0.412981 0.636264
vt 0.378352 0.639711
vt 0.378352 0.588256
vn -0.0022 0.2785 0.9604
vn -0.0022 0.2785 -0.9604
vn 0.1954 0.1985 -0.9604
vn 0.1954 0.1985 0.9604
vn 0.2785 0.0022 -0.9604
vn 0.2785 0.0022 0.9604
vn 0.1985 -0.1954 -0.9604
vn 0.1985 -0.1954 0.9604
vn 0.0022 -0.2785 0.9604
vn 0.0022 -0.2785 -0.9604
vn -0.1954 -0.1985 0.9604
vn -0.1954 -0.1985 -0.9604
vn -0.2785 -0.0022 0.9604
vn -0.2785 -0.0022 -0.9604
vn -0.1985 0.1954 0.9604
vn -0.1985 0.1954 -0.9604
vn 0.4457 0.2074 0.8708
vn -0.7640 0.1755 -0.6209
vn -0.6137 0.2624 -0.7447
vn 0.5960 0.2944 0.7471
vn -0.4582 0.1863 -0.8691
vn 0.7515 0.2182 0.6227
vn -0.3886 -0.0083 -0.9214
vn 0.8210 0.0236 0.5704
vn 0.7640 -0.1755 0.6209
vn -0.4457 -0.2074 -0.8708
vn 0.6137 -0.2624 0.7447
vn -0.5960 -0.2944 -0.7471
vn 0.4582 -0.1863 0.8691
vn -0.7515 -0.2182 -0.6227
vn 0.3886 0.0083 0.9214
vn -0.8210 -0.0236 -0.5704
vn 0.9844 -0.1759 -0.0001
vn -0.8457 0.0704 -0.5290
vn -0.9002 -0.1059 -0.4223
vn 0.9298 -0.3522 0.1066
vn -0.9635 -0.1480 -0.2231
vn 0.8666 -0.3943 0.3058
vn -0.9983 -0.0313 -0.0482
vn 0.8317 -0.2776 0.4808
vn 0.8457 -0.0704 0.5290
vn -0.9844 0.1759 0.0001
vn 0.9002 0.1059 0.4223
vn -0.9298 0.3522 -0.1066
vn 0.9635 0.1480 0.2231
vn -0.8666 0.3943 -0.3058
vn 0.9983 0.0313 0.0482
vn -0.8317 0.2776 -0.4808
vn 0.5784 0.0319 0.8152
vn -0.0650 -0.1676 -0.9837
vn -0.1790 -0.3377 -0.9241
vn 0.4644 -0.1382 0.8748
vn -0.3765 -0.3684 -0.8500
vn 0.2669 -0.1688 0.9488
vn -0.5419 -0.2417 -0.8049
vn 0.1014 -0.0422 0.9939
vn 0.0650 0.1676 0.9837
vn -0.5784 -0.0319 -0.8152
vn 0.1790 0.3377 0.9241
vn -0.4644 0.1382 -0.8748
vn 0.3765 0.3684 0.8500
vn -0.2669 0.1688 -0.9488
vn 0.5419 0.2417 0.8049
vn -0.1014 0.0422 -0.9939
vn 0.1007 0.0319 -0.9944
vn -0.5982 -0.1676 0.7836
vn -0.4732 -0.3377 0.8137
vn 0.2258 -0.1382 -0.9643
vn -0.2757 -0.3683 0.8879
vn 0.4233 -0.1688 -0.8901
vn -0.1214 -0.2417 0.9627
vn 0.5775 -0.0422 -0.8153
vn 0.5982 0.1676 -0.7836
vn -0.1007 -0.0319 0.9944
vn 0.4732 0.3377 -0.8137
vn -0.2258 0.1382 0.9643
vn 0.2757 0.3684 -0.8879
vn -0.4233 0.1688 0.8901
vn 0.1214 0.2417 -0.9627
vn -0.5775 0.0422 0.8153
vn -0.2561 -0.1208 0.9591
vn 0.7177 -0.0448 -0.6949
vn 0.6034 -0.2085 -0.7697
vn -0.3704 -0.2844 0.8842
vn 0.4208 -0.2277 -0.8781
vn -0.5530 -0.3037 0.7759
vn 0.2770 -0.0913 -0.9565
vn -0.6968 -0.1673 0.6974
vn -0.7177 0.0448 0.6949
vn 0.2561 0.1208 -0.9591
vn -0.6034 0.2085 0.7697
vn 0.3704 0.2844 -0.8842
vn -0.4208 0.2277 0.8781
vn 0.5530 0.3037 -0.7759
vn -0.2770 0.0913 0.9565
vn 0.6968 0.1673 -0.6974
vn -0.2687 -0.1208 -0.9556
vn -0.2631 -0.0448 0.9637
vn -0.1266 -0.2085 0.9698
vn -0.1322 -0.2844 -0.9495
vn 0.0857 -0.2277 0.9699
vn 0.0801 -0.3037 -0.9494
vn 0.2494 -0.0913 0.9641
vn 0.2439 -0.1673 -0.9553
vn 0.2631 0.0448 -0.9637
vn 0.2687 0.1208 0.9556
vn 0.1266 0.2085 -0.9698
vn 0.1322 0.2844 0.9495
vn -0.0857 0.2277 -0.9699
vn -0.0801 0.3037 0.9494
vn -0.2494 0.0913 -0.9641
vn -0.2439 0.1673 0.9553
vn 0.9377 -0.1208 -0.3258
vn -0.9778 -0.0448 -0.2046
vn -0.9757 -0.2085 -0.0680
vn 0.9398 -0.2844 -0.1891
vn -0.9630 -0.2277 0.1439
vn 0.9525 -0.3037 0.0228
vn -0.9473 -0.0913 0.3070
vn 0.9682 -0.1673 0.1859
vn 0.9778 0.0448 0.2046
vn -0.9377 0.1208 0.3258
vn 0.9757 0.2085 0.0680
vn -0.9398 0.2844 0.1891
vn 0.9630 0.2277 -0.1439
vn -0.9525 0.3037 -0.0228
vn 0.9473 0.0914 -0.3070
vn -0.9682 0.1673 -0.1859
vn 0.8563 0.2785 -0.4350
vn -0.8543 0.2785 0.4389
vn -0.9442 0.1985 0.2630
vn 0.7663 0.1985 -0.6110
vn -0.9820 0.0022 0.1889
vn 0.7285 0.0022 -0.6850
vn -0.9456 -0.1954 0.2602
vn 0.7649 -0.1954 -0.6138
vn 0.8543 -0.2785 -0.4389
vn -0.8563 -0.2785 0.4350
vn 0.9442 -0.1985 -0.2630
vn -0.7663 -0.1985 0.6110
vn 0.9820 -0.0022 -0.1889
vn -0.7285 -0.0022 0.6850
vn 0.9456 0.1954 -0.2602
vn -0.7649 0.1954 0.6138
vn -0.9270 0.2263 0.2991
vn 0.9823 0.1577 0.1007
vn 0.9832 -0.0410 0.1778
vn -0.9261 0.0275 0.3762
vn 0.9674 -0.2358 0.0926
vn -0.9420 -0.1673 0.2910
vn 0.9441 -0.3126 -0.1049
vn -0.9653 -0.2440 0.0935
vn -0.9823 -0.1577 -0.1007
vn 0.9270 -0.2263 -0.2991
vn -0.9832 0.0410 -0.1778
vn 0.9261 -0.0275 -0.3762
vn -0.9674 0.2358 -0.0926
vn 0.9420 0.1673 -0.2910
vn -0.9441 0.3126 0.1049
vn 0.9653 0.2440 -0.0935
vn -0.5235 0.5153 -0.6786
vn 0.2580 0.9165 -0.3057
vn -0.1697 0.2981 0.9393
vn -0.4268 0.4943 -0.7573
vn 0.1084 0.9165 0.3850
vn -0.8387 0.5235 -0.1501
vn 0.7239 0.6230 0.2962
vn -0.4707 0.2146 0.8558
vn 0.6918 -0.6810 -0.2403
vn 0.2701 0.0058 -0.9628
vn 0.6410 0.5073 -0.5759
vn 0.4032 -0.6712 -0.6220
vn -0.1106 -0.9111 0.3972
vn -0.6512 0.6230 0.4333
vn -0.7043 0.3679 -0.6071
vn 0.0077 -0.9707 0.2403
vn 0.2020 -0.9784 -0.0447
vn 0.8140 0.5446 0.2021
vn -0.8425 -0.5153 -0.1574
vn 0.2105 -0.9707 -0.1161
vn 0.8425 0.5153 0.1574
vn 0.7345 0.0058 0.6786
vn 0.9274 0.2981 0.2260
vn -0.4517 -0.8683 -0.2048
vn -0.8662 -0.3203 0.3835
vn 0.6098 0.4412 0.6584
vn 0.8589 -0.4603 -0.2248
vn -0.4507 0.7228 -0.5238
vn -0.1427 -0.0088 0.9897
vn 0.1946 0.6938 -0.6933
vn 0.2805 -0.8290 -0.4839
vn -0.5153 -0.5235 -0.6786
vn 0.2166 -0.7275 -0.6510
vn -0.1821 0.9662 -0.1824
vn -0.1394 -0.0150 0.9901
vn -0.0058 0.7345 -0.6786
vn -0.4503 -0.8493 0.2754
vn 0.7743 0.6280 0.0778
vn -0.7498 0.0420 -0.6603
vn -0.8534 -0.4603 -0.2445
vn -0.3437 -0.8042 -0.4849
vn 0.1698 -0.6739 -0.7191
vn -0.6628 0.7275 -0.1770
vn -0.4169 0.8541 0.3110
vn 0.2213 -0.9355 0.2754
vn 0.3393 0.6230 -0.7048
vn -0.2701 -0.0058 0.9628
vn -0.1697 0.9610 -0.2185
vn -0.9047 -0.0306 0.4249
vn 0.0827 -0.6378 0.7658
vn 0.6855 -0.6910 -0.2293
vn 0.3596 0.7008 -0.6160
vn 0.6036 -0.5569 0.5705
vn -0.6069 -0.7345 0.3036
vn -0.4032 0.6712 0.6220
vn 0.2757 0.9612 -0.0049
vn 0.0058 -0.7345 -0.6786
vn 0.9260 0.2791 -0.2542
vn 0.4503 0.8493 -0.2754
vn 0.8387 -0.5235 0.1501
vn 0.4495 -0.2495 -0.8577
vn -0.9262 0.2791 -0.2534
vn -0.3596 -0.7008 0.6160
vn -0.5235 0.5153 0.6786
vn 0.6906 0.6739 -0.2626
vn 0.2882 -0.9355 -0.2043
vn 0.4707 -0.2146 -0.8558
vn 0.6993 0.1915 -0.6887
vn -0.2277 0.0077 -0.9737
vn -0.4636 -0.0520 -0.8845
vn -0.2206 0.6739 -0.7052
vn -0.0614 -0.5691 0.8200
vn -0.9274 -0.2981 -0.2260
vn 0.5153 0.5235 0.6786
vn -0.6036 0.5569 -0.5705
vn -0.8140 0.2615 0.5187
vn 0.6021 0.0226 -0.7981
vn 0.3661 -0.5153 -0.7749
vn 0.4268 -0.4943 0.7573
vn 0.6810 0.6918 -0.2403
vn -0.7073 0.5195 -0.4794
vn -0.7080 0.5557 -0.4358
vn 0.7498 -0.0420 0.6603
vn -0.6556 0.0076 -0.7550
vn 0.7043 -0.3679 0.6071
vn -0.8976 -0.3679 0.2427
vn 0.8822 -0.4696 0.0345
vn 0.9749 -0.2116 -0.0686
vn -0.8295 0.2261 0.5108
vn -0.0601 0.9758 -0.2103
vn -0.8822 0.4696 -0.0345
vn -0.2166 0.7275 0.6510
vn 0.6628 -0.7275 0.1770
vn -0.7794 -0.2116 -0.5897
vn -0.3521 -0.9355 0.0288
vn 0.4040 0.7454 0.5302
vn -0.0058 0.7345 0.6786
vn 0.9707 0.0077 -0.2403
vn -0.2020 0.9784 0.0447
vn -0.7296 -0.1915 -0.6565
vn 0.5185 0.8541 0.0401
vn 0.2647 -0.2452 0.9326
vn 0.4507 -0.7228 0.5238
vn 0.7059 -0.6632 -0.2488
vn 0.1697 -0.9610 0.2185
vn -0.9385 0.0058 -0.3453
vn -0.6075 -0.5169 -0.6031
vn -0.5193 -0.5074 0.6876
vn 0.0128 -0.1529 -0.9882
vn 0.5183 0.7275 -0.4495
vn 0.6238 -0.2452 -0.7421
vn 0.4169 -0.8541 -0.3110
vn 0.9262 -0.2791 0.2534
vn 0.4636 0.0520 0.8845
vn 0.3545 -0.4447 0.8225
vn -0.5238 0.6918 -0.4971
vn -0.9028 -0.2495 0.3502
vn 0.3719 0.7787 0.5052
vn 0.5287 0.6810 0.5067
vn -0.2580 -0.9165 0.3057
vn -0.3698 -0.5235 0.7676
vn 0.3353 0.6605 0.6718
vn -0.1084 -0.9165 -0.3850
vn -0.5153 -0.5235 0.6786
vn 0.5731 0.6979 -0.4295
vn 0.1008 0.6810 0.7254
vn 0.5238 -0.6918 0.4971
vn 0.1427 0.0088 -0.9897
vn 0.5235 -0.5153 0.6786
vn -0.5779 0.8042 -0.1391
vn 0.1697 -0.2981 -0.9393
vn -0.5993 0.0064 0.8005
vn -0.3383 0.0321 -0.9405
vn -0.0368 -0.6767 0.7353
vn 0.6512 -0.6230 -0.4333
vn -0.9260 -0.2791 0.2542
vn 0.2715 0.9610 0.0529
vn 0.3432 0.6767 0.6513
vn 0.9385 -0.0058 0.3453
vn -0.2715 -0.9610 -0.0529
vn 0.9047 0.0306 -0.4249
vn 0.3535 0.3037 -0.8847
vn -0.4090 -0.1085 -0.9061
vn -0.6871 -0.4696 0.5544
vn 0.2761 -0.4603 0.8438
vn -0.9041 0.1085 -0.4133
vn -0.2096 -0.3142 -0.9259
vn 0.3095 0.2791 0.9090
vn 0.2206 -0.6739 0.7052
vn 0.6017 -0.7345 -0.3139
vn -0.2213 0.9355 -0.2754
vn -0.3446 0.9111 0.2264
vn -0.0827 0.6378 -0.7658
vn -0.1946 -0.6938 0.6933
vn -0.1772 0.8683 0.4632
vn -0.4495 0.2495 0.8577
vn -0.1491 0.6979 0.7005
vn -0.6021 -0.0226 0.7981
vn 0.7794 0.2116 0.5897
vn 0.6295 -0.6767 -0.3818
vn -0.4040 -0.7454 -0.5302
vn -0.3978 -0.9142 0.0779
vn 0.5779 -0.8042 0.1391
vn 0.9527 -0.1915 -0.2360
vn -0.0958 0.6918 -0.7157
vn -0.6993 -0.1915 0.6887
vn 0.8081 0.4447 0.3863
vn -0.3095 -0.2791 -0.9090
vn 0.2831 -0.7110 0.6437
vn -0.7345 -0.0058 0.6786
vn 0.8295 -0.2261 -0.5108
vn -0.1425 0.6776 0.7215
vn 0.3521 0.9355 -0.0288
vn 0.5153 0.5235 -0.6786
vn -0.6491 -0.3142 0.6927
vn 0.6871 0.4696 -0.5544
vn -0.2757 -0.9612 0.0049
vn -0.7032 -0.2452 -0.6674
vn 0.6466 -0.7580 -0.0851
vn -0.1774 -0.7673 -0.6162
vn 0.2096 0.3142 0.9259
vn -0.3535 -0.3037 0.8847
vn 0.8481 0.5195 -0.1043
vn 0.1106 0.9111 -0.3972
vn -0.6295 0.6767 0.3818
vn 0.1821 -0.9662 0.1824
vn 0.2896 -0.9165 0.2759
vn 0.6075 0.5169 0.6031
vn 0.8483 -0.3037 -0.4337
vn -0.6918 0.6810 -0.2403
vn -0.3020 -0.8493 -0.4329
vn 0.9974 0.0314 0.0643
vn -0.6906 -0.6739 0.2626
vn 0.7073 -0.5195 0.4794
vn 0.9543 0.2615 0.1449
vn -0.3661 0.5153 0.7749
vn -0.6623 -0.7088 0.2428
vn -0.0078 -0.5162 -0.8564
vn 0.8976 0.3679 -0.2427
vn -0.3353 -0.6605 -0.6718
vn 0.8603 -0.4412 0.2555
vn 0.7296 0.1915 0.6565
vn 0.4415 -0.6378 -0.6311
vn 0.1425 -0.6777 -0.7215
vn -0.2842 0.8683 -0.4065
vn -0.3393 -0.6230 0.7048
vn -0.2647 0.2452 -0.9326
vn -0.9707 -0.0077 0.2403
vn -0.9707 -0.0077 -0.2403
vn -0.3719 -0.7787 -0.5052
vn 0.4090 0.1085 0.9061
vn -0.2761 0.4603 -0.8438
vn -0.9974 -0.0314 -0.0643
vn 0.1491 -0.6979 -0.7005
vn -0.0076 0.9707 -0.2403
vn 0.8140 -0.2615 -0.5187
vn 0.5188 -0.8021 0.2959
vn 0.1394 0.0150 -0.9901
vn -0.5287 -0.6810 -0.5067
vn -0.7024 -0.7096 0.0550
vn -0.0523 -0.7787 0.6252
vn -0.6810 -0.6918 0.2403
vn -0.1008 -0.6810 -0.7254
vn 0.7475 0.4821 0.4570
vn -0.0793 -0.5569 -0.8268
vn 0.3437 0.8042 0.4849
vn 0.6826 -0.2981 0.6673
vn -0.6524 0.3142 -0.6897
vn -0.5278 0.8493 0.0073
vn 0.6016 -0.5305 -0.5972
vn 0.9041 -0.1085 0.4133
vn -0.2882 0.9355 0.2043
vn -0.6098 -0.4412 -0.6584
vn 0.0058 -0.7345 0.6786
vn -0.8081 -0.4447 -0.3863
vn 0.4517 0.8683 0.2048
vn 0.0614 0.5691 -0.8200
vn -0.7743 -0.6280 -0.0779
vn -0.6238 0.2452 0.7421
vn 0.1774 0.7673 0.6162
vn 0.2175 0.9707 -0.1025
vn -0.6017 0.7345 0.3139
vn 0.6524 -0.3142 0.6897
vn -0.6918 0.6810 0.2403
vn -0.5183 -0.7275 0.4495
vn 0.7024 0.7096 -0.0550
vn 0.3978 0.9142 -0.0779
vn -0.8481 -0.5195 0.1043
vn 0.8469 -0.4936 0.1976
vn 0.2032 0.4412 -0.8741
vn 0.5278 -0.8493 -0.0073
vn 0.3698 0.5235 -0.7676
vn -0.7239 -0.6230 -0.2962
vn 0.6810 0.6918 0.2403
vn 0.6918 -0.6810 0.2403
vn -0.5731 -0.6979 0.4295
vn 0.0078 0.5162 0.8564
vn -0.0077 0.9707 0.2403
vn -0.1205 -0.9742 -0.1908
vn -0.9527 0.1915 0.2360
vn -0.0128 0.1529 0.9882
vn -0.5188 0.8021 -0.2959
vn -0.1698 0.6739 0.7191
vn -0.2175 -0.9707 0.1025
vn -0.8589 0.4603 0.2248
vn 0.8662 0.3203 -0.3835
vn 0.7345 0.0058 -0.6786
vn -0.2896 0.9165 -0.2759
vn -0.2805 0.8290 0.4839
vn -0.6855 0.6910 0.2293
vn 0.6485 -0.3679 -0.6664
vn 0.1772 -0.8683 -0.4632
vn 0.2277 -0.0076 0.9737
vn -0.8469 0.4936 -0.1976
vn 0.6491 0.3142 -0.6927
vn -0.9749 0.2116 0.0686
vn 0.6069 0.7345 -0.3036
vn -0.6410 -0.5073 0.5759
vn 0.6623 0.7088 -0.2428
vn -0.2105 0.9707 0.1161
vn 0.0407 -0.5220 0.8519
vn -0.8603 0.4412 -0.2555
vn 0.8534 0.4603 0.2445
vn 0.5993 -0.0064 -0.8005
vn -0.3432 -0.6767 -0.6513
vn -0.2831 0.7110 -0.6437
vn 0.1205 0.9742 0.1908
vn 0.0523 0.7787 -0.6252
vn 0.7080 -0.5557 0.4358
vn 0.5193 0.5074 -0.6876
vn -0.2032 -0.4412 0.8741
vn 0.9028 0.2495 -0.3502
vn -0.6826 0.2981 -0.6673
vn 0.7032 0.2452 0.6674
vn 0.5235 -0.5153 -0.6786
vn 0.9707 0.0077 0.2403
vn -0.4415 0.6378 0.6311
vn -0.7475 -0.4821 -0.4570
vn -0.3545 0.4447 -0.8225
vn -0.9543 -0.2615 -0.1449
vn 0.0958 -0.6918 0.7157
vn -0.6466 0.7580 0.0851
vn -0.5185 -0.8541 -0.0401
vn 0.3446 -0.9111 -0.2264
vn 0.0368 0.6767 -0.7353
vn -0.6016 0.5305 0.5972
vn 0.2842 -0.8683 0.4065
vn -0.8483 0.3037 0.4337
vn -0.7345 -0.0058 -0.6786
vn 0.3020 0.8493 0.4329
vn -0.7059 0.6632 0.2488
vn 0.0793 0.5569 0.8268
vn 0.6556 -0.0076 0.7550
vn 0.0601 -0.9758 0.2103
vn -0.6485 0.3679 0.6664
vn -0.0407 0.5220 -0.8519
vn 0.0077 -0.9707 -0.2403
vn -0.6810 -0.6918 -0.2403
vn -0.8140 -0.5446 -0.2021
vn 0.3383 -0.0321 0.9405
g CanonBalls_CanonBalls_Collor_Material
usemtl Collor_Material
s off
f 1/1/1 3/2/1 4/3/1
f 19/4/2 42/5/2 8/6/2
f 19/7/3 8/8/3 13/9/3
f 4/10/4 3/11/4 9/12/4
f 19/13/5 13/14/5 18/15/5
f 9/16/6 3/17/6 14/18/6
f 19/19/7 18/20/7 24/21/7
f 14/22/8 3/23/8 20/24/8
f 20/25/9 3/26/9 25/27/9
f 19/28/10 24/29/10 29/30/10
f 25/31/11 3/32/11 30/33/11
f 19/34/12 29/35/12 34/36/12
f 30/37/13 3/38/13 35/39/13
f 19/40/14 34/41/14 39/42/14
f 35/43/15 3/44/15 1/45/15
f 19/46/16 39/47/16 42/48/16
f 43/49/17 45/50/17 46/51/17
f 61/52/18 84/53/18 50/54/18
f 61/55/19 50/56/19 55/57/19
f 46/58/20 45/59/20 51/60/20
f 61/61/21 55/62/21 60/63/21
f 51/64/22 45/65/22 56/66/22
f 61/67/23 60/68/23 66/69/23
f 56/70/24 45/71/24 62/72/24
f 62/73/25 45/74/25 67/75/25
f 61/76/26 66/77/26 71/78/26
f 67/79/27 45/80/27 72/81/27
f 61/82/28 71/83/28 76/84/28
f 72/85/29 45/86/29 77/87/29
f 61/88/30 76/89/30 81/90/30
f 77/91/31 45/92/31 43/93/31
f 61/94/32 81/95/32 84/96/32
f 85/97/33 87/98/33 88/99/33
f 103/100/34 126/101/34 92/102/34
f 103/103/35 92/104/35 97/105/35
f 88/106/36 87/107/36 93/108/36
f 103/109/37 97/110/37 102/111/37
f 93/112/38 87/113/38 98/114/38
f 103/115/39 102/116/39 108/117/39
f 98/118/40 87/119/40 104/120/40
f 104/121/41 87/122/41 109/123/41
f 103/124/42 108/125/42 113/126/42
f 109/127/43 87/128/43 114/129/43
f 103/130/44 113/131/44 118/132/44
f 114/133/45 87/134/45 119/135/45
f 103/136/46 118/137/46 123/138/46
f 119/139/47 87/140/47 85/141/47
f 103/142/48 123/143/48 126/144/48
f 127/145/49 129/146/49 130/147/49
f 145/148/50 168/149/50 134/150/50
f 145/151/51 134/152/51 139/153/51
f 130/154/52 129/155/52 135/156/52
f 145/157/53 139/158/53 144/159/53
f 135/160/54 129/161/54 140/162/54
f 145/163/55 144/164/55 150/165/55
f 140/166/56 129/167/56 146/168/56
f 146/169/57 129/170/57 151/171/57
f 145/172/58 150/173/58 155/174/58
f 151/175/59 129/176/59 156/177/59
f 145/178/60 155/179/60 160/180/60
f 156/181/61 129/182/61 161/183/61
f 145/184/62 160/185/62 165/186/62
f 161/187/63 129/188/63 127/189/63
f 145/190/64 165/191/64 168/192/64
f 169/193/65 171/194/65 172/195/65
f 187/196/66 210/197/66 176/198/66
f 187/199/67 176/200/67 181/201/67
f 172/202/68 171/203/68 177/204/68
f 187/205/69 181/206/69 186/207/69
f 177/208/70 171/209/70 182/210/70
f 187/211/71 186/212/71 192/213/71
f 182/214/72 171/215/72 188/216/72
f 188/217/73 171/218/73 193/219/73
f 187/220/74 192/221/74 197/222/74
f 193/223/75 171/224/75 198/225/75
f 187/226/76 197/227/76 202/228/76
f 198/229/77 171/230/77 203/231/77
f 187/232/78 202/233/78 207/234/78
f 203/235/79 171/236/79 169/237/79
f 187/238/80 207/239/80 210/240/80
f 211/241/81 213/242/81 214/243/81
f 229/244/82 252/245/82 218/246/82
f 229/247/83 218/248/83 223/249/83
f 214/250/84 213/251/84 219/252/84
f 229/253/85 223/254/85 228/255/85
f 219/256/86 213/257/86 224/258/86
f 229/259/87 228/260/87 234/261/87
f 224/262/88 213/263/88 230/264/88
f 230/265/89 213/266/89 235/267/89
f 229/268/90 234/269/90 239/270/90
f 235/271/91 213/272/91 240/273/91
f 229/274/92 239/275/92 244/276/92
f 240/277/93 213/278/93 245/279/93
f 229/280/94 244/281/94 249/282/94
f 245/283/95 213/284/95 211/285/95
f 229/286/96 249/287/96 252/288/96
f 253/289/97 255/290/97 256/291/97
f 271/292/98 294/293/98 260/294/98
f 271/295/99 260/296/99 265/297/99
f 256/298/100 255/299/100 261/300/100
f 271/301/101 265/302/101 270/303/101
f 261/304/102 255/305/102 266/306/102
f 271/307/103 270/308/103 276/309/103
f 266/310/104 255/311/104 272/312/104
f 272/313/105 255/314/105 277/315/105
f 271/316/106 276/317/106 281/318/106
f 277/319/107 255/320/107 282/321/107
f 271/322/108 281/323/108 286/324/108
f 282/325/109 255/326/109 287/327/109
f 271/328/110 286/329/110 291/330/110
f 287/331/111 255/332/111 253/333/111
f 271/334/112 291/335/112 294/336/112
f 295/337/113 297/338/113 298/339/113
f 313/340/114 336/341/114 302/342/114
f 313/343/115 302/344/115 307/345/115
f 298/346/116 297/347/116 303/348/116
f 313/349/117 307/350/117 312/351/117
f 303/352/118 297/353/118 308/354/118
f 313/355/119 312/356/119 318/357/119
f 308/358/120 297/359/120 314/360/120
f 314/361/121 297/362/121 319/363/121
f 313/364/122 318/365/122 323/366/122
f 319/367/123 297/368/123 324/369/123
f 313/370/124 323/371/124 328/372/124
f 324/373/125 297/374/125 329/375/125
f 313/376/126 328/377/126 333/378/126
f 329/379/127 297/380/127 295/381/127
f 313/382/128 333/383/128 336/384/128
f 337/385/129 339/386/129 340/387/129
f 355/388/130 378/389/130 344/390/130
f 355/391/131 344/392/131 349/393/131
f 340/394/132 339/395/132 345/396/132
f 355/397/133 349/398/133 354/399/133
f 345/400/134 339/401/134 350/402/134
f 355/403/135 354/404/135 360/405/135
f 350/406/136 339/407/136 356/408/136
f 356/409/137 339/410/137 361/411/137
f 355/412/138 360/413/138 365/414/138
f 361/415/139 339/416/139 366/417/139
f 355/418/140 365/419/140 370/420/140
f 366/421/141 339/422/141 371/423/141
f 355/424/142 370/425/142 375/426/142
f 371/427/143 339/428/143 337/429/143
f 355/430/144 375/431/144 378/432/144
f 379/433/145 381/434/145 382/435/145
f 397/436/146 420/437/146 386/438/146
f 397/439/147 386/440/147 391/441/147
f 382/442/148 381/443/148 387/444/148
f 397/445/149 391/446/149 396/447/149
f 387/448/150 381/449/150 392/450/150
f 397/451/151 396/452/151 402/453/151
f 392/454/152 381/455/152 398/456/152
f 398/457/153 381/458/153 403/459/153
f 397/460/154 402/461/154 407/462/154
f 403/463/155 381/464/155 408/465/155
f 397/466/156 407/467/156 412/468/156
f 408/469/157 381/470/157 413/471/157
f 397/472/158 412/473/158 417/474/158
f 413/475/159 381/476/159 379/477/159
f 397/478/160 417/479/160 420/480/160
f 42/481/161 39/482/161 38/483/161 2/484/161
f 331/485/162 326/486/162 325/487/162 330/488/162
f 321/489/163 322/490/163 317/491/163 316/492/163
f 86/493/164 126/494/164 123/495/164 122/496/164
f 247/497/165 242/498/165 241/499/165 246/500/165
f 348/501/166 349/502/166 344/503/166 343/504/166
f 325/505/167 320/506/167 319/507/167 324/508/167
f 112/509/168 107/510/168 106/511/168 111/512/168
f 22/513/169 23/514/169 17/515/169 16/516/169
f 350/517/170 351/518/170 346/519/170 345/520/170
f 417/521/171 412/522/171 411/523/171 416/524/171
f 70/525/172 65/526/172 64/527/172 69/528/172
f 141/529/173 142/530/173 137/531/173 136/532/173
f 241/533/174 236/534/174 235/535/174 240/536/174
f 336/537/175 333/538/175 332/539/175 296/540/175
f 27/541/176 22/542/176 21/543/176 26/544/176
f 400/545/177 401/546/177 395/547/177 394/548/177
f 56/549/178 57/550/178 52/551/178 51/552/178
f 360/553/179 354/554/179 353/555/179 359/556/179
f 362/557/180 363/558/180 358/559/180 357/560/180
f 337/561/181 376/562/181 372/563/181 371/564/181
f 15/565/182 10/566/182 9/567/182 14/568/182
f 280/569/183 275/570/183 274/571/183 279/572/183
f 263/573/184 258/574/184 257/575/184 262/576/184
f 107/577/185 108/578/185 102/579/185 101/580/185
f 251/581/186 247/582/186 246/583/186 250/584/186
f 273/585/187 274/586/187 268/587/187 267/588/187
f 55/589/188 50/590/188 49/591/188 54/592/188
f 43/593/189 82/594/189 78/595/189 77/596/189
f 416/597/190 411/598/190 410/599/190 415/600/190
f 94/601/191 95/602/191 90/603/191 89/604/191
f 34/605/192 29/606/192 28/607/192 33/608/192
f 266/609/193 267/610/193 262/611/193 261/612/193
f 54/613/194 49/614/194 48/615/194 53/616/194
f 389/617/195 384/618/195 383/619/195 388/620/195
f 7/621/196 8/622/196 42/623/196 2/624/196
f 264/625/197 259/626/197 258/627/197 263/628/197
f 119/629/198 120/630/198 115/631/198 114/632/198
f 409/633/199 404/634/199 403/635/199 408/636/199
f 231/637/200 232/638/200 226/639/200 225/640/200
f 178/641/201 179/642/201 174/643/201 173/644/201
f 227/645/202 228/646/202 223/647/202 222/648/202
f 332/649/203 333/650/203 328/651/203 327/652/203
f 158/653/204 153/654/204 152/655/204 157/656/204
f 309/657/205 310/658/205 305/659/205 304/660/205
f 283/661/206 278/662/206 277/663/206 282/664/206
f 374/665/207 375/666/207 370/667/207 369/668/207
f 205/669/208 200/670/208 199/671/208 204/672/208
f 44/673/209 80/674/209 79/675/209 83/676/209
f 140/677/210 141/678/210 136/679/210 135/680/210
f 94/681/211 89/682/211 88/683/211 93/684/211
f 59/685/212 54/686/212 53/687/212 58/688/212
f 136/689/213 131/690/213 130/691/213 135/692/213
f 365/693/214 360/694/214 359/695/214 364/696/214
f 48/697/215 83/698/215 82/699/215 47/700/215
f 380/701/216 416/702/216 415/703/216 419/704/216
f 29/705/217 24/706/217 23/707/217 28/708/217
f 278/709/218 279/710/218 274/711/218 273/712/218
f 283/713/219 284/714/219 279/715/219 278/716/219
f 367/717/220 362/718/220 361/719/220 366/720/220
f 134/721/221 168/722/221 128/723/221 133/724/221
f 237/725/222 232/726/222 231/727/222 236/728/222
f 79/729/223 74/730/223 73/731/223 78/732/223
f 1/733/224 40/734/224 36/735/224 35/736/224
f 330/737/225 325/738/225 324/739/225 329/740/225
f 267/741/226 268/742/226 263/743/226 262/744/226
f 89/745/227 90/746/227 125/747/227 124/748/227
f 278/749/228 273/750/228 272/751/228 277/752/228
f 351/753/229 352/754/229 347/755/229 346/756/229
f 92/757/230 126/758/230 86/759/230 91/760/230
f 288/761/231 283/762/231 282/763/231 287/764/231
f 106/765/232 100/766/232 99/767/232 105/768/232
f 258/769/233 293/770/233 292/771/233 257/772/233
f 10/773/234 5/774/234 4/775/234 9/776/234
f 160/777/235 155/778/235 154/779/235 159/780/235
f 152/781/236 153/782/236 148/783/236 147/784/236
f 65/785/237 59/786/237 58/787/237 64/788/237
f 357/789/238 351/790/238 350/791/238 356/792/238
f 105/793/239 99/794/239 98/795/239 104/796/239
f 12/797/240 7/798/240 6/799/240 11/800/240
f 208/801/241 209/802/241 205/803/241 204/804/241
f 414/805/242 409/806/242 408/807/242 413/808/242
f 391/809/243 386/810/243 385/811/243 390/812/243
f 353/813/244 348/814/244 347/815/244 352/816/244
f 315/817/245 309/818/245 308/819/245 314/820/245
f 231/821/246 225/822/246 224/823/246 230/824/246
f 189/825/247 190/826/247 184/827/247 183/828/247
f 131/829/248 132/830/248 167/831/248 166/832/248
f 113/833/249 108/834/249 107/835/249 112/836/249
f 122/837/250 117/838/250 116/839/250 121/840/250
f 170/841/251 206/842/251 205/843/251 209/844/251
f 290/845/252 291/846/252 286/847/252 285/848/252
f 308/849/253 309/850/253 304/851/253 303/852/253
f 174/853/254 209/854/254 208/855/254 173/856/254
f 225/857/255 226/858/255 221/859/255 220/860/255
f 52/861/256 47/862/256 46/863/256 51/864/256
f 5/865/257 40/866/257 1/867/257 4/868/257
f 17/869/258 12/870/258 11/871/258 16/872/258
f 419/873/259 415/874/259 414/875/259 418/876/259
f 302/877/260 336/878/260 296/879/260 301/880/260
f 199/881/261 200/882/261 195/883/261 194/884/261
f 215/885/262 250/886/262 211/887/262 214/888/262
f 73/889/263 68/890/263 67/891/263 72/892/263
f 69/893/264 64/894/264 63/895/264 68/896/264
f 185/897/265 180/898/265 179/899/265 184/900/265
f 353/901/266 354/902/266 349/903/266 348/904/266
f 96/905/267 97/906/267 92/907/267 91/908/267
f 107/909/268 101/910/268 100/911/268 106/912/268
f 91/913/269 86/914/269 125/915/269 90/916/269
f 248/917/270 249/918/270 244/919/270 243/920/270
f 298/921/271 299/922/271 334/923/271 295/924/271
f 138/925/272 133/926/272 132/927/272 137/928/272
f 216/929/273 217/930/273 212/931/273 251/932/273
f 109/933/274 110/934/274 105/935/274 104/936/274
f 192/937/275 186/938/275 185/939/275 191/940/275
f 347/941/276 348/942/276 343/943/276 342/944/276
f 176/945/277 210/946/277 170/947/277 175/948/277
f 162/949/278 157/950/278 156/951/278 161/952/278
f 377/953/279 373/954/279 372/955/279 376/956/279
f 310/957/280 311/958/280 306/959/280 305/960/280
f 370/961/281 365/962/281 364/963/281 369/964/281
f 385/965/282 380/966/282 419/967/282 384/968/282
f 226/969/283 227/970/283 222/971/283 221/972/283
f 31/973/284 26/974/284 25/975/284 30/976/284
f 199/977/285 194/978/285 193/979/285 198/980/285
f 338/981/286 374/982/286 373/983/286 377/984/286
f 368/985/287 363/986/287 362/987/287 367/988/287
f 65/989/288 66/990/288 60/991/288 59/992/288
f 21/993/289 15/994/289 14/995/289 20/996/289
f 159/997/290 154/998/290 153/999/290 158/1000/290
f 300/1001/291 335/1002/291 334/1003/291 299/1004/291
f 387/1005/292 388/1006/292 383/1007/292 382/1008/292
f 410/1009/293 405/1010/293 404/1011/293 409/1012/293
f 220/1013/294 215/1014/294 214/1015/294 219/1016/294
f 223/1017/295 218/1018/295 217/1019/295 222/1020/295
f 259/1021/296 254/1022/296 293/1023/296 258/1024/296
f 163/1025/297 158/1026/297 157/1027/297 162/1028/297
f 286/1029/298 281/1030/298 280/1031/298 285/1032/298
f 371/1033/299 372/1034/299 367/1035/299 366/1036/299
f 142/1037/300 143/1038/300 138/1039/300 137/1040/300
f 63/1041/301 64/1042/301 58/1043/301 57/1044/301
f 168/1045/302 165/1046/302 164/1047/302 128/1048/302
f 172/1049/303 173/1050/303 208/1051/303 169/1052/303
f 147/1053/304 148/1054/304 142/1055/304 141/1056/304
f 315/1057/305 316/1058/305 310/1059/305 309/1060/305
f 155/1061/306 150/1062/306 149/1063/306 154/1064/306
f 233/1065/307 234/1066/307 228/1067/307 227/1068/307
f 321/1069/308 316/1070/308 315/1071/308 320/1072/308
f 269/1073/309 270/1074/309 265/1075/309 264/1076/309
f 362/1077/310 357/1078/310 356/1079/310 361/1080/310
f 332/1081/311 327/1082/311 326/1083/311 331/1084/311
f 205/1085/312 206/1086/312 201/1087/312 200/1088/312
f 164/1089/313 165/1090/313 160/1091/313 159/1092/313
f 393/1093/314 394/1094/314 389/1095/314 388/1096/314
f 326/1097/315 327/1098/315 322/1099/315 321/1100/315
f 152/1101/316 147/1102/316 146/1103/316 151/1104/316
f 157/1105/317 152/1106/317 151/1107/317 156/1108/317
f 83/1109/318 79/1110/318 78/1111/318 82/1112/318
f 196/1113/319 191/1114/319 190/1115/319 195/1116/319
f 304/1117/320 299/1118/320 298/1119/320 303/1120/320
f 76/1121/321 71/1122/321 70/1123/321 75/1124/321
f 100/1125/322 101/1126/322 96/1127/322 95/1128/322
f 136/1129/323 137/1130/323 132/1131/323 131/1132/323
f 218/1133/324 252/1134/324 212/1135/324 217/1136/324
f 347/1137/325 342/1138/325 341/1139/325 346/1140/325
f 260/1141/326 294/1142/326 254/1143/326 259/1144/326
f 166/1145/327 162/1146/327 161/1147/327 127/1148/327
f 300/1149/328 301/1150/328 296/1151/328 335/1152/328
f 394/1153/329 395/1154/329 390/1155/329 389/1156/329
f 35/1157/330 36/1158/330 31/1159/330 30/1160/330
f 89/1161/331 124/1162/331 85/1163/331 88/1164/331
f 383/1165/332 384/1166/332 419/1167/332 418/1168/332
f 248/1169/333 243/1170/333 242/1171/333 247/1172/333
f 12/1173/334 13/1174/334 8/1175/334 7/1176/334
f 318/1177/335 312/1178/335 311/1179/335 317/1180/335
f 128/1181/336 164/1182/336 163/1183/336 167/1184/336
f 399/1185/337 400/1186/337 394/1187/337 393/1188/337
f 256/1189/338 257/1190/338 292/1191/338 253/1192/338
f 402/1193/339 396/1194/339 395/1195/339 401/1196/339
f 96/1197/340 91/1198/340 90/1199/340 95/1200/340
f 250/1201/341 246/1202/341 245/1203/341 211/1204/341
f 147/1205/342 141/1206/342 140/1207/342 146/1208/342
f 166/1209/343 167/1210/343 163/1211/343 162/1212/343
f 163/1213/344 164/1214/344 159/1215/344 158/1216/344
f 328/1217/345 323/1218/345 322/1219/345 327/1220/345
f 74/1221/346 69/1222/346 68/1223/346 73/1224/346
f 268/1225/347 269/1226/347 264/1227/347 263/1228/347
f 115/1229/348 110/1230/348 109/1231/348 114/1232/348
f 189/1233/349 183/1234/349 182/1235/349 188/1236/349
f 41/1237/350 2/1238/350 38/1239/350 37/1240/350
f 306/1241/351 301/1242/351 300/1243/351 305/1244/351
f 63/1245/352 57/1246/352 56/1247/352 62/1248/352
f 311/1249/353 312/1250/353 307/1251/353 306/1252/353
f 191/1253/354 185/1254/354 184/1255/354 190/1256/354
f 195/1257/355 190/1258/355 189/1259/355 194/1260/355
f 378/1261/356 375/1262/356 374/1263/356 338/1264/356
f 80/1265/357 75/1266/357 74/1267/357 79/1268/357
f 71/1269/358 66/1270/358 65/1271/358 70/1272/358
f 212/1273/359 252/1274/359 249/1275/359 248/1276/359
f 405/1277/360 400/1278/360 399/1279/360 404/1280/360
f 275/1281/361 269/1282/361 268/1283/361 274/1284/361
f 320/1285/362 315/1286/362 314/1287/362 319/1288/362
f 182/1289/363 183/1290/363 178/1291/363 177/1292/363
f 405/1293/364 406/1294/364 401/1295/364 400/1296/364
f 243/1297/365 238/1298/365 237/1299/365 242/1300/365
f 265/1301/366 260/1302/366 259/1303/366 264/1304/366
f 239/1305/367 234/1306/367 233/1307/367 238/1308/367
f 37/1309/368 32/1310/368 31/1311/368 36/1312/368
f 37/1313/369 38/1314/369 33/1315/369 32/1316/369
f 143/1317/370 144/1318/370 139/1319/370 138/1320/370
f 197/1321/371 192/1322/371 191/1323/371 196/1324/371
f 296/1325/372 332/1326/372 331/1327/372 335/1328/372
f 84/1329/373 81/1330/373 80/1331/373 44/1332/373
f 139/1333/374 134/1334/374 133/1335/374 138/1336/374
f 7/1337/375 2/1338/375 41/1339/375 6/1340/375
f 132/1341/376 133/1342/376 128/1343/376 167/1344/376
f 98/1345/377 99/1346/377 94/1347/377 93/1348/377
f 411/1349/378 406/1350/378 405/1351/378 410/1352/378
f 359/1353/379 353/1354/379 352/1355/379 358/1356/379
f 398/1357/380 399/1358/380 393/1359/380 392/1360/380
f 185/1361/381 186/1362/381 181/1363/381 180/1364/381
f 31/1365/382 32/1366/382 27/1367/382 26/1368/382
f 358/1369/383 352/1370/383 351/1371/383 357/1372/383
f 386/1373/384 420/1374/384 380/1375/384 385/1376/384
f 178/1377/385 173/1378/385 172/1379/385 177/1380/385
f 201/1381/386 196/1382/386 195/1383/386 200/1384/386
f 215/1385/387 216/1386/387 251/1387/387 250/1388/387
f 292/1389/388 288/1390/388 287/1391/388 253/1392/388
f 241/1393/389 242/1394/389 237/1395/389 236/1396/389
f 407/1397/390 402/1398/390 401/1399/390 406/1400/390
f 131/1401/391 166/1402/391 127/1403/391 130/1404/391
f 289/1405/392 290/1406/392 285/1407/392 284/1408/392
f 233/1409/393 227/1410/393 226/1411/393 232/1412/393
f 26/1413/394 21/1414/394 20/1415/394 25/1416/394
f 149/1417/395 150/1418/395 144/1419/395 143/1420/395
f 285/1421/396 280/1422/396 279/1423/396 284/1424/396
f 86/1425/397 122/1426/397 121/1427/397 125/1428/397
f 101/1429/398 102/1430/398 97/1431/398 96/1432/398
f 323/1433/399 318/1434/399 317/1435/399 322/1436/399
f 116/1437/400 111/1438/400 110/1439/400 115/1440/400
f 342/1441/401 377/1442/401 376/1443/401 341/1444/401
f 343/1445/402 344/1446/402 378/1447/402 338/1448/402
f 275/1449/403 276/1450/403 270/1451/403 269/1452/403
f 40/1453/404 41/1454/404 37/1455/404 36/1456/404
f 224/1457/405 225/1458/405 220/1459/405 219/1460/405
f 380/1461/406 420/1462/406 417/1463/406 416/1464/406
f 121/1465/407 116/1466/407 115/1467/407 120/1468/407
f 149/1469/408 143/1470/408 142/1471/408 148/1472/408
f 68/1473/409 63/1474/409 62/1475/409 67/1476/409
f 335/1477/410 331/1478/410 330/1479/410 334/1480/410
f 222/1481/411 217/1482/411 216/1483/411 221/1484/411
f 345/1485/412 346/1486/412 341/1487/412 340/1488/412
f 307/1489/413 302/1490/413 301/1491/413 306/1492/413
f 10/1493/414 11/1494/414 6/1495/414 5/1496/414
f 22/1497/415 16/1498/415 15/1499/415 21/1500/415
f 180/1501/416 181/1502/416 176/1503/416 175/1504/416
f 47/1505/417 82/1506/417 43/1507/417 46/1508/417
f 6/1509/418 41/1510/418 40/1511/418 5/1512/418
f 74/1513/419 75/1514/419 70/1515/419 69/1516/419
f 236/1517/420 231/1518/420 230/1519/420 235/1520/420
f 111/1521/421 106/1522/421 105/1523/421 110/1524/421
f 123/1525/422 118/1526/422 117/1527/422 122/1528/422
f 245/1529/423 246/1530/423 241/1531/423 240/1532/423
f 364/1533/424 359/1534/424 358/1535/424 363/1536/424
f 254/1537/425 290/1538/425 289/1539/425 293/1540/425
f 124/1541/426 120/1542/426 119/1543/426 85/1544/426
f 17/1545/427 18/1546/427 13/1547/427 12/1548/427
f 289/1549/428 284/1550/428 283/1551/428 288/1552/428
f 117/1553/429 112/1554/429 111/1555/429 116/1556/429
f 118/1557/430 113/1558/430 112/1559/430 117/1560/430
f 273/1561/431 267/1562/431 266/1563/431 272/1564/431
f 305/1565/432 300/1566/432 299/1567/432 304/1568/432
f 373/1569/433 374/1570/433 369/1571/433 368/1572/433
f 50/1573/434 84/1574/434 44/1575/434 49/1576/434
f 334/1577/435 330/1578/435 329/1579/435 295/1580/435
f 154/1581/436 149/1582/436 148/1583/436 153/1584/436
f 341/1585/437 376/1586/437 337/1587/437 340/1588/437
f 392/1589/438 393/1590/438 388/1591/438 387/1592/438
f 58/1593/439 53/1594/439 52/1595/439 57/1596/439
f 343/1597/440 338/1598/440 377/1599/440 342/1600/440
f 77/1601/441 78/1602/441 73/1603/441 72/1604/441
f 293/1605/442 289/1606/442 288/1607/442 292/1608/442
f 212/1609/443 248/1610/443 247/1611/443 251/1612/443
f 412/1613/444 407/1614/444 406/1615/444 411/1616/444
f 261/1617/445 262/1618/445 257/1619/445 256/1620/445
f 415/1621/446 410/1622/446 409/1623/446 414/1624/446
f 53/1625/447 48/1626/447 47/1627/447 52/1628/447
f 204/1629/448 199/1630/448 198/1631/448 203/1632/448
f 395/1633/449 396/1634/449 391/1635/449 390/1636/449
f 125/1637/450 121/1638/450 120/1639/450 124/1640/450
f 316/1641/451 317/1642/451 311/1643/451 310/1644/451
f 194/1645/452 189/1646/452 188/1647/452 193/1648/452
f 238/1649/453 233/1650/453 232/1651/453 237/1652/453
f 281/1653/454 276/1654/454 275/1655/454 280/1656/454
f 23/1657/455 24/1658/455 18/1659/455 17/1660/455
f 16/1661/456 11/1662/456 10/1663/456 15/1664/456
f 206/1665/457 207/1666/457 202/1667/457 201/1668/457
f 404/1669/458 399/1670/458 398/1671/458 403/1672/458
f 208/1673/459 204/1674/459 203/1675/459 169/1676/459
f 174/1677/460 175/1678/460 170/1679/460 209/1680/460
f 369/1681/461 364/1682/461 363/1683/461 368/1684/461
f 418/1685/462 414/1686/462 413/1687/462 379/1688/462
f 180/1689/463 175/1690/463 174/1691/463 179/1692/463
f 183/1693/464 184/1694/464 179/1695/464 178/1696/464
f 244/1697/465 239/1698/465 238/1699/465 243/1700/465
f 383/1701/466 418/1702/466 379/1703/466 382/1704/466
f 221/1705/467 216/1706/467 215/1707/467 220/1708/467
f 210/1709/468 207/1710/468 206/1711/468 170/1712/468
f 39/1713/469 34/1714/469 33/1715/469 38/1716/469
f 325/1717/470 326/1718/470 321/1719/470 320/1720/470
f 48/1721/471 49/1722/471 44/1723/471 83/1724/471
f 202/1725/472 197/1726/472 196/1727/472 201/1728/472
f 372/1729/473 373/1730/473 368/1731/473 367/1732/473
f 99/1733/474 100/1734/474 95/1735/474 94/1736/474
f 254/1737/475 294/1738/475 291/1739/475 290/1740/475
f 59/1741/476 60/1742/476 55/1743/476 54/1744/476
f 28/1745/477 23/1746/477 22/1747/477 27/1748/477
f 32/1749/478 33/1750/478 28/1751/478 27/1752/478
f 81/1753/479 76/1754/479 75/1755/479 80/1756/479
f 390/1757/480 385/1758/480 384/1759/480 389/1760/480
