# Blender v3.0.0 OBJ File: 'aa.blend'
# www.blender.org
mtllib CanonBall.mtl
o CanonBall
v -0.140398 0.053143 -0.105981
v 0.118390 0.054083 -0.129717
v -0.180783 0.018982 -0.026924
v -0.142897 0.101573 -0.055055
v -0.066722 0.156948 -0.068434
v 0.027331 0.170268 -0.063477
v 0.114061 0.137966 -0.041510
v 0.170228 0.068696 -0.008422
v -0.153401 0.100132 0.014463
v -0.084916 0.154452 0.051974
v 0.006322 0.167387 0.075559
v 0.095867 0.135471 0.078898
v 0.159724 0.067255 0.061096
v -0.165758 0.049665 0.061850
v -0.106318 0.067041 0.134051
v -0.018390 0.066453 0.170333
v 0.074465 0.048059 0.160975
v 0.147367 0.016788 0.108483
v 0.180783 -0.018982 0.026924
v -0.172727 -0.020266 0.059348
v -0.118390 -0.054083 0.129717
v -0.032330 -0.073409 0.165329
v 0.062393 -0.073065 0.156641
v 0.140398 -0.053143 0.105981
v -0.170228 -0.068695 0.008422
v -0.114061 -0.137966 0.041511
v -0.027331 -0.170268 0.063477
v 0.066722 -0.156948 0.068434
v 0.142897 -0.101573 0.055055
v -0.159724 -0.067255 -0.061096
v -0.095867 -0.135471 -0.078898
v -0.006322 -0.167387 -0.075559
v 0.084916 -0.154452 -0.051974
v 0.153401 -0.100132 -0.014463
v -0.147368 -0.016788 -0.108483
v -0.074465 -0.048059 -0.160975
v 0.018390 -0.066453 -0.170333
v 0.106318 -0.067041 -0.134051
v 0.165758 -0.049665 -0.061850
v -0.062393 0.073065 -0.156641
v 0.032330 0.073409 -0.165329
v 0.172727 0.020266 -0.059348
vt 0.126036 0.827480
vt 0.210474 0.738150
vt 0.210474 0.861071
vt 0.367527 0.919116
vt 0.481742 0.873679
vt 0.481742 0.964553
vt 0.884545 0.884639
vt 0.998760 0.839202
vt 0.998760 0.930076
vt 0.824991 0.803131
vt 0.909429 0.713801
vt 0.909429 0.836722
vt 0.250833 0.919116
vt 0.365047 0.873679
vt 0.365047 0.964553
vt 0.951289 0.345346
vt 0.951289 0.468267
vt 0.866851 0.378937
vt 0.001240 0.919116
vt 0.115455 0.873679
vt 0.115455 0.964553
vt 0.943326 0.553923
vt 0.943326 0.676844
vt 0.858888 0.587514
vt 0.981066 0.276342
vt 0.866851 0.230905
vt 0.981066 0.185468
vt 0.767851 0.884638
vt 0.882066 0.839202
vt 0.882066 0.930076
vt 0.598437 0.964553
vt 0.484222 0.919116
vt 0.598437 0.873679
vt 0.126036 0.908988
vt 0.240251 0.863551
vt 0.240251 0.954425
vt 0.765371 0.930076
vt 0.651156 0.884639
vt 0.765371 0.839202
vt 0.735594 0.713801
vt 0.735594 0.836722
vt 0.651156 0.803131
vt 0.822511 0.713801
vt 0.822511 0.836722
vt 0.738074 0.747392
vt 0.951289 0.025590
vt 0.951289 0.148511
vt 0.866851 0.114920
vt 0.369168 0.871199
vt 0.250833 0.837937
vt 0.250833 0.747063
vt 0.369168 0.713801
vt 0.497946 0.367215
vt 0.375629 0.355041
vt 0.375629 0.197643
vt 0.497946 0.185468
vt 0.123556 0.539268
vt 0.001240 0.551443
vt 0.001240 0.369695
vt 0.123557 0.381870
vt 0.625222 0.493831
vt 0.625222 0.402957
vt 0.743557 0.369695
vt 0.743557 0.527093
vt 0.250833 0.182988
vt 0.250833 0.001240
vt 0.373149 0.013415
vt 0.373149 0.170813
vt 0.746036 0.469482
vt 0.746036 0.378608
vt 0.864371 0.345346
vt 0.864371 0.502744
vt 0.864372 0.149726
vt 0.746036 0.182988
vt 0.746037 0.025590
vt 0.864372 0.058852
vt 0.375629 0.551443
vt 0.375629 0.369695
vt 0.497946 0.381870
vt 0.497946 0.539268
vt 0.496444 0.747063
vt 0.614779 0.713801
vt 0.614779 0.871199
vt 0.496444 0.837937
vt 0.625222 0.125376
vt 0.625222 0.034502
vt 0.743557 0.001240
vt 0.743557 0.158638
vt 0.001240 0.837937
vt 0.001240 0.747063
vt 0.119575 0.713801
vt 0.119575 0.871199
vt 0.375629 0.001240
vt 0.497946 0.013415
vt 0.497946 0.170813
vt 0.375629 0.182988
vt 0.126036 0.182988
vt 0.126036 0.001240
vt 0.248353 0.013415
vt 0.248353 0.170813
vt 0.743557 0.342866
vt 0.625222 0.309604
vt 0.625222 0.218730
vt 0.743557 0.185468
vt 0.500425 0.355041
vt 0.500425 0.197642
vt 0.622742 0.185468
vt 0.622742 0.367215
vt 0.500425 0.182988
vt 0.500425 0.001240
vt 0.622742 0.013415
vt 0.622742 0.170813
vt 0.614779 0.553923
vt 0.614779 0.711321
vt 0.496444 0.678059
vt 0.496444 0.587185
vt 0.617259 0.587185
vt 0.735594 0.553923
vt 0.735594 0.711321
vt 0.617259 0.678059
vt 0.126037 0.355041
vt 0.126036 0.197642
vt 0.248353 0.185468
vt 0.248353 0.367215
vt 0.738074 0.678059
vt 0.738074 0.587185
vt 0.856409 0.553923
vt 0.856409 0.711321
vt 0.250833 0.587185
vt 0.369168 0.553923
vt 0.369168 0.711321
vt 0.250833 0.678059
vt 0.373149 0.185468
vt 0.373149 0.367215
vt 0.250833 0.355041
vt 0.250833 0.197642
vt 0.001240 0.170813
vt 0.001240 0.013414
vt 0.123557 0.001240
vt 0.123557 0.182988
vt 0.493964 0.553923
vt 0.493964 0.711321
vt 0.375629 0.678059
vt 0.375629 0.587185
vt 0.126036 0.566097
vt 0.248353 0.553923
vt 0.248353 0.735671
vt 0.126036 0.723496
vt 0.126036 0.539268
vt 0.126036 0.381870
vt 0.248353 0.369695
vt 0.248353 0.551443
vt 0.864371 0.185468
vt 0.864371 0.342866
vt 0.746036 0.309604
vt 0.746036 0.218730
vt 0.119575 0.553923
vt 0.119575 0.711321
vt 0.001240 0.678059
vt 0.001240 0.587185
vt 0.123557 0.197642
vt 0.123557 0.355041
vt 0.001240 0.367215
vt 0.001240 0.185468
vt 0.622742 0.551443
vt 0.500425 0.539268
vt 0.500425 0.381870
vt 0.622742 0.369695
vt 0.371648 0.837937
vt 0.371648 0.747063
vt 0.489983 0.713801
vt 0.489983 0.871199
vt 0.373149 0.369695
vt 0.373149 0.551443
vt 0.250833 0.539268
vt 0.250833 0.381870
vn -0.8959 0.2991 -0.3284
vn 0.9938 0.1007 -0.0470
vn 0.9725 0.1778 0.1506
vn -0.9173 0.3762 -0.1308
vn 0.9350 0.0926 0.3424
vn -0.9548 0.2910 0.0610
vn 0.9033 -0.1049 0.4161
vn -0.9865 0.0935 0.1346
vn -0.9938 -0.1007 0.0470
vn 0.8959 -0.2991 0.3284
vn -0.9725 -0.1778 -0.1506
vn 0.9173 -0.3762 0.1308
vn -0.9350 -0.0926 -0.3424
vn 0.9548 -0.2910 -0.0610
vn -0.9033 0.1049 -0.4161
vn 0.9865 -0.0935 -0.1346
vn 0.6415 0.4358 0.6313
vn 0.2019 0.6437 0.7382
vn -0.2709 0.6933 0.6678
vn 0.7967 0.4570 -0.3955
vn -0.3326 -0.9405 -0.0697
vn 0.5579 -0.0851 0.8255
vn -0.5385 0.5972 -0.5944
vn -0.0914 0.0447 -0.9948
vn -0.6937 0.5759 0.4325
vn 0.7773 -0.0550 -0.6267
vn 0.5385 -0.5972 0.5944
vn 0.0658 -0.7215 0.6893
vn -0.4070 -0.6718 0.6189
vn 0.7404 0.6603 0.1256
vn 0.3326 0.9405 0.0697
vn -0.0658 0.7215 -0.6893
vn -0.7404 -0.6603 -0.1256
vn -0.5948 0.8005 -0.0733
vn 0.4070 0.6718 -0.6189
vn 0.6937 -0.5759 -0.4325
vn -0.7773 0.0550 0.6267
vn -0.2019 -0.6437 -0.7382
vn 0.3814 -0.0049 -0.9244
vn -0.6415 -0.4358 -0.6313
vn -0.1402 0.9901 -0.0007
vn 0.1402 -0.9901 0.0007
vn -0.5579 0.0851 -0.8255
vn -0.7967 -0.4570 0.3955
vn 0.2709 -0.6933 -0.6678
vn 0.0914 -0.0447 0.9948
vn 0.5948 -0.8005 0.0733
vn -0.3814 0.0049 0.9244
g CanonBall_CanonBall_Collor_Material
usemtl Collor_Material
s off
f 1/1/1 3/2/1 4/3/1
f 19/4/2 42/5/2 8/6/2
f 19/7/3 8/8/3 13/9/3
f 4/10/4 3/11/4 9/12/4
f 19/13/5 13/14/5 18/15/5
f 9/16/6 3/17/6 14/18/6
f 19/19/7 18/20/7 24/21/7
f 14/22/8 3/23/8 20/24/8
f 20/25/9 3/26/9 25/27/9
f 19/28/10 24/29/10 29/30/10
f 25/31/11 3/32/11 30/33/11
f 19/34/12 29/35/12 34/36/12
f 30/37/13 3/38/13 35/39/13
f 19/40/14 34/41/14 39/42/14
f 35/43/15 3/44/15 1/45/15
f 19/46/16 39/47/16 42/48/16
f 17/49/17 18/50/17 13/51/17 12/52/17
f 16/53/18 17/54/18 12/55/18 11/56/18
f 15/57/19 16/58/19 11/59/19 10/60/19
f 8/61/20 42/62/20 2/63/20 7/64/20
f 32/65/21 27/66/21 26/67/21 31/68/21
f 24/69/22 18/70/22 17/71/22 23/72/22
f 4/73/23 5/74/23 40/75/23 1/76/23
f 41/77/24 37/78/24 36/79/24 40/80/24
f 14/81/25 15/82/25 10/83/25 9/84/25
f 42/85/26 39/86/26 38/87/26 2/88/26
f 29/89/27 24/90/27 23/91/27 28/92/27
f 27/93/28 28/94/28 23/95/28 22/96/28
f 27/97/29 22/98/29 21/99/29 26/100/29
f 12/101/30 13/102/30 8/103/30 7/104/30
f 12/105/31 7/106/31 6/107/31 11/108/31
f 6/109/32 41/110/32 40/111/32 5/112/32
f 31/113/33 26/114/33 25/115/33 30/116/33
f 9/117/34 10/118/34 5/119/34 4/120/34
f 7/121/35 2/122/35 41/123/35 6/124/35
f 39/125/36 34/126/36 33/127/36 38/128/36
f 20/129/37 21/130/37 15/131/37 14/132/37
f 37/133/38 32/134/38 31/135/38 36/136/38
f 2/137/39 38/138/39 37/139/39 41/140/39
f 36/141/40 31/142/40 30/143/40 35/144/40
f 10/145/41 11/146/41 6/147/41 5/148/41
f 33/149/42 28/150/42 27/151/42 32/152/42
f 40/153/43 36/154/43 35/155/43 1/156/43
f 26/157/44 21/158/44 20/159/44 25/160/44
f 38/161/45 33/162/45 32/163/45 37/164/45
f 22/165/46 23/166/46 17/167/46 16/168/46
f 34/169/47 29/170/47 28/171/47 33/172/47
f 22/173/48 16/174/48 15/175/48 21/176/48
