# Blender v3.0.0 OBJ File: 'aa.blend'
# www.blender.org
mtllib Column_V2_1.mtl
o Column_V2_1
v 0.328844 1.704351 -0.234468
v 0.265941 1.725055 -0.291537
v 0.266998 1.751797 -0.290822
v 0.328906 1.738620 -0.235017
v -0.321357 0.582248 -0.244095
v -0.267301 0.582744 -0.290708
v -0.248663 1.138160 -0.314778
v -0.318410 1.137549 -0.241747
v -0.316752 1.167890 -0.240695
v -0.251107 1.168785 -0.315064
v -0.247046 1.719295 -0.310228
v -0.321400 1.721598 -0.243572
v -0.321259 1.752674 -0.242833
v -0.247509 1.753677 -0.311008
v -0.252150 1.682305 0.322223
v -0.280385 1.680069 0.270558
v -0.319230 1.168430 0.246486
v -0.247851 1.167566 0.318801
v -0.248040 1.137845 0.317897
v -0.319111 1.137535 0.246366
v -0.325429 0.605881 0.251179
v -0.247785 0.576303 0.316855
v -0.246112 0.550641 0.315941
v -0.322220 0.553076 0.249052
v 0.196096 0.560577 0.319357
v 0.290316 0.553091 0.271280
v 0.302707 0.549998 -0.246015
v 0.217502 0.537693 -0.313341
v -0.250290 0.551467 -0.289524
v -0.318042 0.551335 -0.239460
v -0.247613 1.753805 0.318244
v -0.280342 1.751224 0.262492
v -0.186937 0.000000 0.364308
v -0.357878 0.000000 0.199132
v -0.283083 2.338774 0.312946
v -0.260473 2.339020 0.334644
v -0.361084 -0.000000 -0.240356
v -0.278346 -0.000000 -0.366222
v -0.279608 2.314677 -0.318243
v -0.333759 2.336769 -0.252783
v 0.338908 0.000000 0.276484
v 0.190227 0.000000 0.359088
v 0.236924 2.327344 0.285347
v 0.327997 2.346829 0.199965
v 0.235896 -0.000000 -0.351552
v 0.309489 -0.000000 -0.264856
v 0.333706 2.300600 -0.243633
v 0.298299 2.338845 -0.286909
v -0.237624 0.599493 0.336128
v -0.334212 0.644338 0.258072
v -0.260890 1.188881 0.330512
v -0.332634 1.188078 0.258760
v -0.294366 1.779608 0.297484
v -0.261538 1.777065 0.333140
v -0.272682 1.776730 -0.321487
v -0.326459 1.758453 -0.246202
v -0.251216 1.187743 -0.325839
v -0.342091 1.187614 -0.182999
v -0.288429 0.603038 -0.306168
v -0.337043 0.601120 -0.254623
v 0.334182 1.762836 -0.236987
v 0.262323 1.793745 -0.318797
v 0.329533 1.189542 -0.223151
v 0.230950 1.234072 -0.341195
v 0.326321 0.624501 -0.251043
v 0.234000 0.623893 -0.332489
v 0.242141 1.847194 0.292664
v 0.320464 1.794239 0.224776
v 0.275879 1.189875 0.311340
v 0.325188 1.200679 0.259082
v 0.196929 0.599948 0.338055
v 0.296235 0.601578 0.285048
v -0.333603 0.539832 -0.253979
v -0.282361 0.536399 -0.313806
v 0.247712 0.512227 -0.309311
v 0.325369 0.515636 -0.224264
v 0.308684 0.537835 0.272528
v 0.184434 0.537280 0.332390
v -0.331853 0.536640 0.254248
v -0.263878 0.482513 0.339159
v -0.333140 1.116863 0.259695
v -0.259949 1.116431 0.333621
v -0.336100 1.116730 -0.254006
v -0.261837 1.116073 -0.331263
v 0.219475 1.106831 -0.343453
v 0.330826 1.116029 -0.200337
v 0.327111 1.134307 0.259012
v 0.253025 1.117118 0.333780
v -0.316577 1.597386 0.277047
v -0.260281 1.666117 0.334424
v -0.326361 1.698597 -0.252275
v -0.292913 1.653138 -0.312663
v 0.270025 1.711872 -0.312190
v 0.344158 1.686266 -0.246209
v 0.318736 1.700370 0.245950
v 0.279314 1.712199 0.304665
v 0.312428 1.166746 -0.186225
v 0.218141 1.216790 -0.327391
v 0.221181 1.126521 -0.328343
v 0.312906 1.138345 -0.186427
v 0.302654 0.583458 -0.246784
v 0.216933 0.585630 -0.314575
v 0.274672 1.753215 0.276177
v 0.314413 1.773725 0.223733
v 0.300656 1.718599 0.232777
v 0.272048 1.723581 0.278518
v 0.249725 1.166531 0.310726
v 0.310260 1.162089 0.245431
v 0.312144 1.146359 0.246698
v 0.240469 1.137011 0.317523
v 0.174540 0.574447 0.314364
v 0.282012 0.582766 0.274384
v -0.264038 2.391743 0.274059
v -0.236813 2.392894 -0.298862
v 0.269331 2.392897 -0.260242
v -0.236813 2.389887 0.304003
v -0.303762 2.392245 -0.231934
v 0.298203 2.390104 -0.231247
v 0.298046 2.392171 0.235514
v 0.274177 2.388553 0.260658
v -0.329683 2.421279 0.422705
v -0.341131 2.444715 0.441523
v -0.435123 2.460989 0.352528
v -0.418993 2.427122 0.326658
v -0.407909 2.415919 -0.275196
v -0.443155 2.441174 -0.255217
v -0.339718 2.473211 -0.436468
v -0.327774 2.424332 -0.416098
v 0.322169 2.418204 -0.419386
v 0.333422 2.444552 -0.435398
v 0.425236 2.430269 -0.328789
v 0.411737 2.405690 -0.320196
v 0.422506 2.428494 0.328892
v 0.433983 2.442813 0.341562
v 0.400651 2.447535 0.373178
v 0.229156 2.401602 0.314726
v -0.343604 2.556228 0.438995
v -0.334181 2.581846 0.419855
v -0.387636 2.579555 0.351753
v -0.432238 2.529496 0.356558
v -0.438328 2.557315 -0.336729
v -0.425663 2.576200 -0.326842
v -0.326393 2.581381 -0.372675
v -0.344995 2.531775 -0.437447
v 0.336055 2.525785 -0.438549
v 0.317335 2.588917 -0.375220
v 0.410085 2.586350 -0.265318
v 0.429128 2.513278 -0.332436
v 0.434695 2.556453 0.341284
v 0.413989 2.579224 0.332611
v 0.391555 2.581118 0.354154
v 0.413426 2.556759 0.362057
v -0.321684 0.578374 -0.043999
v 0.317189 1.765044 0.160439
v -0.309850 1.754209 0.009642
v -0.319372 0.521507 -0.001211
v 0.298458 0.552642 0.010531
v -0.321580 1.144894 -0.106476
v -0.362057 0.000000 0.043299
v -0.338403 0.503046 -0.028383
v 0.360053 -0.000000 -0.045644
v -0.316824 1.776679 0.021706
v -0.307093 2.335328 0.052582
v 0.324413 2.356290 0.119623
v 0.330191 0.524974 0.025219
v 0.326800 1.790580 0.163205
v -0.337516 0.610898 -0.006786
v -0.338735 1.128929 -0.106261
v -0.337408 1.171467 -0.106364
v -0.333939 1.649961 0.011229
v 0.338329 1.692295 -0.013051
v 0.330973 1.165296 -0.080853
v 0.327773 1.140280 -0.065125
v 0.315022 0.613733 0.018229
v -0.321212 1.159681 -0.106473
v -0.311340 1.699650 0.013894
v 0.321172 1.712234 -0.012147
v 0.315244 1.155513 -0.058182
v 0.315450 1.149583 -0.058274
v 0.293596 0.582263 0.014618
v 0.298504 2.390827 0.002043
v -0.426268 2.449767 0.011534
v -0.294181 2.378678 0.062883
v 0.412755 2.408607 -0.236506
v 0.434704 2.447038 -0.221073
v -0.426688 2.565465 -0.063191
v -0.432969 2.531793 -0.138655
v 0.424152 2.527425 -0.099051
v 0.393645 2.576035 -0.036898
v 0.242337 2.584204 -0.073128
v -0.182012 2.578436 0.129436
v -0.294972 2.386486 0.063751
v -0.099852 1.158718 0.316371
v 0.148713 1.755551 -0.304883
v -0.015683 0.538786 -0.314796
v -0.025078 0.553605 0.313044
v -0.037492 0.577117 0.315668
v 0.014810 1.753338 0.302706
v -0.019582 -0.000000 -0.398353
v -0.017525 0.000000 0.357312
v 0.010956 0.494257 0.333017
v 0.013396 1.777545 0.312052
v -0.097980 2.319506 0.321856
v 0.131030 2.371439 -0.306036
v -0.016292 0.524937 -0.326509
v -0.002404 1.789992 -0.328279
v -0.003748 0.591212 0.334421
v -0.103983 1.139691 0.332679
v 0.142547 1.194369 0.322328
v 0.010246 1.692299 0.322673
v 0.004206 1.688067 -0.319276
v -0.007699 1.197347 -0.334182
v -0.015290 1.124203 -0.334117
v -0.013971 0.588926 -0.327215
v 0.061831 1.168070 0.312734
v 0.007316 1.702397 0.307187
v 0.008794 1.716930 -0.306087
v -0.007670 1.175712 -0.316306
v -0.007687 1.146563 -0.315798
v -0.016087 0.568444 -0.316235
v 0.015974 2.388768 -0.282055
v 0.018312 2.389252 0.281931
v 0.018685 2.476234 0.417421
v -0.011068 2.430342 0.389008
v -0.003787 2.408596 -0.420080
v -0.003668 2.431450 -0.434130
v 0.025899 2.592970 0.388727
v 0.029499 2.572055 0.407497
v -0.003811 2.549284 -0.435234
v -0.006053 2.581740 -0.395182
v 0.087246 2.585089 -0.152786
v -0.233586 2.065664 0.334380
v -0.291297 2.049163 0.276652
v -0.236886 2.061444 -0.326374
v -0.330044 2.195957 -0.224891
v 0.332422 2.114929 -0.205303
v 0.270288 2.070482 -0.305936
v 0.298206 2.058184 0.280463
v 0.328817 2.058432 0.249409
v 0.326768 2.214093 -0.094234
v -0.315260 2.157121 -0.012857
v 0.088777 1.985443 0.307541
v 0.157176 2.110036 -0.319635
v -0.245210 1.445760 -0.330878
v -0.337762 1.456236 -0.211432
v 0.339185 1.436853 -0.236775
v 0.256006 1.431309 -0.327723
v 0.278728 1.444421 0.309875
v 0.312739 1.444175 0.268869
v -0.270743 1.397136 0.330762
v -0.333120 1.393032 0.268235
v -0.352827 1.495852 -0.081574
v 0.335034 1.425768 -0.116328
v 0.084823 1.473016 -0.331750
v -0.085311 1.497178 0.330825
v -0.258289 0.859036 -0.325239
v -0.336860 0.774007 -0.234516
v 0.329961 0.870811 -0.226216
v 0.231430 0.853693 -0.334158
v 0.251097 0.874035 0.332405
v 0.317690 0.858605 0.277525
v -0.246907 0.861971 0.335699
v -0.322955 0.927807 0.277710
v -0.336731 0.765221 0.001707
v 0.320480 0.764972 0.054218
v 0.163684 0.836930 -0.333977
v -0.106385 0.891860 0.333931
v -0.259161 0.266830 -0.320791
v -0.339614 0.266640 -0.217727
v 0.302542 0.187991 -0.233186
v 0.249389 0.239929 -0.298925
v 0.205425 0.267813 0.332907
v 0.285150 0.238813 0.297806
v -0.255665 0.268380 0.329045
v -0.338566 0.391025 0.232008
v -0.345779 0.260041 0.039841
v 0.320128 0.217580 -0.027374
v 0.061361 0.315627 -0.332317
v -0.085848 0.289778 0.323874
v -0.233031 2.360342 -0.293768
v 0.269004 2.364213 -0.257153
v -0.260871 2.364746 0.276480
v 0.240552 2.357151 0.255219
v -0.234226 2.364078 0.300816
v 0.296030 2.367645 0.205927
v -0.304438 2.366803 -0.230192
v 0.293770 2.342396 -0.224747
v -0.301053 2.335260 0.051947
v 0.297551 2.375377 0.057091
v 0.070267 2.386999 -0.280098
v -0.085057 2.344801 0.289597
vt 0.995102 0.826050
vt 0.995102 0.858132
vt 0.989461 0.831116
vt 0.442880 0.758406
vt 0.377281 0.731896
vt 0.442880 0.704942
vt 0.733253 0.695380
vt 0.780466 0.653206
vt 0.780466 0.723270
vt 0.585739 0.161432
vt 0.642421 0.098672
vt 0.642421 0.196858
vt 0.514098 0.002818
vt 0.514098 0.077790
vt 0.430041 0.056389
vt 0.928617 0.393484
vt 0.946253 0.391067
vt 0.946253 0.414618
vt 0.973052 0.973400
vt 0.963994 0.918867
vt 0.973052 0.908848
vt 0.977848 0.713257
vt 0.972762 0.629967
vt 0.977848 0.624294
vt 0.216390 0.965766
vt 0.210200 0.899372
vt 0.216390 0.891670
vt 0.710332 0.343943
vt 0.744719 0.266388
vt 0.744719 0.380392
vt 0.489447 0.881653
vt 0.461393 0.840428
vt 0.489447 0.814383
vt 0.547355 0.988541
vt 0.538159 0.966443
vt 0.547355 0.958554
vt 0.309998 0.890333
vt 0.276380 0.865996
vt 0.309998 0.834500
vt 0.608297 0.908721
vt 0.584211 0.860653
vt 0.608297 0.842406
vt 0.970152 0.335337
vt 0.959543 0.305780
vt 0.970152 0.266388
vt 0.733253 0.932358
vt 0.756058 0.882020
vt 0.756058 0.935429
vt 0.989202 0.712941
vt 0.983483 0.685085
vt 0.989202 0.668879
vt 0.690602 0.903642
vt 0.690602 0.965685
vt 0.685933 0.904361
vt 0.088160 0.987780
vt 0.081815 0.935482
vt 0.088160 0.926871
vt 0.371501 0.798877
vt 0.371501 0.819734
vt 0.367131 0.802336
vt 0.257920 0.740693
vt 0.257920 0.762580
vt 0.253122 0.760541
vt 0.771305 0.987606
vt 0.761693 0.967163
vt 0.771305 0.958147
vt 0.046303 0.946641
vt 0.039122 0.862655
vt 0.046303 0.841611
vt 0.125339 0.917417
vt 0.125339 0.980173
vt 0.117866 0.978013
vt 0.118255 0.913808
vt 0.361091 0.512825
vt 0.382325 0.423129
vt 0.382325 0.552015
vt 0.967444 0.132286
vt 0.969112 0.065241
vt 0.975558 0.064752
vt 0.975558 0.134236
vt 0.950522 0.002818
vt 0.950522 0.045381
vt 0.937801 0.011329
vt 0.872311 0.434657
vt 0.898890 0.420253
vt 0.898890 0.489247
vt 0.825156 0.879434
vt 0.851082 0.830218
vt 0.851082 0.896086
vt 0.877660 0.179080
vt 0.877660 0.247564
vt 0.843132 0.235263
vt 0.369686 0.644262
vt 0.371645 0.567899
vt 0.371645 0.644883
vt 0.324324 0.020540
vt 0.324324 0.078669
vt 0.252883 0.086374
vt 0.226235 0.002818
vt 0.931280 0.604018
vt 0.931280 0.617793
vt 0.926233 0.614927
vt 0.969250 0.409648
vt 0.959543 0.360234
vt 0.969250 0.340973
vt 0.189565 0.935215
vt 0.204564 0.891670
vt 0.204564 0.951333
vt 0.054918 0.748282
vt 0.060532 0.682125
vt 0.097880 0.679592
vt 0.097880 0.762889
vt 0.453975 0.635502
vt 0.377281 0.603002
vt 0.453975 0.567899
vt 0.897275 0.266388
vt 0.897275 0.351160
vt 0.876370 0.331805
vt 0.453975 0.562263
vt 0.395254 0.509692
vt 0.453975 0.453730
vt 0.806342 0.247285
vt 0.800863 0.179080
vt 0.837497 0.187416
vt 0.837497 0.251928
vt 0.933846 0.380816
vt 0.941225 0.266388
vt 0.941225 0.384181
vt 0.454151 0.845236
vt 0.454151 0.944372
vt 0.446439 0.848363
vt 0.495691 0.835014
vt 0.604209 0.819276
vt 0.604209 0.836770
vt 0.183882 0.551669
vt 0.174402 0.469969
vt 0.183882 0.462844
vt 0.848253 0.339877
vt 0.870735 0.266388
vt 0.870735 0.359727
vt 0.881364 0.728906
vt 0.881364 0.820415
vt 0.858953 0.785387
vt 0.542713 0.335944
vt 0.428061 0.313658
vt 0.542713 0.306368
vt 0.974029 0.492269
vt 0.965522 0.429112
vt 0.974029 0.420253
vt 0.531217 0.714833
vt 0.468944 0.675275
vt 0.531217 0.654277
vt 0.344921 0.734842
vt 0.339476 0.678501
vt 0.344921 0.675340
vt 0.993784 0.378543
vt 0.987564 0.351398
vt 0.993784 0.340973
vt 0.800144 0.434041
vt 0.829997 0.420253
vt 0.829997 0.512261
vt 0.801176 0.506166
vt 0.532523 0.842406
vt 0.532523 0.887372
vt 0.495691 0.875240
vt 0.955114 0.159794
vt 0.961809 0.064752
vt 0.961809 0.165451
vt 0.852954 0.103172
vt 0.827702 0.044397
vt 0.852954 0.002818
vt 0.149779 0.830196
vt 0.179342 0.773821
vt 0.179342 0.857239
vt 0.994452 0.298441
vt 0.988112 0.270166
vt 0.994452 0.263603
vt 0.063711 0.979158
vt 0.054918 0.933092
vt 0.063711 0.926871
vt 0.984951 0.977782
vt 0.978688 0.917071
vt 0.984951 0.908848
vt 0.539685 0.626819
vt 0.532745 0.562549
vt 0.539685 0.556369
vt 0.539685 0.487270
vt 0.539685 0.550734
vt 0.472637 0.546484
vt 0.468944 0.460375
vt 0.189565 0.193945
vt 0.280412 0.104093
vt 0.280412 0.208515
vt 0.932260 0.791175
vt 0.947905 0.728906
vt 0.947905 0.799304
vt 0.092030 0.921236
vt 0.054918 0.902797
vt 0.092030 0.898390
vt 0.943675 0.420253
vt 0.943675 0.493488
vt 0.928617 0.426058
vt 0.777322 0.403603
vt 0.843560 0.370219
vt 0.843560 0.405058
vt 0.611562 0.707739
vt 0.540008 0.645565
vt 0.611562 0.640469
vt 0.276380 0.685708
vt 0.333841 0.675340
vt 0.333841 0.740530
vt 0.163973 0.718601
vt 0.104314 0.662294
vt 0.163973 0.645917
vt 0.640921 0.971860
vt 0.630900 0.935057
vt 0.640921 0.927229
vt 0.886782 0.971208
vt 0.886782 0.995036
vt 0.877908 0.990323
vt 0.959887 0.500031
vt 0.949310 0.426738
vt 0.959887 0.420253
vt 0.611558 0.765652
vt 0.611558 0.825640
vt 0.609984 0.765805
vt 0.932965 0.172688
vt 0.923483 0.079658
vt 0.932965 0.064752
vt 0.939186 0.719970
vt 0.928754 0.639446
vt 0.939186 0.624294
vt 0.946860 0.369679
vt 0.947437 0.266484
vt 0.953907 0.266388
vt 0.953907 0.370811
vt 0.922182 0.375158
vt 0.922182 0.411053
vt 0.917544 0.406903
vt 0.070126 0.984798
vt 0.069347 0.926871
vt 0.076180 0.927352
vt 0.076180 0.988073
vt 0.305032 0.337285
vt 0.276380 0.243372
vt 0.343533 0.214151
vt 0.343532 0.341926
vt 0.748713 0.197944
vt 0.748713 0.256067
vt 0.685232 0.229192
vt 0.964106 0.246976
vt 0.957886 0.247145
vt 0.953058 0.182631
vt 0.964106 0.179080
vt 0.600266 0.713375
vt 0.600266 0.769960
vt 0.540008 0.732785
vt 0.424405 0.087584
vt 0.329960 0.076160
vt 0.331495 0.022784
vt 0.424405 0.002818
vt 0.879999 0.631540
vt 0.879999 0.704763
vt 0.853748 0.700026
vt 0.848110 0.635300
vt 0.544398 0.813640
vt 0.540008 0.775595
vt 0.604209 0.781105
vt 0.604209 0.813146
vt 0.561678 0.955049
vt 0.569454 0.952199
vt 0.569454 0.986562
vt 0.559835 0.982551
vt 0.961031 0.606686
vt 0.960977 0.517933
vt 0.967544 0.517185
vt 0.967544 0.610286
vt 0.290574 0.799070
vt 0.361496 0.798877
vt 0.361496 0.828864
vt 0.276380 0.820642
vt 0.341816 0.746165
vt 0.341816 0.793242
vt 0.276380 0.769047
vt 0.721837 0.610668
vt 0.677088 0.646882
vt 0.674746 0.584490
vt 0.721837 0.552539
vt 0.247271 0.704030
vt 0.247271 0.762580
vt 0.198211 0.754955
vt 0.189565 0.701339
vt 0.905202 0.813474
vt 0.887000 0.802852
vt 0.905202 0.728906
vt 0.773036 0.803878
vt 0.733253 0.788301
vt 0.773036 0.728906
vt 0.977876 0.611300
vt 0.973180 0.608097
vt 0.977876 0.593500
vt 0.531096 0.012270
vt 0.584576 0.002818
vt 0.584576 0.088329
vt 0.519734 0.092678
vt 0.897235 0.412463
vt 0.891253 0.408925
vt 0.897235 0.357182
vt 0.955341 0.600630
vt 0.945189 0.595579
vt 0.955341 0.517185
vt 0.550178 0.329448
vt 0.548348 0.311666
vt 0.581886 0.306368
vt 0.581886 0.335405
vt 0.012666 0.751891
vt 0.002818 0.696526
vt 0.049282 0.679592
vt 0.049282 0.759370
vt 0.762221 0.545672
vt 0.762006 0.519227
vt 0.769184 0.519431
vt 0.769184 0.545840
vt 0.617912 0.775749
vt 0.705648 0.772452
vt 0.705648 0.803121
vt 0.617197 0.796906
vt 0.668559 0.498775
vt 0.700821 0.441198
vt 0.718088 0.446831
vt 0.718088 0.534920
vt 0.022345 0.975851
vt 0.030395 0.975771
vt 0.030395 0.988402
vt 0.018749 0.992301
vt 0.463305 0.707819
vt 0.458312 0.706602
vt 0.463305 0.641138
vt 0.369012 0.791288
vt 0.347452 0.793242
vt 0.347940 0.756439
vt 0.369012 0.754409
vt 0.982477 0.335337
vt 0.976422 0.334862
vt 0.975788 0.269042
vt 0.982477 0.263603
vt 0.904238 0.620382
vt 0.883474 0.548632
vt 0.904238 0.535545
vt 0.355456 0.423129
vt 0.355456 0.508428
vt 0.276380 0.489944
vt 0.277144 0.425254
vt 0.932165 0.052683
vt 0.915434 0.044914
vt 0.932165 0.002818
vt 0.704697 0.266388
vt 0.704697 0.336075
vt 0.664902 0.328627
vt 0.637756 0.271749
vt 0.002818 0.653836
vt 0.008156 0.613703
vt 0.078230 0.609520
vt 0.078230 0.673957
vt 0.174601 0.726109
vt 0.174601 0.765530
vt 0.107470 0.768185
vt 0.104314 0.724237
vt 0.845246 0.549746
vt 0.877838 0.535545
vt 0.877838 0.604867
vt 0.856482 0.607455
vt 0.987733 0.411212
vt 0.987564 0.384929
vt 0.995479 0.384178
vt 0.995479 0.412069
vt 0.610307 0.460375
vt 0.610307 0.546903
vt 0.557075 0.541920
vt 0.545321 0.478983
vt 0.858953 0.969868
vt 0.867349 0.963838
vt 0.867349 0.992282
vt 0.615942 0.508697
vt 0.622500 0.441198
vt 0.662924 0.444652
vt 0.662924 0.546903
vt 0.794509 0.420253
vt 0.794509 0.513592
vt 0.762006 0.488171
vt 0.782152 0.421551
vt 0.696281 0.896893
vt 0.726353 0.887120
vt 0.726353 0.925497
vt 0.149779 0.865829
vt 0.176692 0.862875
vt 0.176692 0.912373
vt 0.967444 0.142282
vt 0.980400 0.139872
vt 0.980400 0.170889
vt 0.718987 0.975123
vt 0.716073 0.931133
vt 0.724347 0.931500
vt 0.724347 0.978754
vt 0.566355 0.447491
vt 0.592206 0.443703
vt 0.592206 0.450232
vt 0.913853 0.826050
vt 0.913853 0.896115
vt 0.893604 0.877469
vt 0.238857 0.937471
vt 0.247216 0.937038
vt 0.247216 0.970991
vt 0.235366 0.971461
vt 0.996023 0.481381
vt 0.991247 0.478316
vt 0.996023 0.452944
vt 0.977692 0.179080
vt 0.977692 0.248470
vt 0.969742 0.240611
vt 0.990586 0.910939
vt 0.997144 0.908848
vt 0.997144 0.935523
vt 0.990945 0.933689
vt 0.599426 0.354049
vt 0.599426 0.438067
vt 0.541913 0.432642
vt 0.535806 0.347561
vt 0.611562 0.624280
vt 0.545321 0.634834
vt 0.554611 0.569776
vt 0.611562 0.552539
vt 0.781235 0.102232
vt 0.781235 0.172630
vt 0.750617 0.165717
vt 0.736747 0.098672
vt 0.842618 0.355304
vt 0.811987 0.353771
vt 0.827323 0.266980
vt 0.842618 0.266388
vt 0.904525 0.423012
vt 0.922982 0.420253
vt 0.922982 0.489959
vt 0.909117 0.489816
vt 0.283470 0.965593
vt 0.285665 0.965813
vt 0.285665 0.990357
vt 0.276380 0.990753
vt 0.590212 0.008688
vt 0.659834 0.002818
vt 0.659834 0.076643
vt 0.592023 0.075740
vt 0.618084 0.849352
vt 0.671442 0.847276
vt 0.671442 0.873684
vt 0.617197 0.872346
vt 0.778542 0.536774
vt 0.803741 0.535545
vt 0.803741 0.635899
vt 0.775014 0.637409
vt 0.530171 0.352225
vt 0.530171 0.454740
vt 0.468944 0.406335
vt 0.494715 0.347561
vt 0.189565 0.795959
vt 0.257920 0.768216
vt 0.257920 0.808441
vt 0.190729 0.806316
vt 0.525269 0.225978
vt 0.582176 0.214151
vt 0.582176 0.298584
vt 0.511880 0.294064
vt 0.189565 0.398400
vt 0.194421 0.346340
vt 0.266385 0.335820
vt 0.266385 0.428975
vt 0.972847 0.005457
vt 0.980697 0.002818
vt 0.980697 0.057550
vt 0.440054 0.922484
vt 0.440054 0.952776
vt 0.422312 0.933448
vt 0.839610 0.624887
vt 0.811738 0.625905
vt 0.809376 0.559025
vt 0.839610 0.535545
vt 0.002818 0.963725
vt 0.007192 0.903070
vt 0.013113 0.904420
vt 0.013113 0.969610
vt 0.424078 0.908256
vt 0.422312 0.850746
vt 0.440803 0.845236
vt 0.440803 0.916848
vt 0.806809 0.968972
vt 0.815397 0.954087
vt 0.815397 0.989104
vt 0.669280 0.254282
vt 0.669280 0.260753
vt 0.647345 0.259680
vt 0.448516 0.719456
vt 0.455005 0.715544
vt 0.455005 0.756586
vt 0.448651 0.758406
vt 0.175552 0.977970
vt 0.176738 0.918099
vt 0.183212 0.918008
vt 0.183212 0.979323
vt 0.416677 0.845236
vt 0.416677 0.883753
vt 0.377281 0.852386
vt 0.379746 0.846422
vt 0.923118 0.719230
vt 0.916175 0.719970
vt 0.909791 0.635785
vt 0.923118 0.631095
vt 0.823334 0.517896
vt 0.823334 0.529236
vt 0.804608 0.526610
vt 0.800144 0.518651
vt 0.096972 0.428220
vt 0.090944 0.424315
vt 0.096972 0.343927
vt 0.264221 0.526464
vt 0.264560 0.434611
vt 0.270658 0.434745
vt 0.270658 0.530052
vt 0.761693 0.885730
vt 0.772690 0.882020
vt 0.772690 0.947009
vt 0.761895 0.952511
vt 0.211618 0.536136
vt 0.265606 0.539140
vt 0.265606 0.609285
vt 0.189565 0.610926
vt 0.017529 0.347289
vt 0.085309 0.343927
vt 0.085309 0.414549
vt 0.002818 0.432557
vt 0.677564 0.417045
vt 0.605062 0.406800
vt 0.619829 0.363375
vt 0.677564 0.347561
vt 0.033487 0.851379
vt 0.033487 0.897434
vt 0.002818 0.874780
vt 0.009074 0.841611
vt 0.801836 0.645390
vt 0.801836 0.723270
vt 0.786102 0.709422
vt 0.986378 0.594968
vt 0.989443 0.561621
vt 0.993203 0.563899
vt 0.993203 0.599660
vt 0.961457 0.729181
vt 0.961457 0.816979
vt 0.953540 0.813771
vt 0.954480 0.728906
vt 0.390759 0.973884
vt 0.376717 0.981188
vt 0.378167 0.963616
vt 0.390759 0.961846
vt 0.350774 0.741974
vt 0.357482 0.595693
vt 0.362126 0.599176
vt 0.362126 0.746437
vt 0.378255 0.810600
vt 0.448516 0.805572
vt 0.448516 0.839601
vt 0.377281 0.831098
vt 0.118853 0.585407
vt 0.173842 0.564223
vt 0.173842 0.640281
vt 0.104314 0.629595
vt 0.696281 0.875780
vt 0.702206 0.808887
vt 0.725020 0.808756
vt 0.725020 0.881485
vt 0.109233 0.451461
vt 0.104314 0.362635
vt 0.172479 0.356674
vt 0.172479 0.457208
vt 0.620090 0.879320
vt 0.683449 0.883641
vt 0.683449 0.897507
vt 0.617197 0.898007
vt 0.904156 0.723270
vt 0.887000 0.636118
vt 0.904156 0.631095
vt 0.710332 0.389269
vt 0.738626 0.386028
vt 0.738626 0.407676
vt 0.157080 0.918195
vt 0.157080 0.981578
vt 0.151406 0.981451
vt 0.149779 0.918008
vt 0.822066 0.064340
vt 0.776907 0.067897
vt 0.781847 0.003534
vt 0.822066 0.002818
vt 0.527049 0.634250
vt 0.468944 0.648641
vt 0.471804 0.562501
vt 0.527049 0.556369
vt 0.256970 0.822321
vt 0.270730 0.814077
vt 0.270730 0.908290
vt 0.262826 0.905534
vt 0.810299 0.910695
vt 0.810299 0.948451
vt 0.792853 0.935385
vt 0.390759 0.889389
vt 0.390759 0.956211
vt 0.377281 0.943359
vt 0.461510 0.979761
vt 0.461393 0.951312
vt 0.473247 0.951658
vt 0.473247 0.983699
vt 0.986378 0.520728
vt 0.993319 0.517185
vt 0.993319 0.555775
vt 0.987224 0.555986
vt 0.054918 0.792190
vt 0.086513 0.768524
vt 0.086513 0.852951
vt 0.866675 0.496645
vt 0.835632 0.450830
vt 0.866675 0.420253
vt 0.142864 0.990886
vt 0.134320 0.987837
vt 0.142864 0.947140
vt 0.692574 0.081728
vt 0.721303 0.080253
vt 0.721303 0.092273
vt 0.691863 0.089433
vt 0.169917 0.922262
vt 0.169917 0.982066
vt 0.162716 0.980842
vt 0.164802 0.918008
vt 0.334262 0.945152
vt 0.327844 0.945823
vt 0.315634 0.920084
vt 0.334262 0.908802
vt 0.887969 0.826050
vt 0.887969 0.890076
vt 0.863679 0.881311
vt 0.858953 0.831887
vt 0.680298 0.971042
vt 0.671953 0.970970
vt 0.671456 0.905035
vt 0.680298 0.903642
vt 0.183930 0.246009
vt 0.183930 0.351039
vt 0.104314 0.292781
vt 0.129699 0.244174
vt 0.049208 0.982199
vt 0.043121 0.985086
vt 0.039122 0.956060
vt 0.049208 0.952277
vt 0.071693 0.600690
vt 0.002818 0.603885
vt 0.041702 0.519291
vt 0.071693 0.528559
vt 0.881522 0.963288
vt 0.877908 0.895711
vt 0.887859 0.895886
vt 0.887859 0.965572
vt 0.996820 0.420253
vt 0.996820 0.447308
vt 0.991247 0.438947
vt 0.042004 0.766106
vt 0.042004 0.835976
vt 0.007980 0.835438
vt 0.002818 0.765006
vt 0.968621 0.819188
vt 0.967092 0.802616
vt 0.974178 0.803475
vt 0.974178 0.819612
vt 0.778671 0.811494
vt 0.818668 0.804827
vt 0.818668 0.864490
vt 0.710438 0.963395
vt 0.701762 0.963274
vt 0.696281 0.941411
vt 0.710438 0.931133
vt 0.220600 0.002818
vt 0.220600 0.098458
vt 0.106233 0.070251
vt 0.756370 0.534920
vt 0.723724 0.444303
vt 0.756370 0.420253
vt 0.270213 0.616561
vt 0.270213 0.731444
vt 0.255957 0.714666
vt 0.902910 0.285990
vt 0.911909 0.266388
vt 0.911909 0.395275
vt 0.576327 0.946563
vt 0.559835 0.937531
vt 0.569389 0.892006
vt 0.576327 0.888948
vt 0.754348 0.184698
vt 0.795228 0.179080
vt 0.795228 0.256067
vt 0.462987 0.539979
vt 0.462987 0.616981
vt 0.460939 0.616801
vt 0.648057 0.160034
vt 0.679597 0.098672
vt 0.679597 0.245936
vt 0.771687 0.266388
vt 0.771687 0.412825
vt 0.750355 0.381221
vt 0.909799 0.002818
vt 0.909799 0.072417
vt 0.887193 0.034003
vt 0.018434 0.147220
vt 0.096045 0.130377
vt 0.096045 0.225169
vt 0.002818 0.233914
vt 0.981193 0.067592
vt 0.987462 0.064752
vt 0.987462 0.131010
vt 0.898488 0.989477
vt 0.893604 0.968102
vt 0.904773 0.968590
vt 0.904773 0.989111
vt 0.956158 0.009490
vt 0.967211 0.002818
vt 0.967211 0.045542
vt 0.956493 0.048743
vt 0.792853 0.956019
vt 0.801174 0.954087
vt 0.801174 0.990893
vt 0.793541 0.990947
vt 0.819521 0.732876
vt 0.819520 0.799191
vt 0.782596 0.793291
vt 0.778671 0.728906
vt 0.168767 0.465432
vt 0.168767 0.558587
vt 0.105555 0.555936
vt 0.104314 0.462844
vt 0.532792 0.770370
vt 0.532792 0.808748
vt 0.461393 0.788942
vt 0.913889 0.508506
vt 0.904525 0.509248
vt 0.905764 0.496300
vt 0.913889 0.495595
vt 0.598687 0.920749
vt 0.606221 0.914356
vt 0.606221 0.976848
vt 0.340325 0.835183
vt 0.340325 0.903166
vt 0.315634 0.894296
vt 0.333597 0.834500
vt 0.683196 0.719562
vt 0.683196 0.766817
vt 0.619610 0.758137
vt 0.617197 0.719915
vt 0.335036 0.957468
vt 0.339721 0.951459
vt 0.339721 0.984919
vt 0.963994 0.836530
vt 0.972515 0.826050
vt 0.972515 0.903212
vt 0.853318 0.728906
vt 0.853318 0.824583
vt 0.825156 0.763962
vt 0.092149 0.771778
vt 0.097118 0.768524
vt 0.097118 0.852899
vt 0.093083 0.851155
vt 0.845303 0.976087
vt 0.852220 0.975413
vt 0.852220 0.993860
vt 0.843630 0.994589
vt 0.401130 0.699307
vt 0.377281 0.641138
vt 0.452677 0.647705
vt 0.452677 0.693573
vt 0.507741 0.923134
vt 0.507741 0.949512
vt 0.502678 0.950400
vt 0.488471 0.922152
vt 0.250321 0.691399
vt 0.189565 0.695704
vt 0.213494 0.616561
vt 0.250321 0.623043
vt 0.499103 0.956035
vt 0.499103 0.984514
vt 0.488471 0.978533
vt 0.491525 0.956952
vt 0.949479 0.150027
vt 0.939228 0.154506
vt 0.938600 0.066806
vt 0.949479 0.064752
vt 0.806352 0.363925
vt 0.777322 0.364584
vt 0.781453 0.270461
vt 0.806352 0.266388
vt 0.617197 0.685294
vt 0.620897 0.654014
vt 0.685864 0.653206
vt 0.685864 0.713927
vt 0.632120 0.336075
vt 0.587811 0.285016
vt 0.632120 0.214151
vt 0.665820 0.920077
vt 0.617197 0.921594
vt 0.622155 0.903642
vt 0.665820 0.906301
vt 0.958358 0.826050
vt 0.958358 0.921691
vt 0.951013 0.921043
vt 0.463308 0.347561
vt 0.463308 0.448095
vt 0.395254 0.418036
vt 0.396407 0.350412
vt 0.554199 0.952918
vt 0.538159 0.952833
vt 0.554199 0.888948
vt 0.100597 0.002818
vt 0.100597 0.124742
vt 0.017114 0.110015
vt 0.002818 0.030169
vt 0.251334 0.814077
vt 0.251334 0.880724
vt 0.222205 0.870678
vt 0.088619 0.438192
vt 0.088619 0.513656
vt 0.017196 0.506657
vt 0.002818 0.450915
vt 0.440018 0.206608
vt 0.371606 0.203938
vt 0.373174 0.100599
vt 0.440018 0.098672
vt 0.842475 0.705551
vt 0.809376 0.714790
vt 0.816390 0.646795
vt 0.842475 0.631540
vt 0.523315 0.968213
vt 0.517116 0.970626
vt 0.513376 0.929123
vt 0.523315 0.922152
vt 0.222205 0.957961
vt 0.229730 0.937038
vt 0.229730 0.985944
vt 0.094676 0.858587
vt 0.094676 0.892755
vt 0.054918 0.874925
vt 0.055030 0.864382
vt 0.974885 0.409390
vt 0.975188 0.340973
vt 0.981928 0.341525
vt 0.981928 0.413289
vt 0.658880 0.935935
vt 0.665095 0.927229
vt 0.665095 0.982419
vt 0.247200 0.894523
vt 0.247200 0.931403
vt 0.224701 0.923710
vt 0.222205 0.886360
vt 0.617197 0.828874
vt 0.690646 0.808756
vt 0.690646 0.841640
vt 0.618806 0.840108
vt 0.098490 0.987906
vt 0.093796 0.987380
vt 0.098490 0.926871
vt 0.917544 0.305765
vt 0.928210 0.266388
vt 0.928210 0.369523
vt 0.091554 0.602956
vt 0.097989 0.601852
vt 0.097989 0.671618
vt 0.083880 0.669819
vt 0.552370 0.207714
vt 0.550933 0.200412
vt 0.578688 0.200771
vt 0.578688 0.206711
vt 0.731111 0.192308
vt 0.685232 0.143589
vt 0.731111 0.098672
vt 0.885618 0.370219
vt 0.885618 0.412463
vt 0.849195 0.397240
vt 0.855808 0.373506
vt 0.696281 0.995355
vt 0.696452 0.969112
vt 0.703821 0.969031
vt 0.703821 0.996106
vt 0.350564 0.218855
vt 0.422426 0.214151
vt 0.422426 0.284519
vt 0.349168 0.318268
vt 0.711318 0.417356
vt 0.717822 0.413312
vt 0.717822 0.431973
vt 0.710332 0.431422
vt 0.961034 0.627671
vt 0.967126 0.624294
vt 0.967126 0.719427
vt 0.961915 0.719558
vt 0.979664 0.423716
vt 0.985611 0.420253
vt 0.985611 0.490187
vt 0.983560 0.489379
vt 0.973180 0.586654
vt 0.975880 0.517185
vt 0.980743 0.517489
vt 0.980743 0.587864
vt 0.728257 0.012670
vt 0.771272 0.002818
vt 0.771272 0.080791
vt 0.726938 0.085342
vt 0.129141 0.908173
vt 0.104314 0.865530
vt 0.129141 0.843968
vt 0.764252 0.809513
vt 0.764252 0.876385
vt 0.733253 0.837014
vt 0.287537 0.580569
vt 0.276380 0.532390
vt 0.354928 0.514063
vt 0.354928 0.590058
vt 0.263555 0.743723
vt 0.270477 0.740808
vt 0.270477 0.808441
vt 0.263666 0.807712
vt 0.580103 0.188999
vt 0.518853 0.194777
vt 0.541527 0.098672
vt 0.580103 0.099657
vt 0.445653 0.166716
vt 0.513217 0.098672
vt 0.513217 0.197326
vt 0.106233 0.142297
vt 0.183930 0.104093
vt 0.183930 0.236860
vt 0.138583 0.238539
vt 0.769379 0.552539
vt 0.769379 0.637409
vt 0.727472 0.623558
vt 0.733076 0.557604
vt 0.396394 0.891180
vt 0.408644 0.889389
vt 0.408644 0.959588
vt 0.398698 0.959215
vt 0.303194 0.109679
vt 0.365970 0.104093
vt 0.365970 0.206608
vt 0.286047 0.179564
vt 0.861462 0.172630
vt 0.825585 0.130175
vt 0.861462 0.113838
vt 0.893577 0.172153
vt 0.882238 0.172630
vt 0.867098 0.117775
vt 0.893577 0.103061
vt 0.721303 0.074430
vt 0.665469 0.074618
vt 0.669123 0.030201
vt 0.721303 0.002818
vt 0.683652 0.425020
vt 0.691267 0.341790
vt 0.704697 0.341710
vt 0.704697 0.430626
vt 0.093262 0.239549
vt 0.093262 0.338292
vt 0.012274 0.318188
vt 0.002818 0.269602
vt 0.816908 0.905060
vt 0.779218 0.902830
vt 0.778671 0.892170
vt 0.816908 0.870125
vt 0.104314 0.826080
vt 0.112049 0.774795
vt 0.144143 0.773821
vt 0.144143 0.838332
vt 0.345138 0.595693
vt 0.345138 0.669704
vt 0.276380 0.622421
vt 0.270745 0.259735
vt 0.270745 0.330185
vt 0.197184 0.317220
vt 0.189565 0.214151
vt 0.786871 0.159603
vt 0.799697 0.090472
vt 0.819950 0.087864
vt 0.819950 0.172630
vt 0.369411 0.836672
vt 0.369411 0.904149
vt 0.355194 0.904561
vt 0.345961 0.834500
vt 0.479503 0.945677
vt 0.461393 0.944294
vt 0.479503 0.887288
vt 0.469033 0.749810
vt 0.461393 0.727169
vt 0.531217 0.720468
vt 0.531217 0.764735
vt 0.097989 0.520222
vt 0.097989 0.596217
vt 0.077328 0.589667
vt 0.089887 0.519291
vt 0.887193 0.083563
vt 0.911516 0.078053
vt 0.911516 0.096185
vt 0.888673 0.095880
vt 0.142864 0.941505
vt 0.135496 0.941216
vt 0.134776 0.847109
vt 0.142864 0.843968
vt 0.623618 0.564649
vt 0.669111 0.552539
vt 0.669111 0.647570
vt 0.617197 0.635023
vt 0.506245 0.300732
vt 0.428297 0.289071
vt 0.428061 0.266533
vt 0.506245 0.214151
vt 0.691499 0.681801
vt 0.727617 0.653206
vt 0.727617 0.755457
vt 0.455139 0.764042
vt 0.455139 0.799937
vt 0.384944 0.795356
vt 0.377281 0.772723
vt 0.598093 0.445877
vt 0.605519 0.443703
vt 0.605519 0.452025
vt 0.597842 0.454639
vt 0.389619 0.347561
vt 0.389619 0.417494
vt 0.290221 0.415255
vt 0.276380 0.360751
vt 0.216569 0.814077
vt 0.216569 0.886035
vt 0.189565 0.879614
vt 0.193883 0.816493
vt 0.204749 0.452033
vt 0.258585 0.434611
vt 0.258585 0.530501
vt 0.189565 0.520751
vt 0.981436 0.731553
vt 0.986466 0.728906
vt 0.986466 0.799708
vt 0.981605 0.799397
vt 0.935006 0.940496
vt 0.943840 0.925198
vt 0.943840 0.977602
vt 0.446439 0.966446
vt 0.454697 0.950007
vt 0.454697 0.988798
vt 0.389532 0.497182
vt 0.387961 0.497005
vt 0.389532 0.423129
vt 0.853181 0.901721
vt 0.853181 0.969777
vt 0.843630 0.960947
vt 0.945378 0.919563
vt 0.935006 0.904690
vt 0.945378 0.826050
vt 0.883296 0.248962
vt 0.891554 0.179080
vt 0.904183 0.179285
vt 0.904183 0.254749
vt 0.939553 0.598382
vt 0.926233 0.589833
vt 0.939553 0.517185
vt 0.858590 0.008972
vt 0.881557 0.002818
vt 0.881557 0.091487
vt 0.868189 0.092770
vt 0.538557 0.868816
vt 0.538159 0.854694
vt 0.578576 0.842406
vt 0.578576 0.883313
vt 0.727617 0.801999
vt 0.716552 0.796347
vt 0.727617 0.761092
vt 0.749992 0.967191
vt 0.733253 0.954576
vt 0.749992 0.941064
vt 0.189565 0.964145
vt 0.197995 0.956969
vt 0.197995 0.989853
vt 0.955399 0.709569
vt 0.944821 0.651674
vt 0.955399 0.624294
vt 0.858953 0.945318
vt 0.872272 0.895711
vt 0.872272 0.958203
vt 0.996851 0.890106
vt 0.992724 0.890393
vt 0.989461 0.867422
vt 0.996851 0.863768
vt 0.018749 0.933462
vt 0.027817 0.903070
vt 0.027817 0.970135
vt 0.276380 0.914770
vt 0.289249 0.895969
vt 0.289249 0.959958
vt 0.991140 0.663244
vt 0.983483 0.625419
vt 0.991140 0.624294
vt 0.990586 0.966549
vt 0.995652 0.941158
vt 0.995652 0.971080
vt 0.983825 0.899908
vt 0.978150 0.839808
vt 0.983825 0.826050
vt 0.371645 0.729837
vt 0.369945 0.664564
vt 0.371645 0.650518
vt 0.611558 0.713375
vt 0.611558 0.760017
vt 0.605902 0.751751
vt 0.593052 0.914356
vt 0.593052 0.972800
vt 0.584211 0.915547
vt 0.958358 0.979730
vt 0.950898 0.928179
vt 0.958358 0.927327
vt 0.183930 0.445427
vt 0.178707 0.398511
vt 0.183930 0.356674
vt 0.637756 0.255224
vt 0.641709 0.203138
vt 0.641709 0.260753
vt 0.733253 0.979518
vt 0.743283 0.972827
vt 0.743283 0.992334
vt 0.734006 0.988558
vt 0.992607 0.002818
vt 0.992607 0.044191
vt 0.986332 0.041568
vt 0.345961 0.918778
vt 0.354430 0.910196
vt 0.354430 0.977018
vt 0.625264 0.927229
vt 0.625264 0.979317
vt 0.617197 0.977956
vt 0.329401 0.952051
vt 0.329401 0.978429
vt 0.322712 0.978099
vt 0.315634 0.951459
vt 0.825156 0.906706
vt 0.837995 0.901721
vt 0.837995 0.961581
vt 0.830894 0.961749
vt 0.895074 0.525788
vt 0.835632 0.518538
vt 0.835903 0.510956
vt 0.895074 0.502280
vt 0.993003 0.139872
vt 0.993003 0.170889
vt 0.986036 0.170813
vt 0.688008 0.870059
vt 0.677077 0.857509
vt 0.688008 0.847276
vt 0.405345 0.991363
vt 0.396394 0.991227
vt 0.397254 0.965246
vt 0.405345 0.965223
vt 0.460939 0.495823
vt 0.463308 0.453730
vt 0.463308 0.534344
vt 0.416344 0.333967
vt 0.349168 0.338079
vt 0.350596 0.323903
vt 0.416344 0.325876
vt 0.465173 0.083425
vt 0.465173 0.091339
vt 0.430041 0.088257
vt 0.430170 0.084409
vt 0.995659 0.304077
vt 0.995659 0.331675
vt 0.988112 0.328844
vt 0.914118 0.246419
vt 0.909819 0.179080
vt 0.928314 0.181382
vt 0.928314 0.247640
vt 0.209464 0.972163
vt 0.216390 0.971401
vt 0.216390 0.993363
vt 0.207592 0.994838
vt 0.094254 0.434645
vt 0.098374 0.434278
vt 0.098374 0.513656
vt 0.096829 0.513648
vt 0.893604 0.903402
vt 0.906079 0.901750
vt 0.906079 0.962467
vt 0.778671 0.911903
vt 0.787218 0.910695
vt 0.787218 0.976640
vt 0.837995 0.981485
vt 0.823247 0.984073
vt 0.830230 0.967550
vt 0.837995 0.967384
vt 0.917848 0.171479
vt 0.899212 0.172688
vt 0.904545 0.105054
vt 0.917848 0.103061
vt 0.112230 0.979631
vt 0.104518 0.980135
vt 0.104314 0.918635
vt 0.112230 0.913808
vt 0.011457 0.997171
vt 0.003276 0.997182
vt 0.002818 0.978610
vt 0.011457 0.975246
vt 0.179773 0.571609
vt 0.183882 0.557305
vt 0.183882 0.618069
vt 0.169609 0.649026
vt 0.182696 0.645917
vt 0.182696 0.715438
vt 0.175048 0.716792
vt 0.920598 0.517185
vt 0.920598 0.620382
vt 0.909874 0.574637
vt 0.947422 0.256083
vt 0.940807 0.255511
vt 0.933949 0.181938
vt 0.947422 0.179080
vt 0.048297 0.779118
vt 0.049282 0.765006
vt 0.049282 0.831197
vt 0.470821 0.087096
vt 0.504160 0.083946
vt 0.504160 0.091339
vt 0.470809 0.088641
vt 0.910838 0.796362
vt 0.912967 0.730742
vt 0.926624 0.728906
vt 0.926624 0.806068
vt 0.294884 0.968589
vt 0.302874 0.968251
vt 0.302874 0.994534
vt 0.294961 0.994407
vt 0.921473 0.937185
vt 0.929370 0.934820
vt 0.929370 0.983726
vt 0.989442 0.179080
vt 0.989442 0.234269
vt 0.983328 0.230957
vt 0.929370 0.826050
vt 0.929370 0.929185
vt 0.919488 0.892722
vt 0.264956 0.977309
vt 0.257371 0.977089
vt 0.256970 0.914334
vt 0.264956 0.913926
vt 0.873666 0.625571
vt 0.845246 0.624288
vt 0.845331 0.615577
vt 0.873666 0.613090
vt 0.294884 0.922915
vt 0.306525 0.895969
vt 0.306525 0.962616
vt 0.653244 0.927580
vt 0.653244 0.985117
vt 0.647049 0.981960
vt 0.646556 0.927229
vt 0.536096 0.444557
vt 0.560719 0.443703
vt 0.560719 0.452334
vt 0.535806 0.451190
vt 0.775018 0.529769
vt 0.774820 0.519227
vt 0.781819 0.520438
vt 0.781819 0.529831
vt 0.665759 0.435162
vt 0.605076 0.434149
vt 0.605062 0.426420
vt 0.665759 0.422680
vt 0.368077 0.911090
vt 0.368077 0.978986
vt 0.360272 0.977870
vt 0.360066 0.910196
vt 0.967989 0.795909
vt 0.967092 0.729133
vt 0.975800 0.728906
vt 0.975800 0.796980
vt 0.421447 0.974186
vt 0.421385 0.958852
vt 0.440054 0.958412
vt 0.440054 0.975251
vt 0.532523 0.893008
vt 0.532523 0.916516
vt 0.488471 0.903061
vt 0.488518 0.895668
vt 0.747368 0.179331
vt 0.747368 0.191915
vt 0.737016 0.185770
vt 0.736747 0.178266
vt 0.590212 0.087687
vt 0.590225 0.083837
vt 0.682065 0.082278
vt 0.682065 0.090319
vt 0.545298 0.200412
vt 0.545298 0.208453
vt 0.519054 0.208371
vt 0.518853 0.200635
vn 0.4558 0.2498 0.8543
vn 0.1604 -0.0366 -0.9864
vn 0.0072 -0.0139 0.9999
vn 0.9999 0.0152 0.0009
vn 0.0864 0.0035 0.9963
vn 0.0824 0.0065 0.9966
vn 0.0840 0.0043 0.9965
vn -0.8464 0.3983 0.3534
vn -0.8916 -0.4525 0.0162
vn 0.6180 -0.7808 0.0918
vn -0.6357 0.7681 -0.0766
vn -0.7176 0.0280 -0.6959
vn -0.7754 0.0444 -0.6299
vn 0.7360 0.0585 -0.6744
vn -0.7936 -0.0606 0.6054
vn -0.7946 -0.0568 0.6044
vn -0.7946 -0.0590 0.6043
vn -0.6200 -0.0254 0.7842
vn -0.6169 -0.0266 0.7866
vn -0.6185 -0.0326 0.7851
vn 0.0384 -0.4408 -0.8968
vn -0.7086 0.0270 0.7051
vn -0.7593 0.4365 -0.4827
vn -0.0471 0.6463 -0.7617
vn -0.0230 -0.7788 0.6268
vn 0.8155 -0.2667 0.5137
vn -0.5838 -0.8009 -0.1331
vn 0.6141 -0.3894 -0.6865
vn 0.0241 -0.4070 0.9131
vn -0.0255 0.6387 -0.7690
vn -0.0293 0.6090 -0.7926
vn -0.9968 -0.0794 0.0011
vn 0.0038 0.8432 -0.5375
vn -0.0131 0.4173 -0.9087
vn -0.0132 0.4173 -0.9087
vn -0.7410 -0.0779 -0.6669
vn 0.1596 -0.9872 0.0029
vn -0.0010 -0.9337 0.3580
vn -0.0068 -0.9900 -0.1412
vn 0.9062 0.0450 0.4205
vn 0.1247 0.0104 0.9921
vn 0.1246 0.0104 0.9921
vn 0.1080 0.0177 0.9940
vn 0.3828 -0.7650 0.5178
vn -0.9844 0.1761 0.0033
vn -0.9842 0.1771 0.0027
vn -0.9844 0.1757 0.0017
vn 0.8890 0.4501 0.0843
vn -0.0060 0.9993 0.0371
vn 0.0071 0.9998 0.0174
vn -0.0009 0.9999 0.0154
vn 0.0234 0.9996 0.0156
vn -0.0219 0.9997 -0.0054
vn -0.0429 0.9990 0.0124
vn -0.0431 0.9977 0.0531
vn -0.0334 0.9986 0.0405
vn -0.0284 0.9991 -0.0313
vn 0.9998 -0.0174 -0.0131
vn 0.9988 -0.0373 0.0310
vn 0.0614 0.9980 -0.0133
vn 0.0758 0.9970 -0.0132
vn 0.0683 0.9975 -0.0166
vn 0.7479 0.6622 -0.0469
vn -0.7435 0.6670 0.0473
vn -0.9056 -0.4240 -0.0096
vn -0.2063 -0.9777 -0.0383
vn 0.2759 -0.9612 0.0061
vn 0.9997 -0.0063 -0.0235
vn -0.8542 -0.5145 0.0750
vn -0.9995 0.0295 0.0131
vn -0.9991 0.0377 0.0178
vn -0.9993 0.0343 0.0141
vn -0.6542 0.7485 0.1081
vn 0.6807 -0.7209 -0.1297
vn 0.8391 0.0529 -0.5414
vn 0.7529 0.0089 -0.6580
vn 0.9988 0.0030 0.0481
vn 0.1234 0.4047 0.9061
vn 0.0095 -0.7996 0.6005
vn 0.0586 -0.9528 0.2978
vn 0.0778 -0.1132 0.9905
vn 0.0168 -0.6884 0.7251
vn 0.0607 -0.0854 -0.9945
vn -0.0024 -0.4160 -0.9093
vn -0.0335 -0.0187 -0.9993
vn -0.0034 0.0100 -0.9999
vn -0.0035 0.0100 -0.9999
vn 0.9998 0.0034 0.0182
vn 0.7590 -0.0331 -0.6503
vn -0.7856 -0.1401 -0.6026
vn 0.9937 -0.0412 0.1047
vn 0.0823 0.0048 0.9966
vn -0.0796 -0.0647 -0.9947
vn -0.0194 -0.0134 -0.9997
vn -0.0184 -0.0136 -0.9997
vn -0.6925 -0.0832 0.7166
vn 0.2204 0.8387 -0.4980
vn 0.5538 0.8295 0.0730
vn -0.7389 0.6704 0.0677
vn -0.0026 0.9915 -0.1297
vn -0.0849 0.7541 -0.6512
vn 0.7120 0.6965 -0.0897
vn 0.7017 0.7065 -0.0922
vn 0.7069 0.7017 -0.0895
vn 0.9769 -0.2093 0.0429
vn 0.9336 -0.3559 0.0419
vn 0.3714 0.5105 0.7755
vn 0.7597 0.6502 0.0029
vn 0.7581 0.6522 0.0030
vn 0.7624 0.6471 0.0026
vn 0.7639 0.6453 0.0024
vn 1.0000 -0.0049 -0.0082
vn 0.9993 0.0201 0.0329
vn 0.0674 0.0527 -0.9963
vn 0.6383 0.7697 0.0155
vn 0.6520 0.7579 0.0191
vn 0.6520 0.7580 0.0191
vn 0.0413 0.0215 0.9989
vn -0.9999 -0.0030 0.0132
vn -0.9979 -0.0506 0.0413
vn -0.9979 -0.0506 0.0414
vn 0.6520 -0.0214 -0.7579
vn 0.6664 0.0080 -0.7456
vn 0.7385 -0.0402 -0.6730
vn 0.7030 -0.0546 -0.7090
vn 0.7328 0.0575 -0.6780
vn 0.6616 0.0020 -0.7499
vn 0.6615 0.0019 -0.7499
vn -0.6794 -0.2755 0.6801
vn -0.6780 -0.2708 0.6834
vn -0.6784 -0.2722 0.6824
vn -0.6799 -0.2770 0.6790
vn 0.0386 0.6461 0.7623
vn 0.0386 0.6454 0.7628
vn 0.0385 0.6468 0.7617
vn 0.7387 -0.0211 -0.6737
vn 0.7632 -0.0356 -0.6452
vn -0.9922 0.1249 -0.0055
vn 0.1081 -0.0039 0.9941
vn 0.0928 0.0132 0.9956
vn 0.1194 0.0257 0.9925
vn 0.9718 0.0737 -0.2242
vn 0.9759 0.1883 -0.1105
vn 0.9759 0.1884 -0.1104
vn 0.9990 -0.0049 -0.0451
vn 0.0798 0.0044 0.9968
vn 0.0793 0.0068 0.9968
vn 0.0766 0.0074 0.9970
vn -0.6998 0.6195 0.3556
vn 0.9949 -0.0673 -0.0753
vn 0.9994 -0.0296 -0.0182
vn -0.7652 -0.6437 -0.0137
vn 0.9296 -0.3678 0.0232
vn -0.6887 -0.0136 0.7249
vn -0.6813 0.0015 0.7320
vn -0.6813 0.0014 0.7320
vn -0.9972 0.0189 0.0730
vn -0.9962 -0.0090 0.0869
vn -0.5537 -0.6348 0.5389
vn -0.5156 -0.6786 0.5231
vn -0.0034 -0.0094 -1.0000
vn 0.0015 -0.0170 -0.9999
vn 0.0034 -0.0362 -0.9993
vn -0.0124 -0.0384 -0.9992
vn 0.0063 -0.0364 -0.9993
vn -0.0417 -0.0265 -0.9988
vn -0.5777 -0.6565 0.4850
vn -0.5777 -0.6565 0.4851
vn -0.5692 -0.7352 0.3682
vn -0.8702 0.4875 -0.0714
vn 0.7519 -0.0641 -0.6562
vn 0.7519 -0.0641 -0.6561
vn 0.7479 -0.0499 -0.6619
vn -0.1156 -0.4600 -0.8803
vn -0.1156 -0.4600 -0.8804
vn -0.0911 -0.6617 -0.7442
vn -0.8208 0.0935 -0.5636
vn 0.9926 -0.0513 0.1101
vn 0.9934 -0.0706 0.0900
vn 0.9934 -0.0706 0.0901
vn -0.7266 0.0801 -0.6823
vn 0.9963 -0.0521 0.0678
vn 0.9956 -0.0817 0.0467
vn 0.9956 -0.0818 0.0467
vn 0.9994 -0.0091 0.0345
vn 0.9982 -0.0455 0.0401
vn 0.9995 -0.0175 0.0272
vn 0.9990 -0.0216 0.0399
vn -0.7902 0.0064 -0.6129
vn -0.8429 -0.0432 -0.5363
vn -0.9921 0.0259 -0.1230
vn -0.8855 -0.0364 -0.4631
vn -0.5282 0.6872 -0.4987
vn -0.5282 0.6873 -0.4987
vn -0.5018 0.7139 -0.4884
vn 0.2285 0.1429 -0.9630
vn 0.1765 0.2014 -0.9635
vn 0.5004 0.4795 -0.7209
vn -0.9977 0.0628 0.0267
vn -0.9977 0.0628 0.0268
vn -0.9988 0.0490 0.0041
vn -0.4939 -0.8666 0.0707
vn -0.5579 -0.8276 0.0620
vn -0.7965 -0.0574 0.6019
vn -0.7964 -0.0553 0.6023
vn -0.7975 -0.0538 0.6010
vn -0.7103 0.0288 0.7034
vn 0.0817 -0.5467 -0.8334
vn 0.5604 0.7129 -0.4216
vn 0.7164 0.3846 -0.5821
vn -0.6072 0.3924 -0.6909
vn -0.7248 0.0188 0.6887
vn -0.5708 -0.6652 0.4812
vn -0.5708 -0.6653 0.4812
vn -0.5748 -0.6517 0.4948
vn -0.5748 -0.6518 0.4948
vn -0.6982 -0.3567 -0.6206
vn 0.0107 0.8433 -0.5374
vn 0.5785 0.7283 -0.3673
vn 0.5694 0.7393 -0.3594
vn 0.9825 0.1748 0.0645
vn 0.9825 0.1749 0.0645
vn 0.9733 0.2110 0.0909
vn -0.9996 0.0198 -0.0183
vn -0.9994 0.0238 -0.0233
vn -0.9995 0.0234 -0.0228
vn -0.9996 0.0196 -0.0181
vn 0.1391 0.0556 -0.9887
vn 0.1392 0.0556 -0.9887
vn 0.1257 0.0641 -0.9900
vn -0.0081 -0.0230 -0.9997
vn 0.0026 -0.0028 -1.0000
vn 0.0062 -0.0111 -0.9999
vn 0.0073 -0.0160 -0.9998
vn 0.8310 0.0090 0.5561
vn 0.7692 0.0391 0.6378
vn 0.7692 0.0390 0.6378
vn -0.4698 -0.7203 -0.5104
vn -0.4697 -0.7203 -0.5104
vn -0.4582 -0.7305 -0.5064
vn -0.9967 0.0805 -0.0034
vn -0.9978 0.0622 -0.0223
vn -0.7065 -0.0343 0.7069
vn 0.1208 0.0876 0.9888
vn 0.1211 0.0886 0.9887
vn 0.1206 0.0868 0.9889
vn 0.9998 -0.0177 0.0112
vn 0.9989 -0.0035 0.0462
vn 0.9998 -0.0018 0.0211
vn 0.9997 -0.0060 0.0236
vn -0.9999 0.0044 0.0119
vn -0.9997 -0.0256 0.0055
vn -0.9835 -0.1648 -0.0748
vn -0.9725 -0.2294 0.0411
vn -0.0462 0.0213 -0.9987
vn -0.0380 0.0136 -0.9992
vn -0.0385 0.0141 -0.9992
vn -0.0467 0.0218 -0.9987
vn -0.0025 0.0296 0.9996
vn -0.0192 0.0244 0.9995
vn 0.0027 0.0114 0.9999
vn 0.0034 0.0095 0.9999
vn 0.0068 -0.6409 0.7676
vn 0.6941 0.1156 0.7106
vn -0.7208 -0.0262 -0.6927
vn -0.7208 -0.0262 -0.6926
vn -0.7382 -0.0367 -0.6736
vn -0.7381 -0.0367 -0.6736
vn 0.0413 -0.4754 -0.8788
vn 0.0429 -0.4392 -0.8973
vn 0.0429 -0.4392 -0.8974
vn 0.0077 0.3219 0.9467
vn 0.0081 0.3208 0.9471
vn 0.0074 0.3229 0.9464
vn -0.7030 -0.7081 -0.0667
vn 0.6325 -0.1987 -0.7486
vn -0.0879 0.6209 0.7790
vn -0.0851 0.6590 0.7473
vn 0.0098 0.6083 -0.7937
vn 0.0098 0.6082 -0.7937
vn 0.0158 0.6304 -0.7761
vn -0.9923 0.1236 -0.0094
vn -0.8377 0.3367 0.4301
vn -0.8377 0.3366 0.4301
vn -0.0359 -0.5232 -0.8514
vn -0.0425 -0.3932 -0.9185
vn 0.6903 -0.4636 0.5555
vn 0.6903 -0.4635 0.5555
vn 0.5484 -0.6289 0.5512
vn 0.0180 -0.4730 0.8809
vn -0.6810 0.7320 0.0200
vn -0.8175 0.5750 0.0315
vn -0.8175 0.5751 0.0315
vn 0.6673 0.7437 -0.0407
vn 0.8324 0.5541 0.0081
vn -0.0085 0.0978 0.9952
vn -0.0226 0.1093 0.9937
vn -0.1213 0.1751 -0.9771
vn -0.0686 0.2212 -0.9728
vn -0.0687 0.2211 -0.9728
vn 0.0365 0.0534 -0.9979
vn 0.0544 0.0489 -0.9973
vn 0.0356 0.0827 -0.9959
vn 0.0207 0.0656 -0.9976
vn 0.9857 0.1664 -0.0244
vn 0.9857 0.1665 -0.0244
vn 0.9787 0.1941 0.0664
vn -0.0289 0.0568 -0.9980
vn 0.5706 0.8170 -0.0830
vn 0.7438 0.6607 -0.1017
vn 0.0172 -0.5242 -0.8514
vn 0.0172 -0.5246 -0.8512
vn 0.0172 -0.5238 -0.8517
vn 0.7260 0.6876 0.0136
vn 0.7260 0.6875 0.0136
vn 0.6574 0.7535 0.0049
vn 0.7991 -0.5994 0.0466
vn 0.7819 -0.6234 -0.0037
vn 0.8679 -0.4967 0.0025
vn 0.8518 -0.5235 0.0216
vn -0.7872 -0.0518 -0.6146
vn -0.7596 -0.0691 -0.6467
vn -0.0332 -0.0290 0.9990
vn 0.0031 0.0021 1.0000
vn 0.0031 0.0022 1.0000
vn 0.6315 -0.0300 0.7748
vn 0.4706 -0.0749 0.8792
vn 0.4705 -0.0749 0.8792
vn 0.9997 -0.0131 0.0184
vn 0.9973 0.0488 0.0554
vn 0.7697 0.0137 0.6383
vn 0.7277 -0.0042 0.6858
vn 0.7278 -0.0042 0.6858
vn -0.9987 0.0437 -0.0274
vn 0.9956 -0.0502 -0.0797
vn 0.0096 -0.4941 -0.8694
vn 0.0096 -0.4940 -0.8694
vn -0.0013 -0.6370 -0.7709
vn -1.0000 0.0044 0.0003
vn -1.0000 0.0013 -0.0019
vn -0.9890 -0.0843 0.1214
vn -0.9997 0.0189 0.0141
vn -0.0072 0.0552 -0.9984
vn -0.0316 0.0802 -0.9963
vn 0.1046 -0.5717 0.8138
vn 0.1014 -0.5923 0.7993
vn 0.1608 -0.9864 0.0324
vn 0.0180 -0.9684 0.2487
vn 0.5132 -0.5409 -0.6663
vn 0.5133 -0.5409 -0.6663
vn 0.6025 -0.4180 -0.6799
vn -0.7400 0.6691 -0.0684
vn -0.6806 0.7306 -0.0556
vn -0.0500 -0.9737 -0.2223
vn -0.2046 -0.9773 0.0545
vn 0.2267 -0.9710 0.0755
vn 0.6877 -0.0065 0.7260
vn 0.6987 -0.0026 0.7154
vn 0.0778 -0.6350 -0.7686
vn 0.0791 -0.6573 -0.7495
vn -0.3581 0.6102 -0.7067
vn -0.3343 0.7921 -0.5106
vn -0.3343 0.7921 -0.5107
vn 0.8060 0.0832 -0.5860
vn 0.7553 0.1359 -0.6411
vn -0.2340 0.1001 -0.9671
vn 0.0186 0.4131 -0.9105
vn 0.0160 -0.0225 -0.9996
vn 0.0157 -0.0099 -0.9998
vn 0.0205 -0.0127 0.9997
vn 0.0003 -0.0012 1.0000
vn 0.3652 -0.6525 0.6640
vn 0.2736 -0.7725 0.5730
vn 0.2731 -0.7724 0.5734
vn 0.0356 0.0092 -0.9993
vn 0.0357 0.0092 -0.9993
vn 0.1346 0.0421 -0.9900
vn 0.8240 -0.5654 0.0378
vn 0.8012 -0.5972 0.0381
vn 0.7878 -0.6124 0.0660
vn 0.7898 -0.6128 0.0277
vn 0.4890 0.5592 0.6694
vn -0.7831 0.1149 -0.6111
vn -0.7832 0.1149 -0.6111
vn -0.8259 0.1518 -0.5429
vn 0.9289 -0.3593 0.0900
vn 0.9288 -0.3594 0.0900
vn 0.9512 -0.2864 0.1149
vn 0.0424 0.9979 0.0481
vn -0.6409 0.5966 0.4830
vn -0.6311 0.6085 0.4812
vn -0.6310 0.6085 0.4812
vn 0.0320 0.9995 -0.0040
vn 0.0541 0.9984 -0.0190
vn 0.0567 0.9983 -0.0117
vn 0.0643 0.9978 -0.0150
vn 0.8106 0.5827 -0.0578
vn -0.9842 0.1771 0.0032
vn -0.9839 0.1788 0.0035
vn -0.9839 0.1784 0.0023
vn -0.0664 0.2818 0.9572
vn -0.0405 0.5032 0.8632
vn -0.4571 -0.8878 -0.0532
vn 0.9942 0.1037 -0.0275
vn 0.2158 -0.9760 0.0306
vn 0.9919 0.1268 0.0022
vn -0.9975 0.0322 0.0621
vn -0.0214 -0.0129 -0.9997
vn -0.0205 -0.0123 -0.9997
vn -0.0214 -0.0138 -0.9997
vn -0.9325 -0.3457 0.1047
vn -0.2171 0.9317 -0.2914
vn -0.2171 0.9316 -0.2914
vn -0.3352 0.8796 -0.3376
vn 0.1406 0.7403 0.6574
vn 0.1454 0.7494 0.6459
vn 0.5707 -0.5905 -0.5706
vn 0.5920 -0.5357 -0.6022
vn 0.0099 0.0081 0.9999
vn 0.0089 0.0107 0.9999
vn 0.0010 0.0061 1.0000
vn 0.0100 0.0070 0.9999
vn 0.0014 0.0067 1.0000
vn 0.0023 -0.0065 1.0000
vn -0.0020 0.0039 1.0000
vn 0.0006 0.0018 1.0000
vn -0.9990 0.0418 0.0133
vn -0.9989 0.0433 0.0180
vn -0.9987 0.0482 0.0191
vn -0.3421 0.8513 0.3979
vn -0.3564 0.8615 0.3616
vn -0.7494 0.6575 0.0781
vn 0.1005 -0.1381 0.9853
vn 0.1005 -0.1380 0.9853
vn 0.1830 -0.3448 0.9207
vn 0.7858 0.0622 -0.6154
vn 0.7378 0.0101 -0.6750
vn 0.7377 0.0100 -0.6750
vn 0.4313 -0.8979 -0.0883
vn -0.8836 -0.4671 0.0323
vn 0.9991 -0.0285 0.0299
vn 0.6192 0.7851 0.0157
vn 0.6077 0.7940 0.0150
vn -0.5057 -0.7009 -0.5030
vn -0.4030 -0.7819 -0.4757
vn -0.0324 0.0197 -0.9993
vn 0.0106 0.0185 -0.9998
vn 0.0060 0.0605 -0.9981
vn -0.5513 0.5274 0.6465
vn -0.5783 0.3942 0.7143
vn 0.0112 0.0025 0.9999
vn -0.0095 0.0089 0.9999
vn 0.0106 -0.0034 0.9999
vn 0.0131 0.0028 0.9999
vn 0.8682 -0.4962 0.0009
vn 0.8401 -0.5379 -0.0704
vn 0.8814 -0.4722 -0.0104
vn 0.8774 -0.4798 0.0060
vn 0.0504 0.7760 0.6287
vn 0.0477 0.7072 0.7054
vn 0.0647 0.0241 0.9976
vn 0.0798 0.0938 0.9924
vn 0.9994 -0.0221 0.0259
vn 0.9993 -0.0187 0.0327
vn 0.9993 -0.0193 0.0314
vn 0.9994 -0.0223 0.0255
vn -0.0020 0.9999 -0.0130
vn 0.1347 -0.9318 0.3370
vn 0.1347 -0.9318 0.3371
vn 0.0529 -0.9077 0.4164
vn 0.0912 0.6738 0.7333
vn 0.9976 -0.0354 0.0594
vn 0.9970 -0.0166 0.0759
vn 0.1711 -0.5965 0.7842
vn -0.0309 0.9987 0.0413
vn -0.0277 0.9992 0.0302
vn -0.0332 0.9994 -0.0132
vn -0.0408 0.9990 -0.0154
vn 0.0293 -0.9305 0.3651
vn 0.0807 -0.0081 0.9967
vn 0.0765 -0.0117 0.9970
vn 0.0737 -0.0208 0.9971
vn 0.0670 -0.0129 0.9977
vn 0.0105 0.0530 -0.9985
vn 0.0247 0.0362 -0.9990
vn 0.0247 0.0363 -0.9990
vn -0.6343 -0.0212 0.7728
vn -0.6232 -0.0230 0.7818
vn -0.6282 -0.0291 0.7775
vn 0.3626 -0.7307 -0.5784
vn 0.2027 -0.8725 -0.4447
vn 0.2027 -0.8724 -0.4447
vn 0.0070 -0.3616 0.9323
vn -0.1872 -0.9760 0.1112
vn -0.1851 -0.9763 0.1123
vn -0.1856 -0.9762 0.1120
vn -0.1883 -0.9759 0.1108
vn 0.0546 -0.3569 0.9326
vn 0.0667 -0.5095 0.8579
vn -0.0063 -0.7939 0.6080
vn 0.6115 0.6433 -0.4606
vn 0.6085 0.6170 -0.4991
vn 0.6636 0.1283 0.7370
vn 0.6635 0.1282 0.7371
vn 0.7038 0.1476 0.6949
vn 0.0078 0.6455 -0.7637
vn 0.0157 -0.5138 -0.8577
vn -0.9782 0.2072 0.0101
vn -0.9783 0.2072 0.0101
vn -0.9094 0.4098 0.0705
vn 0.4048 0.7181 0.5662
vn 0.3200 0.8417 0.4349
vn -0.0108 -0.0236 -0.9997
vn -0.1516 -0.9778 -0.1446
vn -0.1537 -0.9745 -0.1632
vn -0.5203 0.6812 0.5151
vn -0.5194 0.6833 0.5131
vn -0.5222 0.6762 0.5197
vn -0.5230 0.6740 0.5218
vn -0.9963 0.0143 0.0845
vn -0.9966 0.0176 0.0810
vn -0.9965 0.0176 0.0815
vn -0.9964 0.0117 0.0835
vn 0.5455 0.8133 0.2024
vn 0.5753 0.7700 0.2760
vn -0.8146 -0.5789 0.0370
vn -0.8146 -0.5788 0.0370
vn -0.5882 -0.8084 0.0233
vn -0.9447 -0.3233 0.0560
vn -0.7537 -0.6561 0.0380
vn -0.0077 0.8369 0.5472
vn -0.0077 0.8370 0.5472
vn -0.0401 0.9120 0.4081
vn 0.0409 0.1241 0.9914
vn 0.0133 0.1336 0.9909
vn 0.0134 0.1336 0.9909
vn 0.8664 -0.1067 -0.4878
vn -0.8040 -0.1169 -0.5831
vn -0.9957 0.0166 0.0913
vn -0.9957 0.0134 0.0918
vn -0.9955 0.0188 0.0927
vn -0.9957 0.0167 0.0916
vn 0.6985 0.7149 0.0306
vn 0.6986 0.7149 0.0306
vn 0.7582 0.6503 0.0466
vn -1.0000 -0.0054 0.0003
vn -0.9998 0.0012 -0.0179
vn 0.0614 0.0141 0.9980
vn 0.0590 0.0183 0.9981
vn 0.0599 0.0171 0.9981
vn -0.0227 0.9994 -0.0268
vn -0.0240 0.9993 -0.0275
vn -0.0002 0.9999 -0.0118
vn -0.0222 0.9997 0.0051
vn 0.0292 -0.9887 -0.1469
vn 0.0278 -0.9883 -0.1500
vn 0.0278 -0.9887 -0.1475
vn 0.0287 -0.9888 -0.1462
vn 0.8669 -0.4982 0.0165
vn 0.8310 -0.5560 -0.0160
vn 0.8507 -0.5245 0.0364
vn 0.9997 -0.0136 0.0182
vn 0.9990 -0.0395 0.0199
vn 0.9990 -0.0402 0.0197
vn 0.9994 -0.0341 0.0014
vn -0.7893 -0.1288 -0.6003
vn 0.7050 -0.1472 0.6938
vn 0.6158 -0.0924 0.7825
vn 0.0362 -0.0458 0.9983
vn 0.0247 -0.0563 0.9981
vn -0.0452 0.7749 -0.6305
vn -0.0371 0.7985 -0.6009
vn -0.0369 0.7985 -0.6009
vn -0.9989 0.0079 0.0452
vn -0.9985 -0.0525 0.0135
vn 0.0344 -0.9910 -0.1297
vn 0.0291 -0.9890 -0.1453
vn 0.0247 -0.9893 -0.1440
vn 0.7385 -0.0479 -0.6725
vn 0.7456 0.0114 -0.6663
vn 0.7727 -0.0604 -0.6318
vn 0.7536 -0.0654 -0.6541
vn -0.9989 0.0378 0.0276
vn -0.0244 -0.0141 -0.9996
vn 0.0147 0.0197 -0.9997
vn -0.9976 0.0230 0.0658
vn -0.9939 -0.0394 -0.1033
vn -0.9038 0.4045 0.1397
vn -0.9041 0.4037 0.1398
vn -0.9033 0.4057 0.1394
vn -0.9031 0.4063 0.1393
vn -0.0009 -0.0073 -1.0000
vn 0.4217 0.0645 0.9045
vn 0.4854 0.0313 0.8737
vn -0.6941 -0.0696 0.7165
vn -0.6954 -0.0699 0.7153
vn -0.6918 -0.0690 0.7188
vn -0.6904 -0.0686 0.7202
vn -0.4216 0.7232 -0.5470
vn -0.3537 0.7578 -0.5483
vn 0.0432 0.6714 0.7398
vn 0.0433 0.5877 0.8079
vn -0.9939 0.0765 0.0796
vn -0.9941 0.0749 0.0781
vn -0.9940 0.0756 0.0788
vn -0.9938 0.0770 0.0801
vn -0.0200 0.9994 -0.0276
vn -0.0167 0.9996 -0.0205
vn -0.0334 0.9990 -0.0292
vn -0.0401 0.9987 -0.0308
vn -0.7699 -0.0156 0.6380
vn 0.4337 0.0355 0.9004
vn 0.4336 0.0355 0.9004
vn 0.4160 0.0440 0.9083
vn 0.4159 0.0441 0.9083
vn 0.5214 0.6736 0.5239
vn 0.5489 0.6595 0.5136
vn -0.9993 0.0073 0.0354
vn -0.9993 0.0073 0.0355
vn -0.9977 -0.0115 0.0675
vn 0.7075 0.0233 0.7064
vn 0.6346 -0.0094 0.7727
vn 0.6346 -0.0094 0.7728
vn 0.0647 0.0186 0.9977
vn 0.0607 0.0157 0.9980
vn 0.0598 0.0135 0.9981
vn 0.0653 0.0192 0.9977
vn -0.0246 0.6096 0.7923
vn -0.0246 0.6096 0.7924
vn -0.0327 0.8343 0.5503
vn 0.1387 0.9583 -0.2499
vn 0.4984 0.8655 0.0501
vn 0.0227 0.9936 0.1108
vn -0.7178 0.6939 0.0570
vn -0.0020 0.4739 -0.8805
vn -0.7322 0.0608 0.6784
vn -0.7151 0.0663 0.6959
vn -0.7150 0.0663 0.6959
vn 0.7038 0.7047 -0.0899
vn 0.6987 0.7094 -0.0924
vn 0.6947 0.7139 -0.0878
vn 0.0422 0.7138 -0.6991
vn 0.0425 0.7138 -0.6990
vn 0.0216 0.7773 -0.6287
vn -0.7902 -0.3901 -0.4727
vn -0.7977 -0.3766 -0.4711
vn -0.6553 -0.4155 -0.6308
vn -0.6016 0.4416 -0.6656
vn 0.4784 0.5948 0.6460
vn 0.1076 -0.0794 0.9910
vn -0.9988 -0.0476 -0.0089
vn -0.9987 -0.0495 -0.0118
vn -0.9986 -0.0518 -0.0047
vn 0.7307 0.1413 0.6679
vn 0.7055 -0.0586 0.7063
vn 0.0615 -0.1923 -0.9794
vn 0.9736 -0.2110 0.0870
vn 0.0146 -0.0305 0.9994
vn 0.2292 0.6249 0.7463
vn 0.9970 -0.0771 -0.0044
vn 0.0384 0.0747 -0.9965
vn 0.9961 -0.0886 0.0056
vn 0.9994 -0.0013 0.0345
vn 0.1018 -0.1077 -0.9890
vn 0.0132 0.2002 0.9797
vn 0.0123 0.2164 0.9762
vn 0.0100 0.2081 0.9781
vn -0.0364 0.2880 0.9569
vn 0.5556 -0.6782 0.4809
vn 0.6050 -0.6327 0.4833
vn 0.0595 -0.1165 0.9914
vn 0.0795 -0.2522 0.9644
vn -0.9942 -0.1072 -0.0037
vn -0.6597 -0.0700 0.7482
vn -0.9831 0.0785 0.1656
vn -0.9838 -0.1022 0.1473
vn -0.0562 -0.0173 -0.9983
vn -0.0506 0.0088 -0.9987
vn 0.1187 0.0219 -0.9927
vn 0.9704 -0.2300 0.0741
vn -0.6677 -0.0258 -0.7440
vn -0.6677 -0.0258 -0.7439
vn -0.6788 0.0205 -0.7340
vn 0.0195 0.0516 0.9985
vn -0.9987 0.0305 0.0416
vn -0.9990 0.0034 0.0451
vn -0.9990 0.0035 0.0451
vn -0.9981 0.0555 -0.0264
vn -0.9992 0.0249 -0.0317
vn 0.4564 0.0347 0.8891
vn -0.9926 0.0143 0.1208
vn -0.9926 0.0362 0.1163
vn 0.6693 -0.0116 -0.7429
vn 0.6688 -0.0066 -0.7434
vn 0.6689 -0.0082 -0.7433
vn 0.6695 -0.0131 -0.7427
vn 0.9927 0.1198 0.0120
vn 0.9993 0.0345 0.0157
vn 0.9957 -0.0927 -0.0010
vn 0.0632 -0.1471 -0.9871
vn 0.8123 -0.1087 0.5730
vn 0.8458 -0.0328 0.5325
vn 0.8458 -0.0328 0.5326
vn 0.0538 0.0521 0.9972
vn 0.0591 0.0789 0.9951
vn -0.1096 -0.0496 -0.9927
vn -0.1060 -0.0951 -0.9898
vn -0.6414 -0.1806 -0.7457
vn -0.5599 -0.3332 -0.7586
vn 0.9986 -0.0535 0.0023
vn 0.1014 0.0702 0.9924
vn 0.1017 0.0723 0.9922
vn 0.1016 0.0717 0.9922
vn 0.1013 0.0694 0.9924
vn 0.9991 -0.0274 0.0314
vn -0.9995 0.0276 0.0151
vn -0.9934 0.1106 0.0317
vn 0.0484 0.7146 -0.6979
vn 0.9996 0.0170 -0.0213
vn 0.9992 0.0350 -0.0189
vn -0.9982 -0.0599 -0.0082
vn -0.9982 -0.0605 -0.0037
vn -0.9989 -0.0469 -0.0083
vn -0.9987 -0.0496 -0.0077
vn -0.7214 -0.0640 -0.6895
vn -0.7486 0.0638 -0.6600
vn 0.0101 0.2125 0.9771
vn 0.0122 0.2207 0.9753
vn 0.0044 0.2247 0.9744
vn 0.0048 -0.1085 0.9941
vn -0.0324 -0.1010 0.9944
vn 0.0073 -0.1200 0.9927
vn 0.1992 -0.0572 -0.9783
vn 0.0156 -0.0253 -0.9996
vn 0.1479 0.2323 -0.9613
vn -0.0045 -0.0118 -0.9999
vn -0.0036 -0.0174 -0.9998
vn -0.0039 -0.0154 -0.9999
vn -0.0048 -0.0098 -0.9999
vn 0.6203 -0.0159 -0.7842
vn 0.6200 -0.0170 -0.7845
vn 0.6208 -0.0137 -0.7838
vn 0.6211 -0.0128 -0.7837
vn 0.0861 -0.0284 0.9959
vn 0.0144 -0.1034 0.9945
vn 0.0213 -0.0653 0.9976
vn 0.0197 -0.0318 0.9993
vn 0.0058 -0.0352 0.9994
vn -0.6933 -0.1894 -0.6953
vn -0.6663 -0.0333 -0.7450
vn -0.7405 -0.0266 0.6716
vn -0.6682 -0.1568 0.7273
vn 0.0060 -0.0483 -0.9988
vn 0.0060 -0.0484 -0.9988
vn 0.0090 -0.0256 -0.9996
vn 0.9870 0.1578 0.0305
vn 0.9853 0.1648 -0.0458
vn 0.9592 0.2827 -0.0077
vn 0.9633 0.2651 0.0424
vn 0.9970 -0.0097 0.0769
vn 0.9999 0.0020 0.0165
vn 0.9870 0.1572 0.0349
vn 0.9886 0.1165 0.0950
vn -0.8760 0.0820 0.4752
vn -0.8621 0.0576 0.5034
vn 0.8366 0.0339 -0.5467
vn 0.8390 0.0180 -0.5438
vn 0.7302 -0.1584 -0.6647
vn 0.7020 -0.0842 -0.7072
vn -0.9997 0.0249 0.0075
vn -1.0000 -0.0038 0.0057
vn -1.0000 -0.0039 0.0057
vn -0.7112 -0.0142 0.7029
vn -0.7094 -0.0055 0.7048
vn -0.7099 -0.0081 0.7042
vn -0.7117 -0.0168 0.7023
g Column_V2_1_Column_V2_1_Collor_Material
usemtl Collor_Material
s off
f 78/1/1 26/2/1 25/3/1
f 278/4/2 75/5/2 271/6/2
f 255/7/3 90/8/3 250/9/3
f 164/10/4 239/11/4 240/12/4
f 203/13/5 232/14/6 242/15/7
f 90/16/8 16/17/8 89/18/8
f 60/19/9 153/20/9 167/21/9
f 70/22/10 178/23/10 172/24/10
f 79/25/11 156/26/11 160/27/11
f 234/28/12 56/29/12 235/30/12
f 59/31/13 257/32/13 256/33/13
f 75/34/14 27/35/14 76/36/14
f 80/37/15 275/38/16 274/39/17
f 82/40/18 263/41/19 262/42/20
f 62/43/21 194/44/21 206/45/21
f 250/46/22 89/47/22 251/48/22
f 57/49/23 9/50/23 58/51/23
f 205/52/24 29/53/24 195/54/24
f 49/55/25 197/56/25 207/57/25
f 68/58/26 103/59/26 104/60/26
f 58/61/27 175/62/27 169/63/27
f 61/64/28 3/65/28 62/66/28
f 51/67/29 215/68/29 209/69/29
f 7/70/30 219/71/30 213/72/31 84/73/31
f 182/74/32 140/75/32 187/76/32
f 217/77/33 2/78/33 93/79/34 211/80/35
f 127/81/36 141/82/36 144/83/36
f 118/84/37 184/85/37 181/86/37
f 222/87/38 136/88/38 224/89/38
f 114/90/39 225/91/39 221/92/39
f 192/93/40 124/94/40 183/95/40
f 242/96/41 238/97/42 43/98/43 203/99/43
f 135/100/44 133/101/44 134/102/44
f 142/103/45 187/104/46 186/105/47
f 188/106/48 147/107/48 189/108/48
f 190/109/49 147/110/50 146/111/51 231/112/52
f 231/113/53 146/114/53 230/115/53
f 186/116/54 143/117/55 142/118/56
f 139/119/57 191/120/57 186/121/57
f 253/122/58 172/123/58 63/124/59 246/125/59
f 150/126/60 190/127/61 151/128/62
f 149/129/63 189/130/63 150/131/63
f 186/132/64 140/133/64 139/134/64
f 182/135/65 124/136/65 123/137/65
f 117/138/66 183/139/66 125/140/66
f 181/141/67 133/142/67 119/143/67
f 134/144/68 188/145/68 149/146/68
f 162/147/69 32/148/69 53/149/69
f 275/150/70 160/151/71 276/152/72
f 160/153/73 30/154/73 73/155/73
f 172/156/74 97/157/74 63/158/74
f 237/159/75 236/160/75 61/161/76 62/162/76
f 47/163/77 240/164/77 236/165/77
f 151/166/78 228/167/78 152/168/78
f 223/169/79 136/170/79 135/171/79
f 116/172/80 224/173/80 121/174/80
f 209/175/81 107/176/81 69/177/81
f 207/178/82 111/179/82 71/180/82
f 205/181/83 28/182/83 75/183/83
f 206/184/84 14/185/84 55/186/84
f 212/187/85 57/188/85 244/189/86 254/190/87
f 236/191/88 166/192/88 61/193/88
f 47/194/89 237/195/89 48/196/89
f 39/197/90 235/198/90 40/199/90
f 166/200/91 239/201/91 68/202/91
f 248/203/92 209/204/92 69/205/92
f 256/206/93 214/207/93 59/208/93
f 266/209/94 66/210/94 214/211/95
f 274/212/96 34/213/96 33/214/96
f 204/215/97 281/216/97 48/217/97
f 164/218/98 285/219/98 44/220/98
f 163/221/99 286/222/99 40/223/99
f 163/224/100 282/225/100 288/226/100
f 39/227/101 290/228/101 204/229/101
f 47/230/102 289/231/103 164/232/104
f 154/233/105 4/234/105 61/235/106 166/236/106
f 78/237/107 77/238/107 26/239/107
f 1/240/108 177/241/109 171/242/110 94/243/111
f 240/244/112 239/245/112 166/246/113 236/247/113
f 278/248/114 205/249/114 75/250/114
f 26/251/115 77/252/115 165/253/116 157/254/117
f 255/255/118 210/256/118 90/257/118
f 169/258/119 52/259/119 251/260/120 252/261/121
f 247/262/122 93/263/123 94/264/124 246/265/125
f 259/266/126 258/267/126 65/268/127 66/269/128
f 22/270/129 49/271/130 50/272/131 21/273/132
f 110/274/133 193/275/134 208/276/133 88/277/135
f 271/278/136 75/279/136 76/280/137 270/281/137
f 252/282/138 170/283/138 91/284/138
f 242/285/139 202/286/140 67/287/141 238/288/141
f 161/289/142 46/290/142 270/291/143 277/292/144
f 164/293/145 44/294/145 239/295/145
f 203/296/146 36/297/147 232/298/148
f 90/299/149 15/300/149 16/301/149
f 277/302/150 270/303/150 76/304/151 165/305/151
f 60/306/152 5/307/152 153/308/152
f 70/309/153 108/310/153 178/311/153
f 140/312/154 123/313/154 122/314/155 137/315/156
f 235/316/157 241/317/157 163/318/158 40/319/158
f 17/320/159 18/321/159 51/322/160 52/323/160
f 130/324/161 226/325/162 229/326/163 145/327/164
f 85/328/165 259/329/165 266/330/166 213/331/166
f 31/332/167 54/333/168 53/334/169 32/335/169
f 79/336/170 24/337/170 156/338/170
f 148/339/171 131/340/172 130/341/173 145/342/173
f 214/343/174 220/344/175 6/345/176 59/346/176
f 234/347/177 55/348/177 56/349/177
f 273/350/178 277/351/178 165/352/179 77/353/180
f 59/354/181 60/355/181 257/356/181
f 72/357/182 174/358/182 265/359/183 261/360/184
f 265/361/185 174/362/186 65/363/187 258/364/188
f 245/365/189 244/366/189 57/367/190 58/368/190
f 245/369/191 252/370/191 91/371/192 92/372/192
f 8/373/193 7/374/194 84/375/195 83/376/195
f 199/377/196 278/378/196 271/379/197 45/380/197
f 75/381/198 28/382/198 27/383/198
f 276/384/199 159/385/200 34/386/201 275/387/201
f 125/388/202 183/389/202 182/390/203 126/391/203
f 80/392/204 79/393/205 275/394/206
f 82/395/207 81/396/207 263/397/207
f 62/398/208 3/399/208 194/400/208
f 99/401/209 100/402/209 86/403/210 85/404/210
f 11/405/211 91/406/211 12/407/211
f 250/408/212 90/409/212 89/410/212
f 121/411/213 122/412/214 123/413/215 124/414/216
f 57/415/217 10/416/217 9/417/217
f 205/418/218 74/419/218 29/420/218
f 1/421/219 94/422/219 93/423/220 2/424/220
f 41/425/221 161/426/222 277/427/223 273/428/223
f 269/429/224 276/430/225 160/431/226 73/432/227
f 48/433/228 237/434/229 243/435/230 204/436/230
f 229/437/231 226/438/232 127/439/233 144/440/234
f 95/441/235 96/442/235 248/443/236 249/444/237
f 13/445/238 56/446/239 55/447/240 14/448/240
f 269/449/241 37/450/241 159/451/242 276/452/242
f 251/453/243 52/454/243 51/455/243 250/456/243
f 228/457/244 223/458/245 135/459/244 152/460/246
f 173/461/247 265/462/248 258/463/249 86/464/250
f 50/465/251 264/466/252 167/467/253 21/468/254
f 205/469/255 278/470/256 268/471/257 74/472/258
f 207/473/259 71/474/260 260/475/261 267/476/262
f 49/477/263 22/478/263 197/479/263
f 68/480/264 67/481/264 103/482/264
f 83/483/265 84/484/266 256/485/267 257/486/268
f 102/487/269 220/488/269 214/489/270 66/490/271
f 196/491/272 23/492/273 80/493/272 201/494/274
f 58/495/275 9/496/275 175/497/275
f 61/498/276 4/499/276 3/500/276
f 19/501/277 82/502/277 208/503/278 193/504/278
f 219/505/279 99/506/280 85/507/281 213/508/281
f 126/509/282 187/510/282 142/511/283 141/512/284
f 226/513/285 225/514/285 128/515/286 127/516/286
f 108/517/287 70/518/288 69/519/289 107/520/289
f 51/521/290 18/522/290 215/523/290
f 20/524/291 158/525/291 168/526/292 81/527/293
f 157/528/294 165/529/294 76/530/295 27/531/295
f 200/532/296 42/533/296 272/534/297 279/535/297
f 199/536/298 38/537/298 268/538/299 278/539/300
f 93/540/301 247/541/302 254/542/303 211/543/304
f 147/544/305 188/545/306 185/546/307 148/547/307
f 211/548/308 92/549/308 11/550/308
f 100/551/309 179/552/309 173/553/310 86/554/310
f 226/555/311 130/556/312 129/557/311 225/558/313
f 287/559/314 47/560/315 48/561/316 281/562/316
f 185/563/317 134/564/318 133/565/319 184/566/320
f 74/567/321 268/568/321 269/569/322 73/570/322
f 201/571/323 279/572/323 272/573/324 78/574/325
f 72/575/326 261/576/326 260/577/327 71/578/328
f 70/579/329 172/580/329 253/581/330 249/582/330
f 70/583/331 249/584/331 248/585/332 69/586/333
f 182/587/334 123/588/334 140/589/334
f 185/590/335 131/591/335 148/592/335
f 218/593/336 10/594/337 57/595/338 212/596/338
f 257/597/339 60/598/340 167/599/341 264/600/342
f 211/601/343 254/602/343 244/603/344 92/604/344
f 224/605/345 223/606/345 122/607/346 121/608/346
f 118/609/347 132/610/347 184/611/347
f 222/612/348 120/613/348 136/614/348
f 101/615/349 102/616/350 66/617/351 65/618/351
f 8/619/352 83/620/352 168/621/353 158/622/353
f 114/623/354 128/624/354 225/625/354
f 192/626/355 113/627/355 124/628/355
f 120/629/356 119/630/356 133/631/356
f 152/632/357 135/633/357 134/634/358 149/635/358
f 98/636/359 218/637/359 212/638/360 64/639/360
f 141/640/361 142/641/361 143/642/362 144/643/363
f 45/644/364 271/645/364 270/646/365 46/647/365
f 217/648/366 211/649/367 11/650/368 14/651/369
f 51/652/370 209/653/370 255/654/371 250/655/371
f 112/656/372 72/657/372 71/658/373 111/659/374
f 62/660/375 206/661/376 243/662/377 237/663/377
f 112/664/378 180/665/379 174/666/380 72/667/381
f 283/668/382 44/669/382 285/670/382
f 37/671/383 269/672/384 268/673/385 38/674/385
f 104/675/386 154/676/387 166/677/388 68/678/388
f 190/679/389 189/680/389 147/681/389
f 137/682/390 138/683/390 139/684/391 140/685/392
f 227/686/393 151/687/393 190/688/393
f 150/689/394 189/690/395 190/691/396
f 149/692/397 188/693/397 189/694/397
f 186/695/398 187/696/399 140/697/400
f 196/698/401 201/699/401 78/700/402 25/701/402
f 182/702/403 183/703/403 124/704/403
f 117/705/404 192/706/404 183/707/404
f 181/708/405 184/709/405 133/710/405
f 134/711/406 185/712/406 188/713/406
f 126/714/407 182/715/407 187/716/407
f 266/717/408 214/718/409 256/719/408 213/720/410
f 162/721/411 155/722/411 32/723/411
f 30/724/412 29/725/413 74/726/414 73/727/414
f 284/728/415 36/729/415 203/730/416 291/731/416
f 129/732/417 130/733/417 131/734/418 132/735/418
f 82/736/419 262/737/420 267/738/421 208/739/422
f 267/740/423 260/741/424 88/742/425 208/743/426
f 275/744/427 79/745/428 160/746/429
f 284/747/430 282/748/430 35/749/431 36/750/431
f 160/751/432 156/752/432 30/753/432
f 198/754/433 103/755/434 67/756/435 202/757/435
f 85/758/436 86/759/436 258/760/437 259/761/438
f 172/762/439 178/763/439 97/764/439
f 167/765/440 153/766/440 21/767/440
f 47/768/441 164/769/441 240/770/441
f 109/771/442 87/772/442 173/773/443 179/774/443
f 5/775/444 60/776/444 59/777/445 6/778/445
f 64/779/446 212/780/446 254/781/447 247/782/448
f 23/783/449 24/784/449 79/785/450 80/786/450
f 49/787/451 207/788/452 267/789/453 262/790/454
f 131/791/455 185/792/456 184/793/457 132/794/458
f 291/795/459 203/796/459 43/797/460 283/798/460
f 137/799/461 122/800/461 223/801/462 228/802/462
f 253/803/463 246/804/464 94/805/465 171/806/466
f 231/807/467 230/808/467 143/809/467
f 135/810/468 136/811/469 120/812/470 133/813/470
f 151/814/471 227/815/471 228/816/471
f 249/817/472 253/818/472 171/819/473 95/820/473
f 223/821/474 224/822/474 136/823/474
f 231/824/475 143/825/476 186/826/477 191/827/478
f 116/828/479 222/829/479 224/830/479
f 232/831/480 54/832/481 202/833/482 242/834/483
f 204/835/484 243/836/484 234/837/485 39/838/486
f 50/839/487 49/840/487 262/841/488 263/842/489
f 98/843/490 64/844/490 63/845/491 97/846/492
f 209/847/493 215/848/493 107/849/493
f 121/850/494 124/851/495 113/852/496 116/853/497
f 31/854/498 198/855/498 202/856/499 54/857/499
f 207/858/500 197/859/500 111/860/500
f 148/861/501 145/862/501 146/863/502 147/864/502
f 239/865/503 44/866/504 43/867/505 238/868/505
f 205/869/506 195/870/506 28/871/506
f 206/872/507 194/873/507 14/874/507
f 12/875/508 91/876/509 170/877/510 176/878/510
f 110/879/511 88/880/511 87/881/512 109/882/512
f 256/883/513 84/884/513 213/885/513
f 125/886/514 128/887/514 114/888/515 117/889/515
f 19/890/516 20/891/517 81/892/518 82/893/519
f 162/894/520 53/895/521 233/896/522 241/897/523
f 106/898/524 96/899/524 95/900/525 105/901/525
f 17/902/526 52/903/527 169/904/528 175/905/528
f 155/906/529 162/907/529 56/908/530 13/909/530
f 106/910/531 216/911/532 210/912/533 96/913/533
f 33/914/534 200/915/534 279/916/535 274/917/536
f 47/918/537 236/919/537 237/920/537
f 39/921/538 234/922/538 235/923/538
f 163/924/539 241/925/540 233/926/541 35/927/542
f 105/928/543 95/929/544 171/930/545 177/931/545
f 257/932/546 264/933/546 168/934/547 83/935/547
f 248/936/548 255/937/549 209/938/550
f 191/939/551 227/940/552 190/941/553 231/942/554
f 225/943/555 129/944/556 115/945/557 221/946/558
f 101/947/559 65/948/559 174/949/560 180/950/561
f 261/951/562 265/952/563 173/953/564 87/954/565
f 92/955/566 244/956/566 245/957/566
f 239/958/567 238/959/567 67/960/568 68/961/568
f 80/962/569 274/963/569 279/964/570 201/965/570
f 143/966/571 230/967/571 229/968/572 144/969/573
f 168/970/574 264/971/574 263/972/575 81/973/575
f 132/974/576 118/975/576 115/976/577 129/977/578
f 64/978/579 247/979/580 246/980/581 63/981/582
f 50/982/583 263/983/583 264/984/583
f 206/985/584 55/986/584 234/987/585 243/988/585
f 245/989/586 58/990/586 169/991/587 252/992/587
f 16/993/588 176/994/589 170/995/590 89/996/591
f 266/997/592 259/998/592 66/999/592
f 273/1000/593 272/1001/593 42/1002/594 41/1003/594
f 35/1004/595 233/1005/596 232/1006/597 36/1007/598
f 286/1008/599 280/1009/599 39/1010/600 40/1011/600
f 228/1012/601 227/1013/601 138/1014/602 137/1015/602
f 170/1016/603 252/1017/604 251/1018/605 89/1019/606
f 191/1020/607 139/1021/608 138/1022/609 227/1023/610
f 274/1024/611 275/1025/611 34/1026/611
f 77/1027/612 78/1028/613 272/1029/614 273/1030/615
f 152/1031/616 149/1032/616 150/1033/617 151/1034/617
f 56/1035/618 162/1036/619 241/1037/620 235/1038/620
f 261/1039/621 87/1040/621 88/1041/622 260/1042/623
f 210/1043/624 255/1044/625 248/1045/626 96/1046/627
f 15/1047/628 90/1048/629 210/1049/630 216/1050/630
f 204/1051/631 290/1052/631 281/1053/631
f 164/1054/632 289/1055/632 285/1056/632
f 163/1057/633 288/1058/633 286/1059/633
f 163/1060/634 35/1061/634 282/1062/634
f 39/1063/635 280/1064/635 290/1065/635
f 233/1066/636 53/1067/636 54/1068/637 232/1069/638
f 47/1070/639 287/1071/640 289/1072/641
f 146/1073/642 145/1074/643 229/1075/644 230/1076/644
f 127/1077/645 128/1078/645 125/1079/646 141/1080/646
f 125/1081/647 126/1082/647 141/1083/647
f 11/1084/648 92/1085/648 91/1086/648
f 283/1087/649 43/1088/649 44/1089/649
f 283/1090/650 222/1091/650 291/1092/650
f 153/1093/651 30/1094/652 156/1095/653
f 109/1096/654 108/1097/654 107/1098/655 110/1099/655
f 194/1100/656 2/1101/656 217/1102/656
f 154/1103/657 105/1104/657 177/1105/657
f 193/1106/658 18/1107/658 19/1108/658
f 25/1109/659 112/1110/659 111/1111/659
f 287/1112/660 181/1113/660 289/1114/660
f 280/1115/661 221/1116/661 290/1117/661
f 289/1118/662 119/1119/662 285/1120/662
f 4/1121/663 177/1122/663 1/1123/663
f 290/1124/664 115/1125/664 281/1126/664
f 110/1127/665 215/1128/666 193/1129/667
f 111/1130/668 196/1131/668 25/1132/668
f 120/1133/669 283/1134/669 285/1135/670 119/1136/670
f 291/1137/671 116/1138/671 284/1139/671
f 283/1140/672 120/1141/672 222/1142/672
f 153/1143/673 5/1144/673 30/1145/673
f 24/1146/674 23/1147/674 22/1148/674 21/1149/674
f 192/1150/675 288/1151/675 282/1152/676 113/1153/676
f 99/1154/677 219/1155/677 218/1156/678 98/1157/678
f 194/1158/679 3/1159/679 2/1160/679
f 154/1161/680 104/1162/680 105/1163/680
f 14/1164/681 11/1165/682 12/1166/683 13/1167/683
f 193/1168/684 215/1169/684 18/1170/684
f 12/1171/685 176/1172/685 155/1173/686 13/1174/687
f 9/1175/688 8/1176/688 158/1177/689 175/1178/689
f 25/1179/690 26/1180/690 112/1181/690
f 176/1182/691 16/1183/691 32/1184/692 155/1185/692
f 2/1186/693 3/1187/694 4/1188/695 1/1189/696
f 108/1190/697 109/1191/697 179/1192/698 178/1193/698
f 287/1194/699 118/1195/699 181/1196/699
f 280/1197/700 114/1198/700 221/1199/700
f 105/1200/701 104/1201/701 103/1202/702 106/1203/703
f 31/1204/704 15/1205/704 216/1206/705 198/1207/705
f 220/1208/706 195/1209/706 29/1210/707 6/1211/707
f 30/1212/708 5/1213/708 6/1214/709 29/1215/709
f 289/1216/710 181/1217/710 119/1218/710
f 198/1219/711 216/1220/712 106/1221/713 103/1222/714
f 4/1223/715 154/1224/715 177/1225/715
f 117/1226/716 286/1227/716 288/1228/717 192/1229/717
f 290/1230/718 221/1231/718 115/1232/718
f 179/1233/719 100/1234/719 97/1235/720 178/1236/720
f 156/1237/721 24/1238/722 21/1239/723 153/1240/724
f 10/1241/725 7/1242/725 8/1243/726 9/1244/726
f 110/1245/727 107/1246/728 215/1247/729
f 111/1248/730 197/1249/731 196/1250/732
f 14/1251/733 194/1252/734 217/1253/735
f 218/1254/736 219/1255/737 7/1256/738 10/1257/739
f 102/1258/740 101/1259/741 27/1260/742 28/1261/743
f 291/1262/744 222/1263/744 116/1264/744
f 23/1265/745 196/1266/746 197/1267/747 22/1268/748
f 117/1269/749 114/1270/749 280/1271/750 286/1272/750
f 116/1273/751 113/1274/751 282/1275/752 284/1276/752
f 28/1277/753 195/1278/754 220/1279/755 102/1280/755
f 26/1281/756 157/1282/757 180/1283/758 112/1284/759
f 157/1285/760 27/1286/761 101/1287/762 180/1288/763
f 16/1289/764 15/1290/764 31/1291/765 32/1292/765
f 99/1293/766 98/1294/766 97/1295/767 100/1296/767
f 118/1297/768 287/1298/768 281/1299/769 115/1300/769
f 175/1301/770 158/1302/770 20/1303/771 17/1304/772
f 17/1305/773 20/1306/774 19/1307/775 18/1308/776
