# Blender v3.0.0 OBJ File: 'aa.blend'
# www.blender.org
mtllib Column_V1_2.mtl
o Column_V1_2
v 0.335630 2.285707 0.368642
v 0.485744 2.396032 0.517873
v 0.335457 1.695750 0.370329
v 0.186866 1.588032 0.368421
v 0.334430 1.588758 0.221932
v 0.395095 0.000000 0.292874
v 0.361530 0.000000 0.344862
v 0.309797 1.031057 0.285782
v 0.260629 1.031860 0.331117
v 0.283672 1.445567 0.360960
v 0.328069 1.444659 0.318958
v -0.358843 0.000000 0.371767
v -0.464061 0.000000 0.193958
v -0.299797 1.032394 0.344448
v -0.180479 1.707644 0.374576
v -0.416926 1.786114 0.145781
v -0.325338 2.285641 0.370286
v -0.417508 2.285779 0.276133
v -0.438185 -0.000000 -0.239547
v -0.275784 -0.000000 -0.418498
v -0.420075 1.786642 -0.241144
v -0.268894 1.786940 -0.408301
v -0.417348 2.285661 -0.234778
v -0.273584 2.285722 -0.386343
v 0.243574 -0.000000 -0.456835
v 0.357067 -0.000000 -0.353639
v 0.186963 1.015272 -0.366282
v 0.301327 1.016504 -0.229968
v 0.222720 1.786218 -0.414402
v 0.333940 1.766091 -0.281744
v 0.225853 2.285814 -0.388115
v 0.332524 2.285648 -0.269461
v 0.489249 2.458841 0.464827
v 0.430879 2.494427 0.487176
v 0.454667 2.490458 -0.459708
v 0.493195 2.464832 -0.426023
v 0.421448 2.461268 0.518314
v -0.538821 2.493833 0.416534
v -0.573041 2.459152 0.430167
v -0.464823 2.494131 0.490200
v -0.479666 2.458935 0.522050
v -0.425238 2.459651 -0.539509
v -0.376193 2.495630 -0.539039
v -0.539114 2.491911 -0.377019
v -0.572959 2.458881 -0.390878
v 0.444777 2.286038 0.478317
v -0.434451 2.285573 0.479242
v -0.479020 2.340104 0.524678
v -0.573377 2.339954 0.430569
v -0.528502 2.285710 0.385731
v -0.528602 2.285711 -0.346337
v -0.573218 2.339952 -0.390799
v -0.424856 2.339952 -0.539316
v -0.380347 2.285710 -0.494653
v 0.332377 2.285694 -0.494575
v 0.377083 2.339986 -0.539357
v 0.445125 2.285700 -0.381165
v -0.239063 1.026723 -0.351438
v -0.374192 0.958812 -0.205586
v -0.382673 1.031921 0.241053
v -0.381127 1.104653 -0.204207
v -0.234415 2.488673 0.158781
v 0.144191 2.499155 -0.200545
v 0.376952 2.493677 -0.539068
v 0.489429 2.375607 -0.426143
v 0.487890 2.340275 -0.389936
v 0.471113 2.316508 -0.406879
v 0.464401 2.340006 -0.451108
v 0.484468 2.331981 0.339647
v 0.488429 2.363230 0.522744
v 0.466677 2.339737 0.522191
v 0.477281 2.325015 0.511348
vt 0.915385 0.367329
vt 0.915385 0.601130
vt 0.881843 0.568509
vt 0.127756 0.688578
vt 0.127756 0.882526
vt 0.083981 0.700022
vt 0.364045 0.871511
vt 0.354576 0.841558
vt 0.364045 0.828705
vt 0.538687 0.141223
vt 0.538687 0.170386
vt 0.432865 0.149701
vt 0.271476 0.781272
vt 0.271476 0.942817
vt 0.248887 0.910384
vt 0.244888 0.778645
vt 0.244888 0.944587
vt 0.221288 0.910635
vt 0.483186 0.855480
vt 0.528194 0.824624
vt 0.528194 0.872637
vt 0.173995 0.688578
vt 0.173995 0.880138
vt 0.130562 0.866178
vt 0.901463 0.801994
vt 0.930119 0.605204
vt 0.930119 0.830766
vt 0.865431 0.065758
vt 0.875304 0.043841
vt 0.875304 0.077887
vt 0.081152 0.757027
vt 0.081152 0.805785
vt 0.072850 0.804483
vt 0.882348 0.294711
vt 0.910912 0.092633
vt 0.910912 0.323377
vt 0.766533 0.821059
vt 0.793514 0.816270
vt 0.793514 0.922211
vt 0.001403 0.684173
vt 0.081175 0.505641
vt 0.081175 0.754221
vt 0.734555 0.745845
vt 0.814477 0.605204
vt 0.814477 0.813463
vt 0.615570 0.001403
vt 0.615570 0.138417
vt 0.432865 0.071086
vt 0.600572 0.428090
vt 0.687356 0.367329
vt 0.687356 0.602398
vt 0.684166 0.227961
vt 0.773014 0.166868
vt 0.773014 0.364523
vt 0.560778 0.499164
vt 0.560778 0.547341
vt 0.556292 0.544078
vt 0.983004 0.318194
vt 0.967069 0.129024
vt 0.983004 0.092633
vt 0.559387 0.595034
vt 0.562839 0.587014
vt 0.562839 0.616352
vt 0.797840 0.088647
vt 0.752477 0.070773
vt 0.797840 0.059310
vt 0.597096 0.921497
vt 0.566483 0.732474
vt 0.597096 0.717539
vt 0.562839 0.584208
vt 0.556292 0.572651
vt 0.562839 0.550147
vt 0.033497 0.929150
vt 0.001403 0.893440
vt 0.033497 0.757027
vt 0.184383 0.505641
vt 0.184383 0.685772
vt 0.083981 0.519835
vt 0.480380 0.826664
vt 0.395038 0.706827
vt 0.480380 0.638984
vt 0.763727 0.951712
vt 0.734555 0.854598
vt 0.763727 0.816270
vt 0.887890 0.076541
vt 0.878111 0.065140
vt 0.887890 0.043841
vt 0.875477 0.001403
vt 0.875477 0.041034
vt 0.865431 0.009915
vt 0.918191 0.395351
vt 0.946613 0.367329
vt 0.946613 0.554376
vt 0.913719 0.121391
vt 0.942852 0.092633
vt 0.942852 0.284755
vt 0.563444 0.821818
vt 0.483186 0.748065
vt 0.563444 0.638984
vt 0.681360 0.167148
vt 0.681360 0.364523
vt 0.552672 0.309044
vt 0.957930 0.804069
vt 0.932925 0.638482
vt 0.957930 0.605204
vt 0.452294 0.188832
vt 0.448794 0.181192
vt 0.452294 0.173192
vt 0.577964 0.160308
vt 0.573860 0.144955
vt 0.577964 0.141223
vt 0.391680 0.883448
vt 0.367156 0.711727
vt 0.391680 0.679361
vt 0.546502 0.190028
vt 0.541494 0.177749
vt 0.546502 0.166245
vt 0.571054 0.159564
vt 0.565672 0.148230
vt 0.571054 0.141223
vt 0.988862 0.367329
vt 0.988862 0.558815
vt 0.970694 0.369846
vt 0.458325 0.829470
vt 0.458325 0.874608
vt 0.444526 0.866724
vt 0.364349 0.821057
vt 0.275712 0.825899
vt 0.330327 0.679361
vt 0.364349 0.685537
vt 0.966187 0.613759
vt 0.978534 0.605204
vt 0.978534 0.853784
vt 0.960736 0.847497
vt 0.432924 0.175471
vt 0.445988 0.173192
vt 0.445988 0.186359
vt 0.432865 0.184306
vt 0.272424 0.001403
vt 0.272424 0.190589
vt 0.001585 0.164262
vt 0.001403 0.017143
vt 0.708039 0.743591
vt 0.708039 0.879981
vt 0.662527 0.875444
vt 0.666170 0.744197
vt 0.710845 0.755360
vt 0.729319 0.743591
vt 0.729319 0.959150
vt 0.710886 0.947484
vt 0.391374 0.651227
vt 0.275712 0.676555
vt 0.289985 0.477361
vt 0.391374 0.471693
vt 0.250591 0.775839
vt 0.187189 0.774302
vt 0.197991 0.522186
vt 0.250591 0.505641
vt 0.278361 0.136869
vt 0.275230 0.001463
vt 0.430059 0.001403
vt 0.430059 0.174867
vt 0.797833 0.816653
vt 0.813870 0.816270
vt 0.813870 0.925292
vt 0.796320 0.925641
vt 0.278316 0.465321
vt 0.275712 0.193395
vt 0.392232 0.216540
vt 0.392232 0.468887
vt 0.563581 0.824624
vt 0.563581 0.864959
vt 0.534430 0.864136
vt 0.531000 0.824653
vt 0.749671 0.132476
vt 0.618376 0.131658
vt 0.618645 0.002630
vt 0.749671 0.001403
vt 0.793825 0.001468
vt 0.793825 0.056503
vt 0.753914 0.056208
vt 0.752477 0.001403
vt 0.998597 0.308108
vt 0.985810 0.304532
vt 0.986186 0.096271
vt 0.998597 0.092633
vt 0.413513 0.193395
vt 0.549866 0.196630
vt 0.549866 0.364094
vt 0.395038 0.364523
vt 0.879037 0.367329
vt 0.879037 0.577789
vt 0.838181 0.565016
vt 0.838702 0.367362
vt 0.396446 0.537971
vt 0.553486 0.499164
vt 0.553486 0.636178
vt 0.395038 0.598262
vt 0.473830 0.863850
vt 0.461152 0.860749
vt 0.461131 0.833347
vt 0.473830 0.829470
vt 0.993778 0.841696
vt 0.981853 0.844228
vt 0.981340 0.609158
vt 0.993778 0.605204
vt 0.004072 0.382731
vt 0.271476 0.366165
vt 0.271476 0.502835
vt 0.001403 0.494613
vt 0.317681 0.828705
vt 0.317681 0.870330
vt 0.275858 0.868274
vt 0.275712 0.828750
vt 0.600783 0.606702
vt 0.731749 0.605204
vt 0.731749 0.706751
vt 0.600572 0.740784
vt 0.898656 0.605384
vt 0.898656 0.853572
vt 0.866749 0.841693
vt 0.867463 0.605204
vt 0.879542 0.093149
vt 0.879542 0.296086
vt 0.834211 0.290003
vt 0.832847 0.092633
vt 0.419725 0.829625
vt 0.441720 0.829470
vt 0.441720 0.864444
vt 0.419815 0.864431
vt 0.597765 0.496358
vt 0.395038 0.487148
vt 0.397702 0.375266
vt 0.597765 0.367329
vt 0.395094 0.838920
vt 0.416919 0.829470
vt 0.416919 0.871439
vt 0.395038 0.871501
vt 0.036304 0.803534
vt 0.070044 0.757027
vt 0.070044 0.917028
vt 0.863943 0.873121
vt 0.817283 0.875013
vt 0.823693 0.605955
vt 0.863943 0.605204
vt 0.272906 0.193395
vt 0.272906 0.363358
vt 0.005626 0.331817
vt 0.001403 0.196458
vt 0.837991 0.001403
vt 0.837991 0.055972
vt 0.797058 0.036693
vt 0.796631 0.020658
vt 0.752477 0.146444
vt 0.753190 0.091454
vt 0.765530 0.095328
vt 0.765530 0.155636
vt 0.835375 0.367329
vt 0.835375 0.567550
vt 0.781135 0.548593
vt 0.776253 0.369126
vt 0.562866 0.144321
vt 0.562866 0.163197
vt 0.550677 0.163439
vt 0.541494 0.141223
vt 0.659720 0.743862
vt 0.659720 0.874836
vt 0.604897 0.874551
vt 0.600572 0.743591
vt 0.795271 0.363874
vt 0.775821 0.092633
vt 0.830041 0.093045
vt 0.830041 0.364523
vt 0.833074 0.339679
vt 0.832847 0.299213
vt 0.867652 0.298892
vt 0.867652 0.339829
vt 0.949419 0.566056
vt 0.949448 0.379009
vt 0.967888 0.367329
vt 0.967888 0.577790
vt 0.690163 0.398051
vt 0.773447 0.367329
vt 0.773447 0.567034
vt 0.738952 0.571448
vt 0.945658 0.329089
vt 0.946053 0.098344
vt 0.964262 0.092633
vt 0.964262 0.340822
vt 0.253972 0.506949
vt 0.271476 0.505641
vt 0.271476 0.777757
vt 0.255251 0.778466
vt 0.351770 0.828705
vt 0.351770 0.863679
vt 0.320581 0.863107
vt 0.320487 0.828728
vt 0.776350 0.570498
vt 0.831345 0.570357
vt 0.831345 0.601770
vt 0.776253 0.601709
vt 0.597765 0.499259
vt 0.597765 0.714733
vt 0.566554 0.714723
vt 0.566483 0.499164
vt 0.187189 0.893246
vt 0.218482 0.778645
vt 0.218482 0.938646
vt 0.840797 0.056458
vt 0.840810 0.001423
vt 0.862625 0.001403
vt 0.862625 0.056496
vn 0.9991 -0.0424 0.0041
vn 0.9991 -0.0417 0.0041
vn 0.0035 -0.0491 0.9988
vn 0.0077 -0.0503 0.9987
vn 0.0059 -0.0483 0.9988
vn 0.0150 0.0035 -0.9999
vn 0.0107 -0.0016 -0.9999
vn 0.0084 -0.0075 -0.9999
vn 0.0295 0.9996 0.0015
vn 0.0340 0.9994 0.0072
vn 0.0405 0.9992 0.0013
vn -0.0001 -1.0000 0.0011
vn -0.0002 -1.0000 0.0016
vn -0.0007 -1.0000 0.0002
vn 0.5030 -0.7027 0.5032
vn 0.9986 -0.0520 -0.0048
vn 0.9987 -0.0504 -0.0094
vn 0.9988 -0.0463 -0.0124
vn 0.0015 -1.0000 -0.0006
vn 0.0040 -1.0000 -0.0005
vn 0.0022 -1.0000 -0.0007
vn 0.0628 0.0552 0.9965
vn 0.7289 -0.6773 0.0998
vn 0.0013 -1.0000 0.0012
vn -0.0007 -1.0000 -0.0002
vn 0.0005 -1.0000 -0.0001
vn 0.0112 0.9999 -0.0067
vn 0.0033 0.9999 -0.0139
vn 0.0061 1.0000 -0.0047
vn 0.0304 0.9995 0.0034
vn 0.0250 0.9997 -0.0036
vn 0.0190 0.9998 0.0005
vn 0.0114 0.9999 0.0034
vn 0.0149 0.9999 -0.0024
vn 0.0200 0.9998 -0.0058
vn -0.0152 0.9998 0.0132
vn -0.0155 0.9998 0.0135
vn 0.0063 0.9999 -0.0159
vn 0.0013 0.9998 -0.0211
vn -0.0004 0.9999 -0.0167
vn 0.0026 0.9999 -0.0144
vn 0.8296 0.5554 0.0573
vn 0.7576 -0.6528 0.0006
vn 0.7620 -0.6476 0.0056
vn 0.7524 -0.6587 0.0011
vn 0.9752 0.1084 0.1928
vn 0.9996 -0.0196 -0.0183
vn 0.9991 -0.0413 0.0042
vn 0.9991 -0.0412 0.0025
vn 0.9991 -0.0416 0.0038
vn 0.9991 -0.0434 0.0000
vn 0.9991 -0.0422 0.0013
vn 0.9991 -0.0422 0.0008
vn 1.0000 -0.0085 -0.0014
vn 1.0000 -0.0055 -0.0029
vn 0.9999 -0.0095 -0.0043
vn 0.0021 -0.0449 0.9990
vn 0.0044 -0.0463 0.9989
vn 0.0005 -0.0431 0.9991
vn 0.0236 -0.0732 0.9970
vn 0.0076 -0.0282 0.9996
vn 0.6480 -0.0263 -0.7612
vn 0.7024 0.0119 -0.7117
vn 0.7030 -0.0037 -0.7112
vn 0.7028 0.0048 -0.7114
vn -0.0000 -1.0000 0.0001
vn -0.0004 -1.0000 0.0002
vn 0.0006 -1.0000 -0.0000
vn 0.0010 -1.0000 -0.0003
vn 0.9988 -0.0461 -0.0191
vn 0.9990 -0.0429 -0.0152
vn 0.9988 -0.0467 -0.0122
vn 0.9989 -0.0447 -0.0119
vn 0.9989 -0.0446 -0.0167
vn -0.0009 -1.0000 0.0000
vn 0.0006 -1.0000 0.0001
vn 0.0020 -1.0000 -0.0003
vn -0.1668 0.1315 0.9772
vn -0.0560 -0.6179 0.7842
vn 0.0015 -1.0000 0.0030
vn 0.0016 -1.0000 0.0026
vn -0.0010 -1.0000 0.0023
vn 0.4385 -0.7644 -0.4727
vn 0.7906 -0.6082 0.0703
vn 0.7869 -0.6171 -0.0033
vn 0.7701 -0.6380 0.0014
vn 0.7655 -0.6434 0.0059
vn 0.7617 -0.6480 0.0008
vn -0.7111 -0.1756 0.6808
vn 0.5333 0.8459 0.0090
vn 0.8658 -0.3760 -0.3302
vn 0.8653 -0.3762 -0.3312
vn 0.8656 -0.3761 -0.3307
vn 0.8659 -0.3759 -0.3299
vn 0.0314 0.0205 0.9993
vn 0.7563 0.0235 -0.6538
vn -0.7714 -0.6363 -0.0000
vn -0.9987 -0.0510 -0.0029
vn -0.9987 -0.0511 -0.0026
vn -0.7429 0.0715 -0.6656
vn 0.0051 0.0057 1.0000
vn 0.6787 -0.0894 0.7289
vn -0.9962 0.0746 -0.0451
vn 0.7123 0.0042 -0.7018
vn 0.7126 0.0039 -0.7016
vn 0.7066 0.0045 -0.7076
vn 0.7076 0.0042 -0.7066
vn -0.0079 0.0483 -0.9988
vn 0.0000 -1.0000 -0.0002
vn -0.7053 0.7090 -0.0009
vn 1.0000 -0.0029 -0.0024
vn 1.0000 0.0012 -0.0035
vn 1.0000 -0.0018 -0.0049
vn -0.0000 0.0018 -1.0000
vn 0.0062 -0.0003 -1.0000
vn 0.0061 0.0004 -1.0000
vn -0.0139 0.9998 0.0128
vn -0.0136 0.9998 0.0133
vn -0.5083 0.6912 0.5136
vn 0.0018 0.6773 0.7357
vn -0.0551 0.0763 -0.9956
vn 0.0007 -1.0000 0.0008
vn -0.0005 -1.0000 -0.0002
vn -0.0004 -1.0000 0.0001
vn -1.0000 0.0017 0.0033
vn -1.0000 0.0022 0.0039
vn 0.0033 0.0277 0.9996
vn 0.7613 -0.0765 -0.6439
vn -0.4588 -0.7597 0.4608
vn -0.0237 -0.0683 -0.9974
vn 0.4631 -0.7580 -0.4593
vn 0.4630 -0.7582 -0.4590
vn -0.5793 -0.8041 -0.1334
vn 0.7199 0.1121 -0.6850
vn 0.7197 0.1120 -0.6852
vn 0.7194 0.1121 -0.6855
vn 0.9966 0.0710 -0.0408
vn 0.6405 0.4059 0.6519
vn -0.5043 0.7083 -0.4940
vn -0.7390 -0.0786 -0.6691
vn -0.7386 -0.0788 -0.6695
vn -0.7383 -0.0789 -0.6698
vn 0.5436 0.5109 0.6659
vn -0.7338 0.0178 -0.6791
vn -0.8301 0.0512 0.5552
vn -0.8302 0.0515 0.5551
vn -0.8300 0.0512 0.5555
vn -0.0019 -1.0000 -0.0009
vn -0.0004 -1.0000 -0.0010
vn -0.0001 -1.0000 -0.0007
vn 0.0000 -0.6360 -0.7717
vn 0.0001 -0.6357 -0.7719
vn -0.0000 -0.6363 -0.7714
vn -0.7102 0.0742 0.7001
vn 0.0015 -0.6363 0.7714
vn 0.7601 0.0751 0.6455
vn -0.7038 0.0081 0.7104
vn -0.7083 -0.0009 -0.7060
vn -0.7084 -0.0012 -0.7058
vn -0.7087 -0.0019 -0.7055
vn -1.0000 0.0025 -0.0001
vn -0.5639 0.8132 -0.1438
vn -0.4614 -0.7579 -0.4611
g Column_V1_2_Column_V1_2_Collor_Material
usemtl Collor_Material
s off
f 36/1/1 33/2/2 69/3/2
f 4/4/3 14/5/4 10/6/5
f 53/7/6 42/8/7 43/9/8
f 35/10/9 64/11/10 63/12/11
f 24/13/12 55/14/13 31/15/12
f 18/16/14 51/17/14 23/18/14
f 4/19/15 5/20/15 3/21/15
f 28/22/16 5/23/17 11/24/18
f 1/25/19 57/26/20 46/27/21
f 2/28/22 37/29/22 71/30/22
f 69/31/23 70/32/23 71/33/23
f 17/34/24 46/35/25 47/36/26
f 38/37/27 40/38/28 62/39/29
f 63/40/30 34/41/31 35/42/32
f 62/43/33 44/44/34 38/45/35
f 63/46/36 62/47/37 34/48/36
f 62/49/38 40/50/39 34/51/40
f 63/52/41 64/53/41 43/54/41
f 69/55/42 71/56/42 72/57/42
f 57/58/43 69/59/44 46/60/45
f 2/61/46 70/62/46 33/63/46
f 70/64/47 69/65/47 33/66/47
f 69/67/48 66/68/49 36/69/50
f 66/70/51 65/71/52 36/72/53
f 3/73/54 5/74/55 30/75/56
f 15/76/57 14/77/58 4/78/59
f 14/79/60 9/80/60 10/81/60
f 15/82/61 4/83/61 3/84/61
f 35/85/62 36/86/62 65/87/62
f 68/88/63 35/89/64 65/90/65
f 24/91/66 54/92/66 55/93/67
f 18/94/68 50/95/69 51/96/68
f 11/97/70 8/98/71 28/99/72
f 28/100/73 30/101/74 5/102/74
f 1/103/75 32/104/76 57/105/77
f 71/106/78 70/107/78 2/108/78
f 46/109/79 72/110/79 71/111/79
f 17/112/80 1/113/81 46/114/82
f 68/115/83 67/116/83 57/117/83
f 57/118/84 67/119/84 66/120/84
f 66/121/85 69/122/85 57/123/85
f 69/124/86 72/125/87 46/126/88
f 16/127/89 15/128/89 17/129/89 18/130/89
f 36/131/90 35/132/90 34/133/90 33/134/90
f 67/135/91 68/136/92 65/137/93 66/138/94
f 12/139/95 7/140/95 9/141/95 14/142/95
f 32/143/96 30/144/96 29/145/96 31/146/96
f 50/147/97 49/148/97 52/149/97 51/150/97
f 61/151/98 60/152/99 16/153/99 21/154/99
f 20/155/100 19/156/100 59/157/100 58/158/100
f 15/159/101 3/160/101 1/161/101 17/162/101
f 11/163/102 10/164/102 9/165/102 8/166/102
f 13/167/103 60/168/103 59/169/103 19/170/103
f 56/171/104 64/172/105 35/173/106 68/174/107
f 31/175/108 29/176/108 22/177/108 24/178/108
f 51/179/109 54/180/109 24/181/109 23/182/109
f 39/183/110 38/184/110 44/185/110 45/186/110
f 30/187/111 32/188/112 1/189/112 3/190/113
f 56/191/114 53/192/115 43/193/116 64/194/114
f 44/195/117 62/196/118 63/197/117 43/198/117
f 41/199/119 40/200/119 38/201/119 39/202/119
f 37/203/120 34/204/120 40/205/120 41/206/120
f 27/207/121 25/208/121 20/209/121 58/210/121
f 57/211/122 32/212/123 31/213/123 55/214/124
f 23/215/125 21/216/125 16/217/126 18/218/125
f 48/219/127 71/220/127 37/221/127 41/222/127
f 27/223/128 29/224/128 30/225/128 28/226/128
f 47/227/129 48/228/129 49/229/129 50/230/129
f 29/231/130 27/232/130 58/233/130 22/234/130
f 68/235/131 57/236/131 55/237/131 56/238/132
f 61/239/133 58/240/133 60/241/133
f 27/242/134 28/243/135 26/244/136 25/245/135
f 6/246/137 26/247/137 28/248/137 8/249/137
f 5/250/138 4/251/138 10/252/138 11/253/138
f 42/254/139 45/255/139 44/256/139 43/257/139
f 22/258/140 58/259/141 61/260/142 21/261/141
f 33/262/143 34/263/143 37/264/143 2/265/143
f 21/266/144 23/267/144 24/268/144 22/269/144
f 60/270/145 13/271/146 12/272/145 14/273/147
f 17/274/148 47/275/149 50/276/150 18/277/149
f 55/278/151 54/279/152 53/280/151 56/281/153
f 15/282/154 16/283/154 60/284/154 14/285/154
f 47/286/155 46/287/155 71/288/155 48/289/155
f 8/290/156 9/291/156 7/292/156 6/293/156
f 49/294/157 48/295/157 41/296/157 39/297/157
f 45/298/158 42/299/159 53/300/160 52/301/159
f 39/302/161 45/303/161 52/304/161 49/305/161
f 59/306/162 60/307/162 58/308/162
f 54/309/163 51/310/163 52/311/163 53/312/163
