# Blender v3.0.0 OBJ File: 'aa.blend'
# www.blender.org
mtllib Column_V1_1.mtl
o Column_V1_1
v 0.518837 0.000000 0.205602
v 0.319633 0.000000 0.333992
v 0.379438 1.037152 0.278059
v 0.242153 1.036354 0.363819
v -0.313195 0.000000 0.401363
v -0.381637 0.000000 0.319983
v -0.318855 1.036039 0.253440
v -0.207853 1.925127 0.370630
v -0.315035 1.713675 0.315153
v -0.258333 2.290854 0.376830
v -0.353422 2.288919 0.288576
v -0.370171 -0.000000 -0.231176
v -0.211112 -0.000000 -0.403738
v -0.186540 1.030730 -0.343504
v -0.314675 1.752961 -0.204178
v -0.246926 1.790941 -0.325452
v -0.350568 2.289958 -0.224351
v -0.324702 2.284978 -0.275611
v 0.299086 -0.000000 -0.451280
v 0.458131 -0.000000 -0.302651
v 0.328305 0.971017 -0.284004
v 0.287367 1.791057 -0.399947
v 0.307959 1.786276 -0.374622
v 0.257212 2.289211 -0.374153
v 0.313550 2.288797 -0.348035
v 0.553851 2.467854 0.470370
v 0.494928 2.494182 0.498038
v 0.512610 2.457465 -0.449665
v 0.552685 2.455687 -0.335641
v 0.484304 2.463224 0.522425
v -0.475521 2.498889 0.373657
v -0.508879 2.463762 0.392967
v -0.360269 2.462523 -0.530565
v -0.312423 2.493232 -0.531145
v -0.475198 2.497289 -0.368409
v -0.509855 2.462852 -0.383112
v 0.509341 2.285152 0.500160
v -0.411338 2.292366 0.525135
v -0.418831 2.339639 0.537046
v -0.477840 2.316175 0.408684
v -0.469296 2.289098 0.397065
v -0.463565 2.295304 -0.336673
v -0.360648 2.344245 -0.530908
v -0.314574 2.298274 -0.485338
v 0.397282 2.288883 -0.486894
v 0.440986 2.344551 -0.531056
v 0.508187 2.291481 -0.371993
v -0.318253 0.962994 -0.200381
v -0.274954 0.996708 -0.156990
v -0.307314 1.109748 -0.184850
v -0.282880 2.501470 -0.031773
v 0.274488 2.496107 -0.032181
v 0.441136 2.478355 -0.531038
v 0.553722 2.379864 -0.417822
v 0.518469 2.342988 -0.443494
v 0.542031 2.349482 0.520308
v 0.370128 1.202392 0.322619
v 0.355767 1.791399 0.248189
v 0.266565 1.789514 0.346402
v 0.324539 1.371410 0.357056
v -0.113165 0.744479 0.360450
v -0.270453 0.808516 0.346297
v -0.287542 0.804758 0.315531
v -0.279457 0.420912 0.384256
v -0.396772 2.494768 0.490739
v -0.471460 2.447222 0.472952
v -0.330871 2.428052 0.542784
v -0.502355 2.341411 -0.284667
v -0.509436 2.443094 -0.382305
v -0.442156 2.334815 -0.454469
v 0.339453 2.076782 0.361434
v 0.369155 2.066283 0.319256
v 0.388458 2.290173 0.363731
v 0.354249 1.833119 0.299127
v 0.318391 1.834782 0.343724
v 0.297464 0.808713 -0.347027
v 0.277500 0.531625 -0.403777
v 0.068105 0.601228 -0.378095
v 0.272866 0.886871 -0.394960
vt 0.471047 0.643915
vt 0.442177 0.437893
vt 0.471047 0.421306
vt 0.842456 0.001647
vt 0.842456 0.199915
vt 0.778310 0.111827
vt 0.774096 0.267697
vt 0.764788 0.238626
vt 0.774096 0.227283
vt 0.289439 0.836568
vt 0.314290 0.822684
vt 0.314290 0.958497
vt 0.491705 0.218694
vt 0.562305 0.199452
vt 0.562305 0.256783
vt 0.424976 0.910731
vt 0.453995 0.763212
vt 0.453995 0.946941
vt 0.954397 0.792894
vt 0.954397 0.956748
vt 0.930684 0.923128
vt 0.782701 0.544055
vt 0.758819 0.494359
vt 0.782701 0.454993
vt 0.198991 0.538544
vt 0.185891 0.432340
vt 0.198991 0.419917
vt 0.391634 0.942027
vt 0.377266 0.902724
vt 0.391634 0.895623
vt 0.855962 0.472928
vt 0.893151 0.275742
vt 0.893151 0.513440
vt 0.878937 0.258560
vt 0.849444 0.213341
vt 0.878937 0.203209
vt 0.352045 0.260945
vt 0.404793 0.254392
vt 0.404793 0.272447
vt 0.173493 0.842394
vt 0.199795 0.817188
vt 0.199795 0.955212
vt 0.138495 0.704721
vt 0.198205 0.569091
vt 0.198205 0.813895
vt 0.596173 0.767376
vt 0.645851 0.680518
vt 0.645851 0.872027
vt 0.626973 0.875320
vt 0.626973 0.978636
vt 0.596173 0.888458
vt 0.923558 0.512417
vt 0.923558 0.540670
vt 0.911656 0.521110
vt 0.849588 0.517548
vt 0.822217 0.502584
vt 0.849588 0.493440
vt 0.908363 0.512417
vt 0.908363 0.542042
vt 0.896444 0.521087
vt 0.979550 0.001647
vt 0.979550 0.243899
vt 0.959306 0.223333
vt 0.980955 0.547348
vt 0.980955 0.777483
vt 0.959212 0.760354
vt 0.970770 0.550033
vt 0.954363 0.523767
vt 0.931701 0.298645
vt 0.954363 0.275742
vt 0.894339 0.194016
vt 0.845749 0.015819
vt 0.894339 0.001647
vt 0.702475 0.960242
vt 0.695275 0.916856
vt 0.702475 0.911236
vt 0.897632 0.191474
vt 0.928800 0.001647
vt 0.928800 0.226733
vt 0.097116 0.876845
vt 0.043385 0.734317
vt 0.097116 0.726499
vt 0.344287 0.791442
vt 0.373973 0.763212
vt 0.373973 0.952584
vt 0.956013 0.001647
vt 0.956013 0.235666
vt 0.932093 0.061696
vt 0.695573 0.234763
vt 0.736673 0.227283
vt 0.736673 0.271516
vt 0.096558 0.913434
vt 0.075558 0.905494
vt 0.096558 0.880138
vt 0.775017 0.001647
vt 0.775017 0.223990
vt 0.695573 0.173579
vt 0.640458 0.951904
vt 0.630266 0.937345
vt 0.640458 0.875320
vt 0.692280 0.001647
vt 0.692280 0.268181
vt 0.623892 0.158601
vt 0.957656 0.316506
vt 0.978165 0.275742
vt 0.978165 0.528612
vt 0.779711 0.938476
vt 0.750807 0.926768
vt 0.779711 0.823738
vt 0.852669 0.275742
vt 0.852669 0.487139
vt 0.804390 0.350583
vt 0.591215 0.815008
vt 0.588164 0.810915
vt 0.591215 0.774617
vt 0.785994 0.518232
vt 0.818924 0.493440
vt 0.818924 0.544055
vt 0.896444 0.297526
vt 0.928408 0.275742
vt 0.928408 0.509123
vt 0.919973 0.507974
vt 0.800842 0.450908
vt 0.800842 0.490147
vt 0.785994 0.489276
vt 0.592880 0.680518
vt 0.592880 0.771323
vt 0.474340 0.720011
vt 0.896444 0.272077
vt 0.916946 0.243508
vt 0.916946 0.272448
vt 0.893151 0.272448
vt 0.883065 0.212775
vt 0.893151 0.199094
vt 0.975228 0.780776
vt 0.975228 0.996672
vt 0.959212 0.988194
vt 0.421683 0.892330
vt 0.377266 0.852875
vt 0.421683 0.763212
vt 0.731251 0.907943
vt 0.695275 0.882209
vt 0.731251 0.740041
vt 0.822217 0.530095
vt 0.858774 0.520869
vt 0.858774 0.544055
vt 0.203203 0.840969
vt 0.248670 0.822684
vt 0.248670 0.923341
vt 0.574122 0.983722
vt 0.552212 0.872861
vt 0.574122 0.774617
vt 0.846151 0.257716
vt 0.815755 0.254914
vt 0.815969 0.225974
vt 0.846151 0.203209
vt 0.059317 0.884254
vt 0.072265 0.880138
vt 0.072265 0.939258
vt 0.130241 0.927162
vt 0.100409 0.762894
vt 0.130241 0.726499
vt 0.335457 0.975945
vt 0.317583 0.865117
vt 0.335457 0.822684
vt 0.868361 0.916862
vt 0.888952 0.839331
vt 0.888952 0.930136
vt 0.438768 0.563820
vt 0.438768 0.691312
vt 0.362224 0.688835
vt 0.509769 0.774617
vt 0.509769 0.923561
vt 0.474340 0.871668
vt 0.926198 0.831408
vt 0.921123 0.830869
vt 0.926198 0.776900
vt 0.574698 0.522573
vt 0.755526 0.484935
vt 0.755526 0.544055
vt 0.927391 0.773607
vt 0.899490 0.756129
vt 0.927391 0.547348
vt 0.403583 0.960262
vt 0.394927 0.898538
vt 0.403583 0.895623
vt 0.896197 0.547348
vt 0.896197 0.836037
vt 0.868361 0.779706
vt 0.194270 0.564288
vt 0.185891 0.548220
vt 0.194270 0.541837
vt 0.747514 0.736748
vt 0.653269 0.681857
vt 0.747514 0.547348
vt 0.571405 0.275742
vt 0.571405 0.544055
vt 0.474340 0.475779
vt 0.340994 0.819391
vt 0.203203 0.815090
vt 0.340994 0.763212
vt 0.815075 0.815753
vt 0.841474 0.747505
vt 0.841474 0.960601
vt 0.001647 0.211488
vt 0.199909 0.001647
vt 0.199909 0.213044
vt 0.170199 0.962028
vt 0.138495 0.931548
vt 0.170199 0.817188
vt 0.691982 0.919207
vt 0.653269 0.913489
vt 0.691982 0.740041
vt 0.198991 0.216337
vt 0.198991 0.416623
vt 0.167563 0.391252
vt 0.994092 0.970146
vt 0.978522 0.794174
vt 0.994092 0.780776
vt 0.734545 0.769230
vt 0.745550 0.740041
vt 0.745550 0.984844
vt 0.644210 0.476981
vt 0.613571 0.456312
vt 0.644210 0.439277
vt 0.981458 0.320190
vt 0.998353 0.260196
vt 0.998353 0.528612
vt 0.809484 0.936743
vt 0.783004 0.929538
vt 0.809484 0.823738
vt 0.251963 0.824724
vt 0.286146 0.822684
vt 0.286146 0.931653
vt 0.466674 0.685889
vt 0.442177 0.647390
vt 0.466674 0.647208
vt 0.955919 0.789601
vt 0.937128 0.785047
vt 0.930684 0.560053
vt 0.955919 0.547348
vt 0.056024 0.889026
vt 0.056024 0.943233
vt 0.043385 0.939541
vt 0.044349 0.880138
vt 0.610278 0.439277
vt 0.610278 0.477082
vt 0.579308 0.467105
vt 0.574698 0.447088
vt 0.844767 0.756020
vt 0.862126 0.747505
vt 0.862126 0.995528
vt 0.849533 0.993669
vt 0.406876 0.899581
vt 0.418975 0.895623
vt 0.418975 0.932582
vt 0.411637 0.935556
vt 0.040092 0.726551
vt 0.040092 0.933432
vt 0.001647 0.920972
vt 0.005560 0.726499
vt 0.812462 0.203209
vt 0.812462 0.258201
vt 0.778310 0.245932
vt 0.779023 0.204973
vt 0.708935 0.475531
vt 0.706716 0.445989
vt 0.736891 0.446367
vt 0.736891 0.480899
vt 0.164270 0.428096
vt 0.003932 0.411353
vt 0.001647 0.258108
vt 0.164270 0.216337
vt 0.471047 0.418012
vt 0.203203 0.400512
vt 0.222153 0.283409
vt 0.471047 0.275742
vt 0.220651 0.756682
vt 0.203203 0.706473
vt 0.469642 0.699353
vt 0.469642 0.759919
vt 0.620257 0.262309
vt 0.605490 0.262775
vt 0.606967 0.202273
vt 0.620257 0.199452
vt 0.469891 0.763212
vt 0.469891 0.963497
vt 0.457380 0.958535
vt 0.457289 0.767028
vt 0.012075 0.548304
vt 0.001647 0.434040
vt 0.177234 0.431389
vt 0.177234 0.565798
vt 0.746006 0.288316
vt 0.801097 0.275742
vt 0.801097 0.442696
vt 0.706716 0.429539
vt 0.653619 0.471099
vt 0.647503 0.448609
vt 0.681295 0.439277
vt 0.681295 0.471497
vt 0.488412 0.001647
vt 0.488412 0.231779
vt 0.352045 0.173771
vt 0.353316 0.029928
vt 0.203203 0.624926
vt 0.221235 0.570504
vt 0.358931 0.563820
vt 0.358931 0.696059
vt 0.684588 0.453479
vt 0.703067 0.439277
vt 0.703067 0.475707
vt 0.689614 0.476113
vt 0.741239 0.470392
vt 0.740184 0.455655
vt 0.755097 0.445989
vt 0.755097 0.480233
vt 0.865068 0.547348
vt 0.865068 0.744212
vt 0.815075 0.720453
vt 0.828683 0.554929
vt 0.481899 0.251099
vt 0.352045 0.248647
vt 0.353032 0.240191
vt 0.481899 0.235072
vt 0.620599 0.196159
vt 0.491705 0.188567
vt 0.491797 0.044718
vt 0.620599 0.001647
vt 0.565598 0.239597
vt 0.567883 0.207140
vt 0.602197 0.199452
vt 0.602197 0.253749
vt 0.240341 0.437341
vt 0.436551 0.421306
vt 0.436551 0.560527
vt 0.203203 0.556640
vt 0.548918 0.913609
vt 0.534095 0.912388
vt 0.513062 0.784397
vt 0.548918 0.774617
vt 0.761495 0.268501
vt 0.739967 0.268636
vt 0.741534 0.238499
vt 0.761495 0.227283
vt 0.649976 0.547348
vt 0.649976 0.677225
vt 0.474340 0.629141
vt 0.489073 0.557281
vt 0.703423 0.428061
vt 0.574698 0.435984
vt 0.575430 0.296764
vt 0.703423 0.275742
vt 0.901119 0.788784
vt 0.917830 0.776900
vt 0.917830 0.983781
vt 0.899490 0.972504
vt 0.770119 0.550418
vt 0.811782 0.547348
vt 0.811782 0.815661
vt 0.750807 0.820444
vt 0.216653 0.002067
vt 0.348752 0.001647
vt 0.348752 0.254517
vt 0.203203 0.272448
vt 0.577415 0.777280
vt 0.584871 0.774617
vt 0.584871 0.953783
vt 0.002928 0.574268
vt 0.135202 0.569091
vt 0.135202 0.708083
vt 0.001647 0.723206
vn 0.9951 -0.0993 0.0001
vn 0.0606 0.0338 0.9976
vn -0.0140 0.0029 -0.9999
vn 0.2342 0.9712 0.0437
vn -0.0521 0.2040 -0.9776
vn -0.0068 -0.9999 -0.0138
vn -0.0132 -0.9998 -0.0135
vn -0.0107 -0.9999 -0.0078
vn -0.0450 -0.9990 -0.0023
vn 0.3971 -0.0792 0.9144
vn -0.5199 0.8433 -0.1364
vn -0.0009 -1.0000 0.0003
vn -0.0055 -1.0000 -0.0040
vn -0.0035 -1.0000 0.0022
vn -0.0078 -1.0000 0.0022
vn -0.8215 -0.3467 -0.4527
vn -0.5430 0.8331 -0.1054
vn 0.0251 0.9995 0.0183
vn 0.0970 0.9946 -0.0367
vn -0.0180 0.9998 -0.0022
vn -0.6753 -0.1056 0.7299
vn 0.7841 -0.5515 -0.2845
vn 0.8874 0.3444 -0.3065
vn 0.5973 -0.0127 -0.8019
vn 0.9999 0.0002 0.0125
vn -0.0064 0.6140 0.7893
vn -0.0061 0.6114 0.7913
vn -0.0069 0.6177 0.7864
vn -0.0072 0.6203 0.7843
vn 0.0182 -0.0828 0.9964
vn 0.0139 -0.9999 0.0005
vn 0.0143 -0.9999 0.0044
vn 0.0146 -0.9999 0.0044
vn -0.3819 -0.8677 0.3181
vn -0.0334 -0.9994 -0.0072
vn -0.0035 -0.9980 -0.0634
vn -0.0095 -0.9999 -0.0085
vn -0.9157 -0.0313 0.4006
vn 0.5205 -0.1949 0.8314
vn 0.5649 0.2722 0.7790
vn 0.0991 0.0223 0.9948
vn 0.1237 -0.0831 0.9888
vn -0.0357 0.0592 -0.9976
vn 0.7470 0.1125 -0.6552
vn -0.9538 -0.2913 -0.0741
vn -0.0484 0.0320 0.9983
vn -0.9984 -0.0190 0.0526
vn 0.0148 -0.9999 0.0083
vn 0.0113 -0.9999 0.0102
vn 0.0188 -0.9998 0.0078
vn 0.8995 -0.0168 -0.4367
vn 0.7701 -0.0515 -0.6359
vn -0.0953 -0.9943 0.0485
vn -0.1060 0.0173 -0.9942
vn -0.3462 -0.8123 -0.4694
vn 0.9936 -0.0711 0.0878
vn 0.4023 0.9154 -0.0144
vn 0.0039 0.9999 -0.0127
vn 0.0080 0.9998 -0.0170
vn 0.0082 0.9999 -0.0100
vn 0.9915 0.0828 -0.0999
vn -0.9071 -0.1489 0.3936
vn -0.1906 0.1691 0.9670
vn -0.7792 0.0945 0.6196
vn -0.6843 0.0043 -0.7292
vn -0.7067 0.0320 -0.7068
vn 0.7810 -0.1858 0.5962
vn -0.0018 -0.9994 -0.0352
vn 0.7990 0.0945 0.5938
vn 0.4408 -0.3644 -0.8203
vn 0.0336 -0.0607 0.9976
vn -0.4737 0.0091 0.8806
vn -0.4756 0.0085 0.8796
vn -0.4725 0.0075 0.8813
vn -0.7014 -0.0439 -0.7114
vn 0.9924 -0.0648 -0.1043
vn 0.0252 -0.0058 0.9997
vn -0.8747 0.0116 0.4845
vn -0.4708 0.0072 0.8822
vn -0.4691 0.0075 0.8831
vn -0.4719 0.0089 0.8816
vn 0.5305 0.4047 0.7448
vn 0.1058 0.0319 0.9939
vn 0.0133 -0.0278 0.9995
vn 0.6798 0.0926 -0.7275
vn 0.6746 0.0969 -0.7318
vn 0.6848 0.0964 -0.7224
vn 0.6845 0.0929 -0.7231
vn 0.6889 0.0975 -0.7182
vn 0.6947 0.0976 -0.7126
vn 0.0027 -0.0219 0.9998
vn -0.0630 0.0653 0.9959
vn -0.9788 -0.2030 0.0272
vn -0.9982 -0.0606 0.0013
vn -0.7715 -0.6362 -0.0114
vn 0.1451 0.9888 -0.0356
vn -0.8829 -0.1714 0.4372
vn -0.7187 0.0879 0.6897
vn -0.7624 0.0872 0.6412
vn 0.7339 0.1188 0.6688
vn 0.8930 0.0051 -0.4500
vn 0.8892 -0.4575 -0.0040
vn 0.8920 -0.4519 -0.0045
vn 0.8909 -0.4541 -0.0043
vn 0.8882 -0.4595 -0.0038
vn -0.4932 0.7106 -0.5019
vn -0.4743 0.7297 -0.4926
vn -0.8878 -0.3629 -0.2831
vn -0.8715 -0.3699 -0.3220
vn 0.0197 -0.3079 0.9512
vn 0.0244 -0.2406 0.9703
vn -0.8622 -0.2480 0.4417
vn -0.8622 -0.2479 0.4417
vn -0.8213 -0.4233 0.3825
vn -0.0001 -0.0012 -1.0000
vn -0.0002 -0.0016 -1.0000
vn -0.0001 -0.0011 -1.0000
vn 0.0002 0.0002 -1.0000
vn 0.0103 -0.9997 0.0204
vn 0.0103 -0.9997 0.0208
vn 0.0096 -0.9999 0.0129
vn 0.0095 -0.9999 0.0118
vn 0.7491 0.0024 -0.6625
vn 0.7489 0.0026 -0.6626
vn 0.7501 0.0009 -0.6613
vn 0.7512 -0.0007 -0.6601
vn 0.9970 0.0157 -0.0757
vn 0.9969 0.0146 -0.0767
vn 0.9970 0.0149 -0.0764
vn 0.9970 0.0164 -0.0751
vn -0.9982 0.0598 -0.0110
vn -0.9983 0.0545 -0.0207
vn -0.9983 0.0545 -0.0208
vn -0.7478 0.0565 -0.6615
vn -0.7339 0.0612 -0.6765
vn 0.7733 -0.1034 0.6256
vn 0.7990 -0.1128 0.5907
vn -0.7251 0.6887 0.0001
vn -0.7251 0.6886 0.0001
vn -0.7045 0.7097 -0.0018
vn -0.9997 0.0079 -0.0250
vn -0.9999 -0.0115 -0.0015
vn 0.0205 -0.0146 0.9997
vn 0.0202 -0.0154 0.9997
vn 0.0207 -0.0142 0.9997
vn -0.4044 0.3139 0.8590
vn -0.3723 0.3137 0.8735
vn 0.0006 1.0000 0.0034
vn 0.0096 0.9998 0.0149
vn -0.0927 0.0851 -0.9920
vn -0.0933 0.0849 -0.9920
vn -0.5580 0.7266 0.4009
vn -0.5411 0.7367 0.4055
vn 0.5859 -0.6415 0.4951
vn 0.5859 -0.6416 0.4950
vn 0.5885 -0.6168 0.5227
vn -0.8066 -0.0501 -0.5890
vn -0.8065 -0.0501 -0.5890
vn -0.8694 -0.0248 -0.4934
vn 0.7779 0.0246 -0.6279
vn 0.4199 0.0723 -0.9047
vn 0.0160 0.9997 -0.0180
vn 0.0097 0.9998 -0.0199
vn 0.0197 0.9994 -0.0290
vn -0.3357 -0.8730 -0.3539
vn -0.3356 -0.8730 -0.3538
vn -0.0454 -0.9968 -0.0654
vn -0.1381 0.0126 -0.9903
vn -0.1381 0.0125 -0.9903
vn -0.1125 -0.0037 -0.9936
vn -0.1124 -0.0037 -0.9937
vn -0.8924 -0.0960 -0.4410
vn -0.8601 -0.0764 -0.5044
vn 0.4941 -0.7383 -0.4591
vn 0.4935 -0.7443 -0.4500
vn 0.4936 -0.7433 -0.4516
vn 0.4941 -0.7376 -0.4602
vn 0.9963 -0.0066 -0.0852
vn 0.9967 -0.0288 -0.0763
vn -0.1380 0.0429 -0.9895
vn -0.1670 0.0729 -0.9833
vn 0.0001 -0.7039 -0.7103
vn -0.0099 -0.6167 -0.7871
vn 0.5297 0.0152 0.8481
vn 0.5416 0.0141 0.8405
vn 0.5417 0.0141 0.8405
vn 0.9844 0.1388 -0.1078
vn 0.9840 0.1338 -0.1175
vn 0.9841 0.1349 -0.1155
vn 0.9845 0.1397 -0.1060
vn -0.9506 -0.3095 0.0223
vn -0.9977 -0.0669 -0.0057
g Column_V1_1_Column_V1_1_Collor_Material
usemtl Collor_Material
s off
f 29/1/1 26/2/1 56/3/1
f 8/4/2 60/5/2 59/6/2
f 43/7/3 33/8/3 34/9/3
f 28/10/4 53/11/4 52/12/4
f 76/13/5 77/14/5 78/15/5
f 24/16/6 44/17/7 45/18/8
f 11/19/9 42/20/9 17/21/9
f 4/22/10 57/23/10 60/24/10
f 7/25/11 49/26/11 48/27/11
f 45/28/12 25/29/13 24/30/14
f 10/31/15 37/32/15 38/33/15
f 14/34/16 49/35/16 50/36/16
f 14/37/17 48/38/17 49/39/17
f 31/40/18 65/41/18 51/42/18
f 52/43/19 27/44/19 28/45/19
f 51/46/20 35/47/20 31/48/20
f 11/49/21 8/50/21 10/51/21
f 54/52/22 47/53/22 55/54/22
f 28/55/23 29/56/23 54/57/23
f 55/58/24 28/59/24 54/60/24
f 56/61/25 54/62/25 29/63/25
f 27/64/26 65/65/27 67/66/28 30/67/29
f 56/68/30 67/69/30 39/70/30
f 73/71/31 25/72/32 47/73/33
f 61/74/34 62/75/34 63/76/34
f 73/77/35 47/78/35 37/79/35
f 24/80/36 18/81/36 44/82/36
f 11/83/37 41/84/37 42/85/37
f 62/86/38 9/87/38 7/88/38
f 4/89/39 3/90/39 57/91/39
f 26/92/40 30/93/40 56/94/40
f 2/95/41 61/96/41 64/97/41
f 59/98/42 75/99/42 71/100/42
f 13/101/43 14/102/43 78/103/43
f 76/104/44 21/105/44 20/106/44
f 50/107/45 49/108/45 7/109/45
f 60/110/46 62/111/46 4/112/46
f 36/113/47 69/114/47 68/115/47
f 45/116/48 47/117/49 25/118/50
f 21/119/51 79/120/51 22/121/52 23/122/52
f 42/123/53 18/124/53 17/125/53
f 79/126/54 78/127/54 14/128/54
f 44/129/55 70/130/55 43/131/55
f 72/132/56 74/133/56 58/134/56
f 29/135/57 27/136/57 26/137/57
f 34/138/58 35/139/59 51/140/60
f 57/141/61 3/142/61 21/143/61
f 40/144/62 66/145/62 32/146/62
f 61/147/63 63/148/63 64/149/63
f 6/150/64 64/151/64 63/152/64
f 33/153/65 43/154/65 70/155/66 69/156/66
f 71/157/67 72/158/67 73/159/67
f 10/160/68 73/161/68 37/162/68
f 58/163/69 60/164/69 57/165/69
f 76/166/70 78/167/70 79/168/70
f 8/169/71 59/170/71 71/171/71
f 11/172/72 9/173/73 8/174/74
f 69/175/75 36/176/75 33/177/75
f 25/178/76 73/179/76 72/180/76
f 56/181/77 30/182/77 67/183/77
f 7/184/78 63/185/78 62/186/78
f 62/187/79 8/188/80 9/189/81
f 26/190/82 27/191/82 30/192/82
f 64/193/83 5/194/83 2/195/83
f 2/196/84 4/197/84 61/198/84
f 19/199/85 77/200/86 20/201/87
f 77/202/88 76/203/89 20/204/90
f 8/205/91 62/206/91 60/207/91
f 62/208/92 61/209/92 4/210/92
f 40/211/93 32/212/93 68/213/93
f 32/214/94 36/215/94 68/216/94
f 41/217/95 68/218/95 42/219/95
f 29/220/96 28/221/96 27/222/96
f 40/223/97 39/224/97 66/225/97
f 63/226/98 7/227/98 6/228/98
f 6/229/99 5/230/99 64/231/99
f 58/232/100 59/233/100 60/234/100
f 21/235/101 76/236/101 79/237/101
f 56/238/102 37/239/103 47/240/104 54/241/105
f 33/242/106 36/243/106 35/244/107 34/245/107
f 69/246/108 70/247/108 42/248/109 68/249/109
f 37/250/110 56/251/110 39/252/111 38/253/111
f 38/254/112 39/255/113 40/256/114 41/257/114
f 46/258/115 43/259/116 34/260/117 53/261/118
f 10/262/119 38/263/120 41/264/121 11/265/122
f 28/266/123 55/267/124 46/268/125 53/269/126
f 23/270/127 58/271/128 57/272/129 21/273/130
f 6/274/131 7/275/131 48/276/132 12/277/133
f 48/278/134 14/279/134 13/280/135 12/281/135
f 75/282/136 74/283/136 72/284/137 71/285/137
f 36/286/138 32/287/139 31/288/140 35/289/140
f 50/290/141 7/291/141 9/292/142 15/293/142
f 71/294/143 73/295/144 10/296/143 8/297/145
f 65/298/146 66/299/146 39/300/147 67/301/147
f 65/302/148 27/303/148 52/304/149 51/305/149
f 78/306/150 77/307/151 19/308/150 13/309/150
f 66/310/152 65/311/152 31/312/153 32/313/153
f 74/314/154 75/315/155 59/316/156 58/317/156
f 16/318/157 14/319/158 50/320/159 15/321/159
f 25/322/160 23/323/160 22/324/161 24/325/161
f 34/326/162 51/327/163 52/328/164 53/329/164
f 42/330/165 70/331/166 44/332/167 18/333/167
f 14/334/168 16/335/169 22/336/170 79/337/171
f 17/338/172 18/339/172 16/340/173 15/341/173
f 45/342/174 46/343/175 55/344/176 47/345/177
f 23/346/178 25/347/178 72/348/179 58/349/179
f 24/350/180 22/351/180 16/352/181 18/353/181
f 44/354/182 43/355/182 46/356/183 45/357/183
f 3/358/184 4/359/184 2/360/185 1/361/186
f 1/362/187 20/363/188 21/364/189 3/365/190
f 41/366/191 40/367/191 68/368/191
f 11/369/192 17/370/192 15/371/192 9/372/192
