# Blender v3.0.0 OBJ File: 'aa.blend'
# www.blender.org
mtllib Column_V1_3.mtl
o Column_V1_3
v 0.413619 2.460269 -0.513326
v 0.489380 0.000000 0.223357
v 0.297936 0.000000 0.424283
v 0.356265 1.029427 0.294227
v 0.222959 1.028702 0.404532
v -0.341808 0.000000 0.415079
v -0.460654 0.000000 0.316762
v -0.243125 1.029279 0.384264
v -0.356048 1.030224 0.285663
v -0.314377 1.752517 0.361082
v -0.365003 1.706856 0.334827
v -0.280998 2.281966 0.401856
v -0.368834 2.282993 0.300271
v -0.448179 -0.000000 -0.177192
v -0.350322 -0.000000 -0.353559
v -0.370605 1.746579 -0.189177
v -0.299836 1.784043 -0.319110
v -0.361028 2.281820 -0.201320
v -0.243093 2.283952 -0.352836
v 0.287399 -0.000000 -0.474851
v 0.424628 -0.000000 -0.331880
v 0.235933 1.009611 -0.321959
v 0.331673 1.011815 -0.201666
v 0.239124 1.783282 -0.378672
v 0.252693 1.779630 -0.354222
v 0.262551 2.283342 -0.378531
v 0.317781 2.280040 -0.254630
v -0.372043 2.456241 -0.507898
v -0.352963 0.587165 -0.082865
v -0.367255 0.937196 -0.180195
v -0.357082 0.935013 -0.205460
v -0.268314 0.574463 -0.232582
v -0.333034 0.348407 -0.248951
v -0.379239 0.330742 -0.177023
v -0.380314 2.280725 0.508878
v -0.406886 2.304218 0.538194
v -0.524538 2.318744 0.439692
v -0.480872 2.283269 0.406548
v -0.482617 2.281199 -0.322482
v -0.504613 2.300417 -0.336431
v -0.400229 2.350013 -0.481103
v -0.337419 2.286185 -0.457419
v 0.537659 2.318914 -0.385593
v 0.487389 2.275170 -0.363383
v 0.327545 2.283507 0.383766
v 0.356976 2.283998 0.345332
v -0.508518 2.475686 -0.341380
v -0.527667 2.407753 0.443947
v 0.286122 1.779465 0.288230
v 0.229292 1.779628 0.350766
v 0.262025 1.735620 0.356183
v 0.289303 1.744720 0.320193
v -0.421130 2.455143 0.542515
v 0.537370 2.456074 -0.387902
v 0.395119 2.485070 -0.484199
v -0.408482 2.492024 -0.434135
v -0.502397 2.491482 -0.338288
v -0.462858 2.490772 0.463240
v -0.408060 2.491294 0.522919
v 0.510805 2.489552 -0.369434
v 0.554497 2.317924 0.458613
v 0.491742 2.318494 0.540616
v 0.513816 2.283376 0.425675
v 0.539156 2.448003 0.484066
v 0.493242 2.432631 0.538765
v 0.431447 2.489043 0.514674
v 0.530059 2.493079 0.432971
v -0.145268 2.281348 -0.493115
v 0.022633 2.447737 -0.540387
v 0.035289 2.494594 -0.460290
v 0.034231 2.317258 0.570338
v 0.031152 2.474569 0.567124
v 0.029166 2.493273 0.552508
v 0.058549 2.490854 0.341255
v 0.034853 2.284287 0.535230
v 0.068700 2.477690 -0.317487
v -0.544191 2.319096 0.044326
v -0.499772 2.282866 0.043121
v -0.547399 2.455527 0.044100
v -0.524472 2.489180 0.040610
v 0.568923 2.356349 0.036103
v 0.490514 2.282275 0.146890
v 0.564163 2.455214 0.035378
v 0.538974 2.490561 0.030918
v 0.449478 2.283044 0.506866
v -0.231279 2.481853 0.047845
v 0.414740 2.404921 -0.510492
v 0.430032 2.319143 -0.484997
v 0.390187 2.280677 -0.462184
v 0.398858 2.319163 -0.501378
v -0.159731 2.319057 -0.521249
v -0.105384 2.392779 -0.544730
v -0.108492 2.322455 -0.533708
vt 0.439666 0.680182
vt 0.439666 0.787779
vt 0.433324 0.680341
vt 0.946433 0.608239
vt 0.922086 0.475606
vt 0.946433 0.447063
vt 0.723233 0.891160
vt 0.582114 0.868342
vt 0.723233 0.855390
vt 0.951949 0.170285
vt 0.929952 0.096642
vt 0.951949 0.001672
vt 0.428610 0.889476
vt 0.389415 0.734206
vt 0.428610 0.697531
vt 0.799003 0.595477
vt 0.858165 0.447063
vt 0.858165 0.638398
vt 0.862117 0.731270
vt 0.887533 0.672851
vt 0.887533 0.864797
vt 0.947192 0.783050
vt 0.971405 0.672851
vt 0.971405 0.815704
vt 0.736314 0.749077
vt 0.724753 0.740032
vt 0.736314 0.595484
vt 0.795659 0.669507
vt 0.741187 0.478272
vt 0.795659 0.447063
vt 0.918742 0.447063
vt 0.918742 0.615676
vt 0.892685 0.578110
vt 0.889342 0.643621
vt 0.861509 0.483874
vt 0.889342 0.447063
vt 0.085237 0.918671
vt 0.097127 0.913682
vt 0.097127 0.963261
vt 0.833616 0.669245
vt 0.799003 0.661187
vt 0.803213 0.642191
vt 0.833616 0.641742
vt 0.990946 0.552497
vt 0.975678 0.552222
vt 0.975626 0.455294
vt 0.990946 0.447063
vt 0.870769 0.434568
vt 0.862235 0.411944
vt 0.870769 0.398465
vt 0.780878 0.922174
vt 0.811001 0.835966
vt 0.811001 0.946770
vt 0.277962 0.861061
vt 0.085237 0.842044
vt 0.097344 0.826811
vt 0.277962 0.821132
vt 0.961999 0.667355
vt 0.948801 0.653719
vt 0.961999 0.619020
vt 0.990631 0.001672
vt 0.990631 0.107171
vt 0.974770 0.073607
vt 0.125151 0.971259
vt 0.116106 0.935800
vt 0.125151 0.913682
vt 0.319011 0.950081
vt 0.301142 0.931640
vt 0.319011 0.909415
vt 0.241457 0.977468
vt 0.215367 0.896270
vt 0.241457 0.864405
vt 0.735158 0.267080
vt 0.679870 0.172522
vt 0.735158 0.159456
vt 0.913422 0.927667
vt 0.818650 0.904167
vt 0.913422 0.888347
vt 0.916683 0.290052
vt 0.916683 0.420944
vt 0.881622 0.403144
vt 0.443180 0.747719
vt 0.548749 0.637898
vt 0.548749 0.765837
vt 0.979791 0.286708
vt 0.961486 0.177506
vt 0.979791 0.173643
vt 0.995344 0.286708
vt 0.983135 0.180646
vt 0.995344 0.167002
vt 0.709068 0.917929
vt 0.723645 0.894503
vt 0.723645 0.991002
vt 0.439666 0.828856
vt 0.439666 0.864959
vt 0.433650 0.851424
vt 0.439666 0.825513
vt 0.432554 0.807919
vt 0.439666 0.791123
vt 0.174160 0.913682
vt 0.174160 0.948072
vt 0.166275 0.937599
vt 0.576064 0.834644
vt 0.558654 0.786661
vt 0.576064 0.769181
vt 0.198653 0.175425
vt 0.198653 0.299236
vt 0.183236 0.281912
vt 0.736973 0.443719
vt 0.638621 0.294175
vt 0.736973 0.281533
vt 0.439666 0.523109
vt 0.439666 0.676838
vt 0.424067 0.665206
vt 0.926871 0.216499
vt 0.958142 0.189781
vt 0.958142 0.286708
vt 0.736314 0.932554
vt 0.727505 0.761433
vt 0.736314 0.752421
vt 0.741187 0.781598
vt 0.815306 0.672851
vt 0.815306 0.832622
vt 0.676526 0.001672
vt 0.676526 0.277601
vt 0.574098 0.163281
vt 0.984072 0.828448
vt 0.984072 0.924947
vt 0.954718 0.884992
vt 0.971426 0.001672
vt 0.971426 0.162848
vt 0.955293 0.113340
vt 0.179893 0.397869
vt 0.001672 0.381320
vt 0.179893 0.175425
vt 0.275948 0.655145
vt 0.191608 0.504213
vt 0.275948 0.456302
vt 0.708322 0.755206
vt 0.708322 0.852046
vt 0.582114 0.764684
vt 0.914073 0.672851
vt 0.914073 0.869409
vt 0.890877 0.761175
vt 0.975626 0.557789
vt 0.990260 0.555841
vt 0.990260 0.661198
vt 0.687243 0.894503
vt 0.687243 0.917859
vt 0.582114 0.901439
vt 0.080756 0.762365
vt 0.080756 0.897771
vt 0.046926 0.863248
vt 0.186798 0.645124
vt 0.182353 0.643992
vt 0.186798 0.608529
vt 0.591696 0.946882
vt 0.582114 0.940539
vt 0.591696 0.921203
vt 0.723558 0.840493
vt 0.711665 0.828763
vt 0.723558 0.755206
vt 0.552093 0.659530
vt 0.578487 0.637898
vt 0.578487 0.765837
vt 0.951374 0.828448
vt 0.951374 0.947052
vt 0.917417 0.919995
vt 0.279292 0.702514
vt 0.386071 0.697531
vt 0.386071 0.816134
vt 0.917417 0.696908
vt 0.943848 0.672851
vt 0.943848 0.825105
vt 0.888314 0.135037
vt 0.838717 0.029379
vt 0.888314 0.001672
vt 0.179009 0.608529
vt 0.179009 0.648922
vt 0.139761 0.638278
vt 0.138405 0.614568
vt 0.555310 0.769181
vt 0.555310 0.847319
vt 0.443180 0.828153
vt 0.920027 0.319153
vt 0.949167 0.290052
vt 0.949167 0.425976
vt 0.891012 0.149879
vt 0.891012 0.161500
vt 0.784281 0.152468
vt 0.366612 0.912082
vt 0.379447 0.909415
vt 0.379447 0.961485
vt 0.835374 0.144289
vt 0.784281 0.146535
vt 0.796267 0.012768
vt 0.835374 0.001672
vt 0.427963 0.278780
vt 0.279292 0.286783
vt 0.296260 0.014472
vt 0.427963 0.001672
vt 0.424594 0.940971
vt 0.389415 0.931103
vt 0.400430 0.893668
vt 0.424594 0.892820
vt 0.570755 0.001672
vt 0.570755 0.217261
vt 0.446370 0.193875
vt 0.431307 0.013796
vt 0.269198 0.968844
vt 0.244801 0.963648
vt 0.258675 0.868571
vt 0.269198 0.864405
vt 0.956039 0.300841
vt 0.977360 0.290052
vt 0.977360 0.408455
vt 0.952511 0.406281
vt 0.737843 0.454802
vt 0.737843 0.580710
vt 0.628567 0.592140
vt 0.582114 0.447063
vt 0.443180 0.858770
vt 0.443945 0.851298
vt 0.577278 0.850663
vt 0.577278 0.886804
vt 0.325081 0.909415
vt 0.363268 0.910967
vt 0.363268 0.923223
vt 0.322355 0.926592
vt 0.436200 0.265464
vt 0.431307 0.242734
vt 0.525747 0.220605
vt 0.525747 0.274326
vt 0.752191 0.171664
vt 0.793076 0.169325
vt 0.793076 0.442164
vt 0.740317 0.443719
vt 0.427938 0.994151
vt 0.434072 0.893245
vt 0.438638 0.892820
vt 0.438638 0.996152
vt 0.587825 0.598239
vt 0.721409 0.595484
vt 0.721409 0.738102
vt 0.582114 0.751862
vt 0.286244 0.549344
vt 0.420723 0.523109
vt 0.420723 0.685262
vt 0.279292 0.694187
vt 0.529091 0.228228
vt 0.565240 0.220605
vt 0.565240 0.274284
vt 0.529505 0.268878
vt 0.297798 0.959703
vt 0.273127 0.959710
vt 0.289231 0.909415
vt 0.297798 0.910386
vt 0.184552 0.872063
vt 0.212023 0.864405
vt 0.212023 0.978161
vt 0.201138 0.978157
vt 0.198653 0.424693
vt 0.185845 0.423945
vt 0.185136 0.313256
vt 0.198653 0.302580
vt 0.275948 0.817789
vt 0.085237 0.800738
vt 0.087706 0.788719
vt 0.275948 0.771704
vt 0.135061 0.624172
vt 0.135061 0.759021
vt 0.001865 0.752952
vt 0.001672 0.608529
vt 0.797554 0.441883
vt 0.796420 0.165956
vt 0.837440 0.168198
vt 0.837440 0.443719
vt 0.444533 0.607198
vt 0.443180 0.447063
vt 0.578770 0.463210
vt 0.578770 0.634554
vt 0.031754 0.890682
vt 0.031754 0.964345
vt 0.008766 0.954061
vt 0.001672 0.888984
vt 0.843168 0.437414
vt 0.840784 0.398465
vt 0.858891 0.403172
vt 0.858891 0.440116
vt 0.295422 0.291675
vt 0.439836 0.290127
vt 0.439836 0.496744
vt 0.279292 0.519765
vt 0.990533 0.674542
vt 0.990533 0.817395
vt 0.974749 0.808253
vt 0.975818 0.672851
vt 0.777534 0.836102
vt 0.777534 0.941535
vt 0.753809 0.942605
vt 0.741187 0.835966
vt 0.945457 0.664738
vt 0.892685 0.662715
vt 0.894696 0.625253
vt 0.945457 0.619020
vt 0.883184 0.284708
vt 0.881622 0.166867
vt 0.923528 0.165956
vt 0.923528 0.286708
vt 0.229900 0.177251
vt 0.275948 0.175425
vt 0.275948 0.450191
vt 0.202082 0.452959
vt 0.680786 0.077979
vt 0.780937 0.001672
vt 0.780937 0.153925
vt 0.679870 0.156112
vt 0.818650 0.876804
vt 0.851724 0.672851
vt 0.858773 0.675444
vt 0.858773 0.885003
vt 0.972282 0.447265
vt 0.972282 0.583812
vt 0.959388 0.583740
vt 0.949777 0.447063
vt 0.275948 0.172081
vt 0.001911 0.152090
vt 0.001672 0.027835
vt 0.275948 0.001672
vt 0.916085 0.161500
vt 0.894356 0.153398
vt 0.899247 0.134566
vt 0.916085 0.127375
vt 0.891658 0.114939
vt 0.900250 0.002203
vt 0.926608 0.001672
vt 0.926608 0.121378
vt 0.993510 0.290052
vt 0.993510 0.407903
vt 0.983000 0.401599
vt 0.980704 0.290819
vt 0.878278 0.394616
vt 0.871018 0.395121
vt 0.840784 0.181662
vt 0.878278 0.165956
vt 0.998328 0.949200
vt 0.992005 0.948680
vt 0.987415 0.832050
vt 0.998328 0.828448
vt 0.045024 0.940598
vt 0.042544 0.901789
vt 0.080756 0.901115
vt 0.080756 0.942245
vt 0.049736 0.605185
vt 0.001672 0.401213
vt 0.181765 0.404886
vt 0.181765 0.596358
vt 0.162931 0.936188
vt 0.149062 0.931378
vt 0.151697 0.919395
vt 0.162931 0.913682
vt 0.525785 0.903818
vt 0.573171 0.890148
vt 0.573171 0.936860
vt 0.515780 0.932237
vt 0.836960 0.665755
vt 0.883772 0.654481
vt 0.883772 0.669245
vt 0.635277 0.290127
vt 0.635277 0.443719
vt 0.443180 0.419159
vt 0.446329 0.294943
vt 0.153523 0.711387
vt 0.275948 0.658489
vt 0.275948 0.768360
vt 0.154305 0.732953
vt 0.101606 0.958721
vt 0.100471 0.915317
vt 0.112762 0.913682
vt 0.112762 0.960624
vt 0.181208 0.864405
vt 0.181208 0.910338
vt 0.085343 0.896630
vt 0.085237 0.889354
vt 0.705724 0.894503
vt 0.705724 0.996583
vt 0.697583 0.993747
vt 0.690586 0.896514
vt 0.273294 0.877594
vt 0.386071 0.869534
vt 0.386071 0.906071
vt 0.273127 0.903957
vt 0.443180 0.913514
vt 0.512436 0.890148
vt 0.512436 0.936081
vt 0.449657 0.935845
vt 0.149981 0.652266
vt 0.149981 0.765230
vt 0.138405 0.760786
vt 0.138474 0.653891
vt 0.043583 0.763015
vt 0.043583 0.885127
vt 0.013181 0.885640
vt 0.001672 0.762365
vt 0.386071 0.866190
vt 0.284018 0.863846
vt 0.283053 0.827511
vt 0.386071 0.819478
vt 0.145719 0.913706
vt 0.145719 0.941297
vt 0.129015 0.941180
vt 0.128495 0.913682
vn 0.0800 0.6190 0.7813
vn -0.0022 -0.9998 -0.0194
vn 0.0084 -0.9999 -0.0130
vn -0.0085 -0.9998 -0.0155
vn -0.7565 -0.0027 0.6540
vn -0.0109 -0.9999 -0.0039
vn -0.0039 -1.0000 0.0018
vn -0.0230 -0.9997 -0.0008
vn -0.0235 -0.9997 0.0081
vn -0.9887 0.1294 -0.0764
vn 0.0077 -0.9999 0.0139
vn -0.0028 -0.9996 0.0275
vn 0.0123 0.1311 0.9913
vn -0.2656 0.1450 -0.9531
vn 0.0014 -1.0000 -0.0064
vn -0.0137 -0.9999 0.0030
vn 0.0054 -1.0000 -0.0015
vn 0.0023 -1.0000 -0.0061
vn 0.0034 -1.0000 -0.0048
vn 0.0034 -1.0000 -0.0076
vn 0.0063 -0.9999 -0.0102
vn 0.0051 -0.9999 -0.0088
vn 0.0067 -0.9999 -0.0099
vn 0.7702 -0.0338 0.6370
vn 0.7941 -0.0006 0.6078
vn -0.6311 -0.7749 0.0337
vn -0.6312 -0.7749 0.0337
vn -0.6165 -0.7868 0.0299
vn -0.2247 -0.3142 -0.9224
vn 0.0088 -1.0000 -0.0034
vn -0.4492 -0.0156 0.8933
vn -0.6567 -0.0633 0.7515
vn 0.1013 -0.1584 -0.9822
vn -0.0741 0.2490 -0.9657
vn -0.6163 0.5448 -0.5687
vn -0.7096 0.4230 0.5636
vn 0.6503 -0.7583 -0.0468
vn 0.0096 0.9999 -0.0101
vn 0.0133 0.9999 -0.0009
vn 0.0161 0.9998 -0.0084
vn 0.0336 0.9934 0.1097
vn 0.0012 0.9931 0.1173
vn -0.0035 1.0000 -0.0063
vn 0.6608 -0.7504 0.0176
vn 0.9638 0.2601 0.0579
vn 0.0092 -1.0000 0.0032
vn 0.9832 -0.1775 0.0432
vn -0.6965 -0.0810 -0.7130
vn 0.3109 -0.4888 -0.8151
vn -0.2051 -0.5115 -0.8345
vn 0.0970 0.4789 0.8725
vn -0.1958 0.0255 -0.9803
vn -0.4942 0.0488 0.8680
vn -0.0095 -0.9999 0.0048
vn 0.0038 -1.0000 0.0030
vn -0.0000 -1.0000 0.0051
vn 0.9977 0.0436 -0.0519
vn -0.9787 0.2040 -0.0247
vn -0.9875 0.0965 -0.1243
vn -0.0117 -0.9999 0.0008
vn -0.0132 -0.9978 0.0643
vn -0.2805 0.1297 -0.9510
vn -0.1788 0.2911 -0.9399
vn -0.9990 -0.0323 0.0305
vn -0.0016 -0.9998 0.0211
vn 0.0705 -0.0496 -0.9963
vn 0.0628 -0.1170 -0.9911
vn 0.0625 -0.1174 -0.9911
vn 0.0626 -0.1165 -0.9912
vn 0.0624 -0.1185 -0.9910
vn 0.0624 -0.1181 -0.9910
vn 0.0626 -0.1177 -0.9911
vn -0.6610 0.3825 -0.6456
vn -0.6249 0.5344 0.5691
vn 0.6711 -0.7395 -0.0532
vn -0.0116 0.9993 0.0354
vn -0.0296 0.9994 -0.0158
vn -0.0273 0.9995 -0.0158
vn -0.0281 0.9995 -0.0107
vn -0.0269 0.9996 -0.0006
vn -0.0308 0.9995 -0.0040
vn -0.0261 0.9996 -0.0059
vn 0.0231 0.9993 0.0283
vn -0.0074 1.0000 -0.0064
vn -0.0007 0.9998 -0.0180
vn -0.0105 0.9999 -0.0048
vn -0.6565 -0.0834 0.7497
vn -0.6451 -0.0591 0.7618
vn 0.0252 0.9997 -0.0074
vn 0.6911 -0.7228 0.0058
vn 0.8134 0.5815 0.0144
vn -0.1573 -0.6286 -0.7617
vn -0.7885 0.0481 -0.6131
vn -0.8572 0.0491 -0.5127
vn -0.8375 0.0032 -0.5464
vn 0.9877 0.1056 -0.1152
vn 0.9898 0.1317 -0.0537
vn 0.9898 0.1317 -0.0538
vn 0.7071 -0.0200 -0.7069
vn 0.6752 -0.0970 -0.7313
vn 0.7127 -0.0380 -0.7004
vn -0.9995 -0.0209 0.0243
vn -0.9997 -0.0039 0.0248
vn -0.9999 -0.0139 0.0096
vn -0.9997 -0.0123 0.0204
vn 0.0060 0.8383 -0.5451
vn -0.0174 0.8361 -0.5484
vn 0.0198 0.7674 -0.6409
vn -0.0316 0.8931 -0.4488
vn -0.0276 0.8868 -0.4613
vn -0.0302 0.8823 -0.4698
vn -0.0112 0.9997 -0.0201
vn 0.0005 0.9997 -0.0240
vn -0.0092 0.9995 -0.0297
vn -0.0117 0.9997 -0.0202
vn 0.8816 0.0379 -0.4704
vn 0.9121 -0.0259 -0.4091
vn 0.9124 -0.0375 -0.4077
vn -0.3757 -0.8590 0.3478
vn -0.4067 -0.8388 0.3620
vn -0.8465 0.1912 -0.4969
vn -0.8465 0.1912 -0.4968
vn -0.8602 0.1795 -0.4773
vn -0.8602 0.1796 -0.4773
vn 0.7722 0.1504 -0.6173
vn 0.7143 0.1402 -0.6856
vn -0.9277 0.3696 -0.0518
vn -0.8278 0.5584 -0.0543
vn -0.9997 0.0175 -0.0156
vn -0.9999 0.0117 0.0105
vn -1.0000 0.0021 -0.0054
vn 0.0232 -0.0778 0.9967
vn 0.0298 -0.0711 0.9970
vn 0.0297 -0.0713 0.9970
vn 0.0228 -0.0782 0.9967
vn -0.2591 -0.9480 0.1848
vn -0.2680 -0.9414 -0.2049
vn -0.0392 -0.9991 -0.0167
vn -0.0297 -0.9995 -0.0134
vn -0.4857 -0.6812 -0.5478
vn -0.3507 -0.7788 -0.5200
vn -0.7958 0.5948 0.1138
vn -0.8163 0.5674 0.1081
vn 0.0446 -0.7278 0.6843
vn 0.0471 -0.7176 0.6948
vn 0.0471 -0.7177 0.6948
vn 0.7896 0.0517 0.6115
vn 0.6374 0.0175 0.7704
vn 0.6373 0.0175 0.7704
vn -0.0508 0.0026 -0.9987
vn -0.1098 -0.0545 -0.9925
vn -0.1097 -0.0545 -0.9925
vn -0.6350 0.0876 0.7676
vn -0.6350 0.0876 0.7675
vn -0.6549 0.0853 0.7509
vn 0.9892 -0.1317 -0.0638
vn 0.9916 -0.1187 -0.0516
vn -0.1762 -0.1784 -0.9680
vn -0.1762 -0.1785 -0.9680
vn -0.1857 -0.1937 -0.9633
vn 0.4458 -0.7538 -0.4828
vn 0.4439 -0.7551 -0.4824
vn 0.6140 -0.5234 -0.5908
vn 0.6550 -0.7079 -0.2642
vn -0.1097 -0.0722 -0.9913
vn -0.1770 -0.1189 -0.9770
vn 0.0393 -0.7190 -0.6939
vn 0.0392 -0.7195 -0.6933
vn 0.0395 -0.7181 -0.6948
vn 0.0397 -0.7173 -0.6956
vn -0.9981 -0.0375 0.0496
vn -0.9986 -0.0235 0.0465
vn -0.0006 -1.0000 -0.0030
vn 0.0040 -0.9998 -0.0211
vn 0.0086 -0.9996 -0.0285
vn 0.0127 -0.9998 -0.0129
vn -0.0732 0.0189 0.9971
vn -0.0529 -0.0335 0.9980
vn -0.0529 -0.0336 0.9980
vn 0.6361 0.0611 0.7692
vn 0.7232 0.0461 0.6891
vn 0.0242 0.9997 0.0080
vn 0.0246 0.9997 0.0076
vn 0.8712 -0.0395 -0.4894
vn 0.8046 -0.0573 -0.5911
vn 0.7569 -0.1072 -0.6447
vn 0.7821 -0.0430 -0.6217
vn 0.7825 -0.1774 0.5969
vn 0.7824 -0.1774 0.5969
vn 0.7271 -0.1851 0.6612
vn 0.7270 -0.1851 0.6612
vn -0.0434 0.0160 0.9989
vn -0.0144 0.0313 0.9994
vn 0.4292 0.7136 0.5537
vn 0.4292 0.7091 0.5595
vn 0.4292 0.7097 0.5587
vn 0.4292 0.7138 0.5534
vn 0.9981 0.0483 0.0385
vn 0.9981 0.0484 0.0385
vn 0.9927 0.1059 0.0570
vn -0.0214 -0.7895 0.6133
vn -0.0371 -0.7288 0.6838
vn -0.0371 -0.7288 0.6837
vn -0.9278 -0.0080 -0.3729
vn -0.8981 0.0048 -0.4397
vn -0.8967 -0.0484 -0.4399
vn -0.0562 0.6111 0.7896
vn -0.0684 0.4944 0.8665
vn -0.0069 -0.9998 -0.0177
vn -0.0069 -0.9998 -0.0180
vn -0.0078 -1.0000 -0.0059
vn -0.0031 -1.0000 -0.0031
vn 0.9945 0.0927 -0.0494
vn 0.9945 0.0926 -0.0493
vn 0.9941 0.0947 -0.0522
vn 0.9941 0.0950 -0.0526
vn 0.6086 0.5258 0.5942
vn 0.6111 0.5655 0.5539
vn -0.8048 -0.0347 -0.5925
vn -0.8048 -0.0347 -0.5926
vn -0.7702 0.0439 -0.6363
vn 0.7275 -0.0154 -0.6859
vn 0.7129 -0.0014 -0.7013
vn 0.7113 -0.0216 -0.7025
vn 0.0095 0.0330 0.9994
vn -0.0433 0.0705 0.9966
vn -0.0433 0.0706 0.9966
vn -0.0028 0.9999 -0.0157
vn -0.0147 0.9996 -0.0248
vn -0.0011 1.0000 -0.0097
vn 0.0086 0.9998 -0.0167
vn 0.4981 0.6871 -0.5289
vn 0.4379 0.8025 -0.4052
vn -0.8631 -0.1769 -0.4730
vn -0.9229 -0.1377 -0.3597
vn -0.6468 -0.7620 -0.0299
vn -0.6469 -0.7620 -0.0299
vn -0.6323 -0.7743 -0.0261
vn 0.9973 0.0009 -0.0740
vn 0.9969 0.0475 -0.0630
vn -0.8294 0.2655 -0.4915
vn -0.8383 0.2741 -0.4712
vn 0.7695 0.6368 -0.0474
vn 0.7696 0.6368 -0.0474
vn 0.8165 0.5744 -0.0589
vn 0.0644 0.0168 0.9978
vn 0.0648 0.0154 0.9978
vn 0.0636 0.0202 0.9978
vn 0.0632 0.0215 0.9978
vn -0.9945 -0.0239 -0.1021
vn -0.9945 -0.0235 -0.1022
vn -0.9945 -0.0244 -0.1019
vn -0.9945 -0.0252 -0.1016
vn 0.4332 -0.8349 0.3394
vn 0.4334 -0.8346 0.3400
vn 0.4327 -0.8360 0.3375
vn 0.4325 -0.8363 0.3369
g Column_V1_3_Column_V1_3_Collor_Material
usemtl Collor_Material
s off
f 72/1/1 66/2/1 73/3/1
f 26/4/2 19/5/3 42/6/4
f 13/7/5 10/8/5 12/9/5
f 13/10/6 78/11/7 39/12/8
f 46/13/9 27/14/9 44/15/9
f 34/16/10 7/17/10 29/18/10
f 82/19/11 46/20/11 44/21/11
f 26/22/12 68/23/12 89/24/12
f 51/25/13 50/26/13 10/27/13
f 20/28/14 33/29/14 32/30/14
f 13/31/15 39/32/16 18/33/17
f 12/34/18 45/35/19 85/36/20
f 45/37/21 46/38/22 85/39/23
f 61/40/24 64/41/24 65/42/25 62/43/25
f 77/44/26 78/45/27 38/46/28 37/47/28
f 87/48/29 88/49/29 89/50/29
f 12/51/30 75/52/30 35/53/30
f 8/54/31 10/55/31 11/56/32 9/57/32
f 93/58/33 92/59/33 69/60/33
f 28/61/34 69/62/34 92/63/34
f 47/64/35 56/65/35 28/66/35
f 53/67/36 58/68/36 48/69/36
f 61/70/37 82/71/37 81/72/37
f 66/73/38 74/74/39 73/75/40
f 76/76/41 55/77/41 70/78/41
f 56/79/42 76/80/42 70/81/42
f 84/82/43 74/83/43 67/84/43
f 81/85/44 44/86/44 43/87/44
f 83/88/45 67/89/45 64/90/45
f 63/91/46 85/92/46 82/93/46
f 87/94/47 89/95/47 90/96/47
f 92/97/48 93/98/48 68/99/48
f 92/100/49 68/101/49 91/102/49
f 91/103/50 42/104/50 41/105/50
f 72/106/51 65/107/51 66/108/51
f 22/109/52 32/110/52 31/111/52
f 13/112/53 11/113/53 10/114/53
f 13/115/54 38/116/55 78/117/56
f 25/118/57 49/119/57 52/120/57
f 14/121/58 7/122/58 34/123/58
f 7/124/59 9/125/59 29/126/59
f 82/127/60 85/128/60 46/129/60
f 26/130/61 42/131/61 68/132/61
f 32/133/62 22/134/62 20/135/62
f 20/136/63 15/137/63 33/138/63
f 30/139/64 29/140/64 9/141/64
f 12/142/65 85/143/65 75/144/65
f 1/145/66 87/146/66 69/147/66
f 87/148/67 90/149/68 69/150/69
f 90/151/70 93/152/71 69/153/72
f 47/154/73 57/155/73 56/156/73
f 53/157/74 59/158/74 58/159/74
f 61/160/75 63/161/75 82/162/75
f 66/163/76 67/164/76 74/165/76
f 76/166/77 60/167/78 55/168/79
f 84/169/80 60/170/81 76/171/82
f 56/172/83 57/173/83 76/174/83
f 59/175/84 73/176/85 74/177/86
f 36/178/87 53/179/87 48/180/88 37/181/88
f 86/182/89 80/183/89 58/184/89
f 81/185/90 82/186/90 44/187/90
f 83/188/91 84/189/91 67/190/91
f 91/191/92 68/192/92 42/193/92
f 18/194/93 19/195/93 17/196/94 16/197/95
f 2/198/96 21/199/96 23/200/97 4/201/98
f 54/202/99 43/203/100 88/204/100 87/205/101
f 16/206/102 30/207/103 9/208/104 11/209/105
f 69/210/106 70/211/107 55/212/108 1/213/108
f 28/214/109 56/215/109 70/216/110 69/217/111
f 76/218/112 86/219/113 74/220/114 84/221/115
f 25/222/116 24/223/117 26/224/118 27/225/118
f 38/226/119 35/227/119 36/228/120 37/229/120
f 34/230/121 33/231/122 15/232/123 14/233/124
f 22/234/125 23/235/125 21/236/126 20/237/126
f 80/238/127 57/239/127 47/240/128 79/241/128
f 13/242/129 18/243/129 16/244/130 11/245/131
f 50/246/132 45/247/133 12/248/134 10/249/135
f 89/250/136 44/251/137 27/252/138 26/253/139
f 41/254/140 42/255/140 39/256/141 40/257/141
f 48/258/142 58/259/142 80/260/143 79/261/143
f 71/262/144 75/263/144 85/264/145 62/265/146
f 4/266/147 52/267/147 51/268/148 5/269/149
f 19/270/150 26/271/150 24/272/151 17/273/152
f 9/274/153 7/275/154 6/276/155 8/277/155
f 27/278/156 46/279/156 49/280/157 25/281/157
f 28/282/158 92/283/159 91/284/160 41/285/160
f 88/286/161 43/287/162 44/288/163 89/289/164
f 17/290/165 24/291/165 22/292/166 31/293/166
f 89/294/167 68/295/168 93/296/169 90/297/170
f 77/298/171 37/299/171 48/300/172 79/301/172
f 39/302/173 42/303/174 19/304/175 18/305/176
f 36/306/177 71/307/177 72/308/178 53/309/179
f 4/310/180 5/311/180 3/312/181 2/313/181
f 86/314/182 76/315/182 57/316/182 80/317/183
f 22/318/184 24/319/185 25/320/186 23/321/187
f 49/322/188 46/323/189 45/324/190 50/325/191
f 3/326/192 5/327/192 8/328/193 6/329/193
f 66/330/194 65/331/195 64/332/196 67/333/197
f 61/334/198 81/335/199 83/336/200 64/337/200
f 71/338/201 36/339/201 35/340/202 75/341/203
f 31/342/204 30/343/204 16/344/205 17/345/206
f 72/346/207 73/347/207 59/348/208 53/349/208
f 12/350/209 35/351/210 38/352/211 13/353/212
f 23/354/213 25/355/214 52/356/215 4/357/216
f 50/358/217 51/359/217 52/360/218 49/361/218
f 41/362/219 40/363/220 47/364/221 28/365/221
f 54/366/222 87/367/223 1/368/224
f 51/369/225 10/370/225 8/371/226 5/372/227
f 59/373/228 74/374/229 86/375/230 58/376/231
f 55/377/232 60/378/232 54/379/233 1/380/233
f 32/381/234 29/382/235 30/383/235 31/384/234
f 77/385/236 40/386/237 39/387/238 78/388/238
f 81/389/239 43/390/239 54/391/240 83/392/240
f 34/393/241 29/394/241 32/395/242 33/396/242
f 83/397/243 54/398/244 60/399/245 84/400/245
f 71/401/246 62/402/247 65/403/248 72/404/249
f 40/405/250 77/406/251 79/407/252 47/408/253
f 85/409/254 63/410/255 61/411/256 62/412/257
