# Blender v3.0.0 OBJ File: 'aa.blend'
# www.blender.org
mtllib Column_V2_2.mtl
o Column_V2_2
v 0.335586 1.713539 -0.233553
v 0.271215 1.727044 -0.285621
v 0.273691 1.759436 -0.289123
v 0.334987 1.746016 -0.232726
v -0.313915 0.590958 -0.257279
v -0.259978 0.590687 -0.302397
v -0.240324 1.145446 -0.325243
v -0.313123 1.144930 -0.255507
v -0.313215 1.176054 -0.255500
v -0.240355 1.175672 -0.325217
v -0.240476 1.729004 -0.327046
v -0.314615 1.728146 -0.255311
v -0.314857 1.760324 -0.255476
v -0.240493 1.760134 -0.325030
v -0.258648 1.732868 0.311209
v -0.289218 1.732509 0.258769
v -0.324964 1.176356 0.233359
v -0.271889 1.175287 0.292222
v -0.256531 1.145258 0.303413
v -0.324055 1.144370 0.232444
v -0.325048 0.590825 0.232967
v -0.255626 0.589836 0.306490
v -0.255485 0.559129 0.306862
v -0.324708 0.559258 0.233345
v 0.188939 0.565448 0.312142
v 0.284136 0.561137 0.272554
v 0.308818 0.557639 -0.243781
v 0.225533 0.533129 -0.315668
v -0.243153 0.558607 -0.300666
v -0.312363 0.559119 -0.253054
v -0.254849 1.761783 0.306378
v -0.289492 1.758761 0.250468
v -0.291786 0.000000 0.361039
v -0.393614 0.000000 0.251826
v -0.291879 2.346009 0.299933
v -0.269295 2.346035 0.320017
v -0.354135 -0.000000 -0.288996
v -0.269756 -0.000000 -0.370687
v -0.255991 2.295256 -0.340886
v -0.326215 2.342503 -0.264287
v 0.346602 0.000000 0.283392
v 0.232850 0.000000 0.359438
v 0.307384 2.346301 0.278176
v 0.322742 2.346872 0.260953
v 0.244071 -0.000000 -0.345324
v 0.361575 -0.000000 -0.191792
v 0.338515 2.346696 -0.252392
v 0.305372 2.348178 -0.286212
v -0.268658 0.609174 0.320881
v -0.341020 0.608274 0.245363
v -0.284953 1.196820 0.304498
v -0.335247 1.194875 0.245842
v -0.299246 1.787298 0.284067
v -0.269993 1.784149 0.318636
v -0.253235 1.785283 -0.341239
v -0.328672 1.785643 -0.267885
v -0.252577 1.195638 -0.341257
v -0.330755 1.195336 -0.268629
v -0.279523 0.609251 -0.317157
v -0.326316 0.607501 -0.269470
v 0.352718 1.801673 -0.244287
v 0.263221 1.810832 -0.324867
v 0.334073 1.197412 -0.221508
v 0.252536 1.211230 -0.329960
v 0.334182 0.631390 -0.249460
v 0.240194 0.583669 -0.327224
v 0.280767 1.784293 0.287736
v 0.323528 1.787329 0.235065
v 0.269303 1.195138 0.314260
v 0.317708 1.178621 0.259837
v 0.246412 0.638594 0.334447
v 0.292104 0.609765 0.289374
v -0.329835 0.547162 -0.269190
v -0.272687 0.544504 -0.325390
v 0.239244 0.518709 -0.330349
v 0.331375 0.523095 -0.219688
v 0.304751 0.544508 0.272742
v 0.177086 0.546436 0.334306
v -0.331117 0.546664 0.265075
v -0.268138 0.546535 0.320840
v -0.336913 1.125514 0.245447
v -0.289191 1.123675 0.303463
v -0.328779 1.124610 -0.269631
v -0.251440 1.123958 -0.340977
v 0.238107 1.142078 -0.328740
v 0.333562 1.122258 -0.196857
v 0.319363 1.141286 0.259554
v 0.246625 1.124205 0.333292
v -0.318332 1.689805 0.263752
v -0.268741 1.702525 0.322416
v -0.326776 1.707389 -0.268793
v -0.252228 1.707117 -0.341766
v 0.278902 1.665625 -0.315379
v 0.348632 1.692217 -0.242020
v 0.322817 1.706910 0.224824
v 0.271749 1.706863 0.306370
v 0.317675 1.173996 -0.184102
v 0.239505 1.193433 -0.316227
v 0.238711 1.160815 -0.315907
v 0.318254 1.146840 -0.184231
v 0.308079 0.591513 -0.244631
v 0.225367 0.562044 -0.315832
v 0.269903 1.761828 0.282453
v 0.309153 1.758917 0.224209
v 0.308764 1.726501 0.213097
v 0.259486 1.728560 0.293044
v 0.240530 1.176462 0.310454
v 0.306954 1.166512 0.248974
v 0.307105 1.154420 0.248837
v 0.232485 1.145109 0.317513
v 0.166255 0.583233 0.311212
v 0.276273 0.589230 0.276444
v -0.274142 2.396665 0.262193
v -0.229805 2.400430 -0.310751
v 0.275421 2.400262 -0.259475
v -0.244770 2.398548 0.292726
v -0.301271 2.396184 -0.244791
v 0.304236 2.396842 -0.229697
v 0.292353 2.401064 0.237107
v 0.267915 2.395732 0.260298
v -0.340003 2.426893 0.410731
v -0.351490 2.452802 0.425994
v -0.439517 2.474907 0.336973
v -0.429821 2.431386 0.310071
v -0.417139 2.429917 -0.338507
v -0.431327 2.452115 -0.353020
v -0.332069 2.454940 -0.451085
v -0.318486 2.430232 -0.431950
v 0.333162 2.425632 -0.417541
v 0.344750 2.452325 -0.434319
v 0.445834 2.485841 -0.332643
v 0.417023 2.414861 -0.315062
v 0.414009 2.432173 0.334696
v 0.429394 2.451269 0.346470
v 0.369894 2.453541 0.395785
v 0.298072 2.407442 0.361973
v -0.353344 2.543736 0.424919
v -0.335616 2.591454 0.370435
v -0.401241 2.588978 0.302684
v -0.438138 2.526584 0.340081
v -0.434135 2.544598 -0.353563
v -0.414789 2.585461 -0.343420
v -0.324818 2.587538 -0.425649
v -0.331529 2.549691 -0.453066
v 0.346942 2.524987 -0.437637
v 0.323826 2.590724 -0.368073
v 0.424944 2.602901 -0.264004
v 0.440567 2.547643 -0.330908
v 0.422884 2.548676 0.349684
v 0.405921 2.582693 0.319708
v 0.351539 2.595598 0.311192
v 0.380968 2.538608 0.384277
v -0.326165 0.580226 0.150157
v 0.321147 1.753117 -0.004345
v -0.309382 1.761834 -0.003444
v -0.320454 0.564760 -0.014351
v 0.297324 0.559343 0.012211
v -0.319132 1.153031 -0.119770
v -0.369254 -0.000000 -0.151378
v -0.329843 0.554280 -0.019909
v 0.363764 0.000000 0.071259
v -0.315521 1.784158 0.008345
v -0.320889 2.323761 -0.171945
v 0.321322 2.364060 0.121742
v 0.321607 0.533798 0.027234
v 0.337046 1.793684 -0.004603
v -0.346289 0.595112 0.149386
v -0.341447 1.135403 -0.120056
v -0.336920 1.179807 -0.119449
v -0.337335 1.658621 -0.002088
v 0.342664 1.699113 -0.009884
v 0.325271 1.177770 0.169457
v 0.321100 1.142447 0.170209
v 0.312632 0.621027 0.020217
v -0.319090 1.166821 -0.119759
v -0.310132 1.705975 0.000955
v 0.322740 1.720602 -0.009824
v 0.312478 1.167643 0.165270
v 0.312343 1.152744 0.165263
v 0.292623 0.590143 0.016157
v 0.297972 2.399515 0.003679
v -0.434434 2.446945 -0.004637
v -0.423890 2.410919 -0.108424
v 0.418039 2.424924 0.009261
v 0.432225 2.451519 0.007002
v -0.412813 2.584074 -0.013856
v -0.439527 2.516715 0.043380
v 0.422031 2.498961 0.140646
v 0.408250 2.598425 0.230112
v 0.244021 2.594210 -0.072564
v -0.247068 2.593151 0.023655
v -0.301071 2.380003 -0.120988
v -0.033545 1.114452 0.311873
v 0.156045 1.763664 -0.305333
v -0.008225 0.546181 -0.319407
v -0.032930 0.562703 0.310215
v -0.045085 0.586278 0.308857
v 0.007287 1.760107 0.294226
v -0.010945 -0.000000 -0.381870
v -0.026758 0.000000 0.371250
v -0.046451 0.546216 0.330085
v 0.005734 1.785676 0.309146
v 0.004026 2.296327 0.309305
v 0.138475 2.378052 -0.313535
v -0.008384 0.532348 -0.334260
v 0.005477 1.797120 -0.339878
v -0.011867 0.624255 0.333028
v -0.033856 1.091624 0.324937
v 0.134731 1.212959 0.310442
v 0.002395 1.662351 0.314976
v 0.011900 1.686174 -0.327707
v 0.000533 1.204744 -0.341606
v -0.006750 1.131136 -0.341950
v -0.005590 0.596577 -0.336539
v 0.054405 1.175376 0.304632
v 0.000083 1.708852 0.301098
v 0.016237 1.727721 -0.311022
v 0.000001 1.183225 -0.321870
v -0.000024 1.154477 -0.321926
v -0.008493 0.576050 -0.321237
v 0.022731 2.396466 -0.286336
v 0.011366 2.371223 0.278179
v 0.008774 2.449555 0.414477
v -0.020233 2.385368 0.381941
v 0.006438 2.416641 -0.424122
v 0.006791 2.438377 -0.440020
v 0.010020 2.594756 0.359326
v 0.017924 2.560066 0.404801
v 0.006351 2.560645 -0.436192
v 0.000690 2.613916 -0.364042
v -0.048873 2.592253 0.149460
v -0.262720 2.066738 0.305962
v -0.297706 2.056677 0.265197
v -0.280684 2.065376 -0.322445
v -0.318880 2.174407 -0.273939
v 0.339605 2.074112 -0.249588
v 0.283271 2.078001 -0.305494
v 0.293156 2.065667 0.280454
v 0.320813 2.066004 0.248629
v 0.327233 2.221729 -0.091853
v -0.305509 2.010345 0.115525
v -0.078977 2.118349 0.309746
v 0.164887 2.117840 -0.311896
v -0.239143 1.576972 -0.355911
v -0.342827 1.463616 -0.257545
v 0.345045 1.444392 -0.232904
v 0.265292 1.438654 -0.327640
v 0.281990 1.435268 0.297058
v 0.317980 1.447007 0.257681
v -0.286572 1.404167 0.304510
v -0.314393 1.403008 0.284737
v -0.342897 1.503214 -0.095661
v 0.331917 1.406836 0.173273
v -0.061376 1.412929 -0.349728
v -0.003913 1.428918 0.301148
v -0.227553 0.887612 -0.345411
v -0.297469 0.854475 -0.290907
v 0.335299 0.878390 -0.223634
v 0.253883 0.993205 -0.314490
v 0.259838 0.901120 0.321605
v 0.309170 0.871340 0.264213
v -0.278267 0.961836 0.312244
v -0.314195 0.866313 0.285215
v -0.325264 0.826200 0.031675
v 0.326762 0.980134 -0.046904
v -0.101068 0.889013 -0.342461
v -0.114473 0.899479 0.322586
v -0.253026 0.275094 -0.337302
v -0.329535 0.275304 -0.267863
v 0.336726 0.262401 -0.178775
v 0.249687 0.191679 -0.310525
v 0.197214 0.275375 0.332858
v 0.314013 0.286202 0.267675
v -0.267339 0.378777 0.317218
v -0.359128 0.219792 0.248100
v -0.334835 0.328485 -0.131793
v 0.322350 0.321555 0.147809
v 0.081244 0.324181 -0.334085
v 0.039542 0.272940 0.336331
v -0.221752 2.366171 -0.298412
v 0.271027 2.370395 -0.253409
v -0.261666 2.372233 0.261896
v 0.268825 2.371710 0.250780
v -0.237778 2.372397 0.286622
v 0.287076 2.371523 0.231832
v -0.293984 2.375497 -0.242163
v 0.298441 2.371524 -0.225121
v -0.290664 2.350251 -0.137041
v 0.292908 2.382574 0.058264
v 0.076588 2.394837 -0.281949
v 0.008208 2.335456 0.270687
vt 0.034586 0.819801
vt 0.034586 0.886573
vt 0.002781 0.827167
vt 0.994765 0.361960
vt 0.994765 0.394399
vt 0.989274 0.368069
vt 0.957011 0.494431
vt 0.960732 0.403386
vt 0.964331 0.402327
vt 0.964331 0.498202
vt 0.722953 0.143765
vt 0.765915 0.094551
vt 0.765915 0.179991
vt 0.400254 0.620058
vt 0.458872 0.573504
vt 0.458872 0.659533
vt 0.166578 0.837140
vt 0.104022 0.805948
vt 0.166578 0.793701
vt 0.068556 0.574453
vt 0.068556 0.658888
vt 0.002781 0.586778
vt 0.467138 0.784221
vt 0.396511 0.752571
vt 0.467138 0.734465
vt 0.056571 0.739605
vt 0.056571 0.805641
vt 0.052946 0.741157
vt 0.885412 0.378266
vt 0.902290 0.304850
vt 0.902290 0.406225
vt 0.775859 0.728171
vt 0.740192 0.660082
vt 0.775859 0.628641
vt 0.739933 0.584319
vt 0.773058 0.505914
vt 0.773058 0.612770
vt 0.212836 0.979374
vt 0.203562 0.950134
vt 0.212836 0.941825
vt 0.860534 0.970497
vt 0.860534 0.991821
vt 0.854200 0.987708
vt 0.845597 0.662108
vt 0.871291 0.620686
vt 0.871291 0.706311
vt 0.414574 0.907202
vt 0.430208 0.861240
vt 0.430208 0.929847
vt 0.551505 0.965007
vt 0.538780 0.936802
vt 0.551505 0.897618
vt 0.996846 0.074360
vt 0.996847 0.136553
vt 0.991633 0.075261
vt 0.538780 0.837620
vt 0.574340 0.780449
vt 0.574340 0.851310
vt 0.520333 0.967685
vt 0.509279 0.910074
vt 0.520333 0.900563
vt 0.790149 0.916085
vt 0.781083 0.827921
vt 0.790149 0.806604
vt 0.557067 0.985493
vt 0.557947 0.950009
vt 0.563696 0.950099
vt 0.563696 0.989226
vt 0.178654 0.543939
vt 0.194589 0.453740
vt 0.194589 0.577398
vt 0.188153 0.830996
vt 0.252781 0.808504
vt 0.252781 0.845048
vt 0.756100 0.469644
vt 0.776057 0.465345
vt 0.776057 0.472436
vt 0.951448 0.493146
vt 0.941341 0.429260
vt 0.951448 0.402327
vt 0.869123 0.243906
vt 0.886919 0.156384
vt 0.886919 0.260111
vt 0.757212 0.434291
vt 0.783498 0.328613
vt 0.783498 0.457482
vt 0.841515 0.280042
vt 0.808864 0.219604
vt 0.841515 0.200253
vt 0.751650 0.328613
vt 0.751649 0.433824
vt 0.716370 0.355500
vt 0.779983 0.085352
vt 0.737112 0.014166
vt 0.779983 0.002781
vt 0.387349 0.782379
vt 0.367398 0.766019
vt 0.387349 0.678501
vt 0.034332 0.940588
vt 0.034332 0.974559
vt 0.028239 0.951637
vt 0.950067 0.372210
vt 0.939066 0.290813
vt 0.950067 0.282862
vt 0.880293 0.583292
vt 0.880421 0.505914
vt 0.899593 0.515102
vt 0.899593 0.597673
vt 0.963041 0.722744
vt 0.956126 0.630823
vt 0.963041 0.620686
vt 0.303824 0.757515
vt 0.356256 0.749065
vt 0.356256 0.805466
vt 0.789061 0.434416
vt 0.840678 0.418965
vt 0.840678 0.472164
vt 0.803302 0.200253
vt 0.803302 0.300140
vt 0.774908 0.270718
vt 0.193983 0.677218
vt 0.178654 0.601332
vt 0.193983 0.582961
vt 0.817083 0.562095
vt 0.845745 0.505914
vt 0.845745 0.590296
vt 0.901701 0.297256
vt 0.895836 0.268681
vt 0.901701 0.261860
vt 0.989671 0.687994
vt 0.982997 0.628404
vt 0.989671 0.620686
vt 0.959313 0.801158
vt 0.944794 0.755427
vt 0.959313 0.733733
vt 0.984621 0.964693
vt 0.976708 0.900228
vt 0.984621 0.897188
vt 0.959146 0.610983
vt 0.946382 0.614839
vt 0.947455 0.590263
vt 0.959146 0.582791
vt 0.731549 0.002781
vt 0.731549 0.074516
vt 0.673849 0.028246
vt 0.721466 0.200253
vt 0.721466 0.297312
vt 0.675631 0.254615
vt 0.765613 0.321010
vt 0.727029 0.312254
vt 0.765612 0.291256
vt 0.717390 0.094551
vt 0.717390 0.191570
vt 0.670484 0.135993
vt 0.881522 0.481802
vt 0.846241 0.421817
vt 0.881522 0.418965
vt 0.192762 0.750691
vt 0.137912 0.698847
vt 0.192762 0.684675
vt 0.576757 0.897618
vt 0.576757 0.944446
vt 0.557067 0.925693
vt 0.677826 0.830413
vt 0.677826 0.899110
vt 0.651164 0.836106
vt 0.226034 0.893358
vt 0.188153 0.860680
vt 0.226034 0.850611
vt 0.678770 0.528013
vt 0.614634 0.471203
vt 0.678770 0.451405
vt 0.361567 0.849949
vt 0.303824 0.816449
vt 0.361567 0.811029
vt 0.425396 0.980173
vt 0.414574 0.943757
vt 0.425396 0.935410
vt 0.406652 0.564260
vt 0.395950 0.536111
vt 0.406652 0.527697
vt 0.917596 0.406225
vt 0.907853 0.292740
vt 0.917596 0.282862
vt 0.929346 0.261683
vt 0.917399 0.170681
vt 0.929346 0.156384
vt 0.940819 0.603639
vt 0.930941 0.521861
vt 0.940819 0.505914
vt 0.645730 0.631057
vt 0.686771 0.628641
vt 0.686771 0.699489
vt 0.628654 0.703768
vt 0.075670 0.713581
vt 0.132350 0.684675
vt 0.132350 0.748878
vt 0.136374 0.951831
vt 0.136374 0.988778
vt 0.131488 0.983900
vt 0.796719 0.893049
vt 0.821059 0.889494
vt 0.821059 0.933422
vt 0.252781 0.802941
vt 0.200437 0.775556
vt 0.252781 0.737612
vt 0.297064 0.929472
vt 0.262437 0.929141
vt 0.260488 0.920606
vt 0.297064 0.908986
vt 0.976220 0.362646
vt 0.983711 0.361960
vt 0.983711 0.389386
vt 0.976093 0.388922
vt 0.776001 0.187399
vt 0.771478 0.174643
vt 0.791687 0.176503
vt 0.791687 0.185335
vt 0.125925 0.917558
vt 0.104022 0.909631
vt 0.125925 0.842702
vt 0.593212 0.030984
vt 0.668287 0.002781
vt 0.668287 0.074436
vt 0.594861 0.063922
vt 0.231111 0.094364
vt 0.322940 0.092882
vt 0.322940 0.100294
vt 0.227630 0.100259
vt 0.002781 0.915010
vt 0.018598 0.892136
vt 0.027372 0.893573
vt 0.027372 0.935025
vt 0.547976 0.632032
vt 0.623091 0.628641
vt 0.623091 0.684114
vt 0.538780 0.663356
vt 0.530818 0.895000
vt 0.493665 0.893988
vt 0.492777 0.883188
vt 0.530818 0.860372
vt 0.750537 0.451405
vt 0.750537 0.498710
vt 0.684332 0.473838
vt 0.989404 0.583372
vt 0.994098 0.580597
vt 0.994098 0.603891
vt 0.990571 0.605171
vt 0.829706 0.818168
vt 0.798072 0.799834
vt 0.829706 0.733733
vt 0.628654 0.722311
vt 0.678167 0.709331
vt 0.678167 0.781794
vt 0.510893 0.002781
vt 0.510893 0.087495
vt 0.433627 0.041591
vt 0.439795 0.002852
vt 0.554614 0.416945
vt 0.534570 0.345966
vt 0.604356 0.328613
vt 0.604356 0.418091
vt 0.907479 0.274301
vt 0.907528 0.252435
vt 0.911836 0.253278
vt 0.911836 0.276919
vt 0.985174 0.731596
vt 0.985174 0.794280
vt 0.977229 0.792228
vt 0.978349 0.728431
vt 0.384180 0.931550
vt 0.389631 0.927257
vt 0.389631 0.992258
vt 0.385999 0.993794
vt 0.543913 0.082969
vt 0.516455 0.002781
vt 0.587649 0.025368
vt 0.587649 0.083200
vt 0.674660 0.792965
vt 0.674660 0.824850
vt 0.586301 0.820308
vt 0.586475 0.795606
vt 0.890273 0.265674
vt 0.890273 0.297256
vt 0.871479 0.292307
vt 0.869123 0.267827
vt 0.463981 0.860388
vt 0.463981 0.933114
vt 0.452998 0.933499
vt 0.446280 0.860372
vt 0.322984 0.505056
vt 0.303824 0.457591
vt 0.401698 0.448891
vt 0.401698 0.522134
vt 0.307721 0.664072
vt 0.303824 0.603224
vt 0.378361 0.602055
vt 0.378361 0.672938
vt 0.195111 0.233054
vt 0.195111 0.307360
vt 0.191642 0.298998
vt 0.765079 0.186936
vt 0.765079 0.193192
vt 0.747662 0.193518
vt 0.746802 0.185554
vt 0.860485 0.310950
vt 0.846919 0.306100
vt 0.848064 0.293534
vt 0.860485 0.285604
vt 0.887790 0.078113
vt 0.861216 0.009565
vt 0.887790 0.002781
vt 0.893212 0.810598
vt 0.867905 0.799060
vt 0.893212 0.733733
vt 0.040148 0.833777
vt 0.057289 0.819801
vt 0.057289 0.909149
vt 0.043927 0.911063
vt 0.810423 0.723584
vt 0.781422 0.724413
vt 0.787930 0.630381
vt 0.810423 0.628641
vt 0.879849 0.406225
vt 0.856373 0.345901
vt 0.879849 0.321110
vt 0.839894 0.498659
vt 0.832591 0.498680
vt 0.833510 0.478555
vt 0.839894 0.477998
vt 0.911836 0.245433
vt 0.904090 0.246872
vt 0.892482 0.163097
vt 0.911836 0.156384
vt 0.859725 0.962813
vt 0.854200 0.895198
vt 0.866779 0.893740
vt 0.866779 0.964934
vt 0.686367 0.824850
vt 0.680222 0.822904
vt 0.686367 0.794175
vt 0.533217 0.546698
vt 0.464435 0.530929
vt 0.482980 0.468911
vt 0.533217 0.451405
vt 0.958242 0.123220
vt 0.958242 0.149324
vt 0.937376 0.127610
vt 0.552348 0.294945
vt 0.596083 0.294542
vt 0.596083 0.316468
vt 0.931813 0.149324
vt 0.914832 0.110537
vt 0.931813 0.100776
vt 0.642405 0.429298
vt 0.642405 0.445843
vt 0.612572 0.437513
vt 0.800149 0.166526
vt 0.771478 0.102244
vt 0.811636 0.094551
vt 0.811636 0.169081
vt 0.971002 0.470719
vt 0.969894 0.402327
vt 0.977604 0.402830
vt 0.977604 0.474741
vt 0.160692 0.916875
vt 0.171532 0.842702
vt 0.180364 0.843817
vt 0.180364 0.921862
vt 0.529007 0.336497
vt 0.529007 0.445843
vt 0.469578 0.413170
vt 0.464435 0.328613
vt 0.467138 0.792201
vt 0.467138 0.815910
vt 0.373223 0.818635
vt 0.370162 0.789784
vt 0.984518 0.822624
vt 0.984518 0.891625
vt 0.976708 0.884324
vt 0.303824 0.709331
vt 0.361835 0.678501
vt 0.361835 0.743502
vt 0.645602 0.900834
vt 0.618794 0.895355
vt 0.625597 0.837425
vt 0.645602 0.830413
vt 0.740192 0.867157
vt 0.743232 0.807861
vt 0.775520 0.806604
vt 0.775520 0.871111
vt 0.826377 0.328963
vt 0.850810 0.321110
vt 0.850810 0.410370
vt 0.827585 0.413402
vt 0.469544 0.863238
vt 0.487214 0.860372
vt 0.487214 0.930245
vt 0.475500 0.929761
vt 0.978195 0.136596
vt 0.980175 0.074360
vt 0.986071 0.074919
vt 0.986071 0.138897
vt 0.756317 0.494537
vt 0.756100 0.482190
vt 0.827029 0.477998
vt 0.827029 0.498710
vt 0.851885 0.612770
vt 0.778621 0.611261
vt 0.778724 0.605245
vt 0.851885 0.601780
vt 0.982814 0.721097
vt 0.982625 0.694740
vt 0.989756 0.694343
vt 0.989756 0.721606
vt 0.335086 0.101850
vt 0.334304 0.094131
vt 0.361621 0.095695
vt 0.361621 0.101148
vt 0.047383 0.743403
vt 0.047383 0.814238
vt 0.015704 0.806543
vt 0.002781 0.739605
vt 0.072202 0.977764
vt 0.065303 0.977519
vt 0.062867 0.913362
vt 0.072202 0.909818
vt 0.618044 0.562710
vt 0.689669 0.545034
vt 0.689669 0.612770
vt 0.617517 0.603819
vt 0.769345 0.285693
vt 0.731816 0.284472
vt 0.727029 0.215844
vt 0.769345 0.200253
vt 0.291292 0.848321
vt 0.291292 0.903423
vt 0.260488 0.886694
vt 0.266309 0.853225
vt 0.997219 0.061444
vt 0.991361 0.057356
vt 0.997219 0.002781
vt 0.532566 0.972218
vt 0.525896 0.971433
vt 0.526331 0.905591
vt 0.532566 0.900563
vt 0.664921 0.180154
vt 0.606086 0.172178
vt 0.609543 0.106493
vt 0.664921 0.094551
vt 0.657817 0.444933
vt 0.650139 0.445843
vt 0.647968 0.434211
vt 0.657817 0.427771
vt 0.973070 0.156384
vt 0.973070 0.244869
vt 0.966660 0.241838
vt 0.965215 0.156998
vt 0.361095 0.002781
vt 0.428064 0.002843
vt 0.428064 0.071451
vt 0.334304 0.088568
vt 0.611954 0.545034
vt 0.611954 0.623078
vt 0.538780 0.612315
vt 0.540767 0.551375
vt 0.809999 0.305557
vt 0.808864 0.292106
vt 0.841357 0.285604
vt 0.841357 0.309313
vt 0.017175 0.981144
vt 0.014451 0.940974
vt 0.022676 0.940588
vt 0.022676 0.983336
vt 0.518582 0.854809
vt 0.446332 0.854048
vt 0.446280 0.827117
vt 0.518582 0.824197
vt 0.898775 0.746920
vt 0.919623 0.733733
vt 0.919623 0.807908
vt 0.902656 0.811856
vt 0.971667 0.817061
vt 0.965401 0.813310
vt 0.971667 0.728431
vt 0.862343 0.733733
vt 0.862343 0.817061
vt 0.835509 0.807426
vt 0.835268 0.740091
vt 0.964540 0.984791
vt 0.964438 0.923710
vt 0.971146 0.924042
vt 0.971146 0.988239
vt 0.200437 0.632240
vt 0.289119 0.600007
vt 0.289119 0.661195
vt 0.206173 0.656156
vt 0.866953 0.725487
vt 0.860115 0.726005
vt 0.860938 0.712035
vt 0.866953 0.711874
vt 0.390909 0.602055
vt 0.390909 0.671213
vt 0.383924 0.668410
vt 0.965737 0.826061
vt 0.971146 0.822624
vt 0.971146 0.917919
vt 0.965401 0.918147
vt 0.841426 0.096469
vt 0.841426 0.191412
vt 0.817199 0.183965
vt 0.826499 0.094551
vt 0.060450 0.459409
vt 0.060450 0.568891
vt 0.002781 0.534912
vt 0.006429 0.461040
vt 0.726063 0.953367
vt 0.712050 0.955992
vt 0.712537 0.886052
vt 0.726063 0.885594
vt 0.854552 0.725881
vt 0.845597 0.726222
vt 0.846677 0.711874
vt 0.854552 0.712080
vt 0.055913 0.012147
vt 0.102116 0.002781
vt 0.102116 0.112989
vt 0.002781 0.123482
vt 0.921529 0.914219
vt 0.905842 0.826563
vt 0.921529 0.822624
vt 0.955629 0.285055
vt 0.967922 0.282862
vt 0.967922 0.353429
vt 0.958277 0.353098
vt 0.551994 0.466636
vt 0.609071 0.451405
vt 0.609071 0.539471
vt 0.538780 0.534360
vt 0.632585 0.953228
vt 0.640125 0.952222
vt 0.640125 0.980035
vt 0.632747 0.979512
vt 0.733922 0.988445
vt 0.726407 0.988864
vt 0.726735 0.961675
vt 0.733922 0.961555
vt 0.692760 0.321684
vt 0.683234 0.308157
vt 0.714708 0.307529
vt 0.714708 0.323050
vt 0.862664 0.591789
vt 0.851307 0.505914
vt 0.874730 0.505986
vt 0.874730 0.594210
vt 0.099583 0.612469
vt 0.075670 0.563701
vt 0.173091 0.558403
vt 0.173091 0.616732
vt 0.463981 0.939868
vt 0.463981 0.961733
vt 0.457442 0.963867
vt 0.446098 0.939062
vt 0.789061 0.352785
vt 0.820814 0.328613
vt 0.820814 0.413402
vt 0.396087 0.947228
vt 0.402766 0.943533
vt 0.402766 0.982760
vt 0.395354 0.982698
vt 0.084415 0.453846
vt 0.015406 0.449742
vt 0.002781 0.377057
vt 0.084415 0.354256
vt 0.613231 0.830413
vt 0.613231 0.901273
vt 0.592338 0.900635
vt 0.586301 0.830418
vt 0.972632 0.091257
vt 0.965619 0.091577
vt 0.964708 0.006792
vt 0.972632 0.002781
vt 0.740192 0.955096
vt 0.755596 0.936787
vt 0.755596 0.968493
vt 0.840034 0.724413
vt 0.815986 0.722595
vt 0.820980 0.631913
vt 0.840034 0.620686
vt 0.995825 0.570595
vt 0.989626 0.565795
vt 0.995825 0.505914
vt 0.193232 0.380656
vt 0.193232 0.448177
vt 0.120981 0.444197
vt 0.107679 0.357142
vt 0.295408 0.510638
vt 0.280393 0.509627
vt 0.276898 0.419555
vt 0.295408 0.413632
vt 0.095632 0.239253
vt 0.002781 0.198562
vt 0.030406 0.131984
vt 0.095632 0.129045
vt 0.900280 0.893722
vt 0.873131 0.889829
vt 0.876200 0.827977
vt 0.900280 0.822624
vt 0.250610 0.850611
vt 0.250610 0.920567
vt 0.236726 0.917416
vt 0.231597 0.854789
vt 0.101315 0.443569
vt 0.089978 0.358418
vt 0.101315 0.354256
vt 0.863560 0.156384
vt 0.863560 0.280042
vt 0.847078 0.264027
vt 0.699960 0.962297
vt 0.699960 0.988616
vt 0.692334 0.983736
vt 0.694064 0.961879
vt 0.413391 0.516460
vt 0.458872 0.439072
vt 0.458872 0.567941
vt 0.173091 0.552841
vt 0.107679 0.507151
vt 0.173091 0.453740
vt 0.437693 0.993433
vt 0.432787 0.996728
vt 0.430958 0.938924
vt 0.437693 0.935410
vt 0.458907 0.095759
vt 0.458907 0.212731
vt 0.399929 0.199449
vt 0.390744 0.094551
vt 0.884855 0.966831
vt 0.873131 0.966898
vt 0.876785 0.900276
vt 0.884855 0.899285
vt 0.794576 0.306273
vt 0.794576 0.321010
vt 0.771175 0.317140
vt 0.503716 0.967356
vt 0.494404 0.970963
vt 0.492777 0.906513
vt 0.503716 0.900563
vt 0.188153 0.971149
vt 0.191030 0.941825
vt 0.197805 0.944928
vt 0.197805 0.979070
vt 0.225949 0.426968
vt 0.271335 0.413632
vt 0.271335 0.516433
vt 0.200437 0.492091
vt 0.934909 0.183898
vt 0.943304 0.156384
vt 0.943304 0.265605
vt 0.990773 0.460164
vt 0.984048 0.463696
vt 0.983167 0.405428
vt 0.990773 0.402327
vt 0.971417 0.276863
vt 0.964571 0.276769
vt 0.963099 0.257238
vt 0.971417 0.251329
vt 0.939707 0.822624
vt 0.939707 0.911109
vt 0.927092 0.876263
vt 0.107679 0.300381
vt 0.112576 0.233054
vt 0.186079 0.234607
vt 0.186079 0.351579
vt 0.578518 0.856873
vt 0.578518 0.892055
vt 0.539017 0.874059
vt 0.538780 0.863008
vt 0.247946 0.928998
vt 0.254081 0.926130
vt 0.254081 0.992519
vt 0.654078 0.964846
vt 0.651164 0.905244
vt 0.662507 0.904673
vt 0.662507 0.967263
vt 0.292076 0.524945
vt 0.298172 0.521996
vt 0.298172 0.594078
vt 0.290745 0.590640
vt 0.285182 0.582354
vt 0.200437 0.594444
vt 0.215316 0.521996
vt 0.285182 0.523002
vt 0.188719 0.936195
vt 0.188153 0.898921
vt 0.212836 0.899886
vt 0.212836 0.936262
vt 0.898097 0.487497
vt 0.887085 0.420096
vt 0.912139 0.418965
vt 0.912139 0.489848
vt 0.182266 0.834034
vt 0.175784 0.835995
vt 0.172141 0.800633
vt 0.182266 0.793701
vt 0.980356 0.218861
vt 0.978633 0.156384
vt 0.986244 0.156430
vt 0.986245 0.222206
vt 0.101697 0.336996
vt 0.097471 0.335806
vt 0.101697 0.244815
vt 0.829706 0.823731
vt 0.829706 0.883931
vt 0.798056 0.859757
vt 0.796719 0.827241
vt 0.620795 0.689677
vt 0.620795 0.787402
vt 0.586301 0.730059
vt 0.953737 0.109057
vt 0.952618 0.002781
vt 0.959145 0.002858
vt 0.959145 0.112203
vt 0.817519 0.087357
vt 0.785546 0.085605
vt 0.787565 0.024783
vt 0.817519 0.002781
vt 0.564229 0.268841
vt 0.552348 0.219451
vt 0.616693 0.200253
vt 0.616693 0.288979
vt 0.905156 0.512271
vt 0.925378 0.505914
vt 0.925378 0.574512
vt 0.908166 0.580843
vt 0.734370 0.516895
vt 0.734370 0.612770
vt 0.695232 0.553926
vt 0.104022 0.778517
vt 0.104648 0.759560
vt 0.192762 0.756253
vt 0.192762 0.788138
vt 0.841074 0.829110
vt 0.867568 0.822624
vt 0.867568 0.887269
vt 0.835268 0.888177
vt 0.075670 0.643856
vt 0.163193 0.622294
vt 0.163193 0.679112
vt 0.990206 0.900902
vt 0.995473 0.897188
vt 0.995473 0.961838
vt 0.990183 0.961934
vt 0.385181 0.107445
vt 0.385181 0.212731
vt 0.327203 0.211219
vt 0.299059 0.111946
vt 0.751433 0.930978
vt 0.740192 0.876674
vt 0.760331 0.877178
vt 0.760331 0.931224
vt 0.901340 0.628839
vt 0.919847 0.620686
vt 0.919847 0.704013
vt 0.774031 0.876931
vt 0.774031 0.965107
vt 0.765894 0.961876
vt 0.767016 0.876674
vt 0.089532 0.837008
vt 0.089532 0.904255
vt 0.062867 0.894163
vt 0.925185 0.805111
vt 0.927444 0.734761
vt 0.939231 0.733733
vt 0.939231 0.807488
vt 0.487081 0.202294
vt 0.546785 0.200253
vt 0.546785 0.302312
vt 0.482583 0.308575
vt 0.218399 0.969400
vt 0.218664 0.899585
vt 0.225488 0.898921
vt 0.225488 0.972552
vt 0.260488 0.774962
vt 0.297308 0.771911
vt 0.297308 0.842758
vt 0.262333 0.842320
vt 0.293496 0.107445
vt 0.293496 0.214301
vt 0.229309 0.213192
vt 0.201718 0.137890
vt 0.287248 0.956066
vt 0.296960 0.935035
vt 0.296960 0.983573
vt 0.888012 0.711462
vt 0.876854 0.627821
vt 0.895777 0.620686
vt 0.895777 0.714640
vt 0.996741 0.882586
vt 0.990081 0.880959
vt 0.996741 0.822624
vt 0.196155 0.107445
vt 0.196155 0.227492
vt 0.115820 0.195091
vt 0.107679 0.164377
vt 0.040148 0.925210
vt 0.051936 0.916625
vt 0.051936 0.971720
vt 0.977270 0.973843
vt 0.983236 0.970256
vt 0.983236 0.995543
vt 0.976708 0.995598
vt 0.303824 0.383225
vt 0.375294 0.328613
vt 0.375294 0.434989
vt 0.311188 0.443328
vt 0.811521 0.507133
vt 0.811521 0.591985
vt 0.778621 0.566769
vt 0.779522 0.505914
vt 0.175150 0.929992
vt 0.181650 0.927425
vt 0.181650 0.988853
vt 0.174038 0.988219
vt 0.925409 0.660250
vt 0.936897 0.620686
vt 0.936897 0.724175
vt 0.692334 0.797337
vt 0.694548 0.727315
vt 0.733659 0.726186
vt 0.733659 0.810724
vt 0.855653 0.074516
vt 0.823082 0.063789
vt 0.855653 0.002781
vt 0.637556 0.909185
vt 0.637556 0.946659
vt 0.621504 0.944679
vt 0.618794 0.906397
vt 0.466542 0.211722
vt 0.464469 0.197679
vt 0.476814 0.197998
vt 0.476814 0.211665
vt 0.155129 0.912659
vt 0.131488 0.912718
vt 0.132746 0.852992
vt 0.155129 0.842702
vt 0.408535 0.223192
vt 0.477020 0.219864
vt 0.477020 0.288648
vt 0.392754 0.308575
vt 0.328195 0.898013
vt 0.336895 0.896492
vt 0.336895 0.967961
vt 0.324437 0.965688
vt 0.328741 0.002781
vt 0.328741 0.087319
vt 0.234071 0.076427
vt 0.227630 0.021347
vt 0.893057 0.967211
vt 0.890418 0.899285
vt 0.900062 0.899611
vt 0.900062 0.970032
vt 0.205630 0.250618
vt 0.298261 0.219864
vt 0.298261 0.316883
vt 0.201718 0.306883
vt 0.490370 0.314138
vt 0.525787 0.314454
vt 0.525787 0.322294
vt 0.489417 0.322968
vt 0.098459 0.756253
vt 0.098459 0.831445
vt 0.063482 0.831226
vt 0.062867 0.758523
vt 0.389791 0.861240
vt 0.389791 0.921694
vt 0.370162 0.895593
vt 0.343424 0.890930
vt 0.303824 0.885993
vt 0.303928 0.860620
vt 0.343424 0.855512
vt 0.952544 0.993487
vt 0.945270 0.994647
vt 0.945579 0.969570
vt 0.952544 0.969003
vt 0.002781 0.313567
vt 0.002807 0.256749
vt 0.091908 0.244815
vt 0.091908 0.348693
vt 0.699697 0.887952
vt 0.706487 0.885594
vt 0.706487 0.956316
vt 0.692334 0.954601
vt 0.064003 0.734042
vt 0.002781 0.691509
vt 0.064003 0.664451
vt 0.670068 0.200253
vt 0.670068 0.299782
vt 0.622256 0.258651
vt 0.741239 0.185554
vt 0.741239 0.194322
vt 0.723567 0.193322
vt 0.722953 0.186702
vt 0.326317 0.589323
vt 0.303824 0.529807
vt 0.390388 0.527697
vt 0.390388 0.596493
vt 0.979034 0.005772
vt 0.985799 0.002781
vt 0.985799 0.068797
vt 0.978195 0.068452
vt 0.067347 0.531650
vt 0.066013 0.459409
vt 0.102058 0.461129
vt 0.102058 0.547368
vt 0.464469 0.165694
vt 0.467884 0.098356
vt 0.536377 0.094551
vt 0.536377 0.192116
vt 0.692334 0.848691
vt 0.727129 0.816287
vt 0.727129 0.880031
vt 0.145657 0.973409
vt 0.141937 0.951831
vt 0.152593 0.952701
vt 0.152593 0.973604
vt 0.822107 0.976263
vt 0.810221 0.974124
vt 0.810270 0.942350
vt 0.822107 0.938985
vt 0.488131 0.751669
vt 0.529529 0.733783
vt 0.529529 0.802567
vt 0.479144 0.801667
vt 0.126371 0.007198
vt 0.222067 0.002781
vt 0.222067 0.101882
vt 0.107679 0.065461
vt 0.542049 0.444903
vt 0.534570 0.433304
vt 0.607010 0.431472
vt 0.607010 0.445843
vt 0.322555 0.231610
vt 0.387192 0.219864
vt 0.387192 0.323050
vt 0.303824 0.303518
vt 0.154739 0.944465
vt 0.131488 0.946269
vt 0.141588 0.918281
vt 0.154739 0.920479
vt 0.935778 0.402327
vt 0.935778 0.494310
vt 0.923159 0.469856
vt 0.843187 0.992851
vt 0.838108 0.992645
vt 0.835268 0.973387
vt 0.843187 0.969117
vt 0.881148 0.086874
vt 0.881148 0.150821
vt 0.847078 0.123509
vt 0.580738 0.689677
vt 0.580738 0.774887
vt 0.538780 0.760493
vt 0.544513 0.694500
vt 0.518148 0.558992
vt 0.518148 0.655688
vt 0.464435 0.614432
vt 0.479533 0.552261
vt 0.409011 0.862000
vt 0.409011 0.937970
vt 0.395354 0.933919
vt 0.401170 0.861240
vt 0.464927 0.707583
vt 0.464435 0.682300
vt 0.529529 0.661251
vt 0.529529 0.728220
vt 0.692334 0.646112
vt 0.734629 0.628641
vt 0.734629 0.720624
vt 0.226416 0.322445
vt 0.298261 0.325382
vt 0.298261 0.398817
vt 0.200437 0.408069
vt 0.396511 0.702479
vt 0.397102 0.669505
vt 0.458872 0.665096
vt 0.458872 0.728902
vt 0.609919 0.390616
vt 0.638549 0.328613
vt 0.663004 0.331578
vt 0.663004 0.421525
vt 0.677662 0.329984
vt 0.710808 0.328613
vt 0.710808 0.428829
vt 0.668567 0.438826
vt 0.541940 0.127857
vt 0.600523 0.094551
vt 0.600523 0.188187
vt 0.568243 0.192744
vt 0.297308 0.666758
vt 0.297308 0.766348
vt 0.266159 0.725803
vt 0.261694 0.993462
vt 0.260488 0.935035
vt 0.268119 0.935367
vt 0.268119 0.995919
vt 0.977062 0.694343
vt 0.977062 0.721769
vt 0.968603 0.721227
vt 0.968886 0.694689
vt 0.975097 0.285549
vt 0.981178 0.282862
vt 0.981178 0.354767
vt 0.973484 0.354051
vt 0.910885 0.610273
vt 0.905156 0.588452
vt 0.925203 0.586406
vt 0.925203 0.611865
vt 0.750978 0.792800
vt 0.740192 0.748328
vt 0.792510 0.733733
vt 0.792510 0.801041
vt 0.231597 0.941322
vt 0.242384 0.926130
vt 0.242384 0.977748
vt 0.524144 0.826013
vt 0.532955 0.809452
vt 0.532955 0.854809
vt 0.909270 0.113347
vt 0.909269 0.150821
vt 0.886710 0.138584
vt 0.890032 0.100776
vt 0.933503 0.396765
vt 0.923159 0.386763
vt 0.933503 0.282862
vt 0.910769 0.094565
vt 0.893352 0.079056
vt 0.910769 0.002781
vt 0.440717 0.855677
vt 0.370728 0.853741
vt 0.370162 0.833037
vt 0.440717 0.824197
vt 0.303824 0.900281
vt 0.318875 0.896492
vt 0.318875 0.959133
vt 0.307539 0.959830
vt 0.959653 0.238756
vt 0.948867 0.229527
vt 0.959653 0.156384
vt 0.458872 0.364871
vt 0.458872 0.433509
vt 0.389161 0.423543
vt 0.380857 0.328613
vt 0.962153 0.361960
vt 0.970530 0.362421
vt 0.970530 0.395558
vt 0.957011 0.396765
vt 0.351435 0.927981
vt 0.348987 0.859245
vt 0.362864 0.855512
vt 0.362864 0.936057
vt 0.260596 0.666758
vt 0.260596 0.732050
vt 0.200437 0.710753
vt 0.789228 0.921648
vt 0.789228 0.985357
vt 0.781083 0.983384
vt 0.601420 0.937241
vt 0.611123 0.906836
vt 0.611123 0.973625
vt 0.993773 0.282862
vt 0.993773 0.347182
vt 0.986741 0.341154
vt 0.684332 0.529071
vt 0.689647 0.504273
vt 0.689647 0.534387
vt 0.097787 0.983752
vt 0.092711 0.923885
vt 0.097787 0.909818
vt 0.685535 0.787572
vt 0.683730 0.723305
vt 0.685535 0.709331
vt 0.983841 0.607141
vt 0.980698 0.607376
vt 0.975958 0.584121
vt 0.983841 0.580597
vt 0.972351 0.097140
vt 0.972351 0.144004
vt 0.964708 0.141849
vt 0.995776 0.793019
vt 0.990737 0.771230
vt 0.995776 0.728431
vt 0.804658 0.938985
vt 0.804658 0.991160
vt 0.796719 0.989989
vt 0.848637 0.963555
vt 0.835268 0.918286
vt 0.848637 0.893740
vt 0.481882 0.987788
vt 0.486595 0.935808
vt 0.486595 0.993645
vt 0.935225 0.982515
vt 0.927440 0.983001
vt 0.927092 0.921488
vt 0.935225 0.916672
vt 0.965232 0.548697
vt 0.970395 0.505914
vt 0.970395 0.612196
vt 0.454915 0.991327
vt 0.446535 0.991162
vt 0.446098 0.972838
vt 0.454915 0.969430
vt 0.312212 0.987258
vt 0.303824 0.988733
vt 0.303851 0.966742
vt 0.312212 0.965393
vt 0.951163 0.895294
vt 0.958861 0.894956
vt 0.958861 0.962735
vt 0.945270 0.963440
vt 0.606086 0.186494
vt 0.637049 0.185717
vt 0.637049 0.194233
vt 0.628626 0.088112
vt 0.593212 0.085987
vt 0.593212 0.082393
vt 0.628626 0.079999
vt 0.916332 0.025621
vt 0.932443 0.002781
vt 0.932443 0.087891
vt 0.392754 0.316142
vt 0.483854 0.314138
vt 0.483854 0.321218
vt 0.392773 0.320025
vt 0.957536 0.244319
vt 0.957536 0.276863
vt 0.951946 0.275482
vt 0.948867 0.247459
vt 0.990389 0.469259
vt 0.990389 0.496155
vt 0.983167 0.493570
vt 0.914336 0.920212
vt 0.914336 0.982480
vt 0.906846 0.982275
vt 0.905842 0.919782
vt 0.951450 0.889393
vt 0.945270 0.822624
vt 0.959838 0.823679
vt 0.959838 0.889387
vt 0.380895 0.439507
vt 0.402721 0.439072
vt 0.402721 0.442955
vt 0.380857 0.442658
vt 0.720844 0.986039
vt 0.712293 0.983459
vt 0.712050 0.965138
vt 0.720844 0.961555
vt 0.946382 0.508852
vt 0.959670 0.505914
vt 0.959670 0.573754
vt 0.950832 0.577228
vt 0.724021 0.088618
vt 0.698488 0.088383
vt 0.703362 0.080507
vt 0.724021 0.080274
vt 0.846619 0.487905
vt 0.853482 0.488288
vt 0.853482 0.498560
vt 0.845457 0.498680
vt 0.677671 0.323050
vt 0.609919 0.321358
vt 0.611547 0.314368
vt 0.677671 0.308444
vt 0.469544 0.936965
vt 0.476320 0.935808
vt 0.476320 0.996663
vt 0.160952 0.927889
vt 0.168475 0.927425
vt 0.168475 0.988457
vt 0.160692 0.988969
vt 0.069364 0.739605
vt 0.069364 0.750659
vt 0.062474 0.748745
vt 0.062134 0.739791
vt 0.077765 0.912356
vt 0.087148 0.909818
vt 0.087148 0.975956
vt 0.942459 0.625082
vt 0.950563 0.620686
vt 0.950563 0.725100
vt 0.943415 0.725293
vt 0.797947 0.190450
vt 0.797250 0.174643
vt 0.804952 0.174849
vt 0.804952 0.192010
vt 0.570570 0.979445
vt 0.569259 0.950009
vt 0.577940 0.951645
vt 0.577940 0.981024
vt 0.540128 0.322079
vt 0.531349 0.320675
vt 0.533271 0.314216
vt 0.540128 0.314138
vt 0.435771 0.875466
vt 0.440385 0.861240
vt 0.440385 0.922102
vt 0.528461 0.552261
vt 0.532054 0.552347
vt 0.532054 0.644188
vt 0.523711 0.644225
vt 0.357460 0.981882
vt 0.348987 0.982618
vt 0.350414 0.942310
vt 0.357460 0.941620
vt 0.969317 0.687723
vt 0.968603 0.620934
vt 0.977434 0.620686
vt 0.977434 0.688780
vt 0.595857 0.907116
vt 0.595857 0.974364
vt 0.589116 0.971743
vt 0.586301 0.906836
vt 0.370185 0.985697
vt 0.370162 0.927257
vt 0.378618 0.927745
vt 0.378618 0.987410
vt 0.281686 0.935035
vt 0.281686 0.993058
vt 0.275483 0.989983
vt 0.273682 0.935125
vt 0.664230 0.185717
vt 0.664230 0.193946
vt 0.642612 0.191445
vt 0.101195 0.144831
vt 0.102006 0.129045
vt 0.102006 0.188092
vt 0.118410 0.985804
vt 0.118024 0.923121
vt 0.125899 0.923360
vt 0.125899 0.986046
vt 0.978633 0.229855
vt 0.987012 0.227769
vt 0.987012 0.276307
vt 0.008888 0.940588
vt 0.008888 0.995683
vt 0.002781 0.992423
vt 0.947055 0.002781
vt 0.947055 0.106270
vt 0.938005 0.069719
vt 0.112462 0.926230
vt 0.112462 0.984469
vt 0.104022 0.982794
vt 0.104088 0.923121
vt 0.668070 0.906619
vt 0.677430 0.904673
vt 0.677430 0.973452
vt 0.670706 0.973903
vt 0.984064 0.507087
vt 0.984064 0.575034
vt 0.975958 0.573890
vt 0.976483 0.505914
vt 0.634539 0.088284
vt 0.634189 0.080161
vt 0.661079 0.079999
vt 0.661079 0.088387
vt 0.504377 0.808130
vt 0.504377 0.817850
vt 0.480435 0.816403
vt 0.479144 0.810791
vt 0.627022 0.952365
vt 0.627022 0.978685
vt 0.619018 0.978579
vt 0.618794 0.952222
vt 0.692925 0.080274
vt 0.692925 0.088387
vt 0.666641 0.088227
vt 0.666649 0.080348
vn 0.9963 0.0342 0.0794
vn 0.3235 0.6258 0.7098
vn 0.7613 0.6483 0.0019
vn 0.7613 0.6484 0.0019
vn 0.8488 0.5287 -0.0003
vn 0.0940 -0.0572 -0.9939
vn 0.9985 -0.0277 0.0468
vn 0.9985 -0.0442 0.0327
vn 0.9989 -0.0250 0.0391
vn -0.9978 0.0649 -0.0163
vn 0.9997 0.0078 0.0224
vn -0.0064 -0.0504 0.9987
vn -0.7453 0.6667 0.0020
vn -0.7749 0.0097 -0.6320
vn -0.6887 -0.0013 -0.7251
vn -0.6830 -0.0016 -0.7305
vn -0.6861 -0.0038 -0.7275
vn 0.7422 -0.0040 -0.6701
vn 0.7663 0.0539 -0.6402
vn 0.2781 -0.6561 0.7016
vn -0.6143 0.0117 0.7890
vn -0.6844 0.0516 0.7273
vn 0.0773 -0.5264 -0.8467
vn -0.0156 0.7318 -0.6814
vn -0.9993 -0.0013 -0.0384
vn -0.0089 -0.5314 0.8471
vn -0.0137 -0.5292 0.8484
vn -0.0126 -0.5347 0.8449
vn -0.0089 -0.1342 0.9909
vn -0.5878 -0.8051 -0.0802
vn -0.7001 -0.7067 -0.1025
vn 0.9955 0.0822 0.0481
vn 0.9956 0.0792 0.0491
vn 0.9956 0.0803 0.0474
vn -0.0015 -0.9895 -0.1447
vn 0.4393 -0.7006 0.5623
vn -0.9687 -0.2480 -0.0123
vn -0.9253 0.3789 0.0140
vn 0.9937 0.1066 0.0345
vn -0.0844 0.9958 -0.0345
vn -0.0557 0.9984 0.0045
vn -0.0516 0.9986 -0.0136
vn -0.0393 0.9992 0.0074
vn 0.8455 0.5217 0.1136
vn -0.9756 -0.2195 0.0034
vn -0.8640 0.5033 -0.0127
vn -0.9209 0.3887 0.0276
vn 0.8106 -0.5855 -0.0112
vn 0.9973 0.0047 0.0738
vn 0.9989 0.0019 0.0471
vn -0.9988 0.0144 0.0476
vn -0.9890 -0.1416 0.0433
vn -0.9973 0.0175 0.0712
vn 0.0468 -0.6372 0.7693
vn -0.1147 -0.9830 0.1435
vn -0.0455 -0.1317 0.9902
vn -0.0699 0.1080 0.9917
vn 0.0177 -0.4086 0.9125
vn 0.0288 -0.5312 -0.8468
vn -0.7565 0.6303 0.1745
vn -0.7597 0.6274 0.1712
vn -0.7588 0.6281 0.1721
vn -0.7557 0.6310 0.1754
vn 0.0870 0.0568 -0.9946
vn 0.9965 0.0493 0.0668
vn -0.7350 0.0069 -0.6780
vn 0.9984 0.0070 0.0565
vn -0.0187 0.0724 0.9972
vn 0.0000 -0.0390 -0.9992
vn -0.7016 0.0099 -0.7125
vn -0.6995 0.0073 -0.7146
vn -0.7215 -0.0318 0.6917
vn 0.8119 0.0302 -0.5831
vn -0.0382 0.0244 0.9990
vn -0.0506 0.0226 0.9985
vn -0.0484 0.0198 0.9986
vn -0.7256 0.1253 0.6766
vn 0.2226 0.8994 -0.3761
vn 0.5090 0.8549 0.1004
vn -0.6626 0.7489 0.0054
vn -0.1164 0.7643 -0.6343
vn 0.5651 0.8250 -0.0123
vn 0.0221 -0.0037 0.9997
vn -0.0189 0.0169 0.9997
vn 0.9969 0.0413 0.0666
vn 0.3854 0.4866 0.7840
vn -0.9978 -0.0463 0.0482
vn 0.0247 -0.0085 -0.9997
vn 0.0334 0.0010 -0.9994
vn 0.0161 0.0061 -0.9999
vn 0.5885 -0.5977 -0.5444
vn 0.7078 -0.4267 -0.5630
vn -0.5036 0.6647 -0.5519
vn -0.4832 0.7192 -0.4992
vn -0.4832 0.7193 -0.4991
vn -0.6998 0.5326 0.4761
vn -0.7823 0.4275 0.4531
vn 0.9991 -0.0374 0.0189
vn -0.0725 -0.0439 -0.9964
vn 0.0244 -0.1055 -0.9941
vn 0.0243 -0.1055 -0.9941
vn -0.6199 0.7846 0.0106
vn -0.8176 0.5752 0.0257
vn 0.2474 -0.9682 0.0381
vn 0.2174 -0.9753 0.0399
vn 0.9899 0.1171 0.0801
vn 0.9896 0.1038 0.0994
vn 0.0426 -0.9876 -0.1508
vn 0.0415 -0.9873 -0.1535
vn 0.0459 -0.9887 -0.1428
vn 0.0463 -0.9888 -0.1418
vn -0.9981 0.0536 -0.0297
vn 0.7215 0.6921 0.0230
vn 0.7214 0.6921 0.0230
vn 0.7532 0.6569 0.0340
vn 0.9999 -0.0064 -0.0110
vn 0.0365 -0.0146 0.9992
vn -0.9907 -0.0980 -0.0940
vn -0.9911 -0.1089 -0.0761
vn 0.0341 0.0439 0.9985
vn -0.0187 -0.0066 0.9998
vn 0.6143 -0.7885 0.0299
vn 0.7157 -0.6952 0.0664
vn -0.0141 0.6534 -0.7569
vn -0.0207 0.5976 -0.8015
vn -0.5495 0.8352 -0.0239
vn -0.7333 0.6787 -0.0409
vn -0.0609 0.0036 0.9981
vn -0.0417 -0.0218 0.9989
vn 0.0342 0.0314 -0.9989
vn 0.0506 -0.0212 -0.9985
vn 0.0505 -0.0212 -0.9985
vn -0.5703 0.7009 0.4283
vn -0.5613 0.6437 0.5202
vn 0.7547 -0.0246 0.6556
vn 0.7630 -0.0349 0.6455
vn 0.7794 -0.0297 0.6258
vn 0.7767 -0.0179 0.6296
vn 0.0739 -0.0320 0.9967
vn 0.1016 0.0029 0.9948
vn 0.0312 -0.0538 0.9981
vn 0.0191 -0.0434 0.9989
vn 0.0373 -0.0328 0.9988
vn 0.0373 -0.0329 0.9988
vn -0.8822 0.4708 0.0086
vn -0.4786 -0.7244 -0.4962
vn -0.3960 -0.7896 -0.4687
vn 0.3377 0.7115 0.6163
vn 0.3377 0.7114 0.6163
vn 0.0988 0.8036 0.5869
vn -0.6970 -0.0202 -0.7167
vn -0.6835 -0.0023 -0.7300
vn -0.6806 -0.0004 -0.7326
vn -0.6793 -0.0048 -0.7339
vn -0.9984 -0.0569 0.0042
vn -0.9988 -0.0402 -0.0266
vn -0.9996 0.0264 0.0038
vn 0.0539 0.1062 0.9929
vn 0.0623 0.1064 0.9924
vn 0.0634 0.1257 0.9900
vn 0.6112 0.0796 -0.7875
vn -0.5729 -0.6397 0.5124
vn -0.5683 -0.6530 0.5006
vn 0.8655 -0.4926 -0.0907
vn 0.9183 -0.3959 -0.0033
vn 0.9265 -0.3763 -0.0009
vn 0.0080 0.2863 0.9581
vn 0.0080 0.2864 0.9581
vn -0.0550 0.4998 0.8644
vn 0.2439 0.7960 -0.5540
vn 0.9968 -0.0128 0.0792
vn 0.9976 -0.0273 0.0639
vn 0.2574 -0.6664 0.6997
vn -0.6628 -0.0193 0.7485
vn -0.7725 -0.0177 0.6348
vn 0.0939 -0.5555 -0.8262
vn -0.9987 0.0091 0.0492
vn -1.0000 -0.0059 -0.0073
vn -0.9852 -0.0862 -0.1484
vn -0.9763 -0.1471 -0.1585
vn 0.0368 -0.5020 0.8641
vn 0.0781 -0.5330 0.8425
vn -0.0023 -0.5127 0.8586
vn 0.0330 -0.4631 0.8857
vn -0.5800 0.0515 0.8130
vn -0.7644 0.0070 0.6447
vn -0.9967 0.0675 -0.0455
vn -0.9911 0.1092 -0.0758
vn 0.0321 0.0124 0.9994
vn 0.0321 0.0125 0.9994
vn 0.0376 0.0580 0.9976
vn 0.0464 0.0541 0.9975
vn 0.0221 0.8568 -0.5152
vn -0.9997 0.0224 -0.0007
vn 0.7113 0.0053 0.7029
vn 0.7526 0.0127 0.6584
vn 0.7275 -0.0404 0.6849
vn 0.7656 -0.0364 -0.6423
vn 0.7938 -0.0632 -0.6049
vn 0.0743 0.7370 -0.6718
vn -0.0910 0.7155 -0.6926
vn 0.0087 0.8094 -0.5873
vn 0.0753 0.4424 -0.8936
vn 0.0933 0.3626 -0.9272
vn 0.0058 0.5650 -0.8251
vn 0.0058 0.5649 -0.8251
vn 0.0120 0.6491 -0.7606
vn 0.7141 -0.0043 -0.7000
vn 0.6976 0.0187 -0.7163
vn 0.7175 0.0006 -0.6966
vn 0.7425 -0.0252 0.6694
vn 0.7465 -0.0343 0.6645
vn 0.7522 -0.0333 0.6581
vn 0.7584 -0.0158 0.6516
vn -0.5188 -0.7071 0.4804
vn -0.4690 -0.7549 0.4584
vn 0.4122 0.7099 0.5711
vn 0.3767 0.7708 0.5138
vn 0.0756 0.0648 -0.9950
vn 0.1208 0.0540 -0.9912
vn 0.1724 0.0653 -0.9829
vn 0.1633 0.0104 -0.9865
vn 0.6278 0.7784 0.0091
vn 0.7151 0.6983 0.0314
vn 0.0451 0.1160 0.9922
vn 0.0452 0.1160 0.9922
vn 0.0204 0.0987 0.9949
vn 0.7674 -0.0840 -0.6356
vn 0.8360 -0.0066 -0.5487
vn 0.8360 -0.0066 -0.5488
vn 0.9902 0.1399 -0.0030
vn 0.9933 0.0695 -0.0927
vn 0.9933 0.0694 -0.0927
vn -0.0192 -0.6052 0.7959
vn -0.0944 -0.5864 -0.8045
vn -0.0832 -0.6724 -0.7355
vn -0.0832 -0.6723 -0.7356
vn 0.0460 0.0076 -0.9989
vn 0.0689 -0.0184 -0.9975
vn -0.6042 -0.6566 0.4515
vn -0.6005 -0.6870 0.4092
vn 0.7838 -0.6104 0.1145
vn 0.7769 -0.6296 0.0060
vn 0.8829 -0.4691 0.0214
vn 0.8413 -0.5401 0.0225
vn -0.9953 -0.0787 0.0559
vn -0.9953 -0.0786 0.0559
vn -0.9988 -0.0468 0.0111
vn 0.0178 -0.0604 0.9980
vn 0.0174 -0.0608 0.9980
vn 0.0162 -0.0685 0.9975
vn 0.0091 -0.0633 0.9980
vn -0.7137 -0.0230 0.7000
vn -0.7137 -0.0231 0.7000
vn -0.7067 -0.0060 0.7075
vn 0.6996 0.6190 -0.3569
vn 0.7874 0.3309 -0.5201
vn 0.7874 0.3309 -0.5202
vn -0.6673 0.1161 -0.7356
vn -0.6674 0.1161 -0.7356
vn -0.6898 0.1284 -0.7125
vn -0.6254 0.0377 -0.7794
vn -0.7140 0.0227 -0.6998
vn -0.0326 -0.5098 0.8597
vn 0.0782 -0.9843 0.1580
vn 0.1006 -0.9913 0.0844
vn 0.1006 -0.9913 0.0843
vn -0.0171 -0.5960 -0.8028
vn 0.0087 -0.4708 -0.8822
vn 0.0087 -0.4707 -0.8822
vn 0.0012 1.0000 0.0052
vn -0.0338 0.9994 -0.0037
vn 0.3402 0.8805 0.3301
vn 0.3476 0.8791 0.3261
vn 0.3461 0.8794 0.3269
vn 0.3385 0.8808 0.3310
vn 0.0866 0.5235 -0.8476
vn -0.8669 -0.4979 0.0245
vn -0.5885 -0.8084 0.0121
vn -0.5886 -0.8084 0.0120
vn 0.0813 0.8007 0.5936
vn 0.0809 0.8015 0.5925
vn 0.0816 0.7999 0.5945
vn 0.0819 0.7993 0.5954
vn -0.0154 0.0331 0.9993
vn 0.0119 0.0000 0.9999
vn -0.8672 0.4979 0.0041
vn -0.8672 0.4980 0.0036
vn -0.8257 0.5640 0.0089
vn -0.3472 0.8780 0.3296
vn -0.3472 0.8780 0.3295
vn -0.3315 0.8672 0.3717
vn -0.9993 -0.0286 0.0223
vn -0.9993 -0.0286 0.0222
vn -0.9981 0.0070 0.0610
vn 0.9954 0.0839 0.0463
vn 0.9953 0.0835 0.0483
vn 0.9955 0.0815 0.0477
vn 0.8364 -0.5462 0.0465
vn 0.8383 -0.5432 0.0461
vn 0.8193 -0.5734 0.0019
vn 0.8453 -0.5331 0.0360
vn -0.0111 0.0039 -0.9999
vn 0.0058 0.0242 -0.9997
vn -0.0316 0.0418 -0.9986
vn -0.0316 0.0419 -0.9986
vn -0.4524 -0.7451 -0.4900
vn -0.4524 -0.7452 -0.4900
vn -0.4900 -0.7082 -0.5082
vn -0.5281 0.6563 -0.5389
vn -0.5301 0.6504 -0.5440
vn -0.5295 0.6522 -0.5424
vn -0.5275 0.6580 -0.5373
vn 0.6002 -0.3707 -0.7088
vn 0.6002 -0.3706 -0.7088
vn 0.5951 -0.3408 -0.7278
vn 0.5951 -0.3408 -0.7279
vn 0.0466 0.8054 -0.5909
vn 0.0909 0.7737 -0.6270
vn 0.1279 0.6204 -0.7738
vn 0.0216 0.5840 -0.8115
vn 0.0027 -0.0134 0.9999
vn -0.0235 -0.0537 0.9983
vn 0.5818 0.5817 -0.5684
vn 0.5808 0.4127 -0.7017
vn -0.0357 -0.9762 -0.2139
vn -0.7487 0.6537 -0.1106
vn -0.6176 0.7830 -0.0741
vn -0.0382 0.1359 0.9900
vn -0.0217 0.1163 0.9930
vn -0.7013 -0.0042 -0.7129
vn -0.7013 -0.0043 -0.7129
vn -0.6720 -0.0163 -0.7404
vn -0.0052 -0.5903 -0.8072
vn -0.0042 -0.6138 -0.7895
vn -0.0042 -0.6137 -0.7895
vn 0.2912 -0.8178 0.4964
vn -0.9995 -0.0304 -0.0094
vn -0.9977 -0.0677 -0.0027
vn -0.9977 -0.0546 -0.0406
vn -0.8187 -0.5698 -0.0711
vn -0.0428 0.1229 -0.9915
vn -0.0124 0.1493 -0.9887
vn 0.0118 0.7960 0.6052
vn 0.0027 0.7518 0.6593
vn 0.0027 0.7519 0.6593
vn -0.9987 0.0235 0.0444
vn -0.9985 0.0258 0.0476
vn -0.9988 0.0233 0.0441
vn -0.6773 -0.0547 -0.7337
vn -0.6122 -0.0087 -0.7906
vn 0.7374 0.0047 0.6754
vn 0.7498 0.0990 0.6542
vn 0.7116 0.0218 0.7023
vn 0.7484 0.0080 0.6632
vn -0.9045 0.4264 0.0072
vn 0.9771 0.2042 0.0595
vn -0.3120 0.9030 0.2954
vn -0.3673 0.8315 0.4167
vn -0.0398 0.9992 0.0077
vn 0.0717 0.9974 0.0076
vn -0.0263 0.7544 0.6559
vn -0.0259 0.7748 0.6317
vn -0.0158 0.7747 0.6322
vn 0.0334 -0.0835 -0.9959
vn 0.0690 0.0007 -0.9976
vn 0.0598 0.3666 -0.9284
vn 0.0598 0.3666 -0.9285
vn 0.0625 0.0645 -0.9960
vn 0.2014 0.9638 0.1745
vn 0.7251 0.6886 -0.0012
vn 0.8260 0.5626 0.0333
vn 0.8260 0.5627 0.0333
vn 0.6138 -0.6539 -0.4424
vn 0.6868 -0.5120 -0.5159
vn -0.9973 -0.0082 0.0724
vn -0.9596 -0.2813 0.0002
vn -0.0247 0.7735 0.6333
vn -0.0027 0.7707 0.6372
vn -0.0150 0.7629 0.6463
vn -0.5443 0.6951 0.4697
vn -0.4899 0.7424 0.4569
vn -0.4900 0.7424 0.4569
vn 0.9822 0.1876 0.0083
vn 0.0022 0.0671 -0.9977
vn 0.0022 0.0672 -0.9977
vn 0.0142 0.0799 -0.9967
vn -0.1814 -0.9763 0.1183
vn -0.1813 -0.9763 0.1183
vn -0.0992 -0.9828 0.1560
vn -0.9516 -0.2991 0.0709
vn 0.9296 -0.3639 0.0580
vn 0.9117 -0.4067 0.0582
vn 0.8842 -0.4561 0.1009
vn 0.8858 -0.4626 0.0377
vn -0.9571 -0.2865 0.0440
vn -0.9571 -0.2864 0.0440
vn -0.8821 -0.4705 0.0220
vn 0.0624 0.0636 -0.9960
vn 0.0623 0.0635 -0.9960
vn 0.0500 0.0509 -0.9975
vn -0.6958 -0.0110 -0.7181
vn -0.7022 -0.0255 -0.7115
vn 0.8615 0.0078 0.5077
vn 0.8464 0.0513 0.5301
vn 0.7374 0.0046 0.6754
vn 0.8042 -0.0116 0.5942
vn 0.5003 -0.7280 -0.4688
vn 0.5002 -0.7280 -0.4688
vn 0.3937 -0.8469 -0.3575
vn 0.0461 -0.6758 -0.7356
vn 0.0520 -0.6337 -0.7719
vn 0.6216 -0.7833 -0.0050
vn -0.2133 -0.9731 -0.0866
vn -0.2542 -0.9591 -0.1249
vn 0.9984 -0.0294 0.0472
vn -0.5933 -0.8041 -0.0390
vn -0.7788 -0.6248 -0.0556
vn 0.2063 -0.9779 0.0329
vn 0.1919 -0.9813 0.0166
vn 0.1798 -0.9833 0.0299
vn 0.1797 -0.9833 0.0300
vn 0.1397 0.1729 -0.9750
vn 0.2039 0.0858 -0.9752
vn 0.7586 0.0028 0.6516
vn 0.7462 -0.0253 0.6652
vn 0.7090 0.0215 0.7049
vn 0.7090 0.0216 0.7049
vn 0.9993 -0.0114 0.0346
vn 0.0188 -0.0462 -0.9988
vn -0.0010 0.0313 -0.9995
vn 0.7308 -0.0356 -0.6817
vn 0.7653 -0.0111 -0.6436
vn -0.0098 0.9999 -0.0092
vn -0.0125 0.9999 -0.0104
vn -0.0092 0.9999 -0.0041
vn 0.0515 0.7321 -0.6793
vn 0.0512 0.7360 -0.6751
vn 0.0513 0.7345 -0.6767
vn 0.0517 0.7305 -0.6809
vn -0.9863 0.1538 -0.0596
vn -0.9938 0.1061 -0.0332
vn -0.7576 -0.0458 0.6511
vn -0.5792 -0.0046 0.8152
vn 0.0881 -0.4817 0.8719
vn 0.0366 -0.5431 -0.8389
vn 0.0366 -0.5431 -0.8388
vn 0.0325 -0.5904 -0.8065
vn -0.0996 -0.9895 0.1045
vn -0.7611 0.0494 0.6467
vn -0.7602 0.0497 0.6478
vn -0.7628 0.0489 0.6448
vn -0.7639 0.0485 0.6435
vn 0.9993 -0.0294 0.0210
vn 0.9987 -0.0431 0.0283
vn -0.0755 0.4961 0.8650
vn -0.0755 0.4960 0.8650
vn -0.0897 0.5607 0.8231
vn -0.0896 0.5607 0.8232
vn 0.4345 0.0275 0.9002
vn 0.4873 0.0003 0.8732
vn 0.4873 0.0004 0.8732
vn 0.0394 0.0297 -0.9988
vn 0.0771 0.0050 -0.9970
vn -0.0306 -0.0885 0.9956
vn 0.0203 -0.4593 0.8881
vn 0.0203 -0.4593 0.8880
vn 0.0232 -0.4998 0.8658
vn 0.0356 0.4960 0.8676
vn -0.0810 0.9967 0.0016
vn -0.0811 0.9967 0.0016
vn -0.0298 0.9995 -0.0073
vn -0.0123 -0.5285 0.8488
vn -0.0132 -0.5230 0.8522
vn -0.0171 -0.5262 0.8502
vn -0.6807 -0.7198 0.1361
vn -0.5938 -0.7971 0.1100
vn 0.9996 -0.0139 0.0265
vn 0.9994 -0.0175 0.0307
vn 0.9996 -0.0137 0.0263
vn 0.9996 -0.0135 0.0261
vn 0.2287 -0.9735 0.0038
vn 0.2292 -0.9731 0.0245
vn 0.2065 -0.9784 0.0115
vn 0.2272 -0.9736 0.0199
vn 0.7979 0.6009 0.0475
vn 0.7846 0.6169 -0.0617
vn 0.7343 0.6787 -0.0146
vn 0.0446 -0.6134 -0.7885
vn -0.9980 -0.0430 -0.0457
vn -0.9988 -0.0457 -0.0157
vn -0.9986 -0.0404 -0.0329
vn 0.0618 0.1140 -0.9916
vn 0.7405 0.0818 -0.6670
vn 0.7169 -0.0534 -0.6951
vn 0.3462 0.8888 -0.3004
vn 0.3463 0.8888 -0.3004
vn 0.2863 0.9054 -0.3135
vn 0.9960 -0.0303 0.0836
vn 0.9858 -0.0227 0.1661
vn 0.9870 0.0240 0.1589
vn 0.9955 0.0947 -0.0083
vn 0.9922 0.1227 0.0215
vn 0.9922 0.1227 0.0214
vn 0.0739 0.3238 0.9432
vn 0.0641 0.2883 0.9554
vn -0.9987 0.0047 0.0498
vn -0.9994 0.0199 0.0276
vn -0.9921 0.0815 0.0958
vn 0.8351 -0.5477 0.0505
vn 0.8184 -0.5717 0.0578
vn 0.7849 -0.6149 0.0760
vn 0.7812 -0.6234 0.0335
vn 0.9990 0.0295 0.0324
vn 0.9990 0.0295 0.0323
vn 0.9983 0.0326 0.0478
vn 0.9983 0.0326 0.0477
vn -0.5064 -0.6747 -0.5369
vn -0.5021 -0.6849 -0.5279
vn -0.5021 -0.6849 -0.5280
vn 0.4775 0.1023 0.8726
vn 0.5494 0.1504 0.8219
vn -0.7535 0.0282 -0.6568
vn -0.0981 -0.9807 -0.1694
vn -0.1517 -0.9748 -0.1634
vn -0.1516 -0.9748 -0.1634
vn 0.6600 0.6271 0.4137
vn 0.6336 0.6778 0.3731
vn -0.0018 1.0000 -0.0068
vn -0.0055 1.0000 -0.0076
vn -0.0044 0.9999 -0.0097
vn -0.0078 1.0000 -0.0015
vn -0.8762 0.4790 0.0529
vn -0.8673 0.4945 0.0579
vn -0.8673 0.4945 0.0580
vn 0.0131 0.0514 0.9986
vn -0.0007 -0.0384 -0.9993
vn 0.6705 -0.5354 0.5135
vn 0.7215 -0.4687 0.5096
vn 0.7215 -0.4688 0.5096
vn 0.9989 0.0261 0.0389
vn 0.9989 0.0257 0.0394
vn 0.9989 0.0263 0.0386
vn 0.0212 -0.6183 -0.7857
vn 0.0315 -0.6760 -0.7362
vn -0.9894 0.0967 -0.1087
vn -0.9908 0.1086 -0.0811
vn -0.0082 0.0493 0.9988
vn 0.0025 0.0388 0.9992
vn 0.0024 0.0388 0.9992
vn -0.6975 0.0099 -0.7165
vn -0.6954 0.0126 -0.7185
vn -0.1975 0.9342 -0.2971
vn -0.1974 0.9342 -0.2970
vn -0.2948 0.8923 -0.3420
vn -0.6080 0.4502 -0.6539
vn -0.6013 0.5359 -0.5926
vn 0.8028 0.1051 -0.5868
vn 0.7911 0.0867 -0.6055
vn 0.0272 0.9986 0.0448
vn -0.0209 0.9990 0.0401
vn 0.1545 0.6993 0.6979
vn 0.1492 0.6865 0.7117
vn -0.9976 0.0470 -0.0503
vn -0.9963 0.0855 -0.0022
vn -0.3679 0.6021 -0.7086
vn -0.3553 0.7347 -0.5780
vn -0.3553 0.7346 -0.5780
vn -0.6062 0.0030 0.7953
vn 0.3351 -0.7764 0.5337
vn 0.3352 -0.7764 0.5337
vn 0.4014 -0.7309 0.5520
vn 0.7868 0.0729 -0.6129
vn 0.0304 -0.9885 -0.1479
vn 0.0305 -0.9885 -0.1482
vn 0.0879 -0.0321 -0.9956
vn 0.0576 -0.0891 -0.9944
vn -0.7494 -0.0640 0.6590
vn -0.6635 -0.0532 0.7462
vn -0.6636 -0.0532 0.7462
vn -0.9944 0.0970 0.0413
vn -0.9942 0.1042 0.0269
vn -0.9942 0.1041 0.0270
vn -0.0451 0.0166 0.9988
vn -0.0520 0.0070 0.9986
vn -0.0576 0.0239 0.9981
vn 0.0780 0.0220 0.9967
vn 0.0777 0.0224 0.9967
vn 0.0779 0.0222 0.9967
vn 0.0811 0.0189 0.9965
vn 0.0231 0.0211 -0.9995
vn -0.0041 0.0037 -1.0000
vn 0.9868 0.0021 0.1619
vn 0.9894 -0.0181 0.1439
vn 0.9933 0.0545 0.1023
vn 0.9964 0.0158 0.0837
vn -0.2380 -0.9695 0.0589
vn -0.2043 -0.9779 0.0449
vn 0.0549 0.0597 -0.9967
vn 0.0792 0.0056 -0.9968
vn 0.0412 0.0594 -0.9974
vn -0.7259 0.1251 0.6763
vn 0.7332 0.6797 0.0206
vn 0.7601 0.6470 0.0601
vn 0.8500 0.5248 0.0467
vn 0.8541 0.5200 0.0065
vn -0.5419 -0.6318 -0.5542
vn -0.5523 -0.5900 -0.5889
vn 0.0736 -0.2619 0.9623
vn 0.0909 -0.4305 0.8980
vn 0.0008 -0.4358 0.9001
vn 0.6380 0.0206 0.7697
vn 0.6385 0.0209 0.7694
vn 0.6345 0.0173 0.7727
vn 0.6340 0.0169 0.7731
vn -0.0526 0.0288 0.9982
vn -0.0742 0.0221 0.9970
vn -0.0776 0.0488 0.9958
vn 0.1527 0.9649 -0.2137
vn 0.4271 0.9014 0.0717
vn 0.4372 0.7217 -0.5367
vn 0.4360 0.7412 -0.5104
vn -0.6515 0.7586 0.0056
vn -0.0021 0.5146 -0.8574
vn 0.7044 -0.0014 -0.7098
vn 0.6885 -0.0037 -0.7253
vn 0.6658 -0.0038 -0.7461
vn 0.6700 0.0178 -0.7421
vn 0.9546 -0.2931 0.0528
vn 0.9546 -0.2932 0.0526
vn 0.9275 -0.3738 0.0014
vn 0.9474 -0.3147 0.0580
vn 0.5150 0.8569 -0.0234
vn 0.9957 -0.0525 0.0759
vn 0.9956 -0.0579 0.0735
vn 0.9985 -0.0307 0.0457
vn 0.9979 -0.0338 0.0552
vn -0.6470 -0.5791 0.4960
vn -0.6586 -0.4963 0.5655
vn -0.6586 -0.4963 0.5656
vn -0.0434 0.7034 0.7094
vn -0.0438 0.7041 0.7087
vn -0.0430 0.7026 0.7103
vn -0.0427 0.7019 0.7110
vn -0.9943 -0.0063 0.1062
vn -0.9981 -0.0530 -0.0326
vn 0.0961 -0.2202 -0.9707
vn 0.0136 0.3553 0.9347
vn 0.2601 0.3783 0.8884
vn 0.9783 -0.2040 0.0360
vn 0.9767 -0.2128 0.0263
vn 0.9786 -0.2044 0.0227
vn 0.0734 -0.2030 -0.9764
vn 0.6781 -0.0066 0.7350
vn 0.6793 0.0001 0.7339
vn 0.6789 -0.0021 0.7342
vn 0.6777 -0.0084 0.7353
vn 0.9835 -0.1795 0.0216
vn -0.9886 -0.1492 -0.0203
vn 0.1155 -0.2140 -0.9700
vn -0.0412 0.1763 0.9835
vn -0.0386 0.1737 0.9840
vn -0.0380 0.1780 0.9833
vn -0.0106 0.0483 0.9988
vn -0.0092 0.0406 0.9991
vn -0.0826 -0.0617 -0.9947
vn -0.0799 -0.0954 -0.9922
vn -0.9988 -0.0386 -0.0310
vn -0.6364 -0.1319 -0.7600
vn -0.5378 -0.3241 -0.7783
vn 0.6557 -0.1305 -0.7437
vn 0.6325 0.0314 -0.7739
vn 0.6326 0.0313 -0.7739
vn 0.0532 0.1577 0.9860
vn 0.0532 0.1578 0.9860
vn 0.0467 0.1263 0.9909
vn 0.1315 -0.1165 -0.9845
vn -0.9990 0.0013 -0.0441
vn -0.9990 0.0030 -0.0444
vn -0.9990 -0.0014 -0.0437
vn -0.9991 -0.0028 -0.0435
vn -0.0399 0.1738 0.9840
vn -0.0408 0.1696 0.9847
vn -0.0375 0.1711 0.9845
vn 0.9996 0.0212 0.0165
vn 0.9999 -0.0090 0.0147
vn -0.9406 -0.3367 -0.0425
vn -0.9502 -0.3086 -0.0441
vn 0.3831 -0.0207 0.9235
vn 0.0248 -0.0014 -0.9997
vn 0.0259 0.0010 -0.9997
vn 0.0320 -0.0054 -0.9995
vn 0.0240 -0.0104 -0.9997
vn -0.9997 0.0149 0.0188
vn -0.9997 -0.0074 0.0218
vn 0.9980 -0.0090 0.0627
vn 0.9978 0.0117 0.0660
vn 0.8079 -0.1997 0.5544
vn 0.8079 -0.1998 0.5544
vn 0.8460 -0.0981 0.5240
vn 0.0209 0.1299 0.9913
vn 0.0209 0.1300 0.9913
vn 0.0409 0.2915 0.9557
vn 0.0409 0.2914 0.9557
vn -0.7192 -0.1123 0.6857
vn -0.7424 -0.0402 0.6687
vn 0.6952 -0.2789 -0.6626
vn 0.6836 -0.2405 -0.6891
vn -0.9967 0.0160 0.0791
vn -0.9967 0.0147 0.0794
vn -0.9967 0.0179 0.0787
vn -0.9967 0.0195 0.0783
vn 0.9774 -0.2094 0.0276
vn 0.9755 -0.2181 0.0287
vn 0.9756 -0.2186 0.0208
vn 0.0157 -0.0056 -0.9999
vn 0.0194 -0.0610 -0.9980
vn 0.0194 -0.0610 -0.9979
vn -0.6649 -0.3476 0.6611
vn -0.6768 -0.3341 0.6560
vn -0.6768 -0.3340 0.6560
vn 0.0862 -0.3196 -0.9436
vn -0.9246 -0.3707 0.0876
vn -0.8872 -0.4540 0.0821
vn -0.8481 0.1938 0.4931
vn -0.8436 0.1538 0.5144
vn 0.6534 -0.0031 -0.7570
vn 0.6534 -0.0048 -0.7570
vn 0.6534 -0.0020 -0.7570
vn 0.6535 -0.0005 -0.7569
vn 0.6961 -0.2433 0.6755
vn 0.6952 -0.2419 0.6769
vn 0.6970 -0.2446 0.6741
vn 0.6971 -0.2448 0.6739
vn 0.9778 -0.2078 0.0268
vn 0.9765 -0.2129 0.0327
vn 0.9770 -0.2117 0.0249
vn -0.9999 0.0030 -0.0139
vn -0.9995 -0.0279 -0.0159
vn 0.8587 -0.0259 -0.5118
vn 0.8567 0.0207 -0.5153
vn 0.9956 0.0102 0.0937
vn 0.9987 0.0229 0.0447
vn 0.9879 0.1432 0.0593
vn 0.9851 0.1217 0.1215
vn 0.0321 -0.2159 0.9759
vn 0.0320 -0.2190 0.9752
vn 0.0321 -0.2108 0.9770
vn 0.0322 -0.2076 0.9777
vn 0.9980 0.0400 0.0488
vn 0.9982 0.0170 0.0568
vn 0.9975 0.0389 0.0592
vn 0.9995 0.0055 0.0297
vn -0.0158 0.0494 0.9987
vn -0.0132 0.0289 0.9995
vn -0.0210 0.0099 0.9997
vn -0.0110 0.0120 0.9999
vn -0.9998 -0.0106 0.0148
vn 0.0856 0.4794 -0.8734
vn 0.0081 0.0026 -1.0000
vn 0.0138 0.0009 -0.9999
vn 0.0138 0.0014 -0.9999
vn 0.0128 -0.0060 -0.9999
vn -0.0318 0.2273 0.9733
vn -0.0047 0.0577 0.9983
vn 0.0080 0.0429 0.9990
vn -0.0104 0.0522 0.9986
vn 0.0499 -0.0361 -0.9981
vn 0.9974 0.0385 0.0615
vn 0.9975 0.0133 0.0693
vn 0.9966 -0.0246 0.0791
vn 0.9981 -0.0302 0.0531
vn 0.1038 -0.2127 0.9716
vn 0.0993 -0.3632 0.9264
vn 0.0993 -0.3633 0.9264
vn 0.9883 0.1446 0.0491
vn 0.9867 0.1623 -0.0130
vn 0.9623 0.2718 0.0107
vn 0.9633 0.2612 0.0614
vn -0.6949 0.0461 -0.7176
vn -0.6831 -0.0089 -0.7303
vn -0.5961 -0.3924 -0.7005
vn -0.6340 -0.3131 -0.7071
vn -0.7278 0.0039 0.6858
vn -0.7280 0.0049 0.6855
vn -0.7273 0.0014 0.6863
vn -0.7271 0.0004 0.6865
vn -0.6916 -0.0010 -0.7223
vn -0.6914 -0.0016 -0.7225
vn -0.6917 -0.0003 -0.7222
g Column_V2_2_Column_V2_2_Collor_Material
usemtl Collor_Material
s off
f 277/1/1 77/2/1 273/3/1
f 78/4/2 26/5/2 25/6/2
f 100/7/3 179/8/4 173/9/5 86/10/5
f 278/11/6 75/12/6 271/13/6
f 173/14/7 261/15/8 265/16/9
f 252/17/10 91/18/10 245/19/10
f 164/20/11 239/21/11 240/22/11
f 242/23/12 36/24/12 232/25/12
f 160/26/13 24/27/13 156/28/13
f 234/29/14 56/30/14 235/31/14
f 57/32/15 245/33/16 244/34/17
f 258/35/18 66/36/18 259/37/18
f 75/38/19 27/39/19 76/40/19
f 71/41/20 112/42/20 72/43/20
f 274/44/21 79/45/21 275/46/21
f 262/47/22 81/48/22 263/49/22
f 62/50/23 194/51/23 206/52/23
f 205/53/24 29/54/24 195/55/24
f 276/56/25 73/57/25 269/58/25
f 49/59/26 197/60/27 207/61/28
f 51/62/29 215/63/29 209/64/29
f 9/65/30 175/66/30 169/67/31 58/68/31
f 185/69/32 148/70/33 188/71/34
f 114/72/35 225/73/35 221/74/35
f 135/75/36 133/76/36 134/77/36
f 126/78/37 183/79/37 182/80/37
f 186/81/38 141/82/38 187/83/38
f 188/84/39 147/85/39 189/86/39
f 190/87/40 147/88/40 146/89/40
f 191/90/41 142/91/41 186/92/41
f 139/93/42 191/94/42 186/95/42
f 151/96/43 189/97/43 190/98/43
f 149/99/44 189/100/44 150/101/44
f 182/102/45 124/103/45 123/104/45
f 187/105/46 140/106/46 139/107/47 186/108/47
f 172/109/48 97/110/48 63/111/48
f 47/112/49 240/113/49 236/114/49
f 86/115/50 265/116/50 258/117/50
f 35/118/51 241/119/52 233/120/53
f 223/121/54 136/122/54 135/123/54
f 116/124/55 224/125/55 121/126/55
f 209/127/56 107/128/56 69/129/56
f 208/130/57 19/131/57 82/132/57
f 207/133/58 111/134/58 71/135/58
f 206/136/59 14/137/59 55/138/59
f 286/139/60 40/140/61 163/141/62 288/142/63
f 244/143/64 211/144/64 254/145/64
f 236/146/65 166/147/65 61/148/65
f 39/149/66 235/150/66 40/151/66
f 166/152/67 239/153/67 68/154/67
f 248/155/68 209/156/68 69/157/68
f 57/158/69 254/159/69 212/160/69
f 244/161/70 91/162/71 92/163/71
f 49/164/72 263/165/72 50/166/72
f 86/167/73 259/168/73 85/169/73
f 267/170/74 49/171/75 207/172/76
f 33/173/77 275/174/77 34/175/77
f 204/176/78 281/177/78 48/178/78
f 164/179/79 285/180/79 44/181/79
f 35/182/80 288/183/80 163/184/80
f 39/185/81 290/186/81 204/187/81
f 47/188/82 289/189/82 164/190/82
f 279/191/83 272/192/83 78/193/84 201/194/84
f 277/195/85 165/196/85 77/197/85
f 78/198/86 77/199/86 26/200/86
f 163/201/87 40/202/87 235/203/87
f 278/204/88 205/205/89 75/206/90
f 132/207/91 129/208/91 130/209/92 131/210/92
f 7/211/93 84/212/93 83/213/94 8/214/95
f 16/215/96 89/216/96 90/217/97 15/218/97
f 173/219/98 87/220/98 261/221/98
f 266/222/99 214/223/99 59/224/100 256/225/101
f 20/226/102 158/227/102 168/228/103 81/229/103
f 136/230/104 120/231/104 119/232/105 133/233/105
f 273/234/106 41/235/106 161/236/107 277/237/107
f 132/238/108 118/239/109 115/240/110 129/241/111
f 252/242/112 170/243/112 91/244/112
f 109/245/113 87/246/114 173/247/115 179/248/115
f 164/249/116 44/250/116 239/251/116
f 242/252/117 203/253/117 36/254/117
f 257/255/118 264/256/118 168/257/119 83/258/119
f 232/259/120 54/260/120 202/261/121 242/262/121
f 108/263/122 178/264/122 172/265/123 70/266/123
f 7/267/124 219/268/124 213/269/125 84/270/125
f 30/271/126 73/272/126 160/273/127 156/274/127
f 274/275/128 279/276/128 201/277/129 80/278/129
f 229/279/130 226/280/130 127/281/131 144/282/132
f 140/283/133 137/284/133 138/285/134 139/286/134
f 68/287/135 239/288/136 238/289/137 67/290/138
f 203/291/139 242/292/139 238/293/140 43/294/140
f 210/295/141 255/296/142 248/297/143 96/298/144
f 160/299/145 79/300/145 24/301/145
f 5/302/146 60/303/146 59/304/147 6/305/147
f 152/306/148 149/307/149 150/308/150 151/309/150
f 234/310/151 55/311/151 56/312/151
f 57/313/152 58/314/153 245/315/154
f 187/316/155 182/317/156 123/318/157 140/319/157
f 228/320/158 223/321/159 135/322/160 152/323/160
f 258/324/161 65/325/161 66/326/161
f 18/327/162 51/328/162 52/329/163 17/330/163
f 185/331/164 184/332/165 132/333/166 131/334/166
f 106/335/167 216/336/168 210/337/169 96/338/169
f 75/339/170 28/340/170 27/341/170
f 174/342/171 65/343/171 258/344/172 265/345/172
f 71/346/173 111/347/173 112/348/173
f 274/349/174 80/350/174 79/351/174
f 262/352/175 82/353/175 81/354/175
f 62/355/176 3/356/176 194/357/176
f 53/358/177 233/359/178 241/360/179 32/361/180
f 31/362/181 198/363/182 202/364/183 54/365/184
f 89/366/185 251/367/185 250/368/186 90/369/186
f 60/370/187 167/371/187 264/372/188 257/373/188
f 137/374/189 122/375/190 223/376/191 228/377/192
f 205/378/193 74/379/193 29/380/193
f 276/381/194 160/382/194 73/383/194
f 87/384/195 88/385/195 260/386/196 261/387/197
f 64/388/198 247/389/198 246/390/199 63/391/199
f 146/392/200 145/393/200 229/394/201 230/395/202
f 2/396/203 93/397/203 211/398/204 217/399/204
f 219/400/205 99/401/206 85/402/207 213/403/207
f 48/404/208 47/405/208 236/406/209 237/407/210
f 239/408/211 44/409/212 43/410/213 238/411/214
f 21/412/215 22/413/215 49/414/216 50/415/216
f 110/416/217 88/417/217 87/418/218 109/419/218
f 48/420/219 237/421/220 243/422/221 204/423/222
f 26/424/223 77/425/223 165/426/224 157/427/224
f 279/428/225 200/429/226 42/430/227 272/431/227
f 75/432/228 76/433/228 270/434/229 271/435/230
f 134/436/231 188/437/231 189/438/232 149/439/233
f 49/440/234 22/441/234 197/442/234
f 214/443/235 220/444/235 6/445/236 59/446/237
f 247/447/238 64/448/238 212/449/239 254/450/239
f 31/451/240 54/452/240 53/453/241 32/454/241
f 185/455/242 134/456/243 133/457/244 184/458/245
f 264/459/246 263/460/247 81/461/248 168/462/248
f 90/463/249 250/464/250 255/465/251 210/466/252
f 140/467/253 123/468/254 122/469/255 137/470/255
f 99/471/256 100/472/256 86/473/257 85/474/258
f 37/475/259 269/476/260 268/477/261 38/478/261
f 257/479/262 256/480/262 59/481/263 60/482/263
f 51/483/264 18/484/264 215/485/264
f 136/486/265 224/487/265 222/488/266 120/489/267
f 102/490/268 220/491/268 214/492/269 66/493/270
f 138/494/271 231/495/271 191/496/272 139/497/272
f 285/498/273 283/499/274 43/500/275 44/501/276
f 211/502/277 92/503/277 11/504/277
f 17/505/278 52/506/278 169/507/279 175/508/280
f 228/509/281 152/510/282 151/511/283 227/512/284
f 51/513/285 209/514/285 255/515/286 250/516/286
f 176/517/287 170/518/288 89/519/289 16/520/289
f 284/521/290 282/522/291 35/523/292 36/524/292
f 163/525/293 235/526/294 241/527/295 35/528/295
f 185/529/296 131/530/297 148/531/298
f 101/532/299 65/533/300 174/534/301 180/535/302
f 205/536/303 278/537/304 268/538/305 74/539/306
f 9/540/307 58/541/308 57/542/309 10/543/309
f 11/544/310 92/545/311 91/546/312 12/547/313
f 3/548/314 62/549/315 61/550/316 4/551/317
f 143/552/318 230/553/319 229/554/320 144/555/321
f 208/556/322 267/557/322 260/558/323 88/559/323
f 2/560/324 1/561/324 94/562/325 93/563/325
f 114/564/326 128/565/326 225/566/326
f 8/567/327 83/568/327 168/569/328 158/570/328
f 33/571/329 200/572/329 279/573/330 274/574/330
f 269/575/331 73/576/332 74/577/333 268/578/333
f 226/579/334 225/580/334 128/581/335 127/582/336
f 135/583/337 136/584/337 133/585/337
f 141/586/338 126/587/338 182/588/339 187/589/340
f 126/590/341 125/591/341 183/592/341
f 199/593/342 38/594/342 268/595/343 278/596/343
f 228/597/344 227/598/344 138/599/345 137/600/346
f 235/601/347 56/602/348 162/603/348 241/604/349
f 83/605/350 84/606/350 256/607/351 257/608/351
f 70/609/352 249/610/353 248/611/354 69/612/355
f 186/613/356 142/614/356 141/615/356
f 188/616/357 148/617/357 147/618/357
f 23/619/358 24/620/358 79/621/359 80/622/359
f 190/623/360 189/624/360 147/625/360
f 190/626/361 146/627/361 230/628/361
f 23/629/362 80/630/362 201/631/363 196/632/364
f 243/633/365 234/634/365 39/635/366 204/636/366
f 217/637/367 211/638/368 11/639/369 14/640/369
f 151/641/370 150/642/370 189/643/370
f 157/644/371 165/645/371 76/646/372 27/647/373
f 101/648/374 102/649/374 66/650/375 65/651/375
f 170/652/376 252/653/376 251/654/376 89/655/376
f 182/656/377 183/657/377 124/658/377
f 196/659/378 201/660/379 78/661/380 25/662/380
f 20/663/381 81/664/381 82/665/382 19/666/383
f 134/667/384 185/668/384 188/669/384
f 206/670/385 55/671/386 234/672/387 243/673/387
f 121/674/388 124/675/389 113/676/390 116/677/390
f 162/678/391 155/679/391 32/680/391
f 104/681/392 154/682/393 166/683/394 68/684/395
f 155/685/396 162/686/397 56/687/398 13/688/398
f 247/689/399 254/690/400 211/691/401 93/692/401
f 141/693/402 144/694/402 127/695/403 126/696/403
f 249/697/404 95/698/405 96/699/406 248/700/407
f 98/701/408 64/702/409 63/703/410 97/704/410
f 98/705/411 218/706/411 212/707/412 64/708/412
f 172/709/413 178/710/413 97/711/413
f 183/712/414 125/713/414 117/714/415 192/715/415
f 47/716/416 164/717/416 240/718/416
f 5/719/417 153/720/417 167/721/418 60/722/418
f 184/723/419 181/724/420 118/725/421 132/726/422
f 271/727/423 45/728/423 199/729/424 278/730/424
f 261/731/425 260/732/426 71/733/427 72/734/428
f 86/735/429 173/736/429 265/737/429
f 145/738/430 130/739/430 226/740/431 229/741/431
f 93/742/432 94/743/432 246/744/433 247/745/433
f 138/746/434 227/747/435 231/748/436
f 28/749/437 75/750/438 205/751/439 195/752/440
f 159/753/441 34/754/441 275/755/442 276/756/442
f 251/757/443 52/758/443 51/759/444 250/760/444
f 223/761/445 224/762/445 136/763/445
f 226/764/446 130/765/447 129/766/448 225/767/448
f 116/768/449 222/769/449 224/770/449
f 233/771/450 53/772/451 54/773/452 232/774/453
f 253/775/454 172/776/454 63/777/455 246/778/455
f 110/779/456 193/780/457 208/781/458 88/782/459
f 77/783/460 78/784/460 272/785/461 273/786/462
f 259/787/463 66/788/463 214/789/464 266/790/464
f 209/791/465 215/792/465 107/793/465
f 121/794/466 224/795/467 223/796/468 122/797/468
f 208/798/469 193/799/469 19/800/469
f 191/801/470 230/802/471 143/803/472 142/804/472
f 207/805/473 197/806/474 111/807/475
f 21/808/476 50/809/476 167/810/477 153/811/477
f 171/812/478 253/813/479 246/814/480 94/815/481
f 184/816/482 133/817/483 119/818/484 181/819/485
f 105/820/486 95/821/486 171/822/487 177/823/488
f 206/824/489 194/825/489 14/826/489
f 245/827/490 58/828/490 169/829/491 252/830/492
f 244/831/493 92/832/493 211/833/493
f 145/834/494 148/835/494 131/836/495 130/837/495
f 287/838/496 47/839/497 48/840/498 281/841/498
f 70/842/499 172/843/499 253/844/500 249/845/501
f 161/846/502 46/847/502 270/848/503 277/849/504
f 15/850/505 90/851/505 210/852/506 216/853/506
f 252/854/507 169/855/508 52/856/509 251/857/509
f 112/858/510 180/859/511 174/860/512 72/861/513
f 240/862/514 239/863/515 166/864/516 236/865/517
f 128/866/518 125/867/518 126/868/519 127/869/520
f 41/870/521 273/871/521 272/872/522 42/873/522
f 39/874/523 234/875/523 235/876/523
f 128/877/524 114/878/524 117/879/525 125/880/526
f 106/881/527 96/882/527 95/883/528 105/884/528
f 231/885/529 227/886/530 151/887/531 190/888/532
f 12/889/533 91/890/533 170/891/534 176/892/535
f 248/893/536 255/894/536 209/895/536
f 57/896/537 244/897/537 254/898/537
f 104/899/538 68/900/538 67/901/539 103/902/540
f 165/903/541 277/904/542 270/905/541 76/906/543
f 10/907/544 57/908/544 212/909/545 218/910/545
f 269/911/546 37/912/546 159/913/547 276/914/547
f 207/915/548 71/916/548 260/917/549 267/918/550
f 244/919/551 245/920/552 91/921/552
f 30/922/553 29/923/554 74/924/555 73/925/555
f 141/926/556 142/927/556 143/928/557 144/929/557
f 271/930/558 270/931/558 46/932/559 45/933/559
f 231/934/560 190/935/560 230/936/561 191/937/561
f 284/938/562 36/939/562 203/940/563 291/941/563
f 160/942/564 276/943/564 275/944/565 79/945/565
f 280/946/566 39/947/566 40/948/567 286/949/568
f 49/950/569 262/951/569 263/952/569
f 108/953/570 70/954/571 69/955/572 107/956/572
f 86/957/573 258/958/573 259/959/573
f 225/960/574 129/961/574 115/962/574 221/963/575
f 259/964/576 266/965/576 213/966/577 85/967/577
f 35/968/578 233/969/578 232/970/579 36/971/580
f 167/972/581 50/973/581 263/974/582 264/975/583
f 267/976/584 262/977/585 49/978/586
f 202/979/587 67/980/588 238/981/589 242/982/590
f 266/983/591 256/984/591 84/985/592 213/986/592
f 95/987/593 249/988/594 253/989/595 171/990/596
f 183/991/597 192/992/597 113/993/598 124/994/598
f 62/995/599 206/996/599 243/997/600 237/998/601
f 33/999/602 274/1000/602 275/1001/602
f 1/1002/603 177/1003/604 171/1004/605 94/1005/606
f 56/1006/607 55/1007/607 14/1008/608 13/1009/608
f 103/1010/609 67/1011/609 202/1012/610 198/1013/611
f 152/1014/612 135/1015/613 134/1016/614 149/1017/615
f 262/1018/616 267/1019/617 208/1020/618 82/1021/618
f 204/1022/619 290/1023/619 281/1024/619
f 164/1025/620 289/1026/620 285/1027/620
f 148/1028/621 145/1029/621 146/1030/622 147/1031/622
f 35/1032/623 282/1033/623 288/1034/623
f 39/1035/624 280/1036/624 290/1037/624
f 62/1038/625 237/1039/626 236/1040/627 61/1041/628
f 4/1042/629 61/1043/630 166/1044/631 154/1045/632
f 47/1046/633 287/1047/633 289/1048/633
f 261/1049/634 72/1050/635 174/1051/636 265/1052/637
f 121/1053/638 122/1054/638 123/1055/639 124/1056/640
f 283/1057/641 291/1058/642 203/1059/643 43/1060/644
f 241/1061/645 162/1062/645 32/1063/645
f 156/1064/646 5/1065/646 30/1066/646
f 194/1067/647 2/1068/647 217/1069/647
f 193/1070/648 18/1071/648 19/1072/648
f 25/1073/649 112/1074/649 111/1075/649
f 287/1076/650 181/1077/651 289/1078/652
f 280/1079/653 221/1080/653 290/1081/653
f 109/1082/654 108/1083/655 107/1084/656 110/1085/657
f 289/1086/658 119/1087/658 285/1088/658
f 24/1089/659 153/1090/659 156/1091/659
f 290/1092/660 115/1093/660 281/1094/660
f 110/1095/661 215/1096/662 193/1097/663
f 111/1098/664 196/1099/665 25/1100/665
f 220/1101/666 195/1102/666 29/1103/667 6/1104/667
f 156/1105/668 153/1106/668 5/1107/668
f 30/1108/669 5/1109/669 6/1110/670 29/1111/670
f 2/1112/671 3/1113/671 4/1114/672 1/1115/673
f 31/1116/674 15/1117/675 216/1118/676 198/1119/676
f 194/1120/677 3/1121/677 2/1122/677
f 8/1123/678 158/1124/679 175/1125/680 9/1126/681
f 193/1127/682 215/1128/683 18/1129/684
f 179/1130/685 100/1131/685 97/1132/686 178/1133/686
f 192/1134/687 117/1135/687 286/1136/688 288/1137/688
f 25/1138/689 26/1139/689 112/1140/689
f 99/1141/690 219/1142/691 218/1143/692 98/1144/693
f 12/1145/694 176/1146/694 155/1147/695 13/1148/695
f 109/1149/696 179/1150/696 178/1151/697 108/1152/697
f 105/1153/698 104/1154/699 103/1155/700 106/1156/700
f 198/1157/701 216/1158/702 106/1159/703 103/1160/704
f 20/1161/705 19/1162/705 18/1163/706 17/1164/706
f 118/1165/707 287/1166/707 281/1167/708 115/1168/708
f 176/1169/709 16/1170/710 32/1171/711 155/1172/712
f 287/1173/713 118/1174/714 181/1175/715
f 102/1176/716 28/1177/716 195/1178/717 220/1179/718
f 116/1180/719 113/1181/719 282/1182/720 284/1183/721
f 280/1184/722 114/1185/722 221/1186/722
f 192/1187/723 288/1188/723 282/1189/724 113/1190/724
f 16/1191/725 15/1192/725 31/1193/726 32/1194/726
f 102/1195/727 101/1196/728 27/1197/729 28/1198/730
f 119/1199/731 120/1200/732 283/1201/733 285/1202/734
f 289/1203/735 181/1204/736 119/1205/737
f 175/1206/738 158/1207/738 20/1208/739 17/1209/739
f 99/1210/740 98/1211/740 97/1212/741 100/1213/741
f 157/1214/742 27/1215/743 101/1216/744 180/1217/745
f 222/1218/746 116/1219/747 284/1220/748 291/1221/749
f 177/1222/750 1/1223/751 4/1224/752 154/1225/753
f 23/1226/754 196/1227/755 197/1228/756 22/1229/757
f 24/1230/758 21/1231/758 153/1232/758
f 290/1233/759 221/1234/759 115/1235/759
f 219/1236/760 7/1237/761 10/1238/762 218/1239/763
f 110/1240/764 107/1241/764 215/1242/764
f 111/1243/765 197/1244/766 196/1245/767
f 14/1246/768 194/1247/768 217/1248/768
f 105/1249/769 177/1250/770 154/1251/771 104/1252/772
f 222/1253/773 291/1254/773 283/1255/774 120/1256/775
f 26/1257/776 157/1258/777 180/1259/778 112/1260/779
f 14/1261/780 11/1262/780 12/1263/781 13/1264/781
f 114/1265/782 280/1266/782 286/1267/783 117/1268/783
f 24/1269/784 23/1270/785 22/1271/786 21/1272/787
f 8/1273/788 9/1274/789 10/1275/788 7/1276/790
