# Blender v3.0.0 OBJ File: 'aa.blend'
# www.blender.org
mtllib Column_V2_3.mtl
o Column_V2_3
v 0.339982 1.706100 -0.226476
v 0.279195 1.726222 -0.284068
v 0.290103 1.752108 -0.275259
v 0.339894 1.740882 -0.227138
v -0.309737 0.583906 -0.254354
v -0.253884 0.584603 -0.298703
v -0.234839 1.140082 -0.322547
v -0.306319 1.139774 -0.251887
v -0.305138 1.169993 -0.250667
v -0.236914 1.170889 -0.323072
v -0.234537 1.721933 -0.318004
v -0.308254 1.722718 -0.252107
v -0.309133 1.754675 -0.252689
v -0.233774 1.755455 -0.321930
v -0.255888 1.684175 0.313389
v -0.285574 1.681987 0.262515
v -0.295266 1.170704 0.263004
v -0.251586 1.169408 0.311075
v -0.251622 1.140124 0.309460
v -0.296027 1.140109 0.262797
v -0.327308 0.607325 0.240481
v -0.251779 0.577670 0.309557
v -0.252052 0.554146 0.309233
v -0.319031 0.553157 0.236017
v 0.192702 0.559681 0.317439
v 0.246574 0.555231 0.299562
v 0.316405 0.552092 -0.239673
v 0.230606 0.541930 -0.308322
v -0.236967 0.560326 -0.295261
v -0.305599 0.554288 -0.249422
v -0.253513 1.715314 0.310051
v -0.294208 1.717823 0.241534
v -0.275593 0.000000 0.290029
v -0.372684 0.000000 0.163868
v -0.292147 2.297455 0.273585
v -0.268257 2.341705 0.310231
v -0.350226 -0.000000 -0.250608
v -0.265145 -0.000000 -0.374342
v -0.260976 2.345369 -0.320734
v -0.325019 2.328428 -0.262638
v 0.338340 0.000000 0.313037
v 0.278042 0.000000 0.347212
v 0.234645 2.327988 0.291529
v 0.326813 2.348877 0.206627
v 0.247069 -0.000000 -0.346637
v 0.335681 -0.000000 -0.227809
v 0.324364 2.332658 -0.261004
v 0.310953 2.340630 -0.279733
v -0.242467 0.602214 0.328011
v -0.337144 0.646849 0.246401
v -0.264045 1.190972 0.323610
v -0.307332 1.189911 0.276680
v -0.307488 1.756488 0.283088
v -0.273975 1.768544 0.332947
v -0.258731 1.779164 -0.326876
v -0.315302 1.760626 -0.256218
v -0.236861 1.189894 -0.334306
v -0.332392 1.189612 -0.193803
v -0.274567 0.605433 -0.314376
v -0.320474 0.603572 -0.265044
v 0.346335 1.764726 -0.232041
v 0.284087 1.790639 -0.296651
v 0.288114 1.218653 -0.293904
v 0.246055 1.237062 -0.335702
v 0.336635 0.604836 -0.236117
v 0.247568 0.611794 -0.320528
v 0.256530 1.774923 0.304599
v 0.321586 1.764338 0.235518
v 0.273980 1.209048 0.324110
v 0.323945 1.204292 0.265478
v 0.228065 0.602295 0.329577
v 0.292849 0.605467 0.294570
v -0.324564 0.514651 -0.262270
v -0.262657 0.496889 -0.323345
v 0.263685 0.528147 -0.308720
v 0.334275 0.544469 -0.216100
v 0.245851 0.541559 0.311221
v 0.180164 0.541041 0.337962
v -0.338104 0.490661 0.237163
v -0.265056 0.483212 0.325451
v -0.314439 1.118454 0.276206
v -0.264719 1.118354 0.325593
v -0.323548 1.118659 -0.264206
v -0.247454 1.118273 -0.339950
v 0.234330 1.161558 -0.338668
v 0.289037 1.167807 -0.276826
v 0.323288 1.106941 0.269722
v 0.247847 1.094540 0.339729
v -0.313692 1.599508 0.265428
v -0.261709 1.666406 0.323572
v -0.319436 1.701775 -0.265194
v -0.273737 1.699410 -0.316714
v 0.283698 1.714401 -0.308286
v 0.354785 1.688628 -0.237891
v 0.317508 1.725378 0.252845
v 0.276283 1.679683 0.316293
v 0.284749 1.211792 -0.269799
v 0.234874 1.217511 -0.324131
v 0.234233 1.172021 -0.324181
v 0.288919 1.174825 -0.256683
v 0.317504 0.583887 -0.239423
v 0.230677 0.587248 -0.311463
v 0.273397 1.754333 0.287860
v 0.311259 1.743136 0.230039
v 0.303010 1.736949 0.241423
v 0.267484 1.720255 0.280257
v 0.239488 1.151992 0.318583
v 0.310576 1.162868 0.254301
v 0.313074 1.133949 0.258311
v 0.236795 1.139120 0.320988
v 0.170098 0.577849 0.315611
v 0.276613 0.584274 0.281458
v -0.268962 2.393108 0.265318
v -0.224419 2.394773 -0.306508
v 0.281319 2.391569 -0.252856
v -0.240921 2.393433 0.297019
v -0.293802 2.392314 -0.240760
v 0.309444 2.392433 -0.224124
v 0.296527 2.394546 0.242490
v 0.271996 2.391458 0.267545
v -0.334326 2.424928 0.410790
v -0.349469 2.443643 0.431689
v -0.430788 2.440202 0.338254
v -0.365044 2.411948 0.328531
v -0.389003 2.422913 -0.389373
v -0.424600 2.442053 -0.372816
v -0.325639 2.475061 -0.448491
v -0.312869 2.424525 -0.428733
v 0.338424 2.422733 -0.410965
v 0.351494 2.446534 -0.427528
v 0.398586 2.438756 -0.372297
v 0.383159 2.414957 -0.359168
v 0.417853 2.430011 0.339518
v 0.429897 2.444553 0.352367
v 0.395144 2.448739 0.383436
v 0.225501 2.403371 0.318992
v -0.351484 2.558969 0.429320
v -0.339703 2.584994 0.408720
v -0.405026 2.577715 0.330780
v -0.423177 2.539306 0.357943
v -0.428272 2.558989 -0.352637
v -0.408584 2.579892 -0.339812
v -0.310863 2.581720 -0.382811
v -0.323735 2.534643 -0.445143
v 0.352642 2.527466 -0.429538
v 0.341664 2.560618 -0.394721
v 0.392925 2.563081 -0.318950
v 0.414734 2.520074 -0.354945
v 0.430415 2.558580 0.351874
v 0.409691 2.581395 0.342659
v 0.386783 2.583740 0.363756
v 0.408403 2.558796 0.372695
v -0.325476 0.592872 0.084676
v 0.319472 1.766517 0.168022
v -0.307189 1.755857 0.000061
v -0.313427 0.539513 -0.129619
v 0.299104 0.560688 0.017353
v -0.313142 1.100530 -0.116459
v -0.380338 -0.000000 -0.102467
v -0.326750 0.508612 -0.148279
v 0.348571 0.000000 0.158228
v -0.316061 1.779273 0.011807
v -0.301265 2.335675 0.042576
v 0.328889 2.359017 0.127430
v 0.327124 0.545433 0.031794
v 0.330211 1.792951 0.171058
v -0.333507 0.628925 0.107939
v -0.324422 1.085584 -0.117089
v -0.329963 1.173722 -0.116497
v -0.332238 1.651580 0.001027
v 0.344047 1.694779 -0.005010
v 0.328224 1.198889 -0.071707
v 0.330133 1.142061 -0.056320
v 0.336055 0.619700 -0.112959
v -0.312839 1.161605 -0.116521
v -0.304988 1.702106 0.003940
v 0.324879 1.714321 -0.004573
v 0.322313 1.187790 -0.051033
v 0.323489 1.152116 -0.050592
v 0.308875 0.585361 -0.112941
v 0.303776 2.390769 0.009096
v -0.428837 2.432138 -0.001775
v -0.356156 2.400807 0.025958
v 0.420451 2.420046 0.015292
v 0.436446 2.447652 0.029305
v -0.422991 2.577525 0.061476
v -0.433355 2.555366 0.049799
v 0.437272 2.535416 0.012239
v 0.404083 2.580716 0.056619
v 0.169460 2.585959 0.107380
v -0.260288 2.588113 0.043992
v -0.285073 2.388588 0.053795
v -0.013583 1.130556 0.317214
v -0.066825 1.780425 -0.313452
v -0.002582 0.556553 -0.319561
v -0.028953 0.557005 0.315045
v -0.135887 0.578306 0.312230
v 0.011305 1.725244 0.299830
v -0.004265 -0.000000 -0.400662
v -0.131436 0.000000 0.311936
v 0.007002 0.528192 0.333443
v 0.009942 1.749200 0.312493
v 0.120257 2.348750 0.295344
v 0.148836 2.336639 -0.306005
v -0.001357 0.537382 -0.337581
v -0.078603 1.798622 -0.321762
v -0.122015 0.598068 0.326443
v -0.013710 1.109456 0.330263
v -0.092847 1.213369 0.318032
v 0.149893 1.701075 0.313252
v 0.018168 1.704139 -0.321722
v 0.006679 1.199426 -0.335144
v -0.134927 1.122817 -0.338044
v 0.099647 0.573684 -0.321474
v -0.069587 1.189525 0.314634
v 0.144217 1.718074 0.296435
v 0.022244 1.718773 -0.304347
v 0.006222 1.177645 -0.318596
v -0.124817 1.143008 -0.318404
v 0.091818 0.552195 -0.317832
v 0.029342 2.397775 -0.284684
v 0.015544 2.389677 0.280092
v 0.012272 2.452604 0.416001
v -0.016769 2.421866 0.388074
v 0.013015 2.432311 -0.421594
v 0.013465 2.459373 -0.436430
v 0.020172 2.595496 0.388118
v 0.023242 2.573983 0.405825
v 0.013489 2.524704 -0.436500
v 0.010067 2.559142 -0.395564
v -0.043003 2.588758 0.127749
v -0.262321 2.063409 0.314504
v -0.283015 2.058802 0.293025
v -0.222045 2.063632 -0.334595
v -0.317607 2.197941 -0.235877
v 0.326562 1.965956 -0.252287
v 0.294658 1.943099 -0.290426
v 0.296133 2.060026 0.287413
v 0.326509 2.060822 0.255504
v 0.323871 2.216042 -0.086794
v -0.303996 2.158901 -0.023229
v -0.156174 2.096358 0.309375
v -0.051357 2.137281 -0.325660
v -0.230360 1.448024 -0.339884
v -0.330663 1.458252 -0.223611
v 0.347387 1.439823 -0.228228
v 0.269211 1.433394 -0.320070
v 0.257303 1.301696 0.334532
v 0.324307 1.300799 0.251784
v -0.272211 1.548994 0.326251
v -0.306729 1.529127 0.292421
v -0.337055 1.498117 -0.092515
v 0.351314 1.427097 -0.108875
v -0.048577 1.541545 -0.329826
v -0.006018 1.331094 0.326393
v -0.243992 0.861096 -0.334591
v -0.329007 0.775833 -0.245342
v 0.284383 0.863789 -0.280126
v 0.244959 0.855820 -0.326322
v 0.227223 0.880011 0.337970
v 0.309802 0.730816 0.288080
v -0.257873 1.013521 0.325884
v -0.329025 1.037819 0.257865
v -0.329434 0.963166 0.035159
v 0.325520 0.766456 0.060857
v -0.067281 1.021839 -0.336578
v -0.148661 0.948085 0.329874
v -0.268326 0.268135 -0.304391
v -0.332910 0.183054 -0.234739
v 0.323568 0.375162 -0.197477
v 0.264596 0.241728 -0.297475
v 0.201020 0.269943 0.338548
v 0.307559 0.143457 0.308494
v -0.261093 0.270478 0.318000
v -0.335941 0.392829 0.218907
v -0.337186 0.369884 -0.123336
v 0.324422 0.363179 0.095216
v 0.086079 0.263728 -0.328491
v 0.021666 0.406027 0.333185
v -0.222109 2.371964 -0.307772
v 0.279573 2.367652 -0.253452
v -0.258859 2.374662 0.266150
v 0.238574 2.361108 0.261037
v -0.240977 2.378330 0.290909
v 0.295168 2.369538 0.212766
v -0.287478 2.371899 -0.237757
v 0.308300 2.347671 -0.217999
v -0.277966 2.367200 0.055431
v 0.300237 2.376648 0.064193
v 0.119546 2.355694 -0.289681
v 0.128911 2.380686 0.273240
vt 0.211550 0.620915
vt 0.211550 0.620915
vt 0.211550 0.620915
vt 0.211550 0.620915
vt 0.211550 0.620915
vt 0.211550 0.620915
vt 0.211550 0.620915
vt 0.211550 0.620915
vt 0.211550 0.620915
vt 0.211550 0.620915
vt 0.211550 0.620915
vt 0.211550 0.620915
vt 0.211550 0.620915
vt 0.211550 0.620915
vt 0.211550 0.620915
vt 0.211550 0.620915
vt 0.211550 0.620915
vt 0.211550 0.620915
vt 0.211550 0.620915
vt 0.211550 0.620915
vt 0.211550 0.620915
vt 0.211550 0.620915
vt 0.211550 0.620915
vt 0.211550 0.620915
vt 0.211550 0.620915
vt 0.211550 0.620915
vt 0.211550 0.620915
vt 0.211550 0.620915
vt 0.211550 0.620915
vt 0.211550 0.620915
vt 0.211550 0.620915
vt 0.211550 0.620915
vt 0.211550 0.620915
vt 0.211550 0.620915
vt 0.211550 0.620915
vt 0.211550 0.620915
vt 0.211550 0.620915
vt 0.211550 0.620915
vt 0.211550 0.620915
vt 0.211550 0.620915
vt 0.211550 0.620915
vt 0.211550 0.620915
vt 0.211550 0.620915
vt 0.211550 0.620915
vt 0.211550 0.620915
vt 0.211550 0.620915
vt 0.211550 0.620915
vt 0.211550 0.620915
vt 0.211550 0.620915
vt 0.211550 0.620915
vt 0.211550 0.620915
vt 0.211550 0.620915
vt 0.211550 0.620915
vt 0.211550 0.620915
vt 0.211550 0.620915
vt 0.211550 0.620915
vt 0.211550 0.620915
vt 0.211550 0.620915
vt 0.211550 0.620915
vt 0.211550 0.620915
vt 0.211550 0.620915
vt 0.211550 0.620915
vt 0.211550 0.620915
vt 0.211550 0.620915
vt 0.211550 0.620915
vt 0.211550 0.620915
vt 0.211550 0.620915
vt 0.211550 0.620915
vt 0.211550 0.620915
vt 0.211550 0.620915
vt 0.211550 0.620915
vt 0.211550 0.620915
vt 0.211550 0.620915
vt 0.211550 0.620915
vt 0.211550 0.620915
vt 0.211550 0.620915
vt 0.211550 0.620915
vt 0.211550 0.620915
vt 0.211550 0.620915
vt 0.211550 0.620915
vt 0.211550 0.620915
vt 0.211550 0.620915
vt 0.211550 0.620915
vt 0.211550 0.620915
vt 0.211550 0.620915
vt 0.211550 0.620915
vt 0.211550 0.620915
vt 0.211550 0.620915
vt 0.211550 0.620915
vt 0.211550 0.620915
vt 0.211550 0.620915
vt 0.211550 0.620915
vt 0.211550 0.620915
vt 0.211550 0.620915
vt 0.211550 0.620915
vt 0.211550 0.620915
vt 0.211550 0.620915
vt 0.211550 0.620915
vt 0.211550 0.620915
vt 0.211550 0.620915
vt 0.211550 0.620915
vt 0.211550 0.620915
vt 0.211550 0.620915
vt 0.211550 0.620915
vt 0.211550 0.620915
vt 0.211550 0.620915
vt 0.211550 0.620915
vt 0.211550 0.620915
vt 0.211550 0.620915
vt 0.211550 0.620915
vt 0.211550 0.620915
vt 0.211550 0.620915
vt 0.211550 0.620915
vt 0.211550 0.620915
vt 0.211550 0.620915
vt 0.211550 0.620915
vt 0.211550 0.620915
vt 0.211550 0.620915
vt 0.211550 0.620915
vt 0.211550 0.620915
vt 0.211550 0.620915
vt 0.211550 0.620915
vt 0.211550 0.620915
vt 0.211550 0.620915
vt 0.211550 0.620915
vt 0.211550 0.620915
vt 0.211550 0.620915
vt 0.211550 0.620915
vt 0.211550 0.620915
vt 0.211550 0.620915
vt 0.211550 0.620915
vt 0.211550 0.620915
vt 0.211550 0.620915
vt 0.211550 0.620915
vt 0.211550 0.620915
vt 0.211550 0.620915
vt 0.211550 0.620915
vt 0.211550 0.620915
vt 0.211550 0.620915
vt 0.211550 0.620915
vt 0.211550 0.620915
vt 0.211550 0.620915
vt 0.211550 0.620915
vt 0.211550 0.620915
vt 0.211550 0.620915
vt 0.211550 0.620915
vt 0.211550 0.620915
vt 0.211550 0.620915
vt 0.211550 0.620915
vt 0.211550 0.620915
vt 0.211550 0.620915
vt 0.211550 0.620915
vt 0.211550 0.620915
vt 0.211550 0.620915
vt 0.211550 0.620915
vt 0.211550 0.620915
vt 0.211550 0.620915
vt 0.211550 0.620915
vt 0.211550 0.620915
vt 0.211550 0.620915
vt 0.211550 0.620915
vt 0.211550 0.620915
vt 0.211550 0.620915
vt 0.211550 0.620915
vt 0.211550 0.620915
vt 0.211550 0.620915
vt 0.211550 0.620915
vt 0.211550 0.620915
vt 0.211550 0.620915
vt 0.211550 0.620915
vt 0.211550 0.620915
vt 0.211550 0.620915
vt 0.211550 0.620915
vt 0.211550 0.620915
vt 0.211550 0.620915
vt 0.211550 0.620915
vt 0.211550 0.620915
vt 0.211550 0.620915
vt 0.211550 0.620915
vt 0.211550 0.620915
vt 0.211550 0.620915
vt 0.211550 0.620915
vt 0.211550 0.620915
vt 0.211550 0.620915
vt 0.211550 0.620915
vt 0.211550 0.620915
vt 0.211550 0.620915
vt 0.211550 0.620915
vt 0.211550 0.620915
vt 0.211550 0.620915
vt 0.211550 0.620915
vt 0.211550 0.620915
vt 0.211550 0.620915
vt 0.211550 0.620915
vt 0.211550 0.620915
vt 0.211550 0.620915
vt 0.211550 0.620915
vt 0.211550 0.620915
vt 0.211550 0.620915
vt 0.211550 0.620915
vt 0.211550 0.620915
vt 0.211550 0.620915
vt 0.211550 0.620915
vt 0.211550 0.620915
vt 0.211550 0.620915
vt 0.211550 0.620915
vt 0.211550 0.620915
vt 0.211550 0.620915
vt 0.211550 0.620915
vt 0.211550 0.620915
vt 0.211550 0.620915
vt 0.211550 0.620915
vt 0.211550 0.620915
vt 0.211550 0.620915
vt 0.211550 0.620915
vt 0.211550 0.620915
vt 0.211550 0.620915
vt 0.211550 0.620915
vt 0.211550 0.620915
vt 0.211550 0.620915
vt 0.211550 0.620915
vt 0.211550 0.620915
vt 0.211550 0.620915
vt 0.211550 0.620915
vt 0.211550 0.620915
vt 0.211550 0.620915
vt 0.211550 0.620915
vt 0.211550 0.620915
vt 0.211550 0.620915
vt 0.211550 0.620915
vt 0.211550 0.620915
vt 0.211550 0.620915
vt 0.211550 0.620915
vt 0.211550 0.620915
vt 0.211550 0.620915
vt 0.211550 0.620915
vt 0.211550 0.620915
vt 0.211550 0.620915
vt 0.211550 0.620915
vt 0.211550 0.620915
vt 0.211550 0.620915
vt 0.211550 0.620915
vt 0.211550 0.620915
vt 0.211550 0.620915
vt 0.211550 0.620915
vt 0.211550 0.620915
vt 0.211550 0.620915
vt 0.211550 0.620915
vt 0.211550 0.620915
vt 0.211550 0.620915
vt 0.211550 0.620915
vt 0.211550 0.620915
vt 0.211550 0.620915
vt 0.211550 0.620915
vt 0.211550 0.620915
vt 0.211550 0.620915
vt 0.211550 0.620915
vt 0.211550 0.620915
vt 0.211550 0.620915
vt 0.211550 0.620915
vt 0.211550 0.620915
vt 0.211550 0.620915
vt 0.211550 0.620915
vt 0.211550 0.620915
vt 0.211550 0.620915
vt 0.211550 0.620915
vt 0.211550 0.620915
vt 0.211550 0.620915
vt 0.211550 0.620915
vt 0.211550 0.620915
vt 0.211550 0.620915
vt 0.211550 0.620915
vt 0.211550 0.620915
vt 0.211550 0.620915
vt 0.211550 0.620915
vt 0.211550 0.620915
vt 0.211550 0.620915
vt 0.211550 0.620915
vt 0.211550 0.620915
vt 0.211550 0.620915
vt 0.211550 0.620915
vt 0.211550 0.620915
vt 0.211550 0.620915
vt 0.211550 0.620915
vt 0.211550 0.620915
vt 0.211550 0.620915
vt 0.211550 0.620915
vt 0.211550 0.620915
vt 0.211550 0.620915
vt 0.211550 0.620915
vt 0.221354 0.940256
vt 0.221354 0.940256
vt 0.221354 0.940256
vt 0.221354 0.940256
vt 0.221354 0.940256
vt 0.221354 0.940256
vt 0.221354 0.940256
vt 0.221354 0.940256
vt 0.221354 0.940256
vt 0.221354 0.940256
vt 0.221354 0.940256
vt 0.221354 0.940256
vt 0.221354 0.940256
vt 0.221354 0.940256
vt 0.221354 0.940256
vt 0.221354 0.940256
vt 0.221354 0.940256
vt 0.221354 0.940256
vt 0.221354 0.940256
vt 0.221354 0.940256
vt 0.221354 0.940256
vt 0.221354 0.940256
vt 0.221354 0.940256
vt 0.221354 0.940256
vt 0.221354 0.940256
vt 0.221354 0.940256
vt 0.221354 0.940256
vt 0.221354 0.940256
vt 0.221354 0.940256
vt 0.221354 0.940256
vt 0.221354 0.940256
vt 0.221354 0.940256
vt 0.221354 0.940256
vt 0.221354 0.940256
vt 0.221354 0.940256
vt 0.221354 0.940256
vt 0.221354 0.940256
vt 0.221354 0.940256
vt 0.221354 0.940256
vt 0.221354 0.940256
vt 0.221354 0.940256
vt 0.221354 0.940256
vt 0.221354 0.940256
vt 0.221354 0.940256
vt 0.221354 0.940256
vt 0.221354 0.940256
vt 0.221354 0.940256
vt 0.221354 0.940256
vt 0.221354 0.940256
vt 0.221354 0.940256
vt 0.221354 0.940256
vt 0.221354 0.940256
vt 0.221354 0.940256
vt 0.221354 0.940256
vt 0.221354 0.940256
vt 0.221354 0.940256
vt 0.221354 0.940256
vt 0.221354 0.940256
vt 0.221354 0.940256
vt 0.221354 0.940256
vt 0.221354 0.940256
vt 0.221354 0.940256
vt 0.221354 0.940256
vt 0.221354 0.940256
vt 0.221354 0.940256
vt 0.221354 0.940256
vt 0.221354 0.940256
vt 0.221354 0.940256
vt 0.221354 0.940256
vt 0.221354 0.940256
vt 0.221354 0.940256
vt 0.221354 0.940256
vt 0.221354 0.940256
vt 0.221354 0.940256
vt 0.221354 0.940256
vt 0.221354 0.940256
vt 0.221354 0.940256
vt 0.221354 0.940256
vt 0.221354 0.940256
vt 0.221354 0.940256
vt 0.221354 0.940256
vt 0.221354 0.940256
vt 0.221354 0.940256
vt 0.221354 0.940256
vt 0.221354 0.940256
vt 0.221354 0.940256
vt 0.221354 0.940256
vt 0.221354 0.940256
vt 0.221354 0.940256
vt 0.221354 0.940256
vt 0.221354 0.940256
vt 0.221354 0.940256
vt 0.221354 0.940256
vt 0.221354 0.940256
vt 0.221354 0.940256
vt 0.221354 0.940256
vt 0.221354 0.940256
vt 0.221354 0.940256
vt 0.221354 0.940256
vn 0.9624 0.1476 0.2282
vn 0.0116 -0.0399 -0.9991
vn -0.9996 0.0213 -0.0158
vn -0.9994 0.0261 -0.0206
vn -0.9996 0.0197 -0.0209
vn -0.9976 0.0358 -0.0595
vn 0.8126 0.5783 -0.0726
vn 0.1000 -0.0023 -0.9950
vn 0.9998 -0.0171 -0.0119
vn 0.9998 -0.0140 -0.0141
vn 0.9999 -0.0125 -0.0109
vn 0.0389 0.0130 0.9992
vn 0.0456 0.0145 0.9989
vn 0.0432 0.0163 0.9989
vn 0.8207 0.5680 -0.0624
vn -0.7011 -0.2585 0.6645
vn 0.8963 -0.4430 0.0185
vn -0.7229 0.0286 0.6904
vn -0.8057 0.1406 -0.5754
vn 0.8135 0.0729 -0.5770
vn 0.4308 0.1515 0.8896
vn 0.4741 0.8804 0.0102
vn -0.6977 0.0296 -0.7157
vn -0.7442 0.0390 -0.6668
vn -0.7356 0.0392 -0.6763
vn -0.7403 0.0355 -0.6713
vn 0.4881 -0.0241 0.8724
vn 0.4794 -0.0210 0.8774
vn 0.4835 -0.0250 0.8750
vn 0.7959 -0.0064 -0.6054
vn 0.0558 -0.4494 -0.8916
vn 0.3748 -0.6782 0.6321
vn -0.8180 -0.0353 0.5742
vn 0.3348 0.8904 -0.3083
vn -0.7389 0.1763 0.6504
vn -0.7464 0.4316 -0.5066
vn -0.9973 0.0192 -0.0706
vn -0.0155 0.5243 0.8514
vn 0.6902 -0.4768 0.5443
vn -0.5714 -0.8072 -0.1480
vn 0.6246 -0.2967 -0.7224
vn 0.6236 -0.3100 -0.7177
vn 0.6225 -0.3033 -0.7214
vn 0.3035 0.6687 0.6788
vn -0.4427 0.7416 -0.5041
vn 0.0439 0.7590 -0.6496
vn 0.2434 -0.9699 -0.0010
vn 0.0078 -0.9571 0.2895
vn 0.0091 -0.9575 0.2882
vn 0.0150 -0.9586 0.2843
vn -0.0336 -0.0249 0.9991
vn -0.5237 -0.2770 -0.8056
vn 0.3726 -0.7684 0.5203
vn 0.0212 0.9987 -0.0454
vn 0.0146 0.9988 -0.0463
vn 0.0176 0.9989 -0.0444
vn -0.0646 0.9979 0.0036
vn 0.0618 0.9971 -0.0437
vn 0.7434 0.6687 -0.0162
vn -0.2622 -0.9645 -0.0306
vn -0.9450 -0.3271 0.0024
vn -0.2947 0.7687 -0.5676
vn 0.5142 -0.8411 -0.1676
vn -0.9702 -0.2423 0.0059
vn 1.0000 0.0062 0.0070
vn 1.0000 0.0016 0.0031
vn 0.9999 0.0099 0.0121
vn -0.9795 0.1914 -0.0623
vn -0.8253 0.1745 0.5371
vn 0.0349 -0.8581 0.5122
vn 0.0068 -0.9595 0.2817
vn 0.0034 -0.9620 0.2729
vn 0.0104 -0.9615 0.2747
vn -0.0228 -0.0827 0.9963
vn -0.0283 0.2277 0.9733
vn -0.0018 -0.4928 0.8702
vn 0.1136 0.3000 -0.9472
vn 0.0451 -0.1583 -0.9864
vn -0.0690 -0.6426 -0.7631
vn 0.0249 0.0498 -0.9984
vn 0.0261 0.0486 -0.9985
vn 0.0293 0.0532 -0.9982
vn 0.0072 0.0930 -0.9956
vn 0.0076 -0.0207 -0.9998
vn 0.0034 -0.0169 -0.9999
vn 0.0021 -0.0189 -0.9998
vn -0.0276 -0.0026 0.9996
vn -0.0280 -0.0027 0.9996
vn -0.0300 -0.0001 0.9995
vn 0.0261 0.0565 0.9981
vn 0.9943 0.1010 0.0327
vn -0.6316 -0.1900 -0.7516
vn 0.9922 -0.0247 0.1218
vn 0.0334 -0.0066 0.9994
vn -0.0253 -0.0758 -0.9968
vn 0.9807 0.1947 -0.0189
vn 0.6848 -0.0718 0.7252
vn 0.0136 -0.0215 -0.9997
vn 0.0101 -0.0257 -0.9996
vn 0.0125 -0.0236 -0.9996
vn 0.9933 -0.0513 0.1035
vn -0.0858 0.0075 0.9963
vn -0.9741 0.1093 -0.1980
vn 0.3767 0.0310 0.9258
vn 0.7997 -0.1154 -0.5892
vn -0.7076 -0.0409 -0.7054
vn -0.1496 -0.0938 0.9843
vn 0.9753 0.2113 0.0645
vn 0.0887 0.7455 -0.6606
vn 0.5589 0.8205 0.1197
vn 0.0709 0.7096 -0.7011
vn -0.9092 0.4023 0.1069
vn 0.6197 0.7824 -0.0626
vn 0.4907 0.5571 0.6700
vn 0.4874 0.5620 0.6682
vn 0.4883 0.5590 0.6701
vn 0.9922 -0.0995 -0.0748
vn 0.0908 0.6858 0.7221
vn 0.9752 -0.1697 -0.1419
vn 0.0462 -0.0234 -0.9987
vn -0.0147 -0.5844 0.8113
vn -0.0184 -0.5914 0.8062
vn -0.0125 -0.5891 0.8079
vn 0.0440 -0.4077 0.9120
vn 0.2509 -0.9676 0.0283
vn 0.9165 -0.3978 -0.0415
vn 0.9998 -0.0038 0.0193
vn -0.0002 -0.0146 -0.9999
vn 0.0897 -0.9274 0.3631
vn -0.9999 0.0158 -0.0024
vn -0.9978 0.0543 -0.0377
vn 0.9168 0.3788 -0.1266
vn 0.1595 0.0200 -0.9870
vn 0.9996 0.0035 0.0266
vn 0.0342 0.0177 0.9993
vn 0.0313 0.0128 0.9994
vn 0.0406 0.0152 0.9991
vn -0.7611 0.4917 0.4230
vn 0.7128 0.0083 -0.7013
vn -0.8710 -0.4905 -0.0275
vn 0.9507 -0.3099 0.0113
vn 0.0002 0.5627 0.8267
vn -0.5011 0.7650 -0.4046
vn 0.7399 0.6724 0.0208
vn -0.8325 -0.0093 0.5539
vn -0.8174 0.1261 -0.5621
vn 0.8000 0.0633 -0.5966
vn 0.4888 0.1322 0.8624
vn -0.0112 -0.0023 0.9999
vn 0.9998 -0.0049 0.0204
vn 0.3968 0.9179 -0.0040
vn -0.7886 0.0852 -0.6090
vn 0.9999 0.0104 0.0027
vn 0.9999 0.0135 -0.0024
vn 1.0000 0.0094 0.0024
vn -0.7363 0.0380 -0.6755
vn -0.7322 0.0415 -0.6798
vn -0.7301 0.0344 -0.6825
vn 0.9972 -0.0668 0.0331
vn 0.6556 -0.4245 0.6245
vn -0.9999 0.0155 -0.0076
vn -0.9999 0.0124 -0.0114
vn -0.9998 0.0157 -0.0130
vn -0.9946 0.1037 0.0106
vn -0.9945 0.1045 0.0114
vn -0.9946 0.1034 0.0102
vn -0.0582 -0.0651 -0.9962
vn 0.4796 -0.0223 0.8772
vn 0.4760 -0.0189 0.8792
vn 0.4732 -0.0241 0.8806
vn 0.3230 0.7903 -0.5207
vn 0.1117 -0.4110 -0.9048
vn 0.2188 -0.8205 0.5280
vn -0.7691 -0.1336 0.6250
vn 0.7627 -0.6430 0.0702
vn -0.9968 -0.0316 0.0740
vn 0.4927 0.7070 -0.5073
vn 0.0710 -0.9863 -0.1489
vn 0.0869 0.0806 0.9929
vn -0.6723 -0.3753 -0.6381
vn -0.7170 -0.6944 0.0600
vn -0.9973 0.0723 -0.0153
vn 0.9987 0.0482 -0.0194
vn 0.9987 0.0475 -0.0189
vn 0.9986 0.0486 -0.0199
vn 0.0308 0.5050 0.8625
vn 0.9566 0.0830 0.2794
vn 0.9427 0.1862 0.2768
vn 0.6715 0.1326 0.7291
vn 0.6745 -0.0045 0.7383
vn -0.0179 0.4332 0.9011
vn -0.7984 -0.0137 0.6020
vn 0.1086 -0.1865 -0.9764
vn 0.4031 -0.4843 -0.7765
vn 0.0849 -0.5767 -0.8125
vn 0.7541 -0.0024 -0.6567
vn -0.7250 0.2574 0.6389
vn 0.8036 0.0005 0.5951
vn 0.7227 -0.0586 0.6886
vn 0.7223 -0.0588 0.6890
vn -0.3976 -0.9173 0.0207
vn -0.1041 0.5080 -0.8550
vn -0.0733 0.7601 0.6456
vn 0.7307 0.0448 0.6813
vn -0.9965 0.0557 0.0618
vn -0.8877 -0.4601 0.0195
vn 0.0060 0.8438 -0.5366
vn -0.6923 -0.7166 -0.0846
vn 0.6202 -0.3096 -0.7207
vn 0.6218 -0.3153 -0.7169
vn 0.6182 -0.3222 -0.7169
vn 0.2162 0.8096 0.5458
vn 0.7636 -0.0209 -0.6454
vn 0.7640 -0.0205 -0.6449
vn 0.7638 -0.0207 -0.6451
vn 0.1619 -0.9548 -0.2492
vn 0.1620 -0.9548 -0.2492
vn 0.3956 -0.6247 -0.6732
vn -0.9969 -0.0731 -0.0299
vn 0.7697 0.0773 0.6337
vn 0.7693 0.0779 0.6341
vn 0.0891 -0.4616 0.8826
vn -0.0018 0.6620 -0.7495
vn 0.0252 0.6245 0.7807
vn -0.8854 0.4564 0.0884
vn -0.5213 0.5004 -0.6913
vn -0.5647 0.6327 -0.5299
vn -0.0167 -0.0282 -0.9995
vn 0.2943 0.6111 0.7348
vn -0.1759 -0.9839 0.0324
vn -0.1755 -0.9840 0.0323
vn 0.9450 -0.3205 0.0649
vn 0.6062 0.6656 -0.4352
vn 0.0306 -0.9672 -0.2523
vn 0.0348 0.7829 -0.6212
vn -0.7953 -0.0282 -0.6055
vn -0.9985 -0.0209 0.0496
vn -0.4898 -0.6725 -0.5548
vn 0.0514 0.0509 0.9974
vn 0.5732 0.4568 0.6803
vn -0.0225 0.0472 0.9986
vn -0.0228 0.0471 0.9986
vn -0.0232 0.0470 0.9986
vn 0.7426 -0.0162 -0.6696
vn 0.2691 -0.9630 -0.0137
vn 0.0186 -0.9702 0.2414
vn 0.0714 0.6399 0.7651
vn 0.0942 0.4072 0.9085
vn -0.0758 0.7528 -0.6539
vn -0.4206 -0.9070 -0.0216
vn 0.8515 -0.5192 -0.0731
vn 0.2133 -0.9729 0.0889
vn 0.5509 -0.5190 -0.6536
vn -0.4097 -0.4201 -0.8097
vn -0.9166 0.3816 0.1192
vn -0.7859 0.6169 0.0411
vn 0.0216 0.0402 -0.9990
vn -0.3805 -0.8663 0.3236
vn -0.9995 -0.0303 -0.0126
vn -0.5552 -0.6597 0.5066
vn -0.0219 0.0102 0.9997
vn -0.0233 0.0070 0.9997
vn -0.0198 0.0073 0.9998
vn -0.9972 -0.0241 0.0705
vn -0.0106 -0.9757 -0.2188
vn -0.6718 -0.5745 0.4675
vn -0.5061 0.7051 0.4966
vn 0.0072 -0.5267 -0.8500
vn 0.0154 0.9988 -0.0454
vn 0.0121 0.9988 -0.0473
vn 0.0108 0.9990 -0.0439
vn -0.7298 -0.0361 0.6827
vn -0.7296 -0.0357 0.6830
vn -0.6365 0.0956 -0.7653
vn 0.0217 0.9998 -0.0028
vn 0.7944 0.6069 -0.0254
vn -0.0268 -0.0800 0.9964
vn -0.8978 0.4369 0.0558
vn -0.8841 0.4649 0.0469
vn -0.1665 -0.9860 -0.0075
vn -0.7082 -0.0259 -0.7056
vn -0.7085 -0.0261 -0.7052
vn -0.9810 -0.1738 -0.0861
vn -0.9722 -0.2191 0.0828
vn -0.9884 -0.1498 -0.0237
vn -0.9904 -0.1380 0.0021
vn -0.9975 -0.0139 0.0687
vn -0.9360 -0.3520 -0.0051
vn -0.7165 -0.0261 0.6971
vn -0.0293 0.9996 0.0022
vn 0.9051 0.4209 0.0599
vn -0.9090 0.4169 -0.0018
vn -0.6250 0.6310 0.4596
vn -0.7999 0.5863 0.1283
vn 0.4362 0.8944 0.0985
vn -0.8013 0.0570 0.5956
vn -0.0248 0.0083 0.9997
vn -0.0302 0.0065 0.9995
vn -0.0268 0.0054 0.9996
vn 0.1327 -0.0150 -0.9910
vn 0.6694 -0.7172 -0.1936
vn 0.0235 0.9995 -0.0215
vn 0.0232 0.9995 -0.0216
vn 0.9998 -0.0196 -0.0103
vn 0.9997 -0.0224 -0.0128
vn 0.9998 -0.0170 -0.0126
vn 0.8272 -0.5616 0.0176
vn -0.9977 0.0655 0.0198
vn 0.9962 0.0065 0.0866
vn 0.9962 0.0070 0.0873
vn 0.9961 0.0074 0.0880
vn 0.5279 0.6676 0.5250
vn 0.5285 0.6673 0.5248
vn 0.1999 0.1882 -0.9616
vn 0.1994 0.1879 -0.9617
vn 0.9993 -0.0356 0.0109
vn 0.0527 0.0240 0.9983
vn 0.0500 0.0194 0.9986
vn 0.0500 0.0185 0.9986
vn 0.0463 0.0135 0.9988
vn -0.0302 0.9994 -0.0185
vn 0.0005 0.9986 -0.0534
vn 0.7340 -0.0276 -0.6786
vn -0.0444 -0.0355 0.9984
vn 0.1342 -0.7329 0.6670
vn -0.0483 0.9988 -0.0027
vn 0.0125 -0.9570 0.2897
vn 0.0031 -0.9582 0.2862
vn 0.0037 -0.9599 0.2802
vn -0.0172 -0.0196 0.9997
vn -0.9999 0.0098 0.0128
vn -0.0253 0.6132 0.7895
vn -0.0182 -0.1584 0.9872
vn 0.0804 -0.5762 -0.8133
vn -0.3071 -0.3349 -0.8908
vn -0.0245 0.0014 -0.9997
vn -0.7815 0.6231 -0.0310
vn -0.0996 0.4442 0.8904
vn -0.0074 -0.5842 0.8116
vn -0.0043 -0.5772 0.8166
vn -0.0099 -0.5793 0.8151
vn 0.7836 -0.0128 -0.6211
vn 0.0779 0.6855 -0.7239
vn 0.0319 -0.0080 0.9995
vn 0.0358 0.0557 -0.9978
vn 0.0372 0.0610 -0.9974
vn 0.0318 0.0626 -0.9975
vn -0.0181 0.0572 -0.9982
vn 0.0171 -0.0031 -0.9998
vn -0.0878 -0.9833 -0.1596
vn 0.6078 0.7916 -0.0630
vn 0.6076 0.7916 -0.0642
vn 0.0030 0.7465 -0.6654
vn -0.0261 -0.0086 0.9996
vn -0.0257 -0.0052 0.9997
vn -0.0227 -0.0039 0.9997
vn 0.0843 -0.0018 -0.9964
vn 0.7792 -0.6237 0.0614
vn 0.0218 0.0250 0.9995
vn 0.0217 0.0253 0.9994
vn -0.7651 -0.0743 -0.6396
vn 0.0457 0.9982 -0.0377
vn 0.0637 0.0488 0.9968
vn -0.0767 0.2691 -0.9600
vn -0.0794 0.2668 -0.9605
vn -0.0747 0.2711 -0.9596
vn 0.0214 0.0013 -0.9998
vn 0.0894 -0.5229 0.8477
vn -0.9996 0.0124 0.0273
vn 0.0460 0.0366 -0.9983
vn 0.0458 0.0364 -0.9983
vn 0.5699 0.7589 -0.3151
vn 0.0216 -0.4042 -0.9144
vn 0.1641 0.6008 0.7824
vn -0.9998 -0.0092 -0.0180
vn 0.9991 -0.0171 0.0386
vn -0.0365 -0.0440 0.9984
vn 0.5245 -0.6540 -0.5451
vn 0.9847 0.1580 -0.0737
vn 0.0117 -0.0303 -0.9995
vn 0.0144 -0.0253 -0.9996
vn 0.0148 -0.0259 -0.9996
vn 0.0151 -0.0219 -0.9996
vn -0.1036 -0.9803 0.1679
vn 0.5450 0.0214 0.8382
vn 0.0250 -0.5630 -0.8261
vn -0.9999 0.0116 -0.0050
vn -0.9999 0.0050 -0.0087
vn -0.9998 0.0171 -0.0093
vn 0.9902 -0.1314 0.0479
vn -0.9435 0.3309 -0.0194
vn -0.9993 0.0345 -0.0141
vn -0.4688 -0.7078 -0.5285
vn -0.7551 -0.0733 -0.6515
vn -0.9728 0.1018 -0.2080
vn 0.7371 -0.0076 -0.6757
vn 0.3180 0.0428 0.9471
vn 0.8707 -0.0165 -0.4915
vn -0.7073 -0.0408 -0.7057
vn -0.7003 -0.0401 0.7127
vn 0.9797 0.0957 0.1760
vn -0.8158 0.5781 -0.0155
vn 0.0984 0.7304 -0.6759
vn 0.4276 0.9021 0.0578
vn 0.9874 -0.0391 -0.1532
vn -0.6732 -0.0147 0.7393
vn 0.0414 0.3883 -0.9206
vn -0.6438 0.6723 0.3654
vn 0.6808 0.7324 -0.0120
vn 0.5886 0.8061 -0.0616
vn 0.0460 -0.7084 0.7044
vn 0.4940 0.5522 0.6715
vn 0.4923 0.5546 0.6709
vn 0.4895 0.5569 0.6710
vn -0.5025 0.7004 -0.5069
vn 0.0316 0.0257 -0.9992
vn 0.0232 -0.0144 -0.9996
vn 0.0481 -0.1416 0.9887
vn 0.0494 -0.1322 0.9900
vn 0.0401 -0.1299 0.9907
vn -0.9850 -0.1514 -0.0830
vn 0.0666 0.2962 -0.9528
vn 0.9588 -0.2623 0.1094
vn 0.0318 0.1204 0.9922
vn -0.0261 0.0013 0.9997
vn -0.0315 -0.8745 -0.4840
vn 0.7270 -0.6757 0.1223
vn -0.0320 0.0133 0.9994
vn -0.0225 0.0794 -0.9966
vn 0.2565 0.4073 0.8765
vn 0.8270 -0.0784 0.5567
vn 0.9944 -0.0988 0.0386
vn 0.0631 0.2499 -0.9662
vn 0.9956 -0.0894 0.0297
vn 0.9971 -0.0344 0.0683
vn 0.9977 0.0038 0.0678
vn -0.9818 -0.1897 -0.0080
vn 0.2202 0.0082 -0.9754
vn 0.0380 -0.0145 -0.9992
vn -0.0212 0.1880 0.9819
vn -0.1042 -0.2104 -0.9720
vn -0.0110 0.0798 0.9968
vn -0.0059 0.0859 0.9963
vn -0.0118 0.0855 0.9963
vn 0.1305 -0.2374 0.9626
vn 0.0521 -0.0718 -0.9961
vn 0.7561 -0.0707 -0.6506
vn 0.0556 -0.3746 0.9255
vn 0.0586 -0.2706 0.9609
vn -0.9930 -0.1057 0.0520
vn -0.9980 -0.0440 -0.0452
vn -0.7154 -0.0025 -0.6987
vn 0.1070 0.0078 -0.9942
vn 0.2572 -0.9150 -0.3109
vn 0.0345 0.1039 0.9940
vn -0.0230 -0.0135 0.9996
vn 0.9960 0.0363 0.0816
vn -0.7324 -0.0110 0.6808
vn 0.3236 0.2364 0.9162
vn 0.0731 -0.1093 -0.9913
vn 0.7655 -0.2638 0.5869
vn 0.0813 -0.2131 -0.9737
vn 0.9974 0.0595 0.0401
vn 0.9995 -0.0222 0.0241
vn 0.0848 0.0637 -0.9944
vn -0.9989 0.0115 0.0449
vn 0.9858 0.0422 -0.1627
vn -0.7134 -0.1161 0.6911
vn -0.0126 -0.0629 0.9979
vn -0.0134 -0.0550 0.9984
vn -0.0049 -0.1314 0.9913
vn -0.0034 -0.1443 0.9895
vn -0.9993 -0.0354 0.0089
vn 0.9921 -0.1208 0.0328
vn 0.9970 -0.0350 0.0684
vn 0.9947 -0.0852 0.0569
vn 0.5469 -0.6715 0.5000
vn 0.5473 -0.6711 0.5001
vn -0.6982 -0.1675 -0.6961
vn -0.9164 -0.3905 0.0875
vn -0.6707 -0.0521 -0.7399
vn 0.1252 0.3773 -0.9176
vn 0.0207 -0.0837 -0.9963
vn -0.0084 0.0357 0.9993
vn 0.0487 0.8390 -0.5419
vn -0.0167 0.0766 0.9969
vn -0.0109 0.0770 0.9970
vn -0.0118 0.0829 0.9965
vn 0.0319 0.1211 0.9921
vn -0.5417 -0.3316 -0.7724
vn -0.0680 -0.1426 -0.9874
vn 0.0481 -0.1461 0.9881
vn 0.0574 -0.1487 0.9872
vn 0.0494 -0.1367 0.9894
vn 0.6871 -0.0250 -0.7261
vn -0.9526 -0.3033 0.0252
vn 0.6460 0.1129 0.7549
vn -0.7256 -0.3136 0.6124
vn -0.8567 0.1034 0.5053
vn -0.9986 0.0169 -0.0508
vn 0.7334 -0.0860 -0.6743
vn 0.7331 -0.0852 -0.6747
vn 0.6322 -0.0386 -0.7738
g Column_V2_3_Column_V2_3_Collor_Material
usemtl Collor_Material
s off
f 277/1/1 77/2/1 273/3/1
f 266/4/2 85/5/2 259/6/2
f 168/7/3 257/8/4 264/9/5
f 252/10/6 91/11/6 245/12/6
f 173/13/7 100/14/7 179/15/7
f 204/16/8 237/17/8 243/18/8
f 164/19/9 239/20/10 240/21/11
f 242/22/12 36/23/13 232/24/14
f 147/25/15 189/26/15 188/27/15 148/28/15
f 21/29/16 22/30/16 49/31/16 50/32/16
f 70/33/17 178/34/17 172/35/17
f 232/24/18 35/36/18 233/37/18
f 38/38/19 269/39/19 268/40/19
f 46/41/20 271/42/20 270/43/20
f 42/44/21 273/3/21 272/45/21
f 76/46/22 157/47/22 165/48/22
f 234/49/23 56/50/23 235/51/23
f 59/52/24 257/8/25 256/53/26
f 71/54/27 261/55/28 260/56/29
f 75/57/30 27/58/30 76/46/30
f 194/59/31 206/60/31 62/61/31 3/62/31
f 71/54/32 112/63/32 72/64/32
f 80/65/33 275/66/33 274/67/33
f 86/68/34 99/69/34 100/14/34
f 250/70/35 89/71/35 251/72/35
f 57/73/36 9/74/36 58/75/36
f 276/76/37 73/77/37 269/39/37
f 201/78/38 25/79/38 196/80/38
f 68/81/39 103/82/39 104/83/39
f 58/75/40 175/84/40 169/85/40
f 61/86/41 3/62/42 62/61/43
f 95/87/44 106/88/44 96/89/44
f 92/90/45 12/91/45 11/92/45
f 211/93/46 11/92/46 217/94/46
f 118/95/47 184/96/47 181/97/47
f 222/98/48 136/99/49 224/100/50
f 80/65/51 274/67/51 279/101/51 201/78/51
f 127/102/52 125/103/52 126/104/52
f 135/105/53 133/106/53 134/107/53
f 190/108/54 147/25/55 146/109/56
f 139/110/57 191/111/57 186/112/57
f 150/113/58 190/108/58 151/114/58
f 149/115/59 189/26/59 150/113/59
f 117/116/60 183/117/60 125/103/60
f 162/118/61 32/119/61 53/120/61
f 141/121/62 142/122/62 143/123/62 144/124/62
f 172/35/63 97/125/63 63/126/63
f 167/127/64 21/29/64 50/32/64
f 47/128/65 240/21/66 236/129/67
f 81/130/68 264/9/68 263/131/68
f 90/132/69 16/133/69 89/71/69 250/70/69
f 223/134/70 136/99/70 135/105/70
f 116/135/71 224/100/72 121/136/73
f 69/137/74 215/138/74 107/139/74
f 80/65/75 196/80/75 23/140/75
f 207/141/76 111/142/76 71/54/76
f 205/143/77 28/144/77 75/57/77
f 206/60/78 14/145/78 55/146/78
f 214/147/79 6/148/79 59/52/79
f 39/149/80 243/18/81 234/49/82
f 92/90/83 254/150/83 244/151/83
f 84/152/84 266/4/85 256/53/86
f 78/153/87 279/101/88 272/45/89
f 238/154/90 202/155/90 67/156/90
f 236/129/91 166/157/91 61/86/91
f 39/149/92 235/51/92 40/158/92
f 166/157/93 239/20/93 68/81/93
f 209/159/94 250/70/94 51/160/94
f 256/53/95 214/147/95 59/52/95
f 258/161/96 174/162/96 65/163/96
f 260/56/97 87/164/97 88/165/97
f 214/147/98 259/6/99 66/166/100
f 265/167/101 72/64/101 174/162/101
f 272/45/102 200/168/102 42/44/102
f 159/169/103 269/39/103 37/170/103
f 272/45/104 77/2/104 78/153/104
f 270/43/105 75/57/105 76/46/105
f 268/40/106 73/77/106 74/171/106
f 200/168/107 274/67/107 33/172/107
f 161/173/108 273/3/108 41/174/108
f 204/16/109 281/175/109 48/176/109
f 164/19/110 285/177/110 44/178/110
f 204/16/111 280/179/111 290/180/111
f 36/23/112 282/181/112 35/36/112
f 164/19/113 287/182/113 289/183/113
f 43/184/114 285/177/115 283/185/116
f 148/28/117 188/27/117 185/186/117 131/187/117
f 106/88/118 216/188/118 210/189/118 96/89/118
f 253/190/119 172/35/119 63/126/119 246/191/119
f 206/60/120 55/146/120 234/49/120 243/18/120
f 197/192/121 207/141/122 49/31/123 22/30/123
f 31/193/124 198/194/124 202/155/124 54/195/124
f 184/96/125 133/106/125 119/196/125 181/97/125
f 154/197/126 166/157/126 68/81/126 104/83/126
f 253/190/127 246/191/127 94/198/127 171/199/127
f 266/4/128 213/200/128 85/5/128
f 135/105/129 136/99/129 120/201/129 133/106/129
f 168/7/130 83/202/130 257/8/130
f 252/10/131 170/203/131 91/11/131
f 173/13/132 86/68/132 100/14/132
f 204/16/133 48/176/133 237/17/133
f 164/19/134 44/178/134 239/20/134
f 242/22/135 203/204/136 36/23/137
f 90/132/138 15/205/138 16/133/138
f 66/166/139 259/6/139 258/161/139 65/163/139
f 60/206/140 5/207/140 153/208/140
f 70/33/141 108/209/141 178/34/141
f 19/210/142 82/211/142 208/212/142 193/213/142
f 286/214/143 280/179/143 39/149/143 40/158/143
f 1/215/144 177/216/144 171/199/144 94/198/144
f 232/24/145 36/23/145 35/36/145
f 38/38/146 37/170/146 269/39/146
f 46/41/147 45/217/147 271/42/147
f 42/44/148 41/174/148 273/3/148
f 49/31/149 207/141/149 267/218/149 262/219/149
f 149/115/150 134/107/150 185/186/150 188/27/150
f 76/46/151 27/58/151 157/47/151
f 234/49/152 55/146/152 56/50/152
f 240/21/153 239/20/154 166/157/154 236/129/155
f 59/52/156 60/206/157 257/8/158
f 249/220/159 70/33/159 172/35/159 253/190/159
f 108/209/160 70/33/160 69/137/160 107/139/160
f 264/9/161 167/127/162 50/32/163 263/131/163
f 276/76/164 159/169/165 34/221/164 275/66/166
f 205/143/167 278/222/167 268/40/167 74/171/167
f 71/54/168 72/64/169 261/55/170
f 75/57/171 28/144/171 27/58/171
f 214/147/172 66/166/172 102/223/172
f 71/54/173 111/142/173 112/63/173
f 80/65/174 79/224/174 275/66/174
f 180/225/175 101/226/175 65/163/175 174/162/175
f 170/203/176 252/10/176 251/72/176 89/71/176
f 86/68/177 85/5/177 99/69/177
f 132/227/178 118/95/178 115/228/178 129/229/178
f 228/230/179 223/134/179 135/105/179 152/231/179
f 57/73/180 10/232/180 9/74/180
f 17/233/181 52/234/181 169/85/181 175/84/181
f 276/76/182 160/235/182 73/77/182
f 277/1/183 161/173/184 46/41/183 270/43/185
f 284/236/186 36/23/186 203/204/186 291/237/186
f 277/1/187 165/48/188 26/238/188 77/2/187
f 239/20/189 44/178/189 43/184/189 238/154/189
f 152/231/190 135/105/190 134/107/190 149/115/190
f 110/239/191 193/213/191 208/212/191 88/165/191
f 34/221/192 33/172/192 274/67/192 275/66/192
f 98/240/193 212/241/194 64/242/195
f 85/5/196 86/68/196 258/161/196 259/6/196
f 24/243/197 79/224/197 80/65/197 23/140/197
f 249/220/198 95/87/198 96/89/198 248/244/198
f 68/81/199 239/20/199 238/154/199 67/156/200
f 183/117/201 124/245/201 123/246/201 182/247/201
f 29/248/202 195/249/202 205/143/202 74/171/202
f 201/78/203 78/153/203 25/79/203
f 68/81/204 67/156/204 103/82/204
f 162/118/205 53/120/205 233/37/205 241/250/205
f 155/251/206 162/118/206 56/50/206 13/252/206
f 217/94/207 2/253/207 93/254/207 211/93/207
f 58/75/208 9/74/208 175/84/208
f 61/86/209 4/255/210 3/62/211
f 95/87/212 105/256/212 106/88/212
f 145/257/213 148/28/214 131/187/215 130/258/214
f 63/126/216 97/125/217 98/240/218 64/242/218
f 257/8/219 60/206/219 153/208/219 167/127/219
f 249/220/220 248/244/220 69/137/221 70/33/220
f 209/159/222 51/160/222 18/259/222
f 7/260/223 219/261/223 213/200/223 84/152/223
f 228/230/224 227/262/224 138/263/224 137/264/224
f 288/265/225 163/266/225 35/36/225 282/181/225
f 30/267/226 29/248/226 74/171/226 73/77/226
f 92/90/227 91/11/227 12/91/227
f 211/93/228 92/90/228 11/92/228
f 25/79/229 78/153/229 77/2/229 26/238/229
f 183/117/230 192/268/230 113/269/231 124/245/230
f 61/86/232 166/157/232 154/197/232 4/255/232
f 148/28/233 145/257/233 146/109/233 147/25/233
f 225/270/234 221/271/234 114/272/234 128/273/234
f 143/123/235 230/274/235 229/275/235 144/124/235
f 245/12/236 244/151/236 57/73/236 58/75/236
f 241/250/237 233/37/237 35/36/237 163/266/237
f 13/252/238 56/50/238 55/146/238 14/145/238
f 137/264/239 122/276/239 223/134/239 228/230/239
f 110/239/240 88/165/240 87/164/240 109/277/240
f 210/189/241 255/278/242 248/244/243 96/89/241
f 247/279/244 246/191/244 63/126/244 64/242/244
f 118/95/245 132/227/245 184/96/245
f 222/98/246 120/201/246 136/99/246
f 151/114/247 227/262/247 228/230/248 152/231/248
f 219/261/249 99/69/249 85/5/249 213/200/249
f 125/103/250 183/117/250 182/247/250 126/104/250
f 131/187/251 185/186/251 184/96/251 132/227/251
f 120/201/252 119/196/252 133/106/252
f 101/226/253 102/223/253 66/166/253 65/163/253
f 127/102/254 128/273/254 125/103/254
f 16/133/255 176/280/255 170/203/255 89/71/255
f 286/214/256 40/158/256 163/266/256 288/265/256
f 247/279/257 64/242/257 212/241/257 254/150/257
f 121/136/258 122/276/258 123/246/258 124/245/258
f 141/121/259 126/104/259 182/247/259 187/281/259
f 18/259/260 51/160/260 52/234/260 17/233/260
f 82/211/261 262/219/261 267/218/262 208/212/263
f 235/51/264 241/250/264 163/266/264 40/158/264
f 225/270/265 129/229/265 115/228/265 221/271/265
f 31/193/266 54/195/266 53/120/266 32/119/266
f 20/282/267 81/130/267 82/211/267 19/210/267
f 226/283/268 130/258/268 129/229/268 225/270/268
f 190/108/269 189/26/270 147/25/271
f 140/284/272 123/246/272 122/276/273 137/264/272
f 144/124/274 127/102/274 126/104/274 141/121/274
f 150/113/275 189/26/275 190/108/275
f 149/115/276 188/27/276 189/26/276
f 255/278/277 209/159/277 69/137/277 248/244/277
f 187/281/278 140/284/278 139/110/278 186/112/278
f 12/91/279 91/11/279 170/203/279 176/280/279
f 117/116/280 192/268/280 183/117/280
f 83/202/281 84/152/282 256/53/282 257/8/282
f 167/127/283 153/208/284 24/243/285 21/29/286
f 252/10/287 169/85/287 52/234/287 251/72/287
f 162/118/288 155/251/288 32/119/288
f 251/72/289 52/234/289 51/160/289 250/70/289
f 138/263/290 231/285/290 191/111/290 139/110/290
f 109/277/291 87/164/291 173/13/291 179/15/291
f 30/267/292 73/77/292 160/235/292 156/286/292
f 140/284/293 137/264/293 138/263/293 139/110/293
f 8/287/294 83/202/294 168/7/294 158/288/294
f 165/48/295 157/47/295 26/238/295
f 233/37/296 53/120/296 54/195/296 232/24/296
f 208/212/297 267/218/298 260/56/299 88/165/299
f 75/57/300 271/42/300 278/222/300 205/143/300
f 172/35/301 178/34/301 97/125/301
f 190/108/302 231/285/302 227/262/303 151/114/302
f 47/128/304 164/19/305 240/21/306
f 185/186/307 134/107/307 133/106/307 184/96/307
f 81/130/308 168/7/308 264/9/308
f 249/220/309 253/190/310 171/199/311 95/87/310
f 152/231/312 149/115/312 150/113/313 151/114/312
f 45/217/314 199/289/314 278/222/314 271/42/315
f 165/48/316 277/1/316 270/43/316 76/46/316
f 242/22/317 202/155/318 238/154/319 203/204/320
f 138/263/321 227/262/321 231/285/321
f 230/274/322 231/285/322 190/108/322 146/109/322
f 247/279/323 93/254/323 94/198/323 246/191/323
f 279/101/324 274/67/324 200/168/324 272/45/324
f 223/134/325 224/100/325 136/99/325
f 142/122/326 186/112/326 191/111/326 143/123/326
f 116/135/327 222/98/328 224/100/329
f 207/141/330 71/54/330 260/56/330 267/218/330
f 187/281/331 182/247/331 123/246/331 140/284/331
f 15/205/332 90/132/332 210/189/332 216/188/332
f 69/137/333 209/159/333 215/138/333
f 218/290/195 212/241/334 98/240/335 99/69/336
f 20/282/337 158/288/337 168/7/337 81/130/337
f 80/65/338 201/78/338 196/80/338
f 207/141/339 197/192/340 111/142/341
f 48/176/342 47/128/342 236/129/342 237/17/342
f 205/143/343 195/249/343 28/144/343
f 238/154/344 43/184/344 203/204/344
f 39/149/345 204/16/346 243/18/347
f 92/90/348 211/93/348 254/150/348
f 84/152/349 213/200/349 266/4/349
f 125/103/350 128/273/350 114/272/350 117/116/350
f 281/175/351 287/182/352 47/128/352 48/176/352
f 146/109/353 145/257/353 229/275/353 230/274/353
f 78/153/354 201/78/355 279/101/356
f 237/17/357 62/61/357 206/60/357 243/18/357
f 112/63/358 180/225/358 174/162/358 72/64/358
f 250/70/359 255/278/359 210/189/360 90/132/359
f 39/149/361 234/49/361 235/51/361
f 230/274/362 143/123/362 191/111/362 231/285/362
f 54/195/363 202/155/363 242/22/363 232/24/363
f 199/289/364 38/38/365 268/40/364 278/222/366
f 212/241/367 57/73/367 244/151/367 254/150/367
f 198/194/368 103/82/368 67/156/368 202/155/368
f 56/50/369 162/118/369 241/250/369 235/51/369
f 247/279/370 254/150/371 211/93/371 93/254/371
f 2/253/372 1/215/372 94/198/372 93/254/372
f 226/283/373 225/270/373 128/273/373 127/102/373
f 291/237/374 203/204/374 43/184/374 283/185/374
f 245/12/375 58/75/375 169/85/375 252/10/375
f 87/164/376 261/55/376 265/167/376 173/13/376
f 209/159/377 255/278/377 250/70/377
f 129/229/378 130/258/378 131/187/378 132/227/378
f 258/161/379 265/167/379 174/162/379
f 266/4/380 259/6/381 214/147/382 256/53/383
f 124/245/384 113/269/384 116/135/384 121/136/384
f 260/56/385 261/55/385 87/164/385
f 218/290/386 10/232/386 57/73/386 212/241/386
f 167/127/387 264/9/388 257/8/389
f 265/167/390 261/55/390 72/64/390
f 156/286/391 160/235/391 79/224/391 24/243/391
f 160/235/392 276/76/392 275/66/392 79/224/392
f 5/207/393 60/206/393 59/52/393 6/148/393
f 245/12/394 91/11/394 92/90/394 244/151/394
f 159/169/395 276/76/395 269/39/395
f 237/17/396 236/129/396 61/86/396 62/61/396
f 272/45/397 273/3/397 77/2/397
f 270/43/398 271/42/398 75/57/398
f 268/40/399 269/39/399 73/77/399
f 263/131/400 262/219/400 82/211/400 81/130/400
f 161/173/401 277/1/401 273/3/401
f 187/281/402 186/112/402 142/122/402 141/121/402
f 204/16/403 290/180/403 281/175/403
f 164/19/404 289/183/404 285/177/404
f 173/13/405 265/167/405 258/161/405 86/68/405
f 50/32/406 49/31/406 262/219/406 263/131/406
f 204/16/407 39/149/407 280/179/407
f 36/23/408 284/236/408 282/181/408
f 105/256/409 95/87/409 171/199/409 177/216/409
f 164/19/410 47/128/410 287/182/410
f 224/100/411 223/134/411 122/276/411 121/136/411
f 43/184/412 44/178/413 285/177/414
f 8/287/415 7/260/415 84/152/415 83/202/415
f 229/275/416 226/283/416 127/102/416 144/124/416
f 145/257/417 130/258/417 226/283/417 229/275/417
f 291/291/418 120/292/419 222/293/420
f 156/294/421 5/295/421 30/296/421
f 217/297/422 3/298/422 2/299/422
f 154/300/423 105/301/423 177/302/423
f 198/303/424 15/304/424 216/305/424
f 197/306/425 23/307/425 196/308/425
f 220/309/426 28/310/426 195/311/426
f 157/312/427 112/313/427 26/314/427
f 215/315/428 19/316/428 193/317/428
f 218/318/429 99/319/429 219/320/429
f 25/321/430 112/313/430 111/322/430
f 103/323/431 105/301/431 104/324/431
f 287/325/432 181/326/432 289/327/432
f 280/328/433 221/329/433 290/330/433
f 289/327/434 119/331/434 285/332/434
f 27/333/435 180/334/435 157/312/435
f 4/335/436 177/302/436 1/336/436
f 24/337/437 153/338/437 156/294/437
f 290/330/438 115/339/438 281/340/438
f 10/341/439 219/320/439 7/342/439
f 107/343/440 193/317/440 110/344/440
f 6/345/441 195/311/441 29/346/441
f 111/322/442 196/308/443 25/321/444
f 103/323/445 216/305/445 106/347/445
f 11/348/446 194/349/446 217/297/446
f 99/319/447 98/350/447 97/351/447 100/352/447
f 284/353/448 222/293/448 116/354/448
f 291/291/449 283/355/449 120/292/449
f 176/356/450 16/357/450 32/358/450 155/359/450
f 156/294/451 153/338/451 5/295/451
f 8/360/452 9/361/452 10/341/452 7/342/452
f 217/297/453 194/349/453 3/298/453
f 154/300/454 104/324/454 105/301/454
f 198/303/455 31/362/455 15/304/455
f 197/306/456 22/363/456 23/307/456
f 157/312/457 180/334/457 112/313/457
f 17/364/458 20/365/458 19/316/458 18/366/458
f 25/321/459 26/314/459 112/313/459
f 28/310/460 220/309/460 214/367/460 102/368/460
f 103/323/461 106/347/461 105/301/461
f 194/349/462 11/348/462 14/369/462 206/370/462
f 108/371/463 109/372/463 179/373/463 178/374/463
f 287/325/464 118/375/464 181/326/464
f 280/328/465 114/376/465 221/329/465
f 175/377/466 158/378/466 20/365/466 17/364/466
f 178/374/467 179/373/467 100/352/467 97/351/467
f 24/337/468 23/307/468 22/363/468 21/379/468
f 18/366/469 19/316/470 215/315/471 209/380/472
f 12/381/473 176/356/473 155/359/473 13/382/473
f 289/327/474 181/326/474 119/331/474
f 27/333/475 101/383/475 180/334/475
f 4/335/476 154/300/476 177/302/476
f 120/292/477 283/355/478 285/332/478 119/331/478
f 114/376/479 280/328/479 286/384/479 117/385/479
f 113/386/480 192/387/480 288/388/480 282/389/480
f 13/382/481 14/369/481 11/348/481 12/381/481
f 290/330/482 221/329/482 115/339/482
f 10/341/483 218/318/483 219/320/483
f 107/343/484 215/315/484 193/317/484
f 6/345/485 220/309/485 195/311/485
f 111/322/486 197/306/487 196/308/488
f 103/323/489 198/303/489 216/305/489
f 30/296/490 5/295/490 6/345/490 29/346/490
f 214/367/491 220/309/491 6/345/491
f 284/353/492 291/291/493 222/293/494
f 3/298/495 4/335/495 1/336/495 2/299/495
f 192/387/496 117/385/496 286/384/496 288/388/496
f 109/372/497 108/371/497 107/343/497 110/344/497
f 113/386/498 282/389/498 284/353/498 116/354/498
f 16/357/499 15/304/499 31/362/499 32/358/499
f 8/360/500 158/378/500 175/377/500 9/361/500
f 118/375/501 287/325/502 281/340/502 115/339/502
f 102/368/503 101/383/503 27/333/503 28/310/503
