# Blender v3.0.0 OBJ File: 'aa.blend'
# www.blender.org
mtllib Column_Egypt_3.mtl
o Column_Egypt_3
v 0.000000 -0.000000 -0.458455
v -0.129838 0.468855 -0.224886
v 0.229228 -0.000000 -0.397033
v -0.224885 0.468855 -0.129838
v 0.397034 -0.000000 -0.229227
v -0.259675 0.468855 -0.000000
v 0.458455 0.000000 0.000000
v -0.224885 0.468855 0.129837
v 0.397034 0.000000 0.229227
v -0.129838 0.468855 0.224885
v 0.229228 0.000000 0.397033
v -0.000000 0.468855 0.259674
v 0.000000 0.000000 0.458455
v 0.129837 0.468855 0.224885
v -0.229227 0.000000 0.397033
v 0.224885 0.468855 0.129837
v -0.397033 0.000000 0.229227
v 0.259675 0.468855 -0.000000
v -0.458455 0.000000 0.000000
v 0.224885 0.468855 -0.129838
v -0.397033 -0.000000 -0.229227
v 0.129837 0.468855 -0.224886
v -0.229227 -0.000000 -0.397033
v -0.000000 0.468855 -0.259675
v 0.000000 0.068141 -0.458455
v 0.229228 0.068141 -0.397034
v 0.397034 0.068141 -0.229227
v 0.458455 0.068142 -0.000000
v 0.397034 0.068142 0.229227
v 0.229228 0.068142 0.397033
v 0.000000 0.068142 0.458455
v -0.229227 0.068142 0.397033
v -0.397033 0.068142 0.229227
v -0.458455 0.068142 0.000000
v -0.397033 0.068141 -0.229227
v -0.229227 0.068141 -0.397033
v 0.000000 0.121950 -0.432010
v 0.216005 0.121950 -0.374131
v 0.374131 0.121950 -0.216005
v 0.432010 0.121950 -0.000000
v 0.374131 0.121950 0.216005
v 0.216005 0.121951 0.374131
v 0.000000 0.121951 0.432009
v -0.216004 0.121951 0.374131
v -0.374131 0.121950 0.216005
v -0.432009 0.121950 0.000000
v -0.374131 0.121950 -0.216005
v -0.216005 0.121950 -0.374131
v -0.000000 0.215038 -0.259675
v 0.129837 0.215038 -0.224885
v 0.224885 0.215038 -0.129838
v 0.259675 0.215038 -0.000000
v 0.224885 0.215038 0.129837
v 0.129837 0.215038 0.224885
v -0.000000 0.215038 0.259675
v -0.129838 0.215038 0.224885
v -0.224885 0.215038 0.129837
v -0.259675 0.215038 -0.000000
v -0.224885 0.215038 -0.129838
v -0.129838 0.215038 -0.224885
v -0.108470 0.581616 -0.187875
v -0.187875 0.581616 -0.108470
v -0.216939 0.581617 -0.000001
v -0.187875 0.581617 0.108469
v -0.108469 0.581617 0.187874
v -0.000000 0.581617 0.216938
v 0.108469 0.581617 0.187874
v 0.187874 0.581617 0.108468
v 0.216938 0.581617 -0.000001
v 0.187874 0.581616 -0.108470
v 0.108469 0.581616 -0.187875
v -0.000000 0.581616 -0.216939
v -0.151957 1.030136 -0.263197
v -0.263197 1.030136 -0.151958
v -0.303913 1.030136 -0.000001
v -0.263196 1.030136 0.151955
v -0.151957 1.030136 0.263195
v -0.000000 1.030136 0.303911
v 0.151956 1.030136 0.263195
v 0.263196 1.030136 0.151955
v 0.303912 1.030136 -0.000001
v 0.263196 1.030136 -0.151958
v 0.151956 1.030136 -0.263197
v -0.000000 1.030136 -0.303914
v -0.100535 2.394640 -0.174133
v -0.174131 2.394640 -0.100537
v -0.201069 2.394640 -0.000003
v -0.174131 2.394640 0.100531
v -0.100535 2.394640 0.174128
v -0.000000 2.394640 0.201066
v 0.100534 2.394640 0.174128
v 0.174130 2.394640 0.100531
v 0.201068 2.394640 -0.000003
v 0.174130 2.394640 -0.100537
v 0.100534 2.394640 -0.174133
v -0.000000 2.394640 -0.201071
v -0.135875 2.744014 -0.235344
v -0.235342 2.744014 -0.135877
v -0.271749 2.744014 -0.000003
v -0.235342 2.744014 0.135871
v -0.135875 2.744014 0.235338
v -0.000000 2.744014 0.271746
v 0.135874 2.744014 0.235338
v 0.235341 2.744014 0.135871
v 0.271748 2.744014 -0.000003
v 0.235341 2.744014 -0.135878
v 0.135874 2.744014 -0.235345
v -0.000001 2.744014 -0.271752
v -0.185654 2.874219 -0.321564
v -0.321561 2.874219 -0.185656
v -0.371307 2.874219 -0.000003
v -0.321561 2.874219 0.185650
v -0.185653 2.874219 0.321557
v -0.000000 2.874219 0.371303
v 0.185653 2.874219 0.321557
v 0.321560 2.874219 0.185650
v 0.371306 2.874219 -0.000003
v 0.321560 2.874219 -0.185656
v 0.185653 2.874219 -0.321564
v -0.000000 2.874219 -0.371310
v -0.185654 2.975978 -0.321564
v -0.321561 2.975978 -0.185656
v -0.371307 2.975978 -0.000003
v -0.321561 2.975978 0.185650
v -0.185653 2.975978 0.321557
v -0.000000 2.975978 0.371303
v 0.185653 2.975978 0.321557
v 0.321560 2.975978 0.185650
v 0.371306 2.975978 -0.000003
v 0.321560 2.975978 -0.185657
v 0.185653 2.975978 -0.321564
v -0.000000 2.975978 -0.371310
v -0.227414 2.795860 -0.131300
v -0.262595 2.795860 -0.000003
v -0.000000 2.795860 -0.262597
v -0.131298 2.795860 -0.227416
v 0.227413 2.795860 0.131294
v 0.262594 2.795860 -0.000003
v -0.131297 2.795860 0.227410
v -0.000000 2.795860 0.262591
v 0.131297 2.795860 -0.227416
v 0.131297 2.795860 0.227410
v -0.227414 2.795860 0.131294
v 0.227413 2.795860 -0.131300
v -0.000000 2.621870 -0.158729
v -0.079363 2.621870 -0.137464
v 0.137460 2.621870 0.079360
v 0.158725 2.621870 -0.000003
v -0.079363 2.621870 0.137458
v -0.000000 2.621870 0.158723
v 0.079363 2.621870 -0.137464
v 0.079363 2.621870 0.137458
v -0.158726 2.621870 -0.000003
v -0.137461 2.621870 0.079360
v 0.137460 2.621870 -0.079366
v -0.137461 2.621870 -0.079366
vt 0.866441 0.034752
vt 0.866441 0.115190
vt 0.823842 0.115190
vt 0.823842 0.034752
vt 0.832870 0.304284
vt 0.832870 0.223846
vt 0.875469 0.223846
vt 0.875469 0.304284
vt 0.001970 0.808172
vt 0.082408 0.808172
vt 0.082408 0.850770
vt 0.001970 0.850770
vt 0.516071 0.800742
vt 0.596510 0.800742
vt 0.596510 0.843341
vt 0.516071 0.843341
vt 0.150524 0.808172
vt 0.230962 0.808172
vt 0.230962 0.850770
vt 0.150524 0.850770
vt 0.478446 0.912133
vt 0.478446 0.954731
vt 0.440391 0.951226
vt 0.440391 0.915638
vt 0.805819 0.621288
vt 0.805819 0.540850
vt 0.848417 0.540850
vt 0.848417 0.621288
vt 0.866441 0.119130
vt 0.866441 0.199568
vt 0.823842 0.199568
vt 0.823842 0.119130
vt 0.829987 0.415816
vt 0.829987 0.496254
vt 0.787389 0.496254
vt 0.787389 0.415816
vt 0.835990 0.777529
vt 0.835990 0.857967
vt 0.793391 0.857967
vt 0.793391 0.777529
vt 0.829987 0.331438
vt 0.829987 0.411876
vt 0.787389 0.411876
vt 0.787389 0.331438
vt 0.835990 0.693150
vt 0.835990 0.773589
vt 0.793391 0.773589
vt 0.793391 0.693150
vt 0.789451 0.767960
vt 0.789451 0.848398
vt 0.746852 0.848398
vt 0.746852 0.767960
vt 0.875763 0.576159
vt 0.875763 0.550121
vt 0.927680 0.540850
vt 0.927680 0.585430
vt 0.964205 0.772299
vt 0.964205 0.814897
vt 0.926150 0.811392
vt 0.926150 0.775804
vt 0.384672 0.921543
vt 0.384672 0.964142
vt 0.346617 0.960636
vt 0.346617 0.925048
vt 0.272957 0.964142
vt 0.234902 0.960636
vt 0.234902 0.925048
vt 0.272957 0.921543
vt 0.314952 0.921543
vt 0.314952 0.964142
vt 0.276897 0.960636
vt 0.276897 0.925048
vt 0.969675 0.680488
vt 0.931620 0.676982
vt 0.931620 0.641394
vt 0.969675 0.637889
vt 0.839930 0.907233
vt 0.877985 0.910738
vt 0.877985 0.946326
vt 0.839930 0.949831
vt 0.959636 0.949832
vt 0.921581 0.946326
vt 0.921581 0.910738
vt 0.959636 0.907233
vt 0.086348 0.964141
vt 0.086348 0.921543
vt 0.124403 0.925048
vt 0.124403 0.960636
vt 0.754336 0.968051
vt 0.716281 0.964545
vt 0.716281 0.928957
vt 0.754336 0.925452
vt 0.831446 0.969357
vt 0.793391 0.965852
vt 0.793391 0.930264
vt 0.831446 0.926758
vt 0.664625 0.682077
vt 0.664625 0.646488
vt 0.809240 0.639354
vt 0.809240 0.689210
vt 0.443692 0.761510
vt 0.443692 0.797098
vt 0.299078 0.804232
vt 0.299078 0.754376
vt 0.299078 0.743302
vt 0.299078 0.707714
vt 0.443692 0.700580
vt 0.443692 0.750436
vt 0.702680 0.950220
vt 0.664625 0.946715
vt 0.664625 0.911127
vt 0.702680 0.907621
vt 0.660685 0.754080
vt 0.660685 0.789668
vt 0.516071 0.796802
vt 0.516071 0.746946
vt 0.295138 0.707714
vt 0.295138 0.743302
vt 0.150524 0.750436
vt 0.150524 0.700580
vt 0.167192 0.927824
vt 0.167192 0.972403
vt 0.150524 0.971652
vt 0.150524 0.928575
vt 0.870381 0.173725
vt 0.922299 0.164455
vt 0.922299 0.209034
vt 0.870381 0.199764
vt 0.927680 0.598640
vt 0.927680 0.624679
vt 0.875763 0.633949
vt 0.875763 0.589370
vt 0.931326 0.281636
vt 0.931326 0.307675
vt 0.879409 0.316945
vt 0.879409 0.272366
vt 0.619933 0.596300
vt 0.671850 0.587029
vt 0.671850 0.631609
vt 0.619933 0.622338
vt 0.398535 0.908332
vt 0.346617 0.917603
vt 0.346617 0.873023
vt 0.398535 0.882294
vt 0.342677 0.908332
vt 0.290760 0.917603
vt 0.290760 0.873023
vt 0.342677 0.882294
vt 0.927680 0.647160
vt 0.927680 0.673198
vt 0.875763 0.682468
vt 0.875763 0.637889
vt 0.924734 0.499467
vt 0.924734 0.525506
vt 0.872817 0.534776
vt 0.872817 0.490197
vt 0.931326 0.233117
vt 0.931326 0.259155
vt 0.879409 0.268426
vt 0.879409 0.223846
vt 0.138266 0.908332
vt 0.086348 0.917603
vt 0.086348 0.873023
vt 0.138266 0.882294
vt 0.234902 0.882294
vt 0.286820 0.873023
vt 0.286820 0.917603
vt 0.234902 0.908332
vt 0.229015 0.972403
vt 0.212348 0.971652
vt 0.212348 0.928575
vt 0.229015 0.927824
vt 0.018638 0.927824
vt 0.018638 0.972403
vt 0.001970 0.971652
vt 0.001970 0.928575
vt 0.191740 0.972403
vt 0.191740 0.927824
vt 0.208408 0.928575
vt 0.208408 0.971652
vt 0.062882 0.927824
vt 0.062882 0.972403
vt 0.046214 0.971652
vt 0.046214 0.928575
vt 0.774944 0.970031
vt 0.758276 0.969280
vt 0.758276 0.926203
vt 0.774944 0.925452
vt 0.433421 0.808172
vt 0.433421 0.852751
vt 0.416753 0.852000
vt 0.416753 0.808922
vt 0.585470 0.972633
vt 0.568803 0.971882
vt 0.568803 0.928804
vt 0.585470 0.928053
vt 0.171132 0.927824
vt 0.187800 0.928575
vt 0.187800 0.971652
vt 0.171132 0.972403
vt 0.039246 0.972403
vt 0.022578 0.971652
vt 0.022578 0.928575
vt 0.039246 0.927824
vt 0.145011 0.921543
vt 0.145011 0.966122
vt 0.128343 0.965371
vt 0.128343 0.922293
vt 0.942907 0.209034
vt 0.926239 0.208283
vt 0.926239 0.165206
vt 0.942907 0.164455
vt 0.146584 0.707714
vt 0.146584 0.743302
vt 0.001970 0.750436
vt 0.001970 0.700580
vt 0.764548 0.320364
vt 0.619934 0.327498
vt 0.619934 0.277642
vt 0.764548 0.284776
vt 0.660685 0.735872
vt 0.516071 0.743006
vt 0.516071 0.693150
vt 0.660685 0.700284
vt 0.001970 0.761510
vt 0.146584 0.754376
vt 0.146584 0.804232
vt 0.001970 0.797098
vt 0.295138 0.797098
vt 0.150524 0.804232
vt 0.150524 0.754376
vt 0.295138 0.761510
vt 0.660685 0.682076
vt 0.516071 0.689210
vt 0.516071 0.639354
vt 0.660685 0.646488
vt 0.619934 0.230980
vt 0.764548 0.223846
vt 0.764548 0.273702
vt 0.619934 0.266568
vt 0.615993 0.381294
vt 0.182418 0.372859
vt 0.182418 0.339874
vt 0.615993 0.331438
vt 0.435545 0.592988
vt 0.435545 0.642844
vt 0.001970 0.634408
vt 0.001970 0.601424
vt 0.001970 0.535252
vt 0.001970 0.485396
vt 0.435545 0.493833
vt 0.435545 0.526817
vt 0.435544 0.646784
vt 0.435544 0.696640
vt 0.001970 0.688205
vt 0.001970 0.655220
vt 0.182418 0.277642
vt 0.615993 0.286077
vt 0.615993 0.319062
vt 0.182418 0.327498
vt 0.691136 0.051826
vt 0.257561 0.043390
vt 0.257561 0.010405
vt 0.691136 0.001970
vt 0.691137 0.105621
vt 0.257561 0.097186
vt 0.257561 0.064201
vt 0.691137 0.055766
vt 0.001970 0.481456
vt 0.001970 0.431600
vt 0.435546 0.440037
vt 0.435546 0.473022
vt 0.435545 0.539192
vt 0.435545 0.589048
vt 0.001970 0.580613
vt 0.001970 0.547628
vt 0.257561 0.163357
vt 0.691137 0.171792
vt 0.691137 0.204776
vt 0.257561 0.213213
vt 0.615994 0.223846
vt 0.615994 0.273702
vt 0.182418 0.265266
vt 0.182418 0.232282
vt 0.691137 0.159417
vt 0.257561 0.150981
vt 0.257561 0.117996
vt 0.691137 0.109561
vt 0.791767 0.534776
vt 0.718597 0.531303
vt 0.718597 0.505265
vt 0.791767 0.501791
vt 0.255588 0.418219
vt 0.182418 0.414745
vt 0.182418 0.388707
vt 0.255588 0.385234
vt 0.075140 0.887695
vt 0.001970 0.884222
vt 0.001970 0.858183
vt 0.075140 0.854710
vt 0.332698 0.385234
vt 0.332698 0.418219
vt 0.259528 0.414746
vt 0.259528 0.388707
vt 0.564027 0.418219
vt 0.490857 0.414746
vt 0.490857 0.388707
vt 0.564027 0.385234
vt 0.768247 0.217356
vt 0.695077 0.213883
vt 0.695077 0.187844
vt 0.768247 0.184371
vt 0.486917 0.418219
vt 0.413747 0.414745
vt 0.413747 0.388707
vt 0.486917 0.385234
vt 0.641972 0.898578
vt 0.568803 0.895105
vt 0.568803 0.869067
vt 0.641972 0.865594
vt 0.868877 0.501791
vt 0.868877 0.534776
vt 0.795707 0.531303
vt 0.795707 0.505264
vt 0.409807 0.385234
vt 0.409807 0.418219
vt 0.336638 0.414746
vt 0.336638 0.388707
vt 0.789451 0.852338
vt 0.789451 0.885323
vt 0.716281 0.881850
vt 0.716281 0.855811
vt 0.223694 0.887695
vt 0.150524 0.884222
vt 0.150524 0.858183
vt 0.223694 0.854710
vt 0.952397 0.392350
vt 0.920148 0.392350
vt 0.920148 0.331438
vt 0.952397 0.331438
vt 0.931620 0.536910
vt 0.931620 0.461702
vt 0.953215 0.461702
vt 0.953215 0.536910
vt 0.150524 0.923884
vt 0.150524 0.891635
vt 0.211436 0.891635
vt 0.211436 0.923884
vt 0.928580 0.023565
vt 0.853372 0.023565
vt 0.853372 0.001970
vt 0.928580 0.001970
vt 0.777193 0.889263
vt 0.777193 0.921512
vt 0.716281 0.921512
vt 0.716281 0.889263
vt 0.973628 0.099603
vt 0.973628 0.174811
vt 0.952033 0.174811
vt 0.952033 0.099603
vt 0.956861 0.223846
vt 0.956861 0.299054
vt 0.935266 0.299054
vt 0.935266 0.223846
vt 0.973280 0.693150
vt 0.973280 0.768358
vt 0.951685 0.768358
vt 0.951685 0.693150
vt 0.557594 0.933728
vt 0.482386 0.933728
vt 0.482386 0.912133
vt 0.557594 0.912133
vt 0.568803 0.902518
vt 0.644011 0.902518
vt 0.644011 0.924113
vt 0.568803 0.924113
vt 0.973628 0.020455
vt 0.973628 0.095663
vt 0.952033 0.095663
vt 0.952033 0.020455
vt 0.915844 0.099603
vt 0.948093 0.099603
vt 0.948093 0.160515
vt 0.915844 0.160515
vt 0.337769 0.996751
vt 0.318892 0.994582
vt 0.318892 0.923712
vt 0.337769 0.921543
vt 0.957155 0.540850
vt 0.976032 0.543019
vt 0.976032 0.613889
vt 0.957155 0.616058
vt 0.979678 0.226015
vt 0.979678 0.296885
vt 0.960801 0.299054
vt 0.960801 0.223846
vt 0.957155 0.534741
vt 0.957155 0.463871
vt 0.976032 0.461702
vt 0.976032 0.536910
vt 0.917641 0.982441
vt 0.898764 0.980272
vt 0.898764 0.909402
vt 0.917641 0.907233
vt 0.979153 0.404477
vt 0.979153 0.333607
vt 0.998030 0.331438
vt 0.998030 0.406646
vt 0.976646 0.903293
vt 0.957770 0.901124
vt 0.957770 0.830254
vt 0.976646 0.828085
vt 0.996444 0.095663
vt 0.977567 0.093494
vt 0.977567 0.022624
vt 0.996444 0.020455
vt 0.975213 0.333607
vt 0.975213 0.404477
vt 0.956337 0.406646
vt 0.956337 0.331438
vt 0.977220 0.693150
vt 0.996097 0.695319
vt 0.996097 0.766189
vt 0.977220 0.768358
vt 0.996444 0.174811
vt 0.977568 0.172642
vt 0.977568 0.101772
vt 0.996444 0.099603
vt 0.178478 0.427660
vt 0.060806 0.427660
vt 0.001970 0.325753
vt 0.178478 0.223846
vt 0.664625 0.824694
vt 0.664625 0.782095
vt 0.725068 0.767960
vt 0.725068 0.838830
vt 0.789451 0.764020
vt 0.729008 0.749885
vt 0.729008 0.707286
vt 0.789451 0.693150
vt 0.759460 0.091486
vt 0.759460 0.048887
vt 0.819902 0.034752
vt 0.819902 0.105621
vt 0.828930 0.294716
vt 0.768488 0.280581
vt 0.768488 0.237982
vt 0.828930 0.223846
vt 0.512131 0.832871
vt 0.451689 0.818735
vt 0.451689 0.776137
vt 0.512131 0.762001
vt 0.759460 0.166296
vt 0.759460 0.123697
vt 0.819902 0.109561
vt 0.819902 0.180431
vt 0.755520 0.123697
vt 0.755520 0.166296
vt 0.695077 0.180431
vt 0.695077 0.109561
vt 0.737496 0.611720
vt 0.677053 0.597584
vt 0.677053 0.554986
vt 0.737496 0.540850
vt 0.755520 0.105621
vt 0.695077 0.091486
vt 0.695077 0.048887
vt 0.755520 0.034752
vt 0.725068 0.764020
vt 0.664625 0.749885
vt 0.664625 0.707286
vt 0.725068 0.693150
vt 0.741436 0.597584
vt 0.741436 0.554985
vt 0.801879 0.540850
vt 0.801879 0.611720
vt 0.963576 0.980272
vt 0.963576 0.909402
vt 0.982453 0.907233
vt 0.982453 0.982441
vt 0.325828 0.817088
vt 0.367350 0.808172
vt 0.367350 0.869083
vt 0.325828 0.860166
vt 0.600450 0.809659
vt 0.641972 0.800742
vt 0.641972 0.861654
vt 0.600450 0.852737
vt 0.512131 0.701327
vt 0.512131 0.743926
vt 0.451689 0.758061
vt 0.451689 0.687191
vt 0.412813 0.860166
vt 0.371290 0.869083
vt 0.371290 0.808172
vt 0.412813 0.817088
vt 0.086348 0.817088
vt 0.127871 0.808172
vt 0.127871 0.869083
vt 0.086348 0.860166
vt 0.881452 0.894376
vt 0.839930 0.903293
vt 0.839930 0.842381
vt 0.881452 0.851298
vt 0.451689 0.845728
vt 0.493211 0.836811
vt 0.493211 0.897722
vt 0.451689 0.888805
vt 0.664625 0.894764
vt 0.664625 0.851687
vt 0.706148 0.842770
vt 0.706148 0.903681
vt 0.870381 0.108520
vt 0.911904 0.099603
vt 0.911904 0.160515
vt 0.870381 0.151598
vt 0.516071 0.856198
vt 0.557594 0.847281
vt 0.557594 0.908193
vt 0.516071 0.899276
vt 0.321888 0.860166
vt 0.280365 0.869083
vt 0.280365 0.808172
vt 0.321888 0.817089
vt 0.870381 0.043669
vt 0.911904 0.034752
vt 0.911904 0.095663
vt 0.870381 0.086746
vt 0.234902 0.860166
vt 0.234902 0.817089
vt 0.276425 0.808172
vt 0.276425 0.869083
vt 0.917641 0.903293
vt 0.885392 0.903293
vt 0.885392 0.842381
vt 0.917641 0.842381
vt 0.947745 0.693150
vt 0.947745 0.768359
vt 0.926150 0.768359
vt 0.926150 0.693150
vt 0.434724 0.933935
vt 0.402475 0.933935
vt 0.402475 0.873023
vt 0.434724 0.873023
vt 0.931620 0.616058
vt 0.931620 0.540850
vt 0.953215 0.540850
vt 0.953215 0.616058
vt 0.774224 0.001970
vt 0.849432 0.001970
vt 0.849432 0.023565
vt 0.774224 0.023565
vt 0.695076 0.001970
vt 0.770284 0.001970
vt 0.770284 0.023565
vt 0.695076 0.023565
vt 0.845428 0.689210
vt 0.813179 0.689210
vt 0.813179 0.628299
vt 0.845428 0.628299
vt 0.825640 0.922818
vt 0.793391 0.922818
vt 0.793391 0.861907
vt 0.825640 0.861907
vt 0.915844 0.034752
vt 0.948093 0.034752
vt 0.948093 0.095663
vt 0.915844 0.095663
vt 0.920148 0.396290
vt 0.952397 0.396290
vt 0.952397 0.457201
vt 0.920148 0.457201
vt 0.921581 0.842381
vt 0.953830 0.842381
vt 0.953830 0.903293
vt 0.921581 0.903293
vt 0.127796 0.001970
vt 0.253621 0.074615
vt 0.253621 0.219906
vt 0.001970 0.219906
vt 0.673113 0.583089
vt 0.619933 0.529909
vt 0.673113 0.331438
vt 0.714657 0.536910
vt 0.677053 0.471778
vt 0.714657 0.331438
vt 0.853393 0.476729
vt 0.833927 0.404083
vt 0.853393 0.331438
vt 0.871823 0.686141
vt 0.852357 0.613496
vt 0.871823 0.540850
vt 0.859395 0.838441
vt 0.839930 0.765796
vt 0.859395 0.693150
vt 0.882800 0.838441
vt 0.863335 0.765796
vt 0.882800 0.693150
vt 0.876798 0.476729
vt 0.857333 0.404083
vt 0.876798 0.331438
vt 0.512131 0.683251
vt 0.439486 0.557426
vt 0.512131 0.431600
vt 0.902505 0.810823
vt 0.886740 0.751986
vt 0.902505 0.693150
vt 0.896503 0.449110
vt 0.880738 0.390274
vt 0.896503 0.331438
vt 0.916208 0.449110
vt 0.900443 0.390274
vt 0.916208 0.331438
vt 0.718597 0.384189
vt 0.749053 0.331438
vt 0.749053 0.497851
vt 0.563082 0.474671
vt 0.606153 0.431600
vt 0.606153 0.635414
vt 0.922210 0.810822
vt 0.906445 0.751986
vt 0.922210 0.693150
vt 0.752993 0.384189
vt 0.783449 0.331438
vt 0.783449 0.497851
vt 0.516071 0.474671
vt 0.559142 0.431600
vt 0.559142 0.635414
vt 0.062882 0.891635
vt 0.062882 0.923884
vt 0.001970 0.923884
vt 0.001970 0.891635
vn 0.2588 0.0000 0.9659
vn -0.9659 -0.0000 -0.2588
vn -0.9659 0.0000 0.2588
vn -0.2588 -0.0000 -0.9659
vn 0.9659 -0.0000 -0.2588
vn -0.6640 0.3438 0.6640
vn -0.7071 -0.0000 -0.7071
vn -0.7071 0.0000 0.7071
vn 0.7071 -0.0000 -0.7071
vn 0.7071 0.0000 0.7071
vn 0.2588 -0.0000 -0.9659
vn 0.9659 0.0000 0.2588
vn -0.2588 0.0000 0.9659
vn -0.7202 -0.6664 0.1930
vn -0.6640 0.3438 -0.6640
vn -0.9071 0.3438 0.2430
vn 0.9071 0.3438 0.2430
vn -0.2430 0.3438 -0.9071
vn 0.2430 0.3438 -0.9071
vn -0.2430 0.3438 0.9071
vn 0.6640 0.3438 0.6640
vn -0.9071 0.3438 -0.2430
vn 0.6640 0.3438 -0.6640
vn 0.9071 0.3438 -0.2430
vn -0.2544 -0.1841 0.9494
vn 0.6950 -0.1841 0.6950
vn 0.9494 -0.1841 -0.2544
vn 0.2430 0.3438 0.9071
vn -0.9494 -0.1841 0.2544
vn -0.6950 -0.1841 -0.6950
vn 0.9522 0.1681 -0.2551
vn -0.7202 -0.6664 -0.1930
vn 0.5272 -0.6664 0.5272
vn 0.7202 -0.6664 0.1930
vn -0.1930 -0.6664 -0.7202
vn 0.7202 -0.6664 -0.1930
vn 0.1930 -0.6664 -0.7202
vn -0.5272 -0.6664 0.5272
vn -0.1930 -0.6664 0.7202
vn 0.1930 -0.6664 0.7202
vn 0.5272 -0.6664 -0.5272
vn -0.5272 -0.6664 -0.5272
vn -0.2551 0.1681 0.9522
vn -0.6970 0.1681 -0.6970
vn -0.2551 0.1681 -0.9522
vn 0.6970 0.1681 -0.6970
vn 0.2551 0.1681 0.9522
vn -0.9522 0.1681 -0.2551
vn 0.9522 0.1681 0.2551
vn -0.9522 0.1681 0.2551
vn 0.6970 0.1681 0.6970
vn 0.2551 0.1681 -0.9522
vn -0.6970 0.1681 0.6970
vn 0.2544 -0.1841 -0.9494
vn -0.9494 -0.1841 -0.2544
vn -0.6950 -0.1841 0.6950
vn 0.6950 -0.1841 -0.6950
vn 0.2544 -0.1841 0.9494
vn -0.2544 -0.1841 -0.9494
vn 0.9494 -0.1841 0.2544
vn 0.9634 0.0726 -0.2581
vn -0.2581 0.0726 -0.9634
vn 0.9634 0.0726 0.2581
vn 0.7052 0.0726 -0.7052
vn -0.7052 0.0726 -0.7052
vn -0.2581 0.0726 0.9634
vn 0.2581 0.0726 -0.9634
vn -0.7052 0.0726 0.7052
vn 0.2581 0.0726 0.9634
vn 0.7052 0.0726 0.7052
vn -0.9634 0.0726 -0.2581
vn -0.9634 0.0726 0.2581
vn -0.9506 0.1771 0.2547
vn -0.6959 0.1771 -0.6959
vn -0.6959 0.1771 0.6959
vn 0.9506 0.1771 -0.2547
vn 0.2547 0.1771 0.9506
vn -0.2547 0.1771 0.9506
vn 0.6959 0.1771 0.6959
vn 0.9506 0.1771 0.2547
vn 0.6959 0.1771 -0.6959
vn -0.2547 0.1771 -0.9506
vn 0.2547 0.1771 -0.9506
vn -0.9506 0.1771 -0.2547
vn -0.6388 0.4289 0.6388
vn 0.8726 0.4289 -0.2338
vn 0.2338 0.4289 -0.8726
vn 0.6388 0.4289 -0.6388
vn 0.2338 0.4289 0.8726
vn 0.6388 0.4289 0.6388
vn -0.8726 0.4289 0.2338
vn -0.8726 0.4289 -0.2338
vn -0.2338 0.4289 -0.8726
vn -0.2338 0.4289 0.8726
vn -0.6388 0.4289 -0.6388
vn 0.0000 1.0000 0.0000
vn -0.4715 0.8728 0.1263
vn -0.1263 0.8728 -0.4715
vn -0.1263 0.8728 0.4714
vn -0.3451 0.8728 -0.3451
vn -0.4715 0.8728 -0.1263
vn -0.3451 0.8728 0.3451
vn 0.4714 0.8728 0.1263
vn 0.4714 0.8728 -0.1263
vn 0.3451 0.8728 -0.3451
vn 0.1263 0.8728 -0.4715
vn 0.1263 0.8728 0.4714
vn 0.8726 0.4289 0.2338
vn -0.5777 -0.8015 -0.1548
vn 0.5777 -0.8015 -0.1548
vn 0.3451 0.8728 0.3451
vn 0.1548 -0.8015 0.5777
vn -0.1548 -0.8015 -0.5777
vn 0.5777 -0.8015 0.1548
vn -0.5777 -0.8015 0.1548
vn -0.4229 -0.8015 -0.4229
vn 0.4229 -0.8015 0.4229
vn 0.4229 -0.8015 -0.4229
vn -0.4229 -0.8015 0.4229
vn -0.1548 -0.8015 0.5777
vn 0.1548 -0.8015 -0.5777
vn 0.0000 -1.0000 0.0000
g Column_Egypt_3_Column_Egypt_3_Collor_Material
usemtl Collor_Material
s off
f 54/1/1 14/2/1 12/3/1 55/4/1
f 58/5/2 6/6/2 4/7/2 59/8/2
f 57/9/3 8/10/3 6/11/3 58/12/3
f 60/13/4 2/14/4 24/15/4 49/16/4
f 51/17/5 20/18/5 18/19/5 52/20/5
f 8/21/6 10/22/6 65/23/6 64/24/6
f 59/25/7 4/26/7 2/27/7 60/28/7
f 56/29/8 10/30/8 8/31/8 57/32/8
f 50/33/9 22/34/9 20/35/9 51/36/9
f 53/37/10 16/38/10 14/39/10 54/40/10
f 49/41/11 24/42/11 22/43/11 50/44/11
f 52/45/12 18/46/12 16/47/12 53/48/12
f 55/49/13 12/50/13 10/51/13 56/52/13
f 153/53/14 154/54/14 100/55/14 99/56/14
f 2/57/15 4/58/15 62/59/15 61/60/15
f 6/61/16 8/62/16 64/63/16 63/64/16
f 18/65/17 69/66/17 68/67/17 16/68/17
f 24/69/18 2/70/18 61/71/18 72/72/18
f 24/73/19 72/74/19 71/75/19 22/76/19
f 12/77/20 66/78/20 65/79/20 10/80/20
f 16/81/21 68/82/21 67/83/21 14/84/21
f 4/85/22 6/86/22 63/87/22 62/88/22
f 22/89/23 71/90/23 70/91/23 20/92/23
f 20/93/24 70/94/24 69/95/24 18/96/24
f 65/97/25 66/98/25 78/99/25 77/100/25
f 67/101/26 68/102/26 80/103/26 79/104/26
f 69/105/27 70/106/27 82/107/27 81/108/27
f 14/109/28 67/110/28 66/111/28 12/112/28
f 63/113/29 64/114/29 76/115/29 75/116/29
f 61/117/30 62/118/30 74/119/30 73/120/30
f 105/121/31 106/122/31 144/123/31 138/124/31
f 153/125/32 99/126/32 98/127/32 156/128/32
f 152/129/33 147/130/33 104/131/33 103/132/33
f 147/133/34 148/134/34 105/135/34 104/136/34
f 146/137/35 97/138/35 108/139/35 145/140/35
f 155/141/36 106/142/36 105/143/36 148/144/36
f 145/145/37 108/146/37 107/147/37 151/148/37
f 154/149/38 149/150/38 101/151/38 100/152/38
f 149/153/39 150/154/39 102/155/39 101/156/39
f 150/157/40 152/158/40 103/159/40 102/160/40
f 151/161/41 107/162/41 106/163/41 155/164/41
f 156/165/42 98/166/42 97/167/42 146/168/42
f 102/169/43 140/170/43 139/171/43 101/172/43
f 97/173/44 98/174/44 133/175/44 136/176/44
f 108/177/45 97/178/45 136/179/45 135/180/45
f 106/181/46 107/182/46 141/183/46 144/184/46
f 103/185/47 142/186/47 140/187/47 102/188/47
f 98/189/48 99/190/48 134/191/48 133/192/48
f 105/193/49 138/194/49 137/195/49 104/196/49
f 100/197/50 143/198/50 134/199/50 99/200/50
f 104/201/51 137/202/51 142/203/51 103/204/51
f 107/205/52 108/206/52 135/207/52 141/208/52
f 101/209/53 139/210/53 143/211/53 100/212/53
f 71/213/54 72/214/54 84/215/54 83/216/54
f 63/217/55 75/218/55 74/219/55 62/220/55
f 65/221/56 77/222/56 76/223/56 64/224/56
f 71/225/57 83/226/57 82/227/57 70/228/57
f 67/229/58 79/230/58 78/231/58 66/232/58
f 61/233/59 73/234/59 84/235/59 72/236/59
f 69/237/60 81/238/60 80/239/60 68/240/60
f 82/241/61 94/242/61 93/243/61 81/244/61
f 84/245/62 73/246/62 85/247/62 96/248/62
f 80/249/63 81/250/63 93/251/63 92/252/63
f 82/253/64 83/254/64 95/255/64 94/256/64
f 74/257/65 86/258/65 85/259/65 73/260/65
f 78/261/66 90/262/66 89/263/66 77/264/66
f 84/265/67 96/266/67 95/267/67 83/268/67
f 76/269/68 77/270/68 89/271/68 88/272/68
f 78/273/69 79/274/69 91/275/69 90/276/69
f 80/277/70 92/278/70 91/279/70 79/280/70
f 74/281/71 75/282/71 87/283/71 86/284/71
f 76/285/72 88/286/72 87/287/72 75/288/72
f 88/289/73 154/290/73 153/291/73 87/292/73
f 86/293/74 156/294/74 146/295/74 85/296/74
f 89/297/75 149/298/75 154/299/75 88/300/75
f 93/301/76 94/302/76 155/303/76 148/304/76
f 91/305/77 152/306/77 150/307/77 90/308/77
f 90/309/78 150/310/78 149/311/78 89/312/78
f 92/313/79 147/314/79 152/315/79 91/316/79
f 93/317/80 148/318/80 147/319/80 92/320/80
f 94/321/81 95/322/81 151/323/81 155/324/81
f 96/325/82 85/326/82 146/327/82 145/328/82
f 95/329/83 96/330/83 145/331/83 151/332/83
f 87/333/84 153/334/84 156/335/84 86/336/84
f 116/337/10 128/338/10 127/339/10 115/340/10
f 26/341/9 27/342/9 5/343/9 3/344/9
f 115/345/1 127/346/1 126/347/1 114/348/1
f 34/349/2 35/350/2 21/351/2 19/352/2
f 109/353/4 121/354/4 132/355/4 120/356/4
f 32/357/8 33/358/8 17/359/8 15/360/8
f 28/361/12 29/362/12 9/363/12 7/364/12
f 27/365/5 28/366/5 7/367/5 5/368/5
f 25/369/11 26/370/11 3/371/11 1/372/11
f 31/373/13 32/374/13 15/375/13 13/376/13
f 35/377/7 36/378/7 23/379/7 21/380/7
f 114/381/13 126/382/13 125/383/13 113/384/13
f 32/385/85 44/386/85 45/387/85 33/388/85
f 27/389/86 39/390/86 40/391/86 28/392/86
f 37/393/87 38/394/87 26/395/87 25/396/87
f 38/397/88 39/398/88 27/399/88 26/400/88
f 30/401/89 42/402/89 43/403/89 31/404/89
f 41/405/90 42/406/90 30/407/90 29/408/90
f 33/409/91 45/410/91 46/411/91 34/412/91
f 34/413/92 46/414/92 47/415/92 35/416/92
f 48/417/93 37/418/93 25/419/93 36/420/93
f 31/421/94 43/422/94 44/423/94 32/424/94
f 35/425/95 47/426/95 48/427/95 36/428/95
f 130/429/96 132/430/96 122/431/96 126/432/96
f 57/433/97 58/434/97 46/435/97 45/436/97
f 48/437/98 60/438/98 49/439/98 37/440/98
f 55/441/99 56/442/99 44/443/99 43/444/99
f 47/445/100 59/446/100 60/447/100 48/448/100
f 46/449/101 58/450/101 59/451/101 47/452/101
f 56/453/102 57/454/102 45/455/102 44/456/102
f 52/457/103 53/458/103 41/459/103 40/460/103
f 39/461/104 51/462/104 52/463/104 40/464/104
f 38/465/105 50/466/105 51/467/105 39/468/105
f 37/469/106 49/470/106 50/471/106 38/472/106
f 54/473/107 55/474/107 43/475/107 42/476/107
f 40/477/108 41/478/108 29/479/108 28/480/108
f 134/481/109 111/482/109 110/483/109 133/484/109
f 144/485/110 118/486/110 117/487/110 138/488/110
f 53/489/111 54/490/111 42/491/111 41/492/111
f 142/493/112 115/494/112 114/495/112 140/496/112
f 136/497/113 109/498/113 120/499/113 135/500/113
f 138/501/114 117/502/114 116/503/114 137/504/114
f 143/505/115 112/506/115 111/507/115 134/508/115
f 136/509/116 133/510/116 110/511/116 109/512/116
f 137/513/117 116/514/117 115/515/117 142/516/117
f 141/517/118 119/518/118 118/519/118 144/520/118
f 139/521/119 113/522/119 112/523/119 143/524/119
f 140/525/120 114/526/120 113/527/120 139/528/120
f 141/529/121 135/530/121 120/531/121 119/532/121
f 118/533/5 130/534/5 129/535/5 117/536/5
f 36/537/4 25/538/4 1/539/4 23/540/4
f 112/541/3 124/542/3 123/543/3 111/544/3
f 33/545/3 34/546/3 19/547/3 17/548/3
f 30/549/1 31/550/1 13/551/1 11/552/1
f 29/553/10 30/554/10 11/555/10 9/556/10
f 111/557/2 123/558/2 122/559/2 110/560/2
f 117/561/12 129/562/12 128/563/12 116/564/12
f 113/565/8 125/566/8 124/567/8 112/568/8
f 110/569/7 122/570/7 121/571/7 109/572/7
f 119/573/9 131/574/9 130/575/9 118/576/9
f 15/577/122 19/578/122 23/579/122 7/580/122
f 23/581/122 1/582/122 7/583/122
f 1/584/122 3/585/122 7/586/122
f 3/587/122 5/588/122 7/589/122
f 7/590/122 9/591/122 11/592/122
f 11/593/122 13/594/122 15/595/122
f 15/596/122 17/597/122 19/598/122
f 19/599/122 21/600/122 23/601/122
f 7/602/122 11/603/122 15/604/122
f 130/605/96 131/606/96 132/607/96
f 132/608/96 121/609/96 122/610/96
f 122/611/96 123/612/96 124/613/96
f 124/614/96 125/615/96 122/616/96
f 125/617/96 126/618/96 122/619/96
f 126/620/96 127/621/96 128/622/96
f 128/623/96 129/624/96 126/625/96
f 129/626/96 130/627/96 126/628/96
f 120/629/11 132/630/11 131/631/11 119/632/11
