# Blender v3.0.0 OBJ File: 'aa.blend'
# www.blender.org
mtllib Column_V1_4.mtl
o Column_V1_4
v 0.396719 0.000000 0.184082
v 0.203243 0.000000 0.319237
v -0.400579 0.585041 0.274301
v -0.291303 1.603074 0.340635
v -0.315910 2.293246 0.381976
v -0.421545 2.293350 0.278091
v -0.344519 -0.000000 -0.258027
v -0.346617 1.595006 -0.201029
v -0.259456 1.632663 -0.379258
v -0.392539 2.295152 -0.227751
v -0.273674 2.293786 -0.373891
v 0.170355 -0.000000 -0.401233
v 0.297949 -0.000000 -0.359054
v 0.226420 2.294455 -0.408442
v 0.279152 2.292384 -0.280647
v 0.283157 2.503573 0.487639
v 0.501049 2.468306 -0.329981
v 0.243243 2.470378 0.521254
v -0.532976 2.504396 0.365837
v -0.568234 2.467029 0.388287
v -0.455335 2.499547 0.489888
v -0.468468 2.467636 0.522006
v -0.417821 2.467839 -0.539280
v -0.531554 2.500961 -0.376457
v -0.565934 2.467072 -0.390219
v -0.427136 2.294363 0.478951
v -0.475544 2.348670 0.526955
v -0.562357 2.346802 0.427590
v -0.520165 2.294895 0.385747
v -0.521032 2.294067 -0.345835
v -0.564660 2.348340 -0.390453
v -0.416922 2.348566 -0.540238
v -0.372704 2.293263 -0.494764
v 0.338888 2.294923 -0.493905
v 0.385158 2.346438 -0.542395
v 0.452804 2.290307 -0.382498
v -0.379070 2.504383 0.139313
v 0.496941 2.383016 -0.425450
v 0.473285 2.356687 -0.485950
v -0.316705 0.340100 -0.252396
v -0.428350 -0.000000 -0.040662
v -0.393407 0.341103 -0.090617
v 0.271199 2.292297 0.359573
v 0.326565 2.298072 0.299292
v 0.212988 1.432879 0.315262
v 0.183665 0.584900 0.336043
v 0.219098 1.626511 0.318824
v 0.285544 1.629524 0.240593
v 0.324995 2.502370 -0.405176
v 0.477801 2.483720 -0.480541
v 0.496095 2.464883 0.381290
v 0.416609 2.481717 0.475838
v 0.409048 2.299549 0.414091
v 0.431372 2.295842 0.424349
v 0.474334 2.348738 0.522874
v 0.397283 2.297294 0.456320
v 0.496974 2.444452 0.449236
v 0.448297 2.454830 0.484064
v 0.440856 2.434896 0.506769
v 0.479186 2.369308 0.515432
v 0.497757 2.430883 0.448725
v -0.113802 2.467859 0.563705
v -0.168995 2.295595 -0.520978
v -0.086874 2.502536 0.534514
v -0.149175 2.505378 -0.040220
v -0.014864 2.291589 0.512946
v -0.070016 2.350224 0.568336
v 0.071395 2.347912 0.567722
v -0.048313 2.399431 0.571561
v -0.078643 2.346999 -0.559763
v -0.108480 2.319898 -0.536276
v -0.285562 2.349498 -0.553073
v -0.119666 2.399204 -0.551208
v -0.369905 2.500918 -0.502332
v -0.379611 2.464615 -0.537477
v -0.398520 2.480635 -0.536927
v -0.392662 2.503229 -0.514659
v 0.308497 2.457651 -0.530685
v 0.309532 2.489257 -0.498160
v 0.018010 2.482592 -0.481437
v -0.057365 2.418192 -0.548966
v -0.293417 0.774291 0.353571
v -0.444393 0.000000 0.326770
v 0.360879 0.254540 0.206400
v 0.328092 0.373860 0.137743
v 0.337896 0.427029 0.214590
v 0.299808 0.407899 0.243704
v 0.228931 0.576299 -0.338795
v 0.151215 0.475526 -0.375734
v 0.060244 0.536870 -0.346535
v 0.179554 1.194153 -0.379258
v 0.175297 1.387343 -0.388160
v 0.065628 1.533576 -0.379258
v 0.188867 1.615641 -0.379258
v 0.227594 1.571575 -0.343398
v 0.302561 0.950219 0.228010
v 0.270611 1.292793 0.179674
v 0.279363 1.457121 0.236153
v 0.229812 1.415954 0.291138
v -0.385120 1.764730 0.283979
v -0.375690 1.630948 0.255444
v -0.380269 1.370797 0.286875
vt 0.673836 0.642003
vt 0.662113 0.582922
vt 0.673836 0.576307
vt 0.585640 0.222060
vt 0.682225 0.129815
vt 0.682225 0.253005
vt 0.592752 0.932964
vt 0.592752 0.979068
vt 0.573240 0.952233
vt 0.719446 0.129815
vt 0.719446 0.259668
vt 0.685910 0.249494
vt 0.114544 0.915821
vt 0.138362 0.811286
vt 0.138362 0.943923
vt 0.635966 0.799158
vt 0.635966 0.963923
vt 0.607722 0.928237
vt 0.573240 0.902448
vt 0.600828 0.821398
vt 0.600828 0.929279
vt 0.235779 0.691207
vt 0.233621 0.667139
vt 0.235779 0.661709
vt 0.520083 0.880109
vt 0.538944 0.657473
vt 0.538944 0.905014
vt 0.476705 0.869313
vt 0.503381 0.841991
vt 0.503381 0.935563
vt 0.796413 0.495458
vt 0.831871 0.265083
vt 0.831871 0.522673
vt 0.387763 0.791904
vt 0.427787 0.657473
vt 0.427787 0.851054
vt 0.762897 0.528477
vt 0.762897 0.596824
vt 0.732228 0.537972
vt 0.410211 0.963240
vt 0.387763 0.875279
vt 0.410211 0.854739
vt 0.968643 0.230223
vt 0.968643 0.259249
vt 0.950482 0.232300
vt 0.079806 0.948060
vt 0.109424 0.921276
vt 0.109424 0.954679
vt 0.131102 0.947607
vt 0.131102 0.980786
vt 0.114544 0.955353
vt 0.253285 0.871073
vt 0.253285 0.915771
vt 0.208405 0.905221
vt 0.121751 0.340871
vt 0.001842 0.232213
vt 0.121751 0.001842
vt 0.904212 0.954515
vt 0.913177 0.947396
vt 0.913177 0.982881
vt 0.516398 0.838306
vt 0.476705 0.691839
vt 0.516398 0.657473
vt 0.917814 0.763918
vt 0.943856 0.612534
vt 0.943856 0.818378
vt 0.667167 0.957013
vt 0.639650 0.829215
vt 0.667167 0.799158
vt 0.837855 0.798911
vt 0.863609 0.770866
vt 0.863609 0.961652
vt 0.812970 0.933710
vt 0.782479 0.818011
vt 0.812970 0.799331
vt 0.581955 0.157886
vt 0.404100 0.152500
vt 0.581955 0.001842
vt 0.210588 0.381835
vt 0.247212 0.334017
vt 0.247212 0.486698
vt 0.797040 0.584665
vt 0.797040 0.606610
vt 0.766581 0.590579
vt 0.665955 0.795473
vt 0.607722 0.759692
vt 0.665955 0.655169
vt 0.908535 0.943711
vt 0.885930 0.912407
vt 0.908535 0.826711
vt 0.030386 0.971994
vt 0.051404 0.929927
vt 0.051404 0.975093
vt 0.723131 0.200988
vt 0.766717 0.188385
vt 0.766717 0.210472
vt 0.238012 0.919456
vt 0.238012 0.954013
vt 0.208405 0.953638
vt 0.134786 0.949867
vt 0.144539 0.947607
vt 0.144539 0.979405
vt 0.672961 0.655169
vt 0.672961 0.679637
vt 0.669639 0.674830
vt 0.335811 0.787058
vt 0.182673 0.763236
vt 0.335811 0.741686
vt 0.885938 0.607141
vt 0.835556 0.477640
vt 0.885938 0.473775
vt 0.768662 0.908017
vt 0.730088 0.772048
vt 0.768662 0.769826
vt 0.239445 0.633903
vt 0.239445 0.658024
vt 0.233621 0.648636
vt 0.809933 0.970572
vt 0.782479 0.957454
vt 0.809933 0.937395
vt 0.518022 0.985838
vt 0.507177 0.963866
vt 0.518022 0.955892
vt 0.914129 0.823026
vt 0.885930 0.791156
vt 0.914129 0.612534
vt 0.774470 0.968096
vt 0.756138 0.928433
vt 0.774470 0.911702
vt 0.564355 0.468918
vt 0.561152 0.467394
vt 0.564355 0.451880
vt 0.990807 0.995784
vt 0.978004 0.962780
vt 0.990807 0.932898
vt 0.969254 0.978623
vt 0.947540 0.826949
vt 0.969254 0.791623
vt 0.238202 0.552631
vt 0.233621 0.548049
vt 0.238202 0.517145
vt 0.376050 0.798315
vt 0.384078 0.780325
vt 0.384078 0.983636
vt 0.882827 0.257841
vt 0.856123 0.236124
vt 0.882827 0.218863
vt 0.384078 0.670911
vt 0.384078 0.776641
vt 0.351456 0.716857
vt 0.331104 0.871073
vt 0.331104 0.953725
vt 0.308369 0.943770
vt 0.425124 0.948509
vt 0.413895 0.862674
vt 0.425124 0.854739
vt 0.458264 0.943254
vt 0.458264 0.976430
vt 0.448173 0.966653
vt 0.423751 0.984949
vt 0.413895 0.974935
vt 0.423751 0.952193
vt 0.531704 0.955892
vt 0.531704 0.977138
vt 0.521707 0.962826
vt 0.364380 0.977865
vt 0.348114 0.972795
vt 0.347742 0.964689
vt 0.364380 0.953700
vt 0.987881 0.528323
vt 0.987881 0.605433
vt 0.976195 0.530166
vt 0.256970 0.933228
vt 0.281762 0.916431
vt 0.281762 0.960565
vt 0.182673 0.848013
vt 0.344058 0.830484
vt 0.344058 0.867389
vt 0.431472 0.675326
vt 0.473020 0.657473
vt 0.473020 0.831892
vt 0.949962 0.590228
vt 0.959179 0.473221
vt 0.968728 0.480760
vt 0.968728 0.601796
vt 0.544549 0.858336
vt 0.569555 0.821398
vt 0.569555 0.945424
vt 0.239702 0.583978
vt 0.233621 0.577550
vt 0.239702 0.556316
vt 0.730088 0.934735
vt 0.752454 0.911702
vt 0.752454 0.962635
vt 0.835556 0.419707
vt 0.868807 0.265083
vt 0.868807 0.470090
vt 0.726404 0.769826
vt 0.726404 0.906622
vt 0.678152 0.814409
vt 0.778698 0.899856
vt 0.772346 0.775988
vt 0.778698 0.769826
vt 0.852438 0.223181
vt 0.814582 0.126236
vt 0.852438 0.001842
vt 0.001842 0.829211
vt 0.026701 0.805205
vt 0.026701 0.956661
vt 0.831006 0.799331
vt 0.831006 0.957187
vt 0.816655 0.905580
vt 0.547654 0.467821
vt 0.542428 0.461613
vt 0.547654 0.451880
vt 0.972510 0.265083
vt 0.972510 0.452083
vt 0.946664 0.346705
vt 0.914363 0.001842
vt 0.914363 0.249383
vt 0.891177 0.225339
vt 0.969788 0.226539
vt 0.950482 0.024145
vt 0.969788 0.001842
vt 0.942979 0.488515
vt 0.917806 0.279533
vt 0.942979 0.265083
vt 0.922652 0.514145
vt 0.946277 0.496067
vt 0.946277 0.601796
vt 0.914122 0.426899
vt 0.872492 0.348657
vt 0.914122 0.265083
vt 0.580535 0.254940
vt 0.565378 0.209686
vt 0.580535 0.161571
vt 0.792729 0.524792
vt 0.732228 0.361202
vt 0.792729 0.265083
vt 0.309867 0.732458
vt 0.243485 0.721463
vt 0.309867 0.670911
vt 0.889623 0.529032
vt 0.918967 0.496067
vt 0.918967 0.607141
vt 0.252028 0.966482
vt 0.241697 0.952396
vt 0.252028 0.919456
vt 0.304298 0.916431
vt 0.304298 0.969997
vt 0.285447 0.945352
vt 0.939965 0.953106
vt 0.917814 0.841712
vt 0.939965 0.822063
vt 0.578616 0.465911
vt 0.574847 0.461153
vt 0.578616 0.455900
vt 0.703781 0.960195
vt 0.720116 0.910306
vt 0.720116 0.978412
vt 0.568040 0.461106
vt 0.571162 0.455900
vt 0.571162 0.468918
vt 0.658428 0.473365
vt 0.658428 0.651484
vt 0.545094 0.574878
vt 0.544549 0.550381
vt 0.882245 0.767181
vt 0.837855 0.619939
vt 0.882245 0.612534
vt 0.918048 0.043885
vt 0.946797 0.001842
vt 0.946797 0.182265
vt 0.544549 0.961682
vt 0.558126 0.949109
vt 0.558126 0.981619
vt 0.236504 0.630219
vt 0.233621 0.624416
vt 0.236504 0.587663
vt 0.932217 0.260626
vt 0.918048 0.250428
vt 0.932217 0.241045
vt 0.514573 0.885686
vt 0.507066 0.851134
vt 0.514573 0.841991
vt 0.182673 0.696518
vt 0.229936 0.517145
vt 0.229936 0.738001
vt 0.973473 0.039053
vt 0.987962 0.001842
vt 0.987962 0.259432
vt 0.672864 0.703022
vt 0.669639 0.684800
vt 0.672864 0.683322
vt 0.342094 0.956030
vt 0.334788 0.940686
vt 0.342094 0.871073
vt 0.804846 0.259668
vt 0.781587 0.220951
vt 0.804846 0.189673
vt 0.166720 0.965173
vt 0.148307 0.948581
vt 0.166720 0.871403
vt 0.831105 0.607821
vt 0.810371 0.580873
vt 0.831105 0.528477
vt 0.079806 0.756317
vt 0.144622 0.651558
vt 0.144622 0.807602
vt 0.071278 0.805205
vt 0.071278 0.937844
vt 0.063297 0.922306
vt 0.404100 0.170333
vt 0.497260 0.161571
vt 0.497260 0.258365
vt 0.459406 0.847029
vt 0.470763 0.835577
vt 0.470763 0.932846
vt 0.204720 0.871073
vt 0.204720 0.967156
vt 0.182673 0.944964
vt 0.345707 0.787058
vt 0.339496 0.784350
vt 0.345707 0.733629
vt 0.604037 0.817713
vt 0.544549 0.786268
vt 0.604037 0.655169
vt 0.243485 0.586073
vt 0.384078 0.529750
vt 0.384078 0.667226
vt 0.992209 0.524638
vt 0.976195 0.363447
vt 0.992209 0.265083
vt 0.988227 0.929213
vt 0.978004 0.879813
vt 0.988227 0.829553
vt 0.175786 0.651558
vt 0.175786 0.867718
vt 0.148307 0.807311
vt 0.766581 0.539415
vt 0.806686 0.528477
vt 0.806686 0.580980
vt 0.770977 0.575989
vt 0.286869 0.912746
vt 0.256970 0.871073
vt 0.304684 0.872097
vt 0.304684 0.910709
vt 0.900528 0.947396
vt 0.900528 0.990904
vt 0.889141 0.986269
vt 0.885930 0.948219
vt 0.263737 0.188337
vt 0.250897 0.098644
vt 0.400415 0.001842
vt 0.400415 0.261398
vt 0.810898 0.179778
vt 0.734849 0.181545
vt 0.728496 0.053529
vt 0.810898 0.001842
vt 0.728543 0.604111
vt 0.682093 0.608849
vt 0.678152 0.280383
vt 0.728543 0.265083
vt 0.880680 0.770866
vt 0.880680 0.973890
vt 0.867294 0.968008
vt 0.868082 0.774428
vt 0.431472 0.919808
vt 0.442552 0.835577
vt 0.455722 0.838147
vt 0.455722 0.939569
vt 0.247212 0.001842
vt 0.247212 0.330332
vt 0.146755 0.275422
vt 0.125436 0.071526
vt 0.431963 0.994352
vt 0.431472 0.943254
vt 0.444489 0.943358
vt 0.444489 0.998158
vt 0.778794 0.612534
vt 0.778794 0.766141
vt 0.678152 0.711572
vt 0.683289 0.621355
vt 0.944958 0.192356
vt 0.944958 0.237360
vt 0.918194 0.236479
vt 0.918048 0.185950
vt 0.662113 0.479494
vt 0.674421 0.473365
vt 0.674421 0.570160
vt 0.662376 0.572622
vt 0.856123 0.204865
vt 0.856528 0.001842
vt 0.887493 0.001844
vt 0.887493 0.215178
vt 0.030386 0.825104
vt 0.059612 0.805205
vt 0.059612 0.926242
vt 0.040857 0.920615
vt 0.557467 0.465297
vt 0.551358 0.463182
vt 0.551338 0.454769
vt 0.557467 0.451880
vt 0.974319 0.612593
vt 0.974319 0.787938
vt 0.952945 0.786932
vt 0.947540 0.612534
vt 0.257903 0.310018
vt 0.384078 0.265083
vt 0.384078 0.486421
vt 0.250897 0.526065
vt 0.850085 0.231858
vt 0.850085 0.253903
vt 0.823275 0.259668
vt 0.808531 0.230708
vt 0.546172 0.408217
vt 0.542428 0.270076
vt 0.674467 0.265083
vt 0.674467 0.448195
vt 0.507177 0.943189
vt 0.507838 0.908783
vt 0.538944 0.908698
vt 0.538944 0.952207
vt 0.834170 0.795646
vt 0.785046 0.795046
vt 0.782479 0.622609
vt 0.834170 0.612534
vt 0.515006 0.162244
vt 0.561693 0.161571
vt 0.561693 0.250572
vt 0.500945 0.251508
vt 0.001842 0.637342
vt 0.006563 0.520438
vt 0.178988 0.517145
vt 0.178988 0.647873
vt 0.371156 0.790743
vt 0.371156 0.826799
vt 0.182673 0.810756
vt 0.193798 0.796694
vt 0.244943 0.490383
vt 0.244943 0.513113
vt 0.210588 0.511112
vt 0.210601 0.490535
vt 0.080139 0.906226
vt 0.079806 0.813098
vt 0.110860 0.811286
vt 0.110860 0.917592
vt 0.503381 0.939247
vt 0.503381 0.960645
vt 0.467276 0.953193
vt 0.462085 0.942990
vt 0.910862 0.430584
vt 0.910862 0.469221
vt 0.872492 0.466273
vt 0.872810 0.431932
vt 0.076122 0.667962
vt 0.076122 0.801521
vt 0.023934 0.790070
vt 0.001842 0.651558
vt 0.596932 0.030459
vt 0.724812 0.001842
vt 0.724812 0.126131
vt 0.585640 0.118741
vt 0.777902 0.259668
vt 0.723131 0.257468
vt 0.728865 0.217123
vt 0.777902 0.214157
vt 0.978004 0.814174
vt 0.978646 0.623389
vt 0.996126 0.612534
vt 0.996126 0.825869
vt 0.369509 0.842134
vt 0.369509 0.950015
vt 0.347742 0.936766
vt 0.349991 0.830484
vt 0.203904 0.344556
vt 0.203904 0.513461
vt 0.051310 0.508304
vt 0.001842 0.383836
vt 0.058118 0.950852
vt 0.071278 0.941528
vt 0.071278 0.994023
vt 0.057363 0.986244
vt 0.538743 0.265083
vt 0.538743 0.440427
vt 0.387763 0.469680
vt 0.387779 0.280515
vt 0.407502 0.652765
vt 0.387763 0.479403
vt 0.540865 0.473365
vt 0.540865 0.653788
vt 0.700096 0.910516
vt 0.700096 0.965332
vt 0.678529 0.965170
vt 0.678152 0.910306
vt 0.344658 0.725711
vt 0.313552 0.725941
vt 0.313693 0.671076
vt 0.344658 0.670911
vn 0.6110 -0.0120 0.7915
vn 0.0489 0.9983 -0.0330
vn 0.5379 0.0168 -0.8428
vn 0.3132 0.0634 -0.9476
vn -0.0015 -1.0000 -0.0096
vn -0.0010 -1.0000 -0.0067
vn -0.0057 -0.9999 -0.0147
vn 0.0111 -0.9999 -0.0029
vn -0.0062 -1.0000 0.0033
vn -0.0070 -1.0000 0.0035
vn 0.9761 -0.1980 0.0890
vn 0.7799 -0.6259 -0.0040
vn 0.0300 0.9993 0.0203
vn 0.1233 0.9924 0.0044
vn -0.0092 0.9999 -0.0112
vn -0.0071 1.0000 -0.0041
vn -0.0067 1.0000 -0.0046
vn -0.6906 0.0987 0.7164
vn 0.0978 -0.7668 0.6344
vn 0.8695 -0.4756 -0.1330
vn 0.9839 0.1101 -0.1407
vn 0.9338 -0.0180 -0.3573
vn -0.3116 0.5571 -0.7697
vn -0.0931 -0.0932 -0.9913
vn 0.4966 -0.8631 0.0923
vn -0.0059 -0.9999 0.0103
vn -0.7144 0.1154 0.6902
vn 0.0015 -1.0000 0.0031
vn -0.0010 -1.0000 0.0020
vn 0.0013 -1.0000 0.0004
vn -0.0159 -0.9999 0.0051
vn -0.0186 -0.9998 0.0011
vn -0.0144 -0.9999 0.0011
vn -0.9971 -0.0542 -0.0533
vn -0.9966 -0.0577 -0.0589
vn -0.9962 -0.0627 -0.0601
vn 0.0114 0.9999 0.0022
vn 0.0094 0.9999 -0.0035
vn 0.0055 1.0000 -0.0011
vn 0.6207 -0.0018 0.7841
vn -0.0679 -0.6655 -0.7433
vn -0.9979 0.0098 -0.0643
vn -0.0019 0.0298 -0.9996
vn 0.0000 -0.0000 -1.0000
vn 0.0347 -0.0066 -0.9994
vn 0.0638 -0.1760 -0.9823
vn 0.8025 -0.2317 0.5498
vn -0.0450 0.3742 -0.9263
vn 0.0478 0.0084 -0.9988
vn 0.2594 0.2739 0.9261
vn 0.9954 -0.0210 -0.0931
vn 0.9953 -0.0235 -0.0944
vn 0.0436 -0.0197 0.9989
vn -0.7006 -0.0403 0.7124
vn 0.4947 0.7282 0.4744
vn -0.1946 -0.5143 0.8352
vn 0.6320 -0.6727 0.3848
vn -0.0285 -0.9996 0.0061
vn 0.8355 0.5076 -0.2105
vn 0.5823 0.0030 0.8130
vn 0.1578 0.9865 -0.0430
vn 0.0003 -0.9987 0.0511
vn -0.3798 -0.7358 0.5607
vn 0.9982 0.0595 0.0051
vn 0.9978 0.0660 0.0054
vn 0.9980 0.0632 0.0073
vn -0.0975 0.0550 -0.9937
vn 0.1075 0.2172 0.9702
vn 0.1063 0.2135 0.9712
vn 0.1107 0.2209 0.9690
vn -0.0304 0.9904 -0.1346
vn 0.0903 0.5994 0.7954
vn 0.5153 -0.2804 0.8099
vn -0.1279 -0.0086 0.9917
vn -0.4669 -0.2268 -0.8548
vn 0.6525 0.4516 0.6085
vn 0.6531 0.4500 0.6091
vn 0.6528 0.4508 0.6088
vn 0.6499 0.4596 0.6053
vn -0.0563 0.7169 -0.6949
vn 0.9311 0.3366 0.1404
vn 0.9700 0.1624 -0.1810
vn 0.0599 -0.0605 -0.9964
vn 0.0322 -0.6746 -0.7375
vn 0.0260 -0.6975 -0.7162
vn 0.0260 -0.6974 -0.7162
vn 0.9679 0.1213 0.2202
vn 0.7777 -0.1093 0.6190
vn -0.7279 -0.1917 0.6583
vn -0.5977 0.0026 0.8017
vn 0.6329 0.0229 0.7739
vn 0.8372 0.0571 0.5438
vn 0.6819 -0.0057 0.7314
vn 0.3477 0.0745 -0.9347
vn 0.0070 -0.9994 -0.0346
vn 0.3645 0.6373 0.6790
vn 0.0092 -0.9994 -0.0338
vn 0.9972 -0.0717 0.0212
vn 0.9593 -0.2821 -0.0095
vn 0.9074 -0.4195 0.0270
vn 0.0643 -0.8242 0.5626
vn -0.0013 -0.0003 -1.0000
vn -0.0008 -0.0003 -1.0000
vn -0.1446 -0.0501 -0.9882
vn -0.1452 -0.0487 -0.9882
vn -0.1461 -0.0487 -0.9881
vn -0.2399 -0.0048 -0.9708
vn 0.5726 0.0088 0.8198
vn 0.5592 0.0211 0.8288
vn -0.0062 -0.5215 -0.8532
vn -0.0901 -0.6462 -0.7579
vn -0.2699 0.0572 -0.9612
vn 0.0552 0.0993 -0.9935
vn 0.1112 0.2242 0.9682
vn 0.1104 0.2290 0.9671
vn 0.1081 0.2217 0.9691
vn -0.3879 0.6961 -0.6042
vn 0.9912 0.0309 -0.1287
vn 0.9770 0.0296 -0.2111
vn 0.9821 0.0708 -0.1743
vn 0.9949 -0.0332 -0.0954
vn 0.9947 -0.0322 -0.0981
vn -0.6003 -0.0691 0.7968
vn 0.4739 0.8450 0.2480
vn -0.2443 -0.9514 0.1877
vn -0.0111 0.1532 -0.9881
vn -0.0113 0.1509 -0.9885
vn -0.0124 0.1549 -0.9878
vn 0.6732 0.5195 -0.5262
vn 0.1817 0.9833 0.0060
vn 0.3264 0.9441 0.0463
vn 0.9984 0.0558 0.0083
vn 0.9983 0.0574 0.0044
vn 0.9982 0.0604 0.0060
vn -0.0126 0.1597 -0.9871
vn -0.0102 0.1571 -0.9875
vn -0.0125 0.1576 -0.9874
vn -0.0234 0.1154 -0.9930
vn 0.1136 0.2200 0.9689
vn 0.1184 0.2027 0.9721
vn -0.0470 0.9965 -0.0693
vn 0.0416 -0.6044 -0.7956
vn -0.0108 0.9998 0.0186
vn -0.0095 0.9999 0.0117
vn -0.0047 0.9999 0.0104
vn 0.0936 0.6506 0.7536
vn -0.0477 0.7489 -0.6609
vn 0.0597 0.9953 0.0763
vn 0.9724 0.1524 -0.1768
vn 0.9807 0.1228 -0.1519
vn 0.6124 -0.0028 -0.7906
vn 0.6083 -0.0014 -0.7937
vn 0.6155 -0.0033 -0.7882
vn 0.6847 -0.0231 -0.7284
vn 0.6867 -0.0184 -0.7267
vn 0.6894 -0.0195 -0.7241
vn -0.5446 0.0145 0.8386
vn -0.0255 -0.9995 -0.0179
vn -0.0226 -0.9996 -0.0182
vn -0.0062 -0.9999 -0.0136
vn -0.0136 -0.9998 -0.0157
vn 0.1704 0.1867 -0.9675
vn 0.2910 -0.4369 -0.8511
vn 0.2910 -0.4370 -0.8511
vn -0.5884 0.6809 0.4359
vn -0.5516 0.7454 0.3744
vn 0.9828 0.0674 -0.1721
vn 0.9876 0.0649 -0.1432
vn 0.9981 0.0363 -0.0501
vn 0.9967 0.0010 -0.0814
vn -0.0048 0.9999 0.0110
vn 0.0030 0.9999 0.0105
vn -0.0005 0.9999 0.0100
vn -0.0004 1.0000 0.0007
vn -0.8996 -0.0036 -0.4368
vn -0.9036 -0.0040 -0.4284
vn -0.9021 -0.0038 -0.4315
vn -0.8980 -0.0034 -0.4399
vn -0.7280 0.6856 -0.0021
vn -0.7011 0.7131 -0.0046
vn -0.7010 0.7131 -0.0046
vn 0.0722 0.6827 -0.7271
vn 0.0726 0.6836 -0.7262
vn 0.0718 0.6817 -0.7281
vn 0.0714 0.6808 -0.7290
vn -0.9986 0.0336 -0.0421
vn -0.9980 0.0267 -0.0566
vn -0.5046 0.7065 -0.4962
vn -0.5059 0.7052 -0.4968
vn -0.5026 0.7087 -0.4952
vn -0.5016 0.7097 -0.4947
vn -0.9955 0.0687 -0.0655
vn -0.9945 0.0955 -0.0434
vn 0.7623 -0.0440 0.6458
vn 0.7623 -0.0439 0.6457
vn 0.7710 -0.0360 0.6359
vn 0.7710 -0.0360 0.6358
vn -0.0933 0.6826 0.7248
vn -0.0811 0.7234 0.6856
vn -0.9999 -0.0107 -0.0030
vn -0.9988 -0.0479 0.0027
vn 0.0351 0.1372 -0.9899
vn 0.0373 0.1300 -0.9908
vn 0.0366 0.1321 -0.9906
vn 0.0344 0.1398 -0.9896
vn 0.4560 0.5620 -0.6901
vn 0.4372 0.5625 -0.7017
vn 0.4373 0.5625 -0.7017
vn 0.7375 -0.1038 0.6674
vn 0.7603 -0.0988 0.6420
vn 0.0540 0.0165 0.9984
vn 0.0458 0.0229 0.9987
vn 0.0472 0.0218 0.9986
vn 0.0555 0.0154 0.9983
vn 0.3918 -0.7922 -0.4678
vn 0.3965 -0.8063 -0.4389
vn -0.9957 -0.0697 -0.0612
vn -0.9960 -0.0691 -0.0572
vn -0.9961 -0.0682 -0.0563
vn -0.9964 -0.0618 -0.0577
vn -0.7518 0.0720 0.6555
vn -0.7922 0.1543 0.5904
vn -0.7758 -0.0116 -0.6309
vn -0.8894 -0.0755 -0.4509
vn -0.9005 0.0807 -0.4274
vn -0.9004 0.0807 -0.4274
vn -0.9322 0.0428 -0.3595
vn -0.0086 -0.0086 -0.9999
vn -0.0078 0.0043 -1.0000
vn -0.0688 -0.0391 -0.9969
vn 0.9237 -0.0329 -0.3817
vn 0.6349 -0.0682 -0.7695
vn 0.6350 -0.0682 -0.7695
vn -0.4622 -0.7819 0.4185
vn -0.4678 -0.7531 0.4626
vn -0.1167 0.0482 0.9920
vn -0.1015 0.0014 0.9948
vn 0.0662 -0.9972 -0.0348
vn -0.0040 -1.0000 0.0062
vn -0.0081 -1.0000 0.0057
vn -0.0080 -1.0000 0.0048
vn -0.0102 -0.9999 0.0012
vn -0.0119 0.9999 -0.0098
vn -0.0053 1.0000 -0.0072
vn -0.0068 1.0000 -0.0047
vn -0.0014 0.9999 -0.0100
vn -0.2658 0.0408 -0.9632
vn -0.2657 0.0409 -0.9632
vn -0.2674 0.0384 -0.9628
vn -0.2677 0.0379 -0.9627
vn -0.0006 -1.0000 0.0051
vn 0.0017 -1.0000 0.0054
vn -0.0007 -1.0000 0.0098
vn -0.0001 -1.0000 0.0093
vn -0.7767 -0.6299 0.0014
vn -0.7753 -0.6315 0.0016
vn -0.7786 -0.6275 0.0012
vn -0.7798 -0.6260 0.0010
vn -0.0622 -0.7157 0.6957
vn -0.0703 -0.6951 0.7155
vn 0.0208 -0.0383 0.9991
vn 0.0116 -0.0283 0.9995
vn 0.0124 -0.0291 0.9995
vn 0.0213 -0.0387 0.9990
vn 0.1669 0.6010 0.7816
vn 0.1648 0.5971 0.7851
vn 0.1653 0.5980 0.7842
vn 0.1676 0.6023 0.7804
vn 0.9945 -0.0593 -0.0861
vn 0.9942 -0.0528 -0.0934
vn 0.9945 -0.0581 -0.0875
vn 0.9947 -0.0641 -0.0807
vn 0.0384 -0.0637 0.9972
vn 0.0380 -0.0639 0.9972
vn 0.0446 -0.0586 0.9973
vn 0.0453 -0.0581 0.9973
vn -0.4673 -0.7539 -0.4619
vn -0.4671 -0.7544 -0.4612
vn -0.4672 -0.7541 -0.4616
vn -0.4673 -0.7537 -0.4620
vn -0.7097 -0.0052 -0.7044
vn -0.7119 0.0002 -0.7022
vn -0.7116 -0.0007 -0.7026
vn -0.7093 -0.0062 -0.7048
g Column_V1_4_Column_V1_4_Collor_Material
usemtl Collor_Material
s off
f 46/1/1 87/2/1 86/3/1
f 74/4/2 65/5/2 80/6/2
f 35/7/3 50/8/3 39/9/3
f 89/10/4 13/11/4 12/12/4
f 14/13/5 63/14/6 34/15/7
f 6/16/8 30/17/8 10/18/8
f 5/19/9 66/20/10 26/21/10
f 61/22/11 60/23/11 55/24/11
f 54/25/12 38/26/12 55/27/12
f 19/28/13 21/29/13 37/30/13
f 49/31/14 16/32/14 50/33/14
f 37/34/15 24/35/16 19/36/17
f 101/37/18 102/38/18 4/39/18
f 56/40/19 68/41/19 66/42/19
f 38/43/20 36/44/20 39/45/20
f 50/46/21 17/47/21 38/48/21
f 39/49/22 50/50/22 38/51/22
f 49/52/23 50/53/23 35/54/23
f 9/55/24 91/56/24 40/57/24
f 56/58/25 53/59/25 55/60/25
f 44/61/26 15/62/26 36/63/26
f 3/64/27 83/65/27 82/66/27
f 14/67/28 11/68/29 33/69/30
f 6/70/31 29/71/32 30/72/33
f 8/73/34 101/74/35 100/75/36
f 65/76/37 16/77/38 49/78/39
f 87/79/40 46/80/40 2/81/40
f 33/82/41 32/83/41 72/84/41
f 102/85/42 101/86/42 8/87/42
f 94/88/43 93/89/44 9/90/45
f 71/91/46 72/92/46 73/93/46
f 97/94/47 98/95/47 99/96/47
f 88/97/48 89/98/48 90/99/48
f 23/100/49 75/101/49 32/102/49
f 59/103/50 55/104/50 60/105/50
f 97/106/51 95/107/51 98/108/52
f 4/109/53 45/110/53 47/111/53
f 100/112/54 5/113/54 6/114/54
f 57/115/55 52/116/55 58/117/55
f 66/118/56 68/119/56 69/120/56
f 85/121/57 86/122/57 87/123/57
f 54/124/58 44/125/58 36/126/58
f 35/127/59 79/128/59 49/129/59
f 61/130/60 57/131/60 58/132/60
f 16/133/61 52/134/61 51/135/61
f 5/136/62 43/137/62 56/138/62
f 53/139/63 54/140/63 55/141/63
f 51/142/64 61/143/65 17/144/66
f 72/145/67 32/146/67 75/147/67
f 68/148/68 55/149/69 18/150/70
f 80/151/71 49/152/71 79/153/71
f 18/154/72 64/155/72 62/156/72
f 66/157/73 69/158/73 67/159/73
f 67/160/74 69/161/74 62/162/74
f 71/163/75 73/164/75 70/165/75
f 61/166/76 58/167/77 59/168/78 60/169/79
f 78/170/80 80/171/80 79/172/80
f 85/173/81 87/174/81 84/175/81
f 13/176/82 85/177/82 84/178/82
f 88/179/83 90/180/83 91/181/83
f 34/182/84 71/183/84 70/184/85 35/185/86
f 97/186/87 99/187/87 96/188/87
f 45/189/88 99/190/88 98/191/88
f 101/192/89 4/193/89 100/194/89
f 82/195/90 102/196/90 3/197/90
f 86/198/91 96/199/91 46/200/91
f 96/201/92 99/202/92 45/203/92
f 46/204/93 96/205/93 45/206/93
f 89/207/94 88/208/94 13/209/94
f 14/210/95 33/211/95 63/212/95
f 59/213/96 58/214/96 52/215/96
f 5/216/97 56/217/97 66/218/97
f 55/219/98 38/220/98 17/221/98
f 17/222/99 61/223/99 55/224/99
f 54/225/100 36/226/100 38/227/100
f 56/228/101 55/229/101 68/230/101
f 9/231/44 93/232/102 91/233/103
f 93/234/104 92/235/105 91/236/106
f 91/237/107 90/238/107 40/239/107
f 1/240/108 84/241/108 2/242/108
f 84/243/109 87/244/109 2/245/109
f 71/246/110 63/247/110 72/248/110
f 63/249/111 33/250/111 72/251/111
f 40/252/112 90/253/112 89/254/112
f 23/255/113 76/256/113 75/257/113
f 59/258/114 18/259/115 55/260/116
f 76/261/117 23/262/117 77/263/117
f 88/264/118 96/265/119 86/266/120 85/267/120
f 95/268/121 48/269/121 98/270/122
f 100/271/123 4/272/123 5/273/123
f 57/274/124 51/275/124 52/276/124
f 54/277/125 53/278/125 44/279/125
f 70/280/126 73/281/127 81/282/128
f 35/283/129 78/284/129 79/285/129
f 51/286/130 17/287/130 16/288/130
f 17/289/131 50/290/131 16/291/131
f 51/292/132 57/293/133 61/294/134
f 81/295/135 73/296/136 75/297/137
f 73/298/138 72/299/138 75/300/138
f 62/301/139 69/302/139 18/303/139
f 69/304/140 68/305/140 18/306/140
f 80/307/141 65/308/141 49/309/141
f 34/310/142 63/311/142 71/312/142
f 37/313/143 21/314/144 64/315/145
f 18/316/146 16/317/146 64/318/146
f 78/319/147 81/320/147 80/321/147
f 74/322/148 77/323/148 24/324/148
f 84/325/149 1/326/149 13/327/149
f 13/328/150 88/329/150 85/330/150
f 88/331/151 91/332/152 95/333/153
f 91/334/154 92/335/155 95/336/156
f 82/337/157 4/338/157 102/339/157
f 34/340/158 36/341/159 15/342/160 14/343/161
f 95/344/162 92/345/162 93/346/163 94/347/164
f 20/348/165 22/349/165 21/350/166 19/351/166
f 97/352/167 96/353/168 88/354/169 95/355/170
f 65/356/171 37/357/172 64/358/173 16/359/174
f 40/360/175 42/361/176 8/362/177 9/363/178
f 25/364/179 20/365/179 19/366/180 24/367/181
f 81/368/182 75/369/183 74/370/184 80/371/185
f 8/372/186 42/373/186 3/374/187 102/375/187
f 24/376/188 77/377/189 23/378/190 25/379/191
f 83/380/192 3/381/192 42/382/193 41/383/193
f 98/384/194 48/385/195 47/386/196 45/387/197
f 62/388/198 64/389/198 21/390/199 22/391/199
f 20/392/200 25/393/200 31/394/201 28/395/201
f 78/396/202 35/397/203 70/398/204 81/399/205
f 75/400/206 76/401/206 77/402/207 74/403/208
f 48/404/209 44/405/209 43/406/210 47/407/210
f 82/408/211 46/409/212 45/410/213 4/411/214
f 34/412/215 35/413/215 39/414/216 36/415/216
f 100/416/217 6/417/218 10/418/219 8/419/220
f 28/420/221 27/421/221 22/422/222 20/423/222
f 10/424/223 11/425/223 9/426/224 8/427/224
f 42/428/225 40/429/226 7/430/227 41/431/227
f 94/432/228 9/433/229 11/434/230 14/435/230
f 14/436/231 15/437/231 95/438/232 94/439/233
f 26/440/234 27/441/234 28/442/235 29/443/235
f 62/444/236 22/445/236 27/446/237 67/447/237
f 43/448/238 44/449/238 53/450/238 56/451/238
f 6/452/239 5/453/240 26/454/241 29/455/242
f 65/456/243 74/457/244 24/458/245 37/459/246
f 40/460/247 89/461/248 12/462/249 7/463/250
f 30/464/251 33/465/252 11/466/253 10/467/254
f 30/468/255 29/469/256 28/470/257 31/471/258
f 26/472/259 66/473/259 67/474/260 27/475/260
f 83/476/261 2/477/262 46/478/263 82/479/264
f 16/480/265 18/481/266 59/482/267 52/483/268
f 44/484/269 48/485/270 95/486/271 15/487/272
f 47/488/273 43/489/274 5/490/275 4/491/276
f 33/492/277 30/493/278 31/494/279 32/495/280
f 23/496/281 32/497/282 31/498/283 25/499/284
