# Blender v3.0.0 OBJ File: 'aa.blend'
# www.blender.org
mtllib Column_Egypt_2.mtl
o Column_Egypt_2
v 0.000000 -0.000000 -0.458455
v -0.129838 0.468855 -0.224886
v 0.229228 -0.000000 -0.397033
v -0.224885 0.468855 -0.129838
v 0.397034 -0.000000 -0.229227
v -0.259675 0.468855 -0.000000
v 0.458455 0.000000 0.000000
v -0.224885 0.468855 0.129837
v 0.397034 0.000000 0.229227
v -0.129838 0.468855 0.224885
v -0.000000 0.468855 0.259674
v 0.000000 0.000000 0.458455
v 0.129837 0.468855 0.224885
v -0.229227 0.000000 0.397033
v 0.224885 0.468855 0.129837
v -0.397033 0.000000 0.229227
v 0.259675 0.468855 -0.000000
v -0.458455 0.000000 0.000000
v 0.224885 0.468855 -0.129838
v -0.397033 -0.000000 -0.229227
v 0.129837 0.468855 -0.224886
v -0.229227 -0.000000 -0.397033
v -0.000000 0.468855 -0.259675
v 0.000000 0.068141 -0.458455
v 0.229228 0.068141 -0.397034
v 0.397034 0.068141 -0.229227
v 0.458455 0.068142 -0.000000
v 0.397034 0.068142 0.229227
v 0.000000 0.068142 0.458455
v -0.229227 0.068142 0.397033
v -0.397033 0.068142 0.229227
v -0.458455 0.068142 0.000000
v -0.397033 0.068141 -0.229227
v -0.229227 0.068141 -0.397033
v 0.000000 0.121950 -0.432010
v 0.216005 0.121950 -0.374131
v 0.374131 0.121950 -0.216005
v 0.432010 0.121950 -0.000000
v 0.374131 0.121950 0.216005
v 0.000000 0.121951 0.432009
v -0.216004 0.121951 0.374131
v -0.374131 0.121950 0.216005
v -0.432009 0.121950 0.000000
v -0.374131 0.121950 -0.216005
v -0.216005 0.121950 -0.374131
v -0.000000 0.215038 -0.259675
v 0.129837 0.215038 -0.224885
v 0.224885 0.215038 -0.129838
v 0.259675 0.215038 -0.000000
v -0.000000 0.215038 0.259675
v -0.129838 0.215038 0.224885
v -0.224885 0.215038 0.129837
v -0.259675 0.215038 -0.000000
v -0.224885 0.215038 -0.129838
v -0.129838 0.215038 -0.224885
v -0.108470 0.581616 -0.187875
v -0.187875 0.581616 -0.108470
v -0.216939 0.581617 -0.000001
v -0.187875 0.581617 0.108469
v -0.108469 0.581617 0.187874
v -0.000000 0.581617 0.216938
v 0.108469 0.581617 0.187874
v 0.187874 0.581617 0.108468
v 0.216938 0.581617 -0.000001
v 0.187874 0.581616 -0.108470
v 0.108469 0.581616 -0.187875
v -0.000000 0.581616 -0.216939
v -0.151957 1.030136 -0.263197
v -0.263197 1.030136 -0.151958
v -0.303913 1.030136 -0.000001
v -0.151957 1.030136 0.263195
v -0.000000 1.030136 0.303911
v 0.151956 1.030136 0.263195
v 0.263196 1.030136 0.151955
v 0.303912 1.030136 -0.000001
v 0.263196 1.030136 -0.151958
v 0.151956 1.030136 -0.263197
v -0.000000 1.030136 -0.303914
v -0.100535 2.394640 -0.174133
v -0.174131 2.394640 -0.100537
v -0.201069 2.394640 -0.000003
v -0.174131 2.394640 0.100531
v -0.100535 2.394640 0.174128
v -0.000000 2.394640 0.201066
v 0.100534 2.394640 0.174128
v 0.174130 2.394640 0.100531
v 0.201068 2.394640 -0.000003
v 0.174130 2.394640 -0.100537
v 0.100534 2.394640 -0.174133
v -0.000000 2.394640 -0.201071
v -0.135875 2.744014 -0.235344
v -0.235342 2.744014 -0.135877
v -0.271749 2.744014 -0.000003
v -0.235342 2.744014 0.135871
v -0.135875 2.744014 0.235338
v -0.000000 2.744014 0.271746
v 0.135874 2.744014 0.235338
v 0.235341 2.744014 0.135871
v 0.271748 2.744014 -0.000003
v 0.235341 2.744014 -0.135878
v 0.135874 2.744014 -0.235345
v -0.000001 2.744014 -0.271752
v -0.185654 2.874219 -0.321564
v -0.321561 2.874219 -0.185656
v -0.371307 2.874219 -0.000003
v -0.321561 2.874219 0.185650
v -0.185653 2.874219 0.321557
v -0.000000 2.874219 0.371303
v 0.185653 2.874219 0.321557
v 0.321560 2.874219 0.185650
v 0.371306 2.874219 -0.000003
v 0.321560 2.874219 -0.185656
v 0.185653 2.874219 -0.321564
v -0.000000 2.874219 -0.371310
v -0.185654 2.975978 -0.321564
v -0.321561 2.975978 -0.185656
v -0.371307 2.975978 -0.000003
v -0.321561 2.975978 0.185650
v -0.185653 2.975978 0.321557
v -0.000000 2.975978 0.371303
v 0.185653 2.975978 0.321557
v 0.321560 2.975978 0.185650
v 0.371306 2.975978 -0.000003
v 0.321560 2.975978 -0.185657
v 0.185653 2.975978 -0.321564
v -0.000000 2.975978 -0.371310
v -0.227414 2.795860 -0.131300
v -0.262595 2.795860 -0.000003
v -0.000000 2.795860 -0.262597
v -0.131298 2.795860 -0.227416
v 0.227413 2.795860 0.131294
v 0.262594 2.795860 -0.000003
v -0.131297 2.795860 0.227410
v -0.000000 2.795860 0.262591
v 0.131297 2.795860 -0.227416
v 0.131297 2.795860 0.227410
v -0.227414 2.795860 0.131294
v 0.227413 2.795860 -0.131300
v -0.000000 2.621870 -0.158729
v -0.079363 2.621870 -0.137464
v 0.137460 2.621870 0.079360
v 0.158725 2.621870 -0.000003
v -0.079363 2.621870 0.137458
v -0.000000 2.621870 0.158723
v 0.079363 2.621870 -0.137464
v 0.079363 2.621870 0.137458
v -0.158726 2.621870 -0.000003
v -0.137461 2.621870 0.079360
v 0.137460 2.621870 -0.079366
v -0.137461 2.621870 -0.079366
v 0.282051 0.179383 0.162842
v 0.097313 0.278620 0.233600
v 0.129837 0.301158 0.224885
v 0.039690 0.215038 0.249040
v 0.197055 0.289356 0.157667
v 0.042119 0.068142 0.447169
v 0.224885 0.276831 0.129837
v 0.284264 0.121950 0.305872
v 0.255874 0.215038 0.014184
v 0.312558 0.068142 0.313703
v 0.290288 0.000000 0.335973
v 0.306315 0.096767 0.300728
v 0.299631 0.028589 0.326630
v 0.300542 0.181801 0.077126
v 0.241382 0.259600 0.068269
v 0.145192 0.312669 0.209530
v 0.317262 0.084191 0.298224
v 0.055801 0.185938 0.298597
v 0.230534 0.156687 0.271755
v 0.214633 0.000000 0.367946
v 0.008471 0.000000 0.423187
v 0.214633 0.061285 0.367946
v 0.202741 0.109680 0.347348
v 0.008471 0.109680 0.399403
v 0.210728 0.193401 0.127636
v 0.125244 0.193401 0.213120
v 0.262142 0.161333 0.157320
v 0.095992 0.250584 0.220958
v 0.125244 0.270855 0.213120
v 0.044168 0.193401 0.234844
v 0.185698 0.260240 0.152665
v 0.046352 0.061286 0.413037
v 0.210728 0.248976 0.127636
v 0.264132 0.109680 0.285957
v 0.238598 0.193401 0.023620
v 0.289579 0.061285 0.293001
v 0.269550 0.000000 0.313030
v 0.283964 0.087030 0.281332
v 0.277953 0.025713 0.304627
v 0.278772 0.163507 0.080228
v 0.225565 0.233478 0.072263
v 0.139054 0.281208 0.199309
v 0.293810 0.075720 0.279079
v 0.058658 0.167228 0.279415
v 0.215809 0.140921 0.255274
v 0.034100 1.492965 0.259890
v 0.030651 1.446159 0.264342
v -0.166921 1.837752 0.165078
v -0.198641 1.571663 0.160755
v -0.246722 1.282531 0.142443
v -0.253404 1.180157 0.146301
v -0.000000 1.447838 0.272428
v -0.000000 1.510485 0.267706
v -0.000000 1.757100 0.249118
v 0.136496 1.440365 0.236417
v -0.055064 1.777485 0.232828
v -0.051022 1.722626 0.238046
v -0.040477 1.579502 0.251659
v -0.030299 1.441360 0.264798
v -0.226567 1.834616 0.062364
v -0.230661 1.744702 0.072378
v -0.261561 1.055195 0.151011
v -0.122847 1.802570 0.212775
v -0.137322 1.418476 0.237846
v -0.141314 1.312531 0.244762
v -0.230005 1.538642 0.132791
v -0.225785 1.603285 0.130355
v -0.210045 1.844427 0.121267
v -0.240856 1.030136 0.174296
v -0.204003 1.215114 0.192103
v -0.184438 1.851820 0.146113
v -0.247454 1.678362 0.028366
v -0.251631 1.480848 0.068338
v -0.262357 1.379210 0.056899
v -0.283277 1.113784 0.053484
v -0.079194 1.160734 0.272848
v -0.103500 1.687159 0.226657
v -0.129103 1.318663 0.227032
v -0.139173 1.051458 0.244474
v 0.036876 1.489392 0.241346
v 0.033613 1.445104 0.245559
v -0.153332 1.815634 0.151635
v -0.242882 1.075169 0.138324
v 0.004610 1.446692 0.253211
v 0.004610 1.505970 0.248743
v -0.047491 1.758609 0.215740
v -0.043667 1.706700 0.220677
v -0.033689 1.571274 0.233558
v -0.024058 1.440563 0.245991
v -0.209770 1.812666 0.054445
v -0.213023 1.532612 0.121084
v -0.228841 1.290277 0.130217
v -0.111629 1.782344 0.196766
v -0.125325 1.418909 0.220489
v -0.235164 1.193409 0.133868
v -0.209030 1.593778 0.118779
v -0.194137 1.821949 0.110180
v -0.223290 1.051457 0.160356
v 0.004610 1.739319 0.231155
v -0.188420 1.226486 0.177205
v -0.147036 1.406500 0.200055
v 0.133765 1.439621 0.219137
v -0.169907 1.828945 0.133690
v -0.229534 1.664817 0.022276
v -0.233486 1.477927 0.060097
v -0.243635 1.381755 0.049274
v -0.263430 1.130606 0.046043
v -0.070324 1.175031 0.253608
v -0.093323 1.673141 0.209902
v -0.204730 1.762693 0.087314
vt 0.766360 0.214316
vt 0.766360 0.132941
vt 0.809455 0.132941
vt 0.809455 0.214316
vt 0.981199 0.290049
vt 0.963261 0.231157
vt 0.981199 0.219918
vt 0.002545 0.734828
vt 0.083920 0.734828
vt 0.083920 0.777922
vt 0.002545 0.777922
vt 0.114792 0.734828
vt 0.196167 0.734828
vt 0.196167 0.777922
vt 0.114792 0.777922
vt 0.041044 0.899915
vt 0.041044 0.943009
vt 0.002545 0.939463
vt 0.002546 0.903461
vt 0.799224 0.428323
vt 0.799224 0.509698
vt 0.756130 0.509698
vt 0.756130 0.428323
vt 0.809455 0.046476
vt 0.809455 0.127851
vt 0.766360 0.127851
vt 0.766360 0.046476
vt 0.201258 0.734828
vt 0.282632 0.734828
vt 0.282632 0.777922
vt 0.201258 0.777922
vt 0.758868 0.628362
vt 0.758868 0.546987
vt 0.801963 0.546987
vt 0.801963 0.628362
vt 0.503989 0.794682
vt 0.528559 0.792418
vt 0.528559 0.851333
vt 0.486464 0.842103
vt 0.799224 0.341858
vt 0.799224 0.423232
vt 0.756130 0.423232
vt 0.756130 0.341858
vt 0.801963 0.633453
vt 0.801963 0.714828
vt 0.758868 0.714828
vt 0.758868 0.633453
vt 0.437625 0.009762
vt 0.437625 0.045765
vt 0.283527 0.052865
vt 0.291327 0.002545
vt 0.591200 0.940678
vt 0.552701 0.937132
vt 0.552702 0.901129
vt 0.591200 0.897583
vt 0.643854 0.953846
vt 0.643854 0.910752
vt 0.682352 0.914298
vt 0.682352 0.950300
vt 0.299995 0.905546
vt 0.299995 0.948640
vt 0.261497 0.945094
vt 0.261497 0.909092
vt 0.213882 0.943009
vt 0.175384 0.939463
vt 0.175384 0.903461
vt 0.213882 0.899915
vt 0.156269 0.899915
vt 0.156269 0.943009
vt 0.117771 0.939463
vt 0.117771 0.903461
vt 0.901352 0.963659
vt 0.862854 0.960113
vt 0.862854 0.924111
vt 0.901352 0.920564
vt 0.725029 0.883814
vt 0.763527 0.887360
vt 0.763527 0.923363
vt 0.725029 0.926909
vt 0.060158 0.899915
vt 0.098656 0.903461
vt 0.098656 0.939463
vt 0.060158 0.943009
vt 0.811114 0.947137
vt 0.811114 0.904042
vt 0.849613 0.907588
vt 0.849613 0.943591
vt 0.958170 0.263013
vt 0.919672 0.259466
vt 0.919672 0.223464
vt 0.958170 0.219918
vt 0.600121 0.917106
vt 0.638619 0.920652
vt 0.638619 0.956654
vt 0.600121 0.960200
vt 0.632762 0.609732
vt 0.632762 0.645734
vt 0.486464 0.652951
vt 0.486464 0.602515
vt 0.717876 0.546987
vt 0.717876 0.706992
vt 0.683202 0.556677
vt 0.429824 0.120700
vt 0.429824 0.156703
vt 0.283527 0.163920
vt 0.283527 0.113483
vt 0.589014 0.009762
vt 0.589014 0.045765
vt 0.442716 0.052982
vt 0.442716 0.002545
vt 0.630866 0.420393
vt 0.630866 0.456396
vt 0.484568 0.463613
vt 0.484568 0.413177
vt 0.823193 0.310268
vt 0.875715 0.300889
vt 0.875715 0.345988
vt 0.823193 0.336610
vt 0.055067 0.859104
vt 0.055067 0.885445
vt 0.002545 0.894824
vt 0.002545 0.849725
vt 0.875715 0.386799
vt 0.823193 0.396178
vt 0.823193 0.351079
vt 0.875715 0.360458
vt 0.875715 0.487178
vt 0.823193 0.496556
vt 0.823193 0.451458
vt 0.875715 0.460836
vt 0.112680 0.885445
vt 0.060158 0.894824
vt 0.060158 0.849725
vt 0.112680 0.859104
vt 0.823193 0.410647
vt 0.875715 0.401268
vt 0.875715 0.446367
vt 0.823193 0.436989
vt 0.863636 0.863231
vt 0.863636 0.889573
vt 0.811114 0.898951
vt 0.811115 0.853853
vt 0.170293 0.859104
vt 0.170293 0.885445
vt 0.117771 0.894824
vt 0.117771 0.849725
vt 0.253779 0.859104
vt 0.253779 0.885445
vt 0.201258 0.894824
vt 0.201258 0.849725
vt 0.605223 0.856772
vt 0.605223 0.883113
vt 0.552702 0.892492
vt 0.552701 0.847393
vt 0.814545 0.146313
vt 0.867067 0.136934
vt 0.867067 0.182033
vt 0.814545 0.172654
vt 0.806024 0.964127
vt 0.806024 0.987070
vt 0.796690 0.983849
vt 0.796690 0.963215
vt 0.923305 0.980126
vt 0.906443 0.979366
vt 0.906443 0.935787
vt 0.923305 0.935027
vt 0.986787 0.537207
vt 0.986787 0.582305
vt 0.969925 0.581546
vt 0.969925 0.537966
vt 0.962855 0.427163
vt 0.962855 0.382064
vt 0.979717 0.382824
vt 0.979717 0.426403
vt 0.989837 0.837460
vt 0.989837 0.882558
vt 0.972975 0.881798
vt 0.972975 0.838219
vt 0.989837 0.932748
vt 0.972975 0.931988
vt 0.972975 0.888409
vt 0.989837 0.887649
vt 0.437198 0.940928
vt 0.437198 0.986026
vt 0.420336 0.985267
vt 0.420336 0.941687
vt 0.541042 0.982697
vt 0.524180 0.981937
vt 0.524180 0.938358
vt 0.541042 0.937598
vt 0.175384 0.849725
vt 0.192246 0.850485
vt 0.192246 0.894064
vt 0.175384 0.894824
vt 0.987603 0.982937
vt 0.970740 0.982177
vt 0.970740 0.938598
vt 0.987603 0.937839
vt 0.989837 0.775489
vt 0.989837 0.820588
vt 0.972975 0.819828
vt 0.972975 0.776249
vt 0.965650 0.982937
vt 0.948788 0.982177
vt 0.948788 0.938598
vt 0.965650 0.937839
vt 0.669280 0.108491
vt 0.669280 0.144493
vt 0.522982 0.151710
vt 0.522982 0.101274
vt 0.766062 0.720429
vt 0.766062 0.801804
vt 0.722967 0.801804
vt 0.312830 0.991031
vt 0.305086 0.969195
vt 0.312830 0.963079
vt 0.712976 0.960826
vt 0.719938 0.910752
vt 0.719938 0.964516
vt 0.989051 0.002545
vt 0.989051 0.040739
vt 0.982020 0.029599
vt 0.662384 0.527704
vt 0.662384 0.538230
vt 0.655614 0.536133
vt 0.654857 0.525373
vt 0.880806 0.446367
vt 0.880806 0.425198
vt 0.890676 0.427053
vt 0.890676 0.446092
vt 0.590597 0.528699
vt 0.599396 0.524231
vt 0.599396 0.535914
vt 0.590597 0.541689
vt 0.569563 0.945769
vt 0.569563 0.990867
vt 0.552701 0.990108
vt 0.552701 0.946528
vt 0.824344 0.255638
vt 0.824344 0.229296
vt 0.876866 0.219918
vt 0.876866 0.265016
vt 0.929755 0.210582
vt 0.929755 0.185908
vt 0.939797 0.189845
vt 0.939797 0.212037
vt 0.106515 0.971489
vt 0.098111 0.972014
vt 0.085771 0.948100
vt 0.106515 0.948321
vt 0.614529 0.524357
vt 0.614529 0.537598
vt 0.604487 0.536140
vt 0.604487 0.524231
vt 0.434915 0.061939
vt 0.437426 0.057956
vt 0.437426 0.084743
vt 0.974264 0.435460
vt 0.974264 0.527542
vt 0.960926 0.458690
vt 0.618939 0.662057
vt 0.631557 0.658042
vt 0.631557 0.719606
vt 0.342671 0.795818
vt 0.374971 0.734828
vt 0.374971 0.816202
vt 0.577864 0.802509
vt 0.552701 0.754996
vt 0.590785 0.734828
vt 0.590785 0.803843
vt 0.668251 0.336367
vt 0.654857 0.159974
vt 0.688074 0.156801
vt 0.688074 0.337641
vt 0.439054 0.652951
vt 0.307186 0.650385
vt 0.305323 0.615290
vt 0.439054 0.602514
vt 0.630866 0.511923
vt 0.484568 0.519140
vt 0.484568 0.468704
vt 0.630866 0.475921
vt 0.632762 0.590207
vt 0.486464 0.597424
vt 0.486464 0.546987
vt 0.632762 0.554204
vt 0.990351 0.181725
vt 0.990351 0.214697
vt 0.983922 0.213536
vt 0.983922 0.182338
vt 0.002545 0.609731
vt 0.148843 0.602514
vt 0.148843 0.652951
vt 0.002546 0.645734
vt 0.429824 0.101176
vt 0.283527 0.108393
vt 0.283527 0.057956
vt 0.429824 0.065173
vt 0.300232 0.645734
vt 0.153934 0.652951
vt 0.153934 0.602514
vt 0.300232 0.609731
vt 0.441168 0.430842
vt 0.002545 0.422309
vt 0.002545 0.388940
vt 0.441168 0.380406
vt 0.900585 0.770399
vt 0.858212 0.747785
vt 0.900585 0.720429
vt 0.002546 0.264260
vt 0.002545 0.213824
vt 0.441168 0.222357
vt 0.441168 0.255726
vt 0.939923 0.046476
vt 0.939923 0.180817
vt 0.929755 0.180388
vt 0.715953 0.276586
vt 0.725367 0.046476
vt 0.725367 0.485184
vt 0.441168 0.435933
vt 0.441168 0.486369
vt 0.002545 0.477835
vt 0.002545 0.444467
vt 0.441169 0.541896
vt 0.002545 0.533363
vt 0.002545 0.499994
vt 0.441169 0.491460
vt 0.269049 0.793243
vt 0.262704 0.793099
vt 0.262704 0.783419
vt 0.269049 0.783013
vt 0.599339 0.287714
vt 0.649766 0.156801
vt 0.649766 0.288695
vt 0.002546 0.597423
vt 0.002545 0.546987
vt 0.441167 0.555520
vt 0.441167 0.588889
vt 0.002545 0.319787
vt 0.002546 0.269351
vt 0.441169 0.277886
vt 0.441169 0.311254
vt 0.688219 0.343381
vt 0.688219 0.520282
vt 0.676830 0.517684
vt 0.654857 0.342732
vt 0.002546 0.324878
vt 0.441168 0.333414
vt 0.441168 0.366782
vt 0.002545 0.375315
vt 0.934160 0.991206
vt 0.934160 0.971671
vt 0.942219 0.974424
vt 0.942219 0.992909
vt 0.943697 0.775489
vt 0.943697 0.909786
vt 0.933642 0.907898
vt 0.623856 0.401920
vt 0.614343 0.402222
vt 0.614343 0.391168
vt 0.623856 0.390238
vt 0.479477 0.541896
vt 0.446260 0.104447
vt 0.479477 0.101274
vt 0.940646 0.706992
vt 0.932896 0.557199
vt 0.940646 0.546987
vt 0.813476 0.035914
vt 0.739455 0.032401
vt 0.739455 0.006059
vt 0.813476 0.002545
vt 0.357548 0.202379
vt 0.283527 0.198866
vt 0.283527 0.172524
vt 0.357548 0.169011
vt 0.734364 0.035914
vt 0.660342 0.032401
vt 0.660342 0.006059
vt 0.734364 0.002545
vt 0.717876 0.845355
vt 0.717876 0.878723
vt 0.643854 0.875210
vt 0.643854 0.848868
vt 0.263559 0.801689
vt 0.337580 0.805203
vt 0.337580 0.831544
vt 0.263559 0.835058
vt 0.516738 0.091441
vt 0.442716 0.087928
vt 0.442716 0.061586
vt 0.516738 0.058073
vt 0.337580 0.873517
vt 0.263559 0.870004
vt 0.263559 0.843662
vt 0.337580 0.840149
vt 0.416693 0.854662
vt 0.342671 0.851148
vt 0.342671 0.824807
vt 0.416693 0.821293
vt 0.436661 0.169011
vt 0.436661 0.202379
vt 0.362639 0.198866
vt 0.362639 0.172524
vt 0.796988 0.806895
vt 0.796988 0.840264
vt 0.722967 0.836750
vt 0.722967 0.810408
vt 0.796988 0.845355
vt 0.796988 0.878723
vt 0.722967 0.875210
vt 0.722967 0.848868
vt 0.626723 0.842302
vt 0.552701 0.838789
vt 0.552701 0.812447
vt 0.626723 0.808934
vt 0.664239 0.994082
vt 0.658654 0.994660
vt 0.658654 0.961406
vt 0.664239 0.958937
vt 0.893384 0.674146
vt 0.900585 0.674405
vt 0.900585 0.713382
vt 0.893384 0.715338
vt 0.870395 0.970799
vt 0.870395 0.995132
vt 0.862854 0.991774
vt 0.862854 0.968750
vt 0.377669 0.951049
vt 0.377669 0.988865
vt 0.369447 0.986096
vt 0.369447 0.950314
vt 0.986290 0.293097
vt 0.986290 0.273039
vt 0.993979 0.275993
vt 0.993979 0.294973
vt 0.628426 0.527439
vt 0.628426 0.536865
vt 0.619620 0.533150
vt 0.619620 0.524231
vt 0.125460 0.973606
vt 0.125460 0.994239
vt 0.117771 0.992362
vt 0.117771 0.972840
vt 0.203210 0.948100
vt 0.203210 0.988407
vt 0.193324 0.987061
vt 0.193324 0.948922
vt 0.717876 0.773651
vt 0.717876 0.832055
vt 0.703872 0.817695
vt 0.930045 0.009463
vt 0.953374 0.002545
vt 0.953374 0.032682
vt 0.730458 0.353570
vt 0.751039 0.341858
vt 0.751039 0.532216
vt 0.887199 0.713182
vt 0.880795 0.697290
vt 0.887199 0.694749
vt 0.846513 0.952634
vt 0.852858 0.952228
vt 0.852858 0.986420
vt 0.846513 0.988770
vt 0.484568 0.118834
vt 0.517891 0.101274
vt 0.517891 0.408086
vt 0.538945 0.524231
vt 0.538945 0.541365
vt 0.522884 0.537422
vt 0.615042 0.095869
vt 0.608287 0.081839
vt 0.615042 0.079331
vt 0.317922 0.987126
vt 0.317921 0.963079
vt 0.325981 0.967125
vt 0.325981 0.989879
vt 0.678162 0.527842
vt 0.683746 0.525373
vt 0.683746 0.535003
vt 0.678162 0.538020
vt 0.997455 0.616431
vt 0.990882 0.593859
vt 0.997455 0.587396
vt 0.957764 0.428281
vt 0.939561 0.418567
vt 0.957764 0.382064
vt 0.888915 0.970842
vt 0.897892 0.968750
vt 0.897892 0.987546
vt 0.888915 0.990706
vt 0.627327 0.966396
vt 0.633690 0.965291
vt 0.633690 0.992360
vt 0.627327 0.995004
vt 0.712976 0.995769
vt 0.712976 0.969607
vt 0.719353 0.971776
vt 0.719353 0.996531
vt 0.268232 0.987794
vt 0.261497 0.988440
vt 0.261497 0.956209
vt 0.268232 0.953731
vt 0.992798 0.267948
vt 0.986290 0.227481
vt 0.992798 0.219918
vt 0.169492 0.956951
vt 0.169492 0.987088
vt 0.162223 0.984220
vt 0.162223 0.955704
vt 0.603196 0.082612
vt 0.603196 0.095432
vt 0.594105 0.091461
vt 0.594105 0.079331
vt 0.678141 0.960858
vt 0.678141 0.984537
vt 0.669330 0.981343
vt 0.669330 0.958937
vt 0.673071 0.527850
vt 0.673071 0.540394
vt 0.667475 0.537243
vt 0.667475 0.525373
vt 0.798964 0.904775
vt 0.806024 0.903484
vt 0.806024 0.953964
vt 0.798964 0.958124
vt 0.571068 0.163201
vt 0.594248 0.156801
vt 0.594248 0.355709
vt 0.560967 0.353291
vt 0.402713 0.951807
vt 0.402713 0.993497
vt 0.396353 0.989761
vt 0.396353 0.950314
vt 0.536816 0.161085
vt 0.555876 0.156801
vt 0.555876 0.365116
vt 0.522982 0.359512
vt 0.364356 0.953858
vt 0.364356 0.990992
vt 0.356437 0.985451
vt 0.356437 0.950314
vt 0.982456 0.697407
vt 0.989099 0.667912
vt 0.989099 0.706417
vt 0.422956 0.658042
vt 0.422956 0.790832
vt 0.399969 0.702410
vt 0.508323 0.978036
vt 0.486464 0.949260
vt 0.508323 0.923136
vt 0.628365 0.293786
vt 0.628365 0.385147
vt 0.599339 0.338548
vt 0.717876 0.490976
vt 0.717876 0.541896
vt 0.694217 0.513275
vt 0.985921 0.176634
vt 0.969202 0.142715
vt 0.985921 0.114363
vt 0.843336 0.131843
vt 0.814545 0.076627
vt 0.843336 0.046476
vt 0.934160 0.942300
vt 0.943696 0.914877
vt 0.943696 0.966580
vt 0.636431 0.474134
vt 0.649766 0.293786
vt 0.649766 0.524088
vt 0.674370 0.119346
vt 0.684634 0.101274
vt 0.684634 0.146049
vt 0.610314 0.877321
vt 0.638619 0.847393
vt 0.638619 0.912015
vt 0.927805 0.661159
vt 0.914805 0.631359
vt 0.927805 0.546987
vt 0.818102 0.509698
vt 0.804315 0.396363
vt 0.818102 0.300889
vt 0.649998 0.808546
vt 0.643006 0.776324
vt 0.649998 0.712083
vt 0.481373 0.546987
vt 0.481373 0.987607
vt 0.446260 0.682811
vt 0.678111 0.546987
vt 0.678111 0.693463
vt 0.637853 0.691477
vt 0.380062 0.757279
vt 0.393494 0.734828
vt 0.393494 0.814117
vt 0.561367 0.539802
vt 0.544036 0.533525
vt 0.561367 0.524231
vt 0.428047 0.661757
vt 0.436710 0.658042
vt 0.436710 0.837869
vt 0.253779 0.985370
vt 0.243280 0.906778
vt 0.253779 0.899915
vt 0.710863 0.046476
vt 0.710863 0.337641
vt 0.693165 0.130078
vt 0.622236 0.988801
vt 0.613153 0.982257
vt 0.622236 0.965291
vt 0.513493 0.960802
vt 0.513493 0.923136
vt 0.519089 0.925612
vt 0.519089 0.961252
vt 0.407804 0.991104
vt 0.407804 0.950314
vt 0.414180 0.954678
vt 0.414180 0.993274
vt 0.987279 0.718221
vt 0.993787 0.713242
vt 0.993787 0.758688
vt 0.996608 0.651756
vt 0.990882 0.626306
vt 0.996608 0.621522
vt 0.888675 0.609142
vt 0.865671 0.608196
vt 0.854151 0.563195
vt 0.888675 0.546987
vt 0.585506 0.524871
vt 0.585506 0.534501
vt 0.571217 0.535105
vt 0.566458 0.524231
vt 0.287723 0.734828
vt 0.337580 0.744413
vt 0.337580 0.796598
vt 0.287909 0.774275
vt 0.117771 0.959505
vt 0.146480 0.948100
vt 0.146480 0.967749
vt 0.121581 0.967749
vt 0.771599 0.720429
vt 0.806024 0.737897
vt 0.806024 0.800052
vt 0.771153 0.770907
vt 0.156963 0.976939
vt 0.151571 0.972340
vt 0.156963 0.948100
vt 0.305086 0.957988
vt 0.306942 0.919429
vt 0.333553 0.905546
vt 0.333553 0.956316
vt 0.717876 0.768560
vt 0.655089 0.726766
vt 0.717876 0.712083
vt 0.985791 0.587396
vt 0.985791 0.662821
vt 0.982456 0.631545
vt 0.653563 0.958937
vt 0.653563 0.983769
vt 0.643854 0.977271
vt 0.883824 0.992999
vt 0.875485 0.977253
vt 0.883824 0.968750
vt 0.888075 0.689658
vt 0.880795 0.659246
vt 0.888075 0.614233
vt 0.876687 0.121901
vt 0.848427 0.095375
vt 0.876687 0.046476
vt 0.175384 0.966479
vt 0.188233 0.948100
vt 0.188233 0.982624
vt 0.382760 0.953929
vt 0.391262 0.950314
vt 0.391262 0.986829
vt 0.089011 0.746373
vt 0.108618 0.734828
vt 0.108618 0.770576
vt 0.090601 0.763059
vt 0.762249 0.974209
vt 0.751184 0.954145
vt 0.762249 0.932000
vt 0.708100 0.466865
vt 0.708100 0.485844
vt 0.693310 0.474755
vt 0.854151 0.620355
vt 0.875705 0.614233
vt 0.875704 0.707483
vt 0.978831 0.213956
vt 0.969202 0.210153
vt 0.978831 0.181725
vt 0.517793 0.538532
vt 0.484568 0.537129
vt 0.517793 0.524231
vt 0.403977 0.814682
vt 0.400570 0.806439
vt 0.403977 0.795923
vt 0.687577 0.096109
vt 0.660342 0.068888
vt 0.687577 0.041005
vt 0.875715 0.501647
vt 0.875715 0.537430
vt 0.843916 0.522481
vt 0.977365 0.704246
vt 0.969925 0.622362
vt 0.977365 0.587396
vt 0.055067 0.973275
vt 0.046738 0.954385
vt 0.055067 0.899915
vt 0.687443 0.979180
vt 0.687443 0.923325
vt 0.707092 0.910752
vt 0.707092 0.979180
vt 0.963748 0.300889
vt 0.980923 0.302863
vt 0.980923 0.367344
vt 0.963748 0.356744
vt 0.009510 0.981258
vt 0.002545 0.954309
vt 0.018680 0.948100
vt 0.018680 0.984615
vt 0.726457 0.946197
vt 0.746093 0.932000
vt 0.746093 0.966524
vt 0.725029 0.971450
vt 0.824344 0.288246
vt 0.858595 0.270107
vt 0.858595 0.294356
vt 0.948397 0.268103
vt 0.948397 0.290295
vt 0.919672 0.287734
vt 0.080680 0.948100
vt 0.080680 0.975935
vt 0.060158 0.971936
vt 0.591708 0.990044
vt 0.574654 0.959078
vt 0.591708 0.945769
vt 0.038565 0.979372
vt 0.023771 0.956893
vt 0.038565 0.948100
vt 0.783221 0.974127
vt 0.768618 0.961910
vt 0.783221 0.951701
vt 0.653426 0.089429
vt 0.650117 0.083751
vt 0.653426 0.080189
vt 0.339941 0.955585
vt 0.351346 0.950314
vt 0.351346 0.984294
vt 0.993928 0.375345
vt 0.986014 0.369771
vt 0.993928 0.352433
vt 0.993857 0.347342
vt 0.986014 0.310143
vt 0.993857 0.300889
vt 0.248355 0.787647
vt 0.257613 0.783013
vt 0.257613 0.839005
vt 0.772156 0.219918
vt 0.772156 0.336767
vt 0.730458 0.257286
vt 0.413011 0.945223
vt 0.339941 0.938704
vt 0.413011 0.926465
vt 0.802083 0.824410
vt 0.806024 0.805143
vt 0.806024 0.898393
vt 0.543982 0.846875
vt 0.533650 0.821855
vt 0.543982 0.792418
vt 0.957712 0.770399
vt 0.932613 0.747178
vt 0.957712 0.713242
vt 0.904710 0.533679
vt 0.880806 0.481761
vt 0.904710 0.451458
vt 0.649998 0.834281
vt 0.634027 0.824372
vt 0.649998 0.813637
vt 0.130551 0.991975
vt 0.130551 0.972840
vt 0.138971 0.974774
vt 0.138971 0.991984
vt 0.934470 0.362510
vt 0.901846 0.362510
vt 0.901846 0.300889
vt 0.934470 0.300889
vt 0.905676 0.770399
vt 0.905676 0.694315
vt 0.927522 0.694315
vt 0.927522 0.770399
vt 0.818567 0.035170
vt 0.818567 0.002545
vt 0.880188 0.002545
vt 0.880188 0.035170
vt 0.583450 0.058073
vt 0.583450 0.090697
vt 0.521829 0.090697
vt 0.521829 0.058073
vt 0.524180 0.932508
vt 0.524180 0.856424
vt 0.546026 0.856424
vt 0.546026 0.932508
vt 0.756130 0.514789
vt 0.832213 0.514789
vt 0.832213 0.536636
vt 0.756130 0.536636
vt 0.719938 0.905661
vt 0.643854 0.905661
vt 0.643854 0.883814
vt 0.719938 0.883814
vt 0.261497 0.878608
vt 0.337580 0.878608
vt 0.337580 0.900455
vt 0.261497 0.900455
vt 0.984808 0.424577
vt 0.992878 0.382064
vt 0.992878 0.427661
vt 0.342671 0.859753
vt 0.375296 0.859753
vt 0.375296 0.921374
vt 0.342671 0.921374
vt 0.814545 0.187124
vt 0.890629 0.187124
vt 0.890629 0.208970
vt 0.814545 0.208970
vt 0.967884 0.932748
vt 0.948788 0.930553
vt 0.948788 0.858858
vt 0.967884 0.856664
vt 0.964111 0.122559
vt 0.945014 0.120365
vt 0.945014 0.048670
vt 0.964111 0.046476
vt 0.958658 0.303084
vt 0.958657 0.374779
vt 0.939561 0.376973
vt 0.939561 0.300889
vt 0.936738 0.525347
vt 0.936738 0.453652
vt 0.955835 0.451458
vt 0.955835 0.527542
vt 0.948788 0.775489
vt 0.967884 0.777684
vt 0.967884 0.849379
vt 0.948788 0.851573
vt 0.434915 0.118059
vt 0.440611 0.113483
vt 0.440611 0.151785
vt 0.964111 0.203734
vt 0.945014 0.201540
vt 0.945014 0.129845
vt 0.964111 0.127650
vt 0.437198 0.861947
vt 0.437198 0.933642
vt 0.418102 0.935837
vt 0.418102 0.859753
vt 0.238070 0.975998
vt 0.218973 0.973804
vt 0.218973 0.902109
vt 0.238070 0.899915
vt 0.945737 0.628162
vt 0.964834 0.630356
vt 0.964834 0.702051
vt 0.945737 0.704246
vt 0.552701 0.715437
vt 0.552701 0.672342
vt 0.613848 0.658042
vt 0.613848 0.729737
vt 0.196167 0.729737
vt 0.135020 0.715437
vt 0.135020 0.672342
vt 0.196167 0.658042
vt 0.201258 0.715436
vt 0.201258 0.672342
vt 0.262404 0.658042
vt 0.262404 0.729737
vt 0.328641 0.729737
vt 0.267495 0.715437
vt 0.267495 0.672342
vt 0.328641 0.658042
vt 0.486464 0.658042
vt 0.547611 0.672342
vt 0.547611 0.715437
vt 0.486464 0.729737
vt 0.440268 0.098404
vt 0.440268 0.108393
vt 0.435454 0.107711
vt 0.434915 0.097646
vt 0.768618 0.930018
vt 0.793545 0.883814
vt 0.793545 0.946611
vt 0.063692 0.729737
vt 0.002545 0.715437
vt 0.002545 0.672342
vt 0.063692 0.658042
vt 0.129929 0.729737
vt 0.068783 0.715437
vt 0.068783 0.672342
vt 0.129929 0.658042
vt 0.333732 0.715436
vt 0.333732 0.672342
vt 0.394878 0.658042
vt 0.394878 0.729737
vt 0.643719 0.529689
vt 0.643719 0.539768
vt 0.637164 0.539309
vt 0.636431 0.529179
vt 0.645026 0.079331
vt 0.645026 0.089429
vt 0.635113 0.088622
vt 0.635113 0.079541
vt 0.777246 0.228939
vt 0.819253 0.219918
vt 0.819253 0.281538
vt 0.777247 0.272518
vt 0.049643 0.835613
vt 0.049642 0.792034
vt 0.091649 0.783013
vt 0.091649 0.844634
vt 0.697096 0.826251
vt 0.655089 0.835272
vt 0.655089 0.773651
vt 0.697096 0.782672
vt 0.853121 0.839741
vt 0.811115 0.848762
vt 0.811114 0.787141
vt 0.853121 0.796162
vt 0.096740 0.792034
vt 0.138746 0.783013
vt 0.138746 0.844634
vt 0.096740 0.835613
vt 0.002545 0.835613
vt 0.002545 0.792034
vt 0.044552 0.783013
vt 0.044552 0.844634
vt 0.849060 0.686053
vt 0.807054 0.695074
vt 0.807054 0.633453
vt 0.849060 0.642474
vt 0.849060 0.599587
vt 0.807054 0.608608
vt 0.807054 0.546987
vt 0.849060 0.556008
vt 0.853121 0.773029
vt 0.811114 0.782050
vt 0.811114 0.720429
vt 0.853121 0.729450
vt 0.595876 0.743849
vt 0.637883 0.734828
vt 0.637883 0.796449
vt 0.595876 0.787428
vt 0.143837 0.792034
vt 0.185843 0.783013
vt 0.185843 0.844634
vt 0.143837 0.835613
vt 0.914581 0.281539
vt 0.881956 0.281539
vt 0.881956 0.219918
vt 0.914581 0.219918
vt 0.924664 0.046476
vt 0.924664 0.122560
vt 0.902817 0.122560
vt 0.902817 0.046476
vt 0.928551 0.837110
vt 0.895927 0.837110
vt 0.895927 0.775489
vt 0.928551 0.775490
vt 0.931647 0.451458
vt 0.931647 0.527542
vt 0.909801 0.527542
vt 0.909801 0.451458
vt 0.902817 0.203734
vt 0.902817 0.127651
vt 0.924664 0.127651
vt 0.924664 0.203734
vt 0.928289 0.853853
vt 0.928289 0.929936
vt 0.906443 0.929936
vt 0.906443 0.853853
vt 0.901352 0.915473
vt 0.868727 0.915473
vt 0.868727 0.853853
vt 0.901352 0.853853
vt 0.890836 0.837110
vt 0.858212 0.837110
vt 0.858212 0.775490
vt 0.890836 0.775489
vt 0.486464 0.856424
vt 0.519089 0.856424
vt 0.519089 0.918045
vt 0.486464 0.918045
vt 0.901846 0.367601
vt 0.934470 0.367601
vt 0.934470 0.429222
vt 0.901846 0.429222
vt 0.380387 0.859753
vt 0.413011 0.859753
vt 0.413011 0.921374
vt 0.380387 0.921374
vt 0.599339 0.404208
vt 0.599339 0.390238
vt 0.609252 0.392450
vt 0.609252 0.405014
vt 0.841422 0.952609
vt 0.841422 0.978546
vt 0.830185 0.975555
vt 0.830185 0.952228
vt 0.600121 0.968854
vt 0.608062 0.965291
vt 0.608062 0.986199
vt 0.600121 0.992101
vt 0.988293 0.488950
vt 0.988293 0.529696
vt 0.979355 0.523531
vt 0.593126 0.400151
vt 0.589693 0.396929
vt 0.593126 0.370207
vt 0.896755 0.419932
vt 0.880806 0.360411
vt 0.896755 0.300889
vt 0.709259 0.461774
vt 0.693310 0.402253
vt 0.709259 0.342732
vt 0.909714 0.666029
vt 0.893766 0.606508
vt 0.909714 0.546987
vt 0.730458 0.099841
vt 0.761269 0.046476
vt 0.761269 0.214827
vt 0.234863 0.046118
vt 0.278436 0.002545
vt 0.278436 0.208733
vt 0.897726 0.165518
vt 0.881778 0.105997
vt 0.897726 0.046476
vt 0.722967 0.600352
vt 0.753777 0.546987
vt 0.753777 0.715338
vt 0.186200 0.046118
vt 0.229772 0.002545
vt 0.229772 0.208733
vt 0.409068 0.813550
vt 0.422956 0.795923
vt 0.422956 0.815145
vt 0.825094 0.974074
vt 0.811114 0.952228
vt 0.825094 0.952228
vt 0.962802 0.746786
vt 0.982188 0.713242
vt 0.982188 0.767161
vt 0.969202 0.061889
vt 0.987236 0.046476
vt 0.987236 0.109272
vt 0.777246 0.327294
vt 0.785030 0.289791
vt 0.798637 0.286629
vt 0.798637 0.331733
vt 0.945737 0.620877
vt 0.945737 0.549182
vt 0.964834 0.546987
vt 0.964834 0.623071
vt 0.655251 0.074240
vt 0.594105 0.059940
vt 0.594105 0.016846
vt 0.655251 0.002545
vt 0.926048 0.688690
vt 0.914805 0.688826
vt 0.914805 0.668644
vt 0.926048 0.666250
vt 0.924954 0.041289
vt 0.886145 0.035055
vt 0.885279 0.011824
vt 0.924954 0.002545
vt 0.296355 0.953731
vt 0.296355 0.980673
vt 0.287207 0.978607
vt 0.287207 0.954377
vt 0.002545 0.105639
vt 0.062067 0.002545
vt 0.181109 0.002545
vt 0.181109 0.208733
vt 0.630022 0.090189
vt 0.620133 0.090496
vt 0.620133 0.080731
vt 0.630022 0.079331
vt 0.201258 0.792034
vt 0.243264 0.783013
vt 0.243264 0.844634
vt 0.201258 0.835613
vt 0.112269 0.899915
vt 0.112269 0.939221
vt 0.103747 0.937041
vt 0.103747 0.901689
vt 0.282116 0.953731
vt 0.282116 0.981855
vt 0.273323 0.979250
vt 0.273323 0.953956
vt 0.170293 0.899915
vt 0.170293 0.950613
vt 0.162223 0.942428
vt 0.979355 0.439696
vt 0.988521 0.435460
vt 0.988521 0.483859
vt 0.976929 0.036749
vt 0.958465 0.031405
vt 0.976929 0.002545
vt 0.196018 0.783013
vt 0.196018 0.818731
vt 0.190934 0.816895
vt 0.540153 0.787327
vt 0.486464 0.782343
vt 0.540153 0.734828
vt 0.874301 0.293831
vt 0.863686 0.277910
vt 0.874301 0.270107
vt 0.584603 0.370207
vt 0.584603 0.402831
vt 0.522982 0.402831
vt 0.522982 0.370207
vn -0.9659 -0.0000 -0.2588
vn 0.9659 0.0000 0.2588
vn -0.2588 -0.0000 -0.9659
vn -0.7071 -0.0000 -0.7071
vn -0.6640 0.3438 0.6640
vn 0.7071 -0.0000 -0.7071
vn -0.7071 0.0000 0.7071
vn -0.9659 0.0000 0.2588
vn 0.9659 -0.0000 -0.2588
vn 0.7071 0.0000 0.7071
vn 0.2588 -0.0000 -0.9659
vn -0.2588 0.0000 0.9659
vn -0.9517 -0.1710 0.2550
vn -0.9385 -0.1820 0.2934
vn 0.2430 0.3438 0.9071
vn -0.6640 0.3438 -0.6640
vn -0.9071 0.3438 0.2430
vn 0.9071 0.3438 0.2430
vn -0.2430 0.3438 -0.9071
vn 0.2430 0.3438 -0.9071
vn -0.2430 0.3438 0.9071
vn 0.6640 0.3438 0.6640
vn -0.9071 0.3438 -0.2430
vn 0.6640 0.3438 -0.6640
vn 0.9071 0.3438 -0.2430
vn -0.2544 -0.1841 0.9494
vn -0.6967 -0.1710 0.6967
vn 0.2544 -0.1841 -0.9494
vn 0.9494 -0.1841 -0.2544
vn -0.6950 -0.1841 -0.6950
vn -0.7202 -0.6664 -0.1930
vn 0.1930 -0.6664 0.7202
vn 0.5272 -0.6664 -0.5272
vn -0.1930 -0.6664 -0.7202
vn 0.7202 -0.6664 -0.1930
vn 0.1930 -0.6664 -0.7202
vn -0.5272 -0.6664 0.5272
vn -0.1930 -0.6664 0.7202
vn 0.5272 -0.6664 0.5272
vn 0.7202 -0.6664 0.1930
vn -0.5272 -0.6664 -0.5272
vn 0.7635 -0.3828 0.5200
vn -0.2551 0.1681 0.9522
vn -0.6970 0.1681 -0.6970
vn -0.2551 0.1681 -0.9522
vn 0.6970 0.1681 -0.6970
vn 0.2551 0.1681 0.9522
vn -0.9522 0.1681 -0.2551
vn 0.9522 0.1681 0.2551
vn -0.9522 0.1681 0.2551
vn 0.6970 0.1681 0.6970
vn 0.2551 0.1681 -0.9522
vn -0.6970 0.1681 0.6970
vn 0.6950 -0.1841 0.6950
vn 0.7865 -0.1770 0.5916
vn 0.3149 -0.3554 0.8801
vn 0.5872 -0.3556 0.7272
vn 0.2588 0.0000 0.9659
vn 0.7794 -0.3259 0.5351
vn 0.8251 -0.4467 0.3461
vn 0.4759 -0.3801 0.7931
vn 0.9522 0.1681 -0.2551
vn -0.7202 -0.6664 0.1930
vn 0.5780 -0.3519 0.7362
vn 0.5475 -0.3461 0.7619
vn 0.2751 -0.0506 0.9601
vn 0.3594 -0.3794 0.8526
vn 0.5779 -0.3519 0.7363
vn -0.9634 0.0726 0.2581
vn 0.2581 0.0726 0.9634
vn -0.9494 -0.1841 -0.2544
vn 0.9494 -0.1841 0.2544
vn 0.3900 -0.1435 0.9096
vn 0.6950 -0.1841 -0.6950
vn -0.2544 -0.1841 -0.9494
vn 0.2544 -0.1841 0.9494
vn 0.9634 0.0726 -0.2581
vn -0.2581 0.0726 0.9634
vn 0.9634 0.0726 0.2581
vn -0.2581 0.0726 -0.9634
vn 0.2581 0.0726 -0.9634
vn -0.1833 0.9777 -0.1023
vn 0.7052 0.0726 0.7052
vn 0.7052 0.0726 -0.7052
vn -0.9634 0.0726 -0.2581
vn -0.7052 0.0726 0.7052
vn -0.7052 0.0726 -0.7052
vn -0.4282 -0.6948 0.5778
vn -0.4407 -0.6282 0.6412
vn -0.8374 -0.2322 0.4947
vn -0.9506 0.1771 0.2547
vn -0.6959 0.1771 -0.6959
vn -0.2547 0.1771 0.9506
vn 0.2547 0.1771 -0.9506
vn 0.2547 0.1771 0.9506
vn 0.6959 0.1771 0.6959
vn -0.6959 0.1771 0.6959
vn 0.9506 0.1771 0.2547
vn 0.9506 0.1771 -0.2547
vn -0.2547 0.1771 -0.9506
vn 0.6959 0.1771 -0.6959
vn -0.9506 0.1771 -0.2547
vn 0.0416 0.9979 -0.0495
vn 0.6372 0.6791 0.3645
vn 0.5835 -0.8121 -0.0095
vn 0.6795 -0.6825 0.2694
vn -0.2815 0.6449 -0.7105
vn -0.7536 -0.6107 0.2430
vn -0.2816 0.6448 -0.7105
vn -0.4889 0.7224 0.4889
vn 0.1898 -0.7332 0.6530
vn 0.3955 0.1449 0.9070
vn 0.6027 0.7578 0.2501
vn -0.4281 -0.6948 0.5779
vn 0.5019 0.0731 0.8618
vn -0.7004 -0.6457 0.3040
vn 0.1626 -0.7611 0.6279
vn -0.8510 -0.5185 -0.0834
vn -0.8225 -0.0061 -0.5687
vn -0.8717 0.4885 -0.0389
vn 0.2083 0.6591 0.7227
vn 0.2063 0.6617 0.7209
vn 0.2039 0.6599 0.7231
vn -0.1298 0.6153 0.7776
vn -0.7527 -0.6112 0.2447
vn -0.4348 -0.8941 0.1072
vn -0.6875 -0.3942 -0.6099
vn -0.4399 0.0238 0.8977
vn -0.4091 0.0717 0.9097
vn 0.2014 0.6672 0.7172
vn 0.2042 0.6686 0.7151
vn 0.1998 0.6698 0.7151
vn 0.0031 0.2342 0.9722
vn 0.0585 0.1305 0.9897
vn 0.2286 0.0530 0.9721
vn 0.0620 -0.0955 0.9935
vn -0.4211 0.7331 0.5341
vn -0.1153 -0.5288 0.8409
vn -0.1185 -0.5278 0.8410
vn -0.1173 -0.5288 0.8406
vn -0.6950 -0.1841 0.6950
vn 0.9585 -0.0730 -0.2757
vn 0.2603 0.0195 0.9653
vn 0.4024 0.1291 0.9063
vn 0.3051 0.0509 0.9510
vn -0.6439 0.3740 0.6674
vn -0.4347 -0.8942 0.1072
vn -0.8513 -0.5179 -0.0839
vn -0.1142 -0.5307 0.8398
vn -0.1141 -0.5290 0.8409
vn -0.1157 -0.5290 0.8407
vn -0.7200 0.1611 0.6750
vn -0.5122 0.2414 0.8242
vn -0.8151 0.1730 0.5529
vn -0.8735 0.0625 0.4828
vn -0.9258 0.2010 0.3201
vn -0.9429 0.1181 0.3114
vn -0.5331 -0.0011 0.8461
vn -0.5847 0.0368 0.8104
vn -0.2546 -0.0199 0.9668
vn -0.6620 0.0010 0.7495
vn -0.7508 0.0930 0.6539
vn -0.7091 0.0113 0.7050
vn -0.6416 0.0373 0.7661
vn 0.1263 0.8728 0.4714
vn 0.3451 0.8728 0.3451
vn 0.2334 0.0965 0.9676
vn 0.5406 0.0473 0.8399
vn 0.6388 0.4289 0.6388
vn -0.5799 -0.0983 0.8087
vn -0.6619 0.0609 0.7472
vn -0.7081 0.1428 0.6915
vn 0.2338 0.4289 0.8726
vn 0.4714 0.8728 0.1263
vn -0.7012 0.1337 0.7003
vn -0.8468 -0.0021 0.5319
vn -0.7833 -0.1278 0.6084
vn -0.5535 -0.0572 0.8309
vn -0.9456 0.2849 0.1568
vn -0.9876 -0.1330 0.0835
vn 0.9476 0.2875 -0.1393
vn 0.9354 -0.1732 0.3082
vn -0.6388 0.4289 0.6388
vn 0.8726 0.4289 -0.2338
vn 0.2338 0.4289 -0.8726
vn 0.6388 0.4289 -0.6388
vn -0.8726 0.4289 0.2338
vn -0.8726 0.4289 -0.2338
vn -0.2338 0.4289 -0.8726
vn -0.2338 0.4289 0.8726
vn -0.6388 0.4289 -0.6388
vn -0.4715 0.8728 0.1263
vn -0.1263 0.8728 -0.4715
vn -0.1263 0.8728 0.4714
vn -0.3451 0.8728 -0.3451
vn -0.4715 0.8728 -0.1263
vn -0.4237 -0.5162 0.7444
vn -0.4212 -0.5174 0.7449
vn -0.4221 -0.5159 0.7454
vn 0.3451 0.8728 -0.3451
vn 0.1263 0.8728 -0.4715
vn -0.3451 0.8728 0.3451
vn -0.6134 0.6340 0.4709
vn -0.6736 0.4191 0.6088
vn 0.5777 -0.8015 -0.1548
vn 0.1548 -0.8015 -0.5777
vn 0.4229 -0.8015 -0.4229
vn 0.1548 -0.8015 0.5777
vn -0.5777 -0.8015 0.1548
vn -0.4229 -0.8015 -0.4229
vn 0.4229 -0.8015 0.4229
vn -0.1548 -0.8015 0.5777
vn -0.4229 -0.8015 0.4229
vn -0.1548 -0.8015 -0.5777
vn 0.5777 -0.8015 0.1548
vn 0.8475 -0.4901 0.2036
vn -0.6183 -0.2133 0.7565
vn 0.0000 1.0000 0.0000
vn 0.8726 0.4289 0.2338
vn 0.4714 0.8728 -0.1263
vn 0.7906 0.6118 -0.0249
vn -0.4372 0.6293 0.6426
vn -0.4197 -0.5195 0.7443
vn -0.4181 -0.5192 0.7454
vn -0.4207 -0.5178 0.7449
vn -0.5777 -0.8015 -0.1548
vn -0.6418 0.7528 -0.1467
vn -0.6486 0.7518 -0.1187
g Column_Egypt_2_Column_Egypt_2_Collor_Material
usemtl Collor_Material
s off
f 53/1/1 6/2/1 4/3/1 54/4/1
f 15/5/2 157/6/2 165/7/2
f 55/8/3 2/9/3 23/10/3 46/11/3
f 54/12/4 4/13/4 2/14/4 55/15/4
f 8/16/5 10/17/5 60/18/5 59/19/5
f 47/20/6 21/21/6 19/22/6 48/23/6
f 51/24/7 10/25/7 8/26/7 52/27/7
f 52/28/8 8/29/8 6/30/8 53/31/8
f 48/32/9 19/33/9 17/34/9 49/35/9
f 166/36/10 155/37/10 15/38/10 13/39/10
f 46/40/11 23/41/11 21/42/11 47/43/11
f 50/44/12 11/45/12 10/46/12 51/47/12
f 58/48/13 59/49/13 212/50/14 70/51/14
f 13/52/15 62/53/15 61/54/15 11/55/15
f 2/56/16 4/57/16 57/58/16 56/59/16
f 6/60/17 8/61/17 59/62/17 58/63/17
f 17/64/18 64/65/18 63/66/18 15/67/18
f 23/68/19 2/69/19 56/70/19 67/71/19
f 23/72/20 67/73/20 66/74/20 21/75/20
f 11/76/21 61/77/21 60/78/21 10/79/21
f 15/80/22 63/81/22 62/82/22 13/83/22
f 4/84/23 6/85/23 58/86/23 57/87/23
f 21/88/24 66/89/24 65/90/24 19/91/24
f 19/92/25 65/93/25 64/94/25 17/95/25
f 60/96/26 61/97/26 72/98/26 71/99/26
f 60/100/27 212/101/27 59/102/27
f 66/103/28 67/104/28 78/105/28 77/106/28
f 64/107/29 65/108/29 76/109/29 75/110/29
f 56/111/30 57/112/30 69/113/30 68/114/30
f 147/115/31 93/116/31 92/117/31 150/118/31
f 144/119/32 146/120/32 97/121/32 96/122/32
f 145/123/33 101/124/33 100/125/33 149/126/33
f 140/127/34 91/128/34 102/129/34 139/130/34
f 149/131/35 100/132/35 99/133/35 142/134/35
f 139/135/36 102/136/36 101/137/36 145/138/36
f 148/139/37 143/140/37 95/141/37 94/142/37
f 143/143/38 144/144/38 96/145/38 95/146/38
f 146/147/39 141/148/39 98/149/39 97/150/39
f 141/151/40 142/152/40 99/153/40 98/154/40
f 150/155/41 92/156/41 91/157/41 140/158/41
f 159/159/42 165/160/42 191/161/42 185/162/42
f 96/163/43 134/164/43 133/165/43 95/166/43
f 91/167/44 92/168/44 127/169/44 130/170/44
f 102/171/45 91/172/45 130/173/45 129/174/45
f 100/175/46 101/176/46 135/177/46 138/178/46
f 97/179/47 136/180/47 134/181/47 96/182/47
f 92/183/48 93/184/48 128/185/48 127/186/48
f 99/187/49 132/188/49 131/189/49 98/190/49
f 94/191/50 137/192/50 128/193/50 93/194/50
f 98/195/51 131/196/51 136/197/51 97/198/51
f 101/199/52 102/200/52 129/201/52 135/202/52
f 95/203/53 133/204/53 137/205/53 94/206/53
f 62/207/54 63/208/54 74/209/54 73/210/54
f 49/211/2 17/212/2 15/213/2
f 154/214/55 178/215/56 152/216/57
f 166/217/10 13/218/10 153/219/10
f 152/220/58 50/221/58 154/222/58
f 153/223/59 179/224/59 192/225/59 166/226/59
f 165/227/60 157/228/60 183/229/60 191/230/60
f 152/231/61 178/232/61 179/233/61 153/234/61
f 99/235/62 100/236/62 138/237/62 132/238/62
f 147/239/63 148/240/63 94/241/63 93/242/63
f 155/243/64 166/244/64 192/245/64 181/246/64
f 154/247/65 180/248/58 176/249/66 178/250/67
f 157/251/68 155/252/68 181/253/68 183/254/68
f 159/255/2 49/256/2 165/257/2
f 49/258/2 15/259/2 165/260/2
f 155/261/10 157/262/10 15/263/10
f 152/264/58 11/265/58 50/266/58
f 153/267/58 13/268/58 11/269/58 152/270/58
f 218/271/69 82/272/69 81/273/69 210/274/69
f 73/275/70 205/276/70 197/277/70 72/278/70
f 58/279/71 70/280/71 69/281/71 57/282/71
f 64/283/72 75/284/72 74/285/72 63/286/72
f 223/287/73 224/288/73 256/289/73 255/290/73
f 66/291/74 77/292/74 76/293/74 65/294/74
f 56/295/75 68/296/75 78/297/75 67/298/75
f 62/299/76 73/300/76 72/301/76 61/302/76
f 76/303/77 88/304/77 87/305/77 75/306/77
f 226/307/78 71/308/78 72/309/78
f 74/310/79 75/311/79 87/312/79 86/313/79
f 72/314/70 197/315/70 202/316/70
f 222/317/69 81/318/69 70/319/69
f 78/320/80 68/321/80 79/322/80 90/323/80
f 78/324/81 90/325/81 89/326/81 77/327/81
f 202/328/82 234/329/82 239/330/82 209/331/82
f 74/332/83 205/333/83 73/334/83
f 76/335/84 77/336/84 89/337/84 88/338/84
f 69/339/85 70/340/85 81/341/85 80/342/85
f 82/343/86 218/344/86 221/345/86 83/346/86
f 69/347/87 80/348/87 79/349/87 68/350/87
f 204/351/88 206/352/88 236/353/88 249/354/88
f 72/355/78 202/356/78 209/357/78
f 218/358/89 247/359/89 253/360/89 221/361/89
f 74/362/83 86/363/83 85/364/83
f 60/365/90 219/366/90 212/367/90
f 82/368/91 148/369/91 147/370/91 81/371/91
f 80/372/92 150/373/92 140/374/92 79/375/92
f 84/376/93 144/377/93 143/378/93 83/379/93
f 89/380/94 90/381/94 139/382/94 145/383/94
f 85/384/95 146/385/95 144/386/95 84/387/95
f 86/388/96 141/389/96 146/390/96 85/391/96
f 83/392/97 143/393/97 148/394/97 82/395/97
f 87/396/98 142/397/98 141/398/98 86/399/98
f 87/400/99 88/401/99 149/402/99 142/403/99
f 90/404/100 79/405/100 140/406/100 139/407/100
f 88/408/101 89/409/101 145/410/101 149/411/101
f 81/412/102 147/413/102 150/414/102 80/415/102
f 205/416/103 252/417/103 231/418/103 197/419/103
f 217/420/104 246/421/104 254/422/104 222/423/104
f 220/424/105 201/425/105 245/426/105 250/427/105
f 201/428/106 225/429/106 257/430/106 245/431/106
f 207/432/107 204/433/107 249/434/107 237/435/107
f 198/436/108 221/437/108 253/438/108 232/439/108
f 227/440/109 207/441/109 237/442/109 259/443/109
f 219/444/110 71/445/110 229/446/110 248/447/110
f 208/448/78 204/449/78 207/450/78
f 201/451/86 220/452/86 200/453/86
f 198/454/86 213/455/86 83/456/86
f 199/457/111 216/458/111 241/459/111
f 209/460/82 239/461/82 244/462/82 214/463/82
f 196/464/70 205/465/70 85/466/112
f 216/467/86 199/468/86 217/469/86
f 199/470/113 246/471/113 217/472/113
f 206/473/114 213/474/114 243/475/114 236/476/114
f 197/477/103 231/478/103 234/479/103 202/480/103
f 211/481/115 240/482/115 210/483/115
f 207/484/78 227/485/78 208/486/78
f 210/487/116 240/488/116 247/489/116 218/490/116
f 223/491/117 255/492/117 241/493/117 216/494/117
f 203/495/118 208/496/118 238/497/118 235/498/118
f 214/499/119 244/500/119 228/501/119 215/502/119
f 226/503/120 229/504/120 71/505/120
f 200/506/121 220/507/122 250/508/122 242/509/123
f 212/510/124 219/511/124 248/512/124 233/513/124
f 213/514/125 198/515/125 232/516/125 243/517/125
f 196/518/126 203/519/126 235/520/126 230/521/126
f 215/522/127 228/523/127 258/524/127 226/525/127
f 213/526/78 206/527/128 84/528/129 83/529/78
f 224/530/130 200/531/131 242/532/132 256/533/130
f 206/534/133 204/535/134 85/536/135 84/537/136
f 225/538/137 212/539/137 233/540/137 257/541/137
f 211/542/138 254/543/139 260/544/140
f 72/545/78 209/546/78 226/547/78
f 209/548/78 214/549/78 215/550/78
f 226/551/78 209/552/78 215/553/78
f 70/554/69 212/555/69 225/556/69
f 225/557/69 201/558/69 200/559/69
f 225/560/69 200/561/69 224/562/69
f 211/563/69 210/564/69 222/565/69
f 210/566/69 81/567/69 222/568/69
f 216/569/69 217/570/69 223/571/69
f 217/572/69 222/573/69 223/574/69
f 70/575/69 225/576/69 224/577/69
f 70/578/69 224/579/69 222/580/69
f 224/581/69 223/582/69 222/583/69
f 74/584/83 85/585/83 205/586/83
f 60/587/141 71/588/141 219/589/141
f 208/590/78 203/591/78 204/592/78
f 199/593/142 241/594/142 246/595/142
f 221/596/86 198/597/86 83/598/86
f 204/599/143 203/600/70 196/601/70
f 196/602/70 85/603/144 204/604/145
f 211/605/146 260/606/146 240/607/146
f 205/608/147 196/609/147 230/610/147 252/611/147
f 208/612/148 227/613/148 259/614/148 238/615/148
f 226/616/120 258/617/120 229/618/120
f 211/619/149 222/620/150 254/621/151
f 250/622/152 245/623/86 248/624/86 229/625/153
f 234/626/70 231/627/70 230/628/70 235/629/70
f 242/630/154 251/631/155 241/632/156 256/633/157
f 189/634/10 172/635/10 170/636/10 187/637/10
f 228/638/158 250/639/159 229/640/160 258/641/78
f 192/642/10 179/643/10 176/644/10
f 250/645/161 228/646/162 251/647/163 242/648/164
f 176/649/165 174/650/165 173/651/165
f 175/652/166 173/653/166 195/654/166
f 176/655/167 179/656/58 178/657/168
f 175/658/10 183/659/10 181/660/10
f 176/661/165 194/662/165 174/663/165
f 175/664/166 176/665/166 173/666/166
f 191/667/2 175/668/2 185/669/2
f 186/670/169 188/671/169 172/672/169
f 236/673/78 243/674/78 259/675/78 237/676/78
f 239/677/78 235/678/78 238/679/78
f 237/680/78 249/681/78 236/682/78
f 243/683/86 232/684/86 241/685/170
f 244/686/86 251/687/171 228/688/172
f 231/689/70 252/690/70 230/691/70
f 232/692/86 253/693/86 247/694/86
f 260/695/69 254/696/69 246/697/69
f 245/698/69 257/699/69 233/700/69
f 244/701/78 259/702/78 243/703/78
f 247/704/69 260/705/69 246/706/69
f 172/707/58 182/708/58 171/709/58 170/710/58
f 172/711/173 173/712/173 174/713/173 182/714/173
f 184/715/169 173/716/169 172/717/169 188/718/169
f 190/719/174 185/720/174 175/721/174 177/722/174
f 176/723/10 175/724/10 181/725/10
f 181/726/10 192/727/10 176/728/10
f 173/729/166 184/730/166 195/731/166
f 195/732/166 177/733/166 175/734/166
f 176/735/165 180/736/165 194/737/165
f 191/738/2 183/739/2 175/740/2
f 186/741/169 193/742/169 188/743/169
f 189/744/10 186/745/10 172/746/10
f 239/747/78 234/748/78 235/749/78
f 245/750/86 233/751/86 248/752/86
f 251/753/175 244/754/86 241/755/176
f 244/756/86 243/757/86 241/758/177
f 247/759/86 246/760/86 232/761/86
f 246/762/86 241/763/178 232/764/86
f 241/765/179 255/766/69 256/767/180
f 244/768/78 239/769/78 238/770/78
f 244/771/78 238/772/78 259/773/78
f 247/774/69 240/775/69 260/776/69
f 154/777/181 168/778/181 194/779/181 180/780/181
f 110/781/10 122/782/10 121/783/10 109/784/10
f 25/785/6 26/786/6 5/787/6 3/788/6
f 109/789/58 121/790/58 120/791/58 108/792/58
f 103/793/3 115/794/3 126/795/3 114/796/3
f 26/797/9 27/798/9 7/799/9 5/800/9
f 27/801/2 28/802/2 9/803/2 7/804/2
f 24/805/11 25/806/11 3/807/11 1/808/11
f 32/809/1 33/810/1 20/811/1 18/812/1
f 168/813/182 174/814/182 194/815/182
f 108/816/12 120/817/12 119/818/12 107/819/12
f 31/820/8 32/821/8 18/822/8 16/823/8
f 30/824/183 41/825/183 42/826/183 31/827/183
f 26/828/184 37/829/184 38/830/184 27/831/184
f 35/832/185 36/833/185 25/834/185 24/835/185
f 36/836/186 37/837/186 26/838/186 25/839/186
f 31/840/187 42/841/187 43/842/187 32/843/187
f 167/844/169 160/845/169 28/846/169
f 32/847/188 43/848/188 44/849/188 33/850/188
f 45/851/189 35/852/189 24/853/189 34/854/189
f 29/855/190 40/856/190 41/857/190 30/858/190
f 33/859/191 44/860/191 45/861/191 34/862/191
f 52/863/192 53/864/192 43/865/192 42/866/192
f 45/867/193 55/868/193 46/869/193 35/870/193
f 50/871/194 51/872/194 41/873/194 40/874/194
f 44/875/195 54/876/195 55/877/195 45/878/195
f 43/879/196 53/880/196 54/881/196 44/882/196
f 162/883/197 188/884/198 193/885/199 167/886/199
f 164/887/174 38/888/174 49/889/174
f 36/890/200 47/891/200 48/892/200 37/893/200
f 35/894/201 46/895/201 47/896/201 36/897/201
f 51/898/202 52/899/202 42/900/202 41/901/202
f 167/902/203 193/903/203 186/904/203 160/905/203
f 161/906/204 163/907/204 189/908/204 187/909/204
f 138/910/205 112/911/205 111/912/205 132/913/205
f 135/914/206 129/915/206 114/916/206 113/917/206
f 135/918/207 113/919/207 112/920/207 138/921/207
f 136/922/208 109/923/208 108/924/208 134/925/208
f 137/926/209 106/927/209 105/928/209 128/929/209
f 130/930/210 127/931/210 104/932/210 103/933/210
f 131/934/211 110/935/211 109/936/211 136/937/211
f 134/938/212 108/939/212 107/940/212 133/941/212
f 133/942/213 107/943/213 106/944/213 137/945/213
f 130/946/214 103/947/214 114/948/214 129/949/214
f 132/950/215 111/951/215 110/952/215 131/953/215
f 112/954/9 124/955/9 123/956/9 111/957/9
f 34/958/3 24/959/3 1/960/3 22/961/3
f 106/962/8 118/963/8 117/964/8 105/965/8
f 30/966/7 31/967/7 16/968/7 14/969/7
f 29/970/12 30/971/12 14/972/12 12/973/12
f 33/974/4 34/975/4 22/976/4 20/977/4
f 105/978/1 117/979/1 116/980/1 104/981/1
f 111/982/2 123/983/2 122/984/2 110/985/2
f 107/986/7 119/987/7 118/988/7 106/989/7
f 104/990/4 116/991/4 115/992/4 103/993/4
f 113/994/6 125/995/6 124/996/6 112/997/6
f 163/998/204 160/999/204 186/1000/204 189/1001/204
f 156/1002/216 12/1003/216 171/1004/216 182/1005/216
f 169/1006/217 195/1007/217 184/1008/217 158/1009/217
f 39/1010/169 158/1011/169 162/1012/169
f 49/1013/174 159/1014/174 164/1015/174
f 124/1016/218 125/1017/218 126/1018/218
f 126/1019/218 115/1020/218 116/1021/218
f 116/1022/218 117/1023/218 118/1024/218
f 118/1025/218 119/1026/218 116/1027/218
f 119/1028/218 120/1029/218 116/1030/218
f 120/1031/218 121/1032/218 122/1033/218
f 122/1034/218 123/1035/218 120/1036/218
f 123/1037/218 124/1038/218 120/1039/218
f 156/1040/173 40/1041/173 29/1042/173
f 12/1043/58 156/1044/58 29/1045/58
f 151/1046/174 39/1047/174 164/1048/174
f 168/1049/165 50/1050/165 40/1051/165
f 28/1052/10 160/1053/10 163/1054/10 9/1055/10
f 38/1056/219 39/1057/219 28/1058/219 27/1059/219
f 37/1060/220 48/1061/220 49/1062/220 38/1063/220
f 156/1064/221 182/1065/221 174/1066/221 40/1067/221
f 151/1068/166 169/1069/166 158/1070/166 39/1071/166
f 164/1072/222 159/1073/222 185/1074/222 190/1075/222
f 124/1076/218 126/1077/218 116/1078/218 120/1079/218
f 158/1080/223 184/1081/223 188/1082/224 162/1083/225
f 128/1084/226 105/1085/226 104/1086/226 127/1087/226
f 169/1088/227 151/1089/227 177/1090/227 195/1091/227
f 151/1092/228 164/1093/228 190/1094/228 177/1095/228
f 168/1096/182 40/1097/182 174/1098/182
f 163/1099/10 161/1100/10 9/1101/10
f 28/1102/169 39/1103/169 167/1104/169
f 39/1105/169 162/1106/169 167/1107/169
f 164/1108/174 39/1109/174 38/1110/174
f 168/1111/165 154/1112/165 50/1113/165
f 114/1114/11 126/1115/11 125/1116/11 113/1117/11
