# Blender v3.0.0 OBJ File: 'aa.blend'
# www.blender.org
mtllib Crane_1.mtl
o Crane_1
v -3.204742 4.393850 0.150959
v -3.204742 4.695774 0.150959
v -3.204742 4.695774 -0.150965
v -3.204742 4.393850 -0.150965
v 0.150962 4.318342 0.187450
v -0.150963 4.318342 0.187450
v -0.150963 4.318342 -0.187454
v 0.150962 4.318342 -0.187454
v 0.175743 4.318342 0.218221
v 0.175743 4.611774 0.218221
v -0.175744 4.611774 0.218221
v -0.175744 4.611774 -0.218226
v 0.175743 4.611774 -0.218226
v -0.175744 4.318342 0.218221
v -0.175744 4.318342 -0.218226
v 0.175743 4.318342 -0.218226
v -2.749595 4.412044 0.108098
v -2.749595 4.672494 0.108098
v -2.749595 4.672494 -0.108104
v -2.749595 4.412044 -0.108104
v -0.054946 2.428391 0.108100
v -0.054946 2.687886 0.108100
v -0.054946 2.687886 -0.108102
v -0.054946 2.428391 -0.108102
v -2.911234 1.816936 0.029827
v -2.851578 1.816936 0.029827
v -2.851578 1.816936 -0.029829
v -2.911234 1.816936 -0.029829
v -2.851579 4.260924 -0.029830
v -2.911234 4.260924 -0.029830
v -2.911234 4.260924 0.029825
v -2.851579 4.260924 0.029825
v -2.952752 4.544812 0.071344
v -2.810060 4.544812 0.071344
v -2.810060 4.544812 -0.071349
v -2.952752 4.544812 -0.071349
v -2.952752 4.282024 -0.071349
v -2.810060 4.282024 0.071344
v -2.810060 4.282024 -0.071349
v -2.952752 4.282024 0.071344
v -2.810060 4.419769 0.025505
v -2.810060 4.419769 -0.025510
v -2.810060 4.325818 0.025505
v -2.810060 4.325818 -0.025510
v -0.222469 2.490376 0.025506
v -0.222469 2.490376 -0.025509
v -0.222469 2.396426 0.025506
v -0.222469 2.396426 -0.025509
v -0.166610 2.450631 0.025506
v -0.166610 2.450631 -0.025509
v -0.166610 2.356681 0.025506
v -0.166610 2.356681 -0.025509
v -0.222468 0.129411 0.025507
v -0.222468 0.129410 -0.025507
v -0.166610 0.089665 0.025507
v -0.166610 0.089665 -0.025507
v -0.474691 2.380542 0.204428
v -0.474691 2.380542 -0.204431
v -0.425981 2.262945 0.204428
v -0.425981 2.262945 -0.204431
v -0.308384 2.214235 0.204428
v -0.308384 2.214235 -0.204431
v -0.190788 2.262945 0.204428
v -0.190788 2.262945 -0.204431
v -0.142078 2.380542 0.204428
v -0.142078 2.380542 -0.204431
v -0.190788 2.498138 0.204428
v -0.190788 2.498138 -0.204431
v -0.308384 2.546848 0.204428
v -0.308384 2.546848 -0.204431
v -0.425981 2.498138 0.204428
v -0.425981 2.498138 -0.204431
v -0.474691 2.380542 0.121006
v -0.474691 2.380542 -0.121009
v -0.425981 2.262945 -0.121009
v -0.425981 2.262945 0.121007
v -0.308384 2.214235 -0.121009
v -0.308384 2.214235 0.121007
v -0.190788 2.262945 -0.121009
v -0.190788 2.262945 0.121007
v -0.142078 2.380542 -0.121009
v -0.142078 2.380542 0.121006
v -0.190788 2.498138 -0.121009
v -0.190788 2.498138 0.121006
v -0.308384 2.546848 -0.121009
v -0.308384 2.546848 0.121006
v -0.425981 2.498138 -0.121009
v -0.425981 2.498138 0.121006
v -0.379274 2.380542 0.121006
v -0.379274 2.380542 -0.121009
v -0.358511 2.330415 -0.121009
v -0.358511 2.330415 0.121007
v -0.308384 2.309652 -0.121009
v -0.308384 2.309652 0.121007
v -0.258258 2.330415 -0.121009
v -0.258258 2.330415 0.121007
v -0.237494 2.380542 -0.121009
v -0.237494 2.380542 0.121006
v -0.258258 2.430668 -0.121009
v -0.258258 2.430668 0.121006
v -0.308384 2.451432 -0.121009
v -0.308384 2.451432 0.121006
v -0.358511 2.430668 -0.121009
v -0.358511 2.430668 0.121006
v -0.345314 0.222260 0.204430
v -0.345314 0.526043 -0.204430
v -0.334498 0.196147 0.204430
v -0.334498 0.499930 -0.204430
v -0.308384 0.185330 0.204430
v -0.308384 0.489114 -0.204430
v -0.282271 0.196147 0.204430
v -0.282271 0.499930 -0.204430
v -0.271454 0.222260 0.204430
v -0.271454 0.526043 -0.204430
v -0.282271 0.248373 0.204430
v -0.282271 0.552157 -0.204430
v -0.308384 0.259190 0.204430
v -0.308384 0.562973 -0.204430
v -0.334498 0.248373 0.204430
v -0.334498 0.552157 -0.204430
v -0.598369 0.394424 0.121008
v -0.598369 0.394424 -0.121008
v -0.513434 0.189374 -0.121008
v -0.513434 0.189374 0.121008
v -0.308384 0.104439 -0.121008
v -0.308384 0.104439 0.121008
v -0.103334 0.189374 -0.121008
v -0.103334 0.189374 0.121008
v -0.018399 0.394424 -0.121008
v -0.018399 0.394424 0.121008
v -0.103334 0.599474 -0.121008
v -0.103334 0.599474 0.121007
v -0.308384 0.684408 -0.121008
v -0.308384 0.684408 0.121007
v -0.513434 0.599474 -0.121008
v -0.513434 0.599474 0.121007
v -0.504855 0.394424 0.121008
v -0.504855 0.394424 -0.121008
v -0.447310 0.255498 -0.121008
v -0.447310 0.255498 0.121008
v -0.308384 0.197953 -0.121008
v -0.308384 0.197953 0.121008
v -0.169458 0.255498 -0.121008
v -0.169458 0.255498 0.121008
v -0.111913 0.394424 -0.121008
v -0.111913 0.394424 0.121008
v -0.169458 0.533350 -0.121008
v -0.169458 0.533350 0.121007
v -0.308384 0.590894 -0.121008
v -0.308384 0.590894 0.121007
v -0.447310 0.533349 -0.121008
v -0.447310 0.533350 0.121007
v -0.504855 0.394424 0.060504
v -0.504855 0.394424 -0.000000
v -0.504855 0.394424 -0.060504
v -0.447310 0.255498 -0.060504
v -0.447310 0.255498 -0.000000
v -0.447310 0.255498 0.060504
v -0.308384 0.197953 -0.060504
v -0.308384 0.197953 -0.000000
v -0.308384 0.197953 0.060504
v -0.169458 0.255498 -0.060504
v -0.169458 0.255498 -0.000000
v -0.169458 0.255498 0.060504
v -0.111913 0.394424 -0.060504
v -0.111913 0.394424 -0.000000
v -0.111913 0.394424 0.060504
v -0.169458 0.533350 -0.060504
v -0.169458 0.533350 -0.000000
v -0.169458 0.533350 0.060504
v -0.308384 0.590894 -0.060504
v -0.308384 0.590894 -0.000000
v -0.308384 0.590894 0.060504
v -0.447310 0.533350 -0.060504
v -0.447310 0.533350 -0.000000
v -0.447310 0.533350 0.060504
v -0.555000 0.394424 -0.064840
v -0.555000 0.394424 -0.116672
v -0.482768 0.568807 -0.116672
v -0.308384 0.641039 -0.116672
v -0.134001 0.568807 -0.116672
v -0.061769 0.394424 -0.116672
v -0.134001 0.220040 -0.116672
v -0.308384 0.147808 -0.116672
v -0.482768 0.220040 -0.116672
v -0.482768 0.220040 -0.064840
v -0.308384 0.147808 -0.064840
v -0.134001 0.220040 -0.064840
v -0.061769 0.394424 -0.064840
v -0.134001 0.568807 -0.064840
v -0.308384 0.641039 -0.064840
v -0.482768 0.568807 -0.064840
v -0.553657 0.394424 -0.002059
v -0.553657 0.394424 -0.058446
v -0.481818 0.220989 -0.058446
v -0.481818 0.220989 -0.002058
v -0.308384 0.149151 -0.058446
v -0.308384 0.149151 -0.002058
v -0.134950 0.220989 -0.058446
v -0.134950 0.220989 -0.002058
v -0.063111 0.394424 -0.058446
v -0.063111 0.394424 -0.002059
v -0.134950 0.567858 -0.058446
v -0.134950 0.567858 -0.002059
v -0.308384 0.639697 -0.058446
v -0.308384 0.639697 -0.002059
v -0.481819 0.567858 -0.058446
v -0.481819 0.567858 -0.002059
v -0.549764 0.394424 0.058331
v -0.549764 0.394424 0.002172
v -0.479066 0.223742 0.002172
v -0.479066 0.223742 0.058331
v -0.308384 0.153044 0.002172
v -0.308384 0.153044 0.058332
v -0.137703 0.223742 0.002172
v -0.137703 0.223742 0.058331
v -0.067004 0.394424 0.002172
v -0.067004 0.394424 0.058331
v -0.137703 0.565105 0.002172
v -0.137703 0.565105 0.058331
v -0.308384 0.635804 0.002172
v -0.308384 0.635804 0.058331
v -0.479066 0.565105 0.002172
v -0.479066 0.565105 0.058331
v -0.471950 0.230858 0.064161
v -0.471950 0.230858 0.117350
v -0.308384 0.163107 0.064161
v -0.308384 0.163107 0.117350
v -0.144818 0.230858 0.064161
v -0.144818 0.230858 0.117350
v -0.077067 0.394424 0.064161
v -0.077067 0.394424 0.117350
v -0.144818 0.557989 0.064161
v -0.144818 0.557990 0.117350
v -0.308384 0.625740 0.064161
v -0.308384 0.625741 0.117350
v -0.471950 0.557989 0.064161
v -0.471950 0.557989 0.117350
v -0.539701 0.394424 0.117350
v -0.539701 0.394424 0.064161
v -0.598369 0.394424 0.204429
v -0.513434 0.189374 0.204430
v -0.513434 0.189373 -0.204430
v -0.598369 0.394424 -0.204430
v -0.308384 0.104439 0.204430
v -0.308384 0.104439 -0.204430
v -0.103334 0.189374 0.204430
v -0.103334 0.189374 -0.204430
v -0.018399 0.394424 0.204430
v -0.018399 0.394424 -0.204430
v -0.103334 0.599474 0.204429
v -0.103334 0.599474 -0.204430
v -0.308384 0.684409 0.204429
v -0.308384 0.684408 -0.204430
v -0.513434 0.599474 0.204429
v -0.513434 0.599474 -0.204430
v -0.345314 0.222260 0.415791
v -0.334498 0.196147 0.415791
v -0.334498 0.499930 -0.415791
v -0.345314 0.526043 -0.415792
v -0.308384 0.185330 0.415791
v -0.308384 0.489114 -0.415791
v -0.282271 0.196147 0.415791
v -0.282271 0.499930 -0.415791
v -0.271454 0.222260 0.415791
v -0.271454 0.526043 -0.415792
v -0.282271 0.248373 0.415791
v -0.282271 0.552157 -0.415792
v -0.308384 0.259190 0.415791
v -0.308384 0.562973 -0.415792
v -0.334498 0.248373 0.415791
v -0.334498 0.552157 -0.415792
v -0.150962 0.191207 0.187452
v -0.150962 0.191207 -0.187452
v 0.150962 0.191207 -0.187452
v 0.150962 0.191208 0.187452
v -0.225803 0.000000 0.280384
v 0.225803 0.000000 0.280384
v -0.200617 0.151804 0.249109
v -0.225803 -0.000000 -0.280384
v -0.200617 0.151803 -0.249110
v 0.225803 -0.000000 -0.280384
v 0.200617 0.151803 -0.249110
v 0.200617 0.151804 0.249110
v 0.961985 4.432854 0.111956
v 0.961984 4.656771 0.111956
v 0.961985 4.432854 -0.111961
v 0.961985 4.656771 -0.111961
v -0.043716 3.450834 0.111957
v -0.043716 3.674751 0.111956
v -0.043716 3.674751 -0.111960
v -0.043716 3.450834 -0.111960
v 0.803211 4.695775 -0.150964
v 0.803211 4.393851 -0.150964
v 0.803211 4.393851 0.150960
v 0.803211 4.695775 0.150960
v 1.018905 4.353063 0.191748
v 1.018905 4.736563 0.191748
v 1.018905 4.736563 -0.191753
v 1.018905 4.353063 -0.191752
v 0.803211 4.353063 -0.191752
v 0.803211 4.736563 0.191748
v 0.803211 4.736563 -0.191753
v 0.803211 4.353063 0.191748
v -2.878633 3.467722 -0.043849
v -2.938288 3.467722 0.015807
v -2.938288 3.467722 -0.043849
v -2.878633 3.467722 0.015807
v -2.842804 2.603839 -0.023568
v -2.902459 2.603839 0.036087
v -2.902459 2.603839 -0.023568
v -2.842804 2.603839 0.036087
vt 0.662601 0.543534
vt 0.662601 0.618160
vt 0.658404 0.612243
vt 0.829244 0.089057
vt 0.829244 0.163682
vt 0.825046 0.157765
vt 0.728428 0.748245
vt 0.728428 0.758207
vt 0.683991 0.758207
vt 0.683991 0.748245
vt 0.162587 0.763933
vt 0.203339 0.763933
vt 0.203339 0.779251
vt 0.162587 0.779251
vt 0.021999 0.804685
vt 0.021999 0.763933
vt 0.037316 0.763933
vt 0.037316 0.804685
vt 0.203339 0.798658
vt 0.162587 0.798658
vt 0.162587 0.783341
vt 0.203339 0.783341
vt 0.203339 0.822157
vt 0.203339 0.832119
vt 0.158901 0.832119
vt 0.158901 0.822157
vt 0.820020 0.525827
vt 0.820020 0.470390
vt 0.825670 0.465840
vt 0.825670 0.530377
vt 0.797521 0.456291
vt 0.797521 0.432920
vt 0.812839 0.432920
vt 0.812839 0.456291
vt 0.752139 0.318177
vt 0.752139 0.383987
vt 0.719831 0.359151
vt 0.748025 0.315014
vt 0.800612 0.534054
vt 0.800612 0.510683
vt 0.815929 0.510682
vt 0.815929 0.534054
vt 0.683991 0.724747
vt 0.683991 0.654331
vt 0.723595 0.654331
vt 0.723595 0.724747
vt 0.825007 0.603356
vt 0.825007 0.658793
vt 0.819357 0.663343
vt 0.819357 0.598805
vt 0.683991 0.728837
vt 0.724743 0.728837
vt 0.724743 0.744155
vt 0.683991 0.744154
vt 0.068869 0.850290
vt 0.092240 0.850290
vt 0.092240 0.865607
vt 0.068869 0.865607
vt 0.835876 0.212089
vt 0.859248 0.212089
vt 0.859248 0.227406
vt 0.835877 0.227406
vt 0.838123 0.329825
vt 0.829179 0.308233
vt 0.838123 0.286641
vt 0.663330 0.261360
vt 0.663330 0.331775
vt 0.623725 0.331775
vt 0.623725 0.261360
vt 0.201681 0.836209
vt 0.201681 0.859581
vt 0.186363 0.859581
vt 0.186363 0.836209
vt 0.852063 0.184627
vt 0.852063 0.207998
vt 0.835876 0.201294
vt 0.835876 0.191331
vt 0.037316 0.808775
vt 0.037316 0.832147
vt 0.021130 0.825442
vt 0.021130 0.815480
vt 0.787001 0.756720
vt 0.787001 0.733349
vt 0.802319 0.733349
vt 0.802319 0.756720
vt 0.785818 0.225379
vt 0.769955 0.218808
vt 0.769955 0.191198
vt 0.785818 0.184627
vt 0.795858 0.639557
vt 0.779995 0.632987
vt 0.779995 0.605376
vt 0.795858 0.598805
vt 0.842213 0.315389
vt 0.865584 0.315389
vt 0.865584 0.330707
vt 0.842213 0.330707
vt 0.848713 0.538292
vt 0.848713 0.561663
vt 0.832526 0.554958
vt 0.832526 0.544996
vt 0.144456 0.846198
vt 0.128270 0.839494
vt 0.128270 0.829531
vt 0.144456 0.822827
vt 0.849520 0.112428
vt 0.833334 0.105723
vt 0.833334 0.095761
vt 0.849520 0.089057
vt 0.787137 0.334936
vt 0.787137 0.375688
vt 0.771273 0.369117
vt 0.771273 0.341506
vt 0.309554 0.648872
vt 0.389691 0.648872
vt 0.389691 0.702749
vt 0.309554 0.702749
vt 0.388861 0.751277
vt 0.378899 0.751277
vt 0.378899 0.706840
vt 0.388861 0.706840
vt 0.806544 0.334936
vt 0.806544 0.375688
vt 0.791227 0.375688
vt 0.791227 0.334936
vt 0.779995 0.684400
vt 0.779995 0.643648
vt 0.795858 0.650219
vt 0.795858 0.677829
vt 0.848713 0.589125
vt 0.832526 0.582420
vt 0.832526 0.572458
vt 0.848713 0.565753
vt 0.002045 0.763933
vt 0.017909 0.770504
vt 0.017909 0.798114
vt 0.002045 0.804685
vt 0.843758 0.458724
vt 0.827572 0.452019
vt 0.827571 0.442057
vt 0.843758 0.435353
vt 0.848774 0.715968
vt 0.848774 0.739339
vt 0.832587 0.732635
vt 0.832588 0.722672
vt 0.848774 0.688506
vt 0.848774 0.711877
vt 0.832587 0.705173
vt 0.832588 0.695211
vt 0.123857 0.804684
vt 0.107994 0.798113
vt 0.107994 0.770502
vt 0.123857 0.763931
vt 0.531814 0.571615
vt 0.531814 0.612367
vt 0.515951 0.605796
vt 0.515951 0.578186
vt 0.482280 0.389570
vt 0.482280 0.309432
vt 0.536158 0.309432
vt 0.536158 0.389570
vt 0.841906 0.758922
vt 0.818535 0.758922
vt 0.818535 0.743604
vt 0.841906 0.743605
vt 0.056724 0.763933
vt 0.056724 0.804685
vt 0.041407 0.804685
vt 0.041407 0.763933
vt 0.060815 0.804685
vt 0.060815 0.763933
vt 0.076132 0.763933
vt 0.076132 0.804685
vt 0.865095 0.340803
vt 0.865095 0.364174
vt 0.849778 0.364174
vt 0.849778 0.340803
vt 0.847848 0.458724
vt 0.847848 0.435353
vt 0.863165 0.435353
vt 0.863165 0.458724
vt 0.800612 0.506592
vt 0.800612 0.465840
vt 0.815929 0.465840
vt 0.815929 0.506592
vt 0.796353 0.042797
vt 0.796352 0.002045
vt 0.811670 0.002045
vt 0.811670 0.042797
vt 0.677636 0.470815
vt 0.661772 0.464245
vt 0.661772 0.436634
vt 0.677636 0.430063
vt 0.805226 0.184627
vt 0.805226 0.225379
vt 0.789909 0.225379
vt 0.789909 0.184627
vt 0.833334 0.139890
vt 0.833334 0.116518
vt 0.849520 0.123223
vt 0.849520 0.133185
vt 0.107994 0.818736
vt 0.107994 0.808774
vt 0.152431 0.808774
vt 0.152431 0.818736
vt 0.802866 0.324960
vt 0.787003 0.318389
vt 0.787003 0.290779
vt 0.802866 0.284208
vt 0.778826 0.011163
vt 0.792262 0.002045
vt 0.792262 0.075717
vt 0.778826 0.066600
vt 0.103903 0.763931
vt 0.103903 0.804684
vt 0.088040 0.798113
vt 0.088040 0.770502
vt 0.801548 0.089057
vt 0.801548 0.129809
vt 0.785685 0.123238
vt 0.785685 0.095628
vt 0.815266 0.598805
vt 0.815266 0.639557
vt 0.799949 0.639557
vt 0.799949 0.598805
vt 0.845946 0.527770
vt 0.829760 0.521066
vt 0.829760 0.511104
vt 0.845946 0.504399
vt 0.081960 0.822828
vt 0.098146 0.829533
vt 0.098146 0.839495
vt 0.081960 0.846200
vt 0.671933 0.251346
vt 0.656070 0.244775
vt 0.656070 0.217165
vt 0.671933 0.210594
vt 0.833334 0.167352
vt 0.833334 0.143980
vt 0.849520 0.150685
vt 0.849520 0.160647
vt 0.077870 0.846200
vt 0.061684 0.839495
vt 0.061684 0.829533
vt 0.077870 0.822828
vt 0.124180 0.822827
vt 0.124180 0.846198
vt 0.107994 0.839494
vt 0.107994 0.829531
vt 0.057593 0.846200
vt 0.041407 0.839495
vt 0.041407 0.829533
vt 0.057593 0.822828
vt 0.802865 0.729258
vt 0.787001 0.722687
vt 0.787001 0.695077
vt 0.802865 0.688506
vt 0.143811 0.763931
vt 0.143811 0.804684
vt 0.127947 0.798113
vt 0.127947 0.770502
vt 0.802866 0.239366
vt 0.802866 0.280118
vt 0.787003 0.273547
vt 0.787003 0.245936
vt 0.801548 0.174651
vt 0.785685 0.168080
vt 0.785685 0.140470
vt 0.801548 0.133899
vt 0.819279 0.229064
vt 0.809317 0.229064
vt 0.809317 0.184627
vt 0.819279 0.184627
vt 0.536158 0.393660
vt 0.536158 0.458198
vt 0.482280 0.458198
vt 0.482280 0.393660
vt 0.041407 0.850290
vt 0.064778 0.850290
vt 0.064778 0.865607
vt 0.041407 0.865607
vt 0.041407 0.818738
vt 0.041407 0.808775
vt 0.085844 0.808775
vt 0.085844 0.818738
vt 0.395939 0.665716
vt 0.460477 0.665716
vt 0.460477 0.719594
vt 0.395939 0.719594
vt 0.580395 0.665716
vt 0.580395 0.736132
vt 0.540791 0.736132
vt 0.540791 0.665716
vt 0.862808 0.017363
vt 0.839437 0.017363
vt 0.839437 0.002045
vt 0.862808 0.002045
vt 0.663330 0.335866
vt 0.663330 0.406281
vt 0.623725 0.406281
vt 0.623725 0.335866
vt 0.805638 0.129809
vt 0.805638 0.089057
vt 0.820956 0.089057
vt 0.820956 0.129809
vt 0.582464 0.613950
vt 0.582464 0.543534
vt 0.652879 0.543534
vt 0.652879 0.613950
vt 0.203339 0.818066
vt 0.162587 0.818066
vt 0.162587 0.802749
vt 0.203339 0.802749
vt 0.800611 0.579044
vt 0.800611 0.538292
vt 0.815929 0.538292
vt 0.815929 0.579044
vt 0.840606 0.424463
vt 0.840606 0.401091
vt 0.855923 0.401091
vt 0.855923 0.424463
vt 0.578079 0.604426
vt 0.568117 0.604426
vt 0.568117 0.559988
vt 0.578079 0.559988
vt 0.828497 0.732943
vt 0.818535 0.732943
vt 0.818535 0.688506
vt 0.828497 0.688506
vt 0.138113 0.914629
vt 0.142979 0.883553
vt 0.142979 0.916432
vt 0.752139 0.307760
vt 0.748025 0.310923
vt 0.719831 0.266787
vt 0.752139 0.241950
vt 0.856871 0.577039
vt 0.856871 0.594547
vt 0.852803 0.580263
vt 0.649740 0.692745
vt 0.649740 0.697935
vt 0.584485 0.706468
vt 0.584485 0.665716
vt 0.805638 0.144773
vt 0.819361 0.133899
vt 0.819361 0.174651
vt 0.774736 0.058243
vt 0.752379 0.036117
vt 0.774736 0.002045
vt 0.750821 0.237860
vt 0.719831 0.191967
vt 0.750821 0.165503
vt 0.505312 0.710558
vt 0.505312 0.744244
vt 0.464568 0.743465
vt 0.309554 0.733869
vt 0.374809 0.706840
vt 0.374809 0.747592
vt 0.309554 0.739059
vt 0.679901 0.753478
vt 0.655199 0.751906
vt 0.679901 0.719494
vt 0.464568 0.676590
vt 0.464568 0.671400
vt 0.536700 0.665716
vt 0.536700 0.706468
vt 0.477642 0.430630
vt 0.477642 0.455382
vt 0.473323 0.433507
vt 0.840606 0.395946
vt 0.845687 0.340803
vt 0.845687 0.397001
vt 0.803634 0.234659
vt 0.769955 0.234016
vt 0.803634 0.229469
vt 0.623725 0.144472
vt 0.623725 0.052992
vt 0.651980 0.047250
vt 0.651980 0.150214
vt 0.025417 0.862105
vt 0.002045 0.862105
vt 0.002045 0.846787
vt 0.025417 0.846787
vt 0.815266 0.643648
vt 0.815266 0.684400
vt 0.799949 0.684400
vt 0.799949 0.643648
vt 0.182273 0.851527
vt 0.158901 0.851527
vt 0.158901 0.836210
vt 0.182273 0.836209
vt 0.771273 0.319524
vt 0.782912 0.239366
vt 0.782912 0.330845
vt 0.779995 0.397195
vt 0.793431 0.388078
vt 0.793431 0.461750
vt 0.779995 0.452632
vt 0.623725 0.251527
vt 0.623725 0.160047
vt 0.651980 0.154305
vt 0.651980 0.257269
vt 0.266957 0.727165
vt 0.266957 0.653493
vt 0.295415 0.648868
vt 0.295415 0.731789
vt 0.439728 0.601493
vt 0.511861 0.571615
vt 0.511861 0.612367
vt 0.439728 0.606683
vt 0.769955 0.169215
vt 0.781594 0.089057
vt 0.781594 0.180537
vt 0.797521 0.428830
vt 0.797521 0.388078
vt 0.812839 0.388078
vt 0.812839 0.428830
vt 0.823481 0.451448
vt 0.816929 0.396399
vt 0.823481 0.388078
vt 0.822312 0.065416
vt 0.815760 0.010367
vt 0.822312 0.002045
vt 0.131365 0.865606
vt 0.107994 0.865606
vt 0.107994 0.850289
vt 0.131365 0.850289
vt 0.523905 0.521816
vt 0.523905 0.565000
vt 0.480721 0.565000
vt 0.480721 0.521816
vt 0.823481 0.383987
vt 0.816929 0.328938
vt 0.823481 0.320617
vt 0.825088 0.302736
vt 0.818537 0.247687
vt 0.825088 0.239366
vt 0.748289 0.006670
vt 0.748289 0.080342
vt 0.719831 0.084966
vt 0.719831 0.002045
vt 0.299506 0.654518
vt 0.304056 0.648868
vt 0.304056 0.729005
vt 0.473639 0.315082
vt 0.478189 0.309432
vt 0.478189 0.389570
vt 0.836515 0.383987
vt 0.827571 0.362395
vt 0.836515 0.340803
vt 0.779995 0.554818
vt 0.796521 0.538292
vt 0.796521 0.594715
vt 0.658308 0.663275
vt 0.679900 0.654331
vt 0.679900 0.715403
vt 0.756464 0.749578
vt 0.734872 0.740634
vt 0.756464 0.688506
vt 0.796521 0.522263
vt 0.779995 0.505737
vt 0.796521 0.465840
vt 0.838041 0.641990
vt 0.829097 0.620398
vt 0.838041 0.598805
vt 0.835346 0.045230
vt 0.826402 0.023637
vt 0.835346 0.002045
vt 0.838123 0.282550
vt 0.829179 0.260958
vt 0.838123 0.239366
vt 0.836515 0.431262
vt 0.827571 0.409670
vt 0.836515 0.388078
vt 0.782911 0.688506
vt 0.782911 0.744704
vt 0.760554 0.710632
vt 0.701910 0.638991
vt 0.715632 0.609113
vt 0.715632 0.649864
vt 0.865029 0.594547
vt 0.860961 0.591324
vt 0.865029 0.577039
vt 0.473323 0.395464
vt 0.478189 0.393660
vt 0.478189 0.426539
vt 0.840846 0.028646
vt 0.845928 0.027591
vt 0.845928 0.083789
vt 0.883697 0.066339
vt 0.883697 0.071528
vt 0.850018 0.066982
vt 0.662601 0.647002
vt 0.658282 0.644125
vt 0.662601 0.622250
vt 0.429855 0.748436
vt 0.395939 0.746277
vt 0.429855 0.723684
vt 0.750821 0.089057
vt 0.750821 0.161413
vt 0.719831 0.134950
vt 0.623725 0.450481
vt 0.657404 0.410372
vt 0.657404 0.451124
vt 0.729722 0.632224
vt 0.719831 0.564101
vt 0.729722 0.551225
vt 0.578008 0.555898
vt 0.568117 0.487775
vt 0.578008 0.474899
vt 0.671105 0.110176
vt 0.678594 0.047250
vt 0.678594 0.117665
vt 0.806955 0.751433
vt 0.814444 0.688506
vt 0.814444 0.758922
vt 0.671105 0.184682
vt 0.678594 0.121756
vt 0.678594 0.192172
vt 0.806957 0.302292
vt 0.814446 0.239366
vt 0.814446 0.309781
vt 0.582464 0.474906
vt 0.662601 0.474906
vt 0.662601 0.539443
vt 0.582464 0.539443
vt 0.908392 0.704682
vt 0.908392 0.743491
vt 0.903203 0.743491
vt 0.903203 0.704682
vt 0.943344 0.763933
vt 0.943344 0.819371
vt 0.207429 0.819371
vt 0.207429 0.763934
vt 0.418097 0.753975
vt 0.456905 0.753975
vt 0.456905 0.759165
vt 0.418097 0.759165
vt 0.480721 0.462288
vt 0.536158 0.462288
vt 0.536158 0.517726
vt 0.480721 0.517726
vt 0.645067 0.749367
vt 0.645067 0.710558
vt 0.650257 0.710558
vt 0.650257 0.749367
vt 0.309554 0.030405
vt 0.348060 0.002045
vt 0.348060 0.616526
vt 0.309695 0.644781
vt 0.909139 0.089057
vt 0.909139 0.127865
vt 0.903949 0.127865
vt 0.903949 0.089057
vt 0.395939 0.620511
vt 0.654032 0.620511
vt 0.654032 0.661626
vt 0.395939 0.661626
vt 0.903949 0.170765
vt 0.903949 0.131956
vt 0.909139 0.131956
vt 0.909139 0.170765
vt 0.266957 0.616418
vt 0.267099 0.002045
vt 0.305463 0.030301
vt 0.305463 0.644778
vt 0.907203 0.271137
vt 0.907203 0.232328
vt 0.912393 0.232328
vt 0.912393 0.271137
vt 0.395939 0.616421
vt 0.395940 0.002045
vt 0.435637 0.002045
vt 0.435637 0.616421
vt 0.734872 0.753669
vt 0.773680 0.753669
vt 0.773680 0.758859
vt 0.734872 0.758859
vt 0.352150 0.616521
vt 0.352152 0.002045
vt 0.391849 0.002045
vt 0.391849 0.616521
vt 0.907308 0.684889
vt 0.907308 0.646080
vt 0.912498 0.646080
vt 0.912498 0.684889
vt 0.906205 0.027591
vt 0.906205 0.066400
vt 0.901015 0.066400
vt 0.901015 0.027591
vt 0.439728 0.002045
vt 0.697820 0.002045
vt 0.697820 0.043159
vt 0.439728 0.043159
vt 0.348363 0.756872
vt 0.309554 0.756872
vt 0.309554 0.751682
vt 0.348363 0.751682
vt 0.905980 0.314772
vt 0.905980 0.275963
vt 0.911170 0.275963
vt 0.911170 0.314772
vt 0.207429 0.002045
vt 0.262866 0.002045
vt 0.262866 0.759843
vt 0.207429 0.759843
vt 0.207429 0.878899
vt 0.207429 0.823461
vt 0.943344 0.823461
vt 0.943344 0.878898
vt 0.906741 0.214300
vt 0.906741 0.175491
vt 0.911931 0.175491
vt 0.911931 0.214300
vt 0.913161 0.465840
vt 0.913161 0.504649
vt 0.907971 0.504649
vt 0.907971 0.465840
vt 0.207429 0.997955
vt 0.207429 0.942517
vt 0.943343 0.942517
vt 0.943343 0.997954
vt 0.207429 0.938427
vt 0.207429 0.882989
vt 0.943344 0.882989
vt 0.943344 0.938426
vt 0.002045 0.002045
vt 0.070883 0.002045
vt 0.070883 0.759842
vt 0.002046 0.759842
vt 0.475309 0.510101
vt 0.473323 0.505307
vt 0.475309 0.500512
vt 0.911106 0.340803
vt 0.911106 0.379611
vt 0.905916 0.379611
vt 0.905916 0.340803
vt 0.143811 0.759841
vt 0.074973 0.759841
vt 0.074973 0.002045
vt 0.143811 0.002045
vt 0.903141 0.577100
vt 0.903141 0.538292
vt 0.908331 0.538292
vt 0.908331 0.577100
vt 0.815591 0.069781
vt 0.820386 0.071767
vt 0.820386 0.081356
vt 0.810796 0.081356
vt 0.147901 0.002045
vt 0.203339 0.002045
vt 0.203339 0.759843
vt 0.147902 0.759843
vt 0.473235 0.276618
vt 0.502651 0.047250
vt 0.502651 0.305342
vt 0.469144 0.567524
vt 0.439728 0.338156
vt 0.469144 0.309432
vt 0.912311 0.598805
vt 0.912311 0.637614
vt 0.907121 0.637614
vt 0.907121 0.598805
vt 0.475309 0.523781
vt 0.473323 0.518987
vt 0.475309 0.514192
vt 0.676024 0.237871
vt 0.679694 0.234202
vt 0.679694 0.246731
vt 0.806957 0.315858
vt 0.811752 0.313872
vt 0.811752 0.327433
vt 0.819357 0.667433
vt 0.824546 0.667433
vt 0.824546 0.679963
vt 0.083949 0.793081
vt 0.080279 0.789411
vt 0.083949 0.780551
vt 0.475309 0.496421
vt 0.473323 0.491627
vt 0.475309 0.486832
vt 0.080279 0.767601
vt 0.083949 0.763931
vt 0.083949 0.776461
vt 0.475309 0.482741
vt 0.473323 0.477947
vt 0.475309 0.473152
vt 0.475309 0.469062
vt 0.473323 0.464267
vt 0.475309 0.459472
vt 0.536158 0.047250
vt 0.536158 0.305342
vt 0.506742 0.276618
vt 0.439728 0.075974
vt 0.469144 0.047250
vt 0.469144 0.305342
vt 0.677645 0.638250
vt 0.677645 0.649203
vt 0.666692 0.649203
vt 0.666692 0.638250
vt 0.301426 0.746233
vt 0.266957 0.746233
vt 0.266957 0.735880
vt 0.301426 0.735880
vt 0.002045 0.842697
vt 0.002045 0.808775
vt 0.012357 0.808775
vt 0.012357 0.842697
vt 0.509403 0.758810
vt 0.509403 0.710558
vt 0.535603 0.710559
vt 0.535603 0.758810
vt 0.140501 0.879463
vt 0.107994 0.879463
vt 0.107994 0.869696
vt 0.140501 0.869696
vt 0.683991 0.639929
vt 0.683991 0.047250
vt 0.697820 0.057561
vt 0.697820 0.650240
vt 0.756230 0.383865
vt 0.756230 0.239366
vt 0.767183 0.239488
vt 0.767183 0.383987
vt 0.760861 0.533828
vt 0.749909 0.534022
vt 0.749910 0.388271
vt 0.760861 0.388078
vt 0.754912 0.089179
vt 0.765864 0.089057
vt 0.765864 0.233556
vt 0.754912 0.233678
vt 0.775904 0.538379
vt 0.775904 0.682880
vt 0.764951 0.682792
vt 0.764951 0.538292
vt 0.874255 0.315389
vt 0.874255 0.335840
vt 0.869675 0.325339
vt 0.037316 0.836237
vt 0.037316 0.856688
vt 0.032736 0.846187
vt 0.840114 0.465840
vt 0.840114 0.500309
vt 0.829760 0.500309
vt 0.829760 0.465840
vt 0.871479 0.002045
vt 0.871479 0.022496
vt 0.866898 0.011995
vt 0.770417 0.062334
vt 0.770417 0.082784
vt 0.765837 0.072284
vt 0.813199 0.592501
vt 0.800611 0.592501
vt 0.800611 0.583134
vt 0.813199 0.583134
vt 0.010086 0.906252
vt 0.002045 0.888469
vt 0.010086 0.880052
vt 0.855225 0.368264
vt 0.855225 0.394920
vt 0.849778 0.378552
vt 0.828436 0.586543
vt 0.820019 0.561251
vt 0.828436 0.538292
vt 0.582464 0.463518
vt 0.582464 0.047250
vt 0.592720 0.054547
vt 0.592720 0.470815
vt 0.701910 0.012357
vt 0.715740 0.002045
vt 0.715740 0.594711
vt 0.701912 0.605022
vt 0.568117 0.054548
vt 0.578373 0.047250
vt 0.578373 0.463511
vt 0.568117 0.470808
vt 0.863059 0.526903
vt 0.852803 0.534201
vt 0.852803 0.516950
vt 0.863059 0.509653
vt 0.844204 0.499761
vt 0.844204 0.465840
vt 0.854516 0.465840
vt 0.854516 0.499761
vt 0.852525 0.239366
vt 0.852525 0.273287
vt 0.842213 0.273287
vt 0.842213 0.239366
vt 0.878504 0.753371
vt 0.845996 0.753371
vt 0.845996 0.743604
vt 0.878504 0.743604
vt 0.856153 0.207998
vt 0.856153 0.175491
vt 0.865919 0.175491
vt 0.865919 0.207998
vt 0.540791 0.740222
vt 0.575259 0.740222
vt 0.575259 0.750576
vt 0.540791 0.750576
vt 0.498489 0.758646
vt 0.464568 0.758646
vt 0.464568 0.748334
vt 0.498489 0.748334
vt 0.859535 0.027591
vt 0.859535 0.062248
vt 0.850018 0.062248
vt 0.850018 0.027591
vt 0.856615 0.271873
vt 0.856615 0.239366
vt 0.866381 0.239366
vt 0.866381 0.271873
vt 0.852803 0.572949
vt 0.852803 0.538292
vt 0.862320 0.538292
vt 0.862320 0.572949
vt 0.610686 0.710558
vt 0.610686 0.758810
vt 0.584485 0.758810
vt 0.584485 0.710558
vt 0.761746 0.062334
vt 0.761746 0.079584
vt 0.752379 0.079584
vt 0.752379 0.062334
vt 0.657647 0.465526
vt 0.623725 0.465526
vt 0.623725 0.455214
vt 0.657647 0.455214
vt 0.842131 0.632727
vt 0.842131 0.598805
vt 0.852443 0.598805
vt 0.852443 0.632727
vt 0.856533 0.631313
vt 0.856533 0.598805
vt 0.866300 0.598805
vt 0.866300 0.631313
vt 0.610268 0.463507
vt 0.610268 0.047250
vt 0.619635 0.047250
vt 0.619635 0.463507
vt 0.856615 0.279487
vt 0.865159 0.275963
vt 0.865159 0.310621
vt 0.856615 0.307097
vt 0.869185 0.344326
vt 0.877729 0.340803
vt 0.877729 0.375460
vt 0.869185 0.371936
vt 0.857943 0.649604
vt 0.866487 0.646080
vt 0.866487 0.680738
vt 0.857943 0.677214
vt 0.869249 0.307097
vt 0.869249 0.279487
vt 0.877793 0.275963
vt 0.877793 0.310621
vt 0.875762 0.120190
vt 0.867218 0.123714
vt 0.867218 0.089057
vt 0.875762 0.092580
vt 0.874954 0.541815
vt 0.874954 0.569425
vt 0.866410 0.572949
vt 0.866411 0.538292
vt 0.879015 0.268349
vt 0.870472 0.271873
vt 0.870472 0.237216
vt 0.879015 0.240739
vt 0.892230 0.130960
vt 0.899859 0.127804
vt 0.899859 0.161726
vt 0.892230 0.158570
vt 0.157655 0.885530
vt 0.163604 0.883082
vt 0.163604 0.915589
vt 0.157655 0.913140
vt 0.903112 0.267981
vt 0.895484 0.271137
vt 0.895484 0.237216
vt 0.903112 0.240371
vt 0.881819 0.344232
vt 0.890107 0.340803
vt 0.890107 0.375271
vt 0.881819 0.371842
vt 0.024217 0.910111
vt 0.024217 0.882500
vt 0.030166 0.880052
vt 0.030166 0.912559
vt 0.891422 0.569058
vt 0.891422 0.541447
vt 0.899051 0.538292
vt 0.899051 0.572213
vt 0.890931 0.206530
vt 0.882644 0.209960
vt 0.882644 0.175491
vt 0.890931 0.178920
vt 0.909122 0.419864
vt 0.909122 0.392254
vt 0.915071 0.389805
vt 0.915071 0.422313
vt 0.527996 0.524972
vt 0.535624 0.521816
vt 0.535624 0.555737
vt 0.527996 0.552582
vt 0.883874 0.496879
vt 0.883874 0.469269
vt 0.892161 0.465840
vt 0.892161 0.500309
vt 0.909122 0.430266
vt 0.915071 0.427817
vt 0.915071 0.460325
vt 0.909122 0.457876
vt 0.903031 0.629571
vt 0.895402 0.632727
vt 0.895402 0.598805
vt 0.903031 0.601961
vt 0.879044 0.541721
vt 0.887332 0.538292
vt 0.887332 0.572760
vt 0.879044 0.569331
vt 0.113943 0.913612
vt 0.107994 0.916060
vt 0.107994 0.883553
vt 0.113943 0.886002
vt 0.895589 0.676846
vt 0.895589 0.649236
vt 0.903218 0.646080
vt 0.903218 0.680002
vt 0.881883 0.307003
vt 0.881883 0.279392
vt 0.890170 0.275963
vt 0.890170 0.310432
vt 0.167695 0.913140
vt 0.167695 0.885530
vt 0.173644 0.883082
vt 0.173644 0.915589
vt 0.894197 0.343958
vt 0.901826 0.340803
vt 0.901826 0.374724
vt 0.894197 0.371569
vt 0.876260 0.031020
vt 0.884547 0.027591
vt 0.884547 0.062059
vt 0.876260 0.058630
vt 0.918371 0.568350
vt 0.912422 0.570799
vt 0.912422 0.538292
vt 0.918371 0.540740
vt 0.891483 0.735448
vt 0.891483 0.707837
vt 0.899112 0.704682
vt 0.899112 0.738603
vt 0.883024 0.629845
vt 0.883024 0.602235
vt 0.891311 0.598805
vt 0.891311 0.633274
vt 0.912483 0.734741
vt 0.912483 0.707130
vt 0.918432 0.704682
vt 0.918432 0.737189
vt 0.899859 0.092212
vt 0.899859 0.119823
vt 0.892230 0.122978
vt 0.892230 0.089057
vt 0.614776 0.758810
vt 0.614776 0.710558
vt 0.640976 0.710559
vt 0.640976 0.758810
vt 0.863128 0.127804
vt 0.863128 0.162462
vt 0.853611 0.162462
vt 0.853611 0.127804
vt 0.729090 0.637277
vt 0.729090 0.649864
vt 0.719723 0.649864
vt 0.719723 0.637277
vt 0.867150 0.496974
vt 0.858606 0.500497
vt 0.858606 0.465840
vt 0.867150 0.469363
vt 0.879121 0.677214
vt 0.870577 0.680738
vt 0.870577 0.646080
vt 0.879121 0.649604
vt 0.870390 0.629939
vt 0.870390 0.602329
vt 0.878934 0.598805
vt 0.878934 0.633463
vt 0.867218 0.131328
vt 0.875762 0.127804
vt 0.875762 0.162462
vt 0.867218 0.158938
vt 0.879784 0.496974
vt 0.871240 0.500497
vt 0.871240 0.465840
vt 0.879784 0.469363
vt 0.863626 0.058725
vt 0.863626 0.031114
vt 0.872169 0.027591
vt 0.872169 0.062248
vt 0.878553 0.206625
vt 0.870010 0.210148
vt 0.870010 0.175491
vt 0.878553 0.179014
vt 0.875015 0.708205
vt 0.875015 0.735816
vt 0.866472 0.739339
vt 0.866472 0.704682
vt 0.147615 0.869225
vt 0.180123 0.869225
vt 0.180123 0.878991
vt 0.147615 0.878991
vt 0.564026 0.047250
vt 0.564026 0.611205
vt 0.554183 0.611221
vt 0.554183 0.047265
vt 0.186363 0.894711
vt 0.186363 0.867100
vt 0.194650 0.863671
vt 0.194650 0.898140
vt 0.883106 0.240645
vt 0.891393 0.237216
vt 0.891393 0.271684
vt 0.883106 0.268255
vt 0.880935 0.393234
vt 0.880935 0.420845
vt 0.872648 0.424274
vt 0.872648 0.389805
vt 0.893313 0.420845
vt 0.885025 0.424274
vt 0.885025 0.389805
vt 0.893313 0.393234
vt 0.883211 0.649509
vt 0.891499 0.646080
vt 0.891499 0.680549
vt 0.883211 0.677120
vt 0.888638 0.058630
vt 0.888638 0.031020
vt 0.896925 0.027591
vt 0.896925 0.062059
vt 0.879106 0.735721
vt 0.879106 0.708111
vt 0.887393 0.704682
vt 0.887393 0.739151
vt 0.888140 0.131234
vt 0.888140 0.158844
vt 0.879852 0.162273
vt 0.879852 0.127804
vt 0.852525 0.277378
vt 0.852525 0.311299
vt 0.842213 0.311299
vt 0.842213 0.277378
vt 0.806706 0.046888
vt 0.806706 0.081356
vt 0.796352 0.081356
vt 0.796352 0.046888
vt 0.386619 0.630965
vt 0.352150 0.630965
vt 0.352150 0.620612
vt 0.386619 0.620612
vt 0.148143 0.798402
vt 0.148143 0.763933
vt 0.158496 0.763933
vt 0.158496 0.798402
vt 0.897403 0.420571
vt 0.897403 0.392961
vt 0.905032 0.389805
vt 0.905032 0.423727
vt 0.089724 0.900464
vt 0.089724 0.872853
vt 0.097353 0.869698
vt 0.097353 0.903619
vt 0.894261 0.279119
vt 0.901890 0.275963
vt 0.901890 0.309885
vt 0.894261 0.306729
vt 0.902650 0.178647
vt 0.902650 0.206257
vt 0.895022 0.209412
vt 0.895022 0.175491
vt 0.896252 0.468996
vt 0.903881 0.465840
vt 0.903881 0.499761
vt 0.896252 0.496606
vt 0.078005 0.900464
vt 0.078005 0.872853
vt 0.085633 0.869698
vt 0.085633 0.903619
vt 0.879852 0.092486
vt 0.888140 0.089057
vt 0.888140 0.123525
vt 0.879852 0.120096
vt 0.905032 0.430973
vt 0.905032 0.458583
vt 0.897403 0.461739
vt 0.897403 0.427817
vt 0.839451 0.646080
vt 0.839451 0.680549
vt 0.829097 0.680549
vt 0.829097 0.646080
vt 0.147615 0.855617
vt 0.182273 0.855617
vt 0.182273 0.865134
vt 0.147615 0.865134
vt 0.862381 0.704682
vt 0.862381 0.739339
vt 0.852864 0.739339
vt 0.852864 0.704682
vt 0.916245 0.030039
vt 0.916245 0.057650
vt 0.910296 0.060098
vt 0.910296 0.027591
vt 0.134022 0.913612
vt 0.128073 0.916060
vt 0.128073 0.883553
vt 0.134022 0.886002
vt 0.868557 0.393329
vt 0.868557 0.420939
vt 0.860013 0.424463
vt 0.860014 0.389805
vt 0.061486 0.886003
vt 0.067435 0.883555
vt 0.067435 0.916062
vt 0.061486 0.913613
vt 0.147615 0.913140
vt 0.147615 0.885530
vt 0.153565 0.883082
vt 0.153565 0.915589
vt 0.041407 0.913613
vt 0.041407 0.886003
vt 0.047356 0.883555
vt 0.047356 0.916062
vt 0.014177 0.910111
vt 0.014177 0.882500
vt 0.020126 0.880052
vt 0.020126 0.912559
vt 0.118033 0.886002
vt 0.123982 0.883553
vt 0.123982 0.916061
vt 0.118033 0.913612
vt 0.433946 0.723684
vt 0.456905 0.732101
vt 0.456905 0.741468
vt 0.433946 0.749885
vt 0.057396 0.886003
vt 0.057396 0.913613
vt 0.051447 0.916062
vt 0.051447 0.883555
vt 0.606177 0.047250
vt 0.606177 0.463507
vt 0.596810 0.463507
vt 0.596811 0.047250
vt 0.853853 0.646080
vt 0.853853 0.680002
vt 0.843541 0.680002
vt 0.843541 0.646080
vt 0.836756 0.049320
vt 0.836756 0.083789
vt 0.826402 0.083789
vt 0.826402 0.049320
vt 0.301614 0.759841
vt 0.266957 0.759841
vt 0.266957 0.750324
vt 0.301614 0.750324
vt 0.540249 0.611221
vt 0.540249 0.047265
vt 0.550092 0.047250
vt 0.550092 0.611205
vt 0.002045 0.866195
vt 0.034553 0.866195
vt 0.034553 0.875961
vt 0.002045 0.875961
vt 0.041407 0.869698
vt 0.073914 0.869698
vt 0.073914 0.879464
vt 0.041407 0.879464
vt 0.775905 0.532578
vt 0.764952 0.532665
vt 0.764952 0.388165
vt 0.775905 0.388078
vt 0.867150 0.526903
vt 0.867150 0.509653
vt 0.877406 0.516950
vt 0.877406 0.534201
vt 0.863128 0.089057
vt 0.863128 0.123714
vt 0.853611 0.123714
vt 0.853611 0.089057
vt 0.352150 0.635056
vt 0.386808 0.635056
vt 0.386808 0.644573
vt 0.352150 0.644573
vt 0.760861 0.538485
vt 0.760861 0.684237
vt 0.749909 0.684044
vt 0.749909 0.538292
vt 0.667420 0.420160
vt 0.667420 0.261360
vt 0.678371 0.261616
vt 0.678371 0.420417
vt 0.734872 0.388451
vt 0.745819 0.388078
vt 0.745819 0.533828
vt 0.734872 0.534201
vt 0.677636 0.475360
vt 0.677636 0.634159
vt 0.666692 0.633705
vt 0.666692 0.474906
vt 0.730781 0.546878
vt 0.719831 0.547135
vt 0.719831 0.388334
vt 0.730781 0.388078
vt 0.734872 0.684042
vt 0.734872 0.538292
vt 0.745819 0.538665
vt 0.745819 0.684416
vt 0.667014 0.206050
vt 0.656070 0.206503
vt 0.656070 0.047704
vt 0.667014 0.047250
vt 0.881497 0.515624
vt 0.890048 0.508001
vt 0.890048 0.534201
vt 0.867256 0.442976
vt 0.875807 0.435353
vt 0.875807 0.461553
vt 0.894138 0.515624
vt 0.902690 0.508001
vt 0.902690 0.534201
vt 0.879898 0.442976
vt 0.888449 0.435353
vt 0.888449 0.461553
vt 0.679883 0.230111
vt 0.676024 0.219129
vt 0.679883 0.210594
vt 0.831786 0.184627
vt 0.831786 0.232878
vt 0.823369 0.209919
vt 0.153994 0.849482
vt 0.148547 0.839195
vt 0.153994 0.822827
vn 0.0000 -1.0000 0.0000
vn 0.9239 -0.3827 0.0000
vn 0.3827 -0.9239 0.0000
vn -0.3827 -0.9239 0.0000
vn -0.3827 0.9239 -0.0000
vn 0.0000 -0.0000 -1.0000
vn -0.9239 0.3827 0.0000
vn 0.3827 0.9239 -0.0000
vn -0.9239 -0.3827 0.0000
vn 0.0000 1.0000 -0.0000
vn 0.9239 0.3827 0.0000
vn -0.0000 0.0000 1.0000
vn 1.0000 0.0000 0.0000
vn -1.0000 -0.0000 -0.0000
vn -0.0000 0.8426 -0.5385
vn -0.9865 0.1637 -0.0000
vn 0.6216 0.7833 -0.0000
vn -0.0000 0.8426 0.5385
vn 0.9865 0.1637 -0.0000
vn -0.0000 0.2018 0.9794
vn -0.6216 0.7833 -0.0000
vn 0.0000 0.2018 -0.9794
vn 0.6986 -0.7155 0.0000
vn -0.5928 -0.8053 0.0000
vn 0.5930 0.8052 0.0000
vn -0.6986 0.7155 -0.0000
vn -0.0000 -0.0080 1.0000
vn 0.9994 -0.0341 0.0000
vn 0.0000 0.0080 -1.0000
vn -0.9999 0.0112 0.0000
vn -0.4531 -0.8915 0.0000
vn 0.0000 -0.8915 -0.4531
vn -0.0000 -0.8915 0.4531
vn 0.4531 -0.8915 0.0000
vn 0.5798 0.8148 0.0000
vn 0.0861 0.0357 0.9956
vn -0.0861 0.0357 0.9956
vn -0.0861 0.0357 -0.9956
vn 0.0357 -0.0861 0.9956
vn 0.0357 -0.0861 -0.9956
vn 0.0861 -0.0357 0.9956
vn 0.0357 0.0861 0.9956
vn 0.0483 0.0200 -0.9986
vn 0.1043 0.0432 0.9936
vn 0.0200 -0.0483 -0.9986
vn 0.0421 -0.0175 -0.9990
vn 0.1043 -0.0432 0.9936
vn -0.0483 0.0200 0.9986
vn -0.0175 0.0421 -0.9990
vn 0.1043 0.0432 -0.9936
vn -0.0483 -0.0200 0.9986
vn -0.0421 -0.0175 -0.9990
vn -0.1043 -0.0432 0.9936
vn 0.0200 0.0483 0.9986
vn -0.0421 0.0175 -0.9990
vn 0.0432 0.1043 0.9936
vn 0.0200 -0.0483 0.9986
vn 0.0175 -0.0421 0.9990
vn 0.0432 0.1043 -0.9936
vn 0.0483 -0.0200 -0.9986
vn -0.0421 -0.0175 0.9990
vn 0.0432 -0.1043 -0.9936
vn -0.0200 0.0483 -0.9986
vn -0.0175 0.0421 0.9990
vn -0.1043 0.0432 0.9936
vn -0.0483 -0.0200 -0.9986
vn -0.5798 -0.8148 0.0000
vn -0.0861 -0.0357 0.9956
vn -0.0357 -0.0861 -0.9956
vn 0.0357 0.0861 -0.9956
vn 0.0861 -0.0357 -0.9956
vn -0.0357 0.0861 -0.9956
vn -0.0861 -0.0357 -0.9956
vn -0.0357 -0.0861 0.9956
vn 0.0861 0.0357 -0.9956
vn 0.5978 0.8017 0.0000
vn -0.0421 0.0175 0.9990
vn 0.0175 -0.0421 -0.9990
vn 0.0421 -0.0175 0.9990
vn 0.0175 0.0421 0.9990
vn -0.0175 -0.0421 0.9990
vn 0.0175 0.0421 -0.9990
vn 0.0421 0.0175 -0.9990
vn -0.0175 -0.0421 -0.9990
vn -0.0483 0.0200 -0.9986
vn 0.0200 0.0483 -0.9986
vn 0.0483 0.0200 0.9986
vn 0.0483 -0.0200 0.9986
vn -0.0200 -0.0483 0.9986
vn -0.0200 -0.0483 -0.9986
vn 0.0421 0.0175 0.9990
vn -0.0200 0.0483 0.9986
vn -0.0432 -0.1043 -0.9936
vn 0.1043 -0.0432 -0.9936
vn -0.0357 0.0861 0.9956
vn -0.0432 -0.1043 0.9936
vn -0.0432 0.1043 -0.9936
vn 0.0432 -0.1043 0.9936
vn -0.1043 -0.0432 -0.9936
vn -0.1043 0.0432 -0.9936
vn -0.0432 0.1043 0.9936
vn -0.5978 -0.8017 0.0000
vn 0.9999 -0.0112 0.0000
vn -0.9994 0.0341 0.0000
vn 0.9991 0.0414 0.0000
vn 0.0000 0.0177 -0.9998
vn 0.0000 -0.0235 -0.9997
vn -0.9991 -0.0414 0.0000
vn -0.0000 -0.0177 0.9998
vn -0.0000 0.0235 0.9997
g Crane_1_Crane_1_Collor_Material
usemtl Collor_Material
s off
f 8/1/1 9/2/1 5/3/1
f 6/4/1 15/5/1 7/6/1
f 95/7/2 97/8/2 98/9/2 96/10/2
f 126/11/3 128/12/3 247/13/3 245/14/3
f 243/15/4 246/16/4 125/17/4 123/18/4
f 134/19/5 136/20/5 255/21/5 253/22/5
f 93/23/3 95/24/3 96/25/3 94/26/3
f 8/27/1 7/28/1 15/29/1 16/30/1
f 80/31/2 82/32/2 65/33/2 63/34/2
f 108/35/6 243/36/6 244/37/6 106/38/6
f 72/39/7 58/40/7 74/41/7 87/42/7
f 301/43/6 303/44/6 299/45/6 300/46/6
f 6/47/1 5/48/1 9/49/1 14/50/1
f 132/51/8 134/52/8 253/53/8 251/54/8
f 58/55/9 60/56/9 75/57/9 74/58/9
f 73/59/9 76/60/9 59/61/9 57/62/9
f 66/63/6 64/64/6 62/65/6
f 303/66/10 302/67/10 298/68/10 299/69/10
f 66/70/11 68/71/11 83/72/11 81/73/11
f 86/74/6 84/75/6 100/76/6 102/77/6
f 77/78/12 79/79/12 95/80/12 93/81/12
f 86/82/5 88/83/5 71/84/5 69/85/5
f 134/86/6 150/87/6 152/88/6 136/89/6
f 132/90/6 148/91/6 150/92/6 134/93/6
f 68/94/8 70/95/8 85/96/8 83/97/8
f 78/98/6 76/99/6 92/100/6 94/101/6
f 86/102/6 102/103/6 104/104/6 88/105/6
f 77/106/12 93/107/12 91/108/12 75/109/12
f 133/110/12 135/111/12 151/112/12 149/113/12
f 13/114/13 10/115/13 9/116/13 16/117/13
f 99/118/8 101/119/8 102/120/8 100/121/8
f 130/122/11 132/123/11 251/124/11 249/125/11
f 126/126/6 124/127/6 140/128/6 142/129/6
f 75/130/12 91/131/12 90/132/12 74/133/12
f 128/134/6 144/135/6 146/136/6 130/137/6
f 80/138/6 96/139/6 98/140/6 82/141/6
f 87/142/12 74/143/12 90/144/12 103/145/12
f 76/146/6 73/147/6 89/148/6 92/149/6
f 130/150/6 146/151/6 148/152/6 132/153/6
f 135/154/12 122/155/12 138/156/12 151/157/12
f 11/158/14 12/159/14 15/160/14 14/161/14
f 62/162/3 64/163/3 79/164/3 77/165/3
f 121/166/9 124/167/9 242/168/9 241/169/9
f 256/170/7 244/171/7 122/172/7 135/173/7
f 64/174/2 66/175/2 81/176/2 79/177/2
f 70/178/5 72/179/5 87/180/5 85/181/5
f 248/182/2 250/183/2 129/184/2 127/185/2
f 250/186/11 252/187/11 131/188/11 129/189/11
f 125/190/12 141/191/12 139/192/12 123/193/12
f 246/194/3 248/195/3 127/196/3 125/197/3
f 85/198/12 87/199/12 103/200/12 101/201/12
f 103/202/7 90/203/7 89/204/7 104/205/7
f 133/206/12 149/207/12 147/208/12 131/209/12
f 275/210/15 283/211/15 281/212/15 274/213/15
f 127/214/12 129/215/12 145/216/12 143/217/12
f 125/218/12 127/219/12 143/220/12 141/221/12
f 254/222/5 256/223/5 135/224/5 133/225/5
f 78/226/6 94/227/6 96/228/6 80/229/6
f 85/230/12 101/231/12 99/232/12 83/233/12
f 126/234/6 142/235/6 144/236/6 128/237/6
f 84/238/6 82/239/6 98/240/6 100/241/6
f 83/242/12 99/243/12 97/244/12 81/245/12
f 79/246/12 81/247/12 97/248/12 95/249/12
f 88/250/6 104/251/6 89/252/6 73/253/6
f 136/254/6 152/255/6 137/256/6 121/257/6
f 129/258/12 131/259/12 147/260/12 145/261/12
f 124/262/6 121/263/6 137/264/6 140/265/6
f 123/266/12 139/267/12 138/268/12 122/269/12
f 97/270/11 99/271/11 100/272/11 98/273/11
f 12/274/6 13/275/6 16/276/6 15/277/6
f 88/278/7 73/279/7 57/280/7 71/281/7
f 91/282/4 93/283/4 94/284/4 92/285/4
f 10/286/12 11/287/12 14/288/12 9/289/12
f 304/290/1 301/291/1 300/292/1 297/293/1
f 60/294/4 62/295/4 77/296/4 75/297/4
f 302/298/12 304/299/12 297/300/12 298/301/12
f 244/302/9 243/303/9 123/304/9 122/305/9
f 300/306/13 299/307/13 298/308/13 297/309/13
f 128/310/2 130/311/2 249/312/2 247/313/2
f 136/314/7 121/315/7 241/316/7 255/317/7
f 82/318/11 84/319/11 67/320/11 65/321/11
f 101/322/5 103/323/5 104/324/5 102/325/5
f 90/326/9 91/327/9 92/328/9 89/329/9
f 105/330/12 242/331/12 107/332/12
f 112/333/6 114/334/6 250/335/6 248/336/6
f 107/337/12 245/338/12 109/339/12
f 110/340/6 112/341/6 248/342/6 246/343/6
f 111/344/12 245/345/12 247/346/12
f 113/347/12 247/348/12 249/349/12
f 115/350/12 249/351/12 251/352/12
f 114/353/6 252/354/6 250/355/6
f 110/356/6 246/357/6 243/358/6 108/359/6
f 116/360/6 254/361/6 252/362/6
f 117/363/12 115/364/12 251/365/12 253/366/12
f 120/367/6 254/368/6 118/369/6
f 119/370/12 241/371/12 105/372/12
f 106/373/6 256/374/6 120/375/6
f 279/376/16 281/377/16 280/378/16 277/379/16
f 76/380/4 78/381/4 61/382/4 59/383/4
f 124/384/4 126/385/4 245/386/4 242/387/4
f 78/388/3 80/389/3 63/390/3 61/391/3
f 275/392/17 284/393/17 283/394/17
f 273/395/18 279/396/18 284/397/18 276/398/18
f 283/399/19 284/400/19 278/401/19 282/402/19
f 284/403/20 279/404/20 277/405/20 278/406/20
f 117/407/12 253/408/12 255/409/12 119/410/12
f 273/411/21 281/412/21 279/413/21
f 252/414/8 254/415/8 133/416/8 131/417/8
f 293/418/14 296/419/14 302/420/14
f 296/421/14 295/422/14 304/423/14
f 84/424/8 86/425/8 69/426/8 67/427/8
f 71/428/12 59/429/12 63/430/12 67/431/12
f 294/432/14 293/433/14 303/434/14
f 295/435/14 294/436/14 301/437/14
f 281/438/22 283/439/22 282/440/22 280/441/22
f 8/442/1 16/443/1 9/444/1
f 6/445/1 14/446/1 15/447/1
f 62/448/6 60/449/6 58/450/6
f 58/451/6 72/452/6 62/453/6
f 72/454/6 70/455/6 62/456/6
f 70/457/6 68/458/6 62/459/6
f 68/460/6 66/461/6 62/462/6
f 71/463/12 57/464/12 59/465/12
f 59/466/12 61/467/12 63/468/12
f 63/469/12 65/470/12 67/471/12
f 67/472/12 69/473/12 71/474/12
f 105/475/12 241/476/12 242/477/12
f 107/478/12 242/479/12 245/480/12
f 111/481/12 109/482/12 245/483/12
f 113/484/12 111/485/12 247/486/12
f 115/487/12 113/488/12 249/489/12
f 114/490/6 116/491/6 252/492/6
f 116/493/6 118/494/6 254/495/6
f 120/496/6 256/497/6 254/498/6
f 119/499/12 255/500/12 241/501/12
f 106/502/6 244/503/6 256/504/6
f 275/505/17 276/506/17 284/507/17
f 273/508/21 274/509/21 281/510/21
f 293/511/14 302/512/14 303/513/14
f 296/514/14 304/515/14 302/516/14
f 294/517/14 303/518/14 301/519/14
f 295/520/14 301/521/14 304/522/14
f 10/523/10 13/524/10 12/525/10 11/526/10
f 110/527/3 262/528/3 264/529/3 112/530/3
f 3/531/10 2/532/10 296/533/10 293/534/10
f 105/535/7 257/536/7 271/537/7 119/538/7
f 4/539/14 1/540/14 2/541/14 3/542/14
f 111/543/3 263/544/3 261/545/3 109/546/3
f 20/547/6 19/548/6 23/549/6 24/550/6
f 118/551/5 270/552/5 272/553/5 120/554/5
f 285/555/23 289/556/23 292/557/23 287/558/23
f 109/559/4 261/560/4 258/561/4 107/562/4
f 17/563/12 21/564/12 22/565/12 18/566/12
f 107/567/9 258/568/9 257/569/9 105/570/9
f 20/571/24 24/572/24 21/573/24 17/574/24
f 120/575/7 272/576/7 260/577/7 106/578/7
f 18/579/25 22/580/25 23/581/25 19/582/25
f 113/583/2 265/584/2 263/585/2 111/586/2
f 108/587/4 259/588/4 262/589/4 110/590/4
f 288/591/26 291/592/26 290/593/26 286/594/26
f 116/595/8 268/596/8 270/597/8 118/598/8
f 112/599/2 264/600/2 266/601/2 114/602/2
f 7/603/6 8/604/6 275/605/6 274/606/6
f 1/607/1 4/608/1 294/609/1 295/610/1
f 115/611/11 267/612/11 265/613/11 113/614/11
f 106/615/9 260/616/9 259/617/9 108/618/9
f 2/619/12 1/620/12 295/621/12 296/622/12
f 4/623/6 3/624/6 293/625/6 294/626/6
f 8/627/13 5/628/13 276/629/13 275/630/13
f 266/631/6 264/632/6 262/633/6
f 117/634/8 269/635/8 267/636/8 115/637/8
f 6/638/14 7/639/14 274/640/14 273/641/14
f 119/642/5 271/643/5 269/644/5 117/645/5
f 261/646/12 263/647/12 267/648/12 271/649/12
f 5/650/12 6/651/12 273/652/12 276/653/12
f 287/654/6 291/655/6 288/656/6
f 285/657/12 290/658/12 289/659/12
f 114/660/11 266/661/11 268/662/11 116/663/11
f 262/664/6 259/665/6 260/666/6
f 260/667/6 272/668/6 262/669/6
f 272/670/6 270/671/6 262/672/6
f 270/673/6 268/674/6 262/675/6
f 268/676/6 266/677/6 262/678/6
f 271/679/12 257/680/12 258/681/12
f 258/682/12 261/683/12 271/684/12
f 263/685/12 265/686/12 267/687/12
f 267/688/12 269/689/12 271/690/12
f 287/691/6 292/692/6 291/693/6
f 285/694/12 286/695/12 290/696/12
f 26/697/1 25/698/1 28/699/1 27/700/1
f 201/701/11 203/702/11 204/703/11 202/704/11
f 210/705/9 211/706/9 212/707/9 209/708/9
f 36/709/14 37/710/14 40/711/14 33/712/14
f 225/713/4 227/714/4 228/715/4 226/716/4
f 43/717/12 47/718/12 45/719/12 41/720/12
f 310/721/27 25/722/27 26/723/27 312/724/27
f 29/725/28 32/726/28 308/727/28 305/728/28
f 311/729/29 309/730/29 27/731/29 28/732/29
f 311/733/30 28/734/30 25/735/30 310/736/30
f 31/737/31 37/738/31 30/739/31
f 30/740/32 39/741/32 29/742/32
f 199/743/2 201/744/2 202/745/2 200/746/2
f 32/747/33 40/748/33 31/749/33
f 29/750/34 38/751/34 32/752/34
f 45/753/35 49/754/35 50/755/35 46/756/35
f 39/757/13 43/758/13 38/759/13
f 39/760/13 42/761/13 44/762/13
f 38/763/13 41/764/13 34/765/13
f 52/766/6 56/767/6 54/768/6 48/769/6
f 44/770/6 42/771/6 46/772/6 48/773/6
f 51/774/12 47/775/12 53/776/12 55/777/12
f 47/778/12 51/779/12 49/780/12 45/781/12
f 219/782/8 221/783/8 222/784/8 220/785/8
f 215/786/2 217/787/2 218/788/2 216/789/2
f 229/790/2 231/791/2 232/792/2 230/793/2
f 237/794/7 240/795/7 239/796/7 238/797/7
f 203/798/8 205/799/8 206/800/8 204/801/8
f 217/802/11 219/803/11 220/804/11 218/805/11
f 184/806/3 183/807/3 188/808/3 187/809/3
f 227/810/3 229/811/3 230/812/3 228/813/3
f 183/814/2 182/815/2 189/816/2 188/817/2
f 33/818/12 40/819/12 38/820/12 34/821/12
f 49/822/13 51/823/13 52/824/13 50/825/13
f 223/826/7 210/827/7 209/828/7 224/829/7
f 221/830/5 223/831/5 224/832/5 222/833/5
f 231/834/11 233/835/11 234/836/11 232/837/11
f 48/838/14 54/839/14 53/840/14 47/841/14
f 165/842/36 189/843/36 190/844/36 168/845/36
f 174/846/37 192/847/37 177/848/37 155/849/37
f 138/850/38 178/851/38 179/852/38 151/853/38
f 162/854/39 159/855/39 187/856/39 188/857/39
f 143/858/40 183/859/40 184/860/40 141/861/40
f 165/862/41 162/863/41 188/864/41 189/865/41
f 168/866/42 190/867/42 191/868/42 171/869/42
f 169/870/43 219/871/43 217/872/43 166/873/43
f 146/874/44 232/875/44 234/876/44 148/877/44
f 163/878/45 215/879/45 213/880/45 160/881/45
f 165/882/46 201/883/46 199/884/46 162/885/46
f 146/886/47 144/887/47 230/888/47 232/889/47
f 153/890/48 176/891/48 224/892/48 209/893/48
f 174/894/49 207/895/49 205/896/49 171/897/49
f 167/898/50 170/899/50 233/900/50 231/901/50
f 153/902/51 209/903/51 212/904/51 158/905/51
f 155/906/52 156/907/52 195/908/52 194/909/52
f 137/910/53 239/911/53 226/912/53 140/913/53
f 170/914/54 220/915/54 222/916/54 173/917/54
f 155/918/55 194/919/55 207/920/55 174/921/55
f 148/922/56 234/923/56 236/924/56 150/925/56
f 164/926/57 161/927/57 214/928/57 216/929/57
f 163/930/58 160/931/58 198/932/58 200/933/58
f 170/934/59 173/935/59 235/936/59 233/937/59
f 166/938/60 217/939/60 215/940/60 163/941/60
f 154/942/61 193/943/61 196/944/61 157/945/61
f 164/946/62 229/947/62 227/948/62 161/949/62
f 172/950/63 175/951/63 223/952/63 221/953/63
f 175/954/64 172/955/64 206/956/64 208/957/64
f 137/958/65 152/959/65 238/960/65 239/961/65
f 154/962/66 157/963/66 211/964/66 210/965/66
f 35/966/6 39/967/6 37/968/6 36/969/6
f 182/970/11 181/971/11 190/972/11 189/973/11
f 54/974/67 56/975/67 55/976/67 53/977/67
f 155/978/68 177/979/68 186/980/68 156/981/68
f 141/982/69 184/983/69 185/984/69 139/985/69
f 147/986/70 149/987/70 180/988/70 181/989/70
f 145/990/71 182/991/71 183/992/71 143/993/71
f 151/994/72 179/995/72 180/996/72 149/997/72
f 138/998/73 139/999/73 185/1000/73 178/1001/73
f 156/1002/74 186/1003/74 187/1004/74 159/1005/74
f 145/1006/75 147/1007/75 181/1008/75 182/1009/75
f 233/1010/8 235/1011/8 236/1012/8 234/1013/8
f 41/1014/76 45/1015/76 46/1016/76 42/1017/76
f 154/1018/77 175/1019/77 208/1020/77 193/1021/77
f 162/1022/78 199/1023/78 197/1024/78 159/1025/78
f 166/1026/79 163/1027/79 200/1028/79 202/1029/79
f 169/1030/80 204/1031/80 206/1032/80 172/1033/80
f 157/1034/81 196/1035/81 198/1036/81 160/1037/81
f 168/1038/82 171/1039/82 205/1040/82 203/1041/82
f 165/1042/83 168/1043/83 203/1044/83 201/1045/83
f 156/1046/84 159/1047/84 197/1048/84 195/1049/84
f 213/1050/3 215/1051/3 216/1052/3 214/1053/3
f 194/1054/9 195/1055/9 196/1056/9 193/1057/9
f 205/1058/5 207/1059/5 208/1060/5 206/1061/5
f 207/1062/7 194/1063/7 193/1064/7 208/1065/7
f 175/1066/85 154/1067/85 210/1068/85 223/1069/85
f 169/1070/86 172/1071/86 221/1072/86 219/1073/86
f 167/1074/87 218/1075/87 220/1076/87 170/1077/87
f 167/1078/88 164/1079/88 216/1080/88 218/1081/88
f 158/1082/89 212/1083/89 214/1084/89 161/1085/89
f 157/1086/90 160/1087/90 213/1088/90 211/1089/90
f 166/1090/91 202/1091/91 204/1092/91 169/1093/91
f 176/1094/92 173/1095/92 222/1096/92 224/1097/92
f 197/1098/3 199/1099/3 200/1100/3 198/1101/3
f 180/1102/5 179/1103/5 192/1104/5 191/1105/5
f 179/1106/7 178/1107/7 177/1108/7 192/1109/7
f 158/1110/93 161/1111/93 227/1112/93 225/1113/93
f 167/1114/94 231/1115/94 229/1116/94 164/1117/94
f 174/1118/95 171/1119/95 191/1120/95 192/1121/95
f 140/1122/96 226/1123/96 228/1124/96 142/1125/96
f 173/1126/97 176/1127/97 237/1128/97 235/1129/97
f 144/1130/98 142/1131/98 228/1132/98 230/1133/98
f 153/1134/99 158/1135/99 225/1136/99 240/1137/99
f 153/1138/100 240/1139/100 237/1140/100 176/1141/100
f 34/1142/13 41/1143/13 42/1144/13 35/1145/13
f 152/1146/101 150/1147/101 236/1148/101 238/1149/101
f 51/1150/13 55/1151/13 56/1152/13 52/1153/13
f 211/1154/4 213/1155/4 214/1156/4 212/1157/4
f 195/1158/4 197/1159/4 198/1160/4 196/1161/4
f 185/1162/4 184/1163/4 187/1164/4 186/1165/4
f 44/1166/102 48/1167/102 47/1168/102 43/1169/102
f 240/1170/9 225/1171/9 226/1172/9 239/1173/9
f 235/1174/5 237/1175/5 238/1176/5 236/1177/5
f 309/1178/103 312/1179/103 26/1180/103 27/1181/103
f 48/1182/6 46/1183/6 50/1184/6 52/1185/6
f 178/1186/9 185/1187/9 186/1188/9 177/1189/9
f 181/1190/8 180/1191/8 191/1192/8 190/1193/8
f 30/1194/104 307/1195/104 306/1196/104 31/1197/104
f 308/1198/105 312/1199/105 309/1200/105 305/1201/105
f 30/1202/106 29/1203/106 305/1204/106 307/1205/106
f 305/1206/107 309/1207/107 311/1208/107 307/1209/107
f 306/1210/108 307/1211/108 311/1212/108 310/1213/108
f 31/1214/109 306/1215/109 308/1216/109 32/1217/109
f 308/1218/110 306/1219/110 310/1220/110 312/1221/110
f 31/1222/31 40/1223/31 37/1224/31
f 30/1225/32 37/1226/32 39/1227/32
f 32/1228/33 38/1229/33 40/1230/33
f 29/1231/34 39/1232/34 38/1233/34
f 39/1234/13 44/1235/13 43/1236/13
f 39/1237/13 35/1238/13 42/1239/13
f 38/1240/13 43/1241/13 41/1242/13
