# Blender v3.0.0 OBJ File: 'aa.blend'
# www.blender.org
mtllib Crane_3.mtl
o Crane_3
v -2.911358 -0.000000 0.150962
v -3.212155 0.026159 0.150962
v -2.911358 -0.000000 -0.150962
v 0.150962 4.318342 0.187450
v -0.150963 4.318342 0.187450
v -0.150963 4.318342 -0.187454
v 0.150962 4.318342 -0.187454
v 0.175743 4.318342 0.218221
v 0.154816 4.555589 0.218221
v -0.175744 4.585523 0.218221
v -0.175744 4.585523 -0.218226
v 0.175743 4.611774 -0.218226
v -0.175744 4.318342 0.218221
v -0.175744 4.318342 -0.218226
v 0.175743 4.318342 -0.218226
v -3.074995 0.719853 0.108100
v -3.074995 0.719853 -0.108102
v -2.868795 0.701984 -0.108102
v -0.054946 2.428391 0.108100
v -0.054946 2.687886 0.108100
v -0.054946 2.428391 -0.108102
v -2.456828 0.101411 0.334882
v -2.417212 0.146241 0.334882
v -2.417212 0.146241 0.295234
v -2.456828 0.101411 0.295234
v -2.727044 0.587334 -0.029828
v -2.732195 0.527902 -0.029828
v -2.732195 0.527902 0.029827
v -2.727044 0.587334 0.029827
v -3.018608 0.511048 0.071346
v -3.006288 0.653207 0.071346
v -3.006288 0.653207 -0.071347
v -3.018608 0.511048 -0.071347
v -2.756800 0.488360 -0.071347
v -2.744481 0.630519 0.071346
v -2.744481 0.630519 -0.071347
v -2.756800 0.488360 0.071346
v -2.881712 0.642411 0.025507
v -2.881712 0.642411 -0.025508
v -2.788112 0.634300 0.025507
v -2.788112 0.634300 -0.025508
v -0.222469 2.490376 0.025506
v -0.222469 2.490376 -0.025509
v -0.222469 2.396426 0.025506
v -0.222469 2.396426 -0.025509
v -0.166610 2.450631 0.025506
v -0.166610 2.450631 -0.025509
v -0.166610 2.356681 0.025506
v -0.166610 2.356681 -0.025509
v -0.222468 0.129411 0.025507
v -0.222468 0.129410 -0.025507
v -0.166610 0.089665 0.025507
v -0.166610 0.089665 -0.025507
v -0.474691 2.412722 0.201880
v -0.474691 2.348362 -0.201882
v -0.425981 2.296591 0.220391
v -0.425981 2.232231 -0.183371
v -0.308384 2.248488 0.228059
v -0.308384 2.184129 -0.175703
v -0.190788 2.296591 0.220391
v -0.190788 2.232231 -0.183371
v -0.142078 2.412722 0.201880
v -0.142078 2.348362 -0.201882
v -0.190788 2.528852 0.183368
v -0.190788 2.464492 -0.220393
v -0.308384 2.576955 0.175701
v -0.308384 2.512595 -0.228061
v -0.425981 2.528852 0.183368
v -0.425981 2.464492 -0.220394
v -0.474691 2.399590 0.119498
v -0.474691 2.361493 -0.119500
v -0.425981 2.245363 -0.100989
v -0.425981 2.283460 0.138009
v -0.308384 2.197260 -0.093321
v -0.308384 2.235357 0.145677
v -0.190788 2.245363 -0.100989
v -0.190788 2.283460 0.138009
v -0.142078 2.361493 -0.119500
v -0.142078 2.399590 0.119498
v -0.190788 2.477624 -0.138012
v -0.190788 2.515720 0.100987
v -0.308384 2.525727 -0.145679
v -0.308384 2.563823 0.093319
v -0.425981 2.477624 -0.138012
v -0.425981 2.515720 0.100987
v -0.379274 2.399590 0.119498
v -0.379274 2.361493 -0.119500
v -0.358511 2.311992 -0.111610
v -0.358511 2.350088 0.127388
v -0.308384 2.291487 -0.108341
v -0.308384 2.329584 0.130657
v -0.258258 2.311992 -0.111610
v -0.258258 2.350088 0.127388
v -0.237494 2.361493 -0.119500
v -0.237494 2.399590 0.119498
v -0.258258 2.410995 -0.127391
v -0.258258 2.449092 0.111607
v -0.308384 2.431499 -0.130659
v -0.308384 2.469596 0.108339
v -0.358511 2.410995 -0.127391
v -0.358511 2.449092 0.111607
v -0.345314 0.222260 0.204430
v -0.345314 0.526043 -0.204430
v -0.334498 0.196147 0.204430
v -0.334498 0.499930 -0.204430
v -0.308384 0.185330 0.204430
v -0.308384 0.489114 -0.204430
v -0.282271 0.196147 0.204430
v -0.282271 0.499930 -0.204430
v -0.271454 0.222260 0.204430
v -0.271454 0.526043 -0.204430
v -0.282271 0.248373 0.204430
v -0.282271 0.552157 -0.204430
v -0.308384 0.259190 0.204430
v -0.308384 0.562973 -0.204430
v -0.334498 0.248373 0.204430
v -0.334498 0.552157 -0.204430
v -0.598369 0.394424 0.121008
v -0.598369 0.394424 -0.121008
v -0.513434 0.189374 -0.121008
v -0.513434 0.189374 0.121008
v -0.308384 0.104439 -0.121008
v -0.308384 0.104439 0.121008
v -0.103334 0.189374 -0.121008
v -0.103334 0.189374 0.121008
v -0.018399 0.394424 -0.121008
v -0.018399 0.394424 0.121008
v -0.103334 0.599474 -0.121008
v -0.103334 0.599474 0.121007
v -0.308384 0.684408 -0.121008
v -0.308384 0.684408 0.121007
v -0.513434 0.599474 -0.121008
v -0.513434 0.599474 0.121007
v -0.504855 0.394424 0.121008
v -0.504855 0.394424 -0.121008
v -0.447310 0.255498 -0.121008
v -0.447310 0.255498 0.121008
v -0.308384 0.197953 -0.121008
v -0.308384 0.197953 0.121008
v -0.169458 0.255498 -0.121008
v -0.169458 0.255498 0.121008
v -0.111913 0.394424 -0.121008
v -0.111913 0.394424 0.121008
v -0.169458 0.533350 -0.121008
v -0.169458 0.533350 0.121007
v -0.308384 0.590894 -0.121008
v -0.308384 0.590894 0.121007
v -0.447310 0.533349 -0.121008
v -0.447310 0.533350 0.121007
v -0.504855 0.394424 0.060504
v -0.504855 0.394424 -0.000000
v -0.504855 0.394424 -0.060504
v -0.447310 0.255498 -0.060504
v -0.447310 0.255498 -0.000000
v -0.447310 0.255498 0.060504
v -0.308384 0.197953 -0.060504
v -0.308384 0.197953 -0.000000
v -0.308384 0.197953 0.060504
v -0.169458 0.255498 -0.060504
v -0.169458 0.255498 -0.000000
v -0.169458 0.255498 0.060504
v -0.111913 0.394424 -0.060504
v -0.111913 0.394424 -0.000000
v -0.111913 0.394424 0.060504
v -0.169458 0.533350 -0.060504
v -0.169458 0.533350 -0.000000
v -0.169458 0.533350 0.060504
v -0.308384 0.590894 -0.060504
v -0.308384 0.590894 -0.000000
v -0.308384 0.590894 0.060504
v -0.447310 0.533350 -0.060504
v -0.447310 0.533350 -0.000000
v -0.447310 0.533350 0.060504
v -0.555000 0.394424 -0.064840
v -0.555000 0.394424 -0.116672
v -0.482768 0.568807 -0.116672
v -0.308384 0.641039 -0.116672
v -0.134001 0.568807 -0.116672
v -0.061769 0.394424 -0.116672
v -0.134001 0.220040 -0.116672
v -0.308384 0.147808 -0.116672
v -0.482768 0.220040 -0.116672
v -0.482768 0.220040 -0.064840
v -0.308384 0.147808 -0.064840
v -0.134001 0.220040 -0.064840
v -0.061769 0.394424 -0.064840
v -0.134001 0.568807 -0.064840
v -0.308384 0.641039 -0.064840
v -0.482768 0.568807 -0.064840
v -0.553657 0.394424 -0.002059
v -0.553657 0.394424 -0.058446
v -0.481818 0.220989 -0.058446
v -0.481818 0.220989 -0.002058
v -0.308384 0.149151 -0.058446
v -0.308384 0.149151 -0.002058
v -0.134950 0.220989 -0.058446
v -0.134950 0.220989 -0.002058
v -0.063111 0.394424 -0.058446
v -0.063111 0.394424 -0.002059
v -0.134950 0.567858 -0.058446
v -0.134950 0.567858 -0.002059
v -0.308384 0.639697 -0.058446
v -0.308384 0.639697 -0.002059
v -0.481819 0.567858 -0.058446
v -0.481819 0.567858 -0.002059
v -0.549764 0.394424 0.058331
v -0.549764 0.394424 0.002172
v -0.479066 0.223742 0.002172
v -0.479066 0.223742 0.058331
v -0.308384 0.153044 0.002172
v -0.308384 0.153044 0.058332
v -0.137703 0.223742 0.002172
v -0.137703 0.223742 0.058331
v -0.067004 0.394424 0.002172
v -0.067004 0.394424 0.058331
v -0.137703 0.565105 0.002172
v -0.137703 0.565105 0.058331
v -0.308384 0.635804 0.002172
v -0.308384 0.635804 0.058331
v -0.479066 0.565105 0.002172
v -0.479066 0.565105 0.058331
v -0.471950 0.230858 0.064161
v -0.471950 0.230858 0.117350
v -0.308384 0.163107 0.064161
v -0.308384 0.163107 0.117350
v -0.144818 0.230858 0.064161
v -0.144818 0.230858 0.117350
v -0.077067 0.394424 0.064161
v -0.077067 0.394424 0.117350
v -0.144818 0.557989 0.064161
v -0.144818 0.557990 0.117350
v -0.308384 0.625740 0.064161
v -0.308384 0.625741 0.117350
v -0.471950 0.557989 0.064161
v -0.471950 0.557989 0.117350
v -0.539701 0.394424 0.117350
v -0.539701 0.394424 0.064161
v -0.598369 0.394424 0.204429
v -0.513434 0.189374 0.204430
v -0.513434 0.189373 -0.204430
v -0.598369 0.394424 -0.204430
v -0.308384 0.104439 0.204430
v -0.308384 0.104439 -0.204430
v -0.103334 0.189374 0.204430
v -0.103334 0.189374 -0.204430
v -0.018399 0.394424 0.204430
v -0.018399 0.394424 -0.204430
v -0.103334 0.599474 -0.204430
v -0.308384 0.684409 0.204429
v -0.308384 0.684408 -0.204430
v -0.513434 0.599474 0.204429
v -0.345314 0.186974 0.284747
v -0.334498 0.166113 0.269040
v -0.338585 0.429393 -0.414027
v -0.344616 0.456355 -0.419994
v -0.308384 0.157471 0.262534
v -0.314864 0.414838 -0.409094
v -0.282271 0.166112 0.269040
v -0.287346 0.421216 -0.408084
v -0.271454 0.186974 0.284747
v -0.272153 0.444791 -0.411589
v -0.282271 0.207836 0.300454
v -0.278183 0.471752 -0.417556
v -0.308384 0.216477 0.306960
v -0.301905 0.486307 -0.422489
v -0.334498 0.207836 0.300454
v -0.329422 0.479929 -0.423499
v -0.150962 0.191207 0.187452
v -0.150962 0.191207 -0.187452
v 0.150962 0.191207 -0.187452
v -0.225803 0.000000 0.280384
v 0.225803 0.000000 0.280384
v -0.200617 0.151804 0.249109
v -0.225803 -0.000000 -0.280384
v -0.200617 0.151803 -0.249110
v 0.225803 -0.000000 -0.280384
v 0.200617 0.151803 -0.249110
v 0.200617 0.151804 0.249110
v 0.961985 4.432854 0.111956
v 0.961984 4.656771 0.111956
v 0.961985 4.432854 -0.111961
v 0.961985 4.656771 -0.111961
v -0.043716 3.450834 0.111957
v -0.043716 3.674751 0.111956
v -0.043716 3.674751 -0.111960
v -0.043716 3.450834 -0.111960
v 0.803211 4.695775 -0.150964
v 0.803211 4.393851 -0.150964
v 0.803211 4.393851 0.150960
v 0.803211 4.695775 0.150960
v 1.018905 4.353063 0.191748
v 1.018905 4.702968 0.191748
v 1.018905 4.702968 -0.191753
v 1.018905 4.353063 -0.191752
v 0.803211 4.353063 -0.191752
v 0.803211 4.736563 0.191748
v 0.803211 4.736563 -0.191753
v 0.803211 4.353063 0.191748
v -2.881447 2.228151 0.356359
v -2.559390 2.342842 0.383450
v -0.107756 3.394696 0.192972
v -0.107756 3.394696 -0.181932
v 0.194168 3.394696 -0.181932
v 0.678371 3.904458 0.111956
v 0.395387 3.757668 -0.075872
v 0.678371 4.128376 -0.111961
v 0.395387 3.956001 0.122460
v -3.124014 0.583161 -0.150963
v -2.823218 0.557095 0.150962
v -2.823218 0.557095 -0.150963
v -0.072063 1.474846 0.150774
v -0.143295 0.798763 0.188915
v -0.072063 1.474845 -0.224130
v -0.143295 0.798763 -0.185989
v 0.158629 0.798763 -0.185989
v -1.211606 3.601404 0.108099
v -1.211606 3.341499 -0.108103
v -3.212155 0.026159 -0.006840
v -3.068571 0.013624 -0.150962
v -3.189629 0.168509 -0.150962
v -3.124014 0.583161 0.150962
v -1.165064 4.563527 0.034234
v -1.052396 4.573479 0.181023
v -0.456681 4.294394 0.114571
v -0.823693 4.262359 0.107660
v -2.576182 2.437670 0.787912
v -0.832922 4.328601 0.183011
v 0.162530 4.071028 0.188928
v 0.101696 3.394696 0.192972
v 0.190746 2.979863 0.195251
v 0.194168 3.394696 0.100501
v 0.158629 0.798763 0.147156
v 0.116863 0.798763 0.188915
v 0.150962 0.191208 0.187452
v 0.188096 1.474846 0.150774
v 0.229861 1.474846 0.109016
v 0.187366 2.570115 0.197502
v -2.868795 0.701984 0.034087
v -2.958637 0.709770 0.108100
v -1.211606 3.431677 0.108099
v -1.211606 3.341499 0.034086
v -1.153513 3.295638 0.108099
v -0.054946 2.650507 -0.108102
v -0.054946 2.687886 -0.078769
v -1.203009 3.592169 -0.041564
v -1.211606 3.564025 -0.108103
v 0.678372 4.128376 0.111956
v 0.395387 3.757668 0.122460
v 0.678372 3.904458 -0.111960
v 0.395387 3.956001 -0.075872
v -2.886281 2.288511 0.523755
v -2.875894 2.206010 0.653982
v -1.165064 4.563527 -0.113532
v -1.165064 4.235411 -0.113531
v -2.556765 2.515887 0.752549
v -2.170287 -0.001621 0.522819
v -2.130672 0.000000 0.522819
v -2.130672 0.000000 0.483171
v -2.170287 -0.001622 0.483171
v 0.229862 1.474846 -0.064594
v 0.213172 1.316437 -0.215194
v 0.070326 1.474845 -0.224130
v 0.213606 2.349192 -0.204912
v -0.372821 0.562291 -0.204430
v -0.535088 0.547198 -0.204430
v -0.513434 0.599474 -0.147847
v -0.461158 0.621127 -0.204430
v -0.092925 0.574345 0.204429
v -0.128463 0.609883 0.194920
v -0.160044 0.622964 0.204429
v -0.198943 0.411876 0.204429
vt 0.602479 0.839671
vt 0.602479 0.904088
vt 0.598856 0.898980
vt 0.330088 0.805791
vt 0.330088 0.870208
vt 0.326465 0.865101
vt 0.658856 0.911313
vt 0.658856 0.946490
vt 0.645634 0.946490
vt 0.645634 0.911313
vt 0.432719 0.825429
vt 0.429464 0.755680
vt 0.485326 0.756254
vt 0.485326 0.825429
vt 0.949313 0.203086
vt 0.949313 0.155233
vt 0.954190 0.151305
vt 0.954190 0.207014
vt 0.330088 0.879355
vt 0.330088 0.927209
vt 0.325211 0.931137
vt 0.325211 0.875428
vt 0.142000 0.631798
vt 0.142000 0.640398
vt 0.103641 0.640398
vt 0.103641 0.631798
vt 0.656637 0.951710
vt 0.656637 0.971884
vt 0.643415 0.971884
vt 0.643415 0.951710
vt 0.677454 0.868568
vt 0.608279 0.868568
vt 0.608279 0.826221
vt 0.677454 0.826221
vt 0.044878 0.955885
vt 0.065052 0.955885
vt 0.065052 0.969108
vt 0.044878 0.969108
vt 0.967341 0.521642
vt 0.954119 0.521642
vt 0.954119 0.501467
vt 0.967341 0.501467
vt 0.088486 0.961939
vt 0.088486 0.941765
vt 0.101708 0.941765
vt 0.101708 0.961939
vt 0.400094 0.926470
vt 0.364917 0.926470
vt 0.364917 0.913248
vt 0.400094 0.913248
vt 0.975550 0.212375
vt 0.975550 0.232549
vt 0.962328 0.232549
vt 0.962328 0.212375
vt 0.148110 0.953417
vt 0.139510 0.953417
vt 0.139510 0.915059
vt 0.148110 0.915059
vt 0.962723 0.604702
vt 0.962723 0.643060
vt 0.954123 0.643060
vt 0.954123 0.604702
vt 0.884774 0.900017
vt 0.884774 0.935194
vt 0.871080 0.929522
vt 0.871080 0.905689
vt 0.640414 0.911313
vt 0.640414 0.946490
vt 0.627192 0.946490
vt 0.627192 0.911313
vt 0.573143 0.940851
vt 0.559450 0.935179
vt 0.559450 0.911346
vt 0.573143 0.905674
vt 0.964825 0.742506
vt 0.944651 0.742506
vt 0.944651 0.729284
vt 0.964825 0.729284
vt 0.702000 0.540631
vt 0.688028 0.534844
vt 0.688028 0.526244
vt 0.702000 0.520457
vt 0.963104 0.022784
vt 0.963104 0.002610
vt 0.976326 0.002610
vt 0.976326 0.022784
vt 0.033177 0.936545
vt 0.019484 0.930873
vt 0.019484 0.907040
vt 0.033177 0.901368
vt 0.169307 0.939981
vt 0.169307 0.960155
vt 0.155335 0.954368
vt 0.155335 0.945769
vt 0.944651 0.724065
vt 0.944651 0.688887
vt 0.957873 0.688887
vt 0.957873 0.724065
vt 0.512493 0.954282
vt 0.498521 0.948495
vt 0.498521 0.939896
vt 0.512493 0.934108
vt 0.952202 0.414311
vt 0.960801 0.414311
vt 0.960801 0.452669
vt 0.952202 0.452669
vt 0.717355 0.933177
vt 0.717355 0.953351
vt 0.703383 0.947563
vt 0.703383 0.938964
vt 0.951316 0.817550
vt 0.951316 0.852728
vt 0.938094 0.852728
vt 0.938094 0.817550
vt 0.903402 0.962736
vt 0.894802 0.962736
vt 0.894802 0.924378
vt 0.903402 0.924378
vt 0.954359 0.366696
vt 0.954359 0.401873
vt 0.941137 0.401873
vt 0.941137 0.366696
vt 0.963093 0.688887
vt 0.976314 0.688887
vt 0.976314 0.709062
vt 0.963092 0.709062
vt 0.962719 0.496248
vt 0.954119 0.496248
vt 0.954119 0.457889
vt 0.962719 0.457889
vt 0.799848 0.957345
vt 0.799848 0.970568
vt 0.779674 0.970568
vt 0.779674 0.957345
vt 0.914267 0.740149
vt 0.900573 0.734477
vt 0.900573 0.710643
vt 0.914267 0.704971
vt 0.187941 0.899584
vt 0.187941 0.934761
vt 0.174248 0.929089
vt 0.174248 0.905256
vt 0.865861 0.900017
vt 0.865861 0.935194
vt 0.852167 0.929522
vt 0.852167 0.905689
vt 0.917490 0.082000
vt 0.903518 0.076212
vt 0.903518 0.067613
vt 0.917490 0.061825
vt 0.476372 0.936106
vt 0.476372 0.956281
vt 0.462400 0.950493
vt 0.462400 0.941894
vt 0.335030 0.960461
vt 0.335030 0.940287
vt 0.349002 0.946074
vt 0.349002 0.954674
vt 0.335308 0.935067
vt 0.335308 0.899890
vt 0.349002 0.905562
vt 0.349002 0.929395
vt 0.608279 0.911313
vt 0.621972 0.916984
vt 0.621972 0.940818
vt 0.608279 0.946490
vt 0.115848 0.881567
vt 0.055065 0.881567
vt 0.055065 0.847381
vt 0.115848 0.847381
vt 0.364917 0.889389
vt 0.372637 0.870751
vt 0.409914 0.870751
vt 0.409914 0.908028
vt 0.975773 0.715993
vt 0.975773 0.746258
vt 0.970546 0.720963
vt 0.492933 0.792853
vt 0.490545 0.780397
vt 0.492933 0.776877
vt 0.169028 0.934761
vt 0.155335 0.929089
vt 0.155335 0.905256
vt 0.169028 0.899584
vt 0.738964 0.956930
vt 0.738964 0.921753
vt 0.752186 0.921753
vt 0.752186 0.956930
vt 0.210697 0.960196
vt 0.196725 0.954408
vt 0.196726 0.945809
vt 0.210697 0.940021
vt 0.938920 0.574269
vt 0.920731 0.545520
vt 0.938920 0.527721
vt 0.071004 0.936545
vt 0.057310 0.930873
vt 0.057310 0.907040
vt 0.071004 0.901368
vt 0.885609 0.960588
vt 0.871637 0.954801
vt 0.871638 0.946201
vt 0.885609 0.940414
vt 0.592056 0.905674
vt 0.592056 0.940851
vt 0.578363 0.935179
vt 0.578363 0.911346
vt 0.932874 0.852728
vt 0.919181 0.847056
vt 0.919181 0.823222
vt 0.932874 0.817550
vt 0.953328 0.938375
vt 0.944729 0.938375
vt 0.944729 0.900017
vt 0.953328 0.900017
vt 0.833254 0.935194
vt 0.833254 0.900017
vt 0.846947 0.905689
vt 0.846947 0.929522
vt 0.814272 0.829782
vt 0.814272 0.890565
vt 0.779674 0.890565
vt 0.779674 0.829782
vt 0.526357 0.934108
vt 0.540329 0.939896
vt 0.540329 0.948495
vt 0.526357 0.954283
vt 0.258875 0.953637
vt 0.258875 0.933463
vt 0.272847 0.939250
vt 0.272847 0.947850
vt 0.698163 0.933177
vt 0.698163 0.953351
vt 0.684191 0.947563
vt 0.684191 0.938964
vt 0.951816 0.661483
vt 0.951816 0.681657
vt 0.937844 0.675870
vt 0.937844 0.667270
vt 0.188498 0.960155
vt 0.174527 0.954368
vt 0.174527 0.945769
vt 0.188498 0.939981
vt 0.852446 0.940414
vt 0.866418 0.946201
vt 0.866418 0.954801
vt 0.852446 0.960588
vt 0.089917 0.936545
vt 0.076223 0.930873
vt 0.076223 0.907040
vt 0.089917 0.901368
vt 0.108830 0.901368
vt 0.108830 0.936545
vt 0.095136 0.930873
vt 0.095136 0.907040
vt 0.847226 0.940414
vt 0.847226 0.960588
vt 0.833254 0.954801
vt 0.833254 0.946201
vt 0.052090 0.936545
vt 0.038397 0.930873
vt 0.038397 0.907040
vt 0.052090 0.901368
vt 0.733744 0.960111
vt 0.725145 0.960111
vt 0.725145 0.921753
vt 0.733744 0.921753
vt 0.684191 0.872238
vt 0.721468 0.872238
vt 0.721468 0.909515
vt 0.684191 0.909515
vt 0.962328 0.257943
vt 0.962328 0.237769
vt 0.975550 0.237769
vt 0.975550 0.257943
vt 0.665022 0.942601
vt 0.678244 0.942601
vt 0.678244 0.962775
vt 0.665022 0.962775
vt 0.258875 0.863485
vt 0.258875 0.808027
vt 0.319658 0.808027
vt 0.319658 0.863485
vt 0.943887 0.287950
vt 0.943887 0.252772
vt 0.957109 0.252772
vt 0.957109 0.287950
vt 0.494105 0.654014
vt 0.529282 0.654014
vt 0.529282 0.667236
vt 0.494105 0.667236
vt 0.975550 0.283337
vt 0.962328 0.283337
vt 0.962328 0.263163
vt 0.975550 0.263163
vt 0.993143 0.274173
vt 0.997344 0.247349
vt 0.997344 0.275730
vt 0.922691 0.916427
vt 0.919140 0.919158
vt 0.894802 0.881059
vt 0.922691 0.859620
vt 0.641408 0.508603
vt 0.641408 0.523716
vt 0.637897 0.511385
vt 0.196725 0.864599
vt 0.196725 0.860119
vt 0.253054 0.852754
vt 0.253054 0.887931
vt 0.944729 0.869006
vt 0.956574 0.859620
vt 0.956574 0.894797
vt 0.542944 0.673786
vt 0.535738 0.663594
vt 0.542944 0.659879
vt 0.622664 0.735984
vt 0.600043 0.717715
vt 0.622664 0.690775
vt 0.393231 0.932821
vt 0.398739 0.931690
vt 0.398739 0.965709
vt 0.910758 0.429338
vt 0.928540 0.417492
vt 0.928540 0.452669
vt 0.405314 0.960847
vt 0.409700 0.913248
vt 0.409700 0.961758
vt 0.885899 0.374493
vt 0.910282 0.365970
vt 0.910282 0.378653
vt 0.891957 0.756434
vt 0.891957 0.835400
vt 0.867568 0.840357
vt 0.867568 0.751478
vt 0.368314 0.519773
vt 0.430580 0.493982
vt 0.430580 0.529159
vt 0.368314 0.524253
vt 0.286764 0.871435
vt 0.286764 0.928243
vt 0.258875 0.906804
vt 0.283212 0.868705
vt 0.770628 0.921753
vt 0.770628 0.956930
vt 0.757406 0.952619
vt 0.757406 0.921753
vt 0.922577 0.673895
vt 0.932624 0.604702
vt 0.932624 0.683668
vt 0.927911 0.867490
vt 0.939509 0.859620
vt 0.939509 0.923214
vt 0.927911 0.915344
vt 0.359697 0.810748
vt 0.359697 0.889713
vt 0.335308 0.894670
vt 0.335308 0.805791
vt 0.885899 0.279961
vt 0.885899 0.216367
vt 0.910465 0.212375
vt 0.910465 0.283953
vt 0.668201 0.805835
vt 0.678248 0.736642
vt 0.678248 0.815608
vt 0.665022 0.881657
vt 0.676620 0.873787
vt 0.676620 0.937381
vt 0.665022 0.929511
vt 0.952837 0.088832
vt 0.952837 0.143534
vt 0.947182 0.096016
vt 0.492573 0.882376
vt 0.492573 0.937078
vt 0.486918 0.889560
vt 0.944662 0.037787
vt 0.944662 0.002610
vt 0.957884 0.002610
vt 0.957884 0.037787
vt 0.114116 0.968678
vt 0.114116 0.955456
vt 0.134290 0.955456
vt 0.134290 0.968678
vt 0.501837 0.844415
vt 0.554230 0.839671
vt 0.554230 0.882018
vt 0.498521 0.882018
vt 0.871352 0.397211
vt 0.905539 0.391886
vt 0.905539 0.452669
vt 0.871352 0.452669
vt 0.732672 0.856812
vt 0.732672 0.911514
vt 0.727017 0.863996
vt 0.049846 0.806671
vt 0.049846 0.861373
vt 0.044190 0.813855
vt 0.559450 0.900454
vt 0.559450 0.839671
vt 0.593636 0.844995
vt 0.593636 0.900454
vt 0.019484 0.969108
vt 0.019484 0.955885
vt 0.039658 0.955885
vt 0.039658 0.969108
vt 0.962582 0.547895
vt 0.962582 0.527721
vt 0.975804 0.527721
vt 0.975804 0.547895
vt 0.944140 0.562899
vt 0.944140 0.527721
vt 0.957362 0.527721
vt 0.957362 0.562899
vt 0.253054 0.847436
vt 0.206546 0.847534
vt 0.215305 0.778261
vt 0.253054 0.778261
vt 0.429464 0.834809
vt 0.485173 0.830649
vt 0.485173 0.877156
vt 0.429464 0.877156
vt 0.121068 0.950236
vt 0.121068 0.915059
vt 0.134290 0.915059
vt 0.134290 0.950236
vt 0.972632 0.185806
vt 0.972632 0.205980
vt 0.959410 0.205980
vt 0.959410 0.185806
vt 0.719368 0.927957
vt 0.693920 0.927957
vt 0.684191 0.914735
vt 0.719368 0.914735
vt 0.972041 0.335705
vt 0.972041 0.360440
vt 0.964112 0.350541
vt 0.560950 0.475993
vt 0.560950 0.492816
vt 0.539179 0.478223
vt 0.285387 0.933463
vt 0.285387 0.966809
vt 0.278066 0.936945
vt 0.806921 0.924534
vt 0.779674 0.910033
vt 0.806921 0.895785
vt 0.832743 0.556258
vt 0.836671 0.551381
vt 0.836671 0.620555
vt 0.832630 0.658384
vt 0.836558 0.653507
vt 0.836558 0.722682
vt 0.429464 0.882376
vt 0.457180 0.890014
vt 0.457180 0.922189
vt 0.430430 0.917540
vt 0.299704 0.965557
vt 0.291984 0.946918
vt 0.299704 0.928280
vt 0.450125 0.964686
vt 0.442404 0.946048
vt 0.450125 0.927409
vt 0.916342 0.961655
vt 0.908621 0.943016
vt 0.916342 0.924378
vt 0.965777 0.126110
vt 0.958057 0.107471
vt 0.965777 0.088832
vt 0.935632 0.965710
vt 0.927911 0.947072
vt 0.935632 0.928433
vt 0.929828 0.165570
vt 0.944094 0.151305
vt 0.944094 0.200010
vt 0.312644 0.965557
vt 0.304924 0.946918
vt 0.312644 0.928280
vt 0.437185 0.964686
vt 0.429464 0.946048
vt 0.437185 0.927409
vt 0.538617 0.313084
vt 0.544844 0.312244
vt 0.544844 0.316724
vt 0.939431 0.688887
vt 0.939431 0.734096
vt 0.922577 0.714025
vt 0.943887 0.247553
vt 0.943887 0.212375
vt 0.957109 0.221343
vt 0.957109 0.247553
vt 0.218908 0.693532
vt 0.218908 0.760928
vt 0.201562 0.736728
vt 0.543542 0.527810
vt 0.539179 0.526792
vt 0.543542 0.498035
vt 0.922447 0.983290
vt 0.918977 0.978865
vt 0.922447 0.966874
vt 0.481698 0.882376
vt 0.481698 0.930887
vt 0.462400 0.901475
vt 0.944662 0.068798
vt 0.956507 0.043007
vt 0.956507 0.078184
vt 0.678889 0.983108
vt 0.675377 0.980326
vt 0.678889 0.967995
vt 0.993143 0.213932
vt 0.997344 0.212375
vt 0.997344 0.240756
vt 0.910465 0.293165
vt 0.910465 0.356759
vt 0.885899 0.360751
vt 0.885899 0.289173
vt 0.248885 0.965100
vt 0.253325 0.964501
vt 0.253325 0.993837
vt 0.836081 0.545175
vt 0.832353 0.542691
vt 0.836081 0.523809
vt 0.492933 0.771657
vt 0.490545 0.768136
vt 0.492933 0.755680
vt 0.147819 0.847381
vt 0.147819 0.909839
vt 0.121068 0.886996
vt 0.939443 0.072529
vt 0.930904 0.013725
vt 0.939443 0.002610
vt 0.938667 0.282294
vt 0.930128 0.223490
vt 0.938667 0.212375
vt 0.153609 0.445555
vt 0.153609 0.506338
vt 0.147145 0.499874
vt 0.153609 0.511558
vt 0.153609 0.572341
vt 0.147145 0.565876
vt 0.153609 0.379552
vt 0.153609 0.440336
vt 0.147145 0.433871
vt 0.153610 0.313550
vt 0.153610 0.374333
vt 0.147145 0.367868
vt 0.946982 0.452669
vt 0.933760 0.452669
vt 0.933760 0.426460
vt 0.946982 0.417492
vt 0.833254 0.882952
vt 0.889582 0.859620
vt 0.889582 0.894797
vt 0.833254 0.887432
vt 0.205708 0.987300
vt 0.196725 0.970277
vt 0.205708 0.965415
vt 0.739562 0.758794
vt 0.737892 0.754637
vt 0.739562 0.748580
vt 0.477853 0.993676
vt 0.474773 0.964754
vt 0.477853 0.961500
vt 0.832659 0.744847
vt 0.832630 0.728327
vt 0.837090 0.727902
vt 0.837090 0.745506
vt 0.948904 0.656263
vt 0.937844 0.633830
vt 0.948904 0.604702
vt 0.172410 0.315611
vt 0.168268 0.002610
vt 0.220156 0.006096
vt 0.220156 0.318819
vt 0.542944 0.589425
vt 0.520778 0.547013
vt 0.542944 0.535428
vt 0.827133 0.544536
vt 0.760592 0.534811
vt 0.827133 0.523809
vt 0.424245 0.761933
vt 0.364917 0.765261
vt 0.364917 0.657343
vt 0.424245 0.654014
vt 0.827523 0.647684
vt 0.779674 0.648287
vt 0.779674 0.551984
vt 0.827523 0.551381
vt 0.567067 0.002610
vt 0.567067 0.307024
vt 0.522582 0.134102
vt 0.155335 0.801451
vt 0.155335 0.693532
vt 0.196343 0.697846
vt 0.196343 0.805765
vt 0.743025 0.790823
vt 0.774454 0.790207
vt 0.774454 0.875127
vt 0.738971 0.875823
vt 0.774454 0.551381
vt 0.774454 0.784987
vt 0.744836 0.784988
vt 0.750731 0.553357
vt 0.662982 0.529333
vt 0.662982 0.751169
vt 0.630700 0.725684
vt 0.996657 0.415850
vt 0.996657 0.450464
vt 0.992266 0.449580
vt 0.992450 0.414311
vt 0.697325 0.569701
vt 0.697325 0.654798
vt 0.668201 0.634515
vt 0.671529 0.551737
vt 0.081584 0.342172
vt 0.092948 0.340214
vt 0.092948 0.571920
vt 0.086451 0.575728
vt 0.225376 0.539474
vt 0.253054 0.517614
vt 0.253054 0.751221
vt 0.225427 0.773041
vt 0.594823 0.496578
vt 0.572287 0.496578
vt 0.572287 0.002610
vt 0.594823 0.002610
vt 0.034045 0.583159
vt 0.002610 0.583159
vt 0.002610 0.551725
vt 0.034045 0.551725
vt 0.364917 0.770481
vt 0.400407 0.770481
vt 0.400407 0.865531
vt 0.364917 0.865531
vt 0.946949 0.305167
vt 0.942469 0.305167
vt 0.939302 0.297520
vt 0.946949 0.294352
vt 0.895353 0.677787
vt 0.871352 0.672922
vt 0.882548 0.610233
vt 0.895353 0.604702
vt 0.429464 0.750317
vt 0.429464 0.654014
vt 0.488885 0.654157
vt 0.488885 0.750460
vt 0.042097 0.573781
vt 0.042097 0.351945
vt 0.076364 0.340214
vt 0.076364 0.573781
vt 0.774454 0.881043
vt 0.774454 0.916533
vt 0.738964 0.916533
vt 0.738964 0.881043
vt 0.994785 0.303941
vt 0.994785 0.339210
vt 0.990356 0.338533
vt 0.990569 0.302425
vt 0.055065 0.806671
vt 0.150115 0.806671
vt 0.150115 0.842161
vt 0.055065 0.842161
vt 0.498521 0.745055
vt 0.546374 0.745055
vt 0.546374 0.834451
vt 0.498521 0.834451
vt 0.989701 0.935924
vt 0.985406 0.937199
vt 0.985263 0.900630
vt 0.989701 0.900017
vt 0.997342 0.458605
vt 0.997342 0.493129
vt 0.992906 0.492504
vt 0.992920 0.457889
vt 0.150115 0.693532
vt 0.150115 0.801451
vt 0.102524 0.781172
vt 0.102524 0.698539
vt 0.469320 0.300990
vt 0.421547 0.303762
vt 0.421380 0.028225
vt 0.469320 0.002610
vt 0.615730 0.749482
vt 0.614016 0.745343
vt 0.615730 0.741204
vt 0.452034 0.980476
vt 0.451989 0.970263
vt 0.456455 0.969906
vt 0.456455 0.981199
vt 0.832772 0.626434
vt 0.837203 0.625775
vt 0.837203 0.643379
vt 0.832743 0.642954
vt 0.363095 0.002610
vt 0.363095 0.315333
vt 0.316076 0.298299
vt 0.315250 0.003518
vt 0.429125 0.486535
vt 0.401698 0.488762
vt 0.368314 0.352412
vt 0.429125 0.312244
vt 0.958276 0.143569
vt 0.958057 0.132278
vt 0.962435 0.131329
vt 0.962435 0.145234
vt 0.044409 0.868258
vt 0.048568 0.866593
vt 0.048568 0.880497
vt 0.044190 0.879548
vt 0.196203 0.812263
vt 0.200497 0.810985
vt 0.200497 0.846892
vt 0.196037 0.847320
vt 0.917154 0.205476
vt 0.916970 0.191573
vt 0.921335 0.190566
vt 0.921335 0.207086
vt 0.218338 0.495302
vt 0.218338 0.641859
vt 0.158919 0.602262
vt 0.173575 0.495035
vt 0.303430 0.595721
vt 0.258875 0.578262
vt 0.279316 0.306887
vt 0.303430 0.302612
vt 0.972713 0.971011
vt 0.977134 0.970289
vt 0.977134 0.981582
vt 0.972669 0.981225
vt 0.992935 0.605172
vt 0.997390 0.604702
vt 0.997390 0.639759
vt 0.992911 0.639696
vt 0.093267 0.594005
vt 0.093267 0.641859
vt 0.026729 0.641859
vt 0.003886 0.594005
vt 0.159389 0.893731
vt 0.155335 0.810985
vt 0.190818 0.811700
vt 0.190818 0.894364
vt 0.306676 0.656250
vt 0.306676 0.802807
vt 0.258875 0.800571
vt 0.258875 0.654014
vt 0.862348 0.836398
vt 0.836578 0.854400
vt 0.833254 0.771802
vt 0.862348 0.751478
vt 0.896051 0.526397
vt 0.896051 0.599482
vt 0.881260 0.593462
vt 0.871352 0.542292
vt 0.781977 0.002610
vt 0.781977 0.295722
vt 0.760592 0.277319
vt 0.700857 0.731422
vt 0.668201 0.681779
vt 0.700857 0.660017
vt 0.594823 0.739836
vt 0.498521 0.739604
vt 0.498521 0.686802
vt 0.594823 0.680415
vt 0.599331 0.745055
vt 0.599331 0.834451
vt 0.551594 0.814963
vt 0.551596 0.748425
vt 0.422411 0.865531
vt 0.405627 0.801751
vt 0.422411 0.770481
vt 0.900573 0.668481
vt 0.917357 0.604702
vt 0.917357 0.699752
vt 0.949533 0.361476
vt 0.941137 0.339613
vt 0.949533 0.311467
vt 0.442589 0.971516
vt 0.446770 0.969906
vt 0.446770 0.986426
vt 0.442404 0.985419
vt 0.906211 0.565807
vt 0.906211 0.457889
vt 0.915511 0.458952
vt 0.915511 0.566871
vt 0.950693 0.803209
vt 0.939723 0.783487
vt 0.950693 0.751478
vt 0.163048 0.003915
vt 0.163048 0.308330
vt 0.103642 0.307024
vt 0.103641 0.002610
vt 0.594823 0.675195
vt 0.549081 0.661138
vt 0.594823 0.501797
vt 0.533960 0.471509
vt 0.474540 0.471864
vt 0.474540 0.325307
vt 0.533960 0.324953
vt 0.002610 0.002610
vt 0.036877 0.002615
vt 0.036877 0.546505
vt 0.013078 0.546016
vt 0.437664 0.519533
vt 0.437664 0.478299
vt 0.533960 0.477084
vt 0.533960 0.524938
vt 0.464450 0.432904
vt 0.464450 0.467648
vt 0.434344 0.452201
vt 0.985271 0.942871
vt 0.989728 0.942418
vt 0.989728 0.979068
vt 0.985263 0.979440
vt 0.224561 0.908728
vt 0.252862 0.893151
vt 0.252862 0.924308
vt 0.097304 0.801451
vt 0.044585 0.798494
vt 0.044585 0.715860
vt 0.097304 0.693532
vt 0.103641 0.425508
vt 0.141925 0.313550
vt 0.141925 0.626578
vt 0.919181 0.807833
vt 0.934503 0.751478
vt 0.934503 0.812331
vt 0.760592 0.470898
vt 0.781617 0.413792
vt 0.781617 0.518589
vt 0.781272 0.408572
vt 0.760592 0.407172
vt 0.781272 0.300942
vt 0.311896 0.695492
vt 0.359697 0.654014
vt 0.359697 0.800571
vt 0.115848 0.886787
vt 0.115848 0.896148
vt 0.019484 0.892162
vt 0.871352 0.213164
vt 0.880680 0.212375
vt 0.880680 0.386667
vt 0.893372 0.192598
vt 0.911750 0.190566
vt 0.911750 0.207156
vt 0.641657 0.002610
vt 0.641657 0.503383
vt 0.624592 0.496263
vt 0.682808 0.546517
vt 0.668201 0.025198
vt 0.682808 0.002610
vt 0.779676 0.742888
vt 0.779674 0.653507
vt 0.827411 0.656862
vt 0.827411 0.746258
vt 0.098422 0.002610
vt 0.098422 0.319732
vt 0.053067 0.334995
vt 0.042097 0.036816
vt 0.291984 0.918484
vt 0.319824 0.868705
vt 0.319824 0.923060
vt 0.662982 0.821001
vt 0.608279 0.804855
vt 0.662981 0.756389
vt 0.828034 0.751478
vt 0.828034 0.824562
vt 0.779674 0.794326
vt 0.894772 0.735012
vt 0.871352 0.683006
vt 0.894772 0.683006
vt 0.039365 0.787456
vt 0.003886 0.782986
vt 0.039365 0.647079
vt 0.659803 0.873787
vt 0.659803 0.906093
vt 0.608279 0.889942
vt 0.925684 0.056606
vt 0.903518 0.045020
vt 0.925684 0.002610
vt 0.218338 0.647079
vt 0.218338 0.688313
vt 0.044585 0.688197
vt 0.622432 0.685556
vt 0.600043 0.624590
vt 0.622432 0.546743
vt 0.898298 0.083613
vt 0.871352 0.021999
vt 0.898298 0.002610
vt 0.744836 0.541477
vt 0.755372 0.002610
vt 0.755372 0.546161
vt 0.739616 0.002610
vt 0.739616 0.236217
vt 0.707291 0.198954
vt 0.602479 0.958637
vt 0.597458 0.932209
vt 0.602479 0.909308
vt 0.608796 0.749482
vt 0.607081 0.745343
vt 0.608796 0.741204
vt 0.215917 0.943189
vt 0.219085 0.940021
vt 0.219085 0.950837
vt 0.533397 0.312244
vt 0.533397 0.316724
vt 0.522582 0.312244
vt 0.296122 0.982483
vt 0.291984 0.980769
vt 0.296122 0.970776
vt 0.396399 0.981745
vt 0.393231 0.978577
vt 0.396399 0.970929
vt 0.739606 0.772291
vt 0.737892 0.768152
vt 0.739606 0.764014
vt 0.304924 0.973944
vt 0.308091 0.970776
vt 0.308091 0.981592
vt 0.492260 0.806351
vt 0.490545 0.802212
vt 0.492260 0.798073
vt 0.622664 0.749482
vt 0.620950 0.745343
vt 0.622664 0.741204
vt 0.934679 0.522501
vt 0.920731 0.522294
vt 0.934679 0.457889
vt 0.941962 0.146085
vt 0.929828 0.113529
vt 0.941962 0.088832
vt 0.897177 0.782748
vt 0.913961 0.751478
vt 0.913961 0.846527
vt 0.910156 0.088832
vt 0.910156 0.183882
vt 0.893372 0.152612
vt 0.985659 0.402805
vt 0.985608 0.366696
vt 0.990086 0.366840
vt 0.990086 0.403490
vt 0.258875 0.617913
vt 0.530489 0.600941
vt 0.530489 0.648794
vt 0.517362 0.002610
vt 0.517362 0.319733
vt 0.474540 0.272600
vt 0.539179 0.331960
vt 0.560632 0.324953
vt 0.560632 0.470774
vt 0.416160 0.002610
vt 0.416160 0.307024
vt 0.368314 0.140358
vt 0.231860 0.965747
vt 0.224561 0.950849
vt 0.231860 0.929528
vt 0.253655 0.512395
vt 0.225376 0.019235
vt 0.253655 0.002610
vt 0.619372 0.002610
vt 0.619372 0.541523
vt 0.600043 0.512021
vt 0.014264 0.939813
vt 0.003490 0.909358
vt 0.014264 0.886787
vt 0.515558 0.535428
vt 0.515558 0.583282
vt 0.315250 0.577515
vt 0.888152 0.207156
vt 0.871352 0.151223
vt 0.888152 0.088832
vt 0.315250 0.335074
vt 0.360847 0.320553
vt 0.360847 0.530209
vt 0.310030 0.002610
vt 0.310030 0.297392
vt 0.258875 0.205929
vt 0.465171 0.427685
vt 0.434344 0.415365
vt 0.465171 0.312244
vt 0.900991 0.521177
vt 0.871352 0.495459
vt 0.900991 0.457889
vt 0.688028 0.014638
vt 0.702072 0.002610
vt 0.702072 0.515237
vt 0.662982 0.524113
vt 0.646877 0.514986
vt 0.662982 0.002610
vt 0.220156 0.324038
vt 0.220156 0.489815
vt 0.158919 0.425417
vt 0.037007 0.881541
vt 0.003886 0.851427
vt 0.037007 0.792676
vt 0.719355 0.867018
vt 0.684191 0.812415
vt 0.719355 0.748580
vt 0.961793 0.889536
vt 0.961793 0.859620
vt 0.970008 0.859620
vt 0.970008 0.889536
vt 0.939898 0.511622
vt 0.948899 0.457889
vt 0.948899 0.514604
vt 0.924608 0.184376
vt 0.915375 0.090991
vt 0.924608 0.088832
vt 0.928867 0.403334
vt 0.935917 0.311467
vt 0.935917 0.409634
vt 0.934082 0.287514
vt 0.934082 0.305167
vt 0.930128 0.296103
vt 0.433418 0.969906
vt 0.433418 0.987559
vt 0.429464 0.978495
vt 0.329810 0.940287
vt 0.329810 0.970203
vt 0.321595 0.970203
vt 0.321595 0.940287
vt 0.335030 0.981717
vt 0.342411 0.965681
vt 0.342411 0.988297
vt 0.972351 0.786614
vt 0.972351 0.804267
vt 0.968398 0.795202
vt 0.246017 0.929528
vt 0.246017 0.959281
vt 0.237080 0.959281
vt 0.237080 0.929528
vt 0.990692 0.710128
vt 0.983751 0.694777
vt 0.990692 0.687512
vt 0.822432 0.969270
vt 0.822432 0.992279
vt 0.817730 0.978150
vt 0.963178 0.793128
vt 0.955913 0.771296
vt 0.963178 0.751478
vt 0.977852 0.200697
vt 0.977852 0.185806
vt 0.986705 0.192105
vt 0.986705 0.206996
vt 0.787197 0.504476
vt 0.796717 0.002610
vt 0.796717 0.515923
vt 0.736639 0.241437
vt 0.736639 0.743360
vt 0.724575 0.734633
vt 0.931024 0.599482
vt 0.901270 0.599482
vt 0.901270 0.590545
vt 0.931024 0.590545
vt 0.852826 0.379746
vt 0.852826 0.739071
vt 0.843973 0.732772
vt 0.843973 0.373447
vt 0.589366 0.954286
vt 0.559450 0.954286
vt 0.559450 0.946071
vt 0.589366 0.946071
vt 0.979850 0.138859
vt 0.970997 0.145159
vt 0.970997 0.130268
vt 0.979850 0.123969
vt 0.959410 0.180586
vt 0.959410 0.151305
vt 0.968311 0.151305
vt 0.968311 0.180586
vt 0.048765 0.950666
vt 0.019484 0.950666
vt 0.019484 0.941765
vt 0.048765 0.941765
vt 0.858046 0.742545
vt 0.858046 0.731679
vt 0.866132 0.731679
vt 0.866132 0.742545
vt 0.953159 0.943595
vt 0.953159 0.971655
vt 0.944729 0.971655
vt 0.944729 0.943595
vt 0.967794 0.366696
vt 0.967794 0.396612
vt 0.959579 0.396612
vt 0.959579 0.366696
vt 0.964112 0.330485
vt 0.964112 0.302425
vt 0.972542 0.302425
vt 0.972542 0.330485
vt 0.484143 0.970358
vt 0.484143 0.942298
vt 0.492573 0.942298
vt 0.492573 0.970358
vt 0.817730 0.964050
vt 0.817730 0.934769
vt 0.826631 0.934769
vt 0.826631 0.964050
vt 0.498521 0.928888
vt 0.498521 0.887238
vt 0.521137 0.887238
vt 0.521137 0.928888
vt 0.548973 0.928888
vt 0.526357 0.928888
vt 0.526357 0.887238
vt 0.548973 0.887238
vt 0.967198 0.568118
vt 0.967198 0.597400
vt 0.958297 0.597400
vt 0.958297 0.568118
vt 0.858047 0.726460
vt 0.858046 0.367145
vt 0.866132 0.367145
vt 0.866132 0.726460
vt 0.957036 0.681657
vt 0.957036 0.652376
vt 0.965937 0.652376
vt 0.965937 0.681657
vt 0.973531 0.153711
vt 0.980906 0.150670
vt 0.980906 0.180586
vt 0.973531 0.177545
vt 0.979671 0.417352
vt 0.987046 0.414311
vt 0.987046 0.444227
vt 0.979671 0.441186
vt 0.973014 0.369738
vt 0.980389 0.366696
vt 0.980389 0.396612
vt 0.973014 0.393571
vt 0.979792 0.594993
vt 0.972417 0.598035
vt 0.972417 0.568118
vt 0.979792 0.571160
vt 0.978372 0.115707
vt 0.970997 0.118749
vt 0.970997 0.088832
vt 0.978372 0.091874
vt 0.968398 0.778352
vt 0.968398 0.754519
vt 0.975773 0.751478
vt 0.975773 0.781394
vt 0.975228 0.862661
vt 0.982603 0.859620
vt 0.982603 0.889536
vt 0.975228 0.886494
vt 0.985012 0.570842
vt 0.991597 0.568118
vt 0.991597 0.597400
vt 0.985012 0.594676
vt 0.843609 0.991755
vt 0.843609 0.967921
vt 0.848745 0.965808
vt 0.848745 0.993868
vt 0.986126 0.153394
vt 0.992711 0.150670
vt 0.992711 0.179951
vt 0.986126 0.177227
vt 0.498521 0.962462
vt 0.505674 0.959502
vt 0.505674 0.989256
vt 0.498521 0.986296
vt 0.631889 0.991091
vt 0.631889 0.967258
vt 0.637024 0.965144
vt 0.637024 0.993205
vt 0.738964 0.988707
vt 0.738964 0.964874
vt 0.745549 0.962150
vt 0.745549 0.991431
vt 0.469553 0.988294
vt 0.462400 0.991254
vt 0.462400 0.961500
vt 0.469553 0.964460
vt 0.103976 0.969272
vt 0.103976 0.993106
vt 0.098841 0.995219
vt 0.098841 0.967159
vt 0.243665 0.991058
vt 0.237080 0.993782
vt 0.237080 0.964501
vt 0.243665 0.967225
vt 0.980992 0.743298
vt 0.980992 0.719464
vt 0.988146 0.716504
vt 0.988146 0.746258
vt 0.379074 0.968776
vt 0.384209 0.966663
vt 0.384209 0.994723
vt 0.379074 0.992610
vt 0.626669 0.991702
vt 0.620084 0.994426
vt 0.620084 0.965144
vt 0.626669 0.967868
vt 0.980992 0.754438
vt 0.988146 0.751478
vt 0.988146 0.781231
vt 0.980992 0.778271
vt 0.887128 0.991755
vt 0.881993 0.993868
vt 0.881993 0.965808
vt 0.887128 0.967921
vt 0.987756 0.069564
vt 0.987756 0.045731
vt 0.994342 0.043007
vt 0.994342 0.072288
vt 0.981615 0.837870
vt 0.981615 0.814037
vt 0.988769 0.811077
vt 0.988769 0.840830
vt 0.404565 0.992925
vt 0.404565 0.969091
vt 0.409700 0.966978
vt 0.409700 0.995038
vt 0.987823 0.886177
vt 0.987823 0.862344
vt 0.994408 0.859620
vt 0.994408 0.888901
vt 0.987924 0.239169
vt 0.980770 0.242129
vt 0.980770 0.212375
vt 0.987924 0.215335
vt 0.670158 0.993942
vt 0.665022 0.996056
vt 0.665022 0.967995
vt 0.670158 0.970109
vt 0.987118 0.495586
vt 0.987118 0.519420
vt 0.980533 0.522144
vt 0.980533 0.492862
vt 0.990745 0.091793
vt 0.990745 0.115626
vt 0.983591 0.118586
vt 0.983591 0.088832
vt 0.853964 0.991755
vt 0.853964 0.967921
vt 0.859100 0.965808
vt 0.859100 0.993868
vt 0.757354 0.964874
vt 0.757354 0.988707
vt 0.750769 0.991431
vt 0.750769 0.962150
vt 0.809427 0.938691
vt 0.779674 0.938691
vt 0.779674 0.929754
vt 0.809427 0.929754
vt 0.415134 0.962438
vt 0.415134 0.932685
vt 0.424071 0.932685
vt 0.424071 0.962438
vt 0.969942 0.043007
vt 0.969942 0.072923
vt 0.961727 0.072923
vt 0.961727 0.043007
vt 0.909356 0.574459
vt 0.909356 0.585325
vt 0.901270 0.585325
vt 0.901270 0.574459
vt 0.003490 0.973093
vt 0.003490 0.945033
vt 0.011920 0.945033
vt 0.011920 0.973093
vt 0.684191 0.958571
vt 0.712251 0.958571
vt 0.712251 0.967001
vt 0.684191 0.967001
vt 0.969020 0.814118
vt 0.976395 0.811077
vt 0.976395 0.840993
vt 0.969020 0.837952
vt 0.972669 0.962028
vt 0.972669 0.938194
vt 0.980043 0.935153
vt 0.980043 0.965069
vt 0.971156 0.679251
vt 0.971156 0.655417
vt 0.978531 0.652376
vt 0.978531 0.682292
vt 0.972669 0.903058
vt 0.980043 0.900017
vt 0.980043 0.929933
vt 0.972669 0.926892
vt 0.985137 0.329299
vt 0.977762 0.332341
vt 0.977762 0.302425
vt 0.985137 0.305466
vt 0.982537 0.046048
vt 0.982537 0.069882
vt 0.975162 0.072923
vt 0.975162 0.043007
vt 0.975318 0.607743
vt 0.975318 0.631577
vt 0.967943 0.634618
vt 0.967943 0.604702
vt 0.967938 0.460931
vt 0.975313 0.457889
vt 0.975313 0.487806
vt 0.967938 0.484764
vt 0.587510 0.967936
vt 0.559450 0.967936
vt 0.559450 0.959506
vt 0.587510 0.959506
vt 0.512268 0.959502
vt 0.540329 0.959502
vt 0.540329 0.967933
vt 0.512268 0.967933
vt 0.967449 0.934518
vt 0.967449 0.963799
vt 0.958548 0.963799
vt 0.958548 0.934518
vt 0.083266 0.950666
vt 0.053985 0.950666
vt 0.053985 0.941765
vt 0.083266 0.941765
vt 0.866132 0.002610
vt 0.866132 0.361925
vt 0.858046 0.361925
vt 0.858047 0.002610
vt 0.139510 0.985430
vt 0.139510 0.961597
vt 0.146664 0.958637
vt 0.146664 0.988390
vt 0.980533 0.460849
vt 0.987687 0.457889
vt 0.987687 0.487643
vt 0.980533 0.484683
vt 0.805067 0.984139
vt 0.805067 0.960306
vt 0.812221 0.957345
vt 0.812221 0.987099
vt 0.990905 0.679169
vt 0.983751 0.682129
vt 0.983751 0.652376
vt 0.990905 0.655336
vt 0.981546 0.005570
vt 0.988699 0.002610
vt 0.988699 0.032363
vt 0.981546 0.029403
vt 0.258875 0.985650
vt 0.258875 0.961817
vt 0.266028 0.958857
vt 0.266028 0.988610
vt 0.980537 0.631495
vt 0.980537 0.607662
vt 0.987691 0.604702
vt 0.987691 0.634455
vt 0.981023 0.554515
vt 0.981023 0.530681
vt 0.988177 0.527721
vt 0.988177 0.557475
vt 0.388011 0.931690
vt 0.388011 0.961443
vt 0.379074 0.961443
vt 0.379074 0.931690
vt 0.967449 0.900017
vt 0.967449 0.929298
vt 0.958548 0.929298
vt 0.958548 0.900017
vt 0.373854 0.931690
vt 0.373854 0.961443
vt 0.364917 0.961443
vt 0.364917 0.931690
vt 0.042097 0.579001
vt 0.071851 0.579001
vt 0.071851 0.587938
vt 0.042097 0.587938
vt 0.953077 0.568118
vt 0.953077 0.597872
vt 0.944140 0.597872
vt 0.944140 0.568118
vt 0.614864 0.967868
vt 0.614864 0.991702
vt 0.608279 0.994426
vt 0.608279 0.965144
vt 0.762574 0.964874
vt 0.769159 0.962150
vt 0.769159 0.991431
vt 0.762574 0.988707
vt 0.595894 0.966581
vt 0.602479 0.963857
vt 0.602479 0.993138
vt 0.595894 0.990414
vt 0.155335 0.991932
vt 0.155335 0.968099
vt 0.161920 0.965375
vt 0.161920 0.994656
vt 0.181913 0.968099
vt 0.188498 0.965375
vt 0.188498 0.994656
vt 0.181913 0.991932
vt 0.725145 0.991888
vt 0.725145 0.968055
vt 0.731730 0.965331
vt 0.731730 0.994612
vt 0.980770 0.250309
vt 0.987924 0.247349
vt 0.987924 0.277102
vt 0.980770 0.274142
vt 0.176694 0.968099
vt 0.176694 0.991933
vt 0.170109 0.994656
vt 0.170109 0.965375
vt 0.838753 0.002610
vt 0.838753 0.480649
vt 0.830409 0.480657
vt 0.830409 0.002618
vt 0.638195 0.959925
vt 0.608279 0.959925
vt 0.608279 0.951710
vt 0.638195 0.951710
vt 0.553764 0.934108
vt 0.553764 0.964025
vt 0.545548 0.964025
vt 0.545548 0.934108
vt 0.966021 0.442371
vt 0.966021 0.414311
vt 0.974451 0.414311
vt 0.974451 0.442371
vt 0.825190 0.002610
vt 0.825190 0.490216
vt 0.816679 0.490230
vt 0.816679 0.002624
vt 0.632677 0.508603
vt 0.632677 0.523494
vt 0.624592 0.523494
vt 0.624592 0.508603
vt 0.908621 0.968988
vt 0.913757 0.966874
vt 0.913757 0.994935
vt 0.908621 0.992821
vt 0.093621 0.993106
vt 0.088486 0.995219
vt 0.088486 0.967159
vt 0.093621 0.969272
vt 0.070272 0.982760
vt 0.070272 0.958927
vt 0.077647 0.955885
vt 0.077647 0.985802
vt 0.894802 0.970069
vt 0.899938 0.967956
vt 0.899938 0.996016
vt 0.894802 0.993903
vt 0.370052 0.968776
vt 0.370052 0.992610
vt 0.364917 0.994723
vt 0.364917 0.966663
vt 0.871637 0.991755
vt 0.871637 0.967921
vt 0.876773 0.965808
vt 0.876773 0.993868
vt 0.833254 0.991755
vt 0.833254 0.967921
vt 0.838390 0.965808
vt 0.838390 0.993868
vt 0.415134 0.969772
vt 0.420270 0.967658
vt 0.420270 0.995719
vt 0.415134 0.993605
vt 0.963683 0.971132
vt 0.963683 0.994965
vt 0.958548 0.997079
vt 0.958548 0.969019
vt 0.843973 0.008909
vt 0.852827 0.002610
vt 0.852827 0.361928
vt 0.843974 0.368228
vt 0.219342 0.893151
vt 0.219342 0.934802
vt 0.196725 0.934802
vt 0.196726 0.893151
vt 0.816679 0.495449
vt 0.836497 0.502715
vt 0.836497 0.510800
vt 0.816679 0.518066
vt 0.537596 0.597945
vt 0.542944 0.594645
vt 0.542944 0.651359
vt 0.537596 0.654660
vt 0.358361 0.958942
vt 0.354221 0.904618
vt 0.358361 0.899890
vt 0.915685 0.316566
vt 0.923647 0.311467
vt 0.923647 0.407011
vt 0.918355 0.410399
vt 0.724575 0.846710
vt 0.727291 0.748580
vt 0.732672 0.751825
vt 0.732672 0.851593
vt 0.153609 0.580731
vt 0.153609 0.639782
vt 0.148183 0.636612
vt 0.148183 0.577561
vt 0.958892 0.302425
vt 0.958892 0.361476
vt 0.954752 0.356748
vt 0.819492 0.835981
vt 0.826631 0.829782
vt 0.826631 0.929550
vt 0.924909 0.212375
vt 0.924909 0.306247
vt 0.915685 0.304050
vt 0.977260 0.344405
vt 0.984642 0.337824
vt 0.984642 0.360441
vt 0.347631 0.972261
vt 0.355012 0.965681
vt 0.355012 0.988297
vt 0.981525 0.804267
vt 0.977571 0.795678
vt 0.981525 0.786614
vt 0.210927 0.971996
vt 0.218309 0.965415
vt 0.218309 0.988031
vt 0.521137 0.950956
vt 0.517806 0.941476
vt 0.521137 0.934108
vt 0.963801 0.811077
vt 0.963801 0.852728
vt 0.956536 0.832909
vt 0.550250 0.992253
vt 0.545548 0.983373
vt 0.550250 0.969244
vt 0.719355 0.743360
vt 0.707291 0.250164
vt 0.719355 0.241437
vt 0.801937 0.014059
vt 0.811459 0.002610
vt 0.811459 0.515864
vt 0.415134 0.873733
vt 0.424135 0.870751
vt 0.424135 0.927465
vt 0.779674 0.943911
vt 0.809590 0.943911
vt 0.809590 0.952126
vt 0.779674 0.952126
vn 0.0000 -1.0000 0.0000
vn 0.3827 -0.9239 0.0000
vn -0.0739 0.9895 0.1238
vn 0.0902 0.9959 0.0000
vn 0.9239 0.3779 -0.0602
vn -1.0000 -0.0000 -0.0000
vn 0.3827 -0.9124 0.1454
vn 0.9239 -0.3779 0.0602
vn -0.3827 0.9239 -0.0000
vn -0.3827 -0.9124 0.1454
vn -0.9239 -0.3779 0.0602
vn -0.0000 0.0000 1.0000
vn -0.9239 -0.3827 0.0000
vn 0.0000 -0.0000 -1.0000
vn 0.0000 0.1574 0.9875
vn -0.0000 -0.1574 -0.9875
vn -0.3827 -0.9239 0.0000
vn -0.3827 0.9124 -0.1454
vn -0.9239 0.3779 -0.0602
vn 0.1539 0.9881 -0.0000
vn 0.3827 0.9124 -0.1454
vn 1.0000 -0.0000 0.0000
vn 0.9239 -0.3827 0.0000
vn -0.9239 0.3827 -0.0000
vn 0.6832 0.7183 0.1311
vn 0.2691 -0.0496 0.9618
vn -0.0694 0.7458 -0.6625
vn -0.9865 0.1637 -0.0000
vn 0.9239 0.3827 -0.0000
vn 0.6216 0.7833 -0.0000
vn -0.0000 0.8426 0.5385
vn 0.9865 0.1637 -0.0000
vn -0.0000 0.2018 0.9794
vn -0.6216 0.7833 -0.0000
vn -0.0000 0.8426 -0.5385
vn 0.3827 0.9239 -0.0000
vn 0.9989 0.0000 0.0479
vn 0.9961 0.0879 -0.0000
vn -0.4264 -0.6402 -0.6390
vn -0.1590 0.1037 0.9818
vn 0.0000 0.2018 -0.9794
vn -0.3728 0.8549 0.3609
vn -0.3572 0.8622 0.3592
vn -0.3571 0.8622 0.3592
vn -0.0190 -0.0000 -0.9998
vn -0.0866 -0.9962 0.0000
vn 0.6987 0.1538 0.6987
vn -0.9945 0.1048 -0.0000
vn 0.0000 0.0024 -1.0000
vn -0.0807 -0.0234 0.9965
vn -0.0000 0.0563 0.9984
vn 0.5728 -0.8197 -0.0000
vn 0.6198 0.7848 -0.0001
vn 0.6198 0.7848 -0.0000
vn 0.6185 0.7857 -0.0129
vn 0.8390 -0.5143 0.1779
vn 0.9141 -0.3786 0.1454
vn 0.0819 -0.0000 -0.9966
vn 0.5641 0.7319 -0.3824
vn 0.5641 0.7318 -0.3824
vn 0.4383 0.5549 -0.7071
vn 0.8469 -0.5317 0.0000
vn -0.8811 0.4729 0.0000
vn -0.0000 -0.6015 0.7989
vn -0.6641 0.6065 0.4372
vn -0.6962 0.4320 0.5733
vn -0.9999 0.0126 -0.0000
vn -0.6196 -0.7849 -0.0000
vn 0.9763 0.2003 -0.0818
vn 0.9165 0.3797 -0.1257
vn 0.9166 0.3797 -0.1257
vn 0.8811 -0.4729 0.0000
vn 0.9877 -0.1563 0.0000
vn 0.9888 -0.1482 -0.0182
vn 0.9845 -0.1747 -0.0148
vn -0.9140 0.3786 -0.1460
vn -0.8397 0.5159 -0.1695
vn 0.2018 -0.9227 0.3285
vn 0.3615 -0.8727 0.3283
vn 0.0000 -0.0563 -0.9984
vn 0.0253 0.2912 -0.9563
vn 0.0252 0.2912 -0.9563
vn -0.0227 0.2897 -0.9568
vn 0.0817 -0.1979 -0.9768
vn -0.3763 -0.8354 -0.4006
vn -0.3516 -0.8489 -0.3946
vn 0.3571 0.8622 0.3592
vn 0.3728 0.8549 0.3609
vn -0.0668 0.9977 -0.0059
vn -0.0672 0.9977 -0.0080
vn -0.0662 0.9978 -0.0022
vn -0.0658 0.9978 -0.0001
vn 0.9998 0.0186 -0.0000
vn 0.9983 0.0350 0.0458
vn -0.9208 -0.3537 -0.1644
vn -0.9208 -0.3536 -0.1644
vn -0.9111 -0.3774 -0.1658
vn 0.9111 -0.3774 -0.1658
vn 0.9208 -0.3537 -0.1644
vn -0.9172 -0.3799 0.1198
vn -0.9172 -0.3799 0.1199
vn -0.9762 -0.1993 0.0861
vn -0.9201 0.3585 0.1575
vn -0.9120 0.3778 0.1595
vn -0.9121 0.3778 0.1595
vn 0.9989 0.0467 0.0000
vn -0.9904 0.1381 0.0000
vn -0.9838 0.1054 0.1452
vn 0.3516 -0.8489 -0.3946
vn 0.3763 -0.8354 -0.4006
vn -0.3646 -0.8803 0.3034
vn -0.5434 -0.7834 0.3015
vn -0.9877 0.1563 0.0000
vn -0.5394 0.8421 0.0000
vn 0.0000 -0.0060 -1.0000
vn -0.0239 0.0000 0.9997
vn -0.6407 -0.6138 0.4612
vn -0.6407 -0.6138 0.4611
vn -0.6354 -0.5653 0.5260
vn -0.6354 -0.5652 0.5261
vn -0.9808 0.1726 -0.0905
vn 0.9999 -0.0126 0.0000
vn -0.0880 0.9961 0.0000
vn 0.9121 0.3778 0.1595
vn 0.9201 0.3585 0.1575
vn 0.7066 -0.0346 0.7067
vn 0.7065 -0.0368 0.7068
vn -0.9998 -0.0186 -0.0000
vn 0.0000 0.0220 -0.9998
vn -0.9989 -0.0467 -0.0000
vn -0.8378 0.5460 -0.0000
vn -0.8369 0.5412 -0.0815
vn -0.0000 -0.0024 1.0000
vn 0.6069 0.5131 -0.6069
vn -0.3627 0.8757 -0.3187
vn -0.2038 0.9284 -0.3108
vn -0.6359 -0.4971 -0.5903
vn 0.9945 -0.1048 0.0000
vn 0.0788 -0.9969 0.0029
vn 0.0804 -0.9967 0.0081
vn 0.0758 -0.9971 0.0105
vn 0.0527 -0.7468 0.6630
vn 0.1919 0.1798 0.9648
vn 0.7059 -0.0593 0.7059
vn 0.0000 0.0060 1.0000
vn 0.7065 0.0380 0.7067
vn 0.7084 -0.0296 0.7052
vn 0.7067 -0.0297 0.7069
vn -0.8296 -0.3543 0.4316
vn 0.5743 -0.3605 0.7350
vn 0.9848 -0.1556 0.0773
vn 0.9906 -0.1344 0.0270
vn 0.9852 -0.1682 0.0337
vn 0.9848 -0.1556 0.0774
vn -0.2916 0.8971 -0.3319
vn -0.3151 0.8602 -0.4010
vn -0.4875 -0.3585 0.7961
vn 0.7036 -0.0998 -0.7036
vn -0.0868 -0.9962 0.0002
vn -0.0863 -0.9963 0.0000
vn 0.0000 -0.0426 0.9991
vn 0.0000 0.0055 1.0000
vn -0.8301 0.5439 -0.1228
vn 0.9754 -0.2024 0.0879
vn 0.5436 0.7887 -0.2871
vn 0.3652 0.8816 -0.2991
vn -0.0253 -0.2924 0.9560
vn -0.1930 -0.2919 0.9368
vn 0.0798 -0.9968 0.0051
vn 0.0787 -0.9969 0.0000
vn 0.0840 -0.9965 -0.0006
vn 0.0872 -0.9961 -0.0132
vn -0.0289 0.0000 0.9996
vn 0.0275 -0.1756 0.9841
vn 0.7030 -0.4512 0.5498
vn 0.9994 0.0179 0.0288
vn 1.0000 -0.0082 0.0000
vn 0.9976 -0.0078 0.0694
vn 0.4146 -0.3664 -0.8330
vn 0.4150 -0.3667 -0.8327
vn -0.6581 0.0570 0.7508
vn 0.8490 -0.5283 0.0000
vn 0.8882 -0.0770 -0.4531
vn 0.8882 -0.0770 0.4531
vn 0.9273 0.3744 0.0000
vn 0.0863 0.9963 0.0000
vn 0.5798 0.8148 0.0000
vn -0.0357 -0.0861 0.9956
vn -0.0861 0.0357 0.9956
vn -0.0861 0.0357 -0.9956
vn 0.0357 0.0861 0.9956
vn 0.0357 -0.0861 -0.9956
vn 0.0861 -0.0357 0.9956
vn -0.0357 -0.0861 -0.9956
vn 0.0483 0.0200 -0.9986
vn 0.1043 0.0432 -0.9936
vn -0.0483 -0.0200 0.9986
vn 0.0175 -0.0421 -0.9990
vn 0.1043 -0.0432 0.9936
vn -0.0200 0.0483 -0.9986
vn -0.0175 0.0421 -0.9990
vn -0.0432 -0.1043 -0.9936
vn 0.0200 -0.0483 -0.9986
vn -0.0421 -0.0175 -0.9990
vn -0.1043 -0.0432 0.9936
vn 0.0200 0.0483 0.9986
vn -0.0421 0.0175 -0.9990
vn 0.0432 0.1043 0.9936
vn 0.0200 -0.0483 0.9986
vn 0.0175 -0.0421 0.9990
vn 0.0432 0.1043 -0.9936
vn 0.0200 0.0483 -0.9986
vn 0.0421 -0.0175 -0.9990
vn 0.0432 -0.1043 -0.9936
vn -0.0483 0.0200 0.9986
vn -0.0175 0.0421 0.9990
vn -0.1043 0.0432 0.9936
vn -0.0483 -0.0200 -0.9986
vn -0.5798 -0.8148 0.0000
vn -0.0861 -0.0357 0.9956
vn 0.0357 -0.0861 0.9956
vn 0.0357 0.0861 -0.9956
vn 0.0861 -0.0357 -0.9956
vn -0.0357 0.0861 -0.9956
vn -0.0861 -0.0357 -0.9956
vn 0.0861 0.0357 -0.9956
vn 0.0861 0.0357 0.9956
vn -0.0421 0.0175 0.9990
vn -0.0421 -0.0175 0.9990
vn 0.0421 -0.0175 0.9990
vn 0.0175 0.0421 0.9990
vn -0.0175 -0.0421 0.9990
vn 0.0175 0.0421 -0.9990
vn 0.0421 0.0175 -0.9990
vn -0.0175 -0.0421 -0.9990
vn 0.0483 -0.0200 0.9986
vn 0.0483 -0.0200 -0.9986
vn 0.0483 0.0200 0.9986
vn -0.0483 0.0200 -0.9986
vn -0.0200 -0.0483 0.9986
vn -0.0200 -0.0483 -0.9986
vn 0.0421 0.0175 0.9990
vn -0.0200 0.0483 0.9986
vn 0.5661 -0.8243 0.0000
vn -0.5707 0.8212 0.0000
vn 0.1043 0.0432 0.9936
vn 0.1043 -0.0432 -0.9936
vn -0.0357 0.0861 0.9956
vn -0.0432 -0.1043 0.9936
vn -0.0432 0.1043 -0.9936
vn 0.0432 -0.1043 0.9936
vn -0.1043 -0.0432 -0.9936
vn -0.1043 0.0432 -0.9936
vn -0.0432 0.1043 0.9936
vn -0.3384 -0.9410 0.0000
vn -0.0313 0.7651 0.6431
vn -0.8401 -0.5424 0.0000
vn 0.8183 0.5748 -0.0000
vn 0.4546 0.8907 -0.0000
vn 0.0313 -0.7651 -0.6431
vn 0.6814 -0.0591 -0.7296
vn -0.3968 0.3506 0.8483
vn -0.4146 0.3664 0.8330
g Crane_3_Crane_3_Collor_Material
usemtl Collor_Material
s off
f 7/1/1 8/2/1 4/3/1
f 5/4/1 14/5/1 6/6/1
f 123/7/2 125/8/2 244/9/2 242/10/2
f 9/11/3 12/12/3 11/13/4 10/14/4
f 7/15/1 6/16/1 14/17/1 15/18/1
f 5/19/1 4/20/1 8/21/1 13/22/1
f 94/23/5 96/24/5 97/25/5 95/26/5
f 63/27/5 65/28/5 80/29/5 78/30/5
f 10/31/6 11/32/6 14/33/6 13/34/6
f 75/35/7 77/36/7 60/37/7 58/38/7
f 60/39/8 77/40/8 79/41/8 62/42/8
f 79/43/5 81/44/5 64/45/5 62/46/5
f 131/47/9 133/48/9 251/49/9 249/50/9
f 57/51/10 59/52/10 74/53/10 72/54/10
f 92/55/8 94/56/8 95/57/8 93/58/8
f 86/59/11 87/60/11 88/61/11 89/62/11
f 122/63/12 124/64/12 140/65/12 138/66/12
f 118/67/13 121/68/13 239/69/13 238/70/13
f 127/71/14 143/72/14 145/73/14 129/74/14
f 70/75/11 73/76/11 56/77/11 54/78/11
f 80/79/15 96/80/15 94/81/15 78/82/15
f 61/83/8 63/84/8 78/85/8 76/86/8
f 129/87/14 145/88/14 147/89/14 131/90/14
f 75/91/16 73/92/16 89/93/16 91/94/16
f 241/95/13 240/96/13 120/97/13 119/98/13
f 84/99/15 100/100/15 98/101/15 82/102/15
f 88/103/10 90/104/10 91/105/10 89/106/10
f 72/107/15 74/108/15 90/109/15 88/110/15
f 240/111/17 243/112/17 122/113/17 120/114/17
f 98/115/18 100/116/18 101/117/18 99/118/18
f 121/119/17 123/120/17 242/121/17 239/122/17
f 68/123/19 85/124/19 70/125/19 54/126/19
f 90/127/7 92/128/7 93/129/7 91/130/7
f 71/131/11 55/132/11 57/133/11 72/134/11
f 131/135/14 147/136/14 149/137/14 133/138/14
f 130/139/12 132/140/12 148/141/12 146/142/12
f 121/143/14 118/144/14 134/145/14 137/146/14
f 83/147/16 99/148/16 101/149/16 85/150/16
f 83/151/16 81/152/16 97/153/16 99/154/16
f 76/155/15 78/156/15 94/157/15 92/158/15
f 132/159/12 119/160/12 135/161/12 148/162/12
f 125/163/14 141/164/14 143/165/14 127/166/14
f 298/167/1 295/168/1 294/169/1 291/170/1
f 58/171/15 60/172/15 64/173/15 68/174/15
f 103/175/14 365/176/14 364/177/14
f 367/178/9 366/179/9 132/180/9
f 123/181/14 139/182/14 141/183/14 125/184/14
f 243/185/2 245/186/2 124/187/2 122/188/2
f 76/189/15 92/190/15 90/191/15 74/192/15
f 371/193/12 370/194/12 249/195/12
f 130/196/12 146/197/12 144/198/12 128/199/12
f 75/200/16 91/201/16 93/202/16 77/203/16
f 124/204/12 126/205/12 142/206/12 140/207/12
f 122/208/12 138/209/12 136/210/12 120/211/12
f 100/212/19 87/213/19 86/214/19 101/215/19
f 123/216/14 121/217/14 137/218/14 139/219/14
f 297/220/20 296/221/20 292/222/20 293/223/20
f 72/224/15 88/225/15 87/226/15 71/227/15
f 80/228/15 82/229/15 98/230/15 96/231/15
f 84/232/15 71/233/15 87/234/15 100/235/15
f 70/236/16 85/237/16 101/238/16 86/239/16
f 79/240/16 95/241/16 97/242/16 81/243/16
f 77/244/16 93/245/16 95/246/16 79/247/16
f 133/248/14 149/249/14 134/250/14 118/251/14
f 126/252/12 128/253/12 144/254/12 142/255/12
f 73/256/16 70/257/16 86/258/16 89/259/16
f 120/260/12 136/261/12 135/262/12 119/263/12
f 96/264/21 98/265/21 99/266/21 97/267/21
f 59/268/16 55/269/16 67/270/16 63/271/16
f 81/272/21 83/273/21 66/274/21 64/275/21
f 56/276/10 73/277/10 75/278/10 58/279/10
f 294/280/22 293/281/22 292/282/22 291/283/22
f 125/284/23 127/285/23 246/286/23 244/287/23
f 133/288/24 118/289/24 238/290/24 251/291/24
f 82/292/18 67/293/18 69/294/18 84/295/18
f 102/296/12 239/297/12 104/298/12
f 109/299/14 111/300/14 247/301/14 245/302/14
f 104/303/12 242/304/12 106/305/12
f 107/306/14 109/307/14 245/308/14 243/309/14
f 108/310/12 242/311/12 244/312/12
f 129/313/25 369/314/25 368/315/25
f 111/316/14 248/317/14 247/318/14
f 369/319/26 370/320/26 371/321/26
f 113/322/14 250/323/14 248/324/14
f 116/325/12 238/326/12 102/327/12
f 364/328/27 365/329/27 366/330/27
f 273/331/28 275/332/28 274/333/28 271/334/28
f 114/335/12 249/336/12 251/337/12 116/338/12
f 105/339/14 240/340/14 241/341/14 103/342/14
f 127/343/29 129/344/29 368/345/29 246/346/29
f 270/347/30 278/348/30 277/349/30
f 268/350/31 273/351/31 278/352/31 334/353/31
f 277/354/32 278/355/32 272/356/32 276/357/32
f 278/358/33 273/359/33 271/360/33 272/361/33
f 268/362/34 275/363/34 273/364/34
f 270/365/35 277/366/35 275/367/35 269/368/35
f 296/369/6 287/370/6 290/371/6
f 298/372/6 290/373/6 289/374/6
f 245/375/23 247/376/23 126/377/23 124/378/23
f 74/379/7 59/380/7 61/381/7 76/382/7
f 9/383/12 10/384/12 13/385/12 8/386/12
f 292/387/12 296/388/12 298/389/12 291/390/12
f 297/391/6 288/392/6 287/393/6
f 295/394/6 289/395/6 288/396/6
f 295/397/14 297/398/14 293/399/14 294/400/14
f 66/401/18 83/402/18 85/403/18 68/404/18
f 65/405/21 67/406/21 82/407/21 80/408/21
f 248/409/36 250/410/36 130/411/36 128/412/36
f 15/413/37 12/414/37 9/415/38 8/416/38
f 11/417/14 12/418/14 15/419/14 14/420/14
f 247/421/29 248/422/29 128/423/29 126/424/29
f 69/425/19 55/426/19 71/427/19 84/428/19
f 249/429/36 370/430/36 129/431/36 131/432/36
f 364/433/39 366/434/39 367/435/39
f 364/436/14 367/437/14 250/438/14
f 369/439/40 371/440/40 368/441/40
f 246/442/12 368/443/12 371/444/12
f 7/445/1 15/446/1 8/447/1
f 5/448/1 13/449/1 14/450/1
f 246/451/12 371/452/12 110/453/12 244/454/12
f 59/455/16 57/456/16 55/457/16
f 55/458/16 69/459/16 67/460/16
f 67/461/16 65/462/16 63/463/16
f 63/464/16 61/465/16 59/466/16
f 68/467/15 54/468/15 56/469/15
f 56/470/15 58/471/15 68/472/15
f 60/473/15 62/474/15 64/475/15
f 64/476/15 66/477/15 68/478/15
f 364/479/14 117/480/14 103/481/14
f 103/482/14 241/483/14 365/484/14
f 119/485/24 132/486/24 365/487/24 241/488/24
f 249/489/12 114/490/12 371/491/12
f 114/492/12 112/493/12 371/494/12
f 370/495/36 369/496/36 129/497/36
f 102/498/12 238/499/12 239/500/12
f 104/501/12 239/502/12 242/503/12
f 108/504/12 106/505/12 242/506/12
f 110/507/12 108/508/12 244/509/12
f 275/510/41 277/511/41 276/512/41 274/513/41
f 111/514/14 113/515/14 248/516/14
f 113/517/14 115/518/14 250/519/14
f 132/520/24 366/521/24 365/522/24
f 116/523/12 251/524/12 238/525/12
f 270/526/30 334/527/30 278/528/30
f 268/529/34 269/530/34 275/531/34
f 296/532/6 297/533/6 287/534/6
f 298/535/6 296/536/6 290/537/6
f 297/538/6 295/539/6 288/540/6
f 295/541/6 298/542/6 289/543/6
f 130/544/9 250/545/9 367/546/9 132/547/9
f 107/548/14 243/549/14 240/550/14 105/551/14
f 250/552/14 115/553/14 364/554/14
f 115/555/14 117/556/14 364/557/14
f 371/558/12 112/559/12 110/560/12
f 116/561/42 266/562/42 264/563/43 114/564/44
f 3/565/14 319/566/14 320/567/14
f 288/568/45 354/569/45 353/570/45 287/571/45
f 1/572/46 2/573/46 318/574/46
f 329/575/47 330/576/47 331/577/47
f 311/578/48 313/579/48 314/580/48 312/581/48
f 314/582/49 315/583/49 270/584/49 269/585/49
f 301/586/50 311/587/50 337/588/50
f 333/589/51 335/590/51 311/591/51 312/592/51
f 305/593/52 348/594/52 283/595/52 286/596/52
f 316/597/53 20/598/54 344/599/55 345/600/55
f 342/601/12 19/602/12 20/603/12
f 109/604/56 259/605/56 261/606/57 111/607/57
f 305/608/58 286/609/58 285/610/58 350/611/58
f 346/612/59 345/613/60 344/614/61 343/615/61
f 317/616/14 346/617/14 343/618/14 21/619/14
f 338/620/62 18/621/62 317/622/62 341/623/62
f 348/624/22 305/625/22 350/626/22 307/627/22
f 280/628/63 282/629/63 306/630/63 347/631/63
f 256/632/64 258/633/64 262/634/64 266/635/64
f 351/636/65 352/637/65 326/638/66 355/639/66
f 268/640/67 312/641/67 314/642/67 269/643/67
f 19/644/68 342/645/68 317/646/68 21/647/68
f 306/648/6 349/649/6 304/650/6 347/651/6
f 111/652/69 261/653/69 263/654/70 113/655/71
f 279/656/72 304/657/72 349/658/72 281/659/72
f 1/660/73 3/661/73 310/662/74 309/663/75
f 103/664/76 117/665/76 267/666/77 255/667/77
f 107/668/78 257/669/78 259/670/79 109/671/79
f 314/672/80 313/673/80 361/674/80 315/675/80
f 310/676/81 308/677/82 299/678/83 300/679/83
f 261/680/84 259/681/84 257/682/84
f 106/683/85 256/684/85 253/685/86 104/686/86
f 112/687/87 114/688/87 264/689/88 262/690/88
f 287/691/89 353/692/90 323/693/91 290/694/92
f 336/695/93 360/696/93 363/697/94 337/698/94
f 104/699/95 253/700/96 252/701/97 102/702/97
f 108/703/98 110/704/98 260/705/99 258/706/99
f 105/707/100 103/708/101 255/709/102 254/710/102
f 102/711/103 252/712/103 266/713/104 116/714/105
f 303/715/106 7/716/106 328/717/106 331/718/106
f 308/719/107 321/720/108 352/721/108 351/722/107
f 106/723/109 108/724/109 258/725/110 256/726/110
f 107/727/111 105/728/111 254/729/112 257/730/112
f 321/731/113 308/732/113 320/733/113 2/734/113
f 350/735/114 285/736/114 284/737/114 307/738/114
f 302/739/115 6/740/115 7/741/115 303/742/115
f 348/743/116 307/744/116 284/745/116 283/746/116
f 322/747/117 325/748/118 327/749/119 323/750/120
f 308/751/121 351/752/121 299/753/121
f 7/754/106 4/755/106 328/756/106
f 270/757/122 315/758/122 332/759/122 334/760/122
f 310/761/14 3/762/14 320/763/14 308/764/14
f 279/765/12 347/766/12 304/767/12
f 281/768/14 306/769/14 282/770/14
f 353/771/123 322/772/123 323/773/123
f 110/774/124 112/775/124 262/776/125 260/777/125
f 332/778/126 336/779/126 335/780/127 333/781/126
f 313/782/80 362/783/80 361/784/80
f 311/785/128 301/786/128 302/787/128 313/788/128
f 302/789/129 303/790/129 363/791/129
f 5/792/130 6/793/130 302/794/130 301/795/130
f 17/796/131 16/797/132 316/798/132 345/799/131
f 333/800/133 312/801/133 268/802/133 334/803/133
f 360/804/134 361/805/134 362/806/134
f 117/807/135 115/808/135 265/809/136 267/810/136
f 318/811/137 320/812/137 319/813/137
f 332/814/138 315/815/138 361/816/138 336/817/138
f 324/818/139 354/819/140 288/820/141
f 325/821/142 324/822/142 327/823/142
f 327/824/143 324/825/143 323/826/143
f 329/827/144 331/828/144 328/829/144
f 328/830/145 5/831/145 301/832/145
f 332/833/146 333/834/146 334/835/146
f 335/836/147 336/837/148 337/838/148
f 340/839/149 341/840/149 342/841/149
f 341/842/150 339/843/150 338/844/150
f 16/845/12 340/846/12 316/847/12
f 321/848/12 2/849/12 1/850/12 309/851/12
f 326/852/151 309/853/152 310/854/153 300/855/154
f 351/856/155 300/857/155 299/858/155
f 300/859/156 351/860/156 355/861/156
f 325/862/157 322/863/157 354/864/157
f 354/865/6 322/866/6 353/867/6
f 360/868/158 362/869/158 363/870/158
f 318/871/159 319/872/159 1/873/159
f 319/874/160 3/875/160 1/876/160
f 311/877/161 335/878/161 337/879/161
f 337/880/162 330/881/162 301/882/162
f 330/883/162 329/884/162 301/885/162
f 346/886/163 17/887/163 345/888/163
f 20/889/12 316/890/12 342/891/12
f 316/892/12 340/893/12 342/894/12
f 257/895/84 254/896/84 255/897/84
f 255/898/84 267/899/84 257/900/84
f 267/901/84 265/902/84 257/903/84
f 265/904/84 263/905/84 257/906/84
f 263/907/84 261/908/84 257/909/84
f 266/910/64 252/911/64 253/912/64
f 253/913/64 256/914/64 266/915/64
f 258/916/64 260/917/64 262/918/64
f 262/919/64 264/920/64 266/921/64
f 355/922/164 326/923/164 300/924/164
f 361/925/138 360/926/138 336/927/138
f 279/928/12 280/929/12 347/930/12
f 281/931/14 349/932/14 306/933/14
f 113/934/165 263/935/165 265/936/166 115/937/166
f 352/938/167 321/939/167 309/940/167
f 309/941/168 326/942/168 352/943/168
f 362/944/129 313/945/129 363/946/129
f 313/947/129 302/948/129 363/949/129
f 342/950/68 341/951/68 317/952/68
f 317/953/14 18/954/14 17/955/14
f 17/956/14 346/957/14 317/958/14
f 320/959/113 318/960/113 2/961/113
f 288/962/169 289/963/170 324/964/171
f 324/965/172 325/966/172 354/967/172
f 289/968/173 290/969/173 324/970/173
f 290/971/174 323/972/174 324/973/174
f 301/974/145 329/975/145 328/976/145
f 328/977/145 4/978/145 5/979/145
f 341/980/175 340/981/175 339/982/175
f 16/983/12 339/984/12 340/985/12
f 363/986/176 303/987/176 330/988/176
f 303/989/177 331/990/177 330/991/177
f 330/992/178 337/993/178 363/994/178
f 180/995/23 179/996/23 186/997/23 185/998/23
f 24/999/179 359/1000/179 25/1001/179
f 27/1002/180 24/1003/180 25/1004/180
f 28/1005/181 23/1006/181 29/1007/181
f 28/1008/182 34/1009/182 27/1010/182
f 27/1011/183 36/1012/183 26/1013/183
f 175/1014/13 182/1015/13 183/1016/13 174/1017/13
f 28/1018/184 35/1019/184 37/1020/184
f 26/1021/185 35/1022/185 29/1023/185
f 194/1024/2 196/1025/2 197/1026/2 195/1027/2
f 36/1028/186 40/1029/186 35/1030/186
f 36/1031/186 39/1032/186 41/1033/186
f 35/1034/186 38/1035/186 31/1036/186
f 45/1037/14 43/1038/14 47/1039/14 49/1040/14
f 40/1041/12 42/1042/12 38/1043/12
f 41/1044/14 43/1045/14 45/1046/14
f 198/1047/29 200/1048/29 201/1049/29 199/1050/29
f 49/1051/14 53/1052/14 51/1053/14 45/1054/14
f 182/1055/17 181/1056/17 184/1057/17 183/1058/17
f 44/1059/12 48/1060/12 46/1061/12 42/1062/12
f 216/1063/36 218/1064/36 219/1065/36 217/1066/36
f 214/1067/29 216/1068/29 217/1069/29 215/1070/29
f 42/1071/187 46/1072/187 47/1073/187 43/1074/187
f 228/1075/29 230/1076/29 231/1077/29 229/1078/29
f 181/1079/2 180/1080/2 185/1081/2 184/1082/2
f 226/1083/23 228/1084/23 229/1085/23 227/1086/23
f 234/1087/24 237/1088/24 236/1089/24 235/1090/24
f 220/1091/24 207/1092/24 206/1093/24 221/1094/24
f 33/1095/160 34/1096/160 37/1097/160 30/1098/160
f 33/1099/14 32/1100/14 36/1101/14 34/1102/14
f 212/1103/23 214/1104/23 215/1105/23 213/1106/23
f 45/1107/6 51/1108/6 50/1109/6 44/1110/6
f 207/1111/13 208/1112/13 209/1113/13 206/1114/13
f 153/1115/188 183/1116/188 184/1117/188 156/1118/188
f 171/1119/189 189/1120/189 174/1121/189 152/1122/189
f 135/1123/190 175/1124/190 176/1125/190 148/1126/190
f 165/1127/191 187/1128/191 188/1129/191 168/1130/191
f 140/1131/192 180/1132/192 181/1133/192 138/1134/192
f 162/1135/193 159/1136/193 185/1137/193 186/1138/193
f 138/1139/194 181/1140/194 182/1141/194 136/1142/194
f 166/1143/195 216/1144/195 214/1145/195 163/1146/195
f 164/1147/196 167/1148/196 230/1149/196 228/1150/196
f 150/1151/197 206/1152/197 209/1153/197 155/1154/197
f 159/1155/198 196/1156/198 194/1157/198 156/1158/198
f 143/1159/199 141/1160/199 227/1161/199 229/1162/199
f 169/1163/200 172/1164/200 220/1165/200 218/1166/200
f 171/1167/201 204/1168/201 202/1169/201 168/1170/201
f 155/1171/202 158/1172/202 224/1173/202 222/1174/202
f 160/1175/203 212/1176/203 210/1177/203 157/1178/203
f 152/1179/204 153/1180/204 192/1181/204 191/1182/204
f 134/1183/205 236/1184/205 223/1185/205 137/1186/205
f 167/1187/206 217/1188/206 219/1189/206 170/1190/206
f 152/1191/207 191/1192/207 204/1193/207 171/1194/207
f 145/1195/208 231/1196/208 233/1197/208 147/1198/208
f 161/1199/209 158/1200/209 211/1201/209 213/1202/209
f 160/1203/210 157/1204/210 195/1205/210 197/1206/210
f 167/1207/211 170/1208/211 232/1209/211 230/1210/211
f 166/1211/212 169/1212/212 218/1213/212 216/1214/212
f 162/1215/213 198/1216/213 196/1217/213 159/1218/213
f 161/1219/214 226/1220/214 224/1221/214 158/1222/214
f 150/1223/215 173/1224/215 221/1225/215 206/1226/215
f 172/1227/216 169/1228/216 203/1229/216 205/1230/216
f 134/1231/217 149/1232/217 235/1233/217 236/1234/217
f 151/1235/218 154/1236/218 208/1237/218 207/1238/218
f 202/1239/9 204/1240/9 205/1241/9 203/1242/9
f 192/1243/17 194/1244/17 195/1245/17 193/1246/17
f 179/1247/29 178/1248/29 187/1249/29 186/1250/29
f 51/1251/219 53/1252/219 52/1253/219 50/1254/219
f 232/1255/9 234/1256/9 235/1257/9 233/1258/9
f 237/1259/13 222/1260/13 223/1261/13 236/1262/13
f 152/1263/220 174/1264/220 183/1265/220 153/1266/220
f 159/1267/221 156/1268/221 184/1269/221 185/1270/221
f 144/1271/222 146/1272/222 177/1273/222 178/1274/222
f 142/1275/223 179/1276/223 180/1277/223 140/1278/223
f 148/1279/224 176/1280/224 177/1281/224 146/1282/224
f 135/1283/225 136/1284/225 182/1285/225 175/1286/225
f 142/1287/226 144/1288/226 178/1289/226 179/1290/226
f 162/1291/227 186/1292/227 187/1293/227 165/1294/227
f 222/1295/17 224/1296/17 225/1297/17 223/1298/17
f 230/1299/36 232/1300/36 233/1301/36 231/1302/36
f 210/1303/2 212/1304/2 213/1305/2 211/1306/2
f 208/1307/17 210/1308/17 211/1309/17 209/1310/17
f 48/1311/22 52/1312/22 53/1313/22 49/1314/22
f 151/1315/228 172/1316/228 205/1317/228 190/1318/228
f 151/1319/229 190/1320/229 193/1321/229 154/1322/229
f 163/1323/230 160/1324/230 197/1325/230 199/1326/230
f 166/1327/231 201/1328/231 203/1329/231 169/1330/231
f 154/1331/232 193/1332/232 195/1333/232 157/1334/232
f 165/1335/233 168/1336/233 202/1337/233 200/1338/233
f 162/1339/234 165/1340/234 200/1341/234 198/1342/234
f 153/1343/235 156/1344/235 194/1345/235 192/1346/235
f 196/1347/23 198/1348/23 199/1349/23 197/1350/23
f 218/1351/9 220/1352/9 221/1353/9 219/1354/9
f 191/1355/13 192/1356/13 193/1357/13 190/1358/13
f 200/1359/36 202/1360/36 203/1361/36 201/1362/36
f 204/1363/24 191/1364/24 190/1365/24 205/1366/24
f 164/1367/236 161/1368/236 213/1369/236 215/1370/236
f 163/1371/237 214/1372/237 212/1373/237 160/1374/237
f 164/1375/238 215/1376/238 217/1377/238 167/1378/238
f 172/1379/239 151/1380/239 207/1381/239 220/1382/239
f 155/1383/240 209/1384/240 211/1385/240 158/1386/240
f 154/1387/241 157/1388/241 210/1389/241 208/1390/241
f 163/1391/242 199/1392/242 201/1393/242 166/1394/242
f 173/1395/243 170/1396/243 219/1397/243 221/1398/243
f 41/1399/244 45/1400/244 44/1401/244 40/1402/244
f 177/1403/9 176/1404/9 189/1405/9 188/1406/9
f 176/1407/24 175/1408/24 174/1409/24 189/1410/24
f 224/1411/2 226/1412/2 227/1413/2 225/1414/2
f 38/1415/245 42/1416/245 43/1417/245 39/1418/245
f 46/1419/22 48/1420/22 49/1421/22 47/1422/22
f 143/1423/246 229/1424/246 231/1425/246 145/1426/246
f 164/1427/247 228/1428/247 226/1429/247 161/1430/247
f 171/1431/248 168/1432/248 188/1433/248 189/1434/248
f 137/1435/249 223/1436/249 225/1437/249 139/1438/249
f 170/1439/250 173/1440/250 234/1441/250 232/1442/250
f 141/1443/251 139/1444/251 225/1445/251 227/1446/251
f 150/1447/252 155/1448/252 222/1449/252 237/1450/252
f 150/1451/253 237/1452/253 234/1453/253 173/1454/253
f 149/1455/254 147/1456/254 233/1457/254 235/1458/254
f 48/1459/12 44/1460/12 50/1461/12 52/1462/12
f 30/1463/12 37/1464/12 35/1465/12 31/1466/12
f 31/1467/186 38/1468/186 39/1469/186 32/1470/186
f 22/1471/255 25/1472/255 359/1473/255 356/1474/255
f 23/1475/256 356/1476/256 357/1477/256
f 28/1478/257 27/1479/257 25/1480/257 22/1481/257
f 29/1482/258 23/1483/258 24/1484/258 26/1485/258
f 23/1486/259 357/1487/259 358/1488/259 24/1489/259
f 24/1490/260 358/1491/260 359/1492/260
f 27/1493/261 26/1494/261 24/1495/261
f 28/1496/262 22/1497/262 23/1498/262
f 28/1499/182 37/1500/182 34/1501/182
f 27/1502/183 34/1503/183 36/1504/183
f 28/1505/184 29/1506/184 35/1507/184
f 26/1508/185 36/1509/185 35/1510/185
f 36/1511/186 41/1512/186 40/1513/186
f 36/1514/186 32/1515/186 39/1516/186
f 35/1517/186 40/1518/186 38/1519/186
f 40/1520/12 44/1521/12 42/1522/12
f 41/1523/14 39/1524/14 43/1525/14
f 23/1526/263 22/1527/263 356/1528/263
f 178/1529/36 177/1530/36 188/1531/36 187/1532/36
