# Blender v3.0.0 OBJ File: 'aa.blend'
# www.blender.org
mtllib Crane_2.mtl
o Crane_2
v -3.452541 4.393850 0.150959
v -3.452541 4.695774 0.150959
v -3.452541 4.393850 -0.150965
v 0.150962 4.318342 0.187450
v -0.150963 4.318342 0.187450
v -0.150963 4.318342 -0.187454
v 0.150962 4.318342 -0.187454
v 0.175743 4.318342 0.218221
v 0.175743 4.586097 0.218221
v -0.175744 4.562143 0.218221
v -0.175744 4.585523 -0.218226
v 0.175743 4.611774 -0.218226
v -0.175744 4.318342 0.218221
v -0.175744 4.318342 -0.218226
v 0.175743 4.318342 -0.218226
v -2.749595 4.619016 0.108098
v -2.749595 4.619016 -0.108104
v -2.749595 4.412044 -0.108104
v -0.054946 2.428391 0.108100
v -0.054946 2.687886 0.108100
v -0.054946 2.428391 -0.108102
v -2.911234 1.816936 0.029827
v -2.851578 1.816936 0.029827
v -2.851578 1.816936 -0.029829
v -2.911234 1.816936 -0.029829
v -2.851579 4.260924 -0.029830
v -2.911234 4.260924 -0.029830
v -2.911234 4.260924 0.029825
v -2.851579 4.260924 0.029825
v -2.952752 4.544812 0.071344
v -2.810060 4.544812 0.071344
v -2.810060 4.544812 -0.071349
v -2.952752 4.544812 -0.071349
v -2.952752 4.282024 -0.071349
v -2.810060 4.282024 0.071344
v -2.810060 4.282024 -0.071349
v -2.952752 4.282024 0.071344
v -2.810060 4.419769 0.025505
v -2.810060 4.419769 -0.025510
v -2.810060 4.325818 0.025505
v -2.810060 4.325818 -0.025510
v -0.222469 2.490376 0.025506
v -0.222469 2.490376 -0.025509
v -0.222469 2.396426 0.025506
v -0.222469 2.396426 -0.025509
v -0.166610 2.450631 0.025506
v -0.166610 2.450631 -0.025509
v -0.166610 2.356681 0.025506
v -0.166610 2.356681 -0.025509
v -0.222468 0.129411 0.025507
v -0.222468 0.129410 -0.025507
v -0.166610 0.089665 0.025507
v -0.166610 0.089665 -0.025507
v -0.474691 2.380542 0.204428
v -0.474691 2.380542 -0.204431
v -0.425981 2.262945 0.204428
v -0.425981 2.262945 -0.204431
v -0.308384 2.214235 0.204428
v -0.308384 2.214235 -0.204431
v -0.190788 2.262945 0.204428
v -0.190788 2.262945 -0.204431
v -0.142078 2.380542 0.204428
v -0.142078 2.380542 -0.204431
v -0.190788 2.498138 0.204428
v -0.190788 2.498138 -0.204431
v -0.308384 2.546848 0.204428
v -0.308384 2.546848 -0.204431
v -0.425981 2.498138 0.204428
v -0.425981 2.498138 -0.204431
v -0.474691 2.380542 0.121006
v -0.474691 2.380542 -0.121009
v -0.425981 2.262945 -0.121009
v -0.425981 2.262945 0.121007
v -0.308384 2.214235 -0.121009
v -0.308384 2.214235 0.121007
v -0.190788 2.262945 -0.121009
v -0.190788 2.262945 0.121007
v -0.142078 2.380542 -0.121009
v -0.142078 2.380542 0.121006
v -0.190788 2.498138 -0.121009
v -0.190788 2.498138 0.121006
v -0.308384 2.546848 -0.121009
v -0.308384 2.546848 0.121006
v -0.425981 2.498138 -0.121009
v -0.425981 2.498138 0.121006
v -0.379274 2.380542 0.121006
v -0.379274 2.380542 -0.121009
v -0.358511 2.330415 -0.121009
v -0.358511 2.330415 0.121007
v -0.308384 2.309652 -0.121009
v -0.308384 2.309652 0.121007
v -0.258258 2.330415 -0.121009
v -0.258258 2.330415 0.121007
v -0.237494 2.380542 -0.121009
v -0.237494 2.380542 0.121006
v -0.258258 2.430668 -0.121009
v -0.258258 2.430668 0.121006
v -0.308384 2.451432 -0.121009
v -0.308384 2.451432 0.121006
v -0.358511 2.430668 -0.121009
v -0.358511 2.430668 0.121006
v -0.345314 0.222260 0.204430
v -0.345314 0.526043 -0.204430
v -0.334498 0.196147 0.204430
v -0.334498 0.499930 -0.204430
v -0.308384 0.185330 0.204430
v -0.308384 0.489114 -0.204430
v -0.282271 0.196147 0.204430
v -0.282271 0.499930 -0.204430
v -0.271454 0.222260 0.204430
v -0.271454 0.526043 -0.204430
v -0.282271 0.248373 0.204430
v -0.282271 0.552157 -0.204430
v -0.308384 0.259190 0.204430
v -0.308384 0.562973 -0.204430
v -0.334498 0.248373 0.204430
v -0.334498 0.552157 -0.204430
v -0.598369 0.394424 0.121008
v -0.598369 0.394424 -0.121008
v -0.513434 0.189374 -0.121008
v -0.513434 0.189374 0.121008
v -0.308384 0.104439 -0.121008
v -0.308384 0.104439 0.121008
v -0.103334 0.189374 -0.121008
v -0.103334 0.189374 0.121008
v -0.018399 0.394424 -0.121008
v -0.018399 0.394424 0.121008
v -0.103334 0.599474 -0.121008
v -0.103334 0.599474 0.121007
v -0.308384 0.684408 -0.121008
v -0.308384 0.684408 0.121007
v -0.513434 0.599474 -0.121008
v -0.513434 0.599474 0.121007
v -0.504855 0.394424 0.121008
v -0.504855 0.394424 -0.121008
v -0.447310 0.255498 -0.121008
v -0.447310 0.255498 0.121008
v -0.308384 0.197953 -0.121008
v -0.308384 0.197953 0.121008
v -0.169458 0.255498 -0.121008
v -0.169458 0.255498 0.121008
v -0.111913 0.394424 -0.121008
v -0.111913 0.394424 0.121008
v -0.169458 0.533350 -0.121008
v -0.169458 0.533350 0.121007
v -0.308384 0.590894 -0.121008
v -0.308384 0.590894 0.121007
v -0.447310 0.533349 -0.121008
v -0.447310 0.533350 0.121007
v -0.504855 0.394424 0.060504
v -0.504855 0.394424 -0.000000
v -0.504855 0.394424 -0.060504
v -0.447310 0.255498 -0.060504
v -0.447310 0.255498 -0.000000
v -0.447310 0.255498 0.060504
v -0.308384 0.197953 -0.060504
v -0.308384 0.197953 -0.000000
v -0.308384 0.197953 0.060504
v -0.169458 0.255498 -0.060504
v -0.169458 0.255498 -0.000000
v -0.169458 0.255498 0.060504
v -0.111913 0.394424 -0.060504
v -0.111913 0.394424 -0.000000
v -0.111913 0.394424 0.060504
v -0.169458 0.533350 -0.060504
v -0.169458 0.533350 -0.000000
v -0.169458 0.533350 0.060504
v -0.308384 0.590894 -0.060504
v -0.308384 0.590894 -0.000000
v -0.308384 0.590894 0.060504
v -0.447310 0.533350 -0.060504
v -0.447310 0.533350 -0.000000
v -0.447310 0.533350 0.060504
v -0.555000 0.394424 -0.064840
v -0.555000 0.394424 -0.116672
v -0.482768 0.568807 -0.116672
v -0.308384 0.641039 -0.116672
v -0.134001 0.568807 -0.116672
v -0.061769 0.394424 -0.116672
v -0.134001 0.220040 -0.116672
v -0.308384 0.147808 -0.116672
v -0.482768 0.220040 -0.116672
v -0.482768 0.220040 -0.064840
v -0.308384 0.147808 -0.064840
v -0.134001 0.220040 -0.064840
v -0.061769 0.394424 -0.064840
v -0.134001 0.568807 -0.064840
v -0.308384 0.641039 -0.064840
v -0.482768 0.568807 -0.064840
v -0.553657 0.394424 -0.002059
v -0.553657 0.394424 -0.058446
v -0.481818 0.220989 -0.058446
v -0.481818 0.220989 -0.002058
v -0.308384 0.149151 -0.058446
v -0.308384 0.149151 -0.002058
v -0.134950 0.220989 -0.058446
v -0.134950 0.220989 -0.002058
v -0.063111 0.394424 -0.058446
v -0.063111 0.394424 -0.002059
v -0.134950 0.567858 -0.058446
v -0.134950 0.567858 -0.002059
v -0.308384 0.639697 -0.058446
v -0.308384 0.639697 -0.002059
v -0.481819 0.567858 -0.058446
v -0.481819 0.567858 -0.002059
v -0.549764 0.394424 0.058331
v -0.549764 0.394424 0.002172
v -0.479066 0.223742 0.002172
v -0.479066 0.223742 0.058331
v -0.308384 0.153044 0.002172
v -0.308384 0.153044 0.058332
v -0.137703 0.223742 0.002172
v -0.137703 0.223742 0.058331
v -0.067004 0.394424 0.002172
v -0.067004 0.394424 0.058331
v -0.137703 0.565105 0.002172
v -0.137703 0.565105 0.058331
v -0.308384 0.635804 0.002172
v -0.308384 0.635804 0.058331
v -0.479066 0.565105 0.002172
v -0.479066 0.565105 0.058331
v -0.471950 0.230858 0.064161
v -0.471950 0.230858 0.117350
v -0.308384 0.163107 0.064161
v -0.308384 0.163107 0.117350
v -0.144818 0.230858 0.064161
v -0.144818 0.230858 0.117350
v -0.077067 0.394424 0.064161
v -0.077067 0.394424 0.117350
v -0.144818 0.557989 0.064161
v -0.144818 0.557990 0.117350
v -0.308384 0.625740 0.064161
v -0.308384 0.625741 0.117350
v -0.471950 0.557989 0.064161
v -0.471950 0.557989 0.117350
v -0.539701 0.394424 0.117350
v -0.539701 0.394424 0.064161
v -0.598369 0.394424 0.204429
v -0.513434 0.189374 0.204430
v -0.513434 0.189373 -0.204430
v -0.598369 0.394424 -0.204430
v -0.308384 0.104439 0.204430
v -0.308384 0.104439 -0.204430
v -0.103334 0.189374 0.204430
v -0.103334 0.189374 -0.204430
v -0.018399 0.394424 0.204430
v -0.018399 0.394424 -0.204430
v -0.103334 0.599474 0.204429
v -0.103334 0.599474 -0.204430
v -0.308384 0.684409 0.204429
v -0.308384 0.684408 -0.204430
v -0.513434 0.599474 0.204429
v -0.513434 0.599474 -0.204430
v -0.345314 0.222260 0.415791
v -0.334498 0.196147 0.415791
v -0.334498 0.499930 -0.415791
v -0.345314 0.526043 -0.415792
v -0.308384 0.185330 0.415791
v -0.308384 0.489114 -0.415791
v -0.282271 0.196147 0.415791
v -0.282271 0.499930 -0.415791
v -0.271454 0.222260 0.415791
v -0.271454 0.526043 -0.415792
v -0.282271 0.248373 0.415791
v -0.282271 0.552157 -0.415792
v -0.308384 0.259190 0.415791
v -0.308384 0.562973 -0.415792
v -0.334498 0.248373 0.415791
v -0.334498 0.552157 -0.415792
v -0.150962 0.191207 0.187452
v -0.150962 0.191207 -0.187452
v 0.150962 0.191207 -0.187452
v -0.225803 0.000000 0.280384
v 0.225803 0.000000 0.280384
v -0.200617 0.151804 0.249109
v -0.225803 -0.000000 -0.280384
v -0.200617 0.151803 -0.249110
v 0.225803 -0.000000 -0.280384
v 0.200617 0.151803 -0.249110
v 0.200617 0.151804 0.249110
v 0.961985 4.432854 0.111956
v 0.961984 4.656771 0.111956
v 0.961985 4.432854 -0.111961
v 0.961985 4.656771 -0.111961
v -0.043716 3.450834 0.111957
v -0.043716 3.674751 0.111956
v -0.043716 3.674751 -0.111960
v -0.043716 3.450834 -0.111960
v 0.803211 4.695775 -0.150964
v 0.803211 4.393851 -0.150964
v 0.803211 4.393851 0.150960
v 0.803211 4.695775 0.150960
v 1.018905 4.353063 0.191748
v 1.018905 4.702968 0.191748
v 1.018905 4.702968 -0.191753
v 1.018905 4.353063 -0.191752
v 0.803211 4.353063 -0.191752
v 0.803211 4.736563 0.191748
v 0.803211 4.736563 -0.191753
v 0.803211 4.353063 0.191748
v -1.206200 4.563343 -0.118409
v -1.206200 4.235227 -0.118409
v -0.107756 3.394696 0.192972
v -0.107756 3.394696 -0.181932
v 0.194168 3.394696 -0.181932
v 0.507345 3.953933 0.111956
v 0.507345 3.953933 -0.111961
v 0.507345 4.177850 -0.111961
v 0.507345 4.177850 0.111956
v -2.890008 4.656051 -0.150965
v -2.890008 4.354127 0.150959
v -2.890008 4.354127 -0.150965
v -0.120825 1.810445 0.201676
v -0.143295 0.798763 0.188915
v -0.120825 1.810445 -0.173228
v -0.143295 0.798763 -0.185989
v 0.181100 1.810445 -0.173228
v 0.158629 0.798763 -0.185989
v -1.211606 3.601404 0.108099
v -1.211606 3.341499 -0.108103
v -3.452541 4.695774 -0.006843
v -3.452541 4.551652 -0.150965
v -3.308777 4.685622 -0.150965
v -1.206200 4.552917 0.183515
v -2.890008 4.656051 0.150959
v -1.206200 4.563343 0.029357
v -1.052396 4.573479 0.181023
v -0.456681 4.294394 0.114571
v -0.864829 4.262175 0.102783
v -0.913895 4.277413 0.174238
v -0.874058 4.328417 0.178134
v 0.189847 3.487065 0.192420
v 0.101696 3.394696 0.192972
v 0.190746 2.979863 0.195251
v 0.194168 3.394696 0.100501
v 0.158629 0.798763 0.147156
v 0.116863 0.798763 0.188915
v 0.150962 0.191208 0.187452
v 0.139334 1.810445 0.201676
v 0.181100 1.810445 0.159917
v 0.183632 2.117433 0.199989
v -2.749595 4.412044 0.034085
v -2.749595 4.502222 0.108098
v -1.211606 3.431677 0.108099
v -1.211606 3.341499 0.034086
v -1.153513 3.295638 0.108099
v -0.054946 2.650507 -0.108102
v -0.054946 2.687886 -0.078769
v -1.211606 3.601404 -0.078770
v -1.211606 3.564025 -0.108103
v -1.236069 3.617590 -0.108103
v -2.817501 3.250543 -0.036825
v -2.877156 3.250543 0.022831
v -2.877156 3.250543 -0.036825
v -2.817501 3.250543 0.022831
vt 0.542844 0.828016
vt 0.542844 0.896237
vt 0.539007 0.890828
vt 0.724947 0.370241
vt 0.724947 0.438462
vt 0.721110 0.433053
vt 0.621277 0.780666
vt 0.621277 0.829920
vt 0.548017 0.825610
vt 0.548017 0.780666
vt 0.007724 0.795252
vt 0.007724 0.845931
vt 0.002558 0.850091
vt 0.002558 0.791092
vt 0.943496 0.506538
vt 0.943496 0.455859
vt 0.948661 0.451699
vt 0.948661 0.510698
vt 0.445685 0.863000
vt 0.445685 0.923162
vt 0.416149 0.900457
vt 0.441924 0.860109
vt 0.013176 0.798425
vt 0.086435 0.794500
vt 0.086435 0.839348
vt 0.013176 0.839348
vt 0.012126 0.942181
vt 0.012126 0.933074
vt 0.052750 0.933074
vt 0.052750 0.942181
vt 0.138901 0.917088
vt 0.176155 0.917088
vt 0.176155 0.931090
vt 0.138901 0.931090
vt 0.933581 0.184390
vt 0.896327 0.184390
vt 0.896327 0.170387
vt 0.933581 0.170387
vt 0.416149 0.957047
vt 0.437515 0.957047
vt 0.437515 0.971050
vt 0.416149 0.971050
vt 0.288494 0.944696
vt 0.309859 0.944696
vt 0.309859 0.958699
vt 0.288494 0.958699
vt 0.584817 0.968213
vt 0.584817 0.946848
vt 0.598819 0.946848
vt 0.598819 0.968213
vt 0.956152 0.317731
vt 0.947976 0.297992
vt 0.956152 0.278252
vt 0.486984 0.331690
vt 0.477877 0.331690
vt 0.477877 0.291067
vt 0.486984 0.291067
vt 0.834557 0.835468
vt 0.834557 0.899841
vt 0.798351 0.899841
vt 0.798351 0.835468
vt 0.927307 0.787748
vt 0.912805 0.781741
vt 0.912805 0.756500
vt 0.927307 0.750493
vt 0.928651 0.425462
vt 0.928651 0.388208
vt 0.942654 0.388208
vt 0.942654 0.425462
vt 0.126263 0.957090
vt 0.111466 0.950961
vt 0.111466 0.941854
vt 0.126263 0.935725
vt 0.467454 0.935552
vt 0.482250 0.941681
vt 0.482250 0.950788
vt 0.467453 0.956917
vt 0.221650 0.940167
vt 0.207148 0.934160
vt 0.207148 0.908919
vt 0.221650 0.902912
vt 0.912571 0.936892
vt 0.912571 0.958258
vt 0.897775 0.952129
vt 0.897775 0.943021
vt 0.063709 0.963642
vt 0.063709 0.942277
vt 0.078505 0.948406
vt 0.078505 0.957513
vt 0.953778 0.509191
vt 0.953778 0.487826
vt 0.967781 0.487826
vt 0.967781 0.509191
vt 0.106349 0.957090
vt 0.091552 0.950961
vt 0.091552 0.941854
vt 0.106349 0.935725
vt 0.937831 0.880400
vt 0.937831 0.917655
vt 0.923329 0.911648
vt 0.923329 0.886407
vt 0.456773 0.928279
vt 0.456773 0.937387
vt 0.416149 0.937387
vt 0.416149 0.928279
vt 0.942998 0.122621
vt 0.942998 0.159875
vt 0.928996 0.159876
vt 0.928996 0.122621
vt 0.348084 0.938050
vt 0.348084 0.900795
vt 0.362586 0.906802
vt 0.362586 0.932043
vt 0.786546 0.933484
vt 0.786546 0.954849
vt 0.771749 0.948720
vt 0.771749 0.939613
vt 0.946019 0.872874
vt 0.931222 0.866745
vt 0.931222 0.857638
vt 0.946019 0.851508
vt 0.948748 0.738626
vt 0.948748 0.717261
vt 0.963545 0.723390
vt 0.963545 0.732497
vt 0.291604 0.939579
vt 0.291604 0.902325
vt 0.306106 0.908332
vt 0.306106 0.933572
vt 0.562519 0.904476
vt 0.562519 0.941731
vt 0.548017 0.935724
vt 0.548017 0.910483
vt 0.941716 0.269133
vt 0.927214 0.263126
vt 0.927214 0.237885
vt 0.941716 0.231878
vt 0.962912 0.158107
vt 0.948115 0.151978
vt 0.948115 0.142871
vt 0.962912 0.136741
vt 0.954395 0.622613
vt 0.933029 0.622613
vt 0.933029 0.608610
vt 0.954395 0.608610
vt 0.960064 0.184390
vt 0.938698 0.184390
vt 0.938698 0.170387
vt 0.960064 0.170387
vt 0.626394 0.949310
vt 0.647759 0.949310
vt 0.647759 0.963313
vt 0.626394 0.963313
vt 0.928527 0.600615
vt 0.928527 0.563360
vt 0.942530 0.563360
vt 0.942530 0.600615
vt 0.951136 0.872874
vt 0.951136 0.851508
vt 0.965139 0.851508
vt 0.965139 0.872874
vt 0.929629 0.728033
vt 0.929629 0.690778
vt 0.943632 0.690778
vt 0.943632 0.728033
vt 0.931089 0.039813
vt 0.916587 0.033806
vt 0.916587 0.008565
vt 0.931089 0.002558
vt 0.942998 0.080250
vt 0.942998 0.117504
vt 0.928996 0.117504
vt 0.928996 0.080250
vt 0.962109 0.047154
vt 0.962109 0.068519
vt 0.947312 0.062390
vt 0.947312 0.053283
vt 0.681760 0.942054
vt 0.681760 0.932946
vt 0.722383 0.932946
vt 0.722383 0.942054
vt 0.252367 0.902325
vt 0.266869 0.908332
vt 0.266869 0.933572
vt 0.252367 0.939579
vt 0.601757 0.904476
vt 0.601757 0.941731
vt 0.587255 0.935724
vt 0.587255 0.910483
vt 0.202032 0.902912
vt 0.202032 0.940167
vt 0.187530 0.934160
vt 0.187530 0.908919
vt 0.798351 0.904957
vt 0.835606 0.904957
vt 0.835606 0.918960
vt 0.798351 0.918960
vt 0.173611 0.957573
vt 0.158814 0.951444
vt 0.158814 0.942336
vt 0.173611 0.936207
vt 0.509949 0.941739
vt 0.509949 0.963104
vt 0.495152 0.956975
vt 0.495152 0.947868
vt 0.509654 0.936622
vt 0.495152 0.930615
vt 0.495152 0.905374
vt 0.509654 0.899367
vt 0.856023 0.958189
vt 0.841226 0.952060
vt 0.841226 0.942953
vt 0.856023 0.936823
vt 0.742681 0.940340
vt 0.757478 0.946469
vt 0.757478 0.955576
vt 0.742681 0.961705
vt 0.582138 0.941731
vt 0.567636 0.935724
vt 0.567636 0.910483
vt 0.582138 0.904476
vt 0.153698 0.936207
vt 0.153698 0.957573
vt 0.138901 0.951444
vt 0.138901 0.942336
vt 0.941716 0.226761
vt 0.927214 0.220755
vt 0.927214 0.195514
vt 0.941716 0.189507
vt 0.963545 0.690778
vt 0.963545 0.712144
vt 0.948748 0.706015
vt 0.948748 0.696908
vt 0.286487 0.902325
vt 0.286487 0.939579
vt 0.271985 0.933572
vt 0.271985 0.908332
vt 0.226767 0.902912
vt 0.241269 0.908919
vt 0.241269 0.934160
vt 0.226767 0.940167
vt 0.376810 0.941419
vt 0.367703 0.941419
vt 0.367703 0.900795
vt 0.376810 0.900795
vt 0.824862 0.699986
vt 0.785383 0.699986
vt 0.785383 0.660507
vt 0.824862 0.660507
vt 0.052611 0.947298
vt 0.052611 0.968663
vt 0.038609 0.968663
vt 0.038609 0.947298
vt 0.942859 0.278252
vt 0.942859 0.315507
vt 0.928856 0.315507
vt 0.928856 0.278252
vt 0.620876 0.904476
vt 0.620876 0.941731
vt 0.606873 0.941731
vt 0.606873 0.904476
vt 0.952603 0.556438
vt 0.943496 0.556438
vt 0.943496 0.515814
vt 0.952603 0.515814
vt 0.245695 0.959286
vt 0.224329 0.959286
vt 0.224329 0.945284
vt 0.245695 0.945284
vt 0.945225 0.809137
vt 0.945225 0.846392
vt 0.931222 0.846392
vt 0.931222 0.809137
vt 0.022063 0.789383
vt 0.022063 0.730650
vt 0.086435 0.730650
vt 0.086435 0.789383
vt 0.673107 0.950373
vt 0.664000 0.950373
vt 0.664000 0.909749
vt 0.673107 0.909749
vt 0.012126 0.913954
vt 0.049381 0.913954
vt 0.049381 0.927957
vt 0.012126 0.927957
vt 0.606873 0.968213
vt 0.606873 0.946848
vt 0.620876 0.946848
vt 0.620876 0.968213
vt 0.442631 0.985455
vt 0.447080 0.957047
vt 0.447080 0.987104
vt 0.911447 0.623523
vt 0.907686 0.626414
vt 0.881911 0.586065
vt 0.911447 0.563360
vt 0.658830 0.420659
vt 0.658830 0.436664
vt 0.655112 0.423605
vt 0.360479 0.580877
vt 0.360479 0.576132
vt 0.420133 0.568332
vt 0.420133 0.605587
vt 0.120621 0.896438
vt 0.133165 0.886498
vt 0.133165 0.923752
vt 0.918212 0.931775
vt 0.897775 0.911548
vt 0.918212 0.880400
vt 0.926105 0.875283
vt 0.897775 0.833329
vt 0.926105 0.809137
vt 0.890737 0.914021
vt 0.866781 0.894673
vt 0.890737 0.866143
vt 0.771749 0.903657
vt 0.790581 0.891112
vt 0.790581 0.928367
vt 0.416149 0.827678
vt 0.416149 0.822933
vt 0.482091 0.817737
vt 0.482091 0.854992
vt 0.766543 0.940340
vt 0.766543 0.962967
vt 0.762595 0.942970
vt 0.947976 0.373258
vt 0.952621 0.322848
vt 0.952621 0.374223
vt 0.033492 0.971162
vt 0.002703 0.970574
vt 0.033492 0.966417
vt 0.031058 0.438240
vt 0.031058 0.354611
vt 0.056887 0.349362
vt 0.056887 0.443489
vt 0.722245 0.961173
vt 0.700879 0.961173
vt 0.700879 0.947170
vt 0.722245 0.947170
vt 0.941531 0.791116
vt 0.932424 0.791116
vt 0.932423 0.750493
vt 0.941531 0.750493
vt 0.681760 0.968536
vt 0.681760 0.947170
vt 0.695762 0.947170
vt 0.695762 0.968536
vt 0.902588 0.378395
vt 0.865333 0.378395
vt 0.865333 0.364392
vt 0.902588 0.364392
vt 0.798351 0.924077
vt 0.835606 0.924077
vt 0.835606 0.938080
vt 0.798351 0.938080
vt 0.523250 0.901295
vt 0.533890 0.828016
vt 0.533890 0.911644
vt 0.911596 0.088584
vt 0.923879 0.080250
vt 0.923879 0.147599
vt 0.911596 0.139264
vt 0.317138 0.898771
vt 0.317138 0.815142
vt 0.342967 0.809893
vt 0.342967 0.904020
vt 0.880463 0.151826
vt 0.880463 0.084477
vt 0.906479 0.080250
vt 0.906479 0.156054
vt 0.911457 0.262786
vt 0.922097 0.189507
vt 0.922097 0.273136
vt 0.942859 0.320624
vt 0.942859 0.357878
vt 0.928856 0.357878
vt 0.928856 0.320624
vt 0.012126 0.947298
vt 0.033492 0.947298
vt 0.033492 0.961301
vt 0.012126 0.961301
vt 0.942195 0.060490
vt 0.936205 0.010166
vt 0.942195 0.002558
vt 0.938379 0.509631
vt 0.932390 0.459307
vt 0.938379 0.451699
vt 0.317138 0.946392
vt 0.317138 0.909137
vt 0.331141 0.909137
vt 0.331141 0.946392
vt 0.128194 0.817008
vt 0.128194 0.881381
vt 0.091552 0.881381
vt 0.091552 0.817008
vt 0.175106 0.911971
vt 0.138901 0.911971
vt 0.138901 0.853237
vt 0.175106 0.847598
vt 0.939019 0.685662
vt 0.933029 0.635337
vt 0.939019 0.627730
vt 0.948937 0.938332
vt 0.942948 0.888008
vt 0.948937 0.880400
vt 0.013176 0.908837
vt 0.013176 0.844465
vt 0.049381 0.850104
vt 0.049381 0.908837
vt 0.866781 0.955765
vt 0.888146 0.955765
vt 0.888146 0.969768
vt 0.866781 0.969768
vt 0.338503 0.965511
vt 0.317138 0.965511
vt 0.317138 0.951508
vt 0.338503 0.951508
vt 0.409291 0.848643
vt 0.409291 0.915992
vt 0.383275 0.920220
vt 0.383275 0.844415
vt 0.187530 0.813619
vt 0.246528 0.809213
vt 0.246528 0.858467
vt 0.187530 0.858467
vt 0.911457 0.286587
vt 0.923740 0.278252
vt 0.923740 0.345602
vt 0.911457 0.337267
vt 0.187557 0.803881
vt 0.187530 0.730494
vt 0.246692 0.730731
vt 0.246692 0.804096
vt 0.253022 0.854837
vt 0.253022 0.809893
vt 0.312021 0.813913
vt 0.312021 0.854837
vt 0.721110 0.297030
vt 0.725270 0.291865
vt 0.725270 0.365124
vt 0.721110 0.218653
vt 0.725270 0.213488
vt 0.725270 0.286748
vt 0.548017 0.862351
vt 0.613959 0.835037
vt 0.613959 0.872292
vt 0.548017 0.867096
vt 0.955947 0.427686
vt 0.947770 0.407947
vt 0.955947 0.388208
vt 0.912165 0.473158
vt 0.927273 0.458050
vt 0.927273 0.509631
vt 0.372649 0.738792
vt 0.372649 0.760158
vt 0.321068 0.738792
vt 0.701499 0.927830
vt 0.681760 0.919653
vt 0.701499 0.871999
vt 0.927912 0.685662
vt 0.912805 0.670554
vt 0.927912 0.634081
vt 0.955488 0.042037
vt 0.947312 0.022298
vt 0.955488 0.002558
vt 0.955009 0.228985
vt 0.946833 0.209246
vt 0.955009 0.189507
vt 0.955823 0.602839
vt 0.947647 0.583099
vt 0.955823 0.563360
vt 0.377158 0.804776
vt 0.368982 0.785037
vt 0.377158 0.765297
vt 0.861664 0.880332
vt 0.861664 0.931707
vt 0.841226 0.900559
vt 0.350630 0.474221
vt 0.363174 0.446907
vt 0.363174 0.484161
vt 0.658830 0.457787
vt 0.655112 0.454840
vt 0.658830 0.441781
vt 0.002558 0.914216
vt 0.007007 0.912567
vt 0.007007 0.942624
vt 0.948115 0.081214
vt 0.952761 0.080250
vt 0.952761 0.131625
vt 0.758288 0.969073
vt 0.758288 0.973818
vt 0.727500 0.969661
vt 0.976180 0.382275
vt 0.972231 0.379645
vt 0.976180 0.359647
vt 0.490035 0.899367
vt 0.490035 0.930435
vt 0.467453 0.900805
vt 0.082829 0.844465
vt 0.082829 0.910611
vt 0.054498 0.886419
vt 0.657975 0.339412
vt 0.620727 0.309329
vt 0.657975 0.308618
vt 0.792365 0.878926
vt 0.783322 0.816649
vt 0.792365 0.804878
vt 0.542706 0.746489
vt 0.533663 0.684212
vt 0.542706 0.672441
vt 0.916564 0.620886
vt 0.923410 0.563360
vt 0.923410 0.627732
vt 0.839689 0.844739
vt 0.846536 0.787213
vt 0.846536 0.851586
vt 0.308815 0.716970
vt 0.315661 0.659444
vt 0.315661 0.723817
vt 0.573857 0.630737
vt 0.580704 0.573211
vt 0.580704 0.637583
vt 0.252367 0.884663
vt 0.312021 0.859953
vt 0.312021 0.897208
vt 0.252367 0.889408
vt 0.368291 0.294237
vt 0.418969 0.293819
vt 0.418969 0.559756
vt 0.368291 0.560175
vt 0.924512 0.690778
vt 0.924512 0.745376
vt 0.912805 0.721616
vt 0.057515 0.006180
vt 0.057515 0.344245
vt 0.006946 0.340912
vt 0.002558 0.002558
vt 0.308296 0.273958
vt 0.308296 0.331142
vt 0.284821 0.286228
vt 0.618488 0.899360
vt 0.548017 0.889061
vt 0.618488 0.877408
vt 0.372681 0.005344
vt 0.423284 0.002558
vt 0.423284 0.285675
vt 0.368291 0.288702
vt 0.897775 0.803953
vt 0.897775 0.634081
vt 0.907688 0.634148
vt 0.907688 0.804020
vt 0.479078 0.605587
vt 0.428401 0.408866
vt 0.479078 0.339649
vt 0.279704 0.336888
vt 0.177715 0.336642
vt 0.177715 0.280722
vt 0.279704 0.273958
vt 0.062632 0.396420
vt 0.062632 0.345740
vt 0.345696 0.366152
vt 0.345696 0.390956
vt 0.710833 0.908622
vt 0.706616 0.877540
vt 0.710833 0.871999
vt 0.355256 0.498740
vt 0.355256 0.733675
vt 0.321068 0.706686
vt 0.240644 0.268496
vt 0.177715 0.268842
vt 0.177715 0.002904
vt 0.240644 0.002558
vt 0.991397 0.234102
vt 0.991397 0.269580
vt 0.986652 0.269580
vt 0.986652 0.234102
vt 0.681760 0.489157
vt 0.711072 0.466006
vt 0.711072 0.713408
vt 0.681814 0.736516
vt 0.615610 0.317101
vt 0.587096 0.336949
vt 0.579920 0.032404
vt 0.615610 0.002558
vt 0.537831 0.952239
vt 0.537831 0.916761
vt 0.542576 0.916761
vt 0.542576 0.952239
vt 0.127030 0.966952
vt 0.091552 0.966952
vt 0.091552 0.962207
vt 0.127030 0.962207
vt 0.620727 0.303501
vt 0.620727 0.178252
vt 0.658313 0.178252
vt 0.658313 0.303501
vt 0.276548 0.994718
vt 0.276548 0.959239
vt 0.281293 0.959239
vt 0.281293 0.994718
vt 0.990505 0.844615
vt 0.990505 0.809137
vt 0.995250 0.809137
vt 0.995250 0.844615
vt 0.742681 0.699986
vt 0.742681 0.574736
vt 0.780267 0.574736
vt 0.780267 0.699986
vt 0.989366 0.079577
vt 0.989366 0.115055
vt 0.984622 0.115055
vt 0.984622 0.079577
vt 0.548017 0.737964
vt 0.658860 0.737964
vt 0.658860 0.775549
vt 0.548017 0.775549
vt 0.992422 0.563360
vt 0.992422 0.598838
vt 0.987678 0.598838
vt 0.987678 0.563360
vt 0.988007 0.313731
vt 0.988007 0.278252
vt 0.992751 0.278252
vt 0.992751 0.313731
vt 0.736408 0.851656
vt 0.736408 0.919097
vt 0.725572 0.918085
vt 0.716189 0.868081
vt 0.992546 0.388208
vt 0.992546 0.423686
vt 0.987801 0.423686
vt 0.987801 0.388208
vt 0.253022 0.767190
vt 0.363865 0.767190
vt 0.363865 0.804776
vt 0.253022 0.804776
vt 0.986864 0.224985
vt 0.986864 0.189507
vt 0.991608 0.189507
vt 0.991608 0.224985
vt 0.388019 0.961964
vt 0.388019 0.997442
vt 0.383275 0.997442
vt 0.383275 0.961964
vt 0.091552 0.717233
vt 0.142232 0.717233
vt 0.142232 0.811892
vt 0.091552 0.811892
vt 0.748900 0.569619
vt 0.748900 0.322218
vt 0.780266 0.322218
vt 0.780266 0.569619
vt 0.153900 0.339639
vt 0.118422 0.339639
vt 0.118422 0.334895
vt 0.153900 0.334895
vt 0.113305 0.027615
vt 0.113305 0.339804
vt 0.062633 0.340624
vt 0.062632 0.002558
vt 0.486011 0.362299
vt 0.484195 0.357916
vt 0.486011 0.353532
vt 0.987342 0.038036
vt 0.987342 0.002558
vt 0.992087 0.002558
vt 0.992087 0.038036
vt 0.986203 0.785971
vt 0.986203 0.750493
vt 0.990947 0.750493
vt 0.990947 0.785971
vt 0.748900 0.317101
vt 0.748900 0.002558
vt 0.772767 0.002558
vt 0.772767 0.317101
vt 0.657904 0.949310
vt 0.657904 0.984788
vt 0.653160 0.984788
vt 0.653160 0.949310
vt 0.544222 0.960665
vt 0.579700 0.960665
vt 0.579700 0.965409
vt 0.544222 0.965409
vt 0.416149 0.712693
vt 0.416149 0.610703
vt 0.479078 0.610855
vt 0.479078 0.712845
vt 0.025941 0.360562
vt 0.025941 0.675102
vt 0.002558 0.658826
vt 0.009850 0.349362
vt 0.528547 0.291067
vt 0.528547 0.526002
vt 0.492256 0.538426
vt 0.492256 0.291067
vt 0.416149 0.742153
vt 0.466829 0.717961
vt 0.466829 0.812620
vt 0.416149 0.812620
vt 0.383275 0.813957
vt 0.411032 0.714049
vt 0.411032 0.839298
vt 0.175106 0.842482
vt 0.147348 0.742574
vt 0.175106 0.717233
vt 0.649999 0.521840
vt 0.649999 0.677051
vt 0.587070 0.676675
vt 0.587070 0.536986
vt 0.360479 0.722604
vt 0.375067 0.714049
vt 0.375067 0.724932
vt 0.528547 0.285950
vt 0.477877 0.003536
vt 0.528547 0.002558
vt 0.142176 0.556905
vt 0.142176 0.712116
vt 0.091552 0.709748
vt 0.091552 0.554537
vt 0.147293 0.696594
vt 0.147293 0.556905
vt 0.197917 0.554537
vt 0.197917 0.709748
vt 0.315951 0.653952
vt 0.253022 0.654327
vt 0.253022 0.499116
vt 0.315951 0.498740
vt 0.676643 0.172430
vt 0.620727 0.173135
vt 0.620727 0.003264
vt 0.676643 0.002558
vt 0.891210 0.359275
vt 0.865333 0.275691
vt 0.891210 0.248432
vt 0.866781 0.717665
vt 0.892658 0.634081
vt 0.892658 0.744924
vt 0.013911 0.729446
vt 0.013911 0.785976
vt 0.002558 0.763923
vt 0.428401 0.283732
vt 0.472760 0.002558
vt 0.472760 0.334532
vt 0.803812 0.285776
vt 0.777883 0.285170
vt 0.803812 0.002558
vt 0.345320 0.493624
vt 0.035768 0.493624
vt 0.040692 0.457333
vt 0.345321 0.457333
vt 0.086435 0.724408
vt 0.035768 0.725533
vt 0.035768 0.555662
vt 0.086435 0.554537
vt 0.726024 0.208371
vt 0.681760 0.070534
vt 0.726024 0.002558
vt 0.203034 0.724408
vt 0.203034 0.554537
vt 0.246692 0.555506
vt 0.246692 0.725377
vt 0.303698 0.761434
vt 0.253022 0.762073
vt 0.253022 0.660084
vt 0.303698 0.659444
vt 0.649999 0.687891
vt 0.649999 0.731560
vt 0.548017 0.732847
vt 0.548017 0.682168
vt 0.587070 0.515929
vt 0.587070 0.346058
vt 0.649995 0.346852
vt 0.649995 0.516723
vt 0.917188 0.792864
vt 0.921571 0.794680
vt 0.921571 0.803446
vt 0.912805 0.803446
vt 0.658408 0.346058
vt 0.658408 0.392583
vt 0.655112 0.383265
vt 0.626394 0.913119
vt 0.656368 0.896626
vt 0.656368 0.929611
vt 0.462213 0.860109
vt 0.462213 0.916266
vt 0.450802 0.884013
vt 0.912165 0.532978
vt 0.930773 0.514748
vt 0.930773 0.551045
vt 0.827380 0.523245
vt 0.827380 0.655367
vt 0.808929 0.589138
vt 0.523250 0.818581
vt 0.539601 0.751803
vt 0.539601 0.822899
vt 0.802953 0.330866
vt 0.802953 0.645407
vt 0.785383 0.636759
vt 0.785383 0.322218
vt 0.082829 0.937160
vt 0.063709 0.926377
vt 0.082829 0.915728
vt 0.353269 0.340058
vt 0.363174 0.339648
vt 0.363174 0.441790
vt 0.170199 0.319864
vt 0.170199 0.329778
vt 0.118422 0.325323
vt 0.930359 0.069760
vt 0.916587 0.055839
vt 0.930359 0.044930
vt 0.730601 0.578625
vt 0.737564 0.574736
vt 0.737564 0.822137
vt 0.730601 0.826026
vt 0.839689 0.862410
vt 0.845260 0.856703
vt 0.845260 0.866587
vt 0.518133 0.894250
vt 0.467453 0.894250
vt 0.518133 0.867763
vt 0.242095 0.897795
vt 0.187530 0.880689
vt 0.242095 0.863583
vt 0.911470 0.075133
vt 0.880463 0.044383
vt 0.911470 0.002558
vt 0.492256 0.683736
vt 0.528372 0.543543
vt 0.528372 0.746686
vt 0.376622 0.895679
vt 0.348084 0.830427
vt 0.376622 0.809893
vt 0.411032 0.614273
vt 0.411032 0.708932
vt 0.360479 0.705362
vt 0.360479 0.610703
vt 0.715993 0.213488
vt 0.715993 0.460890
vt 0.681760 0.421427
vt 0.007876 0.907450
vt 0.002558 0.879461
vt 0.007876 0.855208
vt 0.486011 0.403949
vt 0.484195 0.399566
vt 0.486011 0.395182
vt 0.655112 0.482829
vt 0.658466 0.479474
vt 0.658466 0.490928
vt 0.725854 0.455033
vt 0.721110 0.455033
vt 0.725854 0.443579
vt 0.732820 0.831142
vt 0.737564 0.831142
vt 0.737564 0.842596
vt 0.658466 0.507499
vt 0.655112 0.504144
vt 0.658466 0.496045
vt 0.486011 0.390066
vt 0.484195 0.385682
vt 0.486011 0.381299
vt 0.655112 0.466258
vt 0.658466 0.462903
vt 0.658466 0.474357
vt 0.486011 0.376182
vt 0.484195 0.371799
vt 0.486011 0.367416
vt 0.486011 0.348416
vt 0.484195 0.344032
vt 0.486011 0.339649
vt 0.709517 0.741633
vt 0.709517 0.866882
vt 0.681760 0.841540
vt 0.798351 0.730444
vt 0.826109 0.705102
vt 0.826109 0.830351
vt 0.363174 0.334531
vt 0.313806 0.051887
vt 0.363174 0.002558
vt 0.486428 0.717961
vt 0.486428 0.787750
vt 0.471945 0.720873
vt 0.912165 0.434232
vt 0.923534 0.388208
vt 0.923534 0.452933
vt 0.626394 0.807925
vt 0.652271 0.780666
vt 0.652271 0.891509
vt 0.518133 0.751803
vt 0.518133 0.862646
vt 0.492256 0.835387
vt 0.345321 0.452216
vt 0.062632 0.418848
vt 0.345321 0.401537
vt 0.742681 0.848065
vt 0.778205 0.804878
vt 0.778205 0.885996
vt 0.308689 0.002558
vt 0.308689 0.268496
vt 0.245760 0.198515
vt 0.568740 0.667324
vt 0.533663 0.635432
vt 0.568740 0.573211
vt 0.954563 0.272460
vt 0.946833 0.256682
vt 0.954563 0.234102
vt 0.742681 0.779139
vt 0.742681 0.708672
vt 0.793234 0.705102
vt 0.793234 0.799761
vt 0.035768 0.543312
vt 0.247906 0.498740
vt 0.247906 0.549420
vt 0.574803 0.340941
vt 0.533663 0.128113
vt 0.574803 0.002558
vt 0.172598 0.314748
vt 0.118422 0.217883
vt 0.172598 0.002558
vt 0.581953 0.346058
vt 0.581953 0.568094
vt 0.533663 0.361436
vt 0.891654 0.750041
vt 0.891654 0.861026
vt 0.866781 0.816644
vt 0.890885 0.213476
vt 0.880463 0.179898
vt 0.890885 0.161171
vt 0.923329 0.954282
vt 0.923329 0.922772
vt 0.932794 0.922772
vt 0.932794 0.954282
vt 0.674008 0.734933
vt 0.674008 0.904633
vt 0.664000 0.904295
vt 0.664000 0.734596
vt 0.866781 0.950649
vt 0.866781 0.919138
vt 0.876245 0.919138
vt 0.876245 0.950649
vt 0.851653 0.388446
vt 0.861664 0.388208
vt 0.861664 0.628915
vt 0.851653 0.629153
vt 0.866781 0.628915
vt 0.866781 0.388208
vt 0.876794 0.388257
vt 0.876794 0.628964
vt 0.939530 0.363534
vt 0.939530 0.382229
vt 0.935343 0.372630
vt 0.930226 0.363534
vt 0.930226 0.382229
vt 0.926039 0.372630
vt 0.766632 0.891112
vt 0.766632 0.935223
vt 0.742681 0.935223
vt 0.742681 0.891112
vt 0.970438 0.664529
vt 0.970438 0.683225
vt 0.966250 0.673625
vt 0.961134 0.664529
vt 0.961134 0.683225
vt 0.956947 0.673625
vt 0.742108 0.569620
vt 0.730601 0.569620
vt 0.730601 0.561056
vt 0.742108 0.561056
vt 0.718786 0.990242
vt 0.711435 0.973984
vt 0.718786 0.966290
vt 0.500132 0.968221
vt 0.500132 0.992589
vt 0.495152 0.977626
vt 0.951830 0.671840
vt 0.944135 0.648719
vt 0.951830 0.627730
vt 0.837160 0.775425
vt 0.837160 0.394883
vt 0.846536 0.401554
vt 0.846536 0.782097
vt 0.664000 0.187678
vt 0.676643 0.178252
vt 0.676643 0.720053
vt 0.664001 0.729479
vt 0.376810 0.955236
vt 0.345127 0.955236
vt 0.345127 0.946536
vt 0.376810 0.946536
vt 0.837160 0.009230
vt 0.846536 0.002558
vt 0.846536 0.383095
vt 0.837161 0.389766
vt 0.823044 0.518128
vt 0.823044 0.002573
vt 0.832043 0.002558
vt 0.832043 0.518114
vt 0.889840 0.225264
vt 0.889840 0.241034
vt 0.880463 0.234363
vt 0.880463 0.218593
vt 0.963481 0.880400
vt 0.963481 0.911411
vt 0.954054 0.911411
vt 0.954054 0.880400
vt 0.960126 0.219224
vt 0.960126 0.189507
vt 0.969054 0.189507
vt 0.969054 0.219224
vt 0.724752 0.466006
vt 0.724752 0.846539
vt 0.716189 0.846539
vt 0.716189 0.466006
vt 0.966421 0.515814
vt 0.966421 0.547497
vt 0.957720 0.547497
vt 0.957720 0.515814
vt 0.447159 0.951930
vt 0.416149 0.951930
vt 0.416149 0.942503
vt 0.447159 0.942503
vt 0.397856 0.956847
vt 0.397856 0.925336
vt 0.407321 0.925336
vt 0.407321 0.956847
vt 0.480508 0.792867
vt 0.480508 0.808637
vt 0.471945 0.808637
vt 0.471945 0.792867
vt 0.959680 0.263819
vt 0.959680 0.234102
vt 0.968608 0.234102
vt 0.968608 0.263819
vt 0.969533 0.002558
vt 0.969533 0.032276
vt 0.960605 0.032276
vt 0.960605 0.002558
vt 0.187530 0.945284
vt 0.219213 0.945284
vt 0.219213 0.953984
vt 0.187530 0.953984
vt 0.002558 0.724329
vt 0.002558 0.680219
vt 0.026510 0.680219
vt 0.026510 0.724329
vt 0.283377 0.954123
vt 0.252367 0.954123
vt 0.252367 0.944696
vt 0.283377 0.944696
vt 0.950342 0.840147
vt 0.950342 0.809137
vt 0.959768 0.809137
vt 0.959768 0.840147
vt 0.798351 0.957740
vt 0.828069 0.957740
vt 0.828069 0.966668
vt 0.798351 0.966668
vt 0.954054 0.947538
vt 0.954054 0.916527
vt 0.963481 0.916527
vt 0.963481 0.947538
vt 0.736926 0.932946
vt 0.736926 0.963956
vt 0.727500 0.963956
vt 0.727500 0.932946
vt 0.971694 0.083471
vt 0.979505 0.080250
vt 0.979505 0.111932
vt 0.971694 0.108711
vt 0.968029 0.139962
vt 0.975839 0.136741
vt 0.975839 0.168424
vt 0.968029 0.165203
vt 0.964885 0.812358
vt 0.972696 0.809137
vt 0.972696 0.840820
vt 0.964885 0.837599
vt 0.968597 0.945662
vt 0.968597 0.920421
vt 0.976408 0.917200
vt 0.976408 0.948883
vt 0.976473 0.719240
vt 0.968662 0.722461
vt 0.968662 0.690778
vt 0.976473 0.693999
vt 0.976132 0.454247
vt 0.976132 0.479488
vt 0.968322 0.482709
vt 0.968322 0.451026
vt 0.979505 0.071912
vt 0.971694 0.075133
vt 0.971694 0.043450
vt 0.979505 0.046671
vt 0.187530 0.961986
vt 0.194504 0.959101
vt 0.194504 0.990111
vt 0.187530 0.987226
vt 0.138901 0.990169
vt 0.138901 0.964928
vt 0.144339 0.962690
vt 0.144339 0.992407
vt 0.930303 0.987524
vt 0.923329 0.990409
vt 0.923329 0.959399
vt 0.930303 0.962284
vt 0.982890 0.306628
vt 0.975314 0.309763
vt 0.975314 0.278252
vt 0.982890 0.281387
vt 0.467453 0.989513
vt 0.467453 0.964273
vt 0.472892 0.962034
vt 0.472892 0.991752
vt 0.199620 0.987226
vt 0.199620 0.961986
vt 0.206594 0.959101
vt 0.206594 0.990111
vt 0.989165 0.719154
vt 0.981589 0.722289
vt 0.981589 0.690778
vt 0.989165 0.693913
vt 0.304488 0.966054
vt 0.304488 0.991295
vt 0.299049 0.993533
vt 0.299049 0.963816
vt 0.308815 0.731818
vt 0.315789 0.728933
vt 0.315789 0.759944
vt 0.308815 0.757059
vt 0.523250 0.981764
vt 0.523250 0.956523
vt 0.530826 0.953388
vt 0.530826 0.984899
vt 0.841226 0.965544
vt 0.846665 0.963306
vt 0.846665 0.993023
vt 0.841226 0.990785
vt 0.790814 0.988092
vt 0.783840 0.990976
vt 0.783840 0.959966
vt 0.790814 0.962851
vt 0.977812 0.812272
vt 0.985389 0.809137
vt 0.985389 0.840647
vt 0.977812 0.837513
vt 0.149456 0.964928
vt 0.154895 0.962690
vt 0.154895 0.992407
vt 0.149456 0.990169
vt 0.345127 0.988478
vt 0.345127 0.963238
vt 0.352101 0.960353
vt 0.352101 0.991363
vt 0.664000 0.983865
vt 0.664000 0.958625
vt 0.671576 0.955490
vt 0.671576 0.987000
vt 0.234885 0.991882
vt 0.234885 0.966642
vt 0.240323 0.964403
vt 0.240323 0.994121
vt 0.218685 0.961986
vt 0.218685 0.987226
vt 0.211711 0.990111
vt 0.211711 0.959101
vt 0.974985 0.566495
vt 0.982561 0.563360
vt 0.982561 0.594871
vt 0.974985 0.591736
vt 0.700879 0.968528
vt 0.706318 0.966290
vt 0.706318 0.996008
vt 0.700879 0.993769
vt 0.771749 0.988092
vt 0.771749 0.962851
vt 0.778723 0.959966
vt 0.778723 0.990976
vt 0.988825 0.454161
vt 0.988825 0.479402
vt 0.981249 0.482537
vt 0.981249 0.451026
vt 0.908330 0.990854
vt 0.908330 0.965613
vt 0.913769 0.963374
vt 0.913769 0.993092
vt 0.990665 0.630614
vt 0.990665 0.655855
vt 0.983691 0.658740
vt 0.983691 0.627730
vt 0.953778 0.482709
vt 0.953778 0.451699
vt 0.963205 0.451699
vt 0.963205 0.482709
vt 0.920159 0.152716
vt 0.920159 0.164223
vt 0.911596 0.164223
vt 0.911596 0.152716
vt 0.452276 0.945724
vt 0.460086 0.942503
vt 0.460086 0.974186
vt 0.452276 0.970965
vt 0.971537 0.519035
vt 0.979348 0.515814
vt 0.979348 0.547497
vt 0.971537 0.544276
vt 0.968597 0.908862
vt 0.968597 0.883621
vt 0.976408 0.880400
vt 0.976408 0.912083
vt 0.971555 0.326069
vt 0.979366 0.322848
vt 0.979366 0.354530
vt 0.971555 0.351309
vt 0.981086 0.778955
vt 0.973276 0.782176
vt 0.973276 0.750493
vt 0.981086 0.753714
vt 0.981535 0.237323
vt 0.981535 0.262564
vt 0.973725 0.265785
vt 0.973725 0.234102
vt 0.978574 0.630951
vt 0.978574 0.656191
vt 0.970764 0.659413
vt 0.970764 0.627730
vt 0.941127 0.946670
vt 0.948937 0.943449
vt 0.948937 0.975132
vt 0.941127 0.971911
vt 0.091552 0.930608
vt 0.091552 0.886498
vt 0.115504 0.886498
vt 0.115504 0.930608
vt 0.829362 0.952623
vt 0.798351 0.952623
vt 0.798351 0.943197
vt 0.829362 0.943197
vt 0.968597 0.982375
vt 0.968597 0.957135
vt 0.976174 0.954000
vt 0.976174 0.985510
vt 0.981525 0.883535
vt 0.989101 0.880400
vt 0.989101 0.911911
vt 0.981525 0.908776
vt 0.981747 0.192642
vt 0.981747 0.217882
vt 0.974171 0.221017
vt 0.974171 0.189507
vt 0.989101 0.945576
vt 0.981525 0.948710
vt 0.981525 0.917200
vt 0.989101 0.920335
vt 0.980956 0.139876
vt 0.988532 0.136741
vt 0.988532 0.168252
vt 0.980956 0.165117
vt 0.981290 0.982375
vt 0.981290 0.957134
vt 0.988866 0.954000
vt 0.988866 0.985510
vt 0.974650 0.030934
vt 0.974650 0.005693
vt 0.982226 0.002558
vt 0.982226 0.034069
vt 0.954054 0.981030
vt 0.954054 0.955789
vt 0.961630 0.952654
vt 0.961630 0.984165
vt 0.890827 0.919138
vt 0.890827 0.950649
vt 0.881362 0.950649
vt 0.881362 0.919138
vt 0.920922 0.350719
vt 0.920922 0.382229
vt 0.911457 0.382229
vt 0.911457 0.350719
vt 0.851653 0.383091
vt 0.851653 0.002558
vt 0.860216 0.002558
vt 0.860216 0.383091
vt 0.392740 0.925336
vt 0.392740 0.956847
vt 0.383275 0.956847
vt 0.383275 0.925336
vt 0.357218 0.988478
vt 0.357218 0.963238
vt 0.364192 0.960353
vt 0.364192 0.991363
vt 0.376283 0.988478
vt 0.369309 0.991363
vt 0.369309 0.960353
vt 0.376283 0.963238
vt 0.259341 0.987365
vt 0.252367 0.990250
vt 0.252367 0.959239
vt 0.259341 0.962124
vt 0.264457 0.987365
vt 0.264457 0.962124
vt 0.271431 0.959239
vt 0.271431 0.990250
vt 0.984622 0.046335
vt 0.991596 0.043450
vt 0.991596 0.074460
vt 0.984622 0.071575
vt 0.984465 0.543940
vt 0.984465 0.518699
vt 0.991439 0.515814
vt 0.991439 0.546825
vt 0.982685 0.416583
vt 0.975109 0.419718
vt 0.975109 0.388208
vt 0.982685 0.391342
vt 0.991456 0.325732
vt 0.991456 0.350973
vt 0.984482 0.353858
vt 0.984482 0.322848
vt 0.961064 0.417925
vt 0.961064 0.388208
vt 0.969992 0.388208
vt 0.969992 0.417925
vt 0.960940 0.593078
vt 0.960940 0.563360
vt 0.969868 0.563360
vt 0.969868 0.593078
vt 0.965647 0.627730
vt 0.965647 0.659413
vt 0.956947 0.659413
vt 0.956947 0.627730
vt 0.532715 0.916761
vt 0.532715 0.948272
vt 0.523250 0.948272
vt 0.523250 0.916761
vt 0.817927 0.002558
vt 0.817927 0.518114
vt 0.808929 0.518128
vt 0.808929 0.002573
vt 0.968159 0.750493
vt 0.968159 0.782176
vt 0.959459 0.782176
vt 0.959459 0.750493
vt 0.851781 0.965544
vt 0.857220 0.963306
vt 0.857220 0.993023
vt 0.851781 0.990785
vt 0.897775 0.965613
vt 0.903213 0.963374
vt 0.903213 0.993092
vt 0.897775 0.990854
vt 0.581667 0.645921
vt 0.581667 0.671162
vt 0.573857 0.674383
vt 0.573857 0.642700
vt 0.224329 0.966642
vt 0.229768 0.964403
vt 0.229768 0.994121
vt 0.224329 0.991882
vt 0.336258 0.936616
vt 0.336258 0.911375
vt 0.341696 0.909137
vt 0.341696 0.938854
vt 0.170567 0.990169
vt 0.170567 0.964928
vt 0.176006 0.962690
vt 0.176006 0.992407
vt 0.478009 0.989513
vt 0.478009 0.964273
vt 0.483448 0.962034
vt 0.483448 0.991752
vt 0.160012 0.964928
vt 0.165450 0.962690
vt 0.165450 0.992407
vt 0.160012 0.990169
vt 0.777883 0.290893
vt 0.798873 0.298587
vt 0.798873 0.307150
vt 0.777883 0.314845
vt 0.288494 0.991295
vt 0.288494 0.966054
vt 0.293932 0.963816
vt 0.293932 0.993533
vt 0.548017 0.946848
vt 0.579700 0.946848
vt 0.579700 0.955548
vt 0.548017 0.955548
vt 0.966439 0.322848
vt 0.966439 0.354530
vt 0.957738 0.354530
vt 0.957738 0.322848
vt 0.932390 0.437654
vt 0.962107 0.437654
vt 0.962107 0.446582
vt 0.932390 0.446582
vt 0.966578 0.080250
vt 0.966578 0.111932
vt 0.957877 0.111932
vt 0.957877 0.080250
vt 0.861664 0.634508
vt 0.861664 0.875215
vt 0.851653 0.874977
vt 0.851653 0.634270
vt 0.865333 0.002607
vt 0.875346 0.002558
vt 0.875346 0.243266
vt 0.865333 0.243315
vt 0.657904 0.944193
vt 0.626394 0.944193
vt 0.626394 0.934728
vt 0.657904 0.934728
vt 0.906340 0.359206
vt 0.896327 0.359275
vt 0.896327 0.189576
vt 0.906340 0.189507
vt 0.967114 0.375417
vt 0.957738 0.382089
vt 0.957738 0.366319
vt 0.967114 0.359647
vt 0.961269 0.307970
vt 0.961269 0.278252
vt 0.970197 0.278252
vt 0.970197 0.307970
vt 0.907049 0.388277
vt 0.907049 0.557977
vt 0.897036 0.557908
vt 0.897036 0.388208
vt 0.891919 0.557906
vt 0.881911 0.558243
vt 0.881911 0.388545
vt 0.891919 0.388208
vt 0.960940 0.605164
vt 0.968757 0.598195
vt 0.968757 0.622146
vt 0.970256 0.855891
vt 0.978073 0.848922
vt 0.978073 0.872874
vt 0.393136 0.968933
vt 0.400953 0.961964
vt 0.400953 0.985915
vt 0.133311 0.823977
vt 0.141128 0.817008
vt 0.141128 0.840960
vt 0.658640 0.415542
vt 0.655112 0.405502
vt 0.658640 0.397700
vt 0.954342 0.750493
vt 0.954342 0.794603
vt 0.946648 0.773614
vt 0.510228 0.992589
vt 0.505249 0.983184
vt 0.510228 0.968221
vt 0.731141 0.544373
vt 0.731141 0.002558
vt 0.743783 0.011985
vt 0.743783 0.553799
vt 0.197917 0.714865
vt 0.197917 0.724878
vt 0.187904 0.724878
vt 0.187904 0.714865
vn 0.0000 -1.0000 0.0000
vn 1.0000 0.0000 0.0000
vn 0.0000 -0.0000 -1.0000
vn -1.0000 -0.0000 -0.0000
vn -0.9239 0.3827 0.0000
vn 0.3827 0.9239 -0.0000
vn 0.9239 -0.3827 0.0000
vn -0.9239 -0.3827 0.0000
vn -0.3827 -0.9239 0.0000
vn 0.0000 0.0000 1.0000
vn 0.3827 -0.9239 0.0000
vn 0.9239 0.3827 -0.0000
vn -0.3827 0.9239 0.0000
vn -0.9865 0.1637 -0.0000
vn 0.6216 0.7833 -0.0000
vn -0.0000 0.8426 0.5385
vn 0.9865 0.1637 -0.0000
vn -0.0000 0.2018 0.9794
vn -0.6216 0.7833 -0.0000
vn 0.1539 0.9881 -0.0000
vn 0.0000 0.2018 -0.9794
vn -0.0000 0.8426 -0.5385
vn -0.0739 0.9956 0.0582
vn -0.0744 0.9955 0.0586
vn -0.0683 0.9962 0.0537
vn -0.0679 0.9963 0.0534
vn 0.0000 -0.0055 -1.0000
vn -0.0162 -0.0000 -0.9999
vn 0.6987 0.1538 0.6987
vn 0.0193 -0.0000 -0.9998
vn 0.7068 -0.0246 0.7070
vn 0.0000 0.0055 1.0000
vn 0.9999 -0.0126 0.0000
vn 0.0550 0.9985 0.0000
vn 0.5518 0.8340 0.0000
vn -1.0000 0.0082 -0.0000
vn -0.6742 0.7385 0.0000
vn 0.6742 -0.7385 0.0000
vn 0.7253 -0.6885 0.0000
vn 0.0168 -0.0316 0.9994
vn -0.0180 -0.0328 0.9993
vn 0.0162 -0.0000 0.9999
vn -0.7253 0.6885 0.0000
vn -0.0704 -0.9975 0.0000
vn 0.6198 0.7848 0.0000
vn -0.0658 0.9978 0.0000
vn -0.5713 -0.8207 0.0000
vn -0.9999 0.0126 -0.0000
vn -0.9999 0.0126 -0.0045
vn -1.0000 0.0079 -0.0000
vn -0.6196 -0.7849 -0.0000
vn 0.0704 0.9975 -0.0000
vn 0.9989 0.0467 0.0000
vn 0.6362 -0.5391 0.5519
vn 0.0000 -0.0060 -1.0000
vn -0.0000 0.0060 1.0000
vn -0.9989 -0.0467 -0.0000
vn 0.9997 -0.0222 0.0070
vn 0.9996 -0.0292 -0.0001
vn 0.9998 -0.0222 0.0000
vn -0.0275 -0.0597 0.9978
vn -0.0136 -0.0481 0.9987
vn -0.0170 -0.0698 0.9974
vn 0.0597 0.9959 0.0673
vn 0.0000 0.0126 -0.9999
vn 0.0001 0.0177 -0.9998
vn 0.0050 0.0126 -0.9999
vn 1.0000 -0.0082 0.0000
vn 1.0000 -0.0016 0.0021
vn -0.0000 -0.0126 0.9999
vn -0.0000 -0.0027 -1.0000
vn -0.0051 0.0024 -1.0000
vn 0.0000 0.0024 -1.0000
vn -0.0000 -0.0024 1.0000
vn -0.9996 0.0267 0.0001
vn -0.9998 0.0222 -0.0000
vn -0.9997 0.0222 0.0047
vn -0.5502 0.5904 -0.5904
vn -0.1311 0.9891 0.0669
vn 0.0787 -0.9969 0.0000
vn 0.0399 -0.7480 0.6625
vn -0.4040 -0.5804 0.7071
vn 0.5873 -0.5570 0.5873
vn 0.7065 0.0380 0.7067
vn 0.7037 -0.0977 0.7038
vn -0.8296 -0.3543 0.4316
vn 0.4383 0.5549 -0.7071
vn 0.8039 0.3672 -0.4679
vn -0.0403 -0.9825 0.1819
vn -0.0193 0.0000 0.9998
vn 0.9999 -0.0082 -0.0070
vn 1.0000 -0.0038 0.0054
vn 1.0000 -0.0013 -0.0000
vn 0.0275 -0.1756 0.9841
vn -0.0289 0.0000 0.9996
vn 0.1580 0.1034 0.9820
vn 0.0000 0.0069 -1.0000
vn 0.0000 -0.0049 -1.0000
vn 0.9997 -0.0238 0.0000
vn -0.4531 -0.8915 0.0000
vn 0.0000 -0.8915 -0.4531
vn -0.0000 -0.8915 0.4531
vn 0.4531 -0.8915 0.0000
vn 0.5798 0.8148 0.0000
vn 0.5978 0.8017 0.0000
vn -0.0357 -0.0861 0.9956
vn -0.0861 0.0357 0.9956
vn -0.0861 0.0357 -0.9956
vn 0.0357 -0.0861 0.9956
vn 0.0357 -0.0861 -0.9956
vn 0.0861 -0.0357 0.9956
vn 0.0357 0.0861 0.9956
vn 0.0483 0.0200 -0.9986
vn 0.1043 0.0432 -0.9936
vn 0.0200 -0.0483 -0.9986
vn 0.0421 -0.0175 -0.9990
vn 0.1043 -0.0432 0.9936
vn -0.0483 0.0200 -0.9986
vn -0.0175 0.0421 -0.9990
vn -0.0432 -0.1043 -0.9936
vn 0.0483 -0.0200 -0.9986
vn -0.0421 -0.0175 -0.9990
vn -0.1043 -0.0432 0.9936
vn 0.0200 0.0483 0.9986
vn -0.0421 0.0175 -0.9990
vn 0.0432 0.1043 0.9936
vn 0.0200 -0.0483 0.9986
vn 0.0175 -0.0421 0.9990
vn 0.0432 0.1043 -0.9936
vn 0.0200 0.0483 -0.9986
vn -0.0421 -0.0175 0.9990
vn 0.0432 -0.1043 -0.9936
vn -0.0483 0.0200 0.9986
vn -0.0175 0.0421 0.9990
vn -0.1043 0.0432 0.9936
vn -0.0483 -0.0200 -0.9986
vn -0.5798 -0.8148 0.0000
vn -0.0861 -0.0357 0.9956
vn -0.0357 -0.0861 -0.9956
vn 0.0357 0.0861 -0.9956
vn 0.0861 -0.0357 -0.9956
vn -0.0357 0.0861 -0.9956
vn -0.0861 -0.0357 -0.9956
vn 0.0861 0.0357 -0.9956
vn 0.0861 0.0357 0.9956
vn -0.0421 0.0175 0.9990
vn 0.0175 -0.0421 -0.9990
vn 0.0421 -0.0175 0.9990
vn 0.0175 0.0421 0.9990
vn -0.0175 -0.0421 0.9990
vn 0.0175 0.0421 -0.9990
vn 0.0421 0.0175 -0.9990
vn -0.0175 -0.0421 -0.9990
vn -0.0200 0.0483 -0.9986
vn -0.0483 -0.0200 0.9986
vn 0.0483 0.0200 0.9986
vn 0.0483 -0.0200 0.9986
vn -0.0200 -0.0483 0.9986
vn -0.0200 -0.0483 -0.9986
vn 0.0421 0.0175 0.9990
vn -0.0200 0.0483 0.9986
vn -0.5978 -0.8017 0.0000
vn 0.1043 0.0432 0.9936
vn 0.1043 -0.0432 -0.9936
vn -0.0357 0.0861 0.9956
vn -0.0432 -0.1043 0.9936
vn -0.0432 0.1043 -0.9936
vn 0.0432 -0.1043 0.9936
vn -0.1043 -0.0432 -0.9936
vn -0.1043 0.0432 -0.9936
vn -0.0432 0.1043 0.9936
vn -0.0000 0.0049 1.0000
vn -0.9997 0.0238 0.0000
vn 0.9994 0.0337 0.0000
vn -0.9994 -0.0337 0.0000
vn -0.0000 -0.0069 1.0000
g Crane_2_Crane_2_Collor_Material
usemtl Collor_Material
s off
f 7/1/1 8/2/1 4/3/1
f 5/4/1 14/5/1 6/6/1
f 15/7/2 12/8/2 9/9/2 8/10/2
f 5/11/1 4/12/1 8/13/1 13/14/1
f 7/15/1 6/16/1 14/17/1 15/18/1
f 105/19/3 240/20/3 241/21/3 103/22/3
f 10/23/4 11/24/4 14/25/4 13/26/4
f 100/27/5 87/28/5 86/29/5 101/30/5
f 129/31/6 131/32/6 250/33/6 248/34/6
f 125/35/7 127/36/7 246/37/7 244/38/7
f 55/39/8 57/40/8 72/41/8 71/42/8
f 70/43/8 73/44/8 56/45/8 54/46/8
f 65/47/6 67/48/6 82/49/6 80/50/6
f 63/51/3 61/52/3 59/53/3
f 87/54/8 88/55/8 89/56/8 86/57/8
f 300/58/1 297/59/1 296/60/1 293/61/1
f 131/62/3 147/63/3 149/64/3 133/65/3
f 240/66/9 243/67/9 122/68/9 120/69/9
f 83/70/3 99/71/3 101/72/3 85/73/3
f 82/74/10 98/75/10 96/76/10 80/77/10
f 129/78/3 145/79/3 147/80/3 131/81/3
f 74/82/10 76/83/10 92/84/10 90/85/10
f 82/86/10 84/87/10 100/88/10 98/89/10
f 77/90/7 79/91/7 62/92/7 60/93/7
f 75/94/3 91/95/3 93/96/3 77/97/3
f 130/98/10 132/99/10 148/100/10 146/101/10
f 90/102/11 92/103/11 93/104/11 91/105/11
f 127/106/12 129/107/12 248/108/12 246/109/12
f 123/110/3 121/111/3 137/112/3 139/113/3
f 73/114/3 70/115/3 86/116/3 89/117/3
f 72/118/10 88/119/10 87/120/10 71/121/10
f 81/122/3 79/123/3 95/124/3 97/125/3
f 132/126/10 119/127/10 135/128/10 148/129/10
f 126/130/10 128/131/10 144/132/10 142/133/10
f 127/134/3 143/135/3 145/136/3 129/137/3
f 85/138/3 101/139/3 86/140/3 70/141/3
f 69/142/5 55/143/5 71/144/5 84/145/5
f 59/146/11 61/147/11 76/148/11 74/149/11
f 75/150/11 77/151/11 60/152/11 58/153/11
f 253/154/5 241/155/5 119/156/5 132/157/5
f 67/158/13 69/159/13 84/160/13 82/161/13
f 247/162/12 249/163/12 128/164/12 126/165/12
f 122/166/10 138/167/10 136/168/10 120/169/10
f 243/170/11 245/171/11 124/172/11 122/173/11
f 75/174/3 73/175/3 89/176/3 91/177/3
f 92/178/7 94/179/7 95/180/7 93/181/7
f 130/182/10 146/183/10 144/184/10 128/185/10
f 124/186/10 126/187/10 142/188/10 140/189/10
f 122/190/10 124/191/10 140/192/10 138/193/10
f 251/194/13 253/195/13 132/196/13 130/197/13
f 74/198/10 90/199/10 88/200/10 72/201/10
f 83/202/3 81/203/3 97/204/3 99/205/3
f 123/206/3 139/207/3 141/208/3 125/209/3
f 80/210/10 96/211/10 94/212/10 78/213/10
f 77/214/3 93/215/3 95/216/3 79/217/3
f 125/218/3 141/219/3 143/220/3 127/221/3
f 84/222/10 71/223/10 87/224/10 100/225/10
f 133/226/3 149/227/3 134/228/3 118/229/3
f 76/230/10 78/231/10 94/232/10 92/233/10
f 121/234/3 118/235/3 134/236/3 137/237/3
f 120/238/10 136/239/10 135/240/10 119/241/10
f 94/242/12 96/243/12 97/244/12 95/245/12
f 68/246/10 56/247/10 60/248/10 64/249/10
f 63/250/12 65/251/12 80/252/12 78/253/12
f 123/254/11 125/255/11 244/256/11 242/257/11
f 118/258/8 121/259/8 239/260/8 238/261/8
f 96/262/6 98/263/6 99/264/6 97/265/6
f 57/266/9 59/267/9 74/268/9 72/269/9
f 241/270/8 240/271/8 120/272/8 119/273/8
f 296/274/2 295/275/2 294/276/2 293/277/2
f 98/278/13 100/279/13 101/280/13 99/281/13
f 133/282/5 118/283/5 238/284/5 252/285/5
f 79/286/12 81/287/12 64/288/12 62/289/12
f 102/290/10 239/291/10 104/292/10
f 109/293/3 111/294/3 247/295/3 245/296/3
f 104/297/10 242/298/10 106/299/10
f 107/300/3 109/301/3 245/302/3 243/303/3
f 108/304/10 242/305/10 244/306/10
f 110/307/10 244/308/10 246/309/10
f 112/310/10 246/311/10 248/312/10
f 111/313/3 249/314/3 247/315/3
f 113/316/3 251/317/3 249/318/3
f 114/319/10 112/320/10 248/321/10 250/322/10
f 117/323/3 251/324/3 115/325/3
f 116/326/10 238/327/10 102/328/10
f 103/329/3 253/330/3 117/331/3
f 275/332/14 277/333/14 276/334/14 273/335/14
f 73/336/9 75/337/9 58/338/9 56/339/9
f 88/340/9 90/341/9 91/342/9 89/343/9
f 83/344/13 85/345/13 68/346/13 66/347/13
f 131/348/13 133/349/13 252/350/13 250/351/13
f 121/352/9 123/353/9 242/354/9 239/355/9
f 272/356/15 280/357/15 279/358/15
f 270/359/16 275/360/16 280/361/16 338/362/16
f 279/363/17 280/364/17 274/365/17 278/366/17
f 280/367/18 275/368/18 273/369/18 274/370/18
f 270/371/19 277/372/19 275/373/19
f 249/374/6 251/375/6 130/376/6 128/377/6
f 81/378/6 83/379/6 66/380/6 64/381/6
f 289/382/4 292/383/4 298/384/4
f 292/385/4 291/386/4 300/387/4
f 245/388/7 247/389/7 126/390/7 124/391/7
f 299/392/20 298/393/20 294/394/20 295/395/20
f 300/396/10 293/397/10 294/398/10 298/399/10
f 290/400/4 289/401/4 299/402/4
f 291/403/4 290/404/4 297/405/4
f 297/406/3 299/407/3 295/408/3 296/409/3
f 85/410/5 70/411/5 54/412/5 68/413/5
f 61/414/7 63/415/7 78/416/7 76/417/7
f 277/418/21 279/419/21 278/420/21 276/421/21
f 11/422/3 12/423/3 15/424/3 14/425/3
f 272/426/22 279/427/22 277/428/22 271/429/22
f 9/430/23 12/431/24 11/432/25 10/433/26
f 8/434/10 9/435/10 10/436/10 13/437/10
f 7/438/1 15/439/1 8/440/1
f 5/441/1 13/442/1 14/443/1
f 114/444/10 250/445/10 252/446/10 116/447/10
f 59/448/3 57/449/3 55/450/3
f 55/451/3 69/452/3 59/453/3
f 69/454/3 67/455/3 59/456/3
f 67/457/3 65/458/3 59/459/3
f 65/460/3 63/461/3 59/462/3
f 68/463/10 54/464/10 56/465/10
f 56/466/10 58/467/10 60/468/10
f 60/469/10 62/470/10 64/471/10
f 64/472/10 66/473/10 68/474/10
f 102/475/10 238/476/10 239/477/10
f 104/478/10 239/479/10 242/480/10
f 108/481/10 106/482/10 242/483/10
f 110/484/10 108/485/10 244/486/10
f 112/487/10 110/488/10 246/489/10
f 111/490/3 113/491/3 249/492/3
f 113/493/3 115/494/3 251/495/3
f 117/496/3 253/497/3 251/498/3
f 116/499/10 252/500/10 238/501/10
f 103/502/3 241/503/3 253/504/3
f 272/505/15 338/506/15 280/507/15
f 270/508/19 271/509/19 277/510/19
f 289/511/4 298/512/4 299/513/4
f 292/514/4 300/515/4 298/516/4
f 290/517/4 299/518/4 297/519/4
f 291/520/4 297/521/4 300/522/4
f 107/523/3 243/524/3 240/525/3 105/526/3
f 304/527/27 305/528/27 317/529/27 315/530/27
f 323/531/3 3/532/3 322/533/3
f 301/534/28 289/535/28 290/536/28 302/537/28
f 321/538/4 1/539/4 2/540/4
f 333/541/29 334/542/29 335/543/29
f 312/544/30 310/545/30 301/546/30 302/547/30
f 336/548/31 340/549/31 339/550/31 337/551/31
f 313/552/32 334/553/32 303/554/32
f 272/555/33 318/556/33 336/557/33 338/558/33
f 310/559/34 325/560/34 326/561/34 301/562/34
f 319/563/35 349/564/35 351/565/35
f 346/566/10 19/567/10 20/568/10
f 303/569/36 304/570/36 315/571/36 313/572/36
f 115/573/13 267/574/13 269/575/13 117/576/13
f 320/577/3 350/578/3 347/579/3 21/580/3
f 18/581/3 17/582/3 351/583/3 320/584/3
f 108/585/11 260/586/11 258/587/11 106/588/11
f 117/589/5 269/590/5 257/591/5 103/592/5
f 308/593/37 287/594/37 286/595/37 309/596/37
f 110/597/7 262/598/7 260/599/7 108/600/7
f 104/601/8 255/602/8 254/603/8 102/604/8
f 306/605/38 285/606/38 288/607/38 307/608/38
f 107/609/11 259/610/11 261/611/11 109/612/11
f 281/613/39 306/614/39 307/615/39 283/616/39
f 109/617/7 261/618/7 263/619/7 111/620/7
f 112/621/12 264/622/12 262/623/12 110/624/12
f 324/625/40 330/626/41 331/627/42 327/628/42
f 111/629/12 263/630/12 265/631/12 113/632/12
f 284/633/43 308/634/43 309/635/43 282/636/43
f 106/637/9 258/638/9 255/639/9 104/640/9
f 103/641/8 257/642/8 256/643/8 105/644/8
f 1/645/44 3/646/44 312/647/44 311/648/44
f 319/649/45 20/650/45 348/651/45 349/652/45
f 113/653/6 265/654/6 267/655/6 115/656/6
f 327/657/46 292/658/46 289/659/46 301/660/46
f 263/661/3 261/662/3 259/663/3
f 114/664/6 266/665/6 264/666/6 112/667/6
f 116/668/13 268/669/13 266/670/13 114/671/13
f 18/672/47 320/673/47 345/674/47 342/675/47
f 105/676/9 256/677/9 259/678/9 107/679/9
f 102/680/5 254/681/5 268/682/5 116/683/5
f 270/684/48 314/685/49 316/686/50 271/687/48
f 343/688/10 344/689/10 319/690/10 16/691/10
f 19/692/51 346/693/51 320/694/51 21/695/51
f 323/696/52 2/697/52 325/698/52 310/699/52
f 307/700/3 287/701/3 308/702/3
f 306/703/10 286/704/10 285/705/10
f 305/706/53 7/707/53 4/708/53 332/709/53
f 329/710/54 331/711/54 330/712/54
f 302/713/44 311/714/44 312/715/44
f 304/716/55 6/717/55 7/718/55 305/719/55
f 332/720/56 4/721/56 5/722/56 303/723/56
f 5/724/57 6/725/57 304/726/57 303/727/57
f 317/728/58 340/729/59 336/730/60 318/731/60
f 281/732/10 309/733/10 306/734/10
f 283/735/3 308/736/3 284/737/3
f 327/738/46 301/739/46 326/740/46
f 324/741/61 311/742/62 330/743/63
f 324/744/64 326/745/64 325/746/64
f 16/747/35 319/748/35 351/749/35 17/750/35
f 315/751/65 317/752/65 318/753/66 316/754/67
f 334/755/68 341/756/68 317/757/69
f 337/758/70 339/759/70 313/760/70 314/761/70
f 316/762/71 318/763/72 272/764/73 271/765/73
f 337/766/74 314/767/74 270/768/74 338/769/74
f 314/770/75 313/771/76 315/772/76 316/773/77
f 258/774/10 260/775/10 264/776/10 268/777/10
f 320/778/3 351/779/3 350/780/3
f 321/781/78 323/782/78 322/783/78
f 2/784/52 323/785/52 321/786/52
f 324/787/79 327/788/79 326/789/79
f 302/790/80 328/791/80 329/792/80
f 329/793/81 328/794/81 331/795/81
f 342/796/82 345/797/82 344/798/82 343/799/82
f 333/800/83 335/801/83 332/802/83
f 336/803/84 337/804/84 338/805/84
f 339/806/85 340/807/85 341/808/85
f 344/809/86 345/810/86 346/811/86
f 350/812/87 349/813/87 348/814/87 347/815/87
f 349/816/88 350/817/88 351/818/88
f 3/819/4 1/820/4 322/821/4
f 322/822/4 1/823/4 321/824/4
f 313/825/32 339/826/32 341/827/32
f 341/828/32 334/829/32 313/830/32
f 334/831/32 333/832/32 303/833/32
f 1/834/10 311/835/10 325/836/10 2/837/10
f 20/838/10 319/839/10 346/840/10
f 319/841/10 344/842/10 346/843/10
f 259/844/3 256/845/3 257/846/3
f 257/847/3 269/848/3 259/849/3
f 269/850/3 267/851/3 259/852/3
f 267/853/3 265/854/3 259/855/3
f 265/856/3 263/857/3 259/858/3
f 268/859/10 254/860/10 255/861/10
f 255/862/10 258/863/10 268/864/10
f 260/865/10 262/866/10 264/867/10
f 264/868/10 266/869/10 268/870/10
f 307/871/3 288/872/3 287/873/3
f 306/874/10 309/875/10 286/876/10
f 311/877/89 302/878/89 330/879/89
f 330/880/89 302/881/89 329/882/89
f 335/883/53 305/884/53 332/885/53
f 281/886/10 282/887/10 309/888/10
f 283/889/3 307/890/3 308/891/3
f 311/892/90 324/893/90 325/894/90
f 340/895/91 317/896/92 341/897/68
f 317/898/93 305/899/68 334/900/68
f 305/901/68 335/902/68 334/903/68
f 346/904/51 345/905/51 320/906/51
f 323/907/3 310/908/3 312/909/3 3/910/3
f 328/911/80 290/912/80 291/913/80
f 290/914/80 328/915/80 302/916/80
f 327/917/94 328/918/94 292/919/94
f 292/920/95 328/921/95 291/922/95
f 328/923/96 327/924/96 331/925/96
f 303/926/56 333/927/56 332/928/56
f 202/929/13 204/930/13 205/931/13 203/932/13
f 26/933/97 352/934/97 354/935/97 27/936/97
f 192/937/9 194/938/9 195/939/9 193/940/9
f 354/941/98 352/942/98 24/943/98 25/944/98
f 355/945/99 23/946/99 24/947/99 352/948/99
f 28/949/100 34/950/100 27/951/100
f 27/952/101 36/953/101 26/954/101
f 30/955/10 37/956/10 35/957/10 31/958/10
f 29/959/102 37/960/102 28/961/102
f 26/962/103 35/963/103 29/964/103
f 42/965/104 46/966/104 47/967/104 43/968/104
f 36/969/2 40/970/2 35/971/2
f 36/972/2 39/973/2 41/974/2
f 35/975/2 38/976/2 31/977/2
f 49/978/3 53/979/3 51/980/3 45/981/3
f 41/982/3 39/983/3 43/984/3 45/985/3
f 182/986/9 181/987/9 184/988/9 183/989/9
f 48/990/10 44/991/10 50/992/10 52/993/10
f 38/994/105 42/995/105 43/996/105 39/997/105
f 45/998/3 43/999/3 47/1000/3 49/1001/3
f 212/1002/7 214/1003/7 215/1004/7 213/1005/7
f 226/1006/7 228/1007/7 229/1008/7 227/1009/7
f 48/1010/2 52/1011/2 53/1012/2 49/1013/2
f 179/1014/12 178/1015/12 187/1016/12 186/1017/12
f 214/1018/12 216/1019/12 217/1020/12 215/1021/12
f 200/1022/6 202/1023/6 203/1024/6 201/1025/6
f 46/1026/2 48/1027/2 49/1028/2 47/1029/2
f 234/1030/5 237/1031/5 236/1032/5 235/1033/5
f 222/1034/9 224/1035/9 225/1036/9 223/1037/9
f 178/1038/6 177/1039/6 188/1040/6 187/1041/6
f 33/1042/4 34/1043/4 37/1044/4 30/1045/4
f 220/1046/5 207/1047/5 206/1048/5 221/1049/5
f 218/1050/13 220/1051/13 221/1052/13 219/1053/13
f 228/1054/12 230/1055/12 231/1056/12 229/1057/12
f 216/1058/6 218/1059/6 219/1060/6 217/1061/6
f 210/1062/11 212/1063/11 213/1064/11 211/1065/11
f 153/1066/106 183/1067/106 184/1068/106 156/1069/106
f 171/1070/107 189/1071/107 174/1072/107 152/1073/107
f 135/1074/108 175/1075/108 176/1076/108 148/1077/108
f 159/1078/109 156/1079/109 184/1080/109 185/1081/109
f 140/1082/110 180/1083/110 181/1084/110 138/1085/110
f 162/1086/111 159/1087/111 185/1088/111 186/1089/111
f 165/1090/112 187/1091/112 188/1092/112 168/1093/112
f 166/1094/113 216/1095/113 214/1096/113 163/1097/113
f 164/1098/114 167/1099/114 230/1100/114 228/1101/114
f 160/1102/115 212/1103/115 210/1104/115 157/1105/115
f 162/1106/116 198/1107/116 196/1108/116 159/1109/116
f 143/1110/117 141/1111/117 227/1112/117 229/1113/117
f 172/1114/118 151/1115/118 207/1116/118 220/1117/118
f 171/1118/119 204/1119/119 202/1120/119 168/1121/119
f 155/1122/120 158/1123/120 224/1124/120 222/1125/120
f 163/1126/121 214/1127/121 212/1128/121 160/1129/121
f 152/1130/122 153/1131/122 192/1132/122 191/1133/122
f 134/1134/123 236/1135/123 223/1136/123 137/1137/123
f 167/1138/124 217/1139/124 219/1140/124 170/1141/124
f 152/1142/125 191/1143/125 204/1144/125 171/1145/125
f 145/1146/126 231/1147/126 233/1148/126 147/1149/126
f 161/1150/127 158/1151/127 211/1152/127 213/1153/127
f 160/1154/128 157/1155/128 195/1156/128 197/1157/128
f 167/1158/129 170/1159/129 232/1160/129 230/1161/129
f 166/1162/130 169/1163/130 218/1164/130 216/1165/130
f 151/1166/131 190/1167/131 193/1168/131 154/1169/131
f 161/1170/132 226/1171/132 224/1172/132 158/1173/132
f 150/1174/133 173/1175/133 221/1176/133 206/1177/133
f 172/1178/134 169/1179/134 203/1180/134 205/1181/134
f 134/1182/135 149/1183/135 235/1184/135 236/1185/135
f 151/1186/136 154/1187/136 208/1188/136 207/1189/136
f 207/1190/8 208/1191/8 209/1192/8 206/1193/8
f 51/1194/137 53/1195/137 52/1196/137 50/1197/137
f 152/1198/138 174/1199/138 183/1200/138 153/1201/138
f 138/1202/139 181/1203/139 182/1204/139 136/1205/139
f 144/1206/140 146/1207/140 177/1208/140 178/1209/140
f 142/1210/141 179/1211/141 180/1212/141 140/1213/141
f 148/1214/142 176/1215/142 177/1216/142 146/1217/142
f 135/1218/143 136/1219/143 182/1220/143 175/1221/143
f 142/1222/144 144/1223/144 178/1224/144 179/1225/144
f 162/1226/145 186/1227/145 187/1228/145 165/1229/145
f 32/1230/3 36/1231/3 34/1232/3 33/1233/3
f 208/1234/9 210/1235/9 211/1236/9 209/1237/9
f 151/1238/146 172/1239/146 205/1240/146 190/1241/146
f 159/1242/147 196/1243/147 194/1244/147 156/1245/147
f 163/1246/148 160/1247/148 197/1248/148 199/1249/148
f 166/1250/149 201/1251/149 203/1252/149 169/1253/149
f 154/1254/150 193/1255/150 195/1256/150 157/1257/150
f 165/1258/151 168/1259/151 202/1260/151 200/1261/151
f 162/1262/152 165/1263/152 200/1264/152 198/1265/152
f 153/1266/153 156/1267/153 194/1268/153 192/1269/153
f 196/1270/7 198/1271/7 199/1272/7 197/1273/7
f 191/1274/8 192/1275/8 193/1276/8 190/1277/8
f 45/1278/4 51/1279/4 50/1280/4 44/1281/4
f 204/1282/5 191/1283/5 190/1284/5 205/1285/5
f 169/1286/154 172/1287/154 220/1288/154 218/1289/154
f 150/1290/155 206/1291/155 209/1292/155 155/1293/155
f 164/1294/156 215/1295/156 217/1296/156 167/1297/156
f 164/1298/157 161/1299/157 213/1300/157 215/1301/157
f 155/1302/158 209/1303/158 211/1304/158 158/1305/158
f 154/1306/159 157/1307/159 210/1308/159 208/1309/159
f 163/1310/160 199/1311/160 201/1312/160 166/1313/160
f 173/1314/161 170/1315/161 219/1316/161 221/1317/161
f 224/1318/11 226/1319/11 227/1320/11 225/1321/11
f 230/1322/6 232/1323/6 233/1324/6 231/1325/6
f 176/1326/5 175/1327/5 174/1328/5 189/1329/5
f 194/1330/11 196/1331/11 197/1332/11 195/1333/11
f 41/1334/162 45/1335/162 44/1336/162 40/1337/162
f 180/1338/7 179/1339/7 186/1340/7 185/1341/7
f 143/1342/163 229/1343/163 231/1344/163 145/1345/163
f 164/1346/164 228/1347/164 226/1348/164 161/1349/164
f 171/1350/165 168/1351/165 188/1352/165 189/1353/165
f 137/1354/166 223/1355/166 225/1356/166 139/1357/166
f 170/1358/167 173/1359/167 234/1360/167 232/1361/167
f 141/1362/168 139/1363/168 225/1364/168 227/1365/168
f 150/1366/169 155/1367/169 222/1368/169 237/1369/169
f 150/1370/170 237/1371/170 234/1372/170 173/1373/170
f 31/1374/2 38/1375/2 39/1376/2 32/1377/2
f 149/1378/171 147/1379/171 233/1380/171 235/1381/171
f 177/1382/13 176/1383/13 189/1384/13 188/1385/13
f 181/1386/11 180/1387/11 185/1388/11 184/1389/11
f 237/1390/8 222/1391/8 223/1392/8 236/1393/8
f 175/1394/8 182/1395/8 183/1396/8 174/1397/8
f 353/1398/172 22/1399/172 23/1400/172 355/1401/172
f 353/1402/173 354/1403/173 25/1404/173 22/1405/173
f 198/1406/12 200/1407/12 201/1408/12 199/1409/12
f 26/1410/174 29/1411/174 355/1412/174 352/1413/174
f 44/1414/10 48/1415/10 46/1416/10 42/1417/10
f 232/1418/13 234/1419/13 235/1420/13 233/1421/13
f 27/1422/175 354/1423/175 353/1424/175 28/1425/175
f 29/1426/176 28/1427/176 353/1428/176 355/1429/176
f 28/1430/100 37/1431/100 34/1432/100
f 27/1433/101 34/1434/101 36/1435/101
f 29/1436/102 35/1437/102 37/1438/102
f 26/1439/103 36/1440/103 35/1441/103
f 36/1442/2 41/1443/2 40/1444/2
f 36/1445/2 32/1446/2 39/1447/2
f 35/1448/2 40/1449/2 38/1450/2
f 40/1451/10 44/1452/10 42/1453/10 38/1454/10
f 23/1455/1 22/1456/1 25/1457/1 24/1458/1
