# Blender v3.0.0 OBJ File: 'aa.blend'
# www.blender.org
mtllib Crate_1.mtl
o Crate_1
v 0.446116 0.031431 -0.286793
v 0.446116 0.408856 -0.286793
v 0.413487 0.031431 -0.286793
v 0.413487 0.408856 -0.286793
v 0.446116 0.031431 -0.319422
v 0.446116 0.408856 -0.319423
v 0.413487 0.031431 -0.319422
v 0.413487 0.408856 -0.319423
v 0.446116 0.031431 0.286793
v 0.446116 0.408857 0.286792
v 0.413487 0.031431 0.286793
v 0.413487 0.408857 0.286792
v 0.446116 0.031431 0.319422
v 0.446116 0.408857 0.319422
v 0.413487 0.031431 0.319422
v 0.413487 0.408857 0.319422
v -0.446116 0.031431 -0.286793
v -0.446116 0.408856 -0.286793
v -0.413487 0.031431 -0.286793
v -0.413487 0.408856 -0.286793
v -0.446116 0.031431 -0.319422
v -0.446116 0.408856 -0.319422
v -0.413487 0.031431 -0.319422
v -0.413487 0.408856 -0.319422
v -0.446116 0.031431 0.286793
v -0.446116 0.408857 0.286792
v -0.413487 0.031431 0.286793
v -0.413487 0.408857 0.286792
v -0.446116 0.031431 0.319422
v -0.446116 0.408857 0.319422
v -0.413487 0.031431 0.319422
v -0.413487 0.408857 0.319422
v 0.446118 0.323112 0.319422
v 0.446118 0.032969 -0.319422
v 0.446118 0.323111 -0.319422
v 0.446118 0.129684 0.319422
v 0.446118 0.226398 0.319422
v -0.446115 0.129684 0.319422
v -0.446115 0.129683 -0.319422
v 0.446118 0.226397 -0.319422
v 0.446118 0.129683 -0.319422
v 0.446118 0.237979 0.319422
v -0.446115 0.237979 0.319422
v 0.446118 0.143396 0.319422
v -0.446115 0.143396 0.319422
v -0.446115 0.032970 0.319422
v -0.446115 0.032969 -0.319422
v 0.446118 0.032970 0.319422
v -0.446115 0.323112 0.319422
v -0.446115 0.323111 -0.319422
v -0.446115 0.237978 -0.319422
v 0.446118 0.237978 -0.319422
v -0.446115 0.226398 0.319422
v -0.446115 0.226397 -0.319422
v -0.446115 0.143395 -0.319422
v 0.446118 0.143395 -0.319422
v -0.446115 0.032970 0.336963
v 0.446118 0.032970 0.336963
v 0.446118 0.237979 0.336963
v 0.446118 0.323112 0.336963
v -0.446115 0.323112 0.336963
v -0.446115 0.129683 -0.336963
v -0.446115 0.032969 -0.336963
v 0.446118 0.032969 -0.336963
v -0.446115 0.323111 -0.336964
v 0.446118 0.323111 -0.336964
v 0.446118 0.129683 -0.336963
v -0.446115 0.226397 -0.336963
v 0.446118 0.226397 -0.336964
v 0.446118 0.129684 0.336963
v -0.446115 0.129684 0.336963
v 0.446118 0.226398 0.336963
v -0.446115 0.226398 0.336963
v -0.446115 0.237979 0.336963
v 0.446118 0.237978 -0.336964
v -0.446115 0.237978 -0.336963
v -0.446115 0.143395 -0.336963
v 0.446118 0.143396 0.336963
v -0.446115 0.143396 0.336963
v 0.446118 0.143395 -0.336964
v -0.458829 0.129684 0.319422
v -0.458829 0.032970 0.319422
v -0.458829 0.032969 -0.319422
v -0.458829 0.323112 0.319422
v -0.458829 0.323111 -0.319422
v 0.458833 0.129683 -0.319422
v 0.458833 0.032969 -0.319422
v 0.458833 0.032970 0.319422
v 0.458833 0.323111 -0.319422
v 0.458833 0.323112 0.319422
v 0.458833 0.129684 0.319422
v 0.458833 0.143396 0.319422
v 0.458833 0.226398 0.319422
v 0.458833 0.226397 -0.319422
v -0.458829 0.129683 -0.319422
v -0.458829 0.226398 0.319422
v -0.458829 0.226397 -0.319422
v -0.458829 0.237978 -0.319422
v 0.458833 0.237978 -0.319422
v 0.458833 0.237979 0.319422
v -0.458829 0.237979 0.319422
v -0.458829 0.143396 0.319422
v 0.458833 0.143395 -0.319422
v -0.458829 0.143395 -0.319422
v 0.446118 0.020740 0.217100
v 0.446118 0.020739 0.114875
v -0.446114 0.020739 0.114875
v -0.446114 0.020740 0.217100
v 0.446118 0.020740 0.202606
v -0.446114 0.020740 0.202606
v 0.446118 0.020739 0.102634
v 0.446118 0.020739 0.012650
v -0.446114 0.020740 0.331857
v 0.446118 0.020740 0.331857
v -0.446114 0.020739 0.012650
v -0.446114 0.020739 0.102634
v -0.446114 0.032970 0.331857
v 0.446118 0.032970 0.331857
v 0.446118 0.032969 0.102634
v 0.446118 0.032969 0.012650
v -0.446114 0.032969 0.012650
v 0.446118 0.032969 0.217100
v -0.446114 0.032969 0.217100
v 0.446118 0.032969 0.114875
v -0.446114 0.032969 0.114875
v -0.446114 0.032969 0.102634
v 0.446118 0.032969 0.202606
v -0.446114 0.032969 0.202606
v 0.446118 0.020739 -0.105795
v 0.446118 0.020739 -0.208020
v -0.446114 0.020739 -0.208020
v -0.446114 0.020739 -0.105795
v 0.446118 0.020739 -0.120289
v -0.446114 0.020739 -0.120289
v 0.446118 0.020739 -0.220261
v 0.446118 0.020739 -0.331857
v -0.446114 0.020739 -0.003570
v 0.446118 0.020739 -0.003570
v -0.446114 0.020739 -0.331857
v -0.446114 0.020739 -0.220261
v -0.446114 0.032969 -0.003570
v 0.446118 0.032969 -0.003570
v 0.446118 0.032969 -0.220261
v 0.446118 0.032969 -0.331857
v -0.446114 0.032969 -0.331857
v 0.446118 0.032969 -0.105795
v -0.446114 0.032969 -0.105795
v 0.446118 0.032969 -0.208020
v -0.446114 0.032969 -0.208020
v -0.446114 0.032969 -0.220261
v 0.446118 0.032969 -0.120289
v -0.446114 0.032969 -0.120289
v -0.376628 -0.000000 -0.328824
v -0.376628 0.000000 0.328824
v -0.274403 0.000000 0.328824
v -0.274403 -0.000000 -0.328824
v -0.274403 0.020740 0.328824
v -0.274403 0.020739 -0.328824
v -0.376628 0.020739 -0.328824
v -0.376628 0.020740 0.328824
v 0.376631 -0.000000 -0.328825
v 0.376631 0.000000 0.328824
v 0.274406 0.000000 0.328824
v 0.274406 -0.000000 -0.328824
v 0.274406 0.020740 0.328824
v 0.274406 0.020739 -0.328824
v 0.376631 0.020739 -0.328824
v 0.376631 0.020740 0.328824
vt 0.845404 0.654345
vt 0.859182 0.654345
vt 0.859182 0.813709
vt 0.845404 0.813709
vt 0.514998 0.378308
vt 0.514998 0.001573
vt 0.552993 0.001573
vt 0.552993 0.378308
vt 0.897212 0.761326
vt 0.897212 0.920690
vt 0.883434 0.920690
vt 0.883434 0.761326
vt 0.181786 0.672450
vt 0.181786 0.686228
vt 0.168008 0.686228
vt 0.168008 0.672450
vt 0.104775 0.660789
vt 0.104775 0.647012
vt 0.264139 0.647012
vt 0.264139 0.660789
vt 0.211892 0.663935
vt 0.217260 0.663935
vt 0.217260 0.699882
vt 0.211892 0.699882
vt 0.097477 0.699329
vt 0.092313 0.699329
vt 0.092313 0.662285
vt 0.097477 0.662285
vt 0.385892 0.378308
vt 0.385892 0.001573
vt 0.426728 0.001573
vt 0.426728 0.378308
vt 0.001573 0.001573
vt 0.050028 0.001573
vt 0.050028 0.378308
vt 0.001573 0.378308
vt 0.356805 0.699812
vt 0.356805 0.686035
vt 0.370582 0.686035
vt 0.370582 0.699812
vt 0.876105 0.813709
vt 0.862328 0.813709
vt 0.862328 0.654345
vt 0.876105 0.654345
vt 0.225775 0.699882
vt 0.220407 0.699882
vt 0.220407 0.663935
vt 0.225775 0.663935
vt 0.109802 0.920698
vt 0.096024 0.920698
vt 0.096024 0.761334
vt 0.109802 0.761334
vt 0.203377 0.663935
vt 0.208746 0.663935
vt 0.208746 0.699882
vt 0.203377 0.699882
vt 0.728679 0.654346
vt 0.728679 0.813709
vt 0.714901 0.813709
vt 0.714901 0.654346
vt 0.118553 0.672246
vt 0.118553 0.686023
vt 0.104775 0.686023
vt 0.104775 0.672246
vt 0.745602 0.654346
vt 0.745602 0.813709
vt 0.731825 0.813709
vt 0.731825 0.654346
vt 0.228921 0.663935
vt 0.234290 0.663935
vt 0.234290 0.699882
vt 0.228921 0.699882
vt 0.556139 0.001573
vt 0.593183 0.001573
vt 0.593183 0.378308
vt 0.556139 0.378308
vt 0.385892 0.670595
vt 0.391261 0.670595
vt 0.391261 0.705642
vt 0.385892 0.705642
vt 0.748748 0.813709
vt 0.748748 0.654346
vt 0.762526 0.654346
vt 0.762526 0.813709
vt 0.121699 0.686023
vt 0.121699 0.672246
vt 0.135476 0.672246
vt 0.135476 0.686023
vt 0.001573 0.758189
vt 0.001573 0.381454
vt 0.037520 0.381454
vt 0.037520 0.758189
vt 0.596329 0.001573
vt 0.633372 0.001573
vt 0.633372 0.378308
vt 0.596329 0.378308
vt 0.470711 0.378308
vt 0.429874 0.378308
vt 0.429874 0.001573
vt 0.470711 0.001573
vt 0.255624 0.698982
vt 0.250256 0.698982
vt 0.250256 0.663935
vt 0.255624 0.663935
vt 0.053174 0.378308
vt 0.053174 0.001573
vt 0.101629 0.001573
vt 0.101629 0.378308
vt 0.511852 0.378307
vt 0.473857 0.378307
vt 0.473857 0.001573
vt 0.511852 0.001573
vt 0.429055 0.662285
vt 0.429055 0.667449
vt 0.385892 0.667449
vt 0.385892 0.662285
vt 0.258770 0.663935
vt 0.264139 0.663935
vt 0.264139 0.698982
vt 0.258770 0.698982
vt 0.251617 0.001573
vt 0.294781 0.001573
vt 0.294781 0.378308
vt 0.251617 0.378308
vt 0.713752 0.001573
vt 0.713752 0.378308
vt 0.676708 0.378308
vt 0.676708 0.001573
vt 0.279188 0.650861
vt 0.286595 0.650861
vt 0.286595 0.685907
vt 0.279188 0.685907
vt 0.382746 0.001573
vt 0.382746 0.378308
vt 0.341909 0.378308
vt 0.341909 0.001573
vt 0.595180 0.381454
vt 0.595180 0.758189
vt 0.560133 0.758189
vt 0.560133 0.381454
vt 0.440716 0.692340
vt 0.440716 0.654345
vt 0.445880 0.654345
vt 0.445880 0.692340
vt 0.297927 0.001573
vt 0.338763 0.001573
vt 0.338763 0.378308
vt 0.297927 0.378308
vt 0.374520 0.593095
vt 0.104775 0.593095
vt 0.104775 0.557149
vt 0.374520 0.557149
vt 0.598326 0.381454
vt 0.633372 0.381454
vt 0.633372 0.758189
vt 0.598326 0.758189
vt 0.468148 0.381454
vt 0.468148 0.651199
vt 0.432201 0.651199
vt 0.432201 0.381454
vt 0.096024 0.758188
vt 0.096024 0.722242
vt 0.472759 0.722242
vt 0.472759 0.758188
vt 0.248471 0.001573
vt 0.248471 0.378308
vt 0.205308 0.378308
vt 0.205308 0.001573
vt 0.381135 0.682454
vt 0.373728 0.682454
vt 0.373728 0.646507
vt 0.381135 0.646507
vt 0.349780 0.693094
vt 0.336003 0.693094
vt 0.336003 0.679316
vt 0.349780 0.679316
vt 0.910912 0.381454
vt 0.918318 0.381454
vt 0.918318 0.758179
vt 0.910911 0.758179
vt 0.370582 0.644696
vt 0.365418 0.644696
vt 0.365418 0.596241
vt 0.370582 0.596241
vt 0.993058 0.001573
vt 0.998427 0.001573
vt 0.998427 0.271318
vt 0.993058 0.271318
vt 0.264139 0.610019
vt 0.104775 0.610019
vt 0.104775 0.596241
vt 0.264139 0.596241
vt 0.835020 0.001573
vt 0.835020 0.271318
vt 0.799973 0.271318
vt 0.799973 0.001573
vt 0.050028 0.758180
vt 0.042622 0.758180
vt 0.042621 0.381454
vt 0.050028 0.381454
vt 0.346556 0.640224
vt 0.353962 0.640224
vt 0.353962 0.676170
vt 0.346556 0.676170
vt 0.837913 0.651199
vt 0.802866 0.651199
vt 0.802866 0.381454
vt 0.837913 0.381454
vt 0.336003 0.637078
vt 0.336003 0.596241
vt 0.343409 0.596241
vt 0.343409 0.637078
vt 0.904872 0.001573
vt 0.904872 0.378299
vt 0.897465 0.378299
vt 0.897465 0.001573
vt 0.394407 0.670595
vt 0.408184 0.670595
vt 0.408184 0.684373
vt 0.394407 0.684373
vt 0.104775 0.643866
vt 0.104775 0.630088
vt 0.264139 0.630088
vt 0.264139 0.643866
vt 0.907765 0.758179
vt 0.900358 0.758179
vt 0.900358 0.381454
vt 0.907765 0.381454
vt 0.363176 0.647842
vt 0.370582 0.647842
vt 0.370582 0.682889
vt 0.363176 0.682889
vt 0.908019 0.001573
vt 0.915425 0.001573
vt 0.915425 0.378298
vt 0.908018 0.378298
vt 0.343409 0.676170
vt 0.336003 0.676170
vt 0.336003 0.640224
vt 0.343409 0.640224
vt 0.928871 0.758179
vt 0.921465 0.758179
vt 0.921464 0.381454
vt 0.928871 0.381454
vt 0.883766 0.001573
vt 0.883766 0.378299
vt 0.876359 0.378299
vt 0.876358 0.001573
vt 0.918572 0.001573
vt 0.925978 0.001573
vt 0.925978 0.378298
vt 0.918571 0.378298
vt 0.886659 0.758180
vt 0.879252 0.758180
vt 0.879251 0.381454
vt 0.886659 0.381454
vt 0.242805 0.698982
vt 0.237436 0.698982
vt 0.237436 0.663935
vt 0.242805 0.663935
vt 0.932017 0.718482
vt 0.937386 0.718482
vt 0.937386 0.988227
vt 0.932017 0.988227
vt 0.673562 0.001573
vt 0.673562 0.378308
vt 0.636518 0.378308
vt 0.636518 0.001573
vt 0.796827 0.271318
vt 0.755991 0.271318
vt 0.755991 0.001573
vt 0.796827 0.001573
vt 0.841059 0.651199
vt 0.841059 0.381454
vt 0.876105 0.381454
vt 0.876105 0.651199
vt 0.374520 0.514910
vt 0.104775 0.514910
vt 0.104775 0.474073
vt 0.374520 0.474074
vt 0.322304 0.637078
vt 0.314898 0.637078
vt 0.314898 0.596241
vt 0.322304 0.596241
vt 0.268636 0.642551
vt 0.276042 0.642551
vt 0.276042 0.678497
vt 0.268636 0.678497
vt 0.551242 0.924080
vt 0.545874 0.924080
vt 0.545873 0.654345
vt 0.551242 0.654345
vt 0.964764 0.988212
vt 0.959395 0.988212
vt 0.959394 0.718478
vt 0.964764 0.718478
vt 0.984543 0.001573
vt 0.989912 0.001573
vt 0.989912 0.271318
vt 0.984543 0.271318
vt 0.985399 0.718477
vt 0.990767 0.718477
vt 0.990767 0.988222
vt 0.985399 0.988222
vt 0.985856 0.381454
vt 0.991225 0.381454
vt 0.991225 0.651199
vt 0.985856 0.651199
vt 0.191921 0.663935
vt 0.191921 0.669304
vt 0.151085 0.669304
vt 0.151085 0.663935
vt 0.941449 0.718482
vt 0.946817 0.718482
vt 0.946818 0.988227
vt 0.941449 0.988227
vt 0.151085 0.672450
vt 0.164862 0.672450
vt 0.164862 0.686228
vt 0.151085 0.686228
vt 0.279188 0.639405
vt 0.279188 0.596241
vt 0.287945 0.596241
vt 0.287945 0.639405
vt 0.950422 0.718482
vt 0.955791 0.718482
vt 0.955791 0.988216
vt 0.950421 0.988216
vt 0.429055 0.381454
vt 0.429055 0.659139
vt 0.385892 0.659139
vt 0.385892 0.381454
vt 0.814769 0.654345
vt 0.828547 0.654345
vt 0.828547 0.813709
vt 0.814769 0.813709
vt 0.982253 0.988212
vt 0.976884 0.988212
vt 0.976883 0.718477
vt 0.982252 0.718477
vt 0.289741 0.650861
vt 0.297148 0.650861
vt 0.297148 0.685907
vt 0.289741 0.685907
vt 0.894319 0.378299
vt 0.886912 0.378299
vt 0.886912 0.001573
vt 0.894319 0.001573
vt 0.837062 0.924079
vt 0.831694 0.924079
vt 0.831693 0.654345
vt 0.837062 0.654345
vt 0.437570 0.654345
vt 0.437570 0.695182
vt 0.432201 0.695182
vt 0.432201 0.654345
vt 0.936531 0.378298
vt 0.929125 0.378298
vt 0.929124 0.001573
vt 0.936531 0.001573
vt 0.373728 0.596241
vt 0.378892 0.596241
vt 0.378892 0.643361
vt 0.373728 0.643361
vt 0.425108 0.684373
vt 0.411330 0.684373
vt 0.411330 0.670595
vt 0.425108 0.670595
vt 0.101629 0.381454
vt 0.101629 0.659139
vt 0.058466 0.659139
vt 0.058466 0.381454
vt 0.325450 0.596241
vt 0.332857 0.596241
vt 0.332857 0.637078
vt 0.325450 0.637078
vt 0.973737 0.988212
vt 0.968369 0.988212
vt 0.968368 0.718477
vt 0.973737 0.718477
vt 0.324730 0.691697
vt 0.319361 0.691697
vt 0.319361 0.650861
vt 0.324730 0.650861
vt 0.897212 0.381454
vt 0.897212 0.758180
vt 0.889805 0.758180
vt 0.889805 0.381454
vt 0.528949 0.654345
vt 0.542727 0.654345
vt 0.542727 0.813709
vt 0.528949 0.813709
vt 0.900358 0.920690
vt 0.900358 0.761326
vt 0.914135 0.761326
vt 0.914135 0.920690
vt 0.714901 0.651199
vt 0.714901 0.381454
vt 0.755737 0.381454
vt 0.755737 0.651199
vt 0.346556 0.596241
vt 0.353962 0.596241
vt 0.353962 0.637078
vt 0.346556 0.637078
vt 0.752844 0.001573
vt 0.752844 0.378308
vt 0.716898 0.378308
vt 0.716898 0.001573
vt 0.155041 0.001573
vt 0.202162 0.001573
vt 0.202162 0.378308
vt 0.155041 0.378308
vt 0.966597 0.335450
vt 0.966597 0.001593
vt 0.972424 0.001573
vt 0.972424 0.335431
vt 0.967910 0.715331
vt 0.967910 0.381474
vt 0.973737 0.381454
vt 0.973737 0.715312
vt 0.955791 0.715336
vt 0.949964 0.715314
vt 0.949964 0.381454
vt 0.955791 0.381476
vt 0.104775 0.381454
vt 0.382460 0.381455
vt 0.382460 0.424618
vt 0.104775 0.424618
vt 0.957624 0.001573
vt 0.963451 0.001595
vt 0.963451 0.335455
vt 0.957624 0.335433
vt 0.104775 0.470927
vt 0.104775 0.427764
vt 0.382460 0.427764
vt 0.382460 0.470927
vt 0.462500 0.691389
vt 0.457336 0.691389
vt 0.457336 0.654345
vt 0.462500 0.654345
vt 0.940990 0.381454
vt 0.946818 0.381476
vt 0.946818 0.715336
vt 0.940990 0.715314
vt 0.975570 0.335450
vt 0.975570 0.001593
vt 0.981397 0.001573
vt 0.981397 0.335430
vt 0.311751 0.639405
vt 0.302994 0.639405
vt 0.302994 0.596241
vt 0.311751 0.596241
vt 0.072243 0.821649
vt 0.058466 0.821649
vt 0.058466 0.662285
vt 0.072243 0.662285
vt 0.873212 0.271318
vt 0.838166 0.271318
vt 0.838166 0.001573
vt 0.873212 0.001573
vt 0.517046 0.381454
vt 0.552993 0.381454
vt 0.552993 0.651199
vt 0.517046 0.651199
vt 0.711755 0.381454
vt 0.711755 0.758189
vt 0.676708 0.758189
vt 0.676708 0.381454
vt 0.104775 0.554003
vt 0.104775 0.518056
vt 0.374520 0.518056
vt 0.374520 0.554003
vt 0.475905 0.381453
vt 0.511852 0.381453
vt 0.511852 0.758188
vt 0.475905 0.758188
vt 0.671565 0.758189
vt 0.636518 0.758189
vt 0.636518 0.381454
vt 0.671565 0.381454
vt 0.976883 0.715331
vt 0.976883 0.381474
vt 0.982710 0.381454
vt 0.982710 0.715312
vt 0.932017 0.381454
vt 0.937844 0.381476
vt 0.937844 0.715336
vt 0.932017 0.715314
vt 0.775913 0.654345
vt 0.775914 0.988202
vt 0.770086 0.988222
vt 0.770086 0.654364
vt 0.300294 0.650861
vt 0.307700 0.650861
vt 0.307700 0.685907
vt 0.300294 0.685907
vt 0.104775 0.663935
vt 0.147939 0.663935
vt 0.147939 0.669099
vt 0.104775 0.669099
vt 0.948651 0.001573
vt 0.954478 0.001595
vt 0.954478 0.335455
vt 0.948651 0.335433
vt 0.195067 0.663935
vt 0.200231 0.663935
vt 0.200231 0.700979
vt 0.195067 0.700979
vt 0.454190 0.692340
vt 0.449026 0.692340
vt 0.449026 0.654345
vt 0.454190 0.654345
vt 0.787817 0.932031
vt 0.779060 0.932031
vt 0.779060 0.654345
vt 0.787817 0.654345
vt 0.802866 0.932027
vt 0.802866 0.654345
vt 0.811623 0.654345
vt 0.811623 0.932027
vt 0.790963 0.932027
vt 0.790963 0.654345
vt 0.799720 0.654345
vt 0.799720 0.932027
vt 0.465646 0.691389
vt 0.465646 0.654345
vt 0.470810 0.654345
vt 0.470810 0.691389
vt 0.316215 0.691697
vt 0.310846 0.691697
vt 0.310846 0.650861
vt 0.316215 0.650861
vt 0.267285 0.596241
vt 0.276042 0.596241
vt 0.276042 0.639405
vt 0.267285 0.639405
vt 0.939677 0.001573
vt 0.945505 0.001595
vt 0.945505 0.335455
vt 0.939677 0.335433
vt 0.958937 0.715332
vt 0.958937 0.381474
vt 0.964764 0.381454
vt 0.964764 0.715312
vt 0.758883 0.651199
vt 0.758884 0.381454
vt 0.799720 0.381454
vt 0.799720 0.651199
vt 0.104775 0.001573
vt 0.151895 0.001573
vt 0.151895 0.378308
vt 0.104775 0.378308
vt 0.291091 0.639405
vt 0.291091 0.596241
vt 0.299848 0.596241
vt 0.299848 0.639405
vt 0.362272 0.596241
vt 0.362272 0.644696
vt 0.357108 0.644696
vt 0.357108 0.596241
vt 0.517046 0.654345
vt 0.525803 0.654345
vt 0.525803 0.932031
vt 0.517046 0.932031
vt 0.279188 0.647715
vt 0.279188 0.642551
vt 0.326308 0.642551
vt 0.326308 0.647715
vt 0.104775 0.613165
vt 0.264139 0.613165
vt 0.264139 0.626942
vt 0.104775 0.626942
vt 0.089167 0.662285
vt 0.089167 0.821649
vt 0.075389 0.821649
vt 0.075389 0.662285
vn 1.0000 0.0000 0.0000
vn 0.0000 -1.0000 0.0000
vn -1.0000 -0.0000 0.0000
vn 0.0000 1.0000 0.0000
vn 0.0000 -0.0000 -1.0000
vn 0.0000 0.0000 1.0000
g Crate_1_Crate_1_Collor_Material
usemtl Collor_Material
s off
f 24/1/1 20/2/1 19/3/1 23/4/1
f 115/5/2 112/6/2 111/7/2 116/8/2
f 8/9/3 7/10/3 3/11/3 4/12/3
f 2/13/4 6/14/4 8/15/4 4/16/4
f 12/17/5 10/18/5 9/19/5 11/20/5
f 101/21/6 43/22/6 49/23/6 84/24/6
f 125/25/3 107/26/3 110/27/3 128/28/3
f 41/29/6 39/30/6 47/31/6 34/32/6
f 123/33/4 117/34/4 118/35/4 122/36/4
f 10/37/4 12/38/4 16/39/4 14/40/4
f 20/41/6 18/42/6 17/43/6 19/44/6
f 85/45/5 50/46/5 51/47/5 98/48/5
f 10/49/1 14/50/1 13/51/1 9/52/1
f 99/53/5 52/54/5 35/55/5 89/56/5
f 2/57/1 1/58/1 5/59/1 6/60/1
f 18/61/4 20/62/4 24/63/4 22/64/4
f 28/65/5 27/66/5 25/67/5 26/68/5
f 90/69/6 33/70/6 42/71/6 100/72/6
f 125/73/4 128/74/4 127/75/4 124/76/4
f 97/77/5 54/78/5 55/79/5 104/80/5
f 32/81/1 31/82/1 27/83/1 28/84/1
f 26/85/4 30/86/4 32/87/4 28/88/4
f 35/89/6 50/90/6 51/91/6 52/92/6
f 149/93/4 152/94/4 151/95/4 148/96/4
f 67/97/5 64/98/5 63/99/5 62/100/5
f 103/101/5 56/102/5 40/103/5 94/104/5
f 108/105/2 105/106/2 114/107/2 113/108/2
f 121/109/4 126/110/4 119/111/4 120/112/4
f 129/113/1 146/114/1 142/115/1 138/116/1
f 93/117/6 37/118/6 44/119/6 92/120/6
f 147/121/4 141/122/4 142/123/4 146/124/4
f 131/125/2 130/126/2 133/127/2 134/128/2
f 73/129/3 53/130/3 45/131/3 79/132/3
f 38/133/5 36/134/5 48/135/5 46/136/5
f 53/137/5 37/138/5 44/139/5 45/140/5
f 120/141/1 119/142/1 111/143/1 112/144/1
f 71/145/6 57/146/6 58/147/6 70/148/6
f 50/149/1 49/150/1 43/151/1 51/152/1
f 73/153/6 79/154/6 78/155/6 72/156/6
f 33/157/3 35/158/3 52/159/3 42/160/3
f 66/161/5 75/162/5 76/163/5 65/164/5
f 132/165/2 129/166/2 138/167/2 137/168/2
f 66/169/1 35/170/1 52/171/1 75/172/1
f 29/173/2 25/174/2 27/175/2 31/176/2
f 65/177/4 50/178/4 35/179/4 66/180/4
f 105/181/1 122/182/1 118/183/1 114/184/1
f 45/185/2 102/186/2 104/187/2 55/188/2
f 30/189/6 29/190/6 31/191/6 32/192/6
f 37/193/3 40/194/3 56/195/3 44/196/3
f 72/197/4 37/198/4 53/199/4 73/200/4
f 61/201/3 49/202/3 43/203/3 74/204/3
f 93/205/1 92/206/1 103/207/1 94/208/1
f 57/209/3 71/210/3 38/211/3 46/212/3
f 78/213/2 79/214/2 45/215/2 44/216/2
f 13/217/2 15/218/2 11/219/2 9/220/2
f 14/221/6 16/222/6 15/223/6 13/224/6
f 64/225/2 34/226/2 47/227/2 63/228/2
f 78/229/1 44/230/1 37/231/1 72/232/1
f 68/233/4 54/234/4 40/235/4 69/236/4
f 76/237/3 51/238/3 50/239/3 65/240/3
f 75/241/2 52/242/2 51/243/2 76/244/2
f 58/245/2 57/246/2 46/247/2 48/248/2
f 62/249/4 39/250/4 41/251/4 67/252/4
f 60/253/4 33/254/4 49/255/4 61/256/4
f 102/257/6 45/258/6 53/259/6 96/260/6
f 46/261/2 82/262/2 83/263/2 47/264/2
f 107/265/2 106/266/2 109/267/2 110/268/2
f 95/269/3 83/270/3 82/271/3 81/272/3
f 54/273/1 53/274/1 45/275/1 55/276/1
f 39/277/1 38/278/1 46/279/1 47/280/1
f 36/281/1 70/282/1 58/283/1 48/284/1
f 59/285/1 42/286/1 33/287/1 60/288/1
f 56/289/2 103/290/2 92/291/2 44/292/2
f 34/293/2 87/294/2 88/295/2 48/296/2
f 36/297/4 91/298/4 86/299/4 41/300/4
f 37/301/4 93/302/4 94/303/4 40/304/4
f 43/305/2 101/306/2 98/307/2 51/308/2
f 38/309/6 81/310/6 82/311/6 46/312/6
f 33/313/4 90/314/4 89/315/4 35/316/4
f 5/317/2 1/318/2 3/319/2 7/320/2
f 161/321/5 164/322/5 166/323/5 167/324/5
f 50/325/4 85/326/4 84/327/4 49/328/4
f 154/329/2 153/330/2 156/331/2 155/332/2
f 22/333/5 24/334/5 23/335/5 21/336/5
f 54/337/4 97/338/4 96/339/4 53/340/4
f 69/341/1 40/342/1 56/343/1 80/344/1
f 70/345/4 36/346/4 38/347/4 71/348/4
f 39/349/4 95/350/4 81/351/4 38/352/4
f 83/353/5 95/354/5 39/355/5 47/356/5
f 80/357/2 56/358/2 55/359/2 77/360/2
f 143/361/1 135/362/1 136/363/1 144/364/1
f 21/365/2 23/366/2 19/367/2 17/368/2
f 159/369/4 160/370/4 157/371/4 158/372/4
f 63/373/3 47/374/3 39/375/3 62/376/3
f 52/377/2 99/378/2 100/379/2 42/380/2
f 91/381/6 36/382/6 48/383/6 88/384/6
f 59/385/2 74/386/2 43/387/2 42/388/2
f 18/389/3 22/390/3 21/391/3 17/392/3
f 26/393/3 25/394/3 29/395/3 30/396/3
f 36/397/3 41/398/3 34/399/3 48/400/3
f 67/401/1 41/402/1 34/403/1 64/404/1
f 49/405/5 33/406/5 42/407/5 43/408/5
f 145/409/4 150/410/4 143/411/4 144/412/4
f 142/413/6 141/414/6 137/415/6 138/416/6
f 119/417/6 126/418/6 116/419/6 111/420/6
f 144/421/5 136/422/5 139/423/5 145/424/5
f 166/425/4 165/426/4 168/427/4 167/428/4
f 108/429/5 123/430/5 122/431/5 105/432/5
f 162/433/2 163/434/2 164/435/2 161/436/2
f 127/437/1 109/438/1 106/439/1 124/440/1
f 115/441/5 121/442/5 120/443/5 112/444/5
f 143/445/6 150/446/6 140/447/6 135/448/6
f 162/449/6 168/450/6 165/451/6 163/452/6
f 16/453/3 12/454/3 11/455/3 15/456/3
f 97/457/3 104/458/3 102/459/3 96/460/3
f 85/461/3 98/462/3 101/463/3 84/464/3
f 40/465/6 54/466/6 55/467/6 56/468/6
f 90/469/1 100/470/1 99/471/1 89/472/1
f 61/473/6 74/474/6 59/475/6 60/476/6
f 69/477/5 80/478/5 77/479/5 68/480/5
f 127/481/6 128/482/6 110/483/6 109/484/6
f 107/485/5 125/486/5 124/487/5 106/488/5
f 151/489/6 152/490/6 134/491/6 133/492/6
f 77/493/3 55/494/3 54/495/3 68/496/3
f 141/497/3 147/498/3 132/499/3 137/500/3
f 132/501/5 147/502/5 146/503/5 129/504/5
f 149/505/3 131/506/3 134/507/3 152/508/3
f 121/509/3 115/510/3 116/511/3 126/512/3
f 159/513/3 153/514/3 154/515/3 160/516/3
f 167/517/1 168/518/1 162/519/1 161/520/1
f 165/521/3 166/522/3 164/523/3 163/524/3
f 148/525/1 151/526/1 133/527/1 130/528/1
f 41/529/5 86/530/5 87/531/5 34/532/5
f 153/533/5 159/534/5 158/535/5 156/536/5
f 131/537/5 149/538/5 148/539/5 130/540/5
f 118/541/6 117/542/6 113/543/6 114/544/6
f 86/545/1 91/546/1 88/547/1 87/548/1
f 140/549/2 139/550/2 136/551/2 135/552/2
f 157/553/6 160/554/6 154/555/6 155/556/6
f 117/557/3 123/558/3 108/559/3 113/560/3
f 157/561/1 155/562/1 156/563/1 158/564/1
f 145/565/3 139/566/3 140/567/3 150/568/3
f 6/569/5 5/570/5 7/571/5 8/572/5
f 4/573/6 3/574/6 1/575/6 2/576/6
