# Blender v3.0.0 OBJ File: 'aa.blend'
# www.blender.org
mtllib Crate_2.mtl
o Crate_2
v 0.446116 0.031431 -0.286793
v 0.446116 0.408856 -0.286793
v 0.413487 0.031431 -0.286793
v 0.413487 0.408856 -0.286793
v 0.446116 0.031431 -0.319422
v 0.446116 0.408856 -0.319423
v 0.413487 0.031431 -0.319422
v 0.413487 0.408856 -0.319423
v 0.446116 0.031431 0.286793
v 0.446116 0.408857 0.286792
v 0.413487 0.031431 0.286793
v 0.413487 0.408857 0.286792
v 0.446116 0.031431 0.319422
v 0.446116 0.408857 0.319422
v 0.413487 0.031431 0.319422
v 0.413487 0.408857 0.319422
v -0.446116 0.031431 -0.286793
v -0.446792 0.353173 -0.288394
v -0.413487 0.031431 -0.286793
v -0.414776 0.358330 -0.285615
v -0.446116 0.031431 -0.319422
v -0.444827 0.357631 -0.320600
v -0.413487 0.031431 -0.319422
v -0.412811 0.362788 -0.317821
v -0.446116 0.031431 0.286793
v -0.395278 0.385262 0.236014
v -0.413487 0.031431 0.286793
v -0.362648 0.385262 0.236014
v -0.446116 0.031431 0.319422
v -0.395278 0.385262 0.268644
v -0.413487 0.031431 0.319422
v -0.362648 0.385262 0.268644
v 0.446118 0.323112 0.319422
v 0.446118 0.032969 -0.319422
v 0.446118 0.323111 -0.319422
v 0.446118 0.129684 0.319422
v 0.446118 0.226398 0.319422
v -0.446115 0.129684 0.319422
v -0.446115 0.129683 -0.319422
v 0.446118 0.226397 -0.319422
v 0.446118 0.129683 -0.319422
v 0.446118 0.237979 0.319422
v -0.446115 0.237979 0.319422
v 0.446118 0.143396 0.319422
v -0.446115 0.143396 0.319422
v -0.446115 0.032970 0.319422
v -0.446115 0.032969 -0.319422
v 0.446118 0.032970 0.319422
v -0.446115 0.323112 0.319422
v -0.446115 0.323111 -0.319422
v -0.446115 0.237978 -0.319422
v 0.446118 0.237978 -0.319422
v -0.446115 0.226398 0.319422
v -0.446115 0.226397 -0.319422
v -0.446115 0.143395 -0.319422
v 0.446118 0.143395 -0.319422
v -0.446115 0.032970 0.336963
v 0.446118 0.032970 0.336963
v 0.446118 0.237979 0.336963
v 0.446118 0.323112 0.336963
v -0.446115 0.323112 0.336963
v -0.446115 0.129683 -0.336963
v -0.446115 0.032969 -0.336963
v 0.446118 0.032969 -0.336963
v -0.446115 0.323111 -0.336964
v 0.446118 0.323111 -0.336964
v 0.446118 0.129683 -0.336963
v -0.446115 0.226397 -0.336963
v 0.446118 0.226397 -0.336964
v 0.446118 0.129684 0.336963
v -0.446115 0.129684 0.336963
v 0.446118 0.226398 0.336963
v -0.446115 0.226398 0.336963
v -0.446115 0.237979 0.336963
v 0.446118 0.237978 -0.336964
v -0.446115 0.237978 -0.336963
v -0.446115 0.143395 -0.336963
v 0.446118 0.143396 0.336963
v -0.446115 0.143396 0.336963
v 0.446118 0.143395 -0.336964
v -0.458829 0.129684 0.319422
v -0.458829 0.032970 0.319422
v -0.458829 0.032969 -0.319422
v -0.458829 0.323112 0.319422
v -0.458829 0.323111 -0.319422
v 0.458833 0.129683 -0.319422
v 0.458833 0.032969 -0.319422
v 0.458833 0.032970 0.319422
v 0.458833 0.323111 -0.319422
v 0.458833 0.323112 0.319422
v 0.458833 0.129684 0.319422
v 0.458833 0.143396 0.319422
v 0.458833 0.226398 0.319422
v 0.458833 0.226397 -0.319422
v -0.458829 0.129683 -0.319422
v -0.458829 0.226398 0.319422
v -0.458829 0.226397 -0.319422
v -0.458829 0.237978 -0.319422
v 0.458833 0.237978 -0.319422
v 0.458833 0.237979 0.319422
v -0.458829 0.237979 0.319422
v -0.458829 0.143396 0.319422
v 0.458833 0.143395 -0.319422
v -0.458829 0.143395 -0.319422
v 0.446118 0.020740 0.217100
v 0.446118 0.020739 0.114875
v -0.446114 0.020739 0.114875
v -0.446114 0.020740 0.217100
v 0.446118 0.020740 0.202606
v -0.446114 0.020740 0.202606
v 0.446118 0.020739 0.102634
v 0.446118 0.020739 0.012650
v -0.446114 0.020740 0.331857
v 0.446118 0.020740 0.331857
v -0.446114 0.020739 0.012650
v -0.446114 0.020739 0.102634
v -0.446114 0.032970 0.331857
v 0.446118 0.032970 0.331857
v 0.446118 0.032969 0.102634
v 0.446118 0.032969 0.012650
v -0.446114 0.032969 0.012650
v 0.446118 0.032969 0.217100
v -0.446114 0.032969 0.217100
v 0.446118 0.032969 0.114875
v -0.446114 0.032969 0.114875
v -0.446114 0.032969 0.102634
v 0.446118 0.032969 0.202606
v -0.446114 0.032969 0.202606
v 0.446118 0.020739 -0.105795
v 0.446118 0.020739 -0.208020
v -0.446114 0.020739 -0.208020
v -0.446114 0.020739 -0.105795
v 0.446118 0.020739 -0.120289
v -0.446114 0.020739 -0.120289
v 0.446118 0.020739 -0.220261
v 0.446118 0.020739 -0.331857
v -0.446114 0.020739 -0.003570
v 0.446118 0.020739 -0.003570
v -0.446114 0.020739 -0.331857
v -0.446114 0.020739 -0.220261
v -0.446114 0.032969 -0.003570
v 0.446118 0.032969 -0.003570
v 0.446118 0.032969 -0.220261
v 0.446118 0.032969 -0.331857
v -0.446114 0.032969 -0.331857
v 0.446118 0.032969 -0.105795
v -0.446114 0.032969 -0.105795
v 0.446118 0.032969 -0.208020
v -0.446114 0.032969 -0.208020
v -0.446114 0.032969 -0.220261
v 0.446118 0.032969 -0.120289
v -0.446114 0.032969 -0.120289
v -0.376628 -0.000000 -0.328824
v -0.376628 0.000000 0.328824
v -0.274403 0.000000 0.328824
v -0.274403 -0.000000 -0.328824
v -0.274403 0.020740 0.328824
v -0.274403 0.020739 -0.328824
v -0.376628 0.020739 -0.328824
v -0.376628 0.020740 0.328824
v 0.376631 -0.000000 -0.328825
v 0.376631 0.000000 0.328824
v 0.274406 0.000000 0.328824
v 0.274406 -0.000000 -0.328824
v 0.274406 0.020740 0.328824
v 0.274406 0.020739 -0.328824
v 0.376631 0.020739 -0.328824
v 0.376631 0.020740 0.328824
v -0.149561 0.323111 -0.336964
v 0.171462 0.250945 -0.320569
v 0.171462 0.250945 -0.338110
v 0.171462 0.336078 -0.320569
v -0.107300 0.237978 -0.336964
v 0.171462 0.336078 -0.338110
v -0.149561 0.323111 -0.319422
v -0.107300 0.237978 -0.319422
v -0.446115 0.280545 -0.336964
v -0.107300 0.280545 -0.336964
v -0.107300 0.280545 -0.319422
v 0.007527 0.273065 -0.322505
v 0.007527 0.245458 -0.322505
v 0.007527 0.245458 -0.333881
v 0.007527 0.273065 -0.333881
v 0.251835 0.129683 -0.336963
v 0.251835 0.032969 -0.319422
v 0.251835 0.032969 -0.336963
v -0.093817 0.115676 -0.308288
v 0.251835 0.129683 -0.319422
v -0.093817 0.046976 -0.308288
v -0.093817 0.046976 -0.320748
v -0.093817 0.115676 -0.320748
v -0.396167 0.323112 0.336963
v -0.368040 0.237979 0.319422
v -0.368040 0.237979 0.336963
v -0.396167 0.323112 0.319422
v -0.111654 0.237979 0.336963
v -0.111654 0.237979 0.319422
v 0.166970 0.323112 0.319422
v 0.166970 0.323112 0.336963
v 0.446118 0.259309 0.336963
v -0.111654 0.259309 0.319422
v -0.111654 0.259309 0.336963
v -0.446115 0.280545 0.336963
v -0.368040 0.280545 0.336963
v -0.368040 0.280545 0.319422
v 0.151814 0.226398 0.336963
v 0.151814 0.143396 0.319422
v 0.151814 0.143396 0.336963
v 0.151814 0.226398 0.319422
v -0.157645 0.212073 0.325476
v -0.157645 0.157720 0.325476
v -0.157645 0.157720 0.336963
v -0.157645 0.212073 0.336963
v 0.088373 0.131853 0.335634
v -0.181160 0.032970 0.319422
v 0.088373 0.049793 0.335635
v -0.181160 0.129684 0.319422
v -0.181160 0.032970 0.336963
v -0.181161 0.129684 0.336963
v 0.088373 0.131853 0.320751
v 0.088373 0.049792 0.320751
v 0.446118 0.032969 -0.145595
v 0.458833 0.032969 -0.145594
v 0.446118 0.129683 -0.000000
v 0.458833 0.129683 -0.145595
v 0.446118 0.129683 -0.145595
v 0.446118 0.032969 -0.000000
v 0.458833 0.129683 -0.000000
v 0.458833 0.032969 -0.000000
v -0.114384 0.032969 -0.208020
v -0.166761 0.020739 -0.120289
v -0.114384 0.020739 -0.208020
v -0.166761 0.032969 -0.120289
v 0.076351 0.032969 -0.120289
v 0.076351 0.020739 -0.120289
v 0.023721 0.032969 -0.208020
v 0.023721 0.020739 -0.208020
v -0.212076 0.020739 -0.105795
v -0.157181 0.020739 -0.003570
v -0.212076 0.032969 -0.105795
v -0.157181 0.032969 -0.003570
v 0.141249 0.032969 -0.003570
v 0.141249 0.020739 -0.003570
v 0.171007 0.032969 -0.105795
v 0.171007 0.020739 -0.105795
v -0.166213 0.032969 0.012650
v -0.105516 0.020739 0.102634
v -0.166213 0.020739 0.012650
v -0.105516 0.032969 0.102634
v 0.096739 0.032969 0.012650
v 0.096739 0.020739 0.012650
v 0.066962 0.032969 0.102634
v 0.066962 0.020739 0.102634
v -0.024746 0.032969 0.114875
v -0.024746 0.020740 0.202606
v -0.024746 0.020739 0.114875
v -0.024746 0.032969 0.202606
v 0.091494 0.032372 0.119596
v 0.092978 0.021388 0.119353
v 0.104013 0.032320 0.198128
v 0.105496 0.021337 0.197885
v -0.424325 0.262342 0.266335
v -0.391872 0.259955 0.268739
v -0.394172 0.261428 0.301254
v -0.426625 0.263815 0.298850
vt 0.398637 0.925896
vt 0.390992 0.922746
vt 0.398637 0.904195
vt 0.706113 0.265001
vt 0.665984 0.133667
vt 0.706113 0.002086
vt 0.386821 0.925896
vt 0.379176 0.922746
vt 0.386821 0.904195
vt 0.319997 0.904195
vt 0.328265 0.904195
vt 0.328265 0.934269
vt 0.598453 0.900350
vt 0.578388 0.760565
vt 0.598453 0.760565
vt 0.702786 0.273215
vt 0.702786 0.293279
vt 0.665984 0.293279
vt 0.875167 0.046535
vt 0.875167 0.181509
vt 0.845848 0.174808
vt 0.309832 0.943319
vt 0.309832 0.904195
vt 0.315825 0.904195
vt 0.315825 0.943319
vt 0.303215 0.523728
vt 0.002086 0.523728
vt 0.002086 0.483599
vt 0.303215 0.483599
vt 0.801524 0.743189
vt 0.801524 0.758569
vt 0.786143 0.758569
vt 0.786143 0.743189
vt 0.905395 0.046535
vt 0.905395 0.224441
vt 0.890014 0.224441
vt 0.890014 0.046535
vt 0.208378 0.840132
vt 0.048672 0.840132
vt 0.048672 0.820068
vt 0.208378 0.820068
vt 0.808166 0.293015
vt 0.808166 0.115109
vt 0.823547 0.115109
vt 0.823547 0.293015
vt 0.048672 0.758653
vt 0.048672 0.719529
vt 0.187397 0.719529
vt 0.187397 0.758653
vt 0.960305 0.805143
vt 0.960305 0.964849
vt 0.952037 0.964849
vt 0.952037 0.805143
vt 0.417074 0.818560
vt 0.417074 0.833941
vt 0.401694 0.833941
vt 0.401694 0.818560
vt 0.191569 0.796581
vt 0.191569 0.788313
vt 0.228370 0.788313
vt 0.228370 0.796581
vt 0.618004 0.916758
vt 0.602624 0.916795
vt 0.602863 0.763032
vt 0.618004 0.760565
vt 0.927536 0.958894
vt 0.912156 0.958952
vt 0.912335 0.807292
vt 0.927536 0.805132
vt 0.578388 0.756393
vt 0.578388 0.612688
vt 0.626574 0.626715
vt 0.626574 0.756393
vt 0.253456 0.638249
vt 0.238094 0.639003
vt 0.238135 0.529251
vt 0.253456 0.527899
vt 0.710700 0.970796
vt 0.710700 0.860479
vt 0.716465 0.860479
vt 0.716465 0.970796
vt 0.223328 0.301272
vt 0.392142 0.300645
vt 0.392142 0.308913
vt 0.223328 0.308287
vt 0.779158 0.919254
vt 0.779123 0.810720
vt 0.794491 0.811329
vt 0.794491 0.920461
vt 0.924946 0.228612
vt 0.924946 0.384806
vt 0.909728 0.382776
vt 0.909566 0.228684
vt 0.987750 0.213709
vt 0.981985 0.213699
vt 0.982570 0.047227
vt 0.987750 0.046535
vt 0.646126 0.794765
vt 0.646126 0.948855
vt 0.630969 0.946479
vt 0.630745 0.794820
vt 0.399560 0.797523
vt 0.384180 0.797523
vt 0.384180 0.782143
vt 0.399560 0.782143
vt 0.269173 0.944324
vt 0.269173 0.904195
vt 0.275167 0.904195
vt 0.275167 0.944324
vt 0.524458 0.352975
vt 0.484329 0.352975
vt 0.484329 0.051845
vt 0.524458 0.051845
vt 0.822242 0.110874
vt 0.822242 0.070746
vt 0.828235 0.070746
vt 0.828235 0.110874
vt 0.233102 0.712017
vt 0.357992 0.712017
vt 0.357992 0.757605
vt 0.233102 0.757605
vt 0.399560 0.715390
vt 0.399560 0.777972
vt 0.384654 0.774181
vt 0.384554 0.712017
vt 0.352974 0.483876
vt 0.352974 0.652509
vt 0.314294 0.652275
vt 0.307387 0.483599
vt 0.552177 0.939941
vt 0.552177 0.891755
vt 0.557941 0.891755
vt 0.557941 0.939941
vt 0.805631 0.084022
vt 0.760043 0.084022
vt 0.760043 0.002086
vt 0.805631 0.002086
vt 0.295496 0.904195
vt 0.295496 0.943319
vt 0.289503 0.943319
vt 0.289503 0.904195
vt 0.411076 0.904195
vt 0.411076 0.924259
vt 0.402808 0.924259
vt 0.890858 0.002086
vt 0.890858 0.042214
vt 0.882590 0.022150
vt 0.239003 0.705620
vt 0.233102 0.668603
vt 0.399560 0.666492
vt 0.399560 0.707846
vt 0.760043 0.088194
vt 0.796845 0.088194
vt 0.796845 0.108258
vt 0.760043 0.108258
vt 0.931707 0.492733
vt 0.941323 0.358344
vt 0.941323 0.495671
vt 0.042215 0.710792
vt 0.042215 0.842373
vt 0.002086 0.842373
vt 0.305661 0.904195
vt 0.305661 0.943319
vt 0.299667 0.943319
vt 0.299667 0.904195
vt 0.578388 0.002086
vt 0.618517 0.002086
vt 0.618517 0.303216
vt 0.578388 0.303215
vt 0.048672 0.616644
vt 0.048672 0.584261
vt 0.214817 0.577658
vt 0.214817 0.623246
vt 0.755872 0.152651
vt 0.710284 0.152651
vt 0.710284 0.002086
vt 0.755872 0.002086
vt 0.183157 0.918798
vt 0.174888 0.918798
vt 0.174888 0.873211
vt 0.183157 0.873211
vt 0.398235 0.900024
vt 0.398235 0.891755
vt 0.523126 0.891755
vt 0.523126 0.900024
vt 0.375005 0.925896
vt 0.367360 0.907345
vt 0.375005 0.904195
vt 0.903298 0.002086
vt 0.903298 0.042215
vt 0.895030 0.022150
vt 0.093904 0.898090
vt 0.099669 0.898090
vt 0.099669 0.939444
vt 0.093904 0.939444
vt 0.991921 0.351835
vt 0.991921 0.201270
vt 0.997914 0.201270
vt 0.997914 0.351835
vt 0.844558 0.041702
vt 0.829177 0.041702
vt 0.829177 0.026321
vt 0.844558 0.026321
vt 0.432779 0.358443
vt 0.478366 0.358443
vt 0.478366 0.364437
vt 0.432779 0.364437
vt 0.929119 0.046535
vt 0.935112 0.046535
vt 0.935112 0.347654
vt 0.929118 0.347654
vt 0.570292 0.881590
vt 0.570292 0.887583
vt 0.269173 0.887584
vt 0.269173 0.881590
vt 0.800172 0.118423
vt 0.760043 0.118423
vt 0.760043 0.112429
vt 0.800172 0.112429
vt 0.977814 0.447939
vt 0.972049 0.447939
vt 0.972048 0.249323
vt 0.977814 0.249323
vt 0.942451 0.805143
vt 0.947865 0.805143
vt 0.947865 0.941284
vt 0.939597 0.941284
vt 0.002086 0.854813
vt 0.002086 0.846545
vt 0.422643 0.846545
vt 0.422643 0.854814
vt 0.760043 0.122594
vt 0.780108 0.122594
vt 0.780108 0.130862
vt 0.760043 0.130862
vt 0.042516 0.898090
vt 0.048509 0.898090
vt 0.048509 0.943678
vt 0.042516 0.943678
vt 0.750095 0.856308
vt 0.658516 0.856308
vt 0.658516 0.810720
vt 0.750095 0.810720
vt 0.907206 0.859826
vt 0.891825 0.859826
vt 0.891825 0.681920
vt 0.907206 0.681920
vt 0.056179 0.422654
vt 0.002086 0.422654
vt 0.002086 0.002086
vt 0.056178 0.002086
vt 0.932348 0.042215
vt 0.932348 0.002086
vt 0.938342 0.002086
vt 0.938342 0.042215
vt 0.837868 0.554042
vt 0.792280 0.554042
vt 0.792280 0.472105
vt 0.837868 0.472105
vt 0.630745 0.790593
vt 0.630745 0.612688
vt 0.646126 0.612688
vt 0.646126 0.790593
vt 0.191811 0.722915
vt 0.206814 0.719529
vt 0.206814 0.782111
vt 0.191569 0.784142
vt 0.784279 0.122594
vt 0.794333 0.122594
vt 0.794333 0.130862
vt 0.784279 0.130862
vt 0.269173 0.867253
vt 0.269173 0.858985
vt 0.532090 0.858985
vt 0.532090 0.867253
vt 0.962007 0.212888
vt 0.959613 0.046535
vt 0.967877 0.046796
vt 0.967877 0.213073
vt 0.366810 0.097604
vt 0.405490 0.097370
vt 0.405490 0.266003
vt 0.359903 0.266280
vt 0.886913 0.876737
vt 0.886913 0.929340
vt 0.881148 0.929340
vt 0.881148 0.876737
vt 0.664980 0.307387
vt 0.704104 0.307387
vt 0.704104 0.608517
vt 0.664980 0.608517
vt 0.566019 0.864582
vt 0.559633 0.856817
vt 0.566019 0.851565
vt 0.818071 0.070746
vt 0.818071 0.110874
vt 0.809802 0.080800
vt 0.741826 0.860479
vt 0.750095 0.860479
vt 0.750095 0.952058
vt 0.741826 0.952058
vt 0.806157 0.576366
vt 0.846241 0.574473
vt 0.846241 0.704082
vt 0.806157 0.705975
vt 0.617513 0.608517
vt 0.578388 0.608517
vt 0.578388 0.307387
vt 0.617513 0.307387
vt 0.426603 0.051845
vt 0.434871 0.051845
vt 0.434871 0.091974
vt 0.426603 0.091974
vt 0.523891 0.364208
vt 0.482538 0.364208
vt 0.482538 0.358443
vt 0.523891 0.358443
vt 0.548005 0.891755
vt 0.548005 0.930880
vt 0.539737 0.930880
vt 0.539737 0.891755
vt 0.955442 0.347665
vt 0.949448 0.347665
vt 0.949448 0.046535
vt 0.955441 0.046535
vt 0.931707 0.499842
vt 0.937701 0.499842
vt 0.937701 0.800971
vt 0.931707 0.800971
vt 0.945277 0.347665
vt 0.939283 0.347665
vt 0.939283 0.046535
vt 0.945277 0.046535
vt 0.958030 0.800972
vt 0.952037 0.800972
vt 0.952037 0.499842
vt 0.958030 0.499842
vt 0.002086 0.946253
vt 0.002086 0.898090
vt 0.007850 0.898090
vt 0.007850 0.946253
vt 0.570292 0.871425
vt 0.570292 0.877418
vt 0.269173 0.877419
vt 0.269173 0.871425
vt 0.265002 0.869039
vt 0.002086 0.869039
vt 0.002086 0.858985
vt 0.265002 0.858985
vt 0.947865 0.800972
vt 0.941872 0.800972
vt 0.941872 0.499842
vt 0.947865 0.499842
vt 0.232915 0.873211
vt 0.232915 0.918798
vt 0.224647 0.918798
vt 0.224647 0.873211
vt 0.044501 0.706621
vt 0.002086 0.706621
vt 0.002086 0.541935
vt 0.044501 0.527899
vt 0.002086 0.885650
vt 0.141871 0.885650
vt 0.141871 0.893919
vt 0.002086 0.893919
vt 0.911378 0.499842
vt 0.917371 0.499842
vt 0.917371 0.800961
vt 0.911377 0.800961
vt 0.253456 0.658555
vt 0.238076 0.658555
vt 0.238076 0.643174
vt 0.253456 0.643174
vt 0.568033 0.307387
vt 0.573798 0.307387
vt 0.573798 0.362081
vt 0.568033 0.362081
vt 0.921543 0.499842
vt 0.927536 0.499842
vt 0.927536 0.800961
vt 0.921542 0.800961
vt 0.371462 0.738846
vt 0.380383 0.712017
vt 0.380383 0.756818
vt 0.568972 0.368608
vt 0.568972 0.416793
vt 0.458654 0.416793
vt 0.432779 0.368608
vt 0.814425 0.845818
vt 0.814425 0.981959
vt 0.809011 0.981959
vt 0.806157 0.845818
vt 0.756461 0.718178
vt 0.708275 0.718178
vt 0.708275 0.588500
vt 0.756461 0.574473
vt 0.905395 0.228612
vt 0.905395 0.406519
vt 0.890014 0.406519
vt 0.890014 0.228612
vt 0.870150 0.002086
vt 0.878419 0.002086
vt 0.878419 0.042214
vt 0.870150 0.042214
vt 0.567878 0.939941
vt 0.562113 0.939941
vt 0.562113 0.891755
vt 0.567878 0.891755
vt 0.826531 0.303215
vt 0.665984 0.303215
vt 0.665984 0.297451
vt 0.826531 0.297451
vt 0.018015 0.898090
vt 0.018015 0.943678
vt 0.012022 0.943678
vt 0.012022 0.898090
vt 0.155979 0.924775
vt 0.155979 0.885650
vt 0.164247 0.885650
vt 0.164247 0.924775
vt 0.114443 0.002086
vt 0.114443 0.422654
vt 0.060350 0.422654
vt 0.060350 0.002086
vt 0.528629 0.303216
vt 0.528629 0.002086
vt 0.574217 0.002086
vt 0.574217 0.303216
vt 0.826865 0.845818
vt 0.826865 0.980552
vt 0.818597 0.980552
vt 0.818597 0.845818
vt 0.660808 0.307387
vt 0.660808 0.608517
vt 0.621684 0.608517
vt 0.621684 0.307387
vt 0.355731 0.097370
vt 0.355731 0.295989
vt 0.314378 0.295989
vt 0.314378 0.097370
vt 0.344872 0.656680
vt 0.344872 0.661906
vt 0.307387 0.661906
vt 0.307387 0.656680
vt 0.690828 0.992156
vt 0.690828 0.860479
vt 0.696593 0.860479
vt 0.696593 0.992156
vt 0.848729 0.026373
vt 0.864071 0.026321
vt 0.864071 0.041675
vt 0.848729 0.041727
vt 0.048672 0.815896
vt 0.048673 0.806121
vt 0.358663 0.806120
vt 0.358663 0.815897
vt 0.769645 0.920472
vt 0.754266 0.920693
vt 0.754332 0.812159
vt 0.769645 0.810720
vt 0.855624 0.185681
vt 0.855624 0.495671
vt 0.845849 0.495671
vt 0.845848 0.185681
vt 0.109605 0.898090
vt 0.109605 0.939444
vt 0.103840 0.939444
vt 0.103840 0.898090
vt 0.622688 0.303216
vt 0.622688 0.002086
vt 0.661813 0.002086
vt 0.661813 0.303216
vt 0.919909 0.041210
vt 0.919909 0.002086
vt 0.928177 0.002086
vt 0.928177 0.041210
vt 0.866301 0.872571
vt 0.859796 0.872547
vt 0.859796 0.499842
vt 0.866301 0.499867
vt 0.363189 0.928244
vt 0.354920 0.928244
vt 0.354920 0.904195
vt 0.363189 0.904195
vt 0.248135 0.093198
vt 0.223328 0.051845
vt 0.422431 0.051845
vt 0.422431 0.093199
vt 0.219156 0.002086
vt 0.219156 0.312079
vt 0.170971 0.312079
vt 0.170971 0.002086
vt 0.212549 0.835448
vt 0.212549 0.820068
vt 0.390455 0.820068
vt 0.390455 0.835449
vt 0.781972 0.758569
vt 0.766592 0.758569
vt 0.766592 0.743189
vt 0.781972 0.743189
vt 0.357145 0.662321
vt 0.357145 0.483599
vt 0.399560 0.497635
vt 0.399560 0.662321
vt 0.002086 0.479428
vt 0.002086 0.426825
vt 0.422654 0.426825
vt 0.422654 0.479428
vt 0.089733 0.898090
vt 0.089733 0.940505
vt 0.083968 0.940505
vt 0.083968 0.898090
vt 0.997914 0.046535
vt 0.997914 0.197099
vt 0.991921 0.197099
vt 0.991921 0.046535
vt 0.982659 0.660427
vt 0.982074 0.499853
vt 0.987838 0.499842
vt 0.987838 0.661115
vt 0.870472 0.499842
vt 0.876977 0.499867
vt 0.876977 0.872571
vt 0.870472 0.872547
vt 0.898957 0.495671
vt 0.892964 0.495671
vt 0.892964 0.413734
vt 0.898957 0.413734
vt 0.428607 0.312080
vt 0.418831 0.312080
vt 0.418831 0.263894
vt 0.428607 0.263894
vt 0.962202 0.499842
vt 0.967966 0.499842
vt 0.967966 0.698946
vt 0.962201 0.698946
vt 0.524458 0.002086
vt 0.524458 0.047673
vt 0.223328 0.047673
vt 0.223328 0.002086
vt 0.846520 0.565028
vt 0.792280 0.566481
vt 0.792280 0.558213
vt 0.846520 0.559666
vt 0.977903 0.703117
vt 0.977903 0.877408
vt 0.972138 0.877408
vt 0.972138 0.703117
vt 0.686656 0.992415
vt 0.680892 0.992415
vt 0.680892 0.860479
vt 0.686656 0.860479
vt 0.756461 0.732126
vt 0.708275 0.732126
vt 0.708275 0.722350
vt 0.756461 0.722350
vt 0.212207 0.873211
vt 0.220476 0.873211
vt 0.220476 0.918798
vt 0.212207 0.918798
vt 0.058674 0.943678
vt 0.052680 0.943678
vt 0.052680 0.898090
vt 0.058674 0.898090
vt 0.859796 0.495671
vt 0.859796 0.185681
vt 0.869572 0.185681
vt 0.869572 0.495671
vt 0.208036 0.873211
vt 0.208036 0.918798
vt 0.199768 0.918798
vt 0.199768 0.873211
vt 0.977902 0.499842
vt 0.977902 0.678564
vt 0.972138 0.678564
vt 0.972138 0.499842
vt 0.118614 0.368608
vt 0.428608 0.368608
vt 0.428608 0.416793
vt 0.118614 0.416793
vt 0.440029 0.352975
vt 0.440029 0.051845
vt 0.480158 0.051845
vt 0.480158 0.352975
vt 0.249526 0.927303
vt 0.249526 0.873211
vt 0.255291 0.873211
vt 0.255291 0.927303
vt 0.737655 0.860479
vt 0.737655 0.942415
vt 0.731662 0.942415
vt 0.731662 0.860479
vt 0.885843 0.046535
vt 0.885843 0.419238
vt 0.879338 0.419259
vt 0.879338 0.046557
vt 0.038344 0.943678
vt 0.032351 0.943678
vt 0.032351 0.898090
vt 0.038344 0.898090
vt 0.394064 0.891755
vt 0.394064 0.900024
vt 0.269173 0.900024
vt 0.269173 0.891755
vt 0.924947 0.046535
vt 0.924947 0.224441
vt 0.909566 0.224441
vt 0.909566 0.046535
vt 0.846241 0.712038
vt 0.846241 0.841647
vt 0.806157 0.839755
vt 0.806157 0.710146
vt 0.426825 0.847394
vt 0.426825 0.426825
vt 0.479428 0.426825
vt 0.479428 0.847394
vt 0.048672 0.801949
vt 0.048672 0.762825
vt 0.184677 0.769577
vt 0.184677 0.795197
vt 0.666784 0.860514
vt 0.666784 0.990124
vt 0.658516 0.990090
vt 0.658516 0.860479
vt 0.670956 0.996673
vt 0.670956 0.860479
vt 0.676720 0.860479
vt 0.676720 0.996673
vt 0.131935 0.939444
vt 0.126171 0.939444
vt 0.126171 0.898090
vt 0.131935 0.898090
vt 0.762420 0.746714
vt 0.762420 0.759727
vt 0.708275 0.763253
vt 0.708275 0.743189
vt 0.409661 0.117290
vt 0.429725 0.097370
vt 0.429725 0.257076
vt 0.901601 0.863997
vt 0.901601 0.912182
vt 0.891825 0.912182
vt 0.891825 0.863997
vt 0.362834 0.807573
vt 0.417074 0.806120
vt 0.417074 0.814389
vt 0.362834 0.812936
vt 0.213444 0.782073
vt 0.213390 0.672942
vt 0.228771 0.673004
vt 0.228771 0.783354
vt 0.967877 0.383523
vt 0.959613 0.383784
vt 0.962007 0.217430
vt 0.967877 0.217245
vt 0.257628 0.527899
vt 0.303215 0.527899
vt 0.303215 0.652790
vt 0.257628 0.652790
vt 0.909566 0.480556
vt 0.909566 0.388977
vt 0.917835 0.388977
vt 0.917835 0.480556
vt 0.214910 0.573487
vt 0.048672 0.566884
vt 0.048672 0.534502
vt 0.214910 0.527899
vt 0.310206 0.295989
vt 0.268853 0.295989
vt 0.268853 0.097370
vt 0.310206 0.097370
vt 0.237087 0.918798
vt 0.237087 0.873211
vt 0.245355 0.873211
vt 0.245355 0.918798
vt 0.344876 0.936578
vt 0.344876 0.904195
vt 0.350749 0.904195
vt 0.350749 0.936578
vt 0.953763 0.495671
vt 0.945494 0.495671
vt 0.945494 0.356946
vt 0.953763 0.356946
vt 0.720636 0.860479
vt 0.726401 0.860479
vt 0.726401 0.914572
vt 0.720636 0.914572
vt 0.742521 0.439323
vt 0.742521 0.307387
vt 0.784936 0.307387
vt 0.784936 0.467934
vt 0.279338 0.943319
vt 0.279338 0.904195
vt 0.285331 0.904195
vt 0.285331 0.943319
vt 0.907469 0.002086
vt 0.915738 0.002086
vt 0.915738 0.041210
vt 0.907469 0.041210
vt 0.151807 0.885650
vt 0.151807 0.935836
vt 0.146043 0.935836
vt 0.146043 0.885650
vt 0.371827 0.800900
vt 0.233102 0.800900
vt 0.233102 0.761776
vt 0.371827 0.761776
vt 0.708275 0.438721
vt 0.738350 0.307387
vt 0.738350 0.570302
vt 0.704104 0.763253
vt 0.658516 0.763253
vt 0.658516 0.612688
vt 0.704104 0.612688
vt 0.539899 0.309423
vt 0.563862 0.307387
vt 0.563862 0.349303
vt 0.528629 0.330094
vt 0.658516 0.774176
vt 0.794491 0.767424
vt 0.794491 0.806549
vt 0.658516 0.799797
vt 0.359903 0.273977
vt 0.414048 0.270451
vt 0.414048 0.290516
vt 0.359903 0.286990
vt 0.839305 0.845818
vt 0.839305 0.977400
vt 0.831036 0.977400
vt 0.831036 0.845818
vt 0.842039 0.505856
vt 0.851815 0.505856
vt 0.851815 0.554042
vt 0.842039 0.554042
vt 0.403732 0.483599
vt 0.413508 0.483599
vt 0.413508 0.793589
vt 0.403732 0.793589
vt 0.550099 0.851565
vt 0.555461 0.851565
vt 0.555461 0.864578
vt 0.550099 0.864578
vt 0.166799 0.312080
vt 0.118614 0.312080
vt 0.118614 0.002086
vt 0.166799 0.002086
vt 0.851744 0.975428
vt 0.843476 0.975463
vt 0.843476 0.845853
vt 0.851744 0.845818
vt 0.002086 0.873837
vt 0.170717 0.873211
vt 0.170717 0.881479
vt 0.002086 0.880853
vt 0.398667 0.294687
vt 0.414048 0.294687
vt 0.414048 0.310067
vt 0.398667 0.310067
vt 0.220002 0.530046
vt 0.228270 0.530046
vt 0.228270 0.668771
vt 0.220002 0.668771
vt 0.869732 0.876743
vt 0.875497 0.876743
vt 0.875497 0.927905
vt 0.869732 0.927905
vt 0.526895 0.847393
vt 0.526895 0.426825
vt 0.566019 0.426825
vt 0.566019 0.847393
vt 0.742521 0.472105
vt 0.788109 0.472105
vt 0.788109 0.563684
vt 0.742521 0.563684
vt 0.068610 0.942768
vt 0.062845 0.942768
vt 0.062845 0.898090
vt 0.068610 0.898090
vt 0.887654 0.499842
vt 0.887654 0.872544
vt 0.881148 0.872566
vt 0.881148 0.499864
vt 0.982074 0.859484
vt 0.982074 0.703117
vt 0.987839 0.703117
vt 0.987839 0.859484
vt 0.079797 0.898090
vt 0.079797 0.936771
vt 0.072781 0.936771
vt 0.072781 0.898090
vt 0.987750 0.382567
vt 0.981985 0.382567
vt 0.981985 0.217880
vt 0.987750 0.217880
vt 0.760632 0.706151
vt 0.760632 0.574473
vt 0.801986 0.574473
vt 0.801986 0.730840
vt 0.264877 0.873211
vt 0.264877 0.898831
vt 0.259462 0.898831
vt 0.259462 0.873211
vt 0.223328 0.296474
vt 0.223328 0.097370
vt 0.264681 0.122178
vt 0.264681 0.296474
vt 0.833408 0.467093
vt 0.833409 0.046535
vt 0.841677 0.046535
vt 0.841677 0.467093
vt 0.706529 0.990156
vt 0.700764 0.990156
vt 0.700764 0.860479
vt 0.706529 0.860479
vt 0.552172 0.361742
vt 0.528629 0.361742
vt 0.528629 0.353474
vt 0.552172 0.353474
vt 0.873837 0.434858
vt 0.888792 0.431268
vt 0.888792 0.492496
vt 0.873743 0.495671
vt 0.758470 0.182697
vt 0.758470 0.293015
vt 0.710284 0.293015
vt 0.710284 0.156822
vt 0.865560 0.929345
vt 0.859796 0.929345
vt 0.859796 0.876743
vt 0.865560 0.876743
vt 0.195596 0.918798
vt 0.187328 0.918798
vt 0.187328 0.873211
vt 0.195596 0.873211
vt 0.972048 0.245151
vt 0.972049 0.046535
vt 0.977814 0.046535
vt 0.977814 0.245151
vt 0.997775 0.499842
vt 0.997775 0.643546
vt 0.992010 0.643546
vt 0.992010 0.499842
vt 0.209219 0.672942
vt 0.209219 0.715358
vt 0.077283 0.715358
vt 0.048672 0.672942
vt 0.141871 0.940505
vt 0.136107 0.940505
vt 0.136107 0.898090
vt 0.141871 0.898090
vt 0.527297 0.891755
vt 0.535566 0.891755
vt 0.535566 0.930880
vt 0.527297 0.930880
vt 0.028180 0.898090
vt 0.028180 0.943678
vt 0.022186 0.943678
vt 0.022186 0.898090
vt 0.215831 0.668771
vt 0.048672 0.666545
vt 0.054573 0.629528
vt 0.215831 0.627417
vt 0.428607 0.364437
vt 0.118614 0.364437
vt 0.118614 0.316251
vt 0.428607 0.316251
vt 0.522723 0.847394
vt 0.483599 0.847394
vt 0.483599 0.426825
vt 0.522723 0.426825
vt 0.113776 0.939444
vt 0.113776 0.898090
vt 0.119541 0.898090
vt 0.119541 0.939444
vt 0.340705 0.932469
vt 0.332436 0.932469
vt 0.332436 0.904195
vt 0.340705 0.904195
vt 0.762641 0.161337
vt 0.803995 0.136649
vt 0.803995 0.293015
vt 0.762641 0.293015
vt 0.829237 0.467093
vt 0.789108 0.447172
vt 0.789108 0.307387
vt 0.829237 0.307387
vt 0.842436 0.002086
vt 0.865979 0.002086
vt 0.865979 0.022150
vt 0.829177 0.022150
vt 0.825006 0.004411
vt 0.825006 0.066574
vt 0.810071 0.062898
vt 0.809802 0.002086
vt 0.907206 0.677748
vt 0.891825 0.677748
vt 0.891825 0.499842
vt 0.907206 0.499842
vn -1.0000 0.0000 0.0000
vn -0.0000 -0.0000 -1.0000
vn 1.0000 -0.0000 0.0000
vn 0.0000 0.0000 1.0000
vn 0.0000 1.0000 0.0000
vn 0.0000 -1.0000 0.0000
vn 0.0429 0.0005 -0.9991
vn -0.9995 0.0008 -0.0302
vn -0.9957 0.0854 -0.0371
vn -0.0470 -0.9989 0.0000
vn 0.9956 -0.0859 0.0371
vn 0.9995 0.0008 0.0304
vn -0.0130 0.0097 -0.9999
vn -0.0430 0.0005 0.9991
vn 0.9731 -0.2269 0.0395
vn -0.0037 0.0000 1.0000
vn -0.0018 -1.0000 -0.0002
vn -0.0316 0.0000 0.9995
vn 0.0496 -0.9988 0.0000
vn 0.0265 -0.2519 -0.9674
vn 0.0397 0.9992 -0.0000
vn -0.0037 -0.0000 -1.0000
vn 0.0042 -0.0000 -1.0000
vn 0.8586 0.0000 0.5126
vn 0.8810 0.0000 -0.4731
vn 0.0496 0.9988 0.0000
vn -0.2232 0.9748 -0.0000
vn -0.9784 -0.1356 0.1559
vn -0.1683 0.9778 0.1251
vn 0.0336 -0.0866 -0.9957
vn 0.8343 0.5513 0.0000
vn -0.0135 -0.0114 0.9998
vn 0.0650 0.9979 0.0000
vn -0.0042 0.0000 1.0000
vn 0.0210 0.0000 -0.9998
vn 0.0472 0.9989 -0.0000
vn 0.0268 -0.0000 -0.9996
vn 0.0650 -0.9979 0.0000
vn -0.0336 0.0862 0.9957
vn 0.0397 -0.9992 -0.0000
vn 0.0460 -0.0000 -0.9989
vn -0.9601 -0.0000 -0.2795
vn 0.0268 0.0000 0.9996
vn -0.0472 -0.9989 0.0000
vn 0.0061 1.0000 -0.0000
vn 0.8290 0.0000 -0.5592
vn -0.9494 -0.0000 -0.3142
vn -0.9723 0.2305 -0.0395
vn -0.0018 1.0000 0.0004
vn -0.0019 1.0000 0.0001
vn 0.7096 0.7046 -0.0000
vn -0.0264 0.2543 0.9668
g Crate_2_Crate_2_Collor_Material
usemtl Collor_Material
s off
f 50/1/1 65/2/1 177/3/1
f 197/4/2 198/5/2 42/6/2
f 43/7/1 74/8/1 203/9/1
f 33/10/3 60/11/3 200/12/3
f 169/13/2 177/14/2 65/15/2
f 205/16/2 193/17/2 43/18/2
f 199/19/4 200/20/4 60/21/4
f 104/22/2 97/23/2 54/24/2 55/25/2
f 89/26/3 90/27/3 100/28/3 99/29/3
f 4/30/5 2/31/5 6/32/5 8/33/5
f 11/34/2 12/35/2 10/36/2 9/37/2
f 177/38/2 178/39/2 173/40/2 76/41/2
f 9/42/3 10/43/3 14/44/3 13/45/3
f 207/46/2 209/47/2 37/48/2 44/49/2
f 76/50/6 173/51/6 176/52/6 51/53/6
f 14/54/5 10/55/5 12/56/5 16/57/5
f 193/58/6 194/59/6 74/60/6 43/61/6
f 23/62/7 21/63/7 22/64/7 24/65/7
f 21/66/8 17/67/8 18/68/8 22/69/8
f 138/70/6 243/71/6 245/72/6 129/73/6
f 265/74/9 262/75/9 25/76/9 29/77/9
f 238/78/2 132/79/2 147/80/2 240/81/2
f 221/82/10 48/83/10 58/84/10 216/85/10
f 27/86/11 263/87/11 264/88/11 31/89/11
f 23/90/12 24/91/12 20/92/12 19/93/12
f 124/94/13 106/95/13 259/96/13 258/97/13
f 19/98/14 20/99/14 18/100/14 17/101/14
f 28/102/5 26/103/5 30/104/5 32/105/5
f 100/106/4 90/107/4 33/108/4 42/109/4
f 51/110/3 50/111/3 49/112/3 43/113/3
f 89/114/2 99/115/2 52/116/2 35/117/2
f 219/118/4 71/119/4 57/120/4 218/121/4
f 263/122/15 28/123/15 32/124/15 264/125/15
f 70/126/16 214/127/16 216/128/16 58/129/16
f 132/130/1 137/131/1 141/132/1 147/133/1
f 222/134/1 226/135/1 41/136/1 34/137/1
f 96/138/4 102/139/4 45/140/4 53/141/4
f 177/142/1 76/143/1 51/144/1
f 51/145/1 50/146/1 177/147/1
f 261/148/17 259/149/17 106/150/17 109/151/17
f 204/152/4 203/153/4 74/154/4 194/155/4
f 201/156/2 198/157/2 197/158/2
f 198/159/2 33/160/2 42/161/2
f 94/162/2 103/163/2 56/164/2 40/165/2
f 42/166/1 33/167/1 35/168/1 52/169/1
f 189/170/18 187/171/18 39/172/18 47/173/18
f 48/174/1 36/175/1 224/176/1 227/177/1
f 58/178/3 48/179/3 36/180/3 70/181/3
f 215/182/6 218/183/6 57/184/6 46/185/6
f 203/186/1 61/187/1 49/188/1
f 49/189/1 43/190/1 203/191/1
f 257/192/3 255/193/3 256/194/3 254/195/3
f 224/196/5 36/197/5 91/198/5 228/199/5
f 17/200/6 21/201/6 23/202/6 19/203/6
f 34/204/2 41/205/2 86/206/2 87/207/2
f 96/208/5 53/209/5 54/210/5 97/211/5
f 92/212/6 44/213/6 56/214/6 103/215/6
f 98/216/2 85/217/2 50/218/2 51/219/2
f 255/220/4 257/221/4 128/222/4 110/223/4
f 211/224/19 212/225/19 79/226/19 45/227/19
f 40/228/5 69/229/5 68/230/5 54/231/5
f 204/232/3 194/233/3 193/234/3 205/235/3
f 82/236/4 46/237/4 38/238/4 81/239/4
f 184/240/2 67/241/2 64/242/2 186/243/2
f 2/244/4 4/245/4 3/246/4 1/247/4
f 113/248/6 108/249/6 105/250/6 114/251/6
f 84/252/4 101/253/4 43/254/4 49/255/4
f 87/256/3 86/257/3 225/258/3 223/259/3
f 5/260/3 6/261/3 2/262/3 1/263/3
f 26/264/20 28/265/20 263/266/20 262/267/20
f 196/268/1 202/269/1 201/270/1 197/271/1
f 42/272/6 59/273/6 196/274/6 197/275/6
f 191/276/21 62/277/21 39/278/21 187/279/21
f 221/280/22 220/281/22 36/282/22 48/283/22
f 144/284/3 143/285/3 135/286/3 136/287/3
f 44/288/1 37/289/1 40/290/1 56/291/1
f 200/292/3 59/293/3 42/294/3
f 42/295/3 33/296/3 200/297/3
f 185/298/6 186/299/6 64/300/6 34/301/6
f 171/302/23 174/303/23 66/304/23 75/305/23
f 55/306/3 54/307/3 53/308/3 45/309/3
f 172/310/1 174/311/1 171/312/1 170/313/1
f 128/314/1 125/315/1 107/316/1 110/317/1
f 68/318/1 77/319/1 55/320/1 54/321/1
f 104/322/6 55/323/6 45/324/6 102/325/6
f 94/326/5 40/327/5 37/328/5 93/329/5
f 83/330/6 47/331/6 46/332/6 82/333/6
f 89/334/5 35/335/5 33/336/5 90/337/5
f 230/338/24 233/339/24 231/340/24 232/341/24
f 100/342/6 42/343/6 52/344/6 99/345/6
f 200/346/4 202/347/4 196/348/4 59/349/4
f 98/350/6 51/351/6 43/352/6 101/353/6
f 62/354/1 63/355/1 47/356/1 39/357/1
f 119/358/5 120/359/5 250/360/5 252/361/5
f 169/362/5 65/363/5 50/364/5 175/365/5
f 81/366/5 38/367/5 39/368/5 95/369/5
f 7/370/6 5/371/6 1/372/6 3/373/6
f 241/374/25 239/375/25 238/376/25 240/377/25
f 84/378/5 49/379/5 50/380/5 85/381/5
f 179/382/4 175/383/4 176/384/4
f 137/385/6 132/386/6 238/387/6 239/388/6
f 73/389/26 213/390/26 210/391/26 53/392/26
f 142/393/5 146/394/5 244/395/5 242/396/5
f 13/397/4 14/398/4 16/399/4 15/400/4
f 52/401/3 75/402/3 66/403/3 35/404/3
f 142/405/3 138/406/3 129/407/3 146/408/3
f 116/409/4 247/410/4 249/411/4 126/412/4
f 88/413/4 91/414/4 36/415/4 48/416/4
f 79/417/1 73/418/1 53/419/1 45/420/1
f 122/421/5 123/422/5 117/423/5 118/424/5
f 81/425/1 95/426/1 83/427/1 82/428/1
f 202/429/27 199/430/27 198/431/27 201/432/27
f 96/433/1 97/434/1 104/435/1 102/436/1
f 254/437/5 125/438/5 128/439/5 257/440/5
f 258/441/28 259/442/28 261/443/28 260/444/28
f 134/445/4 231/446/4 233/447/4 152/448/4
f 24/449/29 22/450/29 18/451/29 20/452/29
f 161/453/3 167/454/3 168/455/3 162/456/3
f 262/457/30 263/458/30 27/459/30 25/460/30
f 158/461/3 157/462/3 155/463/3 156/464/3
f 124/465/3 127/466/3 109/467/3 106/468/3
f 94/469/3 93/470/3 92/471/3 103/472/3
f 208/473/1 206/474/1 209/475/1 207/476/1
f 122/477/2 105/478/2 108/479/2 123/480/2
f 195/481/31 192/482/31 204/483/31 205/484/31
f 235/485/6 237/486/6 130/487/6 133/488/6
f 157/489/5 158/490/5 159/491/5 160/492/5
f 4/493/1 8/494/1 7/495/1 3/496/1
f 9/497/6 13/498/6 15/499/6 11/500/6
f 111/501/6 253/502/6 251/503/6 112/504/6
f 136/505/6 135/506/6 140/507/6 139/508/6
f 126/509/1 121/510/1 115/511/1 116/512/1
f 48/513/6 227/514/6 229/515/6 88/516/6
f 261/517/32 109/518/32 127/519/32 260/520/32
f 139/521/2 145/522/2 144/523/2 136/524/2
f 86/525/5 41/526/5 226/527/5 225/528/5
f 158/529/2 156/530/2 153/531/2 159/532/2
f 148/533/2 130/534/2 237/535/2 236/536/2
f 47/537/3 39/538/3 38/539/3 46/540/3
f 183/541/33 178/542/33 179/543/33 180/544/33
f 235/545/4 133/546/4 151/547/4 234/548/4
f 246/549/2 248/550/2 115/551/2 121/552/2
f 154/553/4 155/554/4 157/555/4 160/556/4
f 188/557/1 184/558/1 186/559/1 185/560/1
f 47/561/2 83/562/2 95/563/2 39/564/2
f 160/565/1 159/566/1 153/567/1 154/568/1
f 38/569/1 46/570/1 57/571/1 71/572/1
f 253/573/4 111/574/4 119/575/4 252/576/4
f 161/577/6 162/578/6 163/579/6 164/580/6
f 84/581/1 85/582/1 98/583/1 101/584/1
f 108/585/1 113/586/1 117/587/1 123/588/1
f 222/589/6 34/590/6 87/591/6 223/592/6
f 113/593/4 114/594/4 118/595/4 117/596/4
f 224/597/2 228/598/2 229/599/2 227/600/2
f 38/601/5 71/602/5 219/603/5 217/604/5
f 15/605/1 16/606/1 12/607/1 11/608/1
f 170/609/34 52/610/34 35/611/34 172/612/34
f 144/613/5 145/614/5 150/615/5 143/616/5
f 45/617/35 53/618/35 210/619/35 211/620/35
f 66/621/36 174/622/36 172/623/36 35/624/36
f 137/625/4 239/626/4 241/627/4 141/628/4
f 130/629/3 148/630/3 151/631/3 133/632/3
f 183/633/37 182/634/37 173/635/37 178/636/37
f 169/637/2 178/638/2 177/639/2
f 166/640/2 167/641/2 161/642/2 164/643/2
f 181/644/38 176/645/38 173/646/38 182/647/38
f 31/648/39 264/649/39 265/650/39 29/651/39
f 47/652/40 63/653/40 190/654/40 189/655/40
f 46/656/2 38/657/2 217/658/2 215/659/2
f 67/660/5 184/661/5 188/662/5 41/663/5
f 62/664/41 191/665/41 190/666/41 63/667/41
f 110/668/6 107/669/6 256/670/6 255/671/6
f 64/672/3 67/673/3 41/674/3 34/675/3
f 190/676/3 191/677/3 187/678/3 189/679/3
f 44/680/6 78/681/6 208/682/6 207/683/6
f 118/684/3 114/685/3 105/686/3 122/687/3
f 246/688/5 121/689/5 126/690/5 249/691/5
f 92/692/4 93/693/4 37/694/4 44/695/4
f 37/696/3 72/697/3 78/698/3 44/699/3
f 242/700/42 244/701/42 245/702/42 243/703/42
f 72/704/4 206/705/4 208/706/4 78/707/4
f 199/708/4 202/709/4 200/710/4
f 229/711/3 228/712/3 91/713/3 88/714/3
f 195/715/2 205/716/2 43/717/2 49/718/2
f 213/719/4 73/720/4 79/721/4 212/722/4
f 180/723/43 179/724/43 176/725/43 181/726/43
f 199/727/5 60/728/5 33/729/5 198/730/5
f 165/731/4 163/732/4 162/733/4 168/734/4
f 163/735/1 165/736/1 166/737/1 164/738/1
f 181/739/3 182/740/3 183/741/3 180/742/3
f 155/743/6 154/744/6 153/745/6 156/746/6
f 170/747/44 171/748/44 75/749/44 52/750/44
f 214/751/45 70/752/45 36/753/45 220/754/45
f 31/755/6 29/756/6 25/757/6 27/758/6
f 209/759/5 206/760/5 72/761/5 37/762/5
f 249/763/46 247/764/46 248/765/46 246/766/46
f 68/767/2 69/768/2 80/769/2 77/770/2
f 34/771/4 41/772/4 188/773/4 185/774/4
f 250/775/47 251/776/47 253/777/47 252/778/47
f 140/779/4 135/780/4 143/781/4 150/782/4
f 232/783/2 131/784/2 149/785/2 230/786/2
f 220/787/1 221/788/1 216/789/1 214/790/1
f 120/791/2 112/792/2 251/793/2 250/794/2
f 231/795/6 134/796/6 131/797/6 232/798/6
f 213/799/3 212/800/3 211/801/3 210/802/3
f 148/803/5 236/804/5 234/805/5 151/806/5
f 77/807/6 80/808/6 56/809/6 55/810/6
f 146/811/2 129/812/2 245/813/2 244/814/2
f 61/815/5 192/816/5 195/817/5 49/818/5
f 30/819/48 26/820/48 262/821/48 265/822/48
f 240/823/5 147/824/5 141/825/5 241/826/5
f 140/827/1 150/828/1 145/829/1 139/830/1
f 218/831/3 215/832/3 217/833/3 219/834/3
f 256/835/2 107/836/2 125/837/2 254/838/2
f 243/839/4 138/840/4 142/841/4 242/842/4
f 116/843/6 115/844/6 248/845/6 247/846/6
f 112/847/3 120/848/3 119/849/3 111/850/3
f 56/851/3 80/852/3 69/853/3 40/854/3
f 226/855/4 222/856/4 223/857/4 225/858/4
f 124/859/49 258/860/49 260/861/49 127/862/50
f 168/863/5 167/864/5 166/865/5 165/866/5
f 56/867/4 40/868/4 54/869/4 55/870/4
f 152/871/1 149/872/1 131/873/1 134/874/1
f 179/875/51 178/876/51 169/877/51 175/878/51
f 233/879/5 230/880/5 149/881/5 152/882/5
f 176/883/4 175/884/4 50/885/4 51/886/4
f 192/887/4 61/888/4 203/889/4 204/890/4
f 264/891/52 32/892/52 30/893/52 265/894/52
f 8/895/2 6/896/2 5/897/2 7/898/2
