# Blender v3.0.0 OBJ File: 'aa.blend'
# www.blender.org
mtllib Elephant_Statue.mtl
o Elephant_Statue
v 0.393077 1.846480 1.023162
v 0.777085 4.326374 -0.076443
v 0.751661 4.169103 1.479525
v 1.055066 3.280958 0.052945
v 0.891363 4.661929 1.013390
v 0.356666 2.250006 2.381115
v 1.141082 3.228128 1.423521
v 0.378770 4.445268 -0.108080
v 0.852113 2.461356 0.452025
v 0.859184 4.278900 1.204872
v 0.456525 1.959844 1.629761
v 0.978345 4.006315 -0.082540
v 0.830386 4.719768 0.353171
v 0.876121 3.949965 1.830702
v 0.665956 2.640715 2.704168
v 0.385078 4.299088 1.525395
v 1.025018 2.731319 1.717389
v 1.122646 4.135888 1.183025
v 1.139629 3.316839 0.513928
v 1.106050 3.274417 1.820625
v 0.451481 3.828750 2.310926
v 0.104195 1.647557 2.632524
v 0.455035 4.533882 0.695684
v 0.996349 2.995772 2.128020
v 0.975698 2.500114 0.979445
v 1.084682 4.179482 0.381539
v 1.077219 3.902868 1.540929
v 0.443565 4.058057 1.975941
v 0.299540 2.227501 3.184200
v 0.438936 4.441650 1.179146
v 0.426765 4.823504 0.313172
v 0.450964 2.700517 3.226512
v 0.164982 2.253771 2.589431
v 0.225132 2.620867 3.436809
v 0.475666 2.534395 2.860962
v 0.209980 1.608790 3.065758
v 0.257406 1.868171 3.074072
v 0.112026 2.051879 2.614640
v 0.145558 2.148650 3.327707
v 0.326487 2.184577 2.856021
v 0.079231 1.130160 3.269325
v 0.084700 1.246086 2.828609
v 0.111820 1.852725 3.202807
v 0.269602 1.781094 2.818420
v 0.151150 1.627517 3.369328
v 0.200091 1.540932 3.224984
v 0.052424 1.687532 3.185292
v 0.248825 1.426996 2.907768
v 0.066729 1.603686 3.802243
v 0.043905 1.317673 3.590844
v 0.014877 1.668922 3.288791
v 0.228003 1.315385 3.220343
v 0.173346 1.859042 3.496255
v -0.024925 1.742679 3.346417
v 0.159386 1.438561 3.477364
v 0.186856 1.709888 3.617226
v 0.473683 4.528444 -0.343617
v 0.512541 4.757214 -0.838601
v 0.515383 4.782638 -1.536595
v 0.518023 4.682009 -2.342164
v 0.519617 4.276818 -3.236781
v 0.521848 3.753314 -3.707970
v 0.513633 3.035630 -3.765589
v 0.522442 2.382441 -3.631541
v 0.597389 1.524206 -3.234931
v 0.394625 1.387017 -2.613362
v 0.493336 1.335301 -1.783541
v 0.519328 1.227150 -0.808999
v 0.370976 1.365449 -0.060176
v 0.657521 1.710071 0.460706
v 0.863768 4.309258 -0.390772
v 1.045123 4.319729 -0.972226
v 1.143450 4.216160 -1.549615
v 1.151320 4.109208 -2.310944
v 1.129923 3.837948 -2.975541
v 1.073009 3.134979 -3.453929
v 1.087582 2.495070 -3.305391
v 1.096369 2.126719 -3.292831
v 1.083258 1.806612 -1.675339
v 1.049088 1.733778 -1.085427
v 0.948596 2.295066 0.124457
v 1.223140 3.698565 -0.832672
v 1.063918 3.822412 -0.297599
v 1.106191 3.222948 -0.198599
v 1.243281 3.275155 -0.789539
v 1.358934 3.209221 -2.848009
v 1.455025 2.896398 -2.590793
v 1.369530 3.578081 -1.516552
v 1.389083 2.963262 -1.280478
v 1.434922 2.864684 -1.908367
v 0.123827 1.778036 3.631607
v 0.100598 1.890396 3.544432
v 0.061800 1.674246 3.762267
v 1.398343 2.202354 0.022262
v 1.344172 1.814789 -0.946056
v 1.585635 1.855539 -1.894250
v 1.387328 2.620231 -1.014650
v 1.491783 2.598816 -2.574714
v 1.382476 2.758229 -0.655970
v 1.269872 2.797031 -0.144351
v 1.317394 1.988703 -3.125163
v 1.331255 2.414582 -3.021315
v 1.592801 1.319898 -0.026327
v 1.305257 1.211221 -0.757805
v 1.455428 1.413652 -1.881898
v 1.709429 1.467370 -2.466918
v 1.339190 1.550468 -3.069958
v 1.435372 2.675501 -2.048457
v 1.494904 2.024286 -0.449632
v 0.560583 1.141149 -3.266061
v 0.410311 1.061047 -2.712811
v 0.521450 0.990981 -1.940286
v 1.378050 1.023589 -2.002644
v 1.636585 1.039887 -2.490976
v 1.286259 1.047060 -3.125930
v 0.500994 0.761058 -3.334010
v 0.345192 0.711024 -2.715383
v 0.471259 0.698081 -1.871952
v 1.397755 0.743314 -1.929276
v 1.694292 0.724117 -2.461893
v 1.316820 0.684000 -3.176266
v 1.630334 0.569539 0.117902
v 1.373616 0.546981 -0.659681
v 1.274911 0.913536 -0.631162
v 1.563800 0.868910 0.100571
v 1.407382 0.940390 0.591785
v 0.550414 1.110086 0.604496
v 0.348882 0.904733 0.077447
v 0.503497 0.935643 -0.656484
v 0.455880 0.714231 -0.675956
v 0.283067 0.601651 0.100284
v 0.476999 0.775204 0.696040
v 1.440967 0.601507 0.670683
v 0.427094 0.186041 -0.671153
v 1.424224 0.151528 -0.649260
v 1.409845 0.172169 0.673767
v 1.620790 0.158244 0.118644
v 0.484060 0.199494 0.705739
v 0.268579 0.151884 0.101272
v 1.400874 0.185597 -1.933307
v 0.471672 0.156608 -1.877795
v 0.504108 0.215305 -3.339133
v 0.350605 0.181776 -2.721022
v 1.319742 0.204785 -3.180321
v 1.696570 0.200886 -2.466177
v 1.154462 4.635753 -0.464766
v 1.501254 3.490004 -0.394680
v 1.206428 4.890159 0.620467
v 1.277888 2.586473 0.019795
v 1.326268 4.245368 -0.465503
v 1.174760 4.913076 -0.103638
v 1.289676 4.307231 0.995881
v 1.406899 3.644396 0.120147
v 1.346786 2.597606 0.614448
v 1.269519 4.304744 0.102373
v 1.676652 4.655752 -0.311308
v 1.958276 3.539310 -0.149471
v 1.554317 4.848990 0.281097
v 1.764335 2.812805 0.159169
v 1.699746 4.804514 -0.121465
v 1.774795 3.638958 0.077949
v 1.813035 4.394803 -0.007951
v 0.065630 2.683931 -4.001626
v 0.158193 2.356615 -3.887913
v 1.443173 -0.000000 -0.647387
v 1.400058 0.000000 0.674396
v 0.262250 0.000000 0.102334
v 0.417731 -0.000000 -0.670794
v 1.615201 0.000000 0.121270
v 0.488935 0.000000 0.708093
v 0.505522 -0.000000 -3.341693
v 0.472391 -0.000000 -1.880118
v 1.698029 -0.000000 -2.468813
v 1.402554 -0.000000 -1.935911
v 0.352652 -0.000000 -2.723463
v 1.321339 -0.000000 -3.182429
v -0.488236 1.850409 1.020708
v -0.855865 4.326464 -0.076265
v -0.810830 4.182209 1.473190
v -0.039298 4.491852 -0.108169
v -1.134467 3.281070 0.053523
v -0.052643 1.799328 1.277273
v -0.950621 4.663345 0.998447
v -0.473482 2.263048 2.374599
v -0.026982 4.343141 1.521576
v -0.055941 3.079171 3.326934
v -1.221768 3.237960 1.418750
v -0.030434 3.884598 2.318141
v -0.060555 2.121041 2.351128
v -0.034184 4.580054 0.695010
v -0.457358 4.445252 -0.108066
v -0.932958 2.460695 0.451881
v -0.922478 4.290470 1.197617
v -0.561886 1.969047 1.625360
v -1.056455 4.006128 -0.083082
v -0.908870 4.720616 0.353029
v -0.941262 3.967802 1.825401
v -0.775328 2.665110 2.690828
v -0.440285 4.306342 1.521927
v -1.110432 2.745213 1.710201
v -1.200545 4.139011 1.182518
v -1.219529 3.321105 0.511787
v -1.182906 3.293685 1.811067
v -0.043108 3.509091 2.927945
v -0.027588 4.111683 1.954590
v -0.512730 3.841289 2.303247
v -0.257103 1.654528 2.628948
v -0.057190 1.877676 1.816864
v -0.524445 4.537124 0.692521
v -0.031054 4.476444 1.203392
v -0.039260 4.871273 0.305423
v -1.089232 3.021385 2.117733
v -1.058259 2.507208 0.976907
v -1.162598 4.180612 0.381673
v -1.143080 3.915517 1.532067
v -0.500109 4.066567 1.970535
v -0.440777 2.241551 3.177110
v -0.501666 4.446914 1.177020
v -0.505124 4.823976 0.313527
v -0.574762 2.719847 3.216885
v -0.291382 2.261863 2.585316
v -0.065899 2.620099 3.462107
v -0.063059 2.187679 2.508333
v -0.356197 2.631890 3.431312
v -0.598038 2.554363 2.850966
v -0.372892 1.620039 3.059942
v -0.410364 1.881035 3.067497
v -0.248972 2.058797 2.611096
v -0.074106 2.134730 3.345697
v -0.069107 1.992568 2.557079
v -0.292686 2.157029 3.323474
v -0.462866 2.199637 2.848355
v -0.264948 1.136801 3.265805
v -0.257002 1.252688 2.825177
v -0.078447 1.850556 3.223821
v -0.077002 1.601480 2.589419
v -0.268028 1.860045 3.199051
v -0.420879 1.794409 2.811605
v -0.319652 1.636585 3.364487
v -0.368904 1.551919 3.219185
v -0.081045 1.707210 3.199799
v -0.086855 1.203952 2.808803
v -0.214855 1.692693 3.182595
v -0.415554 1.439819 2.901086
v -0.245201 1.609669 3.799018
v -0.229009 1.322922 3.588032
v -0.082579 1.684631 3.303879
v -0.093634 1.100448 3.281187
v -0.180233 1.672678 3.286789
v -0.405420 1.327610 3.213874
v -0.335579 1.868808 3.490996
v -0.081621 1.766092 3.361678
v -0.093193 1.304776 3.622594
v -0.138849 1.744869 3.345243
v -0.337389 1.448122 3.472252
v -0.090646 1.539221 3.811980
v -0.078955 1.947573 3.439194
v -0.357311 1.720329 3.611598
v -0.082449 1.862739 3.618919
v -0.552280 4.528446 -0.343615
v -0.039296 4.672322 -0.365627
v -0.591192 4.757301 -0.838596
v -0.039285 4.923670 -0.792715
v -0.594533 4.783250 -1.536678
v -0.039297 4.954434 -1.536662
v -0.597454 4.682514 -2.342690
v -0.039480 4.838334 -2.387221
v -0.590458 4.269536 -3.230818
v -0.038929 4.395864 -3.324830
v -0.601668 3.758127 -3.707528
v -0.039442 3.831224 -3.826987
v -0.596785 3.036321 -3.772651
v -0.039416 3.040905 -3.890016
v -0.601639 2.382233 -3.632530
v -0.039295 2.003708 -3.618318
v -0.675945 1.524225 -3.234831
v -0.039299 1.588477 -3.348703
v -0.473219 1.387020 -2.613367
v -0.039293 1.382270 -2.682355
v -0.571943 1.335282 -1.783514
v -0.039299 1.233401 -1.797935
v -0.597949 1.227196 -0.808984
v -0.039346 1.060975 -0.757489
v -0.449639 1.365865 -0.060281
v -0.039626 1.229377 0.018776
v -0.740826 1.713418 0.466860
v -0.047747 1.525294 0.877536
v -0.942350 4.309251 -0.390775
v -1.123514 4.319615 -0.972245
v -1.221500 4.215385 -1.549558
v -1.236084 3.861792 -2.996409
v -1.147564 3.612940 -3.360265
v -1.146074 3.133952 -3.446019
v -1.166397 2.495066 -3.304821
v -1.175413 2.126793 -3.293303
v -1.161922 1.806601 -1.675328
v -1.127614 1.733791 -1.085474
v -1.025012 2.289551 0.114432
v -1.301967 3.698639 -0.832641
v -1.142518 3.822414 -0.297595
v -1.184520 3.222986 -0.198737
v -1.321775 3.275148 -0.789578
v -1.426706 3.206104 -2.846330
v -1.540790 2.899668 -2.592356
v -1.448047 3.578329 -1.516516
v -1.468505 2.963309 -1.280409
v -1.501100 3.501489 -2.135237
v -1.511339 2.864566 -1.908502
v -0.088779 1.637495 3.813567
v -0.087061 1.707587 3.777155
v -0.292032 1.786011 3.627303
v -0.262708 1.897364 3.540673
v -0.236746 1.679973 3.759179
v -0.079988 1.948402 3.540259
v -1.482327 2.210396 0.035329
v -1.422737 1.814825 -0.946116
v -1.662426 1.858296 -1.895144
v -1.797527 1.813226 -2.466721
v -1.465864 2.620260 -1.014713
v -1.587257 2.603085 -2.578658
v -1.460706 2.758159 -0.656090
v -1.349290 2.797240 -0.144341
v -1.400391 1.990669 -3.124490
v -1.400154 2.412541 -3.016648
v -1.544373 1.514390 0.456930
v -1.673146 1.319971 -0.025707
v -1.384038 1.211218 -0.757934
v -1.538982 1.413279 -1.880624
v -1.784113 1.467700 -2.468120
v -1.417734 1.550457 -3.070037
v -1.510404 2.673591 -2.049722
v -1.575454 2.024705 -0.449457
v -0.639181 1.141153 -3.266082
v -0.488905 1.061049 -2.712818
v -0.600038 0.990995 -1.940336
v -1.456874 1.023516 -2.002519
v -1.714910 1.039958 -2.491046
v -1.364895 1.047051 -3.125952
v -0.579588 0.761051 -3.334016
v -0.423788 0.711020 -2.715389
v -0.549854 0.698083 -1.871960
v -1.476354 0.743322 -1.929277
v -1.772879 0.724120 -2.461899
v -1.395418 0.683998 -3.176274
v -1.708709 0.569377 0.117693
v -1.452243 0.546913 -0.659766
v -1.353517 0.913528 -0.631211
v -1.642190 0.868713 0.098573
v -1.491845 0.941334 0.594962
v -0.627005 1.110469 0.604801
v -0.427434 0.904811 0.077569
v -0.582183 0.935651 -0.656446
v -0.534520 0.714278 -0.675905
v -0.361876 0.601731 0.100347
v -0.555754 0.775273 0.695881
v -1.520129 0.601565 0.670915
v -0.505634 0.186109 -0.671076
v -1.502761 0.151433 -0.649335
v -1.488581 0.172116 0.673703
v -1.699418 0.158131 0.118541
v -0.562802 0.199608 0.705806
v -0.347217 0.152023 0.101381
v -1.479473 0.185606 -1.933307
v -0.550272 0.156610 -1.877796
v -0.582708 0.215296 -3.339134
v -0.429205 0.181770 -2.721024
v -1.398342 0.204783 -3.180322
v -1.775169 0.200893 -2.466176
v -1.233960 4.636087 -0.468037
v -1.576062 3.485945 -0.386734
v -1.307263 4.906018 0.645027
v -1.360364 2.581985 0.028252
v -1.405500 4.243535 -0.475430
v -1.253293 4.912787 -0.103404
v -1.377894 4.316134 1.008223
v -1.485877 3.644661 0.121576
v -1.421504 2.610633 0.611942
v -1.348739 4.302886 0.101491
v -1.760810 4.658395 -0.307037
v -2.021443 3.540863 -0.165572
v -1.632701 4.848177 0.279652
v -1.954602 4.231577 -0.255178
v -1.771110 4.801435 -0.121999
v -1.700606 4.473647 0.462777
v -1.872130 3.641216 0.084346
v -1.689692 2.792743 0.432000
v -1.882724 4.395991 -0.014363
v -0.144659 2.683766 -4.002326
v -0.039299 2.772041 -3.970243
v -0.236359 2.356780 -3.887215
v -0.039299 2.315621 -4.002463
v -1.521682 -0.000000 -0.647459
v -1.478757 0.000000 0.674333
v -0.340856 0.000000 0.102449
v -0.496238 -0.000000 -0.670708
v -1.693814 0.000000 0.121175
v -0.567643 0.000000 0.708172
v -0.584120 -0.000000 -3.341693
v -0.550989 -0.000000 -1.880118
v -1.776626 -0.000000 -2.468812
v -1.481151 -0.000000 -1.935910
v -0.431250 -0.000000 -2.723463
v -1.399937 -0.000000 -3.182428
v 1.749015 4.238258 -0.337504
v 1.770739 4.350524 -0.279453
v 1.841720 4.302633 -0.147163
v 1.904561 4.094138 -0.226629
v 1.514161 1.437379 0.262188
v 1.456657 1.716002 0.342640
v 1.240134 1.567751 0.450539
v 1.444604 1.295338 0.521049
v 0.654403 3.691311 2.277791
v 0.843349 3.441843 2.320817
v 0.997839 3.445215 2.063309
v 0.860614 3.720869 2.053684
v -0.936018 3.744066 2.053437
v -1.061335 3.455049 2.045310
v -0.943957 3.476601 2.328849
v -0.707089 3.698554 2.259810
v 1.645149 1.855256 -2.590753
v 1.650066 1.953088 -2.492454
v 1.717322 1.823500 -2.325270
v 1.714762 1.673614 -2.467765
v 0.686861 3.338398 2.678643
v 0.647480 2.978697 3.029483
v 0.331127 3.061559 3.278625
v 0.403549 3.487733 2.851448
v -0.772650 3.360289 2.668070
v -0.755062 3.004287 3.016163
v -0.442562 3.076117 3.271495
v -0.488682 3.503651 2.844214
v -1.748402 2.816871 0.295398
v -1.892936 2.963271 0.089943
v -1.656030 2.772730 0.106715
v -1.067806 4.249874 -2.318082
v -1.215296 4.022939 -2.504374
v -1.349058 3.935290 -2.262452
v -1.216306 4.128770 -2.098315
v 1.110708 3.723328 -3.188563
v 1.071272 3.430188 -3.397618
v 0.912958 3.659894 -3.463456
v 1.394390 3.532088 -1.882040
v 1.442158 3.265562 -2.052806
v 1.413214 3.407502 -2.380322
v 1.342926 3.732197 -2.202320
v 1.560434 4.453708 0.616911
v 1.680457 4.437915 0.314875
v 1.594781 4.621799 0.391162
v 1.508561 2.727058 0.502150
v 1.662061 2.805726 0.312348
v 1.601386 2.950201 0.371785
vt 0.471123 0.980485
vt 0.458847 0.970275
vt 0.471123 0.947132
vt 0.515628 0.412694
vt 0.515628 0.469824
vt 0.480670 0.418215
vt 0.234799 0.525474
vt 0.282319 0.523128
vt 0.282319 0.563497
vt 0.869075 0.983449
vt 0.865599 0.970103
vt 0.882765 0.971942
vt 0.882765 0.989758
vt 0.798808 0.251799
vt 0.817765 0.211181
vt 0.817765 0.272389
vt 0.435402 0.965887
vt 0.451965 0.947132
vt 0.451965 0.978416
vt 0.942987 0.769594
vt 0.942987 0.804119
vt 0.920078 0.785667
vt 0.959383 0.354916
vt 0.975241 0.341446
vt 0.975241 0.373964
vt 0.925528 0.688389
vt 0.945370 0.685700
vt 0.945370 0.701598
vt 0.951761 0.132946
vt 0.974261 0.122415
vt 0.974261 0.140818
vt 0.226911 0.555285
vt 0.221925 0.545860
vt 0.226911 0.541493
vt 0.046568 0.606681
vt 0.043384 0.604068
vt 0.046568 0.591607
vt 0.336777 0.148634
vt 0.331385 0.145982
vt 0.336777 0.142127
vt 0.338472 0.524902
vt 0.334312 0.511467
vt 0.338472 0.507086
vt 0.520042 0.689222
vt 0.520042 0.726010
vt 0.478590 0.690278
vt 0.672188 0.863265
vt 0.692951 0.861274
vt 0.692951 0.891831
vt 0.661244 0.879933
vt 0.896884 0.047598
vt 0.876061 0.023733
vt 0.896884 0.003441
vt 0.922832 0.270251
vt 0.906937 0.258810
vt 0.922832 0.219689
vt 0.919896 0.874200
vt 0.919896 0.916727
vt 0.900079 0.886525
vt 0.833096 0.631017
vt 0.874559 0.619958
vt 0.874559 0.643561
vt 0.226965 0.603113
vt 0.217514 0.584516
vt 0.226965 0.562391
vt 0.424815 0.426031
vt 0.424815 0.491786
vt 0.394693 0.472341
vt 0.869179 0.003441
vt 0.869179 0.049956
vt 0.847090 0.012889
vt 0.382704 0.797039
vt 0.331042 0.779611
vt 0.382704 0.772202
vt 0.471317 0.731948
vt 0.467636 0.719799
vt 0.471317 0.715993
vt 0.661244 0.665418
vt 0.700268 0.663178
vt 0.700268 0.703984
vt 0.667883 0.989328
vt 0.653027 0.977061
vt 0.667883 0.966054
vt 0.381753 0.862452
vt 0.365448 0.822802
vt 0.381753 0.803921
vt 0.591559 0.214160
vt 0.561892 0.190815
vt 0.591559 0.150931
vt 0.830973 0.298538
vt 0.830973 0.360538
vt 0.812929 0.310968
vt 0.840601 0.276026
vt 0.824647 0.236521
vt 0.840601 0.211181
vt 0.893197 0.874200
vt 0.893197 0.909666
vt 0.867664 0.898071
vt 0.321401 0.889484
vt 0.303653 0.857386
vt 0.321401 0.839849
vt 0.918646 0.694841
vt 0.903100 0.654732
vt 0.918646 0.642477
vt 0.610764 0.122324
vt 0.637997 0.081334
vt 0.637997 0.143519
vt 0.113309 0.553383
vt 0.097464 0.522671
vt 0.113309 0.517357
vt 0.347922 0.703900
vt 0.391900 0.691858
vt 0.391900 0.711925
vt 0.343537 0.722972
vt 0.695144 0.772130
vt 0.695144 0.808801
vt 0.661244 0.806935
vt 0.639421 0.166683
vt 0.675859 0.150931
vt 0.675859 0.196682
vt 0.640241 0.195991
vt 0.226426 0.447813
vt 0.220838 0.438292
vt 0.226426 0.429677
vt 0.569899 0.793400
vt 0.563971 0.784228
vt 0.569899 0.773782
vt 0.227091 0.422794
vt 0.220838 0.407351
vt 0.227091 0.394687
vt 0.990778 0.081334
vt 0.990778 0.106290
vt 0.976953 0.087446
vt 0.833285 0.872708
vt 0.858040 0.867410
vt 0.858040 0.904352
vt 0.435402 0.894505
vt 0.459211 0.866958
vt 0.459211 0.905325
vt 0.290929 0.065050
vt 0.290929 0.071456
vt 0.280731 0.067072
vt 0.895510 0.553026
vt 0.875498 0.525488
vt 0.895510 0.524318
vt 0.524075 0.289016
vt 0.492016 0.242197
vt 0.524075 0.227409
vt 0.394693 0.534804
vt 0.426140 0.498668
vt 0.426140 0.559531
vt 0.826213 0.621603
vt 0.807399 0.580660
vt 0.826213 0.560885
vt 0.979632 0.507126
vt 0.963073 0.488372
vt 0.979632 0.475851
vt 0.855879 0.911234
vt 0.855879 0.945735
vt 0.833285 0.929868
vt 0.340106 0.972620
vt 0.340106 0.993480
vt 0.326709 0.991007
vt 0.809636 0.639709
vt 0.826213 0.628485
vt 0.826214 0.645674
vt 0.969915 0.662829
vt 0.984152 0.642477
vt 0.984152 0.671618
vt 0.649222 0.804788
vt 0.654208 0.795362
vt 0.654208 0.809153
vt 0.046568 0.569652
vt 0.046568 0.584725
vt 0.043384 0.572264
vt 0.537292 0.211684
vt 0.537292 0.217694
vt 0.531454 0.214820
vt 0.520273 0.799073
vt 0.520273 0.813138
vt 0.514484 0.802214
vt 0.720120 0.575251
vt 0.692325 0.551017
vt 0.720120 0.521341
vt 0.159031 0.350031
vt 0.159031 0.412365
vt 0.125534 0.387925
vt 0.135918 0.341177
vt 0.877152 0.174794
vt 0.897934 0.150931
vt 0.897934 0.195115
vt 0.772838 0.387521
vt 0.772838 0.445158
vt 0.749511 0.422871
vt 0.960569 0.746452
vt 0.941097 0.713403
vt 0.960569 0.711319
vt 0.797331 0.800883
vt 0.753753 0.784872
vt 0.797331 0.771584
vt 0.162812 0.240374
vt 0.124397 0.224213
vt 0.162812 0.173240
vt 0.696762 0.062768
vt 0.670959 0.040989
vt 0.696762 0.003441
vt 0.945958 0.439863
vt 0.963075 0.436664
vt 0.963075 0.463830
vt 0.942428 0.468969
vt 0.511851 0.150931
vt 0.511851 0.216528
vt 0.481863 0.170452
vt 0.866317 0.653077
vt 0.866317 0.699593
vt 0.844222 0.690176
vt 0.039444 0.811446
vt 0.045546 0.800315
vt 0.045546 0.811916
vt 0.867417 0.422066
vt 0.883584 0.382131
vt 0.883584 0.440834
vt 0.881045 0.286529
vt 0.847483 0.268828
vt 0.881045 0.256420
vt 0.742616 0.644995
vt 0.727593 0.584841
vt 0.742616 0.560885
vt 0.824257 0.043077
vt 0.840208 0.003441
vt 0.840208 0.068437
vt 0.222239 0.143319
vt 0.172794 0.152848
vt 0.173254 0.114846
vt 0.222239 0.081334
vt 0.956427 0.286905
vt 0.966711 0.277693
vt 0.966711 0.291562
vt 0.799140 0.467654
vt 0.818022 0.446696
vt 0.818022 0.507619
vt 0.807813 0.432897
vt 0.779720 0.410573
vt 0.807813 0.387521
vt 0.890466 0.423066
vt 0.906783 0.382131
vt 0.906783 0.434448
vt 0.673420 0.367297
vt 0.652463 0.323477
vt 0.673420 0.292603
vt 0.200388 0.695740
vt 0.259793 0.683968
vt 0.259793 0.709256
vt 0.266675 0.738382
vt 0.308463 0.734156
vt 0.308463 0.766758
vt 0.708027 0.989493
vt 0.693264 0.969375
vt 0.708027 0.966126
vt 0.226887 0.509269
vt 0.226887 0.534611
vt 0.221925 0.517013
vt 0.145067 0.919339
vt 0.171612 0.894074
vt 0.171612 0.926184
vt 0.308009 0.071456
vt 0.297811 0.069435
vt 0.308009 0.065050
vt 0.338576 0.500203
vt 0.334312 0.479726
vt 0.338576 0.472539
vt 0.652463 0.388842
vt 0.670538 0.374179
vt 0.670538 0.396846
vt 0.568252 0.907819
vt 0.591885 0.905916
vt 0.591885 0.939832
vt 0.982504 0.923609
vt 0.982504 0.954915
vt 0.969393 0.939414
vt 0.980127 0.590301
vt 0.966392 0.575699
vt 0.980127 0.558994
vt 0.983395 0.611219
vt 0.996122 0.597183
vt 0.996122 0.617025
vt 0.116882 0.794752
vt 0.137889 0.783993
vt 0.137889 0.802671
vt 0.775403 0.348452
vt 0.747758 0.335176
vt 0.775403 0.298538
vt 0.925499 0.137757
vt 0.943691 0.126864
vt 0.943691 0.140988
vt 0.976513 0.631382
vt 0.961125 0.624994
vt 0.976513 0.597183
vt 0.132247 0.267337
vt 0.132247 0.284050
vt 0.121580 0.281705
vt 0.776133 0.258368
vt 0.791926 0.211181
vt 0.791926 0.286720
vt 0.887081 0.815110
vt 0.865014 0.790784
vt 0.887081 0.769594
vt 0.135291 0.974801
vt 0.119812 0.953504
vt 0.135291 0.939934
vt 0.556831 0.069558
vt 0.528322 0.029611
vt 0.556831 0.003441
vt 0.443957 0.181253
vt 0.474981 0.150931
vt 0.474981 0.217325
vt 0.846682 0.756144
vt 0.821655 0.718907
vt 0.846682 0.711319
vt 0.377971 0.957210
vt 0.403378 0.945048
vt 0.403378 0.968237
vt 0.283337 0.971216
vt 0.264700 0.950365
vt 0.283337 0.941626
vt 0.952099 0.831173
vt 0.969382 0.821992
vt 0.969382 0.855192
vt 0.895921 0.803741
vt 0.893963 0.783013
vt 0.913196 0.769594
vt 0.913196 0.814843
vt 0.743819 0.970694
vt 0.720806 0.959388
vt 0.743819 0.945673
vt 0.548320 0.886156
vt 0.519094 0.864883
vt 0.548320 0.851631
vt 0.318696 0.935228
vt 0.295446 0.920954
vt 0.318696 0.899969
vt 0.994447 0.341446
vt 0.994447 0.364195
vt 0.982123 0.358210
vt 0.307388 0.992467
vt 0.293155 0.982085
vt 0.307388 0.972443
vt 0.257818 0.893087
vt 0.241113 0.892125
vt 0.257818 0.868245
vt 0.296910 0.152789
vt 0.285500 0.152243
vt 0.296910 0.142127
vt 0.520273 0.792191
vt 0.514484 0.789050
vt 0.520273 0.778126
vt 0.032861 0.859774
vt 0.032861 0.893349
vt 0.003441 0.881860
vt 0.980187 0.074241
vt 0.965377 0.045597
vt 0.980187 0.042569
vt 0.772827 0.618522
vt 0.749498 0.583171
vt 0.772827 0.560885
vt 0.727512 0.537182
vt 0.762179 0.533616
vt 0.762179 0.553183
vt 0.712635 0.225166
vt 0.739930 0.211181
vt 0.739930 0.263332
vt 0.869948 0.300375
vt 0.888537 0.298538
vt 0.888537 0.349100
vt 0.731009 0.919934
vt 0.707151 0.907030
vt 0.731009 0.883811
vt 0.928012 0.560885
vt 0.928012 0.604813
vt 0.909178 0.599444
vt 0.856630 0.485426
vt 0.868615 0.475851
vt 0.868615 0.550079
vt 0.742629 0.395056
vt 0.742629 0.445158
vt 0.714387 0.398519
vt 0.853371 0.613076
vt 0.833096 0.573839
vt 0.853371 0.560885
vt 0.569548 0.812976
vt 0.563971 0.810454
vt 0.569548 0.800282
vt 0.804213 0.792736
vt 0.826403 0.771584
vt 0.826403 0.823758
vt 0.773306 0.138269
vt 0.749685 0.136223
vt 0.773306 0.081334
vt 0.800517 0.620641
vt 0.779709 0.611652
vt 0.800517 0.560885
vt 0.463981 0.819025
vt 0.435402 0.818698
vt 0.463981 0.777256
vt 0.227845 0.482866
vt 0.223180 0.468613
vt 0.227845 0.456004
vt 0.060507 0.121771
vt 0.051841 0.093632
vt 0.060507 0.082052
vt 0.976037 0.893311
vt 0.984590 0.874200
vt 0.984590 0.910575
vt 0.959478 0.193803
vt 0.944912 0.180737
vt 0.959478 0.150931
vt 0.330479 0.862444
vt 0.358566 0.851815
vt 0.358566 0.887668
vt 0.740876 0.298538
vt 0.740876 0.382631
vt 0.725830 0.358685
vt 0.478590 0.788032
vt 0.507602 0.778126
vt 0.507602 0.819232
vt 0.954243 0.597183
vt 0.954243 0.633854
vt 0.934894 0.602694
vt 0.165087 0.658733
vt 0.161232 0.644127
vt 0.165087 0.633782
vt 0.118652 0.434935
vt 0.118652 0.510474
vt 0.097464 0.479353
vt 0.614642 0.972847
vt 0.635487 0.952524
vt 0.635487 0.977158
vt 0.974740 0.334564
vt 0.959383 0.334405
vt 0.974740 0.298538
vt 0.606353 0.981273
vt 0.594352 0.947202
vt 0.606353 0.946714
vt 0.249420 0.716138
vt 0.249420 0.744925
vt 0.200388 0.729180
vt 0.134515 0.933052
vt 0.119812 0.927860
vt 0.134515 0.881553
vt 0.257487 0.950319
vt 0.234731 0.921635
vt 0.257487 0.918947
vt 0.055161 0.347796
vt 0.055161 0.377613
vt 0.048130 0.371741
vt 0.698420 0.736182
vt 0.693478 0.728470
vt 0.698420 0.710867
vt 0.519094 0.900455
vt 0.546058 0.893038
vt 0.546058 0.924921
vt 0.889611 0.867318
vt 0.867664 0.845916
vt 0.889611 0.821992
vt 0.568252 0.952799
vt 0.587470 0.946714
vt 0.587470 0.974127
vt 0.591996 0.069261
vt 0.563713 0.042840
vt 0.591996 0.003441
vt 0.969155 0.909036
vt 0.953043 0.884760
vt 0.969155 0.874200
vt 0.485424 0.003441
vt 0.485424 0.069765
vt 0.454601 0.040111
vt 0.133182 0.810902
vt 0.133182 0.836848
vt 0.090338 0.824858
vt 0.318696 0.942110
vt 0.318696 0.965561
vt 0.293155 0.953650
vt 0.377971 0.888000
vt 0.421662 0.879610
vt 0.421662 0.899767
vt 0.045416 0.972925
vt 0.029362 0.958435
vt 0.045416 0.938112
vt 0.750702 0.960161
vt 0.773142 0.945673
vt 0.773142 0.971221
vt 0.173855 0.887191
vt 0.145067 0.872880
vt 0.173855 0.852691
vt 0.029759 0.900231
vt 0.029759 0.931230
vt 0.003441 0.924049
vt 0.320618 0.684815
vt 0.336448 0.665806
vt 0.336448 0.698399
vt 0.160823 0.991113
vt 0.145067 0.973230
vt 0.160823 0.971093
vt 0.234731 0.965076
vt 0.257226 0.957201
vt 0.257226 0.975604
vt 0.798808 0.290181
vt 0.809459 0.279271
vt 0.809459 0.290690
vt 0.685053 0.979925
vt 0.674765 0.970722
vt 0.685053 0.966054
vt 0.109241 0.584570
vt 0.109241 0.602386
vt 0.105081 0.598006
vt 0.894619 0.118210
vt 0.868064 0.101112
vt 0.894619 0.081334
vt 0.965377 0.007581
vt 0.979916 0.003441
vt 0.979916 0.035687
vt 0.707151 0.763001
vt 0.737713 0.754547
vt 0.737713 0.797949
vt 0.598878 0.023510
vt 0.626034 0.003441
vt 0.626034 0.067917
vt 0.331101 0.705862
vt 0.331101 0.727274
vt 0.266675 0.708399
vt 0.303653 0.774867
vt 0.322511 0.773640
vt 0.322511 0.832967
vt 0.701892 0.470345
vt 0.701892 0.514459
vt 0.665853 0.511006
vt 0.256779 0.787143
vt 0.256779 0.861321
vt 0.244718 0.851621
vt 0.471316 0.738830
vt 0.471316 0.754784
vt 0.467636 0.750978
vt 0.958495 0.046524
vt 0.943870 0.016464
vt 0.958495 0.003441
vt 0.560626 0.225478
vt 0.560626 0.289016
vt 0.530957 0.249130
vt 0.828878 0.143335
vt 0.810832 0.130903
vt 0.828878 0.081334
vt 0.032561 0.779627
vt 0.032561 0.820550
vt 0.003441 0.810891
vt 0.640491 0.879908
vt 0.640491 0.914445
vt 0.614642 0.904074
vt 0.737348 0.876929
vt 0.707151 0.862051
vt 0.737348 0.842232
vt 0.898294 0.448902
vt 0.898294 0.468969
vt 0.856630 0.463661
vt 0.342934 0.376107
vt 0.340278 0.357347
vt 0.342934 0.347897
vt 0.644879 0.102744
vt 0.671581 0.081334
vt 0.671581 0.143319
vt 0.744722 0.468743
vt 0.762179 0.452040
vt 0.762179 0.526734
vt 0.607467 0.703588
vt 0.607467 0.769912
vt 0.587925 0.756874
vt 0.860535 0.438887
vt 0.843044 0.429518
vt 0.860535 0.382131
vt 0.048130 0.316982
vt 0.055198 0.311097
vt 0.055198 0.340914
vt 0.906337 0.711319
vt 0.906337 0.751567
vt 0.883500 0.722305
vt 0.603203 0.873088
vt 0.603203 0.899034
vt 0.568252 0.884106
vt 0.966367 0.808243
vt 0.949869 0.782485
vt 0.966367 0.769594
vt 0.944879 0.119982
vt 0.925499 0.116086
vt 0.944879 0.081334
vt 0.193023 0.886557
vt 0.180737 0.863123
vt 0.193023 0.852691
vt 0.258926 0.776788
vt 0.253907 0.764316
vt 0.258926 0.751808
vt 0.698640 0.764415
vt 0.693478 0.756066
vt 0.698640 0.743065
vt 0.956901 0.254538
vt 0.966711 0.219689
vt 0.966711 0.270811
vt 0.749498 0.633766
vt 0.801155 0.629182
vt 0.801155 0.644995
vt 0.832527 0.203794
vt 0.811414 0.196160
vt 0.832527 0.150931
vt 0.200388 0.755684
vt 0.247025 0.751808
vt 0.247025 0.780261
vt 0.784839 0.657580
vt 0.808994 0.653133
vt 0.808994 0.704437
vt 0.951761 0.083817
vt 0.970071 0.081334
vt 0.970071 0.115533
vt 0.055450 0.161108
vt 0.051841 0.146180
vt 0.055450 0.128654
vt 0.145067 0.799489
vt 0.193506 0.786741
vt 0.193506 0.810875
vt 0.003993 0.990488
vt 0.003441 0.977525
vt 0.016275 0.980209
vt 0.016275 0.996559
vt 0.166238 0.959732
vt 0.145067 0.964211
vt 0.150077 0.940081
vt 0.166238 0.933066
vt 0.720999 0.135873
vt 0.719351 0.081334
vt 0.742803 0.089156
vt 0.742803 0.140218
vt 0.487483 0.579740
vt 0.478590 0.535310
vt 0.518742 0.543521
vt 0.518742 0.582625
vt 0.739930 0.288031
vt 0.722761 0.289870
vt 0.726240 0.276525
vt 0.739930 0.270214
vt 0.798013 0.007905
vt 0.817375 0.003441
vt 0.817375 0.064004
vt 0.798452 0.063912
vt 0.939830 0.522470
vt 0.956811 0.518616
vt 0.956811 0.553364
vt 0.936653 0.549698
vt 0.042538 0.562770
vt 0.009338 0.562657
vt 0.003441 0.536998
vt 0.042538 0.513693
vt 0.751705 0.694931
vt 0.749701 0.656422
vt 0.777957 0.668508
vt 0.777957 0.704437
vt 0.950019 0.251690
vt 0.929714 0.256010
vt 0.936077 0.224168
vt 0.950019 0.219689
vt 0.264700 0.920128
vt 0.268794 0.900973
vt 0.288564 0.899969
vt 0.288564 0.934744
vt 0.790595 0.746743
vt 0.785439 0.717754
vt 0.814773 0.711319
vt 0.814773 0.753028
vt 0.642340 0.832918
vt 0.614642 0.836443
vt 0.617709 0.795742
vt 0.642340 0.795362
vt 0.046705 0.793433
vt 0.039444 0.780026
vt 0.046705 0.779627
vt 0.277428 0.469016
vt 0.277428 0.516245
vt 0.236164 0.507755
vt 0.234799 0.476075
vt 0.052686 0.231034
vt 0.003441 0.242202
vt 0.012752 0.180188
vt 0.052686 0.173904
vt 0.746812 0.221758
vt 0.769251 0.211181
vt 0.769251 0.271980
vt 0.754447 0.271493
vt 0.058693 0.735898
vt 0.053631 0.706789
vt 0.100273 0.705005
vt 0.100273 0.736575
vt 0.551487 0.987877
vt 0.549148 0.963627
vt 0.560599 0.963284
vt 0.560599 0.989212
vt 0.557089 0.776800
vt 0.557089 0.815031
vt 0.531711 0.813180
vt 0.527680 0.773782
vt 0.152416 0.686141
vt 0.152416 0.727702
vt 0.117951 0.726330
vt 0.116882 0.684644
vt 0.788066 0.845179
vt 0.788066 0.875034
vt 0.753760 0.864357
vt 0.753753 0.849101
vt 0.612769 0.584569
vt 0.575663 0.574846
vt 0.575893 0.559370
vt 0.612769 0.535253
vt 0.273849 0.071091
vt 0.261303 0.070991
vt 0.264485 0.065762
vt 0.273849 0.065050
vt 0.213956 0.397788
vt 0.213956 0.449122
vt 0.174672 0.416518
vt 0.172794 0.394687
vt 0.643590 0.051180
vt 0.632916 0.003441
vt 0.664077 0.007029
vt 0.664077 0.057584
vt 0.165462 0.328421
vt 0.139129 0.334295
vt 0.139877 0.284985
vt 0.165462 0.267337
vt 0.770863 0.163544
vt 0.804532 0.150931
vt 0.804532 0.190014
vt 0.776328 0.187981
vt 0.295924 0.862146
vt 0.295924 0.893087
vt 0.275183 0.891260
vt 0.264700 0.873872
vt 0.640205 0.438627
vt 0.609826 0.461935
vt 0.609560 0.421932
vt 0.640205 0.404401
vt 0.187364 0.511509
vt 0.215043 0.509269
vt 0.215043 0.555509
vt 0.172794 0.547774
vt 0.934215 0.711319
vt 0.934215 0.751064
vt 0.915535 0.748088
vt 0.913219 0.712144
vt 0.236680 0.440301
vt 0.275962 0.407702
vt 0.275962 0.459046
vt 0.234799 0.462134
vt 0.043200 0.994362
vt 0.031619 0.993680
vt 0.029362 0.983950
vt 0.043200 0.979808
vt 0.473788 0.467454
vt 0.435402 0.467572
vt 0.438670 0.412694
vt 0.473788 0.413692
vt 0.391255 0.829519
vt 0.389987 0.793519
vt 0.418164 0.790868
vt 0.418164 0.832577
vt 0.234051 0.893033
vt 0.200388 0.892970
vt 0.206231 0.866072
vt 0.234051 0.864746
vt 0.255330 0.295703
vt 0.285260 0.296596
vt 0.285260 0.330828
vt 0.249543 0.334956
vt 0.892421 0.562123
vt 0.902296 0.560885
vt 0.902296 0.627726
vt 0.890172 0.627117
vt 0.210631 0.562391
vt 0.210631 0.610912
vt 0.173038 0.608373
vt 0.172794 0.562858
vt 0.742819 0.699326
vt 0.707151 0.704437
vt 0.708795 0.672430
vt 0.742819 0.663178
vt 0.193506 0.737350
vt 0.166707 0.736586
vt 0.167535 0.684936
vt 0.193506 0.683968
vt 0.428520 0.416264
vt 0.394693 0.419149
vt 0.396301 0.366205
vt 0.428520 0.349871
vt 0.077704 0.957675
vt 0.052951 0.958613
vt 0.058208 0.935177
vt 0.077704 0.929300
vt 0.038294 0.733435
vt 0.038294 0.772745
vt 0.003441 0.766633
vt 0.003931 0.734529
vt 0.836162 0.438865
vt 0.814696 0.438887
vt 0.815011 0.388577
vt 0.836162 0.387521
vt 0.935546 0.443328
vt 0.935546 0.468969
vt 0.909827 0.463890
vt 0.905176 0.447022
vt 0.464415 0.531224
vt 0.443260 0.541044
vt 0.435402 0.497920
vt 0.464415 0.474454
vt 0.489729 0.130955
vt 0.480070 0.081334
vt 0.518184 0.082332
vt 0.518184 0.134094
vt 0.182837 0.380000
vt 0.172794 0.342564
vt 0.227917 0.342290
vt 0.227917 0.387805
vt 0.783085 0.083742
vt 0.803950 0.081334
vt 0.803950 0.134051
vt 0.780188 0.130912
vt 0.063522 0.210813
vt 0.065783 0.164069
vt 0.117515 0.160427
vt 0.117515 0.224426
vt 0.270677 0.691789
vt 0.266675 0.683680
vt 0.313736 0.665806
vt 0.313736 0.698980
vt 0.656781 0.454701
vt 0.647087 0.404401
vt 0.677531 0.407144
vt 0.677531 0.458931
vt 0.005638 0.257253
vt 0.056104 0.249084
vt 0.056104 0.304215
vt 0.003441 0.298871
vt 0.522365 0.977577
vt 0.519094 0.964823
vt 0.542266 0.963284
vt 0.542266 0.979238
vt 0.970958 0.438686
vt 0.982364 0.436664
vt 0.982364 0.466259
vt 0.969957 0.467812
vt 0.939209 0.506745
vt 0.936033 0.479518
vt 0.956191 0.475851
vt 0.956191 0.510599
vt 0.557580 0.296573
vt 0.557580 0.342819
vt 0.529905 0.340573
vt 0.515347 0.304311
vt 0.895961 0.338218
vt 0.895419 0.298538
vt 0.912568 0.299586
vt 0.912568 0.347934
vt 0.018093 0.620930
vt 0.003441 0.593519
vt 0.036502 0.569652
vt 0.036502 0.623985
vt 0.478590 0.629295
vt 0.483386 0.591339
vt 0.511823 0.589507
vt 0.511823 0.642272
vt 0.806840 0.943315
vt 0.798481 0.918469
vt 0.823815 0.915171
vt 0.823815 0.945826
vt 0.274295 0.814571
vt 0.266675 0.773640
vt 0.296770 0.774575
vt 0.296770 0.812961
vt 0.925097 0.611695
vt 0.925097 0.634919
vt 0.912153 0.632502
vt 0.909178 0.612752
vt 0.353290 0.129264
vt 0.346945 0.081334
vt 0.388548 0.091264
vt 0.388548 0.142197
vt 0.254421 0.015196
vt 0.254421 0.071940
vt 0.214591 0.064949
vt 0.205458 0.003441
vt 0.696805 0.956048
vt 0.693264 0.926944
vt 0.713924 0.932067
vt 0.713924 0.959244
vt 0.945217 0.848658
vt 0.930609 0.859850
vt 0.925838 0.833907
vt 0.945217 0.821992
vt 0.173931 0.970245
vt 0.177823 0.954365
vt 0.188814 0.952624
vt 0.188814 0.981149
vt 0.425606 0.746307
vt 0.425606 0.783986
vt 0.393410 0.781480
vt 0.389987 0.746901
vt 0.370491 0.945941
vt 0.358349 0.946085
vt 0.360577 0.894700
vt 0.370491 0.894550
vt 0.435402 0.351410
vt 0.473216 0.349871
vt 0.473216 0.405812
vt 0.435406 0.404313
vt 0.145652 0.818684
vt 0.183775 0.817757
vt 0.183775 0.845809
vt 0.145067 0.845488
vt 0.165462 0.247450
vt 0.165462 0.260455
vt 0.123591 0.258161
vt 0.123322 0.248259
vt 0.038976 0.725055
vt 0.003441 0.726553
vt 0.004511 0.684867
vt 0.038976 0.683495
vt 0.863704 0.599837
vt 0.860253 0.560885
vt 0.883290 0.562675
vt 0.883290 0.605025
vt 0.343520 0.275836
vt 0.292142 0.282345
vt 0.307224 0.230531
vt 0.343520 0.234557
vt 0.610072 0.352574
vt 0.644664 0.349871
vt 0.644664 0.373194
vt 0.606352 0.394967
vt 0.073578 0.348987
vt 0.118652 0.341177
vt 0.118652 0.386700
vt 0.063522 0.386418
vt 0.317854 0.148629
vt 0.317588 0.142127
vt 0.324503 0.142733
vt 0.324503 0.151575
vt 0.121886 0.770102
vt 0.116882 0.755601
vt 0.148759 0.734584
vt 0.148759 0.777110
vt 0.202099 0.826278
vt 0.234187 0.825842
vt 0.234187 0.857864
vt 0.200388 0.856982
vt 0.336521 0.738639
vt 0.336521 0.765295
vt 0.320361 0.758275
vt 0.315345 0.734156
vt 0.188814 0.945730
vt 0.178494 0.945742
vt 0.178867 0.894414
vt 0.188814 0.894074
vt 0.721406 0.983460
vt 0.733692 0.977576
vt 0.733692 0.994005
vt 0.720806 0.996423
vt 0.616293 0.591451
vt 0.616293 0.634387
vt 0.575663 0.625810
vt 0.576108 0.598042
vt 0.750535 0.278862
vt 0.759285 0.280136
vt 0.759285 0.289609
vt 0.746812 0.289735
vt 0.972232 0.983039
vt 0.969393 0.964151
vt 0.985023 0.961797
vt 0.985023 0.986160
vt 0.939210 0.563809
vt 0.959510 0.560885
vt 0.959510 0.590301
vt 0.934894 0.588963
vt 0.421662 0.871530
vt 0.389987 0.872727
vt 0.390786 0.842219
vt 0.421662 0.839459
vt 0.281821 0.582924
vt 0.275779 0.582876
vt 0.276566 0.573519
vt 0.281821 0.570379
vt 0.662887 0.761738
vt 0.661244 0.713212
vt 0.686596 0.710867
vt 0.686596 0.765247
vt 0.564711 0.360591
vt 0.599470 0.349871
vt 0.599470 0.403802
vt 0.566397 0.398696
vt 0.058261 0.847798
vt 0.083456 0.843731
vt 0.083456 0.877245
vt 0.052951 0.875461
vt 0.067227 0.965495
vt 0.067227 0.990139
vt 0.052951 0.986862
vt 0.054529 0.965875
vt 0.425606 0.638734
vt 0.425606 0.679174
vt 0.394858 0.666889
vt 0.390648 0.631606
vt 0.211266 0.994307
vt 0.197098 0.993445
vt 0.198140 0.982074
vt 0.211266 0.975206
vt 0.604546 0.335175
vt 0.564462 0.342819
vt 0.573312 0.298923
vt 0.604546 0.296045
vt 0.833556 0.956380
vt 0.852761 0.952617
vt 0.852761 0.972692
vt 0.833285 0.976963
vt 0.959521 0.382613
vt 0.959521 0.411193
vt 0.940147 0.405502
vt 0.934579 0.382131
vt 0.525624 0.599714
vt 0.559031 0.586222
vt 0.559031 0.639111
vt 0.530543 0.637655
vt 0.379014 0.987356
vt 0.377971 0.975981
vt 0.392139 0.975119
vt 0.392139 0.994223
vt 0.583909 0.682810
vt 0.575663 0.641269
vt 0.613130 0.643301
vt 0.613130 0.685234
vt 0.720711 0.637881
vt 0.692784 0.644995
vt 0.696656 0.603406
vt 0.720711 0.591451
vt 0.973861 0.258939
vt 0.985999 0.255941
vt 0.985999 0.281518
vt 0.973593 0.285316
vt 0.125641 0.060211
vt 0.068025 0.074452
vt 0.074417 0.014072
vt 0.125641 0.003441
vt 0.128683 0.155439
vt 0.124397 0.081334
vt 0.165912 0.082265
vt 0.165912 0.166358
vt 0.946160 0.885396
vt 0.946160 0.912052
vt 0.926778 0.900140
vt 0.931554 0.874200
vt 0.965813 0.524889
vt 0.980322 0.518616
vt 0.980322 0.548315
vt 0.963693 0.546457
vt 0.612098 0.268172
vt 0.613740 0.212173
vt 0.638441 0.211181
vt 0.638441 0.274720
vt 0.863066 0.307601
vt 0.863066 0.340445
vt 0.839468 0.338109
vt 0.837855 0.298538
vt 0.013079 0.457182
vt 0.041558 0.454025
vt 0.041558 0.505787
vt 0.003441 0.506811
vt 0.095723 0.847518
vt 0.123650 0.843731
vt 0.123650 0.874671
vt 0.090338 0.872610
vt 0.976264 0.863987
vt 0.976566 0.854949
vt 0.990958 0.853509
vt 0.990958 0.866987
vt 0.843256 0.184085
vt 0.839409 0.150931
vt 0.870270 0.153273
vt 0.870270 0.185269
vt 0.527507 0.682340
vt 0.478956 0.682207
vt 0.478590 0.657051
vt 0.527507 0.649154
vt 0.417254 0.234733
vt 0.442901 0.230531
vt 0.442901 0.295564
vt 0.408435 0.294889
vt 0.715717 0.336059
vt 0.686712 0.334050
vt 0.680302 0.311574
vt 0.715717 0.292603
vt 0.758631 0.713213
vt 0.778557 0.711319
vt 0.778557 0.764701
vt 0.753753 0.764329
vt 0.526604 0.404078
vt 0.522267 0.349871
vt 0.557829 0.350456
vt 0.557829 0.404610
vt 0.567556 0.650276
vt 0.567557 0.696706
vt 0.539260 0.696161
vt 0.534389 0.649154
vt 0.861182 0.123034
vt 0.835760 0.121637
vt 0.838132 0.083989
vt 0.861182 0.081334
vt 0.615410 0.753749
vt 0.649322 0.749917
vt 0.649322 0.788480
vt 0.614642 0.784307
vt 0.092962 0.918285
vt 0.090338 0.884472
vt 0.112930 0.881553
vt 0.112930 0.919687
vt 0.891288 0.141763
vt 0.835784 0.141113
vt 0.835760 0.130907
vt 0.891288 0.129916
vt 0.563095 0.476706
vt 0.563095 0.528371
vt 0.525624 0.523925
vt 0.526154 0.477007
vt 0.581043 0.766900
vt 0.527680 0.766099
vt 0.529984 0.746211
vt 0.581043 0.742088
vt 0.844844 0.446696
vt 0.844844 0.499664
vt 0.824904 0.496987
vt 0.825226 0.446900
vt 0.294923 0.131318
vt 0.285500 0.104286
vt 0.340063 0.081334
vt 0.340063 0.135245
vt 0.098199 0.560869
vt 0.098199 0.603222
vt 0.053631 0.594286
vt 0.054939 0.565682
vt 0.918956 0.821992
vt 0.918956 0.860925
vt 0.896493 0.854753
vt 0.897799 0.823409
vt 0.098841 0.652172
vt 0.095747 0.610353
vt 0.108757 0.610104
vt 0.108757 0.652252
vt 0.976264 0.825256
vt 0.990539 0.821992
vt 0.990539 0.846627
vt 0.977841 0.846241
vt 0.570240 0.479246
vt 0.607837 0.476706
vt 0.607837 0.525227
vt 0.569977 0.524768
vt 0.387811 0.463959
vt 0.346991 0.471588
vt 0.347985 0.428649
vt 0.387811 0.419897
vt 0.571174 0.829916
vt 0.571174 0.844726
vt 0.522249 0.844749
vt 0.519094 0.824735
vt 0.645581 0.342819
vt 0.611428 0.338962
vt 0.611791 0.298040
vt 0.645581 0.292603
vt 0.102547 0.664937
vt 0.102547 0.698123
vt 0.053631 0.690238
vt 0.053993 0.665080
vt 0.039775 0.386454
vt 0.039775 0.447143
vt 0.004503 0.446094
vt 0.003441 0.385540
vt 0.685445 0.400667
vt 0.707505 0.395056
vt 0.707505 0.458931
vt 0.684414 0.458086
vt 0.618362 0.921327
vt 0.645395 0.921957
vt 0.645395 0.944439
vt 0.614642 0.945642
vt 0.177633 0.297589
vt 0.241519 0.299618
vt 0.241519 0.334970
vt 0.172794 0.335407
vt 0.826403 0.868775
vt 0.799124 0.869043
vt 0.799259 0.831982
vt 0.826403 0.830641
vt 0.984821 0.769594
vt 0.984821 0.801111
vt 0.973443 0.799781
vt 0.973249 0.770087
vt 0.526656 0.578833
vt 0.525624 0.535253
vt 0.568781 0.536682
vt 0.568781 0.579340
vt 0.605216 0.225478
vt 0.605216 0.274720
vt 0.567612 0.272760
vt 0.567508 0.226863
vt 0.197143 0.910775
vt 0.197098 0.900568
vt 0.257818 0.899969
vt 0.257818 0.912065
vt 0.967325 0.420796
vt 0.966403 0.382131
vt 0.977637 0.382134
vt 0.977638 0.420843
vt 0.776334 0.926944
vt 0.776334 0.938791
vt 0.720806 0.937800
vt 0.720830 0.927593
vt 0.266030 0.822938
vt 0.296770 0.821453
vt 0.296770 0.855264
vt 0.264700 0.855060
vt 0.901992 0.091069
vt 0.918616 0.081334
vt 0.918616 0.129679
vt 0.901501 0.130755
vt 0.929771 0.543401
vt 0.905432 0.553139
vt 0.908240 0.520778
vt 0.929771 0.518616
vt 0.514581 0.769514
vt 0.478590 0.771244
vt 0.482999 0.736750
vt 0.514581 0.732892
vt 0.083456 0.788323
vt 0.053631 0.764514
vt 0.063152 0.746839
vt 0.083456 0.743457
vt 0.132589 0.423629
vt 0.160886 0.419247
vt 0.160886 0.477692
vt 0.125534 0.477735
vt 0.478590 0.965053
vt 0.507702 0.945922
vt 0.507702 0.965162
vt 0.075271 0.884127
vt 0.075271 0.922417
vt 0.052951 0.913166
vt 0.053073 0.891816
vt 0.581043 0.735206
vt 0.534389 0.733810
vt 0.539292 0.704656
vt 0.581043 0.703588
vt 0.827601 0.508487
vt 0.849748 0.506546
vt 0.849748 0.550079
vt 0.824904 0.546112
vt 0.953094 0.693804
vt 0.952721 0.642477
vt 0.963033 0.642489
vt 0.963033 0.694145
vt 0.621817 0.474233
vt 0.658971 0.471380
vt 0.658971 0.514459
vt 0.619651 0.509001
vt 0.072315 0.243912
vt 0.114663 0.231309
vt 0.114663 0.288946
vt 0.063522 0.289590
vt 0.888619 0.070870
vt 0.847121 0.070326
vt 0.847090 0.058478
vt 0.888619 0.056838
vt 0.045078 0.852891
vt 0.003441 0.850602
vt 0.007357 0.827734
vt 0.045078 0.827432
vt 0.435356 0.082852
vt 0.473188 0.081334
vt 0.473188 0.137275
vt 0.435354 0.135785
vt 0.480108 0.898726
vt 0.478590 0.867830
vt 0.506498 0.869015
vt 0.506498 0.900633
vt 0.480893 0.350083
vt 0.515385 0.349871
vt 0.515385 0.405450
vt 0.480098 0.405614
vt 0.927697 0.436298
vt 0.913665 0.436356
vt 0.914351 0.382207
vt 0.927697 0.382131
vt 0.292938 0.528070
vt 0.292142 0.472539
vt 0.327430 0.472703
vt 0.327430 0.528282
vt 0.307195 0.341015
vt 0.292142 0.289227
vt 0.343436 0.295739
vt 0.343436 0.337018
vt 0.315423 0.058168
vt 0.261303 0.034191
vt 0.270798 0.007156
vt 0.315423 0.003441
vt 0.683761 0.269097
vt 0.682651 0.212173
vt 0.705753 0.211181
vt 0.705753 0.275032
vt 0.806047 0.298538
vt 0.806047 0.351254
vt 0.785175 0.348835
vt 0.782286 0.301676
vt 0.328196 0.942936
vt 0.351467 0.941177
vt 0.351467 0.965738
vt 0.326709 0.963744
vt 0.905530 0.063525
vt 0.903766 0.004137
vt 0.916760 0.003441
vt 0.916760 0.063833
vt 0.980198 0.196525
vt 0.980198 0.211080
vt 0.966361 0.206938
vt 0.968617 0.197208
vt 0.904428 0.991768
vt 0.890325 0.987233
vt 0.889647 0.975964
vt 0.904428 0.970103
vt 0.917902 0.953221
vt 0.938745 0.948940
vt 0.938745 0.973581
vt 0.521439 0.013514
vt 0.521439 0.070499
vt 0.492306 0.046652
vt 0.500435 0.003441
vt 0.068513 0.119698
vt 0.068025 0.081334
vt 0.117515 0.091360
vt 0.117515 0.153545
vt 0.555010 0.201151
vt 0.518733 0.204802
vt 0.530075 0.153284
vt 0.555010 0.150931
vt 0.395430 0.105030
vt 0.428472 0.081334
vt 0.428472 0.142942
vt 0.404718 0.151867
vt 0.615415 0.853557
vt 0.649400 0.843325
vt 0.649400 0.873026
vt 0.614642 0.869327
vt 0.809618 0.518999
vt 0.817861 0.514501
vt 0.817861 0.529056
vt 0.810627 0.531321
vt 0.978427 0.749482
vt 0.967451 0.729055
vt 0.978427 0.711319
vt 0.469806 0.550103
vt 0.469806 0.601536
vt 0.440521 0.600015
vt 0.435402 0.547926
vt 0.212112 0.617794
vt 0.212112 0.660869
vt 0.174957 0.658012
vt 0.172794 0.623244
vt 0.192815 0.073608
vt 0.192735 0.063212
vt 0.197922 0.064274
vt 0.197922 0.074262
vt 0.359784 0.413015
vt 0.350318 0.349871
vt 0.387811 0.351416
vt 0.387811 0.411807
vt 0.333930 0.844458
vt 0.331042 0.803921
vt 0.358566 0.807791
vt 0.358566 0.844933
vt 0.900055 0.219689
vt 0.900055 0.286529
vt 0.890186 0.285294
vt 0.887927 0.220300
vt 0.646001 0.584569
vt 0.621300 0.583580
vt 0.619651 0.527596
vt 0.646001 0.521341
vt 0.582075 0.778554
vt 0.607467 0.776794
vt 0.607467 0.815025
vt 0.578056 0.817853
vt 0.917802 0.211323
vt 0.904816 0.210627
vt 0.906569 0.151239
vt 0.917802 0.150931
vt 0.113324 0.563133
vt 0.113324 0.577688
vt 0.105081 0.573191
vt 0.106090 0.560869
vt 0.565360 0.414798
vt 0.602678 0.412694
vt 0.602678 0.461935
vt 0.564953 0.460362
vt 0.973864 0.246063
vt 0.973593 0.219689
vt 0.986003 0.223481
vt 0.986003 0.249059
vt 0.333396 0.347897
vt 0.333396 0.406600
vt 0.307397 0.399389
vt 0.292142 0.358757
vt 0.003441 0.660868
vt 0.004259 0.631560
vt 0.039879 0.630867
vt 0.039879 0.676613
vt 0.235263 0.233771
vt 0.285260 0.230531
vt 0.285260 0.286214
vt 0.232421 0.288821
vt 0.798481 0.963202
vt 0.813288 0.952708
vt 0.813288 0.981205
vt 0.802348 0.979169
vt 0.125534 0.501908
vt 0.136371 0.484870
vt 0.165188 0.484617
vt 0.165188 0.534167
vt 0.154350 0.675715
vt 0.116882 0.677762
vt 0.125126 0.636206
vt 0.154350 0.633782
vt 0.518742 0.522302
vt 0.480670 0.528428
vt 0.486159 0.477791
vt 0.518742 0.476706
vt 0.109702 0.743457
vt 0.109702 0.804020
vt 0.090338 0.799556
vt 0.090787 0.743535
vt 0.435402 0.653189
vt 0.435934 0.612086
vt 0.469197 0.608418
vt 0.469197 0.658637
vt 0.685557 0.908515
vt 0.685557 0.933253
vt 0.664023 0.931066
vt 0.661244 0.898713
vt 0.278618 0.081334
vt 0.278618 0.145252
vt 0.231923 0.124628
vt 0.229121 0.085935
vt 0.200893 0.943305
vt 0.197098 0.918947
vt 0.227849 0.919167
vt 0.227849 0.941650
vt 0.235215 0.180353
vt 0.281915 0.159731
vt 0.281915 0.223649
vt 0.232421 0.219050
vt 0.669733 0.569799
vt 0.652883 0.521341
vt 0.685443 0.528283
vt 0.685443 0.571602
vt 0.633870 0.597845
vt 0.654362 0.591451
vt 0.654362 0.642003
vt 0.623175 0.645587
vt 0.876618 0.753685
vt 0.853564 0.755484
vt 0.857028 0.716508
vt 0.876618 0.711319
vt 0.138721 0.037628
vt 0.132523 0.006353
vt 0.198576 0.003441
vt 0.198576 0.056330
vt 0.906230 0.924054
vt 0.938745 0.923609
vt 0.938745 0.942058
vt 0.900079 0.940435
vt 0.331343 0.535164
vt 0.331343 0.583664
vt 0.292142 0.560909
vt 0.297303 0.535530
vt 0.220388 0.613108
vt 0.226965 0.609995
vt 0.226965 0.625244
vt 0.675769 0.262886
vt 0.645323 0.265839
vt 0.655023 0.215416
vt 0.675769 0.211181
vt 0.972754 0.681620
vt 0.985547 0.678500
vt 0.985547 0.702864
vt 0.969915 0.700511
vt 0.945627 0.984274
vt 0.946304 0.972997
vt 0.960406 0.968462
vt 0.960406 0.990133
vt 0.751638 0.980387
vt 0.764135 0.978103
vt 0.764135 0.995293
vt 0.750702 0.991842
vt 0.981143 0.133178
vt 0.981569 0.115916
vt 0.993105 0.120845
vt 0.993105 0.140818
vt 0.993585 0.318508
vt 0.982048 0.323437
vt 0.981622 0.306178
vt 0.993585 0.298538
vt 0.173219 0.502249
vt 0.172794 0.456004
vt 0.216298 0.463627
vt 0.216298 0.502387
vt 0.790763 0.838297
vt 0.753753 0.837245
vt 0.754247 0.809838
vt 0.790763 0.807765
vt 0.874764 0.211419
vt 0.874764 0.249537
vt 0.847631 0.248206
vt 0.847483 0.211181
vt 0.525066 0.085462
vt 0.562597 0.081334
vt 0.562597 0.132999
vt 0.525479 0.132689
vt 0.837340 0.653103
vt 0.837340 0.704437
vt 0.816192 0.703393
vt 0.815876 0.653077
vt 0.958250 0.053979
vt 0.958250 0.074130
vt 0.945777 0.074366
vt 0.943870 0.053406
vt 0.278137 0.978098
vt 0.278137 0.995290
vt 0.265641 0.993001
vt 0.264700 0.981543
vt 0.731727 0.010381
vt 0.731727 0.056616
vt 0.709291 0.054518
vt 0.703644 0.003441
vt 0.880215 0.654988
vt 0.896218 0.653077
vt 0.896218 0.694841
vt 0.873199 0.689142
vt 0.350924 0.730347
vt 0.382704 0.729855
vt 0.382704 0.765320
vt 0.343537 0.761534
vt 0.737840 0.503105
vt 0.714387 0.510920
vt 0.716036 0.456384
vt 0.737840 0.452040
vt 0.389210 0.210468
vt 0.346847 0.219807
vt 0.354160 0.172018
vt 0.389210 0.159731
vt 0.522998 0.935619
vt 0.548376 0.931803
vt 0.548376 0.956402
vt 0.519094 0.955866
vt 0.386659 0.528017
vt 0.357731 0.528053
vt 0.346991 0.510753
vt 0.386659 0.478470
vt 0.744196 0.804831
vt 0.744196 0.835350
vt 0.707678 0.833316
vt 0.707151 0.805910
vt 0.088865 0.650530
vt 0.053631 0.658055
vt 0.057768 0.622764
vt 0.088865 0.610104
vt 0.237836 0.787143
vt 0.237836 0.818960
vt 0.200388 0.797791
vt 0.769061 0.540976
vt 0.774529 0.516534
vt 0.802736 0.514501
vt 0.802736 0.553576
vt 0.485134 0.230572
vt 0.485134 0.289016
vt 0.456838 0.284634
vt 0.449783 0.230531
vt 0.761051 0.003441
vt 0.761051 0.064240
vt 0.738609 0.053659
vt 0.746248 0.003930
vt 0.685902 0.591451
vt 0.685902 0.656296
vt 0.668912 0.653971
vt 0.661244 0.593597
vt 0.436136 0.936763
vt 0.435402 0.913859
vt 0.464026 0.912207
vt 0.464026 0.940250
vt 0.414523 0.305005
vt 0.458139 0.306851
vt 0.458139 0.341702
vt 0.402909 0.342988
vt 0.435402 0.689996
vt 0.441825 0.667529
vt 0.470821 0.665519
vt 0.470821 0.709111
vt 0.791597 0.977190
vt 0.780024 0.976698
vt 0.780218 0.947000
vt 0.791597 0.945673
vt 0.007732 0.092967
vt 0.044959 0.082052
vt 0.044959 0.166161
vt 0.003441 0.167022
vt 0.791131 0.059020
vt 0.767933 0.058576
vt 0.771710 0.007653
vt 0.791131 0.003441
vt 0.682741 0.159911
vt 0.721385 0.150931
vt 0.721385 0.190615
vt 0.684239 0.187639
vt 0.860781 0.857484
vt 0.833285 0.860528
vt 0.834767 0.831779
vt 0.860781 0.821992
vt 0.524572 0.217693
vt 0.518733 0.216271
vt 0.520550 0.212575
vt 0.524572 0.211684
vt 0.136145 0.063212
vt 0.155748 0.064429
vt 0.155748 0.073638
vt 0.132523 0.073705
vt 0.931896 0.674329
vt 0.925528 0.642477
vt 0.945839 0.646812
vt 0.945839 0.678817
vt 0.009917 0.064305
vt 0.003441 0.003441
vt 0.061143 0.018184
vt 0.061143 0.075170
vt 0.716119 0.063637
vt 0.716119 0.073110
vt 0.707367 0.074375
vt 0.703644 0.063498
vt 0.603882 0.132767
vt 0.569479 0.134943
vt 0.574600 0.082857
vt 0.603882 0.081334
vt 0.270517 0.656820
vt 0.266675 0.640073
vt 0.331343 0.633548
vt 0.331343 0.658924
vt 0.508465 0.335332
vt 0.465021 0.342988
vt 0.465390 0.296750
vt 0.508465 0.296573
vt 0.425606 0.584355
vt 0.425606 0.624724
vt 0.394693 0.600919
vt 0.395101 0.566413
vt 0.412423 0.975656
vt 0.410304 0.954095
vt 0.426931 0.952236
vt 0.426931 0.981931
vt 0.873994 0.916548
vt 0.893197 0.920404
vt 0.893197 0.940914
vt 0.865599 0.943247
vt 0.763981 0.155071
vt 0.763981 0.189295
vt 0.734035 0.190183
vt 0.728267 0.150931
vt 0.712469 0.117675
vt 0.678463 0.126616
vt 0.679515 0.091136
vt 0.712469 0.081334
vt 0.089970 0.503770
vt 0.089970 0.553987
vt 0.065039 0.551650
vt 0.053631 0.500147
vt 0.813662 0.379576
vt 0.808475 0.380639
vt 0.808555 0.370242
vt 0.813662 0.369588
vt 0.054824 0.798293
vt 0.081792 0.795205
vt 0.081792 0.836839
vt 0.053631 0.834292
vt 0.088288 0.488899
vt 0.053631 0.493265
vt 0.054306 0.440087
vt 0.088288 0.434935
vt 0.293086 0.204608
vt 0.288798 0.174229
vt 0.339965 0.159731
vt 0.339965 0.213680
vt 0.092639 0.952760
vt 0.084954 0.926569
vt 0.112930 0.928266
vt 0.112930 0.948886
vt 0.718948 0.342941
vt 0.718948 0.382631
vt 0.680302 0.373643
vt 0.681804 0.345918
vt 0.116882 0.601691
vt 0.165188 0.590286
vt 0.165188 0.626900
vt 0.121244 0.625427
vt 0.399634 0.738456
vt 0.398811 0.686806
vt 0.425606 0.686056
vt 0.425606 0.739425
vt 0.685557 0.959172
vt 0.653027 0.959132
vt 0.653888 0.944766
vt 0.685557 0.940135
vt 0.331343 0.626666
vt 0.282809 0.616395
vt 0.287521 0.591549
vt 0.331343 0.590546
vt 0.905432 0.489980
vt 0.929151 0.475851
vt 0.929151 0.511734
vt 0.909311 0.510270
vt 0.008114 0.938953
vt 0.022480 0.938112
vt 0.022480 0.970643
vt 0.003441 0.970611
vt 0.003639 0.312956
vt 0.041248 0.311097
vt 0.041248 0.378658
vt 0.003441 0.376954
vt 0.654362 0.698704
vt 0.621195 0.699807
vt 0.626089 0.652814
vt 0.654362 0.652469
vt 0.800247 0.877390
vt 0.826403 0.875925
vt 0.826403 0.907496
vt 0.798481 0.908289
vt 0.435920 0.856434
vt 0.435402 0.825907
vt 0.467028 0.828054
vt 0.467028 0.860076
vt 0.460754 0.770374
vt 0.435402 0.768029
vt 0.437044 0.719505
vt 0.460754 0.715993
vt 0.948465 0.277133
vt 0.948465 0.291165
vt 0.906937 0.289524
vt 0.906968 0.277677
vt 0.480497 0.972044
vt 0.492970 0.972286
vt 0.492970 0.992437
vt 0.478590 0.993002
vt 0.558071 0.466847
vt 0.522510 0.467433
vt 0.526846 0.413225
vt 0.558071 0.412694
vt 0.482429 0.827654
vt 0.509392 0.826115
vt 0.509392 0.858110
vt 0.478590 0.860948
vt 0.316439 0.413532
vt 0.334929 0.413482
vt 0.334929 0.465657
vt 0.292142 0.444151
vt 0.310706 0.150969
vt 0.303792 0.151581
vt 0.304056 0.145079
vt 0.310706 0.142127
vt 0.193978 0.219635
vt 0.172794 0.161173
vt 0.225539 0.159731
vt 0.225539 0.225551
vt 0.671239 0.272721
vt 0.671239 0.284178
vt 0.646929 0.282565
vt 0.645323 0.273497
vt 0.603203 0.857201
vt 0.578056 0.866206
vt 0.579592 0.826732
vt 0.603203 0.824735
vt 0.801593 0.375459
vt 0.749511 0.380639
vt 0.752675 0.360622
vt 0.801593 0.360646
vt 0.352269 0.646607
vt 0.381565 0.641720
vt 0.381565 0.682359
vt 0.343537 0.684976
vt 0.504033 0.907848
vt 0.504033 0.939040
vt 0.485018 0.938132
vt 0.478590 0.907515
vt 0.359351 0.982091
vt 0.358349 0.952967
vt 0.370755 0.954520
vt 0.370755 0.984115
vt 0.332779 0.897526
vt 0.351467 0.894550
vt 0.351467 0.934295
vt 0.330479 0.933475
vt 0.386659 0.577754
vt 0.343537 0.579287
vt 0.344441 0.535840
vt 0.386659 0.534935
vt 0.384405 0.907560
vt 0.403422 0.906649
vt 0.403422 0.937842
vt 0.377971 0.938166
vt 0.398690 0.163438
vt 0.437075 0.159731
vt 0.437075 0.217159
vt 0.396092 0.217325
vt 0.376468 0.003441
vt 0.404502 0.004671
vt 0.404502 0.065063
vt 0.367013 0.066613
vt 0.322810 0.068956
vt 0.322305 0.005130
vt 0.360131 0.003441
vt 0.360131 0.071003
vt 0.068360 0.334295
vt 0.063522 0.296473
vt 0.132247 0.296920
vt 0.132247 0.332271
vt 0.412447 0.004490
vt 0.447718 0.003441
vt 0.447718 0.064130
vt 0.411385 0.065043
vt 0.952501 0.298681
vt 0.952501 0.350071
vt 0.942596 0.349922
vt 0.940363 0.298538
vt 0.905322 0.963221
vt 0.865599 0.962821
vt 0.865619 0.950725
vt 0.905322 0.950129
vt 0.614650 0.708299
vt 0.654362 0.706689
vt 0.654362 0.743035
vt 0.614642 0.742397
vt 0.237667 0.623017
vt 0.234799 0.570379
vt 0.268897 0.570392
vt 0.268897 0.623011
vt 0.601309 0.150931
vt 0.632539 0.150937
vt 0.632539 0.203557
vt 0.598441 0.203570
vt 0.166250 0.073705
vt 0.162630 0.063212
vt 0.185853 0.063281
vt 0.185853 0.072489
vt 0.858132 0.771584
vt 0.858132 0.815110
vt 0.835984 0.813170
vt 0.833285 0.775544
vt 0.230393 0.671897
vt 0.221756 0.633548
vt 0.259793 0.636270
vt 0.259793 0.677086
vt 0.962511 0.930847
vt 0.962511 0.961580
vt 0.945627 0.951684
vt 0.949082 0.923609
vt 0.250039 0.349078
vt 0.276300 0.342290
vt 0.276300 0.400820
vt 0.234799 0.390278
vt 0.792258 0.452040
vt 0.792258 0.507619
vt 0.772839 0.503409
vt 0.769061 0.452485
vt 0.380469 0.613695
vt 0.343537 0.634837
vt 0.348561 0.589740
vt 0.380469 0.586169
vt 0.898550 0.475851
vt 0.898550 0.517436
vt 0.882714 0.515391
vt 0.875498 0.481334
vt 0.118652 0.428053
vt 0.053631 0.426776
vt 0.058334 0.401215
vt 0.118652 0.393582
vt 0.120620 0.549979
vt 0.165188 0.541049
vt 0.165188 0.583404
vt 0.121923 0.578583
vt 0.412075 0.911850
vt 0.428427 0.906649
vt 0.428427 0.945354
vt 0.410304 0.944395
vt 0.707159 0.746055
vt 0.707151 0.711957
vt 0.746871 0.711319
vt 0.746871 0.747665
vt 0.103880 0.981053
vt 0.085013 0.979977
vt 0.084954 0.961317
vt 0.103880 0.959642
vt 0.662501 0.816047
vt 0.689305 0.815683
vt 0.689305 0.854392
vt 0.661244 0.854172
vt 0.756352 0.883166
vt 0.776334 0.881916
vt 0.776334 0.920062
vt 0.753753 0.917195
vt 0.977598 0.189641
vt 0.966361 0.189643
vt 0.967278 0.150979
vt 0.977598 0.150931
vt 0.950370 0.362156
vt 0.950370 0.375249
vt 0.910667 0.374654
vt 0.910647 0.362557
vt 0.903765 0.375249
vt 0.843044 0.374650
vt 0.843089 0.364443
vt 0.903765 0.363152
vt 0.401553 0.230531
vt 0.401553 0.276097
vt 0.359079 0.268159
vt 0.350402 0.240174
vt 0.362956 0.338116
vt 0.350318 0.312710
vt 0.396027 0.289227
vt 0.396027 0.342988
vt 0.181587 0.278110
vt 0.172794 0.232433
vt 0.223909 0.233070
vt 0.223909 0.290707
vt 0.225486 0.950187
vt 0.225486 0.968324
vt 0.204570 0.968117
vt 0.197098 0.954208
vt 0.570147 0.863490
vt 0.555202 0.865693
vt 0.561942 0.851631
vt 0.570147 0.853221
vt 0.193506 0.744232
vt 0.193506 0.779859
vt 0.158874 0.777015
vt 0.155828 0.744865
vt 0.920136 0.352687
vt 0.919450 0.298538
vt 0.933481 0.298596
vt 0.933481 0.352763
vt 0.938030 0.203551
vt 0.924684 0.203559
vt 0.924937 0.150976
vt 0.938030 0.150931
vt 0.936988 0.003450
vt 0.936988 0.056069
vt 0.923896 0.056025
vt 0.923642 0.003441
vn -0.5940 0.6764 0.4354
vn 0.7366 -0.6649 -0.1237
vn -0.6737 -0.1820 -0.7163
vn -0.3284 0.4532 -0.8287
vn 0.9839 0.0641 0.1666
vn 0.6563 0.1101 0.7464
vn 0.1144 0.4365 0.8924
vn 0.7708 -0.3209 -0.5503
vn 0.9717 0.0025 0.2360
vn 0.7975 -0.1912 -0.5722
vn 0.5142 0.6829 -0.5189
vn -0.0845 0.3924 -0.9159
vn -0.0251 0.6070 -0.7943
vn 0.3468 0.9341 -0.0842
vn 0.4478 -0.7977 0.4040
vn 0.4309 0.6719 0.6024
vn 0.4500 -0.6874 -0.5701
vn 0.4566 0.1693 -0.8734
vn 0.9940 0.0997 -0.0446
vn 0.8995 0.1669 -0.4037
vn 0.9881 0.1458 0.0489
vn 0.3687 0.2366 0.8989
vn 0.5024 -0.0175 -0.8645
vn 0.9452 0.3226 0.0497
vn 0.6370 0.4132 0.6508
vn 0.0708 0.2205 0.9728
vn 0.5157 -0.1377 0.8456
vn 0.7632 0.3103 -0.5667
vn 0.1241 -0.3670 0.9219
vn 0.4472 -0.0997 -0.8889
vn 0.3582 0.2521 0.8990
vn 0.2012 0.9789 -0.0355
vn 0.9213 -0.0024 0.3889
vn 0.6738 -0.7354 -0.0719
vn 0.6337 0.2831 0.7199
vn 0.4808 -0.8765 0.0255
vn -0.9247 0.0844 0.3713
vn 0.4777 -0.0755 -0.8753
vn 0.5921 0.7525 0.2884
vn 0.7903 0.5731 -0.2166
vn 0.8234 0.1174 0.5552
vn 0.9078 0.3024 0.2905
vn 0.5189 -0.1459 -0.8423
vn 0.2090 0.3473 -0.9142
vn 0.9804 -0.1664 0.1059
vn 0.0689 -0.0174 0.9975
vn -0.9204 0.1213 0.3718
vn -0.7458 -0.6553 -0.1199
vn 0.6639 -0.1884 -0.7237
vn -0.9746 0.0780 0.2101
vn -0.6658 0.1346 0.7339
vn -0.1279 0.4597 0.8788
vn -0.7873 -0.2367 -0.5693
vn -0.9855 -0.1441 0.0893
vn -0.6881 -0.3185 -0.6520
vn -0.4767 0.7019 -0.5293
vn 0.1183 0.3886 -0.9138
vn 0.0648 0.6053 -0.7934
vn -0.2690 0.9631 -0.0107
vn -0.4547 -0.7939 0.4037
vn 0.8751 -0.2217 0.4303
vn -0.4475 -0.6864 -0.5733
vn -0.0946 -0.5421 -0.8349
vn -0.9798 0.1591 0.1212
vn -0.9177 0.1865 -0.3508
vn -0.6494 0.6876 -0.3248
vn -0.9620 0.2688 -0.0474
vn 0.3870 0.8917 0.2349
vn -0.3696 0.2392 0.8979
vn -0.5040 -0.0147 -0.8636
vn -0.6195 0.4643 0.6330
vn -0.7848 0.2624 -0.5614
vn -0.4079 -0.0835 0.9092
vn -0.8731 -0.3027 -0.3821
vn -0.3381 0.2469 0.9081
vn -0.9773 -0.2114 -0.0121
vn -0.9774 -0.2111 -0.0125
vn -0.5905 0.7352 0.3327
vn -0.5938 0.7361 0.3249
vn -0.5932 0.7347 0.3291
vn -0.8525 0.0305 0.5218
vn -0.4009 0.5147 0.7579
vn -0.6696 -0.7394 -0.0701
vn -0.6642 0.2862 0.6906
vn -0.0927 0.3604 0.9282
vn -0.4419 -0.4433 -0.7799
vn -0.5222 -0.1491 -0.8397
vn 0.0521 0.2856 -0.9569
vn -0.9748 -0.1578 0.1576
vn -0.0901 -0.0144 0.9958
vn 0.7665 0.1717 -0.6189
vn 0.6271 0.5994 0.4974
vn 0.9505 -0.0382 0.3082
vn -0.6209 0.2483 0.7435
vn -0.6362 0.7433 0.2069
vn -0.6170 -0.7777 -0.1201
vn 0.7285 0.3301 -0.6003
vn 0.5294 0.5688 -0.6295
vn 0.8980 0.2763 0.3424
vn 0.6587 0.4198 0.6244
vn 0.7646 0.0570 0.6420
vn 0.2838 0.3961 0.8733
vn 0.9961 -0.0268 0.0844
vn 0.6673 0.5849 0.4610
vn 0.7655 -0.6419 0.0434
vn -0.6552 -0.1751 -0.7349
vn 0.9937 0.0804 0.0783
vn 0.5769 0.7690 0.2754
vn 0.9250 0.0511 0.3765
vn 0.8549 0.0711 0.5138
vn -0.8094 0.3812 0.4468
vn 0.6315 0.0986 0.7691
vn -0.3839 0.9093 0.1607
vn 0.1455 0.7939 0.5904
vn 0.7888 -0.2755 -0.5494
vn 0.9772 -0.1822 0.1087
vn 0.6882 -0.3451 -0.6382
vn 0.4520 0.8242 -0.3411
vn 0.3059 0.9520 -0.0047
vn 0.3804 -0.7606 0.5261
vn 0.4661 -0.6869 -0.5577
vn 0.0945 -0.5421 -0.8350
vn 0.9881 0.1268 0.0874
vn 0.5396 0.0612 -0.8397
vn 0.4993 0.0973 -0.8610
vn 0.9722 0.1526 -0.1775
vn 0.8966 0.0880 -0.4339
vn 0.9180 -0.2347 0.3198
vn 0.8963 0.4404 -0.0526
vn 0.9420 0.3349 0.0219
vn 0.6236 0.4404 0.6459
vn 0.2913 0.5504 0.7825
vn 0.0521 0.1899 0.9804
vn 0.0330 0.2736 0.9613
vn 0.8590 0.0947 -0.5032
vn 0.8563 -0.0208 -0.5161
vn 0.8543 -0.0242 -0.5193
vn 0.8567 -0.0250 -0.5153
vn 0.7551 0.6292 0.1839
vn 0.9683 0.1401 0.2069
vn 0.9239 0.0941 -0.3709
vn 0.4054 -0.0940 0.9093
vn 0.8724 -0.3022 -0.3842
vn 0.2714 0.3136 0.9099
vn 0.8012 0.1578 0.5772
vn 0.9583 0.2857 0.0083
vn 0.6641 0.2877 0.6901
vn -0.8322 0.5169 0.2006
vn 0.6005 -0.7978 -0.0546
vn 0.3651 -0.9089 0.2017
vn 0.2894 -0.0227 -0.9570
vn 0.5115 -0.1042 -0.8530
vn 0.2012 -0.9567 0.2104
vn -0.2327 0.0685 -0.9701
vn -0.0465 0.2856 -0.9572
vn 0.9667 -0.1790 0.1828
vn -0.9984 0.0057 0.0563
vn -0.9130 0.1236 0.3887
vn -0.7826 -0.6210 0.0426
vn 0.9218 0.3860 0.0367
vn 0.6501 -0.1834 -0.7374
vn -0.9913 0.1011 0.0838
vn -0.5764 0.7752 0.2584
vn -0.9194 0.2085 0.3335
vn -0.5111 0.7004 0.4982
vn -0.6448 0.1236 0.7543
vn 0.3795 0.9126 0.1521
vn -0.1449 0.7925 0.5924
vn -0.7693 -0.2889 -0.5699
vn -0.9754 0.0400 0.2166
vn -0.7928 -0.1603 -0.5881
vn -0.4128 0.8409 -0.3501
vn 0.6152 0.7127 0.3370
vn 0.6116 0.7120 0.3450
vn 0.6144 0.7113 0.3413
vn -0.3089 0.9467 -0.0910
vn -0.3934 -0.7605 0.5165
vn -0.4688 -0.6857 -0.5568
vn -0.8998 0.0742 -0.4300
vn -0.5782 0.7823 -0.2318
vn -0.6489 0.6882 -0.3245
vn -0.8638 0.3677 -0.3444
vn -0.9414 0.3316 -0.0613
vn -0.9205 -0.2352 0.3120
vn -0.6340 0.4376 0.6376
vn -0.8931 0.1199 -0.4337
vn -0.1221 -0.3647 0.9231
vn -0.4471 -0.0996 -0.8889
vn -0.2161 0.3303 0.9188
vn -0.2086 0.9771 -0.0418
vn -0.2165 -0.9471 0.2368
vn -0.8634 0.0307 0.5035
vn -0.8525 -0.4353 0.2895
vn -0.6387 0.2825 0.7157
vn -0.3151 0.3906 0.8650
vn -0.4917 -0.4575 -0.7409
vn -0.3510 -0.5058 -0.7880
vn 0.2377 0.0684 -0.9689
vn -0.1960 0.3463 -0.9174
vn -0.9813 -0.1515 0.1187
vn 0.9651 0.0111 0.2615
vn 0.9658 0.0107 0.2589
vn 0.9665 0.0121 0.2565
vn 0.9651 0.0078 0.2617
vn 0.9644 0.0091 0.2642
vn 0.9638 0.0080 0.2667
vn 0.5475 0.6965 0.4638
vn 0.9996 -0.0258 0.0092
vn -0.4077 -0.9130 0.0140
vn -0.7239 0.6804 -0.1142
vn 0.6417 0.6498 -0.4075
vn 0.5905 0.5819 -0.5591
vn 0.8961 0.4001 -0.1921
vn 0.9248 0.3162 -0.2115
vn 0.6722 0.5411 0.5052
vn 0.2967 0.3867 0.8732
vn 0.1114 0.3661 0.9239
vn 0.3737 -0.2230 -0.9003
vn 0.3735 -0.2232 -0.9004
vn 0.9842 -0.1467 0.0990
vn 0.9842 -0.1469 0.0987
vn 0.9842 -0.1471 0.0984
vn 0.9865 -0.1106 0.1208
vn 0.9242 0.2022 0.3241
vn 0.3622 0.4406 -0.8214
vn 0.3626 0.4400 -0.8215
vn 0.0548 0.2369 0.9700
vn 0.1636 0.8565 0.4895
vn 0.8797 0.0322 0.4744
vn -0.3316 0.0969 -0.9384
vn -0.7363 -0.2499 0.6288
vn 0.3715 0.4289 0.8234
vn 0.9148 -0.2138 0.3427
vn 0.5904 -0.2932 -0.7520
vn -0.5896 0.7321 0.3413
vn -0.5902 0.7335 0.3370
vn -0.5935 0.7321 0.3343
vn -0.5245 0.1034 -0.8451
vn 0.7729 -0.6272 0.0959
vn 0.0340 0.0842 -0.9959
vn -0.1002 0.8453 0.5248
vn -0.2296 -0.8333 0.5029
vn 0.1395 0.6804 0.7194
vn -0.9700 -0.0050 -0.2431
vn -0.9700 -0.0053 -0.2430
vn -0.1492 0.7820 -0.6052
vn -0.9989 0.0158 0.0438
vn -0.6336 0.5547 0.5393
vn 0.1810 -0.4572 -0.8708
vn -0.9798 -0.0271 -0.1982
vn -0.9504 0.2393 -0.1988
vn -0.9790 0.1898 0.0746
vn -0.3828 0.6786 0.6269
vn -0.3830 0.6788 0.6266
vn -0.2884 -0.9574 0.0164
vn -0.9736 0.0937 0.2082
vn -0.8626 0.1925 0.4679
vn -0.1809 -0.4571 -0.8708
vn -0.2221 0.7055 0.6730
vn -0.2227 0.7049 0.6735
vn -0.9571 0.2424 0.1589
vn 0.8831 -0.2343 0.4064
vn -0.9052 0.3148 0.2856
vn -0.9052 0.3146 0.2859
vn 0.9174 0.3369 0.2119
vn 0.0215 -0.0112 -0.9997
vn 0.0223 -0.0060 -0.9997
vn 0.2936 0.9552 0.0378
vn 0.2933 0.9553 0.0380
vn -0.4159 0.9018 0.1174
vn 0.9584 0.0449 -0.2819
vn 0.4469 -0.4559 -0.7697
vn -0.7244 0.0918 -0.6833
vn 0.1714 0.9850 0.0213
vn -0.0337 -0.4302 -0.9021
vn 0.8034 -0.4559 0.3829
vn -0.7658 0.1596 0.6230
vn -0.3177 -0.9231 0.2167
vn 0.6546 0.7559 0.0056
vn 0.8716 0.1281 -0.4732
vn 0.6427 0.6998 -0.3118
vn 0.9059 0.1950 -0.3760
vn -0.9153 -0.1935 -0.3533
vn -0.6714 0.7349 -0.0950
vn -0.6713 0.7351 -0.0952
vn -0.8673 -0.3034 0.3947
vn 0.2650 -0.4525 -0.8515
vn -0.1636 0.8565 0.4896
vn 0.9737 0.0931 0.2079
vn -0.9680 0.1263 0.2169
vn -0.9096 0.4086 0.0748
vn -0.2931 -0.8748 0.3857
vn -0.8313 -0.4227 0.3609
vn -0.9387 -0.1574 0.3067
vn 0.8466 -0.3363 0.4124
vn 0.6466 -0.2194 -0.7306
vn -0.7838 -0.6144 0.0901
vn -0.3868 0.8918 0.2345
vn 0.7604 -0.0451 -0.6479
vn 0.2284 -0.9263 0.2997
vn 0.2584 0.8525 0.4545
vn 0.2586 0.8523 0.4547
vn 0.9792 0.0448 -0.1978
vn 0.9800 0.0426 -0.1945
vn 0.9789 0.0413 -0.2000
vn 0.2854 0.9504 -0.1239
vn 0.9390 -0.0439 0.3411
vn -0.9393 0.0072 0.3429
vn 0.9700 -0.0053 -0.2430
vn 0.9378 0.2449 0.2459
vn -0.9442 -0.1036 -0.3126
vn -0.4787 -0.8780 -0.0030
vn -0.4786 -0.8780 -0.0026
vn -0.6556 0.7550 0.0057
vn -0.1430 0.9650 0.2201
vn 0.9995 -0.0113 0.0289
vn 0.0872 0.9771 0.1941
vn 0.0875 0.9771 0.1938
vn -0.9909 -0.1086 0.0796
vn -0.9909 -0.1088 0.0792
vn 0.9717 0.0385 -0.2333
vn -0.3619 -0.2033 -0.9098
vn 0.9953 0.0442 0.0857
vn -0.1250 -0.1482 0.9810
vn -0.8142 -0.4404 0.3784
vn 0.3248 0.8437 0.4273
vn -0.0718 0.7978 0.5987
vn 0.6431 0.5302 0.5526
vn -0.2032 0.1464 -0.9681
vn -0.2033 0.1461 -0.9682
vn 0.9701 0.2068 0.1273
vn 0.3487 0.8450 0.4054
vn 0.6908 -0.3137 0.6515
vn -0.2181 -0.9642 0.1511
vn -0.2178 -0.9642 0.1515
vn -0.9658 0.1746 0.1919
vn -0.9242 0.1991 0.3260
vn 0.6858 0.4807 0.5465
vn 0.7131 0.0756 -0.6970
vn 0.2656 -0.8827 0.3876
vn 0.9677 0.1372 0.2117
vn 0.9470 0.0105 0.3212
vn 0.8499 -0.0255 -0.5264
vn 0.8525 -0.0259 -0.5220
vn 0.8522 -0.0237 -0.5227
vn 0.2849 -0.0660 -0.9563
vn -0.9990 0.0401 -0.0206
vn 0.9584 -0.2769 0.0688
vn -0.7488 -0.0156 -0.6626
vn -0.7487 -0.0158 -0.6628
vn -0.7485 -0.0161 -0.6629
vn 0.7565 -0.6329 -0.1648
vn -0.1028 -0.3597 0.9274
vn 0.6187 0.5065 0.6005
vn 0.3171 -0.9233 0.2166
vn -0.3313 0.8521 0.4051
vn -0.3308 0.8524 0.4049
vn 0.9514 0.1995 -0.2348
vn 0.9513 0.1998 -0.2347
vn -0.0732 0.8815 0.4664
vn -0.0730 0.8816 0.4662
vn 0.2063 0.0750 -0.9756
vn 0.0182 -0.0160 -0.9997
vn 0.0131 -0.0147 -0.9998
vn 0.5620 -0.1476 -0.8139
vn 0.9157 0.2327 -0.3276
vn -0.1910 0.0099 -0.9815
vn 0.8597 -0.0727 -0.5057
vn 0.9556 0.1853 -0.2290
vn -0.9613 -0.0072 0.2754
vn -0.9611 -0.0076 0.2761
vn -0.9612 -0.0073 0.2756
vn 0.9373 0.1910 0.2915
vn -0.9899 -0.0101 0.1412
vn 0.2183 0.0766 -0.9729
vn -0.9158 0.2319 -0.3278
vn 0.7974 0.0490 0.6014
vn -0.3941 -0.8632 0.3156
vn 0.0094 -0.9658 -0.2590
vn 0.4012 -0.9152 0.0381
vn 0.9393 0.0074 0.3431
vn -0.7147 -0.2869 0.6379
vn -0.2929 0.9554 0.0383
vn -0.9963 0.0501 0.0696
vn 0.9602 0.2061 -0.1886
vn -0.9634 0.2239 0.1472
vn -0.2062 0.0751 -0.9756
vn -0.0610 -0.0088 0.9981
vn -0.0627 0.2360 0.9697
vn -0.0803 0.9185 0.3873
vn -0.2319 -0.9630 -0.1371
vn -0.2534 0.7010 -0.6667
vn -0.2359 -0.9440 -0.2306
vn -0.5228 -0.1715 -0.8350
vn 0.2465 0.6468 -0.7218
vn 0.2472 0.6462 -0.7220
vn 0.2477 0.6458 -0.7222
vn 0.0600 -0.0140 0.9981
vn 0.0599 -0.0145 0.9981
vn 0.0600 -0.0135 0.9981
vn 0.0596 -0.0137 0.9981
vn -0.9325 -0.0400 0.3589
vn 0.9899 -0.0101 0.1412
vn -0.0795 0.9780 0.1930
vn 0.9677 0.1256 0.2184
vn 0.9219 -0.3465 0.1734
vn 0.9219 -0.3467 0.1731
vn 0.5508 0.5061 0.6637
vn 0.8794 0.2839 0.3823
vn -0.1192 -0.9853 -0.1222
vn -0.9215 0.3863 0.0389
vn -0.5499 -0.8351 -0.0127
vn 0.1176 0.8401 0.5295
vn -0.9586 0.0789 -0.2735
vn -0.9716 0.0384 -0.2334
vn 0.9025 0.3582 0.2389
vn -0.2922 -0.3812 -0.8771
vn -0.9706 -0.0050 -0.2408
vn -0.9706 -0.0054 -0.2407
vn -0.9707 -0.0052 -0.2402
vn -0.9556 0.1853 -0.2290
vn -0.2842 0.9507 -0.1239
vn 0.0877 0.8342 0.5444
vn 0.9894 -0.0069 0.1448
vn 0.1914 0.0123 -0.9814
vn 0.1916 0.0117 -0.9814
vn -0.9894 -0.0069 0.1448
vn 0.9450 -0.1027 -0.3107
vn 0.3908 -0.8625 0.3215
vn 0.0657 0.2411 0.9683
vn -0.8716 0.1284 -0.4731
vn 0.9789 0.2037 -0.0140
vn 0.9789 0.2038 -0.0136
vn -0.0360 0.0076 0.9993
vn 0.2356 0.6961 0.6782
vn -0.9836 0.1566 0.0896
vn -0.9837 0.1563 0.0892
vn -0.9836 0.1566 0.0897
vn -0.9837 0.1561 0.0887
vn 0.8310 0.5187 0.2009
vn 0.7671 0.1582 0.6218
vn 0.9766 -0.2148 -0.0115
vn 0.9765 -0.2152 -0.0109
vn 0.9848 0.0133 -0.1734
vn -0.8824 -0.2185 0.4167
vn 0.1450 0.7771 -0.6124
vn -0.1948 0.6487 0.7357
vn 0.7795 0.4090 0.4745
vn -0.9781 0.0456 -0.2030
vn -0.9770 0.0443 -0.2086
vn -0.9778 0.0421 -0.2052
vn -0.9024 0.3586 0.2389
vn 0.1786 0.4727 0.8629
vn 0.0316 0.0120 0.9994
vn -0.5807 -0.2977 -0.7577
vn -0.0221 -0.0060 -0.9997
vn -0.0214 -0.0112 -0.9997
vn -0.0224 -0.0059 -0.9997
vn 0.1038 -0.3576 0.9281
vn -0.1269 0.6857 0.7167
vn 0.0358 0.0075 0.9993
vn 0.2042 0.6410 0.7399
vn -0.2537 0.6524 -0.7141
vn -0.2683 -0.0553 -0.9618
vn -0.9009 -0.0520 -0.4308
vn -0.5923 0.7524 0.2883
vn 0.6681 0.7382 -0.0933
vn 0.6683 0.7379 -0.0936
vn -0.2641 -0.9191 0.2924
vn 0.2929 -0.2350 -0.9268
vn -0.9470 0.0102 0.3211
vn -0.4069 -0.0456 -0.9123
vn -0.0547 0.2368 0.9700
vn 0.9632 0.2186 0.1566
vn -0.9379 -0.3109 0.1541
vn -0.6483 -0.7567 -0.0841
vn -0.6481 -0.7569 -0.0838
vn 0.0910 0.9173 0.3877
vn 0.6483 -0.7567 -0.0842
vn 0.9279 0.2906 -0.2337
vn 0.9279 0.2907 -0.2333
vn 0.9798 -0.0271 -0.1983
vn -0.9368 0.2486 0.2461
vn 0.7510 -0.5598 0.3503
vn 0.5276 -0.7817 0.3324
vn -0.8751 0.0335 0.4828
vn 0.6145 0.7087 0.3467
vn 0.6112 0.7102 0.3494
vn 0.6103 0.7087 0.3538
vn 0.9159 -0.1920 -0.3524
vn 0.7887 -0.4713 0.3948
vn 0.9869 0.1183 0.1095
vn 0.9870 0.1182 0.1092
vn -0.6181 -0.1743 0.7666
vn -0.6186 -0.1739 0.7662
vn 0.9906 -0.0269 -0.1338
vn -0.9880 0.0111 -0.1543
vn 0.9396 0.3184 0.1254
vn 0.9395 0.3187 0.1257
vn 0.0844 0.7354 -0.6723
vn 0.2542 0.7012 -0.6661
vn -0.2117 0.0819 -0.9739
vn 0.0338 -0.4301 -0.9022
vn 0.1018 -0.3954 0.9128
vn 0.1024 -0.3951 0.9129
vn 0.5962 -0.1973 0.7782
vn 0.5959 -0.1975 0.7784
vn -0.8519 -0.0310 -0.5228
vn 0.5875 0.6468 0.4864
vn -0.1719 0.9844 0.0387
vn -0.9865 -0.1106 0.1208
vn -0.6467 -0.2120 -0.7327
vn -0.3155 0.8471 0.4277
vn -0.2929 -0.2358 -0.9266
vn -0.0844 0.7354 -0.6724
vn 0.2005 -0.9680 0.1511
vn 0.2002 -0.9680 0.1516
vn 0.2000 -0.9680 0.1519
vn 0.4933 -0.8697 0.0163
vn 0.9790 0.1903 0.0728
vn 0.1193 -0.9853 -0.1222
vn -0.0338 0.0843 -0.9959
vn 0.9574 -0.0834 0.2763
vn 0.8978 0.3168 0.3058
vn 0.8981 0.3163 0.3054
vn 0.9691 0.2215 0.1083
vn -0.5563 -0.1575 -0.8159
vn 0.2039 -0.9525 -0.2262
vn -0.9586 -0.2768 0.0666
vn 0.9700 0.1895 0.1521
vn -0.9643 0.0927 0.2482
vn 0.2820 0.1170 -0.9522
vn 0.0195 0.5784 -0.8155
vn 0.2635 -0.5966 0.7580
vn 0.7143 -0.2775 0.6425
vn 0.9991 0.0372 -0.0201
vn 0.0996 -0.1524 0.9833
vn 0.9781 0.0457 -0.2029
vn 0.9778 0.0423 -0.2050
vn 0.9770 0.0446 -0.2083
vn -0.9598 -0.0896 0.2661
vn -0.9393 0.3195 0.1249
vn 0.2662 -0.9639 -0.0023
vn 0.2664 -0.9639 -0.0028
vn 0.2663 -0.9639 -0.0024
vn -0.7769 -0.6032 -0.1804
vn 0.4691 0.7240 0.5058
vn -0.9174 0.3376 0.2109
vn 0.4185 0.9019 0.1071
vn -0.9843 0.0144 -0.1757
vn -0.1782 0.4796 0.8592
vn -0.8864 -0.2347 0.3990
vn -0.9695 0.1979 0.1446
vn -0.1686 0.4907 0.8549
vn -0.4609 0.7262 0.5101
vn 0.9643 0.0935 0.2476
vn 0.9643 0.0933 0.2478
vn 0.1570 0.0830 0.9841
vn -0.9584 0.0450 -0.2819
vn 0.0888 -0.2360 0.9677
vn -0.1542 0.0965 0.9833
vn -0.3220 0.4465 0.8348
vn -0.1162 -0.2322 0.9657
vn 0.2643 0.8754 -0.4047
vn -0.8610 -0.0702 -0.5038
vn -0.0769 0.8369 0.5420
vn 0.0733 0.7985 0.5975
vn 0.2033 0.1462 -0.9681
vn 0.9706 -0.0054 -0.2407
vn -0.1353 -0.3906 0.9106
vn 0.1910 0.0099 -0.9815
vn 0.1904 0.0097 -0.9817
vn 0.0842 0.8810 0.4656
vn 0.1274 0.4478 0.8850
vn 0.1271 0.4478 0.8851
vn 0.1755 0.9588 0.2233
vn -0.7670 -0.5438 0.3407
vn 0.1870 -0.8413 0.5071
vn -0.6143 0.5292 0.5853
vn -0.9601 0.2064 -0.1886
vn -0.7795 0.5116 -0.3614
vn -0.7794 0.5115 -0.3618
vn 0.1103 0.2952 0.9490
vn -0.2653 -0.4422 -0.8568
vn 0.8623 0.1925 0.4683
vn 0.5105 -0.1748 -0.8419
vn -0.1168 0.2994 0.9470
vn -0.0601 0.2200 0.9737
vn -0.0314 0.0119 0.9994
vn -0.2721 0.8708 -0.4094
vn -0.2725 0.8708 -0.4091
vn 0.2319 -0.9630 -0.1371
vn 0.0607 -0.0094 0.9981
vn 0.0610 -0.0088 0.9981
vn 0.0613 -0.0084 0.9981
vn -0.9792 0.0446 -0.1979
vn -0.9789 0.0411 -0.2002
vn -0.9800 0.0423 -0.1945
vn 0.8745 0.0005 0.4851
vn 0.8744 0.0008 0.4852
vn 0.8746 -0.0000 0.4849
vn 0.8741 0.0006 0.4858
vn 0.8842 0.0085 -0.4671
vn 0.8840 0.0079 -0.4674
vn -0.8842 0.0085 -0.4671
vn -0.8840 0.0077 -0.4675
vn -0.3018 -0.5857 0.7522
vn 0.9586 0.0789 -0.2735
vn 0.7795 0.5117 -0.3613
vn -0.9401 0.3260 -0.0994
vn 0.9042 -0.0741 -0.4207
vn 0.9043 -0.0744 -0.4203
vn -0.9700 0.1895 0.1521
vn -0.7178 0.4184 0.5566
vn -0.6013 0.6631 0.4459
vn -0.0179 -0.0158 -0.9997
vn -0.0130 -0.0148 -0.9998
vn -0.0181 -0.0161 -0.9997
vn -0.0095 -0.9658 -0.2590
vn -0.5651 -0.7613 0.3178
vn -0.8741 0.0006 0.4858
vn -0.8738 -0.0002 0.4863
vn -0.7494 0.6402 -0.1687
vn -0.9393 -0.0442 0.3403
vn -0.9409 0.1821 0.2856
vn 0.9325 -0.0399 0.3590
vn -0.8748 0.0000 0.4844
vn -0.8745 0.0001 0.4849
vn -0.8744 0.0012 0.4853
vn -0.8746 0.0007 0.4848
vn -0.0600 -0.0139 0.9981
vn -0.0599 -0.0145 0.9981
vn -0.5585 0.5890 -0.5841
vn -0.8717 0.1499 -0.4666
vn 0.2926 -0.3800 -0.8775
vn 0.9463 0.2278 -0.2295
vn 0.8058 0.3176 -0.4999
vn -0.2585 0.8523 0.4548
vn -0.1914 0.0123 -0.9814
vn -0.8843 0.0121 -0.4667
vn 0.8843 0.0121 -0.4667
vn 0.8844 0.0124 -0.4666
vn 0.8843 0.0116 -0.4668
g Elephant_Statue_Elephant_Statue_Collor_Material
usemtl Collor_Material
s off
f 419/1/1 206/2/1 216/3/1
f 25/4/2 1/5/2 9/6/2
f 4/7/3 149/8/3 9/9/3
f 254/10/4 239/11/4 251/12/4 257/13/4
f 27/14/5 7/15/5 18/16/5
f 32/17/6 426/18/6 34/19/6
f 5/20/7 30/21/7 10/22/7
f 40/23/8 33/24/8 35/25/8
f 44/26/9 36/27/9 48/28/9
f 48/29/10 22/30/10 44/31/10
f 45/32/11 51/33/11 54/34/11
f 54/35/12 252/36/12 257/37/12
f 247/38/13 54/39/13 51/40/13
f 257/41/14 92/42/14 53/43/14
f 1/44/15 287/45/15 70/46/15
f 415/47/16 14/48/16 28/49/16 412/50/16
f 275/51/17 164/52/17 64/53/17
f 440/54/18 76/55/18 63/56/18
f 443/57/19 87/58/19 444/59/19
f 86/60/20 440/61/20 439/62/20
f 443/63/21 442/64/21 88/65/21
f 108/66/22 79/67/22 96/68/22
f 78/69/23 64/70/23 77/71/23
f 445/72/24 73/73/24 442/74/24
f 56/75/25 93/76/25 49/77/25
f 410/78/26 70/79/26 127/80/26
f 408/81/27 409/82/27 410/83/27
f 87/84/28 102/85/28 77/86/28
f 105/87/29 79/88/29 67/89/29
f 80/90/30 97/91/30 95/92/30
f 81/93/31 100/94/31 84/95/31
f 151/96/32 158/97/32 160/98/32
f 161/99/33 407/100/33 162/101/33
f 26/102/34 152/103/34 18/104/34
f 154/105/35 19/106/35 25/107/35
f 149/108/36 450/109/36 449/110/36
f 382/111/37 380/112/37 385/113/37 387/114/37
f 407/115/38 157/116/38 147/117/38
f 71/118/39 72/119/39 58/120/39 57/121/39
f 162/122/40 406/123/40 405/124/40
f 451/125/41 450/126/41 159/127/41
f 158/128/42 448/129/42 447/130/42
f 391/131/43 163/132/43 164/133/43
f 163/134/44 273/135/44 63/136/44
f 20/137/45 17/138/45 7/139/45
f 309/140/46 256/141/46 49/142/46
f 212/143/47 418/144/47 417/145/47
f 177/146/48 213/147/48 192/148/48
f 372/149/49 181/150/49 192/151/49
f 187/152/50 215/153/50 201/154/50
f 430/155/51 220/156/51 224/157/51
f 218/158/52 183/159/52 193/160/52
f 232/161/53 221/162/53 228/163/53
f 238/164/54 226/165/54 227/166/54
f 244/167/55 207/168/55 234/169/55
f 249/170/56 239/171/56 254/172/56
f 254/173/57 257/174/57 252/175/57
f 254/176/58 247/177/58 249/178/58
f 257/179/59 312/180/59 314/181/59
f 287/182/60 177/183/60 286/184/60
f 9/185/61 1/186/61 70/187/61 81/188/61
f 390/189/62 275/190/62 274/191/62
f 276/192/63 275/193/63 277/194/63
f 331/195/64 304/196/64 320/197/64
f 292/198/65 303/199/65 291/200/65
f 435/201/66 266/202/66 268/203/66
f 436/204/67 291/205/67 303/206/67
f 57/207/68 8/208/68 2/209/68 71/210/68
f 296/211/69 331/212/69 317/213/69
f 274/214/70 295/215/70 294/216/70
f 258/217/71 313/218/71 311/219/71
f 324/220/72 304/221/72 294/222/72
f 328/223/73 296/224/73 317/225/73
f 297/226/74 319/227/74 306/228/74
f 322/229/75 298/230/75 301/231/75
f 213/232/76 200/233/77 187/234/77 202/235/77
f 240/236/78 243/237/79 226/238/80
f 433/239/81 386/240/81 385/241/81
f 375/242/82 183/243/82 371/244/82
f 375/245/83 214/246/83 201/247/83
f 377/248/84 202/249/84 376/250/84
f 386/251/85 376/252/85 385/253/85
f 433/254/86 380/255/86 370/256/86
f 388/257/87 391/258/87 390/259/87
f 388/260/88 273/261/88 389/262/88
f 203/263/89 200/264/89 212/265/89
f 309/266/90 245/267/90 256/268/90
f 156/269/91 405/270/91 404/271/91
f 408/272/92 410/273/92 411/274/92
f 411/275/93 126/276/93 125/277/93
f 417/278/94 419/279/94 416/280/94
f 417/281/95 418/282/95 419/283/95
f 432/284/96 433/285/96 434/286/96
f 439/287/97 440/288/97 441/289/97
f 441/290/98 62/291/98 61/292/98
f 446/293/99 447/294/99 448/295/99
f 448/296/100 158/297/100 148/298/100
f 449/299/101 450/300/101 451/301/101
f 451/302/102 153/303/102 154/304/102
f 424/305/103 425/306/103 15/307/103
f 424/308/104 413/309/104 412/310/104
f 24/311/105 15/312/105 6/313/105
f 4/314/106 147/315/106 149/316/106
f 27/317/107 20/318/107 7/319/107
f 3/320/108 14/321/108 27/322/108
f 24/323/109 20/324/109 414/325/109
f 414/326/110 413/327/110 24/328/110
f 416/329/111 197/330/111 215/331/111 417/332/111
f 32/333/112 425/334/112 426/335/112
f 5/336/113 23/337/113 30/338/113
f 13/339/114 31/340/114 23/341/114
f 40/342/115 38/343/115 33/344/115
f 44/345/116 37/346/116 36/347/116
f 48/348/117 42/349/117 22/350/117
f 45/351/118 46/352/118 51/353/118
f 257/354/119 314/355/119 92/356/119
f 1/357/120 182/358/120 287/359/120
f 275/360/121 391/361/121 164/362/121
f 65/363/122 277/364/122 275/365/122
f 108/366/123 98/367/123 87/368/123
f 62/369/124 441/370/124 63/371/124
f 441/372/125 440/373/125 63/374/125
f 87/375/126 86/376/126 444/377/126
f 86/378/127 76/379/127 440/380/127
f 108/381/128 90/382/128 79/383/128
f 74/384/129 73/385/129 445/386/129
f 73/387/130 88/388/130 442/389/130
f 56/390/131 91/391/131 93/392/131
f 94/393/132 81/394/132 409/395/132
f 126/396/133 411/397/133 127/398/133
f 411/399/134 410/400/134 127/401/134
f 101/402/135 102/403/135 420/404/135
f 420/405/136 423/406/137 106/407/138
f 96/408/139 422/409/139 421/410/139
f 408/411/140 103/412/140 409/413/140
f 87/414/141 98/415/141 102/416/141
f 105/417/142 96/418/142 79/419/142
f 80/420/143 89/421/143 97/422/143
f 81/423/144 94/424/144 100/425/144
f 157/426/145 407/427/145 161/428/145
f 407/429/146 406/430/146 162/431/146
f 154/432/147 153/433/147 19/434/147
f 288/435/148 195/436/148 178/437/148
f 449/438/149 154/439/149 149/440/149
f 149/441/150 159/442/150 450/443/150
f 150/444/151 404/445/151 147/446/151
f 404/447/152 407/448/152 147/449/152
f 155/450/153 162/451/153 447/452/153
f 391/453/154 389/454/154 163/455/154
f 163/456/155 389/457/155 273/458/155
f 20/459/156 24/460/156 17/461/156
f 198/462/157 429/463/157 428/464/157
f 417/465/158 203/466/158 212/467/158
f 184/468/159 198/469/159 212/470/159
f 71/471/160 12/472/160 83/473/160
f 372/474/161 370/475/161 181/476/161
f 187/477/162 203/478/162 215/479/162
f 215/480/163 197/481/163 179/482/163
f 215/483/164 203/484/164 417/485/164
f 419/486/165 418/487/165 428/488/165
f 430/489/166 429/490/166 220/491/166
f 218/492/167 209/493/167 183/494/167
f 209/495/168 219/496/168 196/497/168
f 232/498/169 225/499/169 221/500/169
f 238/501/170 244/502/170 226/503/170
f 244/504/171 238/505/171 207/506/171
f 249/507/172 240/508/172 239/509/172
f 47/510/173 46/511/174 36/512/175
f 257/513/176 251/514/176 312/515/176
f 287/516/177 182/517/177 177/518/177
f 390/519/178 391/520/178 275/521/178
f 292/522/179 293/523/179 303/524/179
f 291/525/180 436/526/180 268/527/180
f 436/528/181 435/529/181 268/530/181
f 437/531/182 436/532/182 303/533/182
f 305/534/183 290/535/183 438/536/183
f 296/537/184 308/538/184 331/539/184
f 258/540/185 245/541/185 313/542/185
f 324/543/186 320/544/186 304/545/186
f 328/546/187 280/547/187 296/548/187
f 297/549/188 316/550/188 319/551/188
f 322/552/189 315/553/189 298/554/189
f 374/555/190 383/556/190 381/557/190
f 384/558/191 387/559/191 378/560/191
f 385/561/192 380/562/192 433/563/192
f 433/564/193 432/565/193 386/566/193
f 377/567/194 213/568/194 202/569/194
f 386/570/195 377/571/195 376/572/195
f 370/573/196 372/574/196 434/575/196
f 434/576/197 433/577/197 370/578/197
f 388/579/198 389/580/198 391/581/198
f 388/582/199 272/583/199 273/584/199
f 203/585/200 187/586/200 200/587/200
f 125/588/201 103/589/202 408/590/203
f 408/591/204 411/592/205 125/593/206
f 28/594/207 21/595/207 412/596/207
f 106/597/208 423/598/208 422/599/208
f 386/600/209 432/601/209 434/602/209
f 438/603/210 290/604/210 435/605/210
f 61/606/211 75/607/211 439/608/211
f 439/609/212 441/610/212 61/611/212
f 75/612/213 74/613/213 445/614/213
f 445/615/214 444/616/214 75/617/214
f 446/618/215 448/619/215 148/620/215
f 154/621/216 449/622/216 451/623/216
f 451/624/217 161/625/217 153/626/217
f 38/627/218 230/628/219 223/629/219 33/630/219
f 40/631/220 29/632/221 37/633/222 44/634/222
f 278/635/223 280/636/223 335/637/223 334/638/223
f 284/639/224 286/640/224 350/641/224 351/642/224
f 53/643/225 45/644/226 54/645/226 257/646/226
f 112/647/227 118/648/227 119/649/227 113/650/227
f 8/651/228 57/652/228 261/653/228 180/654/228
f 24/655/229 413/656/229 424/657/229 15/658/229
f 373/659/230 382/660/230 379/661/230 369/662/230
f 224/663/231 220/664/231 217/665/231 231/666/231
f 10/667/232 18/668/232 152/669/232 5/670/232
f 422/671/233 96/672/233 105/673/233 106/674/233
f 373/675/234 369/676/234 178/677/234 195/678/234
f 240/679/235 249/680/236 243/681/237
f 270/682/238 272/683/238 293/684/238 292/685/238
f 25/686/239 17/687/239 11/688/239 1/689/239
f 124/690/240 123/691/240 130/692/240 129/693/240
f 431/694/241 204/695/241 188/696/241 206/697/241
f 246/698/242 233/699/242 248/700/242 253/701/242
f 204/702/243 186/703/243 426/704/243 427/705/243
f 142/706/244 143/707/245 117/708/245 116/709/245
f 374/710/246 369/711/246 379/712/246 383/713/246
f 304/714/247 331/715/247 308/716/247 307/717/247
f 251/718/248 258/719/248 311/720/248 312/721/248
f 104/722/249 68/723/249 80/724/249 95/725/249
f 129/726/250 128/727/250 69/728/250 68/729/250
f 303/730/251 304/731/251 307/732/251 437/733/251
f 321/734/252 302/735/252 306/736/252 319/737/252
f 216/738/253 197/739/253 416/740/254 419/741/253
f 377/742/255 372/743/255 192/744/255 213/745/255
f 302/746/256 299/747/256 305/748/256 306/749/256
f 343/750/257 342/751/257 336/752/257 337/753/257
f 297/754/258 282/755/258 327/756/258 316/757/258
f 311/758/259 313/759/260 310/760/260 259/761/260
f 318/762/261 317/763/261 331/764/261 320/765/261
f 113/766/262 114/767/262 106/768/262 105/769/262
f 387/770/263 384/771/263 381/772/264 383/773/263
f 84/774/265 100/775/265 99/776/265 85/777/265
f 135/778/266 165/779/267 168/780/267 134/781/267
f 265/782/268 263/783/268 58/784/269 59/785/268
f 5/786/270 148/787/270 13/788/270 23/789/270
f 122/790/271 137/791/271 135/792/271 123/793/271
f 147/794/272 157/795/272 159/796/272 149/797/272
f 324/798/273 294/799/273 295/800/273 323/801/273
f 196/802/274 374/803/274 381/804/274 371/805/274
f 282/806/275 352/807/275 347/808/275 327/809/275
f 425/810/276 32/811/276 35/812/276 15/813/276
f 214/814/277 378/815/277 376/816/277 202/817/277
f 284/818/278 282/819/278 283/820/278 285/821/278
f 72/822/279 73/823/279 59/824/279 58/825/279
f 114/826/280 120/827/280 121/828/280 115/829/280
f 74/830/281 75/831/281 61/832/281 60/833/281
f 421/834/282 420/835/282 102/836/282 98/837/282
f 347/838/283 348/839/283 326/840/283 327/841/283
f 435/842/284 290/843/285 264/844/285 266/845/285
f 255/846/286 246/847/286 245/848/286 258/849/286
f 42/850/287 242/851/287 236/852/287 22/853/287
f 191/854/288 180/855/288 261/856/288 260/857/288
f 88/858/289 82/859/289 85/860/289 89/861/289
f 300/862/290 301/863/290 181/864/290 195/865/290
f 437/866/291 307/867/291 305/868/291 438/869/291
f 208/870/292 189/871/292 184/872/292 194/873/292
f 225/874/293 220/875/293 429/876/293 198/877/293
f 329/878/294 328/879/294 317/880/294 318/881/294
f 49/882/295 50/883/295 55/884/295 56/885/295
f 195/886/296 181/887/296 370/888/296 373/889/296
f 213/890/297 177/891/297 194/892/297 200/893/297
f 260/894/298 288/895/298 178/896/298 191/897/298
f 44/898/299 22/899/299 38/900/299 40/901/299
f 33/902/300 223/903/300 189/904/300 6/905/300
f 58/906/301 263/907/302 261/908/302 57/909/302
f 395/910/303 357/911/304 362/912/305 394/913/303
f 60/914/306 267/915/306 265/916/306 59/917/306
f 122/918/307 133/919/307 136/920/307 137/921/307
f 170/922/308 138/923/308 139/924/308 167/925/308
f 365/926/309 339/927/309 340/928/309 366/929/309
f 351/930/310 350/931/310 355/932/310 354/933/310
f 327/934/311 326/935/311 332/936/311 316/937/311
f 384/938/312 378/939/313 214/940/313 375/941/313
f 289/942/314 262/943/314 264/944/314 290/945/314
f 249/946/315 247/947/315 241/948/315 243/949/315
f 90/950/316 108/951/316 87/952/316 443/953/316
f 30/954/317 23/955/317 190/956/318 210/957/317
f 232/958/319 238/959/320 227/960/320 217/961/320
f 137/962/321 169/963/321 165/964/321 135/965/321
f 228/966/322 221/967/322 223/968/322 230/969/322
f 88/970/323 89/971/323 90/972/323 443/973/323
f 243/974/324 241/975/324 235/976/324 237/977/324
f 255/978/325 250/979/325 233/980/325 246/981/325
f 3/982/326 10/983/326 30/984/326 16/985/326
f 190/986/327 211/987/327 219/988/327 209/989/327
f 53/990/328 92/991/328 91/992/328 56/993/328
f 338/994/329 333/995/330 339/996/330 344/997/330
f 409/998/331 103/999/331 109/1000/331 94/1001/331
f 3/1002/332 16/1003/332 28/1004/332 14/1005/332
f 37/1006/333 29/1007/333 39/1008/333 43/1009/333
f 194/1010/334 177/1011/334 182/1012/335 208/1013/334
f 255/1014/336 239/1015/336 240/1016/336 250/1017/336
f 127/1018/337 70/1019/337 69/1020/337 128/1021/337
f 413/1022/338 414/1023/338 415/1024/338 412/1025/338
f 102/1026/339 101/1027/339 78/1028/339 77/1029/339
f 208/1030/340 11/1031/340 6/1032/340 189/1033/340
f 46/1034/341 45/1035/341 55/1036/341 52/1037/341
f 354/1038/342 355/1039/342 361/1040/342 362/1041/342
f 107/1042/343 101/1043/343 420/1044/344 106/1045/345
f 22/1046/346 236/1047/346 230/1048/346 38/1049/346
f 202/1050/347 187/1051/347 201/1052/347 214/1053/347
f 79/1054/348 90/1055/348 89/1056/348 80/1057/348
f 238/1058/349 232/1059/350 228/1060/351 207/1061/350
f 52/1062/352 41/1063/352 42/1064/352 48/1065/352
f 336/1066/353 335/1067/353 280/1068/353 328/1069/353
f 425/1070/354 424/1071/354 427/1072/354 426/1073/354
f 69/1074/355 285/1075/355 283/1076/355 68/1077/355
f 179/1078/356 197/1079/357 216/1080/357 199/1081/357
f 420/1082/358 421/1083/358 422/1084/359 423/1085/358
f 199/1086/360 216/1087/361 205/1088/361 185/1089/361
f 115/1090/362 110/1091/362 65/1092/362 107/1093/362
f 123/1094/363 135/1095/364 134/1096/363 130/1097/363
f 64/1098/365 164/1099/365 163/1100/365 63/1101/365
f 125/1102/366 122/1103/366 123/1104/366 124/1105/366
f 344/1106/367 339/1107/367 365/1108/367 367/1109/367
f 107/1110/368 106/1111/368 114/1112/368 115/1113/368
f 339/1114/369 333/1115/369 334/1116/369 340/1117/369
f 348/1118/370 349/1119/371 325/1120/372 326/1121/371
f 125/1122/373 126/1123/373 133/1124/373 122/1125/373
f 175/1126/374 172/1127/374 141/1128/374 143/1129/374
f 273/1130/375 271/1131/375 62/1132/375 63/1133/375
f 346/1134/376 345/1135/376 348/1136/376 347/1137/376
f 159/1138/377 157/1139/377 161/1140/377 451/1141/377
f 284/1142/378 285/1143/378 287/1144/378 286/1145/378
f 276/1146/379 277/1147/379 279/1148/379 278/1149/379
f 446/1150/380 26/1151/380 155/1152/380 447/1153/380
f 362/1154/381 361/1155/381 397/1156/381 394/1157/381
f 231/1158/382 217/1159/382 227/1160/382 237/1161/382
f 262/1162/383 263/1163/383 265/1164/383 264/1165/383
f 308/1166/384 306/1167/384 305/1168/384 307/1169/384
f 353/1170/385 352/1171/385 351/1172/385 354/1173/385
f 332/1174/386 315/1175/386 322/1176/386 321/1177/386
f 338/1178/387 330/1179/387 276/1180/387 333/1181/387
f 363/1182/388 364/1183/388 341/1184/388 342/1185/388
f 349/1186/389 356/1187/389 355/1188/389 350/1189/389
f 199/1190/390 185/1191/390 210/1192/390 218/1193/390
f 282/1194/391 280/1195/391 281/1196/391 283/1197/391
f 196/1198/392 219/1199/392 191/1200/392 178/1201/392
f 242/1202/393 248/1203/393 233/1204/393 234/1205/393
f 272/1206/394 274/1207/394 294/1208/394 293/1209/394
f 271/1210/395 269/1211/396 61/1212/397 62/1213/396
f 141/1214/398 172/1215/399 174/1216/400 140/1217/401
f 396/1218/402 393/1219/402 359/1220/402 360/1221/402
f 402/1222/403 366/1223/403 364/1224/403 399/1225/403
f 218/1226/404 210/1227/404 190/1228/404 209/1229/404
f 83/1230/405 12/1231/405 4/1232/405 84/1233/405
f 35/1234/406 32/1235/407 29/1236/407 40/1237/407
f 148/1238/408 5/1239/408 152/1240/408 446/1241/408
f 27/1242/409 415/1243/409 414/1244/409 20/1245/409
f 278/1246/410 279/1247/410 281/1248/410 280/1249/410
f 288/1250/411 300/1251/411 195/1252/411
f 372/1253/412 377/1254/412 386/1255/412 434/1256/412
f 188/1257/413 204/1258/413 427/1259/413 21/1260/413
f 111/1261/414 66/1262/414 65/1263/414 110/1264/414
f 392/1265/415 396/1266/415 360/1267/415 358/1268/415
f 83/1269/416 82/1270/416 72/1271/416 71/1272/416
f 274/1273/417 275/1274/417 276/1275/417 295/1276/417
f 171/1277/418 175/1278/419 143/1279/419 142/1280/420
f 116/1281/421 117/1282/421 111/1283/421 110/1284/421
f 264/1285/422 265/1286/422 267/1287/422 266/1288/422
f 28/1289/423 205/1290/423 188/1291/423 21/1292/423
f 366/1293/424 340/1294/424 341/1295/424 364/1296/424
f 171/1297/425 142/1298/425 144/1299/426 176/1300/425
f 143/1301/427 141/1302/427 118/1303/427 117/1304/427
f 109/1305/428 103/1306/428 104/1307/428 95/1308/428
f 287/1309/429 285/1310/429 69/1311/429 70/1312/429
f 126/1313/430 127/1314/430 132/1315/430 133/1316/430
f 344/1317/431 343/1318/431 337/1319/431 338/1320/431
f 443/1321/432 444/1322/432 445/1323/433 442/1324/432
f 393/1325/434 397/1326/434 361/1327/434 359/1328/434
f 91/1329/435 259/1330/435 310/1331/435 93/1332/435
f 250/1333/436 240/1334/437 226/1335/438 244/1336/439
f 71/1337/440 2/1338/440 12/1339/440
f 26/1340/441 19/1341/441 153/1342/441 155/1343/441
f 7/1344/442 17/1345/442 25/1346/443 19/1347/442
f 109/1348/444 95/1349/444 97/1350/444 99/1351/444
f 286/1352/445 177/1353/445 192/1354/445 298/1355/445
f 156/1356/446 146/1357/446 151/1358/446 160/1359/446
f 312/1360/447 311/1361/447 259/1362/447 314/1363/447
f 27/1364/448 14/1365/448 415/1366/448
f 134/1367/449 139/1368/450 131/1369/451 130/1370/451
f 289/1371/452 299/1372/452 300/1373/452 288/1374/452
f 309/1375/453 49/1376/453 93/1377/453 310/1378/453
f 133/1379/454 132/1380/454 138/1381/454 136/1382/454
f 2/1383/455 146/1384/455 150/1385/455 12/1386/455
f 395/1387/456 392/1388/456 358/1389/457 357/1390/458
f 67/1391/459 112/1392/459 113/1393/459 105/1394/459
f 430/1395/460 186/1396/460 204/1397/460 431/1398/460
f 138/1399/461 170/1400/461 166/1401/461 136/1402/461
f 259/1403/462 91/1404/462 92/1405/462 314/1406/462
f 268/1407/463 269/1408/463 271/1409/463 270/1410/463
f 207/1411/464 228/1412/464 230/1413/464 236/1414/464
f 294/1415/465 304/1416/465 303/1417/465 293/1418/465
f 288/1419/466 260/1420/466 262/1421/466 289/1422/466
f 73/1423/467 74/1424/467 60/1425/468 59/1426/467
f 221/1427/469 184/1428/469 189/1429/469 223/1430/469
f 78/1431/470 101/1432/470 107/1433/470 65/1434/470
f 138/1435/471 132/1436/471 131/1437/471 139/1438/471
f 382/1439/472 373/1440/472 370/1441/472 380/1442/472
f 342/1443/473 341/1444/473 335/1445/473 336/1446/473
f 100/1447/474 94/1448/474 109/1449/474 99/1450/474
f 225/1451/475 232/1452/475 217/1453/475 220/1454/475
f 280/1455/476 282/1456/476 297/1457/477 296/1458/476
f 16/1459/478 30/1460/478 210/1461/478 185/1462/478
f 80/1463/479 68/1464/479 67/1465/479 79/1466/479
f 75/1467/480 444/1468/480 86/1469/481 439/1470/480
f 352/1471/482 282/1472/482 284/1473/482 351/1474/482
f 132/1475/483 127/1476/483 128/1477/483 131/1478/483
f 17/1479/484 24/1480/484 6/1481/484 11/1482/484
f 35/1483/485 33/1484/485 6/1485/485 15/1486/485
f 212/1487/486 198/1488/486 428/1489/486 418/1490/486
f 47/1491/487 51/1492/488 46/1493/489
f 103/1494/490 125/1495/490 124/1496/490 104/1497/490
f 55/1498/491 50/1499/491 41/1500/491 52/1501/491
f 36/1502/492 46/1503/493 52/1504/492 48/1505/493
f 237/1506/494 227/1507/495 226/1508/495 243/1509/495
f 45/1510/496 53/1511/496 56/1512/496 55/1513/496
f 258/1514/497 251/1515/497 239/1516/497 255/1517/497
f 82/1518/498 88/1519/499 73/1520/499 72/1521/499
f 31/1522/500 8/1523/500 180/1524/500 211/1525/500
f 13/1526/501 2/1527/501 8/1528/501 31/1529/501
f 270/1530/502 271/1531/502 273/1532/502 272/1533/502
f 68/1534/503 104/1535/503 124/1536/503 129/1537/503
f 229/1538/504 235/1539/505 43/1540/505 39/1541/505
f 36/1542/506 37/1543/506 43/1544/507 47/1545/506
f 330/1546/508 329/1547/508 318/1548/508 323/1549/508
f 412/1550/509 21/1551/509 427/1552/509 424/1553/509
f 148/1554/510 158/1555/510 151/1556/510 13/1557/510
f 112/1558/511 67/1559/511 66/1560/511 111/1561/511
f 147/1562/512 4/1563/512 12/1564/512 150/1565/512
f 179/1566/513 199/1567/513 218/1568/513 193/1569/513
f 330/1570/514 323/1571/514 295/1572/514 276/1573/514
f 219/1574/515 211/1575/515 180/1576/515 191/1577/515
f 11/1578/516 208/1579/517 182/1580/518 1/1581/517
f 446/1582/519 152/1583/519 26/1584/519
f 99/1585/520 97/1586/520 89/1587/520 85/1588/520
f 281/1589/521 279/1590/521 66/1591/521 67/1592/521
f 353/1593/522 346/1594/522 347/1595/522 352/1596/522
f 81/1597/523 84/1598/523 4/1599/523 9/1600/523
f 447/1601/524 162/1602/524 160/1603/525 158/1604/524
f 421/1605/526 98/1606/526 108/1607/526 96/1608/526
f 388/1609/527 390/1610/527 274/1611/527 272/1612/527
f 242/1613/528 42/1614/528 41/1615/528 248/1616/528
f 296/1617/529 297/1618/529 306/1619/529 308/1620/529
f 340/1621/530 334/1622/530 335/1623/530 341/1624/530
f 302/1625/531 301/1626/531 300/1627/531 299/1628/531
f 156/1629/532 404/1630/532 150/1631/532 146/1632/532
f 247/1633/533 254/1634/533 252/1635/533 54/1636/533
f 256/1637/534 253/1638/534 50/1639/534 49/1640/534
f 29/1641/535 32/1642/535 34/1643/535 39/1644/535
f 18/1645/536 7/1646/536 19/1647/536 26/1648/536
f 235/1649/537 241/1650/537 47/1651/537 43/1652/537
f 357/1653/538 353/1654/539 354/1655/539 362/1656/540
f 181/1657/541 301/1658/541 298/1659/541 192/1660/541
f 290/1661/542 305/1662/542 299/1663/542 289/1664/542
f 9/1665/543 149/1666/544 154/1667/545 25/1668/544
f 250/1669/546 244/1670/546 234/1671/546 233/1672/546
f 18/1673/547 10/1674/547 3/1675/547 27/1676/547
f 321/1677/548 322/1678/548 301/1679/548 302/1680/548
f 183/1681/549 209/1682/549 196/1683/549 371/1684/549
f 332/1685/550 321/1686/550 319/1687/550 316/1688/550
f 313/1689/551 245/1690/551 309/1691/551 310/1692/551
f 336/1693/552 328/1694/552 329/1695/552 337/1696/552
f 326/1697/553 325/1698/553 315/1699/553 332/1700/553
f 298/1701/554 315/1702/554 325/1703/554 286/1704/554
f 201/1705/555 215/1706/555 179/1707/555 193/1708/555
f 83/1709/556 84/1710/557 85/1711/557 82/1712/557
f 161/1713/558 162/1714/558 155/1715/558 153/1716/558
f 358/1717/559 360/1718/559 345/1719/559 346/1720/559
f 222/1721/560 229/1722/560 39/1723/560 34/1724/560
f 387/1725/561 385/1726/561 376/1727/561 378/1728/561
f 193/1729/562 183/1730/562 375/1731/562 201/1732/562
f 231/1733/563 229/1734/563 222/1735/563 224/1736/563
f 61/1737/564 269/1738/564 267/1739/564 60/1740/564
f 330/1741/565 338/1742/565 337/1743/565 329/1744/565
f 216/1745/566 206/1746/566 188/1747/566 205/1748/566
f 31/1749/567 211/1750/567 190/1751/567 23/1752/567
f 116/1753/568 110/1754/568 115/1755/568 121/1756/568
f 398/1757/569 365/1758/569 366/1759/569 402/1760/569
f 237/1761/570 235/1762/570 229/1763/570 231/1764/570
f 142/1765/571 116/1766/571 121/1767/571 144/1768/572
f 16/1769/573 185/1770/573 205/1771/573 28/1772/573
f 410/1773/574 409/1774/574 81/1775/575 70/1776/574
f 241/1777/576 247/1778/576 51/1779/576 47/1780/576
f 200/1781/577 194/1782/577 184/1783/577 212/1784/577
f 248/1785/578 41/1786/578 50/1787/578 253/1788/578
f 429/1789/579 430/1790/579 431/1791/579 428/1792/579
f 130/1793/580 131/1794/580 128/1795/580 129/1796/580
f 151/1797/581 146/1798/581 2/1799/582 13/1800/581
f 186/1801/583 222/1802/583 34/1803/583 426/1804/583
f 234/1805/584 207/1806/584 236/1807/584 242/1808/584
f 113/1809/585 119/1810/585 120/1811/585 114/1812/585
f 77/1813/586 64/1814/586 63/1815/586 76/1816/586
f 224/1817/587 222/1818/587 186/1819/587 430/1820/587
f 325/1821/588 349/1822/588 350/1823/588 286/1824/588
f 356/1825/589 359/1826/589 361/1827/589 355/1828/589
f 268/1829/590 266/1830/591 267/1831/591 269/1832/591
f 68/1833/592 283/1834/592 281/1835/592 67/1836/592
f 118/1837/593 141/1838/594 140/1839/595 119/1840/594
f 168/1841/596 167/1842/596 139/1843/597 134/1844/598
f 145/1845/599 140/1846/599 174/1847/600 173/1848/601
f 120/1849/602 119/1850/602 140/1851/602 145/1852/602
f 121/1853/603 120/1854/604 145/1855/603 144/1856/603
f 344/1857/605 367/1858/605 368/1859/605 343/1860/606
f 256/1861/607 245/1862/607 246/1863/607 253/1864/607
f 276/1865/608 278/1866/608 334/1867/608 333/1868/608
f 374/1869/609 196/1870/609 178/1871/609 369/1872/609
f 379/1873/610 382/1874/610 387/1875/610 383/1876/610
f 86/1877/611 87/1878/611 77/1879/612 76/1880/611
f 117/1881/613 118/1882/613 112/1883/613 111/1884/613
f 384/1885/614 375/1886/614 371/1887/614 381/1888/614
f 431/1889/615 206/1890/615 419/1891/615 428/1892/615
f 357/1893/616 358/1894/617 346/1895/618 353/1896/618
f 279/1897/619 277/1898/619 65/1899/619 66/1900/619
f 225/1901/620 198/1902/620 184/1903/620 221/1904/620
f 343/1905/621 368/1906/622 363/1907/621 342/1908/621
f 436/1909/623 437/1910/623 438/1911/623 435/1912/623
f 345/1913/624 360/1914/624 359/1915/624 356/1916/624
f 348/1917/625 345/1918/625 356/1919/625 349/1920/625
f 136/1921/626 166/1922/626 169/1923/626 137/1924/626
f 368/1925/627 400/1926/628 401/1927/629 363/1928/630
f 401/1929/631 399/1930/632 364/1931/631 363/1932/631
f 268/1933/633 270/1934/633 292/1935/633 291/1936/633
f 324/1937/634 323/1938/634 318/1939/634 320/1940/634
f 64/1941/635 78/1942/635 65/1943/635 275/1944/635
f 162/1945/636 405/1946/636 156/1947/636 160/1948/636
f 406/1949/637 407/1950/637 404/1951/637 405/1952/637
f 262/1953/638 260/1954/638 261/1955/638 263/1956/638
f 367/1957/639 365/1958/639 398/1959/639 403/1960/639
f 367/1961/640 403/1962/640 400/1963/640 368/1964/640
f 144/1965/641 145/1966/641 173/1967/642 176/1968/643
