# Blender v3.0.0 OBJ File: 'aa.blend'
# www.blender.org
mtllib Fence_3.mtl
o Fence_3
v 1.732821 -0.000000 -0.007857
v 1.724982 0.436488 -0.017385
v 1.733557 -0.000000 -0.090929
v 1.728711 0.249822 -0.087750
v 1.595584 -0.000000 -0.010024
v 1.607847 0.494868 -0.022110
v 1.595176 -0.000001 -0.092536
v 1.602816 0.342885 -0.088457
v 1.663121 0.000000 0.021164
v 1.663517 0.240469 0.014893
v 1.665041 0.000001 -0.119988
v 1.665139 0.342884 -0.112870
v 1.720901 0.921430 -0.045786
v 1.721750 0.948198 -0.104875
v 1.625365 0.934924 -0.046617
v 1.628757 0.945539 -0.105602
v 1.674955 0.942787 -0.031430
v 1.674180 0.950892 -0.122951
v 0.067231 -0.000000 -0.029145
v 0.062593 0.472096 -0.038056
v 0.070234 0.000000 -0.111434
v 0.062388 0.581005 -0.108019
v -0.066481 -0.000000 -0.031903
v -0.057374 0.437898 -0.038877
v -0.069851 -0.000010 -0.111679
v -0.060974 0.526491 -0.106664
v -0.001604 0.000000 0.003747
v 0.001038 0.586457 -0.008411
v 0.000395 0.000005 -0.140377
v -0.000083 0.526837 -0.134459
v 0.067223 0.917862 -0.027145
v 0.055579 0.935779 -0.083582
v -0.033605 0.932261 -0.010354
v -0.047246 0.947409 -0.072409
v 0.017998 0.929120 0.000360
v -0.000631 0.952407 -0.096722
v 1.831556 0.654068 -0.021321
v -0.182217 0.661328 -0.012032
v 1.831799 0.867450 -0.042430
v -0.180539 0.885456 -0.033040
v 1.802847 0.342730 -0.033968
v -0.166682 0.340457 -0.038772
v 1.802962 0.556448 -0.042056
v -0.166603 0.554036 -0.046816
v 0.911630 0.327374 -0.033791
v 0.903827 0.485698 -0.041073
v 1.072582 0.642943 -0.020244
v 1.832395 0.839659 0.031279
v 1.832262 0.870978 0.008134
v 1.832021 0.658811 0.030013
v 1.832226 0.679092 0.048851
v -0.179263 0.684160 0.062506
v -0.180588 0.665220 0.043937
v -0.180340 0.890456 0.022764
v -0.180480 0.873963 0.041453
v 1.802756 0.530495 0.030461
v 1.803184 0.556468 0.007237
v 1.802962 0.343970 0.018530
v 1.802752 0.364123 0.037467
v -0.166043 0.391409 0.034554
v -0.166195 0.343525 0.009779
v -0.166258 0.553477 -0.009139
v -0.165952 0.513442 0.027073
v 0.913111 0.349150 0.028339
v 0.913186 0.328873 0.013712
v 0.906199 0.471667 0.016864
v 0.904975 0.487883 -0.003486
v 1.073104 0.647183 0.038270
v 1.073480 0.806651 0.032729
v 1.073349 0.821293 0.016496
v -0.020767 0.745643 0.035302
v 0.009201 0.748886 0.034490
v -0.017473 0.715739 0.037315
v 0.012492 0.718982 0.036503
v -0.020218 0.747589 0.063318
v 0.009751 0.750832 0.062507
v -0.016923 0.717685 0.065331
v 0.013038 0.720928 0.064519
v -0.018053 0.815095 0.023520
v 0.011583 0.818623 0.027829
v -0.014843 0.785209 0.025903
v 0.014793 0.788738 0.030212
v -0.022292 0.816849 0.051232
v 0.007340 0.820377 0.055541
v -0.019082 0.786964 0.053615
v 0.010554 0.790492 0.057924
v -0.007074 0.441164 0.010275
v 0.016735 0.422673 0.009389
v -0.025498 0.417362 0.012025
v -0.001694 0.398871 0.011138
v -0.005375 0.441946 0.034746
v 0.018426 0.423455 0.033860
v -0.023803 0.418144 0.036496
v -0.000002 0.399653 0.035609
v -0.019498 0.501800 0.013665
v 0.009532 0.508548 0.018261
v -0.012636 0.472439 0.013463
v 0.016386 0.479186 0.018059
v -0.023461 0.500645 0.027725
v 0.005569 0.507393 0.032321
v -0.016599 0.471284 0.027524
v 0.012431 0.478032 0.032120
v 1.665831 0.432554 0.010294
v 1.677200 0.404712 0.008101
v 1.638045 0.421046 0.012365
v 1.649406 0.393204 0.010171
v 1.668392 0.431398 0.038243
v 1.679761 0.403556 0.036049
v 1.640602 0.419889 0.040313
v 1.651966 0.392047 0.038119
v 1.677823 0.501050 0.008930
v 1.671188 0.471934 0.013094
v 1.648414 0.507664 0.008289
v 1.641775 0.478548 0.012453
v 1.678097 0.504965 0.036744
v 1.671462 0.475849 0.040908
v 1.648687 0.511579 0.036103
v 1.642048 0.482463 0.040267
v 1.636822 0.732247 0.018809
v 1.663673 0.745814 0.016803
v 1.650525 0.705511 0.021382
v 1.677376 0.719078 0.019376
v 1.637403 0.735230 0.046733
v 1.664251 0.748798 0.044727
v 1.651102 0.708494 0.049306
v 1.677953 0.722062 0.047300
v 1.672972 0.832796 0.011359
v 1.680355 0.803884 0.015692
v 1.643787 0.825250 0.010721
v 1.651166 0.796338 0.015054
v 1.671391 0.836558 0.039150
v 1.678770 0.807646 0.043483
v 1.642203 0.829012 0.038512
v 1.649586 0.800100 0.042845
v -0.123992 0.719258 -0.021730
v 1.073278 0.662443 0.053221
v -0.125613 0.727211 0.052178
v -0.201636 0.802114 -0.028187
v -0.199846 0.800539 0.045945
v 1.072844 0.816845 -0.040517
v 1.785179 0.449671 -0.037986
v -0.166637 0.447283 -0.042794
v 0.907729 0.406448 -0.037429
v 1.786775 0.446986 0.033751
v 0.909648 0.410741 0.023134
v -0.166008 0.452304 0.030293
vt 0.524780 0.713329
vt 0.524780 0.700631
vt 0.530896 0.701443
vt 0.530896 0.714139
vt 0.212796 0.690708
vt 0.223130 0.690611
vt 0.223130 0.703309
vt 0.212796 0.703406
vt 0.747879 0.344372
vt 0.747878 0.331672
vt 0.758213 0.331732
vt 0.758213 0.344429
vt 0.530896 0.696503
vt 0.524780 0.697316
vt 0.524780 0.684617
vt 0.530896 0.683805
vt 0.893719 0.785634
vt 0.893719 0.798331
vt 0.881890 0.798330
vt 0.881890 0.785635
vt 0.744564 0.344429
vt 0.732735 0.344429
vt 0.732735 0.331732
vt 0.744564 0.331732
vt 0.240154 0.361176
vt 0.240154 0.373874
vt 0.228325 0.373874
vt 0.228325 0.361176
vt 0.810357 0.440974
vt 0.822186 0.440974
vt 0.822186 0.453671
vt 0.810357 0.453671
vt 0.207824 0.361176
vt 0.220521 0.361176
vt 0.220521 0.373872
vt 0.207823 0.373872
vt 0.111751 0.373874
vt 0.111751 0.361176
vt 0.124448 0.361176
vt 0.124448 0.373873
vt 0.892225 0.830354
vt 0.881890 0.830412
vt 0.881891 0.817714
vt 0.892225 0.817657
vt 0.771030 0.427389
vt 0.782858 0.427389
vt 0.782858 0.440086
vt 0.771030 0.440086
vt 0.354698 0.380722
vt 0.366526 0.380722
vt 0.366526 0.393418
vt 0.354698 0.393420
vt 0.530950 0.730151
vt 0.524780 0.730205
vt 0.524780 0.717508
vt 0.530950 0.717453
vt 0.223130 0.674600
vt 0.223130 0.687296
vt 0.212796 0.687198
vt 0.212796 0.674501
vt 0.771030 0.456098
vt 0.771030 0.443401
vt 0.782858 0.443402
vt 0.782858 0.456098
vt 0.530950 0.733574
vt 0.530950 0.746271
vt 0.524780 0.746216
vt 0.524780 0.733520
vt 0.108436 0.373873
vt 0.095737 0.373875
vt 0.095737 0.361178
vt 0.108436 0.361176
vt 0.175800 0.361176
vt 0.188497 0.361176
vt 0.188497 0.373873
vt 0.175799 0.373872
vt 0.893719 0.814342
vt 0.881890 0.814342
vt 0.881891 0.801647
vt 0.893719 0.801646
vt 0.078557 0.379661
vt 0.078557 0.366963
vt 0.090385 0.366963
vt 0.090385 0.379661
vt 0.465696 0.391693
vt 0.477524 0.391693
vt 0.477524 0.404390
vt 0.465696 0.404390
vt 0.339555 0.380722
vt 0.351383 0.380722
vt 0.351383 0.393418
vt 0.339554 0.393420
vt 0.156472 0.373874
vt 0.143774 0.373872
vt 0.143775 0.361177
vt 0.156472 0.361176
vt 0.355567 0.409432
vt 0.355567 0.396734
vt 0.367395 0.396735
vt 0.367395 0.409432
vt 0.840643 0.440974
vt 0.852472 0.440974
vt 0.852472 0.453670
vt 0.840643 0.453671
vt 0.523822 0.391693
vt 0.523822 0.403521
vt 0.511125 0.403521
vt 0.511125 0.391693
vt 0.837329 0.440974
vt 0.837329 0.453671
vt 0.825501 0.453670
vt 0.825500 0.440974
vt 0.870929 0.453671
vt 0.870929 0.440974
vt 0.882758 0.440975
vt 0.882758 0.453670
vt 0.405744 0.383562
vt 0.405744 0.396260
vt 0.393916 0.396260
vt 0.393916 0.383562
vt 0.159788 0.361176
vt 0.172484 0.361176
vt 0.172484 0.373873
vt 0.159786 0.373873
vt 0.855786 0.453671
vt 0.855786 0.440974
vt 0.867615 0.440974
vt 0.867615 0.453671
vt 0.377905 0.383562
vt 0.390601 0.383562
vt 0.390601 0.395390
vt 0.377903 0.395390
vt 0.480839 0.391693
vt 0.492667 0.391693
vt 0.492667 0.404390
vt 0.480839 0.404390
vt 0.462381 0.404390
vt 0.450553 0.404390
vt 0.450553 0.391693
vt 0.462381 0.391693
vt 0.140460 0.361176
vt 0.140460 0.373874
vt 0.127763 0.373873
vt 0.127763 0.361176
vt 0.507810 0.391693
vt 0.507810 0.404390
vt 0.495982 0.404390
vt 0.495982 0.391693
vt 0.204509 0.361176
vt 0.204509 0.373874
vt 0.191811 0.373873
vt 0.191812 0.361176
vt 0.352252 0.396735
vt 0.352252 0.408563
vt 0.339554 0.408563
vt 0.339554 0.396734
vt 0.509874 0.563708
vt 0.509874 0.551879
vt 0.522571 0.551879
vt 0.522571 0.563708
vt 0.732735 0.348195
vt 0.767715 0.347743
vt 0.767716 0.452972
vt 0.036401 0.746880
vt 0.036401 0.891316
vt 0.001657 0.890898
vt 0.386476 0.921557
vt 0.356043 0.824940
vt 0.386476 0.815739
vt 0.447238 0.299161
vt 0.447238 0.404390
vt 0.415901 0.403986
vt 0.491300 0.822822
vt 0.522624 0.822527
vt 0.522624 0.923823
vt 0.078557 0.400008
vt 0.334393 0.388523
vt 0.334393 0.409982
vt 0.094166 0.940088
vt 0.070535 0.755856
vt 0.094166 0.746880
vt 0.704724 0.110978
vt 0.731312 0.003452
vt 0.731312 0.299880
vt 0.415901 0.079524
vt 0.447460 0.001657
vt 0.447460 0.295847
vt 0.935973 0.675919
vt 0.916539 0.472279
vt 0.935973 0.461597
vt 0.777466 0.303195
vt 0.777466 0.342025
vt 0.762022 0.323376
vt 0.390304 0.812424
vt 0.356043 0.616553
vt 0.390304 0.611212
vt 0.186099 0.709941
vt 0.186099 0.743565
vt 0.001657 0.740816
vt 0.200502 0.674501
vt 0.200502 0.706627
vt 0.001657 0.706482
vt 0.220585 0.709941
vt 0.220585 0.894404
vt 0.189414 0.894075
vt 0.893493 0.214316
vt 0.921350 0.190645
vt 0.921350 0.370556
vt 0.226833 0.674719
vt 0.257649 0.639232
vt 0.257649 0.847995
vt 0.447866 0.948655
vt 0.425912 0.805812
vt 0.447866 0.802305
vt 0.729421 0.303195
vt 0.729421 0.452972
vt 0.704724 0.446986
vt 0.425912 0.659389
vt 0.454650 0.611212
vt 0.454650 0.798990
vt 0.352728 0.906526
vt 0.321892 0.905572
vt 0.322278 0.879794
vt 0.352728 0.861540
vt 0.871752 0.425725
vt 0.871750 0.389894
vt 0.901910 0.392044
vt 0.901910 0.437659
vt 0.785790 0.347743
vt 0.785790 0.387587
vt 0.771030 0.370953
vt 0.531783 0.574524
vt 0.531783 0.610026
vt 0.524350 0.588543
vt 0.458248 0.907546
vt 0.457541 0.839531
vt 0.487985 0.831954
vt 0.487985 0.922247
vt 0.771030 0.404674
vt 0.779932 0.390902
vt 0.779932 0.424075
vt 0.677539 0.039664
vt 0.677539 0.071037
vt 0.672159 0.060696
vt 0.524780 0.626234
vt 0.531783 0.613340
vt 0.531783 0.645774
vt 0.530622 0.649089
vt 0.530622 0.680490
vt 0.524780 0.670416
vt 0.672159 0.013325
vt 0.677498 0.003498
vt 0.677498 0.036349
vt 0.209481 0.674501
vt 0.209481 0.706241
vt 0.203817 0.697404
vt 0.078557 0.346120
vt 0.089163 0.326047
vt 0.089163 0.363648
vt 0.498085 0.383039
vt 0.476202 0.379450
vt 0.478114 0.352198
vt 0.498085 0.344347
vt 0.841697 0.437659
vt 0.810357 0.331736
vt 0.841697 0.253780
vt 0.764717 0.483903
vt 0.783701 0.461597
vt 0.783701 0.989137
vt 0.260963 0.784415
vt 0.290462 0.639232
vt 0.290462 0.847747
vt 0.893493 0.104988
vt 0.923289 0.003452
vt 0.923289 0.187331
vt 0.097480 0.852346
vt 0.126583 0.746880
vt 0.126583 0.891299
vt 0.872218 0.211967
vt 0.843079 0.110314
vt 0.872218 0.003452
vt 0.476202 0.256146
vt 0.504275 0.001657
vt 0.504275 0.295847
vt 0.562023 0.003992
vt 0.587724 0.003498
vt 0.587724 0.456574
vt 0.561910 0.455611
vt 0.458232 0.765427
vt 0.487985 0.574524
vt 0.487985 0.828639
vt 0.151088 0.746880
vt 0.151088 0.937645
vt 0.129898 0.931409
vt 0.316408 0.639232
vt 0.316408 0.857844
vt 0.293776 0.842542
vt 0.762022 0.216211
vt 0.787862 0.003452
vt 0.787862 0.299880
vt 0.491300 0.773527
vt 0.521035 0.574524
vt 0.521035 0.819212
vt 0.422597 0.832963
vt 0.393618 0.648214
vt 0.422597 0.611212
vt 0.839765 0.250465
vt 0.810357 0.051223
vt 0.839765 0.003452
vt 0.324608 0.795836
vt 0.352728 0.611212
vt 0.352728 0.858225
vt 0.177328 0.746880
vt 0.177328 0.905584
vt 0.154403 0.894891
vt 0.339554 0.371252
vt 0.348540 0.001657
vt 0.374588 0.002704
vt 0.374588 0.377407
vt 0.067220 0.746880
vt 0.067220 0.922875
vt 0.039716 0.922670
vt 0.845012 0.373359
vt 0.868435 0.228896
vt 0.868435 0.437659
vt 0.787016 0.852256
vt 0.817596 0.709600
vt 0.817596 0.897380
vt 0.940419 0.823753
vt 0.916539 0.683239
vt 0.940419 0.679234
vt 0.701410 0.458020
vt 0.680925 0.458283
vt 0.681398 0.004171
vt 0.701410 0.003452
vt 0.452873 0.002319
vt 0.472887 0.001657
vt 0.472887 0.377008
vt 0.450774 0.377061
vt 0.807043 0.003696
vt 0.807043 0.455635
vt 0.791189 0.455125
vt 0.791176 0.003452
vt 0.902696 0.461744
vt 0.913224 0.461597
vt 0.913224 0.836342
vt 0.901579 0.836444
vt 0.078557 0.506558
vt 0.080789 0.461597
vt 0.531810 0.467638
vt 0.531810 0.501087
vt 0.875533 0.004347
vt 0.890178 0.003452
vt 0.890178 0.382814
vt 0.879209 0.382724
vt 0.850335 0.901478
vt 0.822163 0.900563
vt 0.828127 0.722734
vt 0.850335 0.721568
vt 0.929262 0.003555
vt 0.938259 0.003452
vt 0.938259 0.323095
vt 0.926604 0.323226
vt 0.853658 0.462003
vt 0.864775 0.461597
vt 0.864775 0.986819
vt 0.855614 0.986773
vt 0.532642 0.455823
vt 0.558595 0.003498
vt 0.558595 0.458283
vt 0.710375 0.462105
vt 0.734005 0.461597
vt 0.734005 0.990063
vt 0.709300 0.990095
vt 0.095737 0.355490
vt 0.095738 0.327304
vt 0.240154 0.326251
vt 0.240154 0.357861
vt 0.422597 0.884171
vt 0.391307 0.883065
vt 0.391487 0.839048
vt 0.422597 0.836278
vt 0.257988 0.923161
vt 0.226833 0.925379
vt 0.226909 0.893347
vt 0.257988 0.886901
vt 0.288654 0.377006
vt 0.255298 0.378074
vt 0.243468 0.008320
vt 0.288654 0.001657
vt 0.412586 0.380052
vt 0.386755 0.380247
vt 0.377903 0.010653
vt 0.412586 0.001657
vt 0.336240 0.002639
vt 0.336240 0.382434
vt 0.291969 0.371440
vt 0.302806 0.001657
vt 0.878576 0.461958
vt 0.878576 0.990361
vt 0.868090 0.990077
vt 0.869358 0.461597
vt 0.001784 0.668481
vt 0.001657 0.640295
vt 0.223519 0.639232
vt 0.223519 0.671186
vt 0.321293 0.611212
vt 0.321293 0.635917
vt 0.001667 0.633188
vt 0.001657 0.611478
vt 0.761402 0.990334
vt 0.737320 0.990344
vt 0.737809 0.461747
vt 0.761402 0.461597
vt 0.608881 0.998343
vt 0.573836 0.989034
vt 0.608881 0.461597
vt 0.881890 0.462510
vt 0.898264 0.461597
vt 0.898264 0.781887
vt 0.889070 0.782320
vt 0.646145 0.455196
vt 0.657921 0.003498
vt 0.668845 0.004483
vt 0.668845 0.456435
vt 0.758708 0.003523
vt 0.758708 0.323810
vt 0.737363 0.323752
vt 0.734626 0.003452
vt 0.705985 0.990061
vt 0.680925 0.965876
vt 0.705985 0.461597
vt 0.316408 0.906833
vt 0.286261 0.904502
vt 0.285984 0.868933
vt 0.316408 0.861159
vt 0.511826 0.541250
vt 0.509874 0.516047
vt 0.531082 0.509873
vt 0.531082 0.548565
vt 0.095123 0.321536
vt 0.078557 0.001657
vt 0.168839 0.003093
vt 0.168839 0.322732
vt 0.612195 0.966749
vt 0.643363 0.461597
vt 0.643363 0.997831
vt 0.646678 0.469920
vt 0.677610 0.461597
vt 0.677610 0.997831
vt 0.075242 0.506558
vt 0.001657 0.006219
vt 0.075242 0.001657
vt 0.512494 0.380990
vt 0.507590 0.001657
vt 0.528347 0.001730
vt 0.528347 0.381527
vt 0.632301 0.458106
vt 0.620129 0.003498
vt 0.642831 0.003676
vt 0.642831 0.458231
vt 0.001657 0.579955
vt 0.454917 0.574524
vt 0.454917 0.607897
vt 0.178835 0.003124
vt 0.240154 0.001657
vt 0.240154 0.321333
vt 0.172154 0.322937
vt 0.389982 0.918383
vt 0.391330 0.889124
vt 0.422597 0.887486
vt 0.422597 0.922313
vt 0.829917 0.464256
vt 0.850344 0.461597
vt 0.850344 0.717692
vt 0.822163 0.718253
vt 0.501417 0.341032
vt 0.479411 0.337859
vt 0.476202 0.299162
vt 0.501417 0.301188
vt 0.790052 0.484115
vt 0.818849 0.461597
vt 0.818849 0.706286
vt 0.787016 0.705958
vt 0.271828 0.882193
vt 0.226833 0.883586
vt 0.246122 0.851310
vt 0.271828 0.851342
vt 0.529327 0.413297
vt 0.529327 0.458283
vt 0.078557 0.429579
vt 0.001657 0.536237
vt 0.506559 0.509873
vt 0.506559 0.571209
vt 0.535125 0.493860
vt 0.570521 0.461597
vt 0.570521 0.998343
vt 0.616814 0.455116
vt 0.591038 0.004003
vt 0.616814 0.003498
vn 0.2287 -0.9734 -0.0155
vn 0.7890 -0.6134 -0.0349
vn 0.6105 0.7892 -0.0675
vn -0.2287 0.9734 0.0155
vn 0.1092 -0.9918 0.0668
vn -0.9754 0.2194 -0.0213
vn -0.1091 0.9918 -0.0667
vn -0.9828 -0.1170 -0.1429
vn 0.0206 0.1062 0.9941
vn -0.0563 0.1339 0.9894
vn -0.6105 -0.7891 0.0675
vn 0.9938 0.1075 -0.0269
vn -0.2448 0.9589 -0.1437
vn -0.9349 -0.2166 -0.2812
vn -0.7890 0.6134 0.0351
vn 0.4544 -0.8867 0.0853
vn 0.9350 0.2165 0.2810
vn -0.1469 -0.0411 0.9883
vn 0.0098 0.1394 0.9902
vn -0.3770 0.9234 0.0727
vn -0.2202 -0.9656 0.1381
vn -0.8906 -0.4500 0.0665
vn -0.1065 0.9912 -0.0790
vn 0.0195 0.0693 0.9974
vn 0.9217 0.3818 -0.0687
vn 0.2202 0.9656 -0.1381
vn 0.9828 0.1170 0.1430
vn -0.9218 -0.3816 0.0686
vn -0.4544 0.8867 -0.0853
vn 0.1065 -0.9912 0.0790
vn 0.0912 -0.0412 0.9950
vn 0.9754 -0.2192 0.0213
vn 0.2448 -0.9589 0.1437
vn 0.9679 0.2503 0.0212
vn 0.8905 0.4500 -0.0665
vn 0.0588 0.0278 0.9979
vn -0.9679 -0.2503 -0.0212
vn -0.1509 0.0625 0.9866
vn 0.3769 -0.9234 -0.0727
vn -0.9938 -0.1077 0.0270
vn 0.9998 0.0185 0.0066
vn 0.9998 0.0193 0.0089
vn 0.9998 0.0169 0.0093
vn -0.9997 0.0222 0.0049
vn 0.3843 0.0234 0.9229
vn 0.3904 0.0193 -0.9204
vn -0.4191 0.0244 0.9076
vn 0.3547 -0.0123 -0.9349
vn 0.3541 -0.0208 -0.9350
vn 0.3464 -0.0200 -0.9379
vn -0.9980 0.0369 -0.0507
vn -0.3196 0.0675 0.9452
vn 0.9997 0.0097 0.0208
vn 0.9996 0.0106 0.0249
vn 0.9996 0.0081 0.0279
vn 0.3248 0.0532 0.9443
vn 0.3222 0.0581 0.9449
vn 0.3174 0.0572 0.9466
vn 0.3336 0.9162 0.2220
vn 0.9993 0.0105 0.0365
vn -0.9989 0.0214 0.0422
vn 0.4311 0.0213 0.9021
vn -0.4814 0.0240 0.8761
vn 0.3258 0.0839 -0.9417
vn -0.9934 0.0416 0.1071
vn -0.2041 -0.0150 0.9788
vn 0.9808 0.0321 -0.1922
vn 0.3932 -0.0266 0.9191
vn -1.0000 0.0009 0.0089
vn -1.0000 0.0014 0.0089
vn 0.9816 -0.1890 -0.0289
vn 0.9845 -0.1661 -0.0566
vn 0.9845 -0.1661 -0.0567
vn -0.0477 0.9560 0.2894
vn -0.0647 0.9695 0.2363
vn 0.0175 0.9722 0.2335
vn -1.0000 0.0006 0.0092
vn 1.0000 -0.0020 -0.0088
vn 1.0000 -0.0024 -0.0090
vn 1.0000 -0.0018 -0.0089
vn 0.9998 -0.0205 -0.0045
vn 0.9999 0.0127 -0.0025
vn -0.9987 0.0444 0.0260
vn -0.9999 0.0114 0.0026
vn -0.9999 -0.0021 0.0102
vn -0.9999 -0.0026 0.0117
vn -0.9999 -0.0039 0.0107
vn 0.4840 0.7945 0.3669
vn 0.0229 0.9959 0.0880
vn 0.0230 0.9959 0.0880
vn 0.9998 0.0198 0.0036
vn 0.9998 0.0190 0.0073
vn 0.9998 0.0181 0.0051
vn 0.0110 0.2202 0.9754
vn -0.9995 0.0252 0.0180
vn 0.3955 0.0271 0.9180
vn 0.3913 0.0190 -0.9200
vn -0.4447 0.0329 0.8951
vn 0.3504 -0.0206 -0.9364
vn 0.3413 -0.0278 -0.9396
vn 0.3424 -0.0196 -0.9393
vn 0.0093 0.0698 0.9975
vn 0.0106 0.1029 0.9946
vn 0.0106 0.1030 0.9946
vn -0.9989 0.0424 -0.0214
vn -0.3016 0.0650 0.9512
vn 0.9997 0.0137 0.0181
vn 0.9997 0.0102 0.0225
vn 0.9998 0.0095 0.0187
vn 0.3198 0.0581 0.9457
vn 0.3098 0.0585 0.9490
vn 0.3146 0.0574 0.9475
vn 0.9997 0.0134 0.0179
vn -0.9971 0.0161 0.0740
vn 0.4583 0.0164 0.8886
vn -0.5022 0.0202 0.8645
vn 0.2470 0.0713 -0.9664
vn -0.0155 0.0833 0.9964
vn -0.0110 0.0427 0.9990
vn -0.9759 0.0141 0.2179
vn -0.3925 -0.0342 0.9191
vn 0.9998 -0.0099 -0.0184
vn 0.4792 -0.0462 0.8765
vn -0.0124 -0.9979 0.0632
vn -0.0137 -0.9994 0.0320
vn 0.0169 -0.9995 0.0256
vn 0.0172 -0.9994 0.0310
vn 0.0171 -0.9994 0.0289
vn 0.0168 -0.9996 0.0236
vn 0.0613 0.9963 -0.0598
vn 0.0614 0.9963 -0.0598
vn 0.0636 0.9979 0.0142
vn 0.0636 0.9979 0.0143
vn 0.0055 -0.5850 0.8110
vn 0.0040 -0.6848 0.7288
vn 0.0040 -0.6847 0.7288
vn 0.0040 -0.0432 -0.9991
vn 0.0035 -0.0441 -0.9990
vn 0.0039 -0.0402 -0.9992
vn 0.0029 -0.0407 -0.9992
vn -0.0597 0.6659 0.7436
vn -0.0597 0.6659 0.7437
vn -0.0606 0.7789 0.6243
vn -0.0606 0.7788 0.6243
vn -0.4141 0.0872 -0.9060
vn -0.4676 0.0775 -0.8805
vn -0.4676 0.0775 -0.8806
vn 0.0185 -0.6998 0.7141
vn 0.0191 -0.6805 0.7325
vn -0.0068 -0.6998 0.7143
vn 0.0091 0.0847 0.9964
vn -0.0141 -0.9973 0.0714
vn -0.0142 -0.9975 0.0699
vn -0.0141 -0.9974 0.0711
vn -0.0140 -0.9973 0.0724
vn -0.3652 0.0193 -0.9307
vn -0.7040 -0.7076 0.0607
vn -0.7298 -0.6837 0.0031
vn -0.9671 0.2520 0.0338
vn -0.9661 0.2566 0.0288
vn -0.9662 0.2562 0.0292
vn -0.9681 0.2474 0.0389
vn 0.0024 -0.0387 -0.9992
vn 0.0015 -0.0414 -0.9991
vn 0.0012 -0.0433 -0.9991
vn 0.0005 -0.0375 -0.9993
vn -0.0162 0.1015 0.9947
vn -0.0180 0.0428 0.9989
vn 0.0008 -0.0411 -0.9992
vn 0.0019 -0.0384 -0.9993
vn -0.0005 -0.0415 -0.9991
vn 0.0022 -0.0409 -0.9992
vn 0.0446 0.7469 0.6635
vn 0.0446 0.7489 0.6612
vn 0.0445 0.7440 0.6667
vn 0.0445 0.7420 0.6689
vn -0.4153 0.0098 -0.9096
vn -0.3781 0.0152 -0.9256
vn -0.3782 0.0152 -0.9256
vn 0.0147 -0.9973 0.0721
vn 0.0163 -0.9956 0.0918
vn 0.0543 0.9948 -0.0861
vn 0.0540 0.9955 -0.0782
vn 0.0541 0.9952 -0.0814
vn 0.0544 0.9945 -0.0893
vn -0.0090 -0.0559 -0.9984
vn -0.0300 0.5940 0.8039
vn -0.0310 0.7421 0.6696
vn 0.0364 0.7826 0.6214
vn 0.0371 0.6705 0.7410
vn 0.0374 0.6705 0.7410
vn -0.0661 0.9953 -0.0713
vn -0.0659 0.9954 -0.0689
vn -0.0664 0.9950 -0.0747
vn -0.0665 0.9948 -0.0770
vn -0.0088 -0.1565 -0.9876
vn 0.9819 0.1887 -0.0148
vn 0.9858 0.1611 -0.0469
vn -0.2028 0.9657 0.1621
vn -0.0831 0.9926 0.0886
vn 0.0070 -0.0970 -0.9953
vn 0.0041 -0.0984 -0.9951
vn 0.0003 -0.1158 -0.9933
vn -0.0020 -0.1087 -0.9941
vn 0.0099 0.0946 0.9955
vn 0.0101 0.0584 0.9982
vn -0.0062 -0.1158 -0.9933
vn 0.0029 -0.1207 -0.9927
vn -0.0039 -0.1202 -0.9927
vn -0.0761 0.9971 -0.0000
vn -0.0784 0.9954 -0.0555
vn -0.0129 -0.4595 0.8881
vn -0.0109 -0.5850 0.8109
vn -0.0109 -0.5850 0.8110
vn 0.0036 -0.0479 -0.9988
vn 0.0036 -0.0464 -0.9989
vn 0.0017 -0.0443 -0.9990
vn -0.0041 0.1318 0.9913
vn 0.0063 0.1296 0.9915
vn -0.0028 0.1088 0.9941
vn -0.6342 0.7671 -0.0965
vn -0.6342 0.7672 -0.0965
vn -0.7086 0.6820 -0.1808
vn -0.7087 0.6820 -0.1808
vn -0.3622 -0.0106 -0.9320
vn -0.3558 -0.0102 -0.9345
vn -0.3582 -0.0104 -0.9336
vn -0.3647 -0.0108 -0.9311
vn 0.0506 0.9791 0.1967
vn 0.2394 0.9536 0.1828
vn 0.0746 0.9596 0.2714
vn 0.3824 0.0107 -0.9239
vn 0.3819 0.0106 -0.9241
vn -1.0000 0.0009 0.0083
vn -1.0000 -0.0001 0.0098
vn -1.0000 -0.0007 0.0088
vn -1.0000 0.0008 0.0078
vn 0.0059 -0.0375 -0.9993
vn 0.0030 -0.0377 -0.9993
vn 0.0039 -0.0373 -0.9993
vn 0.0067 0.1407 0.9900
vn 0.0013 0.1473 0.9891
vn 0.0147 0.1446 0.9894
vn -0.0086 -0.0857 -0.9963
vn 0.0116 0.0526 0.9985
g Fence_3_Fence_3_Collor_Material
usemtl Collor_Material
s off
f 102/1/1 101/2/1 97/3/1 98/4/1
f 88/5/2 92/6/2 94/7/2 90/8/2
f 88/9/3 87/10/3 91/11/3 92/12/3
f 95/13/4 99/14/4 100/15/4 96/16/4
f 73/17/5 74/18/5 78/19/5 77/20/5
f 117/21/6 113/22/6 114/23/6 118/24/6
f 72/25/7 71/26/7 75/27/7 76/28/7
f 83/29/8 79/30/8 81/31/8 85/32/8
f 123/33/9 125/34/9 126/35/9 124/36/9
f 131/37/10 133/38/10 134/39/10 132/40/10
f 93/41/11 89/42/11 90/43/11 94/44/11
f 78/45/12 74/46/12 72/47/12 76/48/12
f 131/49/13 127/50/13 129/51/13 133/52/13
f 99/53/14 95/54/14 97/55/14 101/56/14
f 87/57/15 89/58/15 93/59/15 91/60/15
f 121/61/16 122/62/16 126/63/16 125/64/16
f 100/65/17 102/66/17 98/67/17 96/68/17
f 101/69/18 102/70/18 100/71/18 99/72/18
f 115/73/19 117/74/19 118/75/19 116/76/19
f 107/77/20 103/78/20 105/79/20 109/80/20
f 116/81/21 118/82/21 114/83/21 112/84/21
f 121/85/22 125/86/22 123/87/22 119/88/22
f 79/89/23 83/90/23 84/91/23 80/92/23
f 75/93/24 77/94/24 78/95/24 76/96/24
f 107/97/25 108/98/25 104/99/25 103/100/25
f 115/101/26 111/102/26 113/103/26 117/104/26
f 86/105/27 82/106/27 80/107/27 84/108/27
f 110/109/28 109/110/28 105/111/28 106/112/28
f 120/113/29 119/114/29 123/115/29 124/116/29
f 81/117/30 82/118/30 86/119/30 85/120/30
f 107/121/31 109/122/31 110/123/31 108/124/31
f 112/125/32 111/126/32 115/127/32 116/128/32
f 132/129/33 134/130/33 130/131/33 128/132/33
f 127/133/34 131/134/34 132/135/34 128/136/34
f 120/137/35 124/138/35 126/139/35 122/140/35
f 91/141/36 93/142/36 94/143/36 92/144/36
f 129/145/37 130/146/37 134/147/37 133/148/37
f 85/149/38 86/150/38 84/151/38 83/152/38
f 110/153/39 106/154/39 104/155/39 108/156/39
f 75/157/40 71/158/40 73/159/40 77/160/40
f 1/161/41 3/162/42 4/163/43
f 8/164/44 7/165/44 5/166/44
f 10/167/45 9/168/45 1/169/45
f 4/170/46 3/171/46 11/172/46
f 5/173/47 9/174/47 10/175/47
f 12/176/48 18/177/49 14/178/50
f 6/179/51 15/180/51 16/181/51
f 6/182/52 10/183/52 17/184/52
f 2/185/53 4/186/54 14/187/55
f 2/188/56 13/189/57 17/190/58
f 32/191/59 35/192/59 31/193/59
f 20/194/60 19/195/60 21/196/60
f 25/197/61 23/198/61 24/199/61
f 27/200/62 19/201/62 20/202/62
f 24/203/63 23/204/63 27/205/63
f 22/206/64 30/207/64 36/208/64
f 26/209/65 24/210/65 33/211/65
f 28/212/66 35/213/66 33/214/66
f 22/215/67 32/216/67 31/217/67
f 28/218/68 20/219/68 31/220/68
f 142/221/69 146/222/70 63/223/69 44/224/69
f 56/225/71 144/226/71 141/227/72 43/228/73
f 33/229/74 36/230/75 34/231/76
f 44/232/77 63/233/77 62/234/77
f 48/235/78 51/236/78 37/237/78 39/238/78
f 49/239/79 48/240/79 39/241/79
f 37/242/80 51/243/80 50/244/80
f 57/245/81 56/246/81 43/247/81
f 41/248/82 59/249/82 58/250/82
f 53/251/83 52/252/83 38/253/83
f 40/254/84 55/255/84 54/256/84
f 61/257/85 60/258/86 42/259/87
f 17/260/88 13/261/88 14/262/89 18/263/90
f 1/264/91 4/265/92 2/266/93
f 137/267/94 52/268/94 136/269/94
f 8/270/95 5/271/95 6/272/95
f 10/273/96 1/274/96 2/275/96
f 4/276/97 11/277/97 12/278/97
f 5/279/98 10/280/98 6/281/98
f 12/282/99 14/283/100 4/284/101
f 146/285/102 60/286/102 145/287/103 66/288/104
f 6/289/105 16/290/105 8/291/105
f 6/292/106 17/293/106 15/294/106
f 2/295/107 14/296/108 13/297/109
f 2/298/110 17/299/111 10/300/112
f 20/301/113 21/302/113 22/303/113
f 25/304/114 24/305/114 26/306/114
f 27/307/115 20/308/115 28/309/115
f 24/310/116 27/311/116 28/312/116
f 22/313/117 36/314/117 32/315/117
f 144/316/118 145/317/118 64/318/119 59/319/119
f 26/320/120 33/321/120 34/322/120
f 28/323/121 33/324/121 24/325/121
f 22/326/122 31/327/122 20/328/122
f 28/329/123 31/330/123 35/331/123
f 61/332/124 42/333/124 45/334/125 65/335/125
f 65/336/126 45/337/127 41/338/128 58/339/129
f 62/340/130 67/341/131 46/342/132 44/343/133
f 64/344/134 65/345/134 58/346/135 59/347/136
f 42/348/137 142/349/138 46/350/139 143/351/140
f 56/352/141 57/353/142 67/354/143 66/355/144
f 30/356/145 26/357/145 34/358/146 36/359/147
f 136/360/148 68/361/148 50/362/149 51/363/149
f 52/364/150 53/365/150 68/366/150 136/367/150
f 145/368/151 60/369/151 64/370/151
f 53/371/152 38/372/153 47/373/154 68/374/155
f 8/375/156 12/376/156 11/377/156 7/378/156
f 135/379/157 137/380/157 139/381/158 138/382/158
f 138/383/159 139/384/160 55/385/161 40/386/162
f 45/387/163 143/388/164 141/389/165 41/390/166
f 66/391/167 145/392/167 144/393/168 56/394/168
f 46/395/169 43/396/170 141/397/171 143/398/172
f 70/399/173 54/400/174 55/401/175 69/402/176
f 26/403/177 30/404/177 29/405/178 25/406/179
f 68/407/180 47/408/180 37/409/181 50/410/181
f 70/411/182 140/412/183 40/413/184 54/414/185
f 138/415/186 40/416/186 140/417/186
f 48/418/187 49/419/187 70/420/188 69/421/188
f 63/422/189 66/423/189 67/424/190 62/425/191
f 70/426/192 49/427/193 39/428/194 140/429/195
f 38/430/196 135/431/196 47/432/196
f 141/433/197 144/434/197 59/435/198 41/436/198
f 16/437/199 15/438/199 17/439/200 18/440/200
f 140/441/201 39/442/202 37/443/203 47/444/204
f 137/445/205 69/446/205 139/447/205
f 55/448/206 139/449/206 69/450/206
f 135/451/207 140/452/208 47/453/209
f 67/454/210 57/455/210 43/456/211 46/457/211
f 64/458/212 60/459/212 61/460/213 65/461/214
f 42/462/215 143/463/216 45/464/217
f 69/465/218 136/466/219 51/467/220 48/468/220
f 52/469/221 137/470/222 135/471/223 38/472/224
f 16/473/225 18/474/226 12/475/227 8/476/228
f 33/477/229 35/478/230 32/479/230 36/480/231
f 30/481/232 22/482/233 21/483/232 29/484/232
f 142/485/234 42/486/235 60/487/236 146/488/237
f 142/489/238 44/490/239 46/491/240
f 137/492/241 136/493/242 69/494/243
f 135/495/244 138/496/244 140/497/244
f 66/498/245 63/499/245 146/500/245
