# Blender v3.0.0 OBJ File: 'aa.blend'
# www.blender.org
mtllib Fence_1.mtl
o Fence_1
v 1.731766 -0.000000 -0.007857
v 1.723927 0.436634 -0.017385
v 1.732501 -0.000000 -0.090929
v 1.727656 0.249968 -0.087750
v 1.594529 -0.000000 -0.010024
v 1.606792 0.495014 -0.022110
v 1.594095 -0.000000 -0.092602
v 1.601799 0.343031 -0.088358
v 1.662065 0.000000 0.021164
v 1.662462 0.240614 0.014893
v 1.664011 -0.000000 -0.119923
v 1.664045 0.343030 -0.112968
v 1.719846 0.921575 -0.045786
v 1.720695 0.948343 -0.104875
v 1.625355 0.929727 -0.047263
v 1.627154 0.948354 -0.105344
v 1.672854 0.948275 -0.030783
v 1.673672 0.948367 -0.123209
v 0.066176 -0.000000 -0.029145
v 0.061538 0.472241 -0.038056
v 0.069172 -0.000000 -0.111416
v 0.061340 0.581151 -0.108038
v -0.067536 -0.000000 -0.031903
v -0.058429 0.438043 -0.038877
v -0.071200 -0.000000 -0.112387
v -0.062280 0.526704 -0.107095
v -0.002659 0.000000 0.003747
v -0.000017 0.586603 -0.008411
v -0.000510 -0.000000 -0.140032
v -0.000974 0.526938 -0.134166
v 0.063737 0.910349 -0.029075
v 0.056954 0.943582 -0.081652
v -0.034567 0.928803 -0.011150
v -0.047951 0.949283 -0.071227
v 0.018111 0.934896 0.001723
v -0.002730 0.948847 -0.098154
v 1.830506 0.654066 -0.021802
v -0.182142 0.660122 -0.011764
v 1.830742 0.867600 -0.041938
v -0.181884 0.885502 -0.033016
v 1.801447 0.342812 -0.034037
v -0.167736 0.340483 -0.038846
v 1.801551 0.556820 -0.041968
v -0.167648 0.554374 -0.046741
v 1.156605 0.340504 -0.032496
v 1.147001 0.534741 -0.039915
v 0.580056 0.647023 -0.018026
v 0.580332 0.888980 -0.040841
v 1.831359 0.839551 0.031516
v 1.831178 0.871697 0.008730
v 1.830970 0.658864 0.030244
v 1.831163 0.679312 0.048051
v -0.181448 0.685742 0.062009
v -0.181644 0.665281 0.044166
v -0.181385 0.890784 0.022759
v -0.181256 0.874025 0.041434
v 1.802079 0.530119 0.030269
v 1.802087 0.557088 0.007931
v 1.801904 0.344359 0.018248
v 1.802047 0.364147 0.037326
v -0.167095 0.391831 0.033855
v -0.167259 0.343408 0.010542
v -0.167290 0.554138 -0.008341
v -0.167032 0.513068 0.026731
v 1.158266 0.362043 0.027845
v 1.158413 0.342014 0.014140
v 1.149765 0.524119 0.015090
v 1.148339 0.537807 -0.003295
v 0.580784 0.672617 0.058511
v 0.580609 0.652897 0.043087
v 0.580955 0.885038 0.032474
v 0.580899 0.895142 0.021039
v -0.021823 0.745788 0.035302
v 0.008146 0.749032 0.034490
v -0.018528 0.715884 0.037315
v 0.011437 0.719128 0.036503
v -0.021273 0.747734 0.063318
v 0.008695 0.750978 0.062507
v -0.017979 0.717830 0.065331
v 0.011982 0.721074 0.064519
v -0.019109 0.815240 0.023520
v 0.010527 0.818769 0.027829
v -0.015899 0.785355 0.025903
v 0.013737 0.788883 0.030212
v -0.023347 0.816995 0.051232
v 0.006285 0.820523 0.055541
v -0.020137 0.787109 0.053615
v 0.009499 0.790637 0.057924
v -0.008129 0.441309 0.010275
v 0.015679 0.422819 0.009389
v -0.026554 0.417507 0.012025
v -0.002749 0.399017 0.011138
v -0.006430 0.442091 0.034746
v 0.017371 0.423601 0.033860
v -0.024859 0.418289 0.036496
v -0.001058 0.399798 0.035609
v -0.020554 0.501945 0.013665
v 0.008476 0.508693 0.018261
v -0.013692 0.472584 0.013463
v 0.015330 0.479332 0.018059
v -0.024516 0.500791 0.027725
v 0.004514 0.507538 0.032321
v -0.017654 0.471429 0.027524
v 0.011375 0.478177 0.032120
v 1.664776 0.432700 0.010294
v 1.676145 0.404858 0.008101
v 1.636989 0.421191 0.012365
v 1.648350 0.393349 0.010171
v 1.667337 0.431543 0.038243
v 1.678705 0.403701 0.036049
v 1.639546 0.420034 0.040313
v 1.650911 0.392193 0.038119
v 1.676768 0.501195 0.008930
v 1.670133 0.472079 0.013094
v 1.647358 0.507810 0.008289
v 1.640719 0.478694 0.012453
v 1.677041 0.505110 0.036744
v 1.670406 0.475994 0.040908
v 1.647632 0.511725 0.036103
v 1.640993 0.482608 0.040267
v 1.635767 0.732392 0.018809
v 1.662618 0.745960 0.016803
v 1.649470 0.705656 0.021382
v 1.676321 0.719224 0.019376
v 1.636348 0.735376 0.046733
v 1.663195 0.748943 0.044727
v 1.650047 0.708640 0.049306
v 1.676898 0.722207 0.047300
v 1.671916 0.832942 0.011359
v 1.679299 0.804030 0.015692
v 1.642732 0.825395 0.010721
v 1.650111 0.796483 0.015054
v 1.670336 0.836704 0.039150
v 1.677715 0.807792 0.043483
v 1.641148 0.829157 0.038512
v 1.648530 0.800245 0.042845
vt 0.465659 0.547934
vt 0.465659 0.585772
vt 0.351785 0.584304
vt 0.351785 0.509207
vt 0.508064 0.507256
vt 0.508064 0.544868
vt 0.546130 0.935625
vt 0.655752 0.934360
vt 0.655752 0.968749
vt 0.566920 0.587344
vt 0.534338 0.478221
vt 0.566920 0.468948
vt 0.836673 0.934580
vt 0.836673 0.968463
vt 0.727048 0.967429
vt 0.959318 0.293050
vt 0.936427 0.018212
vt 0.959318 0.016116
vt 0.325131 0.939406
vt 0.300642 0.742412
vt 0.325131 0.729266
vt 0.873200 0.432717
vt 0.901835 0.316384
vt 0.901835 0.639408
vt 0.782525 0.400607
vt 0.816660 0.316384
vt 0.816660 0.634585
vt 0.972847 0.550659
vt 0.951505 0.330428
vt 0.972847 0.316384
vt 0.647633 0.640736
vt 0.608276 0.625792
vt 0.647633 0.617749
vt 0.592899 0.001533
vt 0.592899 0.041703
vt 0.574138 0.024362
vt 0.531273 0.468948
vt 0.531273 0.511029
vt 0.512841 0.490683
vt 0.896800 0.016116
vt 0.896800 0.231256
vt 0.859309 0.230563
vt 0.655752 0.931295
vt 0.619569 0.925182
vt 0.655752 0.728906
vt 0.566920 0.431135
vt 0.566920 0.465883
vt 0.351779 0.465727
vt 0.071797 0.931327
vt 0.038495 0.734541
vt 0.071797 0.729266
vt 0.207241 0.754764
vt 0.237354 0.729266
vt 0.237354 0.922134
vt 0.899865 0.054551
vt 0.933361 0.016116
vt 0.933361 0.240263
vt 0.522725 0.766281
vt 0.522725 0.925200
vt 0.498225 0.921013
vt 0.466725 0.766281
vt 0.466725 0.931807
vt 0.441571 0.918413
vt 0.574197 0.488745
vt 0.605106 0.436532
vt 0.605106 0.636122
vt 0.502543 0.581708
vt 0.500023 0.554029
vt 0.523658 0.547934
vt 0.523658 0.590032
vt 0.376486 0.762396
vt 0.351792 0.731621
vt 0.616504 0.728906
vt 0.616503 0.763216
vt 0.589819 0.044768
vt 0.589819 0.087942
vt 0.574138 0.069809
vt 0.595663 0.259449
vt 0.595663 0.297841
vt 0.587185 0.274749
vt 0.963030 0.097946
vt 0.962384 0.024577
vt 0.995140 0.016116
vt 0.995140 0.113806
vt 0.574144 0.274368
vt 0.584120 0.259449
vt 0.584120 0.295263
vt 0.604731 0.259449
vt 0.604731 0.293281
vt 0.598729 0.282487
vt 0.589099 0.229645
vt 0.597093 0.215844
vt 0.597093 0.250922
vt 0.602110 0.001533
vt 0.602110 0.035459
vt 0.595965 0.024552
vt 0.592884 0.055503
vt 0.599022 0.044768
vt 0.599022 0.080340
vt 0.601110 0.393498
vt 0.601110 0.427809
vt 0.594861 0.418239
vt 0.574144 0.237240
vt 0.586033 0.215844
vt 0.586033 0.256384
vt 0.035429 0.928219
vt 0.001533 0.813585
vt 0.035429 0.729266
vt 0.617129 0.317763
vt 0.705760 0.316384
vt 0.705760 0.614683
vt 0.608276 0.611338
vt 0.869975 0.799572
vt 0.901835 0.642474
vt 0.901835 0.868074
vt 0.110814 0.839156
vt 0.143042 0.729266
vt 0.143042 0.928219
vt 0.351792 0.880410
vt 0.383288 0.766281
vt 0.383288 0.922553
vt 0.699015 0.954506
vt 0.667498 0.844491
vt 0.699015 0.728906
vt 0.839738 0.591644
vt 0.870135 0.316384
vt 0.870135 0.634586
vt 0.683937 0.016116
vt 0.683937 0.313319
vt 0.609862 0.309992
vt 0.608276 0.016739
vt 0.687003 0.223788
vt 0.719112 0.016116
vt 0.719112 0.292173
vt 0.438505 0.766281
vt 0.438505 0.974946
vt 0.416889 0.963611
vt 0.170586 0.729266
vt 0.170586 0.965721
vt 0.146107 0.949170
vt 0.904901 0.548966
vt 0.933026 0.316384
vt 0.933026 0.639408
vt 0.722178 0.231426
vt 0.754345 0.016116
vt 0.754345 0.280842
vt 0.937037 0.316435
vt 0.948440 0.316384
vt 0.948440 0.885937
vt 0.936091 0.885987
vt 0.814094 0.877595
vt 0.782525 0.677683
vt 0.814094 0.637650
vt 0.789218 0.283356
vt 0.757411 0.067787
vt 0.789218 0.016116
vt 0.597360 0.766281
vt 0.597360 0.863768
vt 0.563405 0.841618
vt 0.564611 0.786316
vt 0.825829 0.215874
vt 0.856244 0.016116
vt 0.856244 0.283356
vt 0.413824 0.766281
vt 0.413824 0.936339
vt 0.386354 0.929511
vt 0.987413 0.553731
vt 0.998467 0.553725
vt 0.998467 0.846829
vt 0.985949 0.846989
vt 0.297577 0.922541
vt 0.268818 0.736037
vt 0.297577 0.729266
vt 0.240419 0.883864
vt 0.265753 0.729266
vt 0.265753 0.953413
vt 0.074862 0.879916
vt 0.107748 0.729266
vt 0.107748 0.928856
vt 0.495160 0.925200
vt 0.469790 0.776769
vt 0.495160 0.766281
vt 0.571073 0.001533
vt 0.571073 0.112226
vt 0.001536 0.103226
vt 0.001533 0.005536
vt 0.842308 0.638427
vt 0.863563 0.637652
vt 0.863563 0.931361
vt 0.839738 0.931515
vt 0.800072 0.016596
vt 0.822763 0.016116
vt 0.822763 0.291903
vt 0.792283 0.292543
vt 0.779460 0.316618
vt 0.779460 0.915889
vt 0.762725 0.915233
vt 0.761968 0.316384
vt 0.722251 0.920127
vt 0.708825 0.316460
vt 0.733304 0.316384
vt 0.733304 0.920187
vt 0.001533 0.235901
vt 0.571079 0.215844
vt 0.571079 0.313319
vt 0.001555 0.309273
vt 0.005433 0.316384
vt 0.605211 0.322033
vt 0.605211 0.377349
vt 0.001533 0.390432
vt 0.180209 0.922022
vt 0.173651 0.729266
vt 0.204176 0.729287
vt 0.204176 0.922561
vt 0.351869 0.425164
vt 0.351779 0.394639
vt 0.591796 0.393498
vt 0.591796 0.428070
vt 0.916289 0.940353
vt 0.910297 0.642474
vt 0.933026 0.642654
vt 0.933026 0.940957
vt 0.001542 0.598980
vt 0.001533 0.512712
vt 0.348719 0.507256
vt 0.348719 0.604731
vt 0.351779 0.500573
vt 0.351782 0.470087
vt 0.508050 0.468948
vt 0.508050 0.503138
vt 0.758903 0.920191
vt 0.736369 0.920468
vt 0.737652 0.317265
vt 0.758903 0.316384
vt 0.957011 0.851050
vt 0.951505 0.553900
vt 0.967454 0.553725
vt 0.967454 0.851659
vt 0.496958 0.593124
vt 0.472319 0.589860
vt 0.468724 0.547934
vt 0.496958 0.549950
vt 0.560340 0.869390
vt 0.525790 0.860927
vt 0.527069 0.774668
vt 0.560340 0.766281
vt 0.971480 0.900945
vt 0.970519 0.553725
vt 0.982884 0.553799
vt 0.982884 0.901021
vt 0.571132 0.636122
vt 0.001538 0.634676
vt 0.001533 0.611522
vt 0.571132 0.607797
vt 0.604738 0.115291
vt 0.604738 0.212778
vt 0.005944 0.203974
vt 0.001533 0.115442
vt 0.351792 0.723742
vt 0.351794 0.698159
vt 0.699015 0.697876
vt 0.699015 0.725840
vt 0.571075 0.639187
vt 0.571075 0.667152
vt 0.001533 0.663427
vt 0.001536 0.639620
vt 0.001533 0.700456
vt 0.348727 0.697876
vt 0.348727 0.726201
vt 0.001538 0.725975
vt 0.980391 0.203467
vt 0.987341 0.203455
vt 0.987341 0.550655
vt 0.975912 0.550659
vt 0.836673 0.316615
vt 0.836673 0.855097
vt 0.819725 0.854524
vt 0.827283 0.316384
vt 0.601220 0.694810
vt 0.001533 0.690680
vt 0.002128 0.680225
vt 0.601220 0.670217
vt 0.001533 0.498913
vt 0.001533 0.395804
vt 0.348714 0.393498
vt 0.348714 0.504191
vt 0.870387 0.955309
vt 0.869975 0.879646
vt 0.902817 0.871139
vt 0.902817 0.968681
vt 0.625751 0.677611
vt 0.636929 0.677506
vt 0.636929 0.691240
vt 0.625751 0.691345
vt 0.687572 0.690196
vt 0.687572 0.676460
vt 0.698750 0.676525
vt 0.698750 0.690258
vt 0.698750 0.657472
vt 0.687572 0.657535
vt 0.687572 0.643800
vt 0.698750 0.643738
vt 0.702862 0.308974
vt 0.702862 0.295238
vt 0.709478 0.296117
vt 0.709478 0.309849
vt 0.580760 0.312440
vt 0.574144 0.313319
vt 0.574144 0.299584
vt 0.580760 0.298705
vt 0.418983 0.588838
vt 0.432715 0.588837
vt 0.432715 0.602570
vt 0.418982 0.602570
vt 0.590056 0.639187
vt 0.602850 0.639187
vt 0.602850 0.652921
vt 0.590056 0.652921
vt 0.448575 0.588838
vt 0.448575 0.602572
vt 0.435781 0.602572
vt 0.435781 0.588837
vt 0.667497 0.617749
vt 0.680291 0.617749
vt 0.680291 0.631482
vt 0.667497 0.631482
vt 0.385383 0.602570
vt 0.385384 0.588837
vt 0.399117 0.588837
vt 0.399117 0.602571
vt 0.574139 0.104742
vt 0.574138 0.091007
vt 0.587872 0.091008
vt 0.587872 0.104741
vt 0.699797 0.308971
vt 0.687003 0.308971
vt 0.687003 0.295240
vt 0.699797 0.295238
vt 0.574197 0.639187
vt 0.586991 0.639187
vt 0.586991 0.652920
vt 0.574197 0.652922
vt 0.719218 0.308972
vt 0.712544 0.309031
vt 0.712544 0.295297
vt 0.719218 0.295238
vt 0.636929 0.660708
vt 0.636929 0.674441
vt 0.625751 0.674335
vt 0.625751 0.660601
vt 0.684507 0.676460
vt 0.684507 0.690193
vt 0.671713 0.690193
vt 0.671713 0.676460
vt 0.728957 0.295297
vt 0.728957 0.309031
vt 0.722284 0.308972
vt 0.722283 0.295238
vt 0.526575 0.514096
vt 0.526575 0.527831
vt 0.512841 0.527829
vt 0.512841 0.514094
vt 0.368585 0.588837
vt 0.382318 0.588837
vt 0.382318 0.602571
vt 0.368584 0.602570
vt 0.664432 0.617749
vt 0.664432 0.630542
vt 0.650699 0.630542
vt 0.650698 0.617749
vt 0.608276 0.657535
vt 0.608276 0.643802
vt 0.621070 0.643802
vt 0.621070 0.657536
vt 0.639995 0.643802
vt 0.652788 0.643802
vt 0.652788 0.657535
vt 0.639994 0.657535
vt 0.590938 0.091007
vt 0.603732 0.091007
vt 0.603732 0.104740
vt 0.590937 0.104742
vt 0.365518 0.602572
vt 0.351785 0.602570
vt 0.351785 0.588839
vt 0.365518 0.588837
vt 0.636929 0.657535
vt 0.624135 0.657536
vt 0.624135 0.643802
vt 0.636929 0.643802
vt 0.622009 0.690193
vt 0.609216 0.690194
vt 0.609216 0.676461
vt 0.622009 0.676460
vt 0.622009 0.660601
vt 0.622009 0.673395
vt 0.608276 0.673395
vt 0.608276 0.660601
vt 0.685446 0.673395
vt 0.671713 0.673395
vt 0.671713 0.660601
vt 0.685446 0.660601
vt 0.671713 0.643802
vt 0.684507 0.643802
vt 0.684507 0.657535
vt 0.671713 0.657535
vt 0.563932 0.590409
vt 0.563932 0.604144
vt 0.551138 0.604144
vt 0.551138 0.590409
vt 0.696150 0.617749
vt 0.696150 0.631481
vt 0.683356 0.631480
vt 0.683356 0.617749
vt 0.655854 0.691133
vt 0.655854 0.677400
vt 0.668647 0.677400
vt 0.668647 0.691133
vt 0.534340 0.590409
vt 0.548073 0.590409
vt 0.548073 0.603203
vt 0.534338 0.603203
vt 0.668648 0.643802
vt 0.668648 0.657535
vt 0.655854 0.657535
vt 0.655854 0.643802
vt 0.465659 0.588837
vt 0.465659 0.602572
vt 0.452865 0.602572
vt 0.452865 0.588837
vt 0.526575 0.544630
vt 0.512841 0.544631
vt 0.512841 0.530897
vt 0.526575 0.530897
vt 0.639995 0.691133
vt 0.639994 0.677400
vt 0.652788 0.677401
vt 0.652788 0.691132
vt 0.415916 0.588837
vt 0.415916 0.602572
vt 0.402183 0.602571
vt 0.402183 0.588838
vt 0.668647 0.674334
vt 0.655854 0.674334
vt 0.655854 0.660601
vt 0.668647 0.660601
vt 0.639994 0.660601
vt 0.652788 0.660601
vt 0.652788 0.674334
vt 0.639994 0.674334
vn 0.9998 0.0186 0.0068
vn 0.9998 0.0193 0.0089
vn 0.9998 0.0169 0.0093
vn -0.9997 0.0224 0.0053
vn 0.3843 0.0234 0.9229
vn 0.3898 0.0193 -0.9207
vn -0.4191 0.0243 0.9076
vn 0.3632 -0.0215 -0.9315
vn -0.9990 0.0407 -0.0167
vn -0.9990 0.0416 -0.0176
vn -0.9990 0.0414 -0.0184
vn -0.3267 0.0657 0.9429
vn 0.9997 0.0097 0.0207
vn 0.9996 0.0106 0.0249
vn 0.9996 0.0081 0.0279
vn 0.3333 0.0579 0.9410
vn 0.0768 0.9935 -0.0840
vn 0.1296 0.9900 -0.0560
vn 0.0001 1.0000 0.0010
vn 0.5448 0.7608 0.3525
vn 0.6190 0.6975 0.3610
vn 0.9993 0.0105 0.0364
vn -0.9987 0.0215 0.0455
vn 0.4311 0.0213 0.9021
vn -0.4814 0.0240 0.8761
vn 0.3240 0.0818 -0.9425
vn -0.9930 0.0420 0.1107
vn -0.2356 -0.0160 0.9717
vn 0.9931 0.0204 -0.1152
vn 0.4022 -0.0208 0.9153
vn -0.4289 0.8640 0.2638
vn -0.1156 0.9931 -0.0181
vn -0.0955 0.9834 0.1541
vn 0.3794 0.0106 -0.9252
vn 0.3799 0.0106 -0.9250
vn 0.1770 0.9429 0.2820
vn -1.0000 0.0017 0.0094
vn -0.9999 0.0017 0.0099
vn 1.0000 -0.0020 -0.0089
vn 1.0000 -0.0013 -0.0085
vn 1.0000 -0.0004 -0.0086
vn 1.0000 0.0005 -0.0087
vn 1.0000 -0.0018 -0.0088
vn 0.9999 -0.0091 -0.0107
vn 0.9999 -0.0073 -0.0146
vn 0.9999 -0.0127 -0.0071
vn 1.0000 0.0018 -0.0078
vn 1.0000 0.0008 -0.0099
vn 1.0000 0.0012 -0.0088
vn -1.0000 0.0020 0.0087
vn -1.0000 0.0021 0.0088
vn -1.0000 -0.0013 0.0097
vn -0.9999 -0.0012 0.0108
vn -0.9999 -0.0025 0.0101
vn 0.9998 0.0197 0.0037
vn 0.9998 0.0190 0.0073
vn 0.9998 0.0181 0.0051
vn -0.0021 -0.0344 -0.9994
vn 0.0011 -0.0368 -0.9993
vn -0.0021 -0.0376 -0.9993
vn -0.0022 -0.0372 -0.9993
vn -0.9995 0.0252 0.0175
vn 0.3956 0.0271 0.9180
vn 0.3919 0.0186 -0.9198
vn -0.4447 0.0329 0.8951
vn 0.3436 -0.0196 -0.9389
vn -0.0239 0.0772 0.9967
vn -0.0148 0.0425 0.9990
vn -0.0149 0.0425 0.9990
vn -0.9990 0.0416 -0.0183
vn -0.9989 0.0414 -0.0204
vn -0.9990 0.0413 -0.0195
vn -0.3509 0.0690 0.9338
vn 0.9997 0.0138 0.0181
vn 0.9997 0.0102 0.0225
vn 0.9998 0.0095 0.0187
vn 0.3171 0.0564 0.9467
vn 0.9997 0.0134 0.0180
vn 0.0110 -0.6161 0.7876
vn 0.0098 -0.6568 0.7540
vn -0.9969 0.0161 0.0772
vn 0.4583 0.0164 0.8886
vn -1.0000 0.0008 0.0086
vn -1.0000 0.0001 0.0095
vn -1.0000 -0.0001 0.0091
vn -1.0000 0.0013 0.0089
vn -0.5022 0.0202 0.8645
vn 0.2718 0.0731 -0.9596
vn -0.0747 -0.5785 0.8122
vn -0.0087 -0.6416 0.7670
vn -0.0083 -0.6940 0.7199
vn -0.9749 0.0142 0.2220
vn -0.3957 -0.0326 0.9178
vn 0.9999 -0.0048 -0.0103
vn 0.5391 -0.0525 0.8406
vn 0.0010 -0.0939 -0.9956
vn -0.0025 -0.0973 -0.9953
vn -0.0025 -0.0939 -0.9956
vn 0.0099 -0.9996 0.0254
vn -0.0012 -0.9996 0.0266
vn 0.0035 -0.9995 0.0308
vn 0.0035 -0.9995 0.0299
vn -0.3651 -0.0105 -0.9309
vn -0.3585 -0.0101 -0.9335
vn -0.3611 -0.0103 -0.9325
vn -0.3676 -0.0107 -0.9299
vn 0.0127 0.9964 -0.0839
vn 0.0122 0.9964 -0.0839
vn 0.0149 0.9999 0.0060
vn 0.0707 -0.4099 0.9094
vn -0.0057 -0.4338 0.9010
vn -0.0028 -0.5647 0.8253
vn 0.0025 -0.4780 0.8784
vn 0.0052 0.1216 0.9926
vn 0.0015 0.1188 0.9929
vn 0.0005 0.1073 0.9942
vn 0.0078 0.1026 0.9947
vn 0.0083 0.0587 0.9982
vn 0.0083 0.0586 0.9982
vn 0.0063 0.0788 0.9969
vn -0.4030 0.0762 -0.9120
vn -0.5089 0.0899 -0.8561
vn -0.4039 0.0098 -0.9147
vn -0.3642 0.0155 -0.9312
vn -0.0294 0.9996 -0.0050
vn -0.0339 0.9960 -0.0822
vn 0.0091 0.1186 0.9929
vn 0.0064 0.1086 0.9941
vn 0.0144 0.1097 0.9939
vn 0.0135 0.1204 0.9926
vn -0.3648 0.0195 -0.9309
vn -0.3675 0.0189 -0.9298
vn -0.3666 0.0191 -0.9302
vn -0.3639 0.0197 -0.9312
vn -0.0003 -0.9983 0.0591
vn 0.0035 -0.9991 0.0414
vn -0.0062 -0.9992 0.0398
vn -0.0238 0.6377 0.7699
vn -0.0339 0.8004 0.5985
vn -0.1537 0.9737 0.1681
vn 0.0521 0.9905 0.1275
vn -0.0079 -0.6572 0.7537
vn -0.0089 -0.6160 0.7877
vn 0.0179 0.9966 -0.0807
vn 0.0169 0.9949 -0.0992
vn 0.0047 -0.0374 -0.9993
vn 0.0047 -0.0371 -0.9993
vn 0.0055 -0.0405 -0.9992
vn 0.0015 -0.0373 -0.9993
vn -0.0162 -0.9954 0.0940
vn -0.0163 -0.9956 0.0922
vn -0.0162 -0.9955 0.0933
vn -0.0161 -0.9953 0.0956
vn 0.0058 -0.9957 0.0929
vn 0.0059 -0.9954 0.0956
vn 0.0058 -0.9955 0.0943
vn 0.0057 -0.9958 0.0918
vn -0.0058 0.9952 -0.0977
vn -0.0059 0.9951 -0.0990
vn -0.0056 0.9954 -0.0957
vn -0.0055 0.9955 -0.0942
vn -0.0029 0.7457 0.6663
vn -0.0028 0.7493 0.6622
vn -0.0028 0.7479 0.6638
vn -0.0029 0.7442 0.6679
vn 0.0217 0.5782 0.8156
vn 0.0206 0.7493 0.6619
vn -0.0014 0.8020 0.5973
vn 0.0051 0.6494 0.7604
vn -0.0098 -0.0939 -0.9955
vn -0.0133 -0.0938 -0.9955
vn -0.0097 -0.0904 -0.9959
vn 0.9999 -0.0047 -0.0093
vn 1.0000 0.0004 -0.0083
vn 1.0000 0.0003 -0.0081
vn 0.9999 -0.0054 -0.0095
vn 0.7890 -0.6134 -0.0349
vn 0.6105 0.7892 -0.0675
vn -0.6105 -0.7891 0.0675
vn 0.2287 -0.9734 -0.0155
vn -0.2287 0.9734 0.0155
vn 0.0206 0.1062 0.9941
vn 0.3769 -0.9234 -0.0727
vn -0.1091 0.9918 -0.0667
vn -0.9828 -0.1170 -0.1429
vn 0.0912 -0.0412 0.9950
vn -0.0563 0.1339 0.9894
vn -0.3770 0.9234 0.0727
vn -0.2448 0.9589 -0.1437
vn -0.9349 -0.2166 -0.2812
vn -0.7890 0.6134 0.0351
vn 0.4544 -0.8867 0.0853
vn 0.9350 0.2165 0.2810
vn -0.1469 -0.0411 0.9883
vn 0.0098 0.1394 0.9902
vn 0.9679 0.2503 0.0212
vn 0.9217 0.3818 -0.0687
vn -0.8906 -0.4500 0.0665
vn -0.1065 0.9912 -0.0790
vn 0.0195 0.0693 0.9974
vn 0.8905 0.4500 -0.0665
vn 0.2202 0.9656 -0.1381
vn 0.9828 0.1170 0.1430
vn -0.9218 -0.3816 0.0686
vn 0.9938 0.1075 -0.0269
vn 0.1065 -0.9912 0.0790
vn 0.1092 -0.9918 0.0668
vn 0.9754 -0.2192 0.0213
vn 0.2448 -0.9589 0.1437
vn -0.9679 -0.2503 -0.0212
vn -0.2202 -0.9656 0.1381
vn 0.0588 0.0278 0.9979
vn -0.4544 0.8867 -0.0853
vn -0.1509 0.0625 0.9866
vn -0.9938 -0.1077 0.0270
vn -0.9754 0.2194 -0.0213
g Fence_1_Fence_1_Collor_Material
usemtl Collor_Material
s off
f 1/1/1 3/2/2 4/3/3
f 8/4/4 7/5/4 5/6/4
f 10/7/5 9/8/5 1/9/5
f 4/10/6 3/11/6 11/12/6
f 5/13/7 9/14/7 10/15/7
f 12/16/8 18/17/8 14/18/8
f 6/19/9 15/20/10 16/21/11
f 6/22/12 10/23/12 17/24/12
f 2/25/13 4/26/14 14/27/15
f 2/28/16 13/29/16 17/30/16
f 18/31/17 17/32/18 14/33/19
f 14/34/20 17/35/20 13/36/20
f 32/37/21 35/38/21 31/39/21
f 20/40/22 19/41/22 21/42/22
f 25/43/23 23/44/23 24/45/23
f 27/46/24 19/47/24 20/48/24
f 24/49/25 23/50/25 27/51/25
f 22/52/26 30/53/26 36/54/26
f 26/55/27 24/56/27 33/57/27
f 28/58/28 35/59/28 33/60/28
f 22/61/29 32/62/29 31/63/29
f 28/64/30 20/65/30 31/66/30
f 16/67/31 15/68/31 17/69/32 18/70/33
f 30/71/34 22/72/34 21/73/34 29/74/35
f 33/75/36 36/76/36 34/77/36
f 44/78/37 64/79/38 63/80/37
f 49/81/39 52/82/39 37/83/39 39/84/40
f 50/85/41 49/86/41 39/87/42
f 37/88/43 52/89/43 51/90/43
f 58/91/44 57/92/45 43/93/46
f 41/94/47 60/95/48 59/96/49
f 54/97/50 53/98/50 38/99/50
f 40/100/51 56/101/51 55/102/51
f 62/103/52 61/104/53 42/105/54
f 1/106/55 4/107/56 2/108/57
f 45/109/58 46/110/59 43/111/60 41/112/61
f 8/113/62 5/114/62 6/115/62
f 10/116/63 1/117/63 2/118/63
f 4/119/64 11/120/64 12/121/64
f 5/122/65 10/123/65 6/124/65
f 12/125/66 14/126/66 4/127/66
f 57/128/67 67/129/67 65/130/68 60/131/69
f 6/132/70 16/133/71 8/134/72
f 6/135/73 17/136/73 15/137/73
f 2/138/74 14/139/75 13/140/76
f 2/141/77 17/142/77 10/143/77
f 20/144/78 21/145/78 22/146/78
f 69/147/79 70/148/79 51/149/80 52/150/80
f 25/151/81 24/152/81 26/153/81
f 27/154/82 20/155/82 28/156/82
f 44/157/83 42/158/84 61/159/85 64/160/86
f 24/161/87 27/162/87 28/163/87
f 22/164/88 36/165/88 32/166/88
f 65/167/89 66/168/90 59/169/91 60/170/91
f 26/171/92 33/172/92 34/173/92
f 28/174/93 33/175/93 24/176/93
f 22/177/94 31/178/94 20/179/94
f 28/180/95 31/181/95 35/182/95
f 47/183/96 48/184/97 39/185/98 37/186/98
f 66/187/99 45/188/100 41/189/101 59/190/102
f 16/191/103 18/192/104 12/193/105 8/194/106
f 63/195/107 68/196/108 46/197/109 44/198/109
f 65/199/110 61/200/111 62/201/112 66/202/113
f 49/203/114 71/204/115 69/205/116 52/206/117
f 67/207/118 64/208/119 61/209/120 65/210/120
f 36/211/121 30/212/121 26/213/122 34/214/122
f 26/215/123 30/216/123 29/217/124 25/218/124
f 68/219/125 58/220/125 43/221/126 46/222/126
f 56/223/127 53/224/128 69/225/129 71/226/130
f 8/227/131 12/228/132 11/229/133 7/230/134
f 62/231/135 42/232/135 45/233/136 66/234/137
f 67/235/138 57/236/138 58/237/139 68/238/139
f 33/239/140 35/240/141 32/241/141 36/242/140
f 38/243/50 53/244/50 56/245/50 40/246/50
f 69/247/142 53/248/142 54/249/143 70/250/143
f 72/251/144 50/252/144 39/253/145 48/254/145
f 42/255/146 44/256/147 46/257/148 45/258/149
f 54/259/150 38/260/151 47/261/152 70/262/153
f 70/263/154 47/264/155 37/265/156 51/266/157
f 55/267/158 72/268/159 48/269/160 40/270/161
f 71/271/162 72/272/163 55/273/164 56/274/165
f 71/275/166 49/276/166 50/277/167 72/278/167
f 64/279/168 67/280/168 68/281/169 63/282/169
f 38/283/170 40/284/170 48/285/171 47/286/172
f 57/287/173 60/288/174 41/289/175 43/290/176
f 90/291/177 94/292/177 96/293/177 92/294/177
f 90/295/178 89/296/178 93/297/178 94/298/178
f 95/299/179 91/300/179 92/301/179 96/302/179
f 104/303/180 103/304/180 99/305/180 100/306/180
f 97/307/181 101/308/181 102/309/181 98/310/181
f 125/311/182 127/312/182 128/313/182 126/314/182
f 112/315/183 108/316/183 106/317/183 110/318/183
f 74/319/184 73/320/184 77/321/184 78/322/184
f 85/323/185 81/324/185 83/325/185 87/326/185
f 109/327/186 111/328/186 112/329/186 110/330/186
f 133/331/187 135/332/187 136/333/187 134/334/187
f 109/335/188 105/336/188 107/337/188 111/338/188
f 133/339/189 129/340/189 131/341/189 135/342/189
f 101/343/190 97/344/190 99/345/190 103/346/190
f 89/347/191 91/348/191 95/349/191 93/350/191
f 123/351/192 124/352/192 128/353/192 127/354/192
f 102/355/193 104/356/193 100/357/193 98/358/193
f 103/359/194 104/360/194 102/361/194 101/362/194
f 117/363/195 119/364/195 120/365/195 118/366/195
f 129/367/196 133/368/196 134/369/196 130/370/196
f 109/371/197 110/372/197 106/373/197 105/374/197
f 123/375/198 127/376/198 125/377/198 121/378/198
f 81/379/199 85/380/199 86/381/199 82/382/199
f 77/383/200 79/384/200 80/385/200 78/386/200
f 122/387/201 126/388/201 128/389/201 124/390/201
f 117/391/202 113/392/202 115/393/202 119/394/202
f 88/395/203 84/396/203 82/397/203 86/398/203
f 112/399/204 111/400/204 107/401/204 108/402/204
f 80/403/205 76/404/205 74/405/205 78/406/205
f 83/407/206 84/408/206 88/409/206 87/410/206
f 75/411/207 76/412/207 80/413/207 79/414/207
f 114/415/208 113/416/208 117/417/208 118/418/208
f 134/419/209 136/420/209 132/421/209 130/422/209
f 131/423/210 132/424/210 136/425/210 135/426/210
f 118/427/211 120/428/211 116/429/211 114/430/211
f 93/431/212 95/432/212 96/433/212 94/434/212
f 122/435/213 121/436/213 125/437/213 126/438/213
f 87/439/214 88/440/214 86/441/214 85/442/214
f 77/443/215 73/444/215 75/445/215 79/446/215
f 119/447/216 115/448/216 116/449/216 120/450/216
