# Blender v3.0.0 OBJ File: 'aa.blend'
# www.blender.org
mtllib Fence_2.mtl
o Fence_2
v -0.064323 -0.000000 -0.018078
v -0.056140 0.431645 -0.027415
v -0.064037 -0.000000 -0.100333
v -0.059101 0.246811 -0.097126
v 0.076855 -0.000000 -0.018585
v 0.064366 0.489453 -0.030684
v 0.078309 -0.000000 -0.100328
v 0.070328 0.338960 -0.096223
v 0.006981 0.000000 0.011508
v 0.006669 0.237549 0.005280
v 0.006752 -0.000000 -0.128221
v 0.006642 0.338960 -0.121335
v -0.051574 0.911827 -0.055482
v -0.051708 0.938333 -0.114006
v 0.045575 0.919900 -0.055810
v 0.044469 0.938344 -0.113342
v -0.003448 0.938264 -0.040077
v -0.003162 0.938356 -0.131586
v 1.648587 -0.000000 -0.019188
v 1.653508 0.466906 -0.027971
v 1.646580 -0.000000 -0.100666
v 1.654591 0.574743 -0.097226
v 1.786229 -0.000000 -0.020353
v 1.776810 0.433040 -0.027282
v 1.790967 -0.000000 -0.099931
v 1.781716 0.520830 -0.094786
v 1.718976 0.000000 0.014273
v 1.716550 0.580141 0.002127
v 1.718571 -0.000000 -0.128172
v 1.718953 0.521064 -0.122365
v 1.651208 0.900707 -0.019003
v 1.658780 0.933620 -0.071061
v 1.752080 0.918989 -0.000164
v 1.766457 0.939263 -0.059540
v 1.697491 0.925019 0.011953
v 1.720441 0.938829 -0.086643
v -0.165702 0.647028 -0.033075
v 1.903744 0.653566 0.002619
v -0.164886 0.858923 -0.052997
v 1.903767 0.876202 -0.021696
v -0.135639 0.338743 -0.044801
v 1.889287 0.360047 -0.026347
v -0.135646 0.550673 -0.052718
v 1.889283 0.525356 -0.033416
v 0.527413 0.336520 -0.035400
v 0.537388 0.528776 -0.042974
v 1.129712 0.664530 -0.008644
v 1.129670 0.825154 -0.028218
v -0.167575 0.862855 -0.001621
v -0.166763 0.651707 0.018351
v 1.902100 0.678037 0.076331
v 1.902554 0.658157 0.055847
v 1.902611 0.880459 0.034766
v 1.902154 0.865068 0.052405
v -0.137100 0.524269 0.018844
v -0.136821 0.550836 -0.003327
v -0.136764 0.340317 0.006880
v -0.137153 0.359832 0.025899
v 1.887753 0.399739 0.044813
v 1.888150 0.362575 0.023637
v 1.888402 0.525309 0.005108
v 1.887776 0.493585 0.038529
v 0.524941 0.357720 0.024707
v 0.524983 0.337978 0.010249
v 0.533845 0.518479 0.011829
v 0.535573 0.531614 -0.006981
v 1.128014 0.682223 0.066839
v 1.128358 0.668926 0.053824
v 1.128117 0.822204 0.043659
v 1.128331 0.830265 0.031915
v 0.048970 0.852922 -0.050089
v 0.048936 0.650262 -0.027864
v 0.047803 0.856598 0.002683
v 0.047539 0.829046 0.021119
v 0.047803 0.654661 0.023951
v 0.047272 0.673764 0.044381
v -0.113113 0.756744 -0.051884
v -0.111492 0.705996 -0.031886
v -0.112430 0.751469 0.024178
v -0.112972 0.711589 0.032876
v -0.030822 0.721635 0.013835
v -0.005172 0.736867 0.012672
v -0.015544 0.696057 0.015789
v 0.010110 0.711289 0.014625
v -0.030822 0.723753 0.041568
v -0.005172 0.738985 0.040405
v -0.015544 0.698175 0.043521
v 0.010110 0.713407 0.042358
v -0.016384 0.805200 0.002359
v 0.010880 0.793776 0.006561
v -0.027881 0.777649 0.002077
v -0.000617 0.766225 0.006279
v -0.020091 0.806468 0.029894
v 0.007172 0.795044 0.034096
v -0.031593 0.778917 0.029612
v -0.004333 0.767493 0.033815
v -0.014011 0.428266 -0.001146
v 0.009545 0.409957 -0.002309
v -0.032234 0.404698 0.000807
v -0.008682 0.386388 -0.000356
v -0.012035 0.429040 0.026586
v 0.011517 0.410731 0.025423
v -0.030258 0.405472 0.028540
v -0.006706 0.387163 0.027377
v -0.006774 0.496005 0.002359
v 0.011872 0.473072 0.006561
v -0.029910 0.477138 0.002077
v -0.011264 0.454205 0.006279
v -0.009448 0.498875 0.022345
v 0.009198 0.475942 0.026547
v -0.032588 0.480007 0.022063
v -0.013942 0.457074 0.026265
v 1.705601 0.429265 0.018259
v 1.734772 0.435174 0.015951
v 1.711690 0.400134 0.020642
v 1.740861 0.406043 0.018333
v 1.707261 0.431873 0.045900
v 1.736436 0.437782 0.043592
v 1.713349 0.402741 0.048283
v 1.742524 0.408651 0.045975
v 1.730912 0.492246 0.010448
v 1.745377 0.466466 0.014650
v 1.704892 0.477605 0.010166
v 1.719357 0.451825 0.014369
v 1.728764 0.495530 0.037984
v 1.743230 0.469750 0.042186
v 1.702748 0.480890 0.037702
v 1.717213 0.455109 0.041904
v 1.702691 0.761438 0.044129
v 1.729073 0.747659 0.041821
v 1.689076 0.734973 0.046512
v 1.715459 0.721193 0.044204
v 1.705617 0.762420 0.071770
v 1.732007 0.748640 0.069462
v 1.692010 0.735955 0.074153
v 1.718392 0.722175 0.071845
v 1.711438 0.826444 0.036319
v 1.725896 0.800664 0.040521
v 1.685414 0.811804 0.036037
v 1.699879 0.786023 0.040239
v 1.709286 0.829729 0.063854
v 1.723752 0.803948 0.068056
v 1.683266 0.815088 0.063572
v 1.697732 0.789308 0.067774
vt 0.912402 0.288866
vt 0.950122 0.176132
vt 0.950122 0.289353
vt 0.786041 0.731303
vt 0.786041 0.890806
vt 0.749490 0.882450
vt 0.460863 0.850797
vt 0.460863 0.965003
vt 0.427082 0.954408
vt 0.115396 0.941617
vt 0.228606 0.908292
vt 0.228606 0.943185
vt 0.340783 0.943182
vt 0.231808 0.909290
vt 0.340783 0.908292
vt 0.905500 0.372819
vt 0.905500 0.649016
vt 0.881928 0.646772
vt 0.935569 0.652218
vt 0.935569 0.861743
vt 0.911153 0.848636
vt 0.462511 0.654132
vt 0.492049 0.448029
vt 0.492049 0.770088
vt 0.359836 0.681308
vt 0.393868 0.448029
vt 0.393868 0.765279
vt 0.597759 0.684875
vt 0.597759 0.918540
vt 0.575771 0.904378
vt 0.095198 0.800759
vt 0.095198 0.830578
vt 0.076632 0.828172
vt 0.071209 0.793627
vt 0.753774 0.242881
vt 0.750262 0.213627
vt 0.776012 0.209046
vt 0.776012 0.251013
vt 0.108581 0.790425
vt 0.071209 0.576942
vt 0.108581 0.576249
vt 0.742724 0.205308
vt 0.779279 0.007176
vt 0.779279 0.205844
vt 0.714720 0.244789
vt 0.500545 0.209355
vt 0.714720 0.209046
vt 0.851692 0.007176
vt 0.851692 0.208439
vt 0.817452 0.202871
vt 0.146478 0.761434
vt 0.179896 0.576249
vt 0.179896 0.799743
vt 0.991536 0.889664
vt 0.966104 0.735494
vt 0.991536 0.731195
vt 0.492049 0.938321
vt 0.466920 0.786647
vt 0.492049 0.773290
vt 0.536538 0.831814
vt 0.568380 0.684875
vt 0.568380 0.883865
vt 0.704416 0.167004
vt 0.630531 0.142291
vt 0.629879 0.117274
vt 0.704416 0.073505
vt 0.633730 0.982249
vt 0.600961 0.973795
vt 0.601379 0.898315
vt 0.633730 0.884989
vt 0.796360 0.767378
vt 0.789243 0.751203
vt 0.796360 0.731303
vt 0.110437 0.845569
vt 0.110437 0.917577
vt 0.037031 0.882059
vt 0.036860 0.863339
vt 0.430409 0.776780
vt 0.452279 0.768481
vt 0.452279 0.810448
vt 0.427955 0.804383
vt 0.341772 0.748513
vt 0.349684 0.727281
vt 0.349684 0.762269
vt 0.795326 0.804422
vt 0.789243 0.781498
vt 0.795326 0.770580
vt 0.341772 0.789308
vt 0.347465 0.765471
vt 0.347465 0.801098
vt 0.356446 0.799844
vt 0.350667 0.774522
vt 0.356446 0.765471
vt 0.339530 0.707295
vt 0.349684 0.686705
vt 0.349684 0.724079
vt 0.355630 0.640303
vt 0.355630 0.683503
vt 0.339530 0.658760
vt 0.352235 0.637101
vt 0.339530 0.539480
vt 0.352235 0.537703
vt 0.026220 0.538491
vt 0.265197 0.537703
vt 0.265197 0.573047
vt 0.001601 0.570178
vt 0.026612 0.843063
vt 0.026612 0.942460
vt 0.001601 0.871019
vt 0.715635 0.054136
vt 0.629388 0.007342
vt 0.715635 0.001601
vt 0.707618 0.141733
vt 0.734284 0.068530
vt 0.734284 0.167004
vt 0.634757 0.683749
vt 0.634757 0.881787
vt 0.600961 0.797721
vt 0.977590 0.274967
vt 0.953324 0.275068
vt 0.953941 0.176946
vt 0.977590 0.176132
vt 0.782481 0.075477
vt 0.814250 0.007176
vt 0.814250 0.231784
vt 0.637959 0.772505
vt 0.671133 0.683749
vt 0.671132 0.881787
vt 0.912402 0.059464
vt 0.944850 0.017448
vt 0.944850 0.172930
vt 0.242431 0.576249
vt 0.242431 0.800857
vt 0.210017 0.685673
vt 0.427955 0.490867
vt 0.459309 0.448029
vt 0.459309 0.765279
vt 0.356648 0.369617
vt 0.001641 0.364099
vt 0.001601 0.289891
vt 0.356648 0.266907
vt 0.268399 0.605889
vt 0.300415 0.537703
vt 0.300415 0.812953
vt 0.962902 0.939404
vt 0.940645 0.742730
vt 0.962902 0.731195
vt 0.909200 0.253197
vt 0.884791 0.033950
vt 0.909200 0.017448
vt 0.781417 0.463021
vt 0.810426 0.372819
vt 0.810426 0.694878
vt 0.001601 0.625515
vt 0.033658 0.576249
vt 0.033657 0.839861
vt 0.626186 0.079251
vt 0.001601 0.089839
vt 0.006180 0.001601
vt 0.626186 0.003370
vt 0.143276 0.576249
vt 0.143276 0.815155
vt 0.111783 0.775248
vt 0.336328 0.537703
vt 0.336328 0.803821
vt 0.303617 0.752312
vt 0.844689 0.651661
vt 0.844689 0.843950
vt 0.813628 0.818545
vt 0.815483 0.653524
vt 0.036860 0.643528
vt 0.068007 0.576249
vt 0.068007 0.842367
vt 0.147519 0.862860
vt 0.146478 0.819737
vt 0.179868 0.802945
vt 0.179868 0.878826
vt 0.978086 0.329721
vt 0.978086 0.350758
vt 0.360511 0.348359
vt 0.359850 0.337583
vt 0.937443 0.372819
vt 0.937443 0.565522
vt 0.908702 0.558787
vt 0.881928 0.721641
vt 0.907951 0.652218
vt 0.907951 0.875713
vt 0.500552 0.733660
vt 0.533336 0.684875
vt 0.533336 0.883865
vt 0.973918 0.014461
vt 0.973918 0.172930
vt 0.948052 0.162569
vt 0.005648 0.167004
vt 0.001601 0.093041
vt 0.626677 0.111811
vt 0.626677 0.154947
vt 0.001685 0.376611
vt 0.497350 0.372819
vt 0.497350 0.444827
vt 0.001601 0.441681
vt 0.398781 0.448212
vt 0.424753 0.448029
vt 0.424753 0.803818
vt 0.397070 0.804045
vt 0.821631 0.647953
vt 0.813628 0.372819
vt 0.845017 0.373493
vt 0.845017 0.648459
vt 0.746288 0.993292
vt 0.728617 0.993540
vt 0.729726 0.373510
vt 0.746288 0.372819
vt 0.714194 0.373028
vt 0.725415 0.372819
vt 0.725415 0.998111
vt 0.705799 0.998334
vt 0.953736 0.372961
vt 0.953736 0.727993
vt 0.945202 0.727876
vt 0.940645 0.372819
vt 0.676440 0.680547
vt 0.600961 0.679967
vt 0.602449 0.376327
vt 0.676440 0.372819
vt 0.246909 0.879884
vt 0.245633 0.576249
vt 0.258131 0.576419
vt 0.258131 0.879901
vt 0.185856 0.879725
vt 0.183098 0.576249
vt 0.206815 0.576431
vt 0.206815 0.880544
vt 0.001649 0.250037
vt 0.001601 0.175828
vt 0.497343 0.170206
vt 0.497343 0.263705
vt 0.001601 0.515411
vt 0.001608 0.450341
vt 0.356634 0.448029
vt 0.356634 0.534501
vt 0.509417 0.680018
vt 0.500552 0.376035
vt 0.597759 0.372819
vt 0.597759 0.681673
vt 0.878726 0.867207
vt 0.865932 0.867230
vt 0.870097 0.372835
vt 0.878726 0.372819
vt 0.702597 0.373094
vt 0.702597 0.998399
vt 0.681641 0.997502
vt 0.679642 0.372819
vt 0.268924 0.841035
vt 0.268399 0.816548
vt 0.461102 0.816155
vt 0.461102 0.847595
vt 0.916759 0.878915
vt 0.916759 0.981624
vt 0.883524 0.972859
vt 0.881928 0.886401
vt 0.981288 0.330357
vt 0.992008 0.329721
vt 0.992008 0.685568
vt 0.985483 0.685886
vt 0.389596 0.770350
vt 0.389596 0.807088
vt 0.365963 0.805488
vt 0.359836 0.768481
vt 0.500635 0.173301
vt 0.739522 0.170206
vt 0.739522 0.205844
vt 0.500545 0.204741
vt 0.535420 0.941539
vt 0.500552 0.944178
vt 0.511837 0.887067
vt 0.535420 0.889004
vt 0.753708 0.727881
vt 0.749490 0.372819
vt 0.778215 0.373052
vt 0.778215 0.728101
vt 0.862730 0.850538
vt 0.862730 0.932085
vt 0.848662 0.937851
vt 0.804526 0.849418
vt 0.721562 0.212936
vt 0.747060 0.209046
vt 0.747060 0.252246
vt 0.717922 0.254970
vt 0.268399 0.853523
vt 0.423880 0.850797
vt 0.423880 0.886018
vt 0.268402 0.884919
vt 0.359851 0.292225
vt 0.359850 0.268371
vt 0.855624 0.266907
vt 0.855624 0.295633
vt 0.862730 0.373024
vt 0.862730 0.846216
vt 0.854472 0.846133
vt 0.848219 0.372819
vt 0.116160 0.902591
vt 0.115396 0.892068
vt 0.423880 0.889220
vt 0.423880 0.905090
vt 0.865022 0.018084
vt 0.881589 0.017448
vt 0.881589 0.326302
vt 0.858932 0.326519
vt 0.855730 0.298835
vt 0.855730 0.326519
vt 0.359850 0.324438
vt 0.359863 0.300172
vt 0.638126 0.885107
vt 0.661813 0.884989
vt 0.661813 0.983463
vt 0.637959 0.983551
vt 0.737490 0.043793
vt 0.718837 0.022300
vt 0.737490 0.001601
vt 0.734370 0.354446
vt 0.743698 0.353960
vt 0.743698 0.367651
vt 0.734370 0.368138
vt 0.683296 0.367652
vt 0.670540 0.367652
vt 0.670540 0.353960
vt 0.683296 0.353960
vt 0.759443 0.367653
vt 0.759443 0.353960
vt 0.768783 0.353993
vt 0.768783 0.367685
vt 0.702455 0.353960
vt 0.715211 0.353960
vt 0.715211 0.367652
vt 0.702455 0.367652
vt 0.542880 0.353960
vt 0.555635 0.353960
vt 0.555635 0.367653
vt 0.542880 0.367653
vt 0.558837 0.353960
vt 0.571593 0.353960
vt 0.571593 0.367652
vt 0.558837 0.367653
vt 0.441124 0.353960
vt 0.441124 0.367652
vt 0.427433 0.367653
vt 0.427431 0.353960
vt 0.718413 0.367651
vt 0.718413 0.353960
vt 0.731168 0.353960
vt 0.731168 0.367651
vt 0.746900 0.353992
vt 0.756240 0.353960
vt 0.756240 0.367651
vt 0.746900 0.367685
vt 0.390438 0.353963
vt 0.390438 0.367654
vt 0.376746 0.367654
vt 0.376747 0.353960
vt 0.393641 0.367653
vt 0.393640 0.353960
vt 0.407334 0.353961
vt 0.407334 0.367653
vt 0.603508 0.353961
vt 0.603508 0.367653
vt 0.590753 0.367652
vt 0.590752 0.353960
vt 0.622668 0.367653
vt 0.622668 0.353960
vt 0.635423 0.353961
vt 0.635423 0.367652
vt 0.580332 0.247991
vt 0.593088 0.247991
vt 0.593088 0.261683
vt 0.580333 0.261684
vt 0.672876 0.261682
vt 0.660120 0.261684
vt 0.660120 0.247991
vt 0.672876 0.247991
vt 0.548417 0.247991
vt 0.561172 0.247991
vt 0.561172 0.261683
vt 0.548417 0.261684
vt 0.718837 0.060686
vt 0.718837 0.046995
vt 0.728164 0.047482
vt 0.728164 0.061174
vt 0.651381 0.367653
vt 0.638625 0.367652
vt 0.638626 0.353960
vt 0.651381 0.353960
vt 0.574795 0.353961
vt 0.587550 0.353960
vt 0.587550 0.367653
vt 0.574795 0.367652
vt 0.596290 0.247993
vt 0.609045 0.247991
vt 0.609045 0.261682
vt 0.596290 0.261684
vt 0.507763 0.367652
vt 0.495007 0.367655
vt 0.495007 0.353960
vt 0.507763 0.353960
vt 0.478114 0.353961
vt 0.491805 0.353960
vt 0.491805 0.367652
vt 0.478114 0.367653
vt 0.529257 0.261684
vt 0.516502 0.261684
vt 0.516502 0.247991
vt 0.529257 0.247991
vt 0.686498 0.367651
vt 0.686498 0.353960
vt 0.699253 0.353960
vt 0.699253 0.367652
vt 0.510965 0.353961
vt 0.523720 0.353960
vt 0.523720 0.367654
vt 0.510965 0.367652
vt 0.577130 0.247992
vt 0.577130 0.261684
vt 0.564374 0.261683
vt 0.564374 0.247991
vt 0.373544 0.353962
vt 0.373544 0.367655
vt 0.359850 0.367652
vt 0.359850 0.353960
vt 0.461220 0.353960
vt 0.474912 0.353960
vt 0.474912 0.367653
vt 0.461220 0.367653
vt 0.513300 0.247993
vt 0.513300 0.261685
vt 0.500545 0.261683
vt 0.500545 0.247991
vt 0.628205 0.247992
vt 0.640960 0.247991
vt 0.640960 0.261684
vt 0.628205 0.261683
vt 0.606710 0.367652
vt 0.606710 0.353960
vt 0.619466 0.353961
vt 0.619466 0.367652
vt 0.654583 0.353960
vt 0.667338 0.353960
vt 0.667338 0.367650
vt 0.654583 0.367652
vt 0.424229 0.353961
vt 0.424229 0.367652
vt 0.410536 0.367651
vt 0.410536 0.353960
vt 0.676078 0.261683
vt 0.676078 0.247991
vt 0.688833 0.247991
vt 0.688833 0.261683
vt 0.692035 0.247992
vt 0.704791 0.247991
vt 0.704791 0.261682
vt 0.692035 0.261683
vt 0.539678 0.353960
vt 0.539678 0.367653
vt 0.526922 0.367653
vt 0.526922 0.353960
vt 0.656918 0.247993
vt 0.656918 0.261684
vt 0.644162 0.261683
vt 0.644162 0.247991
vt 0.444326 0.353960
vt 0.458018 0.353960
vt 0.458018 0.367652
vt 0.444326 0.367653
vt 0.532459 0.247991
vt 0.545215 0.247991
vt 0.545215 0.261684
vt 0.532459 0.261684
vt 0.612247 0.261684
vt 0.612247 0.247991
vt 0.625003 0.247991
vt 0.625003 0.261684
vn -0.9998 0.0200 -0.0035
vn 0.9995 0.0289 0.0114
vn 0.9993 0.0263 0.0254
vn 0.9996 0.0233 0.0178
vn -0.3772 0.0280 0.9257
vn -0.3888 0.0272 0.9209
vn -0.3831 0.0237 0.9234
vn -0.3662 0.0182 -0.9303
vn -0.3675 0.0191 -0.9298
vn -0.3665 0.0194 -0.9302
vn 0.3954 0.0246 0.9182
vn -0.3404 -0.0216 -0.9400
vn 0.9991 0.0423 -0.0044
vn 0.9991 0.0429 -0.0067
vn 0.9990 0.0433 -0.0053
vn 0.3046 0.0659 0.9502
vn -0.9999 0.0101 0.0089
vn -0.9998 0.0084 0.0164
vn -0.9999 0.0110 0.0133
vn -0.3332 0.0582 0.9411
vn -0.9997 0.0084 -0.0236
vn -0.9997 0.0085 -0.0236
vn -0.9995 -0.0292 0.0070
vn -0.9995 -0.0292 0.0069
vn -0.5346 0.7694 0.3497
vn -0.1514 0.9773 -0.1484
vn -0.1500 0.9847 0.0889
vn -0.9996 0.0110 0.0246
vn 0.9980 0.0227 0.0594
vn -0.4292 0.0215 0.9029
vn 0.4576 0.0242 0.8888
vn 0.9908 0.0433 0.1283
vn 0.2150 -0.0159 0.9765
vn -0.9912 0.0211 -0.1308
vn -0.3997 -0.0211 0.9164
vn -0.1045 -0.3675 -0.9241
vn 0.0755 -0.1087 -0.9912
vn -0.9998 0.0003 -0.0211
vn -0.9998 0.0003 -0.0213
vn -0.9997 -0.0049 -0.0223
vn -0.9997 -0.0056 -0.0226
vn 0.9997 0.0061 0.0233
vn 0.9997 0.0044 0.0229
vn 0.9997 0.0054 0.0244
vn -0.0529 0.1480 0.9876
vn -0.0198 0.2133 0.9768
vn -0.0001 1.0000 0.0010
vn 0.1441 0.9894 -0.0180
vn 0.4857 0.8640 0.1328
vn 0.4127 0.8697 0.2709
vn -0.9997 -0.0093 -0.0237
vn -0.9997 -0.0130 -0.0201
vn -0.9996 -0.0074 -0.0277
vn -0.9998 0.0019 -0.0209
vn -0.9998 0.0013 -0.0218
vn -0.9997 0.0009 -0.0228
vn 0.9997 -0.0002 0.0224
vn 0.9997 -0.0014 0.0223
vn 0.9997 -0.0014 0.0231
vn 0.9996 -0.0078 0.0255
vn 0.9998 -0.0058 0.0209
vn 0.9998 -0.0048 0.0170
vn 0.9997 -0.0023 0.0229
vn 0.9997 -0.0038 0.0232
vn 0.9997 -0.0034 0.0244
vn -0.1740 0.9440 0.2802
vn -0.0078 -0.7305 0.6829
vn -0.0016 -0.7348 0.6783
vn -0.0140 -0.7351 0.6778
vn -0.3565 0.0106 -0.9342
vn -0.3562 0.0106 -0.9343
vn -0.1048 -0.1446 0.9839
vn 0.0135 -0.0041 -0.9999
vn 0.0243 -0.0022 -0.9997
vn -0.9998 0.0188 -0.0074
vn 0.0319 0.9969 -0.0720
vn 0.0255 0.9974 -0.0681
vn 0.0293 0.9971 -0.0703
vn 0.0304 0.9967 -0.0747
vn 0.9995 0.0231 0.0227
vn 0.9992 0.0263 0.0306
vn 0.9989 0.0249 0.0387
vn -0.3876 0.0236 0.9215
vn -0.3938 0.0273 0.9188
vn -0.4003 0.0271 0.9160
vn -0.3675 0.0192 -0.9298
vn -0.3686 0.0188 -0.9294
vn -0.3692 0.0197 -0.9291
vn 0.4205 0.0331 0.9067
vn -0.3211 -0.0197 -0.9468
vn 0.0134 -0.1179 -0.9929
vn 0.0091 -0.1183 -0.9929
vn 0.0125 -0.1118 -0.9936
vn 0.0155 -0.1086 -0.9940
vn 0.9990 0.0432 -0.0063
vn 0.9991 0.0429 -0.0076
vn 0.9990 0.0431 -0.0090
vn 0.3283 0.0693 0.9420
vn -0.9999 0.0144 0.0062
vn -0.9999 0.0099 0.0068
vn -0.9999 0.0107 0.0108
vn -0.3175 0.0567 0.9465
vn -0.9999 0.0139 0.0060
vn 0.0072 -0.0411 -0.9991
vn 0.0103 -0.0402 -0.9991
vn 0.0082 -0.0445 -0.9990
vn 0.0070 -0.0425 -0.9991
vn 0.9954 0.0168 0.0941
vn -0.4551 0.0167 0.8903
vn -0.3023 0.0823 -0.9497
vn -0.2502 0.0733 -0.9654
vn -0.2501 0.0733 -0.9654
vn 0.4782 0.0204 0.8780
vn 0.9998 0.0028 0.0214
vn 0.9998 -0.0009 0.0212
vn 0.9998 0.0001 0.0223
vn 0.9997 0.0022 0.0225
vn -0.0028 0.7253 0.6884
vn 0.0038 0.8197 0.5727
vn 0.0038 0.8197 0.5728
vn 0.9706 0.0152 0.2402
vn 0.3726 -0.0328 0.9274
vn -0.9997 -0.0048 -0.0231
vn -0.5355 -0.0536 0.8428
vn -0.0181 0.0707 0.9973
vn -0.0172 0.0808 0.9966
vn -0.0175 0.0770 0.9969
vn -0.0184 0.0668 0.9976
vn -0.0134 0.1628 0.9866
vn -0.0197 0.1482 0.9888
vn -0.0218 0.1633 0.9863
vn -0.0305 0.1660 0.9857
vn -0.0644 0.9945 -0.0832
vn -0.0650 0.9950 -0.0764
vn -0.0647 0.9948 -0.0791
vn -0.0641 0.9942 -0.0859
vn 0.3643 -0.0106 -0.9312
vn 0.3668 -0.0107 -0.9302
vn 0.3602 -0.0103 -0.9328
vn 0.3577 -0.0101 -0.9338
vn 0.0025 1.0000 0.0013
vn 0.0053 0.9969 -0.0783
vn 0.0744 -0.5883 0.8052
vn 0.0031 -0.5295 0.8483
vn 0.0022 -0.4951 0.8689
vn 0.0024 -0.4950 0.8689
vn -0.0125 -0.6996 0.7144
vn -0.0272 -0.6999 0.7137
vn -0.0018 -0.7027 0.7115
vn -0.0118 -0.7177 0.6963
vn 0.0019 0.0429 0.9991
vn 0.0019 0.0428 0.9991
vn 0.0111 0.0793 0.9968
vn 0.0111 0.0792 0.9968
vn -0.0727 -0.6969 0.7135
vn -0.0009 -0.6979 0.7162
vn -0.0062 -0.5909 0.8067
vn -0.0050 -0.6484 0.7612
vn -0.0037 -0.9995 0.0307
vn -0.0037 -0.9995 0.0310
vn -0.0038 -0.9995 0.0316
vn 0.0201 -0.1126 -0.9934
vn 0.0228 -0.1194 -0.9926
vn 0.0187 -0.1178 -0.9929
vn 0.0173 -0.1090 -0.9939
vn -0.0229 0.1495 0.9885
vn -0.0043 0.1523 0.9883
vn -0.0182 0.1269 0.9917
vn -0.0182 0.1269 0.9918
vn 0.0129 -0.0354 -0.9993
vn 0.0141 -0.0372 -0.9992
vn 0.0134 -0.0394 -0.9991
vn 0.0102 -0.0397 -0.9992
vn -0.0029 -0.7230 0.6908
vn -0.0156 -0.7225 0.6912
vn -0.0208 -0.7111 0.7028
vn 0.0053 -0.7077 0.7065
vn 0.0177 -0.9993 0.0329
vn 0.0178 -0.9993 0.0329
vn 0.0169 -0.9986 0.0509
vn 0.5048 0.0907 -0.8585
vn 0.4013 0.0766 -0.9127
vn 0.4014 0.0766 -0.9127
vn 0.9997 0.0013 0.0224
vn 0.9998 -0.0026 0.0213
vn 0.9998 -0.0015 0.0211
vn 0.9998 0.0011 0.0216
vn -0.0512 0.7531 0.6559
vn -0.0520 0.8238 0.5645
vn -0.7332 0.6758 -0.0764
vn -0.7332 0.6757 -0.0765
vn -0.7328 0.6763 -0.0754
vn -0.7327 0.6764 -0.0752
vn 0.3634 0.0157 -0.9315
vn 0.4023 0.0099 -0.9155
vn -0.8923 -0.4513 -0.0142
vn -0.8938 -0.4479 -0.0230
vn -0.8936 -0.4484 -0.0217
vn -0.8919 -0.4520 -0.0121
vn -0.0141 -0.9975 0.0699
vn -0.0154 -0.9962 0.0856
vn -0.2468 0.5406 0.8043
vn -0.0131 0.2195 0.9755
vn 0.1455 0.9746 0.1704
vn -0.0516 0.9906 0.1267
vn -0.0517 0.9906 0.1267
vn 0.3632 0.0198 -0.9315
vn 0.3667 0.0190 -0.9302
vn 0.3666 0.0190 -0.9302
vn 0.0095 -0.9969 0.0785
vn 0.0158 -0.9966 0.0811
vn 0.0112 -0.9975 0.0704
vn -0.0066 0.8245 0.5659
vn -0.0046 0.8245 0.5659
vn -0.0089 0.5562 0.8310
vn -0.0093 0.5561 0.8310
vn 0.0265 0.8185 0.5740
vn 0.0136 0.6406 0.7678
vn 0.0335 0.9965 -0.0769
vn 0.0286 0.9996 -0.0026
vn 0.0273 0.9961 -0.0840
vn 0.0304 0.9969 -0.0728
vn 0.0270 0.9968 -0.0748
vn 0.0118 -0.9962 0.0864
vn 0.0128 -0.9958 0.0908
vn 0.0080 -0.9957 0.0922
vn 0.0136 -0.9959 0.0897
vn -0.6105 0.7065 0.3579
vn 0.7747 0.6322 0.0129
vn -0.8592 -0.5102 0.0390
vn 0.6188 -0.7617 0.1922
vn -0.9772 -0.1979 0.0773
vn -0.8714 -0.4905 -0.0093
vn 0.8837 -0.4616 -0.0774
vn -0.1335 0.0456 0.9900
vn -0.5117 0.8567 -0.0654
vn -0.6188 0.7617 -0.1922
vn 0.1054 0.0353 0.9938
vn -0.0000 0.0761 0.9971
vn 0.6104 0.7894 -0.0655
vn -0.4844 0.8635 -0.1407
vn 0.9131 -0.3826 0.1407
vn -0.8838 0.4615 0.0773
vn 0.7889 -0.6133 -0.0390
vn -0.7747 -0.6322 -0.0130
vn 0.4844 -0.8635 0.1407
vn 0.8715 0.4904 0.0095
vn -0.6104 -0.7894 0.0655
vn -0.4843 0.8635 -0.1408
vn 0.0709 0.0278 0.9971
vn 0.8714 0.4905 0.0095
vn -0.9132 0.3826 -0.1406
vn 0.4559 0.8864 -0.0798
vn -0.7889 0.6132 0.0391
vn -0.0772 0.1181 0.9900
vn -0.0962 0.1032 0.9900
vn 0.3852 0.9228 0.0094
vn -0.3852 -0.9228 -0.0095
vn 0.2040 -0.9757 0.0798
vn 0.9772 0.1979 -0.0775
vn -0.4560 -0.8864 0.0799
vn -0.8714 -0.4905 -0.0095
vn -0.2040 0.9757 -0.0798
vn 0.0596 0.0938 0.9938
vn 0.8591 0.5103 -0.0390
vn 0.5116 -0.8567 0.0654
g Fence_2_Fence_2_Collor_Material
usemtl Collor_Material
s off
f 1/1/1 4/2/1 3/3/1
f 8/4/2 5/5/3 7/6/4
f 10/7/5 1/8/6 9/9/7
f 4/10/8 11/11/9 3/12/10
f 5/13/11 10/14/11 9/15/11
f 12/16/12 14/17/12 18/18/12
f 6/19/13 16/20/14 15/21/15
f 6/22/16 17/23/16 10/24/16
f 2/25/17 14/26/18 4/27/19
f 2/28/20 17/29/20 13/30/20
f 78/31/21 80/32/22 79/33/23 77/34/24
f 14/35/25 13/36/25 17/37/26 18/38/27
f 20/39/28 21/40/28 19/41/28
f 25/42/29 24/43/29 23/44/29
f 27/45/30 20/46/30 19/47/30
f 24/48/31 27/49/31 23/50/31
f 26/51/32 33/52/32 24/53/32
f 28/54/33 33/55/33 35/56/33
f 22/57/34 31/58/34 32/59/34
f 28/60/35 31/61/35 20/62/35
f 72/63/36 78/64/36 77/65/37 71/66/37
f 41/67/38 58/68/39 55/69/40 43/70/41
f 44/71/42 61/72/43 62/73/44
f 76/74/45 74/75/45 79/76/46 80/77/46
f 16/78/47 18/79/48 17/80/49 15/81/50
f 56/82/51 43/83/52 55/84/53
f 41/85/54 57/86/55 58/87/56
f 52/88/57 38/89/58 51/90/59
f 40/91/60 53/92/61 54/93/62
f 60/94/63 42/95/64 59/96/65
f 36/97/66 33/98/66 34/99/66
f 50/100/67 75/101/68 76/102/69
f 30/103/70 29/104/70 21/105/70 22/106/71
f 50/107/72 76/108/72 80/109/72
f 39/110/73 71/111/73 77/112/73
f 78/113/74 72/114/74 37/115/74
f 1/116/75 2/117/75 4/118/75
f 73/119/76 71/120/77 39/121/78 49/122/79
f 8/123/80 6/124/81 5/125/82
f 10/126/83 2/127/84 1/128/85
f 4/129/86 12/130/87 11/131/88
f 5/132/89 6/133/89 10/134/89
f 12/135/90 4/136/90 14/137/90
f 38/138/91 47/139/92 48/140/93 40/141/94
f 6/142/95 8/143/96 16/144/97
f 6/145/98 15/146/98 17/147/98
f 2/148/99 13/149/100 14/150/101
f 2/151/102 10/152/102 17/153/102
f 20/154/103 22/155/103 21/156/103
f 42/157/104 45/158/105 46/159/106 44/160/107
f 25/161/108 26/162/108 24/163/108
f 27/164/109 28/165/109 20/166/109
f 36/167/110 30/168/110 22/169/111 32/170/112
f 24/171/113 28/172/113 27/173/113
f 62/174/114 59/175/115 42/176/116 44/177/117
f 62/178/118 61/179/118 66/180/119 65/181/120
f 26/182/121 34/183/121 33/184/121
f 28/185/122 24/186/122 33/187/122
f 22/188/123 20/189/123 31/190/123
f 28/191/124 35/192/124 31/193/124
f 65/194/125 63/195/126 59/196/127 62/197/128
f 69/198/129 74/199/130 76/200/131 67/201/132
f 53/202/133 40/203/134 48/204/135 70/205/136
f 16/206/137 8/207/138 12/208/139 18/209/140
f 61/210/141 44/211/141 46/212/142 66/213/142
f 63/214/143 64/215/144 60/216/145 59/217/146
f 51/218/147 67/219/148 68/220/149 52/221/150
f 55/222/151 58/223/152 63/224/153 65/225/154
f 63/226/155 58/227/156 57/228/157 64/229/158
f 64/230/159 57/231/159 41/232/160 45/233/161
f 48/234/162 47/235/163 72/236/164 71/237/165
f 69/238/166 67/239/167 51/240/168 54/241/169
f 45/242/170 41/243/171 43/244/172 46/245/173
f 76/246/174 75/247/175 68/248/176 67/249/177
f 60/250/178 64/251/179 45/252/180 42/253/180
f 36/254/181 34/255/181 26/256/182 30/257/183
f 38/258/184 40/259/185 54/260/186 51/261/187
f 54/262/188 53/263/188 70/264/189 69/265/189
f 78/266/190 37/267/191 50/268/192 80/269/193
f 26/270/194 25/271/194 29/272/195 30/273/195
f 77/274/196 79/275/197 49/276/198 39/277/199
f 52/278/200 68/279/200 47/280/201 38/281/201
f 79/282/202 74/283/202 73/284/203 49/285/203
f 35/286/204 33/287/204 36/288/205 32/289/206
f 8/290/207 7/291/207 11/292/208 12/293/209
f 75/294/210 72/295/211 47/296/212 68/297/212
f 74/298/213 69/299/214 70/300/215 73/301/216
f 65/302/217 66/303/217 56/304/218 55/305/218
f 66/306/219 46/307/219 43/308/220 56/309/220
f 70/310/221 48/311/221 71/312/222 73/313/223
f 50/314/224 37/315/225 72/316/226 75/317/227
f 32/318/228 31/319/228 35/320/228
f 105/321/229 109/322/229 110/323/229 106/324/229
f 83/325/230 87/326/230 85/327/230 81/328/230
f 110/329/231 112/330/231 108/331/231 106/332/231
f 117/333/232 113/334/232 115/335/232 119/336/232
f 127/337/233 123/338/233 124/339/233 128/340/233
f 136/341/234 132/342/234 130/343/234 134/344/234
f 93/345/235 95/346/235 96/347/235 94/348/235
f 85/349/236 86/350/236 82/351/236 81/352/236
f 109/353/237 105/354/237 107/355/237 111/356/237
f 135/357/238 136/358/238 134/359/238 133/360/238
f 87/361/239 88/362/239 86/363/239 85/364/239
f 101/365/240 102/366/240 98/367/240 97/368/240
f 121/369/241 123/370/241 127/371/241 125/372/241
f 96/373/242 92/374/242 90/375/242 94/376/242
f 133/377/243 129/378/243 131/379/243 135/380/243
f 98/381/244 102/382/244 104/383/244 100/384/244
f 112/385/245 111/386/245 107/387/245 108/388/245
f 144/389/246 140/390/246 138/391/246 142/392/246
f 137/393/247 141/394/247 142/395/247 138/396/247
f 103/397/248 99/398/248 100/399/248 104/400/248
f 141/401/249 137/402/249 139/403/249 143/404/249
f 103/405/250 104/406/250 102/407/250 101/408/250
f 121/409/251 125/410/251 126/411/251 122/412/251
f 89/413/252 91/414/252 95/415/252 93/416/252
f 129/417/253 133/418/253 134/419/253 130/420/253
f 97/421/254 99/422/254 103/423/254 101/424/254
f 141/425/255 143/426/255 144/427/255 142/428/255
f 111/429/256 112/430/256 110/431/256 109/432/256
f 93/433/257 94/434/257 90/435/257 89/436/257
f 128/437/246 124/438/246 122/439/246 126/440/246
f 91/441/258 92/442/258 96/443/258 95/444/258
f 119/445/259 115/446/259 116/447/259 120/448/259
f 125/449/255 127/450/255 128/451/255 126/452/255
f 118/453/260 120/454/260 116/455/260 114/456/260
f 135/457/261 131/458/261 132/459/261 136/460/261
f 139/461/262 140/462/262 144/463/262 143/464/262
f 114/465/263 113/466/263 117/467/263 118/468/263
f 117/469/264 119/470/264 120/471/264 118/472/264
f 88/473/265 84/474/265 82/475/265 86/476/265
f 83/477/266 84/478/266 88/479/266 87/480/266
