# Blender v3.0.0 OBJ File: 'aa.blend'
# www.blender.org
mtllib Fence_4.mtl
o Fence_4
v 1.734786 -0.000000 -0.018763
v 1.726832 0.434689 -0.028194
v 1.734515 -0.000000 -0.101837
v 1.729709 0.248023 -0.098599
v 1.597533 -0.000000 -0.019267
v 1.609649 0.493070 -0.031500
v 1.596125 -0.000000 -0.101768
v 1.603814 0.341086 -0.097781
v 1.665442 0.000000 0.011101
v 1.665763 0.238670 0.004825
v 1.665652 -0.000000 -0.130064
v 1.665837 0.341085 -0.122948
v 1.722407 0.919631 -0.056544
v 1.722541 0.946399 -0.115640
v 1.626869 0.933125 -0.056218
v 1.629545 0.943740 -0.115240
v 1.676638 0.940988 -0.041633
v 1.674755 0.949093 -0.133138
v 0.069060 -0.000000 -0.019874
v 0.064315 0.470297 -0.028727
v 0.071067 -0.000000 -0.102194
v 0.063262 0.579206 -0.098683
v -0.064676 -0.000000 -0.021011
v -0.055654 0.436099 -0.028095
v -0.069012 -0.000000 -0.100741
v -0.060074 0.524692 -0.095834
v 0.000628 0.000000 0.013850
v 0.003123 0.584658 0.001661
v 0.000882 -0.000000 -0.130287
v 0.000475 0.525038 -0.124365
v 0.069076 0.916063 -0.017874
v 0.056750 0.933980 -0.074165
v -0.031541 0.930462 0.000137
v -0.045933 0.945610 -0.061748
v 0.020188 0.927321 0.010226
v 0.000385 0.950608 -0.086624
v 1.833360 0.652319 -0.033253
v -0.179019 0.658381 0.001179
v 1.833335 0.865644 -0.054704
v -0.179038 0.883614 -0.021425
v 1.804145 0.340847 -0.045858
v -0.164979 0.338368 -0.026718
v 1.804159 0.554536 -0.053829
v -0.165025 0.552014 -0.034615
v 1.159517 0.338615 -0.036299
v 0.632045 0.420233 -0.040258
v 0.661916 0.684620 -0.017160
v 0.661948 0.849750 -0.037810
v 1.834836 0.837887 0.018951
v 1.834383 0.869048 -0.004083
v 1.834441 0.657014 0.017865
v 1.834873 0.677310 0.037049
v -0.177415 0.683740 0.075372
v -0.177859 0.663422 0.056167
v -0.177874 0.888409 0.034852
v -0.177510 0.872109 0.052913
v 1.805552 0.528479 0.018372
v 1.805291 0.555132 -0.004373
v 1.805238 0.342090 0.006918
v 1.805606 0.362440 0.025360
v -0.163448 0.389727 0.046369
v -0.163805 0.341972 0.022144
v -0.164057 0.552686 0.003569
v -0.163442 0.511208 0.038874
v 1.161637 0.359843 0.024288
v 1.140795 0.340219 0.010024
v 1.152957 0.521953 0.011597
v 1.130786 0.535772 -0.006707
v 0.663547 0.702614 0.058268
v 0.663219 0.688809 0.044624
v 0.663459 0.845316 0.035416
v 0.663247 0.854466 0.022777
v -0.018151 0.743844 0.045635
v 0.011805 0.747088 0.044460
v -0.014833 0.713940 0.047608
v 0.015120 0.717183 0.046433
v -0.017263 0.745790 0.073642
v 0.012694 0.749033 0.072468
v -0.013944 0.715886 0.075615
v 0.016005 0.719129 0.074440
v -0.015580 0.813296 0.033821
v 0.014106 0.816824 0.037770
v -0.012342 0.783410 0.036165
v 0.017344 0.786939 0.040114
v -0.019483 0.815050 0.061582
v 0.010199 0.818579 0.065532
v -0.016244 0.785165 0.063926
v 0.013442 0.788693 0.067876
v -0.004762 0.439365 0.020444
v 0.019034 0.420874 0.019269
v -0.023164 0.415563 0.022417
v 0.000628 0.397072 0.021242
v -0.002767 0.440147 0.044893
v 0.021022 0.421656 0.043718
v -0.021173 0.416345 0.046865
v 0.002616 0.397854 0.045691
v -0.017144 0.500001 0.023984
v 0.011939 0.506749 0.028228
v -0.010286 0.470640 0.023699
v 0.018790 0.477387 0.027943
v -0.020936 0.498846 0.038091
v 0.008147 0.505594 0.042335
v -0.014077 0.469485 0.037807
v 0.015006 0.476233 0.042051
v 1.668021 0.430755 0.000199
v 1.679362 0.402913 -0.002132
v 1.640262 0.419247 0.002606
v 1.651595 0.391405 0.000275
v 1.670920 0.429599 0.028114
v 1.682261 0.401757 0.025783
v 1.643157 0.418090 0.030521
v 1.654494 0.390248 0.028190
v 1.679995 0.499251 -0.001310
v 1.673411 0.470135 0.002933
v 1.650580 0.505865 -0.001595
v 1.643992 0.476749 0.002649
v 1.680606 0.503166 0.026498
v 1.674022 0.474050 0.030742
v 1.651191 0.509780 0.026213
v 1.644603 0.480664 0.030457
v 1.639117 0.730448 0.009064
v 1.665942 0.744015 0.006733
v 1.652850 0.703712 0.011471
v 1.679675 0.717279 0.009140
v 1.640036 0.733431 0.036980
v 1.666858 0.746999 0.034649
v 1.653766 0.706695 0.039386
v 1.680591 0.720263 0.037055
v 1.675174 0.830997 0.001177
v 1.682608 0.802085 0.005420
v 1.645984 0.823451 0.000892
v 1.653415 0.794539 0.005136
v 1.673930 0.834759 0.028985
v 1.681361 0.805848 0.033229
v 1.644736 0.827213 0.028700
v 1.652171 0.798301 0.032944
v 1.149477 0.533182 -0.043717
v 0.637607 0.218019 -0.032594
v 0.639081 0.250937 0.031965
v 0.658236 0.220034 0.015223
v 0.633790 0.397237 0.021600
v 0.651695 0.421308 -0.002566
v -0.164955 0.419792 -0.029740
v -0.163440 0.435939 0.043198
v 0.599557 0.294691 -0.035009
v 0.602905 0.306810 0.029554
v 0.618553 0.296324 0.007976
v 1.804151 0.447877 -0.049599
v 1.130473 0.467423 -0.039918
v 1.805580 0.445214 0.022342
v 1.133565 0.472876 0.017227
v 1.111347 0.469888 0.002360
vt 0.377751 0.715547
vt 0.377751 0.750779
vt 0.272547 0.749412
vt 0.306658 0.426521
vt 0.272553 0.285899
vt 0.306658 0.278063
vt 0.779299 0.488439
vt 0.748669 0.391930
vt 0.779299 0.382600
vt 0.675026 0.392620
vt 0.675026 0.497833
vt 0.643466 0.497424
vt 0.373795 0.753832
vt 0.373795 0.785380
vt 0.272547 0.784418
vt 0.237924 0.814503
vt 0.495578 0.802935
vt 0.495578 0.824547
vt 0.706306 0.495439
vt 0.682507 0.309898
vt 0.706306 0.300859
vt 0.800129 0.109817
vt 0.826906 0.001527
vt 0.826906 0.300061
vt 0.682507 0.079947
vt 0.714290 0.001527
vt 0.714290 0.297806
vt 0.142270 0.866712
vt 0.122698 0.661624
vt 0.142270 0.650866
vt 0.357628 0.337601
vt 0.357628 0.376707
vt 0.342075 0.357925
vt 0.272553 0.459616
vt 0.472013 0.455912
vt 0.472013 0.490834
vt 0.745616 0.488439
vt 0.712221 0.482830
vt 0.745616 0.300859
vt 0.201021 0.615459
vt 0.201021 0.647813
vt 0.001527 0.647668
vt 0.272547 0.617420
vt 0.457546 0.615459
vt 0.457546 0.646853
vt 0.064947 0.674705
vt 0.093002 0.650866
vt 0.093002 0.832056
vt 0.647998 0.566821
vt 0.679033 0.531082
vt 0.679033 0.741328
vt 0.193575 0.798255
vt 0.171465 0.654398
vt 0.193575 0.650866
vt 0.597900 0.346196
vt 0.597900 0.497037
vt 0.573028 0.491008
vt 0.001527 0.699386
vt 0.030469 0.650866
vt 0.030469 0.839979
vt 0.400230 0.797894
vt 0.380804 0.769129
vt 0.400230 0.766207
vt 0.612974 0.343143
vt 0.581315 0.338666
vt 0.573028 0.009136
vt 0.612974 0.001527
vt 0.830844 0.754301
vt 0.830844 0.794428
vt 0.815979 0.777675
vt 0.790464 0.415037
vt 0.790464 0.450692
vt 0.782352 0.429061
vt 0.648821 0.820469
vt 0.647998 0.751943
vt 0.678730 0.744381
vt 0.678730 0.835306
vt 0.600953 0.446369
vt 0.609875 0.432567
vt 0.609875 0.465954
vt 0.737128 0.743369
vt 0.737128 0.775018
vt 0.731743 0.764468
vt 0.782352 0.466655
vt 0.789711 0.453745
vt 0.789711 0.486303
vt 0.649456 0.354292
vt 0.649456 0.385859
vt 0.643466 0.375869
vt 0.403283 0.776702
vt 0.408802 0.766207
vt 0.408802 0.799465
vt 0.792614 0.788591
vt 0.792614 0.820498
vt 0.786954 0.811871
vt 0.789717 0.785537
vt 0.767555 0.782342
vt 0.764322 0.743369
vt 0.789717 0.745411
vt 0.797076 0.011891
vt 0.797076 0.357336
vt 0.774636 0.353853
vt 0.783631 0.001527
vt 0.269494 0.799882
vt 0.237924 0.693966
vt 0.269494 0.615459
vt 0.358278 0.095505
vt 0.358278 0.191504
vt 0.001527 0.177879
vt 0.001581 0.107303
vt 0.707529 0.676537
vt 0.737242 0.531082
vt 0.737242 0.740316
vt 0.460599 0.716955
vt 0.490610 0.615459
vt 0.490610 0.799882
vt 0.309711 0.383517
vt 0.339022 0.278063
vt 0.339022 0.422746
vt 0.793673 0.740316
vt 0.764322 0.638703
vt 0.793673 0.531082
vt 0.717343 0.257823
vt 0.745616 0.001527
vt 0.745616 0.297806
vt 0.114423 0.285405
vt 0.135698 0.278063
vt 0.135698 0.563309
vt 0.100377 0.561838
vt 0.173864 0.470322
vt 0.203828 0.278063
vt 0.203828 0.533983
vt 0.821470 0.303114
vt 0.821470 0.495234
vt 0.800129 0.488953
vt 0.838771 0.531082
vt 0.838771 0.751248
vt 0.815979 0.735838
vt 0.501445 0.745353
vt 0.527468 0.531082
vt 0.527468 0.829616
vt 0.206882 0.477717
vt 0.236829 0.278063
vt 0.236829 0.523726
vt 0.358276 0.275009
vt 0.001570 0.266430
vt 0.001527 0.205140
vt 0.358276 0.194558
vt 0.644945 0.753642
vt 0.615759 0.568346
vt 0.644945 0.531082
vt 0.269500 0.526068
vt 0.239882 0.326172
vt 0.269500 0.278063
vt 0.450914 0.441813
vt 0.419744 0.436110
vt 0.420400 0.404143
vt 0.450914 0.385701
vt 0.561955 0.716254
vt 0.590276 0.531082
vt 0.590276 0.779087
vt 0.168412 0.650866
vt 0.168412 0.810698
vt 0.145323 0.799930
vt 0.497855 0.490067
vt 0.475816 0.486452
vt 0.477741 0.459007
vt 0.497855 0.451100
vt 0.272547 0.651225
vt 0.449787 0.649906
vt 0.449787 0.677607
vt 0.096055 0.796355
vt 0.119645 0.650866
vt 0.119645 0.861112
vt 0.204074 0.759127
vt 0.234871 0.615459
vt 0.234871 0.804572
vt 0.640413 0.354292
vt 0.640413 0.497833
vt 0.616027 0.497780
vt 0.538330 0.533760
vt 0.558902 0.531082
vt 0.558902 0.788997
vt 0.530521 0.789561
vt 0.561032 0.838032
vt 0.530575 0.835838
vt 0.530521 0.800711
vt 0.561032 0.792614
vt 0.569975 0.001875
vt 0.569975 0.498708
vt 0.508686 0.498423
vt 0.501445 0.001527
vt 0.812926 0.531325
vt 0.812925 0.881744
vt 0.796783 0.873708
vt 0.796726 0.531082
vt 0.870050 0.531253
vt 0.870050 0.888276
vt 0.859736 0.887952
vt 0.863434 0.531082
vt 0.001527 0.079446
vt 0.001573 0.008870
vt 0.498392 0.001527
vt 0.498392 0.092452
vt 0.477591 0.596658
vt 0.477591 0.612406
vt 0.001550 0.606721
vt 0.001527 0.598411
vt 0.342075 0.328748
vt 0.342993 0.279274
vt 0.354336 0.278063
vt 0.354336 0.334548
vt 0.497855 0.447950
vt 0.477071 0.448047
vt 0.477394 0.103864
vt 0.497855 0.095505
vt 0.656031 0.001576
vt 0.679454 0.001527
vt 0.679454 0.358416
vt 0.653185 0.358453
vt 0.829959 0.327848
vt 0.850738 0.001527
vt 0.850738 0.346982
vt 0.998473 0.501761
vt 0.998473 0.528029
vt 0.501445 0.525313
vt 0.501458 0.503538
vt 0.728690 0.744661
vt 0.728690 0.801147
vt 0.709064 0.799367
vt 0.707529 0.743369
vt 0.234871 0.807625
vt 0.234871 0.842180
vt 0.214101 0.841422
vt 0.203083 0.821564
vt 0.884748 0.531082
vt 0.884748 0.804221
vt 0.873103 0.803928
vt 0.756367 0.007476
vt 0.771583 0.001527
vt 0.771582 0.351948
vt 0.748669 0.349006
vt 0.887801 0.808009
vt 0.897665 0.531082
vt 0.897665 0.817266
vt 0.880416 0.358339
vt 0.868559 0.358555
vt 0.872185 0.001679
vt 0.880416 0.001527
vt 0.272686 0.523387
vt 0.272553 0.495000
vt 0.495230 0.493887
vt 0.495230 0.526068
vt 0.856927 0.493193
vt 0.853791 0.001527
vt 0.865506 0.001685
vt 0.865506 0.493292
vt 0.138751 0.538931
vt 0.495789 0.537531
vt 0.495789 0.563309
vt 0.138776 0.562890
vt 0.498382 0.593605
vt 0.001545 0.593344
vt 0.001527 0.571823
vt 0.498382 0.567827
vt 0.061894 0.832055
vt 0.033522 0.831134
vt 0.039527 0.652042
vt 0.061894 0.650866
vt 0.049021 0.279529
vt 0.049021 0.564774
vt 0.001527 0.550886
vt 0.013924 0.278063
vt 0.069174 0.556645
vt 0.052074 0.279345
vt 0.097324 0.278063
vt 0.097324 0.563915
vt 0.272547 0.710111
vt 0.272547 0.681725
vt 0.417226 0.680660
vt 0.417226 0.712494
vt 0.419744 0.109378
vt 0.474018 0.095505
vt 0.474018 0.381356
vt 0.428618 0.382648
vt 0.612201 0.346196
vt 0.612201 0.389862
vt 0.600953 0.350784
vt 0.610878 0.497254
vt 0.600953 0.476010
vt 0.610878 0.469007
vt 0.684856 0.804842
vt 0.682086 0.531442
vt 0.704476 0.531082
vt 0.704476 0.812872
vt 0.570883 0.813740
vt 0.568917 0.788358
vt 0.590276 0.782140
vt 0.590276 0.821106
vt 0.783900 0.817664
vt 0.764322 0.819915
vt 0.766398 0.790604
vt 0.783900 0.788591
vt 0.616027 0.007084
vt 0.650132 0.001527
vt 0.650132 0.330070
vt 0.620626 0.351239
vt 0.141808 0.300739
vt 0.170810 0.278063
vt 0.170810 0.523726
vt 0.138751 0.523397
vt 0.637551 0.760389
vt 0.637551 0.796704
vt 0.617913 0.793230
vt 0.615759 0.756695
vt 0.455883 0.386970
vt 0.473870 0.385701
vt 0.473870 0.440719
vt 0.453967 0.441977
vt 0.784287 0.408973
vt 0.782352 0.386550
vt 0.795291 0.382600
vt 0.795291 0.411984
vt 0.381088 0.750898
vt 0.380804 0.715547
vt 0.411251 0.717885
vt 0.411251 0.763153
vt 0.361331 0.104666
vt 0.416691 0.095505
vt 0.416691 0.438134
vt 0.361871 0.433210
vt 0.452668 0.776659
vt 0.420279 0.769101
vt 0.421780 0.688663
vt 0.452668 0.680660
vt 0.761269 0.817254
vt 0.740296 0.816698
vt 0.745491 0.538920
vt 0.761269 0.531082
vt 0.612706 0.531082
vt 0.612706 0.860716
vt 0.593329 0.857487
vt 0.883469 0.010361
vt 0.893761 0.001527
vt 0.893762 0.283315
vt 0.856683 0.531082
vt 0.856683 0.807875
vt 0.841824 0.807777
vt 0.357628 0.379760
vt 0.357628 0.434779
vt 0.347237 0.422171
vt 0.600953 0.407640
vt 0.609399 0.392915
vt 0.609399 0.429513
vt 0.824524 0.450767
vt 0.834931 0.450669
vt 0.834931 0.463456
vt 0.824524 0.463554
vt 0.824524 0.447558
vt 0.824524 0.434768
vt 0.834931 0.434828
vt 0.834931 0.447616
vt 0.678758 0.373171
vt 0.678758 0.385958
vt 0.668350 0.385859
vt 0.668350 0.373071
vt 0.770670 0.367790
vt 0.764510 0.368609
vt 0.764510 0.355820
vt 0.770670 0.355001
vt 0.451086 0.792501
vt 0.451086 0.779712
vt 0.457246 0.780531
vt 0.457246 0.793317
vt 0.824524 0.495234
vt 0.824524 0.482447
vt 0.836436 0.482448
vt 0.836436 0.495233
vt 0.186430 0.813221
vt 0.186430 0.801308
vt 0.199218 0.801309
vt 0.199218 0.813221
vt 0.786548 0.360390
vt 0.786548 0.373178
vt 0.774636 0.373178
vt 0.774636 0.360389
vt 0.764322 0.835755
vt 0.764322 0.822968
vt 0.776235 0.822969
vt 0.776235 0.835755
vt 0.748670 0.355002
vt 0.761457 0.355001
vt 0.761457 0.367788
vt 0.748669 0.367788
vt 0.325552 0.438587
vt 0.325552 0.425799
vt 0.338339 0.425800
vt 0.338339 0.438586
vt 0.834931 0.431656
vt 0.824524 0.431715
vt 0.824524 0.418926
vt 0.834931 0.418869
vt 0.643512 0.815598
vt 0.643512 0.827511
vt 0.630725 0.827511
vt 0.630725 0.815598
vt 0.630725 0.799757
vt 0.642637 0.799757
vt 0.642637 0.812544
vt 0.630725 0.812545
vt 0.795815 0.373177
vt 0.789601 0.373231
vt 0.789601 0.360444
vt 0.795815 0.360389
vt 0.734407 0.820041
vt 0.734407 0.832828
vt 0.722495 0.832828
vt 0.722495 0.820041
vt 0.168412 0.813806
vt 0.168412 0.826593
vt 0.162198 0.826538
vt 0.162197 0.813751
vt 0.322499 0.425801
vt 0.322499 0.438590
vt 0.309711 0.438588
vt 0.309711 0.425799
vt 0.652510 0.373072
vt 0.665297 0.373071
vt 0.665297 0.385859
vt 0.652509 0.385859
vt 0.815979 0.797481
vt 0.827891 0.797481
vt 0.827891 0.810268
vt 0.815979 0.810269
vt 0.420279 0.792501
vt 0.420279 0.779712
vt 0.432191 0.779713
vt 0.432191 0.792501
vt 0.145323 0.813751
vt 0.157235 0.813752
vt 0.157235 0.826538
vt 0.145323 0.826539
vt 0.448033 0.779713
vt 0.448033 0.791625
vt 0.435246 0.791625
vt 0.435244 0.779712
vt 0.293870 0.429574
vt 0.306658 0.429576
vt 0.306658 0.442361
vt 0.293871 0.442363
vt 0.707529 0.816988
vt 0.707529 0.804200
vt 0.719442 0.804200
vt 0.719442 0.816988
vt 0.719442 0.832828
vt 0.707529 0.832828
vt 0.707529 0.820041
vt 0.719442 0.820041
vt 0.780701 0.836338
vt 0.780701 0.823552
vt 0.792614 0.823552
vt 0.792614 0.836338
vt 0.753083 0.832220
vt 0.740296 0.832220
vt 0.740296 0.820308
vt 0.753083 0.820307
vt 0.171465 0.817150
vt 0.183377 0.817150
vt 0.183377 0.829937
vt 0.171465 0.829937
vt 0.183377 0.801309
vt 0.183377 0.814097
vt 0.171465 0.814097
vt 0.171465 0.801308
vt 0.344840 0.450619
vt 0.344841 0.437832
vt 0.357628 0.437832
vt 0.357628 0.450620
vt 0.627672 0.828386
vt 0.615759 0.828386
vt 0.615759 0.815598
vt 0.627672 0.815598
vt 0.627672 0.799758
vt 0.627672 0.812545
vt 0.615759 0.812545
vt 0.615759 0.799757
vt 0.827891 0.813322
vt 0.827891 0.826109
vt 0.815979 0.826109
vt 0.815979 0.813322
vt 0.734407 0.816987
vt 0.722495 0.816988
vt 0.722495 0.804200
vt 0.734407 0.804200
vt 0.285341 0.429575
vt 0.285341 0.442363
vt 0.272553 0.442362
vt 0.272553 0.429574
vt 0.836436 0.479394
vt 0.824524 0.479394
vt 0.824524 0.466609
vt 0.836436 0.466607
vt 0.493432 0.596658
vt 0.493432 0.609447
vt 0.480644 0.609446
vt 0.480644 0.596659
vt 0.198343 0.829061
vt 0.186430 0.829062
vt 0.186430 0.816274
vt 0.198343 0.816274
vt 0.693998 0.828712
vt 0.682086 0.828712
vt 0.682086 0.815925
vt 0.693998 0.815925
vn 0.9998 0.0187 -0.0054
vn 0.9998 0.0194 -0.0033
vn 0.9999 0.0169 -0.0027
vn -0.9996 0.0223 0.0171
vn 0.3954 0.0236 0.9182
vn 0.3792 0.0194 -0.9251
vn -0.4081 0.0245 0.9126
vn 0.3433 -0.0123 -0.9391
vn 0.3427 -0.0208 -0.9392
vn 0.3350 -0.0200 -0.9420
vn -0.9986 0.0369 -0.0386
vn -0.3081 0.0675 0.9490
vn 0.9999 0.0097 0.0086
vn 0.9999 0.0106 0.0128
vn 0.9998 0.0081 0.0158
vn 0.3362 0.0532 0.9403
vn 0.3336 0.0581 0.9409
vn 0.3288 0.0572 0.9427
vn 0.3363 0.9162 0.2180
vn 0.9996 0.0105 0.0244
vn -0.9983 0.0215 0.0543
vn 0.4419 0.0213 0.8968
vn -0.4708 0.0241 0.8819
vn 0.3144 0.0839 -0.9456
vn -0.9920 0.0416 0.1191
vn -0.1923 -0.0150 0.9812
vn 0.9784 0.0321 -0.2040
vn 0.4043 -0.0266 0.9142
vn -0.9998 0.0021 0.0206
vn -0.9998 -0.0018 0.0186
vn -0.9998 0.0016 0.0204
vn 0.0274 0.0573 0.9980
vn 0.0303 0.0676 0.9973
vn 0.0318 0.0755 0.9966
vn 0.0325 0.0765 0.9965
vn -0.0442 0.9560 0.2900
vn -0.0618 0.9695 0.2371
vn 0.0204 0.9722 0.2332
vn -0.9996 0.0102 0.0267
vn -0.9996 0.0082 0.0285
vn -0.9997 0.0067 0.0252
vn 0.9998 -0.0021 -0.0210
vn 0.9998 -0.0007 -0.0206
vn 0.9998 -0.0014 -0.0210
vn 0.9997 -0.0096 -0.0228
vn 0.9996 -0.0077 -0.0269
vn 0.9997 -0.0135 -0.0191
vn 0.9998 0.0013 -0.0202
vn 0.9998 0.0007 -0.0207
vn -0.9998 0.0021 0.0209
vn -0.9998 0.0003 0.0210
vn -0.9998 0.0005 0.0206
vn 0.0530 0.9791 0.1961
vn 0.2416 0.9536 0.1799
vn 0.0778 0.9596 0.2704
vn -0.0620 -0.4512 0.8903
vn -0.0681 -0.5075 0.8589
vn -0.0680 -0.5075 0.8589
vn 0.9998 0.0199 -0.0087
vn 0.9998 0.0191 -0.0050
vn 0.9998 0.0181 -0.0072
vn -0.0234 -0.0998 -0.9947
vn -0.0308 -0.1198 -0.9923
vn -0.0068 -0.1137 -0.9935
vn -0.9992 0.0253 0.0299
vn 0.4063 0.0273 0.9133
vn 0.3803 0.0191 -0.9247
vn -0.4334 0.0330 0.9006
vn 0.3390 -0.0206 -0.9406
vn 0.3299 -0.0278 -0.9436
vn 0.3310 -0.0196 -0.9434
vn -0.0028 0.1151 0.9934
vn -0.0108 0.0476 0.9988
vn -0.9991 0.0424 -0.0093
vn -0.2901 0.0650 0.9548
vn 0.9999 0.0138 0.0060
vn 0.9999 0.0102 0.0104
vn 0.9999 0.0095 0.0066
vn 0.3312 0.0581 0.9418
vn 0.3213 0.0585 0.9452
vn 0.3261 0.0574 0.9436
vn 0.9999 0.0134 0.0059
vn 0.0165 0.1581 0.9873
vn -0.0023 0.1387 0.9903
vn 0.0388 0.1462 0.9885
vn 0.0244 0.1184 0.9927
vn -0.9962 0.0162 0.0861
vn 0.4691 0.0164 0.8830
vn -0.9998 0.0010 0.0207
vn -0.9998 0.0006 0.0213
vn -0.9997 0.0041 0.0220
vn -0.9997 0.0026 0.0245
vn -0.4918 0.0202 0.8705
vn 0.2353 0.0713 -0.9693
vn 0.4884 0.7945 0.3610
vn 0.0240 0.9959 0.0877
vn -0.9731 0.0141 0.2298
vn -0.3813 -0.0342 0.9238
vn 0.9995 -0.0099 -0.0305
vn 0.4898 -0.0462 0.8706
vn -0.3735 -0.0106 -0.9276
vn -0.3670 -0.0102 -0.9302
vn -0.3695 -0.0104 -0.9292
vn -0.3759 -0.0108 -0.9266
vn 0.9998 -0.0006 -0.0201
vn 0.9998 0.0002 -0.0205
vn 0.0149 0.1581 0.9873
vn 0.0069 0.1513 0.9885
vn 0.0214 0.1568 0.9874
vn 0.0204 0.1120 0.9935
vn 0.1572 0.9814 -0.1099
vn 0.1629 0.9864 -0.0215
vn 0.0396 0.7422 0.6690
vn 0.0397 0.7422 0.6690
vn 0.0380 0.8097 0.5856
vn 0.0382 0.8097 0.5856
vn -0.0187 -0.1246 -0.9920
vn -0.0047 -0.1200 -0.9928
vn -0.0164 -0.1000 -0.9948
vn -0.0164 -0.1001 -0.9948
vn 0.0110 0.5945 0.8040
vn 0.0134 0.8100 0.5862
vn -0.5464 -0.0836 0.8334
vn -0.5463 -0.0836 0.8334
vn -0.5194 -0.0676 0.8519
vn -0.1473 -0.9861 0.0762
vn -0.1473 -0.9861 0.0763
vn -0.1451 -0.9839 0.1040
vn -0.1451 -0.9839 0.1041
vn 0.0330 -0.9953 0.0905
vn 0.0330 -0.9953 0.0906
vn 0.0310 -0.9973 0.0670
vn 0.0310 -0.9973 0.0669
vn 0.0212 0.0611 0.9979
vn 0.0256 0.0578 0.9980
vn 0.0285 0.0615 0.9977
vn -0.0266 -0.9973 0.0682
vn -0.0249 -0.9955 0.0919
vn -0.0249 -0.9955 0.0920
vn -0.8925 -0.2258 -0.3906
vn -0.9080 -0.2149 -0.3596
vn -0.9998 -0.0001 0.0220
vn -0.9997 -0.0041 0.0238
vn -0.9997 -0.0049 0.0244
vn -0.9997 -0.0030 0.0243
vn 0.0015 -0.6715 0.7410
vn 0.1121 0.6613 0.7417
vn 0.1086 0.6453 0.7562
vn -0.0246 0.7833 0.6212
vn 0.0307 -0.6870 0.7260
vn 0.0302 -0.7030 0.7105
vn 0.0302 -0.7030 0.7106
vn -0.4263 0.0099 -0.9046
vn -0.3893 0.0152 -0.9210
vn -0.0020 -0.6869 0.7268
vn -0.0023 -0.7029 0.7113
vn -0.0024 -0.7029 0.7113
vn 0.0389 0.9960 -0.0804
vn 0.0391 0.9962 -0.0783
vn 0.0386 0.9958 -0.0835
vn 0.0384 0.9956 -0.0856
vn -0.0141 0.9975 -0.0698
vn -0.0140 0.9977 -0.0668
vn -0.0144 0.9971 -0.0743
vn -0.0146 0.9969 -0.0773
vn -0.4250 0.0872 -0.9010
vn -0.4782 0.0775 -0.8748
vn -0.0051 0.0611 0.9981
vn -0.0018 0.0364 0.9993
vn -0.0018 0.0365 0.9993
vn -0.0146 -0.0433 -0.9990
vn -0.0141 -0.0396 -0.9991
vn -0.0154 -0.0494 -0.9987
vn -0.0159 -0.0531 -0.9985
vn -0.3764 0.0194 -0.9262
vn -0.0149 -0.0339 -0.9993
vn -0.0153 -0.0316 -0.9994
vn -0.0151 -0.0326 -0.9994
vn -0.0147 -0.0349 -0.9993
vn 0.7451 -0.1985 0.6368
vn 0.7897 0.5250 0.3175
vn 0.0036 -0.9996 0.0270
vn 0.0038 -0.9997 0.0235
vn 0.0032 -0.9995 0.0323
vn 0.0030 -0.9994 0.0358
vn -0.2008 0.9657 0.1646
vn -0.0820 0.9926 0.0896
vn -0.8872 0.2049 -0.4133
vn -0.8636 0.2235 -0.4518
vn -0.8637 0.2235 -0.4518
vn -0.0130 -0.0375 -0.9992
vn -0.0130 -0.0378 -0.9992
vn 0.3712 0.0107 -0.9285
vn 0.8328 0.4006 -0.3821
vn 0.8322 0.4009 -0.3830
vn 0.8352 0.3992 -0.3782
vn 0.8358 0.3989 -0.3773
vn 0.8582 -0.2647 -0.4399
vn 0.8899 -0.2463 -0.3839
vn -0.4955 0.2897 0.8189
vn -0.5601 0.2729 0.7822
vn 0.9998 -0.0051 -0.0209
vn 0.9998 -0.0007 -0.0197
vn 0.9998 -0.0057 -0.0216
vn -0.0132 -0.0376 -0.9992
vn -0.0132 -0.0369 -0.9992
vn -0.9998 0.0020 0.0209
vn -0.9998 0.0017 0.0208
vn -0.0328 0.9994 -0.0113
vn -0.0283 0.9961 -0.0840
vn 0.0220 0.0697 0.9973
vn 0.0288 0.0684 0.9972
vn 0.0290 0.0637 0.9975
vn 0.0054 -0.5917 0.8061
vn -0.0144 0.6490 0.7607
vn 0.8704 -0.1926 0.4531
vn 0.8735 0.4673 0.1367
vn 0.7885 -0.6134 -0.0445
vn 0.6096 0.7892 -0.0749
vn -0.7885 0.6134 0.0447
vn -0.2285 0.9734 0.0182
vn 0.2285 -0.9734 -0.0183
vn 0.1100 -0.9918 0.0654
vn 0.3760 -0.9234 -0.0773
vn -0.1099 0.9918 -0.0654
vn 0.9756 -0.2193 0.0095
vn 0.0326 0.1062 0.9938
vn -0.0443 0.1339 0.9900
vn -0.6096 -0.7891 0.0748
vn 0.9844 0.1170 0.1311
vn -0.2465 0.9589 -0.1408
vn -0.9382 -0.2166 -0.2699
vn 0.4554 -0.8867 0.0798
vn 0.9383 0.2165 0.2697
vn -0.1349 -0.0411 0.9900
vn 0.0218 0.1394 0.9900
vn 0.9681 0.2503 0.0095
vn -0.2185 -0.9656 0.1407
vn -0.8897 -0.4500 0.0773
vn -0.1075 0.9912 -0.0777
vn 0.0316 0.0693 0.9971
vn 0.9208 0.3818 -0.0798
vn 0.2185 0.9656 -0.1407
vn -0.4554 0.8867 -0.0798
vn -0.9209 -0.3816 0.0798
vn 0.9934 0.1075 -0.0389
vn 0.1075 -0.9912 0.0777
vn 0.1032 -0.0412 0.9938
vn -0.9934 -0.1077 0.0390
vn 0.2465 -0.9589 0.1408
vn -0.9681 -0.2503 -0.0095
vn 0.8897 0.4500 -0.0773
vn 0.0709 0.0278 0.9971
vn -0.3761 0.9234 0.0773
vn -0.1389 0.0625 0.9883
vn -0.9845 -0.1170 -0.1310
vn -0.9756 0.2194 -0.0095
g Fence_4_Fence_4_Collor_Material
usemtl Collor_Material
s off
f 1/1/1 3/2/2 4/3/3
f 8/4/4 7/5/4 5/6/4
f 10/7/5 9/8/5 1/9/5
f 4/10/6 3/11/6 11/12/6
f 5/13/7 9/14/7 10/15/7
f 12/16/8 18/17/9 14/18/10
f 6/19/11 15/20/11 16/21/11
f 6/22/12 10/23/12 17/24/12
f 2/25/13 4/26/14 14/27/15
f 2/28/16 13/29/17 17/30/18
f 32/31/19 35/32/19 31/33/19
f 20/34/20 19/35/20 21/36/20
f 25/37/21 23/38/21 24/39/21
f 27/40/22 19/41/22 20/42/22
f 24/43/23 23/44/23 27/45/23
f 22/46/24 30/47/24 36/48/24
f 26/49/25 24/50/25 33/51/25
f 28/52/26 35/53/26 33/54/26
f 22/55/27 32/56/27 31/57/27
f 28/58/28 20/59/28 31/60/28
f 143/61/29 61/62/30 144/63/31
f 64/64/32 144/65/33 146/66/34 141/67/35
f 33/68/36 36/69/37 34/70/38
f 44/71/39 64/72/40 63/73/41
f 49/74/42 52/75/42 37/76/42 39/77/42
f 50/78/43 49/79/43 39/80/43
f 37/81/44 52/82/44 51/83/44
f 58/84/45 57/85/46 43/86/47
f 41/87/48 60/88/49 59/89/49
f 54/90/50 53/91/50 38/92/50
f 40/93/51 56/94/52 55/95/52
f 33/96/53 35/97/54 32/98/54 36/99/55
f 139/100/56 61/101/56 62/102/57 140/103/58
f 1/104/59 4/105/60 2/106/61
f 38/107/62 40/108/62 48/109/63 47/110/64
f 8/111/65 5/112/65 6/113/65
f 10/114/66 1/115/66 2/116/66
f 4/117/67 11/118/67 12/119/67
f 5/120/68 10/121/68 6/122/68
f 12/123/69 14/124/70 4/125/71
f 67/126/72 151/127/72 150/128/73 57/129/73
f 6/130/74 16/131/74 8/132/74
f 6/133/75 17/134/75 15/135/75
f 2/136/76 14/137/77 13/138/78
f 2/139/79 17/140/80 10/141/81
f 20/142/82 21/143/82 22/144/82
f 53/145/83 69/146/84 71/147/85 56/148/86
f 25/149/87 24/150/87 26/151/87
f 27/152/88 20/153/88 28/154/88
f 143/155/89 144/156/90 64/157/91 44/158/92
f 24/159/93 27/160/93 28/161/93
f 22/162/94 36/163/94 32/164/94
f 17/165/95 13/166/95 14/167/96 18/168/96
f 26/169/97 33/170/97 34/171/97
f 28/172/98 33/173/98 24/174/98
f 22/175/99 31/176/99 20/177/99
f 28/178/100 31/179/100 35/180/100
f 16/181/101 18/182/102 12/183/103 8/184/104
f 148/185/105 150/186/105 60/187/105 41/188/106
f 49/189/107 71/190/108 69/191/109 52/192/110
f 63/193/111 142/194/111 46/195/112 44/196/112
f 72/197/113 55/198/114 56/199/115 71/200/116
f 47/201/117 48/202/118 39/203/119 37/204/120
f 49/205/121 50/206/121 72/207/122 71/208/122
f 65/209/123 151/210/124 152/211/125 66/212/125
f 62/213/126 42/214/127 138/215/128 140/216/129
f 54/217/130 38/218/131 47/219/132 70/220/133
f 146/221/134 61/222/135 139/223/136
f 70/224/137 47/225/137 37/226/138 51/227/139
f 66/228/140 152/229/140 149/230/141 45/231/141
f 143/232/142 42/233/143 62/234/144 61/235/145
f 65/236/146 59/237/146 60/238/146
f 141/239/147 142/240/147 63/241/148 64/242/148
f 67/243/149 58/244/149 68/245/149
f 53/246/150 54/247/150 70/248/151 69/249/152
f 26/250/153 30/251/153 29/252/154 25/253/154
f 70/254/155 51/255/155 52/256/156 69/257/157
f 55/258/158 72/259/159 48/260/160 40/261/161
f 72/262/162 50/263/163 39/264/164 48/265/165
f 30/266/166 26/267/166 34/268/167 36/269/167
f 150/270/168 151/271/168 65/272/169 60/273/170
f 137/274/171 43/275/172 148/276/173 149/277/174
f 8/278/175 12/279/175 11/280/175 7/281/175
f 45/282/176 149/283/177 148/284/178 41/285/179
f 147/286/180 141/287/180 146/288/180
f 139/289/181 147/290/181 146/291/181
f 45/292/182 41/293/183 59/294/184 66/295/185
f 16/296/186 15/297/186 17/298/187 18/299/187
f 149/300/188 152/301/188 68/302/189 137/303/190
f 42/304/191 143/305/191 145/306/191 138/307/192
f 30/308/193 22/309/193 21/310/193 29/311/193
f 138/312/194 145/313/195 147/314/196 140/315/197
f 46/316/198 142/317/198 147/318/199 145/319/199
f 151/320/200 67/321/200 68/322/201 152/323/201
f 57/324/202 150/325/203 148/326/203 43/327/204
f 143/328/205 44/329/206 46/330/205 145/331/205
f 38/332/207 53/333/207 56/334/207 40/335/208
f 58/336/209 43/337/209 137/338/210 68/339/210
f 146/340/211 144/341/212 61/342/213
f 65/343/214 66/344/214 59/345/214
f 67/346/215 57/347/215 58/348/215
f 147/349/216 142/350/216 141/351/216
f 139/352/217 140/353/217 147/354/217
f 90/355/218 94/356/218 96/357/218 92/358/218
f 90/359/219 89/360/219 93/361/219 94/362/219
f 89/363/220 91/364/220 95/365/220 93/366/220
f 97/367/221 101/368/221 102/369/221 98/370/221
f 104/371/222 103/372/222 99/373/222 100/374/222
f 75/375/223 76/376/223 80/377/223 79/378/223
f 112/379/224 108/380/224 106/381/224 110/382/224
f 74/383/225 73/384/225 77/385/225 78/386/225
f 114/387/226 113/388/226 117/389/226 118/390/226
f 125/391/227 127/392/227 128/393/227 126/394/227
f 133/395/228 135/396/228 136/397/228 134/398/228
f 95/399/229 91/400/229 92/401/229 96/402/229
f 88/403/230 84/404/230 82/405/230 86/406/230
f 133/407/231 129/408/231 131/409/231 135/410/231
f 101/411/232 97/412/232 99/413/232 103/414/232
f 123/415/233 124/416/233 128/417/233 127/418/233
f 102/419/234 104/420/234 100/421/234 98/422/234
f 103/423/235 104/424/235 102/425/235 101/426/235
f 117/427/236 119/428/236 120/429/236 118/430/236
f 129/431/237 133/432/237 134/433/237 130/434/237
f 118/435/238 120/436/238 116/437/238 114/438/238
f 123/439/239 127/440/239 125/441/239 121/442/239
f 81/443/240 85/444/240 86/445/240 82/446/240
f 77/447/241 79/448/241 80/449/241 78/450/241
f 109/451/242 110/452/242 106/453/242 105/454/242
f 117/455/243 113/456/243 115/457/243 119/458/243
f 122/459/244 121/460/244 125/461/244 126/462/244
f 112/463/245 111/464/245 107/465/245 108/466/245
f 80/467/246 76/468/246 74/469/246 78/470/246
f 83/471/247 84/472/247 88/473/247 87/474/247
f 109/475/248 111/476/248 112/477/248 110/478/248
f 77/479/249 73/480/249 75/481/249 79/482/249
f 134/483/250 136/484/250 132/485/250 130/486/250
f 131/487/251 132/488/251 136/489/251 135/490/251
f 122/491/252 126/492/252 128/493/252 124/494/252
f 93/495/253 95/496/253 96/497/253 94/498/253
f 109/499/254 105/500/254 107/501/254 111/502/254
f 87/503/255 88/504/255 86/505/255 85/506/255
f 85/507/256 81/508/256 83/509/256 87/510/256
f 119/511/257 115/512/257 116/513/257 120/514/257
