# Blender v3.0.0 OBJ File: 'aa.blend'
# www.blender.org
mtllib Footbridge.mtl
o Footbridge
v -4.654898 -0.046935 0.831039
v -4.654898 0.046936 0.831039
v -4.654898 -0.046935 0.617108
v -4.654898 0.046936 0.617108
v 0.153427 -0.046935 0.831039
v 0.153427 0.046936 0.831039
v 0.153427 -0.046935 0.617108
v 0.153427 0.046936 0.617108
v -4.654898 -0.046936 -0.617108
v -4.654898 0.046935 -0.617108
v -4.654898 -0.046936 -0.831039
v -4.654898 0.046935 -0.831039
v 0.153427 -0.046936 -0.617108
v 0.153427 0.046935 -0.617108
v 0.153427 -0.046936 -0.831039
v 0.153427 0.046935 -0.831039
v -0.003904 0.046936 0.965160
v 0.026851 0.056304 0.965160
v -0.003904 0.056304 0.972866
v 0.026851 0.141829 0.965160
v -0.003904 0.151196 0.965160
v -0.003904 0.141829 0.972866
v -0.268759 0.046936 0.965160
v -0.268759 0.056304 0.972866
v -0.299513 0.056304 0.965160
v -0.268759 0.151196 0.965160
v -0.299513 0.141829 0.965160
v -0.268759 0.141829 0.972866
v -0.003904 0.046935 -1.070433
v -0.003904 0.056303 -1.078139
v 0.026851 0.056303 -1.070433
v -0.003904 0.151195 -1.070433
v 0.026851 0.141827 -1.070433
v -0.003904 0.141827 -1.078139
v -0.268759 0.046935 -1.070433
v -0.299513 0.056303 -1.070433
v -0.268759 0.056303 -1.078139
v -0.268759 0.151195 -1.070433
v -0.268759 0.141827 -1.078139
v -0.299513 0.141827 -1.070433
v -0.380427 0.046936 0.938506
v -0.349673 0.056304 0.938506
v -0.380427 0.056304 0.946212
v -0.349673 0.118745 0.938506
v -0.380427 0.128113 0.938506
v -0.380427 0.118745 0.946212
v -0.661212 0.046936 0.938506
v -0.661212 0.056304 0.946212
v -0.691967 0.056304 0.938506
v -0.661212 0.128113 0.938506
v -0.691967 0.118745 0.938506
v -0.661212 0.118745 0.946212
v -0.380428 0.046935 -1.053105
v -0.380428 0.056303 -1.060811
v -0.349673 0.056303 -1.053105
v -0.380428 0.128112 -1.053105
v -0.349673 0.118744 -1.053105
v -0.380428 0.118744 -1.060811
v -0.661212 0.046935 -1.053105
v -0.691967 0.056303 -1.053105
v -0.661212 0.056303 -1.060811
v -0.661212 0.128112 -1.053105
v -0.661212 0.118744 -1.060811
v -0.691967 0.118744 -1.053105
v -0.756951 0.046936 0.981677
v -0.726196 0.056304 0.981677
v -0.756951 0.056304 0.989383
v -0.726196 0.141829 0.981677
v -0.756951 0.151196 0.981677
v -0.756951 0.141829 0.989383
v -1.037736 0.046936 0.981678
v -1.037736 0.056304 0.989383
v -1.068490 0.056304 0.981678
v -1.037736 0.151196 0.981678
v -1.068490 0.141829 0.981678
v -1.037736 0.141829 0.989383
v -0.756951 0.046935 -1.094826
v -0.756951 0.056303 -1.102532
v -0.726196 0.056303 -1.094826
v -0.756951 0.151195 -1.094826
v -0.726196 0.141827 -1.094826
v -0.756951 0.141827 -1.102532
v -1.037736 0.046935 -1.094826
v -1.068490 0.056303 -1.094826
v -1.037736 0.056303 -1.102531
v -1.037736 0.151195 -1.094826
v -1.037736 0.141827 -1.102531
v -1.068490 0.141827 -1.094826
v -1.133474 0.046936 0.981678
v -1.102720 0.056304 0.981678
v -1.133474 0.056304 0.989383
v -1.102720 0.141829 0.981678
v -1.133474 0.151196 0.981678
v -1.133474 0.141829 0.989383
v -1.391202 0.046936 0.981678
v -1.391202 0.056304 0.989383
v -1.421957 0.056304 0.981678
v -1.391202 0.151196 0.981678
v -1.421957 0.141829 0.981678
v -1.391202 0.141829 0.989383
v -1.133474 0.046935 -1.053105
v -1.133474 0.056303 -1.060811
v -1.102720 0.056303 -1.053105
v -1.133474 0.151195 -1.053105
v -1.102720 0.141827 -1.053105
v -1.133474 0.141827 -1.060811
v -1.391202 0.046935 -1.053105
v -1.421957 0.056303 -1.053105
v -1.391202 0.056303 -1.060811
v -1.391202 0.151195 -1.053105
v -1.391202 0.141827 -1.060811
v -1.421957 0.141827 -1.053105
v -1.509998 0.046936 0.973270
v -1.479243 0.056304 0.973270
v -1.509998 0.056304 0.980976
v -1.479243 0.141829 0.973270
v -1.509998 0.151196 0.973270
v -1.509998 0.141829 0.980976
v -1.790783 0.046936 0.973270
v -1.790783 0.056304 0.980976
v -1.821537 0.056304 0.973270
v -1.790783 0.151196 0.973270
v -1.821537 0.141829 0.973270
v -1.790783 0.141829 0.980976
v -1.509998 0.046935 -1.028964
v -1.509998 0.056303 -1.036669
v -1.479243 0.056303 -1.028964
v -1.509998 0.151195 -1.028964
v -1.479243 0.141827 -1.028964
v -1.509998 0.141827 -1.036669
v -1.790783 0.046935 -1.028964
v -1.821537 0.056303 -1.028964
v -1.790783 0.056303 -1.036669
v -1.790783 0.151195 -1.028964
v -1.790783 0.141827 -1.036669
v -1.821537 0.141827 -1.028964
v -1.886521 0.046936 0.957314
v -1.855767 0.056304 0.957314
v -1.886521 0.056304 0.965020
v -1.855767 0.118745 0.957314
v -1.886521 0.128113 0.957314
v -1.886521 0.118745 0.965020
v -2.167306 0.046936 0.957314
v -2.167306 0.056304 0.965020
v -2.198061 0.056304 0.957314
v -2.167306 0.128113 0.957314
v -2.198061 0.118745 0.957314
v -2.167306 0.118745 0.965020
v -1.886521 0.046935 -1.080832
v -1.886521 0.056303 -1.088538
v -1.855767 0.056303 -1.080832
v -1.886521 0.128112 -1.080832
v -1.855767 0.118744 -1.080832
v -1.886521 0.118744 -1.088538
v -2.167306 0.046935 -1.080832
v -2.198061 0.056303 -1.080832
v -2.167306 0.056303 -1.088538
v -2.167306 0.128112 -1.080832
v -2.167306 0.118744 -1.088538
v -2.198061 0.118744 -1.080832
v -2.263045 0.046936 1.001880
v -2.232290 0.056304 1.001880
v -2.263045 0.056304 1.009586
v -2.232290 0.141829 1.001880
v -2.263045 0.151196 1.001880
v -2.263045 0.141829 1.009586
v -2.543829 0.046936 1.001880
v -2.543829 0.056304 1.009586
v -2.574584 0.056304 1.001880
v -2.543829 0.151196 1.001880
v -2.574584 0.141829 1.001880
v -2.543829 0.141829 1.009586
v -2.263045 0.046935 -1.040219
v -2.263045 0.056303 -1.047925
v -2.232290 0.056303 -1.040219
v -2.263045 0.151195 -1.040219
v -2.232290 0.141827 -1.040219
v -2.263045 0.141827 -1.047925
v -2.543829 0.046935 -1.040219
v -2.574584 0.056303 -1.040219
v -2.543829 0.056303 -1.047925
v -2.543829 0.151195 -1.040219
v -2.543829 0.141827 -1.047925
v -2.574584 0.141827 -1.040219
v -2.639568 0.046936 0.957314
v -2.608814 0.056304 0.957314
v -2.639568 0.056304 0.965020
v -2.608814 0.141829 0.957314
v -2.639568 0.151196 0.957314
v -2.639568 0.141829 0.965020
v -2.920353 0.046936 0.957314
v -2.920353 0.056304 0.965020
v -2.951108 0.056304 0.957314
v -2.920353 0.151196 0.957314
v -2.951108 0.141829 0.957314
v -2.920353 0.141829 0.965020
v -2.639568 0.046935 -1.053105
v -2.639568 0.056303 -1.060811
v -2.608814 0.056303 -1.053105
v -2.639568 0.151195 -1.053105
v -2.608814 0.141827 -1.053105
v -2.639568 0.141827 -1.060811
v -2.920353 0.046935 -1.053105
v -2.951108 0.056303 -1.053105
v -2.920353 0.056303 -1.060811
v -2.920353 0.151195 -1.053105
v -2.920353 0.141827 -1.060811
v -2.951108 0.141827 -1.053105
v -3.016092 0.046936 0.936963
v -2.985337 0.056304 0.936963
v -3.016092 0.056304 0.944669
v -2.985337 0.118745 0.936963
v -3.016092 0.128113 0.936963
v -3.016092 0.118745 0.944669
v -3.296877 0.046936 0.936963
v -3.296877 0.056304 0.944669
v -3.327631 0.056304 0.936963
v -3.296877 0.128113 0.936963
v -3.327631 0.118745 0.936963
v -3.296877 0.118745 0.944669
v -3.016092 0.046935 -1.090261
v -3.016092 0.056303 -1.097967
v -2.985337 0.056303 -1.090261
v -3.016092 0.128112 -1.090261
v -2.985337 0.118744 -1.090261
v -3.016092 0.118744 -1.097967
v -3.296877 0.046935 -1.090261
v -3.327631 0.056303 -1.090261
v -3.296877 0.056303 -1.097967
v -3.296877 0.128112 -1.090261
v -3.296877 0.118744 -1.097967
v -3.327631 0.118744 -1.090261
v -3.392616 0.046936 0.957314
v -3.361861 0.056304 0.957314
v -3.392616 0.056304 0.965020
v -3.361861 0.141829 0.957314
v -3.392616 0.151196 0.957314
v -3.392616 0.141829 0.965020
v -3.673400 0.046936 0.957314
v -3.673400 0.056304 0.965020
v -3.704155 0.056304 0.957314
v -3.673400 0.151196 0.957314
v -3.704155 0.141829 0.957314
v -3.673400 0.141829 0.965020
v -3.392616 0.046935 -1.053105
v -3.392616 0.056303 -1.060811
v -3.361861 0.056303 -1.053105
v -3.392616 0.151195 -1.053105
v -3.361861 0.141827 -1.053105
v -3.392616 0.141827 -1.060811
v -3.673400 0.046935 -1.053105
v -3.704155 0.056303 -1.053105
v -3.673400 0.056303 -1.060811
v -3.673400 0.151195 -1.053105
v -3.673400 0.141827 -1.060811
v -3.704155 0.141827 -1.053105
v -3.745069 0.046936 0.986855
v -3.714314 0.056304 0.986856
v -3.744980 0.056304 0.994561
v -3.714314 0.141829 0.986856
v -3.745069 0.151196 0.986855
v -3.744980 0.141829 0.994561
v -4.025853 0.046936 0.986855
v -4.025764 0.056304 0.994561
v -4.056608 0.056304 0.986856
v -4.025853 0.151196 0.986855
v -4.056608 0.141829 0.986856
v -4.025764 0.141829 0.994561
v -3.769050 0.046935 -1.096336
v -3.769139 0.056303 -1.104042
v -3.738295 0.056303 -1.096336
v -3.769050 0.151195 -1.096336
v -3.738295 0.141827 -1.096336
v -3.769139 0.141827 -1.104042
v -4.049834 0.046935 -1.096336
v -4.080589 0.056303 -1.096336
v -4.049923 0.056303 -1.104042
v -4.049834 0.151195 -1.096336
v -4.049923 0.141827 -1.104042
v -4.080589 0.141827 -1.096336
v -4.145662 0.046936 0.957314
v -4.114907 0.056304 0.957314
v -4.145662 0.056304 0.965020
v -4.114907 0.133600 0.957314
v -4.145662 0.142968 0.957314
v -4.145662 0.133601 0.965020
v -4.525398 0.046936 0.957314
v -4.525398 0.056304 0.965020
v -4.556153 0.056304 0.957314
v -4.525398 0.142968 0.957314
v -4.556153 0.133600 0.957314
v -4.525398 0.133601 0.965020
v -4.145662 0.046935 -1.053105
v -4.145662 0.056303 -1.060811
v -4.114907 0.056303 -1.053105
v -4.145662 0.142967 -1.053105
v -4.114907 0.133599 -1.053105
v -4.145662 0.133599 -1.060811
v -4.525398 0.046935 -1.053105
v -4.556153 0.056303 -1.053105
v -4.525398 0.056303 -1.060811
v -4.525398 0.142967 -1.053105
v -4.525398 0.133599 -1.060811
v -4.556153 0.133599 -1.053105
vt 0.775075 0.322884
vt 0.770233 0.321765
vt 0.775075 0.321009
vt 0.219892 0.744253
vt 0.219892 0.749222
vt 0.218065 0.748800
vt 0.119645 0.774025
vt 0.119645 0.775899
vt 0.114804 0.775143
vt 0.528750 0.774491
vt 0.530603 0.769880
vt 0.530603 0.774781
vt 0.006638 0.775750
vt 0.006638 0.777625
vt 0.001796 0.776868
vt 0.230845 0.776685
vt 0.226004 0.775567
vt 0.230845 0.774810
vt 0.764308 0.765629
vt 0.764308 0.770598
vt 0.762482 0.766051
vt 0.446049 0.775534
vt 0.446049 0.777409
vt 0.441207 0.776652
vt 0.024228 0.775611
vt 0.026080 0.771000
vt 0.026080 0.775900
vt 0.242815 0.777721
vt 0.247657 0.776603
vt 0.247657 0.778478
vt 0.288855 0.776603
vt 0.288855 0.778478
vt 0.284014 0.777721
vt 0.461916 0.767449
vt 0.461916 0.772418
vt 0.460090 0.767871
vt 0.741337 0.321009
vt 0.741337 0.322884
vt 0.736496 0.322127
vt 0.456497 0.733826
vt 0.456497 0.738795
vt 0.454670 0.734248
vt 0.141935 0.765531
vt 0.141935 0.770500
vt 0.140108 0.765953
vt 0.429062 0.775534
vt 0.429062 0.777408
vt 0.424221 0.776652
vt 0.454587 0.776137
vt 0.449746 0.775019
vt 0.454587 0.774262
vt 0.064498 0.775725
vt 0.062645 0.771114
vt 0.064498 0.770825
vt 0.218065 0.770228
vt 0.219918 0.769939
vt 0.219918 0.774839
vt 0.512302 0.774491
vt 0.514155 0.769881
vt 0.514155 0.774781
vt 0.099799 0.773850
vt 0.099799 0.775725
vt 0.094958 0.774968
vt 0.413030 0.767202
vt 0.413030 0.772171
vt 0.411203 0.767624
vt 0.288245 0.768041
vt 0.288245 0.773010
vt 0.286419 0.768463
vt 0.437497 0.775534
vt 0.437497 0.777408
vt 0.432655 0.776652
vt 0.046310 0.775435
vt 0.048162 0.770825
vt 0.048162 0.775725
vt 0.277406 0.768041
vt 0.277406 0.773010
vt 0.275579 0.772588
vt 0.254762 0.773010
vt 0.252935 0.772588
vt 0.254762 0.768041
vt 0.219892 0.761377
vt 0.219892 0.766346
vt 0.218065 0.761799
vt 0.523305 0.770170
vt 0.525157 0.769880
vt 0.525157 0.774781
vt 0.079196 0.775435
vt 0.081048 0.770825
vt 0.081048 0.775725
vt 0.297290 0.778478
vt 0.292448 0.777360
vt 0.297290 0.776603
vt 0.051755 0.771114
vt 0.053607 0.770825
vt 0.053607 0.775725
vt 0.393145 0.767216
vt 0.393145 0.772184
vt 0.391319 0.767637
vt 0.275579 0.777721
vt 0.280421 0.776603
vt 0.280421 0.778478
vt 0.256091 0.776603
vt 0.256091 0.778478
vt 0.251249 0.777721
vt 0.108234 0.775725
vt 0.103392 0.774607
vt 0.108234 0.773850
vt 0.764308 0.762037
vt 0.762482 0.761615
vt 0.764308 0.757068
vt 0.091365 0.776106
vt 0.086523 0.774988
vt 0.091365 0.774231
vt 0.260181 0.768041
vt 0.260181 0.773010
vt 0.258355 0.768463
vt 0.244642 0.773010
vt 0.242815 0.772588
vt 0.244642 0.768041
vt 0.271021 0.768041
vt 0.271021 0.773010
vt 0.269194 0.768463
vt 0.460090 0.777129
vt 0.464931 0.776011
vt 0.464931 0.777885
vt 0.091365 0.762076
vt 0.089538 0.761654
vt 0.091365 0.757107
vt 0.057200 0.775435
vt 0.059052 0.770825
vt 0.059052 0.775725
vt 0.035419 0.771114
vt 0.037271 0.770825
vt 0.037271 0.775725
vt 0.040864 0.775435
vt 0.042717 0.770825
vt 0.042717 0.775725
vt 0.506857 0.774491
vt 0.508709 0.769881
vt 0.508709 0.774781
vt 0.365261 0.775534
vt 0.365261 0.777408
vt 0.360419 0.776652
vt 0.758206 0.322884
vt 0.753365 0.321766
vt 0.758206 0.321009
vt 0.744930 0.322127
vt 0.749772 0.321009
vt 0.749772 0.322884
vt 0.299085 0.773010
vt 0.297258 0.772588
vt 0.299085 0.768041
vt 0.271021 0.778478
vt 0.266179 0.777360
vt 0.271021 0.776603
vt 0.501389 0.770170
vt 0.503242 0.769881
vt 0.503242 0.774781
vt 0.219892 0.752815
vt 0.219892 0.757784
vt 0.218065 0.753237
vt 0.474892 0.620189
vt 0.470051 0.619071
vt 0.474892 0.618315
vt 0.517748 0.770170
vt 0.519600 0.769881
vt 0.519600 0.774781
vt 0.282826 0.768041
vt 0.282826 0.773010
vt 0.280999 0.768463
vt 0.468583 0.778370
vt 0.473424 0.777252
vt 0.473424 0.779127
vt 0.307578 0.772792
vt 0.307578 0.774666
vt 0.302736 0.773910
vt 0.390740 0.777652
vt 0.385899 0.776534
vt 0.390740 0.775777
vt 0.073751 0.771114
vt 0.075603 0.770825
vt 0.075603 0.775725
vt 0.399117 0.767216
vt 0.399117 0.772184
vt 0.397291 0.767637
vt 0.766641 0.322884
vt 0.761799 0.321766
vt 0.766641 0.321009
vt 0.418450 0.772171
vt 0.416623 0.771749
vt 0.418450 0.767202
vt 0.015131 0.777625
vt 0.010290 0.776507
vt 0.015131 0.775750
vt 0.091365 0.748545
vt 0.091365 0.753514
vt 0.089538 0.753092
vt 0.764308 0.744913
vt 0.762482 0.744491
vt 0.764308 0.739944
vt 0.732903 0.322884
vt 0.728061 0.321766
vt 0.732903 0.321009
vt 0.265601 0.773010
vt 0.263774 0.772588
vt 0.265601 0.768041
vt 0.416045 0.777639
vt 0.411203 0.776521
vt 0.416045 0.775764
vt 0.458015 0.620190
vt 0.453174 0.619071
vt 0.458015 0.618315
vt 0.534196 0.770170
vt 0.536048 0.769880
vt 0.536048 0.774781
vt 0.387726 0.767216
vt 0.387726 0.772184
vt 0.385899 0.767637
vt 0.020635 0.775900
vt 0.018783 0.771289
vt 0.020635 0.771000
vt 0.764308 0.753475
vt 0.762482 0.753053
vt 0.764308 0.748506
vt 0.724468 0.322884
vt 0.719627 0.321766
vt 0.724468 0.321009
vt 0.326998 0.622899
vt 0.326998 0.624774
vt 0.322156 0.624017
vt 0.354974 0.774491
vt 0.356826 0.769880
vt 0.356826 0.774781
vt 0.322467 0.769880
vt 0.322467 0.774849
vt 0.320640 0.770302
vt 0.091365 0.770638
vt 0.089538 0.770216
vt 0.091365 0.765669
vt 0.307578 0.780134
vt 0.302744 0.778981
vt 0.307578 0.778259
vt 0.327883 0.769880
vt 0.327883 0.774849
vt 0.326060 0.774414
vt 0.466458 0.618315
vt 0.466458 0.620190
vt 0.461608 0.619398
vt 0.591737 0.507279
vt 0.591737 0.512248
vt 0.589907 0.507688
vt 0.336893 0.770182
vt 0.338743 0.769880
vt 0.338743 0.774794
vt 0.342336 0.774492
vt 0.344186 0.769880
vt 0.344186 0.774794
vt 0.333300 0.769880
vt 0.333300 0.774849
vt 0.331476 0.770315
vt 0.029673 0.771277
vt 0.031528 0.771000
vt 0.031528 0.775887
vt 0.349506 0.774491
vt 0.351358 0.769880
vt 0.351358 0.774781
vt 0.711192 0.322127
vt 0.716034 0.321009
vt 0.716034 0.322884
vt 0.219892 0.740660
vt 0.218065 0.740238
vt 0.219892 0.735691
vt 0.446624 0.619971
vt 0.446624 0.624940
vt 0.444797 0.620393
vt 0.293665 0.773010
vt 0.291838 0.772588
vt 0.293665 0.768041
vt 0.068305 0.775435
vt 0.070158 0.770825
vt 0.070158 0.775725
vt 0.317047 0.769880
vt 0.317047 0.774849
vt 0.315220 0.770302
vt 0.503517 0.623069
vt 0.503517 0.624944
vt 0.498675 0.624187
vt 0.539328 0.719297
vt 0.226004 0.719297
vt 0.226004 0.709647
vt 0.539328 0.709647
vt 0.350817 0.613266
vt 0.394214 0.613266
vt 0.394214 0.622916
vt 0.350817 0.622916
vt 0.226004 0.630428
vt 0.546943 0.630428
vt 0.546943 0.643647
vt 0.226004 0.643646
vt 0.461459 0.562832
vt 0.461459 0.606229
vt 0.448241 0.606229
vt 0.448241 0.562832
vt 0.542921 0.696403
vt 0.548088 0.696410
vt 0.548088 0.992431
vt 0.542921 0.992424
vt 0.869481 0.001796
vt 0.869481 0.323788
vt 0.856263 0.323788
vt 0.856263 0.001796
vt 0.989480 0.633056
vt 0.994647 0.633063
vt 0.994647 0.929084
vt 0.989480 0.929077
vt 0.542072 0.562832
vt 0.542072 0.606228
vt 0.528854 0.606228
vt 0.528854 0.562832
vt 0.903104 0.001796
vt 0.903104 0.316285
vt 0.889886 0.316285
vt 0.889886 0.001796
vt 0.457355 0.317416
vt 0.413958 0.317416
vt 0.413958 0.001796
vt 0.457355 0.001796
vt 0.144833 0.744952
vt 0.111769 0.744952
vt 0.111769 0.001796
vt 0.144834 0.001796
vt 0.569233 0.878446
vt 0.569233 0.562832
vt 0.582452 0.562832
vt 0.582452 0.878446
vt 0.226004 0.647240
vt 0.540621 0.647240
vt 0.540621 0.660458
vt 0.226004 0.660458
vt 0.588002 0.374871
vt 0.588002 0.418268
vt 0.272994 0.418268
vt 0.272994 0.374871
vt 0.432714 0.750229
vt 0.437614 0.750229
vt 0.437614 0.763448
vt 0.432714 0.763448
vt 0.495082 0.579643
vt 0.495082 0.620578
vt 0.481864 0.620578
vt 0.481864 0.579643
vt 0.460948 0.001796
vt 0.504345 0.001796
vt 0.504345 0.317416
vt 0.460948 0.317416
vt 0.539328 0.696403
vt 0.539328 0.706054
vt 0.226004 0.706053
vt 0.226004 0.696403
vt 0.195417 0.316112
vt 0.205067 0.316112
vt 0.205067 0.631120
vt 0.195416 0.631120
vt 0.478271 0.562832
vt 0.478271 0.606229
vt 0.465052 0.606229
vt 0.465052 0.562832
vt 0.726756 0.646088
vt 0.731969 0.646096
vt 0.731969 0.944753
vt 0.726756 0.944745
vt 0.270301 0.759548
vt 0.270301 0.764448
vt 0.258355 0.764448
vt 0.258355 0.759548
vt 0.588002 0.421861
vt 0.588002 0.465258
vt 0.272994 0.465258
vt 0.272994 0.421861
vt 0.889886 0.630726
vt 0.889886 0.320007
vt 0.903104 0.320007
vt 0.903104 0.630726
vt 0.923509 0.629463
vt 0.923509 0.320007
vt 0.936727 0.320007
vt 0.936727 0.629463
vt 0.740426 0.001796
vt 0.780259 0.001796
vt 0.780259 0.316285
vt 0.740426 0.316285
vt 0.239222 0.722890
vt 0.239222 0.762724
vt 0.226004 0.762724
vt 0.226004 0.722890
vt 0.365319 0.763448
vt 0.360419 0.763448
vt 0.360419 0.750229
vt 0.365319 0.750229
vt 0.775865 0.642370
vt 0.736032 0.642370
vt 0.736032 0.327881
vt 0.775865 0.327881
vt 0.226004 0.680863
vt 0.536729 0.680863
vt 0.536729 0.692810
vt 0.226004 0.692810
vt 0.001797 0.001796
vt 0.034861 0.001797
vt 0.034861 0.744952
vt 0.001796 0.744952
vt 0.001796 0.758913
vt 0.001796 0.754013
vt 0.015015 0.754013
vt 0.015015 0.758913
vt 0.498675 0.619476
vt 0.498675 0.579643
vt 0.511894 0.579643
vt 0.511894 0.619476
vt 0.582452 0.515841
vt 0.582452 0.559239
vt 0.272994 0.559238
vt 0.272994 0.515841
vt 0.444648 0.562832
vt 0.444648 0.606229
vt 0.431430 0.606229
vt 0.431430 0.562832
vt 0.275425 0.722890
vt 0.275425 0.755955
vt 0.260916 0.755955
vt 0.260916 0.722890
vt 0.906698 0.630731
vt 0.906697 0.320007
vt 0.919916 0.320007
vt 0.919916 0.630731
vt 0.414618 0.606229
vt 0.414618 0.562832
vt 0.427837 0.562832
vt 0.427837 0.606229
vt 0.397807 0.606229
vt 0.397807 0.562832
vt 0.411025 0.562832
vt 0.411025 0.606229
vt 0.525137 0.579643
vt 0.525137 0.623040
vt 0.515486 0.623040
vt 0.515486 0.579643
vt 0.601918 0.001796
vt 0.645315 0.001796
vt 0.645315 0.311255
vt 0.601918 0.311254
vt 0.222411 0.638104
vt 0.209192 0.638104
vt 0.209192 0.316112
vt 0.222411 0.316112
vt 0.311627 0.755955
vt 0.297119 0.755955
vt 0.297119 0.722890
vt 0.311627 0.722890
vt 0.397807 0.609821
vt 0.441204 0.609821
vt 0.441204 0.619472
vt 0.397807 0.619472
vt 0.351358 0.722890
vt 0.351358 0.766288
vt 0.341708 0.766288
vt 0.341708 0.722890
vt 0.691504 0.327881
vt 0.732439 0.327881
vt 0.732439 0.642495
vt 0.691504 0.642495
vt 0.322156 0.619306
vt 0.322156 0.578371
vt 0.335375 0.578371
vt 0.335375 0.619306
vt 0.873074 0.001796
vt 0.886293 0.001796
vt 0.886293 0.316414
vt 0.873075 0.316414
vt 0.163966 0.945436
vt 0.163966 0.630428
vt 0.173617 0.630428
vt 0.173617 0.945436
vt 0.324871 0.722890
vt 0.324871 0.766288
vt 0.315220 0.766288
vt 0.315220 0.722890
vt 0.410365 0.322733
vt 0.366968 0.322733
vt 0.366968 0.001796
vt 0.410365 0.001797
vt 0.350817 0.579643
vt 0.394214 0.579643
vt 0.394214 0.592861
vt 0.350817 0.592861
vt 0.838160 0.744931
vt 0.838162 0.001797
vt 0.852670 0.001796
vt 0.852670 0.744931
vt 0.933160 0.633056
vt 0.933160 0.940871
vt 0.923509 0.940871
vt 0.923509 0.633056
vt 0.565640 0.562832
vt 0.565640 0.878452
vt 0.552421 0.878452
vt 0.552421 0.562832
vt 0.820058 0.744931
vt 0.820059 0.001796
vt 0.834567 0.001796
vt 0.834567 0.744931
vt 0.350817 0.562832
vt 0.394214 0.562832
vt 0.394214 0.576050
vt 0.350817 0.576050
vt 0.775865 0.945185
vt 0.770643 0.945176
vt 0.770643 0.645963
vt 0.775865 0.645972
vt 0.272994 0.512248
vt 0.272994 0.468851
vt 0.586314 0.468851
vt 0.586314 0.512248
vt 0.160373 0.630428
vt 0.160373 0.941153
vt 0.148426 0.941153
vt 0.148427 0.630428
vt 0.536723 0.677270
vt 0.226004 0.677270
vt 0.226004 0.664052
vt 0.536723 0.664051
vt 0.816465 0.001796
vt 0.816465 0.744931
vt 0.801957 0.744931
vt 0.801955 0.001796
vt 0.783852 0.744931
vt 0.783854 0.001796
vt 0.798362 0.001796
vt 0.798362 0.744931
vt 0.269401 0.626835
vt 0.226004 0.626835
vt 0.226004 0.316112
vt 0.269401 0.316112
vt 0.551335 0.315117
vt 0.507938 0.315117
vt 0.507938 0.001796
vt 0.551335 0.001796
vt 0.186861 0.630428
vt 0.186861 0.938242
vt 0.177210 0.938242
vt 0.177210 0.630428
vt 0.869481 0.327381
vt 0.869481 0.648318
vt 0.856263 0.648318
vt 0.856263 0.327381
vt 0.338115 0.722890
vt 0.338115 0.766288
vt 0.328464 0.766288
vt 0.328464 0.722890
vt 0.363375 0.323788
vt 0.319981 0.324288
vt 0.319981 0.002296
vt 0.363375 0.001796
vt 0.481864 0.562832
vt 0.525261 0.562832
vt 0.525261 0.576050
vt 0.481864 0.576050
vt 0.597524 0.327881
vt 0.640921 0.327881
vt 0.640921 0.638604
vt 0.597524 0.638604
vt 0.919915 0.001796
vt 0.919915 0.312521
vt 0.906697 0.312521
vt 0.906697 0.001796
vt 0.075112 0.001796
vt 0.108176 0.001796
vt 0.108176 0.744952
vt 0.075111 0.744952
vt 0.318563 0.578371
vt 0.318563 0.621768
vt 0.305345 0.621768
vt 0.305345 0.578371
vt 0.519667 0.766288
vt 0.517792 0.766288
vt 0.517792 0.722890
vt 0.519667 0.722890
vt 0.350817 0.596454
vt 0.394214 0.596454
vt 0.394214 0.609673
vt 0.350817 0.609673
vt 0.662251 0.639291
vt 0.667527 0.639301
vt 0.667527 0.941567
vt 0.662251 0.941557
vt 0.886293 0.634495
vt 0.873074 0.634495
vt 0.873074 0.320007
vt 0.886293 0.320007
vt 0.301752 0.578371
vt 0.301752 0.621768
vt 0.288533 0.621768
vt 0.288533 0.578371
vt 0.723163 0.944753
vt 0.717950 0.944745
vt 0.717951 0.646088
vt 0.723163 0.646096
vt 0.272994 0.621522
vt 0.272994 0.562832
vt 0.284940 0.562832
vt 0.284940 0.621522
vt 0.293526 0.755955
vt 0.279018 0.755955
vt 0.279018 0.722890
vt 0.293526 0.722890
vt 0.347224 0.574778
vt 0.288533 0.574778
vt 0.288533 0.562832
vt 0.347224 0.562832
vt 0.415929 0.758722
vt 0.415929 0.763609
vt 0.402710 0.763609
vt 0.402710 0.758722
vt 0.209192 0.641697
vt 0.214424 0.641706
vt 0.214424 0.941457
vt 0.209192 0.941448
vt 0.368912 0.750229
vt 0.373813 0.750229
vt 0.373813 0.763448
vt 0.368912 0.763448
vt 0.758889 0.945244
vt 0.753665 0.945236
vt 0.753665 0.645963
vt 0.758889 0.645972
vt 0.736032 0.645963
vt 0.741255 0.645972
vt 0.741255 0.945244
vt 0.736032 0.945236
vt 0.486861 0.774761
vt 0.484986 0.774761
vt 0.484986 0.733826
vt 0.486861 0.733826
vt 0.623988 0.642197
vt 0.629215 0.642206
vt 0.629215 0.941666
vt 0.623988 0.941657
vt 0.537360 0.609821
vt 0.542274 0.609821
vt 0.542274 0.623040
vt 0.537360 0.623040
vt 0.235654 0.766317
vt 0.235654 0.771217
vt 0.226004 0.771217
vt 0.226004 0.766317
vt 0.993037 0.001796
vt 0.998204 0.001803
vt 0.998204 0.297824
vt 0.993037 0.297817
vt 0.744848 0.645963
vt 0.750072 0.645972
vt 0.750072 0.945244
vt 0.744848 0.945236
vt 0.695898 0.001796
vt 0.736833 0.001796
vt 0.736833 0.316410
vt 0.695898 0.316410
vt 0.714357 0.945310
vt 0.709135 0.945301
vt 0.709135 0.646088
vt 0.714358 0.646097
vt 0.519638 0.321009
vt 0.519638 0.322884
vt 0.476241 0.322884
vt 0.476241 0.321009
vt 0.963102 0.299221
vt 0.957910 0.299214
vt 0.957910 0.001796
vt 0.963102 0.001804
vt 0.923509 0.001796
vt 0.936727 0.001796
vt 0.936727 0.311253
vt 0.923508 0.311253
vt 0.644514 0.639291
vt 0.649790 0.639301
vt 0.649790 0.941567
vt 0.644514 0.941557
vt 0.534196 0.722890
vt 0.536070 0.722890
vt 0.536070 0.766288
vt 0.534196 0.766288
vt 0.566629 0.321009
vt 0.566629 0.322884
vt 0.523231 0.322884
vt 0.523231 0.321009
vt 0.530603 0.766288
vt 0.528728 0.766288
vt 0.528728 0.722890
vt 0.530603 0.722890
vt 0.010290 0.772157
vt 0.010290 0.762506
vt 0.015190 0.762506
vt 0.015190 0.772157
vt 0.523260 0.722890
vt 0.525135 0.722890
vt 0.525135 0.766288
vt 0.523260 0.766288
vt 0.941976 0.932338
vt 0.936753 0.932329
vt 0.936753 0.633056
vt 0.941976 0.633065
vt 0.593470 0.495845
vt 0.591595 0.495845
vt 0.591595 0.437155
vt 0.593470 0.437155
vt 0.018783 0.767407
vt 0.018783 0.762506
vt 0.028434 0.762506
vt 0.028434 0.767407
vt 0.945533 0.618672
vt 0.940320 0.618663
vt 0.940320 0.320007
vt 0.945533 0.320015
vt 0.377406 0.763448
vt 0.377406 0.750229
vt 0.382306 0.750229
vt 0.382306 0.763448
vt 0.356826 0.766288
vt 0.354951 0.766288
vt 0.354951 0.722890
vt 0.356826 0.722890
vt 0.658658 0.941567
vt 0.653382 0.941557
vt 0.653383 0.639291
vt 0.658658 0.639301
vt 0.449687 0.758722
vt 0.454587 0.758722
vt 0.454587 0.770669
vt 0.449687 0.770669
vt 0.338967 0.578385
vt 0.340842 0.578371
vt 0.340842 0.621769
vt 0.338968 0.621782
vt 0.762482 0.645963
vt 0.764356 0.645963
vt 0.764356 0.689360
vt 0.762482 0.689360
vt 0.644514 0.327881
vt 0.687911 0.327881
vt 0.687911 0.635698
vt 0.644514 0.635698
vt 0.998193 0.616034
vt 0.993026 0.616027
vt 0.993026 0.320007
vt 0.998193 0.320013
vt 0.257323 0.722890
vt 0.257323 0.755955
vt 0.242815 0.755955
vt 0.242815 0.722890
vt 0.403816 0.722890
vt 0.403816 0.724765
vt 0.360419 0.724765
vt 0.360419 0.722890
vt 0.399117 0.758722
vt 0.399117 0.763623
vt 0.385899 0.763623
vt 0.385899 0.758722
vt 0.474051 0.733826
vt 0.475925 0.733826
vt 0.475925 0.773659
vt 0.474051 0.773659
vt 0.254762 0.764448
vt 0.242815 0.764448
vt 0.242815 0.759548
vt 0.254762 0.759548
vt 0.975479 0.001796
vt 0.980670 0.001804
vt 0.980670 0.299219
vt 0.975479 0.299211
vt 0.696726 0.945310
vt 0.691504 0.945301
vt 0.691504 0.646088
vt 0.696726 0.646097
vt 0.094958 0.757039
vt 0.099858 0.757039
vt 0.099858 0.770257
vt 0.094958 0.770257
vt 0.001796 0.750420
vt 0.001796 0.748546
vt 0.041630 0.748545
vt 0.041630 0.750420
vt 0.045223 0.750420
vt 0.045223 0.748546
vt 0.085056 0.748545
vt 0.085056 0.750420
vt 0.079196 0.754013
vt 0.084096 0.754013
vt 0.084096 0.767232
vt 0.079196 0.767232
vt 0.980660 0.616823
vt 0.975479 0.616816
vt 0.975479 0.320007
vt 0.980660 0.320014
vt 0.001796 0.762506
vt 0.006697 0.762506
vt 0.006697 0.772157
vt 0.001796 0.772157
vt 0.468583 0.733826
vt 0.470458 0.733826
vt 0.470458 0.773659
vt 0.468583 0.773659
vt 0.450806 0.722890
vt 0.450806 0.724765
vt 0.407409 0.724765
vt 0.407409 0.722890
vt 0.464990 0.763856
vt 0.460090 0.763856
vt 0.460090 0.750637
vt 0.464990 0.750637
vt 0.664202 0.322884
vt 0.664202 0.321009
vt 0.707599 0.321009
vt 0.707599 0.322884
vt 0.598325 0.001796
vt 0.598325 0.312519
vt 0.554928 0.312519
vt 0.554928 0.001796
vt 0.949126 0.320007
vt 0.954318 0.320014
vt 0.954318 0.617431
vt 0.949126 0.617424
vt 0.018608 0.758913
vt 0.018608 0.754013
vt 0.031826 0.754013
vt 0.031826 0.758913
vt 0.050123 0.767232
vt 0.045223 0.767232
vt 0.045223 0.754013
vt 0.050123 0.754013
vt 0.497796 0.728358
vt 0.497796 0.730233
vt 0.454399 0.730233
vt 0.454399 0.728358
vt 0.660609 0.321009
vt 0.660609 0.322884
vt 0.617212 0.322884
vt 0.617212 0.321009
vt 0.950761 0.930481
vt 0.945569 0.930473
vt 0.945569 0.633056
vt 0.950761 0.633064
vt 0.269401 0.312519
vt 0.210710 0.312519
vt 0.210710 0.001796
vt 0.269401 0.001796
vt 0.131615 0.761938
vt 0.131615 0.757038
vt 0.144834 0.757038
vt 0.144834 0.761938
vt 0.528854 0.623040
vt 0.528854 0.609821
vt 0.533767 0.609821
vt 0.533767 0.623040
vt 0.403816 0.739294
vt 0.403816 0.741168
vt 0.360419 0.741168
vt 0.360419 0.739294
vt 0.971886 0.299220
vt 0.966694 0.299213
vt 0.966695 0.001796
vt 0.971886 0.001804
vt 0.407409 0.746636
vt 0.407409 0.744761
vt 0.448344 0.744761
vt 0.448344 0.746636
vt 0.454425 0.755129
vt 0.441207 0.755129
vt 0.441207 0.750229
vt 0.454425 0.750229
vt 0.108176 0.748545
vt 0.108176 0.753446
vt 0.094958 0.753446
vt 0.094958 0.748545
vt 0.497796 0.777223
vt 0.495922 0.777223
vt 0.495922 0.733826
vt 0.497796 0.733826
vt 0.403816 0.733826
vt 0.403816 0.735701
vt 0.360419 0.735701
vt 0.360419 0.733826
vt 0.420628 0.750229
vt 0.420628 0.755129
vt 0.407409 0.755129
vt 0.407409 0.750229
vt 0.963138 0.633056
vt 0.968329 0.633064
vt 0.968329 0.930480
vt 0.963138 0.930472
vt 0.597524 0.642197
vt 0.602756 0.642206
vt 0.602756 0.941957
vt 0.597524 0.941948
vt 0.454399 0.724765
vt 0.454399 0.722890
vt 0.497796 0.722890
vt 0.497796 0.724765
vt 0.403816 0.744761
vt 0.403816 0.746636
vt 0.360419 0.746636
vt 0.360419 0.744761
vt 0.144834 0.748545
vt 0.144834 0.753445
vt 0.131615 0.753445
vt 0.131615 0.748545
vt 0.040319 0.767232
vt 0.035419 0.767232
vt 0.035419 0.754013
vt 0.040319 0.754013
vt 0.949126 0.001796
vt 0.954317 0.001804
vt 0.954317 0.299221
vt 0.949126 0.299214
vt 0.615169 0.642197
vt 0.620395 0.642206
vt 0.620395 0.941666
vt 0.615168 0.941658
vt 0.062209 0.767232
vt 0.062209 0.754013
vt 0.067110 0.754013
vt 0.067110 0.767232
vt 0.407409 0.741168
vt 0.407409 0.739294
vt 0.450806 0.739294
vt 0.450806 0.741168
vt 0.360419 0.730233
vt 0.360419 0.728358
vt 0.403816 0.728358
vt 0.403816 0.730233
vt 0.591595 0.374871
vt 0.593470 0.374871
vt 0.593470 0.433562
vt 0.591595 0.433562
vt 0.700319 0.646088
vt 0.705542 0.646097
vt 0.705542 0.945310
vt 0.700319 0.945301
vt 0.638035 0.941666
vt 0.632808 0.941657
vt 0.632808 0.642197
vt 0.638035 0.642206
vt 0.407409 0.735701
vt 0.407409 0.733826
vt 0.450806 0.733826
vt 0.450806 0.735701
vt 0.458015 0.609822
vt 0.458015 0.614722
vt 0.444797 0.614722
vt 0.444797 0.609821
vt 0.413958 0.322884
vt 0.413958 0.321009
vt 0.472648 0.321009
vt 0.472648 0.322884
vt 0.128022 0.753445
vt 0.114804 0.753445
vt 0.114804 0.748545
vt 0.128022 0.748545
vt 0.762482 0.692953
vt 0.764356 0.692953
vt 0.764356 0.736351
vt 0.762482 0.736351
vt 0.957911 0.320007
vt 0.963102 0.320014
vt 0.963102 0.617430
vt 0.957911 0.617423
vt 0.114804 0.761938
vt 0.114804 0.757038
vt 0.128022 0.757038
vt 0.128022 0.761938
vt 0.148427 0.316112
vt 0.191824 0.316112
vt 0.191824 0.626835
vt 0.148426 0.626835
vt 0.103451 0.757039
vt 0.108351 0.757039
vt 0.108351 0.770257
vt 0.103451 0.770257
vt 0.984263 0.001796
vt 0.989444 0.001804
vt 0.989444 0.298613
vt 0.984263 0.298606
vt 0.971922 0.633056
vt 0.977113 0.633064
vt 0.977113 0.930479
vt 0.971922 0.930471
vt 0.989433 0.616823
vt 0.984253 0.616816
vt 0.984253 0.320007
vt 0.989433 0.320014
vt 0.613619 0.321009
vt 0.613619 0.322884
vt 0.570222 0.322884
vt 0.570222 0.321009
vt 0.114804 0.770432
vt 0.114804 0.765531
vt 0.124454 0.765531
vt 0.124454 0.770432
vt 0.645315 0.314847
vt 0.645315 0.316722
vt 0.601918 0.316722
vt 0.601918 0.314847
vt 0.373663 0.767041
vt 0.378563 0.767040
vt 0.378563 0.776691
vt 0.373663 0.776691
vt 0.131615 0.765531
vt 0.136515 0.765531
vt 0.136515 0.775182
vt 0.131615 0.775182
vt 0.692305 0.309613
vt 0.648908 0.309613
vt 0.648908 0.001796
vt 0.692305 0.001797
vt 0.402710 0.767202
vt 0.407610 0.767202
vt 0.407610 0.776853
vt 0.402710 0.776853
vt 0.501389 0.722890
vt 0.503264 0.722890
vt 0.503264 0.766288
vt 0.501389 0.766288
vt 0.514199 0.766288
vt 0.512325 0.766288
vt 0.512325 0.722890
vt 0.514199 0.722890
vt 0.299085 0.759548
vt 0.299085 0.764448
vt 0.289434 0.764448
vt 0.289434 0.759548
vt 0.985887 0.929873
vt 0.980706 0.929865
vt 0.980706 0.633056
vt 0.985887 0.633063
vt 0.940320 0.001796
vt 0.945533 0.001805
vt 0.945533 0.300462
vt 0.940320 0.300453
vt 0.495082 0.624171
vt 0.495082 0.626046
vt 0.451685 0.626046
vt 0.451685 0.624171
vt 0.399117 0.755129
vt 0.385899 0.755129
vt 0.385899 0.750229
vt 0.399117 0.750229
vt 0.450806 0.728358
vt 0.450806 0.730233
vt 0.407409 0.730233
vt 0.407409 0.728358
vt 0.038454 0.001796
vt 0.071519 0.001797
vt 0.071519 0.744952
vt 0.038454 0.744952
vt 0.433871 0.767040
vt 0.433871 0.771941
vt 0.424221 0.771941
vt 0.424221 0.767041
vt 0.971886 0.617430
vt 0.966695 0.617423
vt 0.966695 0.320007
vt 0.971886 0.320014
vt 0.465052 0.614722
vt 0.465052 0.609821
vt 0.478271 0.609821
vt 0.478271 0.614722
vt 0.648908 0.316722
vt 0.648908 0.314847
vt 0.692305 0.314847
vt 0.692305 0.316722
vt 0.508732 0.766288
vt 0.506857 0.766288
vt 0.506857 0.722890
vt 0.508732 0.722890
vt 0.058616 0.767232
vt 0.053716 0.767232
vt 0.053716 0.754013
vt 0.058616 0.754013
vt 0.272994 0.327881
vt 0.593931 0.327881
vt 0.593931 0.371278
vt 0.272994 0.371278
vt 0.606349 0.642197
vt 0.611576 0.642206
vt 0.611576 0.941666
vt 0.606349 0.941658
vt 0.346310 0.578385
vt 0.346310 0.621783
vt 0.344435 0.621769
vt 0.344435 0.578371
vt 0.360419 0.771941
vt 0.360419 0.767040
vt 0.370070 0.767040
vt 0.370070 0.771941
vt 0.545069 0.690637
vt 0.545069 0.647240
vt 0.546943 0.647253
vt 0.546943 0.690650
vt 0.446094 0.771941
vt 0.441207 0.771941
vt 0.441207 0.758722
vt 0.446094 0.758722
vt 0.906697 0.634382
vt 0.911981 0.634324
vt 0.911981 0.937103
vt 0.906698 0.937161
vt 0.200700 0.937492
vt 0.195416 0.937550
vt 0.195416 0.634771
vt 0.200700 0.634713
vt 0.285841 0.764448
vt 0.273894 0.764448
vt 0.273894 0.759548
vt 0.285841 0.759548
vt 0.591329 0.515903
vt 0.591329 0.818681
vt 0.586045 0.818620
vt 0.586045 0.515841
vt 0.219892 0.685094
vt 0.218017 0.685108
vt 0.218017 0.641711
vt 0.219892 0.641697
vt 0.441204 0.623065
vt 0.441204 0.624940
vt 0.397807 0.624940
vt 0.397807 0.623065
vt 0.316388 0.002296
vt 0.316388 0.324288
vt 0.272994 0.323789
vt 0.272994 0.001796
vt 0.889886 0.937098
vt 0.889886 0.634318
vt 0.895170 0.634380
vt 0.895170 0.937159
vt 0.685177 0.939052
vt 0.679945 0.939043
vt 0.679945 0.639291
vt 0.685177 0.639300
vt 0.302678 0.769199
vt 0.302678 0.759548
vt 0.307578 0.759548
vt 0.307578 0.769199
vt 0.148427 0.001796
vt 0.207117 0.001796
vt 0.207117 0.312519
vt 0.148426 0.312519
vt 0.464990 0.747044
vt 0.460090 0.747044
vt 0.460090 0.733826
vt 0.464990 0.733826
vt 0.878350 0.940365
vt 0.873074 0.940354
vt 0.873074 0.638088
vt 0.878350 0.638098
vt 0.861454 0.949336
vt 0.856263 0.949328
vt 0.856263 0.651911
vt 0.861454 0.651919
vt 0.429121 0.763448
vt 0.424221 0.763448
vt 0.424221 0.750229
vt 0.429121 0.750229
vt 0.546954 0.562832
vt 0.548828 0.562832
vt 0.548828 0.621522
vt 0.546954 0.621522
vt 0.219892 0.732098
vt 0.218017 0.732098
vt 0.218017 0.688701
vt 0.219892 0.688701
vt 0.070703 0.754013
vt 0.075603 0.754013
vt 0.075603 0.767232
vt 0.070703 0.767232
vt 0.671120 0.639291
vt 0.676352 0.639300
vt 0.676352 0.939052
vt 0.671120 0.939043
vt 0.954354 0.633056
vt 0.959545 0.633064
vt 0.959545 0.930481
vt 0.954354 0.930473
vt 0.492329 0.774761
vt 0.490454 0.774761
vt 0.490454 0.733826
vt 0.492329 0.733826
vt 0.479518 0.733826
vt 0.481393 0.733826
vt 0.481393 0.774761
vt 0.479518 0.774761
vn 0.1900 -0.6237 0.7582
vn 0.1900 0.6237 0.7582
vn -0.1900 -0.6237 0.7582
vn -0.1900 0.6237 0.7582
vn 0.1900 -0.6237 -0.7582
vn 0.1900 0.6237 -0.7582
vn -0.1900 -0.6237 -0.7582
vn -0.1900 0.6237 -0.7582
vn 0.1903 -0.6247 0.7573
vn 0.1903 0.6247 0.7573
vn -0.1897 -0.6227 0.7591
vn -0.1897 0.6227 0.7591
vn 0.1897 -0.6227 -0.7591
vn 0.1897 0.6227 -0.7591
vn -0.1903 -0.6248 -0.7573
vn -0.1903 0.6248 -0.7573
vn -1.0000 0.0000 0.0000
vn 0.0000 0.0000 -1.0000
vn 0.0000 0.0000 1.0000
vn -0.2914 0.9566 -0.0000
vn 0.9999 0.0000 -0.0115
vn -0.2914 -0.9566 0.0000
vn 1.0000 0.0000 0.0000
vn 0.0000 1.0000 -0.0000
vn -0.2430 0.0000 -0.9700
vn 0.0000 -1.0000 0.0000
vn 0.2914 -0.9566 0.0000
vn 0.2430 0.0000 0.9700
vn -0.2430 0.0000 0.9700
vn -0.9999 0.0000 0.0115
vn -0.0000 -0.6353 -0.7723
vn 0.2437 0.0000 0.9698
vn 0.2431 0.0000 0.9700
vn 0.2914 0.9566 -0.0000
vn 0.2424 0.0000 -0.9702
vn 0.2430 0.0000 -0.9700
vn 0.0000 -0.6353 0.7723
vn 0.0000 0.6353 0.7723
vn 0.0000 0.6353 -0.7723
vn -0.2424 0.0000 0.9702
vn -0.2431 0.0000 0.9700
vn -0.2437 0.0000 -0.9698
vn -0.2914 0.9566 0.0034
vn 0.2914 0.9566 -0.0034
vn -0.2914 -0.9566 0.0034
vn 0.2914 -0.9566 -0.0034
g Footbridge_Footbridge_Collor_Material
usemtl Collor_Material
s off
f 17/1/1 18/2/1 19/3/1
f 20/4/2 21/5/2 22/6/2
f 23/7/3 24/8/3 25/9/3
f 26/10/4 27/11/4 28/12/4
f 29/13/5 30/14/5 31/15/5
f 32/16/6 33/17/6 34/18/6
f 35/19/7 36/20/7 37/21/7
f 38/22/8 39/23/8 40/24/8
f 41/25/1 42/26/1 43/27/1
f 44/28/2 45/29/2 46/30/2
f 47/31/3 48/32/3 49/33/3
f 50/34/4 51/35/4 52/36/4
f 53/37/5 54/38/5 55/39/5
f 56/40/6 57/41/6 58/42/6
f 59/43/7 60/44/7 61/45/7
f 62/46/8 63/47/8 64/48/8
f 65/49/1 66/50/1 67/51/1
f 68/52/2 69/53/2 70/54/2
f 71/55/3 72/56/3 73/57/3
f 74/58/4 75/59/4 76/60/4
f 77/61/5 78/62/5 79/63/5
f 80/64/6 81/65/6 82/66/6
f 83/67/7 84/68/7 85/69/7
f 86/70/8 87/71/8 88/72/8
f 89/73/1 90/74/1 91/75/1
f 92/76/2 93/77/2 94/78/2
f 95/79/3 96/80/3 97/81/3
f 98/82/4 99/83/4 100/84/4
f 101/85/5 102/86/5 103/87/5
f 104/88/6 105/89/6 106/90/6
f 107/91/7 108/92/7 109/93/7
f 110/94/8 111/95/8 112/96/8
f 113/97/1 114/98/1 115/99/1
f 116/100/2 117/101/2 118/102/2
f 119/103/3 120/104/3 121/105/3
f 122/106/4 123/107/4 124/108/4
f 125/109/5 126/110/5 127/111/5
f 128/112/6 129/113/6 130/114/6
f 131/115/7 132/116/7 133/117/7
f 134/118/8 135/119/8 136/120/8
f 137/121/1 138/122/1 139/123/1
f 140/124/2 141/125/2 142/126/2
f 143/127/3 144/128/3 145/129/3
f 146/130/4 147/131/4 148/132/4
f 149/133/5 150/134/5 151/135/5
f 152/136/6 153/137/6 154/138/6
f 155/139/7 156/140/7 157/141/7
f 158/142/8 159/143/8 160/144/8
f 161/145/1 162/146/1 163/147/1
f 164/148/2 165/149/2 166/150/2
f 167/151/3 168/152/3 169/153/3
f 170/154/4 171/155/4 172/156/4
f 173/157/5 174/158/5 175/159/5
f 176/160/6 177/161/6 178/162/6
f 179/163/7 180/164/7 181/165/7
f 182/166/8 183/167/8 184/168/8
f 185/169/1 186/170/1 187/171/1
f 188/172/2 189/173/2 190/174/2
f 191/175/3 192/176/3 193/177/3
f 194/178/4 195/179/4 196/180/4
f 197/181/5 198/182/5 199/183/5
f 200/184/6 201/185/6 202/186/6
f 203/187/7 204/188/7 205/189/7
f 206/190/8 207/191/8 208/192/8
f 209/193/1 210/194/1 211/195/1
f 212/196/2 213/197/2 214/198/2
f 215/199/3 216/200/3 217/201/3
f 218/202/4 219/203/4 220/204/4
f 221/205/5 222/206/5 223/207/5
f 224/208/6 225/209/6 226/210/6
f 227/211/7 228/212/7 229/213/7
f 230/214/8 231/215/8 232/216/8
f 233/217/1 234/218/1 235/219/1
f 236/220/2 237/221/2 238/222/2
f 239/223/3 240/224/3 241/225/3
f 242/226/4 243/227/4 244/228/4
f 245/229/5 246/230/5 247/231/5
f 248/232/6 249/233/6 250/234/6
f 251/235/7 252/236/7 253/237/7
f 254/238/8 255/239/8 256/240/8
f 257/241/9 258/242/9 259/243/9
f 260/244/10 261/245/10 262/246/10
f 263/247/11 264/248/11 265/249/11
f 266/250/12 267/251/12 268/252/12
f 269/253/13 270/254/13 271/255/13
f 272/256/14 273/257/14 274/258/14
f 275/259/15 276/260/15 277/261/15
f 278/262/16 279/263/16 280/264/16
f 281/265/1 282/266/1 283/267/1
f 284/268/2 285/269/2 286/270/2
f 287/271/3 288/272/3 289/273/3
f 290/274/4 291/275/4 292/276/4
f 293/277/5 294/278/5 295/279/5
f 296/280/6 297/281/6 298/282/6
f 299/283/7 300/284/7 301/285/7
f 302/286/8 303/287/8 304/288/8
f 228/289/17 217/290/17 219/291/17 232/292/17
f 222/293/18 229/294/18 231/295/18 226/296/18
f 84/297/17 73/298/17 75/299/17 88/300/17
f 192/301/19 187/302/19 190/303/19 196/304/19
f 51/305/20 50/306/20 62/307/20 64/308/20
f 258/309/21 271/310/21 273/311/21 260/312/21
f 60/313/22 59/314/22 47/315/22 49/316/22
f 168/317/19 163/318/19 166/319/19 172/320/19
f 90/321/23 103/322/23 105/323/23 92/324/23
f 176/325/24 182/326/24 170/327/24 165/328/24
f 14/329/24 16/330/24 12/331/24 10/332/24
f 162/333/23 175/334/23 177/335/23 164/336/23
f 36/337/17 25/338/17 27/339/17 40/340/17
f 152/341/24 158/342/24 146/343/24 141/344/24
f 112/345/25 111/346/25 109/347/25 108/348/25
f 24/349/19 19/350/19 22/351/19 28/352/19
f 161/353/26 167/354/26 179/355/26 173/356/26
f 212/357/23 210/358/23 223/359/23 225/360/23
f 140/361/23 138/362/23 151/363/23 153/364/23
f 120/365/19 115/366/19 118/367/19 124/368/19
f 210/369/27 209/370/27 221/371/27 223/372/27
f 283/373/28 282/374/28 284/375/28 286/376/28
f 137/377/26 143/378/26 155/379/26 149/380/26
f 234/381/23 247/382/23 249/383/23 236/384/23
f 114/385/23 127/386/23 129/387/23 116/388/23
f 89/389/26 95/390/26 107/391/26 101/392/26
f 96/393/19 91/394/19 94/395/19 100/396/19
f 40/397/25 39/398/25 37/399/25 36/400/25
f 104/401/24 110/402/24 98/403/24 93/404/24
f 300/405/17 289/406/17 291/407/17 304/408/17
f 9/409/26 11/410/26 15/411/26 13/412/26
f 172/413/29 171/414/29 169/415/29 168/416/29
f 102/417/18 109/418/18 111/419/18 106/420/18
f 113/421/26 119/422/26 131/423/26 125/424/26
f 72/425/19 67/426/19 70/427/19 76/428/19
f 5/429/23 7/430/23 8/431/23 6/432/23
f 252/433/17 241/434/17 243/435/17 256/436/17
f 78/437/18 85/438/18 87/439/18 82/440/18
f 126/441/18 133/442/18 135/443/18 130/444/18
f 48/445/19 43/446/19 46/447/19 52/448/19
f 128/449/24 134/450/24 122/451/24 117/452/24
f 280/453/30 276/454/30 265/455/30 267/456/30
f 4/457/17 3/458/17 1/459/17 2/460/17
f 54/461/18 61/462/18 63/463/18 58/464/18
f 150/465/18 157/466/18 159/467/18 154/468/18
f 32/469/24 38/470/24 26/471/24 21/472/24
f 30/473/18 37/474/18 39/475/18 34/476/18
f 20/477/23 18/478/23 31/479/23 33/480/23
f 156/481/17 145/482/17 147/483/17 160/484/17
f 144/485/19 139/486/19 142/487/19 148/488/19
f 65/489/26 71/490/26 83/491/26 77/492/26
f 174/493/18 181/494/18 183/495/18 178/496/18
f 9/497/19 13/498/19 14/499/19 10/500/19
f 42/501/23 55/502/23 57/503/23 44/504/23
f 180/505/17 169/506/17 171/507/17 184/508/17
f 15/509/18 11/510/18 12/511/18 16/512/18
f 198/513/18 205/514/18 207/515/18 202/516/18
f 99/517/20 98/518/20 110/519/20 112/520/20
f 209/521/26 215/522/26 227/523/26 221/524/26
f 282/525/23 295/526/23 297/527/23 284/528/23
f 186/529/23 199/530/23 201/531/23 188/532/23
f 1/533/19 5/534/19 6/535/19 2/536/19
f 7/537/18 3/538/18 4/539/18 8/540/18
f 233/541/26 239/542/26 251/543/26 245/544/26
f 224/545/24 230/546/24 218/547/24 213/548/24
f 60/549/17 49/550/17 51/551/17 64/552/17
f 66/553/23 79/554/23 81/555/23 68/556/23
f 216/557/19 211/558/19 214/559/19 220/560/19
f 272/561/24 278/562/24 266/563/24 261/564/24
f 246/565/18 253/566/18 255/567/18 250/568/18
f 248/569/24 254/570/24 242/571/24 237/572/24
f 204/573/17 193/574/17 195/575/17 208/576/17
f 1/577/26 3/578/26 7/579/26 5/580/26
f 240/581/19 235/582/19 238/583/19 244/584/19
f 198/585/31 197/586/31 203/587/31 205/588/31
f 270/589/18 277/590/18 279/591/18 274/592/18
f 66/593/27 65/594/27 77/595/27 79/596/27
f 112/597/17 108/598/17 97/599/17 99/600/17
f 264/601/19 259/602/19 262/603/19 268/604/19
f 228/605/22 227/606/22 215/607/22 217/608/22
f 294/609/18 301/610/18 303/611/18 298/612/18
f 12/613/17 11/614/17 9/615/17 10/616/17
f 288/617/19 283/618/19 286/619/19 292/620/19
f 259/621/32 258/622/32 260/623/32 262/624/32
f 180/625/22 179/626/22 167/627/22 169/628/22
f 19/629/33 18/630/33 20/631/33 22/632/33
f 33/633/34 32/634/34 21/635/34 20/636/34
f 18/637/27 17/638/27 29/639/27 31/640/27
f 30/641/31 29/642/31 35/643/31 37/644/31
f 138/645/27 137/646/27 149/647/27 151/648/27
f 274/649/35 273/650/35 271/651/35 270/652/35
f 226/653/36 225/654/36 223/655/36 222/656/36
f 42/657/27 41/658/27 53/659/27 55/660/27
f 27/661/20 26/662/20 38/663/20 40/664/20
f 17/665/26 23/666/26 35/667/26 29/668/26
f 105/669/34 104/670/34 93/671/34 92/672/34
f 48/673/37 47/674/37 41/675/37 43/676/37
f 249/677/34 248/678/34 237/679/34 236/680/34
f 136/681/17 132/682/17 121/683/17 123/684/17
f 81/685/34 80/686/34 69/687/34 68/688/34
f 70/689/38 69/690/38 74/691/38 76/692/38
f 46/693/38 45/694/38 50/695/38 52/696/38
f 54/697/31 53/698/31 59/699/31 61/700/31
f 60/701/25 64/702/25 63/703/25 61/704/25
f 192/705/37 191/706/37 185/707/37 187/708/37
f 36/709/22 35/710/22 23/711/22 25/712/22
f 286/713/38 285/714/38 290/715/38 292/716/38
f 154/717/36 153/718/36 151/719/36 150/720/36
f 225/721/34 224/722/34 213/723/34 212/724/34
f 180/725/25 184/726/25 183/727/25 181/728/25
f 72/729/37 71/730/37 65/731/37 67/732/37
f 84/733/22 83/734/22 71/735/22 73/736/22
f 298/737/36 297/738/36 295/739/36 294/740/36
f 264/741/37 263/742/37 257/743/37 259/744/37
f 78/745/31 77/746/31 83/747/31 85/748/31
f 41/749/26 47/750/26 59/751/26 53/752/26
f 57/753/34 56/754/34 45/755/34 44/756/34
f 13/757/23 15/758/23 16/759/23 14/760/23
f 63/761/39 62/762/39 56/763/39 58/764/39
f 187/765/28 186/766/28 188/767/28 190/768/28
f 96/769/37 95/770/37 89/771/37 91/772/37
f 288/773/29 292/774/29 291/775/29 289/776/29
f 186/777/27 185/778/27 197/779/27 199/780/27
f 108/781/22 107/782/22 95/783/22 97/784/22
f 106/785/36 105/786/36 103/787/36 102/788/36
f 94/789/38 93/790/38 98/791/38 100/792/38
f 102/793/31 101/794/31 107/795/31 109/796/31
f 208/797/25 207/798/25 205/799/25 204/800/25
f 114/801/27 113/802/27 125/803/27 127/804/27
f 220/805/29 219/806/29 217/807/29 216/808/29
f 111/809/39 110/810/39 104/811/39 106/812/39
f 120/813/37 119/814/37 113/815/37 115/816/37
f 115/817/33 114/818/33 116/819/33 118/820/33
f 118/821/38 117/822/38 122/823/38 124/824/38
f 189/825/24 200/826/24 206/827/24 194/828/24
f 282/829/27 281/830/27 293/831/27 295/832/27
f 124/833/29 123/834/29 121/835/29 120/836/29
f 136/837/25 135/838/25 133/839/25 132/840/25
f 126/841/31 125/842/31 131/843/31 133/844/31
f 135/845/39 134/846/39 128/847/39 130/848/39
f 297/849/34 296/850/34 285/851/34 284/852/34
f 296/853/24 302/854/24 290/855/24 285/856/24
f 130/857/36 129/858/36 127/859/36 126/860/36
f 264/861/40 268/862/40 267/863/40 265/864/40
f 144/865/37 143/866/37 137/867/37 139/868/37
f 204/869/22 203/870/22 191/871/22 193/872/22
f 22/873/38 21/874/38 26/875/38 28/876/38
f 192/877/29 196/878/29 195/879/29 193/880/29
f 67/881/28 66/882/28 68/883/28 70/884/28
f 142/885/38 141/886/38 146/887/38 148/888/38
f 150/889/31 149/890/31 155/891/31 157/892/31
f 91/893/28 90/894/28 92/895/28 94/896/28
f 195/897/20 194/898/20 206/899/20 208/900/20
f 171/901/20 170/902/20 182/903/20 184/904/20
f 159/905/39 158/906/39 152/907/39 154/908/39
f 168/909/37 167/910/37 161/911/37 163/912/37
f 163/913/28 162/914/28 164/915/28 166/916/28
f 256/917/25 255/918/25 253/919/25 252/920/25
f 234/921/27 233/922/27 245/923/27 247/924/27
f 147/925/20 146/926/20 158/927/20 160/928/20
f 240/929/29 244/930/29 243/931/29 241/932/29
f 166/933/38 165/934/38 170/935/38 172/936/38
f 174/937/31 173/938/31 179/939/31 181/940/31
f 288/941/37 287/942/37 281/943/37 283/944/37
f 90/945/27 89/946/27 101/947/27 103/948/27
f 153/949/34 152/950/34 141/951/34 140/952/34
f 190/953/38 189/954/38 194/955/38 196/956/38
f 235/957/28 234/958/28 236/959/28 238/960/28
f 294/961/31 293/962/31 299/963/31 301/964/31
f 72/965/29 76/966/29 75/967/29 73/968/29
f 207/969/39 206/970/39 200/971/39 202/972/39
f 243/973/20 242/974/20 254/975/20 256/976/20
f 34/977/36 33/978/36 31/979/36 30/980/36
f 185/981/26 191/982/26 203/983/26 197/984/26
f 202/985/36 201/986/36 199/987/36 198/988/36
f 132/989/22 131/990/22 119/991/22 121/992/22
f 201/993/34 200/994/34 189/995/34 188/996/34
f 123/997/20 122/998/20 134/999/20 136/1000/20
f 183/1001/39 182/1002/39 176/1003/39 178/1004/39
f 58/1005/36 57/1006/36 55/1007/36 54/1008/36
f 216/1009/37 215/1010/37 209/1011/37 211/1012/37
f 211/1013/28 210/1014/28 212/1015/28 214/1016/28
f 52/1017/29 51/1018/29 49/1019/29 48/1020/29
f 56/1021/24 62/1022/24 50/1023/24 45/1024/24
f 148/1025/29 147/1026/29 145/1027/29 144/1028/29
f 214/1029/38 213/1030/38 218/1031/38 220/1032/38
f 222/1033/31 221/1034/31 227/1035/31 229/1036/31
f 232/1037/25 231/1038/25 229/1039/25 228/1040/25
f 129/1041/34 128/1042/34 117/1043/34 116/1044/34
f 219/1045/20 218/1046/20 230/1047/20 232/1048/20
f 231/1049/39 230/1050/39 224/1051/39 226/1052/39
f 96/1053/29 100/1054/29 99/1055/29 97/1056/29
f 240/1057/37 239/1058/37 233/1059/37 235/1060/37
f 6/1061/24 8/1062/24 4/1063/24 2/1064/24
f 43/1065/28 42/1066/28 44/1067/28 46/1068/28
f 252/1069/22 251/1070/22 239/1071/22 241/1072/22
f 250/1073/36 249/1074/36 247/1075/36 246/1076/36
f 238/1077/38 237/1078/38 242/1079/38 244/1080/38
f 246/1081/31 245/1082/31 251/1083/31 253/1084/31
f 28/1085/41 27/1086/41 25/1087/41 24/1088/41
f 69/1089/24 80/1090/24 86/1091/24 74/1092/24
f 156/1093/22 155/1094/22 143/1095/22 145/1096/22
f 268/1097/38 262/1098/38 261/1099/38 266/1100/38
f 139/1101/28 138/1102/28 140/1103/28 142/1104/28
f 274/1105/39 279/1106/39 278/1107/39 272/1108/39
f 280/1109/42 279/1110/42 277/1111/42 276/1112/42
f 267/1113/43 266/1114/43 278/1115/43 280/1116/43
f 273/1117/44 272/1118/44 261/1119/44 260/1120/44
f 300/1121/25 304/1122/25 303/1123/25 301/1124/25
f 265/1125/45 276/1126/45 275/1127/45 263/1128/45
f 270/1129/31 269/1130/31 275/1131/31 277/1132/31
f 255/1133/39 254/1134/39 248/1135/39 250/1136/39
f 269/1137/26 257/1138/26 263/1139/26 275/1140/26
f 271/1141/46 258/1142/46 257/1143/46 269/1144/46
f 177/1145/34 176/1146/34 165/1147/34 164/1148/34
f 156/1149/25 160/1150/25 159/1151/25 157/1152/25
f 281/1153/26 287/1154/26 299/1155/26 293/1156/26
f 178/1157/36 177/1158/36 175/1159/36 174/1160/36
f 75/1161/20 74/1162/20 86/1163/20 88/1164/20
f 300/1165/22 299/1166/22 287/1167/22 289/1168/22
f 88/1169/25 87/1170/25 85/1171/25 84/1172/25
f 303/1173/39 302/1174/39 296/1175/39 298/1176/39
f 87/1177/39 86/1178/39 80/1179/39 82/1180/39
f 82/1181/36 81/1182/36 79/1183/36 78/1184/36
f 162/1185/27 161/1186/27 173/1187/27 175/1188/27
f 291/1189/20 290/1190/20 302/1191/20 304/1192/20
f 24/1193/37 23/1194/37 17/1195/37 19/1196/37
f 39/1197/39 38/1198/39 32/1199/39 34/1200/39
