# Blender v3.0.0 OBJ File: 'aa.blend'
# www.blender.org
mtllib Island_3.mtl
o Island_3
v -5.020292 -0.031080 -1.239190
v -3.745357 -0.031080 -3.737299
v 0.050179 -0.031081 -4.934287
v 3.855782 -0.031080 -3.095719
v -3.218135 -0.031079 1.711387
v 0.732304 -0.031079 3.130477
v 3.526766 -0.031078 3.792605
v 5.367374 -0.031079 0.794417
v 3.510535 4.299053 0.361775
v 2.402120 4.299054 2.230074
v 0.492720 4.299054 1.936289
v 2.562483 4.299053 -2.147013
v 0.094862 4.299052 -3.326751
v -2.340586 4.299052 -2.604440
v -1.991505 4.299054 0.916093
v -3.182009 4.299054 -0.943636
v 0.645776 3.293684 2.555842
v 2.991401 3.293684 3.111622
v -2.670158 3.293683 1.364682
v -3.112700 3.293682 -3.208855
v 3.267571 3.293682 -2.670323
v -4.182858 3.293683 -1.111984
v 0.073211 3.293682 -4.213587
v 4.536377 3.293684 0.594993
v -4.505375 -0.031079 0.337921
v -4.766177 -0.031080 -2.607612
v -2.027153 -0.031081 -4.617743
v 2.105587 -0.031080 -4.394088
v -1.274431 -0.031079 2.537642
v 2.269645 -0.031078 3.751048
v 4.709331 -0.031079 2.675254
v 5.037193 -0.031080 -1.260029
v -0.658276 4.332962 1.273556
v -1.066793 4.332961 -2.826030
v 2.778535 4.332962 1.297232
v -2.625110 4.332961 -1.685195
v -2.471970 4.332962 -0.009825
v 1.279161 4.332961 -2.674397
v 2.935279 4.332962 -0.899162
v 1.377795 4.332963 1.946213
v 0.683758 1.834239 2.808085
v 2.801519 4.057093 2.843899
v -2.460821 4.057092 1.228423
v -2.873278 4.057091 -3.016912
v 3.047507 4.057091 -2.508515
v -4.550460 1.834238 -1.167823
v 0.063101 1.834237 -4.529947
v 4.901153 1.834238 0.682533
v 0.603613 4.057093 2.354602
v 3.226406 1.834239 3.410548
v -2.910699 1.834239 1.516873
v -3.390412 1.834237 -3.440822
v 3.525773 1.834237 -2.857056
v -3.870145 4.057092 -1.061244
v 0.080646 4.057091 -3.939404
v 4.219581 4.057092 0.521541
v -1.038645 3.293683 2.058227
v -3.969559 3.293682 -2.260614
v 4.259228 3.293683 -1.129476
v -1.670467 3.293682 -3.947886
v -3.750646 3.293683 0.211817
v 3.984027 3.293683 2.173736
v 1.936195 3.293683 3.076739
v 1.798487 3.293682 -3.760153
v 0.193578 4.419402 -0.447201
v 1.673231 4.060434 -3.500088
v 1.800792 4.060435 2.802782
v 3.690505 4.060435 1.966072
v -3.442557 4.060435 0.159465
v -1.524933 4.060434 -3.675869
v 3.941007 4.060435 -1.075182
v -3.644939 4.060434 -2.120332
v -0.944487 4.060435 1.865543
v -1.142146 1.834239 2.268672
v -4.319244 1.834238 -2.412933
v 4.600725 1.834238 -1.186784
v -1.827038 1.834237 -4.241928
v -4.081944 1.834239 0.267172
v 4.302408 1.834239 2.393883
v 2.082567 1.834239 3.372735
v 1.933292 1.834237 -4.038427
vt 0.011402 0.639366
vt 0.001537 0.512663
vt 0.111009 0.516335
vt 0.111009 0.642707
vt 0.183127 0.520180
vt 0.282337 0.511465
vt 0.282337 0.636485
vt 0.173301 0.646062
vt 0.669776 0.589271
vt 0.669776 0.473311
vt 0.767333 0.470694
vt 0.767333 0.596394
vt 0.438691 0.723388
vt 0.438691 0.605614
vt 0.537107 0.601676
vt 0.537107 0.729343
vt 0.126264 0.495934
vt 0.001537 0.509589
vt 0.001537 0.370149
vt 0.126264 0.369058
vt 0.676918 0.361812
vt 0.761293 0.361022
vt 0.761293 0.460295
vt 0.669831 0.461151
vt 0.272731 0.822038
vt 0.173301 0.827711
vt 0.173301 0.744100
vt 0.272731 0.744907
vt 0.693942 0.189810
vt 0.693942 0.287545
vt 0.566712 0.290454
vt 0.566712 0.183040
vt 0.600868 0.124432
vt 0.473753 0.133094
vt 0.473753 0.001537
vt 0.600868 0.004730
vt 0.806369 0.010870
vt 0.806369 0.117863
vt 0.707536 0.117516
vt 0.707535 0.001537
vt 0.568336 0.336586
vt 0.666757 0.330240
vt 0.666757 0.461151
vt 0.568336 0.457353
vt 0.309832 0.194569
vt 0.435877 0.183040
vt 0.435877 0.327166
vt 0.309832 0.325708
vt 0.438691 0.342418
vt 0.565262 0.330240
vt 0.565262 0.467620
vt 0.438691 0.467418
vt 0.309832 0.725575
vt 0.309832 0.609125
vt 0.408396 0.606638
vt 0.408396 0.732870
vt 0.173301 0.499068
vt 0.173301 0.372837
vt 0.299276 0.369659
vt 0.299276 0.508392
vt 0.565010 0.482623
vt 0.565010 0.598602
vt 0.438691 0.598159
vt 0.438691 0.470694
vt 0.438951 0.312086
vt 0.438951 0.186385
vt 0.563638 0.183040
vt 0.563638 0.321190
vt 0.665672 0.827649
vt 0.566853 0.838686
vt 0.566853 0.739023
vt 0.665672 0.735709
vt 0.321024 0.599500
vt 0.309832 0.473625
vt 0.434031 0.478092
vt 0.434031 0.603565
vt 0.438691 0.744708
vt 0.536799 0.732417
vt 0.536799 0.845497
vt 0.438691 0.849026
vt 0.409378 0.741241
vt 0.409378 0.831402
vt 0.309832 0.833678
vt 0.309832 0.735944
vt 0.001537 0.652558
vt 0.100993 0.645781
vt 0.100993 0.765483
vt 0.001537 0.762985
vt 0.668746 0.614434
vt 0.767776 0.604906
vt 0.767776 0.729906
vt 0.668746 0.729748
vt 0.613000 0.002394
vt 0.704462 0.001537
vt 0.704462 0.128418
vt 0.603942 0.129359
vt 0.668746 0.824855
vt 0.668746 0.732980
vt 0.766187 0.741539
vt 0.766187 0.841132
vt 0.776673 0.774047
vt 0.845998 0.766776
vt 0.845998 0.865567
vt 0.770850 0.873449
vt 0.777849 0.469348
vt 0.852997 0.461467
vt 0.852997 0.587732
vt 0.770407 0.596394
vt 0.665672 0.721950
vt 0.568084 0.732635
vt 0.568084 0.605759
vt 0.665672 0.604906
vt 0.568084 0.479714
vt 0.666703 0.470694
vt 0.666703 0.601832
vt 0.568084 0.600691
vt 0.435617 0.337851
vt 0.435617 0.465518
vt 0.309832 0.470551
vt 0.309832 0.330240
vt 0.344887 0.009647
vt 0.470679 0.001537
vt 0.470679 0.145413
vt 0.344887 0.140558
vt 0.173301 0.656386
vt 0.300383 0.649136
vt 0.300383 0.741027
vt 0.173301 0.739996
vt 0.767517 0.844205
vt 0.767517 0.955278
vt 0.726385 0.909869
vt 0.765700 0.183040
vt 0.765700 0.353265
vt 0.697016 0.188585
vt 0.840802 0.604906
vt 0.840802 0.763703
vt 0.770850 0.657829
vt 0.434326 0.836752
vt 0.434326 0.938676
vt 0.388836 0.885192
vt 0.892938 0.766776
vt 0.892938 0.912156
vt 0.849071 0.847111
vt 0.167278 0.369058
vt 0.167278 0.496565
vt 0.129338 0.420066
vt 0.371249 0.922311
vt 0.371249 0.979355
vt 0.309832 0.945329
vt 0.530876 0.168903
vt 0.473753 0.148698
vt 0.530876 0.136168
vt 0.892938 0.915230
vt 0.892938 0.991703
vt 0.844542 0.985587
vt 0.558945 0.852100
vt 0.558945 0.942388
vt 0.499427 0.881157
vt 0.781651 0.891239
vt 0.841127 0.876522
vt 0.841127 0.951905
vt 0.770850 0.938809
vt 0.835393 0.353265
vt 0.768774 0.291041
vt 0.835393 0.183040
vt 0.114083 0.539078
vt 0.166258 0.512663
vt 0.166258 0.689058
vt 0.105179 0.769329
vt 0.170227 0.744100
vt 0.170227 0.855613
vt 0.127330 0.852440
vt 0.916589 0.358237
vt 0.951456 0.337627
vt 0.951456 0.446216
vt 0.904523 0.448594
vt 0.335785 0.846506
vt 0.385762 0.836752
vt 0.385762 0.919237
vt 0.309832 0.907680
vt 0.896345 0.775976
vt 0.948572 0.766776
vt 0.948572 0.883821
vt 0.896012 0.884566
vt 0.874677 0.111194
vt 0.875309 0.003773
vt 0.928819 0.001537
vt 0.928819 0.117987
vt 0.192121 0.888313
vt 0.173301 0.849634
vt 0.283587 0.830784
vt 0.283587 0.893811
vt 0.438691 0.887171
vt 0.496353 0.852100
vt 0.496353 0.947922
vt 0.456278 0.953797
vt 0.107004 0.927435
vt 0.095559 0.881580
vt 0.170227 0.858687
vt 0.170227 0.934070
vt 0.965615 0.476075
vt 0.965615 0.560473
vt 0.913907 0.553339
vt 0.913114 0.461467
vt 0.997019 0.337627
vt 0.997019 0.403753
vt 0.954530 0.375689
vt 0.998463 0.766776
vt 0.998463 0.851174
vt 0.951646 0.805239
vt 0.715838 0.175504
vt 0.707535 0.121353
vt 0.822849 0.120937
vt 0.822849 0.175863
vt 0.856725 0.574166
vt 0.856071 0.465095
vt 0.910040 0.461467
vt 0.910040 0.579242
vt 0.858227 0.188564
vt 0.901374 0.183040
vt 0.901374 0.290463
vt 0.838467 0.269739
vt 0.024224 0.787027
vt 0.071306 0.768557
vt 0.071306 0.875569
vt 0.001537 0.875702
vt 0.935706 0.162749
vt 0.935324 0.096624
vt 0.988979 0.106158
vt 0.988979 0.175863
vt 0.002398 0.888368
vt 0.056118 0.878776
vt 0.056118 0.970716
vt 0.001537 0.973759
vt 0.133737 0.365984
vt 0.001537 0.269473
vt 0.050453 0.194768
vt 0.133737 0.188155
vt 0.231702 0.927281
vt 0.291959 0.896885
vt 0.291959 0.974368
vt 0.848181 0.342931
vt 0.901449 0.337627
vt 0.901449 0.458393
vt 0.847476 0.454813
vt 0.901950 0.714433
vt 0.901237 0.607247
vt 0.953750 0.604906
vt 0.953750 0.720866
vt 0.603942 0.173684
vt 0.694030 0.132433
vt 0.694030 0.179695
vt 0.170227 0.001537
vt 0.170227 0.185081
vt 0.001537 0.133519
vt 0.028827 0.035318
vt 0.228628 0.903722
vt 0.228628 0.981822
vt 0.174309 0.981258
vt 0.173301 0.896885
vt 0.669626 0.943285
vt 0.668746 0.844205
vt 0.723311 0.844581
vt 0.723311 0.951573
vt 0.341813 0.179966
vt 0.173301 0.123159
vt 0.231024 0.009466
vt 0.341813 0.001537
vt 0.306758 0.183040
vt 0.306758 0.366585
vt 0.221426 0.355782
vt 0.173301 0.277807
vt 0.566853 0.848302
vt 0.622381 0.841760
vt 0.622381 0.952187
vt 0.567646 0.949866
vt 0.829705 0.098917
vt 0.809443 0.011951
vt 0.871603 0.001537
vt 0.871603 0.110610
vt 0.794212 0.452164
vt 0.770407 0.377408
vt 0.844402 0.356827
vt 0.844402 0.458393
vt 0.843876 0.613262
vt 0.898163 0.604906
vt 0.898163 0.725883
vt 0.844643 0.724772
vt 0.844789 0.135561
vt 0.932250 0.128870
vt 0.932250 0.175863
vt 0.825922 0.162312
vt 0.931893 0.006730
vt 0.987398 0.001537
vt 0.987398 0.078668
vt 0.932830 0.078211
vt 0.896012 0.973131
vt 0.896948 0.890651
vt 0.951728 0.887639
vt 0.951728 0.977801
vt 0.957975 0.278863
vt 0.904448 0.289964
vt 0.905008 0.185647
vt 0.957975 0.183040
vn -0.9269 0.2219 0.3026
vn -0.3701 0.1489 0.9170
vn -0.2798 0.1564 0.9472
vn 0.2489 0.2035 -0.9469
vn -0.3863 0.1584 0.9087
vn -0.7202 0.2405 -0.6508
vn -0.9528 0.2468 -0.1769
vn 0.6648 0.2511 0.7036
vn 0.9145 0.2478 0.3199
vn -0.4446 0.2225 -0.8677
vn 0.5833 0.2038 -0.7863
vn 0.8216 0.2130 -0.5288
vn 0.9607 0.2308 -0.1544
vn -0.1473 0.2105 -0.9664
vn -0.7166 0.1881 0.6716
vn -0.0324 0.1955 0.9802
vn -0.0485 0.9987 0.0149
vn -0.0624 0.9978 0.0214
vn -0.0361 0.9993 0.0033
vn -0.0257 0.9986 0.0470
vn -0.0257 0.9984 0.0495
vn -0.0292 0.9987 0.0413
vn -0.0009 0.9991 0.0427
vn -0.0000 0.9987 0.0517
vn -0.0075 0.9985 0.0542
vn 0.0055 0.9985 0.0541
vn 0.0081 0.9989 0.0454
vn 0.0151 0.9994 0.0325
vn 0.0488 0.9988 -0.0052
vn 0.0605 0.9981 -0.0115
vn 0.0356 0.9994 0.0025
vn -0.0219 0.9979 -0.0607
vn -0.0247 0.9984 -0.0505
vn -0.0220 0.9993 -0.0300
vn -0.0578 0.9423 0.3297
vn -0.0643 0.9439 0.3240
vn -0.0388 0.9362 0.3493
vn -0.0689 0.8791 0.4716
vn -0.0454 0.8573 0.5128
vn -0.1064 0.9058 0.4101
vn -0.3572 0.9265 0.1187
vn -0.3377 0.9315 0.1354
vn -0.2896 0.9474 0.1365
vn -0.0872 0.9582 -0.2725
vn -0.0577 0.9666 -0.2497
vn -0.1133 0.9480 -0.2974
vn -0.2595 0.9613 -0.0928
vn -0.0323 0.9990 0.0316
vn -0.0295 0.9987 0.0405
vn -0.0354 0.9988 0.0341
vn -0.0311 0.9980 0.0547
vn -0.0174 0.9985 0.0526
vn -0.0386 0.9977 0.0566
vn 0.2762 0.9503 -0.1436
vn -0.1488 0.9078 0.3922
vn 0.2128 0.9625 0.1685
vn -0.3756 0.2654 0.8880
vn -0.1461 0.3455 -0.9270
vn 0.1736 0.9440 -0.2806
vn -0.2652 0.9406 0.2119
vn -0.2333 0.9599 -0.1554
vn -0.3527 0.2400 0.9045
vn -0.0109 0.9268 0.3754
vn -0.0193 0.9270 0.3746
vn -0.1102 0.9400 0.3228
vn -0.1332 0.9200 0.3687
vn 0.9135 0.3772 -0.1525
vn 0.2444 0.3364 -0.9095
vn -0.0728 0.9480 -0.3100
vn 0.2860 0.9555 -0.0730
vn -0.0344 0.3270 0.9444
vn -0.8843 0.3591 0.2983
vn 0.0027 0.9991 -0.0419
vn -0.2506 0.9575 0.1429
vn -0.2245 0.9628 0.1504
vn 0.5568 0.3352 -0.7600
vn -0.2826 0.2481 0.9266
vn -0.1740 0.9231 -0.3431
vn -0.1399 0.9326 -0.3327
vn 0.0302 0.9995 0.0064
vn 0.0150 0.9994 0.0325
vn 0.0200 0.9995 0.0251
vn 0.0196 0.9998 -0.0041
vn -0.6909 0.3872 -0.6106
vn -0.4185 0.3583 -0.8345
vn -0.0219 0.9993 -0.0299
vn -0.0217 0.9995 -0.0224
vn -0.0144 0.9999 0.0026
vn -0.0309 0.9995 -0.0027
vn 0.0304 0.9991 -0.0284
vn 0.8628 0.4008 0.3082
vn 0.1089 0.9448 -0.3092
vn 0.2464 0.9623 0.1155
vn 0.7913 0.3492 -0.5019
vn -0.1686 0.8899 0.4239
vn -0.9003 0.3972 -0.1782
vn 0.6345 0.4050 0.6583
vn -0.6954 0.3148 0.6460
g Island_3_Island_3_Collor_Material
usemtl Collor_Material
s off
f 46/1/1 1/2/1 25/3/1 78/4/1
f 80/5/2 41/6/2 6/7/2 30/8/2
f 17/9/3 57/10/3 74/11/3 41/12/3
f 23/13/4 64/14/4 81/15/4 47/16/4
f 51/17/5 5/18/5 29/19/5 74/20/5
f 58/21/6 20/22/6 52/23/6 75/24/6
f 58/25/7 75/26/7 46/27/7 22/28/7
f 79/29/8 50/30/8 7/31/8 31/32/8
f 79/33/9 31/34/9 8/35/9 48/36/9
f 20/37/10 60/38/10 77/39/10 52/40/10
f 21/41/11 53/42/11 81/43/11 64/44/11
f 76/45/12 32/46/12 4/47/12 53/48/12
f 48/49/13 8/50/13 32/51/13 76/52/13
f 60/53/14 23/54/14 47/55/14 77/56/14
f 77/57/14 47/58/14 3/59/14 27/60/14
f 52/61/10 77/62/10 27/63/10 2/64/10
f 41/65/3 74/66/3 29/67/3 6/68/3
f 22/69/1 46/70/1 78/71/1 61/72/1
f 78/73/15 25/74/15 5/75/15 51/76/15
f 61/77/15 78/78/15 51/79/15 19/80/15
f 62/81/8 18/82/8 50/83/8 79/84/8
f 62/85/9 79/86/9 48/87/9 24/88/9
f 24/89/13 48/90/13 76/91/13 59/92/13
f 75/93/6 52/94/6 2/95/6 26/96/6
f 63/97/2 17/98/2 41/99/2 80/100/2
f 18/101/16 63/102/16 80/103/16 50/104/16
f 50/105/16 80/106/16 30/107/16 7/108/16
f 19/109/5 51/110/5 74/111/5 57/112/5
f 59/113/12 76/114/12 53/115/12 21/116/12
f 47/117/4 81/118/4 28/119/4 3/120/4
f 53/121/11 4/122/11 28/123/11 81/124/11
f 75/125/7 26/126/7 1/127/7 46/128/7
f 37/129/17 36/130/18 16/131/19
f 15/132/20 65/133/21 37/134/22
f 11/135/23 65/136/24 33/137/25
f 35/138/26 40/139/27 10/140/28
f 39/141/29 35/142/30 9/143/31
f 36/144/32 34/145/33 14/146/34
f 67/147/35 10/148/36 40/149/37
f 49/150/38 40/151/39 11/152/40
f 69/153/41 16/154/42 54/155/43
f 70/156/44 14/157/45 34/158/46
f 16/159/47 36/160/47 72/161/47 54/162/47
f 15/163/48 33/164/49 65/165/50
f 11/166/51 40/167/52 65/168/53
f 39/169/54 71/170/54 45/171/54 12/172/54
f 15/173/55 43/174/55 73/175/55 33/176/55
f 10/177/56 42/178/56 68/179/56 35/180/56
f 43/181/57 19/182/57 57/183/57 73/184/57
f 70/185/58 55/186/58 23/187/58 60/188/58
f 12/189/59 45/190/59 66/191/59 38/192/59
f 37/193/60 69/194/60 43/195/60 15/196/60
f 14/197/61 44/198/61 72/199/61 36/200/61
f 67/201/62 49/202/62 17/203/62 63/204/62
f 67/205/63 42/206/37 10/207/64
f 49/208/65 67/209/40 40/210/66
f 56/211/67 24/212/67 59/213/67 71/214/67
f 55/215/68 66/216/68 64/217/68 23/218/68
f 13/219/69 55/220/69 70/221/69 34/222/69
f 9/223/70 56/224/70 71/225/70 39/226/70
f 42/227/71 67/228/71 63/229/71 18/230/71
f 54/231/72 22/232/72 61/233/72 69/234/72
f 65/235/73 38/236/73 13/237/73 34/238/73
f 69/239/74 37/240/43 16/241/75
f 45/242/76 21/243/76 64/244/76 66/245/76
f 49/246/77 73/247/77 57/248/77 17/249/77
f 70/250/78 44/251/46 14/252/79
f 39/253/80 65/254/81 40/255/82 35/256/83
f 72/257/84 44/258/84 20/259/84 58/260/84
f 44/261/85 70/262/85 60/263/85 20/264/85
f 65/265/86 34/266/87 36/267/88 37/268/89
f 65/269/90 39/270/90 12/271/90 38/272/90
f 68/273/91 62/274/91 24/275/91 56/276/91
f 13/277/92 38/278/92 66/279/92 55/280/92
f 9/281/93 35/282/93 68/283/93 56/284/93
f 71/285/94 59/286/94 21/287/94 45/288/94
f 11/289/95 33/290/95 73/291/95 49/292/95
f 72/293/96 58/294/96 22/295/96 54/296/96
f 68/297/97 42/298/97 18/299/97 62/300/97
f 69/301/98 61/302/98 19/303/98 43/304/98
