# Blender v3.0.0 OBJ File: 'aa.blend'
# www.blender.org
mtllib Island_2.mtl
o Island_2
v -6.740410 -0.031080 -3.681127
v -1.462676 -0.031081 -4.958000
v 3.148654 -0.031081 -5.616514
v 6.883718 -0.031080 -3.802912
v -8.020656 -0.031079 1.925368
v -1.178731 -0.031079 2.274186
v 5.691180 -0.031079 2.943349
v 8.183693 -0.031079 0.012324
v 5.984234 4.299053 -0.434267
v 4.153374 4.299054 1.341904
v -0.967952 4.299054 1.183146
v 5.177260 4.299052 -2.893121
v 2.780177 4.299052 -4.047892
v -0.471064 4.299052 -3.864055
v -5.651764 4.299053 0.696972
v -4.499494 4.299052 -2.886013
v -1.265260 3.293683 1.699551
v 5.155815 3.293684 2.262366
v -7.472678 3.293683 1.578662
v -0.830018 3.293682 -4.429556
v 6.295507 3.293682 -3.377516
v -5.902977 3.293682 -3.553921
v 3.171686 3.293682 -4.895814
v 7.352696 3.293683 -0.187100
v -8.332079 -0.031080 -0.776892
v -4.207535 -0.031081 -4.788677
v 0.969348 -0.031081 -5.367279
v 5.195244 -0.031081 -5.079436
v -5.232391 -0.031079 2.512960
v 2.682248 -0.031079 2.706543
v 7.497067 -0.031079 1.903490
v 7.932869 -0.031080 -2.014035
v -3.258824 4.332962 0.935815
v 1.226538 4.332961 -3.673854
v 4.919874 4.332962 0.475976
v -2.126066 4.332961 -3.441081
v -4.985236 4.332961 -1.072485
v 3.717403 4.332961 -3.422373
v 5.244525 4.332961 -1.692794
v 1.766559 4.332962 0.987471
v -1.227277 1.834239 1.951794
v 4.894412 4.057093 1.987358
v -7.073600 4.057092 1.364029
v -0.661296 4.057091 -4.247478
v 6.009919 4.057091 -3.222007
v -6.270578 1.834237 -3.609760
v 3.161576 1.834237 -5.212174
v 7.717473 1.834238 -0.099561
v -1.235340 4.057093 1.519258
v 5.390820 1.834239 2.561291
v -7.713219 1.834239 1.730853
v -1.107731 1.834237 -4.661523
v 6.553710 1.834237 -3.564249
v -5.526357 4.057091 -3.414330
v 3.114086 4.057091 -4.627756
v 6.982949 4.057092 -0.262402
v -4.996604 3.293683 2.033545
v -3.410917 3.293682 -4.441680
v 7.154904 3.293682 -1.883482
v 1.326034 3.293682 -4.697422
v -7.577349 3.293683 -0.902995
v 6.771762 3.293683 1.401972
v 2.348798 3.293683 2.032235
v 4.888144 3.293682 -4.445501
v 0.813097 4.419401 -1.362916
v 4.678237 4.060433 -4.193536
v 2.211890 4.060435 1.768371
v 6.395756 4.060435 1.188111
v -7.101439 4.060434 -0.948564
v 1.381741 4.060433 -4.437071
v 6.760195 4.060434 -1.834399
v -3.092505 4.060433 -4.248003
v -4.729100 4.060435 1.801765
v -5.100105 1.834239 2.243990
v -3.760602 1.834237 -4.593999
v 7.496401 1.834238 -1.940790
v 1.169462 1.834237 -4.991464
v -7.908647 1.834238 -0.847641
v 7.090143 1.834239 1.622119
v 2.495170 1.834239 2.328231
v 5.022950 1.834237 -4.723774
vt 0.662192 0.391294
vt 0.737430 0.380733
vt 0.737430 0.516800
vt 0.661968 0.519926
vt 0.311056 0.009153
vt 0.407291 0.001598
vt 0.407291 0.209079
vt 0.310549 0.207597
vt 0.483264 0.701068
vt 0.482620 0.565900
vt 0.558439 0.579758
vt 0.558439 0.717513
vt 0.002284 0.558874
vt 0.001598 0.423283
vt 0.098264 0.440539
vt 0.098264 0.581054
vt 0.074379 0.724020
vt 0.001598 0.609617
vt 0.074379 0.584250
vt 0.569948 0.798190
vt 0.646653 0.791528
vt 0.646653 0.886281
vt 0.570017 0.885454
vt 0.729682 0.794537
vt 0.806069 0.788307
vt 0.806069 0.884228
vt 0.729759 0.882603
vt 0.103197 0.248524
vt 0.178479 0.242441
vt 0.178479 0.440886
vt 0.102784 0.439939
vt 0.182490 0.713380
vt 0.182414 0.610970
vt 0.279924 0.609279
vt 0.279924 0.721357
vt 0.781371 0.097711
vt 0.781306 0.002864
vt 0.857600 0.001598
vt 0.857600 0.104008
vt 0.741064 0.491742
vt 0.740625 0.380733
vt 0.816895 0.386518
vt 0.816895 0.504086
vt 0.482670 0.360706
vt 0.482620 0.212274
vt 0.579711 0.223320
vt 0.579711 0.377537
vt 0.680748 0.007694
vt 0.778111 0.001598
vt 0.778111 0.109751
vt 0.680766 0.105814
vt 0.080473 0.717751
vt 0.080054 0.618547
vt 0.178479 0.622119
vt 0.178479 0.728595
vt 0.598395 0.010439
vt 0.598395 0.195880
vt 0.522758 0.192766
vt 0.522452 0.001598
vt 0.730517 0.665887
vt 0.729682 0.538977
vt 0.806185 0.540586
vt 0.806185 0.672712
vt 0.070655 0.821179
vt 0.147641 0.816179
vt 0.147641 0.909806
vt 0.070678 0.907628
vt 0.683616 0.314503
vt 0.683617 0.216176
vt 0.780963 0.212274
vt 0.780963 0.320385
vt 0.407591 0.223740
vt 0.407591 0.414909
vt 0.310926 0.410784
vt 0.310549 0.212274
vt 0.601631 0.145504
vt 0.601590 0.001598
vt 0.677552 0.010266
vt 0.677552 0.158698
vt 0.002734 0.406520
vt 0.001598 0.242441
vt 0.099589 0.250872
vt 0.099589 0.420088
vt 0.482971 0.814249
vt 0.482620 0.720708
vt 0.559616 0.723840
vt 0.559616 0.823046
vt 0.809381 0.543732
vt 0.885559 0.538977
vt 0.885559 0.637097
vt 0.809397 0.634002
vt 0.401357 0.874471
vt 0.401357 0.783800
vt 0.477522 0.780747
vt 0.477522 0.879073
vt 0.299620 0.726699
vt 0.397650 0.718099
vt 0.397650 0.822426
vt 0.299700 0.821452
vt 0.569948 0.690423
vt 0.667571 0.682369
vt 0.667571 0.788332
vt 0.570037 0.786344
vt 0.583437 0.329841
vt 0.582907 0.212274
vt 0.680421 0.219200
vt 0.680421 0.345212
vt 0.102764 0.604284
vt 0.101863 0.444081
vt 0.178479 0.451269
vt 0.178479 0.615351
vt 0.182685 0.470017
vt 0.278871 0.456696
vt 0.278871 0.602291
vt 0.182414 0.606084
vt 0.311389 0.555857
vt 0.310549 0.418104
vt 0.407574 0.435142
vt 0.407574 0.576391
vt 0.570973 0.671099
vt 0.569948 0.538977
vt 0.667740 0.540188
vt 0.667740 0.679174
vt 0.182414 0.730970
vt 0.280809 0.724552
vt 0.280809 0.827353
vt 0.182441 0.824597
vt 0.726487 0.538977
vt 0.726487 0.728684
vt 0.670936 0.617203
vt 0.410787 0.355563
vt 0.479425 0.212274
vt 0.479425 0.451234
vt 0.905713 0.675908
vt 0.905713 0.839132
vt 0.868270 0.721651
vt 0.048529 0.854966
vt 0.048529 0.967014
vt 0.001598 0.912967
vt 0.991723 0.324989
vt 0.991723 0.442880
vt 0.953666 0.394630
vt 0.177881 0.816179
vt 0.177881 0.944097
vt 0.150837 0.893241
vt 0.800530 0.200245
vt 0.680748 0.120703
vt 0.800530 0.112947
vt 0.939270 0.238004
vt 0.939270 0.310210
vt 0.891953 0.307683
vt 0.943568 0.207689
vt 0.982142 0.112947
vt 0.982142 0.236250
vt 0.818009 0.785112
vt 0.729682 0.715091
vt 0.818009 0.675908
vt 0.476217 0.971318
vt 0.446006 0.902493
vt 0.476217 0.882268
vt 0.001598 0.812887
vt 0.054704 0.727216
vt 0.054704 0.851770
vt 0.668904 0.373529
vt 0.582907 0.363418
vt 0.668904 0.348407
vt 0.860631 0.504086
vt 0.820090 0.403421
vt 0.860631 0.324989
vt 0.940372 0.234809
vt 0.891953 0.178123
vt 0.940372 0.112947
vt 0.179219 0.049539
vt 0.179219 0.239246
vt 0.043924 0.236779
vt 0.001598 0.001598
vt 0.519257 0.160478
vt 0.410486 0.072197
vt 0.519257 0.001598
vt 0.671099 0.980595
vt 0.670936 0.887054
vt 0.714357 0.898801
vt 0.714357 0.985705
vt 0.482620 0.466347
vt 0.566752 0.380733
vt 0.566752 0.562704
vt 0.410787 0.510941
vt 0.477325 0.454429
vt 0.477325 0.638406
vt 0.797844 0.887424
vt 0.797844 0.951896
vt 0.729682 0.911250
vt 0.987867 0.810554
vt 0.987867 0.948074
vt 0.955633 0.907637
vt 0.070655 0.780146
vt 0.178479 0.731791
vt 0.178479 0.812984
vt 0.389506 0.983938
vt 0.347647 0.978901
vt 0.389506 0.908774
vt 0.260062 0.229147
vt 0.260062 0.453500
vt 0.182414 0.309928
vt 0.953194 0.675908
vt 0.953194 0.807359
vt 0.908908 0.766454
vt 0.952438 0.810554
vt 0.952438 0.934777
vt 0.908908 0.885407
vt 0.282066 0.468252
vt 0.304446 0.456696
vt 0.304446 0.574441
vt 0.611396 0.984323
vt 0.569948 0.982915
vt 0.570183 0.893866
vt 0.611396 0.889476
vt 0.344452 0.908774
vt 0.344452 0.995223
vt 0.301033 0.992384
vt 0.299620 0.912440
vt 0.477325 0.643677
vt 0.477325 0.766089
vt 0.401357 0.777551
vt 0.433815 0.641602
vt 0.844936 0.112947
vt 0.844936 0.298388
vt 0.803726 0.290186
vt 0.804833 0.113594
vt 0.934904 0.540317
vt 0.934904 0.667230
vt 0.890682 0.657132
vt 0.888755 0.538977
vt 0.497750 0.163674
vt 0.497750 0.207808
vt 0.416630 0.207020
vt 0.410486 0.163945
vt 0.821204 0.891524
vt 0.834179 0.845950
vt 0.895584 0.843556
vt 0.895584 0.922573
vt 0.978211 0.538977
vt 0.978211 0.663200
vt 0.938100 0.654631
vt 0.771678 0.324432
vt 0.771678 0.366830
vt 0.691078 0.367080
vt 0.683616 0.323581
vt 0.985194 0.001598
vt 0.985194 0.106435
vt 0.961342 0.098547
vt 0.944570 0.012875
vt 0.950471 0.453621
vt 0.908828 0.464925
vt 0.908867 0.343063
vt 0.950471 0.324989
vt 0.865075 0.680156
vt 0.865075 0.840361
vt 0.821395 0.825407
vt 0.821204 0.675908
vt 0.657194 0.979746
vt 0.614591 0.980519
vt 0.615349 0.896297
vt 0.657194 0.889476
vt 0.561543 0.907365
vt 0.482620 0.911232
vt 0.510731 0.842121
vt 0.561543 0.826241
vt 0.384339 0.825622
vt 0.384339 0.905579
vt 0.332260 0.894544
vt 0.299620 0.830840
vt 0.712171 0.739953
vt 0.712172 0.883859
vt 0.671083 0.869399
vt 0.670936 0.731880
vt 0.303837 0.420562
vt 0.263798 0.422912
vt 0.263257 0.243816
vt 0.303837 0.229147
vt 0.941374 0.021259
vt 0.941374 0.057615
vt 0.883925 0.061778
vt 0.860795 0.001598
vt 0.182414 0.036316
vt 0.307354 0.001598
vt 0.307354 0.225951
vt 0.189722 0.218141
vt 0.312870 0.668544
vt 0.310549 0.594031
vt 0.397650 0.579586
vt 0.397650 0.714904
vt 0.998402 0.766578
vt 0.956961 0.765956
vt 0.956389 0.683015
vt 0.998402 0.675908
vt 0.442810 0.883498
vt 0.442810 0.994508
vt 0.402468 0.987100
vt 0.401357 0.882268
vt 0.888758 0.289542
vt 0.848132 0.263985
vt 0.866715 0.125135
vt 0.888758 0.112947
vt 0.863826 0.460157
vt 0.864545 0.324989
vt 0.905633 0.340942
vt 0.905633 0.472393
vt 0.263898 0.882261
vt 0.182414 0.912472
vt 0.204784 0.830593
vt 0.263898 0.830549
vt 0.658772 0.386283
vt 0.658772 0.535782
vt 0.569948 0.472254
vt 0.598742 0.380733
vn -0.1850 0.1426 0.9723
vn -0.1802 0.1470 0.9726
vn -0.1890 0.1474 0.9709
vn 0.0660 0.1548 0.9857
vn -0.3465 0.1512 -0.9258
vn -0.0434 0.1396 -0.9893
vn -0.0198 0.0805 -0.9966
vn -0.0105 0.1327 -0.9911
vn 0.0342 0.0997 -0.9944
vn 0.9658 0.2325 -0.1144
vn 0.9662 0.2315 -0.1135
vn 0.8454 0.2148 -0.4890
vn 0.8464 0.2133 -0.4879
vn 0.8456 0.2146 -0.4888
vn 0.0811 0.1543 0.9847
vn -0.1086 0.2086 -0.9720
vn -0.1095 0.2094 -0.9717
vn -0.1062 0.2093 -0.9721
vn -0.1053 0.2102 -0.9720
vn -0.1311 0.1947 -0.9721
vn -0.0779 0.1893 0.9788
vn 0.5907 0.2039 -0.7807
vn 0.5904 0.2042 -0.7808
vn 0.4772 0.2408 0.8452
vn -0.0947 0.1780 0.9795
vn -0.0976 0.1744 0.9798
vn -0.0914 0.1745 0.9804
vn -0.9789 0.1959 0.0581
vn 0.9100 0.2480 0.3321
vn 0.9099 0.2482 0.3325
vn 0.2485 0.2035 -0.9470
vn -0.1008 0.1805 0.9784
vn -0.1080 0.1801 0.9777
vn -0.1044 0.1772 0.9786
vn -0.0795 0.1891 0.9787
vn -0.8506 0.2037 -0.4848
vn 0.4632 0.2396 0.8533
vn 0.5914 0.2039 -0.7801
vn 0.9654 0.2333 -0.1168
vn 0.9655 0.2324 -0.1178
vn 0.8440 0.2156 -0.4911
vn 0.8435 0.2145 -0.4924
vn -0.1520 0.1972 -0.9685
vn -0.8357 0.2002 -0.5114
vn -0.1933 0.1391 0.9712
vn -0.1976 0.1438 0.9697
vn -0.2024 0.1396 0.9693
vn -0.3783 0.1580 -0.9121
vn -0.9758 0.1978 0.0937
vn 0.9104 0.2480 0.3311
vn 0.9105 0.2476 0.3313
vn -0.0189 0.9985 -0.0523
vn -0.0115 0.9994 -0.0329
vn -0.0168 0.9997 -0.0203
vn 0.0047 0.9987 0.0514
vn -0.0060 0.9978 0.0656
vn -0.0005 0.9989 0.0469
vn -0.0039 0.9988 0.0479
vn -0.0130 0.9991 0.0408
vn 0.0060 0.9993 0.0371
vn 0.0336 0.9993 0.0166
vn 0.0450 0.9990 -0.0023
vn 0.0227 0.9997 0.0034
vn 0.0188 0.9990 -0.0410
vn 0.0347 0.9985 -0.0416
vn 0.0211 0.9996 -0.0186
vn 0.0057 0.9976 -0.0689
vn 0.0026 0.9982 -0.0592
vn 0.0042 0.9991 -0.0417
vn -0.0141 0.9992 -0.0379
vn -0.0135 0.9990 -0.0437
vn -0.0110 0.9992 -0.0373
vn 0.1879 0.9500 -0.2492
vn 0.1651 0.9540 -0.2503
vn 0.1360 0.9639 -0.2291
vn -0.0332 0.9329 0.3586
vn -0.0331 0.9406 0.3378
vn -0.0344 0.9307 0.3643
vn -0.1298 0.9911 -0.0282
vn -0.1268 0.9914 -0.0314
vn -0.1469 0.9890 -0.0140
vn -0.0439 0.9065 -0.4199
vn -0.0559 0.9184 -0.3916
vn -0.0538 0.9258 -0.3742
vn -0.0772 0.9663 -0.2455
vn -0.0680 0.9698 -0.2340
vn -0.0802 0.9644 -0.2518
vn -0.0563 0.9077 -0.4159
vn -0.0778 0.8587 -0.5065
vn -0.0300 0.9278 -0.3719
vn -0.1125 0.9452 0.3065
vn 0.0120 0.9228 0.3850
vn 0.0083 0.9149 0.4036
vn 0.0152 0.9424 0.3343
vn -0.0926 0.9475 0.3060
vn -0.0426 0.9686 0.2448
vn -0.0188 0.9997 -0.0155
vn 0.0030 0.9997 -0.0259
vn -0.0009 0.9996 -0.0270
vn -0.0062 0.9993 0.0371
vn 0.0057 0.9985 0.0550
vn -0.0141 0.9981 0.0593
vn 0.4237 0.4310 0.7967
vn 0.4240 0.4306 0.7967
vn 0.0063 0.9991 -0.0413
vn 0.0077 0.9993 -0.0379
vn 0.0036 0.9995 -0.0308
vn 0.0048 0.9987 -0.0508
vn -0.0032 0.9989 -0.0464
vn 0.0067 0.9984 -0.0558
vn 0.1106 0.9701 -0.2158
vn 0.0879 0.9743 -0.2076
vn -0.0335 0.9197 0.3911
vn -0.0362 0.9282 0.3703
vn -0.1676 0.9859 0.0043
vn -0.1665 0.9860 0.0003
vn -0.0541 0.9317 -0.3591
vn -0.0603 0.9426 -0.3285
vn -0.0098 0.9999 0.0060
vn -0.0206 0.9998 0.0037
vn 0.0007 0.9999 -0.0115
vn -0.0937 0.9585 -0.2693
vn -0.0830 0.9622 -0.2595
vn -0.0773 0.9627 -0.2592
vn -0.0170 0.9372 -0.3484
vn 0.0026 0.8981 0.4398
vn 0.0084 0.9149 0.4036
vn -0.0025 0.8229 0.5682
vn -0.1020 0.3246 -0.9403
vn 0.8274 0.4632 0.3175
vn 0.0125 0.2289 -0.9734
vn -0.0095 0.1306 -0.9914
vn -0.0114 0.1622 -0.9867
vn 0.0061 0.2468 -0.9691
vn -0.0791 0.2728 0.9588
vn -0.8661 0.4994 0.0243
vn 0.8895 0.4424 -0.1140
vn 0.1987 0.9771 -0.0768
vn 0.2040 0.9762 -0.0739
vn 0.1992 0.9764 -0.0830
vn -0.0259 0.2671 -0.9633
vn 0.0026 0.2377 -0.9713
vn -0.0528 0.2525 -0.9662
vn 0.7949 0.4129 -0.4445
vn -0.0090 0.9124 -0.4091
vn -0.1712 0.3439 0.9233
vn -0.7539 0.4495 -0.4791
vn 0.5535 0.3770 -0.7427
vn 0.1952 0.9790 -0.0581
vn 0.2002 0.9785 -0.0493
vn 0.2008 0.9781 -0.0554
vn 0.1675 0.9806 0.1017
vn -0.0772 0.3132 0.9465
vn 0.0826 0.2442 0.9662
vn 0.0998 0.9579 -0.2692
vn 0.0371 0.9991 0.0185
vn 0.0109 0.9996 0.0275
vn 0.0133 0.9999 -0.0005
vn 0.0226 0.9997 -0.0095
vn 0.0515 0.9911 0.1225
vn -0.0742 0.9801 0.1842
vn -0.0493 0.9953 0.0838
vn -0.0022 0.9936 0.1127
vn 0.2435 0.3500 -0.9045
vn -0.1039 0.2903 -0.9513
vn -0.0091 0.9077 0.4195
vn -0.3110 0.3350 -0.8894
vn 0.1163 0.9767 0.1802
vn -0.1508 0.9852 -0.0812
g Island_2_Island_2_Collor_Material
usemtl Collor_Material
s off
f 19/1/1 51/2/2 74/3/3 57/4/1
f 74/5/4 29/6/4 6/7/4 41/8/4
f 22/9/5 58/10/5 75/11/5 46/12/5
f 75/13/6 52/14/6 2/15/6 26/16/6
f 52/17/7 75/18/8 58/19/9
f 24/20/10 48/21/11 76/22/10 59/23/10
f 59/24/12 76/25/13 53/26/14 21/27/14
f 57/28/15 74/29/15 41/30/15 17/31/15
f 77/32/16 47/33/17 3/34/17 27/35/17
f 60/36/18 23/37/18 47/38/18 77/39/19
f 20/40/20 60/41/20 77/42/20 52/43/20
f 50/44/21 80/45/21 30/46/21 7/47/21
f 53/48/22 4/49/23 28/50/22 81/51/22
f 79/52/24 50/53/24 7/54/24 31/55/24
f 63/56/25 17/57/25 41/58/26 80/59/27
f 19/60/28 61/61/28 78/62/28 51/63/28
f 62/64/29 79/65/29 48/66/30 24/67/29
f 47/68/31 81/69/31 28/70/31 3/71/31
f 80/72/32 41/73/33 6/74/34 30/75/34
f 18/76/35 63/77/35 80/78/35 50/79/35
f 78/80/36 46/81/36 1/82/36 25/83/36
f 62/84/37 18/85/37 50/86/37 79/87/37
f 21/88/38 53/89/38 81/90/38 64/91/38
f 23/92/31 64/93/31 81/94/31 47/95/31
f 48/96/39 8/97/40 32/98/40 76/99/40
f 76/100/41 32/101/42 4/102/42 53/103/42
f 52/104/43 77/105/43 27/106/43 2/107/43
f 61/108/44 22/109/44 46/110/44 78/111/44
f 51/112/45 5/113/46 29/114/46 74/115/47
f 46/116/48 75/117/48 26/118/48 1/119/48
f 51/120/49 78/121/49 25/122/49 5/123/49
f 79/124/50 31/125/50 8/126/50 48/127/51
f 37/128/52 36/129/53 16/130/54
f 11/131/55 65/132/56 33/133/57
f 35/134/58 40/135/59 10/136/60
f 39/137/61 35/138/62 9/139/63
f 38/140/64 39/141/65 12/142/66
f 34/143/67 38/144/68 13/145/69
f 14/146/70 65/147/71 34/148/72
f 66/149/73 12/150/74 45/151/75
f 67/152/76 10/153/77 40/154/78
f 69/155/79 15/156/80 37/157/81
f 70/158/82 13/159/83 55/160/84
f 72/161/85 16/162/86 36/163/87
f 44/164/88 36/165/89 14/166/90
f 49/167/91 33/168/92 73/169/93
f 73/170/94 15/171/95 43/172/96
f 36/173/97 37/174/98 33/175/99 65/176/54
f 11/177/100 40/178/101 65/179/102
f 18/180/103 62/181/103 68/182/104 42/183/103
f 34/184/105 65/185/106 38/186/107
f 14/187/108 36/188/109 65/189/110
f 66/190/111 38/191/75 12/192/112
f 67/193/113 42/194/78 10/195/114
f 69/196/115 43/197/81 15/198/116
f 70/199/117 34/200/84 13/201/118
f 39/202/119 40/203/120 35/204/121
f 72/205/122 54/206/87 16/207/123
f 44/208/124 72/209/90 36/210/125
f 49/211/126 11/212/127 33/213/128
f 60/214/129 70/215/129 55/216/129 23/217/129
f 62/218/130 24/219/130 56/220/130 68/221/130
f 72/222/131 20/223/132 52/224/133 58/225/134
f 17/226/135 63/227/135 67/228/135 49/229/135
f 61/230/136 19/231/136 43/232/136 69/233/136
f 59/234/137 71/235/137 56/236/137 24/237/137
f 45/238/138 12/239/138 39/240/139 71/241/140
f 72/242/141 44/243/142 20/244/143
f 21/245/144 45/246/144 71/247/144 59/248/144
f 70/249/145 44/250/145 14/251/145 34/252/145
f 57/253/146 73/254/146 43/255/146 19/256/146
f 22/257/147 61/258/147 69/259/147 54/260/147
f 64/261/148 66/262/148 45/263/148 21/264/148
f 71/265/149 39/266/150 9/267/151 56/268/151
f 68/269/152 56/270/152 9/271/152 35/272/152
f 63/273/153 18/274/153 42/275/153 67/276/153
f 17/277/154 49/278/154 73/279/154 57/280/154
f 55/281/155 13/282/155 38/283/155 66/284/155
f 65/285/156 40/286/157 39/287/158 38/288/159
f 15/289/160 73/290/161 33/291/162 37/292/163
f 23/293/164 55/294/164 66/295/164 64/296/164
f 60/297/165 20/298/165 44/299/165 70/300/165
f 67/301/166 40/302/166 11/303/166 49/304/166
f 58/305/167 22/306/167 54/307/167 72/308/167
f 42/309/168 68/310/168 35/311/168 10/312/168
f 54/313/169 69/314/169 37/315/169 16/316/169
