# Blender v3.0.0 OBJ File: 'aa.blend'
# www.blender.org
mtllib Ladder_Broken.mtl
o Ladder_Broken
v 0.000000 -0.000000 -0.077013
v 0.000000 3.439685 -0.077015
v 0.066695 -0.000000 -0.038506
v 0.066695 3.439685 -0.038508
v 0.066695 0.000000 0.038506
v 0.066695 3.401186 0.038504
v -0.000000 0.000000 0.077013
v -0.000000 3.409988 0.077011
v -0.066695 0.000000 0.038506
v -0.085025 3.418415 0.042190
v -0.066695 -0.000000 -0.038506
v -0.078088 3.427391 -0.037097
v 1.001579 -0.000000 -0.077013
v 1.001579 3.439685 -0.077015
v 1.068274 -0.000000 -0.038506
v 1.068274 3.439685 -0.038508
v 1.068274 0.000000 0.038506
v 1.068274 3.439685 0.038504
v 1.001579 0.000000 0.077013
v 1.002887 3.370829 0.077770
v 0.934884 0.000000 0.038506
v 0.934884 3.413963 0.038504
v 0.934884 -0.000000 -0.038506
v 0.934884 3.439685 -0.038508
v 0.005889 1.923145 -0.037682
v 1.012668 1.923145 -0.018016
v 0.005889 1.874389 -0.018258
v 1.012668 1.878010 -0.000035
v 0.005889 1.874389 0.020589
v 1.012668 1.878010 0.035927
v 0.005889 1.923145 0.040012
v 1.012668 1.923145 0.053907
v 0.005889 1.971902 0.020589
v 1.012668 1.968281 0.035926
v 0.005889 1.971902 -0.018258
v 1.012668 1.968281 -0.000035
v 0.361367 2.416353 -0.016267
v 0.361367 2.416353 0.022580
v 0.361367 2.367596 0.042003
v 0.361367 2.318839 0.022580
v 0.361367 2.318839 -0.016267
v 0.361367 2.367596 -0.034872
v 0.668856 0.924227 0.031666
v 0.668856 0.924227 0.067373
v 0.668856 0.879411 0.085227
v 0.668856 0.834595 0.067373
v 0.668856 0.834595 0.031666
v 0.668856 0.879411 0.013813
v 0.005889 0.923145 -0.000733
v 1.012668 0.923145 -0.034566
v 0.005889 0.878361 0.017108
v 1.012668 0.878298 -0.016700
v 0.005889 0.878361 0.052789
v 1.012668 0.878298 0.019032
v 0.005889 0.923145 0.070630
v 1.012668 0.923145 0.036898
v 0.005889 0.967929 0.052789
v 1.012668 0.967993 0.019032
v 0.005889 0.967929 0.017108
v 1.012668 0.967993 -0.016700
v 0.005889 0.423145 -0.026372
v 1.012668 0.423145 -0.029818
v 0.005889 0.374389 -0.018257
v 1.012668 0.374389 -0.018257
v 0.005889 0.374389 0.020590
v 1.012668 0.374389 0.020590
v 0.005889 0.423145 0.040013
v 1.012668 0.423145 0.040013
v 0.005889 0.471902 0.020590
v 1.012668 0.471902 0.020590
v 0.005889 0.471902 -0.018257
v 1.012668 0.471902 -0.018257
v -0.024466 2.423146 -0.045582
v 1.012668 2.423145 -0.035337
v -0.024466 2.374389 -0.026159
v 1.012668 2.374388 -0.018258
v -0.024466 2.374389 0.012688
v 1.012668 2.374388 0.020588
v -0.024466 2.423146 0.032111
v 1.012668 2.423145 0.040012
v -0.024466 2.471902 0.012688
v 1.012668 2.471902 0.020588
v -0.024466 2.471902 -0.026159
v 1.012668 2.471902 -0.018258
v 0.005889 2.923146 -0.037682
v 1.012668 2.923145 -0.037682
v 0.005889 2.874389 -0.018259
v 1.012668 2.874388 -0.018259
v 0.005889 2.874389 0.020588
v 1.012668 2.874388 0.020588
v 0.005889 2.923146 0.040012
v 1.012668 2.923145 0.040012
v 0.005889 2.971902 0.020588
v 1.012668 2.971902 0.020588
v 0.005889 2.971902 -0.018259
v 1.012668 2.971902 -0.018259
v 0.020510 0.743728 -0.016618
v 0.079526 0.743728 0.017455
v 0.079526 0.743728 0.085600
v 0.020510 0.743729 0.119673
v -0.038506 0.743728 0.085600
v -0.038506 0.743728 0.017455
v -0.018668 2.704706 -0.074042
v 0.040695 2.704706 -0.039769
v 0.040695 2.704706 0.028777
v -0.018668 2.704706 0.063050
v -0.078031 2.704706 0.028777
v -0.078031 2.704706 -0.039769
v 1.029727 2.107932 -0.054717
v 1.093841 2.107932 -0.017700
v 1.093841 2.107932 0.056333
v 1.029727 2.107932 0.093350
v 0.965612 2.107932 0.056333
v 0.965612 2.107932 -0.017700
v 1.065384 0.535904 -0.026701
v 1.065384 0.535904 0.049194
v 0.999657 0.535904 0.087142
v 0.933930 0.535904 0.049194
v 0.933930 0.535904 -0.026701
v 0.999657 0.535904 -0.064649
v 0.000001 3.439685 -0.000002
v 1.001581 3.439685 -0.000002
v 0.316120 1.774434 -0.019899
v 0.316119 1.726699 -0.000882
v 0.316119 1.726699 0.037151
v 0.316119 1.774434 0.056168
v 0.316119 1.822170 0.037151
v 0.316119 1.822170 -0.000882
v 0.679926 1.785997 0.067688
v 0.679926 1.738261 0.048671
v 0.679926 1.785997 0.105721
v 0.679926 1.738261 0.124738
v 0.679926 1.690525 0.105721
v 0.679926 1.690525 0.067688
v 0.366614 0.836759 -0.019456
v 0.366614 0.836759 0.016251
v 0.366614 0.791944 0.034104
v 0.366614 0.747128 0.016251
v 0.366614 0.747128 -0.019456
v 0.366614 0.791944 -0.037310
v 0.707308 2.861152 -0.026857
v 0.707308 2.812396 -0.007434
v 0.707308 2.812396 0.031413
v 0.707308 2.861152 0.050837
v 0.707308 2.909909 0.031413
v 0.707308 2.909909 -0.007434
v 0.092643 1.556942 -0.006282
v 0.092643 1.556942 0.062030
v 0.033483 1.556942 0.096186
v -0.025677 1.556942 0.062030
v -0.025677 1.556942 -0.006282
v 0.033483 1.556942 -0.040438
v 0.998696 1.409754 -0.054590
v 1.056959 1.409754 -0.020952
v 1.056959 1.409754 0.046325
v 0.998696 1.409754 0.079963
v 0.940432 1.409754 0.046325
v 0.940432 1.409754 -0.020952
vt 0.497436 0.721958
vt 0.515237 0.711368
vt 0.515237 0.867444
vt 0.498406 0.877458
vt 0.239154 0.001785
vt 0.239154 0.512253
vt 0.209386 0.003894
vt 0.458626 0.470611
vt 0.429812 0.455090
vt 0.458626 0.439567
vt 0.783344 0.333461
vt 0.819418 0.335165
vt 0.819418 0.376585
vt 0.790456 0.365409
vt 0.851652 0.345898
vt 0.851652 0.380604
vt 0.823887 0.366721
vt 0.822988 0.333461
vt 0.570611 0.393779
vt 0.596585 0.410780
vt 0.596585 0.446478
vt 0.568874 0.424773
vt 0.722949 0.001785
vt 0.722949 0.032829
vt 0.696065 0.017307
vt 0.766844 0.392534
vt 0.766844 0.720516
vt 0.739386 0.719740
vt 0.739319 0.391756
vt 0.484124 0.447548
vt 0.468602 0.420663
vt 0.515168 0.393779
vt 0.515168 0.447548
vt 0.889268 0.802426
vt 0.908673 0.801164
vt 0.908673 0.942221
vt 0.889254 0.943484
vt 0.382623 0.713969
vt 0.382623 0.871152
vt 0.361627 0.868550
vt 0.361627 0.711368
vt 0.465032 0.384002
vt 0.437409 0.384669
vt 0.429812 0.093453
vt 0.465032 0.087634
vt 0.717571 0.047101
vt 0.717571 0.074732
vt 0.433271 0.084064
vt 0.429812 0.047033
vt 0.870744 0.387230
vt 0.855222 0.360346
vt 0.870744 0.333461
vt 0.889837 0.387230
vt 0.874315 0.360346
vt 0.889837 0.333461
vt 0.534260 0.447548
vt 0.518738 0.420663
vt 0.565303 0.393779
vt 0.565303 0.447548
vt 0.610261 0.392764
vt 0.637886 0.392212
vt 0.637886 0.688579
vt 0.606849 0.689199
vt 0.961554 0.391997
vt 0.977211 0.391756
vt 0.977211 0.675634
vt 0.961554 0.675874
vt 0.136628 0.001785
vt 0.136628 0.538764
vt 0.105614 0.511310
vt 0.453861 0.866789
vt 0.453874 0.711368
vt 0.472523 0.716829
vt 0.472523 0.872255
vt 0.002977 0.954327
vt 0.002977 0.828650
vt 0.023716 0.832830
vt 0.023716 0.958507
vt 0.607299 0.908851
vt 0.606849 0.692770
vt 0.637890 0.693159
vt 0.637890 0.909235
vt 0.896124 0.321061
vt 0.880602 0.294176
vt 0.896124 0.267292
vt 0.908929 0.387230
vt 0.893407 0.360346
vt 0.908929 0.333461
vt 0.205816 0.528442
vt 0.175984 0.529253
vt 0.174648 0.020027
vt 0.205816 0.001785
vt 0.460623 0.435997
vt 0.430115 0.425430
vt 0.429812 0.388239
vt 0.460623 0.400797
vt 0.124266 0.831471
vt 0.139344 0.828697
vt 0.139344 0.984199
vt 0.125087 0.986822
vt 0.789951 0.731277
vt 0.789951 0.870109
vt 0.770415 0.861990
vt 0.770824 0.723329
vt 0.493866 0.721427
vt 0.493866 0.877783
vt 0.476094 0.867144
vt 0.477062 0.711368
vt 0.171077 0.538822
vt 0.141238 0.539288
vt 0.140198 0.012634
vt 0.171077 0.001785
vt 0.386193 0.719282
vt 0.405334 0.711368
vt 0.405334 0.867871
vt 0.387235 0.875354
vt 0.032819 0.002544
vt 0.032819 0.539541
vt 0.002986 0.538812
vt 0.001785 0.001785
vt 0.794957 0.009451
vt 0.814199 0.001785
vt 0.814199 0.032448
vt 0.794957 0.024782
vt 0.835835 0.030572
vt 0.817770 0.023375
vt 0.817770 0.008982
vt 0.835835 0.001785
vt 0.034002 0.830163
vt 0.048321 0.828800
vt 0.048321 0.984223
vt 0.033992 0.985587
vt 0.450291 0.866800
vt 0.431642 0.872262
vt 0.431629 0.716834
vt 0.450291 0.711368
vt 0.518807 0.866794
vt 0.518820 0.711368
vt 0.537014 0.718193
vt 0.537014 0.873624
vt 0.995057 0.822116
vt 0.980802 0.824105
vt 0.980792 0.683044
vt 0.995057 0.681053
vt 0.820707 0.942221
vt 0.801535 0.945474
vt 0.801521 0.804416
vt 0.820706 0.801160
vt 0.288036 0.868550
vt 0.288036 0.711368
vt 0.308979 0.714366
vt 0.308979 0.871549
vt 0.846446 0.802425
vt 0.846446 0.943486
vt 0.827041 0.942224
vt 0.827027 0.801161
vt 0.850016 0.804803
vt 0.870857 0.801167
vt 0.870857 0.926844
vt 0.850016 0.930480
vt 0.980792 0.968733
vt 0.980802 0.827675
vt 0.995057 0.829665
vt 0.995057 0.970724
vt 0.472169 0.388474
vt 0.468602 0.087634
vt 0.499584 0.089595
vt 0.499584 0.390208
vt 0.677128 0.997671
vt 0.677128 0.871994
vt 0.692778 0.872538
vt 0.692778 0.998215
vt 0.873784 0.391756
vt 0.889443 0.391756
vt 0.889443 0.797593
vt 0.873785 0.797593
vt 0.561642 0.707797
vt 0.155813 0.707797
vt 0.155813 0.686642
vt 0.561642 0.686641
vt 0.770481 0.391773
vt 0.797951 0.391756
vt 0.797951 0.719741
vt 0.770415 0.719758
vt 0.822677 0.797590
vt 0.801521 0.797590
vt 0.801522 0.391756
vt 0.822677 0.391756
vt 0.846446 0.391758
vt 0.846446 0.797591
vt 0.826521 0.797591
vt 0.826247 0.391756
vt 0.066220 0.830164
vt 0.066220 0.985596
vt 0.051901 0.984233
vt 0.051891 0.828800
vt 0.268807 0.711415
vt 0.284466 0.711368
vt 0.284466 0.974861
vt 0.268807 0.974909
vt 0.933331 0.944547
vt 0.912243 0.946241
vt 0.912243 0.682747
vt 0.933331 0.681053
vt 0.919367 0.048884
vt 0.940442 0.047033
vt 0.940442 0.330911
vt 0.919367 0.332761
vt 0.561652 0.549986
vt 0.561652 0.580580
vt 0.209386 0.578262
vt 0.209386 0.551143
vt 0.246007 0.713059
vt 0.246007 0.976552
vt 0.225040 0.974859
vt 0.225251 0.711368
vt 0.596313 0.929524
vt 0.575574 0.933704
vt 0.575574 0.808027
vt 0.596313 0.803847
vt 0.996431 0.660420
vt 0.980781 0.660963
vt 0.980781 0.535286
vt 0.996431 0.534743
vt 0.140198 0.668535
vt 0.140198 0.542858
vt 0.161040 0.546494
vt 0.161040 0.672171
vt 0.676076 0.368633
vt 0.679520 0.087681
vt 0.707151 0.087634
vt 0.707151 0.384088
vt 0.786066 0.048074
vt 0.813165 0.047033
vt 0.813165 0.328746
vt 0.783344 0.329891
vt 0.120695 0.831303
vt 0.120695 0.987806
vt 0.105614 0.985050
vt 0.106435 0.828697
vt 0.672506 0.388037
vt 0.641462 0.388186
vt 0.645037 0.087766
vt 0.672506 0.087634
vt 0.568707 0.388076
vt 0.537725 0.390038
vt 0.541293 0.089370
vt 0.568707 0.087634
vt 0.596313 0.800277
vt 0.568685 0.799917
vt 0.565226 0.518965
vt 0.596313 0.515823
vt 0.102044 0.002093
vt 0.102044 0.539118
vt 0.072203 0.538822
vt 0.071001 0.001785
vt 0.965107 0.048643
vt 0.965107 0.332521
vt 0.944012 0.330911
vt 0.944012 0.047033
vt 0.575847 0.388226
vt 0.572277 0.087634
vt 0.603278 0.089263
vt 0.603278 0.389667
vt 0.398713 0.002465
vt 0.426241 0.001785
vt 0.426241 0.465115
vt 0.398619 0.465797
vt 0.363856 0.002585
vt 0.363856 0.465909
vt 0.336330 0.465112
vt 0.336236 0.001785
vt 0.534155 0.388324
vt 0.503154 0.389951
vt 0.506724 0.089074
vt 0.534155 0.087634
vt 0.968677 0.047431
vt 0.984331 0.047033
vt 0.984331 0.204216
vt 0.968677 0.204613
vt 0.704653 0.392554
vt 0.704653 0.720539
vt 0.677195 0.719744
vt 0.677128 0.391756
vt 0.242819 0.003264
vt 0.270316 0.001785
vt 0.270316 0.465118
vt 0.242724 0.466602
vt 0.850289 0.391756
vt 0.870214 0.391756
vt 0.870214 0.797595
vt 0.850016 0.797597
vt 0.610423 0.388511
vt 0.606849 0.087634
vt 0.637892 0.087783
vt 0.637892 0.388642
vt 0.071328 0.967918
vt 0.071001 0.828885
vt 0.086642 0.829637
vt 0.086642 0.968655
vt 0.039112 0.543530
vt 0.066220 0.542746
vt 0.066220 0.824368
vt 0.036390 0.825230
vt 0.846577 0.047172
vt 0.846577 0.328794
vt 0.819458 0.328668
vt 0.816735 0.047033
vt 0.135435 0.543479
vt 0.135435 0.825127
vt 0.108335 0.824086
vt 0.105614 0.542334
vt 0.190876 0.927433
vt 0.190426 0.711368
vt 0.221469 0.711565
vt 0.221469 0.927627
vt 0.641913 0.902718
vt 0.641462 0.686642
vt 0.672500 0.687261
vt 0.672500 0.903328
vt 0.067431 0.002201
vt 0.067431 0.539176
vt 0.037591 0.538777
vt 0.036390 0.001785
vt 0.005700 0.543237
vt 0.032819 0.543111
vt 0.032819 0.824941
vt 0.002977 0.825080
vt 0.395048 0.002467
vt 0.395048 0.465812
vt 0.367521 0.465133
vt 0.367426 0.001785
vt 0.915797 0.263096
vt 0.884755 0.263486
vt 0.885206 0.047417
vt 0.915797 0.047033
vt 0.716550 0.732997
vt 0.735748 0.724108
vt 0.735748 0.862972
vt 0.716952 0.871675
vt 0.996422 0.530418
vt 0.980781 0.531172
vt 0.981109 0.392494
vt 0.996422 0.391756
vt 0.850147 0.282814
vt 0.877032 0.267292
vt 0.877032 0.298336
vt 0.850148 0.313857
vt 0.174648 0.540961
vt 0.194176 0.532824
vt 0.194176 0.671857
vt 0.175057 0.679825
vt 0.301477 0.003269
vt 0.301477 0.466597
vt 0.273979 0.465118
vt 0.273886 0.001785
vt 0.758507 0.732809
vt 0.758507 0.871826
vt 0.739319 0.862917
vt 0.739720 0.724086
vt 0.857470 0.030572
vt 0.839405 0.023375
vt 0.839405 0.008982
vt 0.857470 0.001785
vt 0.772145 0.009451
vt 0.791387 0.001785
vt 0.791387 0.032448
vt 0.772145 0.024782
vt 0.879106 0.023375
vt 0.861040 0.030572
vt 0.861040 0.001785
vt 0.879106 0.008982
vt 0.428059 0.718821
vt 0.428059 0.874600
vt 0.408905 0.866717
vt 0.409948 0.711368
vt 0.312549 0.714382
vt 0.333489 0.711368
vt 0.333489 0.868559
vt 0.312669 0.871565
vt 0.673558 0.683072
vt 0.645927 0.682981
vt 0.641462 0.395256
vt 0.673558 0.391756
vt 0.745762 0.032448
vt 0.726519 0.024782
vt 0.726519 0.009451
vt 0.745762 0.001785
vt 0.558791 0.866796
vt 0.540597 0.873620
vt 0.540584 0.718197
vt 0.558791 0.711368
vt 0.882676 0.023375
vt 0.882676 0.008982
vt 0.900741 0.001785
vt 0.900741 0.030572
vt 0.768574 0.032448
vt 0.749332 0.024782
vt 0.749332 0.009451
vt 0.768574 0.001785
vt 0.358057 0.868560
vt 0.337059 0.871145
vt 0.337181 0.713961
vt 0.358057 0.711368
vt 0.968677 0.365366
vt 0.968677 0.208183
vt 0.984331 0.208581
vt 0.984331 0.365763
vt 0.677128 0.865169
vt 0.677142 0.724110
vt 0.696314 0.727362
vt 0.696314 0.868424
vt 0.936902 0.682699
vt 0.957994 0.681053
vt 0.957994 0.944546
vt 0.936902 0.946193
vt 0.881185 0.263102
vt 0.850147 0.263721
vt 0.850598 0.047643
vt 0.881185 0.047033
vt 0.429830 0.022639
vt 0.692495 0.001785
vt 0.692495 0.022821
vt 0.429812 0.043463
vt 0.957983 0.675634
vt 0.936889 0.677244
vt 0.936889 0.393366
vt 0.957983 0.391756
vt 0.961564 0.964927
vt 0.961564 0.681053
vt 0.977221 0.681294
vt 0.977221 0.965168
vt 0.912243 0.675632
vt 0.912243 0.391756
vt 0.933318 0.393607
vt 0.933318 0.677483
vt 0.249577 0.974861
vt 0.249577 0.711368
vt 0.265237 0.711415
vt 0.265237 0.974909
vt 0.708290 0.392552
vt 0.735748 0.391756
vt 0.735748 0.719740
vt 0.708223 0.720538
vt 0.721208 0.047809
vt 0.748667 0.047033
vt 0.748667 0.375020
vt 0.721142 0.375798
vt 0.779774 0.047050
vt 0.779774 0.375040
vt 0.752304 0.375022
vt 0.752237 0.047033
vt 0.100831 0.543550
vt 0.100831 0.825315
vt 0.073723 0.824532
vt 0.071001 0.542688
vt 0.305141 0.002582
vt 0.332666 0.001785
vt 0.332666 0.465126
vt 0.305047 0.465926
vt 0.561646 0.584150
vt 0.561646 0.614744
vt 0.209386 0.612380
vt 0.209386 0.585262
vt 0.209386 0.620632
vt 0.561646 0.618314
vt 0.561646 0.648907
vt 0.209386 0.647751
vt 0.186856 0.927446
vt 0.155813 0.927643
vt 0.156263 0.711562
vt 0.186856 0.711368
vt 0.209386 0.517605
vt 0.561656 0.515823
vt 0.561656 0.546416
vt 0.209386 0.544724
vt 0.242724 0.484022
vt 0.594990 0.481659
vt 0.594990 0.512253
vt 0.242724 0.511141
vt 0.561642 0.652477
vt 0.561642 0.683071
vt 0.209386 0.681289
vt 0.209386 0.654169
vt 0.893014 0.391756
vt 0.908673 0.391756
vt 0.908673 0.797593
vt 0.893014 0.797593
vn -0.0079 0.3701 0.9290
vn 0.4991 0.0212 0.8663
vn 0.4999 0.0206 0.8658
vn 0.4992 0.0213 0.8662
vn -0.1799 0.9330 0.3116
vn 0.0928 0.7463 0.6592
vn -0.3591 0.6958 0.6220
vn 0.2500 0.8661 0.4329
vn 0.3141 0.8858 0.3416
vn 0.0000 1.0000 -0.0000
vn -0.1555 0.9878 0.0000
vn 0.4999 0.0170 0.8659
vn 0.0000 -1.0000 0.0000
vn 0.1749 -0.3644 0.9147
vn -0.0769 -0.3690 0.9262
vn -0.4754 0.0059 -0.8798
vn -0.4323 -0.0138 0.9016
vn 0.4999 -0.0162 -0.8659
vn -0.0880 -0.9961 0.0000
vn 0.4981 0.0221 0.8668
vn 0.4990 0.0212 0.8663
vn 0.4987 0.0212 0.8665
vn 0.2229 0.3608 0.9056
vn 0.0422 -0.3698 -0.9282
vn -0.4999 0.0182 -0.8659
vn -0.5000 0.0001 0.8660
vn -0.1979 0.9758 0.0931
vn -0.0548 0.9316 0.3593
vn -0.0548 0.9316 0.3592
vn -0.1979 0.9758 0.0932
vn -0.4805 0.8770 0.0000
vn -0.2202 -0.3610 0.9062
vn 0.0194 -0.3700 -0.9288
vn -0.9997 -0.0233 -0.0040
vn 0.3741 -0.3432 0.8615
vn 0.5000 -0.0039 -0.8660
vn -1.0000 0.0000 -0.0000
vn 0.3417 0.9398 0.0000
vn -0.2230 -0.3608 -0.9056
vn -0.0405 -0.3698 0.9282
vn -0.1263 0.9920 0.0000
vn 0.0832 0.3688 0.9258
vn 0.0295 0.3699 0.9286
vn -0.1751 0.3644 -0.9147
vn 0.1074 -0.3679 0.9236
vn 0.1261 -0.9920 0.0000
vn -0.9993 0.0379 0.0000
vn 0.1990 -0.9800 0.0000
vn 0.0000 0.3701 0.9290
vn -0.4997 0.0330 0.8656
vn -0.0000 -0.3701 0.9290
vn -0.0017 -0.1978 -0.9802
vn -0.3419 -0.9397 0.0000
vn -0.0850 0.9964 0.0000
vn -0.0287 0.3699 0.9286
vn -0.0184 -0.3700 -0.9288
vn 1.0000 0.0096 0.0000
vn 0.0275 -0.3435 -0.9387
vn -0.0422 0.3698 0.9282
vn -0.1990 0.9800 0.0000
vn -0.1074 0.3679 -0.9236
vn 0.9993 -0.0362 -0.0096
vn 0.4999 -0.0224 -0.8658
vn 0.4909 -0.8712 0.0000
vn 0.4990 -0.0633 0.8643
vn 0.9999 -0.0172 0.0000
vn 0.4982 -0.0305 0.8665
vn -0.4998 -0.0251 -0.8658
vn -0.0470 -0.3697 0.9280
vn -0.4997 -0.0359 0.8655
vn 0.4994 0.0477 0.8650
vn 0.9990 0.0452 0.0000
vn 0.4992 0.0564 -0.8646
vn -0.1425 -0.9898 0.0000
vn 0.9999 -0.0161 0.0000
vn -0.5000 0.0023 0.8660
vn -0.0017 0.1978 -0.9802
vn -0.4982 0.0838 -0.8630
vn 0.4347 0.9006 0.0000
vn -0.4999 0.0221 -0.8658
vn -0.9994 0.0360 0.0000
vn -0.5000 0.0056 0.8660
vn -0.4999 -0.0182 0.8659
vn -1.0000 -0.0018 0.0000
vn 0.9998 0.0192 0.0000
vn 0.9986 -0.0528 0.0000
vn -0.4994 -0.0480 -0.8650
vn 0.4999 -0.0146 0.8659
vn -0.1232 -0.3673 -0.9219
vn -0.4298 -0.9029 0.0000
vn 0.2248 0.3606 -0.9052
vn 0.5000 -0.0026 -0.8660
vn 0.1280 0.3670 0.9214
vn 1.0000 0.0000 0.0000
vn -0.3648 0.3446 -0.8650
vn -0.0274 -0.3632 -0.9313
vn -0.9989 -0.0044 -0.0471
vn 0.0404 0.3698 -0.9282
vn 0.0770 0.3623 -0.9289
vn 0.1425 0.9898 0.0000
vn -0.0834 -0.3688 -0.9258
vn 0.0344 -0.3699 0.9284
vn 1.0000 0.0054 0.0000
vn -0.0311 0.3435 -0.9386
vn 0.0470 0.3697 -0.9280
vn 0.0880 0.9961 0.0000
vn 0.0184 0.3700 0.9288
vn 0.0850 -0.9964 0.0000
vn -0.9999 0.0158 0.0000
vn -0.4999 -0.0174 -0.8659
vn 0.4997 -0.0333 -0.8655
vn 0.4996 -0.0388 0.8654
vn -0.9990 -0.0456 0.0000
vn 0.5000 0.0077 0.8660
vn -1.0000 0.0074 0.0000
vn 0.4999 0.0218 -0.8658
vn 0.5000 0.0105 -0.8660
vn -0.5000 0.0094 -0.8660
vn -0.5000 0.0066 0.8660
g Ladder_Broken_Ladder_Broken_Collor_Material
usemtl Collor_Material
s off
f 131/1/1 132/2/1 32/3/1 34/4/1
f 111/5/2 20/6/3 112/7/4
f 24/8/5 22/9/5 122/10/5
f 22/11/6 20/12/7 18/13/7 122/14/6
f 6/15/8 4/16/8 121/17/9 8/18/9
f 4/19/10 2/20/11 12/21/11 121/22/10
f 18/23/10 16/24/10 122/25/10
f 149/26/12 100/27/12 99/28/12 148/29/12
f 9/30/13 11/31/13 3/32/13 7/33/13
f 45/34/14 46/35/14 54/36/14 56/37/14
f 39/38/15 79/39/15 77/40/15 40/41/15
f 103/42/16 108/43/16 12/44/16 2/45/16
f 107/46/17 106/47/17 8/48/17 10/49/17
f 11/50/13 1/51/13 3/52/13
f 3/53/13 5/54/13 7/55/13
f 21/56/13 23/57/13 15/58/13 19/59/13
f 104/60/18 103/61/18 2/62/18 4/63/18
f 89/64/19 87/65/19 142/66/19 143/67/19
f 111/68/20 18/69/21 20/70/22
f 136/71/23 57/72/23 55/73/23 137/74/23
f 88/75/24 142/76/24 141/77/24 86/78/24
f 120/79/25 13/80/25 23/81/25 119/82/25
f 23/83/13 13/84/13 15/85/13
f 15/86/13 17/87/13 19/88/13
f 113/89/26 112/90/26 20/91/26 22/92/26
f 12/93/27 10/94/28 8/95/29 121/96/30
f 129/97/31 131/98/31 34/99/31 36/100/31
f 126/101/32 31/102/32 29/103/32 125/104/32
f 28/105/33 134/106/33 130/107/33 26/108/33
f 114/109/34 113/110/34 22/111/34 24/112/34
f 132/113/35 133/114/35 30/115/35 32/116/35
f 16/117/36 110/118/36 109/119/36 14/120/36
f 133/121/37 132/122/37 130/123/37 134/124/37
f 45/125/37 44/126/37 43/127/37 48/128/37
f 59/129/38 57/130/38 136/131/38 135/132/38
f 51/133/39 49/134/39 140/135/39 139/136/39
f 137/137/40 55/138/40 53/139/40 138/140/40
f 43/141/41 44/142/41 58/143/41 60/144/41
f 44/145/42 45/146/42 56/147/42 58/148/42
f 38/149/43 81/150/43 79/151/43 39/152/43
f 50/153/44 48/154/44 43/155/44 60/156/44
f 144/157/45 143/158/45 90/159/45 92/160/45
f 54/161/46 46/162/46 47/163/46 52/164/46
f 102/165/47 11/166/47 9/167/47 101/168/47
f 90/169/48 143/170/48 142/171/48 88/172/48
f 71/173/10 69/174/10 70/175/10 72/176/10
f 70/177/49 69/178/49 67/179/49 68/180/49
f 101/181/50 100/182/50 149/183/50 150/184/50
f 67/185/51 65/186/51 66/187/51 68/188/51
f 64/189/52 63/190/52 61/191/52 62/192/52
f 138/193/53 53/194/53 51/195/53 139/196/53
f 37/197/54 38/198/54 82/199/54 84/200/54
f 38/201/55 39/202/55 80/203/55 82/204/55
f 87/205/56 85/206/56 141/207/56 142/208/56
f 116/209/57 115/210/57 154/211/57 155/212/57
f 76/213/58 41/214/58 42/215/58 74/216/58
f 145/217/59 144/218/59 92/219/59 94/220/59
f 146/221/60 145/222/60 94/223/60 96/224/60
f 86/225/61 141/226/61 146/227/61 96/228/61
f 6/229/62 105/230/62 104/231/62 4/232/62
f 154/233/63 153/234/63 109/235/63 110/236/63
f 30/237/64 133/238/64 134/239/64 28/240/64
f 7/241/65 5/242/65 99/243/65 100/244/65
f 5/245/66 3/246/66 98/247/66 99/248/66
f 106/249/67 105/250/67 6/251/67 8/252/67
f 14/253/68 109/254/68 114/255/68 24/256/68
f 144/257/69 91/258/69 89/259/69 143/260/69
f 101/261/70 9/262/70 7/263/70 100/264/70
f 149/265/71 148/266/71 105/267/71 106/268/71
f 105/269/72 148/270/72 147/271/72 104/272/72
f 3/273/73 1/274/73 97/275/73 98/276/73
f 77/277/74 75/278/74 41/279/74 40/280/74
f 148/281/75 99/282/75 98/283/75 147/284/75
f 150/285/76 149/286/76 106/287/76 107/288/76
f 61/289/77 71/290/77 72/291/77 62/292/77
f 97/293/78 1/294/78 11/295/78 102/296/78
f 128/297/79 35/298/79 33/299/79 127/300/79
f 153/301/80 158/302/80 114/303/80 109/304/80
f 114/305/81 158/306/81 157/307/81 113/308/81
f 113/309/82 157/310/82 156/311/82 112/312/82
f 118/313/83 21/314/83 19/315/83 117/316/83
f 119/317/84 23/318/84 21/319/84 118/320/84
f 18/321/85 111/322/85 110/323/85 16/324/85
f 155/325/86 154/326/86 110/327/86 111/328/86
f 103/329/87 152/330/87 151/331/87 108/332/87
f 19/333/88 17/334/88 116/335/88 117/336/88
f 27/337/89 25/338/89 123/339/89 124/340/89
f 29/341/90 27/342/90 124/343/90 125/344/90
f 14/345/10 24/346/10 122/347/10 16/348/10
f 25/349/91 35/350/91 128/351/91 123/352/91
f 104/353/92 147/354/92 152/355/92 103/356/92
f 127/357/93 33/358/93 31/359/93 126/360/93
f 140/361/94 135/362/94 136/363/94 137/364/94
f 124/365/94 123/366/94 126/367/94 125/368/94
f 139/369/94 140/370/94 137/371/94 138/372/94
f 26/373/95 130/374/95 129/375/95 36/376/95
f 75/377/96 73/378/96 42/379/96 41/380/96
f 108/381/97 107/382/97 10/383/97 12/384/97
f 123/385/94 128/386/94 127/387/94 126/388/94
f 49/389/98 59/390/98 135/391/98 140/392/98
f 47/393/37 46/394/37 45/395/37 48/396/37
f 132/397/37 131/398/37 129/399/37 130/400/37
f 73/401/99 83/402/99 37/403/99 42/404/99
f 37/405/100 83/406/100 81/407/100 38/408/100
f 52/409/101 47/410/101 48/411/101 50/412/101
f 39/413/102 40/414/102 78/415/102 80/416/102
f 17/417/103 15/418/103 115/419/103 116/420/103
f 74/421/104 42/422/104 37/423/104 84/424/104
f 85/425/105 95/426/105 146/427/105 141/428/105
f 146/429/106 95/430/106 93/431/106 145/432/106
f 145/433/107 93/434/107 91/435/107 144/436/107
f 78/437/108 40/438/108 41/439/108 76/440/108
f 102/441/109 101/442/109 150/443/109 151/444/109
f 97/445/110 102/446/110 151/447/110 152/448/110
f 147/449/111 98/450/111 97/451/111 152/452/111
f 112/453/112 156/454/112 155/455/112 111/456/112
f 151/457/113 150/458/113 107/459/113 108/460/113
f 117/461/114 116/462/114 155/463/114 156/464/114
f 158/465/115 119/466/115 118/467/115 157/468/115
f 15/469/116 13/470/116 120/471/116 115/472/116
f 154/473/117 115/474/117 120/475/117 153/476/117
f 153/477/118 120/478/118 119/479/118 158/480/118
f 118/481/119 117/482/119 156/483/119 157/484/119
f 65/485/13 63/486/13 64/487/13 66/488/13
