# Blender v3.0.0 OBJ File: 'aa.blend'
# www.blender.org
mtllib Ladder.mtl
o Ladder
v 0.000000 -0.000000 -0.077013
v 0.000000 3.439685 -0.077015
v 0.066695 -0.000000 -0.038506
v 0.066695 3.439685 -0.038508
v 0.066695 0.000000 0.038506
v 0.066695 3.401186 0.038504
v -0.000000 0.000000 0.077013
v -0.000000 3.409988 0.077011
v -0.066695 0.000000 0.038506
v -0.085025 3.418415 0.042190
v -0.066695 -0.000000 -0.038506
v -0.078088 3.427391 -0.037097
v 1.001579 -0.000000 -0.077013
v 1.001579 3.439685 -0.077015
v 1.068274 -0.000000 -0.038506
v 1.068274 3.439685 -0.038508
v 1.068274 0.000000 0.038506
v 1.068274 3.439685 0.038504
v 1.001579 0.000000 0.077013
v 1.002887 3.370829 0.077770
v 0.934884 0.000000 0.038506
v 0.934884 3.413963 0.038504
v 0.934884 -0.000000 -0.038506
v 0.934884 3.439685 -0.038508
v 0.005889 1.923145 -0.037682
v 1.012668 1.923145 -0.018016
v 0.005889 1.874389 -0.018258
v 1.012668 1.878010 -0.000035
v 0.005889 1.874389 0.020589
v 1.012668 1.878010 0.035927
v 0.005889 1.923145 0.040012
v 1.012668 1.923145 0.053907
v 0.005889 1.971902 0.020589
v 1.012668 1.968281 0.035926
v 0.005889 1.971902 -0.018258
v 1.012668 1.968281 -0.000035
v 0.005889 1.423145 -0.037681
v 1.012668 1.423145 -0.037681
v 0.005889 1.374389 -0.018258
v 1.012668 1.374388 -0.018258
v 0.005889 1.374389 0.020589
v 1.012668 1.374388 0.020589
v 0.005889 1.423145 0.040013
v 1.012668 1.423145 0.040013
v 0.005889 1.471902 0.020589
v 1.012668 1.471902 0.020589
v 0.005889 1.471902 -0.018258
v 1.012668 1.471902 -0.018258
v 0.005889 0.923145 -0.000733
v 1.012668 0.923145 -0.034566
v 0.005889 0.878361 0.017108
v 1.012668 0.878298 -0.016700
v 0.005889 0.878361 0.052789
v 1.012668 0.878298 0.019032
v 0.005889 0.923145 0.070630
v 1.012668 0.923145 0.036898
v 0.005889 0.967929 0.052789
v 1.012668 0.967993 0.019032
v 0.005889 0.967929 0.017108
v 1.012668 0.967993 -0.016700
v 0.005889 0.423145 -0.026372
v 1.012668 0.423145 -0.029818
v 0.005889 0.374389 -0.018257
v 1.012668 0.374389 -0.018257
v 0.005889 0.374389 0.020590
v 1.012668 0.374389 0.020590
v 0.005889 0.423145 0.040013
v 1.012668 0.423145 0.040013
v 0.005889 0.471902 0.020590
v 1.012668 0.471902 0.020590
v 0.005889 0.471902 -0.018257
v 1.012668 0.471902 -0.018257
v -0.024466 2.423146 -0.045582
v 1.012668 2.423145 -0.035337
v -0.024466 2.374389 -0.026159
v 1.012668 2.374388 -0.018258
v -0.024466 2.374389 0.012688
v 1.012668 2.374388 0.020588
v -0.024466 2.423146 0.032111
v 1.012668 2.423145 0.040012
v -0.024466 2.471902 0.012688
v 1.012668 2.471902 0.020588
v -0.024466 2.471902 -0.026159
v 1.012668 2.471902 -0.018258
v 0.005889 2.923146 -0.037682
v 1.012668 2.923145 -0.037682
v 0.005889 2.874389 -0.018259
v 1.012668 2.874388 -0.018259
v 0.005889 2.874389 0.020588
v 1.012668 2.874388 0.020588
v 0.005889 2.923146 0.040012
v 1.012668 2.923145 0.040012
v 0.005889 2.971902 0.020588
v 1.012668 2.971902 0.020588
v 0.005889 2.971902 -0.018259
v 1.012668 2.971902 -0.018259
v 0.020510 0.985833 -0.016618
v 0.079526 0.985833 0.017455
v 0.079526 0.985833 0.085600
v 0.020510 0.985833 0.119673
v -0.038506 0.985833 0.085600
v -0.038506 0.985833 0.017455
v -0.018668 2.362658 -0.074042
v 0.040695 2.362658 -0.039769
v 0.040695 2.362658 0.028777
v -0.018668 2.362658 0.063051
v -0.078031 2.362658 0.028777
v -0.078031 2.362658 -0.039769
v 1.029727 1.871697 -0.054716
v 1.093841 1.871697 -0.017700
v 1.093841 1.871697 0.056333
v 1.029727 1.871697 0.093350
v 0.965612 1.871697 0.056333
v 0.965612 1.871697 -0.017700
v 1.065384 0.692149 -0.026701
v 1.065384 0.692149 0.049194
v 0.999657 0.692149 0.087142
v 0.933930 0.692149 0.049194
v 0.933930 0.692149 -0.026701
v 0.999657 0.692149 -0.064649
v 0.000001 3.439685 -0.000002
v 1.001581 3.439685 -0.000002
vt 0.260706 0.566773
vt 0.234340 0.557640
vt 0.234078 0.525500
vt 0.260706 0.536353
vt 0.204688 0.001384
vt 0.204688 0.524641
vt 0.178943 0.002920
vt 0.231076 0.485480
vt 0.231076 0.513766
vt 0.207456 0.498204
vt 0.234078 0.485464
vt 0.265254 0.486936
vt 0.265254 0.522732
vt 0.240225 0.513073
vt 0.230431 0.538157
vt 0.230431 0.568151
vt 0.206436 0.556152
vt 0.205660 0.527409
vt 0.180444 0.527409
vt 0.202892 0.542102
vt 0.202892 0.572952
vt 0.178943 0.554195
vt 0.113397 0.577316
vt 0.090163 0.563902
vt 0.113397 0.550488
vt 0.520096 0.412447
vt 0.493661 0.412919
vt 0.494310 0.001845
vt 0.520096 0.001384
vt 0.362140 0.530956
vt 0.348726 0.507722
vt 0.388968 0.484488
vt 0.388968 0.530956
vt 0.638213 0.372301
vt 0.614334 0.372248
vt 0.610479 0.004441
vt 0.638213 0.001384
vt 0.146405 0.547775
vt 0.120617 0.548117
vt 0.119698 0.010697
vt 0.146405 0.001384
vt 0.432495 0.376639
vt 0.408619 0.377033
vt 0.402019 0.006176
vt 0.432495 0.001384
vt 0.345958 0.369209
vt 0.322079 0.369213
vt 0.313954 0.004361
vt 0.345958 0.001384
vt 0.388968 0.580193
vt 0.375554 0.556959
vt 0.388968 0.533724
vt 0.284358 0.581088
vt 0.270944 0.557854
vt 0.284358 0.534620
vt 0.284358 0.485384
vt 0.311186 0.485384
vt 0.311186 0.531852
vt 0.270944 0.508618
vt 0.748020 0.740778
vt 0.729737 0.740830
vt 0.730024 0.379508
vt 0.748020 0.379463
vt 0.931223 0.379670
vt 0.931223 0.730601
vt 0.914431 0.730393
vt 0.914407 0.379463
vt 0.116930 0.001384
vt 0.116930 0.547720
vt 0.090163 0.523954
vt 0.371960 0.560553
vt 0.348726 0.573967
vt 0.348726 0.547138
vt 0.371960 0.533724
vt 0.670575 0.363319
vt 0.673543 0.001412
vt 0.697421 0.001384
vt 0.697421 0.376695
vt 0.835457 0.242543
vt 0.835068 0.001384
vt 0.861895 0.001645
vt 0.861895 0.242800
vt 0.162587 0.588625
vt 0.149173 0.565391
vt 0.162587 0.542157
vt 0.300540 0.581088
vt 0.287126 0.557854
vt 0.300540 0.534620
vt 0.176175 0.538795
vt 0.150392 0.539389
vt 0.149173 0.017036
vt 0.176175 0.001384
vt 0.503170 0.766478
vt 0.501813 0.415687
vt 0.520096 0.415748
vt 0.520096 0.766534
vt 0.643930 0.001709
vt 0.667807 0.001384
vt 0.667807 0.376638
vt 0.640981 0.377004
vt 0.524221 0.766443
vt 0.522864 0.415671
vt 0.541146 0.415765
vt 0.541146 0.766530
vt 0.953575 0.740772
vt 0.953575 0.379463
vt 0.967107 0.379566
vt 0.967107 0.740875
vt 0.967181 0.352162
vt 0.953650 0.352368
vt 0.954656 0.001575
vt 0.967181 0.001384
vt 0.891415 0.620619
vt 0.864587 0.620751
vt 0.864977 0.379592
vt 0.891415 0.379463
vt 0.048527 0.766122
vt 0.048527 0.747839
vt 0.399255 0.747839
vt 0.399255 0.766122
vt 0.814017 0.001384
vt 0.832300 0.001384
vt 0.832300 0.352111
vt 0.814017 0.352111
vt 0.813943 0.379463
vt 0.832226 0.379463
vt 0.832226 0.730186
vt 0.813942 0.730186
vt 0.435263 0.415861
vt 0.453546 0.415861
vt 0.453546 0.766588
vt 0.435263 0.766588
vt 0.969949 0.001384
vt 0.983482 0.001384
vt 0.983482 0.352114
vt 0.969950 0.352114
vt 0.048527 0.726787
vt 0.399251 0.726787
vt 0.399251 0.745070
vt 0.048527 0.745071
vt 0.934089 0.001592
vt 0.950882 0.001384
vt 0.950882 0.352310
vt 0.934066 0.352518
vt 0.986192 0.379879
vt 0.998616 0.379463
vt 0.998616 0.730394
vt 0.986176 0.730811
vt 0.835383 0.620618
vt 0.834994 0.379463
vt 0.861819 0.379877
vt 0.861819 0.621026
vt 0.931298 0.001592
vt 0.931298 0.352518
vt 0.914506 0.352310
vt 0.914482 0.001384
vt 0.894495 0.001384
vt 0.911714 0.001384
vt 0.911714 0.352115
vt 0.894259 0.352117
vt 0.934014 0.379671
vt 0.950807 0.379463
vt 0.950807 0.730385
vt 0.933991 0.730594
vt 0.287467 0.002362
vt 0.311186 0.001384
vt 0.311186 0.481631
vt 0.287328 0.482616
vt 0.399257 0.768890
vt 0.399257 0.782423
vt 0.048527 0.782422
vt 0.048527 0.768890
vt 0.472610 0.766577
vt 0.472609 0.415850
vt 0.490893 0.415850
vt 0.490893 0.766577
vt 0.771840 0.379463
vt 0.790123 0.379463
vt 0.790123 0.730187
vt 0.771840 0.730187
vt 0.399257 0.801492
vt 0.399257 0.815025
vt 0.048527 0.815024
vt 0.048527 0.801492
vt 0.911639 0.379465
vt 0.911639 0.730191
vt 0.894420 0.730191
vt 0.894183 0.379463
vt 0.730099 0.362697
vt 0.729811 0.001384
vt 0.748095 0.001436
vt 0.748095 0.362742
vt 0.405108 0.723933
vt 0.402019 0.379801
vt 0.428847 0.379898
vt 0.428847 0.724019
vt 0.750863 0.362707
vt 0.750863 0.001384
vt 0.769146 0.001436
vt 0.769146 0.362758
vt 0.372605 0.001474
vt 0.372605 0.481720
vt 0.348865 0.481630
vt 0.348726 0.001384
vt 0.543914 0.415774
vt 0.557447 0.415671
vt 0.557447 0.776981
vt 0.543914 0.777084
vt 0.490893 0.412429
vt 0.464461 0.413082
vt 0.465110 0.002021
vt 0.490893 0.001384
vt 0.771914 0.001384
vt 0.790197 0.001384
vt 0.790197 0.352111
vt 0.771914 0.352111
vt 0.752755 0.801492
vt 0.752755 0.815025
vt 0.402026 0.815024
vt 0.402026 0.801492
vt 0.792966 0.001384
vt 0.811249 0.001384
vt 0.811249 0.352107
vt 0.792965 0.352107
vt 0.769072 0.740775
vt 0.750788 0.740826
vt 0.750789 0.379514
vt 0.769072 0.379463
vt 0.399258 0.785191
vt 0.399258 0.798724
vt 0.048527 0.798723
vt 0.048527 0.785191
vt 0.792891 0.379463
vt 0.811175 0.379463
vt 0.811175 0.730191
vt 0.792892 0.730191
vt 0.726969 0.723288
vt 0.700141 0.723385
vt 0.703230 0.379548
vt 0.726969 0.379463
vt 0.697373 0.723313
vt 0.670575 0.724593
vt 0.673660 0.380595
vt 0.697373 0.379463
vt 0.231311 0.002462
vt 0.231310 0.482712
vt 0.207596 0.481641
vt 0.207456 0.001384
vt 0.087395 0.001610
vt 0.087395 0.547994
vt 0.061605 0.547777
vt 0.060569 0.001384
vt 0.727044 0.366325
vt 0.703165 0.366116
vt 0.700189 0.004214
vt 0.727044 0.001384
vt 0.644067 0.723717
vt 0.640981 0.379772
vt 0.667788 0.380834
vt 0.667788 0.724658
vt 0.375511 0.001474
vt 0.399251 0.001384
vt 0.399251 0.481622
vt 0.375372 0.481712
vt 0.284560 0.002368
vt 0.284560 0.482607
vt 0.260841 0.481628
vt 0.260701 0.001384
vt 0.322245 0.716090
vt 0.319160 0.371981
vt 0.345958 0.373261
vt 0.345958 0.717222
vt 0.578504 0.766169
vt 0.560221 0.766230
vt 0.561579 0.415437
vt 0.578504 0.415380
vt 0.637286 0.719080
vt 0.610479 0.720142
vt 0.613566 0.376008
vt 0.637286 0.375069
vt 0.234218 0.002456
vt 0.257933 0.001384
vt 0.257933 0.481617
vt 0.234078 0.482696
vt 0.523512 0.412443
vt 0.522864 0.001384
vt 0.549298 0.001856
vt 0.549298 0.412903
vt 0.607711 0.412424
vt 0.581272 0.412584
vt 0.581921 0.001540
vt 0.607711 0.001384
vt 0.468754 0.416278
vt 0.468754 0.767211
vt 0.456330 0.766795
vt 0.456314 0.415861
vt 0.028206 0.001941
vt 0.028206 0.548293
vt 0.002421 0.547758
vt 0.001384 0.001384
vt 0.599555 0.766114
vt 0.581272 0.766207
vt 0.582631 0.415439
vt 0.599555 0.415352
vt 0.435911 0.412456
vt 0.435263 0.001384
vt 0.461693 0.002037
vt 0.461693 0.413093
vt 0.865052 0.242534
vt 0.864663 0.001384
vt 0.891491 0.001516
vt 0.891491 0.242663
vt 0.878890 0.974321
vt 0.877885 0.623519
vt 0.891415 0.623725
vt 0.891415 0.974512
vt 0.057801 0.001689
vt 0.057801 0.548042
vt 0.032013 0.547749
vt 0.030974 0.001384
vt 0.552714 0.412456
vt 0.552066 0.001384
vt 0.578504 0.001544
vt 0.578504 0.412612
vt 0.028209 0.792212
vt 0.001384 0.792626
vt 0.001773 0.551469
vt 0.028209 0.551061
vt 0.861821 0.864941
vt 0.834994 0.865201
vt 0.835383 0.624051
vt 0.861821 0.623794
vt 0.969875 0.379463
vt 0.983408 0.379463
vt 0.983408 0.730193
vt 0.969876 0.730193
vn -0.1979 0.9758 0.0931
vn -0.0548 0.9316 0.3593
vn -0.0548 0.9316 0.3592
vn -0.1979 0.9758 0.0932
vn 0.4999 0.0179 0.8659
vn 0.5004 0.0180 0.8656
vn -0.1799 0.9330 0.3116
vn 0.0928 0.7463 0.6592
vn -0.3591 0.6958 0.6220
vn 0.2500 0.8661 0.4329
vn 0.3141 0.8858 0.3416
vn 0.0000 1.0000 -0.0000
vn -0.1555 0.9878 0.0000
vn -0.4999 0.0200 -0.8659
vn 0.0000 -1.0000 0.0000
vn -0.9989 -0.0030 -0.0471
vn -0.9998 -0.0198 -0.0034
vn -0.4753 0.0040 -0.8798
vn -0.4321 -0.0093 0.9018
vn 0.0082 -0.3506 -0.9365
vn -0.0312 -0.3699 -0.9285
vn 0.5007 0.0180 0.8654
vn 0.9997 -0.0245 -0.0065
vn -0.5000 0.0141 -0.8659
vn -0.5000 0.0000 0.8660
vn 0.0181 0.3700 -0.9288
vn 0.5000 -0.0111 -0.8660
vn -0.0128 0.3701 0.9289
vn 0.0036 -1.0000 0.0000
vn 0.4999 0.0169 -0.8659
vn 0.0000 0.3701 0.9290
vn -0.0000 -0.3701 0.9290
vn 0.0000 0.3701 -0.9290
vn -0.0312 0.3699 -0.9285
vn -0.0001 1.0000 0.0000
vn -1.0000 -0.0014 0.0000
vn 0.0311 -0.3699 0.9285
vn -0.0017 0.1978 -0.9802
vn 0.0311 0.3699 0.9285
vn -0.9996 -0.0287 0.0000
vn -0.0000 -0.3701 -0.9290
vn -0.0017 -0.1978 -0.9802
vn 0.0082 0.3506 -0.9365
vn -0.4990 0.0633 -0.8643
vn -0.0071 0.3701 0.9290
vn -0.4994 -0.0503 -0.8649
vn 0.5000 -0.0055 -0.8660
vn -0.0071 -0.3701 0.9290
vn 0.4994 -0.0478 0.8650
vn 0.9999 -0.0130 0.0000
vn 0.4999 -0.0219 -0.8658
vn -0.4999 -0.0213 -0.8658
vn 0.4988 -0.0205 0.8665
vn -0.4998 -0.0271 0.8657
vn 0.4994 0.0498 0.8650
vn 0.9996 0.0282 0.0000
vn -0.9996 0.0286 0.0000
vn 0.0181 -0.3700 -0.9288
vn 0.4995 0.0426 -0.8652
vn -0.4999 0.0214 0.8658
vn 0.4999 -0.0173 0.8659
vn 0.9997 -0.0241 0.0000
vn -0.0001 -1.0000 0.0000
vn 0.5000 -0.0033 -0.8660
vn -0.0128 -0.3701 0.9289
vn -0.5000 0.0082 0.8660
vn -0.5000 -0.0141 0.8659
vn 0.0036 1.0000 0.0000
vn 0.9999 0.0163 0.0000
vn -0.9996 0.0269 0.0000
vn 1.0000 0.0042 0.0000
vn 0.5000 -0.0113 0.8660
g Ladder_Ladder_Collor_Material
usemtl Collor_Material
s off
f 12/1/1 10/2/2 8/3/3 121/4/4
f 111/5/5 20/6/5 112/7/6
f 24/8/7 22/9/7 122/10/7
f 22/11/8 20/12/9 18/13/9 122/14/8
f 6/15/10 4/16/10 121/17/11 8/18/11
f 4/19/12 2/20/13 12/21/13 121/22/12
f 18/23/12 16/24/12 122/25/12
f 120/26/14 119/27/14 114/28/14 109/29/14
f 9/30/15 11/31/15 3/32/15 7/33/15
f 108/34/16 107/35/16 10/36/16 12/37/16
f 114/38/17 113/39/17 22/40/17 24/41/17
f 103/42/18 108/43/18 12/44/18 2/45/18
f 107/46/19 106/47/19 8/48/19 10/49/19
f 11/50/15 1/51/15 3/52/15
f 3/53/15 5/54/15 7/55/15
f 21/56/15 23/57/15 15/58/15 19/59/15
f 75/60/20 73/61/20 74/62/20 76/63/20
f 52/64/21 51/65/21 49/66/21 50/67/21
f 111/68/22 18/69/22 20/70/22
f 14/71/12 24/72/12 122/73/12 16/74/12
f 6/75/23 105/76/23 104/77/23 4/78/23
f 120/79/24 13/80/24 23/81/24 119/82/24
f 23/83/15 13/84/15 15/85/15
f 15/86/15 17/87/15 19/88/15
f 113/89/25 112/90/25 20/91/25 22/92/25
f 26/93/26 25/94/26 35/95/26 36/96/26
f 104/97/27 103/98/27 2/99/27 4/100/27
f 34/101/28 33/102/28 31/103/28 32/104/28
f 84/105/12 83/106/12 81/107/12 82/108/12
f 29/109/29 27/110/29 28/111/29 30/112/29
f 15/113/30 13/114/30 120/115/30 115/116/30
f 45/117/31 43/118/31 44/119/31 46/120/31
f 91/121/32 89/122/32 90/123/32 92/124/32
f 37/125/33 47/126/33 48/127/33 38/128/33
f 43/129/32 41/130/32 42/131/32 44/132/32
f 71/133/12 69/134/12 70/135/12 72/136/12
f 70/137/31 69/138/31 67/139/31 68/140/31
f 49/141/34 59/142/34 60/143/34 50/144/34
f 59/145/35 57/146/35 58/147/35 60/148/35
f 119/149/36 23/150/36 21/151/36 118/152/36
f 56/153/37 55/154/37 53/155/37 54/156/37
f 61/157/38 71/158/38 72/159/38 62/160/38
f 57/161/39 55/162/39 56/163/39 58/164/39
f 102/165/40 101/166/40 107/167/40 108/168/40
f 41/169/15 39/170/15 40/171/15 42/172/15
f 40/173/41 39/174/41 37/175/41 38/176/41
f 85/177/33 95/178/33 96/179/33 86/180/33
f 89/181/15 87/182/15 88/183/15 90/184/15
f 64/185/42 63/186/42 61/187/42 62/188/42
f 74/189/43 73/190/43 83/191/43 84/192/43
f 97/193/44 1/194/44 11/195/44 102/196/44
f 82/197/45 81/198/45 79/199/45 80/200/45
f 103/201/46 97/202/46 102/203/46 108/204/46
f 77/205/15 75/206/15 76/207/15 78/208/15
f 115/209/47 120/210/47 109/211/47 110/212/47
f 67/213/32 65/214/32 66/215/32 68/216/32
f 95/217/12 93/218/12 94/219/12 96/220/12
f 87/221/41 85/222/41 86/223/41 88/224/41
f 79/225/48 77/226/48 78/227/48 80/228/48
f 65/229/15 63/230/15 64/231/15 66/232/15
f 93/233/31 91/234/31 92/235/31 94/236/31
f 7/237/49 5/238/49 99/239/49 100/240/49
f 5/241/50 3/242/50 98/243/50 99/244/50
f 104/245/51 98/246/51 97/247/51 103/248/51
f 14/249/52 109/250/52 114/251/52 24/252/52
f 106/253/53 105/254/53 6/255/53 8/256/53
f 101/257/54 9/258/54 7/259/54 100/260/54
f 100/261/55 99/262/55 105/263/55 106/264/55
f 105/265/56 99/266/56 98/267/56 104/268/56
f 102/269/57 11/270/57 9/271/57 101/272/57
f 27/273/58 25/274/58 26/275/58 28/276/58
f 3/277/59 1/278/59 97/279/59 98/280/59
f 101/281/60 100/282/60 106/283/60 107/284/60
f 112/285/61 117/286/61 116/287/61 111/288/61
f 116/289/62 115/290/62 110/291/62 111/292/62
f 54/293/63 53/294/63 51/295/63 52/296/63
f 16/297/64 110/298/64 109/299/64 14/300/64
f 31/301/65 29/302/65 30/303/65 32/304/65
f 113/305/66 118/306/66 117/307/66 112/308/66
f 118/309/67 21/310/67 19/311/67 117/312/67
f 36/313/68 35/314/68 33/315/68 34/316/68
f 18/317/69 111/318/69 110/319/69 16/320/69
f 114/321/70 119/322/70 118/323/70 113/324/70
f 17/325/71 15/326/71 115/327/71 116/328/71
f 19/329/72 17/330/72 116/331/72 117/332/72
f 47/333/12 45/334/12 46/335/12 48/336/12
