# Blender v3.0.0 OBJ File: 'aa.blend'
# www.blender.org
mtllib Plant_8.mtl
o Plant_8
v -0.037377 0.295298 0.047301
v -0.084818 0.209423 0.133189
v -0.094298 0.144139 0.144971
v -0.083571 0.101344 0.133863
v -0.066121 0.058578 0.102222
v -0.019655 0.294063 0.054971
v -0.052664 0.209812 0.148379
v -0.059903 0.144060 0.160888
v -0.052523 0.101204 0.149268
v -0.040113 0.058532 0.114896
v 0.037540 0.299196 0.045797
v 0.101101 0.211724 0.121574
v 0.109591 0.157973 0.131741
v 0.100780 0.104310 0.122325
v 0.076021 0.058909 0.094791
v 0.050192 0.301032 0.033082
v 0.125199 0.211906 0.096755
v 0.135094 0.158179 0.105475
v 0.124899 0.104505 0.097486
v 0.096198 0.059072 0.074010
v -0.000302 0.020552 0.000946
v 0.057623 0.300366 -0.020123
v 0.142838 0.211546 -0.058463
v 0.147226 0.155738 -0.063447
v 0.142589 0.104020 -0.057742
v 0.112968 0.059705 -0.042610
v 0.049017 0.298544 -0.035781
v 0.127297 0.212273 -0.089145
v 0.132395 0.156017 -0.095763
v 0.126981 0.103882 -0.088434
v 0.099263 0.059729 -0.068199
v 0.034703 0.058689 0.116615
v 0.043963 0.104012 0.152326
v 0.047336 0.157624 0.164612
v 0.044302 0.211395 0.151606
v 0.020020 0.295718 0.054796
v 0.006162 0.058592 0.121568
v 0.009898 0.103817 0.158259
v 0.011616 0.156794 0.170863
v 0.010184 0.211267 0.157535
v 0.002268 0.294278 0.057818
v -0.004666 0.296815 -0.059713
v -0.012539 0.214299 -0.157916
v -0.005341 0.156618 -0.171089
v -0.001821 0.101991 -0.157676
v -0.003421 0.058445 -0.120021
v -0.022507 0.299047 -0.056592
v -0.046954 0.213710 -0.152564
v -0.043274 0.157263 -0.164469
v -0.035435 0.102180 -0.151430
v -0.031702 0.058731 -0.115499
v -0.061197 0.307517 -0.017793
v -0.152695 0.212109 -0.039673
v -0.165748 0.158180 -0.042234
v -0.154310 0.103140 -0.038993
v -0.120770 0.055259 -0.030735
v -0.065128 0.306542 -0.000176
v -0.157606 0.211877 -0.005593
v -0.170982 0.157961 -0.006033
v -0.159408 0.102827 -0.004786
v -0.125221 0.054773 -0.001874
v 0.058835 0.302813 0.016119
v 0.153513 0.212373 0.039098
v 0.166009 0.158540 0.042479
v 0.153241 0.104811 0.039880
v 0.116789 0.059343 0.032074
v 0.061321 0.302621 -0.001519
v 0.157874 0.212397 0.004891
v 0.168490 0.158117 0.006268
v 0.157649 0.104916 0.005557
v 0.120897 0.059509 0.003395
v 0.033787 0.295487 -0.049139
v 0.089030 0.210190 -0.133737
v 0.101199 0.150980 -0.144731
v 0.088681 0.102385 -0.133049
v 0.065711 0.060034 -0.100781
v 0.016869 0.295161 -0.056785
v 0.058203 0.209049 -0.149156
v 0.070215 0.150226 -0.160698
v 0.058785 0.102487 -0.148562
v 0.040072 0.060132 -0.113772
v -0.039588 0.303310 -0.047700
v -0.100603 0.212837 -0.122194
v -0.108919 0.158820 -0.131701
v -0.098367 0.104186 -0.121544
v -0.075769 0.058889 -0.093277
v -0.051986 0.305433 -0.034994
v -0.124414 0.212353 -0.097438
v -0.134777 0.158664 -0.105447
v -0.124294 0.104678 -0.096726
v -0.097578 0.058199 -0.072614
v -0.063555 0.302338 0.018285
v -0.154033 0.208798 0.057849
v -0.164042 0.154886 0.063375
v -0.149072 0.102933 0.058546
v -0.115199 0.056710 0.043930
v -0.055051 0.299462 0.034069
v -0.138938 0.208810 0.088330
v -0.147720 0.154541 0.095857
v -0.133068 0.103028 0.089132
v -0.100573 0.057784 0.069474
v -0.043005 0.312149 0.060372
v -0.094809 0.218407 0.156215
v -0.104988 0.143423 0.169621
v -0.094079 0.091836 0.156670
v -0.074023 0.041916 0.119697
v -0.025293 0.310930 0.067978
v -0.064281 0.218471 0.170576
v -0.072291 0.143046 0.185105
v -0.064037 0.091739 0.171342
v -0.049135 0.041845 0.131878
v 0.047719 0.317156 0.056084
v 0.119596 0.220617 0.138543
v 0.129580 0.157922 0.150207
v 0.119213 0.095276 0.139380
v 0.090146 0.042383 0.107774
v 0.060429 0.318846 0.043403
v 0.142804 0.220794 0.114654
v 0.154146 0.158121 0.124907
v 0.142405 0.095464 0.115494
v 0.109434 0.042539 0.087910
v -0.000284 -0.006392 0.001132
v 0.070343 0.318085 -0.027449
v 0.165750 0.220307 -0.070802
v 0.172141 0.156011 -0.076340
v 0.165344 0.095787 -0.069971
v 0.129568 0.043443 -0.052063
v 0.061660 0.316444 -0.043097
v 0.150847 0.220895 -0.100240
v 0.156965 0.156503 -0.107797
v 0.150437 0.095787 -0.099380
v 0.116598 0.043430 -0.076486
v 0.037298 0.042100 0.135687
v 0.047582 0.094890 0.177211
v 0.051338 0.157516 0.191530
v 0.047966 0.220256 0.176370
v 0.022151 0.312906 0.068982
v 0.010014 0.042007 0.140421
v 0.014772 0.094767 0.182902
v 0.016829 0.156819 0.197566
v 0.015155 0.220133 0.182063
v 0.004391 0.311524 0.071982
v -0.005959 0.313862 -0.074099
v -0.017208 0.223172 -0.182801
v -0.012181 0.157247 -0.197567
v -0.007684 0.093654 -0.181991
v -0.008039 0.042240 -0.138669
v -0.023898 0.315933 -0.071032
v -0.049880 0.222566 -0.177395
v -0.048233 0.157838 -0.191409
v -0.039721 0.093301 -0.176354
v -0.035054 0.042441 -0.134135
v -0.075730 0.326165 -0.019950
v -0.177781 0.220692 -0.042823
v -0.192780 0.158228 -0.045466
v -0.179340 0.094498 -0.041953
v -0.140090 0.038559 -0.032620
v -0.079618 0.325247 -0.002479
v -0.182541 0.220474 -0.009745
v -0.197788 0.158036 -0.010534
v -0.184254 0.094177 -0.008953
v -0.144305 0.038080 -0.005369
v 0.073390 0.321296 0.017946
v 0.178525 0.221226 0.041955
v 0.193219 0.158600 0.045351
v 0.178152 0.095977 0.042764
v 0.135778 0.042897 0.034264
v 0.075848 0.321094 0.000352
v 0.183128 0.221350 0.008936
v 0.196281 0.158282 0.010368
v 0.182744 0.096160 0.009824
v 0.139704 0.043058 0.006857
v 0.040330 0.312634 -0.062300
v 0.098752 0.219843 -0.156668
v 0.112434 0.151658 -0.169215
v 0.098318 0.093728 -0.155713
v 0.073544 0.043410 -0.118000
v 0.023544 0.312077 -0.069971
v 0.069206 0.218904 -0.171454
v 0.082394 0.150613 -0.184984
v 0.069062 0.093773 -0.170480
v 0.048664 0.043648 -0.130345
v -0.049297 0.321115 -0.058392
v -0.118841 0.221543 -0.139370
v -0.129192 0.158896 -0.150174
v -0.117365 0.095477 -0.138508
v -0.090254 0.042664 -0.106175
v -0.061879 0.323165 -0.045735
v -0.142097 0.221257 -0.115475
v -0.153795 0.158699 -0.124883
v -0.142123 0.095900 -0.114685
v -0.110663 0.041990 -0.086466
v -0.076666 0.319550 0.025579
v -0.175758 0.217462 0.070053
v -0.188124 0.154286 0.076557
v -0.170703 0.093691 0.070811
v -0.131548 0.040213 0.053839
v -0.068020 0.316904 0.041330
v -0.161003 0.217264 0.099535
v -0.172569 0.153841 0.107786
v -0.155294 0.093658 0.100312
v -0.117620 0.041224 0.078203
vt 0.547450 0.927601
vt 0.547450 0.927601
vt 0.547450 0.927601
vt 0.547450 0.927601
vt 0.547450 0.927601
vt 0.547450 0.927601
vt 0.547450 0.927601
vt 0.547450 0.927601
vt 0.547450 0.927601
vt 0.547450 0.927601
vt 0.547450 0.927601
vt 0.547450 0.927601
vt 0.547450 0.927601
vt 0.547450 0.927601
vt 0.547450 0.927601
vt 0.547450 0.927601
vt 0.547450 0.927601
vt 0.547450 0.927601
vt 0.547450 0.927601
vt 0.547450 0.927601
vt 0.547450 0.927601
vt 0.547450 0.927601
vt 0.547450 0.927601
vt 0.547450 0.927601
vt 0.547450 0.927601
vt 0.547450 0.927601
vt 0.547450 0.927601
vt 0.547450 0.927601
vt 0.547450 0.927601
vt 0.547450 0.927601
vt 0.547450 0.927601
vt 0.547450 0.927601
vt 0.547450 0.927601
vt 0.547450 0.927601
vt 0.547450 0.927601
vt 0.547450 0.927601
vt 0.547450 0.927601
vt 0.547450 0.927601
vt 0.547450 0.927601
vt 0.547450 0.927601
vt 0.547450 0.927601
vt 0.547450 0.927601
vt 0.547450 0.927601
vt 0.547450 0.927601
vt 0.547450 0.927601
vt 0.547450 0.927601
vt 0.547450 0.927601
vt 0.547450 0.927601
vt 0.547450 0.927601
vt 0.547450 0.927601
vt 0.547450 0.927601
vt 0.547450 0.927601
vt 0.547450 0.927601
vt 0.547450 0.927601
vt 0.547450 0.927601
vt 0.547450 0.927601
vt 0.547450 0.927601
vt 0.547450 0.927601
vt 0.547450 0.927601
vt 0.547450 0.927601
vt 0.547450 0.927601
vt 0.547450 0.927601
vt 0.547450 0.927601
vt 0.547450 0.927601
vt 0.547450 0.927601
vt 0.547450 0.927601
vt 0.547450 0.927601
vt 0.547450 0.927601
vt 0.547450 0.927601
vt 0.547450 0.927601
vt 0.547450 0.927601
vt 0.547450 0.927601
vt 0.547450 0.927601
vt 0.547450 0.927601
vt 0.547450 0.927601
vt 0.547450 0.927601
vt 0.547450 0.927601
vt 0.547450 0.927601
vt 0.547450 0.927601
vt 0.547450 0.927601
vt 0.547450 0.927601
vt 0.547450 0.927601
vt 0.547450 0.927601
vt 0.547450 0.927601
vt 0.547450 0.927601
vt 0.547450 0.927601
vt 0.547450 0.927601
vt 0.547450 0.927601
vt 0.547450 0.927601
vt 0.547450 0.927601
vt 0.547450 0.927601
vt 0.547450 0.927601
vt 0.547450 0.927601
vt 0.547450 0.927601
vt 0.547450 0.927601
vt 0.547450 0.927601
vt 0.547450 0.927601
vt 0.547450 0.927601
vt 0.547450 0.927601
vt 0.547450 0.927601
vt 0.547450 0.927601
vt 0.547450 0.927601
vt 0.547450 0.927601
vt 0.547450 0.927601
vt 0.547450 0.927601
vt 0.547450 0.927601
vt 0.547450 0.927601
vt 0.547450 0.927601
vt 0.547450 0.927601
vt 0.547450 0.927601
vt 0.547450 0.927601
vt 0.547450 0.927601
vt 0.547450 0.927601
vt 0.547450 0.927601
vt 0.547450 0.927601
vt 0.547450 0.927601
vt 0.547450 0.927601
vt 0.547450 0.927601
vt 0.547450 0.927601
vt 0.547450 0.927601
vt 0.547450 0.927601
vt 0.547450 0.927601
vt 0.547450 0.927601
vt 0.547450 0.927601
vt 0.547450 0.927601
vt 0.547450 0.927601
vt 0.547450 0.927601
vt 0.547450 0.927601
vt 0.547450 0.927601
vt 0.547450 0.927601
vt 0.547450 0.927601
vt 0.547450 0.927601
vt 0.547450 0.927601
vt 0.547450 0.927601
vt 0.547450 0.927601
vt 0.547450 0.927601
vt 0.547450 0.927601
vt 0.547450 0.927601
vt 0.547450 0.927601
vt 0.547450 0.927601
vt 0.547450 0.927601
vt 0.547450 0.927601
vt 0.547450 0.927601
vt 0.547450 0.927601
vt 0.547450 0.927601
vt 0.547450 0.927601
vt 0.547450 0.927601
vt 0.547450 0.927601
vt 0.547450 0.927601
vt 0.547450 0.927601
vt 0.547450 0.927601
vt 0.547450 0.927601
vt 0.547450 0.927601
vt 0.547450 0.927601
vt 0.547450 0.927601
vt 0.547450 0.927601
vt 0.547450 0.927601
vt 0.547450 0.927601
vt 0.547450 0.927601
vt 0.547450 0.927601
vt 0.547450 0.927601
vt 0.547450 0.927601
vt 0.547450 0.927601
vt 0.547450 0.927601
vt 0.547450 0.927601
vt 0.547450 0.927601
vt 0.547450 0.927601
vt 0.547450 0.927601
vt 0.547450 0.927601
vt 0.547450 0.927601
vt 0.547450 0.927601
vt 0.547450 0.927601
vt 0.547450 0.927601
vt 0.547450 0.927601
vt 0.547450 0.927601
vt 0.547450 0.927601
vt 0.547450 0.927601
vt 0.547450 0.927601
vt 0.547450 0.927601
vt 0.547450 0.927601
vt 0.547450 0.927601
vt 0.547450 0.927601
vt 0.547450 0.927601
vt 0.547450 0.927601
vt 0.547450 0.927601
vt 0.547450 0.927601
vt 0.547450 0.927601
vt 0.547450 0.927601
vt 0.547450 0.927601
vt 0.547450 0.927601
vt 0.547450 0.927601
vt 0.547450 0.927601
vt 0.547450 0.927601
vt 0.547450 0.927601
vt 0.547450 0.927601
vt 0.547450 0.927601
vt 0.547450 0.927601
vt 0.547450 0.927601
vt 0.547450 0.927601
vt 0.547450 0.927601
vt 0.547450 0.927601
vt 0.547450 0.927601
vn -0.1465 -0.9446 0.2938
vn 0.0571 0.9531 0.2971
vn -0.2224 0.9524 -0.2084
vn -0.1379 0.9502 0.2793
vn -0.2723 0.9510 0.1467
vn 0.2413 -0.9435 0.2269
vn -0.0549 0.9531 -0.2976
vn 0.2354 0.9560 -0.1750
vn 0.2626 0.9632 0.0567
vn -0.3051 0.9516 -0.0382
vn -0.2130 -0.9438 -0.2528
vn 0.1917 0.9531 0.2342
vn 0.2970 -0.9418 -0.1573
vn -0.2919 -0.9544 -0.0619
vn 0.0594 -0.9443 0.3237
vn 0.1425 -0.9415 -0.3053
vn -0.0616 -0.9437 -0.3249
vn 0.3313 -0.9426 0.0419
vn -0.2606 -0.9469 0.1882
vn 0.1337 0.9532 -0.2710
vn 0.4108 0.3140 -0.8560
vn -0.5590 0.6310 -0.5378
vn -0.4572 -0.7438 -0.4876
vn -0.8950 -0.1202 0.4296
vn 0.1638 0.2394 0.9570
vn -0.4151 -0.3003 0.8588
vn 0.9612 -0.2394 0.1372
vn 0.4393 -0.3107 -0.8429
vn -0.7693 0.6308 -0.1013
vn -0.7050 0.6333 0.3193
vn -0.0849 0.7642 -0.6393
vn 0.4819 -0.7214 0.4973
vn 0.1599 -0.1973 0.9672
vn 0.7070 -0.6994 0.1046
vn -0.1706 0.2318 -0.9577
vn -0.6765 -0.6309 0.3799
vn -0.1358 0.6305 -0.7642
vn -0.5981 -0.7308 0.3289
vn -0.6842 -0.2463 -0.6865
vn 0.4561 0.7455 0.4860
vn -0.9953 -0.0527 0.0817
vn 0.6854 0.0528 -0.7262
vn 0.1699 0.0555 -0.9839
vn -0.1625 0.2043 -0.9653
vn 0.1697 -0.2306 0.9581
vn -0.4317 -0.2537 0.8656
vn 0.9804 0.0616 -0.1871
vn -0.9672 -0.2102 -0.1428
vn 0.8754 -0.2049 -0.4379
vn -0.7068 0.6048 0.3669
vn 0.1362 0.6417 0.7547
vn 0.3386 0.6465 -0.6836
vn -0.5429 -0.6196 -0.5669
vn 0.2621 -0.7560 -0.5998
vn -0.4383 0.3169 0.8411
vn -0.2632 -0.7608 0.5933
vn -0.3326 0.6805 0.6529
vn 0.9914 0.0393 -0.1246
vn 0.5599 -0.6296 0.5387
vn -0.0869 -0.7655 -0.6375
vn 0.0805 -0.7607 0.6441
vn 0.9682 -0.2248 0.1096
vn 0.7103 0.6490 -0.2726
vn 0.4142 -0.2167 -0.8840
vn 0.2049 0.6430 0.7379
vn -0.9728 -0.2121 -0.0933
vn 0.7307 0.0548 -0.6805
vn -0.6770 -0.7308 -0.0871
vn -0.4161 0.2144 0.8837
vn 0.9697 0.2190 0.1087
vn -0.4421 0.0640 -0.8947
vn 0.6987 -0.2326 0.6766
vn -0.1289 -0.6394 -0.7580
vn -0.6985 0.2334 -0.6764
vn 0.7693 -0.6302 0.1050
vn 0.0863 0.7676 0.6351
vn -0.2539 0.7606 0.5975
vn -0.4404 -0.0782 -0.8944
vn 0.6745 0.6322 -0.3812
vn -0.3270 0.6543 0.6819
vn -0.8529 -0.2924 0.4326
vn 0.4351 0.2509 -0.8647
vn -0.1636 -0.2396 -0.9570
vn 0.3401 0.6438 -0.6855
vn 0.1351 -0.6287 0.7658
vn 0.8898 0.1310 -0.4372
vn 0.6985 -0.2313 0.6772
vn 0.5416 0.6169 0.5711
vn -0.1647 0.0699 0.9839
vn -0.8914 0.1404 0.4309
vn 0.1743 0.2478 0.9530
vn 0.8857 -0.1512 -0.4390
vn 0.7613 0.6158 0.2029
vn 0.7614 0.6156 0.2031
vn -0.5923 0.6285 -0.5042
vn 0.9147 0.0690 0.3982
vn -0.6982 0.2323 -0.6771
vn 0.7038 -0.6099 -0.3643
vn -0.4736 0.7255 -0.4993
vn 0.8030 0.5819 0.1289
vn -0.8026 -0.5823 -0.1293
vn 0.3310 -0.6666 -0.6679
vn 0.2605 0.7655 -0.5884
vn -0.6941 0.0568 0.7177
vn -0.1777 0.6385 -0.7488
vn -0.1780 0.6383 -0.7489
vn 0.6805 0.2514 0.6883
vn -0.3376 -0.6440 0.6865
vn -0.3379 -0.6441 0.6862
vn -0.3373 -0.6438 0.6868
vn -0.6959 -0.2381 -0.6775
vn 0.6746 0.7323 0.0930
vn -0.9714 0.2174 -0.0958
vn 0.8515 0.2924 -0.4353
vn 0.1158 0.0460 -0.9922
vn -0.8727 0.2160 0.4380
vn -0.5840 0.7333 0.3482
vn -0.1601 0.0290 0.9867
vn -0.5429 -0.0609 -0.8376
vn -0.9125 0.0551 -0.4054
vn 0.4733 -0.0192 0.8807
vn 0.9021 -0.0731 0.4254
vn 0.6032 0.6287 0.4907
vn -0.4844 0.0027 -0.8749
vn -0.9780 -0.0894 0.1886
vn 0.1230 -0.0306 -0.9919
vn 0.6979 -0.0856 -0.7111
vn -0.8998 0.0599 -0.4322
vn 0.4539 0.0499 0.8897
vn 0.2255 -0.0619 -0.9723
vn -0.6975 -0.0482 0.7150
vn -0.6807 -0.0152 0.7324
vn -0.6807 0.0292 0.7320
vn 0.1239 0.0145 -0.9922
vn -0.9883 0.0619 0.1394
vn -0.2302 -0.0476 0.9720
vn -0.9877 0.0376 0.1515
vn 0.4475 0.0424 0.8933
vn -0.8845 -0.0848 -0.4588
vn -0.4937 0.0720 -0.8667
vn 0.5444 -0.0414 0.8378
vn -0.4713 -0.0530 -0.8804
vn -0.4766 -0.0547 -0.8774
vn -0.4792 -0.0489 -0.8763
vn 0.8829 -0.1101 0.4565
vn 0.9883 -0.0263 -0.1501
vn 0.8877 -0.0077 0.4604
vn -0.9821 0.0889 0.1662
vn 0.6934 -0.0621 -0.7179
vn 0.9768 -0.1502 -0.1525
vn 0.8528 -0.0496 0.5199
vn 0.9947 -0.0773 -0.0671
vn -0.9328 -0.0503 -0.3568
vn -0.6266 -0.0564 0.7773
vn -0.7045 0.7019 -0.1048
vn -0.1142 0.0311 0.9930
vn 0.1528 -0.0215 -0.9880
vn 0.4387 0.0112 0.8986
vn 0.6274 -0.0603 -0.7764
vn 0.8862 0.0224 0.4627
vn 0.9329 -0.0523 0.3564
vn -0.7191 0.0656 0.6918
vn 0.8991 -0.1257 0.4193
vn 0.7116 0.0153 -0.7024
vn -0.8528 -0.0562 -0.5193
vn 0.1452 -0.0654 -0.9872
vn 0.0519 -0.0613 -0.9968
vn -0.1474 -0.0433 0.9881
vn 0.8799 0.0934 0.4659
vn 0.4715 -0.0349 0.8812
vn -0.9026 0.0266 -0.4296
vn -0.1226 0.0572 0.9908
vn -0.7106 0.0295 0.7030
vn 0.4954 0.0520 0.8671
vn -0.3819 -0.0706 -0.9215
vn -0.4542 0.0583 -0.8890
vn -0.9813 0.0210 0.1914
vn -0.9814 0.0211 0.1909
vn -0.1637 -0.0111 0.9865
vn 0.6960 0.2369 0.6778
vn 0.9640 -0.0571 -0.2599
vn 0.9009 0.1050 0.4211
vn 0.7579 -0.0628 -0.6494
vn 0.6815 0.0183 -0.7316
vn -0.7573 -0.0491 0.6512
vn -0.1427 -0.0494 0.9885
vn -0.9816 -0.0130 0.1906
vn 0.9699 0.0061 -0.2435
vn 0.9676 0.2079 0.1436
vn -0.8939 0.0150 -0.4480
vn -0.9845 -0.0503 0.1679
vn -0.4698 -0.0652 -0.8804
vn -0.4665 -0.0705 -0.8817
vn -0.4746 -0.0684 -0.8775
vn 0.3849 -0.0496 0.9216
vn 0.1389 -0.0611 -0.9884
vn -0.9692 -0.0296 0.2445
vn -0.1663 -0.2452 -0.9551
vn -0.8986 -0.0403 -0.4368
vn 0.6711 -0.0098 -0.7413
vn -0.9005 -0.0985 -0.4235
vn 0.9886 0.0182 -0.1497
vn 0.4718 0.0468 0.8805
vn 0.7116 -0.0292 -0.7019
vn 0.1506 0.0068 -0.9886
vn 0.5876 -0.7320 -0.3450
vn -0.0503 -0.0537 0.9973
vn -0.7023 -0.0363 0.7110
vn -0.7097 -0.0206 0.7042
vn -0.4695 -0.0929 -0.8780
vn 0.4716 -0.0379 0.8810
vn -0.8883 0.0959 -0.4490
vn -0.1126 -0.0173 0.9935
vn -0.9879 -0.0728 0.1372
vn 0.9715 0.1394 -0.1919
vn 0.9830 -0.0592 -0.1736
vn -0.9619 0.2367 -0.1367
vn 0.5927 0.7360 -0.3272
vn -0.7749 0.6214 -0.1157
g Plant_8_Plant_8_Collor_Material
usemtl Collor_Material
s off
f 122/1/1 111/2/1 106/3/1
f 46/4/2 51/5/2 21/6/2
f 15/7/3 20/8/3 21/6/3
f 21/6/4 76/9/4 81/10/4
f 26/11/5 31/12/5 21/6/5
f 122/1/6 121/13/6 116/14/6
f 21/6/7 37/15/7 32/16/7
f 21/6/8 96/17/8 101/18/8
f 56/19/9 61/20/9 21/6/9
f 21/6/10 66/21/10 71/22/10
f 192/23/11 187/24/11 122/1/11
f 21/6/12 86/25/12 91/26/12
f 122/1/13 132/27/13 127/28/13
f 122/1/14 162/29/14 157/30/14
f 133/31/15 138/32/15 122/1/15
f 122/1/16 182/33/16 177/34/16
f 122/1/17 152/35/17 147/36/17
f 122/1/18 172/37/18 167/38/18
f 122/1/19 202/39/19 197/40/19
f 5/41/20 10/42/20 21/6/20
f 8/43/21 9/44/21 4/45/21 3/46/21
f 20/8/22 15/7/22 14/47/22 19/48/22
f 17/49/23 12/50/23 11/51/23 16/52/23
f 28/53/24 29/54/24 24/55/24 23/56/24
f 141/57/25 140/58/25 135/59/25 136/60/25
f 109/61/26 104/62/26 105/63/26 110/64/26
f 58/65/27 59/66/27 54/67/27 53/68/27
f 180/69/28 175/70/28 176/71/28 181/72/28
f 71/22/29 66/21/29 65/73/29 70/74/29
f 128/75/30 27/76/30 22/77/30 123/78/30
f 143/79/31 144/80/31 149/81/31 148/82/31
f 88/83/32 83/84/32 82/85/32 87/86/32
f 49/87/33 44/88/33 43/89/33 48/90/33
f 57/91/34 58/65/34 53/68/34 52/92/34
f 33/93/35 38/94/35 39/95/35 34/96/35
f 197/40/36 202/39/36 201/97/36 196/98/36
f 32/16/37 37/15/37 38/94/37 33/93/37
f 27/76/38 28/53/38 23/56/38 22/77/38
f 185/99/39 186/100/39 191/101/39 190/102/39
f 112/103/40 113/104/40 118/105/40 117/106/40
f 122/1/41 138/32/41 37/15/41 21/6/41
f 117/106/42 118/105/42 17/49/42 16/52/42
f 153/107/43 52/92/43 53/68/43 154/108/43
f 144/80/44 145/109/44 150/110/44 149/81/44
f 140/58/45 139/111/45 134/112/45 135/59/45
f 79/113/46 74/114/46 73/115/46 78/116/46
f 137/117/47 136/60/47 35/118/47 36/119/47
f 160/120/48 155/121/48 156/122/48 161/123/48
f 98/124/49 99/125/49 94/126/49 93/127/49
f 31/12/50 26/11/50 25/128/50 30/129/50
f 50/130/51 51/5/51 46/4/51 45/131/51
f 10/42/52 5/41/52 4/45/52 9/44/52
f 187/24/53 192/23/53 191/101/53 186/100/53
f 2/132/54 1/133/54 6/134/54 7/135/54
f 79/113/55 80/136/55 75/137/55 74/114/55
f 72/138/56 77/139/56 78/116/56 73/115/56
f 80/136/57 81/10/57 76/9/57 75/137/57
f 43/89/58 144/80/58 143/79/58 42/140/58
f 115/141/59 116/14/59 121/13/59 120/142/59
f 35/118/60 40/143/60 41/144/60 36/119/60
f 48/90/61 43/89/61 42/140/61 47/145/61
f 170/146/62 165/147/62 166/148/62 171/149/62
f 198/150/63 97/151/63 92/152/63 193/153/63
f 8/43/64 3/46/64 2/132/64 7/135/64
f 143/79/65 148/82/65 47/145/65 42/140/65
f 69/154/66 64/155/66 63/156/66 68/157/66
f 83/84/67 184/158/67 183/159/67 82/85/67
f 62/160/68 67/161/68 68/157/68 63/156/68
f 103/162/69 104/62/69 109/61/69 108/163/69
f 164/164/70 165/147/70 170/146/70 169/165/70
f 130/166/71 29/54/71 28/53/71 129/167/71
f 114/168/72 115/141/72 120/142/72 119/169/72
f 151/170/73 146/171/73 147/36/73 152/35/73
f 19/48/74 14/47/74 13/172/74 18/173/74
f 166/148/75 167/38/75 172/37/75 171/149/75
f 142/174/76 141/57/76 136/60/76 137/117/76
f 103/162/77 108/163/77 107/175/77 102/176/77
f 131/177/78 30/129/78 29/54/78 130/166/78
f 96/17/79 95/178/79 100/179/79 101/18/79
f 178/180/80 77/139/80 72/138/80 173/181/80
f 200/182/81 195/183/81 196/98/81 201/97/81
f 174/184/82 175/70/82 180/69/82 179/185/82
f 34/96/83 39/95/83 40/143/83 35/118/83
f 107/175/84 6/134/84 1/133/84 102/176/84
f 139/111/85 138/32/85 133/31/85 134/112/85
f 129/167/86 124/186/86 125/187/86 130/166/86
f 84/188/87 83/84/87 88/83/87 89/189/87
f 86/25/88 85/190/88 90/191/88 91/26/88
f 163/192/89 62/160/89 63/156/89 164/164/89
f 30/129/90 25/128/90 24/55/90 29/54/90
f 50/130/91 45/131/91 44/88/91 49/87/91
f 125/187/92 126/193/92 131/177/92 130/166/92
f 158/194/93 57/91/93 52/92/94 153/107/93
f 112/103/95 117/106/95 16/52/95 11/51/95
f 107/175/96 108/163/96 7/135/96 6/134/96
f 185/99/97 190/102/97 189/195/97 184/158/97
f 126/193/98 127/28/98 132/27/98 131/177/98
f 183/159/99 184/158/99 189/195/99 188/196/99
f 60/197/100 61/20/100 56/19/100 55/198/100
f 161/123/101 156/122/101 157/30/101 162/29/101
f 181/72/102 176/71/102 177/34/102 182/33/102
f 173/181/103 174/184/103 179/185/103 178/180/103
f 188/196/104 189/195/104 88/83/104 87/86/104
f 142/174/105 137/117/105 36/119/106 41/144/105
f 90/191/107 85/190/107 84/188/107 89/189/107
f 105/63/108 106/3/109 111/2/108 110/64/110
f 18/173/111 13/172/111 12/50/111 17/49/111
f 163/192/112 164/164/112 169/165/112 168/199/112
f 69/154/113 70/74/113 65/73/113 64/155/113
f 99/125/114 100/179/114 95/178/114 94/126/114
f 168/199/115 169/165/115 68/157/115 67/161/115
f 199/200/116 194/201/116 195/183/116 200/182/116
f 194/201/117 199/200/117 198/150/117 193/153/117
f 159/202/118 160/120/118 59/66/118 58/65/118
f 31/12/119 132/27/119 122/1/119 21/6/119
f 103/162/120 2/132/120 3/46/120 104/62/120
f 127/28/121 126/193/121 25/128/121 26/11/121
f 111/2/122 10/42/122 9/44/122 110/64/122
f 183/159/123 188/196/123 87/86/123 82/85/123
f 194/201/124 93/127/124 94/126/124 195/183/124
f 151/170/125 50/130/125 49/87/125 150/110/125
f 156/122/126 155/121/126 54/67/126 55/198/126
f 187/24/127 186/100/127 85/190/127 86/25/127
f 102/176/128 1/133/128 2/132/128 103/162/128
f 123/78/129 22/77/129 23/56/129 124/186/129
f 122/1/130 157/30/130 56/19/130 21/6/130
f 116/14/131 115/141/131 14/47/131 15/7/131
f 115/141/132 114/168/132 13/172/132 14/47/132
f 113/104/133 12/50/133 13/172/133 114/168/133
f 154/108/134 53/68/134 54/67/134 155/121/134
f 142/174/135 41/144/135 40/143/135 141/57/135
f 122/1/136 167/38/136 66/21/136 21/6/136
f 152/35/137 51/5/137 50/130/137 151/170/137
f 99/125/138 98/124/138 199/200/138 200/182/138
f 179/185/139 180/69/139 79/113/139 78/116/139
f 128/75/140 129/167/140 28/53/140 27/76/140
f 101/18/141 202/39/141 122/1/141 21/6/141
f 196/98/142 195/183/143 94/126/143 95/178/144
f 177/34/145 176/71/145 75/137/145 76/9/145
f 134/112/146 33/93/146 34/96/146 135/59/146
f 108/163/147 109/61/147 8/43/147 7/135/147
f 148/82/148 149/81/148 48/90/148 47/145/148
f 121/13/149 20/8/149 19/48/149 120/142/149
f 147/36/150 146/171/150 45/131/150 46/4/150
f 122/1/151 177/34/151 76/9/151 21/6/151
f 122/1/152 147/36/152 46/4/152 21/6/152
f 81/10/153 182/33/153 122/1/153 21/6/153
f 91/26/154 192/23/154 122/1/154 21/6/154
f 154/108/155 159/202/155 158/194/155 153/107/155
f 164/164/156 63/156/156 64/155/156 165/147/156
f 171/149/157 70/74/157 69/154/157 170/146/157
f 201/97/158 100/179/158 99/125/158 200/182/158
f 20/8/159 121/13/159 122/1/159 21/6/159
f 110/64/160 9/44/160 8/43/160 109/61/160
f 10/42/161 111/2/161 122/1/161 21/6/161
f 112/103/162 11/51/162 12/50/162 113/104/162
f 176/71/163 175/70/163 74/114/163 75/137/163
f 118/105/164 119/169/164 18/173/164 17/49/164
f 122/1/165 106/3/165 5/41/165 21/6/165
f 157/30/166 156/122/166 55/198/166 56/19/166
f 71/22/167 172/37/167 122/1/167 21/6/167
f 162/29/168 61/20/168 60/197/168 161/123/168
f 173/181/169 72/138/169 73/115/169 174/184/169
f 125/187/170 124/186/170 23/56/170 24/55/170
f 178/180/171 179/185/171 78/116/171 77/139/171
f 158/194/172 159/202/172 58/65/172 57/91/172
f 189/195/173 190/102/173 89/189/173 88/83/173
f 198/150/174 199/200/174 98/124/174 97/151/174
f 122/1/175 197/40/175 96/17/175 21/6/175
f 193/153/176 92/152/176 93/127/176 194/201/176
f 141/57/177 40/143/178 39/95/177 140/58/177
f 161/123/179 60/197/179 59/66/179 160/120/179
f 113/104/180 114/168/180 119/169/180 118/105/180
f 32/16/181 133/31/181 122/1/181 21/6/181
f 174/184/182 73/115/182 74/114/182 175/70/182
f 122/1/183 187/24/183 86/25/183 21/6/183
f 184/158/184 83/84/184 84/188/184 185/99/184
f 122/1/185 116/14/185 15/7/185 21/6/185
f 167/38/186 166/148/186 65/73/186 66/21/186
f 139/111/187 140/58/187 39/95/187 38/94/187
f 146/171/188 145/109/188 44/88/188 45/131/188
f 59/66/189 60/197/189 55/198/189 54/67/189
f 182/33/190 81/10/190 80/136/190 181/72/190
f 138/32/191 139/111/191 38/94/191 37/15/191
f 197/40/192 196/98/193 95/178/194 96/17/192
f 122/1/195 127/28/195 26/11/195 21/6/195
f 172/37/196 71/22/196 70/74/196 171/149/196
f 51/5/197 152/35/197 122/1/197 21/6/197
f 145/109/198 146/171/198 151/170/198 150/110/198
f 106/3/199 105/63/199 4/45/199 5/41/199
f 186/100/200 185/99/200 84/188/200 85/190/200
f 105/63/201 104/62/201 3/46/201 4/45/201
f 136/60/202 135/59/202 34/96/202 35/118/202
f 125/187/203 24/55/203 25/128/203 126/193/203
f 120/142/204 19/48/204 18/173/204 119/169/204
f 69/154/205 68/157/205 169/165/205 170/146/205
f 97/151/206 98/124/206 93/127/206 92/152/206
f 122/1/207 21/6/207 61/20/207 162/29/207
f 192/23/208 91/26/208 90/191/208 191/101/208
f 191/101/209 90/191/209 89/189/209 190/102/209
f 132/27/210 31/12/210 30/129/210 131/177/210
f 202/39/211 101/18/211 100/179/211 201/97/211
f 181/72/212 80/136/212 79/113/212 180/69/212
f 166/148/213 165/147/213 64/155/213 65/73/213
f 149/81/214 150/110/214 49/87/214 48/90/214
f 144/80/215 43/89/215 44/88/215 145/109/215
f 133/31/216 32/16/216 33/93/216 134/112/216
f 159/202/217 154/108/217 155/121/217 160/120/217
f 124/186/218 129/167/218 128/75/218 123/78/218
f 168/199/219 67/161/219 62/160/219 163/192/219
