# Blender v3.0.0 OBJ File: 'aa.blend'
# www.blender.org
mtllib Plant_7.mtl
o Plant_7
v 0.044338 0.466026 0.176358
v -0.014997 0.466132 0.167636
v -0.000068 0.466192 0.131550
v 0.067913 0.466256 0.117865
v 0.095687 0.466053 0.145308
v 0.040817 0.714922 0.078247
v 0.033197 0.705905 0.072043
v 0.010080 0.706032 0.076689
v 0.005364 0.714763 0.085393
v 0.023983 0.720296 0.085986
v 0.094805 0.233652 0.145466
v 0.057679 0.000000 0.054452
v 0.068506 0.234601 0.117332
v -0.000844 0.234193 0.131101
v -0.014242 0.234255 0.167608
v -0.014979 0.000000 0.068719
v 0.044648 0.232191 0.177210
v 0.024538 0.000000 0.079519
v -0.166820 0.426069 0.138430
v -0.196015 0.426866 0.065162
v -0.144880 0.426248 0.058660
v -0.085022 0.425940 0.126601
v -0.097754 0.427126 0.176508
v -0.124395 0.626947 0.104422
v -0.121944 0.620732 0.095529
v -0.138293 0.620106 0.077075
v -0.147357 0.627476 0.078081
v -0.139120 0.634365 0.094063
v -0.072865 0.234497 0.158983
v -0.021048 0.000000 0.067162
v -0.058322 0.234062 0.111109
v -0.006835 0.000000 0.033722
v -0.119015 0.234068 0.042234
v -0.168356 0.234493 0.050654
v -0.070744 0.000000 0.010797
v -0.140700 0.231772 0.122533
v -0.060062 0.000000 0.051453
v 0.093212 0.000000 0.020348
v 0.194465 0.245410 0.078820
v 0.062689 0.000000 0.050191
v 0.155966 0.245723 0.124316
v 0.036278 0.000000 0.024989
v 0.131206 0.246128 0.094747
v 0.050589 -0.000000 -0.015859
v 0.153572 0.246738 0.027596
v 0.083647 -0.000000 -0.021550
v 0.192801 0.294822 0.022385
v 0.142686 0.639327 0.059903
v 0.131150 0.636381 0.076476
v 0.124084 0.631924 0.066656
v 0.131922 0.631916 0.043107
v 0.143663 0.636374 0.039661
v 0.188927 0.469266 0.033753
v 0.166408 0.425341 0.039332
v 0.147819 0.425172 0.095687
v 0.168029 0.425173 0.121844
v 0.198253 0.425036 0.081782
v 0.073048 -0.000000 -0.065876
v 0.138589 0.227887 -0.123646
v 0.085994 -0.000000 -0.027158
v 0.156845 0.186783 -0.061446
v 0.115068 0.184931 -0.053313
v 0.065824 0.184943 -0.109105
v 0.036285 -0.000000 -0.083568
v 0.079171 0.186783 -0.149571
v 0.085472 0.671926 -0.103315
v 0.092160 0.667660 -0.090539
v 0.084854 0.663810 -0.089797
v 0.072243 0.663339 -0.104236
v 0.073479 0.668038 -0.111476
v 0.095754 0.466300 -0.160912
v 0.085554 0.466217 -0.123256
v 0.131503 0.465988 -0.071177
v 0.170167 0.466489 -0.076372
v 0.148448 0.465671 -0.132305
v -0.010084 -0.000000 -0.095244
v -0.030085 0.232066 -0.192954
v 0.029413 -0.000000 -0.084370
v 0.028861 0.234788 -0.182928
v 0.021152 -0.000000 -0.049503
v 0.015244 0.234439 -0.146548
v -0.021576 -0.000000 -0.040858
v -0.054324 0.234513 -0.133242
v -0.043213 -0.000000 -0.070208
v -0.080392 0.233087 -0.161546
v -0.054511 0.556150 -0.215263
v -0.035794 0.550452 -0.212724
v -0.039990 0.544192 -0.202986
v -0.063733 0.543712 -0.199597
v -0.071056 0.549709 -0.207362
v -0.095054 0.374616 -0.205574
v -0.068454 0.376852 -0.177126
v -0.000319 0.378075 -0.187672
v 0.016681 0.376048 -0.222749
v -0.042013 0.372926 -0.233885
v -0.077942 -0.000000 -0.036399
v -0.128122 0.126540 -0.053654
v -0.048303 -0.000000 -0.065127
v -0.093390 0.128038 -0.090826
v -0.068575 0.127317 -0.063564
v -0.035668 0.000000 0.001183
v -0.087248 0.126872 -0.008845
v -0.071481 0.000000 0.004013
v -0.124065 0.126339 -0.003306
v -0.223299 0.604373 -0.123908
v -0.210831 0.599890 -0.138415
v -0.204284 0.593839 -0.128996
v -0.213585 0.592769 -0.107402
v -0.225219 0.599171 -0.105202
v -0.241513 0.342860 -0.080311
v -0.204223 0.348857 -0.087753
v -0.176916 0.350497 -0.151909
v -0.197869 0.344371 -0.183918
v -0.237960 0.339072 -0.140217
vt 0.333253 0.286429
vt 0.333253 0.303877
vt 0.324074 0.298826
vt 0.925131 0.326135
vt 0.954289 0.315704
vt 0.954289 0.487339
vt 0.947754 0.486554
vt 0.017572 0.719857
vt 0.158740 0.687696
vt 0.158740 0.735181
vt 0.012219 0.734575
vt 0.320747 0.294103
vt 0.320747 0.303877
vt 0.305131 0.302707
vt 0.303880 0.285268
vt 0.357420 0.323975
vt 0.349605 0.310639
vt 0.357420 0.306529
vt 0.659143 0.945413
vt 0.638131 0.810934
vt 0.668323 0.803984
vt 0.668323 0.948769
vt 0.947931 0.292868
vt 0.922964 0.087109
vt 0.947931 0.077858
vt 0.056071 0.842699
vt 0.101557 0.738508
vt 0.101557 0.881139
vt 0.508959 0.878563
vt 0.543412 0.741403
vt 0.543412 0.917980
vt 0.600856 0.880198
vt 0.581057 0.775502
vt 0.600856 0.741403
vt 0.912106 0.319949
vt 0.921804 0.315704
vt 0.921804 0.524878
vt 0.892568 0.514591
vt 0.346278 0.307204
vt 0.346278 0.323975
vt 0.336731 0.320289
vt 0.395054 0.874398
vt 0.384755 0.737779
vt 0.395054 0.736894
vt 0.817088 0.756437
vt 0.818813 0.539852
vt 0.844900 0.552468
vt 0.844900 0.769233
vt 0.773650 0.337840
vt 0.773650 0.531567
vt 0.726234 0.493307
vt 0.741586 0.333152
vt 0.776127 0.077917
vt 0.776127 0.263528
vt 0.729012 0.262329
vt 0.728496 0.077858
vt 0.104884 0.939951
vt 0.107190 0.738508
vt 0.133530 0.749240
vt 0.133530 0.951360
vt 0.210148 0.002458
vt 0.210148 0.014983
vt 0.203983 0.012680
vt 0.345119 0.303877
vt 0.336579 0.291031
vt 0.345119 0.286393
vt 0.892429 0.917902
vt 0.895979 0.759667
vt 0.923193 0.771052
vt 0.923193 0.931941
vt 0.252444 0.789664
vt 0.259027 0.787529
vt 0.259027 0.953344
vt 0.229078 0.945471
vt 0.333405 0.307204
vt 0.333405 0.324925
vt 0.324400 0.319937
vt 0.995309 0.775904
vt 0.968921 0.786710
vt 0.967715 0.677715
vt 0.995309 0.667125
vt 0.405381 0.074531
vt 0.203983 0.062582
vt 0.204157 0.027979
vt 0.405381 0.018310
vt 0.624133 0.233982
vt 0.561533 0.232987
vt 0.562963 0.078295
vt 0.624133 0.077858
vt 0.859082 0.286853
vt 0.863174 0.077858
vt 0.887465 0.094184
vt 0.887465 0.298695
vt 0.577731 0.741499
vt 0.577731 0.925972
vt 0.547160 0.925283
vt 0.546738 0.741403
vt 0.608578 0.946648
vt 0.604197 0.803984
vt 0.634804 0.804664
vt 0.634804 0.947439
vt 0.262353 0.794526
vt 0.287641 0.787529
vt 0.287641 0.961483
vt 0.277443 0.960632
vt 0.919637 0.278751
vt 0.892847 0.289705
vt 0.890791 0.087963
vt 0.919637 0.077858
vt 0.214979 0.159029
vt 0.209016 0.140253
vt 0.224974 0.145412
vt 0.224974 0.161668
vt 0.998337 0.544563
vt 0.998337 0.663799
vt 0.968319 0.656749
vt 0.967715 0.539852
vt 0.200657 0.074531
vt 0.001663 0.055476
vt 0.001695 0.020967
vt 0.200657 0.001663
vt 0.445615 0.624612
vt 0.443018 0.577422
vt 0.647514 0.579864
vt 0.647514 0.620262
vt 0.016799 0.564166
vt 0.012219 0.549554
vt 0.225751 0.526173
vt 0.225751 0.573804
vt 0.706825 0.741590
vt 0.706825 0.925744
vt 0.675957 0.925674
vt 0.675827 0.741618
vt 0.205690 0.201424
vt 0.001663 0.196679
vt 0.004221 0.163411
vt 0.205690 0.140253
vt 0.342282 0.791210
vt 0.374557 0.787529
vt 0.374557 0.896307
vt 0.334621 0.899857
vt 0.774178 0.725463
vt 0.726573 0.725637
vt 0.726818 0.541580
vt 0.774178 0.539852
vt 0.813761 0.743936
vt 0.787437 0.755721
vt 0.777504 0.556065
vt 0.813761 0.539852
vt 0.229101 0.743829
vt 0.371708 0.736894
vt 0.371708 0.784202
vt 0.229078 0.783664
vt 0.423542 0.803329
vt 0.399967 0.630979
vt 0.439691 0.628010
vt 0.439691 0.804587
vt 0.495849 0.745697
vt 0.505633 0.741403
vt 0.505633 0.946219
vt 0.475928 0.939052
vt 0.776976 0.515354
vt 0.786896 0.315704
vt 0.813251 0.327485
vt 0.813251 0.531567
vt 0.881120 0.741218
vt 0.883461 0.539852
vt 0.909852 0.550670
vt 0.909852 0.752503
vt 0.692376 0.081167
vt 0.725170 0.077858
vt 0.725170 0.278751
vt 0.678149 0.281158
vt 0.012503 0.632583
vt 0.154874 0.628186
vt 0.154874 0.684369
vt 0.012219 0.679685
vt 0.672501 0.334364
vt 0.672501 0.536484
vt 0.640162 0.533076
vt 0.625006 0.333152
vt 0.690089 0.336444
vt 0.722908 0.333152
vt 0.722908 0.534360
vt 0.675827 0.536526
vt 0.017309 0.617230
vt 0.012219 0.602603
vt 0.221983 0.577130
vt 0.221983 0.624860
vt 0.331294 0.789944
vt 0.331294 0.899606
vt 0.298711 0.896170
vt 0.290967 0.787529
vt 0.423200 0.467803
vt 0.423200 0.523164
vt 0.229078 0.502472
vt 0.229481 0.483794
vt 0.443069 0.674977
vt 0.443018 0.639493
vt 0.600871 0.627938
vt 0.600871 0.687007
vt 0.293940 0.311473
vt 0.293940 0.326695
vt 0.283982 0.319097
vt 0.288024 0.307882
vt 0.945267 0.585436
vt 0.964388 0.539852
vt 0.964388 0.791820
vt 0.430479 0.389276
vt 0.229078 0.377384
vt 0.229315 0.342468
vt 0.430479 0.333152
vt 0.174655 0.869367
vt 0.174637 0.752469
vt 0.221983 0.756411
vt 0.221983 0.873230
vt 0.889102 0.759667
vt 0.889102 0.898462
vt 0.848227 0.865752
vt 0.672501 0.681232
vt 0.656969 0.544607
vt 0.672501 0.539811
vt 0.458169 0.300300
vt 0.410585 0.301371
vt 0.407949 0.112358
vt 0.458169 0.077858
vt 0.060935 0.359011
vt 0.059936 0.204750
vt 0.132782 0.206544
vt 0.132782 0.361016
vt 0.945267 0.835091
vt 0.974386 0.795147
vt 0.974386 0.937586
vt 0.580472 0.039742
vt 0.580487 0.020701
vt 0.713894 0.011923
vt 0.713894 0.066659
vt 0.951257 0.109219
vt 0.975157 0.077858
vt 0.975157 0.244125
vt 0.404622 0.079219
vt 0.404622 0.294230
vt 0.370277 0.293347
vt 0.348456 0.077858
vt 0.941940 0.741060
vt 0.915176 0.751976
vt 0.913178 0.550234
vt 0.941940 0.539852
vt 0.311794 0.079646
vt 0.345130 0.077858
vt 0.345130 0.281941
vt 0.283982 0.280525
vt 0.229078 0.300053
vt 0.247309 0.085047
vt 0.280656 0.077858
vt 0.280656 0.329826
vt 0.848227 0.547567
vt 0.877794 0.539852
vt 0.877794 0.744707
vt 0.850623 0.756340
vt 0.782200 0.301764
vt 0.779454 0.077858
vt 0.813099 0.081251
vt 0.813099 0.303838
vt 0.675827 0.578112
vt 0.723247 0.539852
vt 0.723247 0.733579
vt 0.691203 0.738264
vt 0.233803 0.532637
vt 0.442210 0.526491
vt 0.442210 0.574095
vt 0.229078 0.547321
vt 0.879602 0.520097
vt 0.859878 0.325636
vt 0.889242 0.315704
vt 0.889242 0.524201
vt 0.229078 0.647038
vt 0.229508 0.631822
vt 0.387011 0.628010
vt 0.387011 0.683138
vt 0.225506 0.175678
vt 0.209016 0.184461
vt 0.210121 0.166774
vt 0.225506 0.164994
vt 0.421758 0.811903
vt 0.430620 0.807914
vt 0.430620 0.948203
vt 0.399967 0.943811
vt 0.674822 0.079475
vt 0.674822 0.281308
vt 0.642486 0.277884
vt 0.627459 0.077858
vt 0.621680 0.487952
vt 0.559168 0.491406
vt 0.560553 0.335287
vt 0.621680 0.333152
vt 0.285358 0.287161
vt 0.300553 0.285268
vt 0.300553 0.295854
vt 0.283982 0.304555
vt 0.774178 0.735288
vt 0.774178 0.889760
vt 0.734916 0.883657
vt 0.733750 0.728963
vt 0.052744 0.892771
vt 0.012219 0.898259
vt 0.013338 0.743464
vt 0.052744 0.738508
vt 0.496391 0.503623
vt 0.433806 0.501983
vt 0.482106 0.339055
vt 0.496391 0.333152
vt 0.229078 0.717118
vt 0.229148 0.697418
vt 0.395054 0.686464
vt 0.395054 0.733567
vt 0.192430 0.206504
vt 0.223347 0.204750
vt 0.223347 0.427193
vt 0.189664 0.430583
vt 0.844900 0.890785
vt 0.797175 0.892045
vt 0.797893 0.775228
vt 0.844900 0.772559
vt 0.414481 0.034136
vt 0.577146 0.011923
vt 0.577146 0.074531
vt 0.408708 0.048287
vt 0.174637 0.985778
vt 0.175120 0.876556
vt 0.201766 0.887099
vt 0.201766 0.996762
vt 0.717399 0.052906
vt 0.717221 0.017711
vt 0.826290 0.011923
vt 0.826290 0.057818
vt 0.987796 0.434467
vt 0.957615 0.441395
vt 0.958157 0.323171
vt 0.987796 0.315704
vt 0.462984 0.944002
vt 0.443018 0.749803
vt 0.472602 0.741403
vt 0.472602 0.947671
vt 0.847275 0.080315
vt 0.855756 0.077858
vt 0.855756 0.247794
vt 0.816425 0.236592
vt 0.448932 0.572586
vt 0.445536 0.561159
vt 0.614740 0.526491
vt 0.614740 0.574087
vt 0.167275 0.629916
vt 0.221983 0.628186
vt 0.221983 0.746949
vt 0.165805 0.749142
vt 0.512129 0.090307
vt 0.558206 0.077858
vt 0.558206 0.279803
vt 0.521089 0.294965
vt 0.448565 0.724514
vt 0.443018 0.710121
vt 0.588197 0.690334
vt 0.588197 0.738076
vt 0.186337 0.205659
vt 0.186337 0.428247
vt 0.136108 0.393764
vt 0.138714 0.204750
vt 0.031121 0.487465
vt 0.225751 0.467803
vt 0.225751 0.522846
vt 0.031004 0.506181
vt 0.508802 0.078295
vt 0.508802 0.295060
vt 0.474968 0.293214
vt 0.461496 0.077858
vt 0.856552 0.315704
vt 0.856552 0.479879
vt 0.848162 0.475847
vt 0.816578 0.324448
vt 0.056609 0.211518
vt 0.056609 0.420305
vt 0.011212 0.413568
vt 0.001663 0.204750
vt 0.171311 0.913357
vt 0.143999 0.924737
vt 0.140509 0.766516
vt 0.171311 0.752469
vt 0.229078 0.431009
vt 0.383671 0.392602
vt 0.383671 0.464476
vt 0.229638 0.450576
vt 0.640360 0.797262
vt 0.604197 0.629479
vt 0.651804 0.627938
vt 0.651804 0.800658
vt 0.233996 0.592807
vt 0.439691 0.577422
vt 0.439691 0.624683
vt 0.229078 0.607607
vt 0.311772 0.307526
vt 0.321074 0.307204
vt 0.321074 0.322487
vt 0.303880 0.325440
vt 0.001837 0.134891
vt 0.001663 0.079763
vt 0.225751 0.077858
vt 0.225751 0.136927
vt 0.500798 0.333152
vt 0.555841 0.333265
vt 0.555841 0.517146
vt 0.499718 0.517304
vn -0.1691 0.6486 -0.7421
vn 0.1307 0.1200 0.9841
vn 0.1306 0.1200 0.9841
vn 0.0460 0.1043 0.9935
vn 0.0459 0.1043 0.9935
vn 0.1765 0.1104 -0.9781
vn 0.1796 0.1102 -0.9775
vn 0.1702 0.1108 -0.9792
vn 0.1667 0.1109 -0.9797
vn 0.1634 0.7964 0.5823
vn 0.0771 0.7583 0.6474
vn 0.6025 0.7226 -0.3389
vn 0.8774 0.2474 0.4110
vn 0.8353 0.2224 0.5029
vn -0.1648 0.2374 -0.9573
vn 0.9987 -0.0203 -0.0472
vn 0.9657 0.2553 0.0476
vn -0.3377 0.0537 -0.9397
vn 0.6674 -0.0530 -0.7428
vn 0.7023 -0.0342 -0.7110
vn -0.4045 0.9066 -0.1204
vn -0.2679 -0.0385 -0.9627
vn -0.6891 0.0611 0.7221
vn -0.7625 0.0964 0.6398
vn 0.8094 -0.3520 -0.4701
vn 0.8750 -0.3856 -0.2926
vn 0.5347 0.0038 0.8450
vn 0.5174 -0.0014 0.8557
vn 0.5175 -0.0014 0.8557
vn 0.9661 0.1191 0.2289
vn 0.9257 0.1482 0.3479
vn -0.3755 0.8021 0.4644
vn -0.0111 0.7863 0.6177
vn 0.3029 0.0866 0.9491
vn 0.1853 0.1090 0.9766
vn -0.9772 -0.0578 -0.2044
vn -0.9644 -0.0399 -0.2613
vn 0.5133 0.8387 0.1820
vn 0.0783 0.1101 0.9908
vn 0.1461 0.1177 0.9822
vn 0.1776 0.3811 0.9073
vn 0.1832 0.3824 0.9057
vn 0.1792 0.3815 0.9068
vn 0.1741 0.3804 0.9083
vn -0.9177 -0.1594 0.3639
vn -0.9242 -0.1529 0.3499
vn 0.7637 0.0497 -0.6436
vn 0.7375 0.0932 -0.6689
vn 0.8135 0.1513 -0.5615
vn 0.8172 0.0952 -0.5684
vn 0.7305 -0.0032 -0.6829
vn 0.7029 0.0034 -0.7113
vn -0.7645 0.0676 0.6411
vn -0.7898 0.0615 0.6102
vn -0.7898 0.0615 0.6103
vn -0.7913 -0.0068 0.6114
vn -0.8094 -0.0105 0.5871
vn -0.7990 0.1205 0.5891
vn -0.7481 0.1480 0.6468
vn -0.7540 0.1175 0.6463
vn -0.4086 0.9025 -0.1363
vn -0.4087 0.9024 -0.1363
vn -0.3894 0.9085 -0.1513
vn 0.9173 0.1982 0.3452
vn 0.9173 0.1982 0.3453
vn 0.8871 0.1945 0.4187
vn 0.8870 0.1945 0.4187
vn 0.7005 0.3578 -0.6175
vn 0.6987 0.3584 -0.6192
vn 0.6991 0.3583 -0.6188
vn 0.7007 0.3577 -0.6173
vn -0.5854 -0.5421 -0.6028
vn -0.6003 -0.5476 -0.5829
vn 0.4866 0.3263 0.8104
vn 0.4790 0.3278 0.8143
vn 0.4818 0.3272 0.8129
vn 0.4890 0.3259 0.8091
vn -0.9388 0.0038 -0.3445
vn -0.9240 -0.0030 -0.3823
vn -0.8834 -0.4072 0.2321
vn -0.8616 -0.3968 0.3165
vn -0.9162 -0.3729 0.1465
vn -0.9305 -0.3589 0.0735
vn -0.1454 -0.0006 0.9894
vn -0.1608 0.0034 0.9870
vn 0.9179 0.0729 0.3901
vn 0.9372 0.1072 0.3318
vn 0.9407 0.0848 0.3286
vn 0.7625 -0.0424 0.6455
vn 0.7625 -0.0424 0.6456
vn 0.7980 -0.0268 0.6021
vn 0.7980 -0.0267 0.6021
vn 0.7708 0.2594 0.5818
vn 0.7714 0.2595 0.5810
vn 0.7714 0.2595 0.5811
vn 0.7705 0.2593 0.5823
vn 0.2274 0.0798 0.9705
vn 0.1817 0.0859 0.9796
vn -0.2636 0.0748 -0.9617
vn -0.1666 0.0974 -0.9812
vn -0.9671 0.1183 -0.2250
vn -0.9671 0.1183 -0.2251
vn -0.9285 0.1469 -0.3410
vn -0.5581 -0.3784 -0.7385
vn -0.4968 -0.3728 -0.7837
vn -0.9456 0.0890 -0.3130
vn -0.9453 0.0886 -0.3139
vn -0.9458 0.0892 -0.3124
vn -0.9459 0.0894 -0.3119
vn 0.2461 -0.3747 -0.8939
vn 0.1723 -0.3696 -0.9131
vn 0.1724 -0.3696 -0.9131
vn 0.5589 -0.3766 0.7388
vn 0.5042 -0.3716 0.7795
vn -0.9945 0.0602 -0.0853
vn -0.9945 0.0602 -0.0854
vn -0.9964 0.0573 -0.0627
vn -0.6486 -0.3627 -0.6692
vn -0.6756 -0.3560 -0.6456
vn 0.9158 0.0669 0.3960
vn 0.9174 0.0663 0.3924
vn 0.9169 0.0665 0.3935
vn 0.9152 0.0671 0.3974
vn -0.7004 0.3683 0.6114
vn -0.6998 0.3680 0.6123
vn -0.6965 0.3664 0.6170
vn -0.6974 0.3669 0.6156
vn -0.5136 0.7458 0.4243
vn -0.5136 0.7458 0.4242
vn -0.5181 0.7551 0.4016
vn -0.5181 0.7551 0.4017
vn -0.4772 0.2998 -0.8261
vn -0.1796 0.3809 -0.9070
vn -0.1836 0.3818 -0.9058
vn -0.1859 0.3823 -0.9052
vn -0.1827 0.3816 -0.9061
vn 0.1736 -0.2533 -0.9517
vn 0.1933 -0.2586 -0.9464
vn 0.9863 0.0324 -0.1616
vn 0.9653 0.2612 0.0085
vn 0.4760 -0.0517 -0.8779
vn 0.4350 -0.0623 -0.8983
vn 0.7413 0.1557 -0.6528
vn -0.2271 0.0801 -0.9706
vn 0.1471 0.1266 0.9810
vn 0.1376 0.1284 0.9821
vn 0.1407 0.1278 0.9818
vn 0.1495 0.1261 0.9807
vn -0.2090 -0.0170 -0.9778
vn -0.8599 0.4120 -0.3013
vn -0.8647 0.4141 -0.2843
vn 0.8033 0.1193 -0.5835
vn 0.7251 0.1469 -0.6728
vn -0.3411 -0.4071 0.8473
vn -0.4220 -0.3968 0.8151
vn 0.9204 -0.3297 -0.2101
vn 0.9119 -0.2951 -0.2853
vn 0.1281 0.3919 0.9110
vn 0.1196 0.3896 0.9132
vn 0.1227 0.3905 0.9124
vn 0.1313 0.3927 0.9102
vn 0.1886 0.0513 0.9807
vn 0.1324 0.0465 0.9901
vn 0.5681 -0.3520 -0.7439
vn 0.4001 -0.3856 -0.8314
vn -0.1344 0.3217 0.9373
vn -0.1372 0.3212 0.9370
vn -0.1290 0.3227 0.9377
vn -0.1260 0.3233 0.9379
vn -0.9229 -0.0483 -0.3819
vn -0.9036 -0.0660 -0.4233
vn -0.7457 -0.1138 0.6565
vn -0.7464 -0.1137 0.6557
vn -0.7458 -0.1138 0.6564
vn -0.7455 -0.1138 0.6567
vn 0.5205 0.8119 0.2644
vn 0.5029 0.8180 0.2791
vn -0.6836 0.1011 0.7228
vn -0.7303 0.1114 0.6740
vn -0.2442 -0.3765 0.8937
vn -0.1621 -0.3707 0.9145
vn -0.4768 -0.1352 0.8686
vn -0.4643 -0.1396 0.8746
vn -0.1434 0.6397 -0.7551
vn -0.1427 0.6400 -0.7550
vn -0.1454 0.6388 -0.7555
vn -0.1484 0.6375 -0.7561
vn -0.1674 0.0616 -0.9840
vn -0.1253 0.0567 -0.9905
vn 0.9644 0.1025 0.2436
vn 0.9588 0.1086 0.2626
vn 0.9636 0.1054 0.2457
vn -0.4721 0.2432 0.8473
vn -0.4711 0.2430 0.8480
vn -0.4716 0.2431 0.8477
vn -0.4732 0.2433 0.8467
vn -0.9384 -0.1512 -0.3107
vn -0.9380 -0.1509 -0.3121
vn -0.9382 -0.1510 -0.3113
vn -0.9385 -0.1512 -0.3104
vn -0.9642 0.0466 -0.2611
vn -0.9642 0.0466 -0.2610
vn -0.9491 0.0509 -0.3107
vn -0.4586 -0.2836 -0.8422
vn -0.5090 -0.3033 -0.8055
vn -0.9100 0.1972 0.3647
vn -0.9100 0.1972 0.3648
vn -0.9033 0.2009 0.3790
vn 0.6678 0.1154 -0.7354
vn 0.7353 0.1253 -0.6660
vn 0.7354 0.1253 -0.6660
vn 0.8754 0.3789 0.3003
vn 0.8783 0.3767 0.2945
vn 0.8775 0.3773 0.2960
vn 0.8747 0.3794 0.3016
vn -0.7315 0.1332 0.6687
vn -0.7292 0.1333 0.6712
vn -0.7172 0.1510 0.6803
vn -0.7243 0.1076 0.6811
vn 0.8150 0.1445 -0.5612
vn 0.7797 0.1957 -0.5948
vn 0.8433 0.1848 -0.5047
vn 0.8519 0.1334 -0.5064
vn 0.9732 0.1809 0.1418
vn 0.9471 0.2172 0.2364
vn 0.9470 0.2172 0.2365
vn 0.4824 0.2647 -0.8350
vn 0.4633 0.2589 -0.8476
vn 0.1404 0.3044 0.9421
vn 0.1802 0.2887 0.9403
vn -0.8843 -0.4664 -0.0230
vn -0.8843 -0.4664 -0.0229
vn -0.8870 -0.4564 0.0696
vn -0.8870 -0.4564 0.0697
vn -0.4491 0.0600 -0.8915
vn -0.4688 0.0553 -0.8816
vn -0.4688 0.0552 -0.8816
vn 0.9459 -0.0621 -0.3186
vn 0.9458 -0.0620 -0.3186
vn 0.9312 -0.0517 -0.3609
vn 0.9312 -0.0517 -0.3608
vn -0.1933 -0.2110 -0.9582
vn -0.1930 -0.2111 -0.9582
vn -0.1935 -0.2110 -0.9581
vn 0.6300 -0.4335 0.6444
vn 0.6898 -0.4244 0.5866
vn -0.0488 0.0760 -0.9959
vn -0.1244 0.0980 -0.9874
vn 0.8051 0.5234 0.2790
vn 0.7827 0.5171 0.3464
vn -0.9102 0.0896 -0.4043
vn -0.9455 0.1086 -0.3069
vn 0.7494 0.0370 -0.6611
vn 0.7499 0.0368 -0.6605
vn 0.7481 0.0374 -0.6626
vn 0.7474 0.0376 -0.6634
vn 0.8818 0.3178 -0.3486
vn 0.8823 0.3177 -0.3473
vn 0.8802 0.3181 -0.3521
vn 0.8794 0.3183 -0.3540
vn -0.7403 0.0816 -0.6673
vn -0.7393 0.0815 -0.6684
vn -0.7421 0.0818 -0.6653
vn -0.7432 0.0819 -0.6640
vn 0.4913 0.6787 -0.5458
vn 0.5588 0.6484 -0.5170
vn -0.7470 0.0856 0.6593
vn -0.1960 0.0022 -0.9806
vn -0.1972 0.0018 -0.9804
vn -0.1967 0.0020 -0.9805
vn -0.1949 0.0025 -0.9808
g Plant_7_Plant_7_Collor_Material
usemtl Collor_Material
s off
f 10/1/1 8/2/1 9/3/1
f 73/4/2 74/5/3 67/6/4 68/7/5
f 87/8/6 94/9/7 95/10/8 86/11/9
f 88/12/10 87/13/10 86/14/11 89/15/11
f 28/16/12 24/17/12 25/18/12
f 88/19/13 93/20/13 94/21/14 87/22/14
f 45/23/15 46/24/15 44/25/15
f 47/26/16 57/27/16 39/28/16
f 53/29/17 48/30/17 57/31/17
f 47/32/18 54/33/18 53/34/18
f 7/35/19 6/36/19 5/37/20 4/38/20
f 48/39/21 50/40/21 49/41/21
f 53/42/22 51/43/22 52/44/22
f 43/45/23 42/46/23 40/47/24 41/48/24
f 58/49/25 59/50/25 61/51/26 60/52/26
f 1/53/27 17/54/27 11/55/28 5/56/29
f 81/57/30 80/58/30 78/59/31 79/60/31
f 66/61/32 68/62/32 67/63/32
f 86/64/33 90/65/33 89/66/33
f 62/67/34 44/68/34 60/69/35 61/70/35
f 69/71/36 70/72/36 71/73/37 72/74/37
f 105/75/38 107/76/38 106/77/38
f 103/78/39 101/79/39 102/80/40 104/81/40
f 83/82/41 82/83/42 80/84/43 81/85/44
f 19/86/45 20/87/45 34/88/46 36/89/46
f 112/90/47 100/91/48 99/92/49 113/93/50
f 5/94/51 11/95/51 13/96/52 4/97/52
f 55/98/53 43/99/53 41/100/54 56/101/55
f 55/102/56 56/103/56 49/104/57 50/105/57
f 84/106/58 82/107/58 83/108/59 85/109/60
f 51/110/61 50/111/62 48/112/63 52/113/63
f 93/114/64 81/115/65 79/116/66 94/117/67
f 31/118/68 32/119/69 101/120/70 33/121/71
f 114/122/72 113/123/72 99/124/73 97/125/73
f 6/126/74 10/127/75 1/128/76 5/129/77
f 3/130/78 14/131/78 15/132/79 2/133/79
f 34/134/80 35/135/80 37/136/81 36/137/81
f 96/138/82 103/139/82 104/140/83 97/141/83
f 1/142/84 2/143/84 15/144/85 17/145/85
f 30/146/86 32/147/86 31/148/87 29/149/88
f 56/150/89 41/151/90 39/152/91 57/153/92
f 49/154/93 56/155/94 57/156/95 48/157/96
f 108/158/97 109/159/97 110/160/98 111/161/98
f 33/162/99 101/163/99 35/164/100 34/165/100
f 14/166/101 32/167/102 16/168/103 15/169/103
f 76/170/104 84/171/104 85/172/105 77/173/105
f 54/174/106 45/175/107 43/176/108 55/177/109
f 79/178/110 78/179/110 76/180/111 77/181/112
f 18/182/113 12/183/113 11/184/114 17/185/114
f 109/186/115 105/187/116 114/188/117 110/189/117
f 99/190/118 98/191/118 96/192/119 97/193/119
f 111/194/120 112/195/121 107/196/122 108/197/123
f 80/198/124 44/199/125 62/200/126 63/201/127
f 69/202/128 68/203/129 66/204/130 70/205/131
f 45/206/132 47/207/132 46/208/132
f 13/209/133 42/210/134 32/211/135 14/212/136
f 94/213/137 79/214/137 77/215/138 95/216/138
f 47/217/139 53/218/139 57/219/139
f 53/220/140 52/221/140 48/222/140
f 71/223/141 75/224/141 59/225/142 65/226/142
f 22/227/143 31/228/143 33/229/143 21/230/143
f 47/231/144 45/232/144 54/233/144
f 88/234/145 89/235/146 92/236/147 93/237/148
f 53/238/149 54/239/149 51/240/149
f 45/241/150 44/242/150 42/243/151 43/244/151
f 12/245/152 42/246/152 13/247/153 11/248/153
f 37/249/154 30/250/154 29/251/155 36/252/155
f 39/253/156 38/254/156 46/255/157 47/256/157
f 111/257/158 110/258/159 104/259/160 102/260/161
f 73/261/162 62/262/162 61/263/163 74/264/163
f 65/265/164 59/266/164 58/267/165 64/268/165
f 9/269/166 2/270/167 1/271/168 10/272/169
f 8/273/170 3/274/170 2/275/171 9/276/171
f 68/277/172 69/278/173 72/279/174 73/280/175
f 108/281/176 107/282/176 105/283/177 109/284/177
f 89/285/178 90/286/178 91/287/179 92/288/179
f 15/289/180 16/290/180 18/291/181 17/292/181
f 23/293/182 19/294/182 36/295/183 29/296/183
f 10/297/184 6/298/185 7/299/186 8/300/187
f 21/301/188 33/302/188 34/303/189 20/304/189
f 22/305/190 23/306/190 29/307/191 31/308/192
f 19/309/193 23/310/194 24/311/195 28/312/196
f 50/313/197 51/314/198 54/315/199 55/316/200
f 72/317/201 71/318/202 65/319/203 63/320/203
f 91/321/204 95/322/204 77/323/205 85/324/205
f 27/325/206 20/326/207 19/327/208 28/328/208
f 100/329/209 82/330/209 98/331/210 99/332/211
f 101/333/212 82/334/213 100/335/214 102/336/215
f 92/337/216 91/338/217 85/339/218 83/340/219
f 107/341/220 112/342/221 113/343/222 106/344/223
f 25/345/224 24/346/224 23/347/225 22/348/226
f 70/349/227 66/350/227 75/351/228 71/352/228
f 93/353/229 92/354/229 83/355/230 81/356/230
f 110/357/231 114/358/232 97/359/233 104/360/234
f 90/361/235 86/362/235 95/363/236 91/364/237
f 74/365/238 61/366/239 59/367/240 75/368/241
f 7/369/242 4/370/243 3/371/243 8/372/244
f 41/373/245 40/374/245 38/375/246 39/376/246
f 20/377/247 27/378/247 26/379/248 21/380/248
f 111/381/249 102/382/249 100/383/250 112/384/250
f 64/385/251 80/386/251 63/387/252 65/388/252
f 25/389/253 22/390/254 21/391/255 26/392/256
f 67/393/257 74/394/258 75/395/259 66/396/260
f 106/397/261 113/398/262 114/399/263 105/400/264
f 26/401/265 27/402/265 28/403/266 25/404/266
f 73/405/267 72/406/267 63/407/267 62/408/267
f 3/409/268 4/410/269 13/411/270 14/412/271
