# Blender v3.0.0 OBJ File: 'aa.blend'
# www.blender.org
mtllib Plant_10.mtl
o Plant_10
v -0.097443 0.159474 -0.078679
v -0.087192 0.147793 -0.047506
v -0.072825 0.135008 -0.023401
v -0.051346 0.109473 -0.002733
v -0.037215 0.090185 0.004777
v -0.018669 0.051769 0.007830
v 0.005799 0.056764 -0.023871
v -0.003155 0.096576 -0.039270
v -0.018526 0.123717 -0.054208
v -0.040566 0.140935 -0.065306
v -0.067331 0.151930 -0.073163
v -0.004865 0.059605 -0.006611
v -0.018294 0.101584 -0.015322
v -0.035169 0.128632 -0.027510
v -0.054939 0.144356 -0.042677
v -0.076562 0.153574 -0.059569
v -0.058552 0.120140 -0.007827
v -0.124957 0.055524 0.145787
v -0.086840 0.069472 0.133240
v -0.057240 0.080323 0.115336
v -0.030115 0.080143 0.086048
v -0.019146 0.073408 0.065818
v -0.011371 0.046182 0.036084
v -0.047659 0.055866 0.016519
v -0.072008 0.073167 0.024360
v -0.092701 0.082636 0.047292
v -0.107381 0.079645 0.075937
v -0.117604 0.068856 0.108977
v -0.029327 0.053785 0.020597
v -0.044259 0.084587 0.044796
v -0.061476 0.094811 0.069468
v -0.081110 0.089095 0.095037
v -0.101995 0.074007 0.121309
v -0.037373 0.083612 0.096519
v 0.000000 0.000000 0.000000
v 0.123171 0.176559 0.198677
v 0.123088 0.167974 0.149274
v 0.115875 0.158404 0.105345
v 0.095258 0.133095 0.058831
v 0.077820 0.112056 0.035813
v 0.049073 0.064588 0.011544
v -0.001479 0.077110 0.041794
v 0.007755 0.129221 0.077589
v 0.023738 0.160104 0.113302
v 0.049359 0.174336 0.145144
v 0.082211 0.178005 0.173691
v 0.023444 0.079549 0.025171
v 0.042560 0.133558 0.055075
v 0.062091 0.164033 0.087909
v 0.082134 0.176548 0.123587
v 0.102760 0.178647 0.161030
v 0.103570 0.144851 0.072488
v 0.224641 0.013404 -0.059088
v 0.181030 0.041490 -0.068619
v 0.138461 0.056113 -0.071141
v 0.091015 0.067967 -0.062385
v 0.065927 0.070412 -0.051672
v 0.033744 0.049417 -0.033868
v 0.047540 0.028732 0.020884
v 0.085091 0.041840 0.024359
v 0.121900 0.037742 0.018336
v 0.157607 0.032779 0.001247
v 0.192959 0.027816 -0.023960
v 0.040640 0.048697 -0.005070
v 0.075971 0.069900 -0.012039
v 0.110531 0.067228 -0.021927
v 0.148141 0.055547 -0.033288
v 0.187810 0.040749 -0.045559
v 0.105671 0.066298 -0.066699
v 0.017048 0.140530 -0.196113
v 0.002122 0.132928 -0.159667
v -0.008728 0.125242 -0.125211
v -0.014772 0.109018 -0.084717
v -0.014631 0.097945 -0.060972
v -0.013659 0.069521 -0.033740
v 0.035343 0.082265 -0.048632
v 0.052878 0.112086 -0.084852
v 0.060209 0.131003 -0.117535
v 0.055443 0.139882 -0.146580
v 0.041765 0.142332 -0.172930
v 0.012666 0.078635 -0.043468
v 0.021992 0.110766 -0.074877
v 0.025983 0.129823 -0.105305
v 0.025750 0.138231 -0.136070
v 0.023023 0.140818 -0.166691
v -0.013535 0.116125 -0.097551
v -0.193405 0.185743 0.003044
v -0.165709 0.180670 0.023381
v -0.136376 0.171047 0.034931
v -0.097407 0.146408 0.039235
v -0.073574 0.126073 0.036863
v -0.040948 0.085154 0.027822
v -0.031528 0.071261 -0.014232
v -0.060487 0.106760 -0.021348
v -0.091341 0.132451 -0.024491
v -0.124008 0.152397 -0.020336
v -0.158024 0.169032 -0.010598
v -0.035915 0.083248 0.007161
v -0.066937 0.123904 0.008333
v -0.098146 0.150941 0.008514
v -0.129851 0.167563 0.007726
v -0.161940 0.178230 0.006512
v -0.110337 0.157144 0.039315
v 0.032653 0.288836 0.118891
v 0.043435 0.256029 0.088235
v 0.046663 0.220102 0.060641
v 0.043057 0.165883 0.031807
v 0.037285 0.129834 0.017663
v 0.026508 0.072000 0.004679
v -0.011908 0.061297 0.015303
v -0.015878 0.114932 0.032344
v -0.013886 0.162316 0.053003
v -0.003773 0.205749 0.074735
v 0.012425 0.247017 0.096915
v 0.006638 0.070068 0.007903
v 0.009826 0.127571 0.022195
v 0.014640 0.175631 0.041596
v 0.020673 0.216809 0.065289
v 0.027511 0.254041 0.091445
v 0.045171 0.185470 0.040008
v 0.118271 0.185347 -0.074745
v 0.085148 0.172469 -0.071789
v 0.057694 0.156840 -0.063345
v 0.030682 0.126240 -0.048344
v 0.018310 0.103134 -0.037471
v 0.032563 0.054577 0.007844
v 0.053601 0.096429 0.005170
v 0.074248 0.127030 -0.004944
v 0.091463 0.149935 -0.023114
v 0.105861 0.168013 -0.047099
v 0.018771 0.062029 -0.005889
v 0.034608 0.107760 -0.013971
v 0.052952 0.138918 -0.026091
v 0.073409 0.159409 -0.041329
v 0.095047 0.173793 -0.058536
v 0.038174 0.138776 -0.053511
vt 0.439876 0.733869
vt 0.473439 0.673949
vt 0.473439 0.756686
vt 0.645470 0.323066
vt 0.597166 0.141216
vt 0.645470 0.107038
vt 0.474302 0.152874
vt 0.400999 0.032472
vt 0.474302 0.001733
vt 0.839615 0.617933
vt 0.785524 0.473136
vt 0.839615 0.471016
vt 0.543826 0.105992
vt 0.543826 0.195640
vt 0.477768 0.129424
vt 0.456820 0.211062
vt 0.456820 0.453086
vt 0.410625 0.421586
vt 0.942418 0.063277
vt 0.983789 0.005187
vt 0.983789 0.100465
vt 0.798114 0.763356
vt 0.738967 0.621689
vt 0.798114 0.621549
vt 0.033156 0.506231
vt 0.184088 0.498278
vt 0.184088 0.568638
vt 0.945586 0.394347
vt 0.980484 0.375147
vt 0.980484 0.458072
vt 0.421581 0.478678
vt 0.456820 0.456552
vt 0.456820 0.578620
vt 0.001733 0.235492
vt 0.196106 0.167678
vt 0.196106 0.245245
vt 0.848106 0.789779
vt 0.801579 0.644327
vt 0.848106 0.621549
vt 0.297810 0.207596
vt 0.227098 0.011596
vt 0.297810 0.001733
vt 0.649214 0.873774
vt 0.685376 0.843641
vt 0.685376 0.942070
vt 0.223633 0.324183
vt 0.223633 0.502969
vt 0.189475 0.473853
vt 0.898642 0.621549
vt 0.898642 0.764467
vt 0.851572 0.744911
vt 0.407160 0.211062
vt 0.407160 0.426594
vt 0.348629 0.388033
vt 0.779296 0.935032
vt 0.779296 0.983842
vt 0.689992 0.952578
vt 0.593701 0.341005
vt 0.548373 0.129786
vt 0.593701 0.107038
vt 0.836231 0.289623
vt 0.792609 0.127147
vt 0.836231 0.107038
vt 0.888176 0.249956
vt 0.839697 0.111268
vt 0.888176 0.107038
vt 0.801579 0.916234
vt 0.889860 0.896336
vt 0.889860 0.958570
vt 0.301275 0.175208
vt 0.452415 0.158093
vt 0.452415 0.207596
vt 0.220706 0.906316
vt 0.220706 0.973284
vt 0.142370 0.955295
vt 0.142774 0.913833
vt 0.477904 0.762447
vt 0.548229 0.710001
vt 0.548229 0.801240
vt 0.476904 0.818066
vt 0.666038 0.374028
vt 0.729616 0.344470
vt 0.729616 0.445511
vt 0.656341 0.464749
vt 0.931405 0.474518
vt 0.971081 0.471016
vt 0.971081 0.545041
vt 0.906295 0.549545
vt 0.904765 0.896336
vt 0.968959 0.896762
vt 0.968959 0.966747
vt 0.893325 0.966887
vt 0.605226 0.996035
vt 0.579490 0.927456
vt 0.645749 0.929510
vt 0.645749 0.998267
vt 0.801777 0.817951
vt 0.873394 0.793245
vt 0.873394 0.879624
vt 0.801579 0.892871
vt 0.705199 0.611963
vt 0.639160 0.618083
vt 0.657441 0.476155
vt 0.705199 0.471016
vt 0.730111 0.782407
vt 0.798114 0.766821
vt 0.798114 0.864902
vt 0.724770 0.856844
vt 0.752849 0.347428
vt 0.802264 0.344470
vt 0.802264 0.455916
vt 0.733082 0.462287
vt 0.881572 0.371804
vt 0.881572 0.439206
vt 0.812900 0.434769
vt 0.805729 0.344470
vt 0.570795 0.489822
vt 0.635694 0.471016
vt 0.635694 0.584769
vt 0.559361 0.607101
vt 0.555896 0.620729
vt 0.555896 0.706536
vt 0.484688 0.676819
vt 0.476904 0.585777
vt 0.559361 0.710401
vt 0.564586 0.617548
vt 0.630540 0.610566
vt 0.630540 0.734206
vt 0.297745 0.550804
vt 0.246809 0.580918
vt 0.227098 0.472571
vt 0.297745 0.429297
vt 0.588281 0.751922
vt 0.633143 0.737671
vt 0.633143 0.818046
vt 0.559361 0.840175
vt 0.561658 0.905696
vt 0.559361 0.856939
vt 0.645749 0.843641
vt 0.645749 0.923991
vt 0.237367 0.857522
vt 0.236233 0.777179
vt 0.313703 0.770366
vt 0.313703 0.865824
vt 0.502029 0.989151
vt 0.476904 0.915653
vt 0.541443 0.915522
vt 0.541443 0.989547
vt 0.214025 0.705527
vt 0.214025 0.807112
vt 0.163295 0.802164
vt 0.143565 0.697287
vt 0.460285 0.555626
vt 0.461201 0.476144
vt 0.555896 0.471016
vt 0.555896 0.582312
vt 0.554691 0.852524
vt 0.554691 0.912057
vt 0.484431 0.902252
vt 0.476904 0.821531
vt 0.058511 0.683245
vt 0.098517 0.671805
vt 0.098517 0.781098
vt 0.033156 0.798232
vt 0.888435 0.800677
vt 0.952950 0.793245
vt 0.952950 0.870963
vt 0.876860 0.880433
vt 0.948901 0.148114
vt 0.948901 0.249956
vt 0.891642 0.246711
vt 0.236233 0.738641
vt 0.331714 0.680665
vt 0.331714 0.766901
vt 0.648936 0.314627
vt 0.657000 0.250070
vt 0.754083 0.247220
vt 0.754083 0.332842
vt 0.108366 0.020341
vt 0.108366 0.164212
vt 0.031721 0.152286
vt 0.001733 0.001733
vt 0.301275 0.016331
vt 0.397533 0.001733
vt 0.397533 0.123309
vt 0.302972 0.117111
vt 0.860035 0.102527
vt 0.783154 0.011733
vt 0.860035 0.005187
vt 0.033156 0.853121
vt 0.034959 0.804491
vt 0.138523 0.801697
vt 0.138523 0.870037
vt 0.238590 0.887389
vt 0.322785 0.869290
vt 0.322785 0.946581
vt 0.236233 0.934393
vt 0.735502 0.621549
vt 0.735502 0.719456
vt 0.650784 0.690139
vt 0.639160 0.635448
vt 0.468579 0.243275
vt 0.544908 0.211062
vt 0.544908 0.306723
vt 0.460285 0.341005
vt 0.435518 0.767286
vt 0.338371 0.758675
vt 0.336999 0.699545
vt 0.435518 0.685085
vt 0.718949 0.474367
vt 0.782059 0.471016
vt 0.782059 0.566837
vt 0.708665 0.587655
vt 0.043064 0.875135
vt 0.110399 0.873502
vt 0.110399 0.947492
vt 0.033156 0.938908
vt 0.581225 0.001733
vt 0.581225 0.102527
vt 0.480155 0.078857
vt 0.477768 0.017867
vt 0.047894 0.572103
vt 0.140099 0.582738
vt 0.140099 0.664977
vt 0.033156 0.668339
vt 0.338666 0.858286
vt 0.336999 0.772067
vt 0.413726 0.770752
vt 0.413726 0.866210
vt 0.463025 0.346006
vt 0.548632 0.344470
vt 0.548632 0.455766
vt 0.460285 0.467551
vt 0.591654 0.445136
vt 0.552097 0.344470
vt 0.652876 0.345876
vt 0.652876 0.447540
vt 0.798114 0.868368
vt 0.798114 0.931566
vt 0.689992 0.915608
vt 0.690563 0.876740
vt 0.882228 0.005187
vt 0.938953 0.010302
vt 0.938953 0.092503
vt 0.863500 0.094426
vt 0.154205 0.818466
vt 0.220706 0.810578
vt 0.220706 0.881463
vt 0.143565 0.902851
vt 0.140038 0.016374
vt 0.223633 0.001733
vt 0.223633 0.109977
vt 0.111831 0.141204
vt 0.852492 0.253422
vt 0.929590 0.258884
vt 0.929590 0.324350
vt 0.839697 0.330130
vt 0.586279 0.074146
vt 0.584691 0.016816
vt 0.686069 0.009198
vt 0.686069 0.102527
vt 0.436185 0.584495
vt 0.436185 0.681620
vt 0.338218 0.658784
vt 0.336999 0.588435
vt 0.114796 0.371400
vt 0.184088 0.351176
vt 0.184088 0.474053
vt 0.107312 0.494813
vt 0.902107 0.640010
vt 0.973027 0.621549
vt 0.973027 0.696470
vt 0.902896 0.687060
vt 0.154701 0.347711
vt 0.001733 0.334812
vt 0.003655 0.263441
vt 0.154701 0.248710
vt 0.911147 0.707352
vt 0.972056 0.699935
vt 0.972056 0.775286
vt 0.902107 0.773023
vt 0.356625 0.441456
vt 0.407160 0.430060
vt 0.407160 0.564067
vt 0.336999 0.581030
vt 0.789143 0.111741
vt 0.789143 0.230310
vt 0.735562 0.222608
vt 0.720489 0.107038
vt 0.469579 0.973933
vt 0.428245 0.915816
vt 0.469579 0.893324
vt 0.646494 0.732117
vt 0.715357 0.722921
vt 0.715357 0.813839
vt 0.639160 0.822403
vt 0.717024 0.228545
vt 0.648936 0.243755
vt 0.667743 0.119014
vt 0.717024 0.107038
vt 0.757549 0.301859
vt 0.825731 0.293615
vt 0.825731 0.332842
vt 0.907065 0.595714
vt 0.906295 0.556496
vt 0.974965 0.553010
vt 0.974965 0.617205
vt 0.241476 0.414640
vt 0.227098 0.326463
vt 0.341641 0.324183
vt 0.341641 0.425832
vt 0.779688 0.016720
vt 0.779688 0.102527
vt 0.689534 0.024569
vt 0.229324 0.615737
vt 0.331714 0.584383
vt 0.331714 0.677200
vt 0.227098 0.672816
vt 0.001733 0.448997
vt 0.002298 0.355669
vt 0.103847 0.351176
vt 0.103847 0.460832
vt 0.223350 0.616793
vt 0.223350 0.693821
vt 0.143921 0.663405
vt 0.143565 0.572103
vt 0.332923 0.938715
vt 0.331581 0.870389
vt 0.413726 0.869675
vt 0.413726 0.945309
vt 0.974122 0.330701
vt 0.933056 0.259147
vt 0.974122 0.253422
vt 0.469579 0.770752
vt 0.469579 0.889859
vt 0.417191 0.858087
vt 0.902830 0.584618
vt 0.843080 0.572147
vt 0.902830 0.471016
vt 0.942121 0.458072
vt 0.885037 0.346559
vt 0.942121 0.344470
vt 0.223633 0.256374
vt 0.204894 0.215590
vt 0.223633 0.144670
vt 0.331581 0.992493
vt 0.422532 0.948774
vt 0.422532 0.995837
vt 0.139399 0.671805
vt 0.139399 0.781490
vt 0.101982 0.770952
vt 0.473439 0.585777
vt 0.473439 0.670484
vt 0.439691 0.650119
vt 0.345164 0.320718
vt 0.229097 0.318918
vt 0.227098 0.219938
vt 0.345164 0.211062
vn -0.0798 0.9245 0.3727
vn 0.9165 0.3984 -0.0353
vn -0.5921 0.5550 0.5843
vn -0.8140 0.2939 0.5011
vn 0.0235 0.7019 0.7119
vn 0.0197 0.6940 0.7197
vn 0.0270 0.6920 0.7214
vn 0.1240 0.4652 0.8765
vn 0.1253 0.4644 0.8767
vn 0.1271 0.4641 0.8766
vn -0.3524 0.9337 -0.0637
vn -0.2150 0.9717 0.0975
vn -0.3352 0.9403 0.0589
vn 0.6656 0.5543 -0.4997
vn -0.7431 0.6404 0.1940
vn 0.0590 0.7774 0.6262
vn -0.0750 0.8597 0.5053
vn -0.2571 0.8828 0.3933
vn -0.4712 0.6842 -0.5567
vn -0.5025 0.5800 -0.6411
vn -0.6197 0.5573 -0.5527
vn -0.2647 0.3610 -0.8942
vn -0.4237 0.1411 -0.8948
vn -0.5363 0.3942 -0.7463
vn 0.1027 0.9102 -0.4013
vn 0.2543 0.8749 -0.4122
vn 0.2214 0.7997 -0.5581
vn 0.2423 0.4594 -0.8546
vn 0.6785 0.1355 0.7220
vn 0.1634 0.4571 0.8743
vn 0.1643 0.4552 0.8751
vn 0.1649 0.4567 0.8742
vn -0.5706 0.8182 0.0698
vn -0.4582 0.8611 0.2203
vn -0.2773 0.9084 0.3130
vn 0.9078 0.3756 0.1865
vn -0.1709 0.1264 -0.9772
vn 0.8531 0.1258 0.5064
vn -0.1545 0.8951 0.4183
vn -0.6093 0.2556 0.7506
vn 0.3167 0.9474 -0.0454
vn 0.3330 0.9409 -0.0617
vn 0.3329 0.9409 -0.0617
vn -0.3198 0.9412 0.1087
vn -0.3201 0.9411 0.1090
vn -0.3192 0.9415 0.1080
vn -0.2707 0.9273 0.2586
vn -0.2692 0.9285 0.2558
vn -0.2693 0.9285 0.2558
vn -0.1250 0.8329 0.5391
vn -0.1213 0.8263 0.5500
vn 0.5120 0.8356 0.1989
vn 0.5439 0.8177 0.1885
vn 0.0266 0.8898 0.4556
vn 0.0265 0.8896 0.4559
vn 0.0273 0.8914 0.4523
vn 0.0274 0.8918 0.4515
vn 0.0607 0.9630 0.2627
vn 0.0476 0.9574 0.2849
vn -0.1775 0.2470 -0.9526
vn -0.1783 0.2467 -0.9525
vn -0.1784 0.2467 -0.9525
vn 0.6522 0.7522 0.0945
vn 0.6516 0.7525 0.0953
vn -0.5684 0.3337 0.7520
vn -0.5684 0.3338 0.7520
vn -0.5655 0.3295 0.7561
vn -0.7228 0.5709 0.3895
vn -0.7232 0.5704 0.3893
vn -0.7229 0.5708 0.3894
vn -0.7184 0.5751 0.3913
vn -0.4975 0.4862 -0.7183
vn -0.4976 0.4862 -0.7183
vn -0.5092 0.4770 -0.7164
vn 0.1385 0.8311 0.5387
vn 0.1384 0.8311 0.5387
vn 0.1572 0.8390 0.5209
vn -0.1807 0.3839 -0.9055
vn -0.1810 0.3841 -0.9054
vn -0.1804 0.3837 -0.9057
vn 0.7799 0.6004 -0.1770
vn 0.7800 0.6002 -0.1772
vn 0.3031 0.8666 -0.3965
vn 0.3066 0.8626 -0.4023
vn -0.4274 0.8879 0.1701
vn -0.4328 0.8879 0.1560
vn -0.3176 0.9477 -0.0320
vn -0.3214 0.9446 -0.0661
vn -0.4347 0.8762 0.2081
vn -0.4348 0.8762 0.2081
vn -0.4127 0.8839 0.2199
vn 0.5812 0.3394 0.7396
vn -0.3072 0.7131 0.6302
vn -0.3072 0.7131 0.6301
vn -0.3056 0.7155 0.6282
vn -0.3055 0.7155 0.6282
vn 0.4075 0.5745 0.7099
vn -0.4999 0.5575 -0.6628
vn -0.5061 0.5540 -0.6611
vn -0.2576 0.7289 0.6344
vn -0.2541 0.7111 0.6556
vn -0.1112 0.9653 0.2363
vn -0.1588 0.9729 0.1679
vn 0.0022 0.9985 0.0542
vn 0.2420 0.6692 -0.7025
vn 0.0925 0.9957 -0.0106
vn 0.0724 0.9972 -0.0167
vn 0.0723 0.9972 -0.0167
vn -0.1449 0.5183 -0.8428
vn 0.3882 0.7923 0.4706
vn 0.3883 0.7923 0.4706
vn 0.3322 0.8267 0.4540
vn 0.1882 0.7115 0.6770
vn 0.8197 0.3574 0.4475
vn 0.8218 0.3554 0.4453
vn -0.0548 0.8915 0.4497
vn -0.0838 0.8914 0.4453
vn 0.0300 0.6943 0.7191
vn 0.0332 0.6897 0.7234
vn 0.0534 0.6901 0.7217
vn 0.0540 0.6900 0.7218
vn 0.6309 0.7234 -0.2807
vn 0.6281 0.7269 -0.2777
vn 0.6379 0.6436 -0.4229
vn 0.6375 0.6440 -0.4230
vn 0.6391 0.6426 -0.4227
vn 0.6396 0.6421 -0.4226
vn -0.2085 0.5102 -0.8344
vn -0.2135 0.5068 -0.8352
vn -0.2127 0.5074 -0.8351
vn -0.2079 0.5105 -0.8343
vn -0.5626 0.7707 0.2992
vn -0.5625 0.7707 0.2992
vn -0.5520 0.7767 0.3034
vn 0.4128 0.8083 0.4198
vn 0.4251 0.8176 0.3883
vn 0.2883 0.9557 -0.0589
vn 0.2888 0.9555 -0.0596
vn 0.2886 0.9556 -0.0594
vn 0.2823 0.9580 -0.0505
vn -0.0583 0.9031 -0.4255
vn -0.0580 0.9073 -0.4165
vn 0.2219 0.7983 0.5599
vn 0.1805 0.8171 0.5474
vn 0.3481 0.9025 -0.2538
vn 0.3399 0.9098 -0.2383
vn -0.2140 0.5876 -0.7804
vn -0.2300 0.5797 -0.7817
vn 0.4471 0.8927 -0.0571
vn 0.4450 0.8937 -0.0563
vn 0.4455 0.8935 -0.0565
vn 0.4476 0.8924 -0.0573
vn 0.4709 0.8822 0.0001
vn 0.4710 0.8821 0.0000
vn 0.4706 0.8823 0.0003
vn 0.4642 0.8857 0.0053
vn 0.0559 0.7152 -0.6967
vn 0.0559 0.7156 -0.6963
vn 0.0560 0.7149 -0.6970
vn 0.1098 0.9526 0.2838
vn 0.1099 0.9529 0.2826
vn 0.1094 0.9509 0.2894
vn 0.1090 0.9490 0.2958
vn -0.0491 0.9984 -0.0290
vn -0.0862 0.9959 -0.0288
vn -0.4880 0.8623 0.1349
vn -0.4893 0.8610 0.1387
vn -0.4894 0.8610 0.1387
vn -0.4916 0.3654 -0.7905
vn -0.4883 0.3682 -0.7912
vn -0.0248 0.9960 0.0864
vn -0.0422 0.9926 0.1142
vn -0.5006 0.5482 -0.6700
vn -0.5010 0.5484 -0.6696
vn -0.5014 0.5486 -0.6691
vn 0.1972 0.7930 0.5764
vn 0.1973 0.7977 0.5699
vn -0.4556 0.2386 -0.8576
vn -0.8030 0.3574 0.4769
vn -0.8041 0.3565 0.4757
vn -0.7989 0.3608 0.4812
vn -0.7980 0.3616 0.4822
vn 0.0450 0.9984 -0.0347
vn 0.0408 0.9988 -0.0276
vn -0.0785 0.9969 0.0062
vn -0.4246 0.5293 0.7346
vn -0.4261 0.5347 0.7297
vn 0.7890 0.5986 0.1381
vn 0.7894 0.5984 0.1372
vn 0.7892 0.5985 0.1377
vn 0.2355 0.9710 0.0425
vn 0.3204 0.9416 0.1037
vn 0.3569 0.9302 0.0860
vn 0.3568 0.9302 0.0860
vn 0.2346 0.8645 -0.4445
vn 0.2322 0.8697 -0.4356
vn -0.1756 0.8445 0.5059
vn 0.3282 0.9421 -0.0693
vn 0.3278 0.9422 -0.0697
vn 0.3298 0.9416 -0.0676
vn 0.3305 0.9414 -0.0669
vn -0.2076 0.9536 -0.2179
vn -0.2077 0.9536 -0.2179
vn -0.2451 0.9432 -0.2243
vn 0.4412 0.8247 -0.3538
vn 0.4514 0.8150 -0.3635
vn 0.4514 0.8149 -0.3635
vn 0.7284 0.5973 0.3356
vn 0.7285 0.5973 0.3356
vn 0.7220 0.6032 0.3390
vn 0.2999 0.9241 -0.2367
vn 0.2403 0.9669 -0.0861
vn 0.2293 0.9709 0.0695
vn 0.2050 0.9770 -0.0590
vn 0.3855 0.9090 -0.1586
vn 0.4827 0.8757 0.0115
vn 0.6146 0.6383 0.4636
vn 0.6364 0.7192 0.2789
vn 0.5560 0.8232 0.1150
vn 0.4997 0.7973 -0.3385
vn 0.5574 0.8188 -0.1376
vn 0.7130 0.6889 -0.1311
vn 0.2342 0.6551 -0.7183
vn 0.0033 0.7741 0.6330
vn -0.1444 0.8501 0.5065
vn -0.2879 0.7534 0.5912
vn -0.3699 0.5872 -0.7199
vn -0.2286 0.6235 -0.7477
vn -0.0937 0.6238 -0.7760
vn -0.4286 0.9029 -0.0318
vn -0.3446 0.9241 0.1650
vn -0.1921 0.9800 0.0512
vn -0.4068 0.7773 -0.4799
vn -0.4070 0.7774 -0.4795
vn -0.4030 0.7739 -0.4886
vn -0.4029 0.7738 -0.4888
g Plant_10_Plant_10_Collor_Material
usemtl Collor_Material
s off
f 16/1/1 1/2/1 2/3/1
f 35/4/2 93/5/2 98/6/2
f 35/7/3 59/8/3 64/9/3
f 35/10/4 131/11/4 7/12/4
f 81/13/5 74/14/6 75/15/7
f 35/16/8 76/17/9 81/18/10
f 85/19/11 70/20/12 71/21/13
f 35/22/14 29/23/14 23/24/14
f 35/25/15 64/26/15 58/27/15
f 135/28/16 130/29/17 121/30/18
f 119/31/19 114/32/20 104/33/21
f 35/34/22 47/35/22 41/36/22
f 35/37/23 110/38/23 115/39/23
f 35/40/24 42/41/24 47/42/24
f 102/43/25 97/44/26 87/45/27
f 35/46/28 24/47/28 29/48/28
f 35/49/29 12/50/29 6/51/29
f 35/52/30 81/53/31 75/54/32
f 33/55/33 28/56/34 18/57/35
f 35/58/36 98/59/36 92/60/36
f 35/61/37 115/62/37 109/63/37
f 35/64/38 7/65/38 12/66/38
f 82/67/39 73/68/39 74/69/39
f 35/70/40 126/71/40 131/72/40
f 89/73/41 101/74/41 102/75/42 88/76/43
f 71/77/44 72/78/45 84/79/44 85/80/46
f 72/81/47 86/82/47 83/83/48 84/84/49
f 130/85/50 135/86/50 134/87/51 129/88/51
f 10/89/52 15/90/52 14/91/53 9/92/53
f 2/93/54 3/94/55 15/95/56 16/96/57
f 84/97/58 83/98/58 78/99/59 79/100/59
f 116/101/60 108/102/60 109/103/61 115/104/62
f 91/105/63 99/106/63 100/107/64 90/108/64
f 131/109/65 126/110/66 127/111/67 132/112/67
f 124/113/68 125/114/69 132/115/70 133/116/71
f 113/117/72 118/118/73 117/119/74 112/120/74
f 83/121/75 82/122/76 77/123/77 78/124/77
f 107/125/78 108/126/79 116/127/78 117/128/80
f 98/129/81 93/130/81 94/131/82 99/132/81
f 97/133/83 102/134/83 101/135/84 96/136/84
f 28/137/85 33/138/85 32/139/86 27/140/86
f 27/141/87 32/142/87 31/143/88 26/144/88
f 122/145/89 123/146/90 134/147/91 135/148/91
f 5/149/92 6/150/92 12/151/92 13/152/92
f 64/153/93 59/154/94 60/155/95 65/156/96
f 4/157/97 5/158/97 13/159/97 14/160/97
f 114/161/98 119/162/98 118/163/99 113/164/99
f 129/165/100 134/166/100 133/167/101 128/168/101
f 36/169/102 51/170/103 46/171/104
f 29/172/105 25/173/105 30/174/105
f 56/175/106 57/176/106 65/177/107 66/178/108
f 40/179/109 41/180/109 47/181/109 48/182/109
f 67/183/110 66/184/111 61/185/112 62/186/112
f 76/187/113 77/188/113 82/189/113
f 12/190/114 7/191/114 8/192/115 13/193/115
f 19/194/116 20/195/116 32/196/117 33/197/117
f 82/198/118 74/199/119 81/200/120 76/201/121
f 99/202/122 94/203/122 95/204/123 100/205/123
f 22/206/124 23/207/125 29/208/126 30/209/127
f 118/210/128 106/211/129 120/212/130 117/213/131
f 123/214/132 136/215/133 133/216/134 134/217/134
f 67/218/135 62/219/135 63/220/136 68/221/136
f 67/222/137 55/223/138 69/224/139 66/225/140
f 30/226/141 25/227/141 26/228/142 31/229/142
f 66/230/143 65/231/143 60/232/144 61/233/144
f 37/234/145 38/235/145 50/236/146 51/237/146
f 106/238/147 118/239/147 119/240/148 105/241/148
f 21/242/149 22/243/150 30/244/151 31/245/152
f 101/246/153 89/247/154 103/248/155 100/249/156
f 39/250/157 40/251/158 48/252/157 49/253/159
f 32/254/160 20/255/161 34/256/162 31/257/163
f 46/258/164 51/259/164 50/260/165 45/261/165
f 65/262/166 57/263/166 58/264/167 64/265/168
f 116/266/169 111/267/169 112/268/170 117/269/170
f 85/270/171 84/271/171 79/272/172 80/273/172
f 48/274/173 47/275/173 42/276/174 43/277/175
f 3/278/176 17/279/176 14/280/177 15/281/177
f 115/282/178 110/283/178 111/284/178 116/285/178
f 125/286/179 7/287/180 131/288/181 132/289/182
f 70/290/183 85/291/184 80/292/185
f 132/293/186 127/294/186 128/295/187 133/296/187
f 99/297/188 91/298/188 92/299/189 98/300/190
f 1/301/191 16/302/191 11/303/191
f 11/304/192 16/305/192 15/306/193 10/307/194
f 38/308/195 52/309/195 49/310/196 50/311/196
f 82/312/197 83/313/197 73/314/197
f 54/315/198 55/316/199 67/317/200 68/318/201
f 45/319/202 50/320/203 49/321/204 44/322/204
f 96/323/205 101/324/205 100/325/206 95/326/207
f 13/327/208 8/328/209 9/329/210 14/330/210
f 87/331/211 88/332/212 102/333/213
f 36/334/214 37/335/215 51/336/216
f 68/337/217 63/338/218 53/339/219
f 53/340/220 54/341/221 68/342/222
f 29/343/223 24/344/223 25/345/223
f 18/346/224 19/347/225 33/348/226
f 104/349/227 105/350/228 119/351/229
f 121/352/230 122/353/231 135/354/232
f 49/355/233 48/356/234 43/357/235 44/358/236
