# Blender v3.0.0 OBJ File: 'aa.blend'
# www.blender.org
mtllib Plant_6.mtl
o Plant_6
v -0.167764 0.494343 -0.064535
v -0.173245 0.136867 -0.025982
v -0.081407 0.000000 0.006549
v -0.135519 0.137940 -0.025929
v -0.099572 0.137550 -0.087330
v -0.119057 0.137515 -0.120586
v -0.044578 -0.000000 -0.056493
v -0.164895 0.135020 -0.083632
v -0.078908 -0.000000 -0.034635
v 0.003075 0.239471 -0.215457
v 0.076120 0.239540 -0.189011
v 0.048398 0.239537 -0.146518
v -0.042247 0.239546 -0.146521
v -0.069979 0.239526 -0.189012
v 0.001064 0.412786 -0.283062
v -0.073787 0.137397 -0.158978
v -0.039427 -0.000000 -0.060092
v -0.047770 0.137171 -0.116682
v -0.023903 -0.000000 -0.027764
v 0.043248 0.137168 -0.116699
v 0.069300 0.137393 -0.158972
v 0.034891 -0.000000 -0.060107
v -0.002253 0.135764 -0.185317
v -0.002253 -0.000000 -0.079181
v -0.079657 0.000000 0.055177
v -0.188462 0.142781 0.091430
v -0.081537 0.000000 0.013237
v -0.197430 0.143668 0.034535
v -0.045720 0.000000 0.010043
v -0.159731 0.143995 0.034184
v -0.024398 0.000000 0.047523
v -0.123168 0.144874 0.095915
v -0.042877 0.000000 0.075786
v -0.149109 0.168082 0.128695
v -0.268185 0.421521 0.109180
v -0.002252 0.000000 0.098863
v -0.002252 0.085200 0.154480
v -0.039274 0.000000 0.080177
v -0.059783 0.112932 0.154980
v -0.039183 0.111018 0.119855
v 0.034667 0.111039 0.119828
v 0.034747 0.000000 0.080187
v 0.055290 0.112934 0.154974
v 0.000320 0.451490 0.221635
v 0.054502 0.258140 0.179550
v 0.032494 0.260685 0.143704
v -0.036999 0.260685 0.143704
v -0.059007 0.258140 0.179550
v -0.002252 0.265573 0.189599
v 0.074403 0.000000 0.054526
v 0.160390 0.135021 0.103524
v 0.040084 0.000000 0.076377
v 0.114541 0.137518 0.140487
v 0.019522 0.000000 0.047612
v 0.095113 0.137516 0.107234
v 0.041126 0.000000 0.009938
v 0.130979 0.137973 0.045794
v 0.076902 0.000000 0.013336
v 0.168739 0.136866 0.045881
v 0.204237 0.340074 0.112104
v 0.075267 -0.000000 -0.034785
v 0.193220 0.099212 -0.063747
v 0.076310 0.000000 0.006657
v 0.200918 0.101015 0.006881
v 0.150016 0.100546 0.007083
v 0.019059 -0.000000 -0.027883
v 0.110549 0.100551 -0.064651
v 0.040619 -0.000000 -0.056134
v 0.137787 0.099254 -0.108000
v 0.372872 0.386452 -0.145482
v 0.214318 0.195692 -0.127145
v 0.195224 0.198766 -0.094880
v 0.225656 0.199296 -0.032229
v 0.263143 0.194990 -0.027525
v 0.257189 0.192476 -0.085822
vt 0.341095 0.582724
vt 0.003725 0.561913
vt 0.341095 0.547281
vt 0.067498 0.001479
vt 0.067498 0.343277
vt 0.001479 0.011774
vt 0.125095 0.414093
vt 0.070456 0.405298
vt 0.125095 0.071820
vt 0.182624 0.409509
vt 0.128054 0.076020
vt 0.182624 0.071820
vt 0.340302 0.797552
vt 0.296475 0.778860
vt 0.340302 0.585682
vt 0.786226 0.091025
vt 0.829834 0.071820
vt 0.829834 0.282920
vt 0.067498 0.544322
vt 0.003725 0.508893
vt 0.067498 0.346235
vt 0.453043 0.106182
vt 0.517406 0.071820
vt 0.517406 0.268607
vt 0.269113 0.282920
vt 0.185582 0.266528
vt 0.269113 0.071820
vt 0.712544 0.071820
vt 0.712544 0.268902
vt 0.657831 0.267784
vt 0.984425 0.740312
vt 0.957335 0.585980
vt 0.984425 0.569496
vt 0.783268 0.365411
vt 0.751661 0.103712
vt 0.783268 0.071820
vt 0.450085 0.071820
vt 0.450085 0.350051
vt 0.397052 0.339383
vt 0.358755 0.001479
vt 0.358755 0.068861
vt 0.070456 0.056974
vt 0.715503 0.348064
vt 0.748703 0.071820
vt 0.748703 0.360364
vt 0.543431 0.802106
vt 0.543431 0.902299
vt 0.471819 0.901092
vt 0.470522 0.799557
vt 0.520365 0.083447
vt 0.584581 0.071820
vt 0.584581 0.268520
vt 0.243836 0.608272
vt 0.293517 0.585682
vt 0.293517 0.778347
vt 0.321944 0.482237
vt 0.321944 0.521810
vt 0.128054 0.515366
vt 0.687924 0.780003
vt 0.638793 0.756241
vt 0.687924 0.586006
vt 0.867719 0.001479
vt 0.867719 0.041052
vt 0.675094 0.005399
vt 0.880745 0.780758
vt 0.846902 0.580133
vt 0.880745 0.569496
vt 0.690572 0.373312
vt 0.690572 0.583047
vt 0.638793 0.563471
vt 0.338558 0.412467
vt 0.338558 0.479278
vt 0.128054 0.430343
vt 0.832793 0.278623
vt 0.867739 0.071820
vt 0.867739 0.287937
vt 0.913775 0.389469
vt 0.936341 0.274589
vt 0.936341 0.413798
vt 0.217718 0.953321
vt 0.191061 0.841149
vt 0.217718 0.821069
vt 0.336950 0.319115
vt 0.272072 0.310788
vt 0.336950 0.071820
vt 0.530068 0.393799
vt 0.582184 0.373312
vt 0.582184 0.606889
vt 0.841521 0.545880
vt 0.809062 0.530992
vt 0.841521 0.298261
vt 0.635835 0.608295
vt 0.585143 0.586746
vt 0.635835 0.373312
vt 0.812379 0.585357
vt 0.843943 0.569496
vt 0.843943 0.816791
vt 0.394094 0.071820
vt 0.394094 0.344588
vt 0.339909 0.329791
vt 0.527109 0.373312
vt 0.527109 0.409509
vt 0.185582 0.386912
vt 0.672136 0.068220
vt 0.522272 0.052952
vt 0.525406 0.014148
vt 0.672136 0.001479
vt 0.924128 0.727153
vt 0.926978 0.569496
vt 0.954376 0.588314
vt 0.954376 0.747034
vt 0.550460 0.971223
vt 0.553611 0.846058
vt 0.581513 0.864953
vt 0.581513 0.993611
vt 0.138512 0.659381
vt 0.138512 0.818100
vt 0.100847 0.811685
vt 0.083295 0.655457
vt 0.080337 0.592173
vt 0.080337 0.724425
vt 0.039429 0.720235
vt 0.003725 0.585682
vt 0.125095 0.429465
vt 0.125095 0.529711
vt 0.080162 0.517239
vt 0.079095 0.417052
vt 0.083295 0.638337
vt 0.083626 0.597346
vt 0.240878 0.585682
vt 0.240878 0.652499
vt 0.938970 0.419396
vt 0.938970 0.561736
vt 0.901277 0.555050
vt 0.899486 0.416757
vt 0.347569 0.587183
vt 0.344054 0.548097
vt 0.506266 0.547281
vt 0.506266 0.618883
vt 0.883703 0.724266
vt 0.894269 0.569496
vt 0.921169 0.589822
vt 0.921169 0.752030
vt 0.570428 0.735770
vt 0.558958 0.611253
vt 0.635835 0.612478
vt 0.635835 0.734987
vt 0.360329 0.700359
vt 0.398575 0.694153
vt 0.398575 0.851924
vt 0.344054 0.856725
vt 0.012363 0.739855
vt 0.066955 0.727384
vt 0.066955 0.835593
vt 0.003725 0.856542
vt 0.417794 0.700363
vt 0.456046 0.694153
vt 0.456046 0.851924
vt 0.401533 0.856730
vt 0.543431 0.622105
vt 0.543431 0.796598
vt 0.504154 0.793185
vt 0.489336 0.621842
vt 0.856007 0.408326
vt 0.844479 0.298261
vt 0.910816 0.305589
vt 0.910816 0.413798
vt 0.711473 0.386168
vt 0.748919 0.373312
vt 0.748919 0.566537
vt 0.693530 0.557212
vt 0.975081 0.110117
vt 0.998521 0.071820
vt 0.998521 0.265045
vt 0.898946 0.912374
vt 0.860233 0.908142
vt 0.846902 0.813527
vt 0.898946 0.783716
vt 0.941389 0.926039
vt 0.901905 0.928687
vt 0.903667 0.790395
vt 0.941389 0.783716
vt 0.938955 0.093163
vt 0.938955 0.267656
vt 0.911121 0.245774
vt 0.912786 0.071820
vt 0.293517 0.881340
vt 0.221165 0.890748
vt 0.222352 0.789211
vt 0.293517 0.781306
vt 0.752246 0.716771
vt 0.720206 0.737606
vt 0.693530 0.600950
vt 0.752246 0.569496
vt 0.908163 0.234034
vt 0.881315 0.254365
vt 0.870698 0.099588
vt 0.908163 0.071820
vt 0.809420 0.870066
vt 0.778003 0.886217
vt 0.768100 0.769631
vt 0.809420 0.745022
vt 0.809420 0.742064
vt 0.755529 0.733452
vt 0.755205 0.595148
vt 0.809420 0.569496
vt 0.550810 0.839002
vt 0.550460 0.738728
vt 0.635835 0.742854
vt 0.635835 0.843100
vt 0.495031 0.497942
vt 0.341516 0.475540
vt 0.341574 0.435194
vt 0.495031 0.412467
vt 0.188103 0.921343
vt 0.141470 0.931136
vt 0.142563 0.831108
vt 0.188103 0.821069
vt 0.638837 0.838085
vt 0.638793 0.796839
vt 0.763226 0.782961
vt 0.763226 0.852314
vt 0.843465 0.948406
vt 0.815478 0.967299
vt 0.812379 0.842137
vt 0.843465 0.819750
vt 0.196672 0.659391
vt 0.196672 0.818111
vt 0.158996 0.811688
vt 0.141470 0.655457
vt 0.941913 0.229437
vt 0.944742 0.071820
vt 0.972123 0.090603
vt 0.972123 0.249322
vt 0.654873 0.074387
vt 0.654873 0.245204
vt 0.614407 0.243695
vt 0.587540 0.071820
vt 0.806104 0.373312
vt 0.806104 0.545880
vt 0.751878 0.520226
vt 0.752213 0.381923
vt 0.614233 0.846058
vt 0.614233 0.996698
vt 0.584472 0.959288
vt 0.974545 0.941487
vt 0.946733 0.960472
vt 0.944347 0.802272
vt 0.974545 0.783716
vt 0.972166 0.542726
vt 0.944282 0.561736
vt 0.941929 0.403506
vt 0.972166 0.384954
vt 0.083295 0.851246
vt 0.120734 0.821058
vt 0.120734 0.960294
vt 0.615249 0.343187
vt 0.453043 0.342329
vt 0.456554 0.303275
vt 0.615249 0.271566
vt 0.844479 0.515587
vt 0.857835 0.420976
vt 0.896527 0.416757
vt 0.896527 0.545413
vt 0.361713 0.053997
vt 0.362108 0.013215
vt 0.519313 0.001479
vt 0.519313 0.068291
vt 0.335144 0.816567
vt 0.335144 0.939076
vt 0.296475 0.910969
vt 0.303248 0.800510
vt 0.344054 0.689110
vt 0.344069 0.623849
vt 0.486378 0.621842
vt 0.486378 0.691194
vn -0.0044 0.1073 0.9942
vn 0.8558 0.1316 0.5002
vn -0.6284 0.0363 -0.7770
vn -0.9897 -0.0003 -0.1433
vn 0.6992 0.5505 0.4562
vn -0.7055 0.5391 0.4602
vn 0.3203 -0.3410 -0.8838
vn -0.3194 -0.3476 -0.8816
vn 0.0000 0.6190 0.7854
vn 0.9680 -0.2126 0.1334
vn 0.7803 0.3616 0.5102
vn 0.8326 0.4191 0.3622
vn 0.8345 0.4134 0.3642
vn 0.8340 0.4211 0.3567
vn -0.9488 -0.2806 0.1452
vn 0.7748 0.4284 -0.4650
vn -0.0112 0.2568 -0.9664
vn 0.3319 -0.2827 -0.9000
vn 0.0000 0.3781 -0.9258
vn 0.1502 -0.1699 0.9739
vn -0.8089 0.3509 -0.4717
vn -0.1508 -0.1658 0.9745
vn 0.8142 0.3319 -0.4763
vn 0.0112 0.3081 -0.9513
vn 0.6138 -0.1636 0.7724
vn -0.7805 0.4314 -0.4524
vn -0.7865 0.4127 0.4595
vn 0.0926 -0.0721 0.9931
vn -0.7106 0.4483 -0.5423
vn -0.6478 0.6964 0.3088
vn 0.5668 -0.5316 -0.6294
vn -0.0431 0.5418 0.8394
vn 0.8483 -0.5256 -0.0640
vn -0.7017 0.5384 -0.4666
vn -0.5930 -0.2189 0.7749
vn 0.8464 0.1935 -0.4961
vn 0.6336 -0.7728 -0.0370
vn 0.8207 0.2089 -0.5318
vn -0.8718 0.1655 -0.4610
vn 0.4780 -0.5617 0.6754
vn -0.6273 0.6945 0.3524
vn 0.8395 0.1068 0.5328
vn 0.7111 0.5699 0.4118
vn -0.8540 0.0926 -0.5119
vn -0.3176 -0.5944 -0.7388
vn 0.8619 0.1476 0.4851
vn -0.6653 0.6628 0.3435
vn -0.8231 -0.5623 -0.0798
vn 0.5419 -0.5411 -0.6431
vn 0.8231 -0.5623 0.0798
vn -0.7765 -0.6251 0.0796
vn 0.8178 -0.5715 -0.0675
vn -0.4111 -0.5025 0.7605
vn 0.8314 0.4163 0.3680
vn 0.8322 0.4088 0.3747
vn 0.8337 0.4108 0.3690
vn -0.3097 -0.5450 0.7792
vn 0.8540 0.0927 -0.5120
vn -0.0105 0.1384 -0.9903
vn -0.0104 0.1384 -0.9903
vn -0.0884 0.0962 -0.9914
vn -0.3346 -0.2507 -0.9084
vn -0.3349 -0.2509 -0.9082
vn 0.4230 -0.6952 -0.5812
vn -0.8642 0.1461 0.4815
vn -0.7323 0.4856 -0.4774
vn -0.7325 0.4857 -0.4769
vn -0.7340 0.4807 -0.4798
vn -0.7288 0.4917 -0.4765
vn -0.1134 -0.1789 0.9773
vn 0.0001 0.2797 0.9601
vn 0.0009 0.5437 0.8393
vn 0.0004 0.5436 0.8394
vn -0.8287 0.1918 0.5258
vn 0.0003 0.5455 -0.8381
vn 0.8695 0.1666 -0.4649
vn -0.4780 -0.5617 -0.6753
vn -0.8217 0.2099 0.5298
vn 0.6847 0.6060 -0.4049
vn 0.1135 -0.1789 0.9773
vn 0.0040 -0.0072 1.0000
vn -0.0502 0.2102 0.9764
vn 0.0494 0.2103 -0.9764
vn -0.7348 0.4751 -0.4841
vn -0.7359 0.4740 -0.4835
vn -0.7393 0.4736 -0.4787
vn 0.3176 -0.5944 -0.7388
vn 0.3097 -0.5449 0.7792
vn -0.7123 0.5697 -0.4100
vn -0.7121 0.5698 -0.4102
vn -0.0308 0.3762 0.9260
vn -0.0002 0.1575 -0.9875
g Plant_6_Plant_6_Collor_Material
usemtl Collor_Material
s off
f 4/1/1 1/2/1 2/3/1
f 5/4/2 1/5/2 4/6/2
f 6/7/3 8/8/3 1/9/3
f 1/10/4 8/11/4 2/12/4
f 12/13/5 11/14/5 15/15/5
f 14/16/6 13/17/6 15/18/6
f 11/19/7 10/20/7 15/21/7
f 10/22/8 14/23/8 15/24/8
f 13/25/9 12/26/9 15/27/9
f 60/28/10 51/29/10 59/30/10
f 32/31/11 33/32/11 31/33/11
f 35/34/12 34/35/13 32/36/14
f 35/37/15 28/38/15 26/39/15
f 32/40/16 30/41/16 35/42/16
f 28/43/17 35/44/17 30/45/17
f 11/46/18 21/47/18 23/48/18 10/49/18
f 46/50/19 47/51/19 44/52/19
f 49/53/20 45/54/20 44/55/20
f 47/56/21 48/57/21 44/58/21
f 48/59/22 49/60/22 44/61/22
f 45/62/23 46/63/23 44/64/23
f 60/65/24 59/66/24 57/67/24
f 60/68/25 53/69/25 51/70/25
f 57/71/26 55/72/26 60/73/26
f 53/74/27 60/75/27 55/76/27
f 63/77/28 65/78/28 56/79/28
f 67/80/29 68/81/29 66/82/29
f 72/83/30 73/84/30 70/85/30
f 75/86/31 71/87/31 70/88/31
f 73/89/32 74/90/32 70/91/32
f 74/92/33 75/93/33 70/94/33
f 71/95/34 72/96/34 70/97/34
f 35/98/35 26/99/35 34/100/35
f 5/101/36 6/102/36 1/103/36
f 64/104/37 63/105/37 61/106/37 62/107/37
f 5/108/38 19/109/38 7/110/38 6/111/38
f 40/112/39 31/113/39 38/114/39 39/115/39
f 53/116/40 52/117/40 50/118/40 51/119/40
f 67/120/41 66/121/41 56/122/41 65/123/41
f 12/124/42 20/125/42 21/126/42 11/127/42
f 29/128/43 19/129/43 5/130/43 4/131/43
f 47/132/44 40/133/44 39/134/44 48/135/44
f 24/136/45 17/137/45 16/138/45 23/139/45
f 20/140/46 66/141/46 22/142/46 21/143/46
f 72/144/47 67/145/47 65/146/47 73/147/47
f 9/148/48 3/149/48 2/150/48 8/151/48
f 71/152/49 75/153/49 62/154/49 69/155/49
f 50/156/50 58/157/50 59/158/50 51/159/50
f 28/160/51 27/161/51 25/162/51 26/163/51
f 74/164/52 64/165/52 62/166/52 75/167/52
f 25/168/53 33/169/53 34/170/53 26/171/53
f 32/172/54 34/173/55 33/174/56
f 38/175/57 36/176/57 37/177/57 39/178/57
f 46/179/58 45/180/58 43/181/58 41/182/58
f 27/183/59 28/184/60 30/185/61 29/186/61
f 14/187/62 10/188/62 23/189/63 16/190/62
f 61/191/64 68/192/64 69/193/64 62/194/64
f 17/195/65 19/196/65 18/197/65 16/198/65
f 72/199/66 71/200/67 69/201/68 67/202/69
f 49/203/70 48/204/70 39/205/70 37/206/70
f 13/207/71 18/208/71 20/209/71 12/210/71
f 18/211/72 19/212/72 66/213/72 20/214/73
f 13/215/74 14/216/74 16/217/74 18/218/74
f 54/219/75 31/220/75 40/221/75 41/222/75
f 42/223/76 54/224/76 41/225/76 43/226/76
f 6/227/77 7/228/77 9/229/77 8/230/77
f 55/231/78 54/232/78 52/233/78 53/234/78
f 32/235/79 31/236/79 29/237/79 30/238/79
f 49/239/80 37/240/80 43/241/80 45/242/80
f 63/243/81 64/244/81 65/245/81
f 3/246/82 29/247/82 4/248/82 2/249/82
f 58/250/83 56/251/83 57/252/83 59/253/83
f 67/254/84 69/255/85 68/256/86
f 21/257/87 22/258/87 24/259/87 23/260/87
f 37/261/88 36/262/88 42/263/88 43/264/88
f 56/265/89 54/266/90 55/267/90 57/268/90
f 73/269/91 65/270/91 64/271/91 74/272/91
f 47/273/92 46/274/92 41/275/92 40/276/92
