# Blender v3.0.0 OBJ File: 'aa.blend'
# www.blender.org
mtllib Plant_9.mtl
o Plant_9
v -0.037078 0.000000 0.010893
v -0.003930 -0.000000 -0.051226
v 0.024098 0.000000 0.045033
v 0.058811 -0.000000 -0.018099
v -0.041756 0.081923 0.027276
v -0.018253 0.082085 -0.017708
v 0.025056 0.081501 0.007942
v 0.002060 0.081987 0.051262
v -0.028367 0.156990 0.037892
v -0.000781 0.170447 -0.012910
v 0.037692 0.169441 0.018870
v 0.015854 0.156041 0.061265
v 0.010668 0.123197 0.057324
v -0.033626 0.124053 0.034022
v -0.009773 0.136644 -0.010753
v 0.031134 0.137106 0.016387
v 0.067942 0.211780 -0.131972
v 0.112080 0.211667 -0.108577
v 0.062943 0.179082 -0.135697
v 0.107285 0.178786 -0.112236
v 0.043384 0.197089 -0.085386
v 0.041507 0.164747 -0.093175
v 0.091268 0.170534 -0.089871
v 0.092800 0.202817 -0.081003
v -0.004789 0.224178 -0.169049
v 0.000181 0.256923 -0.165322
v -0.020111 0.245471 -0.130439
v -0.025024 0.212724 -0.134285
v 0.017765 0.209002 -0.157999
v 0.022731 0.241737 -0.154277
v 0.002135 0.230426 -0.118837
v -0.001996 0.197748 -0.123560
v 0.009937 0.224896 -0.197635
v 0.014907 0.257641 -0.193908
v 0.032526 0.209790 -0.186537
v 0.037496 0.242535 -0.182810
v 0.056630 0.323059 -0.139388
v 0.072353 0.312544 -0.131663
v 0.066880 0.323559 -0.159285
v 0.082602 0.313044 -0.151560
v -0.139356 0.183825 -0.030316
v -0.137068 0.189659 -0.076952
v -0.141978 0.156899 -0.080648
v -0.144326 0.151073 -0.034045
v -0.098245 0.152442 -0.056235
v -0.092742 0.185087 -0.053874
v -0.116945 0.181528 -0.009771
v -0.121914 0.148775 -0.013506
v -0.097855 0.159234 -0.162577
v -0.090690 0.191772 -0.159170
v -0.054216 0.152666 -0.138928
v -0.049399 0.184732 -0.133071
v -0.111431 0.191714 -0.126348
v -0.116708 0.158408 -0.128064
v -0.072865 0.152026 -0.104755
v -0.069702 0.184894 -0.100395
v -0.068680 0.313834 -0.134888
v -0.042690 0.310345 -0.117061
v -0.080782 0.313110 -0.112683
v -0.055758 0.309785 -0.097125
v -0.060654 0.264893 -0.071542
v -0.096279 0.272864 -0.106315
v -0.069512 0.268209 -0.132770
v -0.035131 0.260286 -0.099966
v -0.163602 0.315327 -0.161415
v -0.155664 0.315876 -0.176352
v -0.167326 0.298361 -0.161559
v -0.158506 0.298145 -0.178161
v -0.057135 0.091374 0.094581
v -0.100987 0.092541 0.070388
v -0.090798 0.133157 0.077231
v -0.047011 0.132030 0.101344
v -0.090765 0.155885 0.223735
v -0.133647 0.157334 0.200001
v -0.124798 0.198530 0.206123
v -0.080718 0.196541 0.231240
v -0.072592 0.131314 0.185680
v -0.117012 0.136361 0.161913
v -0.101712 0.175867 0.169320
v -0.058058 0.171161 0.191629
v -0.207767 0.215896 0.146876
v -0.216219 0.174759 0.140532
v -0.187541 0.192471 0.108741
v -0.196219 0.151292 0.102901
v -0.157070 0.203062 0.162592
v -0.166965 0.162163 0.157064
v -0.132507 0.178336 0.127840
v -0.143501 0.137406 0.122783
v -0.256272 0.215740 0.213773
v -0.264734 0.174615 0.207427
v -0.231855 0.210274 0.231476
v -0.240326 0.169103 0.225124
v -0.220729 0.168980 0.197988
v -0.245012 0.174929 0.180375
v -0.236557 0.216046 0.186720
v -0.212226 0.210149 0.204381
v -0.217167 0.286598 0.235397
v -0.233181 0.290183 0.223786
v -0.220283 0.290244 0.206024
v -0.204269 0.286659 0.217635
v 0.098832 0.076450 0.051468
v 0.081867 0.077757 0.082267
v 0.110865 0.113156 0.059331
v 0.092791 0.104550 0.088326
v 0.167070 0.099039 0.129460
v 0.152213 0.098311 0.160398
v 0.185913 0.136246 0.148186
v 0.168817 0.126814 0.178218
v 0.117137 0.090055 0.141932
v 0.121223 0.118462 0.143248
v 0.133211 0.089674 0.111646
v 0.137806 0.128062 0.112789
v 0.213285 0.217495 0.213114
v 0.197046 0.207496 0.243496
v 0.174046 0.197399 0.208486
v 0.190252 0.207409 0.178083
v 0.140157 0.309659 0.220220
v 0.123992 0.299614 0.250631
v 0.104079 0.290249 0.212017
v 0.120244 0.300294 0.181607
vt 0.957709 0.318472
vt 0.920450 0.271367
vt 0.957709 0.230560
vt 0.968110 0.807405
vt 0.968110 0.872932
vt 0.920826 0.839250
vt 0.819632 0.389069
vt 0.781765 0.281602
vt 0.819632 0.230560
vt 0.628109 0.511460
vt 0.681593 0.411401
vt 0.681593 0.581230
vt 0.638011 0.948994
vt 0.638011 0.998116
vt 0.597461 0.983036
vt 0.597460 0.933914
vt 0.356033 0.598797
vt 0.410289 0.582292
vt 0.410289 0.708341
vt 0.355305 0.722178
vt 0.502366 0.428619
vt 0.571252 0.411401
vt 0.571252 0.534784
vt 0.500536 0.551812
vt 0.855851 0.616096
vt 0.917790 0.584997
vt 0.917790 0.659109
vt 0.845597 0.659843
vt 0.719027 0.584997
vt 0.764101 0.585044
vt 0.764101 0.657497
vt 0.688706 0.680385
vt 0.262229 0.953312
vt 0.209545 0.949894
vt 0.212401 0.894710
vt 0.262229 0.885930
vt 0.279131 0.774572
vt 0.209545 0.790001
vt 0.215828 0.720623
vt 0.279131 0.694156
vt 0.541606 0.259513
vt 0.567844 0.263888
vt 0.567844 0.405941
vt 0.500536 0.407634
vt 0.175865 0.827247
vt 0.162799 0.694156
vt 0.205778 0.698994
vt 0.205778 0.830717
vt 0.814170 0.889949
vt 0.814170 0.962687
vt 0.765752 0.958923
vt 0.765045 0.885135
vt 0.199451 0.887416
vt 0.199451 0.956768
vt 0.150333 0.955829
vt 0.150326 0.886520
vt 0.888916 0.021968
vt 0.888916 0.098196
vt 0.828572 0.078794
vt 0.827332 0.009143
vt 0.596295 0.242585
vt 0.596153 0.072548
vt 0.648997 0.077070
vt 0.648997 0.246899
vt 0.057601 0.774980
vt 0.133107 0.759677
vt 0.133107 0.841699
vt 0.058351 0.838992
vt 0.057658 0.948163
vt 0.057601 0.886520
vt 0.105254 0.898486
vt 0.105254 0.960314
vt 0.469726 0.036250
vt 0.470622 0.010664
vt 0.608205 0.001884
vt 0.608205 0.066135
vt 0.895437 0.961273
vt 0.895456 0.884759
vt 0.944371 0.884469
vt 0.944371 0.965174
vt 0.655448 0.380473
vt 0.652764 0.230560
vt 0.704351 0.233167
vt 0.704351 0.381622
vt 0.433413 0.787060
vt 0.495163 0.777078
vt 0.495163 0.857494
vt 0.433164 0.867206
vt 0.571170 0.710202
vt 0.571170 0.790348
vt 0.501905 0.769901
vt 0.500536 0.693685
vt 0.007858 0.223926
vt 0.074085 0.190921
vt 0.074085 0.377492
vt 0.001884 0.372752
vt 0.915021 0.082305
vt 0.892683 0.009143
vt 0.949365 0.010998
vt 0.949365 0.089753
vt 0.963165 0.472326
vt 0.915174 0.483828
vt 0.916460 0.413337
vt 0.963165 0.399317
vt 0.711312 0.085667
vt 0.782470 0.072548
vt 0.782470 0.155925
vt 0.709213 0.167662
vt 0.127003 0.016021
vt 0.197896 0.001884
vt 0.197896 0.127347
vt 0.093624 0.147410
vt 0.344202 0.890353
vt 0.282898 0.903767
vt 0.283565 0.831502
vt 0.344202 0.815521
vt 0.929532 0.174198
vt 0.928962 0.117501
vt 0.977977 0.120211
vt 0.977977 0.177597
vt 0.714886 0.859794
vt 0.691579 0.784568
vt 0.761278 0.798123
vt 0.761278 0.865452
vt 0.333780 0.067695
vt 0.328623 0.016022
vt 0.465959 0.001884
vt 0.465959 0.072386
vt 0.053834 0.679969
vt 0.001884 0.689785
vt 0.001958 0.531267
vt 0.053834 0.521460
vt 0.819906 0.699648
vt 0.819906 0.803637
vt 0.769369 0.774972
vt 0.765045 0.684152
vt 0.520693 0.565192
vt 0.563190 0.555579
vt 0.563190 0.687841
vt 0.500536 0.689918
vt 0.106421 0.526769
vt 0.106421 0.675715
vt 0.060259 0.652542
vt 0.057601 0.521460
vt 0.248386 0.146313
vt 0.201663 0.147410
vt 0.204691 0.110245
vt 0.248386 0.111171
vt 0.433191 0.871439
vt 0.495760 0.870973
vt 0.495760 0.943422
vt 0.433164 0.943892
vt 0.558511 0.871543
vt 0.558511 0.945335
vt 0.501126 0.945293
vt 0.500536 0.871510
vt 0.433167 0.947958
vt 0.480532 0.947659
vt 0.480532 0.996766
vt 0.433164 0.997080
vt 0.927868 0.759330
vt 0.975662 0.747361
vt 0.975662 0.798636
vt 0.926358 0.801633
vt 0.738662 0.520394
vt 0.738567 0.411401
vt 0.801196 0.414134
vt 0.801196 0.521864
vt 0.963912 0.561327
vt 0.915174 0.569923
vt 0.915309 0.496147
vt 0.963912 0.487595
vt 0.355613 0.857783
vt 0.355305 0.777078
vt 0.429397 0.778752
vt 0.429397 0.857972
vt 0.993964 0.058276
vt 0.953132 0.073162
vt 0.953532 0.024121
vt 0.993964 0.009143
vt 0.592386 0.246266
vt 0.539843 0.252174
vt 0.539861 0.078574
vt 0.592386 0.072548
vt 0.201739 0.340570
vt 0.199087 0.266285
vt 0.351537 0.259513
vt 0.351537 0.346994
vt 0.355408 0.765544
vt 0.355305 0.732548
vt 0.486862 0.725945
vt 0.486862 0.773311
vt 0.477472 0.082028
vt 0.477472 0.255746
vt 0.414234 0.249421
vt 0.412098 0.077926
vt 0.496769 0.433113
vt 0.431392 0.437191
vt 0.433572 0.265775
vt 0.496769 0.259513
vt 0.014947 0.697003
vt 0.044862 0.693552
vt 0.044862 0.825235
vt 0.001884 0.830194
vt 0.911407 0.580783
vt 0.862074 0.581179
vt 0.862094 0.518509
vt 0.911407 0.518129
vt 0.351282 0.352723
vt 0.351282 0.424920
vt 0.202854 0.427710
vt 0.199087 0.350761
vt 0.360735 0.403970
vt 0.355305 0.272974
vt 0.427625 0.259513
vt 0.427625 0.434682
vt 0.926734 0.742126
vt 0.926358 0.684152
vt 0.976073 0.686369
vt 0.976073 0.743594
vt 0.881779 0.399450
vt 0.911407 0.399317
vt 0.911407 0.514361
vt 0.866254 0.513917
vt 0.600319 0.880464
vt 0.679539 0.880540
vt 0.679539 0.929666
vt 0.597460 0.930147
vt 0.209766 0.882117
vt 0.209545 0.793768
vt 0.272385 0.796638
vt 0.272385 0.882163
vt 0.169949 0.299360
vt 0.194889 0.298930
vt 0.194889 0.325530
vt 0.167189 0.324813
vt 0.075338 0.392491
vt 0.075338 0.517693
vt 0.002957 0.507305
vt 0.001884 0.381259
vt 0.575212 0.696522
vt 0.575019 0.604422
vt 0.620877 0.621992
vt 0.620877 0.714409
vt 0.155274 0.724749
vt 0.057601 0.755910
vt 0.082824 0.679482
vt 0.155274 0.679593
vt 0.639044 0.289239
vt 0.639044 0.396968
vt 0.572089 0.365983
vt 0.571611 0.259513
vt 0.776563 0.851953
vt 0.765045 0.808517
vt 0.839369 0.807405
vt 0.839369 0.881368
vt 0.917059 0.880701
vt 0.843136 0.879180
vt 0.849378 0.837312
vt 0.917059 0.807405
vt 0.629733 0.708193
vt 0.628109 0.584997
vt 0.684939 0.591704
vt 0.684939 0.716906
vt 0.921558 0.656574
vt 0.921557 0.593990
vt 0.966615 0.597188
vt 0.966615 0.659843
vt 0.700686 0.689482
vt 0.761278 0.684152
vt 0.761278 0.770515
vt 0.688706 0.780801
vt 0.685736 0.563608
vt 0.685360 0.411401
vt 0.734800 0.413648
vt 0.734800 0.566249
vt 0.210880 0.445419
vt 0.336578 0.431477
vt 0.336578 0.514854
vt 0.199087 0.502310
vt 0.768953 0.590983
vt 0.841830 0.584997
vt 0.841830 0.667077
vt 0.767868 0.667489
vt 0.875323 0.129844
vt 0.875323 0.220768
vt 0.828441 0.198434
vt 0.828462 0.105005
vt 0.422278 0.547443
vt 0.355305 0.578525
vt 0.355489 0.469422
vt 0.422278 0.438450
vt 0.048396 0.931142
vt 0.048396 0.992785
vt 0.005293 0.989203
vt 0.005022 0.928379
vt 0.581116 0.867743
vt 0.500536 0.867522
vt 0.530198 0.800160
vt 0.581116 0.794115
vt 0.199964 0.533469
vt 0.325432 0.518621
vt 0.325432 0.590910
vt 0.199087 0.585323
vt 0.282898 0.809848
vt 0.282990 0.709758
vt 0.345539 0.709230
vt 0.345539 0.811754
vt 0.867741 0.334550
vt 0.824798 0.361195
vt 0.823399 0.257455
vt 0.867741 0.230560
vt 0.481240 0.104341
vt 0.536076 0.072548
vt 0.536076 0.223025
vt 0.482784 0.255746
vt 0.925195 0.203864
vt 0.879090 0.220768
vt 0.879116 0.134338
vt 0.925195 0.117501
vt 0.121971 0.280479
vt 0.093624 0.151177
vt 0.195320 0.171837
vt 0.195320 0.295163
vt 0.808028 0.483272
vt 0.804963 0.411401
vt 0.862486 0.437401
vt 0.862486 0.514361
vt 0.496769 0.703112
vt 0.426557 0.720723
vt 0.428863 0.640273
vt 0.496769 0.614763
vt 0.611972 0.009997
vt 0.745555 0.001884
vt 0.745555 0.049289
vt 0.611972 0.042993
vt 0.717888 0.869219
vt 0.761278 0.874456
vt 0.761278 0.938708
vt 0.686972 0.939188
vt 0.777998 0.246629
vt 0.777998 0.332155
vt 0.710480 0.309317
vt 0.708118 0.230560
vt 0.408331 0.104334
vt 0.408331 0.255746
vt 0.337531 0.234795
vt 0.335886 0.086441
vt 0.843406 0.958096
vt 0.843136 0.884469
vt 0.891670 0.892951
vt 0.891670 0.966890
vt 0.709213 0.211645
vt 0.709426 0.179293
vt 0.824673 0.171429
vt 0.824673 0.220768
vt 0.284256 0.596368
vt 0.346769 0.594677
vt 0.346769 0.701147
vt 0.282898 0.705463
vt 0.978306 0.226535
vt 0.928962 0.226497
vt 0.928972 0.181422
vt 0.978306 0.181364
vt 0.543799 0.996507
vt 0.500536 0.996715
vt 0.500548 0.949347
vt 0.543799 0.949102
vt 0.713875 0.992078
vt 0.713874 0.942955
vt 0.761278 0.943391
vt 0.761278 0.992513
vt 0.293632 0.909143
vt 0.344202 0.907534
vt 0.344202 0.967211
vt 0.293664 0.967196
vt 0.163422 0.449407
vt 0.093624 0.469333
vt 0.093907 0.323394
vt 0.163422 0.298930
vt 0.920454 0.322506
vt 0.969792 0.322239
vt 0.969792 0.384810
vt 0.920450 0.385090
vt 0.887055 0.345332
vt 0.871508 0.230560
vt 0.916683 0.230767
vt 0.916683 0.345468
vt 0.738567 0.565585
vt 0.738781 0.533231
vt 0.853230 0.525631
vt 0.853230 0.574945
vt 0.163422 0.476974
vt 0.163422 0.648482
vt 0.110691 0.644530
vt 0.110689 0.473100
vt 0.641778 0.948552
vt 0.681510 0.933914
vt 0.681510 0.993590
vt 0.672276 0.799737
vt 0.672276 0.876697
vt 0.599967 0.870349
vt 0.597460 0.798173
vt 0.216658 0.685409
vt 0.199087 0.594677
vt 0.279131 0.603958
vt 0.279131 0.690388
vt 0.399964 0.945113
vt 0.399964 0.994246
vt 0.355309 0.989263
vt 0.355305 0.940128
vt 0.705446 0.073084
vt 0.705446 0.226793
vt 0.652764 0.208129
vt 0.677741 0.072548
vt 0.057601 0.875153
vt 0.057864 0.850211
vt 0.199451 0.845466
vt 0.199451 0.882753
vt 0.624342 0.597972
vt 0.575019 0.600655
vt 0.577662 0.425506
vt 0.624342 0.411401
vt 0.708118 0.396331
vt 0.773273 0.335922
vt 0.773273 0.403304
vt 0.048396 0.859108
vt 0.048396 0.924611
vt 0.001884 0.899465
vt 0.001884 0.833961
vt 0.878264 0.755855
vt 0.824087 0.787213
vt 0.823673 0.714827
vt 0.878264 0.684152
vt 0.001884 0.143169
vt 0.047163 0.001884
vt 0.089857 0.047599
vt 0.047163 0.187154
vt 0.201688 0.081249
vt 0.201663 0.007627
vt 0.324856 0.001884
vt 0.324856 0.105138
vt 0.948348 0.888738
vt 0.991254 0.884469
vt 0.991254 0.947140
vt 0.948138 0.950566
vt 0.442117 0.511013
vt 0.496769 0.440958
vt 0.496769 0.610995
vt 0.823565 0.009143
vt 0.823565 0.167662
vt 0.786237 0.116283
vt 0.922591 0.787901
vt 0.882031 0.800059
vt 0.885301 0.706687
vt 0.922591 0.684152
vt 0.358647 0.863498
vt 0.427238 0.861739
vt 0.427238 0.936361
vt 0.355305 0.935689
vt 0.684939 0.720673
vt 0.684939 0.794406
vt 0.611938 0.793288
vt 0.597460 0.721164
vt 0.199087 0.177251
vt 0.332118 0.151177
vt 0.332118 0.255746
vt 0.199816 0.251439
vt 0.252153 0.147265
vt 0.252153 0.114269
vt 0.282266 0.114414
vt 0.282266 0.147410
vt 0.286033 0.147404
vt 0.286033 0.115050
vt 0.315661 0.115056
vt 0.315661 0.147410
vn -0.5623 -0.1774 0.8077
vn 0.4719 -0.0303 -0.8811
vn 0.7931 0.1942 -0.5774
vn -0.5298 -0.3008 0.7930
vn 0.4577 0.0317 -0.8885
vn 0.7387 -0.3420 0.5808
vn 0.6257 0.1535 -0.7648
vn -0.0246 -0.9934 -0.1125
vn -0.0248 -0.9933 -0.1128
vn -0.1932 -0.9746 -0.1132
vn 0.7589 -0.5771 0.3016
vn -0.4621 -0.8427 0.2764
vn -0.4621 -0.8428 0.2760
vn 0.4380 -0.0298 -0.8985
vn -0.4325 0.0152 0.9015
vn -0.4317 0.0148 0.9019
vn -0.4326 0.0153 0.9015
vn 0.5087 0.0291 -0.8605
vn -0.9879 0.1524 -0.0301
vn -0.9879 0.1520 -0.0298
vn 0.7994 -0.1721 -0.5756
vn -0.7384 0.6472 -0.1893
vn -0.8765 0.2118 -0.4323
vn -0.8762 0.2124 -0.4327
vn -0.8747 0.1838 -0.4485
vn -0.5081 0.2600 0.8211
vn 0.8788 -0.1623 0.4488
vn 0.4182 -0.0885 -0.9040
vn -0.7883 0.0937 0.6081
vn -0.7885 0.0935 0.6079
vn 0.4509 0.8525 -0.2643
vn 0.1433 -0.9627 -0.2293
vn 0.7610 0.2836 0.5835
vn 0.8985 -0.2004 0.3905
vn 0.5305 0.0482 -0.8463
vn 0.8616 0.2009 0.4662
vn 0.8616 0.2008 0.4662
vn 0.8616 0.2010 0.4662
vn -0.4905 -0.0318 0.8709
vn 0.8501 -0.1822 0.4940
vn 0.6262 -0.1109 -0.7717
vn 0.0866 0.9334 0.3482
vn 0.8127 -0.5082 0.2850
vn 0.8854 -0.1430 -0.4424
vn -0.3644 -0.0610 0.9292
vn -0.3647 -0.0614 0.9291
vn -0.3643 -0.0607 0.9293
vn -0.8646 0.1819 -0.4684
vn 0.0812 0.9936 0.0791
vn 0.0812 0.9936 0.0787
vn -0.7846 0.2489 -0.5679
vn -0.7847 0.2484 -0.5680
vn -0.1047 -0.9914 -0.0783
vn 0.8751 -0.1837 0.4477
vn 0.8313 -0.1817 0.5253
vn 0.5540 -0.2511 0.7937
vn -0.4667 -0.0308 0.8839
vn -0.4669 -0.0311 0.8838
vn -0.0908 -0.9941 -0.0592
vn -0.4686 -0.0507 0.8820
vn 0.6839 0.5015 0.5299
vn 0.6841 0.5016 0.5295
vn 0.6836 0.5015 0.5303
vn 0.0986 0.9688 0.2275
vn 0.7106 -0.6100 0.3507
vn 0.6578 0.5391 -0.5260
vn -0.6579 -0.5390 0.5260
vn 0.4816 0.0788 -0.8729
vn 0.7841 -0.2496 0.5683
vn 0.7843 -0.2501 0.5677
vn -0.0989 -0.9673 -0.2334
vn -0.1525 0.9573 0.2456
vn -0.8460 0.1984 -0.4949
vn 0.5969 0.0764 -0.7987
vn 0.5972 0.0765 -0.7984
vn -0.8745 0.1720 -0.4535
vn 0.3492 0.0406 -0.9362
vn -0.8678 0.1901 -0.4591
vn -0.6278 -0.1381 0.7660
vn -0.6420 -0.0872 0.7617
vn 0.1933 0.9747 0.1124
vn 0.1937 0.9746 0.1124
vn 0.0773 0.9918 -0.1022
vn 0.0770 0.9918 -0.1022
vn 0.0294 0.9933 0.1114
vn 0.1294 -0.9573 -0.2586
vn -0.7196 0.3437 -0.6034
vn -0.5876 -0.0040 0.8092
vn -0.3188 -0.8320 -0.4540
vn -0.3199 -0.8359 -0.4461
vn -0.3233 -0.8329 -0.4491
vn -0.3234 -0.8325 -0.4499
vn -0.4796 -0.0269 0.8771
vn 0.4979 0.0552 -0.8655
vn 0.0935 0.9934 0.0667
vn -0.4635 0.8861 0.0012
vn -0.0789 -0.9895 0.1209
vn -0.3264 -0.8261 -0.4593
vn -0.3266 -0.8258 -0.4597
vn -0.3312 -0.8263 -0.4556
vn -0.3302 -0.8223 -0.4634
vn -0.1266 0.9646 0.2314
vn -0.0571 -0.9983 -0.0066
vn 0.5670 -0.2409 0.7877
vn 0.5671 -0.2415 0.7874
vn 0.5673 -0.2421 0.7871
vn 0.1619 -0.9801 0.1146
vn -0.8959 0.3366 -0.2901
vn 0.4589 0.0312 -0.8880
vn 0.4577 0.0262 -0.8887
vn 0.4543 0.0312 -0.8903
vn -0.8833 0.0398 -0.4671
vn -0.8833 0.0395 -0.4672
vn -0.8830 0.0395 -0.4677
vn 0.7355 -0.3240 0.5951
vn 0.3408 0.8671 -0.3634
vn -0.6549 0.6845 -0.3202
vn -0.5376 0.4061 0.7390
vn -0.5374 0.4058 0.7393
vn -0.3537 -0.8616 0.3640
vn -0.2612 -0.8937 0.3649
vn 0.4724 0.0292 -0.8809
vn 0.4679 0.0296 -0.8833
vn 0.4664 0.0345 -0.8839
vn -0.7690 0.3135 -0.5571
vn -0.5484 0.2523 -0.7972
vn -0.1498 -0.9823 -0.1122
vn -0.4495 -0.8562 -0.2546
vn -0.8757 0.1837 -0.4465
vn 0.1992 -0.9753 0.0951
vn 0.2560 0.8931 -0.3700
vn -0.7840 0.2490 -0.5686
vn -0.5755 0.0689 0.8149
vn 0.7958 -0.1828 0.5773
vn -0.6869 -0.4976 -0.5297
vn -0.4706 0.0268 0.8819
vn 0.2765 0.8795 -0.3874
vn 0.3252 0.8351 0.4437
vn -0.6746 0.0183 0.7380
vn -0.2633 -0.9585 -0.1092
vn 0.0053 0.9993 0.0371
vn 0.8820 -0.1864 0.4327
vn 0.5758 0.1157 -0.8093
vn -0.4796 0.8768 0.0347
vn -0.7840 0.2474 -0.5694
vn -0.7838 0.2472 -0.5697
vn 0.9071 -0.3209 0.2724
vn -0.4750 -0.1946 0.8582
vn -0.4750 -0.1947 0.8582
vn -0.4753 -0.1949 0.8580
vn 0.3267 0.8269 0.4576
vn 0.3269 0.8267 0.4580
vn 0.5316 0.3003 -0.7920
vn -0.7950 -0.1884 0.5766
vn -0.8767 0.1787 0.4465
vn -0.2801 -0.8748 0.3952
vn -0.1207 0.9691 0.2153
vn 0.4424 0.4167 -0.7941
vn 0.4489 0.8571 0.2528
vn 0.1427 0.9840 0.1070
g Plant_9_Plant_9_Collor_Material
usemtl Collor_Material
s off
f 110/1/1 106/2/1 108/3/1
f 112/4/2 105/5/2 111/6/2
f 107/7/3 116/8/3 113/9/3
f 108/10/4 115/11/4 110/12/4
f 33/13/5 34/14/5 36/15/5 35/16/5
f 64/17/6 61/18/6 56/19/6 52/20/6
f 63/21/7 64/22/7 52/23/7 50/24/7
f 44/25/8 43/26/9 45/27/9 48/28/9
f 93/29/10 94/30/10 82/31/10 86/32/10
f 107/33/11 108/34/11 106/35/11 105/36/11
f 86/37/12 88/38/12 78/39/13 74/40/12
f 68/41/14 66/42/14 57/43/14 63/44/14
f 37/45/15 26/46/16 30/47/16 38/48/17
f 50/49/18 52/50/18 51/51/18 49/52/18
f 41/53/19 42/54/19 43/55/20 44/56/19
f 87/57/21 79/58/21 78/59/21 88/60/21
f 116/61/22 112/62/22 110/63/22 115/64/22
f 14/65/23 15/66/23 6/67/24 5/68/23
f 25/69/25 28/70/25 27/71/25 26/72/25
f 65/73/26 67/74/26 62/75/26 59/76/26
f 56/77/27 46/78/27 45/79/27 55/80/27
f 46/81/28 10/82/28 15/83/28 45/84/28
f 85/85/29 86/86/29 74/87/30 75/88/29
f 85/89/31 75/90/31 79/91/31 87/92/31
f 22/93/32 23/94/32 16/95/32 15/96/32
f 60/97/33 61/98/33 64/99/33 58/100/33
f 12/101/34 13/102/34 16/103/34 11/104/34
f 15/105/35 16/106/35 7/107/35 6/108/35
f 7/109/36 8/110/37 3/111/38 4/112/37
f 75/113/39 74/114/39 73/115/39 76/116/39
f 52/117/40 56/118/40 55/119/40 51/120/40
f 58/121/41 64/122/41 63/123/41 57/124/41
f 104/125/42 103/126/42 16/127/42 13/128/42
f 113/129/43 114/130/43 108/131/43 107/132/43
f 111/133/44 101/134/44 103/135/44 112/136/44
f 102/137/45 104/138/46 13/139/45 8/140/47
f 22/141/48 15/142/48 10/143/48 21/144/48
f 58/145/49 57/146/50 59/147/50 60/148/50
f 94/149/51 95/150/51 81/151/52 82/152/51
f 49/153/53 51/154/53 55/155/53 54/156/53
f 36/157/54 30/158/54 29/159/54 35/160/54
f 20/161/55 18/162/55 24/163/55 23/164/55
f 69/165/56 8/166/56 13/167/56 72/168/56
f 9/169/57 14/170/57 13/171/58 12/172/57
f 55/173/59 45/174/59 43/175/59 54/176/59
f 28/177/60 32/178/60 31/179/60 27/180/60
f 117/181/61 118/182/62 114/183/63 113/184/63
f 46/185/64 47/186/64 9/187/64 10/188/64
f 40/189/65 38/190/65 30/191/65 36/192/65
f 117/193/66 113/194/66 116/195/66 120/196/66
f 118/197/67 119/198/67 115/199/67 114/200/67
f 39/201/68 40/202/68 36/203/68 34/204/68
f 92/205/69 93/206/70 96/207/69 91/208/69
f 48/209/71 45/210/71 15/211/71 14/212/71
f 21/213/72 10/214/72 11/215/72 24/216/72
f 49/217/73 54/218/73 53/219/73 50/220/73
f 99/221/74 100/222/75 96/223/75 95/224/75
f 54/225/76 43/226/76 42/227/76 53/228/76
f 83/229/77 87/230/77 88/231/77 84/232/77
f 65/233/78 66/234/78 68/235/78 67/236/78
f 62/237/79 53/238/79 56/239/79 61/240/79
f 32/241/80 22/242/80 21/243/80 31/244/80
f 96/245/81 85/246/81 81/247/82 95/248/81
f 72/249/83 13/250/83 14/251/84 71/252/83
f 41/253/85 47/254/85 46/255/85 42/256/85
f 19/257/86 20/258/86 23/259/86 22/260/86
f 63/261/87 50/262/87 53/263/87 62/264/87
f 89/265/88 90/266/88 92/267/88 91/268/88
f 32/269/89 29/270/90 19/271/91 22/272/92
f 48/273/93 14/274/93 9/275/93 47/276/93
f 101/277/94 7/278/94 16/279/94 103/280/94
f 56/281/95 53/282/95 42/283/95 46/284/95
f 112/285/96 103/286/96 104/287/96 110/288/96
f 69/289/97 70/290/97 5/291/97 8/292/97
f 28/293/98 25/294/99 29/295/100 32/296/101
f 17/297/102 21/298/102 24/299/102 18/300/102
f 102/301/103 8/302/103 7/303/103 101/304/103
f 93/305/104 86/306/105 85/307/106 96/308/105
f 111/309/107 109/310/107 102/311/107 101/312/107
f 78/313/108 79/314/108 71/315/108 70/316/108
f 29/317/109 30/318/109 17/319/110 19/320/111
f 6/321/112 2/322/113 1/323/114 5/324/112
f 73/325/115 77/326/115 80/327/115 76/328/115
f 83/329/116 81/330/116 85/331/116 87/332/116
f 39/333/117 34/334/117 26/335/117 37/336/117
f 60/337/118 59/338/118 62/339/119 61/340/118
f 84/341/120 88/342/120 86/343/120 82/344/120
f 78/345/121 70/346/121 69/347/121 77/348/121
f 17/349/122 18/350/123 20/351/123 19/352/124
f 98/353/125 99/354/125 95/355/125 89/356/125
f 70/357/126 71/358/126 14/359/126 5/360/126
f 90/361/127 94/362/127 93/363/127 92/364/127
f 33/365/128 35/366/128 29/367/128 25/368/128
f 34/369/129 33/370/129 25/371/129 26/372/129
f 105/373/130 106/374/130 109/375/130 111/376/130
f 79/377/131 80/378/131 72/379/131 71/380/131
f 89/381/132 95/382/132 94/383/132 90/384/132
f 98/385/133 89/386/133 91/387/133 97/388/133
f 100/389/134 97/390/134 91/391/134 96/392/134
f 120/393/135 116/394/135 115/395/135 119/396/135
f 110/397/136 109/398/136 106/399/136
f 76/400/137 80/401/137 79/402/137 75/403/137
f 31/404/138 21/405/138 17/406/138 30/407/138
f 41/408/139 44/409/139 48/410/139 47/411/139
f 68/412/140 63/413/140 62/414/140 67/415/140
f 66/416/141 65/417/141 59/418/141 57/419/141
f 23/420/142 24/421/142 11/422/142 16/423/142
f 112/424/143 107/425/143 105/426/143
f 117/427/144 120/428/144 119/429/144 118/430/144
f 82/431/145 81/432/146 83/433/145 84/434/145
f 77/435/147 69/436/147 72/437/147 80/438/147
f 8/439/148 5/440/149 1/441/150 3/442/148
f 27/443/151 31/444/151 30/445/152 26/446/151
f 107/447/153 112/448/153 116/449/153
f 108/450/154 114/451/154 115/452/154
f 109/453/155 110/454/155 104/455/155 102/456/155
f 74/457/156 78/458/156 77/459/156 73/460/156
f 9/461/157 12/462/157 11/463/157 10/464/157
f 7/465/158 4/466/158 2/467/158 6/468/158
f 39/469/159 37/470/159 38/471/159 40/472/159
f 97/473/160 100/474/160 99/475/160 98/476/160
