# Blender v3.0.0 OBJ File: 'aa.blend'
# www.blender.org
mtllib Plant_5.mtl
o Plant_5
v -0.336074 0.137234 -0.106725
v -0.295456 0.188044 -0.051101
v -0.238821 0.212955 -0.006034
v -0.064796 0.111974 0.040226
v -0.032742 0.094006 -0.054665
v -0.075755 0.144168 -0.092304
v -0.131923 0.173478 -0.120357
v -0.197865 0.190044 -0.131058
v -0.270572 0.173602 -0.128499
v -0.044375 0.113893 -0.006348
v -0.093350 0.173346 -0.026101
v -0.150596 0.205227 -0.046535
v -0.213977 0.215528 -0.067942
v -0.282356 0.187216 -0.090131
v -0.175445 0.200537 0.025516
v -0.051683 0.224715 -0.269854
v -0.075646 0.246613 -0.218242
v -0.085036 0.249333 -0.161504
v -0.043411 0.127325 -0.034178
v 0.033890 0.131780 -0.048884
v 0.039192 0.197232 -0.088115
v 0.016063 0.255385 -0.182020
v -0.017731 0.247271 -0.235824
v -0.004347 0.137476 -0.037438
v -0.013346 0.206872 -0.072855
v -0.023318 0.242408 -0.117514
v -0.034043 0.262321 -0.167386
v -0.044379 0.253367 -0.223821
v -0.081554 0.225125 -0.107180
v 0.024367 0.201331 0.401536
v 0.041499 0.244355 0.332086
v 0.048770 0.259928 0.252652
v 0.043616 0.196479 0.116861
v 0.034950 0.115302 0.069458
v -0.037342 0.095776 0.072788
v -0.059634 0.180928 0.186609
v -0.044629 0.211484 0.263033
v -0.017046 0.214262 0.334929
v -0.003502 0.123269 0.065909
v -0.009522 0.184157 0.112476
v -0.007877 0.224387 0.175351
v -0.001736 0.246462 0.248353
v 0.010406 0.235033 0.331885
v 0.115517 0.188221 -0.089686
v 0.243369 0.177262 -0.070628
v 0.188177 0.200497 -0.049654
v 0.136630 0.191998 -0.030796
v 0.089341 0.165877 -0.014473
v 0.048379 0.115896 -0.001994
v 0.255207 0.165685 -0.040118
v 0.210129 0.178979 -0.001364
v 0.162640 0.166263 0.026256
v 0.112193 0.141977 0.037020
v 0.065481 0.099597 0.034835
v 0.035997 0.114893 -0.041968
v 0.071929 0.163061 -0.069584
v 0.172240 0.199263 -0.102097
v 0.237458 0.174004 -0.100879
v 0.286260 0.136214 -0.087583
v -0.141800 0.176890 -0.122528
v -0.262031 0.174960 -0.128371
v -0.244000 0.212763 -0.010067
v -0.124930 0.173566 0.038200
v -0.013274 0.249697 -0.231108
v -0.084476 0.250372 -0.167309
v 0.032357 0.237013 -0.141668
v -0.069700 0.197270 -0.071652
v 0.034231 0.137158 -0.052435
v 0.041939 0.122225 -0.046365
v 0.231612 0.177795 -0.102285
v 0.215727 0.178472 -0.005240
v -0.055518 0.139283 0.117173
v 0.049375 0.237584 0.180297
v -0.045636 0.210315 0.256988
v 0.040291 0.242608 0.335950
v 0.106147 0.269214 -0.011510
v 0.178067 0.324508 0.071314
v 0.128436 0.311012 0.055656
v 0.087745 0.272896 0.042392
v 0.054030 0.222075 0.030459
v 0.029765 0.155565 0.020575
v 0.171914 0.315397 0.100669
v 0.120459 0.295451 0.104019
v 0.077793 0.253890 0.099035
v 0.044316 0.204451 0.081364
v 0.022649 0.145281 0.059434
v 0.044094 0.155376 -0.014932
v 0.072914 0.220903 -0.018623
v 0.146687 0.311539 0.009194
v 0.191432 0.324388 0.046524
v 0.221701 0.315631 0.084573
v 0.048665 0.165562 -0.015475
v 0.188221 0.324908 0.042274
v 0.125631 0.298500 0.103888
v 0.000000 0.000000 0.000000
v -0.042429 0.248038 0.078421
v -0.117192 0.240912 0.091967
v -0.091049 0.247946 0.068636
v -0.065986 0.236782 0.049735
v -0.042651 0.215686 0.034179
v -0.021468 0.181841 0.023132
v -0.129751 0.227050 0.078324
v -0.112658 0.224162 0.047618
v -0.091568 0.208384 0.024613
v -0.065156 0.189881 0.011079
v -0.038880 0.164621 0.006113
v -0.006636 0.190401 0.043535
v -0.021837 0.226887 0.061654
v -0.071551 0.259553 0.095074
v -0.107762 0.246169 0.108025
v -0.137038 0.221951 0.112422
v -0.009055 0.196058 0.046414
v -0.104245 0.248631 0.107609
v -0.114951 0.224909 0.050697
v -0.004882 0.260361 -0.083581
v 0.059572 0.312196 -0.131979
v 0.041243 0.300144 -0.094950
v 0.026756 0.271168 -0.062086
v 0.014645 0.233577 -0.033439
v 0.005941 0.185454 -0.010415
v 0.077918 0.310350 -0.122325
v 0.071669 0.296656 -0.080595
v 0.062114 0.266650 -0.044981
v 0.046318 0.229176 -0.017422
v 0.030317 0.184042 0.001578
v -0.014438 0.179802 -0.026260
v -0.013761 0.225245 -0.054681
v 0.014398 0.293323 -0.115316
v 0.045975 0.308334 -0.145650
v 0.076149 0.308227 -0.162773
v -0.014296 0.186865 -0.030727
v 0.042741 0.308051 -0.143794
v 0.072245 0.298829 -0.084920
vt 0.659034 0.836956
vt 0.659034 0.906729
vt 0.538075 0.863528
vt 0.926746 0.146441
vt 0.926746 0.270284
vt 0.858956 0.146762
vt 0.147191 0.224632
vt 0.071652 0.037830
vt 0.147191 0.001597
vt 0.303499 0.154848
vt 0.303499 0.341809
vt 0.215559 0.336143
vt 0.720260 0.722182
vt 0.720260 0.771332
vt 0.635112 0.751549
vt 0.318730 0.897654
vt 0.318730 0.987724
vt 0.265505 0.902622
vt 0.306694 0.447507
vt 0.534880 0.392715
vt 0.534880 0.459376
vt 0.372795 0.389520
vt 0.306694 0.160862
vt 0.372795 0.154848
vt 0.185592 0.403488
vt 0.129788 0.392416
vt 0.185592 0.274049
vt 0.101837 0.894435
vt 0.151865 0.775054
vt 0.151865 0.905296
vt 0.602496 0.621661
vt 0.538075 0.400667
vt 0.602496 0.392715
vt 0.556205 0.385040
vt 0.491551 0.188016
vt 0.556205 0.154848
vt 0.629982 0.493084
vt 0.715242 0.463986
vt 0.715242 0.619397
vt 0.650347 0.618017
vt 0.979876 0.168641
vt 0.979876 0.270284
vt 0.929940 0.179123
vt 0.626787 0.364755
vt 0.559400 0.169267
vt 0.626787 0.154848
vt 0.185592 0.613460
vt 0.115112 0.421560
vt 0.185592 0.406683
vt 0.762694 0.885367
vt 0.762694 0.942515
vt 0.663478 0.907451
vt 0.677112 0.688268
vt 0.719876 0.624855
vt 0.719876 0.706185
vt 0.212364 0.268621
vt 0.150386 0.013093
vt 0.212364 0.001597
vt 0.068458 0.001597
vt 0.068458 0.262683
vt 0.001597 0.255892
vt 0.981250 0.978346
vt 0.930142 0.971201
vt 0.981250 0.901861
vt 0.265195 0.824136
vt 0.293647 0.775492
vt 0.293647 0.838460
vt 0.762516 0.476572
vt 0.723689 0.175232
vt 0.762516 0.154848
vt 0.763940 0.783600
vt 0.723689 0.507876
vt 0.763940 0.479767
vt 0.151543 0.673009
vt 0.115112 0.661803
vt 0.151543 0.616655
vt 0.126839 0.260200
vt 0.071652 0.242545
vt 0.126839 0.227827
vt 0.720494 0.154848
vt 0.720494 0.460791
vt 0.677909 0.451895
vt 0.674714 0.460791
vt 0.629982 0.156991
vt 0.674714 0.154848
vt 0.299451 0.772297
vt 0.265195 0.771636
vt 0.299451 0.714355
vt 0.876039 0.818590
vt 0.934810 0.815038
vt 0.934810 0.895910
vt 0.869779 0.898666
vt 0.538075 0.696967
vt 0.544932 0.630659
vt 0.673917 0.624855
vt 0.673917 0.718987
vt 0.539452 0.824688
vt 0.538075 0.723953
vt 0.631917 0.722182
vt 0.631917 0.833761
vt 0.870932 0.969848
vt 0.869779 0.901861
vt 0.926947 0.908692
vt 0.926947 0.983989
vt 0.322639 0.579820
vt 0.306694 0.462571
vt 0.432403 0.462968
vt 0.432403 0.574397
vt 0.321925 0.942500
vt 0.324984 0.897821
vt 0.409796 0.897654
vt 0.409796 0.956533
vt 0.788593 0.154848
vt 0.855761 0.157055
vt 0.855761 0.266892
vt 0.765711 0.270284
vt 0.224675 0.029079
vt 0.327125 0.001597
vt 0.327125 0.135062
vt 0.215559 0.151653
vt 0.863585 0.505221
vt 0.950058 0.479767
vt 0.950058 0.561948
vt 0.861759 0.555838
vt 0.715828 0.009449
vt 0.805599 0.001597
vt 0.805599 0.104106
vt 0.706146 0.111295
vt 0.767135 0.846987
vt 0.866584 0.815038
vt 0.866584 0.908406
vt 0.777494 0.903188
vt 0.433659 0.917793
vt 0.430719 0.864936
vt 0.525611 0.853368
vt 0.525611 0.940057
vt 0.010468 0.960871
vt 0.001597 0.879614
vt 0.066989 0.881949
vt 0.066989 0.957919
vt 0.172866 0.831807
vt 0.262000 0.818295
vt 0.262000 0.918598
vt 0.184240 0.917746
vt 0.417071 0.796137
vt 0.306694 0.798355
vt 0.321851 0.699204
vt 0.417071 0.704686
vt 0.767160 0.575124
vt 0.767135 0.480886
vt 0.858564 0.479767
vt 0.858564 0.591346
vt 0.330320 0.095678
vt 0.333044 0.007597
vt 0.458092 0.001597
vt 0.458092 0.124172
vt 0.984856 0.102234
vt 0.984856 0.165446
vt 0.930254 0.160248
vt 0.929940 0.084952
vt 0.663478 0.868110
vt 0.669928 0.791541
vt 0.763940 0.786795
vt 0.763940 0.882173
vt 0.602649 0.969537
vt 0.600156 0.909924
vt 0.657648 0.915611
vt 0.657648 0.979467
vt 0.442367 0.481507
vt 0.530443 0.462571
vt 0.530443 0.585484
vt 0.435598 0.606124
vt 0.012311 0.556817
vt 0.097723 0.544179
vt 0.097723 0.668848
vt 0.001597 0.682322
vt 0.156397 0.790861
vt 0.158203 0.718851
vt 0.262000 0.714355
vt 0.262000 0.815100
vt 0.526174 0.765510
vt 0.526174 0.850173
vt 0.432241 0.841330
vt 0.430719 0.741629
vt 0.940035 0.801117
vt 0.936488 0.743869
vt 0.994785 0.740547
vt 0.994785 0.804403
vt 0.098642 0.862221
vt 0.001597 0.876419
vt 0.008490 0.775212
vt 0.098642 0.775054
vt 0.314992 0.595028
vt 0.432312 0.583014
vt 0.432312 0.696009
vt 0.306694 0.691227
vt 0.769617 0.413635
vt 0.869899 0.386315
vt 0.869899 0.476572
vt 0.765711 0.469098
vt 0.994603 0.815038
vt 0.994603 0.877157
vt 0.943564 0.868817
vt 0.938005 0.831109
vt 0.139452 0.685517
vt 0.139452 0.771859
vt 0.001597 0.746169
vt 0.005860 0.692900
vt 0.156397 0.648669
vt 0.292977 0.616896
vt 0.292977 0.711160
vt 0.166288 0.704695
vt 0.588820 0.020811
vt 0.702951 0.001597
vt 0.702951 0.109028
vt 0.577563 0.087660
vt 0.191084 0.469394
vt 0.189448 0.346830
vt 0.303499 0.345004
vt 0.303499 0.480821
vt 0.178929 0.964654
vt 0.172866 0.930932
vt 0.243129 0.921793
vt 0.243129 0.975479
vt 0.820630 0.103238
vt 0.808794 0.001597
vt 0.902704 0.004681
vt 0.902704 0.099029
vt 0.871729 0.339265
vt 0.864076 0.288231
vt 0.951348 0.273479
vt 0.951348 0.355641
vt 0.500390 0.005737
vt 0.574368 0.001597
vt 0.574368 0.128793
vt 0.461287 0.107057
vt 0.860881 0.381829
vt 0.765711 0.377671
vt 0.787897 0.288643
vt 0.860881 0.273479
vt 0.933293 0.804403
vt 0.873507 0.799559
vt 0.887318 0.726365
vt 0.933293 0.715418
vt 0.292977 0.590620
vt 0.189448 0.613701
vt 0.220650 0.491026
vt 0.292977 0.484016
vt 0.866059 0.607384
vt 0.950411 0.594541
vt 0.950411 0.679865
vt 0.856893 0.660048
vt 0.551381 0.928817
vt 0.596961 0.909924
vt 0.596961 0.978125
vt 0.538075 0.987733
vt 0.016181 0.536592
vt 0.001597 0.422367
vt 0.111918 0.406683
vt 0.111918 0.540984
vt 0.962665 0.443869
vt 0.941057 0.387485
vt 0.998403 0.386315
vt 0.998403 0.445150
vt 0.166321 0.930697
vt 0.166321 0.979792
vt 0.105859 0.976368
vt 0.101837 0.908490
vt 0.314536 0.801628
vt 0.409796 0.801550
vt 0.409796 0.894459
vt 0.306694 0.890500
vt 0.780176 0.811843
vt 0.767135 0.715418
vt 0.870313 0.715755
vt 0.870313 0.807191
vt 0.458118 0.735035
vt 0.435598 0.621940
vt 0.526174 0.609319
vt 0.526174 0.738434
vt 0.119379 0.397493
vt 0.001597 0.403488
vt 0.035603 0.265878
vt 0.119379 0.266582
vt 0.394133 0.164253
vt 0.488356 0.154848
vt 0.488356 0.280810
vt 0.375990 0.290612
vt 0.768315 0.925075
vt 0.837465 0.911601
vt 0.837465 0.968199
vt 0.767135 0.959589
vt 0.882380 0.391025
vt 0.937863 0.386315
vt 0.937863 0.462285
vt 0.873094 0.468736
vt 0.853698 0.712223
vt 0.767135 0.709813
vt 0.786998 0.612210
vt 0.853698 0.594541
vt 0.971318 0.002991
vt 0.971318 0.079274
vt 0.911386 0.081730
vt 0.905899 0.001597
vt 0.380886 0.386318
vt 0.375990 0.299860
vt 0.478115 0.293807
vt 0.478115 0.387768
vn -0.5433 0.7246 -0.4240
vn -0.6253 0.7470 -0.2257
vn 0.8513 0.3533 0.3878
vn 0.9279 0.3656 0.0729
vn -0.0410 0.8512 -0.5233
vn -0.2661 0.8367 -0.4786
vn 0.0122 0.2631 0.9647
vn 0.0174 0.2648 0.9642
vn 0.0104 0.2677 0.9634
vn 0.3122 0.2588 0.9141
vn -0.5043 0.7333 0.4559
vn -0.2765 0.8422 0.4629
vn 0.1769 0.4680 -0.8659
vn -0.4844 0.4018 -0.7771
vn 0.0460 0.5505 -0.8336
vn 0.6335 0.7463 -0.2041
vn -0.8880 0.3753 0.2656
vn -0.7877 0.3377 0.5152
vn 0.6924 0.7214 0.0051
vn 0.1727 0.9810 0.0884
vn -0.9039 0.2214 -0.3660
vn -0.9714 0.2023 -0.1243
vn 0.0969 0.9446 0.3135
vn -0.6232 0.7739 0.1127
vn 0.7620 0.1695 -0.6250
vn 0.5975 0.1702 -0.7836
vn -0.7158 0.6966 -0.0488
vn -0.0981 0.9789 -0.1790
vn -0.6235 0.0637 0.7792
vn -0.4375 0.0644 0.8969
vn 0.1299 0.9898 -0.0576
vn -0.2710 0.6399 0.7191
vn -0.2705 0.6394 0.7197
vn -0.2703 0.6392 0.7200
vn -0.0568 0.4508 0.8908
vn -0.0498 0.4481 0.8926
vn -0.0524 0.4526 0.8902
vn -0.0520 0.4525 0.8902
vn -0.2828 0.8178 0.5013
vn 0.0557 0.6356 -0.7700
vn 0.0556 0.6360 -0.7697
vn 0.1336 0.9857 0.1030
vn -0.3580 0.4608 0.8121
vn -0.9320 0.3568 -0.0638
vn -0.6475 0.6426 -0.4097
vn -0.2425 0.9669 -0.0794
vn -0.8349 0.5493 0.0344
vn 0.4355 0.8844 0.1677
vn 0.4360 0.8841 0.1680
vn 0.4351 0.8847 0.1676
vn 0.0831 0.9824 -0.1675
vn -0.5275 0.7339 0.4279
vn 0.2255 0.9193 0.3226
vn 0.2252 0.9192 0.3231
vn 0.3067 0.7796 0.5460
vn 0.3070 0.7798 0.5455
vn -0.0028 0.9119 0.4103
vn 0.7814 0.6204 -0.0668
vn 0.7812 0.6207 -0.0666
vn 0.7809 0.6211 -0.0663
vn -0.1687 0.7341 -0.6577
vn -0.1688 0.7345 -0.6573
vn -0.1152 0.7637 0.6351
vn -0.1150 0.7640 0.6348
vn 0.3222 0.7634 -0.5598
vn -0.1484 0.8354 -0.5292
vn -0.1480 0.8356 -0.5290
vn -0.2081 0.9376 -0.2786
vn -0.5796 0.6103 0.5400
vn -0.5796 0.6101 0.5402
vn -0.6994 0.7058 0.1129
vn 0.0866 0.8945 -0.4386
vn -0.1876 0.8952 0.4042
vn -0.1880 0.8950 0.4046
vn -0.1878 0.8951 0.4044
vn 0.4205 0.8843 0.2030
vn 0.4209 0.8841 0.2028
vn 0.3415 0.9322 -0.1202
vn 0.3411 0.9323 -0.1206
vn -0.5112 0.7913 -0.3353
vn -0.5112 0.7918 -0.3342
vn -0.5112 0.7916 -0.3347
vn -0.2737 0.9475 0.1652
vn -0.5793 0.7921 0.1922
vn -0.5796 0.7918 0.1925
vn -0.3414 0.9304 -0.1333
vn -0.3414 0.9304 -0.1337
vn 0.5338 0.8172 -0.2173
vn -0.0532 0.9569 0.2855
vn -0.0528 0.9568 0.2860
vn -0.6258 0.7382 -0.2517
vn -0.3202 0.9216 0.2195
vn -0.3205 0.9214 0.2198
vn -0.3210 0.9211 0.2203
vn -0.2288 0.8826 -0.4106
vn -0.2285 0.8826 -0.4108
vn -0.2281 0.8826 -0.4111
vn -0.7329 0.6507 0.1987
vn -0.6224 0.4238 0.6580
vn -0.5374 0.4782 -0.6947
vn -0.5341 0.4840 -0.6932
vn -0.5341 0.4840 -0.6931
vn -0.2293 0.9670 -0.1111
vn -0.2288 0.9671 -0.1115
vn -0.2291 0.9670 -0.1113
vn 0.5478 0.5433 -0.6362
vn 0.5501 0.5495 -0.6288
vn 0.5506 0.5483 -0.6294
vn 0.5485 0.5421 -0.6366
vn 0.2571 0.9159 -0.3083
vn -0.3662 0.9199 -0.1402
vn 0.3142 0.4750 -0.8220
vn -0.4571 0.8834 0.1034
vn -0.1738 0.9847 0.0135
vn 0.3245 0.4630 0.8248
vn 0.6724 0.6647 0.3256
vn -0.6510 0.7389 -0.1738
vn -0.6515 0.7384 -0.1740
vn -0.3372 0.9309 0.1403
vn -0.1928 0.7759 0.6006
vn -0.1926 0.7758 0.6009
vn -0.8654 0.3629 -0.3454
vn -0.8649 0.3635 -0.3462
vn -0.5812 0.6018 0.5478
vn -0.5816 0.6014 0.5478
vn -0.5822 0.6009 0.5477
vn -0.7618 0.5727 -0.3028
g Plant_5_Plant_5_Collor_Material
usemtl Collor_Material
s off
f 14/1/1 9/2/1 1/3/1
f 14/4/2 1/5/2 2/6/2
f 95/7/3 10/8/3 4/9/3
f 95/10/4 5/11/4 10/12/4
f 28/13/5 23/14/5 16/15/5
f 28/16/6 16/17/6 17/18/6
f 95/19/7 24/20/8 19/21/9
f 95/22/10 20/23/10 24/24/10
f 43/25/11 38/26/11 30/27/11
f 43/28/12 30/29/12 75/30/12
f 95/31/13 39/32/13 34/33/13
f 95/34/14 35/35/14 39/36/14
f 40/37/15 33/38/15 34/39/15 39/40/15
f 45/41/16 59/42/16 58/43/16
f 95/44/17 49/45/17 55/46/17
f 95/47/18 54/48/18 49/49/18
f 45/50/19 50/51/19 59/52/19
f 77/53/20 91/54/20 90/55/20
f 95/56/21 81/57/21 87/58/21
f 95/59/22 86/60/22 81/61/22
f 77/62/23 82/63/23 91/64/23
f 97/65/24 111/66/24 110/67/24
f 95/68/25 101/69/25 107/70/25
f 95/71/26 106/72/26 101/73/26
f 97/74/27 102/75/27 111/76/27
f 116/77/28 130/78/28 129/79/28
f 95/80/29 120/81/29 126/82/29
f 95/83/30 125/84/30 120/85/30
f 116/86/31 121/87/31 130/88/31
f 119/89/32 124/90/33 123/91/34 118/92/33
f 19/93/35 24/94/36 25/95/37 67/96/38
f 48/97/39 53/98/39 52/99/39 47/100/39
f 100/101/40 105/102/40 104/103/41 99/104/40
f 3/105/42 15/106/42 12/107/42 13/108/42
f 120/109/43 125/110/43 124/111/43 119/112/43
f 81/113/44 86/114/44 85/115/44 80/116/44
f 40/117/45 72/118/45 36/119/45 41/120/45
f 93/121/46 89/122/46 78/123/46 77/124/46
f 80/125/47 85/126/47 84/127/47 79/128/47
f 45/129/48 46/130/49 71/131/48 50/132/50
f 64/133/51 28/134/51 27/135/51 22/136/51
f 128/137/52 115/138/52 118/139/52 117/140/52
f 27/141/53 26/142/53 66/143/54 22/144/53
f 21/145/55 66/146/56 26/147/56 25/148/56
f 51/149/57 46/150/57 47/151/57 52/152/57
f 10/153/58 5/154/59 6/155/60 11/156/59
f 103/157/61 98/158/62 99/159/61 104/160/61
f 29/161/63 67/162/63 25/163/63 26/164/64
f 108/165/65 100/166/65 99/167/65 96/168/65
f 33/169/66 40/170/66 41/171/67 73/172/66
f 42/173/68 32/174/68 73/175/68 41/176/68
f 49/177/69 54/178/69 53/179/70 48/180/69
f 83/181/71 78/182/71 79/183/71 84/184/71
f 98/185/72 109/186/72 96/187/72 99/188/72
f 18/189/73 29/190/74 26/191/75 27/192/74
f 63/193/76 11/194/76 12/195/77 15/196/76
f 70/197/78 57/198/78 46/199/79 45/200/78
f 98/201/80 114/202/80 102/203/81 97/204/82
f 32/205/83 42/206/83 43/207/83 31/208/83
f 43/209/84 42/210/85 37/211/84 38/212/84
f 2/213/86 62/214/86 13/215/87 14/216/86
f 11/217/88 6/218/88 7/219/88 12/220/88
f 121/221/89 116/222/90 117/223/90 133/224/90
f 89/225/91 76/226/91 79/227/91 78/228/91
f 82/229/92 77/230/93 78/231/94 94/232/94
f 61/233/95 14/234/96 13/235/97 8/236/96
f 48/237/98 56/238/98 69/239/98 49/240/98
f 119/241/99 127/242/99 131/243/99 120/244/99
f 72/245/100 40/246/100 39/247/101 35/248/102
f 17/249/103 65/250/103 27/251/104 28/252/105
f 112/253/106 101/254/107 100/255/108 108/256/109
f 8/257/110 13/258/110 12/259/110 60/260/110
f 113/261/111 109/262/111 98/263/111 97/264/111
f 101/265/112 106/266/112 105/267/112 100/268/112
f 56/269/113 48/270/113 47/271/113 44/272/113
f 57/273/114 44/274/114 47/275/114 46/276/114
f 68/277/115 21/278/115 25/279/115 24/280/115
f 11/281/116 63/282/116 4/283/116 10/284/116
f 74/285/117 42/286/117 41/287/118 36/288/117
f 132/289/119 128/290/119 117/291/119 116/292/119
f 122/293/120 117/294/120 118/295/120 123/296/121
f 80/297/122 88/298/123 92/299/123 81/300/123
f 115/301/124 127/302/125 119/303/126 118/304/125
f 88/305/127 80/306/127 79/307/127 76/308/127
