# Blender v3.0.0 OBJ File: 'aa.blend'
# www.blender.org
mtllib Plant_3.mtl
o Plant_3
v 0.125733 0.182941 0.007590
v 0.108556 0.182983 0.043944
v 0.088328 0.183004 0.027305
v 0.092849 0.183025 -0.018965
v 0.115888 0.182956 -0.031424
v 0.062141 0.267485 -0.009343
v 0.056669 0.264424 -0.005668
v 0.055127 0.264466 0.010067
v 0.059789 0.267432 0.014795
v 0.063802 0.269324 0.002968
v 0.115870 0.103976 -0.030905
v 0.050033 0.053612 -0.024620
v 0.092640 0.104397 -0.019401
v 0.087926 0.104268 0.027682
v 0.108740 0.104144 0.043501
v 0.044978 0.053275 0.024466
v 0.126178 0.103508 0.007574
v 0.060169 0.054547 0.001319
v 0.060113 0.169371 0.135578
v 0.007420 0.169649 0.140004
v 0.013255 0.169432 0.105925
v 0.068536 0.169322 0.080822
v 0.098061 0.169741 0.098763
v 0.046614 0.237586 0.101730
v 0.041381 0.235516 0.098434
v 0.026353 0.235290 0.105302
v 0.025223 0.237775 0.111313
v 0.037086 0.240128 0.109154
v 0.091775 0.104205 0.079384
v 0.042722 0.053159 0.028108
v 0.063807 0.104209 0.060677
v 0.024256 0.053202 0.012525
v 0.007792 0.104213 0.086119
v 0.003485 0.104202 0.119500
v -0.002856 0.053158 0.048821
v 0.054986 0.103464 0.115627
v 0.025342 0.054646 0.050382
v 0.035390 0.053256 -0.054475
v 0.092500 0.108169 -0.107682
v 0.048250 0.053388 -0.028836
v 0.114284 0.108086 -0.074189
v 0.027116 0.053033 -0.016862
v 0.090380 0.108338 -0.064105
v 0.003564 0.052800 -0.034066
v 0.051667 0.108819 -0.091467
v 0.006419 0.055906 -0.055995
v 0.056080 0.124219 -0.117906
v 0.070300 0.241803 -0.078268
v 0.078670 0.240812 -0.067623
v 0.070991 0.239297 -0.065012
v 0.057421 0.239291 -0.074646
v 0.057506 0.240816 -0.082847
v 0.062576 0.184038 -0.113043
v 0.061741 0.169133 -0.097500
v 0.094260 0.169068 -0.074572
v 0.114991 0.169068 -0.082406
v 0.095188 0.169025 -0.109609
v -0.024098 0.057444 -0.058436
v -0.048180 0.101670 -0.111443
v 0.003121 0.051762 -0.058669
v -0.004641 0.088221 -0.111201
v -0.007718 0.087526 -0.082691
v -0.053125 0.087547 -0.062012
v -0.042175 0.051762 -0.038092
v -0.076637 0.088221 -0.078495
v -0.045572 0.252890 -0.073492
v -0.036069 0.251427 -0.075286
v -0.037026 0.250134 -0.070455
v -0.048751 0.249965 -0.065191
v -0.053155 0.251560 -0.067401
v -0.080514 0.183041 -0.091357
v -0.058342 0.183013 -0.077454
v -0.015958 0.182933 -0.096731
v -0.011721 0.183107 -0.122556
v -0.051839 0.182819 -0.119535
v -0.059486 0.054541 -0.010599
v -0.125499 0.103469 -0.016929
v -0.044254 0.053290 -0.033726
v -0.107766 0.104339 -0.052809
v -0.023609 0.053195 -0.021757
v -0.087084 0.104356 -0.036877
v -0.026485 0.053097 0.007427
v -0.092121 0.104355 0.010256
v -0.049366 0.053599 0.015325
v -0.115413 0.103774 0.021577
v -0.144752 0.213562 -0.005613
v -0.139456 0.211598 -0.017129
v -0.134046 0.209518 -0.012517
v -0.136509 0.209342 0.003364
v -0.142921 0.211362 0.006545
v -0.146491 0.151915 0.022294
v -0.123030 0.152665 0.010785
v -0.116446 0.153054 -0.034974
v -0.135639 0.152377 -0.052738
v -0.154220 0.151319 -0.017274
v -0.034947 0.053963 0.044737
v -0.055359 0.067699 0.073098
v -0.046923 0.053605 0.019813
v -0.072702 0.068098 0.043647
v -0.050182 0.067965 0.033172
v -0.002283 0.053245 0.024646
v -0.018847 0.067791 0.055737
v -0.007511 0.053432 0.047947
v -0.022358 0.067428 0.080509
v -0.119176 0.229940 0.120509
v -0.126043 0.228407 0.109672
v -0.118719 0.226368 0.107321
v -0.106691 0.226001 0.117507
v -0.107554 0.228166 0.125399
v -0.094800 0.141143 0.140771
v -0.092273 0.143173 0.115378
v -0.128034 0.143678 0.085262
v -0.152700 0.141597 0.092457
v -0.132484 0.139817 0.126664
v 0.010169 0.072721 0.002391
v 0.011340 0.072721 -0.009627
v 0.001518 0.072721 -0.016650
v -0.009475 0.072721 -0.011656
v -0.010646 0.072721 0.000362
v -0.000824 0.072721 0.007385
v 0.026832 0.099743 0.014309
v 0.029988 0.099742 -0.018103
v 0.003513 0.099720 -0.037019
v -0.026148 0.099743 -0.023565
v -0.029282 0.099729 0.008808
v -0.002818 0.099728 0.027763
v 0.018711 0.121204 0.008496
v 0.020906 0.121203 -0.013970
v 0.002526 0.121225 -0.027129
v -0.018007 0.121205 -0.017772
v -0.020233 0.121219 0.004739
v -0.001836 0.121217 0.017851
v -0.016141 0.144236 -0.051894
v -0.024405 0.144236 -0.048140
v -0.024257 0.145473 -0.048203
v -0.016285 0.145473 -0.051824
v 0.065302 0.144312 0.008921
v 0.066106 0.144323 0.000926
v 0.066056 0.145386 0.001064
v 0.065334 0.145397 0.008798
v 0.051003 0.144133 -0.045597
v 0.042460 0.144184 -0.051727
v 0.042622 0.145527 -0.051583
v 0.050919 0.145573 -0.045672
v -0.049557 0.144263 0.036870
v -0.042532 0.144306 0.041913
v -0.042665 0.145405 0.041790
v -0.049484 0.145444 0.036934
v 0.018310 0.149105 0.054314
v 0.026197 0.149113 0.050737
v 0.026045 0.150289 0.050797
v 0.018430 0.150297 0.054263
v -0.057184 0.143923 -0.021982
v -0.058545 0.143952 -0.008496
v -0.058460 0.145757 -0.008722
v -0.057240 0.145786 -0.021817
v 0.000000 0.000000 0.000000
vt 0.243940 0.077480
vt 0.260699 0.073345
vt 0.260699 0.083620
vt 0.168175 0.168747
vt 0.168175 0.186249
vt 0.150718 0.184250
vt 0.854608 0.675260
vt 0.887249 0.657969
vt 0.887249 0.738937
vt 0.855027 0.756295
vt 0.320424 0.327976
vt 0.337310 0.323614
vt 0.337310 0.332830
vt 0.901786 0.881303
vt 0.921388 0.773275
vt 0.921388 0.909478
vt 0.916627 0.459194
vt 0.895821 0.350772
vt 0.916627 0.327052
vt 0.841954 0.133293
vt 0.842030 0.116233
vt 0.876868 0.104068
vt 0.876868 0.145785
vt 0.025878 0.722090
vt 0.002266 0.656024
vt 0.025878 0.636798
vt 0.229554 0.377264
vt 0.236408 0.365956
vt 0.236408 0.379827
vt 0.194267 0.180030
vt 0.212491 0.174364
vt 0.212491 0.186022
vt 0.799201 0.468953
vt 0.799201 0.613880
vt 0.768678 0.592954
vt 0.789059 0.467345
vt 0.744012 0.149717
vt 0.655373 0.131068
vt 0.744012 0.110429
vt 0.971177 0.385892
vt 0.993036 0.327052
vt 0.993036 0.412968
vt 0.260658 0.831570
vt 0.349299 0.812930
vt 0.349299 0.852211
vt 0.984779 0.552958
vt 0.962465 0.494306
vt 0.984779 0.467345
vt 0.787545 0.296761
vt 0.813293 0.154249
vt 0.813293 0.322521
vt 0.156399 0.379774
vt 0.149580 0.368247
vt 0.156399 0.365956
vt 0.239038 0.178636
vt 0.256160 0.174364
vt 0.256160 0.184871
vt 0.072071 0.026789
vt 0.123396 0.002266
vt 0.123396 0.169553
vt 0.083236 0.195457
vt 0.353831 0.792912
vt 0.369089 0.769326
vt 0.369089 0.823043
vt 0.369089 0.881423
vt 0.353975 0.857741
vt 0.369089 0.827574
vt 0.472645 0.028841
vt 0.463633 0.034164
vt 0.457977 0.016946
vt 0.472645 0.006132
vt 0.562254 0.723088
vt 0.598147 0.706977
vt 0.598147 0.821985
vt 0.349299 0.769326
vt 0.349299 0.808398
vt 0.244852 0.805898
vt 0.260658 0.881741
vt 0.283989 0.856742
vt 0.283989 0.966036
vt 0.627778 0.286641
vt 0.627778 0.326010
vt 0.518562 0.290766
vt 0.238876 0.797072
vt 0.201521 0.781354
vt 0.238876 0.678387
vt 0.723167 0.945075
vt 0.697928 0.922046
vt 0.723167 0.843018
vt 0.437618 0.885359
vt 0.462461 0.862526
vt 0.462461 0.964513
vt 0.135682 0.855145
vt 0.096115 0.843574
vt 0.135682 0.770657
vt 0.518562 0.707697
vt 0.557722 0.706977
vt 0.557722 0.815832
vt 0.947753 0.352323
vt 0.966645 0.327052
vt 0.966645 0.439216
vt 0.787545 0.344911
vt 0.822532 0.327052
vt 0.822532 0.447731
vt 0.374492 0.882121
vt 0.398629 0.857880
vt 0.398629 0.963089
vt 0.768882 0.858166
vt 0.727699 0.849190
vt 0.768882 0.770378
vt 0.839212 0.582107
vt 0.803732 0.565531
vt 0.839212 0.467345
vt 0.817282 0.781513
vt 0.857662 0.773275
vt 0.857662 0.860740
vt 0.478697 0.729002
vt 0.478697 0.768976
vt 0.374492 0.730872
vt 0.957934 0.576878
vt 0.934655 0.551655
vt 0.957934 0.467345
vt 0.905097 0.491809
vt 0.930124 0.467345
vt 0.930124 0.575954
vt 0.841954 0.021844
vt 0.882827 0.015047
vt 0.882827 0.099537
vt 0.940947 0.125680
vt 0.916794 0.100628
vt 0.940947 0.015047
vt 0.687223 0.743044
vt 0.723167 0.727821
vt 0.723167 0.838486
vt 0.506655 0.965893
vt 0.483228 0.941644
vt 0.506655 0.857039
vt 0.427459 0.962281
vt 0.403160 0.938798
vt 0.427459 0.857880
vt 0.776959 0.426472
vt 0.735808 0.425631
vt 0.776959 0.314308
vt 0.602679 0.859959
vt 0.627483 0.836502
vt 0.627483 0.940723
vt 0.598147 0.826516
vt 0.598147 0.868483
vt 0.517148 0.844450
vt 0.437618 0.780776
vt 0.478697 0.773507
vt 0.478697 0.857995
vt 0.812751 0.778648
vt 0.776879 0.762625
vt 0.812751 0.657969
vt 0.135682 0.964153
vt 0.111458 0.940618
vt 0.135682 0.859676
vt 0.677337 0.838775
vt 0.640609 0.823041
vt 0.677337 0.727821
vt 0.164552 0.589932
vt 0.164765 0.572873
vt 0.199937 0.561125
vt 0.199937 0.602336
vt 0.141022 0.612711
vt 0.227643 0.606871
vt 0.227643 0.673856
vt 0.140539 0.668927
vt 0.650842 0.154340
vt 0.650842 0.266573
vt 0.594559 0.265842
vt 0.593991 0.154249
vt 0.234506 0.185991
vt 0.217023 0.178609
vt 0.234506 0.174364
vt 0.837422 0.126442
vt 0.800415 0.126414
vt 0.800483 0.015166
vt 0.837422 0.015047
vt 0.528893 0.221104
vt 0.411926 0.208114
vt 0.412234 0.166399
vt 0.528893 0.154249
vt 0.747639 0.250781
vt 0.700066 0.261731
vt 0.701279 0.164772
vt 0.747639 0.154249
vt 0.875754 0.558296
vt 0.900566 0.467345
vt 0.900566 0.585591
vt 0.912262 0.132501
vt 0.887358 0.041911
vt 0.912262 0.015047
vt 0.247496 0.581484
vt 0.363556 0.542858
vt 0.363556 0.599703
vt 0.244852 0.595047
vt 0.120603 0.766126
vt 0.009008 0.766070
vt 0.009507 0.729442
vt 0.120603 0.729119
vt 0.589460 0.160932
vt 0.589460 0.279276
vt 0.551597 0.269278
vt 0.533425 0.154249
vt 0.240321 0.256185
vt 0.072071 0.253416
vt 0.073113 0.205134
vt 0.240321 0.199988
vt 0.700066 0.278847
vt 0.734863 0.266262
vt 0.734863 0.308229
vt 0.700157 0.295907
vt 0.485332 0.040447
vt 0.485332 0.149717
vt 0.411926 0.135850
vt 0.025987 0.497467
vt 0.061100 0.484310
vt 0.061100 0.526460
vt 0.026155 0.514526
vt 0.149449 0.764876
vt 0.140539 0.678387
vt 0.196990 0.678685
vt 0.196990 0.764796
vt 0.700868 0.093518
vt 0.700814 0.015047
vt 0.756186 0.026585
vt 0.756186 0.105438
vt 0.248120 0.385894
vt 0.244852 0.368455
vt 0.392580 0.340666
vt 0.392580 0.397517
vt 0.850077 0.659143
vt 0.850077 0.768744
vt 0.817282 0.751663
vt 0.842854 0.657969
vt 0.512221 0.852508
vt 0.483228 0.766677
vt 0.512221 0.729002
vt 0.473703 0.712703
vt 0.434783 0.622998
vt 0.491244 0.626790
vt 0.491244 0.717258
vt 0.411912 0.278714
vt 0.505602 0.233320
vt 0.505602 0.319104
vt 0.412268 0.302058
vt 0.636078 0.576315
vt 0.579268 0.576523
vt 0.579655 0.465129
vt 0.636078 0.464082
vt 0.302714 0.046354
vt 0.342249 0.040447
vt 0.342249 0.163952
vt 0.269276 0.164216
vt 0.350606 0.183848
vt 0.407381 0.182030
vt 0.407381 0.297369
vt 0.346780 0.319104
vt 0.556657 0.457030
vt 0.518562 0.332118
vt 0.574737 0.330542
vt 0.574737 0.459551
vt 0.244919 0.425665
vt 0.369960 0.402048
vt 0.369961 0.467734
vt 0.244852 0.448003
vt 0.342249 0.182030
vt 0.342249 0.319083
vt 0.320424 0.289631
vt 0.781491 0.870258
vt 0.776145 0.783180
vt 0.812751 0.785127
vt 0.812751 0.872073
vt 0.145049 0.260967
vt 0.145049 0.384474
vt 0.105531 0.378573
vt 0.072071 0.260717
vt 0.688004 0.852573
vt 0.688004 0.906238
vt 0.650456 0.895432
vt 0.640609 0.843306
vt 0.002266 0.523547
vt 0.021456 0.484310
vt 0.021456 0.632267
vt 0.295855 0.904715
vt 0.295919 0.862748
vt 0.349299 0.856742
vt 0.349299 0.911301
vt 0.915604 0.271772
vt 0.890719 0.181086
vt 0.915604 0.154249
vt 0.244852 0.509448
vt 0.245120 0.487173
vt 0.363007 0.472265
vt 0.363007 0.538327
vt 0.564549 0.042474
vt 0.564549 0.139536
vt 0.491587 0.137995
vt 0.489864 0.040447
vt 0.862193 0.799323
vt 0.897255 0.773275
vt 0.897255 0.860092
vt 0.871222 0.582865
vt 0.860137 0.586475
vt 0.843743 0.482357
vt 0.871222 0.467345
vt 0.975982 0.773275
vt 0.975982 0.864285
vt 0.952293 0.831402
vt 0.350575 0.175786
vt 0.346780 0.040447
vt 0.407395 0.062159
vt 0.407395 0.177499
vt 0.574724 0.470793
vt 0.574724 0.589039
vt 0.536845 0.579078
vt 0.518562 0.464082
vt 0.950215 0.671479
vt 0.973947 0.638560
vt 0.973947 0.729572
vt 0.374492 0.575837
vt 0.374775 0.557678
vt 0.471767 0.552679
vt 0.471767 0.618467
vt 0.035810 0.704960
vt 0.032380 0.687648
vt 0.120603 0.667620
vt 0.120603 0.724587
vt 0.022268 0.203564
vt 0.060316 0.187865
vt 0.060316 0.335822
vt 0.002266 0.336915
vt 0.150726 0.357242
vt 0.149580 0.260717
vt 0.236408 0.264812
vt 0.236408 0.361425
vt 0.150085 0.865809
vt 0.187416 0.854401
vt 0.187416 0.908694
vt 0.140539 0.917991
vt 0.731276 0.327910
vt 0.731276 0.424523
vt 0.685578 0.411362
vt 0.684355 0.314308
vt 0.727700 0.981665
vt 0.727699 0.964605
vt 0.762528 0.952637
vt 0.762528 0.993861
vt 0.397111 0.383688
vt 0.397465 0.342255
vt 0.514031 0.330542
vt 0.514031 0.397517
vt 0.817824 0.240071
vt 0.846831 0.154249
vt 0.846831 0.277756
vt 0.096305 0.459612
vt 0.160021 0.450346
vt 0.160021 0.540926
vt 0.072071 0.519256
vt 0.986592 0.276304
vt 0.986592 0.322257
vt 0.940923 0.307762
vt 0.940935 0.290702
vt 0.378269 0.430001
vt 0.481998 0.402048
vt 0.481998 0.476761
vt 0.374492 0.446943
vt 0.866472 0.418035
vt 0.891289 0.327052
vt 0.891289 0.445396
vt 0.334160 0.615154
vt 0.368906 0.604234
vt 0.368906 0.734826
vt 0.357668 0.734493
vt 0.032380 0.643842
vt 0.032446 0.620329
vt 0.136008 0.606871
vt 0.136008 0.663089
vt 0.596872 0.339945
vt 0.635076 0.330542
vt 0.635076 0.448065
vt 0.579268 0.455046
vt 0.259067 0.045300
vt 0.259067 0.068813
vt 0.243940 0.057176
vt 0.249309 0.038691
vt 0.075428 0.396680
vt 0.219030 0.389005
vt 0.219030 0.445815
vt 0.072071 0.414210
vt 0.727699 0.677794
vt 0.772348 0.657969
vt 0.772348 0.765399
vt 0.763031 0.765847
vt 0.723373 0.555891
vt 0.744978 0.467345
vt 0.764147 0.469103
vt 0.764147 0.586453
vt 0.518562 0.633396
vt 0.630482 0.593570
vt 0.630482 0.650374
vt 0.520932 0.647064
vt 0.640615 0.689014
vt 0.640609 0.666306
vt 0.723167 0.657969
vt 0.723167 0.723290
vt 0.784321 0.016280
vt 0.795883 0.015047
vt 0.795883 0.141199
vt 0.760718 0.132737
vt 0.329628 0.679260
vt 0.329628 0.732926
vt 0.313095 0.701971
vt 0.127928 0.192175
vt 0.135197 0.171118
vt 0.146187 0.168747
vt 0.146187 0.187002
vt 0.891780 0.664993
vt 0.919254 0.651862
vt 0.919254 0.756295
vt 0.907568 0.754758
vt 0.381764 0.708802
vt 0.374492 0.622998
vt 0.430252 0.639179
vt 0.430252 0.724471
vt 0.891780 0.624427
vt 0.908049 0.593038
vt 0.908049 0.647331
vt 0.631165 0.020193
vt 0.696283 0.015047
vt 0.696283 0.096083
vt 0.629458 0.100564
vt 0.658789 0.290955
vt 0.655373 0.154249
vt 0.695534 0.159688
vt 0.695534 0.295080
vt 0.189736 0.168747
vt 0.189736 0.186022
vt 0.172706 0.171566
vt 0.827063 0.339289
vt 0.861941 0.327052
vt 0.861941 0.424836
vt 0.851484 0.425273
vt 0.886188 0.166632
vt 0.886188 0.247021
vt 0.852189 0.232715
vt 0.851362 0.154249
vt 0.865154 0.925044
vt 0.865154 0.971018
vt 0.819492 0.956516
vt 0.819505 0.939456
vt 0.640609 0.482549
vt 0.671709 0.464082
vt 0.671709 0.633120
vt 0.642776 0.653438
vt 0.783014 0.298056
vt 0.772863 0.299652
vt 0.752170 0.174700
vt 0.783014 0.154249
vt 0.239409 0.089190
vt 0.127928 0.066450
vt 0.128031 0.025226
vt 0.239409 0.002266
vt 0.936391 0.276304
vt 0.936391 0.322315
vt 0.890719 0.307835
vt 0.890720 0.290775
vt 0.341513 0.961850
vt 0.295870 0.947422
vt 0.295855 0.930362
vt 0.341513 0.915832
vt 0.718842 0.466078
vt 0.718842 0.586453
vt 0.676240 0.562617
vt 0.709845 0.464082
vt 0.586689 0.024419
vt 0.624927 0.015047
vt 0.624927 0.132501
vt 0.569080 0.139536
vt 0.602735 0.957407
vt 0.637604 0.945255
vt 0.637604 0.986689
vt 0.602679 0.974467
vt 0.969431 0.588036
vt 0.969431 0.634029
vt 0.923792 0.619570
vt 0.923785 0.602510
vt 0.187416 0.968527
vt 0.141762 0.954081
vt 0.141751 0.937022
vt 0.187416 0.922522
vt 0.632825 0.829296
vt 0.626146 0.831970
vt 0.602679 0.728390
vt 0.632825 0.706977
vt 0.245234 0.660329
vt 0.244852 0.618180
vt 0.329628 0.604234
vt 0.329628 0.674729
vt 0.643059 0.318254
vt 0.679824 0.314308
vt 0.679824 0.449618
vt 0.639607 0.455046
vt 0.058703 0.342725
vt 0.058703 0.479778
vt 0.018422 0.475317
vt 0.002266 0.341446
vt 0.301636 0.760229
vt 0.244852 0.764794
vt 0.245793 0.685947
vt 0.301636 0.679260
vt 0.067540 0.012431
vt 0.067540 0.183334
vt 0.014167 0.172025
vt 0.002266 0.002266
vt 0.311717 0.203993
vt 0.311717 0.336135
vt 0.270575 0.333740
vt 0.244852 0.199988
vt 0.227320 0.802683
vt 0.237772 0.801603
vt 0.237772 0.888639
vt 0.201521 0.881548
vt 0.035533 0.581913
vt 0.032380 0.564200
vt 0.160021 0.545457
vt 0.160021 0.602340
vt 0.520153 0.668091
vt 0.634919 0.654905
vt 0.634919 0.702446
vt 0.518562 0.687208
vt 0.238678 0.547313
vt 0.164552 0.556593
vt 0.166225 0.459044
vt 0.238678 0.450346
vt 0.128018 0.161786
vt 0.127928 0.095998
vt 0.264744 0.093721
vt 0.264744 0.164216
vt 0.305952 0.174364
vt 0.305952 0.183692
vt 0.289160 0.179298
vt 0.270420 0.174364
vt 0.270420 0.192526
vt 0.260692 0.183320
vt 0.514031 0.402048
vt 0.514031 0.572224
vt 0.491717 0.545138
vt 0.943222 0.327052
vt 0.943222 0.444205
vt 0.921158 0.418709
vt 0.925920 0.799584
vt 0.947762 0.773275
vt 0.947762 0.890962
vt 0.496973 0.580389
vt 0.514031 0.576755
vt 0.514031 0.688320
vt 0.946724 0.180191
vt 0.968917 0.154249
vt 0.968917 0.268026
vt 0.923785 0.664841
vt 0.945683 0.638560
vt 0.945683 0.756295
vt 0.967750 0.015047
vt 0.967750 0.128767
vt 0.945478 0.102858
vt 0.942193 0.154249
vt 0.942193 0.271538
vt 0.920135 0.245939
vt 0.284629 0.174364
vt 0.284629 0.192107
vt 0.274951 0.188673
vt 0.374492 0.547259
vt 0.374641 0.481573
vt 0.485737 0.481292
vt 0.485737 0.548148
vt 0.972282 0.063938
vt 0.996599 0.015047
vt 0.996599 0.086905
vt 0.997734 0.226144
vt 0.973448 0.177284
vt 0.997734 0.154249
vt 0.727699 0.931573
vt 0.756764 0.862697
vt 0.756764 0.948106
vt 0.071089 0.955218
vt 0.041796 0.887826
vt 0.071089 0.871685
vt 0.075620 0.939833
vt 0.103896 0.871685
vt 0.103896 0.957748
vt 0.805358 0.956131
vt 0.776145 0.892875
vt 0.805358 0.876605
vt 0.009008 0.940445
vt 0.037265 0.871685
vt 0.037265 0.958376
vt 0.954999 0.975192
vt 0.925920 0.912009
vt 0.954999 0.895493
vt 0.870184 0.931677
vt 0.897255 0.864624
vt 0.897255 0.951317
vt 0.561903 0.957665
vt 0.534567 0.892321
vt 0.561903 0.873014
vt 0.959530 0.955157
vt 0.986948 0.895493
vt 0.986948 0.974304
vt 0.688004 0.987087
vt 0.660093 0.929202
vt 0.688004 0.910770
vt 0.243989 0.017204
vt 0.317915 0.002266
vt 0.317915 0.034159
vt 0.243940 0.028180
vt 0.216710 0.378553
vt 0.216709 0.366182
vt 0.218457 0.365956
vt 0.218457 0.378780
vt 0.221508 0.965560
vt 0.201521 0.893170
vt 0.233270 0.896464
vt 0.233270 0.966810
vt 0.864742 0.317140
vt 0.851362 0.251552
vt 0.883324 0.251653
vt 0.883324 0.317317
vt 0.085140 0.821200
vt 0.085140 0.867153
vt 0.009008 0.846776
vt 0.009094 0.827625
vt 0.760081 0.590985
vt 0.760081 0.636989
vt 0.676240 0.614937
vt 0.676246 0.602701
vt 0.091584 0.770657
vt 0.091584 0.816668
vt 0.009008 0.794853
vt 0.009044 0.783501
vt 0.398620 0.012107
vt 0.453446 0.002283
vt 0.453446 0.034164
vt 0.398639 0.024477
vt 0.310562 0.193191
vt 0.310483 0.174609
vt 0.313116 0.174364
vt 0.313116 0.193515
vt 0.583863 0.945668
vt 0.566434 0.873014
vt 0.598147 0.876800
vt 0.598147 0.947441
vt 0.353109 0.335607
vt 0.352995 0.323780
vt 0.354663 0.323635
vt 0.354663 0.335853
vt 0.420484 0.853231
vt 0.374492 0.853349
vt 0.408266 0.773507
vt 0.420484 0.773533
vt 0.067540 0.483949
vt 0.067540 0.539647
vt 0.066173 0.538535
vt 0.476298 0.553790
vt 0.477667 0.552679
vt 0.477667 0.608335
vt 0.817282 0.624073
vt 0.887222 0.607420
vt 0.887222 0.653438
vt 0.817294 0.636897
vt 0.369961 0.472265
vt 0.369961 0.547694
vt 0.368602 0.547019
vt 0.237328 0.561870
vt 0.238678 0.561125
vt 0.238678 0.635340
vt 0.186504 0.848934
vt 0.140539 0.849870
vt 0.171649 0.769626
vt 0.186504 0.769407
vt 0.067540 0.187865
vt 0.067540 0.262580
vt 0.065870 0.261627
vt 0.065754 0.339570
vt 0.067540 0.338582
vt 0.067540 0.409222
vt 0.322448 0.017625
vt 0.394089 0.002266
vt 0.394089 0.034164
vt 0.322447 0.029446
vt 0.027358 0.530991
vt 0.027358 0.606090
vt 0.025987 0.605318
vt 0.307098 0.680069
vt 0.308564 0.679260
vt 0.308564 0.749607
vt 0.223123 0.380517
vt 0.222988 0.366124
vt 0.225022 0.365956
vt 0.225022 0.380812
vt 0.136008 0.667620
vt 0.136008 0.740884
vt 0.134639 0.739913
vt 0.346801 0.335642
vt 0.346780 0.323821
vt 0.348464 0.323635
vt 0.348464 0.335871
vt 0.125134 0.668600
vt 0.126515 0.667620
vt 0.126515 0.739417
vt 0.359222 0.334789
vt 0.359194 0.323813
vt 0.360726 0.323635
vt 0.360726 0.334988
vt 0.067540 0.267111
vt 0.067540 0.334050
vt 0.065327 0.332736
vt 0.065322 0.415193
vt 0.067540 0.413754
vt 0.067540 0.479417
vt 0.865154 0.920513
vt 0.817282 0.892880
vt 0.833260 0.865272
vt 0.865154 0.865271
vt 0.528893 0.280878
vt 0.512915 0.253223
vt 0.528893 0.225636
vt 0.239573 0.444280
vt 0.223561 0.416617
vt 0.239573 0.389005
vn -0.5103 0.8592 -0.0357
vn -0.2191 0.8536 -0.4727
vn -0.2258 0.8605 -0.4567
vn -0.2316 0.8663 -0.4426
vn 0.4184 0.2574 0.8710
vn 0.4187 0.2575 0.8709
vn 0.4181 0.2574 0.8712
vn -0.0897 0.9014 -0.4237
vn 0.4826 0.1801 0.8571
vn -0.7625 0.6469 -0.0077
vn 0.7902 0.6082 0.0751
vn 0.7906 0.6078 0.0745
vn -0.9935 0.1041 0.0465
vn 0.1466 0.9152 0.3753
vn 0.1418 0.9155 0.3766
vn 0.1526 0.9124 0.3798
vn -0.1213 0.9740 0.1913
vn -0.1291 0.9741 0.1855
vn -0.1273 0.9734 0.1906
vn -0.4849 -0.0771 -0.8712
vn -0.1760 -0.8207 -0.5436
vn 0.9618 0.2722 -0.0288
vn -0.2936 -0.8207 -0.4901
vn -0.6466 0.2772 0.7107
vn -0.3425 0.2512 -0.9053
vn -0.3330 0.3413 -0.8790
vn -0.3490 0.2429 -0.9051
vn 0.1989 0.9362 0.2899
vn 0.3501 0.9296 0.1156
vn -0.1926 -0.7189 0.6679
vn -0.4167 0.5667 -0.7108
vn 0.8171 0.5480 0.1789
vn 0.3795 0.9240 0.0471
vn -0.6790 -0.6939 0.2398
vn -0.6501 -0.6882 0.3223
vn -0.3145 -0.1378 -0.9392
vn 0.6563 -0.7184 -0.2306
vn 0.6181 -0.7240 -0.3063
vn -0.9992 -0.0319 -0.0238
vn 0.9739 -0.0596 0.2190
vn 0.3848 -0.3741 0.8438
vn -0.5969 -0.7199 -0.3542
vn -0.9911 -0.0180 -0.1316
vn -0.3956 -0.7312 -0.5557
vn 0.3268 0.0309 0.9446
vn -0.3663 -0.4869 -0.7930
vn 0.6199 -0.6927 0.3687
vn 0.5179 -0.4882 -0.7025
vn 0.5474 -0.6902 0.4732
vn 0.4925 0.0248 0.8700
vn -0.6611 0.0135 0.7502
vn 0.8962 0.4345 0.0898
vn 0.9969 -0.0768 -0.0147
vn -0.0989 -0.6723 0.7337
vn 0.4968 -0.1304 -0.8580
vn -0.4992 0.0237 0.8661
vn -0.0274 -0.7058 -0.7079
vn 0.6406 -0.1133 -0.7594
vn -0.5363 -0.3734 0.7569
vn 0.8981 -0.4306 0.0899
vn -0.1593 -0.7361 -0.6579
vn -0.5158 -0.1390 -0.8454
vn -0.0051 -0.6766 0.7364
vn 0.4629 0.6089 -0.6442
vn 0.4631 0.6091 -0.6438
vn -0.5669 0.1751 0.8049
vn -0.5666 0.1753 0.8051
vn -0.5673 0.1748 0.8047
vn 0.9678 0.0018 -0.2517
vn 0.2478 0.9393 -0.2372
vn 0.2556 0.9397 -0.2271
vn 0.2389 0.9407 -0.2411
vn -0.6203 0.0005 0.7844
vn -0.6164 0.7850 -0.0615
vn 0.5250 0.2056 -0.8259
vn 0.5225 0.3955 -0.7553
vn 0.5110 0.4641 -0.7236
vn 0.5166 0.3862 -0.7642
vn -0.3583 0.4573 -0.8139
vn -0.3633 0.3950 -0.8438
vn -0.3564 0.3864 -0.8507
vn -0.0676 0.5517 -0.8313
vn -0.0667 0.5516 -0.8314
vn -0.4599 0.0002 -0.8880
vn 0.5463 -0.7845 0.2933
vn -0.5408 -0.7888 0.2921
vn -0.4634 0.6066 0.6460
vn -0.4630 0.6068 0.6461
vn -0.4626 0.6070 0.6461
vn 0.6219 0.4434 0.6455
vn -0.3232 0.6061 -0.7268
vn 0.8229 -0.0699 -0.5639
vn -0.7843 -0.4641 -0.4117
vn 0.8019 0.5631 -0.1998
vn -0.5204 -0.0852 0.8497
vn 0.5551 0.3330 -0.7622
vn 0.5649 0.2678 -0.7805
vn 0.5740 0.2586 -0.7769
vn -0.8692 0.2139 -0.4459
vn -0.8689 0.2139 -0.4465
vn -0.4139 0.0733 -0.9074
vn -0.4129 0.0728 -0.9078
vn 0.9019 0.0023 0.4319
vn 0.4265 -0.8087 0.4051
vn -0.7136 -0.1129 -0.6914
vn -0.8457 0.1592 0.5094
vn -0.8462 0.1591 0.5086
vn -0.8460 0.1591 0.5089
vn -0.9156 -0.3921 -0.0889
vn -0.9155 -0.3922 -0.0894
vn -0.9157 -0.3920 -0.0889
vn 0.3757 0.2791 0.8837
vn 0.3701 0.1273 0.9202
vn 0.0247 -0.8087 0.5876
vn -0.3491 -0.9180 0.1880
vn -0.3491 -0.9181 0.1876
vn -0.3492 -0.9182 0.1872
vn -0.5995 0.7311 0.3258
vn 0.2269 0.9212 -0.3161
vn 0.3562 0.4459 0.8211
vn 0.3603 0.3912 0.8468
vn 0.3543 0.3836 0.8528
vn 0.6406 0.1303 -0.7568
vn 0.6402 0.1302 -0.7571
vn 0.0729 -0.2982 0.9517
vn -0.9849 0.1572 -0.0728
vn 0.3458 -0.0157 0.9382
vn 0.9287 0.3546 0.1089
vn -0.0507 -0.1127 -0.9923
vn -0.5454 -0.7828 -0.2996
vn -0.5303 0.3530 0.7708
vn 0.4026 -0.2205 0.8884
vn 0.4035 -0.2207 0.8880
vn 0.4032 -0.2206 0.8881
vn -0.9767 0.1108 0.1839
vn -0.0528 -0.6569 -0.7521
vn -0.3945 0.2974 -0.8694
vn -0.3942 0.2971 -0.8697
vn -0.0777 -0.9237 0.3751
vn -0.0782 -0.9236 0.3752
vn -0.9821 0.1163 -0.1480
vn 0.3288 0.6119 0.7194
vn 0.3293 0.6115 0.7194
vn 0.6166 0.7846 0.0644
vn 0.6164 0.7848 0.0649
vn 0.6162 0.7849 0.0654
vn 0.6159 0.7851 0.0659
vn -0.9590 0.2686 -0.0899
vn -0.9401 0.3299 -0.0856
vn -0.9622 0.2599 -0.0811
vn -0.2502 -0.7963 -0.5507
vn -0.8320 -0.5489 -0.0809
vn 0.0825 0.3703 0.9253
vn -0.5185 0.3926 0.7596
vn -0.5075 0.4587 0.7294
vn -0.5129 0.3835 0.7681
vn -0.2755 0.2721 -0.9220
vn -0.5526 -0.2891 0.7817
vn -0.5524 -0.2892 0.7818
vn -0.5520 -0.2893 0.7820
vn -0.5908 -0.7871 0.1775
vn -0.1372 0.9728 0.1866
vn -0.1424 0.9724 0.1849
vn -0.1335 0.9724 0.1913
vn 0.7521 0.5570 0.3522
vn -0.9664 0.1834 -0.1802
vn 0.2648 0.4711 -0.8414
vn 0.3006 0.4621 -0.8343
vn -0.6140 0.4695 -0.6345
vn 0.9591 0.2444 0.1430
vn 0.9593 0.2441 0.1422
vn 0.9813 0.1647 0.0993
vn -0.3345 0.6001 -0.7267
vn 0.2256 0.9430 -0.2448
vn 0.1839 0.9503 -0.2510
vn 0.2311 0.9392 -0.2540
vn -0.9958 -0.0335 -0.0855
vn -0.9968 -0.0760 -0.0245
vn -0.9968 -0.0760 -0.0244
vn 0.1979 0.0088 -0.9802
vn 0.8104 0.5728 0.1233
vn 0.8457 0.5227 0.1080
vn 0.8459 0.5224 0.1076
vn 0.9861 0.0973 0.1343
vn -0.5207 0.8520 -0.0533
vn -0.5216 0.8515 -0.0527
vn -0.5193 0.8528 -0.0550
vn 0.6175 0.4412 -0.6512
vn 0.5965 0.3675 -0.7135
vn 0.4863 -0.5489 -0.6799
vn 0.7567 0.6424 0.1217
vn -0.6407 -0.1039 0.7607
vn -0.2674 0.7629 -0.5886
vn 0.8320 -0.5488 0.0810
vn -0.3457 -0.5487 -0.7612
vn 0.4591 0.3917 -0.7974
vn 0.5916 -0.7854 -0.1821
vn -0.7887 0.6101 -0.0756
vn -0.7887 0.6102 -0.0755
vn -0.7890 0.6097 -0.0763
vn -0.7889 0.6098 -0.0760
vn -0.4867 -0.5486 0.6798
vn 0.3489 -0.5483 0.7600
vn 0.3457 -0.5488 0.7611
vn 0.9583 0.2271 0.1732
vn 0.2429 0.8167 0.5235
vn 0.2426 0.8168 0.5235
vn 0.2419 0.8170 0.5234
vn -0.5502 0.0971 0.8294
vn 0.4962 -0.8183 -0.2900
vn -0.8320 -0.5191 0.1958
vn 0.3996 0.7690 -0.4990
vn -0.3451 0.8026 0.4866
vn 0.4385 0.2117 0.8734
vn -0.3563 0.1138 0.9274
vn -0.3560 0.1137 0.9275
vn 0.7143 0.4685 -0.5200
vn 0.7137 0.4687 -0.5206
vn 0.7139 0.4686 -0.5204
vn 0.6761 -0.2645 0.6877
vn 0.4086 0.1674 0.8972
vn -0.2350 0.8782 -0.4167
vn -0.2317 0.8663 -0.4426
vn -0.2490 0.8793 -0.4060
vn 0.1619 0.9092 0.3836
vn 0.1526 0.9124 0.3799
vn 0.1576 0.9108 0.3815
vn -0.3755 0.1414 -0.9160
vn -0.3554 0.2330 -0.9052
vn 0.5073 0.3059 -0.8057
vn 0.5166 0.3861 -0.7642
vn 0.5107 0.3752 -0.7736
vn -0.3495 0.3764 -0.8580
vn -0.3409 0.3137 -0.8862
vn 0.6215 0.4434 0.6458
vn 0.5847 0.2457 -0.7731
vn 0.6142 0.1842 -0.7673
vn 0.3482 0.3747 0.8592
vn 0.3410 0.3199 0.8840
vn -0.9807 0.1900 -0.0467
vn -0.9662 0.2478 -0.0711
vn -0.5039 0.3062 0.8077
vn -0.5129 0.3835 0.7680
vn -0.5071 0.3729 0.7770
vn -0.5167 0.8542 -0.0578
vn -0.5191 0.8529 -0.0551
vn -0.5169 0.8542 -0.0567
vn -0.9951 0.0039 -0.0984
vn -0.9951 0.0041 -0.0987
vn -0.9950 0.0046 -0.0995
vn -0.8970 0.2401 0.3711
vn 0.8691 0.2390 -0.4330
vn 0.1803 0.2590 -0.9489
vn -0.1170 0.2182 0.9689
vn -0.6202 0.3041 -0.7231
vn 0.6646 0.1399 0.7340
vn 0.6079 0.3095 0.7312
vn -0.6755 0.1477 -0.7224
vn 0.9091 0.2548 -0.3295
vn -0.9145 0.2032 0.3499
vn -0.1773 0.2546 0.9506
vn 0.2080 0.1806 -0.9613
vn -0.4599 0.8868 -0.0443
vn -0.4600 0.8868 -0.0448
vn -0.4599 0.8869 -0.0442
vn -0.4136 0.0033 -0.9105
vn -0.4136 0.0030 -0.9104
vn 0.2845 0.8725 -0.3973
vn 0.5265 0.8486 0.0513
vn 0.5266 0.8485 0.0518
vn 0.5265 0.8487 0.0508
vn -0.8168 -0.5713 -0.0799
vn -0.8168 -0.5714 -0.0796
vn -0.8169 -0.5712 -0.0805
vn 0.3447 -0.5517 0.7595
vn 0.3441 -0.5546 0.7576
vn 0.7592 -0.6466 0.0743
vn 0.7592 -0.6466 0.0739
vn 0.2586 0.7804 0.5693
vn -0.9953 0.0064 -0.0967
vn -0.2857 0.8715 0.3986
vn -0.2853 0.8715 0.3989
vn -0.5817 0.0063 0.8134
vn -0.4595 -0.6135 0.6422
vn -0.4599 -0.6135 0.6420
vn -0.9463 0.1283 0.2967
vn 0.8455 0.1279 -0.5184
vn -0.3717 -0.4377 -0.8187
vn 0.2469 0.1355 -0.9595
vn -0.0654 0.1137 0.9914
vn 0.4587 -0.6144 -0.6420
vn 0.4591 -0.6144 -0.6417
vn 0.4579 -0.6145 -0.6424
vn -0.5813 0.1554 -0.7987
vn 0.6935 0.0778 0.7163
vn -0.2371 0.8192 -0.5222
vn 0.5678 0.1590 0.8077
vn -0.7064 0.0816 -0.7031
vn 0.5816 0.0036 -0.8134
vn 0.9560 0.1364 -0.2596
vn 0.4136 0.0019 0.9105
vn -0.9029 0.1087 0.4158
vn 0.9953 0.0077 0.0966
vn -0.2528 0.1319 0.9585
vn 0.1588 0.0917 -0.9830
vn 0.0002 1.0000 -0.0003
vn -0.0002 1.0000 -0.0000
vn 0.0001 1.0000 0.0006
vn -0.0011 1.0000 0.0018
vn -0.0001 1.0000 0.0019
vn 0.0005 1.0000 -0.0006
vn 0.0005 1.0000 -0.0001
g Plant_3_Plant_3_Collor_Material
usemtl Collor_Material
s off
f 10/1/1 8/2/1 9/3/1
f 26/4/2 28/5/3 25/6/4
f 92/7/5 91/8/6 85/9/7 83/10/7
f 28/11/8 24/12/8 25/13/8
f 40/14/9 43/15/9 42/16/9
f 45/17/10 46/18/10 44/19/10
f 116/20/11 115/21/12 32/22/12 42/23/12
f 47/24/13 54/25/13 53/26/13
f 69/27/14 66/28/15 70/29/16
f 48/30/17 50/31/18 49/32/19
f 6/33/20 5/34/20 4/35/20 7/36/20
f 58/37/21 61/38/21 60/39/21
f 60/40/22 62/41/22 44/42/22
f 65/43/23 58/44/23 64/45/23
f 63/46/24 64/47/24 80/48/24
f 112/49/25 99/50/26 113/51/27
f 66/52/28 68/53/28 67/54/28
f 86/55/29 90/56/29 89/57/29
f 110/58/30 114/59/30 97/60/30 104/61/30
f 98/62/31 100/63/31 82/64/31
f 102/65/32 103/66/32 101/67/32
f 88/68/33 87/69/33 86/70/33 89/71/33
f 84/72/34 76/73/34 157/74/34
f 96/75/35 98/76/35 157/77/35
f 42/78/36 12/79/36 157/80/36
f 12/81/37 18/82/37 157/83/37
f 38/84/38 40/85/38 157/86/38
f 35/87/39 101/88/39 157/89/39
f 101/90/40 103/91/40 157/92/40
f 32/93/41 101/94/41 157/95/41
f 76/96/42 78/97/42 157/98/42
f 44/99/43 46/100/43 157/101/43
f 64/102/44 58/103/44 157/104/44
f 82/105/45 84/106/45 157/107/45
f 80/108/46 44/109/46 157/110/46
f 18/111/47 16/112/47 157/113/47
f 44/114/48 42/115/48 157/116/48
f 30/117/49 37/118/49 157/119/49
f 40/120/50 42/121/50 157/122/50
f 80/123/51 64/124/51 157/125/51
f 80/126/52 82/127/52 157/128/52
f 60/129/53 44/130/53 157/131/53
f 103/132/54 96/133/54 157/134/54
f 78/135/55 80/136/55 157/137/55
f 16/138/56 32/139/56 157/140/56
f 46/141/57 38/142/57 157/143/57
f 32/144/58 30/145/58 157/146/58
f 101/147/59 82/148/59 157/149/59
f 42/150/60 32/151/60 157/152/60
f 58/153/61 60/154/61 157/155/61
f 98/156/62 82/157/62 157/158/62
f 37/159/63 35/160/63 157/161/63
f 117/162/64 116/163/65 42/164/65 44/165/65
f 54/166/66 45/167/67 43/168/66 55/169/68
f 1/170/69 17/171/69 11/172/69 5/173/69
f 108/174/70 105/175/71 109/176/72
f 2/177/73 3/178/73 14/179/73 15/180/73
f 13/181/74 42/182/74 32/183/74 14/184/74
f 22/185/75 23/186/75 29/187/75 31/188/75
f 81/189/76 78/190/77 79/191/78
f 12/192/79 13/193/80 11/194/81
f 67/195/82 74/196/83 75/197/82 66/198/82
f 5/199/84 11/200/84 13/201/84 4/202/84
f 15/203/85 16/204/85 18/205/85 17/206/85
f 113/207/86 99/208/86 97/209/86 114/210/86
f 119/211/87 82/212/87 101/213/88 120/214/89
f 24/215/90 19/216/90 23/217/90
f 117/218/91 44/219/91 80/220/91 118/221/91
f 56/222/92 41/223/92 39/224/92 57/225/92
f 94/226/93 79/227/93 77/228/93 95/229/93
f 6/230/94 10/231/94 1/232/94 5/233/94
f 70/234/95 71/235/95 72/236/95 69/237/95
f 30/238/96 31/239/97 29/240/98
f 87/241/99 94/242/99 95/243/100 86/244/99
f 25/245/101 22/246/102 21/247/102 26/248/102
f 1/249/103 2/250/103 15/251/103 17/252/103
f 37/253/104 30/254/104 29/255/104 36/256/104
f 71/257/105 75/258/105 59/259/105 65/260/105
f 106/261/106 113/262/107 114/263/108 105/264/106
f 7/265/109 4/266/110 3/267/110 8/268/111
f 40/269/112 41/270/112 43/271/112
f 55/272/113 43/273/113 41/274/113 56/275/113
f 34/276/114 35/277/114 37/278/114 36/279/114
f 99/280/115 98/281/116 96/282/117 97/283/116
f 45/284/118 47/285/118 46/286/118
f 101/287/119 82/288/119 100/289/119 102/290/119
f 84/291/120 83/292/121 85/293/122
f 107/294/123 108/295/123 111/296/124 112/297/123
f 20/298/125 34/299/125 36/300/125 19/301/125
f 47/302/126 45/303/126 54/304/126
f 49/305/127 50/306/127 55/307/127 56/308/127
f 60/309/128 61/310/128 62/311/128
f 74/312/129 61/313/129 59/314/129 75/315/129
f 79/316/130 78/317/130 76/318/130 77/319/130
f 63/320/131 65/321/131 64/322/131
f 68/323/132 69/324/132 72/325/133 73/326/134
f 90/327/135 86/328/135 95/329/135 91/330/135
f 38/331/136 46/332/136 47/333/136 39/334/136
f 22/335/137 31/336/137 33/337/137 21/338/138
f 96/339/139 103/340/140 104/341/140 97/342/140
f 21/343/141 33/344/141 34/345/141 20/346/141
f 115/347/142 120/348/142 101/349/142 32/350/143
f 82/351/144 80/352/145 81/353/146 83/354/147
f 33/355/148 35/356/149 34/357/150
f 59/358/151 61/359/151 58/360/151 65/361/151
f 125/362/152 124/363/152 118/364/152 119/365/152
f 27/366/153 20/367/153 19/368/153 28/369/153
f 14/370/154 16/371/155 15/372/156
f 112/373/157 113/374/157 106/375/157 107/376/157
f 50/377/158 51/378/158 54/379/159 55/380/160
f 76/381/161 84/382/161 85/383/161 77/384/161
f 51/385/162 50/386/163 48/387/164 52/388/162
f 9/389/165 2/390/165 1/391/165 10/392/165
f 21/393/166 20/394/166 27/395/166 26/396/166
f 53/397/167 52/398/167 48/399/168 57/400/168
f 66/401/169 75/402/169 71/403/169 70/404/169
f 88/405/170 89/406/170 92/407/171 93/408/170
f 108/409/172 109/410/172 110/411/172 111/412/172
f 98/413/173 99/414/173 100/415/173
f 108/416/174 107/417/175 106/418/175 105/419/176
f 53/420/177 54/421/177 51/422/178 52/423/179
f 57/424/180 39/425/180 47/426/180 53/427/180
f 102/428/181 104/429/181 103/430/181
f 93/431/182 92/432/182 83/433/183 81/434/182
f 73/435/184 62/436/184 61/437/184 74/438/184
f 10/439/185 7/440/186 8/441/187
f 93/442/188 94/443/188 87/444/188 88/445/188
f 93/446/189 81/447/189 79/448/189 94/449/189
f 123/450/190 122/451/190 116/452/190 117/453/190
f 111/454/191 110/455/191 104/456/191 102/457/191
f 9/458/192 8/459/192 3/460/192 2/461/192
f 31/462/193 32/463/193 101/464/193 33/465/193
f 122/466/194 121/467/194 115/468/194 116/469/194
f 123/470/195 117/471/195 118/472/195 124/473/195
f 24/474/196 23/475/196 22/476/196 25/477/196
f 18/478/197 12/479/197 11/480/197 17/481/197
f 118/482/198 80/483/199 82/484/200 119/485/201
f 126/486/202 125/487/202 119/488/202 120/489/202
f 126/490/203 120/491/204 115/492/204 121/493/204
f 67/494/205 68/495/205 73/496/205 74/497/205
f 80/498/206 44/499/207 62/500/208 63/501/207
f 72/502/209 71/503/209 65/504/209 63/505/209
f 41/506/210 40/507/210 38/508/210 39/509/210
f 91/510/211 95/511/211 77/512/211 85/513/211
f 111/514/212 102/515/212 100/516/212 112/517/212
f 45/518/213 44/519/213 42/520/213 43/521/213
f 89/522/214 90/523/214 91/524/214 92/525/214
f 109/526/215 105/527/215 114/528/216 110/529/215
f 49/530/217 56/531/218 57/532/219 48/533/217
f 23/534/220 19/535/220 36/536/220 29/537/220
f 73/538/221 72/539/221 63/540/221 62/541/221
f 26/542/222 27/543/223 28/544/224
f 69/545/225 68/546/226 66/547/227
f 112/548/228 100/549/27 99/550/229
f 81/551/230 80/552/231 78/553/232
f 12/554/233 42/555/81 13/556/234
f 24/557/235 28/558/235 19/559/235
f 30/560/236 32/561/98 31/562/237
f 84/563/238 82/564/122 83/565/239
f 33/566/240 101/567/150 35/568/241
f 14/569/242 32/570/243 16/571/244
f 10/572/245 6/573/246 7/574/247
f 3/575/248 4/576/248 13/577/249 14/578/250
f 130/579/251 134/580/251 124/581/251
f 133/582/252 129/583/252 123/584/252
f 128/585/253 138/586/253 122/587/253
f 137/588/254 127/589/254 121/590/254
f 129/591/255 142/592/255 123/593/255
f 141/594/256 128/595/256 122/596/256
f 132/597/257 146/598/257 126/599/257
f 145/600/258 131/601/258 125/602/258
f 127/603/259 150/604/259 121/605/259
f 149/606/260 132/607/260 126/608/260
f 131/609/261 154/610/261 125/611/261
f 153/612/262 130/613/262 124/614/262
f 139/615/263 128/616/264 127/617/264 140/618/265
f 135/619/266 136/620/266 133/621/266 134/622/267
f 147/623/268 132/624/268 131/625/268 148/626/268
f 155/627/269 131/628/270 130/629/269 156/630/271
f 124/631/272 125/632/273 154/633/274 153/634/272
f 126/635/275 121/636/276 150/637/276 149/638/276
f 121/639/277 122/640/278 138/641/277 137/642/277
f 135/643/279 130/644/279 129/645/279 136/646/279
f 155/647/280 156/648/280 153/649/280 154/650/280
f 143/651/281 129/652/281 128/653/282 144/654/281
f 147/655/283 148/656/283 145/657/283 146/658/283
f 125/659/284 126/660/285 146/661/284 145/662/284
f 130/663/286 135/664/286 134/665/286
f 133/666/287 136/667/287 129/668/287
f 133/669/288 123/670/288 124/671/288 134/672/288
f 128/673/289 139/674/289 138/675/289
f 137/676/290 140/677/290 127/678/290
f 122/679/291 123/680/292 142/681/293 141/682/291
f 129/683/294 143/684/294 142/685/294
f 141/686/295 144/687/295 128/688/295
f 151/689/296 127/690/296 132/691/296 152/692/296
f 132/693/297 147/694/297 146/695/297
f 145/696/298 148/697/298 131/698/298
f 143/699/299 144/700/299 141/701/299 142/702/299
f 127/703/300 151/704/300 150/705/300
f 151/706/301 152/707/301 149/708/301 150/709/301
f 149/710/302 152/711/302 132/712/302
f 139/713/303 140/714/303 137/715/303 138/716/303
f 131/717/304 155/718/304 154/719/304
f 153/720/305 156/721/305 130/722/305
f 130/723/306 132/724/307 127/725/306 128/726/308
f 128/727/309 129/728/310 130/729/310
f 130/730/311 131/731/311 132/732/312
