# Blender v3.0.0 OBJ File: 'aa.blend'
# www.blender.org
mtllib Plant_4.mtl
o Plant_4
v -0.781450 0.215922 0.308801
v -0.623245 0.283487 0.345543
v -0.450549 0.316721 0.338144
v -0.067230 0.157148 0.151026
v -0.158206 0.134228 -0.068055
v -0.293813 0.225265 -0.068402
v -0.437577 0.264352 -0.031621
v -0.571624 0.286272 0.050830
v -0.698052 0.264381 0.168446
v -0.105457 0.161908 0.036966
v -0.222248 0.263715 0.076977
v -0.356261 0.306317 0.128856
v -0.503706 0.320244 0.189389
v -0.659031 0.282733 0.255343
v -0.290225 0.300451 0.296614
v -0.525563 0.332487 -0.423217
v -0.488803 0.361597 -0.293749
v -0.416940 0.364832 -0.176222
v -0.145114 0.201454 -0.013709
v -0.030414 0.208654 -0.160635
v -0.081269 0.295687 -0.238875
v -0.267924 0.373298 -0.370793
v -0.412167 0.362543 -0.414944
v -0.081573 0.217005 -0.081514
v -0.152032 0.308548 -0.130221
v -0.238308 0.355683 -0.194159
v -0.335819 0.382721 -0.267847
v -0.441019 0.370739 -0.352092
v -0.327381 0.333386 -0.087016
v 0.649988 0.301328 0.659438
v 0.572859 0.358501 0.509369
v 0.462229 0.379278 0.354906
v 0.243454 0.294861 0.120596
v 0.154358 0.186287 0.048944
v 0.030355 0.136423 0.167125
v 0.166809 0.274011 0.405055
v 0.312532 0.315189 0.518030
v 0.472446 0.318226 0.605073
v 0.080789 0.173839 0.102730
v 0.141429 0.278101 0.195154
v 0.241556 0.331908 0.304807
v 0.366771 0.361629 0.426252
v 0.517473 0.346478 0.555903
v 0.052788 0.283972 -0.360428
v 0.310002 0.269437 -0.523504
v 0.244492 0.300218 -0.401465
v 0.181231 0.288762 -0.286969
v 0.121968 0.253955 -0.184767
v 0.068258 0.187830 -0.099707
v 0.379435 0.253635 -0.487856
v 0.358932 0.271286 -0.347778
v 0.315805 0.254748 -0.226012
v 0.242626 0.222421 -0.128585
v 0.155638 0.165377 -0.059316
v -0.015940 0.186153 -0.151532
v 0.005604 0.250419 -0.256651
v 0.134027 0.298601 -0.469379
v 0.253046 0.264917 -0.568803
v 0.360887 0.214562 -0.620596
v -0.458540 0.269084 -0.019059
v -0.683398 0.265902 0.155164
v -0.466618 0.316698 0.338870
v -0.180183 0.264878 0.241177
v -0.396999 0.365696 -0.413755
v -0.425105 0.366743 -0.189178
v -0.177840 0.349278 -0.324452
v -0.251200 0.296425 -0.041323
v -0.035009 0.215561 -0.167353
v -0.012390 0.195635 -0.168194
v 0.240743 0.269804 -0.562789
v 0.361703 0.271066 -0.363949
v 0.067789 0.219342 0.274622
v 0.353446 0.350050 0.225621
v 0.299794 0.312564 0.509971
v 0.576905 0.356329 0.517517
v 0.157595 0.392354 -0.206012
v 0.413736 0.465594 -0.169303
v 0.300957 0.447760 -0.120280
v 0.206562 0.396213 -0.080468
v 0.128265 0.328670 -0.049819
v 0.070239 0.241182 -0.030399
v 0.447795 0.453167 -0.106472
v 0.360513 0.426230 -0.020571
v 0.277459 0.371734 0.035459
v 0.190312 0.306164 0.055804
v 0.116312 0.225050 0.051096
v 0.040400 0.240095 -0.115730
v 0.086172 0.327327 -0.166941
v 0.260502 0.447785 -0.231244
v 0.398992 0.465298 -0.233990
v 0.512026 0.453629 -0.212826
v 0.047667 0.253591 -0.123754
v 0.386296 0.465867 -0.236434
v 0.370305 0.430953 -0.030023
v 0.000000 0.000000 0.000000
v 0.030564 0.363806 0.185775
v -0.082074 0.354218 0.325048
v -0.071741 0.363536 0.243341
v -0.056583 0.348320 0.169921
v -0.038729 0.320217 0.106151
v -0.017683 0.275991 0.054455
v -0.126398 0.335420 0.320235
v -0.143518 0.331413 0.238467
v -0.140641 0.310975 0.165247
v -0.114485 0.286596 0.100459
v -0.091002 0.251203 0.049255
v 0.040228 0.286765 0.067356
v 0.041091 0.335337 0.123254
v 0.003856 0.378799 0.259420
v -0.040722 0.361074 0.339243
v -0.086258 0.328804 0.392437
v 0.040362 0.294247 0.076141
v -0.035452 0.364234 0.333181
v -0.141972 0.332924 0.247829
v -0.153344 0.380372 -0.163302
v -0.113154 0.449144 -0.349265
v -0.088612 0.433176 -0.254696
v -0.063592 0.394075 -0.172672
v -0.040836 0.344055 -0.102992
v -0.020980 0.280815 -0.049154
v -0.065269 0.446529 -0.359858
v -0.011696 0.428051 -0.275192
v 0.025936 0.388593 -0.197731
v 0.040382 0.338962 -0.124126
v 0.041655 0.277066 -0.063773
v -0.081792 0.272642 -0.045352
v -0.124595 0.333142 -0.097175
v -0.168162 0.423655 -0.248793
v -0.158639 0.443907 -0.352358
v -0.131203 0.443764 -0.429695
v -0.088455 0.281993 -0.053515
v -0.161699 0.443411 -0.343703
v -0.017778 0.431306 -0.284710
vt 0.734369 0.829535
vt 0.734369 0.904970
vt 0.618738 0.840418
vt 0.920918 0.730368
vt 0.920918 0.846510
vt 0.845485 0.732401
vt 0.548026 0.578139
vt 0.467306 0.448192
vt 0.548026 0.400776
vt 0.589826 0.134544
vt 0.589826 0.304336
vt 0.505826 0.262396
vt 0.088667 0.915875
vt 0.088667 0.970029
vt 0.001602 0.942054
vt 0.437639 0.771192
vt 0.437639 0.862108
vt 0.378590 0.772787
vt 0.341331 0.477851
vt 0.341331 0.668943
vt 0.269018 0.657176
vt 0.619406 0.400776
vt 0.619406 0.606900
vt 0.551230 0.579293
vt 0.404348 0.868007
vt 0.404348 0.924314
vt 0.269018 0.872300
vt 0.198738 0.900401
vt 0.253765 0.776689
vt 0.253766 0.907982
vt 0.064096 0.699300
vt 0.001602 0.542152
vt 0.064096 0.507364
vt 0.754506 0.400776
vt 0.754506 0.570186
vt 0.686132 0.555457
vt 0.606833 0.844494
vt 0.606833 0.939818
vt 0.551230 0.855583
vt 0.404937 0.327717
vt 0.578465 0.320680
vt 0.578465 0.397572
vt 0.420989 0.651522
vt 0.344535 0.485791
vt 0.420989 0.477851
vt 0.713620 0.908174
vt 0.713620 0.970097
vt 0.618738 0.917346
vt 0.439237 0.672147
vt 0.439237 0.756252
vt 0.388593 0.681995
vt 0.659012 0.344168
vt 0.593030 0.158800
vt 0.659012 0.134544
vt 0.269018 0.449008
vt 0.464102 0.400776
vt 0.464102 0.474647
vt 0.966268 0.218649
vt 0.910128 0.213173
vt 0.966268 0.134544
vt 0.805113 0.968764
vt 0.836722 0.922417
vt 0.836722 0.982371
vt 0.595142 0.841289
vt 0.551230 0.626552
vt 0.595142 0.610105
vt 0.682927 0.400776
vt 0.682927 0.612037
vt 0.622610 0.611495
vt 0.460772 0.277778
vt 0.460772 0.315403
vt 0.404937 0.283224
vt 0.249442 0.672643
vt 0.249442 0.736878
vt 0.215288 0.682978
vt 0.814658 0.358678
vt 0.767360 0.141486
vt 0.814658 0.134544
vt 0.807608 0.623059
vt 0.757710 0.405260
vt 0.807608 0.400776
vt 0.462383 0.542085
vt 0.424193 0.542068
vt 0.462383 0.477851
vt 0.149278 0.146988
vt 0.265814 0.145073
vt 0.265814 0.274574
vt 0.147570 0.290627
vt 0.739788 0.799700
vt 0.737574 0.740696
vt 0.842280 0.730368
vt 0.842280 0.826540
vt 0.744053 0.714486
vt 0.733943 0.653394
vt 0.841504 0.628817
vt 0.841504 0.727163
vt 0.810813 0.517332
vt 0.903016 0.505304
vt 0.903016 0.610133
vt 0.813843 0.609124
vt 0.112637 0.663916
vt 0.101948 0.608634
vt 0.254127 0.579017
vt 0.254127 0.669439
vt 0.277267 0.016808
vt 0.408196 0.001602
vt 0.408196 0.118154
vt 0.267945 0.116098
vt 0.928479 0.946564
vt 0.845501 0.943958
vt 0.845485 0.870087
vt 0.928479 0.849714
vt 0.442551 0.594481
vt 0.548026 0.581343
vt 0.548026 0.696463
vt 0.445925 0.695266
vt 0.952745 0.001602
vt 0.952745 0.098386
vt 0.882910 0.077529
vt 0.869745 0.003383
vt 0.264741 0.127906
vt 0.133215 0.136539
vt 0.171144 0.001602
vt 0.264741 0.003476
vt 0.348073 0.978631
vt 0.342136 0.941478
vt 0.405057 0.927518
vt 0.405057 0.987195
vt 0.908880 0.571088
vt 0.906220 0.505304
vt 0.974966 0.511302
vt 0.974966 0.582278
vt 0.563218 0.001602
vt 0.563218 0.095284
vt 0.411401 0.063862
vt 0.414691 0.006934
vt 0.996256 0.924535
vt 0.996256 0.979910
vt 0.935968 0.977967
vt 0.931683 0.926413
vt 0.452049 0.828508
vt 0.546008 0.812596
vt 0.546008 0.905961
vt 0.442551 0.886810
vt 0.068781 0.519585
vt 0.143338 0.507364
vt 0.143338 0.569833
vt 0.067301 0.557812
vt 0.184580 0.959537
vt 0.177547 0.922000
vt 0.253766 0.911187
vt 0.253765 0.971026
vt 0.639556 0.616649
vt 0.730738 0.615241
vt 0.730738 0.716565
vt 0.622610 0.727163
vt 0.112375 0.889916
vt 0.174292 0.886256
vt 0.174292 0.959544
vt 0.101948 0.962836
vt 0.001602 0.017620
vt 0.130011 0.001602
vt 0.130011 0.141868
vt 0.005606 0.140421
vt 0.375386 0.864803
vt 0.269018 0.862419
vt 0.293916 0.784175
vt 0.375386 0.771192
vt 0.442551 0.712240
vt 0.543057 0.699667
vt 0.543057 0.809392
vt 0.445724 0.808360
vt 0.791953 0.105453
vt 0.775355 0.002796
vt 0.866540 0.001602
vt 0.866540 0.111327
vt 0.663506 0.241242
vt 0.662216 0.140413
vt 0.764156 0.134544
vt 0.764156 0.252430
vt 0.147570 0.564512
vt 0.158289 0.442167
vt 0.254127 0.441563
vt 0.254127 0.575813
vt 0.932385 0.914039
vt 0.931683 0.852777
vt 0.991088 0.849714
vt 0.991088 0.921331
vt 0.924122 0.738391
vt 0.985623 0.730368
vt 0.985623 0.800291
vt 0.926143 0.799618
vt 0.746474 0.906374
vt 0.737574 0.850673
vt 0.831905 0.829745
vt 0.831905 0.919213
vt 0.104306 0.705011
vt 0.212083 0.672643
vt 0.212083 0.773485
vt 0.101948 0.766884
vt 0.665401 0.119762
vt 0.566422 0.125101
vt 0.593990 0.005635
vt 0.665401 0.001602
vt 0.606833 0.998398
vt 0.542292 0.997013
vt 0.557199 0.950741
vt 0.606833 0.943022
vt 0.445099 0.972123
vt 0.442551 0.909706
vt 0.517947 0.909165
vt 0.517947 0.980141
vt 0.004298 0.494821
vt 0.001602 0.403176
vt 0.139061 0.397005
vt 0.139061 0.504159
vt 0.022421 0.267731
vt 0.001602 0.145073
vt 0.144366 0.148489
vt 0.144366 0.252723
vt 0.819546 0.245746
vt 0.903409 0.245117
vt 0.903409 0.341966
vt 0.817862 0.353100
vt 0.404563 0.149028
vt 0.502622 0.134544
vt 0.502622 0.257358
vt 0.396489 0.274574
vt 0.738984 0.942236
vt 0.801909 0.922417
vt 0.801909 0.983678
vt 0.737574 0.979825
vt 0.195533 0.883051
vt 0.101948 0.880872
vt 0.102270 0.804008
vt 0.195533 0.776689
vt 0.019336 0.363421
vt 0.001602 0.284148
vt 0.135373 0.270935
vt 0.135373 0.393801
vt 0.663584 0.257403
vt 0.759340 0.255634
vt 0.759340 0.361996
vt 0.662216 0.375281
vt 0.005250 0.810258
vt 0.001602 0.703927
vt 0.097363 0.702505
vt 0.097363 0.817624
vt 0.638916 0.826331
vt 0.622610 0.730368
vt 0.734369 0.733631
vt 0.734369 0.814590
vt 0.932889 0.622753
vt 0.988828 0.622334
vt 0.988828 0.686935
vt 0.931766 0.694361
vt 0.772151 0.100634
vt 0.668605 0.110239
vt 0.698904 0.001602
vt 0.772151 0.003148
vt 0.003716 0.850540
vt 0.098054 0.820828
vt 0.098054 0.912670
vt 0.001602 0.906895
vt 0.161134 0.301432
vt 0.254507 0.293832
vt 0.254507 0.427169
vt 0.147570 0.438359
vt 0.972176 0.387142
vt 0.906614 0.393152
vt 0.921780 0.335756
vt 0.972176 0.320740
vt 0.847815 0.720491
vt 0.844708 0.623757
vt 0.928562 0.622334
vt 0.928562 0.727163
vt 0.269018 0.747501
vt 0.276032 0.677911
vt 0.385389 0.672147
vt 0.385389 0.767987
vt 0.912137 0.458785
vt 0.911365 0.408692
vt 0.978128 0.400776
vt 0.978128 0.466155
vt 0.818914 0.230980
vt 0.817862 0.139136
vt 0.906923 0.134544
vt 0.906923 0.241912
vt 0.908160 0.502099
vt 0.810813 0.496902
vt 0.819610 0.421467
vt 0.908160 0.400776
vt 0.279396 0.301471
vt 0.401733 0.277778
vt 0.401733 0.397572
vt 0.269018 0.376214
vt 0.393284 0.274574
vt 0.269018 0.268162
vt 0.269680 0.174277
vt 0.393284 0.145073
vt 0.274382 0.928496
vt 0.338931 0.927518
vt 0.338931 0.983458
vt 0.269018 0.982272
vt 0.907669 0.312814
vt 0.906614 0.247443
vt 0.976514 0.245117
vt 0.976514 0.317535
vn -0.4705 0.8821 0.0250
vn -0.4187 0.8942 0.1586
vn 0.7874 0.5677 -0.2402
vn 0.6775 0.5522 -0.4858
vn -0.2336 0.9446 -0.2304
vn -0.3246 0.9384 -0.1188
vn 0.5884 0.4687 0.6589
vn 0.7681 0.4572 0.4484
vn -0.0559 0.8870 0.4584
vn 0.0597 0.9407 0.3338
vn -0.5358 0.6000 -0.5940
vn -0.7850 0.5420 -0.2999
vn 0.2335 0.8938 -0.3828
vn -0.4487 0.5408 0.7115
vn -0.2435 0.5223 0.8172
vn 0.3592 0.8805 -0.3094
vn 0.1080 0.9937 -0.0292
vn -0.9012 0.3017 0.3113
vn -0.8041 0.2989 0.5138
vn 0.1655 0.9807 0.1042
vn -0.2625 0.9081 0.3262
vn 0.1771 0.2014 -0.9634
vn 0.0040 0.1938 -0.9810
vn -0.3998 0.8656 0.3016
vn -0.1115 0.9929 -0.0414
vn 0.0380 0.1750 0.9838
vn 0.2338 0.1846 0.9546
vn 0.0378 0.9965 -0.0751
vn 0.1684 0.9294 -0.3285
vn -0.0260 0.9941 -0.1051
vn 0.2686 0.9583 -0.0972
vn 0.2688 0.9583 -0.0969
vn 0.2691 0.9583 -0.0964
vn -0.4331 0.8889 0.1491
vn -0.4328 0.8890 0.1492
vn -0.2034 0.9171 0.3428
vn 0.2739 0.9588 -0.0756
vn -0.6618 0.5608 0.4975
vn -0.6612 0.5612 0.4979
vn -0.6616 0.5609 0.4976
vn -0.0690 0.9950 0.0715
vn -0.0685 0.9951 0.0714
vn -0.7769 0.5695 0.2686
vn 0.6113 0.7737 -0.1664
vn -0.3956 0.9168 0.0540
vn -0.3961 0.9166 0.0536
vn -0.3960 0.9167 0.0537
vn -0.0613 0.8003 0.5964
vn -0.0560 0.9828 0.1758
vn -0.2299 0.7167 -0.6584
vn -0.2039 0.7089 -0.6752
vn -0.2376 0.7187 -0.6535
vn -0.2658 0.7253 -0.6351
vn -0.1430 0.9890 0.0382
vn -0.1430 0.9890 0.0378
vn -0.1430 0.9890 0.0379
vn -0.0989 0.9761 0.1935
vn -0.0994 0.9760 0.1939
vn 0.0863 0.9858 0.1443
vn 0.0870 0.9857 0.1445
vn 0.0872 0.9857 0.1445
vn 0.3878 0.9111 0.1395
vn 0.1629 0.9090 0.3837
vn 0.0955 0.9954 -0.0064
vn -0.3065 0.8357 0.4557
vn 0.0753 0.9629 0.2592
vn 0.2188 0.9034 0.3687
vn 0.1592 0.9695 0.1865
vn -0.5519 0.8298 0.0829
vn -0.3794 0.8872 -0.2624
vn -0.1354 0.9622 -0.2362
vn -0.1360 0.9622 -0.2358
vn -0.0569 0.9730 0.2238
vn -0.0569 0.9729 0.2242
vn -0.0569 0.9728 0.2245
vn -0.0570 0.9727 0.2250
vn 0.1045 0.9769 -0.1866
vn 0.1039 0.9769 -0.1866
vn -0.4822 0.7221 -0.4961
vn -0.4826 0.7219 -0.4960
vn -0.4829 0.7217 -0.4959
vn 0.0006 0.7570 -0.6535
vn -0.0806 0.8867 0.4552
vn -0.4109 0.8893 0.2005
vn -0.0037 0.9710 -0.2391
vn -0.4739 0.7596 0.4454
vn -0.2906 0.9375 -0.1915
vn -0.2171 0.9729 0.0801
vn -0.0629 0.8072 0.5869
vn -0.0622 0.8074 0.5868
vn -0.2707 0.9575 -0.0991
vn 0.0735 0.9297 0.3609
vn 0.0730 0.9297 0.3611
vn -0.1694 0.9582 0.2305
vn 0.2269 0.9721 0.0589
vn 0.2270 0.9721 0.0592
vn -0.3372 0.8256 -0.4525
vn -0.3377 0.8256 -0.4521
vn 0.4530 0.6696 0.5886
vn -0.1367 0.9892 0.0538
vn -0.2003 0.9788 -0.0432
vn -0.0337 0.6387 0.7687
vn -0.5932 0.7783 0.2059
vn -0.7453 0.6284 -0.2227
vn -0.7450 0.6287 -0.2228
vn 0.2163 0.6778 0.7027
vn 0.2168 0.6775 0.7029
vn -0.3165 0.8704 0.3772
vn 0.6488 0.6801 0.3413
vn 0.6487 0.6798 0.3421
vn -0.2042 0.9762 0.0735
vn -0.2039 0.9762 0.0737
vn -0.2046 0.9761 0.0731
vn -0.2047 0.9761 0.0730
vn 0.4988 0.7442 -0.4442
vn -0.0821 0.9024 -0.4230
vn -0.0818 0.9027 -0.4223
vn -0.0820 0.9025 -0.4227
vn 0.1935 0.8283 0.5258
g Plant_4_Plant_4_Collor_Material
usemtl Collor_Material
s off
f 14/1/1 9/2/1 1/3/1
f 14/4/2 1/5/2 2/6/2
f 95/7/3 10/8/3 4/9/3
f 95/10/4 5/11/4 10/12/4
f 28/13/5 23/14/5 16/15/5
f 28/16/6 16/17/6 17/18/6
f 95/19/7 24/20/7 19/21/7
f 95/22/8 20/23/8 24/24/8
f 43/25/9 38/26/9 30/27/9
f 43/28/10 30/29/10 75/30/10
f 95/31/11 39/32/11 34/33/11
f 95/34/12 35/35/12 39/36/12
f 45/37/13 59/38/13 58/39/13
f 95/40/14 49/41/14 55/42/14
f 95/43/15 54/44/15 49/45/15
f 45/46/16 50/47/16 59/48/16
f 77/49/17 91/50/17 90/51/17
f 95/52/18 81/53/18 87/54/18
f 95/55/19 86/56/19 81/57/19
f 77/58/20 82/59/20 91/60/20
f 97/61/21 111/62/21 110/63/21
f 95/64/22 101/65/22 107/66/22
f 95/67/23 106/68/23 101/69/23
f 97/70/24 102/71/24 111/72/24
f 116/73/25 130/74/25 129/75/25
f 95/76/26 120/77/26 126/78/26
f 95/79/27 125/80/27 120/81/27
f 116/82/28 121/83/28 130/84/28
f 12/85/29 11/86/29 6/87/29 7/88/29
f 64/89/30 28/90/30 27/91/30 22/92/30
f 50/93/31 45/94/31 46/95/32 71/96/33
f 89/97/34 76/98/35 79/99/35 78/100/35
f 38/101/36 43/102/36 42/103/36 37/104/36
f 63/105/37 11/106/37 12/107/37 15/108/37
f 80/109/38 81/110/39 86/111/40 85/112/39
f 57/113/41 44/114/41 47/115/42 46/116/41
f 80/117/43 88/118/43 92/119/43 81/120/43
f 11/121/44 63/122/44 4/123/44 10/124/44
f 102/125/45 97/126/45 98/127/46 114/128/47
f 127/129/48 119/130/48 118/131/48 115/132/48
f 32/133/49 42/134/49 43/135/49 31/136/49
f 100/137/50 101/138/51 106/139/52 105/140/53
f 17/141/54 65/142/54 27/143/55 28/144/56
f 132/145/57 128/146/57 117/147/58 116/148/57
f 121/149/59 116/150/60 117/151/61 133/152/61
f 26/153/62 25/154/62 21/155/62 66/156/62
f 122/157/63 117/158/63 118/159/63 123/160/63
f 3/161/64 15/162/64 12/163/64 13/164/64
f 48/165/65 56/166/65 69/167/65 49/168/65
f 18/169/66 29/170/66 26/171/66 27/172/66
f 67/173/67 25/174/67 26/175/67 29/176/67
f 51/177/68 46/178/68 47/179/68 52/180/68
f 41/181/69 40/182/69 72/183/69 36/184/69
f 103/185/70 98/186/70 99/187/70 104/188/70
f 109/189/71 96/190/71 99/191/72 98/192/71
f 82/193/73 77/194/74 78/195/75 94/196/76
f 70/197/77 57/198/77 46/199/78 45/200/77
f 40/201/79 33/202/80 34/203/80 39/204/81
f 100/205/82 108/206/82 112/207/82 101/208/82
f 117/209/83 128/210/83 115/211/83 118/212/83
f 74/213/84 42/214/84 41/215/84 36/216/84
f 13/217/85 12/218/85 60/219/85 8/220/85
f 79/221/86 80/222/86 85/223/86 84/224/86
f 33/225/87 40/226/87 41/227/87 73/228/87
f 113/229/88 109/230/88 98/231/88 97/232/88
f 48/233/89 49/234/89 54/235/89 53/236/90
f 61/237/91 14/238/91 13/239/91 8/240/91
f 47/241/92 48/242/93 53/243/93 52/244/93
f 56/245/94 48/246/94 47/247/94 44/248/94
f 27/249/95 26/250/95 66/251/96 22/252/95
f 99/253/97 100/254/97 105/255/98 104/256/97
f 25/257/99 67/258/99 19/259/99 24/260/99
f 93/261/100 89/262/100 78/263/100 77/264/100
f 42/265/101 32/266/101 73/267/101 41/268/101
f 119/269/102 127/270/102 131/271/102 120/272/102
f 88/273/103 80/274/103 79/275/103 76/276/103
f 39/277/104 35/278/104 72/279/105 40/280/104
f 120/281/106 125/282/106 124/283/107 119/284/106
f 83/285/108 78/286/108 79/287/108 84/288/108
f 25/289/109 24/290/109 68/291/109 21/292/110
f 2/293/111 62/294/112 13/295/113 14/296/114
f 11/297/115 10/298/115 5/299/115 6/300/115
f 108/301/116 100/302/117 99/303/118 96/304/118
f 119/305/119 124/306/119 123/307/119 118/308/119
