# Blender v3.0.0 OBJ File: 'aa.blend'
# www.blender.org
mtllib Plant_2.mtl
o Plant_2
v 0.066488 0.419140 -0.160517
v -0.000000 0.372757 -0.254860
v -0.066488 0.419140 -0.160517
v 0.000000 0.230393 -0.313150
v 0.000000 0.093400 -0.253344
v 0.000000 0.008733 -0.096769
v 0.068426 0.465523 -0.068426
v 0.180213 0.372757 -0.180213
v -0.160517 0.419140 -0.066489
v 0.221431 0.230393 -0.221431
v 0.179141 0.093400 -0.179141
v 0.068426 0.008733 -0.068426
v 0.252904 0.230393 -0.104756
v 0.254859 0.372757 -0.000000
v 0.198755 0.419140 -0.000000
v 0.313150 0.230393 -0.000000
v 0.253344 0.093400 -0.000000
v 0.096769 0.008733 0.000000
v 0.000000 -0.002674 0.000000
v 0.180213 0.372757 0.180212
v -0.140541 0.419140 0.140541
v 0.221431 0.230393 0.221430
v 0.179141 0.093400 0.179141
v 0.068426 0.008733 0.068426
v 0.000000 0.465523 0.096768
v -0.000000 0.372757 0.254859
v -0.160517 0.419140 0.066488
v 0.000000 0.230393 0.313150
v 0.000000 0.093400 0.253344
v 0.000000 0.008733 0.096769
v -0.000000 0.463461 -0.000000
v -0.180213 0.372757 0.180212
v -0.066488 0.419140 0.160517
v -0.221431 0.230393 0.221430
v -0.179141 0.093400 0.179141
v -0.068426 0.008733 0.068426
v 0.078152 0.008733 -0.032371
v -0.254859 0.372757 -0.000000
v -0.000000 0.419140 -0.198755
v -0.313150 0.230393 -0.000000
v -0.253344 0.093400 -0.000000
v -0.096769 0.008733 0.000000
v 0.205828 0.372757 -0.085257
v -0.180213 0.372757 -0.180213
v 0.140541 0.419140 -0.140541
v -0.221430 0.230393 -0.221431
v -0.179141 0.093400 -0.179141
v -0.068426 0.008733 -0.068426
v 0.032371 0.465523 -0.078152
v 0.084750 0.093400 -0.204604
v 0.140541 0.419140 0.140541
v 0.104756 0.230393 -0.252904
v 0.032371 0.008733 -0.078152
v 0.085257 0.372757 -0.205828
v -0.032371 0.465523 -0.078152
v -0.084750 0.093400 -0.204604
v 0.160517 0.419140 -0.066489
v -0.104756 0.230393 -0.252904
v 0.078152 0.465523 0.032371
v 0.000000 0.465523 -0.096769
v 0.204604 0.093400 0.084750
v 0.066488 0.419140 0.160517
v 0.078152 0.008733 0.032371
v 0.205828 0.372757 0.085256
v 0.096769 0.465523 -0.000000
v 0.068426 0.465523 0.068426
v 0.252904 0.230393 0.104756
v 0.032371 0.465523 0.078151
v -0.000000 0.419140 0.198755
v -0.068426 0.465523 0.068426
v 0.032371 0.008733 0.078152
v 0.085257 0.372757 0.205827
v -0.096769 0.465523 -0.000000
v 0.104756 0.230393 0.252904
v 0.084750 0.093400 0.204604
v -0.068426 0.465523 -0.068426
v -0.032371 0.008733 -0.078152
v -0.085257 0.372757 -0.205828
v -0.078152 0.465523 -0.032372
v -0.204604 0.093400 -0.084750
v -0.078152 0.008733 -0.032371
v -0.205828 0.372757 -0.085257
v -0.198755 0.419140 -0.000000
v -0.252904 0.230393 -0.104756
v -0.078152 0.465523 0.032371
v -0.252904 0.230393 0.104756
v -0.204604 0.093400 0.084750
v -0.078152 0.008733 0.032371
v -0.205828 0.372757 0.085256
v -0.140541 0.419140 -0.140541
v -0.032371 0.465523 0.078151
v -0.032371 0.008733 0.078152
v -0.085257 0.372757 0.205827
v -0.104756 0.230393 0.252904
v 0.160517 0.419140 0.066488
v -0.084750 0.093400 0.204604
v 0.078152 0.465523 -0.032372
v 0.204604 0.093400 -0.084750
v -0.000000 0.298890 -0.300359
v 0.212386 0.298890 -0.212386
v 0.300359 0.298890 -0.000000
v 0.212386 0.298890 0.212385
v 0.242573 0.298890 0.100477
v -0.000000 0.298890 0.300358
v -0.212386 0.298890 0.212385
v -0.300359 0.298890 -0.000000
v -0.212386 0.298890 -0.212386
v 0.100477 0.298890 0.242573
v -0.100477 0.298890 0.242573
v 0.242573 0.298890 -0.100477
v -0.242573 0.298890 0.100477
v -0.242573 0.298890 -0.100477
v -0.100477 0.298890 -0.242574
v 0.100477 0.298890 -0.242574
v 0.067504 0.469851 -0.067568
v 0.036256 0.469938 -0.087407
v -0.036149 0.469939 -0.087407
v 0.087532 0.469965 0.036234
v 0.036256 0.469938 0.087393
v -0.067571 0.469853 -0.067504
v -0.087349 0.469941 -0.036218
v -0.087348 0.469940 0.036197
v -0.036186 0.469971 0.087493
v 0.087448 0.469937 -0.036206
v 0.005892 0.474325 -0.005981
v -0.067658 0.469962 0.067389
v -0.095514 0.469853 0.000057
v 0.095556 0.469881 -0.000045
v 0.052860 0.496240 -0.127494
v -0.052754 0.496240 -0.127493
v 0.126615 0.493165 0.053857
v 0.003903 0.496289 -0.131317
v 0.129605 0.493241 0.007149
v 0.052885 0.496368 0.127588
v -0.125098 0.495091 -0.053772
v -0.127440 0.496242 0.052803
v -0.053140 0.494689 0.130526
v 0.127502 0.496211 -0.052797
v -0.095251 0.496287 0.090950
v 0.089833 0.496400 0.095828
v -0.130080 0.495127 -0.002652
v 0.096674 0.496297 -0.087631
v -0.003493 0.494749 0.134324
v -0.090104 0.496289 -0.095610
v 0.000043 0.469890 0.095570
v 0.067603 0.469864 0.067521
v -0.000051 0.469854 -0.095515
v -0.092655 0.495126 -0.093009
v -0.131664 0.496287 0.003040
v -0.003895 0.496289 -0.131320
v 0.130323 0.496297 -0.006395
v 0.004243 0.496412 0.131295
v 0.090094 0.496289 -0.095616
v 0.095788 0.493234 0.088779
v -0.091193 0.494749 0.097996
v 0.058005 0.526719 -0.139915
v -0.057897 0.526741 -0.139909
v 0.139942 0.526718 0.057948
v 0.009073 0.526864 -0.141963
v 0.141030 0.526819 0.011403
v 0.056866 0.518595 0.141177
v -0.137474 0.525853 -0.058888
v -0.139825 0.526975 0.057915
v -0.058265 0.525115 0.142901
v 0.140031 0.526765 -0.058038
v -0.106403 0.527075 0.094829
v 0.092603 0.518727 0.108099
v -0.140715 0.525953 -0.007764
v 0.109878 0.526855 -0.086551
v -0.008640 0.525249 0.144914
v -0.093997 0.526842 -0.106779
v -0.103789 0.525945 -0.096917
v -0.142291 0.527086 0.008191
v -0.009041 0.526842 -0.141970
v 0.138903 0.526817 -0.016468
v 0.008406 0.518736 0.142976
v 0.093966 0.526863 -0.106800
v 0.107787 0.526812 0.091661
v -0.095043 0.525250 0.109122
v 0.049422 0.549622 -0.119194
v -0.049265 0.549663 -0.119069
v 0.119145 0.549651 0.049323
v 0.019699 0.549705 -0.115569
v 0.116086 0.549736 0.018477
v 0.049290 0.549899 0.118927
v -0.122889 0.555819 -0.050952
v -0.124732 0.556554 0.049154
v -0.049668 0.548023 0.122145
v 0.113230 0.553991 -0.055105
v -0.099195 0.556582 0.071267
v 0.068294 0.550002 0.095192
v -0.121419 0.555907 -0.015209
v 0.089616 0.554199 -0.074798
v -0.018424 0.548103 0.118870
v -0.071707 0.549737 -0.094013
v -0.096646 0.555849 -0.075104
v -0.122094 0.556661 0.015871
v -0.015775 0.549737 -0.117182
v 0.111229 0.553954 -0.023095
v 0.019022 0.549957 0.115636
v 0.067789 0.549705 -0.095651
v 0.095150 0.549736 0.069020
v -0.069708 0.548103 0.097624
v 0.068426 0.467585 -0.068426
v 0.000000 0.467585 0.096768
v 0.036779 0.467585 -0.088668
v -0.036671 0.467585 -0.088668
v 0.088716 0.467585 0.036718
v 0.096769 0.467585 -0.000000
v 0.036779 0.467585 0.088655
v -0.088607 0.467585 -0.036731
v -0.088607 0.467585 0.036718
v -0.036671 0.467585 0.088655
v 0.088716 0.467585 -0.036731
v -0.000000 0.465523 -0.000000
v 0.068426 0.467585 0.068426
v -0.096769 0.467585 -0.000000
v -0.068426 0.467585 -0.068426
v 0.053988 0.494912 -0.130215
v -0.053880 0.494912 -0.130215
v 0.129310 0.491810 0.054992
v 0.004180 0.494912 -0.134209
v 0.132454 0.491810 0.007387
v 0.053988 0.494912 0.130200
v -0.127812 0.493756 -0.054905
v -0.130161 0.494912 0.053930
v -0.054245 0.493303 0.133205
v 0.130246 0.494912 -0.053934
v -0.097503 0.494912 0.092788
v 0.091620 0.494912 0.097991
v -0.132973 0.493757 -0.002975
v 0.098866 0.494912 -0.089527
v -0.003756 0.493303 0.137156
v -0.091951 0.494912 -0.097853
v -0.068426 0.467585 0.068426
v 0.000000 0.467585 -0.096769
v -0.094924 0.493756 -0.094833
v -0.134556 0.494912 0.003333
v -0.004174 0.494912 -0.134212
v 0.133214 0.494912 -0.006604
v 0.004506 0.494912 0.134075
v 0.091944 0.494912 -0.097856
v 0.097973 0.491810 0.090631
v -0.093006 0.493303 0.100187
v 0.059303 0.527173 -0.143046
v -0.059195 0.527173 -0.143046
v 0.143078 0.527173 0.059236
v 0.009187 0.527173 -0.145380
v 0.144441 0.527173 0.011473
v 0.058157 0.518762 0.144363
v -0.140643 0.526018 -0.060219
v -0.142992 0.527173 0.059245
v -0.059560 0.525564 0.146036
v 0.143191 0.527173 -0.059296
v -0.108939 0.527174 0.097155
v 0.094965 0.518762 0.110606
v -0.144153 0.526018 -0.007963
v 0.112275 0.527173 -0.088987
v -0.008756 0.525564 0.148330
v -0.096309 0.527173 -0.109293
v -0.106356 0.526018 -0.099212
v -0.145731 0.527173 0.008332
v -0.009181 0.527173 -0.145383
v 0.142314 0.527173 -0.016468
v 0.008506 0.518762 0.146419
v 0.096303 0.527173 -0.109296
v 0.110248 0.527173 0.094022
v -0.097371 0.525564 0.111624
v 0.050445 0.551242 -0.121660
v -0.050302 0.551242 -0.121576
v 0.121641 0.551242 0.050356
v 0.019664 0.551242 -0.118326
v 0.118873 0.551242 0.018428
v 0.050436 0.551242 0.121627
v -0.125791 0.556890 -0.052123
v -0.127604 0.557689 0.050290
v -0.050690 0.549633 0.124623
v 0.115757 0.555471 -0.056341
v -0.101406 0.557689 0.073449
v 0.070449 0.551242 0.097300
v -0.124599 0.556890 -0.015292
v 0.091634 0.555471 -0.077005
v -0.018401 0.549633 0.121634
v -0.073660 0.551242 -0.096004
v -0.098924 0.556890 -0.077277
v -0.125250 0.557689 0.015885
v -0.015799 0.551242 -0.119970
v 0.114004 0.555471 -0.022999
v 0.018987 0.551242 0.118616
v 0.069764 0.551242 -0.097574
v 0.097087 0.551242 0.071024
v -0.071674 0.549633 0.099567
vt 0.868934 0.435046
vt 0.846100 0.379483
vt 0.868934 0.366471
vt 0.920289 0.574360
vt 0.897505 0.519340
vt 0.920289 0.506241
vt 0.897077 0.435046
vt 0.874243 0.379483
vt 0.897077 0.366471
vt 0.739866 0.912142
vt 0.717082 0.857122
vt 0.739866 0.844023
vt 0.868725 0.288263
vt 0.845891 0.232700
vt 0.868725 0.219687
vt 0.921991 0.665732
vt 0.899207 0.610712
vt 0.921991 0.597613
vt 0.504897 0.918286
vt 0.482113 0.863266
vt 0.504897 0.850166
vt 0.873988 0.831445
vt 0.851153 0.775882
vt 0.873988 0.762870
vt 0.924962 0.287807
vt 0.902178 0.232787
vt 0.924962 0.219687
vt 0.873988 0.757560
vt 0.851153 0.701997
vt 0.873988 0.688985
vt 0.894773 0.213686
vt 0.871939 0.158122
vt 0.894773 0.145110
vt 0.445962 0.918286
vt 0.423178 0.863266
vt 0.445962 0.850166
vt 0.902131 0.757560
vt 0.879297 0.701997
vt 0.902131 0.688985
vt 0.922867 0.213230
vt 0.900083 0.158210
vt 0.922867 0.145110
vt 0.097300 0.898669
vt 0.074466 0.843106
vt 0.097300 0.830094
vt 0.902081 0.904874
vt 0.879297 0.849854
vt 0.902081 0.836755
vt 0.780349 0.671506
vt 0.752833 0.597613
vt 0.806459 0.603783
vt 0.806459 0.674510
vt 0.479696 0.383885
vt 0.505819 0.381005
vt 0.505819 0.494273
vt 0.437428 0.501813
vt 0.590401 0.790877
vt 0.637700 0.771192
vt 0.637700 0.840409
vt 0.590401 0.844856
vt 0.893897 0.597613
vt 0.893897 0.666188
vt 0.871063 0.653176
vt 0.386511 0.849285
vt 0.386511 0.917404
vt 0.363727 0.904305
vt 0.509630 0.762878
vt 0.482113 0.688985
vt 0.535739 0.695155
vt 0.535739 0.765882
vt 0.553396 0.005535
vt 0.579519 0.002655
vt 0.579519 0.115922
vt 0.511128 0.123462
vt 0.199416 0.230641
vt 0.268149 0.227480
vt 0.268149 0.330675
vt 0.183191 0.334583
vt 0.584829 0.378970
vt 0.584829 0.309753
vt 0.643762 0.313360
vt 0.643762 0.394934
vt 0.902131 0.762870
vt 0.902131 0.831445
vt 0.879297 0.818433
vt 0.363727 0.588696
vt 0.363727 0.507122
vt 0.422660 0.523086
vt 0.422660 0.592303
vt 0.414605 0.849285
vt 0.414605 0.917404
vt 0.391821 0.904305
vt 0.575371 0.576339
vt 0.575371 0.507122
vt 0.634303 0.510729
vt 0.634303 0.592303
vt 0.756841 0.464450
vt 0.703215 0.470620
vt 0.730732 0.396727
vt 0.756841 0.393723
vt 0.553396 0.372816
vt 0.511128 0.254889
vt 0.579519 0.262429
vt 0.579519 0.375696
vt 0.087613 0.231387
vt 0.087613 0.334583
vt 0.018880 0.331421
vt 0.002655 0.227480
vt 0.297457 0.558759
vt 0.356390 0.542795
vt 0.356390 0.624370
vt 0.297457 0.627977
vt 0.896869 0.219687
vt 0.896869 0.288263
vt 0.874035 0.275251
vt 0.581796 0.840371
vt 0.581796 0.908491
vt 0.559012 0.895391
vt 0.476804 0.850166
vt 0.476804 0.918286
vt 0.454019 0.905186
vt 0.479696 0.005535
vt 0.505819 0.002655
vt 0.505819 0.115922
vt 0.437428 0.123462
vt 0.476804 0.598627
vt 0.476804 0.683675
vt 0.427969 0.679187
vt 0.427969 0.597613
vt 0.267924 0.739639
vt 0.214298 0.745810
vt 0.241815 0.671916
vt 0.267924 0.668912
vt 0.199416 0.118228
vt 0.268149 0.115067
vt 0.268149 0.218263
vt 0.183191 0.222170
vt 0.470476 0.825172
vt 0.423178 0.844857
vt 0.423178 0.775639
vt 0.470476 0.771192
vt 0.895242 0.070738
vt 0.895242 0.139313
vt 0.872408 0.126301
vt 0.289684 0.230641
vt 0.358417 0.227480
vt 0.358417 0.330675
vt 0.273459 0.334583
vt 0.532991 0.850166
vt 0.532991 0.918286
vt 0.510207 0.905186
vt 0.432118 0.136312
vt 0.432118 0.249579
vt 0.405995 0.246699
vt 0.363727 0.128772
vt 0.450695 0.762878
vt 0.423178 0.688985
vt 0.476804 0.695155
vt 0.476804 0.765882
vt 0.643762 0.469461
vt 0.584829 0.485425
vt 0.584829 0.403851
vt 0.643762 0.400244
vt 0.892196 0.506241
vt 0.892196 0.574817
vt 0.869362 0.561804
vt 0.865754 0.597613
vt 0.865754 0.666188
vt 0.842920 0.653176
vt 0.109148 0.005816
vt 0.177881 0.002655
vt 0.177881 0.105850
vt 0.092923 0.109758
vt 0.061588 0.647639
vt 0.002655 0.663603
vt 0.002655 0.582028
vt 0.061588 0.578421
vt 0.923336 0.070738
vt 0.923336 0.138857
vt 0.900551 0.125758
vt 0.579519 0.136312
vt 0.579519 0.249579
vt 0.553396 0.246699
vt 0.511128 0.128772
vt 0.730732 0.385409
vt 0.703215 0.311515
vt 0.756841 0.317686
vt 0.756841 0.388413
vt 0.358417 0.006562
vt 0.358417 0.109758
vt 0.289685 0.106597
vt 0.273459 0.002655
vt 0.809449 0.382540
vt 0.809449 0.451757
vt 0.762151 0.432072
vt 0.762151 0.378092
vt 0.709519 0.834482
vt 0.709519 0.903057
vt 0.686685 0.890045
vt 0.643762 0.222869
vt 0.643762 0.304444
vt 0.584829 0.288479
vt 0.584829 0.219262
vt 0.613185 0.850166
vt 0.613185 0.918285
vt 0.590401 0.905186
vt 0.553396 0.498932
vt 0.511128 0.381005
vt 0.579519 0.388545
vt 0.579519 0.501813
vt 0.702962 0.759712
vt 0.649337 0.765882
vt 0.676853 0.691989
vt 0.702962 0.688985
vt 0.479696 0.257769
vt 0.505819 0.254889
vt 0.505819 0.368156
vt 0.437428 0.375696
vt 0.018880 0.118228
vt 0.087613 0.115067
vt 0.087613 0.218263
vt 0.002655 0.222170
vt 0.762151 0.318803
vt 0.809449 0.299118
vt 0.809449 0.368335
vt 0.762151 0.372783
vt 0.665843 0.834482
vt 0.665843 0.903057
vt 0.643009 0.890045
vt 0.814506 0.693432
vt 0.814506 0.762649
vt 0.767208 0.742964
vt 0.767208 0.688985
vt 0.873938 0.836755
vt 0.873938 0.904874
vt 0.851153 0.891775
vt 0.055263 0.820336
vt 0.055263 0.751119
vt 0.102562 0.770804
vt 0.102562 0.824784
vt 0.266025 0.455185
vt 0.292148 0.452305
vt 0.292148 0.565572
vt 0.223757 0.573112
vt 0.351083 0.795385
vt 0.297457 0.801555
vt 0.324974 0.727662
vt 0.351083 0.724658
vt 0.804658 0.056635
vt 0.757359 0.076320
vt 0.757359 0.007102
vt 0.804658 0.002655
vt 0.698689 0.602101
vt 0.747523 0.597613
vt 0.747523 0.682661
vt 0.698689 0.683675
vt 0.273231 0.594385
vt 0.273231 0.663603
vt 0.214298 0.659996
vt 0.214298 0.578421
vt 0.109148 0.331422
vt 0.092923 0.227480
vt 0.177881 0.231387
vt 0.177881 0.334583
vt 0.150056 0.647639
vt 0.150056 0.578421
vt 0.208989 0.582028
vt 0.208989 0.663603
vt 0.018880 0.443834
vt 0.002655 0.339892
vt 0.087613 0.343800
vt 0.087613 0.446995
vt 0.207778 0.755567
vt 0.207778 0.824784
vt 0.160480 0.805099
vt 0.160480 0.751119
vt 0.118623 0.570232
vt 0.076355 0.452305
vt 0.144747 0.459845
vt 0.144747 0.573112
vt 0.199416 0.106597
vt 0.183191 0.002655
vt 0.268149 0.006562
vt 0.268149 0.109758
vt 0.801527 0.576968
vt 0.747901 0.583139
vt 0.775418 0.509245
vt 0.801527 0.506241
vt 0.192324 0.455185
vt 0.218447 0.452305
vt 0.218447 0.565572
vt 0.150056 0.573112
vt 0.756841 0.290871
vt 0.703215 0.297041
vt 0.730732 0.223148
vt 0.756841 0.220144
vt 0.584829 0.144736
vt 0.643762 0.128772
vt 0.643762 0.210346
vt 0.584829 0.213953
vt 0.177881 0.118975
vt 0.177881 0.222170
vt 0.109148 0.219009
vt 0.092923 0.115067
vt 0.479696 0.131652
vt 0.505819 0.128772
vt 0.505819 0.242039
vt 0.437428 0.249579
vt 0.168115 0.742805
vt 0.140598 0.668912
vt 0.194224 0.675083
vt 0.194224 0.745810
vt 0.639613 0.510729
vt 0.688447 0.506241
vt 0.688447 0.591289
vt 0.639613 0.592303
vt 0.109148 0.343053
vt 0.177881 0.339892
vt 0.177881 0.443088
vt 0.092923 0.446995
vt 0.432118 0.010195
vt 0.432118 0.123462
vt 0.405995 0.120582
vt 0.363727 0.002655
vt 0.417353 0.758831
vt 0.363727 0.765001
vt 0.391244 0.691108
vt 0.417353 0.688104
vt 0.649071 0.487935
vt 0.649071 0.402887
vt 0.697906 0.407375
vt 0.697906 0.488950
vt 0.076355 0.582028
vt 0.135288 0.578421
vt 0.135288 0.647639
vt 0.076355 0.663603
vt 0.735789 0.762878
vt 0.708272 0.688985
vt 0.761898 0.695155
vt 0.761898 0.765882
vt 0.757359 0.148457
vt 0.804658 0.128772
vt 0.804658 0.197989
vt 0.757359 0.202436
vt 0.268149 0.343800
vt 0.268149 0.446995
vt 0.199416 0.443834
vt 0.183191 0.339892
vt 0.356390 0.468269
vt 0.356390 0.537486
vt 0.297457 0.533879
vt 0.297457 0.452305
vt 0.762151 0.239829
vt 0.809449 0.220144
vt 0.809449 0.289361
vt 0.762151 0.293808
vt 0.405995 0.257769
vt 0.432118 0.254889
vt 0.432118 0.368156
vt 0.363727 0.375696
vt 0.289684 0.118228
vt 0.358417 0.115067
vt 0.358417 0.218263
vt 0.273459 0.222170
vt 0.363727 0.601220
vt 0.422660 0.597613
vt 0.422660 0.666830
vt 0.363727 0.682794
vt 0.030172 0.742805
vt 0.002655 0.668912
vt 0.056281 0.675083
vt 0.056281 0.745810
vt 0.585091 0.598627
vt 0.585091 0.683675
vt 0.536257 0.679187
vt 0.536257 0.597613
vt 0.018880 0.005816
vt 0.087613 0.002655
vt 0.087613 0.105850
vt 0.002655 0.109758
vt 0.570061 0.588696
vt 0.511128 0.592303
vt 0.511128 0.523086
vt 0.570061 0.507122
vt 0.094414 0.742805
vt 0.066897 0.668912
vt 0.120523 0.675083
vt 0.120523 0.745810
vt 0.649071 0.316003
vt 0.697906 0.311515
vt 0.697906 0.396564
vt 0.649071 0.397578
vt 0.071046 0.459845
vt 0.071046 0.573112
vt 0.044923 0.570232
vt 0.002655 0.452305
vt 0.213088 0.770804
vt 0.260387 0.751119
vt 0.260387 0.820336
vt 0.213088 0.824784
vt 0.693379 0.598627
vt 0.693379 0.683675
vt 0.644545 0.679187
vt 0.644545 0.597613
vt 0.649071 0.007143
vt 0.697906 0.002655
vt 0.697906 0.087703
vt 0.649071 0.088717
vt 0.002655 0.820336
vt 0.002655 0.751119
vt 0.049953 0.770804
vt 0.049953 0.824784
vt 0.363727 0.839528
vt 0.363727 0.770311
vt 0.411026 0.789996
vt 0.411026 0.843975
vt 0.767208 0.837176
vt 0.767208 0.767959
vt 0.814506 0.787644
vt 0.814506 0.841624
vt 0.639235 0.679187
vt 0.590401 0.683675
vt 0.590401 0.598627
vt 0.639235 0.597613
vt 0.649071 0.133260
vt 0.697906 0.128772
vt 0.697906 0.213820
vt 0.649071 0.214834
vt 0.703215 0.087703
vt 0.703215 0.002655
vt 0.752049 0.007143
vt 0.752050 0.088717
vt 0.752049 0.129786
vt 0.752049 0.214834
vt 0.703215 0.210346
vt 0.703215 0.128772
vt 0.693757 0.591289
vt 0.693757 0.506241
vt 0.742591 0.510729
vt 0.742591 0.592303
vt 0.107871 0.770804
vt 0.155170 0.751119
vt 0.155170 0.820336
vt 0.107871 0.824784
vt 0.482113 0.682661
vt 0.482113 0.597613
vt 0.530948 0.602101
vt 0.530948 0.683675
vt 0.346292 0.714860
vt 0.297457 0.719348
vt 0.297457 0.634300
vt 0.346292 0.633286
vt 0.427969 0.576339
vt 0.427969 0.507122
vt 0.486902 0.510729
vt 0.486902 0.592303
vt 0.482113 0.840409
vt 0.482113 0.771192
vt 0.529412 0.790877
vt 0.529412 0.844857
vt 0.643762 0.084229
vt 0.584829 0.087836
vt 0.584829 0.018619
vt 0.643762 0.002655
vt 0.289684 0.443834
vt 0.273459 0.339892
vt 0.358417 0.343800
vt 0.358417 0.446995
vt 0.405995 0.498933
vt 0.363727 0.381005
vt 0.432118 0.388545
vt 0.432118 0.501813
vt 0.644027 0.759712
vt 0.590401 0.765882
vt 0.617918 0.691989
vt 0.644027 0.688985
vt 0.697906 0.301718
vt 0.649071 0.306206
vt 0.649071 0.221158
vt 0.697906 0.220144
vt 0.804142 0.123462
vt 0.737616 0.111607
vt 0.804142 0.096957
vt 0.332234 0.854478
vt 0.265696 0.842587
vt 0.332234 0.827992
vt 0.840804 0.293573
vt 0.840804 0.361161
vt 0.814759 0.298217
vt 0.845844 0.688985
vt 0.845844 0.756550
vt 0.819816 0.693599
vt 0.174383 0.856526
vt 0.107871 0.844806
vt 0.174383 0.830094
vt 0.814759 0.282528
vt 0.840581 0.220144
vt 0.840581 0.288263
vt 0.743161 0.771192
vt 0.743161 0.838713
vt 0.717082 0.775784
vt 0.709519 0.829172
vt 0.643009 0.817393
vt 0.709519 0.802669
vt 0.356393 0.749289
vt 0.358238 0.724658
vt 0.358238 0.750850
vt 0.545746 0.838246
vt 0.543645 0.813634
vt 0.545746 0.812907
vt 0.536818 0.838586
vt 0.534721 0.813641
vt 0.536818 0.812907
vt 0.356393 0.779692
vt 0.358256 0.756159
vt 0.358256 0.781229
vt 0.635456 0.874383
vt 0.633340 0.850872
vt 0.635456 0.850166
vt 0.503977 0.571198
vt 0.505819 0.546233
vt 0.505819 0.572763
vt 0.552591 0.748747
vt 0.554452 0.725091
vt 0.554452 0.750284
vt 0.958909 0.073736
vt 0.981771 0.070738
vt 0.981771 0.105299
vt 0.958496 0.108217
vt 0.356818 0.819617
vt 0.356818 0.854478
vt 0.338103 0.850494
vt 0.337543 0.815349
vt 0.277229 0.973192
vt 0.275950 0.948048
vt 0.300844 0.942001
vt 0.300844 0.978053
vt 0.713171 0.476092
vt 0.713171 0.500362
vt 0.711053 0.499426
vt 0.710841 0.475930
vt 0.149360 0.864271
vt 0.174383 0.861835
vt 0.174383 0.894775
vt 0.148911 0.897034
vt 0.954071 0.644562
vt 0.954071 0.678139
vt 0.927737 0.675825
vt 0.927301 0.642199
vt 0.037201 0.904534
vt 0.037201 0.935978
vt 0.011119 0.938255
vt 0.002655 0.903563
vt 0.903100 0.029383
vt 0.905712 0.003032
vt 0.937220 0.002655
vt 0.937220 0.039382
vt 0.948065 0.460341
vt 0.948065 0.491441
vt 0.921918 0.492161
vt 0.915492 0.457066
vt 0.941920 0.762758
vt 0.907441 0.763638
vt 0.915988 0.728968
vt 0.941920 0.731319
vt 0.941702 0.911533
vt 0.907391 0.912748
vt 0.915666 0.877896
vt 0.941702 0.880080
vt 0.097300 0.904915
vt 0.097300 0.936362
vt 0.071225 0.938668
vt 0.062752 0.903979
vt 0.910870 0.366471
vt 0.937224 0.368529
vt 0.937224 0.401229
vt 0.902387 0.402519
vt 0.902081 0.912415
vt 0.902081 0.943517
vt 0.875641 0.945182
vt 0.868757 0.910184
vt 0.581796 0.945663
vt 0.549237 0.948883
vt 0.555727 0.913800
vt 0.581796 0.914610
vt 0.869784 0.458555
vt 0.869784 0.492118
vt 0.843364 0.494155
vt 0.833981 0.457066
vt 0.941925 0.722745
vt 0.907441 0.723658
vt 0.915979 0.688985
vt 0.941925 0.691303
vt 0.649899 0.908367
vt 0.676354 0.908627
vt 0.676354 0.939423
vt 0.643009 0.943364
vt 0.941705 0.770257
vt 0.941705 0.801729
vt 0.915667 0.803812
vt 0.907441 0.768948
vt 0.940981 0.329720
vt 0.910788 0.329315
vt 0.908155 0.303279
vt 0.940981 0.293573
vt 0.300844 0.936683
vt 0.265696 0.936691
vt 0.274930 0.902193
vt 0.300844 0.905096
vt 0.946122 0.864389
vt 0.947406 0.839321
vt 0.971380 0.836755
vt 0.971380 0.872509
vt 0.955866 0.548778
vt 0.978884 0.545822
vt 0.978884 0.580950
vt 0.955464 0.583821
vt 0.180921 0.951924
vt 0.206489 0.943078
vt 0.206489 0.978124
vt 0.182446 0.975649
vt 0.960994 0.248942
vt 0.960123 0.219687
vt 0.983435 0.222894
vt 0.983435 0.255611
vt 0.953772 0.489200
vt 0.953375 0.454164
vt 0.976798 0.457012
vt 0.976798 0.492161
vt 0.957565 0.632755
vt 0.957163 0.597613
vt 0.980377 0.600525
vt 0.980377 0.635758
vt 0.108284 0.979253
vt 0.107871 0.944841
vt 0.131146 0.947766
vt 0.131146 0.982257
vt 0.227490 0.902807
vt 0.253964 0.903589
vt 0.253964 0.935983
vt 0.220725 0.939207
vt 0.959767 0.676602
vt 0.959381 0.642199
vt 0.982642 0.645133
vt 0.982642 0.679630
vt 0.947230 0.737678
vt 0.975464 0.733490
vt 0.975464 0.763638
vt 0.947758 0.761170
vt 0.275049 0.859787
vt 0.301334 0.862571
vt 0.301334 0.896372
vt 0.265696 0.896884
vt 0.485002 0.926484
vt 0.509114 0.923595
vt 0.509114 0.958698
vt 0.484581 0.961727
vt 0.221111 0.947539
vt 0.243986 0.944516
vt 0.243986 0.979077
vt 0.220725 0.982005
vt 0.535326 0.805315
vt 0.534721 0.771192
vt 0.553153 0.773265
vt 0.553153 0.807598
vt 0.958422 0.148128
vt 0.981233 0.145110
vt 0.981233 0.180153
vt 0.958020 0.183079
vt 0.940101 0.957022
vt 0.940101 0.990686
vt 0.917301 0.984875
vt 0.915480 0.962361
vt 0.974992 0.008397
vt 0.996869 0.002655
vt 0.996869 0.035443
vt 0.973090 0.030162
vt 0.498578 0.545995
vt 0.498578 0.578898
vt 0.496596 0.577804
vt 0.496767 0.546217
vt 0.761898 0.771192
vt 0.761898 0.797644
vt 0.759682 0.796689
vt 0.759670 0.771513
vt 0.043279 0.949656
vt 0.066773 0.943977
vt 0.066773 0.979016
vt 0.041683 0.973099
vt 0.947789 0.890381
vt 0.972645 0.877896
vt 0.972645 0.908063
vt 0.947012 0.912721
vt 0.280549 0.611121
vt 0.278746 0.610872
vt 0.278541 0.579402
vt 0.280549 0.578421
vt 0.292148 0.649240
vt 0.290337 0.649016
vt 0.290163 0.617572
vt 0.292148 0.616486
vt 0.281498 0.738859
vt 0.281666 0.712630
vt 0.283762 0.713847
vt 0.283762 0.739465
vt 0.950154 0.548667
vt 0.950154 0.585395
vt 0.926022 0.582680
vt 0.925599 0.545822
vt 0.680968 0.864238
vt 0.680968 0.887238
vt 0.678949 0.886363
vt 0.678750 0.864076
vt 0.971550 0.772235
vt 0.971550 0.805629
vt 0.947840 0.799104
vt 0.947015 0.768948
vt 0.833566 0.918364
vt 0.863447 0.910184
vt 0.863447 0.945157
vt 0.835401 0.940522
vt 0.717947 0.961778
vt 0.739866 0.956438
vt 0.739866 0.990843
vt 0.715528 0.982653
vt 0.635627 0.901862
vt 0.633340 0.902045
vt 0.633567 0.880647
vt 0.635627 0.879692
vt 0.553334 0.873666
vt 0.553334 0.895901
vt 0.551287 0.894916
vt 0.551056 0.873490
vt 0.840790 0.434044
vt 0.814759 0.429420
vt 0.840790 0.366471
vt 0.809967 0.008321
vt 0.835818 0.002655
vt 0.835818 0.070774
vt 0.585091 0.835062
vt 0.559012 0.830403
vt 0.585091 0.767473
vt 0.828671 0.457066
vt 0.828671 0.483573
vt 0.762151 0.468902
vt 0.836061 0.143620
vt 0.809967 0.139007
vt 0.836061 0.076084
vt 0.811768 0.603356
vt 0.837610 0.597613
vt 0.837610 0.665732
vt 0.069157 0.830094
vt 0.069157 0.856538
vt 0.002655 0.841782
vt 0.845844 0.829404
vt 0.819816 0.824811
vt 0.845844 0.761860
vt 0.827948 0.879283
vt 0.827948 0.912039
vt 0.801616 0.914311
vt 0.792866 0.878325
vt 0.037373 0.898254
vt 0.005333 0.895826
vt 0.002655 0.869517
vt 0.037373 0.861847
vt 0.942929 0.035441
vt 0.942529 0.002655
vt 0.967781 0.006691
vt 0.967781 0.039474
vt 0.910183 0.458053
vt 0.910183 0.490807
vt 0.883840 0.493054
vt 0.875094 0.457066
vt 0.739866 0.921458
vt 0.739866 0.950956
vt 0.713717 0.951128
vt 0.707171 0.917452
vt 0.149449 0.906552
vt 0.175611 0.902640
vt 0.175611 0.936039
vt 0.149063 0.940214
vt 0.116620 0.861835
vt 0.143024 0.864124
vt 0.143024 0.896880
vt 0.107871 0.897822
vt 0.189112 0.861510
vt 0.215416 0.864305
vt 0.215416 0.897208
vt 0.179693 0.897331
vt 0.342387 0.859905
vt 0.342387 0.892808
vt 0.316063 0.895608
vt 0.306644 0.859787
vt 0.141090 0.906359
vt 0.141090 0.938753
vt 0.114637 0.939531
vt 0.107871 0.903131
vt 0.940101 0.949534
vt 0.907391 0.951713
vt 0.914048 0.918058
vt 0.940101 0.919737
vt 0.229470 0.861510
vt 0.255878 0.863771
vt 0.255878 0.896526
vt 0.220725 0.897497
vt 0.940813 0.836755
vt 0.940813 0.872586
vt 0.907391 0.865190
vt 0.910091 0.839281
vt 0.215416 0.937768
vt 0.183868 0.937681
vt 0.180921 0.911889
vt 0.215416 0.902640
vt 0.787556 0.912535
vt 0.752358 0.914122
vt 0.761344 0.878325
vt 0.787556 0.880244
vt 0.937426 0.408320
vt 0.937426 0.440818
vt 0.911452 0.443606
vt 0.902387 0.407829
vt 0.735854 0.500305
vt 0.733626 0.500413
vt 0.733798 0.476740
vt 0.735854 0.475930
vt 0.954813 0.222651
vt 0.954813 0.258374
vt 0.930693 0.255548
vt 0.930272 0.219687
vt 0.249928 0.946645
vt 0.268918 0.944516
vt 0.268918 0.979448
vt 0.249296 0.981613
vt 0.743434 0.500413
vt 0.741180 0.500205
vt 0.741163 0.476975
vt 0.743434 0.476128
vt 0.948060 0.695512
vt 0.971769 0.688985
vt 0.971769 0.722360
vt 0.947234 0.725648
vt 0.929067 0.073562
vt 0.953187 0.070738
vt 0.953187 0.106481
vt 0.928645 0.109443
vt 0.613185 0.926619
vt 0.613185 0.961785
vt 0.589072 0.958901
vt 0.588651 0.923595
vt 0.514845 0.926478
vt 0.538958 0.923595
vt 0.538958 0.958690
vt 0.514424 0.961712
vt 0.341552 0.902192
vt 0.341552 0.934892
vt 0.315126 0.936966
vt 0.306644 0.900918
vt 0.943131 0.410668
vt 0.966187 0.407829
vt 0.966187 0.443976
vt 0.942735 0.446718
vt 0.928597 0.147991
vt 0.952711 0.145110
vt 0.952711 0.180945
vt 0.928177 0.183970
vt 0.927723 0.600350
vt 0.951853 0.597613
vt 0.951853 0.634019
vt 0.927301 0.636890
vt 0.479272 0.926611
vt 0.479272 0.961777
vt 0.455158 0.958900
vt 0.454737 0.923595
vt 0.945810 0.953809
vt 0.945411 0.918058
vt 0.968858 0.920837
vt 0.968858 0.956668
vt 0.414605 0.925755
vt 0.414605 0.961397
vt 0.390493 0.958503
vt 0.390073 0.922714
vt 0.449427 0.923595
vt 0.449427 0.959458
vt 0.423178 0.950589
vt 0.424682 0.926027
vt 0.673441 0.886898
vt 0.671223 0.887062
vt 0.671422 0.864953
vt 0.673441 0.864076
vt 0.553284 0.843896
vt 0.553284 0.868181
vt 0.551084 0.867182
vt 0.551056 0.844173
vt 0.144721 0.616431
vt 0.144721 0.649186
vt 0.142736 0.648100
vt 0.142911 0.616658
vt 0.975474 0.396593
vt 0.973569 0.374860
vt 0.997345 0.369588
vt 0.997345 0.402354
vt 0.720751 0.500521
vt 0.718513 0.500198
vt 0.718481 0.476758
vt 0.720751 0.475930
vt 0.260387 0.830094
vt 0.260387 0.854378
vt 0.258119 0.853522
vt 0.258133 0.830307
vt 0.357100 0.888630
vt 0.357100 0.907739
vt 0.354954 0.906611
vt 0.354869 0.888639
vt 0.135113 0.668912
vt 0.135113 0.701044
vt 0.133143 0.699927
vt 0.133298 0.669102
vt 0.945411 0.987135
vt 0.945935 0.964569
vt 0.972777 0.961977
vt 0.972777 0.991245
vt 0.667483 0.948674
vt 0.667483 0.983911
vt 0.644600 0.978364
vt 0.643009 0.954108
vt 0.273765 0.673053
vt 0.291319 0.668912
vt 0.291319 0.703202
vt 0.273234 0.707320
vt 0.097300 0.943977
vt 0.097300 0.979223
vt 0.074428 0.973820
vt 0.072082 0.952217
vt 0.869612 0.957180
vt 0.892078 0.950492
vt 0.892078 0.983229
vt 0.868757 0.986374
vt 0.794689 0.964875
vt 0.817488 0.959059
vt 0.817488 0.992687
vt 0.792866 0.987356
vt 0.505819 0.540923
vt 0.503997 0.540766
vt 0.503887 0.508268
vt 0.505819 0.507122
vt 0.318674 0.947721
vt 0.341552 0.942276
vt 0.341552 0.978067
vt 0.316495 0.970438
vt 0.905334 0.064045
vt 0.903100 0.063992
vt 0.903147 0.045956
vt 0.905334 0.044911
vt 0.004995 0.948958
vt 0.027869 0.943564
vt 0.027869 0.978873
vt 0.002655 0.970622
vt 0.961802 0.510722
vt 0.983739 0.505368
vt 0.983739 0.540512
vt 0.959571 0.532898
vt 0.208989 0.668912
vt 0.208989 0.700014
vt 0.207044 0.698880
vt 0.207177 0.669084
vt 0.356390 0.633286
vt 0.356390 0.665680
vt 0.354390 0.664627
vt 0.354586 0.633574
vt 0.071046 0.611325
vt 0.069160 0.611064
vt 0.069065 0.579516
vt 0.071046 0.578421
vt 0.498578 0.507122
vt 0.498578 0.540685
vt 0.496641 0.539550
vt 0.496679 0.507260
vt 0.754261 0.828965
vt 0.752030 0.828676
vt 0.752067 0.803535
vt 0.754261 0.802529
vt 0.292148 0.611177
vt 0.290336 0.610954
vt 0.290163 0.579508
vt 0.292148 0.578421
vt 0.356370 0.702499
vt 0.354558 0.702283
vt 0.354390 0.672087
vt 0.356370 0.670990
vt 0.144747 0.578421
vt 0.144747 0.611122
vt 0.142736 0.610154
vt 0.142940 0.578701
vt 0.554452 0.719781
vt 0.552635 0.719588
vt 0.552493 0.690090
vt 0.554452 0.688985
vt 0.792866 0.945633
vt 0.794748 0.924289
vt 0.821900 0.919621
vt 0.821900 0.953749
vt 0.834474 0.972088
vt 0.833566 0.950467
vt 0.858458 0.955210
vt 0.858458 0.984416
vt 0.673405 0.858767
vt 0.671153 0.858550
vt 0.671203 0.835476
vt 0.673405 0.834482
vt 0.754295 0.858560
vt 0.752041 0.858346
vt 0.752030 0.835139
vt 0.754295 0.834275
vt 0.754006 0.988901
vt 0.752358 0.965285
vt 0.775967 0.959891
vt 0.775967 0.994375
vt 0.551650 0.983329
vt 0.549237 0.962394
vt 0.573571 0.954192
vt 0.573571 0.988660
vt 0.728317 0.475930
vt 0.728317 0.500521
vt 0.726060 0.499664
vt 0.726079 0.476253
vt 0.705532 0.500538
vt 0.703215 0.500687
vt 0.703436 0.476914
vt 0.705532 0.475930
vt 0.127833 0.701306
vt 0.126024 0.701065
vt 0.125833 0.669966
vt 0.127833 0.668912
vt 0.845844 0.834714
vt 0.845844 0.858999
vt 0.843642 0.858004
vt 0.843591 0.834931
vt 0.675041 0.978248
vt 0.672793 0.956253
vt 0.696972 0.948674
vt 0.696972 0.983627
vt 0.680968 0.858767
vt 0.678715 0.858550
vt 0.678774 0.835492
vt 0.680968 0.834482
vt 0.971336 0.293573
vt 0.971336 0.329554
vt 0.948452 0.324136
vt 0.946290 0.301237
vt 0.927559 0.533729
vt 0.925599 0.512420
vt 0.954261 0.506241
vt 0.954261 0.540512
vt 0.751013 0.476128
vt 0.751013 0.500413
vt 0.748744 0.499561
vt 0.748758 0.476336
vt 0.545746 0.867840
vt 0.543518 0.867563
vt 0.543546 0.844554
vt 0.545746 0.843556
vt 0.280549 0.616431
vt 0.280549 0.649186
vt 0.278564 0.648100
vt 0.278739 0.616662
vt 0.838282 0.834714
vt 0.838282 0.858998
vt 0.836088 0.857988
vt 0.836029 0.834930
vt 0.357095 0.859823
vt 0.357095 0.883321
vt 0.355076 0.882359
vt 0.354869 0.859787
vt 0.845790 0.886863
vt 0.843565 0.886998
vt 0.843765 0.865184
vt 0.845790 0.864308
vt 0.754236 0.926242
vt 0.781835 0.919432
vt 0.781835 0.954581
vt 0.752358 0.948332
vt 0.973150 0.413313
vt 0.995108 0.407829
vt 0.995108 0.442243
vt 0.971497 0.436862
vt 0.968260 0.366471
vt 0.968260 0.402354
vt 0.944060 0.396643
vt 0.942533 0.372421
vt 0.838255 0.864443
vt 0.838255 0.887031
vt 0.836230 0.886155
vt 0.836029 0.864308
vt 0.754360 0.771318
vt 0.754360 0.797220
vt 0.752225 0.796292
vt 0.752030 0.771192
vt 0.547183 0.749420
vt 0.544843 0.749551
vt 0.545032 0.724375
vt 0.547183 0.723485
vt 0.360476 0.927600
vt 0.384763 0.922714
vt 0.384763 0.959574
vt 0.359245 0.953505
vt 0.545746 0.895504
vt 0.543460 0.895574
vt 0.543652 0.873935
vt 0.545746 0.873150
vt 0.620708 0.901618
vt 0.618495 0.901805
vt 0.618704 0.880732
vt 0.620708 0.879829
vt 0.150648 0.951059
vt 0.173534 0.945523
vt 0.173534 0.980830
vt 0.149063 0.975383
vt 0.042682 0.869987
vt 0.068595 0.861847
vt 0.068595 0.898390
vt 0.043950 0.895857
vt 0.761897 0.834283
vt 0.761897 0.858591
vt 0.759842 0.857780
vt 0.759670 0.834174
vt 0.909654 0.809309
vt 0.909654 0.831039
vt 0.907651 0.830136
vt 0.907441 0.809121
vt 0.273989 0.738682
vt 0.274178 0.712630
vt 0.276189 0.713969
vt 0.276189 0.739308
vt 0.759670 0.803672
vt 0.761781 0.802954
vt 0.761781 0.827312
vt 0.759933 0.828864
vt 0.251599 0.830094
vt 0.251599 0.855432
vt 0.249498 0.854705
vt 0.133395 0.708175
vt 0.135241 0.706616
vt 0.135241 0.732808
vt 0.068867 0.617320
vt 0.071046 0.616634
vt 0.071046 0.646782
vt 0.069155 0.648299
vt 0.199533 0.706606
vt 0.201374 0.705042
vt 0.201374 0.731572
vt 0.545053 0.689634
vt 0.547183 0.688985
vt 0.547183 0.716658
vt 0.545306 0.718176
vt 0.206756 0.733030
vt 0.206936 0.705323
vt 0.208989 0.706610
vt 0.208989 0.733665
vt 0.125833 0.707223
vt 0.128086 0.706616
vt 0.128086 0.733146
vt 0.126002 0.734384
vt 0.199533 0.699043
vt 0.199817 0.668912
vt 0.201722 0.670411
vt 0.201722 0.699732
vt 0.628031 0.850166
vt 0.628031 0.874383
vt 0.625915 0.873678
vt 0.289072 0.713268
vt 0.291319 0.712630
vt 0.291319 0.738408
vt 0.289252 0.739673
vt 0.347696 0.861325
vt 0.349559 0.859787
vt 0.349559 0.884857
vt 0.553153 0.812907
vt 0.553153 0.838586
vt 0.551056 0.837853
vt 0.620606 0.850166
vt 0.620606 0.874519
vt 0.618495 0.873801
vt 0.872050 0.293573
vt 0.872050 0.354811
vt 0.846114 0.351238
vt 0.897790 0.064045
vt 0.872256 0.008327
vt 0.897790 0.002655
vt 0.866630 0.148930
vt 0.866630 0.213686
vt 0.841353 0.206985
vt 0.864052 0.573858
vt 0.838163 0.509714
vt 0.864052 0.506241
vt 0.661586 0.111921
vt 0.732307 0.097339
vt 0.732307 0.123462
vt 0.585091 0.762164
vt 0.559762 0.694672
vt 0.585091 0.688985
vt 0.643009 0.777535
vt 0.711772 0.771192
vt 0.711772 0.797360
vt 0.836044 0.148930
vt 0.836044 0.213497
vt 0.809967 0.211201
vt 0.902846 0.354811
vt 0.877360 0.298961
vt 0.902846 0.293573
vt 0.767208 0.864821
vt 0.827948 0.846933
vt 0.827948 0.873015
vt 0.179693 0.850399
vt 0.244188 0.830094
vt 0.244188 0.856200
vt 0.832854 0.575412
vt 0.806836 0.508646
vt 0.832854 0.506241
vt 0.584829 0.113005
vt 0.656276 0.097179
vt 0.656276 0.123462
vt 0.291428 0.751119
vt 0.291428 0.822683
vt 0.265696 0.818459
vt 0.866946 0.002655
vt 0.866946 0.070166
vt 0.841128 0.066701
vt 0.867098 0.076084
vt 0.867098 0.139313
vt 0.841371 0.135304
vn 0.0351 -0.9909 -0.1301
vn 0.0511 -0.9910 -0.1235
vn -0.0123 0.9997 0.0213
vn -0.0095 0.9997 0.0225
vn 0.1168 -0.9909 -0.0672
vn 0.1235 -0.9910 -0.0512
vn -0.0237 0.9997 0.0064
vn -0.0225 0.9997 0.0093
vn 0.1301 -0.9909 0.0351
vn 0.1235 -0.9910 0.0511
vn -0.0213 0.9997 -0.0123
vn -0.0225 0.9997 -0.0095
vn -0.0064 0.9997 -0.0237
vn -0.0093 0.9997 -0.0225
vn 0.0672 -0.9909 0.1168
vn 0.0512 -0.9910 0.1235
vn 0.0123 0.9997 -0.0213
vn 0.0095 0.9997 -0.0225
vn -0.0351 -0.9909 0.1301
vn -0.0511 -0.9910 0.1235
vn -0.1168 -0.9909 0.0672
vn -0.1235 -0.9910 0.0512
vn 0.0237 0.9997 -0.0064
vn 0.0226 0.9997 -0.0092
vn -0.1301 -0.9909 -0.0351
vn -0.1235 -0.9910 -0.0511
vn 0.0213 0.9997 0.0123
vn 0.0225 0.9997 0.0095
vn -0.0672 -0.9909 -0.1168
vn -0.0512 -0.9910 -0.1235
vn 0.0064 0.9997 0.0237
vn 0.0093 0.9997 0.0225
vn -0.4027 0.8855 0.2316
vn 0.2639 -0.8485 0.4588
vn -0.5983 0.7237 0.3441
vn 0.0672 -0.9909 -0.1168
vn 0.0512 -0.9910 -0.1235
vn -0.0064 0.9997 0.0237
vn -0.0092 0.9997 0.0226
vn 0.2316 0.8855 0.4027
vn -0.1378 -0.8485 0.5110
vn -0.9030 -0.3539 -0.2436
vn -0.7647 0.4710 -0.4398
vn 0.1301 -0.9909 -0.0351
vn 0.1235 -0.9910 -0.0511
vn 0.2297 0.4710 0.8517
vn -0.0213 0.9997 0.0123
vn -0.0225 0.9997 0.0094
vn -0.2297 0.4710 -0.8517
vn 0.1210 0.8855 0.4486
vn 0.5110 -0.8485 -0.1378
vn 0.2436 -0.3539 0.9030
vn 0.2297 0.4710 -0.8517
vn 0.1168 -0.9909 0.0672
vn 0.1235 -0.9910 0.0512
vn -0.0237 0.9997 -0.0064
vn -0.0225 0.9997 -0.0093
vn -0.0122 0.9997 -0.0213
vn -0.0094 0.9997 -0.0225
vn 0.4588 -0.8485 -0.2639
vn 0.2571 0.1598 0.9531
vn 0.2316 0.8855 -0.4027
vn 0.2436 -0.3539 -0.9030
vn -0.3441 0.7237 -0.5983
vn 0.0351 -0.9909 0.1301
vn 0.0511 -0.9910 0.1235
vn 0.9030 -0.3539 0.2436
vn 0.0064 0.9997 -0.0237
vn 0.0093 0.9997 -0.0225
vn 0.4588 -0.8485 0.2639
vn 0.4486 0.8855 0.1210
vn -0.2297 0.4710 0.8517
vn -0.0672 -0.9909 0.1168
vn -0.0512 -0.9910 0.1235
vn -0.1301 -0.9909 0.0351
vn -0.1235 -0.9910 0.0511
vn 0.4663 -0.3539 0.8108
vn 0.8517 0.4710 0.2297
vn 0.0213 0.9997 -0.0123
vn 0.0225 0.9997 -0.0094
vn -0.1378 -0.8485 -0.5110
vn -0.4486 0.8855 -0.1210
vn -0.4663 -0.3539 0.8108
vn 0.5983 0.7237 0.3441
vn -0.1168 -0.9909 -0.0672
vn -0.1235 -0.9910 -0.0512
vn 0.7647 0.4710 0.4398
vn 0.0237 0.9997 0.0064
vn 0.0225 0.9997 0.0093
vn -0.4588 -0.8485 -0.2639
vn 0.4027 0.8855 0.2316
vn 0.1378 -0.8485 -0.5110
vn -0.4663 -0.3539 -0.8108
vn 0.3441 0.7237 0.5983
vn -0.0351 -0.9909 -0.1301
vn -0.0511 -0.9910 -0.1235
vn 0.1797 0.7237 0.6663
vn 0.0123 0.9997 0.0213
vn 0.0094 0.9997 0.0225
vn -0.6663 0.7237 0.1797
vn -0.4588 -0.8485 0.2639
vn -0.2316 0.8855 0.4027
vn 0.5983 0.7237 -0.3441
vn -0.9531 0.1598 -0.2571
vn -0.8517 0.4710 0.2297
vn 0.4663 -0.3539 -0.8108
vn -0.4398 0.4710 0.7647
vn -0.8108 -0.3539 -0.4663
vn 0.6663 0.7237 -0.1797
vn -0.2639 -0.8485 0.4588
vn 0.9030 -0.3539 -0.2436
vn -0.4027 0.8855 -0.2316
vn 0.5110 -0.8485 0.1378
vn 0.4486 0.8855 -0.1210
vn 0.7647 0.4710 -0.4398
vn 0.8108 -0.3539 0.4663
vn -0.5110 -0.8485 -0.1378
vn 0.4027 0.8855 -0.2316
vn 0.4921 0.1598 0.8557
vn -0.2436 -0.3539 0.9030
vn 0.2639 -0.8485 -0.4588
vn -0.1210 0.8855 -0.4486
vn 0.8557 0.1598 0.4921
vn -0.7647 0.4710 0.4398
vn -0.1210 0.8855 0.4486
vn -0.6663 0.7237 -0.1797
vn -0.9030 -0.3539 0.2436
vn 0.4398 0.4710 -0.7647
vn 0.1797 0.7237 -0.6663
vn -0.2639 -0.8485 -0.4588
vn -0.8108 -0.3539 0.4663
vn 0.4398 0.4710 0.7647
vn 0.1210 0.8855 -0.4486
vn -0.9531 0.1598 0.2571
vn 0.8108 -0.3539 -0.4663
vn -0.4398 0.4710 -0.7647
vn -0.2316 0.8855 -0.4027
vn -0.4921 0.1598 -0.8557
vn 0.1378 -0.8485 0.5110
vn -0.1797 0.7237 0.6663
vn 0.9531 0.1598 -0.2571
vn 0.2571 0.1598 -0.9531
vn -0.3441 0.7237 0.5983
vn -0.1797 0.7237 -0.6663
vn -0.5983 0.7237 -0.3441
vn 0.9531 0.1598 0.2571
vn 0.8557 0.1598 -0.4921
vn -0.8557 0.1598 -0.4921
vn 0.4921 0.1598 -0.8557
vn -0.2571 0.1598 -0.9531
vn 0.6663 0.7237 0.1797
vn -0.4921 0.1598 0.8557
vn -0.2571 0.1598 0.9531
vn 0.8517 0.4710 -0.2297
vn 0.3441 0.7237 -0.5983
vn -0.8517 0.4710 -0.2297
vn -0.2436 -0.3539 -0.9030
vn -0.5110 -0.8485 0.1378
vn -0.4486 0.8855 0.1210
vn -0.8557 0.1598 0.4921
vn 0.0047 -0.9998 -0.0213
vn 0.0082 -0.9998 -0.0198
vn 0.0184 -0.9998 -0.0118
vn 0.0198 -0.9998 -0.0082
vn 0.0213 -0.9998 0.0047
vn 0.0198 -0.9998 0.0082
vn 0.0117 -0.9998 0.0184
vn 0.0083 -0.9998 0.0198
vn -0.0047 -0.9998 0.0213
vn -0.0082 -0.9998 0.0199
vn -0.0184 -0.9998 0.0117
vn -0.0199 -0.9998 0.0082
vn -0.0213 -0.9998 -0.0047
vn -0.0199 -0.9998 -0.0082
vn -0.0117 -0.9998 -0.0184
vn -0.0082 -0.9998 -0.0198
vn 0.9463 0.3145 -0.0747
vn 0.8963 0.4431 0.0158
vn 0.9488 0.3062 -0.0772
vn -0.5892 0.1572 -0.7925
vn -0.6166 0.3000 -0.7279
vn -0.6173 0.3080 -0.7239
vn 0.5766 0.1631 0.8006
vn 0.6044 0.3173 0.7308
vn 0.6050 0.3257 0.7265
vn -0.6579 0.2380 0.7146
vn -0.6858 0.3338 0.6467
vn -0.6576 0.2314 0.7170
vn 0.9881 0.1209 0.0955
vn 0.9734 0.2245 0.0452
vn 0.9721 0.2308 0.0427
vn -0.9385 0.3351 0.0827
vn -0.8809 0.4730 -0.0146
vn -0.9414 0.3263 0.0853
vn -0.0616 0.2288 -0.9715
vn 0.0060 0.3258 -0.9454
vn -0.0635 0.2222 -0.9729
vn 0.6185 0.3611 0.6979
vn 0.5873 -0.4646 0.6628
vn 0.8703 -0.4922 0.0188
vn 0.3421 0.9393 0.0267
vn -0.9359 0.3501 -0.0403
vn 0.9370 -0.3464 0.0443
vn -0.0780 0.8285 0.5546
vn -0.5524 -0.8294 -0.0830
vn -0.4473 0.8259 0.3431
vn 0.0783 0.8284 0.5546
vn -0.0779 0.8276 -0.5559
vn 0.3364 0.8283 0.4480
vn 0.3366 0.8285 0.4476
vn 0.3373 -0.8292 0.4457
vn 0.4100 -0.8562 0.3143
vn -0.5590 0.8259 0.0737
vn -0.3085 -0.8590 0.4086
vn -0.3373 0.8284 0.4472
vn 0.5183 -0.8524 0.0688
vn -0.3382 0.8276 -0.4480
vn 0.5540 0.8283 0.0838
vn 0.5530 0.8293 -0.0802
vn 0.6163 -0.5183 0.5929
vn 0.7025 0.3586 -0.6148
vn 0.5928 -0.5471 -0.5910
vn -0.9436 0.3306 0.0176
vn 0.9314 0.3587 -0.0621
vn 0.6192 0.3603 -0.6977
vn 0.0555 0.3611 0.9309
vn 0.4458 -0.8270 -0.3424
vn -0.6197 0.3610 0.6969
vn 0.7115 0.7023 0.0246
vn -0.0697 -0.8610 0.5039
vn 0.6181 -0.3563 -0.7008
vn -0.0551 0.3610 0.9309
vn -0.0481 0.4995 -0.8650
vn 0.0538 0.3601 -0.9314
vn 0.4974 0.6983 0.5147
vn -0.4893 -0.7059 -0.5121
vn -0.0724 0.0177 -0.9972
vn -0.6432 0.1583 0.7491
vn 0.8588 -0.5123 0.0004
vn 0.5353 0.6092 -0.5851
vn 0.7756 0.0236 -0.6308
vn -0.9952 0.0197 -0.0961
vn -0.0036 0.2382 0.9712
vn -0.9303 -0.3585 -0.0774
vn 0.4037 0.8522 -0.3327
vn 0.6835 -0.3279 -0.6522
vn -0.0093 0.6143 0.7890
vn -0.5012 -0.7177 0.4835
vn -0.3268 0.9077 -0.2633
vn 0.0444 0.9033 -0.4267
vn 0.0118 -0.9998 -0.0184
vn 0.0213 -0.9998 -0.0047
vn 0.0198 -0.9998 -0.0083
vn 0.0184 -0.9998 0.0118
vn 0.0047 -0.9998 0.0213
vn 0.0082 -0.9998 0.0199
vn -0.0117 -0.9998 0.0184
vn -0.0213 -0.9998 0.0047
vn -0.0184 -0.9998 -0.0117
vn -0.0047 -0.9998 -0.0213
vn -0.0082 -0.9998 -0.0199
vn -0.0775 -0.8296 -0.5530
vn -0.4425 -0.8347 -0.3279
vn -0.6955 0.3287 -0.6390
vn 0.3367 -0.8295 -0.4455
vn -0.5190 0.8520 -0.0690
vn 0.6988 -0.3260 0.6367
vn -0.3360 -0.8296 -0.4460
vn -0.4460 -0.8304 0.3340
vn -0.5515 -0.8304 0.0793
vn 0.5574 -0.8270 -0.0731
vn -0.4107 0.8558 -0.3144
vn 0.0773 -0.8295 -0.5531
vn 0.4441 0.8337 0.3282
vn 0.4465 0.8298 -0.3349
vn 0.3092 0.8592 -0.4076
vn 0.0695 0.8609 -0.5040
vn 0.0699 0.8607 -0.5042
vn 0.3772 0.8615 0.3400
vn -0.7051 -0.3571 0.6127
vn 0.0520 -0.4919 0.8691
vn -0.1062 0.1213 0.9869
vn 0.9445 -0.3279 -0.0219
vn -0.9318 -0.3571 0.0655
vn 0.0591 -0.3563 -0.9325
vn -0.0592 -0.3563 -0.9325
vn 0.0769 -0.8292 0.5536
vn 0.9301 0.3598 0.0743
vn -0.6175 -0.3564 0.7012
vn -0.7110 -0.3583 -0.6051
vn -0.6170 -0.3564 -0.7016
vn 0.7086 0.3595 0.6071
vn -0.0575 -0.3562 0.9326
vn -0.5987 0.5410 0.5907
vn -0.0524 0.8522 -0.5206
vn -0.7589 0.1300 -0.6380
vn 0.7641 0.0335 0.6443
vn -0.7081 -0.7059 0.0163
vn -0.6228 0.2826 -0.7295
vn -0.0936 0.1266 -0.9875
vn -0.9878 0.1288 0.0880
vn 0.6873 -0.0426 -0.7251
vn -0.7051 -0.7085 -0.0298
vn -0.0062 0.6978 -0.7162
vn -0.5878 0.4709 -0.6578
vn 0.5049 0.7094 -0.4917
vn -0.6794 0.3307 0.6550
vn 0.7157 0.6983 -0.0126
vn 0.9963 0.0104 0.0852
vn 0.0059 0.7069 0.7073
vn 0.7621 0.2260 -0.6067
vn -0.0087 0.7094 -0.7047
vn 0.4993 -0.7151 -0.4893
vn -0.6322 0.0615 0.7724
vn 0.1159 0.0850 0.9896
vn 0.6651 0.0362 0.7459
vn -0.7874 0.0109 -0.6163
vn 0.0655 0.0979 -0.9930
vn -0.7715 0.0197 0.6360
vn -0.0850 -0.0069 0.9964
vn -0.9951 0.0375 0.0910
vn 0.1473 0.0860 -0.9853
vn 0.0133 -0.6217 -0.7831
vn -0.5289 -0.6138 0.5861
vn -0.9879 0.1310 -0.0835
vn 0.6316 0.1262 0.7650
vn 0.4984 -0.7057 0.5036
vn 0.0119 -0.7177 0.6963
vn 0.0777 0.2818 0.9563
vn 0.2356 0.9336 -0.2698
vn -0.6108 0.0736 -0.7884
vn 0.7572 0.1312 0.6399
vn -0.0090 -0.7151 -0.6990
vn -0.7604 0.1292 0.6365
vn -0.5030 0.7069 0.4973
vn -0.5729 -0.6035 -0.5546
vn 0.6245 0.1221 -0.7714
vn 0.9879 0.1308 0.0835
vn 0.9959 0.0337 -0.0843
vn 0.9878 0.1294 -0.0869
vn -0.4965 0.8676 -0.0280
vn -0.5120 0.8576 0.0487
vn 0.5739 0.5963 0.5614
vn 0.0030 -0.7057 0.7085
vn -0.8621 0.5068 0.0039
vn -0.3279 0.8576 -0.3962
vn 0.2265 0.9428 0.2446
vn 0.3222 0.9466 -0.0130
vn -0.8732 0.4869 -0.0227
vn -0.2843 0.8961 0.3409
vn 0.0619 0.8489 0.5248
vn 0.0615 0.8490 0.5249
vn -0.5016 0.6979 -0.5113
vn -0.6215 0.5125 -0.5925
vn -0.0270 0.8615 0.5071
vn -0.4152 0.8489 0.3270
vn -0.6766 -0.1944 -0.7103
vn -0.7328 0.2222 0.6431
vn 0.9771 0.1556 -0.1453
vn 0.9489 0.3061 -0.0772
vn 0.9511 0.2982 -0.0804
vn -0.6172 0.3163 -0.7204
vn -0.6173 0.3079 -0.7240
vn -0.6457 0.4450 -0.6205
vn -0.9597 0.2772 -0.0470
vn 0.6049 0.3345 0.7227
vn 0.6050 0.3257 0.7266
vn 0.6330 0.4724 0.6133
vn -0.0658 0.1670 0.9838
vn 0.6922 0.3339 0.6398
vn 0.6817 0.3127 -0.6615
vn 0.6668 0.2176 -0.7128
vn -0.6315 0.1215 0.7658
vn -0.6575 0.2314 0.7170
vn -0.6567 0.2252 0.7198
vn 0.0168 0.2350 -0.9718
vn 0.9706 0.2373 0.0408
vn 0.9425 0.3331 -0.0269
vn -0.9738 0.1637 0.1578
vn -0.9440 0.3179 0.0888
vn -0.1160 0.1114 -0.9870
vn -0.0660 0.2160 -0.9742
vn 0.0089 0.9987 -0.0505
vn 0.0193 0.9987 -0.0466
vn 0.0427 0.9986 -0.0299
vn 0.0464 0.9987 -0.0197
vn 0.0489 0.9988 0.0085
vn 0.0438 0.9989 0.0184
vn 0.0266 0.9989 0.0383
vn 0.0175 0.9990 0.0412
vn -0.0074 0.9990 0.0432
vn -0.0154 0.9991 0.0396
vn -0.0368 0.9991 0.0225
vn -0.0402 0.9991 0.0150
vn -0.0445 0.9990 -0.0076
vn -0.0442 0.9990 -0.0076
vn -0.0414 0.9990 -0.0171
vn -0.0282 0.9988 -0.0392
vn -0.0277 0.9988 -0.0395
vn -0.0184 0.9988 -0.0443
vn 0.0299 0.9986 -0.0427
vn 0.0501 0.9987 -0.0097
vn 0.0389 0.9989 0.0280
vn 0.0086 0.9990 0.0441
vn -0.0233 0.9991 0.0360
vn -0.0436 0.9990 0.0075
vn -0.0382 0.9989 -0.0270
vn -0.0093 0.9987 -0.0492
vn -0.0087 0.9987 -0.0493
g Plant_2_Plant_2_Collor_Material
usemtl Collor_Material
s off
f 19/1/1 53/2/1 12/3/2
f 31/4/3 49/5/3 60/6/4
f 19/7/5 37/8/5 18/9/6
f 31/10/7 97/11/7 7/12/8
f 19/13/9 63/14/9 24/15/10
f 31/16/11 59/17/11 65/18/12
f 31/19/13 68/20/13 66/21/14
f 19/22/15 71/23/15 30/24/16
f 31/25/17 91/26/17 25/27/18
f 19/28/19 92/29/19 36/30/20
f 19/31/21 88/32/21 42/33/22
f 31/34/23 85/35/23 70/36/24
f 19/37/25 81/38/25 48/39/26
f 31/40/27 79/41/27 73/42/28
f 19/43/29 77/44/29 6/45/30
f 31/46/31 55/47/31 76/48/32
f 73/49/33 83/50/33 27/51/33 85/52/33
f 30/53/34 71/54/34 75/55/34 29/56/34
f 83/57/35 38/58/35 89/59/35 27/60/35
f 19/61/36 6/62/37 53/63/36
f 31/64/38 7/65/39 49/66/38
f 25/67/40 69/68/40 62/69/40 68/70/40
f 36/71/41 92/72/41 96/73/41 35/74/41
f 47/75/42 80/76/42 84/77/42 46/78/42
f 38/79/43 82/80/43 112/81/43 106/82/43
f 19/83/44 12/84/45 37/85/44
f 108/86/46 102/87/46 20/88/46 72/89/46
f 31/90/47 65/91/48 97/92/47
f 44/93/49 78/94/49 113/95/49 107/96/49
f 62/97/50 51/98/50 66/99/50 68/100/50
f 12/101/51 11/102/51 98/103/51 37/104/51
f 74/105/52 75/106/52 23/107/52 22/108/52
f 8/109/53 100/110/53 114/111/53 54/112/53
f 19/113/54 18/114/55 63/115/54
f 31/116/56 66/117/57 59/118/56
f 31/119/58 25/120/59 68/121/58
f 18/122/60 37/123/60 98/124/60 17/125/60
f 74/126/61 22/127/61 102/128/61 108/129/61
f 1/130/62 39/131/62 60/132/62 49/133/62
f 11/134/63 50/135/63 52/136/63 10/137/63
f 39/138/64 2/139/64 78/140/64 3/141/64
f 19/142/65 24/143/66 71/144/65
f 23/145/67 61/146/67 67/147/67 22/148/67
f 31/149/68 70/150/69 91/151/68
f 61/152/70 63/153/70 18/154/70 17/155/70
f 66/156/71 51/157/71 95/158/71 59/159/71
f 32/160/72 105/161/72 109/162/72 93/163/72
f 19/164/73 30/165/74 92/166/73
f 19/167/75 36/168/76 88/169/75
f 29/170/77 75/171/77 74/172/77 28/173/77
f 20/174/78 102/175/78 103/176/78 64/177/78
f 31/178/79 73/179/80 85/180/79
f 56/181/81 77/182/81 48/183/81 47/184/81
f 76/185/82 90/186/82 9/187/82 79/188/82
f 94/189/83 96/190/83 29/191/83 28/192/83
f 64/193/84 14/194/84 15/195/84 95/196/84
f 19/197/85 42/198/86 81/199/85
f 103/200/87 101/201/87 14/202/87 64/203/87
f 31/204/88 76/205/89 79/206/88
f 42/207/90 41/208/90 80/209/90 81/210/90
f 95/211/91 15/212/91 65/213/91 59/214/91
f 12/215/92 53/216/92 50/217/92 11/218/92
f 5/219/93 56/220/93 58/221/93 4/222/93
f 69/223/94 26/224/94 72/225/94 62/226/94
f 19/227/95 48/228/96 77/229/95
f 72/230/97 20/231/97 51/232/97 62/233/97
f 31/234/98 60/235/99 55/236/98
f 89/237/100 32/238/100 21/239/100 27/240/100
f 42/241/101 88/242/101 87/243/101 41/244/101
f 33/245/102 69/246/102 25/247/102 91/248/102
f 15/249/103 14/250/103 43/251/103 57/252/103
f 107/253/104 46/254/104 84/255/104 112/256/104
f 32/257/105 89/258/105 111/259/105 105/260/105
f 5/261/106 4/262/106 52/263/106 50/264/106
f 26/265/107 93/266/107 109/267/107 104/268/107
f 41/269/108 40/270/108 84/271/108 80/272/108
f 43/273/109 8/274/109 45/275/109 57/276/109
f 30/277/110 29/278/110 96/279/110 92/280/110
f 11/281/111 10/282/111 13/283/111 98/284/111
f 9/285/112 83/286/112 73/287/112 79/288/112
f 24/289/113 63/290/113 61/291/113 23/292/113
f 57/293/114 45/294/114 7/295/114 97/296/114
f 14/297/115 101/298/115 110/299/115 43/300/115
f 67/301/116 61/302/116 17/303/116 16/304/116
f 48/305/117 81/306/117 80/307/117 47/308/117
f 65/309/118 15/310/118 57/311/118 97/312/118
f 104/313/119 28/314/119 74/315/119 108/316/119
f 35/317/120 96/318/120 94/319/120 34/320/120
f 50/321/121 53/322/121 6/323/121 5/324/121
f 3/325/122 90/326/122 76/327/122 55/328/122
f 67/329/123 16/330/123 101/331/123 103/332/123
f 111/333/124 89/334/124 38/335/124 106/336/124
f 70/337/125 21/338/125 33/339/125 91/340/125
f 90/341/126 44/342/126 82/343/126 9/344/126
f 86/345/127 87/346/127 35/347/127 34/348/127
f 2/349/128 54/350/128 114/351/128 99/352/128
f 45/353/129 8/354/129 54/355/129 1/356/129
f 6/357/130 77/358/130 56/359/130 5/360/130
f 41/361/131 87/362/131 86/363/131 40/364/131
f 108/365/132 72/366/132 26/367/132 104/368/132
f 7/369/133 45/370/133 1/371/133 49/372/133
f 86/373/134 34/374/134 105/375/134 111/376/134
f 17/377/135 98/378/135 13/379/135 16/380/135
f 113/381/136 78/382/136 2/383/136 99/384/136
f 60/385/137 39/386/137 3/387/137 55/388/137
f 99/389/138 4/390/138 58/391/138 113/392/138
f 75/393/139 71/394/139 24/395/139 23/396/139
f 21/397/140 32/398/140 93/399/140 33/400/140
f 13/401/141 10/402/141 100/403/141 110/404/141
f 100/405/142 10/406/142 52/407/142 114/408/142
f 93/409/143 26/410/143 69/411/143 33/412/143
f 78/413/144 44/414/144 90/415/144 3/416/144
f 82/417/145 38/418/145 83/419/145 9/420/145
f 102/421/146 22/422/146 67/423/146 103/424/146
f 101/425/147 16/426/147 13/427/147 110/428/147
f 84/429/148 40/430/148 106/431/148 112/432/148
f 52/433/149 4/434/149 99/435/149 114/436/149
f 58/437/150 46/438/150 107/439/150 113/440/150
f 51/441/151 20/442/151 64/443/151 95/444/151
f 94/445/152 28/446/152 104/447/152 109/448/152
f 105/449/153 34/450/153 94/451/153 109/452/153
f 8/453/154 43/454/154 110/455/154 100/456/154
f 54/457/155 2/458/155 39/459/155 1/460/155
f 112/461/156 82/462/156 44/463/156 107/464/156
f 47/465/157 46/466/157 58/467/157 56/468/157
f 36/469/158 35/470/158 87/471/158 88/472/158
f 27/473/159 21/474/159 70/475/159 85/476/159
f 106/477/160 40/478/160 86/479/160 111/480/160
f 206/481/161 215/482/161 236/483/162
f 214/484/163 215/485/163 204/486/164
f 208/487/165 215/488/165 209/489/166
f 210/490/167 215/491/167 216/492/168
f 213/493/169 215/494/169 205/495/170
f 212/496/171 215/497/171 235/498/172
f 211/499/173 215/500/173 217/501/174
f 207/502/175 215/503/175 218/504/176
f 170/505/177 283/506/178 259/507/179
f 179/508/180 292/509/181 203/510/182
f 177/511/183 290/512/184 201/513/185
f 171/514/186 284/515/187 260/516/188
f 174/517/189 287/518/190 198/519/191
f 159/520/192 272/521/193 248/522/194
f 160/523/195 273/524/196 249/525/197
f 171/526/198 144/527/198 130/528/198 157/529/198
f 224/530/199 230/531/199 256/532/199 250/533/199
f 186/534/200 192/535/200 168/536/200 162/537/200
f 286/538/201 276/539/201 187/540/201 197/541/201
f 160/542/202 133/543/202 131/544/202 158/545/202
f 221/546/203 223/547/203 249/548/203 247/549/203
f 132/550/204 147/551/204 116/552/204 129/553/204
f 211/554/205 217/555/205 231/556/205 225/557/205
f 142/558/206 115/559/206 124/560/206 138/561/206
f 150/562/207 130/563/207 117/564/207 147/565/207
f 152/566/208 134/567/208 119/568/208 145/569/208
f 144/570/209 120/571/210 117/572/210 130/573/210
f 210/574/211 216/575/211 230/576/211 224/577/211
f 243/578/212 216/579/212 208/580/212 221/581/212
f 151/582/213 138/583/213 124/584/213 128/585/213
f 244/586/214 235/587/214 213/588/214 227/589/214
f 153/590/215 129/591/215 116/592/215 115/593/215
f 208/594/216 209/595/216 223/596/216 221/597/216
f 140/598/217 146/599/217 119/600/217 134/601/217
f 141/602/218 127/603/218 121/604/218 135/605/218
f 149/606/219 136/607/219 122/608/219 127/609/219
f 196/610/220 186/611/220 162/612/220 172/613/220
f 166/614/221 139/615/221 136/616/221 163/617/221
f 190/618/222 166/619/222 163/620/222 187/621/222
f 175/622/223 165/623/223 138/624/223 151/625/223
f 173/626/224 163/627/224 136/628/224 149/629/224
f 179/630/225 164/631/225 137/632/225 155/633/225
f 174/634/226 157/635/226 130/636/226 150/637/226
f 214/638/227 204/639/227 232/640/227 228/641/227
f 177/642/228 156/643/228 129/644/228 153/645/228
f 288/646/229 264/647/229 254/648/229 278/649/229
f 213/650/230 205/651/230 233/652/230 227/653/230
f 266/654/231 242/655/231 219/656/231 245/657/231
f 159/658/232 132/659/232 129/660/232 156/661/232
f 176/662/233 161/663/233 134/664/233 152/665/233
f 170/666/234 143/667/234 137/668/234 164/669/234
f 267/670/235 247/671/235 271/672/235 291/673/235
f 182/674/236 158/675/236 178/676/236 202/677/236
f 217/678/237 238/679/237 149/680/237 127/681/237
f 243/682/238 267/683/238 178/684/238 154/685/238
f 187/686/239 163/687/239 173/688/239 197/689/239
f 278/690/240 254/691/240 258/692/240 282/693/240
f 216/694/241 146/695/241 140/696/241 230/697/241
f 236/698/242 147/699/242 132/700/242 222/701/242
f 281/702/243 257/703/243 168/704/243 192/705/243
f 225/706/244 231/707/244 257/708/244 251/709/244
f 292/710/245 277/711/245 188/712/245 203/713/245
f 228/714/246 232/715/246 258/716/246 254/717/246
f 289/718/247 265/719/247 250/720/247 274/721/247
f 180/722/248 156/723/248 177/724/248 201/725/248
f 280/726/249 191/727/249 185/728/249 274/729/249
f 289/730/250 274/731/250 185/732/250 200/733/250
f 206/734/251 204/735/162 215/736/251
f 214/737/252 209/738/253 215/739/252
f 208/740/254 216/741/166 215/742/254
f 210/743/255 205/744/256 215/745/255
f 213/746/257 235/747/170 215/748/257
f 212/749/258 217/750/172 215/751/258
f 211/752/259 218/753/174 215/754/259
f 207/755/260 236/756/261 215/757/260
f 239/758/262 236/759/262 207/760/262 220/761/262
f 237/762/263 218/763/263 211/764/263 225/765/263
f 178/766/264 158/767/264 131/768/264 154/769/264
f 242/770/265 204/771/265 206/772/265 219/773/265
f 133/774/266 128/775/266 118/776/266 131/777/266
f 267/778/267 243/779/267 221/780/267 247/781/267
f 207/782/268 218/783/268 234/784/268 220/785/268
f 212/786/269 235/787/269 229/788/269 226/789/269
f 238/790/270 217/791/270 212/792/270 226/793/270
f 240/794/271 209/795/271 214/796/271 228/797/271
f 154/798/272 131/799/272 118/800/272 146/801/272
f 206/802/273 236/803/273 222/804/273 219/805/273
f 148/806/274 135/807/274 121/808/274 120/809/274
f 139/810/275 126/811/275 122/812/275 136/813/275
f 155/814/276 137/815/276 123/816/276 126/817/276
f 143/818/277 145/819/278 123/820/278 137/821/278
f 284/822/279 195/823/279 181/824/279 270/825/279
f 226/826/280 229/827/280 255/828/280 252/829/280
f 265/830/281 241/831/281 224/832/281 250/833/281
f 231/834/282 141/835/282 168/836/282 257/837/282
f 264/838/283 240/839/283 228/840/283 254/841/283
f 262/842/284 238/843/284 226/844/284 252/845/284
f 219/846/285 222/847/285 248/848/285 245/849/285
f 263/850/286 239/851/286 220/852/286 246/853/286
f 241/854/287 205/855/287 210/856/287 224/857/287
f 168/858/288 141/859/288 135/860/288 162/861/288
f 268/862/289 244/863/289 227/864/289 253/865/289
f 261/866/290 237/867/290 225/868/290 251/869/290
f 220/870/291 234/871/291 260/872/291 246/873/291
f 172/874/292 162/875/292 135/876/292 148/877/292
f 227/878/293 233/879/293 259/880/293 253/881/293
f 252/882/294 255/883/294 279/884/294 276/885/294
f 283/886/295 194/887/295 188/888/295 277/889/295
f 244/890/296 268/891/296 179/892/296 155/893/296
f 204/894/297 242/895/297 153/896/297 115/897/297
f 182/898/298 184/899/298 160/900/298 158/901/298
f 232/902/299 142/903/299 169/904/299 258/905/299
f 238/906/300 262/907/300 173/908/300 149/909/300
f 241/910/301 265/911/301 176/912/301 152/913/301
f 218/914/302 237/915/302 148/916/302 120/917/302
f 199/918/303 189/919/303 165/920/303 175/921/303
f 263/922/304 246/923/304 270/924/304 287/925/304
f 167/926/305 140/927/305 134/928/305 161/929/305
f 266/930/306 245/931/306 269/932/306 290/933/306
f 169/934/307 142/935/307 138/936/307 165/937/307
f 271/938/308 247/939/308 249/940/308 273/941/308
f 205/942/309 145/943/309 143/944/309 233/945/309
f 277/946/310 253/947/310 259/948/310 283/949/310
f 230/950/311 140/951/311 167/952/311 256/953/311
f 269/954/312 245/955/312 248/956/312 272/957/312
f 188/958/313 164/959/313 179/960/313 203/961/313
f 216/962/314 243/963/314 154/964/314 146/965/314
f 209/966/315 240/967/315 151/968/315 128/969/315
f 235/970/316 126/971/316 139/972/316 229/973/316
f 235/974/317 244/975/317 155/976/317 126/977/317
f 223/978/318 133/979/318 160/980/318 249/981/318
f 218/982/319 120/983/319 144/984/319 234/985/319
f 217/986/320 127/987/320 141/988/320 231/989/320
f 205/990/321 241/991/321 152/992/321 145/993/321
f 209/994/322 128/995/322 133/996/322 223/997/322
f 200/998/323 185/999/323 161/1000/323 176/1001/323
f 189/1002/324 193/1003/324 169/1004/324 165/1005/324
f 222/1006/325 132/1007/325 159/1008/325 248/1009/325
f 229/1010/326 139/1011/326 166/1012/326 255/1013/326
f 181/1014/327 195/1015/327 171/1016/327 157/1017/327
f 180/1018/328 183/1019/328 159/1020/328 156/1021/328
f 240/1022/329 264/1023/329 175/1024/329 151/1025/329
f 279/1026/330 190/1027/330 187/1028/330 276/1029/330
f 204/1030/331 115/1031/331 142/1032/331 232/1033/331
f 242/1034/332 266/1035/332 177/1036/332 153/1037/332
f 188/1038/333 194/1039/333 170/1040/333 164/1041/333
f 234/1042/334 144/1043/334 171/1044/334 260/1045/334
f 268/1046/335 253/1047/335 277/1048/335 292/1049/335
f 185/1050/336 191/1051/336 167/1052/336 161/1053/336
f 237/1054/337 261/1055/337 172/1056/337 148/1057/337
f 233/1058/338 143/1059/338 170/1060/338 259/1061/338
f 236/1062/339 239/1063/339 150/1064/339 147/1065/339
f 239/1066/340 263/1067/340 174/1068/340 150/1069/340
f 288/1070/341 278/1071/341 189/1072/341 199/1073/341
f 273/1074/342 184/1075/342 182/1076/342 271/1077/342
f 274/1078/343 250/1079/343 256/1080/343 280/1081/343
f 181/1082/344 157/1083/344 174/1084/344 198/1085/344
f 262/1086/345 252/1087/345 276/1088/345 286/1089/345
f 291/1090/346 271/1091/346 182/1092/346 202/1093/346
f 285/1094/347 275/1095/347 186/1096/347 196/1097/347
f 281/1098/348 192/1099/348 186/1100/348 275/1101/348
f 275/1102/349 251/1103/349 257/1104/349 281/1105/349
f 282/1106/350 193/1107/350 189/1108/350 278/1109/350
f 272/1110/351 183/1111/352 180/1112/352 269/1113/352
f 270/1114/353 246/1115/353 260/1116/353 284/1117/353
f 285/1118/354 261/1119/354 251/1120/354 275/1121/354
f 287/1122/355 270/1123/355 181/1124/355 198/1125/355
f 290/1126/356 269/1127/356 180/1128/356 201/1129/356
f 282/1130/357 258/1131/357 169/1132/357 193/1133/357
f 291/1134/358 202/1135/358 178/1136/358 267/1137/358
f 170/1138/359 194/1139/360 283/1140/361
f 179/1141/362 268/1142/363 292/1143/364
f 289/1144/365 200/1145/365 176/1146/365 265/1147/365
f 177/1148/366 266/1149/367 290/1150/368
f 288/1151/369 199/1152/369 175/1153/369 264/1154/369
f 279/1155/370 255/1156/370 166/1157/370 190/1158/370
f 285/1159/371 196/1160/371 172/1161/371 261/1162/371
f 280/1163/372 256/1164/372 167/1165/372 191/1166/372
f 171/1167/373 195/1168/374 284/1169/375
f 286/1170/376 197/1171/376 173/1172/376 262/1173/376
f 174/1174/377 263/1175/191 287/1176/378
f 159/1177/379 183/1178/194 272/1179/380
f 160/1180/381 184/1181/197 273/1182/382
f 125/1183/383 116/1184/383 147/1185/384
f 125/1186/385 124/1187/385 115/1188/386
f 125/1189/387 118/1190/387 128/1191/388
f 125/1192/389 119/1193/389 146/1194/390
f 125/1195/391 123/1196/391 145/1197/392
f 125/1198/393 122/1199/393 126/1200/394
f 125/1201/395 121/1202/396 127/1203/397
f 125/1204/398 117/1205/399 120/1206/400
f 125/1207/401 115/1208/384 116/1209/401
f 125/1210/402 128/1211/386 124/1212/402
f 125/1213/403 146/1214/388 118/1215/403
f 125/1216/404 145/1217/390 119/1218/404
f 125/1219/405 126/1220/392 123/1221/405
f 125/1222/406 127/1223/394 122/1224/406
f 125/1225/407 120/1226/397 121/1227/407
f 125/1228/408 147/1229/400 117/1230/409
