# Blender v3.0.0 OBJ File: 'aa.blend'
# www.blender.org
mtllib Pyramid_M.mtl
o Pyramid_M
v -16.186878 -0.000003 -5.161123
v 16.568008 0.000002 3.696925
v 11.327581 12.742505 2.850088
v 7.658162 23.664284 0.039173
v 3.873562 35.280346 0.150215
v -11.434946 12.641684 -5.667060
v -7.948755 23.545309 3.227331
v -4.158316 35.280327 -0.106264
v -12.678128 10.574347 0.188213
v 12.061125 10.892819 -0.166636
v -8.516547 21.927851 0.125349
v 8.101581 22.394094 0.043202
v -4.120863 34.698967 0.047651
v 3.960472 34.698727 0.040102
v 11.468307 11.718163 3.074029
v 7.654755 23.375948 0.039925
v 3.759614 35.033840 0.041183
v -7.817525 23.103508 -0.201549
v -3.885116 35.033958 0.050657
v -11.514015 11.717750 0.041213
v 11.621350 11.195260 0.040640
v -8.031231 22.427429 -1.002141
v 7.726470 22.888918 0.041309
v -4.082502 34.698570 0.034792
v 3.864175 34.698750 0.041054
v 7.279126 -0.000010 -16.042068
v -1.835386 0.000010 16.436527
v -0.760226 12.166167 11.887016
v -0.301959 23.789875 8.030231
v -0.211631 35.164261 4.114940
v 0.216300 12.177064 -11.629525
v 1.207406 24.299416 -7.634591
v 0.026377 35.280285 -3.899148
v -0.086987 10.259864 -12.317835
v -3.481714 10.675970 12.110847
v -0.495008 21.918652 -8.231907
v -0.158929 22.447657 8.120684
v -0.099197 34.622665 -4.092402
v -0.086846 34.698906 4.215585
v -0.084586 11.717818 11.667605
v -0.086857 23.375973 7.800902
v -0.085614 35.033756 3.898295
v -0.086771 11.718093 -11.518222
v -0.086544 23.375948 -7.623277
v -0.086868 35.033840 -3.802840
v -0.086933 11.195679 -11.636479
v -3.311603 11.051184 11.847607
v 0.188917 22.431917 -8.081112
v -0.084478 22.888943 7.993576
v -0.086035 34.698456 -3.888322
v -0.087939 34.698849 3.995671
v 14.191481 5.392031 -3.972738
v -14.556395 4.800321 0.607704
v -0.459686 4.781182 14.538511
v -6.276321 5.628245 -14.028190
v 9.950539 17.303604 0.038793
v -10.311928 17.244226 -3.111248
v 5.123473 17.293848 10.129118
v 0.254424 17.295137 -9.793970
v 5.953477 29.037436 0.043885
v -5.933894 29.037119 0.042403
v -1.623227 30.915529 5.995251
v -0.643272 31.517963 -5.199638
v 1.810585 40.862633 0.047739
v -2.768415 38.863945 -0.217732
v -0.064665 41.230968 1.576895
v -0.088047 40.862736 -1.907434
v -11.877087 0.000010 16.019623
v -15.892134 0.000009 14.625300
v -15.696424 -0.000008 -13.206082
v -13.600417 -0.000009 -15.926423
v 16.002613 0.000008 14.011636
v 11.253152 0.000010 16.175810
v 12.753701 -0.000009 -15.695586
v 15.967220 -0.000006 -10.556412
v -10.514830 12.338882 11.627938
v -11.788187 12.087567 10.082898
v -6.541258 24.102449 7.510192
v -7.764564 24.030560 6.522816
v -3.683404 35.280533 3.043462
v -4.068508 35.279972 2.711512
v -2.737246 35.280167 -3.962870
v -3.230090 35.280369 -3.319362
v -7.653114 24.092028 -6.445996
v -6.568317 24.051434 -7.692678
v -10.472651 12.631015 -11.411358
v -11.283717 12.573554 -10.778566
v 3.862964 35.272491 -2.620816
v 2.771970 35.272537 -3.794350
v 7.645908 24.064312 -6.446926
v 6.491528 23.786219 -7.640220
v 11.193506 12.526166 -8.705979
v 10.019733 12.716453 -11.388592
v 2.575233 35.280006 3.941620
v 3.776021 35.280289 2.891053
v 6.271841 24.339430 7.574499
v 7.639549 24.002726 5.492253
v 11.426960 12.344866 10.577526
v 10.138343 12.347528 11.535913
v -11.237850 10.489104 -12.272163
v -11.940030 11.073682 -10.999210
v 11.917230 10.312547 -10.748836
v 10.973614 10.878263 -11.866993
v 11.307908 10.610238 12.003301
v 11.904068 10.949544 10.968151
v -11.448486 10.992186 11.647403
v -12.173496 10.952706 11.033169
v -7.557130 22.553902 7.791569
v -8.119644 22.888197 6.902623
v -7.681406 21.971035 -7.948795
v -8.397387 21.971184 -7.285181
v 7.890016 21.977163 -7.465247
v 6.813276 22.371153 -7.913149
v 7.724837 22.463932 7.568056
v 8.126650 22.453930 7.085776
v -4.144192 34.700027 2.946978
v -3.938737 34.697937 3.082161
v -3.092922 34.566196 -4.224222
v -3.533172 34.691463 -3.301219
v 3.998174 34.698742 -2.840226
v 2.804361 34.698452 -3.973626
v 2.798143 34.698654 4.037406
v 3.963425 34.698708 2.920576
v -11.884766 11.196261 10.563377
v -10.602658 11.195673 11.699629
v -11.710199 11.717622 10.426821
v -10.405078 11.718578 11.498965
v -6.709249 22.888290 7.792791
v -8.003036 23.011641 6.745544
v -6.569280 23.375954 7.667744
v -7.749476 23.376026 6.549748
v -2.440642 34.699501 3.249290
v -3.889248 34.755589 2.701005
v -2.344744 35.033581 3.148090
v -3.800164 34.975899 2.588693
v 10.224723 11.718224 11.450066
v 11.479749 11.718122 10.422933
v 7.648818 23.376301 5.532578
v 6.342193 23.375656 7.639439
v 2.572281 35.033920 3.857384
v 3.748248 35.033833 2.711596
v 11.270099 11.717669 -10.252439
v 10.371786 11.718455 -11.512728
v 7.544495 23.375992 -6.454074
v 6.409593 23.375986 -7.663774
v 3.753147 35.033840 -2.618782
v 2.583518 35.033833 -3.795842
v -10.486191 11.492702 -11.514188
v -11.575854 11.718058 -10.327621
v -6.587492 23.375954 -7.637051
v -7.744837 23.375959 -6.450571
v -2.724981 35.033916 -3.789261
v -10.566244 11.195189 -11.603520
v -11.846685 11.196605 -10.566298
v 11.449834 11.195230 -10.427563
v 10.515897 11.196063 -11.698855
v 10.386841 11.194902 11.612929
v 11.709142 11.197159 10.640944
v -6.740688 22.888845 -7.780231
v -7.887207 22.888758 -6.617707
v 7.409674 22.911888 -6.823729
v 6.163712 22.911629 -7.892957
v 7.702157 22.888569 6.656215
v 6.623839 22.889236 7.851385
v -2.770848 34.692135 -3.774753
v 3.864629 34.698792 -2.732178
v 2.684779 34.699017 -3.928430
v 3.864164 34.698765 2.814144
v 2.685666 34.698727 3.991283
v -0.403793 43.294487 0.340843
v 1.036711 43.293262 0.031915
v -0.081352 42.692642 -1.372526
v -0.763979 42.988201 -0.558383
v -13.188957 7.383094 -12.236492
v -12.844485 5.627977 -13.880580
v 12.667261 5.627734 -13.713968
v 13.805252 5.600494 -11.716578
v 13.364039 6.111376 12.906744
v 11.427663 6.084085 14.001696
v -13.958591 5.627916 12.797628
v -12.703133 4.790424 13.815046
v -10.702720 16.068697 -8.252154
v -9.597861 16.069027 -9.573580
v 8.774690 17.303436 -9.875954
v 9.719820 17.303350 -8.744550
v 9.901958 17.303581 8.859281
v 8.675331 17.303368 9.944634
v -10.155141 17.800484 7.962956
v -8.636249 16.717163 9.751315
v -5.375100 28.905334 -5.747680
v -4.642648 28.905146 -6.369715
v 5.533764 27.705400 -5.971042
v 6.650347 27.705198 -4.713740
v 6.700107 26.521278 5.585905
v 5.598168 26.521597 6.940695
v -4.622608 32.950832 3.754128
v -4.520394 32.547443 4.352030
v -2.002350 40.099247 1.614829
v -1.996445 40.862499 0.830059
v -1.263809 40.862946 -1.711573
v -0.917953 40.862808 -1.949137
v 1.000848 40.683197 -1.903914
v 1.690808 40.683319 -1.279250
v 1.900913 40.862930 0.934625
v 1.530409 40.862858 1.274208
vt 0.909425 0.383631
vt 0.920914 0.361788
vt 0.920914 0.392124
vt 0.270789 0.419434
vt 0.281554 0.388216
vt 0.281554 0.423592
vt 0.868756 0.913352
vt 0.868756 0.952098
vt 0.853989 0.922562
vt 0.914702 0.529295
vt 0.907824 0.402345
vt 0.920843 0.397789
vt 0.920843 0.533175
vt 0.517833 0.880663
vt 0.517833 0.962349
vt 0.505088 0.890509
vt 0.806101 0.588568
vt 0.724985 0.581273
vt 0.806101 0.578938
vt 0.642856 0.961006
vt 0.634419 0.918698
vt 0.642856 0.917820
vt 0.905303 0.730677
vt 0.905303 0.831234
vt 0.884057 0.829580
vt 0.883554 0.729767
vt 0.503772 0.197534
vt 0.498233 0.189655
vt 0.589403 0.189571
vt 0.589403 0.197609
vt 0.976432 0.184670
vt 0.976432 0.327944
vt 0.971988 0.190755
vt 0.977875 0.541951
vt 0.973742 0.401972
vt 0.977875 0.397789
vt 0.277646 0.943504
vt 0.277080 0.922055
vt 0.286409 0.922596
vt 0.286409 0.943995
vt 0.914223 0.822093
vt 0.911157 0.729570
vt 0.914223 0.718712
vt 0.573320 0.949337
vt 0.569921 0.916575
vt 0.573320 0.897360
vt 0.178631 0.226093
vt 0.177981 0.189992
vt 0.178631 0.188470
vt 0.445221 0.248230
vt 0.443937 0.212323
vt 0.445221 0.210944
vt 0.650411 0.847056
vt 0.653258 0.811161
vt 0.653258 0.847066
vt 0.947469 0.383080
vt 0.954805 0.339933
vt 0.954805 0.392089
vt 0.260464 0.837730
vt 0.258877 0.820399
vt 0.335920 0.819316
vt 0.335920 0.855187
vt 0.208095 0.726164
vt 0.245384 0.726025
vt 0.245384 0.803719
vt 0.183726 0.822957
vt 0.799010 0.598043
vt 0.799010 0.695807
vt 0.732799 0.619920
vt 0.931748 0.638247
vt 0.944962 0.634648
vt 0.944962 0.734821
vt 0.936726 0.733249
vt 0.757335 0.796663
vt 0.657981 0.744253
vt 0.757335 0.729767
vt 0.876073 0.533175
vt 0.835034 0.500958
vt 0.876073 0.452279
vt 0.254288 0.721437
vt 0.184180 0.721254
vt 0.183726 0.630085
vt 0.254288 0.607254
vt 0.685756 0.941568
vt 0.672190 0.942228
vt 0.678429 0.922904
vt 0.685756 0.921148
vt 0.100800 0.719472
vt 0.109098 0.609484
vt 0.172810 0.604385
vt 0.172810 0.699262
vt 0.383398 0.032930
vt 0.445986 0.002294
vt 0.445986 0.206355
vt 0.370222 0.175875
vt 0.878966 0.729767
vt 0.878966 0.811572
vt 0.827428 0.745086
vt 0.373202 0.857419
vt 0.373202 0.919657
vt 0.344018 0.879331
vt 0.843248 0.842488
vt 0.872953 0.827099
vt 0.872953 0.908764
vt 0.846832 0.908677
vt 0.820763 0.002294
vt 0.820763 0.065054
vt 0.728854 0.024254
vt 0.177981 0.301097
vt 0.178534 0.269440
vt 0.178534 0.301218
vt 0.789848 0.721452
vt 0.777874 0.716195
vt 0.775303 0.703108
vt 0.789848 0.700395
vt 0.054351 0.002294
vt 0.179138 0.012494
vt 0.179138 0.103372
vt 0.002294 0.141875
vt 0.579331 0.293455
vt 0.646312 0.277173
vt 0.646312 0.435941
vt 0.578335 0.423553
vt 0.988200 0.599401
vt 0.988200 0.701472
vt 0.981732 0.692279
vt 0.650842 0.872609
vt 0.650411 0.851719
vt 0.652294 0.851654
vt 0.652294 0.873217
vt 0.202154 0.230735
vt 0.266200 0.232365
vt 0.266200 0.423824
vt 0.183726 0.384595
vt 0.187252 0.591450
vt 0.183726 0.578334
vt 0.299021 0.511788
vt 0.299021 0.602665
vt 0.790026 0.924233
vt 0.790026 0.960410
vt 0.786803 0.958680
vt 0.786658 0.924269
vt 0.700141 0.921148
vt 0.700141 0.948242
vt 0.690344 0.925590
vt 0.510190 0.699576
vt 0.498233 0.605840
vt 0.571565 0.618752
vt 0.571565 0.716516
vt 0.172810 0.803441
vt 0.086665 0.802993
vt 0.172810 0.724060
vt 0.002294 0.818204
vt 0.065671 0.761096
vt 0.065671 0.844075
vt 0.837582 0.867472
vt 0.837582 0.969979
vt 0.828050 0.955716
vt 0.439349 0.210944
vt 0.439349 0.264389
vt 0.370222 0.230564
vt 0.327587 0.588458
vt 0.303609 0.511788
vt 0.339111 0.512006
vt 0.339111 0.589058
vt 0.983657 0.020228
vt 0.983657 0.145555
vt 0.978657 0.064734
vt 0.861008 0.264512
vt 0.891144 0.184670
vt 0.891144 0.270268
vt 0.119141 0.919202
vt 0.086665 0.921277
vt 0.096544 0.887889
vt 0.119141 0.888521
vt 0.536196 0.923386
vt 0.553845 0.897360
vt 0.553845 0.946462
vt 0.847117 0.277173
vt 0.847117 0.382437
vt 0.795010 0.325416
vt 0.972231 0.729427
vt 0.977144 0.599401
vt 0.977144 0.733859
vt 0.768181 0.081504
vt 0.768181 0.271388
vt 0.731250 0.173807
vt 0.405438 0.411925
vt 0.306445 0.410108
vt 0.288574 0.277173
vt 0.405438 0.308363
vt 0.508977 0.217068
vt 0.636668 0.202197
vt 0.636668 0.272585
vt 0.498233 0.267660
vt 0.957140 0.927002
vt 0.957140 0.948483
vt 0.953605 0.946749
vt 0.953888 0.926009
vt 0.790422 0.277173
vt 0.790422 0.387700
vt 0.721048 0.345600
vt 0.254288 0.870619
vt 0.251859 0.731487
vt 0.254288 0.726025
vt 0.757267 0.923486
vt 0.757267 0.958055
vt 0.753749 0.956649
vt 0.754067 0.921148
vt 0.783632 0.462943
vt 0.830446 0.452279
vt 0.830446 0.573559
vt 0.810355 0.570191
vt 0.128737 0.808029
vt 0.128737 0.883301
vt 0.086665 0.829110
vt 0.479694 0.931796
vt 0.487463 0.880663
vt 0.500499 0.883483
vt 0.500499 0.939814
vt 0.183726 0.002294
vt 0.283986 0.034366
vt 0.283986 0.226146
vt 0.193178 0.178624
vt 0.333621 0.917467
vt 0.249499 0.911055
vt 0.333621 0.908690
vt 0.501766 0.165651
vt 0.528451 0.170344
vt 0.528451 0.175775
vt 0.496649 0.178978
vt 0.036967 0.848663
vt 0.036967 0.910305
vt 0.002294 0.884379
vt 0.875024 0.002294
vt 0.875024 0.076754
vt 0.825351 0.049789
vt 0.925502 0.391939
vt 0.929099 0.361788
vt 0.929099 0.392603
vt 0.962295 0.544909
vt 0.962295 0.589465
vt 0.957353 0.587920
vt 0.102409 0.321570
vt 0.102409 0.461435
vt 0.081564 0.457529
vt 0.094546 0.323930
vt 0.734342 0.880413
vt 0.756261 0.801251
vt 0.756261 0.902965
vt 0.739554 0.947269
vt 0.731345 0.922530
vt 0.739554 0.921148
vt 0.077786 0.702809
vt 0.076296 0.703529
vt 0.075581 0.681790
vt 0.077786 0.681499
vt 0.883601 0.944441
vt 0.883554 0.923447
vt 0.891747 0.925226
vt 0.891747 0.946015
vt 0.258877 0.770329
vt 0.337779 0.739407
vt 0.337779 0.814728
vt 0.260821 0.814300
vt 0.658663 0.488573
vt 0.720397 0.452279
vt 0.720397 0.566463
vt 0.653203 0.588597
vt 0.450574 0.262679
vt 0.488417 0.252168
vt 0.488417 0.265961
vt 0.878217 0.719090
vt 0.881249 0.684436
vt 0.884055 0.684743
vt 0.884055 0.723541
vt 0.540523 0.048321
vt 0.600135 0.002294
vt 0.600135 0.178877
vt 0.586107 0.184145
vt 0.348047 0.416513
vt 0.348047 0.421544
vt 0.328537 0.421193
vt 0.296128 0.955250
vt 0.290998 0.929967
vt 0.296128 0.922055
vt 0.391768 0.271972
vt 0.370222 0.270592
vt 0.391768 0.268977
vt 0.138360 0.889969
vt 0.143784 0.889684
vt 0.143784 0.970038
vt 0.133325 0.969203
vt 0.339193 0.880429
vt 0.258877 0.878851
vt 0.258942 0.872346
vt 0.339193 0.859776
vt 0.409880 0.936171
vt 0.409880 0.951527
vt 0.403670 0.946801
vt 0.057749 0.955167
vt 0.052393 0.936426
vt 0.057749 0.933836
vt 0.721677 0.404386
vt 0.785255 0.392288
vt 0.785255 0.430273
vt 0.721048 0.423459
vt 0.835034 0.581640
vt 0.853191 0.537764
vt 0.853191 0.590682
vt 0.493645 0.446638
vt 0.410026 0.449474
vt 0.427186 0.295467
vt 0.493645 0.277173
vt 0.704729 0.925824
vt 0.716885 0.921148
vt 0.716885 0.943769
vt 0.709732 0.940720
vt 0.880796 0.081504
vt 0.880796 0.156735
vt 0.832309 0.130731
vt 0.794437 0.721044
vt 0.794877 0.700395
vt 0.798158 0.701154
vt 0.798158 0.722408
vt 0.722044 0.955500
vt 0.721474 0.922622
vt 0.726757 0.921148
vt 0.726757 0.957643
vt 0.177398 0.443113
vt 0.177862 0.407216
vt 0.179108 0.407245
vt 0.179108 0.444534
vt 0.750092 0.700395
vt 0.750092 0.724899
vt 0.736330 0.721106
vt 0.732799 0.708437
vt 0.942881 0.322743
vt 0.942881 0.392089
vt 0.936384 0.391040
vt 0.952765 0.594011
vt 0.944868 0.556676
vt 0.952765 0.544909
vt 0.629830 0.868824
vt 0.579095 0.857533
vt 0.583756 0.824667
vt 0.629830 0.811161
vt 0.173393 0.402628
vt 0.108116 0.221447
vt 0.173393 0.146463
vt 0.283934 0.230735
vt 0.283934 0.383628
vt 0.270789 0.234576
vt 0.531212 0.880663
vt 0.531212 0.976607
vt 0.522421 0.961874
vt 0.657008 0.002294
vt 0.657008 0.183281
vt 0.604723 0.048940
vt 0.827721 0.198116
vt 0.772769 0.151205
vt 0.827721 0.081504
vt 0.041556 0.937502
vt 0.047805 0.933836
vt 0.047805 0.954034
vt 0.183726 0.505534
vt 0.201476 0.431426
vt 0.342069 0.428412
vt 0.342069 0.507200
vt 0.320006 0.607254
vt 0.320006 0.734819
vt 0.258877 0.697046
vt 0.277176 0.612788
vt 0.226814 0.897289
vt 0.216800 0.831147
vt 0.246342 0.827546
vt 0.246342 0.902858
vt 0.966143 0.921421
vt 0.959907 0.918893
vt 0.953605 0.835882
vt 0.966143 0.835823
vt 0.957715 0.537823
vt 0.950926 0.534847
vt 0.957715 0.397789
vt 0.931129 0.922404
vt 0.918826 0.922836
vt 0.910440 0.847095
vt 0.931129 0.835823
vt 0.988742 0.397789
vt 0.988742 0.492665
vt 0.982464 0.483342
vt 0.078209 0.676911
vt 0.075581 0.675817
vt 0.078209 0.643974
vt 0.896797 0.957795
vt 0.896336 0.923647
vt 0.900234 0.923447
vt 0.900234 0.959232
vt 0.667188 0.940257
vt 0.664387 0.939905
vt 0.667188 0.904142
vt 0.178643 0.485054
vt 0.177398 0.484999
vt 0.178643 0.449122
vt 0.178667 0.146463
vt 0.178667 0.183881
vt 0.177981 0.182465
vt 0.178574 0.230682
vt 0.178574 0.264851
vt 0.177981 0.264654
vt 0.489894 0.676318
vt 0.489894 0.712853
vt 0.462343 0.696650
vt 0.464348 0.658982
vt 0.893228 0.836414
vt 0.905851 0.835823
vt 0.905851 0.918859
vt 0.883554 0.918827
vt 0.498233 0.425217
vt 0.521026 0.281735
vt 0.573747 0.277173
vt 0.573747 0.447691
vt 0.309672 0.923021
vt 0.309672 0.944494
vt 0.304331 0.943545
vt 0.300717 0.922055
vt 0.729753 0.899554
vt 0.652132 0.897280
vt 0.652572 0.885240
vt 0.729753 0.878812
vt 0.266615 0.887497
vt 0.333621 0.885018
vt 0.333621 0.904102
vt 0.258877 0.901427
vt 0.672245 0.912323
vt 0.672190 0.908590
vt 0.756261 0.907553
vt 0.756261 0.916560
vt 0.369182 0.958690
vt 0.369291 0.924257
vt 0.372692 0.924245
vt 0.372692 0.960116
vt 0.949017 0.836029
vt 0.949017 0.933414
vt 0.935717 0.924630
vt 0.940982 0.835823
vt 0.168891 0.808355
vt 0.168891 0.885096
vt 0.154816 0.882651
vt 0.133325 0.808029
vt 0.493645 0.589675
vt 0.493645 0.654393
vt 0.379918 0.652639
vt 0.344018 0.590675
vt 0.863193 0.544925
vt 0.884401 0.544909
vt 0.884401 0.679848
vt 0.877164 0.678663
vt 0.793468 0.919645
vt 0.761924 0.897057
vt 0.793468 0.867472
vt 0.927920 0.546318
vt 0.940279 0.544909
vt 0.940279 0.614640
vt 0.918889 0.615254
vt 0.403883 0.428412
vt 0.403883 0.562544
vt 0.346657 0.485621
vt 0.914223 0.714124
vt 0.888990 0.686496
vt 0.914223 0.634648
vt 0.858605 0.679848
vt 0.803598 0.645993
vt 0.858605 0.598043
vt 0.938829 0.145048
vt 0.947013 0.020228
vt 0.947013 0.146566
vt 0.399082 0.857419
vt 0.399082 0.938258
vt 0.377790 0.915902
vt 0.605368 0.187869
vt 0.625740 0.187909
vt 0.625740 0.196391
vt 0.604723 0.197478
vt 0.936384 0.317013
vt 0.944602 0.184670
vt 0.944602 0.318154
vt 0.474648 0.917112
vt 0.463231 0.899991
vt 0.474648 0.816401
vt 0.550848 0.810043
vt 0.572262 0.807621
vt 0.572262 0.892772
vt 0.536196 0.889940
vt 0.823462 0.930232
vt 0.798057 0.895233
vt 0.823462 0.867472
vt 0.356579 0.924245
vt 0.356579 0.961778
vt 0.353226 0.958568
vt 0.834210 0.161905
vt 0.853273 0.161324
vt 0.853273 0.192769
vt 0.832309 0.197762
vt 0.323329 0.928265
vt 0.332338 0.922055
vt 0.332338 0.943309
vt 0.645822 0.913232
vt 0.634419 0.900419
vt 0.645822 0.811161
vt 0.178714 0.808029
vt 0.178714 0.948652
vt 0.173479 0.942864
vt 0.838660 0.827099
vt 0.838660 0.862884
vt 0.762020 0.838735
vt 0.761924 0.827979
vt 0.360460 0.663199
vt 0.457754 0.658982
vt 0.457754 0.729090
vt 0.344018 0.728203
vt 0.014378 0.513491
vt 0.078238 0.510832
vt 0.078238 0.639385
vt 0.002294 0.605806
vt 0.344018 0.815619
vt 0.421712 0.815543
vt 0.421712 0.852831
vt 0.728211 0.725179
vt 0.657981 0.720477
vt 0.664834 0.610389
vt 0.728211 0.598043
vt 0.238395 0.946193
vt 0.226452 0.947786
vt 0.216800 0.919028
vt 0.238395 0.907447
vt 0.070341 0.951171
vt 0.068071 0.949217
vt 0.070341 0.848663
vt 0.164845 0.943130
vt 0.148373 0.923410
vt 0.164845 0.889684
vt 0.653203 0.445058
vt 0.778504 0.438346
vt 0.778504 0.447691
vt 0.885238 0.277173
vt 0.885238 0.370156
vt 0.851705 0.308721
vt 0.416741 0.931378
vt 0.403670 0.857963
vt 0.424865 0.857419
vt 0.424865 0.931583
vt 0.092203 0.510832
vt 0.092203 0.714892
vt 0.082827 0.640619
vt 0.103528 0.146463
vt 0.103528 0.316981
vt 0.002294 0.307111
vt 0.580435 0.677573
vt 0.584001 0.602337
vt 0.653392 0.598043
vt 0.653392 0.723523
vt 0.779044 0.574350
vt 0.724985 0.517935
vt 0.779044 0.452279
vt 0.605441 0.879271
vt 0.626431 0.873412
vt 0.626431 0.929932
vt 0.604885 0.933035
vt 0.288574 0.177912
vt 0.365634 0.002294
vt 0.365634 0.272585
vt 0.288574 0.422672
vt 0.323949 0.416513
vt 0.323949 0.423019
vt 0.914301 0.544909
vt 0.914301 0.630059
vt 0.888990 0.615798
vt 0.661596 0.047505
vt 0.724266 0.002294
vt 0.724266 0.145845
vt 0.997706 0.791379
vt 0.992463 0.789991
vt 0.997706 0.706060
vt 0.479694 0.854104
vt 0.531607 0.807621
vt 0.531607 0.876075
vt 0.183726 0.852275
vt 0.212212 0.827546
vt 0.212212 0.906940
vt 0.212151 0.911529
vt 0.212151 0.958587
vt 0.207503 0.941535
vt 0.346657 0.570948
vt 0.378975 0.567132
vt 0.378975 0.579669
vt 0.346888 0.579071
vt 0.422005 0.550673
vt 0.409300 0.454062
vt 0.493645 0.467057
vt 0.493645 0.585087
vt 0.959393 0.347647
vt 0.964909 0.339933
vt 0.964909 0.391860
vt 0.473433 0.733679
vt 0.473433 0.811813
vt 0.429805 0.803275
vt 0.981732 0.793905
vt 0.987874 0.706060
vt 0.987874 0.808367
vt 0.770714 0.700395
vt 0.770714 0.721531
vt 0.755054 0.714533
vt 0.754680 0.701902
vt 0.880661 0.531975
vt 0.882342 0.415149
vt 0.903236 0.415146
vt 0.903236 0.533175
vt 0.945825 0.178536
vt 0.941171 0.173834
vt 0.945825 0.152470
vt 0.650900 0.342773
vt 0.716459 0.277173
vt 0.716459 0.421553
vt 0.070993 0.643974
vt 0.070993 0.756508
vt 0.002294 0.717197
vt 0.364594 0.926706
vt 0.364594 0.961274
vt 0.361167 0.959811
vt 0.361520 0.924245
vt 0.089854 0.505299
vt 0.081564 0.484262
vt 0.089854 0.466024
vt 0.365582 0.416513
vt 0.365582 0.421155
vt 0.362474 0.420468
vt 0.873629 0.684436
vt 0.873629 0.713235
vt 0.803598 0.710952
vt 0.810716 0.696538
vt 0.251106 0.875302
vt 0.254288 0.875207
vt 0.254288 0.900902
vt 0.772769 0.245117
vt 0.773871 0.216340
vt 0.856419 0.202705
vt 0.856419 0.270268
vt 0.105779 0.947455
vt 0.098506 0.935156
vt 0.105779 0.925865
vt 0.949599 0.825097
vt 0.949794 0.744201
vt 0.962225 0.744647
vt 0.962225 0.829392
vt 0.729753 0.801251
vt 0.729753 0.874223
vt 0.657981 0.840314
vt 0.659156 0.805515
vt 0.795010 0.413124
vt 0.850733 0.387026
vt 0.850733 0.443397
vt 0.797146 0.426026
vt 0.571565 0.721104
vt 0.571565 0.803033
vt 0.479694 0.758018
vt 0.600297 0.944158
vt 0.579095 0.944187
vt 0.579523 0.874198
vt 0.600297 0.873412
vt 0.082077 0.724060
vt 0.082077 0.903830
vt 0.076264 0.726563
vt 0.324636 0.729090
vt 0.332499 0.594348
vt 0.339430 0.594139
vt 0.339430 0.728823
vt 0.465863 0.717441
vt 0.465863 0.727934
vt 0.462343 0.726247
vt 0.086665 0.934507
vt 0.093918 0.925865
vt 0.093918 0.948042
vt 0.936582 0.178536
vt 0.922193 0.173340
vt 0.936582 0.159044
vt 0.402638 0.567132
vt 0.402638 0.582131
vt 0.386574 0.581536
vt 0.383564 0.576485
vt 0.315202 0.593646
vt 0.315202 0.600987
vt 0.303609 0.594394
vt 0.857861 0.167614
vt 0.872506 0.161324
vt 0.872506 0.177258
vt 0.454308 0.120099
vt 0.450574 0.016781
vt 0.535935 0.002294
vt 0.535935 0.161063
vt 0.876073 0.378222
vt 0.876073 0.447691
vt 0.857840 0.422067
vt 0.041556 0.857283
vt 0.063483 0.848663
vt 0.063483 0.929247
vt 0.458643 0.897318
vt 0.445906 0.903794
vt 0.429805 0.833359
vt 0.458643 0.816401
vt 0.962303 0.404268
vt 0.969154 0.397789
vt 0.969154 0.525354
vt 0.652132 0.916061
vt 0.659798 0.904142
vt 0.659798 0.984981
vt 0.013255 0.915598
vt 0.026388 0.914894
vt 0.026388 0.951428
vt 0.575847 0.452279
vt 0.575847 0.601252
vt 0.498233 0.561176
vt 0.172810 0.599797
vt 0.108116 0.551749
vt 0.172810 0.407216
vt 0.199182 0.982641
vt 0.194805 0.912050
vt 0.202915 0.911529
vt 0.202915 0.982631
vt 0.849401 0.913352
vt 0.849401 0.997284
vt 0.843248 0.994562
vt 0.726662 0.271388
vt 0.661596 0.258728
vt 0.726662 0.150433
vt 0.917605 0.020228
vt 0.917605 0.164609
vt 0.904864 0.156140
vt 0.919970 0.184670
vt 0.919970 0.357200
vt 0.909425 0.337198
vt 0.653392 0.806573
vt 0.579095 0.785443
vt 0.579199 0.755683
vt 0.653392 0.728111
vt 0.357885 0.416513
vt 0.357885 0.423094
vt 0.352635 0.421506
vt 0.103528 0.466178
vt 0.103528 0.599797
vt 0.097003 0.591098
vt 0.123730 0.898792
vt 0.128240 0.887889
vt 0.128240 0.983764
vt 0.967400 0.184670
vt 0.967400 0.325844
vt 0.960924 0.317109
vt 0.963180 0.088085
vt 0.974069 0.020228
vt 0.974069 0.105547
vt 0.989399 0.497253
vt 0.989399 0.583037
vt 0.982464 0.505716
vt 0.580435 0.530231
vt 0.648615 0.452279
vt 0.648615 0.593455
vt 0.425216 0.810954
vt 0.344018 0.759847
vt 0.425216 0.733679
vt 0.458228 0.996441
vt 0.452370 0.909779
vt 0.458228 0.908382
vt 0.934240 0.020228
vt 0.934240 0.154456
vt 0.922193 0.080569
vt 0.822839 0.822510
vt 0.761924 0.763162
vt 0.822839 0.729767
vt 0.002294 0.422061
vt 0.076975 0.321570
vt 0.076975 0.506243
vt 0.967643 0.599401
vt 0.967643 0.737926
vt 0.961390 0.734230
vt 0.816685 0.591963
vt 0.810689 0.586476
vt 0.816685 0.578938
vt 0.492061 0.247580
vt 0.450574 0.227614
vt 0.492061 0.165651
vt 0.904837 0.184670
vt 0.904837 0.376129
vt 0.895732 0.364209
vt 0.900276 0.156735
vt 0.896164 0.156150
vt 0.885384 0.021900
vt 0.900276 0.020228
vt 0.648116 0.269420
vt 0.641256 0.192093
vt 0.654828 0.188490
vt 0.654828 0.272585
vt 0.249499 0.923390
vt 0.254154 0.922055
vt 0.254154 0.957928
vt 0.249674 0.957958
vt 0.812373 0.956382
vt 0.807596 0.956260
vt 0.807478 0.935006
vt 0.812373 0.934820
vt 0.878346 0.965907
vt 0.873344 0.965276
vt 0.873896 0.913352
vt 0.878346 0.913751
vt 0.994618 0.020228
vt 0.994618 0.109191
vt 0.988405 0.104351
vt 0.988246 0.020274
vt 0.565333 0.897360
vt 0.565333 0.984219
vt 0.558434 0.980632
vt 0.558553 0.897382
vt 0.988154 0.184670
vt 0.988154 0.282905
vt 0.981020 0.188041
vt 0.258742 0.923383
vt 0.263332 0.922055
vt 0.263332 0.957953
vt 0.258788 0.957952
vt 0.008667 0.985996
vt 0.002294 0.914910
vt 0.008667 0.914894
vt 0.782070 0.924768
vt 0.782070 0.945762
vt 0.774677 0.945472
vt 0.774198 0.924233
vt 0.749161 0.921148
vt 0.749161 0.955761
vt 0.746019 0.954455
vt 0.744142 0.921627
vt 0.939163 0.399668
vt 0.946338 0.397789
vt 0.946338 0.535046
vt 0.939405 0.535056
vt 0.956801 0.734821
vt 0.949550 0.732896
vt 0.949755 0.599401
vt 0.956801 0.601698
vt 0.447782 0.908382
vt 0.447782 0.992670
vt 0.441031 0.992043
vt 0.877393 0.167378
vt 0.877094 0.163236
vt 0.898340 0.161324
vt 0.898340 0.169534
vt 0.931748 0.744023
vt 0.945010 0.739409
vt 0.945010 0.829392
vt 0.938304 0.827923
vt 0.928705 0.949030
vt 0.921941 0.949067
vt 0.922453 0.928029
vt 0.928705 0.927424
vt 0.990048 0.925793
vt 0.983722 0.880159
vt 0.990048 0.835823
vt 0.429805 0.909684
vt 0.436443 0.908382
vt 0.436443 0.993474
vt 0.430441 0.993970
vt 0.190217 0.994638
vt 0.183726 0.913922
vt 0.190217 0.911529
vt 0.958592 0.020228
vt 0.958592 0.155954
vt 0.951601 0.153531
vt 0.970731 0.846825
vt 0.979133 0.835823
vt 0.979133 0.936402
vt 0.110486 0.945899
vt 0.110367 0.925865
vt 0.117856 0.926313
vt 0.117856 0.946733
vt 0.318740 0.922055
vt 0.318740 0.956842
vt 0.314314 0.956230
vt 0.314260 0.922079
vt 0.901971 0.388843
vt 0.901971 0.410315
vt 0.895638 0.405631
vt 0.896041 0.384381
vt 0.467904 0.921700
vt 0.467904 0.957605
vt 0.463231 0.956139
vt 0.463389 0.921729
vt 0.272491 0.922057
vt 0.272491 0.957957
vt 0.267920 0.956489
vt 0.267947 0.922055
vt 0.934574 0.531406
vt 0.925431 0.439518
vt 0.934574 0.397789
vt 0.802890 0.935114
vt 0.802890 0.956594
vt 0.798089 0.956570
vt 0.798057 0.934820
vt 0.818243 0.935280
vt 0.821614 0.934820
vt 0.821614 0.954884
vt 0.816961 0.955437
vt 0.762294 0.924750
vt 0.769609 0.924233
vt 0.769609 0.946410
vt 0.761924 0.946611
vt 0.981020 0.289399
vt 0.988468 0.287493
vt 0.988468 0.380072
vt 0.982360 0.381730
vt 0.924558 0.317966
vt 0.931796 0.184670
vt 0.931796 0.357200
vt 0.344018 0.925031
vt 0.348638 0.924245
vt 0.348638 0.956197
vt 0.344136 0.955846
vt 0.956335 0.184670
vt 0.956335 0.321896
vt 0.949191 0.282645
vt 0.075720 0.922961
vt 0.082077 0.908418
vt 0.082077 0.994049
vt 0.880661 0.390221
vt 0.891050 0.378222
vt 0.891050 0.410315
vt 0.036343 0.960963
vt 0.030976 0.957700
vt 0.036343 0.914894
vt 0.918812 0.676544
vt 0.927160 0.634648
vt 0.927160 0.812010
vt 0.975622 0.744201
vt 0.975622 0.827310
vt 0.966813 0.754881
vt 0.910440 0.927686
vt 0.917352 0.927424
vt 0.917352 0.948880
vt 0.910488 0.948822
vn 0.0493 0.2801 -0.9587
vn 0.9486 0.3014 -0.0967
vn 0.9455 0.3002 -0.1259
vn 0.0172 0.1294 -0.9914
vn 0.0173 0.1294 -0.9914
vn 0.0005 -0.2360 -0.9718
vn -0.8790 0.4766 0.0166
vn -0.0705 0.2140 0.9743
vn -0.9981 -0.0206 0.0588
vn 0.6217 0.4297 -0.6549
vn 0.6790 0.4190 -0.6029
vn 0.7195 0.6944 -0.0085
vn 0.7969 0.6041 0.0030
vn -0.0052 0.4617 -0.8870
vn 0.7807 0.6249 0.0078
vn -0.7125 0.0957 -0.6951
vn -0.7126 0.0957 -0.6951
vn -0.7545 -0.0326 -0.6555
vn -0.0586 -0.0127 0.9982
vn 0.0003 1.0000 0.0056
vn -0.0001 1.0000 0.0012
vn -0.0015 1.0000 0.0043
vn -0.0230 0.9970 -0.0733
vn 0.0006 1.0000 0.0000
vn -0.0018 1.0000 0.0011
vn 0.0000 1.0000 -0.0003
vn 0.0065 1.0000 -0.0011
vn -0.0008 0.9999 -0.0108
vn -0.0025 1.0000 -0.0025
vn 0.9308 0.3416 -0.1302
vn 0.9276 0.3735 -0.0046
vn 0.9432 0.3320 0.0123
vn 0.9408 0.3383 0.0208
vn 0.9418 0.3360 0.0126
vn 0.9378 0.3447 0.0408
vn -0.0012 0.2634 -0.9647
vn 0.9922 0.1245 -0.0030
vn 0.9921 0.1250 -0.0073
vn 0.9964 0.0843 -0.0015
vn 0.9287 0.3693 0.0321
vn 0.9296 0.3674 -0.0301
vn 0.9251 0.3780 -0.0360
vn 0.0514 0.3416 -0.9384
vn 0.0438 0.3239 -0.9451
vn 0.0369 0.3364 -0.9410
vn 0.9399 0.3414 -0.0062
vn 0.9448 0.3275 0.0052
vn 0.7590 0.5363 -0.3692
vn 0.4527 0.8276 -0.3320
vn -0.0094 0.3187 -0.9478
vn 0.0178 0.3671 -0.9300
vn -0.9697 0.2439 -0.0132
vn -0.9615 0.2748 -0.0002
vn 0.9662 0.2575 0.0141
vn -0.9316 0.3622 0.0297
vn -0.5471 0.4242 0.7216
vn -0.7015 0.5130 0.4947
vn 0.0645 0.2973 -0.9526
vn 0.0031 0.9998 -0.0216
vn -0.5925 -0.2079 -0.7783
vn -0.7280 0.0703 -0.6819
vn -0.7280 0.0702 -0.6819
vn 0.9008 0.4335 0.0257
vn 0.9392 0.3419 0.0315
vn 0.9008 0.4336 0.0257
vn -0.0542 0.3819 0.9226
vn -0.0378 0.4124 0.9102
vn -0.0353 0.3526 -0.9351
vn -0.0349 0.3242 -0.9453
vn -0.0293 0.3276 -0.9444
vn 0.0003 1.0000 0.0004
vn 0.0084 0.4041 0.9147
vn 0.0000 0.3808 0.9247
vn 0.8874 0.4589 -0.0439
vn 0.8773 0.4784 -0.0382
vn 0.9240 0.3810 -0.0335
vn 0.9221 0.3849 -0.0400
vn 0.0686 -0.8364 0.5437
vn 0.0685 -0.8364 0.5437
vn 0.0146 -0.3240 0.9459
vn 0.0146 -0.3240 0.9460
vn 0.0482 0.2801 -0.9588
vn 0.0969 0.3349 -0.9372
vn 0.0927 0.3395 -0.9360
vn 0.0582 0.3325 -0.9413
vn 0.0633 0.3443 -0.9367
vn 0.9462 0.3229 0.0191
vn -0.9307 0.3656 -0.0129
vn -0.7663 0.6408 -0.0459
vn -0.9523 0.3049 0.0149
vn 0.9438 0.3288 0.0336
vn 0.9343 0.3435 -0.0953
vn -0.9881 -0.1526 -0.0181
vn 0.0192 0.3370 0.9413
vn 0.0040 0.2819 0.9594
vn 0.0420 0.2906 0.9559
vn 0.8211 0.2880 0.4928
vn 0.7146 0.3894 0.5811
vn -0.2553 0.4656 0.8474
vn 0.0596 0.3324 -0.9413
vn -0.9747 -0.2226 -0.0184
vn -0.9228 0.3811 -0.0563
vn -0.0396 0.3273 0.9441
vn -0.0358 0.3312 0.9429
vn -0.0266 0.3632 0.9313
vn -0.0409 0.3657 0.9298
vn -0.0630 0.3373 -0.9393
vn -0.0630 0.3374 -0.9393
vn 0.0020 0.4710 -0.8821
vn 0.6201 -0.4857 -0.6161
vn 0.6928 -0.3243 -0.6441
vn -0.0671 0.2625 0.9626
vn -0.7591 0.6506 -0.0210
vn 0.9071 -0.4210 0.0039
vn 0.9524 -0.3034 -0.0281
vn 0.9882 -0.1435 -0.0529
vn 0.9899 -0.1372 0.0352
vn -0.2755 0.3939 0.8769
vn -0.5891 0.4029 0.7005
vn -0.5890 0.4029 0.7005
vn -0.2644 0.3578 0.8956
vn -0.5552 0.4975 -0.6665
vn -0.6605 0.5089 -0.5521
vn 0.0198 0.3261 -0.9451
vn 0.0154 0.3696 -0.9291
vn 0.0157 0.3279 -0.9446
vn 0.1185 0.2232 -0.9675
vn 0.0021 -0.0821 -0.9966
vn -0.5025 0.4604 -0.7318
vn -0.5715 0.4911 -0.6574
vn -0.9028 0.3420 -0.2608
vn 0.0378 0.3994 -0.9160
vn -0.1480 -0.8828 0.4457
vn -0.6025 -0.7789 -0.1741
vn -0.7015 0.7126 -0.0130
vn -0.7015 0.7125 -0.0130
vn -0.8884 0.4590 0.0053
vn -0.7845 0.3350 -0.5219
vn -0.7237 -0.2609 0.6389
vn 0.0012 1.0000 -0.0013
vn 0.0035 1.0000 -0.0032
vn 0.0013 1.0000 -0.0028
vn 0.0004 1.0000 -0.0014
vn 0.6274 -0.1363 0.7667
vn 0.6274 -0.1362 0.7667
vn 0.5965 -0.0276 0.8021
vn 0.5965 -0.0275 0.8021
vn -0.9356 0.3393 -0.0980
vn -0.9392 0.3009 -0.1655
vn 0.9557 0.2944 0.0033
vn 0.9564 0.2920 0.0053
vn 0.9562 0.2926 0.0048
vn 0.9555 0.2948 0.0029
vn 0.8671 0.3500 -0.3546
vn -0.0169 0.9377 -0.3472
vn -0.0351 0.9511 -0.3067
vn -0.0369 0.9657 -0.2570
vn -0.0065 0.9641 -0.2655
vn 0.0195 0.3373 -0.9412
vn -0.0058 0.3689 -0.9295
vn 0.1015 0.5204 -0.8479
vn -0.0962 0.4623 -0.8815
vn -0.0175 0.9889 0.1473
vn -0.7611 0.4699 0.4471
vn -0.2854 0.8450 0.4522
vn -0.5104 0.4324 -0.7433
vn -0.5099 0.4341 -0.7427
vn -0.7226 0.4140 -0.5536
vn 0.6078 0.4366 0.6633
vn 0.5929 0.4348 0.6778
vn -0.2955 0.9102 0.2903
vn -0.1861 0.9550 -0.2310
vn 0.8887 0.2712 -0.3696
vn 0.7077 0.3870 -0.5911
vn -0.6932 0.4288 -0.5793
vn 0.0057 0.3364 0.9417
vn 0.0185 0.3643 0.9311
vn 0.0186 0.3643 0.9311
vn 0.4165 0.8281 0.3753
vn 0.6022 0.5853 0.5430
vn -0.3068 0.3537 0.8836
vn 0.6365 -0.2566 0.7274
vn 0.6364 -0.2566 0.7274
vn 0.5983 -0.5146 0.6142
vn 0.5983 -0.5146 0.6141
vn -0.7478 -0.6639 0.0098
vn -0.6763 -0.7363 0.0215
vn 0.0016 1.0000 0.0003
vn 0.0003 1.0000 0.0000
vn -0.0000 1.0000 0.0011
vn -0.0367 0.9291 -0.3681
vn -0.0633 0.9522 -0.2990
vn -0.0633 0.9522 -0.2989
vn -0.5952 0.4122 0.6898
vn -0.6634 0.5389 0.5191
vn -0.2376 0.5408 0.8069
vn -0.2376 0.5407 0.8069
vn -0.2089 0.4845 0.8495
vn -0.9518 0.3063 0.0142
vn 0.9905 0.1358 -0.0219
vn 0.9903 0.1371 -0.0203
vn 0.9906 0.1369 -0.0054
vn -0.7258 0.6878 -0.0076
vn 0.9560 0.2933 0.0120
vn -0.9298 0.3681 -0.0039
vn -0.9283 0.3718 0.0017
vn -0.9256 0.3784 0.0028
vn -0.1914 -0.7920 0.5797
vn -0.9443 0.3273 0.0325
vn -0.9443 0.3274 0.0325
vn -0.9501 0.3109 0.0255
vn -0.9444 0.3286 -0.0129
vn -0.9422 0.3230 -0.0896
vn -0.9464 0.3231 0.0008
vn 0.7933 0.4112 -0.4490
vn 0.7947 0.4103 -0.4472
vn 0.7895 0.4135 -0.4535
vn 0.7880 0.4144 -0.4553
vn 0.0220 -0.4757 0.8793
vn 0.0221 -0.4757 0.8793
vn 0.0630 0.0717 0.9954
vn 0.4649 0.8726 0.1498
vn 0.4737 0.8766 -0.0841
vn 0.5651 0.8250 -0.0048
vn -0.5983 0.4256 0.6789
vn -0.4204 0.3740 0.8267
vn 0.0268 0.2487 -0.9682
vn 0.0012 1.0000 0.0018
vn 0.0004 1.0000 -0.0003
vn -0.0023 1.0000 -0.0024
vn -0.0042 -0.5763 -0.8172
vn 0.0214 -0.3724 -0.9278
vn 0.0294 0.9467 -0.3206
vn 0.0119 0.9286 -0.3710
vn -0.0052 0.9375 -0.3478
vn 0.0002 1.0000 -0.0000
vn -0.0020 1.0000 0.0007
vn 0.0002 1.0000 0.0012
vn 0.0025 1.0000 -0.0053
vn 0.0102 0.9999 -0.0005
vn 0.0018 1.0000 -0.0015
vn -0.8944 0.4225 -0.1470
vn -0.8556 0.3875 -0.3433
vn -0.6261 0.3893 -0.6756
vn -0.7112 0.3752 -0.5945
vn -0.7112 0.3752 -0.5946
vn -0.9413 0.3343 -0.0472
vn -0.9510 0.3065 -0.0396
vn 0.7256 -0.1044 -0.6802
vn 0.7252 -0.1058 -0.6804
vn 0.7263 -0.1013 -0.6798
vn 0.7267 -0.1000 -0.6797
vn 0.6053 0.4318 -0.6687
vn 0.6647 0.4200 -0.6179
vn 0.6930 0.4297 -0.5789
vn 0.4803 0.4722 -0.7392
vn 0.9998 -0.0118 -0.0170
vn 0.9998 -0.0119 -0.0170
vn 0.9893 -0.1456 -0.0109
vn 0.8865 -0.4624 0.0181
vn 0.9083 -0.4184 -0.0022
vn 0.9254 -0.3531 0.1379
vn 0.8734 0.4842 -0.0515
vn 0.7965 0.6037 -0.0347
vn 0.0308 0.3344 -0.9419
vn 0.0663 0.3412 -0.9377
vn 0.0368 0.3403 -0.9396
vn 0.0369 0.3403 -0.9396
vn 0.9553 0.2945 -0.0251
vn 0.9599 0.2797 -0.0164
vn -0.7000 0.7141 0.0107
vn -0.9495 0.3132 -0.0179
vn 0.0353 0.3302 -0.9432
vn 0.0346 0.3277 -0.9441
vn 0.0326 0.3304 -0.9433
vn -0.6365 0.5506 -0.5401
vn -0.5526 0.4881 -0.6756
vn -0.6813 0.4104 -0.6062
vn -0.0415 0.3457 0.9374
vn -0.0519 0.3177 0.9468
vn -0.0374 0.3243 0.9452
vn 0.0564 0.4061 0.9121
vn 0.9518 0.3019 0.0549
vn -0.0297 -0.2085 0.9776
vn -0.9356 0.3528 0.0164
vn -0.6286 0.0175 0.7775
vn -0.6764 0.1809 0.7140
vn 0.0209 -0.1323 0.9910
vn 0.0082 -0.0238 -0.9997
vn 0.2546 0.3680 0.8943
vn 0.0378 0.4365 0.8989
vn 0.0378 0.4366 0.8989
vn 0.0281 0.3331 -0.9425
vn 0.0327 0.3309 -0.9431
vn 0.0299 0.3311 -0.9431
vn -0.2149 0.9766 -0.0021
vn 0.1847 0.4768 0.8594
vn 0.2743 0.5269 0.8044
vn 0.5057 0.6298 -0.5895
vn -0.0287 0.2089 -0.9775
vn -0.6418 0.7669 0.0031
vn 0.0329 0.3220 -0.9462
vn 0.0217 0.3330 -0.9427
vn 0.0473 0.3365 -0.9405
vn 0.0338 0.3127 -0.9493
vn 0.9389 0.3411 -0.0454
vn 0.9286 0.3702 -0.0244
vn -0.0549 0.2952 -0.9539
vn -0.0565 0.2820 -0.9577
vn -0.0340 0.3200 -0.9468
vn 0.9367 0.3500 -0.0008
vn 0.9466 0.3225 0.0013
vn 0.9433 0.3321 -0.0010
vn -0.0094 0.3376 -0.9412
vn 0.0060 0.3146 -0.9492
vn 0.5862 0.4869 -0.6475
vn 0.5862 0.4869 -0.6476
vn 0.5764 0.4776 -0.6631
vn -0.7551 0.6540 -0.0466
vn -0.9655 0.2604 -0.0079
vn -0.9916 0.1272 -0.0231
vn 0.0483 0.3183 0.9468
vn 0.6004 0.4231 0.6786
vn 0.6957 0.4363 0.5706
vn -0.9974 -0.0675 -0.0247
vn -0.9449 0.3255 -0.0351
vn -0.8931 0.4497 -0.0147
vn -0.8942 0.4372 -0.0962
vn -0.9405 0.3395 -0.0096
vn -0.9222 0.3854 -0.0313
vn -0.0211 0.3441 -0.9387
vn 0.5950 0.4336 -0.6767
vn 0.6633 0.4617 -0.5890
vn -0.0052 0.3257 -0.9455
vn 0.6009 0.4572 0.6557
vn -0.2054 0.3819 0.9011
vn -0.9312 0.3644 0.0013
vn -0.9326 0.3609 -0.0049
vn -0.9349 0.3548 -0.0072
vn -0.0062 0.0586 -0.9983
vn -0.9741 0.2251 0.0226
vn -0.8561 0.3969 -0.3311
vn -0.1934 -0.8207 0.5377
vn 0.8390 0.0973 0.5354
vn 0.8489 0.0464 0.5265
vn 0.0463 0.2823 0.9582
vn 0.0556 0.2928 0.9546
vn 0.1244 0.3425 0.9313
vn 0.0996 0.3631 0.9264
vn -0.5536 -0.8158 -0.1673
vn -0.7526 0.3119 -0.5799
vn 0.0639 -0.4334 0.8989
vn -0.5402 0.6515 -0.5327
vn -0.5023 0.6736 -0.5421
vn 0.6270 0.4230 0.6542
vn 0.6968 0.4398 0.5666
vn -0.5483 0.5045 0.6670
vn 0.0032 0.3426 -0.9395
vn 0.9348 0.3532 -0.0371
vn 0.0024 -0.3649 -0.9310
vn 0.0381 -0.0238 -0.9990
vn 0.5250 0.7646 -0.3738
vn -0.0812 0.9870 0.1387
vn 0.4533 0.3700 0.8109
vn 0.7108 0.4358 0.5522
vn -0.4811 0.4724 0.7385
vn 0.4687 0.2853 0.8360
vn 0.3922 0.3249 0.8606
vn 0.3921 0.3249 0.8606
vn -0.3177 0.8036 0.5032
vn -0.5867 0.4225 -0.6909
vn -0.6646 0.3596 -0.6550
vn -0.8124 0.3470 -0.4686
vn -0.7884 0.4349 -0.4351
vn 0.9531 0.3024 0.0089
vn 0.9366 0.3500 -0.0185
vn -0.9509 0.3077 -0.0322
vn -0.9820 0.1861 -0.0315
vn -0.9509 0.3078 -0.0322
vn 0.0627 0.4175 0.9065
vn 0.6074 0.3997 0.6865
vn 0.5424 0.4191 0.7281
vn 0.0689 0.6041 0.7940
vn 0.0131 0.5749 0.8181
vn 0.0817 0.4695 0.8792
vn -0.0023 0.0900 -0.9959
vn 0.0088 0.1431 -0.9897
vn -0.0132 0.1424 -0.9897
vn -0.7191 -0.4240 -0.5506
vn -0.2409 0.9316 0.2723
vn -0.3035 0.7913 -0.5308
vn 0.3288 0.8249 0.4598
vn 0.3229 0.8373 0.4413
vn -0.1180 0.9749 -0.1886
vn 0.4821 0.6505 -0.5868
vn -0.0413 0.3371 0.9406
vn -0.0549 0.3561 0.9329
vn -0.6839 0.4228 -0.5946
vn -0.3979 0.4042 0.8236
vn -0.6975 0.4026 0.5928
vn -0.5971 0.3524 0.7206
vn -0.5972 0.3524 0.7206
vn -0.8085 0.4145 0.4178
vn -0.7963 0.4367 0.4187
vn -0.8161 0.5617 0.1356
vn 0.9136 0.4035 0.0501
vn -0.9431 0.3317 0.0237
vn 0.9999 0.0149 0.0025
vn 0.9999 -0.0118 0.0011
vn -0.0179 -0.4917 0.8706
vn -0.0173 0.4001 0.9163
vn 0.0110 0.6820 -0.7313
vn 0.9922 0.1224 -0.0232
vn 0.9924 0.1223 -0.0148
vn 0.9915 0.1296 -0.0138
vn 0.8551 0.1838 -0.4847
vn 0.8285 0.2125 -0.5181
vn -0.4892 -0.6614 0.5686
vn -0.0146 -0.4571 0.8893
vn -0.0427 0.1046 0.9936
vn 0.0361 -0.3948 0.9181
vn -0.0020 -0.0095 -1.0000
vn 0.0259 0.0684 -0.9973
vn 0.0258 0.2976 0.9543
vn -0.9307 0.3656 -0.0128
vn 0.0204 0.2736 0.9616
vn -0.9926 0.1215 0.0059
vn -0.0213 0.3204 -0.9470
vn 0.9338 0.3556 -0.0394
vn -0.0291 -0.2174 -0.9757
vn 0.4590 0.8097 0.3656
vn 0.0458 0.4248 0.9041
vn 0.0821 0.5641 0.8216
vn 0.0085 0.5645 0.8254
vn 0.0081 0.5696 0.8219
vn -0.0030 0.2883 -0.9575
vn 0.0931 0.6254 -0.7748
vn -0.1524 0.5892 -0.7934
vn -0.0063 0.4375 -0.8992
vn 0.0028 0.4532 -0.8914
vn -0.0347 0.4575 -0.8885
vn -0.0056 0.4449 -0.8955
vn -0.0136 0.3646 -0.9311
vn -0.1375 0.2007 -0.9700
vn -0.0182 0.3478 -0.9374
vn 0.6339 0.4184 0.6505
vn 0.6266 0.4625 0.6273
vn -0.8291 0.4998 -0.2505
vn -0.9395 0.1123 -0.3237
vn 0.9684 -0.2451 -0.0455
vn 0.9892 0.1456 -0.0168
vn 0.0193 0.4088 0.9124
vn 0.0193 0.4087 0.9124
vn 0.0234 0.3679 0.9296
vn 0.0234 0.3678 0.9296
vn 0.9154 0.4025 -0.0014
vn 0.9450 0.3269 0.0000
vn 0.9451 0.3269 0.0000
vn 0.9520 0.3060 -0.0048
vn 0.9525 0.3044 0.0111
vn 0.9893 0.1457 0.0011
vn 0.5804 0.4005 0.7091
vn 0.5078 0.5132 0.6920
vn -0.9149 0.3994 0.0578
vn -0.8619 0.5054 0.0404
vn -0.8620 0.5054 0.0404
vn -0.0056 0.3343 -0.9425
vn 0.0073 0.2886 -0.9574
vn -0.0150 0.2910 -0.9566
vn 0.9439 0.3299 -0.0155
vn 0.7504 0.6557 0.0829
vn 0.6710 0.7313 -0.1227
vn -0.0191 0.3677 0.9297
vn -0.5836 0.3735 -0.7210
vn -0.5505 0.5666 -0.6131
vn 0.0148 0.4123 -0.9109
vn -0.0223 0.3968 -0.9176
vn 0.0020 0.2814 -0.9596
vn -0.6421 0.3581 0.6778
vn -0.4435 0.6437 0.6237
vn -0.9963 -0.0811 -0.0277
vn -0.0293 0.2561 0.9662
vn -0.0291 0.2812 0.9592
vn -0.0293 0.2562 0.9662
vn -0.9600 0.2802 0.0010
vn 0.0201 0.3028 0.9529
vn -0.9459 0.3238 -0.0210
vn 0.7358 0.4288 -0.5242
vn 0.7396 0.3975 -0.5431
vn 0.0935 -0.0363 -0.9950
vn -0.0421 -0.0367 -0.9984
vn -0.0050 0.2470 -0.9690
vn 0.0147 0.1173 -0.9930
vn 0.6919 0.3160 -0.6491
vn 0.6510 0.0297 -0.7585
vn 0.0015 0.3714 0.9285
vn 0.0148 0.2791 0.9602
vn 0.9538 0.3005 0.0061
vn 0.9489 0.3156 0.0002
vn 0.9546 0.2979 -0.0023
vn 0.9544 0.2984 -0.0098
vn -0.0154 0.3295 0.9440
vn 0.6408 0.4288 -0.6368
vn 0.6385 0.4425 -0.6297
vn -0.2837 0.5241 0.8030
vn -0.3469 0.3617 0.8653
vn -0.6118 0.3857 0.6906
vn -0.5596 0.4727 0.6808
vn -0.0117 0.3621 0.9321
vn -0.0052 0.5759 0.8175
vn -0.0461 0.5198 0.8530
vn -0.1244 0.3991 0.9084
vn 0.9350 0.3544 -0.0139
vn -0.2830 0.3516 0.8924
vn -0.2830 0.3515 0.8924
vn -0.3036 0.2679 0.9143
vn 0.9464 0.3228 -0.0079
vn 0.9931 0.1170 0.0037
vn 0.5161 0.7944 0.3203
vn -0.7981 0.5974 0.0783
vn 0.0148 0.1934 0.9810
vn -0.9536 0.3011 0.0003
vn -0.6531 0.4094 -0.6371
vn -0.6540 0.3953 -0.6450
g Pyramid_M_Pyramid_M_Collor_Material
usemtl Collor_Material
s off
f 67/1/1 172/2/1 202/3/1
f 64/4/2 171/5/2 204/6/2
f 203/7/3 171/8/3 64/9/3
f 31/10/4 93/11/5 143/12/6 43/13/6
f 111/14/7 22/15/7 160/16/7
f 130/17/8 29/18/8 78/19/8
f 7/20/9 131/21/9 79/22/9
f 192/23/10 121/24/10 120/25/11 193/26/11
f 163/27/12 115/28/12 12/29/13 23/30/13
f 103/31/14 46/32/14 156/33/14
f 10/34/15 158/35/15 105/36/15
f 150/37/16 151/38/17 84/39/18 85/40/18
f 35/41/19 125/42/19 106/43/19
f 39/44/20 132/45/21 117/46/22
f 38/47/23 167/48/23 121/49/23
f 14/50/24 168/51/24 123/52/24
f 39/53/25 169/54/26 51/55/26
f 119/56/27 24/57/28 165/58/29
f 203/59/30 64/60/30 5/61/31 88/62/31
f 120/63/32 14/64/33 60/65/34 193/66/35
f 191/67/36 32/68/36 85/69/36
f 15/70/37 3/71/38 98/72/39 137/73/39
f 102/74/40 52/75/41 177/76/42
f 118/77/43 63/78/44 191/79/45
f 56/80/46 12/81/46 115/82/47 186/83/47
f 155/84/48 102/85/48 103/86/49 156/87/49
f 184/88/50 59/89/50 36/90/51 113/91/51
f 57/92/52 6/93/52 77/94/53 188/95/53
f 193/96/54 4/97/54 90/98/54
f 81/99/55 65/100/55 8/101/55
f 189/102/56 188/103/56 77/104/57 76/105/57
f 63/106/58 121/107/58 192/108/58
f 13/109/59 133/110/59 24/111/59
f 149/112/60 87/113/60 86/114/61 148/115/62
f 2/116/63 52/117/64 10/118/64 178/119/65
f 27/120/66 54/121/66 181/122/67 68/123/67
f 110/124/68 48/125/69 36/126/70
f 122/127/71 123/128/71 168/129/71 169/130/71
f 179/131/72 104/132/72 35/133/73 54/134/73
f 102/135/74 155/136/75 10/137/76 52/138/77
f 94/139/78 30/140/79 42/141/80 140/142/81
f 201/143/82 172/144/82 67/145/82
f 63/146/83 192/147/84 32/148/85 191/149/86
f 60/150/87 123/151/87 194/152/87
f 57/153/88 111/154/88 182/155/88
f 109/156/89 22/157/89 11/158/89
f 196/159/90 13/160/90 61/161/90
f 204/162/91 95/163/91 5/164/92 64/165/92
f 7/166/93 151/167/93 18/168/93
f 195/169/94 29/170/95 96/171/96
f 96/172/97 97/173/97 194/174/98 195/175/98
f 66/176/99 170/177/99 198/178/99
f 26/179/100 176/180/100 74/181/100
f 77/182/101 20/183/101 126/184/101
f 53/185/102 70/186/102 1/187/102
f 58/188/103 37/189/104 189/190/105 28/191/106
f 183/192/107 59/193/108 31/194/109 86/195/109
f 146/196/110 147/197/110 89/198/111 88/199/111
f 62/200/112 78/201/112 29/202/112
f 9/203/113 154/204/113 101/205/113
f 141/206/114 17/207/115 5/208/116 95/209/117
f 62/210/118 197/211/119 79/212/120 78/213/118
f 30/214/121 198/215/121 80/216/121
f 183/217/122 86/218/122 87/219/123 182/220/123
f 176/221/124 26/222/125 55/223/126 34/224/127
f 85/225/128 44/226/128 150/227/128
f 172/228/129 201/229/129 200/230/130 173/231/130
f 65/232/131 83/233/131 8/234/131
f 32/235/132 192/236/132 91/237/132
f 30/238/133 134/239/133 42/240/133
f 83/241/134 19/242/134 8/243/134
f 154/244/135 9/245/136 20/246/137 149/247/137
f 175/248/138 70/249/138 174/250/138
f 77/251/139 127/252/139 76/253/139
f 121/254/140 167/255/141 166/256/142 120/257/143
f 136/258/144 137/259/145 98/260/146 99/261/147
f 119/262/148 190/263/148 61/264/149 13/265/149
f 3/266/150 56/267/151 186/268/152 98/269/153
f 92/270/154 143/271/154 93/272/154
f 165/273/155 50/274/156 38/275/157 118/276/158
f 103/277/159 176/278/160 34/279/161 46/280/162
f 133/281/163 117/282/163 132/283/163
f 117/284/164 196/285/164 197/286/164
f 109/287/165 128/288/165 129/289/165
f 200/290/166 201/291/167 82/292/168 83/293/168
f 95/294/169 204/295/169 205/296/170 94/297/170
f 106/298/171 124/299/171 107/300/171
f 153/301/172 101/302/172 154/303/172
f 185/304/173 92/305/173 93/306/174 184/307/174
f 100/308/175 174/309/175 101/310/175
f 73/311/176 179/312/176 54/313/177 27/314/178
f 114/315/179 163/316/180 139/317/180 164/318/179
f 181/319/181 69/320/181 68/321/181
f 95/322/182 94/323/183 140/324/184 141/325/185
f 19/326/186 135/327/186 81/328/187 8/329/187
f 166/330/188 25/331/189 14/332/189 120/333/190
f 171/334/191 172/335/191 173/336/192 170/337/193
f 198/338/194 81/339/194 80/340/194
f 170/341/195 199/342/195 198/343/195
f 39/344/196 117/345/197 197/346/198 62/347/198
f 69/348/199 53/349/199 1/350/199
f 15/351/200 92/352/201 3/353/202
f 111/354/203 11/355/203 22/356/203
f 178/357/204 10/358/204 105/359/204
f 188/360/205 109/361/206 11/362/207
f 80/363/208 135/364/208 134/365/208
f 180/366/209 107/367/210 9/368/211 53/369/211
f 79/370/212 196/371/212 61/372/213 7/373/214
f 102/374/215 177/375/216 176/376/217 103/377/218
f 29/378/219 41/379/220 139/380/221 96/381/221
f 10/382/222 21/383/223 158/384/224
f 106/385/225 107/386/225 180/387/226 181/388/226
f 113/389/227 36/390/227 48/391/227
f 39/392/228 51/393/229 132/394/230
f 45/395/231 152/396/231 82/397/232 33/398/232
f 38/399/233 50/400/234 167/401/235
f 14/402/236 25/403/236 168/404/236
f 39/405/237 122/406/238 169/407/238
f 119/408/239 13/409/240 24/410/241
f 199/411/242 173/412/243 200/413/243 65/414/242
f 111/415/244 110/416/244 183/417/245 182/418/246
f 9/419/247 101/420/247 174/421/248 53/422/248
f 144/423/249 145/424/250 91/425/251 90/426/252
f 89/427/253 202/428/253 203/429/254 88/430/254
f 112/431/255 185/432/255 184/433/256 113/434/256
f 4/435/257 16/436/258 144/437/259 90/438/259
f 17/439/260 146/440/261 88/441/261 5/442/262
f 12/443/263 112/444/263 161/445/264 23/446/264
f 33/447/265 67/448/266 202/449/267 89/450/268
f 92/451/269 185/452/269 56/453/270 3/454/270
f 20/455/271 9/456/271 124/457/272 126/458/272
f 118/459/273 38/460/274 63/461/275
f 190/462/276 191/463/277 85/464/278 84/465/278
f 189/466/279 37/467/280 108/468/281
f 122/469/282 39/470/282 62/471/282
f 193/472/283 60/473/283 4/474/283
f 127/475/284 28/476/284 76/477/284
f 81/478/285 199/479/285 65/480/285
f 78/481/286 79/482/286 131/483/287 130/484/287
f 99/485/288 40/486/288 136/487/288
f 32/488/289 44/489/289 85/490/289
f 205/491/290 66/492/290 30/493/291 94/494/292
f 63/495/293 38/496/294 121/497/295
f 13/498/296 116/499/296 133/500/296
f 171/501/297 170/502/298 66/503/298 205/504/297
f 113/505/299 162/506/299 161/507/299
f 110/508/300 159/509/300 48/510/300
f 9/511/301 107/512/301 124/513/301
f 33/514/302 82/515/303 201/516/304 67/517/305
f 112/518/306 12/519/306 56/520/307 185/521/307
f 36/522/308 59/523/309 183/524/309 110/525/310
f 60/526/311 14/527/312 123/528/313
f 31/529/314 59/530/314 184/531/315 93/532/315
f 203/533/316 202/534/317 172/535/318 171/536/318
f 109/537/319 129/538/319 22/539/319
f 196/540/320 116/541/320 13/542/320
f 7/543/321 84/544/321 151/545/321
f 58/546/322 99/547/322 187/548/322
f 114/549/323 187/550/323 186/551/324 115/552/324
f 77/553/325 6/554/325 20/555/325
f 53/556/326 174/557/326 70/558/326
f 61/559/327 190/560/328 84/561/329 7/562/330
f 71/563/331 175/564/331 55/565/331
f 90/566/332 91/567/332 192/568/333 193/569/333
f 55/570/334 26/571/334 71/572/334
f 171/573/335 205/574/335 204/575/335
f 30/576/336 66/577/336 198/578/336
f 11/579/337 57/580/338 188/581/339
f 91/582/340 145/583/340 44/584/340
f 6/585/341 57/586/341 182/587/341
f 65/588/342 200/589/342 83/590/342
f 30/591/343 80/592/343 134/593/343
f 97/594/344 96/595/344 139/596/345 138/597/345
f 62/598/346 29/599/347 195/600/348 122/601/349
f 83/602/350 152/603/350 19/604/350
f 175/605/351 71/606/351 70/607/351
f 164/608/352 37/609/352 114/610/352
f 160/611/353 159/612/353 110/613/354 111/614/354
f 194/615/355 123/616/355 122/617/356 195/618/356
f 77/619/357 126/620/357 127/621/357
f 55/622/358 100/623/358 34/624/358
f 52/625/359 75/626/359 177/627/359
f 147/628/360 45/629/360 33/630/361 89/631/361
f 92/632/362 142/633/362 143/634/362
f 133/635/363 116/636/363 117/637/363
f 179/638/364 178/639/365 105/640/365 104/641/364
f 117/642/366 116/643/366 196/644/366
f 178/645/367 179/646/367 73/647/368 72/648/369
f 109/649/370 108/650/370 128/651/370
f 118/652/371 191/653/372 190/654/373 119/655/374
f 4/656/375 60/657/375 194/658/376 97/659/376
f 149/660/377 6/661/378 182/662/378 87/663/379
f 58/664/380 114/665/380 37/666/380
f 186/667/381 187/668/381 99/669/382 98/670/382
f 35/671/383 157/672/384 47/673/385
f 86/674/386 43/675/387 46/676/388 148/677/386
f 83/678/389 82/679/389 152/680/389
f 106/681/390 125/682/390 124/683/390
f 153/684/391 100/685/391 101/686/391
f 157/687/392 104/688/392 105/689/393 158/690/393
f 165/691/394 118/692/394 119/693/394
f 161/694/395 112/695/395 113/696/395
f 35/697/396 106/698/396 181/699/397 54/700/397
f 100/701/398 175/702/398 174/703/398
f 181/704/399 180/705/399 69/706/399
f 108/707/400 109/708/400 188/709/401 189/710/402
f 197/711/403 196/712/403 79/713/403
f 198/714/404 199/715/404 81/716/404
f 170/717/405 173/718/405 199/719/405
f 2/720/406 178/721/406 72/722/406
f 69/723/407 180/724/407 53/725/407
f 4/726/408 97/727/408 138/728/409 16/729/409
f 130/730/410 41/731/410 29/732/410
f 189/733/411 76/734/411 28/735/411
f 34/736/412 100/737/412 153/738/412
f 15/739/413 142/740/414 92/741/415
f 74/742/416 176/743/416 177/744/417 75/745/417
f 80/746/418 81/747/418 135/748/418
f 127/749/419 40/750/419 28/751/419
f 128/752/420 108/753/420 37/754/420
f 99/755/421 28/756/421 40/757/421
f 32/758/422 91/759/422 44/760/422
f 113/761/423 48/762/423 162/763/423
f 58/764/424 28/765/424 99/766/424
f 11/767/425 111/768/425 57/769/425
f 164/770/426 49/771/426 37/772/426
f 149/773/427 20/774/427 6/775/427
f 55/776/428 175/777/428 100/778/428
f 52/779/429 2/780/429 75/781/429
f 86/782/430 31/783/430 43/784/430
f 114/785/431 115/786/431 163/787/431
f 58/788/432 187/789/432 114/790/432
f 35/791/433 104/792/434 157/793/435
f 153/794/436 148/795/436 46/796/437 34/797/438
f 162/798/439 48/799/440 44/800/441 145/801/442
f 147/802/443 167/803/443 50/804/444 45/805/445
f 168/806/446 141/807/446 140/808/447 169/809/447
f 24/810/448 19/811/448 152/812/449 165/813/449
f 23/814/450 161/815/450 144/816/451 16/817/451
f 49/818/452 164/819/453 139/820/454 41/821/455
f 158/822/456 15/823/456 137/824/456
f 141/825/457 168/826/458 25/827/459 17/828/460
f 138/829/461 23/830/461 16/831/461
f 137/832/462 136/833/462 157/834/463 158/835/463
f 24/836/464 133/837/464 135/838/465 19/839/466
f 143/840/467 156/841/467 46/842/468 43/843/469
f 155/844/470 142/845/470 21/846/471 10/847/472
f 130/848/473 49/849/473 41/850/473
f 148/851/474 153/852/474 154/853/475 149/854/475
f 44/855/476 48/856/477 159/857/478 150/858/478
f 128/859/479 130/860/479 131/861/480 129/862/480
f 129/863/481 7/864/481 18/865/481
f 130/866/482 128/867/483 37/868/483 49/869/484
f 18/870/485 151/871/485 160/872/485
f 40/873/486 157/874/486 136/875/486
f 18/876/487 22/877/487 129/878/487
f 143/879/488 142/880/488 155/881/489 156/882/489
f 50/883/490 165/884/491 152/885/492 45/886/493
f 145/887/494 144/888/494 161/889/495 162/890/495
f 51/891/496 169/892/496 140/893/497 42/894/497
f 25/895/498 166/896/499 146/897/500 17/898/501
f 127/899/502 47/900/502 40/901/502
f 147/902/503 146/903/503 166/904/504 167/905/504
f 135/906/505 133/907/505 132/908/506 134/909/506
f 126/910/507 124/911/507 125/912/508 127/913/508
f 127/914/509 125/915/510 35/916/511 47/917/512
f 21/918/513 142/919/513 15/920/513
f 134/921/514 132/922/515 51/923/516 42/924/516
f 158/925/517 21/926/517 15/927/517
f 138/928/518 163/929/518 23/930/518
f 163/931/519 138/932/519 139/933/519
f 129/934/520 131/935/520 7/936/520
f 40/937/521 47/938/521 157/939/521
f 18/940/522 160/941/522 22/942/522
f 160/943/523 151/944/523 150/945/524 159/946/524
