# Blender v3.0.0 OBJ File: 'aa.blend'
# www.blender.org
mtllib Pyramid_L.mtl
o Pyramid_L
v -20.154617 0.000008 13.923578
v 20.440376 0.000006 10.240246
v 14.152387 15.219288 3.737221
v 9.498708 29.234625 -0.089248
v 4.939921 43.384571 -0.091265
v -14.252996 15.263748 2.872294
v -9.390199 29.079056 3.832162
v -4.909216 43.382988 -0.086842
v -15.714136 12.521455 0.092467
v 14.970126 13.563498 -0.344207
v -9.994210 27.580462 2.572921
v 10.014154 27.675871 -0.083339
v -5.090109 42.474369 -0.087315
v 5.126946 42.171211 -0.014797
v 14.190087 14.553929 3.636060
v 9.478007 28.884045 -0.086924
v 4.723003 43.186420 -0.087037
v -14.054053 14.560878 -0.085682
v -9.442046 28.490101 2.579219
v -4.723283 43.189545 -0.087135
v -14.165967 14.210220 1.127228
v 14.413712 13.961124 -0.088135
v -9.744685 27.810825 1.921737
v 9.658825 28.280413 -0.088896
v -5.010932 42.536659 -0.101946
v 4.963411 42.318985 -0.013745
v -2.092394 -0.000012 -19.931332
v -1.859178 0.000012 20.213785
v -0.429759 14.910938 14.470232
v -0.214528 29.388403 9.409821
v -0.047467 43.763985 4.879735
v 7.080627 15.379028 -14.020288
v -0.007624 29.304058 -9.805094
v -0.002076 43.384571 -5.018321
v -0.005180 13.939694 -14.796368
v -4.173574 13.289442 14.902034
v -0.501884 27.097612 -10.095556
v -0.091982 27.738546 9.735498
v 0.046505 42.265415 -5.457150
v -0.069194 42.390415 4.975595
v -0.000670 14.558419 14.235263
v -0.002692 28.885269 9.405704
v -0.000778 43.180470 4.655285
v -0.005018 14.589676 -14.185618
v -0.003871 28.866972 -9.629033
v -0.002595 43.191490 -4.811176
v -0.000183 13.911099 -14.460493
v -3.959457 13.755524 14.405614
v -0.001600 28.278381 -9.735762
v 0.001255 28.275972 9.684216
v 0.047284 42.461140 -5.140999
v -0.009214 42.545563 4.798440
v 17.675812 6.833901 -5.001201
v -18.267708 6.078475 0.922699
v -2.115420 6.510105 17.919649
v 6.539094 7.144674 -16.959009
v 12.342806 21.428183 -0.091263
v -12.383382 21.304321 -0.263045
v 3.790515 21.418711 12.420828
v -2.955752 21.163065 -11.937094
v 7.406702 35.830227 -0.083702
v -7.497753 35.895973 -0.053731
v -2.791006 35.624294 7.707357
v 0.299222 34.968086 -7.932082
v 2.366028 50.360550 -0.078492
v -2.443419 50.348534 -0.087185
v -0.663916 47.018158 3.624495
v -0.003741 50.350094 -2.486292
v -14.467265 0.000012 19.300859
v -19.568752 0.000011 17.796942
v -19.284445 -0.000011 -18.099705
v -17.972164 -0.000012 -19.440596
v 19.818638 0.000010 17.602989
v 13.989057 0.000012 19.681757
v 17.402817 -0.000011 -19.004627
v 19.453337 -0.000010 -16.466282
v -12.917106 15.256835 14.208835
v -14.198110 15.014064 12.630898
v -8.086364 29.837284 9.362726
v -9.182030 29.587475 7.846570
v -3.443112 43.373932 4.757227
v -4.937779 43.389439 3.365028
v -3.451894 43.384472 -5.010329
v -4.924055 43.384686 -3.540568
v -9.474914 29.741333 -7.984884
v -8.002515 29.714828 -9.454175
v -12.841455 15.101401 -14.514404
v -14.294884 15.578630 -12.912333
v 4.864356 43.377880 -3.556533
v 3.451603 43.373375 -4.982540
v 9.489104 29.725647 -8.048068
v 8.074697 29.358295 -9.583302
v 13.445793 15.508172 -13.780964
v 12.714466 15.796691 -14.234559
v 3.454318 43.820099 4.703315
v 4.927343 43.387260 3.333894
v 7.798825 30.063421 9.183754
v 9.490597 29.650084 6.608995
v 14.129945 15.334634 12.835118
v 12.558156 15.334083 14.043870
v -13.331583 13.921950 -14.828663
v -14.646860 13.935512 -13.442442
v 15.643679 11.590889 -14.229365
v 13.680513 13.527096 -14.810547
v 13.988743 13.212623 14.496209
v 14.454182 13.920915 12.918152
v -13.945199 13.680609 14.108291
v -14.648169 13.928995 13.302320
v -9.164488 27.881037 9.472778
v -9.887585 28.009062 8.321862
v -8.996584 27.153700 -10.276857
v -10.249338 27.159462 -9.096522
v 9.628110 27.914225 -9.207787
v 9.292270 27.703218 -9.754567
v 9.577625 27.751705 9.184783
v 10.066544 27.746969 8.571068
v -4.992558 42.475685 3.514260
v -3.583406 42.688545 4.931179
v -3.564966 42.325989 -5.225924
v -5.171645 42.659721 -3.629665
v 5.197774 42.135582 -3.607485
v 3.651120 42.294075 -5.250772
v 3.611980 42.335346 5.005297
v 5.162128 42.110592 3.594435
v -14.354842 13.909927 12.713675
v -12.522940 13.949442 13.998347
v -12.640434 14.569086 13.889375
v -8.141629 28.292091 9.450455
v -9.626313 28.263535 8.159884
v -7.959849 28.872805 9.290913
v -9.425369 28.892914 7.907127
v -3.399928 42.779522 4.760652
v -4.994591 42.527611 3.304892
v -3.267497 43.139793 4.639996
v -4.720504 43.131397 3.194067
v 12.645542 14.576484 13.893487
v 14.199346 14.576329 12.668372
v 9.493019 28.905964 6.668246
v 7.870020 28.851240 9.243370
v 3.240590 43.201382 4.553493
v 4.726323 43.194386 3.215295
v 13.521575 14.599426 -12.813515
v 12.657557 14.546049 -14.193056
v 9.403989 28.882687 -8.057796
v 7.975424 28.887939 -9.466630
v 4.695900 43.193634 -3.346504
v 3.281752 43.191505 -4.804496
v -12.772173 14.546198 -14.307934
v -14.082626 14.586053 -12.745843
v -7.968685 28.889591 -9.443318
v -9.409060 28.879156 -8.068261
v -4.716016 43.189724 -3.361791
v -3.270752 43.190075 -4.794553
v -12.936498 13.945351 -14.493494
v -14.396134 13.915823 -12.976381
v 14.120363 13.885629 -12.928849
v 13.021615 13.953626 -14.446559
v 12.858664 13.922219 14.093899
v -8.166471 28.281448 -9.721663
v -9.524619 28.288006 -8.264791
v 9.565015 28.274460 -8.271463
v 8.155312 28.284735 -9.656367
v 9.569654 28.273659 8.023912
v 8.246667 28.304150 9.490907
v -3.356743 42.442413 -5.092937
v -4.854146 42.779575 -3.491306
v 4.971231 42.317986 -3.431929
v 3.433823 42.443111 -5.080824
v 4.955798 42.316990 3.388825
v 3.395743 42.537498 4.771828
v 0.456430 53.388699 0.761799
v 1.351313 53.296337 0.096167
v -0.003990 52.595184 -2.008128
v -1.276223 53.248234 -0.055327
v -17.191833 7.082974 -15.731426
v -15.692311 7.104932 -17.223103
v 15.508122 7.089487 -16.982042
v 17.237682 7.065610 -14.634866
v 16.864702 7.094563 15.700865
v 14.578890 7.046657 17.050896
v -17.047335 7.094808 15.588684
v -15.500073 6.093076 17.032320
v -12.259051 21.416519 -10.850792
v -10.807375 21.415426 -12.088630
v 10.788959 21.426479 -12.178413
v 12.060489 21.413670 -10.864861
v 12.273665 21.430754 10.734182
v 10.756308 21.430382 12.056566
v -12.228520 21.436796 10.575577
v -9.572314 21.412273 12.224427
v -7.873610 35.761314 -5.055608
v -6.510368 35.719734 -6.627249
v 6.915038 34.195267 -7.548823
v 8.263765 34.194874 -5.916209
v 8.319744 32.741589 6.710977
v 6.969643 32.741810 8.253704
v -6.508876 36.059681 6.464544
v -5.095312 38.452347 6.409419
v -0.928961 50.312683 2.268568
v -2.502827 50.366337 1.057730
v -2.432507 50.345657 -1.100483
v -1.006084 50.344578 -2.499065
v 1.342975 50.131615 -2.495220
v 2.160444 50.119591 -1.696958
v 2.427555 50.353725 0.962558
v 1.960279 50.315960 1.430505
vt 0.558644 0.624659
vt 0.570452 0.602650
vt 0.570452 0.633657
vt 0.652487 0.163560
vt 0.618651 0.162523
vt 0.652487 0.152212
vt 0.813025 0.513374
vt 0.813025 0.554031
vt 0.798258 0.523570
vt 0.396504 0.953733
vt 0.406965 0.921368
vt 0.406965 0.957217
vt 0.095360 0.654555
vt 0.095360 0.774779
vt 0.081479 0.664664
vt 0.906791 0.899168
vt 0.900342 0.683036
vt 0.906791 0.682311
vt 0.943440 0.446962
vt 0.948925 0.445196
vt 0.948925 0.468105
vt 0.943293 0.467754
vt 0.359361 0.567967
vt 0.403386 0.562299
vt 0.403386 0.570334
vt 0.864089 0.682736
vt 0.895812 0.682311
vt 0.895812 0.765311
vt 0.860306 0.765475
vt 0.927461 0.458500
vt 0.938762 0.449470
vt 0.938762 0.467192
vt 0.925163 0.468106
vt 0.977984 0.158931
vt 0.972052 0.017258
vt 0.977984 0.009948
vt 0.809223 0.652755
vt 0.809223 0.674428
vt 0.792920 0.672728
vt 0.792097 0.654017
vt 0.907314 0.296293
vt 0.903016 0.204732
vt 0.907314 0.189533
vt 0.183860 0.680094
vt 0.183860 0.781415
vt 0.178211 0.692834
vt 0.882624 0.451236
vt 0.882624 0.490185
vt 0.880547 0.453259
vt 0.553589 0.884248
vt 0.549710 0.869908
vt 0.629169 0.862801
vt 0.629169 0.896820
vt 0.779859 0.865399
vt 0.772317 0.805062
vt 0.779859 0.797331
vt 0.466997 0.047887
vt 0.541420 0.002265
vt 0.541420 0.147682
vt 0.470900 0.183788
vt 0.215630 0.889452
vt 0.189076 0.809005
vt 0.226656 0.809041
vt 0.226656 0.889441
vt 0.486835 0.850615
vt 0.381986 0.803104
vt 0.486835 0.798223
vt 0.858477 0.772928
vt 0.858477 0.848218
vt 0.784513 0.813239
vt 0.785582 0.777267
vt 0.251799 0.965740
vt 0.252524 0.928553
vt 0.254921 0.928616
vt 0.254921 0.967718
vt 0.501788 0.700952
vt 0.468710 0.703020
vt 0.408195 0.579786
vt 0.501788 0.585841
vt 0.792097 0.628083
vt 0.843817 0.561460
vt 0.843817 0.648225
vt 0.779982 0.707307
vt 0.779982 0.792800
vt 0.714035 0.774736
vt 0.711722 0.682311
vt 0.381210 0.199612
vt 0.383198 0.194015
vt 0.468715 0.188715
vt 0.468715 0.201944
vt 0.021215 0.961515
vt 0.018160 0.959955
vt 0.014400 0.924606
vt 0.021215 0.924301
vt 0.162171 0.804134
vt 0.180033 0.802418
vt 0.180033 0.883326
vt 0.142319 0.883267
vt 0.139110 0.929333
vt 0.139110 0.951164
vt 0.133729 0.951300
vt 0.129924 0.928553
vt 0.270660 0.924023
vt 0.129924 0.922830
vt 0.270660 0.920355
vt 0.786892 0.400150
vt 0.784644 0.397403
vt 0.822358 0.397298
vt 0.822358 0.400495
vt 0.354451 0.920512
vt 0.354451 0.956680
vt 0.342719 0.924755
vt 0.808966 0.883213
vt 0.831559 0.852748
vt 0.831559 0.929715
vt 0.695163 0.002265
vt 0.695163 0.147682
vt 0.620670 0.105045
vt 0.618651 0.006294
vt 0.832545 0.087320
vt 0.832545 0.114654
vt 0.822579 0.091752
vt 0.939831 0.642689
vt 0.951434 0.638992
vt 0.951434 0.676920
vt 0.944278 0.677781
vt 0.876016 0.407323
vt 0.876016 0.546272
vt 0.863888 0.547254
vt 0.853090 0.422242
vt 0.758050 0.059434
vt 0.818048 0.002265
vt 0.818048 0.115062
vt 0.194133 0.329646
vt 0.266686 0.297588
vt 0.266686 0.415543
vt 0.190379 0.392272
vt 0.836252 0.971506
vt 0.836090 0.935574
vt 0.839286 0.935521
vt 0.839286 0.972790
vt 0.091217 0.840545
vt 0.095360 0.779310
vt 0.095360 0.847378
vt 0.088127 0.891889
vt 0.002265 0.876787
vt 0.088127 0.859746
vt 0.843817 0.498993
vt 0.843817 0.556930
vt 0.818690 0.527707
vt 0.184492 0.359732
vt 0.184492 0.436698
vt 0.175423 0.397532
vt 0.117638 0.208871
vt 0.185849 0.002265
vt 0.185849 0.350839
vt 0.420994 0.553042
vt 0.413388 0.446553
vt 0.501788 0.429227
vt 0.501788 0.575256
vt 0.852153 0.305536
vt 0.852153 0.392768
vt 0.784644 0.339823
vt 0.993402 0.787128
vt 0.990270 0.643435
vt 0.993402 0.638597
vt 0.939831 0.854394
vt 0.948876 0.793680
vt 0.948876 0.931462
vt 0.730244 0.393012
vt 0.768658 0.358908
vt 0.768658 0.396122
vt 0.403664 0.579786
vt 0.403664 0.761741
vt 0.378895 0.705433
vt 0.184245 0.443141
vt 0.184245 0.518299
vt 0.011762 0.522773
vt 0.002265 0.441229
vt 0.030429 0.004493
vt 0.113107 0.002265
vt 0.113107 0.231881
vt 0.002265 0.171676
vt 0.574298 0.929056
vt 0.577615 0.901924
vt 0.599344 0.901350
vt 0.599344 0.937199
vt 0.092658 0.854873
vt 0.095791 0.852576
vt 0.095791 0.891856
vt 0.093393 0.891889
vt 0.633699 0.706521
vt 0.640729 0.579627
vt 0.707192 0.561460
vt 0.707192 0.676680
vt 0.186584 0.950826
vt 0.177963 0.930237
vt 0.186584 0.928553
vt 0.743260 0.939277
vt 0.746206 0.939674
vt 0.746206 0.964584
vt 0.742398 0.963399
vt 0.491366 0.996656
vt 0.491512 0.909814
vt 0.496639 0.909756
vt 0.496639 0.997735
vt 0.966319 0.416335
vt 0.969483 0.414370
vt 0.969483 0.451907
vt 0.966402 0.451896
vt 0.773188 0.361256
vt 0.780108 0.358908
vt 0.780108 0.397064
vt 0.773306 0.396543
vt 0.554144 0.776762
vt 0.550469 0.777157
vt 0.550751 0.752543
vt 0.554144 0.752194
vt 0.137789 0.887158
vt 0.100824 0.876836
vt 0.102441 0.825344
vt 0.137789 0.802418
vt 0.558715 0.682984
vt 0.629169 0.641469
vt 0.629169 0.759263
vt 0.559783 0.781981
vt 0.922467 0.939671
vt 0.922467 0.963165
vt 0.919567 0.963146
vt 0.793728 0.554031
vt 0.713573 0.552649
vt 0.711640 0.530090
vt 0.793728 0.529121
vt 0.711722 0.952649
vt 0.726115 0.900658
vt 0.726115 0.979249
vt 0.378433 0.779051
vt 0.403664 0.766271
vt 0.403664 0.792608
vt 0.382882 0.790386
vt 0.234633 0.949961
vt 0.225975 0.936858
vt 0.234633 0.928553
vt 0.388012 0.169187
vt 0.381210 0.020813
vt 0.462467 0.002265
vt 0.462467 0.184185
vt 0.789487 0.852748
vt 0.789487 0.868760
vt 0.784513 0.863610
vt 0.200026 0.928553
vt 0.200026 0.949939
vt 0.191114 0.946905
vt 0.725714 0.396489
vt 0.645070 0.396479
vt 0.647342 0.381808
vt 0.725714 0.358908
vt 0.212745 0.943427
vt 0.221444 0.928553
vt 0.221444 0.950056
vt 0.934597 0.204113
vt 0.955015 0.150434
vt 0.955015 0.226988
vt 0.276190 0.937948
vt 0.292020 0.864926
vt 0.292020 0.949318
vt 0.767787 0.868962
vt 0.711722 0.811678
vt 0.767787 0.797331
vt 0.204557 0.930438
vt 0.208214 0.928553
vt 0.208214 0.966115
vt 0.205295 0.966139
vt 0.639851 0.529353
vt 0.633699 0.422692
vt 0.707110 0.407323
vt 0.707110 0.556930
vt 0.473246 0.192904
vt 0.506808 0.188715
vt 0.506808 0.201944
vt 0.473695 0.201014
vt 0.056142 0.924438
vt 0.065129 0.924301
vt 0.065129 0.945969
vt 0.055741 0.947070
vt 0.634357 0.900253
vt 0.656455 0.893652
vt 0.656455 0.952127
vt 0.633699 0.955753
vt 0.869492 0.105335
vt 0.869492 0.301006
vt 0.852487 0.144422
vt 0.111328 0.352518
vt 0.089026 0.352039
vt 0.088565 0.239244
vt 0.111328 0.236411
vt 0.994488 0.305536
vt 0.994488 0.432623
vt 0.990507 0.425694
vt 0.930067 0.284471
vt 0.924674 0.207062
vt 0.930067 0.068240
vt 0.372354 0.734700
vt 0.303016 0.701684
vt 0.298910 0.595544
vt 0.372354 0.616744
vt 0.954789 0.068240
vt 0.954789 0.145904
vt 0.934597 0.142169
vt 0.506318 0.450848
vt 0.575549 0.407323
vt 0.575549 0.598119
vt 0.508756 0.568090
vt 0.354071 0.544465
vt 0.354676 0.509827
vt 0.354676 0.546604
vt 0.459403 0.896945
vt 0.459403 0.916838
vt 0.384743 0.909693
vt 0.381986 0.902880
vt 0.993166 0.616763
vt 0.989501 0.616611
vt 0.993166 0.474967
vt 0.972105 0.619436
vt 0.964804 0.616301
vt 0.972105 0.474967
vt 0.481071 0.860611
vt 0.481071 0.953065
vt 0.467424 0.943987
vt 0.467649 0.855145
vt 0.952854 0.682311
vt 0.952854 0.789149
vt 0.939831 0.782791
vt 0.854004 0.974470
vt 0.851443 0.936177
vt 0.854004 0.935521
vt 0.845851 0.119592
vt 0.845851 0.184590
vt 0.773316 0.181622
vt 0.758050 0.125176
vt 0.936617 0.231686
vt 0.955345 0.231518
vt 0.955345 0.299895
vt 0.934597 0.300558
vt 0.549710 0.907289
vt 0.557600 0.901350
vt 0.557600 0.995523
vt 0.549969 0.995569
vt 0.933531 0.474967
vt 0.933531 0.655314
vt 0.926322 0.653960
vt 0.002265 0.737124
vt 0.007570 0.682783
vt 0.076949 0.654555
vt 0.076949 0.783342
vt 0.294380 0.595544
vt 0.294380 0.702350
vt 0.189076 0.700932
vt 0.750965 0.962087
vt 0.750736 0.939277
vt 0.754829 0.939542
vt 0.754829 0.962480
vt 0.669963 0.980341
vt 0.660985 0.980768
vt 0.664835 0.893662
vt 0.669963 0.893652
vt 0.083650 0.982861
vt 0.088745 0.896420
vt 0.094079 0.899034
vt 0.094079 0.984828
vt 0.540047 0.901451
vt 0.540047 0.990918
vt 0.532453 0.902201
vt 0.545939 0.602650
vt 0.545939 0.811592
vt 0.506318 0.691840
vt 0.815989 0.663722
vt 0.813753 0.652755
vt 0.837847 0.653408
vt 0.837847 0.659897
vt 0.326076 0.982323
vt 0.321799 0.909424
vt 0.329897 0.908806
vt 0.329897 0.982309
vt 0.614120 0.002265
vt 0.614120 0.174052
vt 0.545951 0.138687
vt 0.546449 0.023468
vt 0.002265 0.831893
vt 0.004519 0.803090
vt 0.085191 0.787872
vt 0.085191 0.855216
vt 0.939831 0.957647
vt 0.943818 0.936258
vt 0.947101 0.935992
vt 0.947101 0.958378
vt 0.935301 0.682311
vt 0.935301 0.822340
vt 0.924440 0.819637
vt 0.893450 0.878050
vt 0.863007 0.852010
vt 0.893450 0.772928
vt 0.848559 0.491665
vt 0.791834 0.456830
vt 0.848559 0.407323
vt 0.921792 0.474967
vt 0.921792 0.660624
vt 0.914535 0.477737
vt 0.877119 0.004792
vt 0.877119 0.081016
vt 0.838552 0.082790
vt 0.822579 0.002265
vt 0.959320 0.142761
vt 0.967521 0.009948
vt 0.967521 0.145904
vt 0.801113 0.890403
vt 0.801863 0.853360
vt 0.804435 0.852748
vt 0.804435 0.892809
vt 0.843817 0.971152
vt 0.843993 0.935521
vt 0.846912 0.935528
vt 0.846912 0.973108
vt 0.780113 0.207122
vt 0.780113 0.353636
vt 0.721907 0.294467
vt 0.189076 0.591014
vt 0.204532 0.509827
vt 0.349541 0.511110
vt 0.349541 0.587061
vt 0.629169 0.786511
vt 0.629169 0.858270
vt 0.555555 0.830748
vt 0.553117 0.791621
vt 0.885653 0.183702
vt 0.874022 0.105335
vt 0.907888 0.108560
vt 0.907888 0.185002
vt 0.554114 0.602650
vt 0.554114 0.747664
vt 0.550469 0.743356
vt 0.143675 0.950084
vt 0.143641 0.928553
vt 0.151950 0.930257
vt 0.151950 0.951833
vt 0.645070 0.256030
vt 0.717376 0.207122
vt 0.717376 0.348595
vt 0.646852 0.331907
vt 0.184202 0.527303
vt 0.184202 0.672320
vt 0.180479 0.666205
vt 0.906221 0.992338
vt 0.900342 0.904685
vt 0.906221 0.903699
vt 0.382308 0.880788
vt 0.462893 0.855145
vt 0.462893 0.892414
vt 0.381986 0.892131
vt 0.695138 0.187519
vt 0.691604 0.187848
vt 0.691810 0.165749
vt 0.695138 0.165677
vt 0.880547 0.444558
vt 0.882601 0.407323
vt 0.882601 0.446705
vt 0.338188 0.830952
vt 0.338188 0.904276
vt 0.298910 0.903927
vt 0.408368 0.428512
vt 0.408368 0.557769
vt 0.359361 0.498566
vt 0.855776 0.759975
vt 0.784513 0.768397
vt 0.811764 0.684904
vt 0.855776 0.682311
vt 0.363057 0.920512
vt 0.363057 0.983252
vt 0.358982 0.981753
vt 0.949292 0.435044
vt 0.939900 0.306600
vt 0.949292 0.305536
vt 0.160495 0.928553
vt 0.160495 0.965688
vt 0.156480 0.965189
vt 0.543261 0.816123
vt 0.543261 0.896921
vt 0.506318 0.860753
vt 0.793403 0.941316
vt 0.781156 0.943460
vt 0.768990 0.914939
vt 0.793403 0.900658
vt 0.764459 0.933960
vt 0.730645 0.934746
vt 0.742183 0.900658
vt 0.764459 0.901818
vt 0.924679 0.934802
vt 0.911321 0.859347
vt 0.933210 0.858629
vt 0.933210 0.935141
vt 0.976553 0.787128
vt 0.969812 0.681123
vt 0.976553 0.648663
vt 0.501788 0.424697
vt 0.433148 0.256223
vt 0.501788 0.207122
vt 0.705734 0.720058
vt 0.705734 0.803948
vt 0.666448 0.803678
vt 0.633699 0.711051
vt 0.951873 0.611638
vt 0.960273 0.474967
vt 0.960273 0.612621
vt 0.909278 0.470368
vt 0.887378 0.470437
vt 0.887711 0.397966
vt 0.909278 0.397358
vt 0.815597 0.671359
vt 0.851334 0.671346
vt 0.851333 0.674428
vt 0.813753 0.674131
vt 0.787304 0.407323
vt 0.787304 0.524591
vt 0.711640 0.507165
vt 0.714756 0.407808
vt 0.848348 0.585644
vt 0.882847 0.561460
vt 0.882847 0.665763
vt 0.267398 0.718794
vt 0.292020 0.706881
vt 0.292020 0.860396
vt 0.617405 0.901350
vt 0.617405 0.962865
vt 0.603875 0.961225
vt 0.882638 0.882581
vt 0.882638 0.955814
vt 0.873023 0.953560
vt 0.863007 0.885798
vt 0.959875 0.251531
vt 0.975209 0.215811
vt 0.975209 0.300558
vt 0.753519 0.184219
vt 0.699694 0.044631
vt 0.753519 0.002265
vt 0.408195 0.776969
vt 0.486835 0.707550
vt 0.486835 0.793693
vt 0.338117 0.908806
vt 0.338117 0.947413
vt 0.337022 0.947243
vt 0.334428 0.910320
vt 0.079119 0.919443
vt 0.002265 0.919770
vt 0.008240 0.896420
vt 0.079119 0.898685
vt 0.629169 0.407323
vt 0.629169 0.636939
vt 0.580079 0.500496
vt 0.711848 0.637359
vt 0.711722 0.561460
vt 0.787567 0.572395
vt 0.787567 0.677781
vt 0.105133 0.664784
vt 0.100824 0.527303
vt 0.175949 0.529535
vt 0.175949 0.675563
vt 0.507561 0.937598
vt 0.506318 0.901451
vt 0.527923 0.902111
vt 0.527923 0.942314
vt 0.270660 0.915824
vt 0.189076 0.912581
vt 0.189308 0.900150
vt 0.270660 0.893983
vt 0.988223 0.884425
vt 0.994752 0.793680
vt 0.994752 0.899065
vt 0.040888 0.933534
vt 0.051210 0.924301
vt 0.051210 0.945798
vt 0.691674 0.197288
vt 0.691604 0.193467
vt 0.778331 0.192379
vt 0.778331 0.201598
vt 0.343343 0.915184
vt 0.342719 0.830952
vt 0.364943 0.831236
vt 0.364943 0.915982
vt 0.698035 0.898559
vt 0.686848 0.902753
vt 0.675767 0.820854
vt 0.698035 0.808478
vt 0.671237 0.889122
vt 0.633699 0.889085
vt 0.660330 0.808579
vt 0.671237 0.808478
vt 0.898486 0.192257
vt 0.898486 0.288223
vt 0.875448 0.287768
vt 0.874022 0.189533
vt 0.959016 0.644132
vt 0.957385 0.642444
vt 0.959016 0.620638
vt 0.930843 0.056211
vt 0.910062 0.009071
vt 0.930843 0.002265
vt 0.942162 0.632788
vt 0.938061 0.631360
vt 0.942162 0.617083
vt 0.894244 0.385937
vt 0.856683 0.385982
vt 0.881768 0.305570
vt 0.894244 0.305536
vt 0.372031 0.826421
vt 0.298910 0.814919
vt 0.307034 0.739470
vt 0.372032 0.739231
vt 0.760058 0.961492
vt 0.759360 0.939277
vt 0.763460 0.939632
vt 0.763460 0.961936
vt 0.858477 0.856090
vt 0.858477 0.930991
vt 0.836232 0.926768
vt 0.836090 0.852748
vt 0.036357 0.946233
vt 0.025746 0.946055
vt 0.028445 0.925698
vt 0.036357 0.924301
vt 0.170893 0.436698
vt 0.093443 0.416006
vt 0.088565 0.376926
vt 0.170893 0.360813
vt 0.084035 0.254708
vt 0.084035 0.436698
vt 0.011183 0.433885
vt 0.002265 0.236411
vt 0.096294 0.574308
vt 0.096294 0.650025
vt 0.009382 0.643192
vt 0.002265 0.527303
vt 0.376680 0.202592
vt 0.283568 0.191339
vt 0.273026 0.002265
vt 0.376680 0.018370
vt 0.640539 0.207122
vt 0.640539 0.396489
vt 0.579599 0.265502
vt 0.837076 0.099353
vt 0.847307 0.087320
vt 0.847307 0.111670
vt 0.808869 0.208148
vt 0.847957 0.207122
vt 0.847957 0.280446
vt 0.784644 0.301006
vt 0.898775 0.310367
vt 0.920633 0.305536
vt 0.920633 0.390103
vt 0.913431 0.389824
vt 0.120088 0.919225
vt 0.120088 0.952368
vt 0.100824 0.928513
vt 0.932097 0.677075
vt 0.926322 0.672528
vt 0.932097 0.659844
vt 0.372968 0.575849
vt 0.372968 0.591014
vt 0.354071 0.586240
vt 0.635171 0.177013
vt 0.687073 0.169873
vt 0.687073 0.201598
vt 0.259814 0.809005
vt 0.259814 0.881911
vt 0.231187 0.878021
vt 0.881649 0.011131
vt 0.905532 0.002265
vt 0.905532 0.087645
vt 0.976769 0.305536
vt 0.976769 0.409839
vt 0.966319 0.381457
vt 0.184170 0.892156
vt 0.184170 0.912949
vt 0.101480 0.914695
vt 0.100824 0.891689
vt 0.911321 0.962043
vt 0.911382 0.939899
vt 0.915036 0.939671
vt 0.915036 0.962306
vt 0.173681 0.797888
vt 0.101132 0.797633
vt 0.100824 0.703461
vt 0.173681 0.680094
vt 0.575069 0.402793
vt 0.506318 0.352167
vt 0.575069 0.207122
vt 0.546256 0.179814
vt 0.630641 0.178583
vt 0.630641 0.201598
vt 0.545951 0.200226
vt 0.881643 0.494715
vt 0.881643 0.531786
vt 0.880547 0.531629
vt 0.887378 0.485680
vt 0.897099 0.474967
vt 0.897099 0.665763
vt 0.189076 0.727258
vt 0.262867 0.706881
vt 0.262867 0.804475
vt 0.996031 0.199284
vt 0.996031 0.298690
vt 0.991701 0.288645
vt 0.354831 0.416065
vt 0.273026 0.403101
vt 0.354831 0.207122
vt 0.911321 0.714332
vt 0.919910 0.682311
vt 0.919910 0.854098
vt 0.500335 0.707550
vt 0.500335 0.905225
vt 0.491366 0.892997
vt 0.985977 0.305536
vt 0.985977 0.443121
vt 0.981299 0.438520
vt 0.190379 0.169105
vt 0.268496 0.002265
vt 0.268496 0.293057
vt 0.991459 0.020994
vt 0.996140 0.009948
vt 0.996140 0.108719
vt 0.963564 0.187726
vt 0.959546 0.150902
vt 0.963564 0.150434
vt 0.359361 0.314845
vt 0.428618 0.207122
vt 0.428618 0.423982
vt 0.972052 0.165703
vt 0.974624 0.163461
vt 0.974624 0.202748
vt 0.189076 0.469680
vt 0.354831 0.420595
vt 0.354831 0.505296
vt 0.985739 0.645658
vt 0.985739 0.787128
vt 0.981083 0.782505
vt 0.887169 0.980856
vt 0.888194 0.882581
vt 0.895431 0.883775
vt 0.895431 0.982776
vt 0.803722 0.991639
vt 0.797933 0.902082
vt 0.803722 0.900658
vt 0.907668 0.676386
vt 0.901629 0.670350
vt 0.907668 0.662537
vt 0.711802 0.895709
vt 0.711722 0.873972
vt 0.796517 0.873493
vt 0.796517 0.896128
vt 0.688294 0.909198
vt 0.694866 0.907283
vt 0.694866 0.995923
vt 0.687577 0.995786
vt 0.954348 0.797617
vt 0.961373 0.793680
vt 0.961373 0.935370
vt 0.953406 0.935395
vt 0.569767 0.996388
vt 0.563087 0.994420
vt 0.562130 0.902762
vt 0.569767 0.901350
vt 0.919934 0.096674
vt 0.910062 0.098542
vt 0.910138 0.061519
vt 0.919934 0.060741
vt 0.535594 0.200883
vt 0.511339 0.198742
vt 0.513536 0.192134
vt 0.535594 0.188715
vt 0.693958 0.159977
vt 0.658334 0.159271
vt 0.657018 0.154535
vt 0.693958 0.152212
vt 0.271659 0.888580
vt 0.267327 0.889213
vt 0.264665 0.867068
vt 0.271659 0.864926
vt 0.165026 0.950803
vt 0.166361 0.928653
vt 0.173433 0.928553
vt 0.173433 0.951463
vt 0.461186 0.921368
vt 0.461186 0.958438
vt 0.453971 0.957229
vt 0.453423 0.921525
vt 0.426920 0.923012
vt 0.435602 0.921368
vt 0.435602 0.958223
vt 0.426882 0.958749
vt 0.847090 0.201035
vt 0.824318 0.202373
vt 0.825350 0.192379
vt 0.847090 0.193246
vt 0.069659 0.927250
vt 0.077960 0.924301
vt 0.077960 0.948439
vt 0.073093 0.949126
vt 0.819788 0.199461
vt 0.784250 0.198606
vt 0.782862 0.194453
vt 0.819788 0.192379
vt 0.983692 0.923190
vt 0.977490 0.807419
vt 0.983692 0.793680
vt 0.376810 0.830952
vt 0.376810 0.971052
vt 0.369474 0.968409
vt 0.920632 0.396577
vt 0.920632 0.470437
vt 0.913809 0.469762
vt 0.009870 0.924301
vt 0.009870 0.961351
vt 0.002265 0.959665
vt 0.002788 0.924381
vt 0.448892 0.921368
vt 0.448892 0.958412
vt 0.440133 0.957477
vt 0.440173 0.921916
vt 0.809663 0.934779
vt 0.816537 0.934245
vt 0.816537 0.955913
vt 0.808966 0.956440
vt 0.730714 0.961108
vt 0.730645 0.939277
vt 0.737867 0.939622
vt 0.737867 0.961125
vt 0.965282 0.648663
vt 0.965282 0.789149
vt 0.957385 0.651622
vt 0.947342 0.612552
vt 0.938061 0.517969
vt 0.947342 0.474967
vt 0.266432 0.928553
vt 0.266432 0.952167
vt 0.259452 0.948886
vt 0.812219 0.497015
vt 0.812219 0.505068
vt 0.794525 0.506050
vt 0.791834 0.496195
vt 0.247268 0.929058
vt 0.247268 0.950588
vt 0.239484 0.950116
vt 0.239164 0.928553
vt 0.828756 0.956178
vt 0.821067 0.955819
vt 0.821913 0.934428
vt 0.828756 0.934245
vt 0.984970 0.590901
vt 0.978346 0.592811
vt 0.976636 0.481837
vt 0.984970 0.474967
vt 0.986929 0.009948
vt 0.986929 0.148411
vt 0.982514 0.135345
vt 0.942402 0.063071
vt 0.935374 0.015601
vt 0.942402 0.002265
vt 0.683047 0.907283
vt 0.683047 0.996126
vt 0.675767 0.993981
vt 0.676538 0.907295
vt 0.961789 0.305536
vt 0.961789 0.446297
vt 0.954943 0.444521
vt 0.953823 0.305599
vt 0.298910 0.910738
vt 0.305798 0.908806
vt 0.305798 0.997565
vt 0.299289 0.997578
vt 0.995512 0.903595
vt 0.995512 0.993339
vt 0.988926 0.989325
vt 0.988223 0.903646
vt 0.987171 0.199284
vt 0.987171 0.300558
vt 0.979740 0.202558
vt 0.924440 0.828759
vt 0.934292 0.826870
vt 0.934292 0.851438
vt 0.925475 0.850836
vt 0.912418 0.244098
vt 0.920143 0.105335
vt 0.920143 0.284471
vt 0.628793 0.901354
vt 0.628793 0.990395
vt 0.621941 0.988085
vt 0.621936 0.901350
vt 0.925163 0.305536
vt 0.935370 0.305961
vt 0.935370 0.444940
vt 0.927717 0.442803
vt 0.391973 0.921368
vt 0.391973 0.958561
vt 0.381986 0.957622
vt 0.382178 0.922155
vt 0.901629 0.518154
vt 0.910005 0.474967
vt 0.910005 0.658006
vt 0.310328 0.923553
vt 0.317268 0.908806
vt 0.317268 0.997087
vt 0.706899 0.808478
vt 0.706898 0.961993
vt 0.702565 0.948900
vt 0.411496 0.933524
vt 0.422351 0.921368
vt 0.422351 0.954494
vt 0.953458 0.050253
vt 0.946932 0.046170
vt 0.953458 0.002265
vt 0.972960 0.793680
vt 0.972960 0.935201
vt 0.965904 0.894706
vn 0.0273 0.2082 -0.9777
vn 0.9428 0.3290 -0.0536
vn 0.9512 0.2634 -0.1606
vn 0.9287 0.3309 -0.1672
vn 0.9121 0.3567 -0.2022
vn -0.9276 0.3735 -0.0111
vn -0.8437 0.5367 0.0069
vn 0.0281 -0.3453 -0.9381
vn 0.0152 0.9993 0.0340
vn -0.0282 0.9989 -0.0365
vn -0.9435 0.3312 0.0070
vn 0.7477 0.3763 -0.5471
vn 0.7254 0.3611 -0.5860
vn 0.7716 -0.4323 -0.4665
vn 0.7716 -0.4323 -0.4666
vn 0.5115 -0.0517 -0.8577
vn 0.5116 -0.0517 -0.8577
vn 0.0193 0.6661 -0.7456
vn -0.5494 0.6579 -0.5151
vn -0.4888 0.6988 -0.5222
vn -0.0440 0.5686 0.8215
vn 0.0094 0.1844 -0.9828
vn 0.0533 0.8561 0.5141
vn -0.7395 0.4357 0.5131
vn -0.7381 0.4387 0.5126
vn -0.4880 0.3675 0.7917
vn -0.4881 0.3675 0.7917
vn -0.9086 0.4174 -0.0131
vn -0.0119 0.3115 0.9502
vn -0.0141 0.3087 0.9511
vn -0.0135 0.3095 0.9508
vn -0.0113 0.3123 0.9499
vn -0.9420 0.3357 0.0042
vn -0.9426 0.3337 -0.0111
vn 0.9416 0.3348 -0.0348
vn 0.9532 0.3023 0.0094
vn 0.9532 0.3023 0.0093
vn 0.9347 0.3547 -0.0209
vn 0.6704 0.7420 0.0013
vn 0.6477 0.7619 0.0008
vn 0.6272 0.7785 -0.0229
vn 0.6293 0.7771 0.0047
vn 0.8216 0.5686 -0.0409
vn 0.9257 0.3783 -0.0088
vn 0.9256 0.3783 -0.0088
vn 0.9661 0.2578 0.0147
vn 0.0274 0.2925 -0.9559
vn 0.0278 0.2929 -0.9557
vn 0.0227 0.2882 -0.9573
vn 0.0223 0.2879 -0.9574
vn 0.0206 0.0005 0.9998
vn 0.0239 0.0505 0.9984
vn 0.0014 -0.4469 0.8946
vn 0.0075 -0.3585 0.9335
vn 0.9219 0.3624 -0.1374
vn 0.9386 0.3303 -0.0995
vn 0.9259 0.3771 -0.0209
vn 0.6672 -0.3090 -0.6777
vn 0.6673 -0.3090 -0.6777
vn 0.7418 -0.0672 -0.6673
vn 0.0024 0.9964 0.0848
vn 0.7296 -0.6837 -0.0146
vn 0.6905 -0.7230 -0.0211
vn 0.6901 -0.7236 0.0076
vn -0.9261 0.3734 -0.0539
vn 0.3089 0.3441 0.8867
vn -0.0143 0.3846 0.9230
vn -0.0138 0.3839 0.9233
vn -0.0194 0.3911 0.9202
vn -0.0205 0.3924 0.9195
vn 0.0113 0.2083 -0.9780
vn 0.5669 0.4303 0.7024
vn 0.6243 0.4219 0.6574
vn 0.6243 0.4219 0.6575
vn -0.8310 0.5534 0.0556
vn -0.9901 0.1396 -0.0125
vn -0.7935 0.6054 -0.0629
vn 0.9453 0.3256 0.0210
vn -0.9350 0.3545 0.0064
vn -0.9357 0.3517 0.0274
vn -0.9428 0.3333 -0.0074
vn 0.6744 -0.7383 0.0011
vn 0.6692 -0.7429 -0.0136
vn 0.6751 -0.7375 0.0168
vn 0.6914 -0.7225 0.0031
vn -0.7270 0.6857 -0.0360
vn -0.0010 0.3278 0.9448
vn 0.0410 0.3663 0.9296
vn 0.1345 0.3864 0.9125
vn -0.9693 0.2446 -0.0263
vn -0.0605 0.3697 0.9272
vn -0.0730 0.3870 0.9192
vn 0.0095 0.2670 0.9637
vn -0.0999 0.9904 0.0956
vn 0.0001 0.2039 -0.9790
vn -0.0736 0.3468 0.9351
vn -0.0554 0.2518 -0.9662
vn 0.0316 0.3333 0.9423
vn 0.0376 0.3467 0.9372
vn 0.0106 0.3281 -0.9446
vn 0.0104 0.3734 -0.9276
vn -0.6341 0.4235 -0.6470
vn -0.6574 0.4731 -0.5865
vn 0.7047 0.7095 0.0050
vn 0.6711 0.7408 0.0302
vn 0.6923 0.7216 0.0047
vn -0.9410 0.3383 0.0095
vn -0.9431 0.3323 -0.0076
vn -0.9393 0.3428 -0.0107
vn -0.9302 0.3670 -0.0004
vn -0.6214 -0.5216 0.5847
vn -0.2283 0.8812 -0.4140
vn -0.1852 0.9123 -0.3652
vn 0.0199 -0.3734 -0.9275
vn 0.0199 -0.3734 -0.9274
vn 0.0282 -0.2463 -0.9688
vn -0.0015 -0.7436 -0.6687
vn 0.0190 -0.7271 -0.6863
vn 0.0002 -0.7414 -0.6711
vn 0.0527 -0.2522 0.9662
vn 0.0316 -0.3566 0.9337
vn 0.4292 0.8436 -0.3226
vn 0.3791 0.8798 -0.2867
vn 0.0156 0.3245 0.9458
vn -0.0418 0.3885 0.9205
vn 0.9571 0.2899 -0.0003
vn 0.9590 0.2833 0.0060
vn 0.9588 0.2840 0.0053
vn 0.9568 0.2909 -0.0013
vn -0.3048 0.9368 0.1718
vn -0.6768 0.4287 -0.5984
vn -0.6100 0.3824 -0.6940
vn -0.7019 0.4278 0.5696
vn 0.0009 0.9485 -0.3166
vn -0.0095 0.9887 -0.1499
vn -0.3393 0.8644 0.3712
vn -0.9324 0.3596 -0.0365
vn -0.9328 0.3585 -0.0361
vn -0.9310 0.3630 -0.0378
vn -0.9306 0.3639 -0.0382
vn 0.2402 0.9667 0.0884
vn 0.4175 0.8697 -0.2633
vn 0.0491 0.3412 -0.9387
vn 0.0109 0.3483 -0.9373
vn 0.0108 0.3484 -0.9373
vn 0.3218 0.8907 -0.3210
vn 0.6019 0.4034 -0.6892
vn 0.7800 0.4519 0.4329
vn -0.2702 0.2954 0.9164
vn -0.7666 -0.6421 -0.0051
vn -0.7281 -0.6851 0.0220
vn -0.7468 -0.6649 -0.0147
vn 0.0100 0.3623 -0.9320
vn 0.0101 0.3623 -0.9320
vn -0.0226 0.3048 -0.9522
vn 0.8389 0.0758 0.5390
vn 0.8447 0.0452 0.5333
vn -0.6899 -0.0378 -0.7229
vn -0.7062 0.0145 -0.7079
vn 0.6119 0.4268 -0.6659
vn 0.6854 0.4580 -0.5661
vn -0.8378 0.5311 0.1267
vn 0.6144 0.4514 0.6471
vn 0.6287 0.4763 0.6147
vn 0.6391 0.4378 0.6324
vn -0.6934 0.7205 -0.0108
vn 0.0091 0.1263 -0.9919
vn -0.9594 0.2805 0.0279
vn -0.9563 0.2922 0.0126
vn -0.9548 0.2970 0.0130
vn -0.9539 0.2998 0.0104
vn -0.7669 0.4203 0.4850
vn 0.9650 0.2599 -0.0346
vn 0.9703 0.2403 -0.0258
vn 0.9704 0.2403 -0.0257
vn -0.9972 0.0698 0.0270
vn 0.6597 0.4024 -0.6347
vn 0.6977 0.4107 -0.5870
vn -0.0033 0.9964 0.0849
vn 0.5816 0.8135 0.0007
vn 0.0221 0.4284 -0.9033
vn -0.0015 0.2921 -0.9564
vn 0.0157 0.2853 -0.9583
vn 0.0545 0.7420 0.6682
vn 0.0909 0.3082 -0.9470
vn 0.0580 0.3256 -0.9437
vn -0.0025 0.3548 -0.9349
vn 0.0226 0.3922 -0.9196
vn -0.6253 0.4075 -0.6656
vn -0.5894 0.4175 -0.6916
vn 0.7325 0.6807 -0.0100
vn 0.8620 0.5068 0.0099
vn 0.9972 0.0626 -0.0404
vn -0.9753 0.2209 -0.0025
vn -0.9718 0.2259 0.0670
vn -0.9599 0.2793 0.0226
vn -0.9791 0.2025 0.0173
vn 0.0071 0.3045 -0.9525
vn 0.0035 0.3164 -0.9486
vn 0.0097 0.3150 -0.9490
vn 0.4201 0.8415 0.3396
vn 0.4200 0.8416 0.3396
vn 0.4506 0.8145 0.3654
vn -0.0431 -0.0149 -0.9990
vn -0.0446 -0.0150 -0.9989
vn -0.0227 -0.3737 -0.9273
vn -0.0144 -0.0142 0.9998
vn -0.0103 -0.0756 0.9971
vn 0.8621 0.5066 -0.0103
vn -0.0000 0.3841 -0.9233
vn -0.7523 -0.2622 -0.6044
vn -0.7308 -0.3162 -0.6050
vn 0.9996 0.0138 -0.0266
vn 1.0000 0.0033 0.0010
vn 0.9983 -0.0589 -0.0020
vn 0.9998 -0.0194 -0.0061
vn -0.9540 0.2997 0.0085
vn -0.9492 0.3147 0.0086
vn -0.9531 0.3019 -0.0207
vn -0.9463 0.3233 0.0009
vn 0.4855 0.2698 0.8316
vn 0.3127 0.3653 0.8768
vn 0.4365 -0.7554 0.4886
vn 0.5701 -0.3741 0.7315
vn -0.9780 -0.2088 0.0018
vn -0.0019 0.3750 0.9270
vn 0.9518 0.3018 0.0552
vn 0.0055 0.7278 0.6857
vn -0.9383 0.3436 0.0396
vn -0.9336 0.3531 0.0606
vn -0.0308 -0.4312 0.9017
vn 0.0067 0.7533 0.6577
vn 0.0069 0.7511 0.6602
vn 0.0063 0.7567 0.6538
vn 0.0061 0.7588 0.6513
vn -0.7209 -0.6930 -0.0016
vn -0.6973 -0.7168 0.0014
vn -0.6809 -0.7319 -0.0272
vn -0.6850 -0.7285 0.0026
vn 0.9509 0.3075 -0.0358
vn -0.9304 0.3650 0.0346
vn -0.9387 0.3426 0.0392
vn -0.9262 0.3737 0.0512
vn -0.9300 0.3642 0.0494
vn -0.9482 0.2869 0.1367
vn -0.9482 0.2869 0.1366
vn -0.9387 0.3437 0.0253
vn -0.4571 0.4881 0.7436
vn -0.7407 0.3999 0.5398
vn -0.0012 0.9977 -0.0683
vn 0.6150 -0.1152 0.7800
vn 0.6073 -0.0867 0.7897
vn 0.0221 0.2873 0.9576
vn 0.0489 0.3226 0.9453
vn -0.1265 0.9874 -0.0950
vn -0.0284 0.0998 0.9946
vn 0.9409 0.3387 0.0032
vn 0.9368 0.3457 -0.0531
vn 0.9368 0.3458 -0.0531
vn 0.4082 -0.8232 -0.3947
vn 0.4236 -0.8041 -0.4172
vn 0.4237 -0.8040 -0.4172
vn -0.0276 0.7731 -0.6336
vn 0.9410 0.3384 -0.0035
vn 0.0293 0.3502 -0.9362
vn -0.9068 0.4018 0.1275
vn -0.9382 0.3191 0.1340
vn -0.9362 0.3509 0.0202
vn -0.9068 0.4017 0.1275
vn -0.7096 0.7035 -0.0393
vn -0.9971 -0.0764 0.0029
vn 0.0139 0.8502 -0.5263
vn 0.1372 0.4707 0.8716
vn 0.6221 0.4647 -0.6301
vn 0.6474 0.4930 -0.5813
vn 0.6474 0.4930 -0.5812
vn 0.8197 0.2942 0.4914
vn 0.7478 0.3208 0.5812
vn 0.7690 0.3904 0.5062
vn 0.5957 0.4216 0.6836
vn 0.5957 0.4217 0.6836
vn 0.7050 0.4375 0.5582
vn -0.9637 -0.2669 -0.0014
vn -0.9646 -0.2638 -0.0027
vn -0.9632 -0.2688 -0.0042
vn -0.9540 0.2965 -0.0437
vn 0.1050 0.3119 -0.9443
vn 0.0516 0.3224 -0.9452
vn 0.0906 0.3055 -0.9479
vn 0.0540 0.3633 -0.9301
vn 0.0268 -0.1917 0.9811
vn 0.6013 0.4027 0.6901
vn 0.5540 0.4170 0.7206
vn 0.5540 0.4170 0.7205
vn 0.0014 -0.7315 -0.6819
vn -0.0020 -0.7190 -0.6951
vn -0.0124 -0.7020 -0.7121
vn 0.0051 -0.7019 -0.7122
vn 0.9344 0.3553 -0.0255
vn 0.9342 0.3559 -0.0250
vn 0.9363 0.3500 -0.0298
vn 0.9366 0.3491 -0.0305
vn -0.0931 0.3516 0.9315
vn -0.6957 0.7177 -0.0294
vn -0.6869 0.7184 0.1102
vn -0.7365 0.6765 -0.0021
vn -0.0357 -0.0315 -0.9989
vn 0.5919 0.4642 -0.6589
vn 0.5918 0.4642 -0.6590
vn 0.6449 0.4470 -0.6199
vn -0.1102 0.3707 0.9222
vn -0.0230 0.3360 -0.9416
vn 0.9129 0.4008 0.0771
vn -0.6110 0.7897 0.0554
vn -0.3715 0.9271 0.0493
vn -0.5916 0.4481 -0.6702
vn -0.5813 0.4436 -0.6821
vn -0.0054 0.3076 -0.9515
vn 0.0019 0.3049 -0.9524
vn 0.0067 0.3056 -0.9521
vn 0.0471 0.4200 0.9063
vn 0.0467 0.4204 0.9062
vn 0.0493 0.4184 0.9069
vn 0.0511 0.4170 0.9075
vn -0.0693 0.3310 0.9411
vn -0.0682 0.3292 0.9418
vn -0.0716 0.3353 0.9394
vn -0.0727 0.3371 0.9386
vn -0.5205 0.4913 0.6984
vn -0.3941 0.5413 0.7427
vn -0.3942 0.5413 0.7427
vn 0.6347 0.4331 -0.6400
vn 0.6328 0.4336 -0.6415
vn 0.6384 0.4323 -0.6369
vn 0.6400 0.4320 -0.6355
vn 0.0530 -0.3832 0.9221
vn 0.4274 0.8256 0.3683
vn 0.9977 -0.0642 0.0233
vn 0.9955 -0.0945 -0.0052
vn 0.9949 -0.1004 -0.0074
vn -0.6121 0.4325 0.6620
vn -0.6121 0.4326 0.6620
vn -0.5348 0.4502 0.7151
vn -0.5348 0.4502 0.7150
vn -0.6076 0.4355 0.6642
vn -0.4862 0.4305 0.7605
vn -0.5222 0.3921 0.7573
vn 0.0069 0.3412 -0.9400
vn -0.0022 0.3401 -0.9404
vn 0.0006 0.3404 -0.9403
vn 0.0101 0.3416 -0.9398
vn 0.6943 0.4348 -0.5735
vn 0.6747 0.4400 -0.5926
vn 0.6747 0.4401 -0.5926
vn -0.3651 0.9028 0.2274
vn -0.6672 0.4462 0.5965
vn -0.5003 0.7681 0.3997
vn -0.9450 0.3270 -0.0084
vn -0.9413 0.3332 -0.0540
vn -0.1205 0.4472 -0.8863
vn -0.0255 0.3151 -0.9487
vn -0.4718 -0.7274 0.4984
vn -0.5268 -0.6620 0.5332
vn -0.6636 0.4626 -0.5879
vn -0.6252 0.4542 -0.6347
vn -0.7899 -0.1479 0.5952
vn -0.6549 0.2903 0.6978
vn -0.0583 0.2320 -0.9710
vn -0.0583 0.2319 -0.9710
vn -0.1453 0.3133 -0.9385
vn 0.0356 0.3854 0.9220
vn 0.0221 0.4121 0.9109
vn 0.0270 0.2736 0.9615
vn 0.0462 0.3348 0.9411
vn 0.0462 0.3349 0.9411
vn 0.9348 0.3536 0.0322
vn 0.9343 0.3556 0.0246
vn 0.9035 0.4285 0.0021
vn 0.9016 0.4314 0.0299
vn 0.9217 0.3861 0.0369
vn 0.9413 0.3307 0.0674
vn 0.9390 0.3427 0.0273
vn -0.1662 0.9640 0.2073
vn 0.9410 0.3381 0.0152
vn 0.9359 0.3499 0.0394
vn 0.9360 0.3499 0.0394
vn 0.6768 0.4430 0.5880
vn 0.6077 0.4644 0.6443
vn 0.7143 0.6376 -0.2885
vn 0.3537 0.7789 -0.5178
vn 0.3449 0.8141 0.4671
vn 0.7644 0.3194 -0.5600
vn 0.4653 0.3765 0.8011
vn -0.4467 0.4075 0.7965
vn -0.4576 0.3786 0.8045
vn -0.4663 0.4097 0.7840
vn -0.7160 0.4356 0.5455
vn -0.6485 0.4422 -0.6196
vn -0.6344 0.4464 -0.6311
vn -0.6343 0.4464 -0.6311
vn -0.4070 -0.8163 -0.4099
vn -0.4086 -0.8142 -0.4124
vn -0.4039 -0.8201 -0.4053
vn -0.4023 -0.8221 -0.4029
vn 0.9370 0.3492 -0.0085
vn 0.9434 0.3317 0.0059
vn -0.9355 0.3492 0.0536
vn -0.9395 0.3392 0.0467
vn -0.9354 0.3483 0.0610
vn -0.6473 0.4068 -0.6447
vn -0.6523 0.4086 -0.6384
vn -0.6177 0.7864 0.0051
vn 0.9984 0.0411 -0.0396
vn 0.0044 0.3154 -0.9490
vn -0.0005 0.3195 -0.9476
vn 0.0054 0.3244 -0.9459
vn 0.9656 0.2578 -0.0341
vn 0.0455 0.2853 -0.9574
vn -0.9642 -0.2650 -0.0015
vn -0.9656 -0.2600 0.0001
vn -0.9651 -0.2619 -0.0027
vn 0.0213 0.5185 0.8548
vn -0.0229 -0.5736 0.8188
vn 0.9513 0.3064 -0.0352
vn -0.0268 0.1207 0.9923
vn -0.0121 0.8502 -0.5263
vn 0.0180 0.3663 -0.9303
vn 0.0303 0.7704 -0.6368
vn -0.0294 0.3064 -0.9515
vn 0.0449 -0.5157 0.8556
vn 0.9984 0.0568 -0.0012
vn 0.9984 0.0567 -0.0012
vn 0.9959 0.0909 0.0013
vn 0.0230 0.0910 0.9956
vn 0.4613 0.8104 0.3612
vn -0.6302 0.4483 -0.6339
vn -0.6251 0.4498 -0.6379
vn -0.6267 0.4494 -0.6367
vn -0.6316 0.4479 -0.6328
vn -0.0271 0.2727 0.9617
vn -0.0138 0.4156 0.9094
vn -0.0003 0.3932 -0.9194
vn -0.0340 0.3487 -0.9366
vn -0.0094 0.3953 -0.9185
vn -0.0431 0.1651 0.9853
vn -0.0158 0.7323 0.6808
vn 0.9673 0.2535 0.0023
vn 0.9609 0.2765 0.0142
vn 0.9667 0.2560 0.0044
vn -0.5743 0.0349 0.8179
vn -0.5967 0.1439 0.7894
vn -0.9475 0.3197 -0.0021
vn -0.9475 0.3198 -0.0021
vn -0.9149 0.4034 -0.0134
vn -0.6330 0.4449 0.6335
vn -0.6490 0.4120 0.6396
vn -0.7045 0.3781 -0.6006
vn -0.7045 0.3782 -0.6006
vn -0.6292 0.4992 -0.5957
vn -0.9114 0.4114 0.0061
vn -0.9102 0.4142 0.0055
vn -0.9139 0.4059 0.0073
vn -0.9152 0.4030 0.0079
vn 0.0185 0.3496 -0.9367
vn 0.0161 0.4029 -0.9151
vn -0.0077 0.3998 -0.9166
vn 0.6552 0.3078 0.6899
vn 0.6222 0.3720 0.6889
vn 0.6222 0.3719 0.6889
vn -0.6481 0.3454 -0.6787
vn -0.6393 0.4189 -0.6448
vn -0.0084 0.3204 0.9473
vn 0.0043 0.2199 0.9755
vn -0.9962 0.0875 0.0001
vn 0.0253 0.3003 0.9535
vn 0.9579 0.2870 -0.0031
vn 0.9593 0.2817 -0.0181
vn 0.9563 0.2924 -0.0075
vn 0.0082 0.3141 0.9493
vn 0.0079 0.3140 0.9494
vn 0.0292 0.2195 0.9752
vn -0.0342 0.3974 -0.9170
vn -0.0152 0.3721 -0.9281
vn -0.0048 0.4113 -0.9115
vn 0.0110 0.4080 -0.9129
vn -0.6478 0.3514 -0.6759
vn -0.6398 0.4820 -0.5986
vn -0.6398 0.4821 -0.5986
vn 0.6445 0.3986 -0.6525
vn 0.6444 0.3997 -0.6519
vn 0.6445 0.3982 -0.6527
vn 0.6445 0.3976 -0.6531
vn -0.9062 0.4229 0.0029
vn -0.0256 0.3266 0.9448
vn 0.5819 0.6321 0.5117
vn 0.6678 0.5993 -0.4414
vn 0.6503 0.6171 -0.4431
vn 0.5663 0.4044 0.7182
vn 0.5228 0.4735 0.7089
vn 0.5228 0.4734 0.7089
vn -0.5889 0.4560 0.6673
vn -0.5888 0.4560 0.6673
vn -0.6314 0.3829 0.6743
vn -0.9817 0.1906 0.0039
vn -0.9132 0.4075 -0.0006
vn -0.9701 0.2418 -0.0196
vn -0.9892 0.1441 -0.0268
vn -0.0014 0.4166 -0.9091
vn -0.0224 0.1783 -0.9837
vn 0.0437 0.3046 -0.9515
vn 0.0032 0.2943 -0.9557
vn 0.0076 0.3755 -0.9268
vn 0.0177 0.3469 -0.9377
vn 0.0090 0.3025 -0.9531
vn 0.0195 0.1785 -0.9838
vn 0.0196 0.1784 -0.9838
vn 0.0200 0.4213 0.9067
vn 0.0198 0.4234 0.9057
vn 0.0203 0.4180 0.9082
vn 0.0205 0.4157 0.9092
vn 0.9323 0.3618 -0.0019
vn 0.7115 0.2863 -0.6417
vn 0.6655 0.3738 -0.6460
vn 0.8488 0.5277 -0.0330
vn 0.9660 0.2584 -0.0052
vn 0.9656 0.2596 -0.0113
vn 0.9579 0.2870 -0.0089
vn 0.9608 0.2774 -0.0045
vn 0.7642 0.6446 -0.0212
vn 0.7643 0.6445 -0.0212
vn 0.5758 0.8174 -0.0180
vn 0.9547 0.2968 -0.0193
vn 0.9540 0.2998 0.0021
vn 0.9638 0.2665 -0.0074
vn 0.9600 0.2799 -0.0068
vn 0.0171 0.1260 0.9919
vn 0.9896 0.1435 0.0110
vn -0.9437 0.3306 0.0085
vn 0.5117 0.7894 0.3393
vn -0.9519 0.3062 0.0058
vn 0.9319 0.3627 -0.0018
g Pyramid_L_Pyramid_L_Collor_Material
usemtl Collor_Material
s off
f 68/1/1 173/2/1 203/3/1
f 65/4/2 172/5/2 205/6/2
f 204/7/3 172/8/4 65/9/5
f 66/10/6 174/11/6 201/12/6
f 112/13/7 23/14/7 160/15/7
f 32/16/8 148/17/8 87/18/8
f 102/19/9 155/20/9 154/21/10 101/22/10
f 7/23/11 131/24/11 80/25/11
f 177/26/12 178/27/12 76/28/13 75/29/13
f 93/30/14 142/31/15 143/32/16 94/33/17
f 35/34/18 157/35/18 104/36/18
f 160/37/19 159/38/19 111/39/20 112/40/20
f 36/41/21 126/42/21 107/43/21
f 114/44/22 49/45/22 162/46/22
f 118/47/23 52/48/23 132/49/23
f 109/50/24 110/51/25 189/52/26 190/53/27
f 129/54/28 19/55/28 23/56/28
f 29/57/29 59/58/30 190/59/31 77/60/32
f 201/61/33 84/62/33 8/63/34 66/64/34
f 103/65/35 53/66/35 178/67/35
f 4/68/36 61/69/37 195/70/38 98/71/38
f 167/72/39 26/73/40 14/74/41 121/75/42
f 103/76/43 156/77/43 10/78/44 53/79/45
f 194/80/46 4/81/46 91/82/46
f 60/83/47 184/84/48 111/85/49 37/86/50
f 30/87/51 42/88/51 139/89/52 97/90/52
f 81/91/53 134/92/53 43/93/54 31/94/54
f 204/95/55 65/96/56 5/97/57 89/98/57
f 144/99/58 145/100/59 92/101/60 91/102/60
f 35/103/61 154/104/61 47/105/61
f 146/106/62 89/107/62 5/108/63 17/109/64
f 200/110/65 174/111/65 66/112/65
f 206/113/66 171/114/66 67/115/66
f 190/116/67 59/117/68 38/118/69 109/119/70
f 202/120/71 173/121/71 68/122/71
f 172/123/72 171/124/72 206/125/73 205/126/74
f 9/127/75 125/128/76 78/129/76 21/130/77
f 61/131/78 124/132/78 195/133/78
f 11/134/79 58/135/80 189/136/81 110/137/81
f 141/138/82 17/139/83 5/140/84 96/141/85
f 11/142/86 129/143/86 23/144/86
f 196/145/87 30/146/87 97/147/87
f 95/148/88 67/149/88 31/150/88
f 67/151/89 171/152/89 199/153/89
f 54/154/90 71/155/90 1/156/90
f 36/157/91 107/158/91 182/159/92 55/160/92
f 63/161/93 79/162/93 30/163/93
f 9/164/94 155/165/94 102/166/94
f 32/167/95 143/168/95 44/169/95
f 67/170/96 81/171/96 31/172/96
f 60/173/97 94/174/97 32/175/97
f 55/176/98 28/177/98 74/178/99 180/179/99
f 176/180/100 101/181/100 56/182/101 27/183/101
f 173/184/102 202/185/102 201/186/103 174/187/103
f 169/188/104 124/189/104 14/190/105 26/191/106
f 11/192/107 112/193/108 183/194/109 58/195/110
f 78/196/111 127/197/111 77/198/111
f 165/199/112 119/200/112 120/201/113 166/202/113
f 145/203/114 45/204/115 33/205/116 92/206/116
f 153/207/117 83/208/117 34/209/118 46/210/119
f 140/211/120 95/212/120 31/213/121 43/214/121
f 167/215/122 121/216/122 122/217/123 168/218/123
f 40/219/124 118/220/124 198/221/125 63/222/125
f 3/223/126 57/224/127 187/225/128 99/226/129
f 133/227/130 118/228/130 132/229/130
f 119/230/131 192/231/131 191/232/132 120/233/132
f 198/234/133 117/235/133 197/236/133
f 172/237/134 173/238/134 174/239/135 171/240/135
f 129/241/136 109/242/136 128/243/136
f 9/244/137 102/245/138 175/246/139 54/247/140
f 107/248/141 125/249/141 108/250/141
f 156/251/142 104/252/142 157/253/142
f 34/254/143 68/255/143 203/256/144 90/257/145
f 113/258/146 162/259/146 161/260/146
f 103/261/147 177/262/147 104/263/147
f 105/264/148 179/265/148 106/266/148
f 182/267/149 70/268/149 69/269/149
f 135/270/150 82/271/150 8/272/151 20/273/152
f 37/274/153 114/275/154 185/276/155 60/277/155
f 98/278/156 97/279/156 139/280/157 138/281/157
f 86/282/158 150/283/158 151/284/159 85/285/159
f 91/286/160 92/287/160 193/288/161 194/289/161
f 70/290/162 54/291/162 1/292/162
f 196/293/163 195/294/164 124/295/165 123/296/165
f 112/297/166 11/298/166 23/299/166
f 32/300/167 44/301/167 148/302/167
f 58/303/168 6/304/169 78/305/170 189/306/171
f 197/307/172 80/308/172 79/309/172
f 57/310/173 3/311/173 93/312/174 186/313/175
f 133/314/176 13/315/176 117/316/176
f 186/317/177 185/318/177 114/319/178 113/320/178
f 35/321/179 47/322/179 157/323/179
f 10/324/180 22/325/180 106/326/180
f 37/327/181 111/328/181 159/329/182 49/330/182
f 114/331/183 37/332/183 49/333/183
f 118/334/184 40/335/184 52/336/184
f 33/337/185 64/338/186 193/339/187 92/340/188
f 112/341/189 111/342/189 184/343/190 183/344/190
f 163/345/191 116/346/191 12/347/192 24/348/192
f 142/349/193 3/350/193 15/351/193
f 62/352/194 191/353/195 85/354/196 7/355/197
f 104/356/198 56/357/199 35/358/200
f 169/359/201 170/360/202 123/361/203 124/362/203
f 150/363/204 86/364/205 33/365/206 45/366/206
f 130/367/207 42/368/207 30/369/208 79/370/208
f 12/371/209 161/372/209 24/373/209
f 177/374/210 27/375/210 56/376/210
f 149/377/211 88/378/211 87/379/212 148/380/212
f 4/381/213 98/382/214 138/383/215 16/384/216
f 88/385/217 6/386/218 58/387/219 183/388/220
f 179/389/221 180/390/221 74/391/222 73/392/222
f 140/393/223 141/394/223 96/395/224 95/396/224
f 18/397/225 88/398/225 149/399/225
f 123/400/226 40/401/226 63/402/226
f 194/403/227 61/404/227 4/405/227
f 36/406/228 158/407/228 48/408/228
f 62/409/229 13/410/229 120/411/230 191/412/230
f 127/413/231 29/414/231 77/415/231
f 170/416/232 52/417/233 40/418/234 123/419/235
f 152/420/236 20/421/237 8/422/238 84/423/239
f 53/424/240 76/425/240 178/426/240
f 181/427/241 108/428/242 9/429/243 54/430/244
f 62/431/245 197/432/246 117/433/247 13/434/247
f 77/435/248 190/436/248 189/437/249 78/438/249
f 35/439/250 101/440/250 154/441/250
f 136/442/251 137/443/251 99/444/252 100/445/252
f 59/446/253 29/447/253 100/448/254 188/449/254
f 9/450/255 108/451/255 125/452/255
f 128/453/256 38/454/256 50/455/256
f 205/456/257 96/457/257 5/458/258 65/459/259
f 89/460/260 146/461/260 147/462/261 90/463/262
f 165/464/263 39/465/263 119/466/263
f 61/467/264 14/468/264 124/469/264
f 60/470/265 87/471/265 184/472/265
f 197/473/266 62/474/267 7/475/268 80/476/269
f 11/477/270 110/478/270 129/479/270
f 7/480/271 85/481/271 151/482/271
f 168/483/272 39/484/272 51/485/272
f 95/486/273 206/487/273 67/488/273
f 204/489/274 203/490/274 173/491/275 172/492/276
f 97/493/277 98/494/277 195/495/278 196/496/279
f 115/497/280 188/498/281 187/499/282 116/500/282
f 78/501/283 6/502/284 18/503/285
f 54/504/286 175/505/286 71/506/286
f 64/507/287 39/508/288 122/509/289 193/510/290
f 100/511/291 41/512/291 136/513/291
f 187/514/292 188/515/292 100/516/293 99/517/294
f 147/518/295 46/519/296 34/520/297 90/521/298
f 57/522/299 186/523/300 113/524/301 12/525/302
f 63/526/303 198/527/303 79/528/303
f 9/529/304 21/530/305 155/531/306
f 32/532/307 94/533/307 143/534/307
f 186/535/308 93/536/309 94/537/310 185/538/310
f 67/539/311 199/540/311 81/541/311
f 60/542/312 185/543/312 94/544/312
f 2/545/313 179/546/313 73/547/313
f 120/548/314 13/549/314 25/550/315 166/551/315
f 184/552/316 87/553/316 88/554/317 183/555/317
f 56/556/318 101/557/319 35/558/320
f 59/559/321 188/560/322 115/561/323 38/562/324
f 69/563/325 28/564/326 55/565/327 182/566/328
f 174/567/329 200/568/329 199/569/330 171/570/331
f 90/571/332 203/572/333 204/573/334 89/574/335
f 164/575/336 38/576/336 115/577/336
f 115/578/337 163/579/337 164/580/337
f 4/581/338 16/582/339 144/583/340 91/584/340
f 200/585/341 82/586/342 81/587/343 199/588/344
f 107/589/345 108/590/345 181/591/346 182/592/347
f 34/593/348 83/594/349 202/595/350 68/596/351
f 121/597/352 194/598/352 193/599/353 122/600/354
f 133/601/355 117/602/355 118/603/355
f 198/604/356 118/605/356 117/606/356
f 129/607/357 110/608/357 109/609/357
f 8/610/358 82/611/358 200/612/359 66/613/359
f 86/614/360 192/615/360 64/616/361 33/617/361
f 81/618/362 82/619/362 135/620/363 134/621/363
f 85/622/364 191/623/364 192/624/365 86/625/365
f 130/626/366 79/627/366 80/628/367 131/629/367
f 192/630/368 119/631/369 39/632/370 64/633/370
f 55/634/371 180/635/371 105/636/372 36/637/372
f 63/638/373 30/639/373 196/640/374 123/641/375
f 53/642/376 10/643/377 179/644/378 2/645/379
f 179/646/380 10/647/381 106/648/382
f 107/649/383 126/650/383 125/651/383
f 121/652/384 14/653/384 61/654/385 194/655/386
f 95/656/387 96/657/387 205/658/388 206/659/388
f 156/660/389 103/661/389 104/662/389
f 113/663/390 114/664/390 162/665/390
f 158/666/391 105/667/391 106/668/391
f 103/669/392 178/670/392 177/671/392
f 105/672/393 180/673/393 179/674/393
f 182/675/394 181/676/395 70/677/396
f 79/678/397 198/679/397 197/680/397
f 102/681/398 101/682/398 176/683/399 175/684/400
f 153/685/401 152/686/402 84/687/403 83/688/404
f 57/689/405 12/690/405 116/691/406 187/692/406
f 70/693/407 181/694/408 54/695/409
f 71/696/410 175/697/410 176/698/411 72/699/411
f 133/700/412 25/701/412 13/702/412
f 142/703/413 93/704/413 3/705/413
f 104/706/414 177/707/415 56/708/416
f 12/709/417 113/710/417 161/711/417
f 177/712/418 75/713/418 27/714/418
f 18/715/419 6/716/420 88/717/421
f 36/718/422 105/719/422 158/720/422
f 127/721/423 41/722/423 29/723/423
f 53/724/424 2/725/424 76/726/424
f 128/727/425 109/728/425 38/729/425
f 165/730/426 51/731/426 39/732/426
f 60/733/427 32/734/427 87/735/427
f 168/736/428 122/737/428 39/738/428
f 27/739/429 72/740/429 176/741/429
f 100/742/430 29/743/430 41/744/430
f 137/745/431 15/746/432 3/747/433 99/748/433
f 164/749/434 50/750/434 38/751/434
f 115/752/435 116/753/435 163/754/435
f 201/755/436 202/756/437 83/757/438 84/758/439
f 130/759/440 128/760/440 50/761/441 42/762/441
f 143/763/442 157/764/442 47/765/443 44/766/444
f 127/767/445 126/768/446 36/769/446 48/770/445
f 141/771/447 169/772/447 26/773/448 17/774/449
f 125/775/450 126/776/450 127/777/451 78/778/451
f 20/779/452 152/780/453 166/781/454 25/782/454
f 132/783/455 134/784/455 135/785/456 133/786/456
f 149/787/457 148/788/458 154/789/459 155/790/459
f 25/791/460 133/792/461 135/793/462 20/794/463
f 147/795/464 168/796/464 51/797/465 46/798/466
f 170/799/467 169/800/467 141/801/468 140/802/469
f 153/803/470 165/804/470 166/805/471 152/806/471
f 43/807/472 134/808/472 132/809/473 52/810/473
f 151/811/474 19/812/474 7/813/474
f 41/814/475 158/815/475 136/816/475
f 138/817/476 24/818/477 16/819/478
f 52/820/479 170/821/480 140/822/481 43/823/481
f 51/824/482 165/825/483 153/826/484 46/827/485
f 160/828/486 151/829/486 150/830/487 159/831/488
f 145/832/489 144/833/490 161/834/491 162/835/492
f 155/836/493 18/837/493 149/838/493
f 127/839/494 48/840/494 41/841/494
f 163/842/495 139/843/495 164/844/495
f 157/845/496 143/846/496 142/847/497 156/848/497
f 137/849/498 136/850/498 158/851/499 106/852/500
f 131/853/501 129/854/502 128/855/503 130/856/503
f 151/857/504 160/858/505 23/859/505 19/860/504
f 78/861/506 18/862/506 21/863/506
f 129/864/507 7/865/507 19/866/507
f 49/867/508 159/868/508 150/869/509 45/870/509
f 47/871/510 154/872/511 148/873/512 44/874/513
f 145/875/514 162/876/514 49/877/515 45/878/516
f 50/879/517 164/880/518 139/881/519 42/882/520
f 106/883/521 15/884/521 137/885/521
f 146/886/522 167/887/522 168/888/523 147/889/523
f 22/890/524 142/891/524 15/892/524
f 24/893/525 161/894/526 144/895/527 16/896/528
f 156/897/529 142/898/530 22/899/531 10/900/531
f 26/901/532 167/902/533 146/903/534 17/904/535
f 41/905/536 48/906/536 158/907/536
f 138/908/537 163/909/537 24/910/537
f 155/911/538 21/912/538 18/913/538
f 163/914/539 138/915/539 139/916/539
f 129/917/540 131/918/540 7/919/540
f 106/920/541 22/921/541 15/922/541
