# Blender v3.0.0 OBJ File: 'aa.blend'
# www.blender.org
mtllib Pyramid_S.mtl
o Pyramid_S
v -11.722466 0.000001 0.979225
v 11.824163 0.000002 2.941469
v 8.192413 8.768445 2.175742
v 5.479861 16.949850 -0.058011
v 2.753994 25.198647 -0.059192
v -8.377154 8.784628 2.248200
v -5.594356 16.864380 2.229269
v -2.821433 25.358521 -0.056656
v -8.858923 7.666577 0.759407
v 8.654856 7.798148 -0.207132
v -6.040987 15.992270 1.407764
v 5.785310 16.039650 -0.054926
v -3.015769 24.765032 -0.057543
v 2.833744 24.856873 -0.057359
v 8.238886 8.389580 2.116194
v 5.459972 16.743242 -0.056670
v 2.689536 25.096998 -0.056702
v -8.303828 8.389492 -0.056505
v -5.605387 16.743284 1.563352
v -2.804226 25.097012 -0.461278
v -8.337549 8.187119 1.544247
v 8.321924 8.014835 -0.056611
v -5.865837 16.216244 1.072742
v 5.573746 16.394239 -0.057562
v -2.887556 24.856798 -0.056253
v 2.764668 24.856894 -0.056677
v -0.912245 -0.000007 -11.328284
v -1.141752 0.000007 11.668444
v -0.315371 8.576566 8.429115
v -0.190208 17.039551 5.498792
v -0.098302 25.266750 2.821958
v 3.965056 9.319795 -8.133600
v -0.065651 16.976526 -5.727844
v -0.065045 25.198698 -2.907015
v 6.238073 7.836308 -8.626844
v -2.498635 7.642791 8.630838
v -0.357821 15.698901 -5.955701
v -0.118613 16.077953 5.690617
v -0.065932 24.856956 -3.043618
v -0.065986 8.389311 8.284858
v -0.066387 16.743263 5.475726
v -0.068766 25.096874 2.720986
v -0.066235 8.389468 -8.267622
v -0.066722 16.743227 -5.595444
v -0.066462 25.096985 -2.816120
v -0.062093 8.014978 -8.486016
v -2.377181 7.911616 8.409680
v -0.065478 16.394251 -5.704565
v -0.064937 16.394251 5.636784
v -0.066473 24.856932 -2.888384
v -0.068874 24.857285 2.788134
v 10.185580 3.856405 -2.930988
v -10.349988 3.709290 4.527361
v 2.391634 2.939102 10.577426
v 0.924535 4.236107 -9.756581
v 7.137272 12.391944 -0.058814
v -7.322143 12.326488 -0.159262
v -1.245837 12.387463 7.241605
v 3.247270 12.329947 -7.090483
v 4.261877 20.800125 -0.054650
v -3.862904 22.342440 -0.054691
v -1.762646 20.800119 4.255971
v 1.615133 20.119854 -4.484566
v 1.295081 29.273790 -0.051605
v -1.487640 29.273897 -0.056688
v -0.424896 27.331158 2.045295
v -0.008515 28.186724 -1.912186
v -8.498467 0.000007 11.325913
v -11.481754 0.000006 9.752584
v -11.511171 -0.000006 -9.766567
v -10.480872 -0.000007 -11.273577
v 11.393733 0.000006 10.321998
v 8.076660 0.000007 11.435767
v 10.079901 -0.000007 -11.112432
v 11.301199 -0.000006 -9.628772
v -7.485710 8.877111 8.289077
v -8.420415 8.739967 7.504011
v -4.737011 17.264132 5.455285
v -5.513848 17.212227 4.580345
v -1.974871 25.058027 2.126115
v -2.801143 25.365108 1.852269
v -2.028957 25.198545 -2.833137
v -2.857144 25.198599 -2.019178
v -5.618831 17.256565 -4.690235
v -4.725504 17.227112 -5.525805
v -7.540683 8.898041 -8.360519
v -8.341378 8.976445 -7.513897
v 2.696944 25.195400 -2.026272
v 1.898034 25.195396 -2.821817
v 5.477092 17.236498 -4.706208
v 4.647964 17.037207 -5.572075
v 7.760189 8.933753 -8.013377
v 6.934500 9.075032 -8.326828
v 1.902316 25.198399 2.678053
v 2.662455 25.409208 1.833534
v 4.487771 17.433666 5.354299
v 5.475167 17.192373 3.852148
v 8.196318 8.838618 7.495535
v 7.259255 8.840563 8.191160
v -7.799867 8.014094 -8.561754
v -8.916935 7.412254 -8.078665
v 9.002150 6.649743 -8.264966
v 8.023254 6.842875 -9.115277
v 8.100799 7.595552 8.476204
v 8.485946 8.014204 7.699665
v -8.267024 7.828484 8.252357
v -8.690175 7.828279 7.824347
v -5.414598 16.154165 5.497834
v -5.883855 16.190390 4.937661
v -5.319545 15.736516 -5.982306
v -5.994894 15.736543 -5.314396
v 5.532508 16.168768 -5.392761
v 5.030050 16.035398 -5.669175
v 5.529112 16.089743 5.364872
v 5.818058 16.082537 4.994220
v -2.917070 24.857637 1.937011
v -2.548427 24.757025 2.599567
v -2.121047 24.856695 -2.925979
v -3.082368 24.707224 -2.161580
v 2.859841 24.856899 -2.120483
v 2.003362 24.856855 -2.936021
v 2.005038 24.856831 2.851929
v 2.839249 24.856874 2.009883
v -8.492800 8.015426 7.480526
v -7.602632 8.015129 8.297147
v -8.348991 8.389471 7.364562
v -7.468838 8.389628 8.150670
v -4.812566 16.393797 5.500801
v -5.742307 16.394934 4.746621
v -4.718063 16.743231 5.430673
v -5.556060 16.743252 4.601585
v -2.043168 24.894854 2.188664
v -2.825650 25.097004 1.848338
v 7.322708 8.389565 8.125722
v 8.212043 8.389508 7.382842
v 5.471869 16.743483 3.878062
v 4.541533 16.743017 5.400450
v 1.841179 25.097073 2.677471
v 2.685750 25.097004 1.854513
v 8.170621 8.389393 -7.515292
v 7.313331 8.389497 -8.289484
v 5.422627 16.743259 -4.706995
v 4.593445 16.743248 -5.551321
v 2.682971 25.097010 -1.966600
v 1.843050 25.097015 -2.804437
v -7.485883 8.389499 -8.340540
v -8.315497 8.389479 -7.461285
v -4.719037 16.743259 -5.537975
v -5.555487 16.743227 -4.713552
v -2.822958 25.096996 -1.965305
v -1.977218 25.097023 -2.806427
v -7.657389 8.016196 -8.507009
v -8.390002 8.014728 -7.564565
v 8.267740 8.015055 -7.597941
v 7.460492 8.014784 -8.339164
v 7.438699 8.014571 8.230393
v 8.385539 8.016210 7.539223
v -4.837603 16.394217 -5.676808
v -5.682423 16.394201 -4.825239
v 5.532984 16.394279 -4.838869
v 4.691463 16.394066 -5.633902
v 5.519325 16.393988 4.682644
v 4.743613 16.394476 5.544137
v -2.069362 24.857058 -2.900326
v -2.880115 24.856688 -2.030520
v 2.764636 24.856899 -2.043596
v 1.920453 24.856882 -2.887829
v 2.764787 24.856894 1.930379
v 1.920323 24.856947 2.774558
v -0.069512 31.017843 0.294006
v 0.735293 31.014460 0.026438
v -0.068182 30.586256 -1.150757
v -0.854806 31.014404 0.014282
v -10.050140 3.912865 -8.952507
v -9.162697 4.227898 -9.698394
v 8.990199 4.025180 -9.913159
v 9.993407 4.006025 -8.547555
v 9.831981 4.025336 9.122672
v 8.461936 4.005895 9.950446
v -10.083299 4.025498 9.062481
v -9.115890 3.425343 9.844074
v -7.224752 12.391870 -6.350525
v -6.365743 12.391819 -7.173216
v 5.423265 12.374916 -7.121563
v 6.994772 12.391732 -6.339530
v 7.090227 12.391909 6.258517
v 6.214053 12.391685 6.990741
v -7.185040 12.391716 6.171934
v -5.649502 12.389492 7.158173
v -4.659738 20.757116 -2.934721
v -3.888795 20.757322 -3.841190
v 3.961001 19.845644 -4.381474
v 4.762928 19.845476 -3.465382
v 4.790421 18.997086 3.911195
v 4.004207 18.997231 4.817462
v -3.897761 21.630478 2.973655
v -2.988147 22.330622 3.662570
v -0.925894 29.273861 1.118168
v -1.513272 29.274027 0.580648
v -1.489111 29.273907 -0.653792
v -0.649341 29.273907 -1.498096
v 0.712970 29.145248 -1.483398
v 1.205543 29.145283 -1.006731
v 1.363768 29.273966 0.566564
v 1.093845 29.273966 0.840888
vt 0.541687 0.754643
vt 0.541757 0.743989
vt 0.550033 0.740584
vt 0.550033 0.761533
vt 0.945650 0.561149
vt 0.945650 0.594267
vt 0.934396 0.561249
vt 0.882857 0.094188
vt 0.882857 0.133761
vt 0.868344 0.103993
vt 0.084032 0.947104
vt 0.094194 0.915143
vt 0.094194 0.950778
vt 0.415334 0.614537
vt 0.415334 0.656683
vt 0.410503 0.615167
vt 0.945668 0.605484
vt 0.945668 0.721414
vt 0.933205 0.615314
vt 0.955004 0.192230
vt 0.955004 0.327811
vt 0.945883 0.193848
vt 0.066350 0.504500
vt 0.002298 0.474984
vt 0.066350 0.294165
vt 0.079437 0.915143
vt 0.079437 0.958133
vt 0.070946 0.957329
vt 0.883234 0.369314
vt 0.883488 0.252377
vt 0.904938 0.252349
vt 0.904938 0.369896
vt 0.872620 0.289192
vt 0.856222 0.273130
vt 0.872620 0.251180
vt 0.487771 0.589401
vt 0.485624 0.467158
vt 0.487771 0.463893
vt 0.486183 0.594914
vt 0.488092 0.593996
vt 0.488092 0.629560
vt 0.485624 0.629486
vt 0.996342 0.552010
vt 0.992579 0.459284
vt 0.996342 0.447348
vt 0.862998 0.902135
vt 0.862998 0.994575
vt 0.856916 0.908698
vt 0.066168 0.841218
vt 0.065219 0.805175
vt 0.066168 0.803722
vt 0.888796 0.131596
vt 0.887453 0.095630
vt 0.888796 0.094188
vt 0.536280 0.002298
vt 0.536280 0.289192
vt 0.492775 0.179578
vt 0.904113 0.812194
vt 0.872611 0.747858
vt 0.904113 0.728318
vt 0.928609 0.687949
vt 0.907185 0.690117
vt 0.907155 0.611887
vt 0.928609 0.605484
vt 0.485845 0.839094
vt 0.537092 0.740584
vt 0.537092 0.842316
vt 0.131369 0.838584
vt 0.070946 0.806713
vt 0.075863 0.764216
vt 0.131369 0.753233
vt 0.897537 0.542262
vt 0.864726 0.538425
vt 0.876407 0.462312
vt 0.897537 0.457204
vt 0.550245 0.293787
vt 0.550245 0.504122
vt 0.492775 0.390042
vt 0.756411 0.982972
vt 0.747654 0.983164
vt 0.751557 0.898729
vt 0.756411 0.898777
vt 0.058179 0.139132
vt 0.143590 0.135720
vt 0.143590 0.263458
vt 0.002298 0.289570
vt 0.762442 0.873066
vt 0.683886 0.849724
vt 0.762442 0.819213
vt 0.893449 0.562890
vt 0.907282 0.556243
vt 0.907282 0.595447
vt 0.900505 0.597052
vt 0.901098 0.855451
vt 0.903907 0.819213
vt 0.903907 0.855457
vt 0.735240 0.904354
vt 0.743059 0.898729
vt 0.743059 0.990102
vt 0.735587 0.990137
vt 0.606872 0.002298
vt 0.606872 0.178987
vt 0.540875 0.134101
vt 0.541440 0.022046
vt 0.163718 0.294165
vt 0.163718 0.416669
vt 0.142717 0.383346
vt 0.411751 0.686006
vt 0.548964 0.680181
vt 0.548964 0.735988
vt 0.789215 0.989475
vt 0.789683 0.905143
vt 0.794537 0.905167
vt 0.794537 0.990517
vt 0.952961 0.600889
vt 0.950263 0.460930
vt 0.952961 0.346844
vt 0.819469 0.416134
vt 0.819469 0.451332
vt 0.808474 0.419648
vt 0.605861 0.880471
vt 0.630115 0.849670
vt 0.630115 0.923807
vt 0.935249 0.002298
vt 0.935249 0.124266
vt 0.923020 0.017460
vt 0.968304 0.136089
vt 0.975509 0.002298
vt 0.975509 0.138770
vt 0.763298 0.728318
vt 0.763298 0.814618
vt 0.683886 0.728778
vt 0.060624 0.864936
vt 0.002298 0.855858
vt 0.060624 0.803722
vt 0.827918 0.865973
vt 0.828374 0.830022
vt 0.829623 0.830050
vt 0.829623 0.867386
vt 0.762653 0.285076
vt 0.729843 0.285919
vt 0.740971 0.252792
vt 0.762653 0.253907
vt 0.064797 0.509095
vt 0.064797 0.634747
vt 0.062798 0.521182
vt 0.101035 0.843179
vt 0.101035 0.910547
vt 0.070946 0.862138
vt 0.851627 0.289192
vt 0.768247 0.274500
vt 0.851627 0.258023
vt 0.435242 0.876655
vt 0.435242 0.934914
vt 0.410383 0.903133
vt 0.312679 0.890718
vt 0.312679 0.964856
vt 0.300268 0.928738
vt 0.405907 0.744429
vt 0.334520 0.724308
vt 0.337681 0.644669
vt 0.405907 0.614537
vt 0.548964 0.675586
vt 0.492775 0.573135
vt 0.548964 0.508717
vt 0.937630 0.151669
vt 0.937630 0.186867
vt 0.923242 0.186104
vt 0.923020 0.147913
vt 0.516415 0.846911
vt 0.516415 0.913179
vt 0.485845 0.895018
vt 0.230708 0.741246
vt 0.230709 0.827631
vt 0.163795 0.779573
vt 0.755263 0.605484
vt 0.755263 0.723723
vt 0.683886 0.708608
vt 0.475776 0.917004
vt 0.439837 0.882518
vt 0.475776 0.876655
vt 0.791685 0.452608
vt 0.757177 0.450301
vt 0.757204 0.448123
vt 0.791685 0.446930
vt 0.792348 0.728451
vt 0.829685 0.728318
vt 0.829685 0.806145
vt 0.767893 0.825427
vt 0.175944 0.942513
vt 0.163795 0.869370
vt 0.184443 0.868587
vt 0.184443 0.942841
vt 0.574346 0.933744
vt 0.574346 0.970159
vt 0.570759 0.934196
vt 0.592028 0.933744
vt 0.592028 0.962519
vt 0.587074 0.948270
vt 0.619495 0.949372
vt 0.619408 0.928403
vt 0.627658 0.929895
vt 0.627658 0.951013
vt 0.274490 0.896627
vt 0.295673 0.890718
vt 0.295673 0.947300
vt 0.273872 0.950476
vt 0.215601 0.868755
vt 0.236264 0.868587
vt 0.236264 0.939008
vt 0.215157 0.939719
vt 0.705007 0.938302
vt 0.692793 0.940465
vt 0.681740 0.912289
vt 0.705007 0.898729
vt 0.406317 0.749024
vt 0.406317 0.822101
vt 0.334520 0.788168
vt 0.335549 0.753238
vt 0.852456 0.820886
vt 0.869891 0.819213
vt 0.869891 0.897540
vt 0.834280 0.897354
vt 0.757766 0.128864
vt 0.828659 0.128576
vt 0.828659 0.136713
vt 0.757574 0.132615
vt 0.878139 0.546857
vt 0.878139 0.560545
vt 0.864726 0.555915
vt 0.824810 0.700057
vt 0.827897 0.605484
vt 0.863191 0.618145
vt 0.863191 0.718954
vt 0.182901 0.008462
vt 0.182901 0.099482
vt 0.002298 0.131125
vt 0.052502 0.002298
vt 0.889454 0.229870
vt 0.889454 0.243711
vt 0.877642 0.241349
vt 0.782227 0.034134
vt 0.828659 0.002298
vt 0.828659 0.114176
vt 0.786759 0.123981
vt 0.189039 0.964731
vt 0.194711 0.943260
vt 0.194711 0.964923
vt 0.918553 0.695056
vt 0.927309 0.694819
vt 0.927309 0.716071
vt 0.918007 0.717191
vt 0.752979 0.121773
vt 0.752979 0.136713
vt 0.747366 0.131106
vt 0.240859 0.929540
vt 0.243503 0.908739
vt 0.243503 0.930341
vt 0.455542 0.921599
vt 0.455542 0.943306
vt 0.439943 0.941088
vt 0.439837 0.923900
vt 0.580607 0.934784
vt 0.582479 0.933744
vt 0.582479 0.970062
vt 0.578941 0.969315
vt 0.142717 0.438064
vt 0.163499 0.421265
vt 0.163499 0.451530
vt 0.143008 0.462097
vt 0.219997 0.944790
vt 0.219997 0.967179
vt 0.215157 0.965473
vt 0.219067 0.944315
vt 0.478714 0.922183
vt 0.480728 0.921599
vt 0.480728 0.943068
vt 0.478722 0.942585
vt 0.046815 0.940757
vt 0.061613 0.869531
vt 0.061613 0.949946
vt 0.658257 0.769724
vt 0.658257 0.845074
vt 0.605861 0.813776
vt 0.837990 0.573426
vt 0.888853 0.566387
vt 0.888853 0.597052
vt 0.833047 0.596628
vt 0.540875 0.268045
vt 0.571608 0.198781
vt 0.649961 0.183582
vt 0.649961 0.282413
vt 0.002298 0.717299
vt 0.059474 0.674172
vt 0.059474 0.796676
vt 0.045298 0.799127
vt 0.901846 0.005245
vt 0.901846 0.080096
vt 0.891041 0.080088
vt 0.866331 0.002298
vt 0.846148 0.374491
vt 0.882262 0.376622
vt 0.882262 0.423064
vt 0.827358 0.435516
vt 0.625816 0.452608
vt 0.554840 0.358651
vt 0.625816 0.293787
vt 0.863749 0.132086
vt 0.833255 0.133761
vt 0.836424 0.110251
vt 0.863749 0.112254
vt 0.995014 0.728318
vt 0.995014 0.850052
vt 0.989711 0.844126
vt 0.849773 0.253094
vt 0.806701 0.190457
vt 0.849773 0.143065
vt 0.135964 0.765286
vt 0.138156 0.753233
vt 0.138156 0.808220
vt 0.500894 0.920334
vt 0.505341 0.917774
vt 0.505341 0.955882
vt 0.502492 0.956024
vt 0.123987 0.933570
vt 0.128134 0.925895
vt 0.128134 0.961532
vt 0.630411 0.451944
vt 0.632249 0.446416
vt 0.715401 0.440045
vt 0.715401 0.452608
vt 0.070946 0.336432
vt 0.138122 0.294165
vt 0.138122 0.478736
vt 0.073280 0.450092
vt 0.982221 0.460781
vt 0.987984 0.346844
vt 0.987984 0.482999
vt 0.972588 0.721081
vt 0.965528 0.718040
vt 0.972588 0.580764
vt 0.654557 0.282413
vt 0.660480 0.160823
vt 0.725247 0.143065
vt 0.725247 0.255122
vt 0.662853 0.968772
vt 0.667589 0.907859
vt 0.667589 0.971899
vt 0.488180 0.002298
vt 0.488180 0.197822
vt 0.412898 0.181629
vt 0.901098 0.860062
vt 0.903907 0.860053
vt 0.903907 0.896008
vt 0.829167 0.907973
vt 0.827918 0.907917
vt 0.829167 0.871981
vt 0.878567 0.251180
vt 0.878567 0.288729
vt 0.877215 0.287153
vt 0.874486 0.934487
vt 0.884525 0.925434
vt 0.884525 0.946412
vt 0.169595 0.458948
vt 0.175002 0.313015
vt 0.251131 0.293787
vt 0.251131 0.492738
vt 0.328608 0.496928
vt 0.328608 0.634148
vt 0.260023 0.618174
vt 0.255726 0.483173
vt 0.204984 0.964599
vt 0.199306 0.964629
vt 0.202992 0.944044
vt 0.204984 0.943260
vt 0.339133 0.461798
vt 0.413051 0.482025
vt 0.413051 0.609942
vt 0.334520 0.544077
vt 0.729843 0.143065
vt 0.802106 0.147259
vt 0.802106 0.248197
vt 0.737073 0.227281
vt 0.936911 0.728318
vt 0.936911 0.863687
vt 0.926387 0.861902
vt 0.413120 0.214446
vt 0.412898 0.202905
vt 0.487747 0.202418
vt 0.487747 0.236964
vt 0.896503 0.820030
vt 0.896503 0.920839
vt 0.875163 0.919222
vt 0.874486 0.819213
vt 0.345373 0.900487
vt 0.334520 0.826697
vt 0.367435 0.829384
vt 0.367435 0.903192
vt 0.251131 0.289192
vt 0.187496 0.248251
vt 0.251131 0.002298
vt 0.402137 0.898332
vt 0.372030 0.864839
vt 0.402137 0.826697
vt 0.950530 0.958073
vt 0.950780 0.868282
vt 0.963919 0.876979
vt 0.963919 0.963336
vt 0.752455 0.580295
vt 0.828452 0.566387
vt 0.828452 0.600889
vt 0.750701 0.591413
vt 0.327139 0.823505
vt 0.248525 0.803622
vt 0.250892 0.774751
vt 0.327139 0.760186
vt 0.420919 0.670265
vt 0.421037 0.653077
vt 0.488005 0.651843
vt 0.488005 0.673367
vt 0.977625 0.481137
vt 0.970395 0.388557
vt 0.977625 0.346844
vt 0.921791 0.893182
vt 0.908709 0.742751
vt 0.921791 0.728318
vt 0.861736 0.105656
vt 0.833255 0.081190
vt 0.861736 0.002298
vt 0.600681 0.848352
vt 0.545572 0.814395
vt 0.600681 0.766402
vt 0.158104 0.825242
vt 0.158104 0.927514
vt 0.137351 0.915017
vt 0.136911 0.825058
vt 0.248175 0.631117
vt 0.169595 0.517354
vt 0.248175 0.497333
vt 0.702340 0.118520
vt 0.671980 0.121838
vt 0.611467 0.002298
vt 0.702340 0.007478
vt 0.480944 0.876655
vt 0.480944 0.910283
vt 0.480371 0.909462
vt 0.058203 0.509095
vt 0.058203 0.669577
vt 0.002298 0.630073
vt 0.248175 0.736651
vt 0.168471 0.715489
vt 0.163795 0.678534
vt 0.248175 0.635713
vt 0.873047 0.229870
vt 0.873047 0.244731
vt 0.855706 0.243079
vt 0.854368 0.239926
vt 0.957556 0.479407
vt 0.965800 0.346844
vt 0.965800 0.480580
vt 0.521010 0.923106
vt 0.533790 0.846911
vt 0.540661 0.848051
vt 0.540661 0.930261
vt 0.178223 0.273057
vt 0.148185 0.159015
vt 0.178223 0.135720
vt 0.746105 0.600889
vt 0.683886 0.516728
vt 0.746105 0.457204
vt 0.065592 0.763039
vt 0.064069 0.761386
vt 0.065592 0.674172
vt 0.988761 0.192230
vt 0.988761 0.320149
vt 0.983636 0.314093
vt 0.250716 0.848382
vt 0.248525 0.835325
vt 0.324197 0.828100
vt 0.324197 0.861125
vt 0.334649 0.250911
vt 0.416324 0.274662
vt 0.416324 0.457203
vt 0.334520 0.424067
vt 0.070946 0.652368
vt 0.139324 0.612075
vt 0.139324 0.726396
vt 0.071933 0.748638
vt 0.481250 0.872060
vt 0.410383 0.870367
vt 0.413516 0.854488
vt 0.481250 0.840294
vt 0.248525 0.942071
vt 0.255838 0.894032
vt 0.269276 0.890718
vt 0.269276 0.954571
vt 0.868016 0.814618
vt 0.834280 0.744483
vt 0.868016 0.728318
vt 0.649551 0.126433
vt 0.649551 0.172875
vt 0.611467 0.171532
vt 0.679291 0.457204
vt 0.679291 0.646849
vt 0.623550 0.496870
vt 0.679291 0.651444
vt 0.679291 0.765128
vt 0.605861 0.748598
vt 0.608896 0.651916
vt 0.481029 0.463893
vt 0.481029 0.647248
vt 0.420919 0.517311
vt 0.964627 0.728318
vt 0.964627 0.853734
vt 0.955259 0.853626
vt 0.941288 0.192230
vt 0.941288 0.372327
vt 0.935118 0.194767
vt 0.019805 0.869531
vt 0.019805 0.951051
vt 0.002298 0.934584
vt 0.889135 0.143065
vt 0.889135 0.225275
vt 0.854368 0.189813
vt 0.991509 0.090301
vt 0.997559 0.002298
vt 0.997559 0.104667
vt 0.878639 0.310801
vt 0.878639 0.369896
vt 0.840089 0.361811
vt 0.827358 0.293787
vt 0.170048 0.277652
vt 0.170048 0.288326
vt 0.148924 0.287645
vt 0.148185 0.278412
vt 0.327139 0.755591
vt 0.255726 0.725161
vt 0.327139 0.638744
vt 0.024400 0.884160
vt 0.042219 0.869531
vt 0.042219 0.947986
vt 0.867657 0.902458
vt 0.869750 0.902135
vt 0.869750 0.923720
vt 0.867594 0.923471
vt 0.237471 0.832226
vt 0.237471 0.863992
vt 0.166102 0.858029
vt 0.163795 0.847627
vt 0.829842 0.478575
vt 0.860130 0.457204
vt 0.860130 0.559476
vt 0.317275 0.986016
vt 0.318487 0.890718
vt 0.325379 0.891887
vt 0.325379 0.988162
vt 0.662853 0.776577
vt 0.675277 0.769724
vt 0.675277 0.903264
vt 0.777321 0.416134
vt 0.803879 0.419094
vt 0.803879 0.440643
vt 0.768247 0.441130
vt 0.820215 0.605484
vt 0.820215 0.717362
vt 0.759858 0.707158
vt 0.949960 0.129593
vt 0.939844 0.055372
vt 0.949960 0.002298
vt 0.926387 0.903174
vt 0.945935 0.868282
vt 0.945935 0.948986
vt 0.954555 0.131564
vt 0.963709 0.002298
vt 0.963709 0.132190
vt 0.600681 0.635765
vt 0.600681 0.761807
vt 0.554840 0.712972
vt 0.631523 0.315155
vt 0.703684 0.293787
vt 0.703684 0.428857
vt 0.630411 0.417519
vt 0.066265 0.789036
vt 0.064599 0.789521
vt 0.064069 0.767923
vt 0.066265 0.767635
vt 0.719996 0.443965
vt 0.752582 0.440045
vt 0.752582 0.452608
vt 0.720300 0.452096
vt 0.064663 0.667610
vt 0.062798 0.666497
vt 0.064663 0.639342
vt 0.891894 0.688857
vt 0.891894 0.715787
vt 0.867786 0.704566
vt 0.974965 0.491988
vt 0.974965 0.576169
vt 0.969585 0.573932
vt 0.965528 0.491649
vt 0.592661 0.856190
vt 0.592661 0.929149
vt 0.571469 0.925328
vt 0.570759 0.852947
vt 0.210562 0.868587
vt 0.210562 0.938664
vt 0.189486 0.937083
vt 0.189039 0.868737
vt 0.763652 0.293787
vt 0.763652 0.435093
vt 0.708279 0.379130
vt 0.929800 0.600012
vt 0.920358 0.600126
vt 0.921275 0.578952
vt 0.929800 0.578680
vt 0.545572 0.859918
vt 0.566163 0.852947
vt 0.566163 0.921362
vt 0.546128 0.935583
vt 0.889120 0.936988
vt 0.899118 0.925434
vt 0.899118 0.946337
vt 0.823323 0.916128
vt 0.812516 0.917478
vt 0.801220 0.841680
vt 0.823323 0.830022
vt 0.562890 0.962386
vt 0.557201 0.950431
vt 0.562890 0.940178
vt 0.681740 0.877661
vt 0.762442 0.878082
vt 0.762442 0.892490
vt 0.684510 0.894133
vt 0.714826 0.898750
vt 0.718582 0.898729
vt 0.718582 0.982883
vt 0.709602 0.982861
vt 0.241510 0.903167
vt 0.240859 0.868618
vt 0.243327 0.868587
vt 0.243327 0.904144
vt 0.752273 0.475605
vt 0.825246 0.457204
vt 0.825246 0.553113
vt 0.750701 0.555292
vt 0.761380 0.899798
vt 0.763185 0.898729
vt 0.763185 0.934339
vt 0.761007 0.934357
vt 0.326957 0.886122
vt 0.248525 0.884229
vt 0.248597 0.871826
vt 0.326957 0.865720
vt 0.777632 0.116619
vt 0.707236 0.116378
vt 0.706935 0.025005
vt 0.777632 0.002298
vt 0.136911 0.941516
vt 0.145165 0.932109
vt 0.145165 0.953969
vt 0.913412 0.715787
vt 0.896490 0.697974
vt 0.913412 0.694819
vt 0.614812 0.929115
vt 0.614812 0.950530
vt 0.609406 0.950107
vt 0.605861 0.928403
vt 0.695866 0.961763
vt 0.691143 0.960567
vt 0.695866 0.945060
vt 0.986997 0.489241
vt 0.986997 0.576169
vt 0.979560 0.489963
vt 0.105630 0.849896
vt 0.129699 0.843179
vt 0.129699 0.921299
vt 0.871897 0.605849
vt 0.902560 0.605484
vt 0.902560 0.684212
vt 0.867786 0.684261
vt 0.812649 0.922791
vt 0.819560 0.922073
vt 0.819560 0.943428
vt 0.810506 0.944915
vt 0.486765 0.250911
vt 0.486765 0.459298
vt 0.420919 0.435316
vt 0.428631 0.261521
vt 0.906441 0.011776
vt 0.918424 0.002298
vt 0.918424 0.186867
vt 0.911488 0.185996
vt 0.822762 0.411539
vt 0.768247 0.355586
vt 0.822762 0.293787
vt 0.098789 0.936656
vt 0.098893 0.915207
vt 0.100863 0.915143
vt 0.100863 0.936750
vt 0.796625 0.900548
vt 0.767893 0.896855
vt 0.796625 0.830022
vt 0.915748 0.556243
vt 0.915748 0.598388
vt 0.911877 0.564060
vt 0.351222 0.907787
vt 0.351222 0.974385
vt 0.345728 0.968637
vt 0.335338 0.064916
vt 0.408302 0.002298
vt 0.408302 0.246316
vt 0.888759 0.560376
vt 0.882734 0.554372
vt 0.888759 0.546857
vt 0.922468 0.233791
vt 0.930522 0.192230
vt 0.930522 0.368919
vt 0.834280 0.904615
vt 0.840770 0.902135
vt 0.840770 0.997250
vt 0.902132 0.391935
vt 0.916370 0.382260
vt 0.916370 0.542262
vt 0.162982 0.530367
vt 0.162982 0.607480
vt 0.078595 0.600629
vt 0.070946 0.483332
vt 0.481250 0.740584
vt 0.481250 0.835699
vt 0.411751 0.810850
vt 0.993040 0.580764
vt 0.993040 0.717988
vt 0.988720 0.713517
vt 0.992579 0.357670
vt 0.997085 0.346844
vt 0.997085 0.442753
vt 0.330743 0.002298
vt 0.330743 0.246316
vt 0.255726 0.176475
vt 0.929800 0.382260
vt 0.929800 0.574085
vt 0.920965 0.562136
vt 0.784620 0.993355
vt 0.778894 0.906513
vt 0.784620 0.905143
vt 0.143919 0.746912
vt 0.158104 0.612075
vt 0.158104 0.820462
vt 0.994039 0.854647
vt 0.994039 0.988626
vt 0.989711 0.984161
vt 0.554840 0.522653
vt 0.618954 0.457204
vt 0.618954 0.631170
vt 0.255726 0.358319
vt 0.329925 0.250911
vt 0.329925 0.478578
vt 0.942225 0.150478
vt 0.950612 0.141831
vt 0.950612 0.186867
vt 0.997702 0.192230
vt 0.997702 0.288959
vt 0.993356 0.279048
vt 0.656259 0.931290
vt 0.634710 0.931274
vt 0.635246 0.849755
vt 0.656259 0.849670
vt 0.969069 0.975516
vt 0.976240 0.870372
vt 0.976240 0.977876
vt 0.157780 0.953985
vt 0.149760 0.954127
vt 0.150631 0.932543
vt 0.157780 0.932109
vt 0.647898 0.936208
vt 0.654562 0.935885
vt 0.654562 0.957217
vt 0.646974 0.957852
vt 0.552606 0.940178
vt 0.552606 0.961593
vt 0.545572 0.961289
vt 0.545877 0.940342
vt 0.723177 0.900474
vt 0.730645 0.898729
vt 0.730645 0.991532
vt 0.724167 0.993131
vt 0.805910 0.922073
vt 0.805910 0.958070
vt 0.801220 0.956649
vt 0.801408 0.922079
vt 0.390196 0.902927
vt 0.390196 0.989453
vt 0.383566 0.987084
vt 0.383553 0.902929
vt 0.511120 0.918574
vt 0.514419 0.917774
vt 0.514419 0.955118
vt 0.509937 0.954695
vt 0.464864 0.957776
vt 0.460138 0.956457
vt 0.462014 0.921751
vt 0.464864 0.921599
vt 0.239035 0.965922
vt 0.234259 0.965882
vt 0.234140 0.944544
vt 0.239035 0.944315
vt 0.600944 0.852947
vt 0.600944 0.987243
vt 0.597256 0.958274
vt 0.960597 0.194875
vt 0.967444 0.192230
vt 0.967444 0.328383
vt 0.959599 0.328411
vt 0.341133 0.907787
vt 0.341133 0.979309
vt 0.334520 0.978682
vt 0.852321 0.902135
vt 0.852321 0.989166
vt 0.845471 0.985560
vt 0.845365 0.902165
vt 0.824155 0.923474
vt 0.828755 0.922073
vt 0.828755 0.958028
vt 0.824218 0.958028
vt 0.394791 0.904157
vt 0.401349 0.902927
vt 0.401349 0.988130
vt 0.395488 0.988675
vt 0.959797 0.141831
vt 0.959797 0.177786
vt 0.955208 0.176393
vt 0.955244 0.141831
vt 0.105630 0.927268
vt 0.110204 0.925895
vt 0.110204 0.961852
vt 0.105651 0.961853
vt 0.540642 0.934856
vt 0.540642 0.957697
vt 0.533549 0.954598
vt 0.672184 0.942313
vt 0.676763 0.907859
vt 0.676763 0.949656
vt 0.410383 0.939782
vt 0.417506 0.939510
vt 0.417506 0.961216
vt 0.410491 0.961034
vt 0.528954 0.935488
vt 0.528954 0.956458
vt 0.521613 0.956061
vt 0.521010 0.934856
vt 0.968619 0.149026
vt 0.968619 0.177786
vt 0.964392 0.150898
vt 0.429316 0.959342
vt 0.422102 0.960694
vt 0.422165 0.939791
vt 0.429316 0.939510
vt 0.986914 0.002298
vt 0.986914 0.138341
vt 0.980104 0.004518
vt 0.362612 0.907787
vt 0.362612 0.965788
vt 0.355817 0.962353
vt 0.915929 0.897777
vt 0.915929 0.996181
vt 0.908709 0.901148
vt 0.934396 0.517247
vt 0.941406 0.382260
vt 0.941406 0.556554
vt 0.655903 0.133002
vt 0.654146 0.126504
vt 0.740237 0.126433
vt 0.740237 0.133050
vt 0.950263 0.614324
vt 0.960932 0.605484
vt 0.960932 0.719074
vt 0.954208 0.721081
vt 0.474118 0.921609
vt 0.474118 0.957854
vt 0.469459 0.956176
vt 0.469582 0.921599
vt 0.242106 0.741246
vt 0.242106 0.827603
vt 0.235304 0.825472
vt 0.235489 0.741278
vt 0.634846 0.936382
vt 0.642379 0.935885
vt 0.642379 0.957745
vt 0.634710 0.957737
vt 0.378958 0.902927
vt 0.378958 0.987448
vt 0.372030 0.986822
vt 0.950663 0.862301
vt 0.941506 0.770093
vt 0.950663 0.728318
vt 0.229544 0.965899
vt 0.224592 0.965928
vt 0.224922 0.944413
vt 0.229544 0.944315
vt 0.681740 0.966588
vt 0.681752 0.945120
vt 0.686548 0.945060
vt 0.686548 0.966664
vt 0.901575 0.087831
vt 0.901575 0.225275
vt 0.894182 0.222165
vt 0.893730 0.087893
vt 0.898875 0.246081
vt 0.894049 0.246967
vt 0.895552 0.230565
vt 0.898875 0.229870
vt 0.984125 0.580764
vt 0.984125 0.716736
vt 0.977183 0.714315
vt 0.767893 0.919692
vt 0.774299 0.905143
vt 0.774299 0.990927
vt 0.485845 0.929751
vt 0.496298 0.917774
vt 0.496298 0.950060
vt 0.119392 0.925895
vt 0.119392 0.961621
vt 0.114799 0.954286
vt 0.985116 0.728318
vt 0.985116 0.893176
vt 0.980835 0.864286
vt 0.886857 0.383975
vt 0.896959 0.374491
vt 0.896959 0.441089
vt 0.976240 0.728318
vt 0.976240 0.865777
vt 0.969223 0.826471
vt 0.979040 0.192230
vt 0.979040 0.328700
vt 0.972039 0.327217
vt 0.909533 0.234176
vt 0.917873 0.192230
vt 0.917873 0.369896
vn 0.3517 0.4146 -0.8393
vn 0.3517 0.4145 -0.8393
vn 0.3356 0.8724 -0.3554
vn 0.9453 0.3087 -0.1051
vn 0.9422 0.3088 -0.1299
vn -0.9398 0.3416 0.0023
vn -0.9958 0.0912 -0.0092
vn -0.8988 0.4380 -0.0147
vn 0.0098 -0.0382 -0.9992
vn 0.0152 0.3812 0.9244
vn -0.9957 0.0906 0.0207
vn 0.6442 0.4216 0.6382
vn 0.6817 0.4309 0.5913
vn 0.1043 0.5835 -0.8054
vn 0.0614 0.9978 -0.0260
vn -0.0362 -0.2715 -0.9618
vn 0.2459 -0.4367 -0.8653
vn 0.1265 -0.6227 -0.7722
vn -0.0657 -0.0057 0.9978
vn 0.0148 0.1117 -0.9936
vn -0.0062 1.0000 0.0000
vn 0.0001 1.0000 -0.0003
vn 0.0003 1.0000 0.0000
vn -0.0057 0.3071 -0.9517
vn -0.0223 0.3428 0.9392
vn -0.0206 0.3428 0.9392
vn -0.0192 0.3528 0.9355
vn -0.6996 0.3958 -0.5949
vn -0.6053 0.4129 -0.6805
vn -0.6053 0.4130 -0.6805
vn 0.9353 0.3531 -0.0226
vn 0.0799 0.3294 -0.9408
vn 0.0798 0.3294 -0.9408
vn 0.0253 0.3954 -0.9182
vn -0.7596 0.3916 -0.5193
vn -0.7596 0.3917 -0.5193
vn -0.6650 0.4338 -0.6079
vn -0.6650 0.4338 -0.6080
vn 0.0236 0.4032 0.9148
vn -0.0420 0.0246 -0.9988
vn -0.0107 -0.4935 -0.8697
vn -0.0108 -0.4935 -0.8697
vn -0.0420 0.3917 0.9191
vn -0.0454 0.3413 0.9388
vn -0.0441 0.3502 0.9357
vn -0.0190 0.3767 0.9261
vn 0.9662 0.2572 0.0153
vn 0.2829 0.4537 0.8451
vn 0.4518 0.5579 0.6961
vn 0.5052 0.3512 0.7883
vn 0.0039 1.0000 -0.0048
vn -0.0595 0.9886 0.1387
vn 0.0001 1.0000 0.0001
vn 0.7269 0.6867 -0.0105
vn 0.8587 0.5124 0.0099
vn -0.9580 0.2868 0.0021
vn -0.9493 0.3143 -0.0116
vn -0.9492 0.3143 -0.0116
vn -0.0198 0.3000 -0.9537
vn -0.0117 0.2687 -0.9631
vn 0.0082 -0.4936 -0.8696
vn 0.0082 -0.4936 -0.8697
vn 0.0339 -0.0767 -0.9965
vn 0.0339 -0.0766 -0.9965
vn 0.0064 0.7485 -0.6631
vn -0.9386 0.3428 -0.0378
vn 0.1890 0.4064 0.8939
vn -0.7080 0.7062 0.0019
vn 0.5442 0.8389 -0.0039
vn 0.9466 0.3217 0.0201
vn -0.9310 0.3602 0.0593
vn -0.0001 1.0000 -0.0002
vn 0.0001 1.0000 0.0000
vn 0.8195 0.2949 0.4913
vn 0.6866 0.4168 0.5956
vn 0.6866 0.4169 0.5956
vn -0.9910 0.1336 -0.0079
vn -0.0357 0.3163 -0.9480
vn 0.0047 0.3216 0.9469
vn 0.0060 0.3267 0.9451
vn 0.0018 0.3252 0.9456
vn 0.0792 0.3620 0.9288
vn -0.0056 0.4295 0.9030
vn -0.0180 0.2934 0.9558
vn -0.0056 0.3091 0.9510
vn 0.0239 0.3225 0.9463
vn -0.6049 0.4440 0.6611
vn -0.6048 0.4440 0.6611
vn -0.2884 0.5212 0.8032
vn 0.0417 0.3149 -0.9482
vn 0.0055 0.3146 0.9492
vn 0.0065 0.3163 0.9487
vn 0.0024 0.3178 0.9482
vn -0.9666 0.2558 0.0179
vn -0.3610 0.2778 0.8902
vn 0.8445 -0.5355 0.0017
vn 0.9376 -0.2962 -0.1824
vn 0.9197 -0.1705 0.3537
vn 0.9962 0.0770 0.0396
vn 0.9432 0.3320 0.0119
vn 0.9377 0.3450 0.0412
vn 0.5834 0.4150 0.6982
vn 0.6254 0.4095 0.6642
vn 0.7173 0.3406 0.6078
vn 0.7145 0.4342 0.5486
vn -0.2435 -0.5265 0.8146
vn 0.0001 0.9999 -0.0125
vn 0.6320 -0.1677 0.7566
vn 0.5957 -0.0327 0.8025
vn 0.5957 -0.0326 0.8025
vn 0.5996 0.4322 -0.6736
vn 0.5995 0.4322 -0.6736
vn 0.6678 0.4608 -0.5845
vn 0.5960 0.5030 0.6259
vn 0.5503 0.4183 0.7226
vn 0.5410 0.4217 0.7276
vn 0.6112 0.4771 -0.6316
vn 0.6111 0.4771 -0.6316
vn 0.6252 0.4921 -0.6057
vn 0.9534 0.3016 0.0100
vn 0.9534 0.3016 0.0101
vn 0.9345 0.3553 -0.0209
vn 0.9331 0.3343 -0.1324
vn 0.9328 0.3593 -0.0277
vn 0.9995 0.0044 -0.0329
vn 1.0000 -0.0072 0.0017
vn 0.9954 -0.0958 -0.0030
vn 0.9985 -0.0512 -0.0194
vn 0.3739 0.1568 -0.9141
vn 0.0494 0.3067 -0.9505
vn 0.0773 0.3041 -0.9495
vn 0.9371 0.3483 0.0226
vn 0.9084 0.4176 0.0208
vn -0.1001 0.9739 0.2036
vn -0.9433 0.3255 0.0657
vn -0.9439 0.3278 0.0392
vn -0.9340 0.3572 -0.0081
vn -0.9411 0.3378 -0.0178
vn -0.4105 0.7578 0.5072
vn -0.7019 0.0085 -0.7122
vn -0.6831 -0.0512 -0.7285
vn -0.3131 0.8980 0.3091
vn -0.0118 0.9999 -0.0076
vn -0.5413 0.6467 -0.5374
vn -0.5416 0.6465 -0.5373
vn -0.5332 0.6527 -0.5382
vn -0.5323 0.6533 -0.5383
vn 0.0700 -0.0480 0.9964
vn 0.0197 -0.5083 0.8609
vn -0.1068 0.2983 -0.9485
vn 0.1572 0.3023 -0.9402
vn 0.1572 0.3022 -0.9402
vn -0.2107 0.9763 -0.0489
vn -0.4044 0.8479 -0.3428
vn -0.0049 1.0000 -0.0042
vn -0.2832 0.8702 -0.4033
vn 0.6256 -0.4630 -0.6279
vn 0.6241 -0.4681 -0.6256
vn 0.6247 -0.4662 -0.6265
vn 0.6262 -0.4610 -0.6288
vn 0.6884 0.4384 0.5778
vn -0.4470 0.2861 0.8476
vn 0.7591 0.3437 -0.5528
vn 0.6439 0.4048 -0.6493
vn -0.9473 0.3192 0.0264
vn -0.9549 0.2964 0.0176
vn -0.9458 0.3244 0.0133
vn 0.0262 0.3711 -0.9282
vn 0.0297 0.3285 -0.9440
vn -0.9467 0.3220 -0.0007
vn -0.9466 0.3225 0.0023
vn -0.9470 0.3212 -0.0066
vn -0.9471 0.3209 -0.0089
vn -0.9435 0.3299 0.0314
vn -0.9518 0.3041 0.0397
vn -0.9475 0.3119 0.0698
vn -0.9493 0.3082 0.0616
vn -0.9454 0.3250 0.0259
vn 0.5935 0.5878 -0.5497
vn 0.5248 0.6306 -0.5717
vn 0.5248 0.6307 -0.5718
vn -0.8073 0.5895 -0.0280
vn -0.9385 0.3438 0.0302
vn -0.9434 0.3308 0.0234
vn -0.9390 0.3432 0.0215
vn -0.9999 0.0018 0.0162
vn -0.5851 0.8110 -0.0026
vn -0.5929 0.8053 -0.0034
vn -0.4843 0.8670 -0.1173
vn -0.4744 0.8664 0.1556
vn -0.9939 -0.1069 0.0268
vn 0.0163 -0.0708 0.9974
vn 0.0250 0.0686 0.9973
vn 0.9653 0.2584 -0.0368
vn 0.9653 0.2585 -0.0368
vn 0.9738 0.2262 -0.0221
vn 0.0110 0.8282 -0.5604
vn 0.5440 0.8391 -0.0047
vn -0.9412 0.3372 -0.0193
vn -0.9374 0.3481 -0.0111
vn -0.8204 0.5718 0.0044
vn -0.9354 0.3531 -0.0184
vn -0.0046 1.0000 -0.0041
vn 0.0000 1.0000 0.0001
vn 0.0002 1.0000 0.0014
vn 0.4081 0.8360 0.3669
vn -0.0112 0.2827 -0.9591
vn 0.0185 0.3408 -0.9400
vn 0.0184 0.3250 0.9455
vn 0.0318 0.3044 0.9520
vn 0.7270 0.0999 0.6793
vn 0.6422 -0.3913 0.6591
vn -0.9374 0.3481 0.0144
vn -0.9262 0.3759 0.0283
vn -0.0538 0.4404 -0.8962
vn -0.0199 0.3769 -0.9260
vn -0.9990 -0.0439 0.0016
vn -0.9459 0.3222 -0.0381
vn -0.9489 0.3156 0.0090
vn -0.9489 0.3155 0.0090
vn 0.6221 0.4315 -0.6533
vn 0.6830 0.4198 -0.5978
vn -0.4724 0.4841 0.7366
vn -0.6132 0.4454 0.6523
vn -0.6133 0.4454 0.6523
vn -0.0008 0.2878 -0.9577
vn -0.0857 0.4128 0.9068
vn 0.0080 0.4164 -0.9092
vn 0.0080 0.4164 -0.9091
vn -0.0055 0.3417 -0.9398
vn 0.9469 0.3215 0.0100
vn 0.9363 0.3354 -0.1041
vn 0.4664 0.4139 0.7817
vn 0.3031 0.3055 0.9026
vn 0.3031 0.3055 0.9027
vn -0.6356 0.4277 -0.6427
vn -0.6287 0.4365 -0.6435
vn -0.6240 0.4341 -0.6498
vn -0.9889 -0.1484 -0.0060
vn -0.9891 -0.1469 -0.0065
vn -0.9888 -0.1491 -0.0074
vn -0.6993 0.7148 -0.0095
vn -0.0287 0.3506 0.9361
vn -0.0234 0.3491 0.9368
vn -0.0253 0.3550 0.9345
vn 0.9520 0.3011 0.0556
vn -0.7321 0.4375 0.5221
vn -0.7322 0.4375 0.5221
vn -0.6783 0.4573 0.5751
vn 0.9254 0.3751 0.0540
vn 0.8737 0.4854 -0.0315
vn 0.9291 0.3695 -0.0126
vn 0.9291 0.3696 -0.0126
vn 0.0053 0.9999 -0.0135
vn 0.2495 0.9683 0.0127
vn 0.0682 0.9902 0.1219
vn -0.0428 0.3902 0.9197
vn -0.0555 0.2403 -0.9691
vn -0.0819 0.2633 -0.9612
vn -0.0819 0.2634 -0.9612
vn 0.2843 0.7779 0.5604
vn 0.0051 0.9999 0.0093
vn 0.0213 -0.1406 0.9898
vn 0.6453 0.4250 0.6349
vn 0.6913 0.4953 0.5260
vn 0.7097 0.3164 0.6294
vn 0.6192 0.4215 0.6626
vn -0.0505 0.3661 -0.9292
vn -0.0624 0.3443 0.9368
vn -0.0502 0.3481 0.9361
vn -0.0441 0.3752 0.9259
vn 0.0003 0.9992 -0.0391
vn -0.6882 0.7255 -0.0002
vn -0.6795 0.4267 0.5968
vn -0.5005 0.3753 0.7801
vn -0.0056 0.3506 -0.9365
vn -0.0054 0.3499 -0.9368
vn 0.9589 0.2836 0.0071
vn 0.9553 0.2957 -0.0046
vn 0.9552 0.2958 -0.0046
vn 0.3843 0.4694 -0.7950
vn 0.3825 0.4698 -0.7956
vn 0.3881 0.4685 -0.7937
vn 0.3896 0.4681 -0.7931
vn -0.7909 0.3601 0.4947
vn -0.7909 0.3601 0.4948
vn -0.7288 0.4000 0.5558
vn 0.9433 0.3321 -0.0025
vn -0.9373 0.3480 0.0206
vn -0.9402 0.3406 0.0078
vn -0.9437 0.3300 0.0208
vn -0.9512 0.3087 -0.0026
vn 0.9305 0.3656 -0.0211
vn 0.9306 0.3655 -0.0211
vn 0.9371 0.3473 -0.0360
vn 0.9462 0.3234 0.0114
vn -0.9925 -0.1223 -0.0034
vn 0.0866 0.6735 0.7341
vn 0.0075 0.6333 0.7739
vn 0.1078 0.5070 0.8552
vn -0.0542 0.3274 -0.9433
vn 0.1535 0.4312 0.8891
vn 0.0536 -0.4000 0.9149
vn -0.0202 0.3231 -0.9462
vn -0.0343 0.3290 -0.9437
vn -0.7241 -0.1026 -0.6820
vn -0.7277 -0.0930 -0.6796
vn -0.7269 -0.0950 -0.6801
vn -0.7233 -0.1048 -0.6825
vn 0.0364 0.3443 0.9381
vn 0.0962 0.3452 -0.9336
vn -0.6189 -0.4792 -0.6224
vn -0.6189 -0.4792 -0.6223
vn -0.5974 -0.5233 -0.6078
vn -0.5974 -0.5232 -0.6078
vn 0.4099 0.3741 -0.8319
vn 0.4100 0.3741 -0.8319
vn 0.3748 0.3593 -0.8546
vn 0.3748 0.3593 -0.8547
vn -0.0328 0.3444 0.9382
vn -0.0325 0.3402 0.9398
vn -0.0278 0.3419 0.9393
vn 0.9926 0.1210 0.0051
vn 0.9926 -0.0520 -0.1097
vn 0.9928 -0.0472 0.1103
vn 0.9994 0.0353 -0.0012
vn -0.0030 -0.0560 -0.9984
vn -0.6340 0.4477 -0.6306
vn -0.6436 0.4672 -0.6062
vn -0.9443 0.3277 0.0303
vn -0.9435 0.3215 0.0803
vn -0.9407 0.3301 0.0786
vn -0.0374 0.2993 -0.9534
vn -0.4049 0.3067 0.8614
vn -0.0303 -0.2740 0.9613
vn 0.0074 0.3361 -0.9418
vn 0.0086 0.3365 -0.9417
vn 0.0076 0.3333 -0.9428
vn 0.0309 0.3792 0.9248
vn 0.0517 0.4099 0.9106
vn 0.0001 1.0000 -0.0001
vn 0.0000 1.0000 0.0002
vn 0.8387 0.1011 0.5351
vn 0.8387 0.1010 0.5351
vn 0.8530 0.0238 0.5213
vn -0.9496 -0.3132 0.0118
vn 0.0026 0.9392 -0.3434
vn -0.0097 -0.0816 0.9966
vn -0.0119 -0.0476 0.9988
vn -0.6721 0.4708 -0.5715
vn -0.5999 0.4559 -0.6575
vn -0.5999 0.4559 -0.6574
vn -0.6365 0.4269 -0.6423
vn -0.6352 0.4313 -0.6407
vn -0.6254 0.4269 -0.6531
vn -0.6283 0.4245 -0.6519
vn 0.9484 0.3161 -0.0240
vn -0.7448 -0.0585 0.6647
vn -0.7001 0.0951 0.7077
vn -0.6707 0.3765 -0.6390
vn -0.6707 0.3767 -0.6389
vn -0.5400 0.4143 -0.7326
vn -0.5401 0.4143 -0.7326
vn 0.6603 -0.1712 -0.7312
vn -0.6388 0.4396 0.6314
vn -0.4278 0.3791 0.8205
vn -0.4278 0.3791 0.8206
vn -0.3482 0.8705 0.3480
vn -0.6383 0.3256 0.6976
vn -0.1723 0.3556 0.9186
vn 0.9966 -0.0759 0.0332
vn 0.9921 -0.1255 0.0087
vn 0.9950 -0.0998 -0.0078
vn 0.9939 -0.1097 -0.0074
vn 0.0046 -0.6664 -0.7456
vn -0.1254 -0.5976 -0.7919
vn -0.0352 -0.2287 -0.9729
vn 0.0422 -0.1966 -0.9796
vn -0.0278 0.3945 0.9185
vn -0.0172 0.4043 0.9144
vn -0.0171 0.4044 0.9144
vn 0.9871 -0.1574 -0.0284
vn 0.7743 -0.6231 -0.1102
vn 0.7946 -0.5700 0.2091
vn 0.6362 0.4114 -0.6526
vn 0.6337 0.4120 -0.6548
vn 0.6413 0.4104 -0.6484
vn 0.6436 0.4099 -0.6463
vn 0.9376 0.3475 -0.0090
vn 0.9446 0.3280 0.0070
vn -0.2766 0.9123 0.3019
vn -0.5541 0.7649 -0.3284
vn 0.7020 -0.1789 -0.6894
vn 0.7291 -0.0794 -0.6798
vn 0.7290 -0.0794 -0.6798
vn -0.3097 0.0144 0.9507
vn 0.8588 0.5123 -0.0073
vn -0.4758 0.3066 0.8244
vn 0.7449 0.3894 -0.5417
vn 0.7173 0.3701 -0.5904
vn 0.7172 0.3701 -0.5904
vn -0.6114 -0.3969 0.6846
vn -0.6042 -0.2369 0.7608
vn 0.0076 0.3216 -0.9468
vn 0.0070 0.3197 -0.9475
vn 0.0119 0.3238 -0.9460
vn 0.0073 0.3279 -0.9447
vn 0.8090 0.5873 -0.0248
vn 0.9333 0.3221 -0.1587
vn 0.9353 0.3423 0.0901
vn -0.9424 0.3329 0.0322
vn 0.0004 1.0000 0.0004
vn 0.4756 0.3747 0.7959
vn -0.9965 -0.0824 0.0109
vn -0.7901 0.6130 -0.0032
vn -0.9329 0.3598 -0.0153
vn 0.4731 0.8071 0.3531
vn -0.9891 -0.1472 -0.0061
vn -0.9894 -0.1450 -0.0051
vn -0.9893 -0.1457 -0.0065
vn -0.9806 -0.1959 -0.0097
vn -0.7466 0.6651 -0.0142
vn 0.0086 0.3173 0.9483
vn 0.0076 0.3230 0.9464
vn 0.0040 0.3155 0.9489
vn 0.0079 0.3203 0.9473
vn -0.9478 0.3188 -0.0051
vn 0.0456 -0.5708 0.8198
vn -0.0352 0.0760 0.9965
vn -0.9405 0.3393 -0.0158
vn 0.0148 0.5232 0.8521
vn 0.0190 0.1646 0.9862
vn 0.0171 0.0695 -0.9974
vn -0.0142 -0.6220 0.7829
vn 0.0079 0.3307 -0.9437
vn 0.0135 0.3318 -0.9432
vn 0.0133 0.3307 -0.9436
vn 0.9397 0.3397 -0.0391
vn -0.0582 0.9659 0.2524
vn 0.9933 0.1071 -0.0445
vn -0.6352 0.4280 -0.6429
vn -0.6414 0.4261 -0.6380
vn -0.6395 0.4267 -0.6395
vn -0.6333 0.4285 -0.6444
vn -0.9348 0.3550 -0.0142
vn -0.6665 0.5369 -0.5173
vn -0.6899 0.3166 -0.6510
vn -0.6673 0.3158 0.6745
vn -0.5253 0.5509 0.6485
vn 0.6406 0.4403 -0.6291
vn 0.6451 0.3426 -0.6829
vn -0.0127 0.3682 0.9297
vn -0.0040 0.6364 0.7713
vn -0.0603 0.5726 0.8176
vn -0.1547 0.4152 0.8965
vn 0.0064 0.3766 0.9263
vn 0.0064 0.3767 0.9263
vn 0.0219 0.2698 0.9627
vn 0.9525 0.3043 -0.0084
vn 0.9525 0.3043 -0.0081
vn 0.9512 0.3084 -0.0078
vn 0.9514 0.3080 -0.0067
vn -0.3071 0.3876 0.8692
vn -0.2313 0.3626 0.9028
vn -0.2926 0.2582 0.9207
vn -0.9358 0.3522 -0.0140
vn -0.7480 0.6503 -0.1328
vn -0.7499 0.6507 0.1189
vn 0.6350 0.4149 0.6516
vn 0.6275 0.4606 0.6277
vn -0.9930 0.1177 -0.0060
vn 0.0193 0.1389 -0.9901
vn 0.0193 0.1388 -0.9901
vn 0.0669 0.3966 -0.9155
vn -0.0764 0.4082 -0.9097
vn 0.9507 0.3099 -0.0029
vn 0.9506 0.3103 -0.0058
vn 0.9504 0.3111 -0.0038
vn 0.0177 0.3899 0.9207
vn 0.0177 0.3898 0.9207
vn 0.0149 0.4190 0.9079
vn 0.0003 0.3282 -0.9446
vn 0.0003 0.3281 -0.9446
vn 0.0336 0.3334 -0.9422
vn 0.0245 0.2873 -0.9575
vn -0.0280 0.2039 0.9786
vn -0.0282 0.1724 0.9846
vn -0.0280 0.2040 0.9786
vn 0.9477 0.3190 -0.0104
vn 0.9467 0.3220 -0.0000
vn 0.9544 0.2986 -0.0033
vn 0.9526 0.3040 -0.0088
vn 0.9499 0.3127 -0.0001
vn 0.9499 0.3126 -0.0001
vn 0.9493 0.3142 0.0097
vn 0.9542 0.2989 0.0079
vn 0.6070 0.5771 0.5463
vn -0.9479 0.3186 -0.0050
vn -0.9492 0.3144 -0.0088
vn -0.9500 0.3123 -0.0035
vn -0.6295 0.4622 -0.6245
vn -0.6295 0.4623 -0.6245
vn -0.6321 0.4351 -0.6413
vn 0.5927 0.3813 0.7095
vn 0.5926 0.3814 0.7095
vn 0.5022 0.5222 0.6893
vn 0.5023 0.5222 0.6893
vn -0.9735 0.2283 0.0121
vn 0.6303 0.3401 -0.6979
vn 0.6407 0.3203 -0.6978
vn -0.9826 0.1856 0.0022
vn -0.9804 0.1968 0.0105
vn -0.9809 0.1946 0.0015
vn -0.8793 0.4761 0.0143
vn 0.9061 0.4231 0.0046
vn 0.9661 0.2579 -0.0081
vn 0.9672 0.2541 -0.0069
vn 0.9672 0.2536 -0.0117
vn 0.0144 0.2340 -0.9721
vn 0.0145 0.2340 -0.9721
vn 0.0090 0.2985 -0.9544
vn 0.0090 0.2984 -0.9544
vn -0.8938 0.4483 -0.0071
vn -0.9377 0.3470 -0.0187
vn -0.0254 0.3554 -0.9344
vn 0.0056 0.3625 -0.9319
vn -0.0049 0.2883 -0.9575
vn -0.0221 0.3064 -0.9517
vn -0.0054 0.3712 -0.9285
vn -0.0054 0.3712 -0.9286
vn -0.0118 0.2984 -0.9544
vn -0.6074 0.4388 0.6622
vn -0.5887 0.4681 0.6590
vn -0.0088 0.4190 0.9080
vn -0.0171 0.3294 0.9440
vn -0.6417 0.4804 -0.5979
vn -0.6635 0.3388 -0.6671
vn 0.6396 0.4245 -0.6408
vn 0.6398 0.4233 -0.6414
vn 0.6393 0.4268 -0.6396
vn 0.6391 0.4279 -0.6391
vn -0.0552 0.5057 -0.8609
vn 0.0026 0.4063 -0.9137
vn 0.0085 0.5038 -0.8638
vn 0.0852 0.5318 -0.8426
vn -0.2673 0.4229 0.8659
vn -0.2844 0.4680 0.8367
vn -0.2039 0.4617 0.8633
vn 0.0207 0.2747 0.9613
vn 0.9870 0.1601 0.0113
vn 0.5159 0.7964 0.3155
vn -0.9466 0.3223 -0.0036
vn -0.9459 0.3244 -0.0089
vn -0.9480 0.3182 -0.0074
vn -0.9849 0.1729 -0.0008
vn -0.9834 0.1815 0.0022
vn -0.9817 0.1905 0.0015
vn -0.8998 0.4362 0.0090
vn 0.9653 0.2610 -0.0081
vn 0.9652 0.2614 -0.0040
vn 0.9665 0.2565 -0.0069
vn 0.9675 0.2526 -0.0111
vn 0.9676 0.2526 -0.0069
vn 0.0161 0.1792 0.9837
g Pyramid_S_Pyramid_S_Collor_Material
usemtl Collor_Material
s off
f 112/1/1 113/2/2 161/3/3 160/4/3
f 64/5/4 171/6/4 204/7/4
f 203/8/5 171/9/5 64/10/5
f 65/11/6 173/12/6 200/13/6
f 81/14/7 20/15/7 133/16/7
f 111/17/8 23/18/8 159/19/8
f 86/20/9 43/21/9 146/22/9
f 179/23/10 104/24/10 36/25/10
f 7/26/11 131/27/11 79/28/11
f 194/29/12 123/30/12 122/31/13 195/32/13
f 35/33/14 155/34/14 103/35/14
f 10/36/15 157/37/15 105/38/15
f 151/39/16 82/40/16 34/41/17 45/42/18
f 36/43/19 125/44/19 106/45/19
f 113/46/20 48/47/20 161/48/20
f 39/49/21 167/50/22 121/51/22
f 14/52/23 168/53/23 123/54/23
f 175/55/24 35/56/24 55/57/24
f 51/58/25 197/59/26 62/60/27
f 191/61/28 190/62/28 119/63/29 118/64/30
f 102/65/31 52/66/31 177/67/31
f 33/68/32 63/69/33 192/70/34 91/71/34
f 71/72/35 70/73/36 174/74/37 175/75/38
f 179/76/39 36/77/39 54/78/39
f 148/79/40 85/80/40 33/81/41 44/82/42
f 28/83/43 54/84/44 36/85/45 181/86/46
f 193/87/47 4/88/47 90/89/47
f 171/90/48 170/91/48 205/92/49 204/93/50
f 39/94/51 164/95/52 50/96/53
f 162/97/54 115/98/54 12/99/55 24/100/55
f 87/101/56 6/102/56 57/103/57 182/104/58
f 37/105/59 184/106/59 59/107/59
f 55/108/60 103/109/60 176/110/60
f 143/111/61 44/112/62 33/113/63 91/114/64
f 100/115/65 46/116/65 35/117/65
f 199/118/66 173/119/66 65/120/66
f 205/121/67 170/122/67 66/123/67
f 9/124/68 124/125/68 21/126/68
f 10/127/69 154/128/69 22/129/69
f 60/130/70 123/131/70 194/132/70
f 61/133/71 119/134/71 190/135/71
f 166/136/72 26/137/73 14/138/73 120/139/73
f 96/140/74 97/141/74 194/142/75 195/143/76
f 7/144/77 149/145/77 19/146/77
f 82/147/78 67/148/78 34/149/78
f 195/150/79 30/151/80 96/152/81
f 94/153/82 66/154/82 31/155/82
f 66/156/83 170/157/83 198/158/83
f 29/159/84 58/160/84 189/161/85 76/162/85
f 73/163/86 54/164/86 28/165/86
f 173/166/87 199/167/88 198/168/89 170/169/89
f 67/170/90 89/171/90 34/172/90
f 62/173/91 78/174/92 30/175/93
f 7/176/94 190/177/94 84/178/94
f 66/179/95 80/180/95 31/181/95
f 139/182/96 17/183/97 5/184/98 95/185/99
f 120/186/100 14/187/100 60/188/101 193/189/101
f 114/190/102 187/191/103 186/192/104 115/193/105
f 31/194/106 80/195/106 42/196/106
f 171/197/107 173/198/107 170/199/107
f 134/200/108 135/201/108 98/202/109 99/203/110
f 90/204/111 91/205/112 192/206/113 193/207/113
f 186/208/114 187/209/115 99/210/116 98/211/116
f 203/212/117 202/213/118 172/214/119 171/215/119
f 4/216/120 60/217/121 194/218/122 97/219/122
f 203/220/123 64/221/123 5/222/124 88/223/124
f 4/224/125 97/225/126 136/226/127 16/227/128
f 92/228/129 141/229/129 93/230/129
f 63/231/130 39/232/130 121/233/131 192/234/131
f 52/235/132 10/236/132 178/237/133 2/238/133
f 116/239/134 117/240/134 132/241/134
f 196/242/135 61/243/136 7/244/137 79/245/138
f 109/246/139 128/247/139 129/248/139
f 85/249/140 148/250/140 149/251/141 84/252/141
f 106/253/142 124/254/142 107/255/142
f 100/256/143 153/257/143 152/258/143
f 159/259/144 158/260/145 110/261/146 111/262/147
f 138/263/148 94/264/148 31/265/149 42/266/149
f 201/267/150 172/268/151 202/269/152 67/270/150
f 118/271/153 119/272/154 165/273/155 164/274/156
f 88/275/157 144/276/158 145/277/159 89/278/160
f 104/279/161 178/280/161 105/281/161
f 181/282/162 69/283/162 68/284/162
f 102/285/163 177/286/163 176/287/164 103/288/164
f 11/289/165 57/290/166 6/291/166 188/292/167
f 113/293/168 184/294/168 37/295/169 48/296/169
f 8/297/170 65/298/171 200/299/172 83/300/173
f 116/301/174 13/302/175 61/303/176 196/304/177
f 69/305/178 53/306/178 1/307/178
f 154/308/179 102/309/179 103/310/180 155/311/181
f 111/312/182 11/313/182 23/314/182
f 188/315/183 109/316/184 11/317/185
f 7/318/186 19/319/186 131/320/186
f 165/321/187 119/322/188 13/323/189 25/324/190
f 20/325/191 8/326/191 83/327/191
f 30/328/192 41/329/192 137/330/193 96/331/193
f 56/332/194 3/333/195 92/334/196 185/335/196
f 35/336/197 46/337/197 155/338/197
f 10/339/198 22/340/198 157/341/198
f 11/342/199 111/343/200 182/344/200 57/345/199
f 129/346/201 11/347/201 109/348/201
f 1/349/202 174/350/202 70/351/202
f 39/352/203 50/353/204 167/354/204
f 14/355/23 26/356/23 168/357/23
f 51/358/205 122/359/205 169/360/205
f 114/361/206 162/362/206 163/363/206
f 55/364/207 176/365/207 74/366/208 27/367/208
f 29/368/209 99/369/209 187/370/210 58/371/210
f 139/372/211 95/373/211 94/374/212 138/375/212
f 180/376/213 107/377/213 9/378/214 53/379/214
f 85/380/215 191/381/215 63/382/216 33/383/216
f 18/384/217 87/385/217 147/386/217
f 199/387/218 65/388/218 8/389/219 81/390/220
f 192/391/221 121/392/221 120/393/222 193/394/222
f 76/395/223 189/396/223 188/397/224 77/398/225
f 175/399/226 100/400/226 35/401/226
f 51/402/227 117/403/227 197/404/227
f 37/405/228 110/406/229 158/407/230 48/408/230
f 204/409/231 95/410/231 5/411/232 64/412/232
f 72/413/233 178/414/233 179/415/234 73/416/235
f 111/417/236 110/418/236 183/419/237 182/420/238
f 126/421/239 6/422/240 18/423/241
f 153/424/242 9/425/242 21/426/242
f 122/427/243 51/428/244 62/429/245
f 193/430/246 60/431/246 4/432/246
f 78/433/247 197/434/248 196/435/249 79/436/249
f 2/437/250 178/438/250 72/439/250
f 102/440/251 154/441/251 10/442/252 52/443/253
f 39/444/254 118/445/255 164/446/256
f 28/447/257 181/448/257 68/449/257
f 191/450/258 118/451/258 39/452/259 63/453/260
f 156/454/261 104/455/261 105/456/262 157/457/262
f 99/458/263 40/459/263 134/460/263
f 95/461/264 204/462/265 205/463/266 94/464/267
f 55/465/268 35/466/268 103/467/268
f 36/468/269 106/469/270 181/470/271
f 100/471/272 152/472/272 46/473/272
f 9/474/273 107/475/273 124/476/273
f 108/477/274 109/478/274 188/479/275 189/480/275
f 71/481/276 175/482/276 55/483/277 27/484/277
f 3/485/278 56/486/278 186/487/279 98/488/280
f 185/489/281 92/490/282 93/491/283 184/492/284
f 197/493/285 117/494/286 116/495/287 196/496/287
f 60/497/288 14/498/288 123/499/288
f 61/500/289 13/501/290 119/502/291
f 174/503/292 9/504/292 101/505/292
f 56/506/293 185/507/294 112/508/295 12/509/295
f 178/510/296 10/511/296 105/512/296
f 7/513/297 84/514/297 149/515/297
f 36/516/298 156/517/299 47/518/300
f 82/519/301 201/520/301 67/521/301
f 94/522/302 205/523/302 66/524/302
f 163/525/303 38/526/303 114/527/303
f 32/528/304 59/529/304 184/530/305 93/531/305
f 147/532/306 87/533/307 86/534/308 146/535/309
f 73/536/310 179/537/310 54/538/310
f 67/539/311 202/540/311 89/541/311
f 82/542/312 151/543/313 150/544/314 83/545/315
f 185/546/316 184/547/317 113/548/318 112/549/319
f 62/550/320 197/551/321 78/552/322
f 135/553/323 15/554/324 3/555/325 98/556/326
f 93/557/327 141/558/327 43/559/327
f 172/560/328 201/561/328 200/562/329 173/563/329
f 7/564/330 61/565/331 190/566/332
f 43/567/333 32/568/333 93/569/333
f 66/570/334 198/571/334 80/572/334
f 127/573/335 29/574/335 76/575/335
f 37/576/336 183/577/337 110/578/338
f 38/579/339 58/580/339 187/581/340 114/582/340
f 121/583/341 167/584/341 166/585/342 120/586/341
f 97/587/343 96/588/344 137/589/345 136/590/345
f 83/591/346 150/592/346 20/593/346
f 171/594/347 172/595/347 173/596/347
f 130/597/348 41/598/348 30/599/349 78/600/349
f 84/601/350 190/602/350 191/603/351 85/604/352
f 183/605/353 86/606/354 87/607/355 182/608/356
f 52/609/357 75/610/357 177/611/357
f 130/612/358 78/613/358 79/614/359 131/615/359
f 175/616/360 174/617/361 101/618/362 100/619/363
f 92/620/364 140/621/364 141/622/364
f 106/623/365 107/624/365 180/625/366 181/626/367
f 109/627/368 108/628/368 128/629/368
f 80/630/369 198/631/369 199/632/370 81/633/370
f 4/634/371 16/635/372 142/636/373 90/637/374
f 145/638/375 45/639/376 34/640/377 89/641/378
f 58/642/379 38/643/379 108/644/380 189/645/381
f 144/646/382 88/647/382 5/648/383 17/649/384
f 89/650/385 202/651/386 203/652/387 88/653/388
f 56/654/389 12/655/389 115/656/390 186/657/390
f 106/658/391 125/659/391 124/660/391
f 100/661/392 101/662/392 153/663/392
f 142/664/393 143/665/393 91/666/394 90/667/395
f 81/668/396 133/669/396 80/670/396
f 12/671/397 160/672/397 24/673/397
f 181/674/398 180/675/398 69/676/398
f 176/677/399 177/678/399 75/679/400 74/680/401
f 77/681/402 126/682/402 127/683/403 76/684/403
f 32/685/404 86/686/405 183/687/406 59/688/407
f 140/689/408 92/690/408 3/691/409 15/692/410
f 69/693/411 180/694/411 53/695/411
f 122/696/412 123/697/412 168/698/412 169/699/412
f 179/700/413 178/701/413 104/702/413
f 20/703/414 81/704/414 8/705/414
f 129/706/415 23/707/415 11/708/415
f 1/709/416 53/710/416 174/711/416
f 114/712/417 115/713/417 162/714/417
f 18/715/418 6/716/419 87/717/420
f 126/718/421 77/719/421 6/720/421
f 153/721/422 101/722/422 9/723/422
f 62/724/423 30/725/424 195/726/425 122/727/426
f 6/728/427 77/729/427 188/730/427
f 99/731/428 29/732/428 40/733/428
f 128/734/429 108/735/429 38/736/429
f 174/737/430 53/738/430 9/739/430
f 36/740/431 104/741/431 156/742/431
f 163/743/432 49/744/432 38/745/432
f 43/746/433 86/747/433 32/748/433
f 127/749/434 40/750/434 29/751/434
f 37/752/435 59/753/436 183/754/437
f 52/755/438 2/756/438 75/757/438
f 132/758/439 117/759/439 51/760/439
f 12/761/440 112/762/440 160/763/440
f 200/764/441 201/765/442 82/766/443 83/767/444
f 126/768/445 21/769/445 124/770/445
f 146/771/446 152/772/446 153/773/447 147/774/447
f 128/775/448 130/776/448 131/777/449 129/778/449
f 143/779/450 142/780/450 160/781/451 161/782/451
f 127/783/452 125/784/453 36/785/454 47/786/455
f 51/787/456 169/788/457 138/789/458 42/790/458
f 24/791/459 160/792/460 142/793/461 16/794/462
f 80/795/463 132/796/464 51/797/465 42/798/465
f 116/799/466 133/800/466 25/801/467 13/802/468
f 168/803/469 139/804/469 138/805/470 169/806/470
f 126/807/471 18/808/471 21/809/471
f 141/810/472 155/811/473 46/812/474 43/813/475
f 136/814/476 24/815/477 16/816/478
f 49/817/479 163/818/480 137/819/481 41/820/481
f 145/821/482 167/822/483 50/823/484 45/824/485
f 130/825/486 128/826/487 38/827/487 49/828/488
f 26/829/489 166/830/490 144/831/491 17/832/492
f 139/833/493 168/834/494 26/835/495 17/836/496
f 162/837/497 137/838/497 163/839/497
f 25/840/498 133/841/499 20/842/500
f 148/843/501 158/844/502 159/845/503 149/846/503
f 135/847/504 134/848/505 156/849/506 157/850/507
f 165/851/508 20/852/508 150/853/508
f 155/854/509 141/855/509 140/856/510 154/857/510
f 153/858/511 18/859/512 147/860/513
f 19/861/514 129/862/514 131/863/514
f 157/864/515 15/865/515 135/866/515
f 22/867/516 140/868/517 15/869/518
f 143/870/519 161/871/520 48/872/521 44/873/522
f 23/874/523 19/875/523 149/876/524 159/877/524
f 50/878/525 164/879/526 151/880/527 45/881/528
f 48/882/529 158/883/530 148/884/531 44/885/531
f 126/886/532 124/887/532 125/888/533 127/889/533
f 130/890/534 49/891/534 41/892/534
f 127/893/535 47/894/535 40/895/535
f 151/896/536 164/897/536 165/898/537 150/899/537
f 145/900/538 144/901/539 166/902/540 167/903/541
f 46/904/542 152/905/543 146/906/544 43/907/545
f 133/908/546 116/909/546 132/910/547 80/911/548
f 40/912/549 156/913/549 134/914/549
f 136/915/550 162/916/550 24/917/550
f 162/918/551 136/919/551 137/920/551
f 165/921/552 25/922/553 20/923/554
f 153/924/555 21/925/556 18/926/557
f 19/927/558 23/928/558 129/929/558
f 157/930/559 22/931/560 15/932/561
f 22/933/562 154/934/563 140/935/563
f 40/936/564 47/937/564 156/938/564
