# Blender v3.0.0 OBJ File: 'aa.blend'
# www.blender.org
mtllib Rock_8.mtl
o Rock_8
v 0.859724 -0.000879 0.435002
v 0.432460 -0.000879 0.861600
v 0.396465 1.105564 0.826150
v 0.885292 -0.000880 -0.396488
v 0.855128 1.122090 -0.380371
v -0.511246 -0.000879 0.859491
v -0.861377 -0.000879 0.506119
v -0.467242 1.277211 0.821354
v 0.804184 2.309384 0.362045
v 0.754876 1.196128 0.434536
v 0.846191 0.410049 0.425122
v 0.816293 1.139499 0.254712
v 0.847627 1.248342 0.286681
v -0.495367 1.580446 0.731039
v -0.807642 1.683628 -0.411173
v -0.529647 1.958467 0.593602
v -0.771228 1.375336 0.494640
v -0.807505 1.295320 0.462800
v -0.753328 1.417614 0.504062
v -0.291714 2.591340 0.559420
v -0.806702 1.323857 0.403320
v -0.003860 3.472377 0.258615
v -0.184077 3.313083 -0.435205
v -0.003934 3.512522 0.167908
v 0.625796 3.323866 0.038506
v 0.596965 3.338090 0.058544
v 0.627221 3.314594 0.015871
v 0.805893 2.274084 -0.188071
v -0.313902 3.009449 -0.510289
v -0.862315 -0.000880 -0.532335
v -0.796423 1.191206 -0.509184
v 0.215507 0.450057 -0.994038
v 0.765557 2.407952 0.374393
v 0.769786 2.351587 0.391245
v 0.482891 1.866559 0.653691
v 0.749471 2.318340 0.409471
v 0.359687 1.474226 0.826437
v -0.052479 2.054560 0.786832
v -0.100691 2.525042 0.650859
v -0.158117 2.680930 0.620863
v 0.022685 3.423072 0.313076
v 0.548813 3.374701 0.137740
v 0.084630 3.528179 0.256285
v 0.034656 3.481699 0.289601
v 0.502572 3.236064 -0.251221
v -0.049196 3.266922 -0.477452
v 0.233457 3.251115 -0.361561
v 0.377213 -0.000880 -0.977292
v 0.672103 0.484733 -0.712635
v 0.818382 1.979174 -0.315392
v 0.833414 1.630802 -0.372263
v 0.499724 3.089396 -0.331049
v 0.652473 2.557211 -0.323544
v 0.111194 2.762187 -0.677287
v 0.760226 1.137879 -0.521426
v 0.271827 0.603180 -0.980676
v 0.093861 2.645730 -0.712558
v 0.110858 2.429385 -0.742305
v 0.108176 2.741911 -0.683428
v 0.124058 2.289708 -0.759890
v 0.183127 1.509481 -0.868789
v 0.207708 1.196590 -0.911810
vt 0.790310 0.840320
vt 0.790310 0.947454
vt 0.717336 0.946994
vt 0.682105 0.099740
vt 0.695824 0.012791
vt 0.801830 0.001455
vt 0.801830 0.121948
vt 0.555178 0.179011
vt 0.556261 0.170151
vt 0.569373 0.167043
vt 0.569373 0.189417
vt 0.850482 0.883731
vt 0.809001 0.697524
vt 0.850482 0.637484
vt 0.552268 0.167043
vt 0.552268 0.199370
vt 0.531727 0.170805
vt 0.714426 0.183924
vt 0.714426 0.380457
vt 0.607724 0.307524
vt 0.620263 0.167655
vt 0.959537 0.001455
vt 0.959537 0.141885
vt 0.926327 0.013072
vt 0.187607 0.928099
vt 0.179466 0.848720
vt 0.187607 0.847023
vt 0.375018 0.448973
vt 0.211751 0.438117
vt 0.191303 0.227218
vt 0.375018 0.213004
vt 0.604814 0.213004
vt 0.604814 0.380457
vt 0.408386 0.374056
vt 0.377928 0.220797
vt 0.960403 0.395376
vt 0.914857 0.345600
vt 0.960403 0.290315
vt 0.993139 0.521431
vt 0.986845 0.329962
vt 0.993139 0.327602
vt 0.288227 0.803305
vt 0.191303 0.627567
vt 0.288227 0.614401
vt 0.187243 0.454597
vt 0.185124 0.448218
vt 0.187243 0.444422
vt 0.609164 0.853646
vt 0.502560 0.858585
vt 0.584501 0.725463
vt 0.609164 0.730067
vt 0.793732 0.944652
vt 0.806091 0.840320
vt 0.806091 0.967745
vt 0.380165 0.542943
vt 0.377928 0.433409
vt 0.499651 0.383366
vt 0.499651 0.629614
vt 0.649706 0.582375
vt 0.649706 0.722554
vt 0.502560 0.669794
vt 0.505048 0.607153
vt 0.808513 0.167655
vt 0.872413 0.183101
vt 0.872413 0.336923
vt 0.817636 0.323644
vt 0.186111 0.656401
vt 0.108912 0.573961
vt 0.186111 0.465629
vt 0.175290 0.861398
vt 0.175290 0.917762
vt 0.108912 0.905684
vt 0.160026 0.323700
vt 0.183481 0.256018
vt 0.183481 0.441512
vt 0.079189 0.964026
vt 0.064667 0.884260
vt 0.079189 0.876256
vt 0.983935 0.563568
vt 0.973803 0.333468
vt 0.983935 0.327602
vt 0.895882 0.838179
vt 0.853392 0.675540
vt 0.895882 0.637484
vt 0.890806 0.513356
vt 0.890806 0.626065
vt 0.830578 0.624655
vt 0.801229 0.582119
vt 0.187607 0.844113
vt 0.175064 0.671658
vt 0.187607 0.659310
vt 0.923417 0.001455
vt 0.923417 0.161064
vt 0.887420 0.049570
vt 0.191303 0.508517
vt 0.367211 0.451882
vt 0.367211 0.611492
vt 0.582145 0.186680
vt 0.572283 0.180373
vt 0.582145 0.167043
vt 0.370121 0.518279
vt 0.374525 0.511224
vt 0.374525 0.537416
vt 0.188393 0.001455
vt 0.188393 0.253108
vt 0.003819 0.202806
vt 0.001455 0.082704
vt 0.001455 0.538477
vt 0.106002 0.465629
vt 0.106002 0.656935
vt 0.027956 0.699944
vt 0.176703 0.457368
vt 0.170253 0.448503
vt 0.176703 0.444422
vt 0.528817 0.196998
vt 0.498624 0.192319
vt 0.528817 0.167043
vt 0.972340 0.637484
vt 0.972340 0.801202
vt 0.948815 0.781705
vt 0.196425 0.810290
vt 0.309293 0.806215
vt 0.309293 0.896575
vt 0.191303 0.830535
vt 0.577319 0.189590
vt 0.577319 0.208503
vt 0.572283 0.199328
vt 0.172154 0.659310
vt 0.172154 0.858489
vt 0.108912 0.777605
vt 0.423957 0.904277
vt 0.313597 0.901380
vt 0.423957 0.825132
vt 0.640052 0.473825
vt 0.705774 0.383366
vt 0.705774 0.568861
vt 0.167343 0.444422
vt 0.167343 0.458282
vt 0.160026 0.449534
vt 0.308178 0.795146
vt 0.291137 0.619120
vt 0.308178 0.614401
vt 0.602882 0.861494
vt 0.602882 0.962719
vt 0.585213 0.948993
vt 0.373604 0.564205
vt 0.370121 0.551186
vt 0.373604 0.540326
vt 0.989450 0.318179
vt 0.974998 0.172768
vt 0.989450 0.146531
vt 0.179613 0.454559
vt 0.182215 0.444422
vt 0.182215 0.461735
vt 0.458340 0.741737
vt 0.458340 0.797949
vt 0.313597 0.822222
vt 0.338147 0.733248
vt 0.953769 0.403433
vt 0.970894 0.400890
vt 0.970894 0.563568
vt 0.582303 0.960272
vt 0.561625 0.873436
vt 0.582303 0.861494
vt 0.975250 0.646986
vt 0.985341 0.637484
vt 0.985341 0.810393
vt 0.853392 0.847709
vt 0.918798 0.841088
vt 0.918798 0.936647
vt 0.529473 0.973308
vt 0.502560 0.890239
vt 0.529473 0.861494
vt 0.097569 0.720015
vt 0.105515 0.702854
vt 0.105515 0.896686
vt 0.018876 0.888543
vt 0.031593 0.876256
vt 0.031593 0.988965
vt 0.816687 0.886641
vt 0.816687 0.946886
vt 0.809001 0.940217
vt 0.094659 0.876256
vt 0.094659 0.952287
vt 0.082128 0.899474
vt 0.652753 0.831221
vt 0.612074 0.730010
vt 0.710222 0.725463
vt 0.710222 0.849043
vt 0.426867 0.838093
vt 0.454252 0.825132
vt 0.454252 0.956740
vt 0.558715 0.861494
vt 0.558715 0.968213
vt 0.532382 0.912093
vt 0.001455 0.264985
vt 0.157116 0.256018
vt 0.157116 0.462719
vt 0.402924 0.204039
vt 0.269788 0.210095
vt 0.191303 0.001455
vt 0.402924 0.012074
vt 0.798319 0.634574
vt 0.717336 0.426892
vt 0.798319 0.400890
vt 0.898792 0.678841
vt 0.945906 0.637484
vt 0.945906 0.805581
vt 0.094659 0.856675
vt 0.017290 0.873347
vt 0.001455 0.771148
vt 0.094659 0.702854
vt 0.405834 0.176344
vt 0.495714 0.167043
vt 0.495714 0.197339
vt 0.908446 0.513356
vt 0.908446 0.622162
vt 0.893716 0.538391
vt 0.637142 0.383366
vt 0.637142 0.579465
vt 0.502560 0.422580
vt 0.911948 0.395376
vt 0.808513 0.360740
vt 0.911948 0.339833
vt 0.705774 0.571770
vt 0.705774 0.719107
vt 0.661696 0.603180
vt 0.951224 0.179323
vt 0.972088 0.146531
vt 0.972088 0.280581
vt 0.015966 0.979641
vt 0.001455 0.886927
vt 0.015966 0.876256
vt 0.962447 0.103851
vt 0.980027 0.001455
vt 0.980027 0.123524
vt 0.750270 0.644097
vt 0.806091 0.637484
vt 0.806091 0.829450
vt 0.717336 0.837411
vt 0.801229 0.426548
vt 0.909441 0.400890
vt 0.909441 0.510447
vt 0.875323 0.259300
vt 0.948315 0.167655
vt 0.948315 0.280581
vt 0.986641 0.969222
vt 0.975250 0.835657
vt 0.986641 0.813302
vt 0.998545 0.770757
vt 0.988250 0.664645
vt 0.998545 0.637484
vt 0.612074 0.869444
vt 0.710980 0.851952
vt 0.710980 0.906231
vt 0.061757 0.931799
vt 0.034503 0.887891
vt 0.061757 0.876256
vt 0.950859 0.591684
vt 0.912351 0.543105
vt 0.950859 0.400890
vt 0.995931 0.125478
vt 0.982937 0.028089
vt 0.995931 0.001455
vt 0.921708 0.880841
vt 0.966770 0.841088
vt 0.966770 0.963157
vt 0.188393 0.353782
vt 0.186744 0.259701
vt 0.188393 0.256018
vt 0.410078 0.019863
vt 0.580736 0.001455
vt 0.580736 0.164133
vt 0.405834 0.118549
vt 0.679195 0.162503
vt 0.594343 0.141894
vt 0.583646 0.039031
vt 0.679195 0.001455
vt 0.373426 0.508314
vt 0.370121 0.469589
vt 0.373426 0.451882
vt 0.315002 0.682303
vt 0.313597 0.678189
vt 0.499651 0.632524
vt 0.499651 0.730338
vt 0.187546 0.405699
vt 0.186744 0.361285
vt 0.187546 0.356692
vt 0.479191 0.734607
vt 0.492065 0.733248
vt 0.492065 0.932426
vt 0.461250 0.922657
vt 0.884510 0.112667
vt 0.804740 0.038672
vt 0.884510 0.001455
vt 0.717336 0.397501
vt 0.717880 0.170481
vt 0.805604 0.167655
vt 0.805604 0.397980
vn 0.6987 0.0339 0.7146
vn 0.7060 0.0403 0.7071
vn 0.6966 0.0634 0.7147
vn 0.5810 0.1555 -0.7989
vn -0.4887 0.7903 0.3696
vn -0.4925 0.7957 0.3526
vn 0.9814 0.0613 0.1822
vn 0.9986 0.0339 0.0410
vn 0.9879 -0.0012 0.1551
vn 0.8422 -0.3603 0.4011
vn 0.6952 0.0575 0.7166
vn 0.7108 0.0459 0.7019
vn 0.7295 0.0658 0.6808
vn 0.7144 0.0715 0.6961
vn 0.9507 0.1070 0.2910
vn -0.7030 0.1423 0.6968
vn -0.9983 0.0556 -0.0193
vn -0.9983 0.0555 -0.0193
vn -0.9991 0.0413 0.0009
vn 0.0001 0.0300 0.9995
vn -0.0022 0.0319 0.9995
vn -0.0020 0.0317 0.9995
vn 0.0003 0.0299 0.9996
vn -0.7118 0.1821 0.6784
vn 0.6434 0.3330 0.6893
vn 0.9991 0.0413 0.0016
vn 0.9992 0.0409 0.0005
vn 0.1989 0.9112 -0.3607
vn -0.9215 0.3550 0.1579
vn -0.9370 0.3321 0.1081
vn -0.8848 0.4199 0.2020
vn 0.8497 0.0304 -0.5264
vn 0.8497 0.0304 -0.5263
vn 1.0000 0.0019 0.0070
vn 0.9961 0.0730 -0.0503
vn -0.1123 -0.0120 0.9936
vn 0.0175 0.3969 0.9177
vn -0.0988 0.2955 0.9502
vn 0.0522 0.2895 0.9557
vn 0.9925 0.0460 0.1129
vn 0.9962 0.0807 0.0324
vn 0.9967 0.0547 0.0594
vn -0.5359 0.2451 0.8079
vn -0.7287 0.0576 0.6824
vn -0.7230 0.0537 0.6888
vn -0.7270 0.0515 0.6847
vn -0.9991 0.0417 0.0065
vn 0.9991 0.0424 0.0027
vn 0.9991 0.0419 0.0022
vn 0.9991 0.0415 0.0019
vn -0.9048 0.3498 0.2427
vn -0.9215 0.3550 0.1578
vn -0.8885 0.4005 0.2238
vn -0.8734 0.3234 0.3641
vn -0.8981 0.3986 0.1859
vn -0.9579 0.2841 0.0404
vn -0.9731 0.2259 0.0443
vn -0.9997 0.0009 -0.0263
vn -0.9997 -0.0212 -0.0082
vn 0.5571 0.0899 0.8256
vn 0.6561 0.0127 0.7545
vn 0.6403 -0.0839 0.7635
vn -0.4270 0.0167 0.9041
vn -0.5982 0.4270 0.6781
vn 0.9990 0.0002 0.0438
vn 0.9987 0.0353 0.0360
vn 0.9605 -0.2310 -0.1548
vn 0.9606 -0.2310 -0.1548
vn 0.7793 0.2325 0.5820
vn 0.5469 -0.0098 0.8371
vn 0.6032 0.0930 0.7922
vn 0.6567 0.0200 0.7539
vn 0.7274 0.0720 0.6824
vn 0.7371 0.0677 0.6724
vn -0.3558 0.2256 0.9069
vn -0.6319 0.3958 0.6663
vn 0.8712 0.2919 0.3947
vn 0.2061 0.9070 -0.3672
vn 0.3264 0.2932 0.8986
vn 0.7298 0.0479 0.6820
vn 0.7365 0.0767 0.6720
vn 0.2155 0.9297 -0.2987
vn 0.8311 0.0472 -0.5542
vn 0.8297 0.0506 -0.5559
vn 0.8312 0.0499 -0.5537
vn 0.8515 0.2378 -0.4673
vn -0.3936 0.0781 -0.9159
vn -0.3785 0.0710 -0.9229
vn -0.4076 0.0402 -0.9123
vn -0.3485 0.0539 -0.9358
vn -0.3338 -0.1542 -0.9299
vn 0.9991 0.0426 0.0032
vn 0.9991 0.0421 0.0035
vn 0.9990 0.0436 0.0037
vn 0.3239 -0.0150 0.9460
vn -0.0285 0.2124 0.9768
vn -0.2161 -0.0214 0.9761
vn -0.1245 0.1195 0.9850
vn 0.8312 0.0443 -0.5543
vn 0.8313 0.0471 -0.5539
vn 0.8327 0.0443 -0.5519
vn 0.1687 0.0239 -0.9854
vn -0.4033 0.0965 -0.9100
vn 0.3616 0.4403 -0.8218
vn -0.3708 0.0978 -0.9235
vn -0.1859 0.3101 -0.9324
vn -0.3735 0.1266 -0.9189
vn -0.3752 0.1921 -0.9068
vn -0.3881 0.1714 -0.9055
vn 0.7491 -0.0977 -0.6553
vn -0.0600 0.1087 -0.9923
vn -0.1859 0.3100 -0.9324
vn 0.5113 0.1180 0.8512
vn 0.4594 0.3400 0.8206
vn 0.9853 0.1707 -0.0079
vn 0.7026 -0.0555 0.7094
vn 0.7393 -0.0020 0.6734
vn 0.7105 0.0678 0.7004
vn 0.8476 -0.0030 0.5307
vn 0.5732 0.0954 -0.8138
vn -0.7096 0.0454 0.7031
vn -0.7227 0.0511 0.6892
vn -0.7187 0.0542 0.6932
g Rock_8_Rock_8_Collor_Material
usemtl Collor_Material
s off
f 2/1/1 1/2/2 11/3/3
f 49/4/4 56/5/4 62/6/4 55/7/4
f 22/8/5 44/9/5 43/10/6 24/11/6
f 5/12/7 11/13/8 1/14/9
f 13/15/10 10/16/10 12/17/10
f 3/18/11 2/19/12 11/20/13 10/21/14
f 10/22/15 11/23/15 12/24/15
f 8/25/16 19/26/16 17/27/16
f 21/28/17 31/29/18 30/30/19 7/31/19
f 6/32/20 2/33/21 3/34/22 8/35/23
f 19/36/24 14/37/24 16/38/24
f 9/39/25 25/40/25 26/41/25
f 13/42/26 28/43/27 9/44/27
f 26/45/28 25/46/28 27/47/28
f 53/48/4 50/49/4 60/50/4 58/51/4
f 19/52/29 16/53/30 21/54/31
f 4/55/32 49/56/33 5/57/34 1/58/35
f 61/59/4 60/60/4 50/61/4 51/62/4
f 3/63/36 37/64/37 14/65/38 8/66/39
f 5/67/40 12/68/41 11/69/42
f 8/70/16 14/71/16 19/72/16
f 16/73/43 14/74/43 20/75/43
f 8/76/44 17/77/45 18/78/46
f 7/79/47 18/80/47 21/81/47
f 13/82/48 50/83/49 28/84/50
f 24/85/28 26/86/28 45/87/28 47/88/28
f 20/89/29 22/90/29 24/91/29
f 29/92/29 24/93/29 23/94/29
f 20/95/29 24/96/29 29/97/29
f 21/98/51 18/99/29 17/100/29
f 17/101/52 19/102/52 21/103/53
f 29/104/29 15/105/54 16/106/55 20/107/29
f 21/108/56 16/109/57 15/110/58 31/111/59
f 9/112/60 34/113/61 36/114/62
f 40/115/63 20/116/63 39/117/63
f 41/118/64 20/119/64 40/120/64
f 12/121/65 5/122/66 51/123/67 13/124/68
f 9/125/69 33/126/69 34/127/69
f 10/128/70 36/129/71 35/130/72
f 37/131/73 10/132/74 35/133/73
f 38/134/75 20/135/75 14/136/75
f 22/137/76 41/138/76 44/139/76
f 33/140/77 26/141/77 42/142/77
f 42/143/78 24/144/78 43/145/78
f 43/146/79 44/147/79 41/148/79
f 41/149/79 40/150/79 39/151/79
f 34/152/79 33/153/79 36/154/79
f 62/155/4 61/156/4 51/157/4 55/158/4
f 36/159/79 33/160/79 39/161/79
f 42/162/79 43/163/79 41/164/79
f 41/165/64 22/166/64 20/167/64
f 37/168/73 3/169/80 10/170/81
f 38/171/75 39/172/75 20/173/75
f 33/174/77 9/175/77 26/176/77
f 42/177/82 26/178/82 24/179/82
f 45/180/28 26/181/28 27/182/28
f 23/183/28 47/184/28 46/185/28
f 54/186/4 52/187/4 53/188/4 58/189/4
f 55/190/83 5/191/84 49/192/85
f 50/193/86 53/194/86 28/195/86
f 29/196/87 60/197/87 15/198/87
f 62/199/88 32/200/89 30/201/89 31/202/90
f 30/203/91 32/204/91 48/205/91
f 51/206/92 50/207/93 13/208/94
f 37/209/95 35/210/96 38/211/97 14/212/98
f 51/213/99 5/214/100 55/215/101
f 56/216/102 48/217/102 32/218/102
f 61/219/103 15/220/103 60/221/103
f 52/222/104 54/223/104 47/224/104
f 27/225/86 53/226/86 45/227/86
f 57/228/105 58/229/105 29/230/105
f 29/231/106 59/232/106 57/233/106
f 46/234/106 59/235/106 23/236/106
f 61/237/105 62/238/107 31/239/108 15/240/109
f 48/241/110 49/242/110 4/243/110
f 23/244/28 24/245/28 47/246/28
f 29/247/87 58/248/87 60/249/87
f 62/250/111 56/251/111 32/252/111
f 54/253/104 46/254/104 47/255/104
f 47/256/104 45/257/104 52/258/104
f 28/259/86 53/260/86 27/261/86
f 53/262/86 52/263/86 45/264/86
f 29/265/106 23/266/106 59/267/106
f 46/268/112 54/269/112 59/270/112
f 41/271/79 39/272/79 33/273/79 42/274/79
f 39/275/79 38/276/113 35/277/114 36/278/79
f 58/279/4 57/280/4 59/281/4
f 27/282/115 25/283/115 9/284/115 28/285/115
f 58/286/4 59/287/4 54/288/4
f 9/289/116 36/290/117 10/291/118 13/292/119
f 48/293/120 56/294/120 49/295/120
f 6/296/121 8/297/122 18/298/123 7/299/121
