# Blender v3.0.0 OBJ File: 'aa.blend'
# www.blender.org
mtllib Rock_9.mtl
o Rock_9
v -0.272255 -0.000002 -1.876019
v -0.101748 3.551325 -1.000004
v -0.130942 0.000002 1.831927
v -0.101748 3.551328 1.544996
v -0.177338 0.043389 -2.107717
v -1.948672 0.000001 0.892715
v -1.625221 2.675618 0.330691
v 1.318606 3.893123 1.492322
v 2.018827 3.897277 0.674612
v -1.645169 2.605924 -0.681091
v -1.232184 2.723132 -1.066916
v 0.024064 3.615321 -1.152630
v 0.667560 3.760298 -1.371899
v 0.193514 3.427602 -1.452889
v 1.576076 3.847835 -1.320829
v 1.970233 3.886703 -1.040059
v 2.616278 0.054708 1.397397
v 2.402014 0.053731 1.694222
v 1.881972 3.317357 1.366396
v 2.117667 3.319823 1.090174
v 2.342479 0.060009 -1.694203
v 2.521505 0.060912 -1.545987
v 2.086904 3.054399 -1.259176
v 1.908991 3.031254 -1.402352
v -1.948672 -0.000001 -1.178828
v -1.352921 -0.000002 -1.496274
v -1.502447 2.309482 -1.100336
v -1.687805 2.166517 -1.003841
v -0.625106 3.257326 1.380689
v -1.285583 2.878502 0.884785
v -1.293486 0.000002 1.483368
v -1.473544 0.000001 1.380614
v -1.185169 2.338840 1.211408
v -1.019475 2.472217 1.319688
v 0.838259 0.788317 2.191007
v 0.895533 0.042248 2.279131
v 1.313383 0.050717 2.351729
v 0.675947 3.817461 1.750786
v 1.069801 3.782067 1.723850
v 1.040779 3.890204 1.692550
v 0.831512 3.870697 1.657184
v 1.267733 0.785457 2.139173
v 1.151388 2.259455 1.945129
v 1.055864 0.717936 2.183734
v 1.284961 0.527477 2.279617
vt 0.792563 0.897980
vt 0.735716 0.861399
vt 0.792563 0.859803
vt 0.973304 0.338565
vt 0.993698 0.194979
vt 0.993698 0.346963
vt 0.825393 0.277943
vt 0.825393 0.341344
vt 0.744440 0.313374
vt 0.733337 0.647327
vt 0.637118 0.606058
vt 0.733337 0.359676
vt 0.291514 0.743492
vt 0.001189 0.728727
vt 0.291514 0.661088
vt 0.833280 0.740303
vt 0.896022 0.719149
vt 0.896022 0.945277
vt 0.965964 0.954627
vt 0.937142 0.860283
vt 0.965964 0.815587
vt 0.731693 0.802566
vt 0.721141 0.785320
vt 0.731693 0.748630
vt 0.637118 0.875868
vt 0.688082 0.866446
vt 0.688082 0.891070
vt 0.510652 0.857978
vt 0.510652 0.905193
vt 0.426729 0.895629
vt 0.425904 0.873321
vt 0.934764 0.921826
vt 0.912185 0.920784
vt 0.912466 0.627393
vt 0.934764 0.626336
vt 0.521787 0.001189
vt 0.521787 0.268928
vt 0.384552 0.246590
vt 0.324570 0.042316
vt 0.322192 0.001189
vt 0.322192 0.287585
vt 0.027839 0.261680
vt 0.001189 0.033280
vt 0.143038 0.885911
vt 0.090553 0.814156
vt 0.143038 0.745871
vt 0.339418 0.289963
vt 0.461235 0.323751
vt 0.461235 0.614451
vt 0.337392 0.550248
vt 0.524165 0.085979
vt 0.631058 0.001189
vt 0.631058 0.357297
vt 0.196098 0.992441
vt 0.174614 0.935857
vt 0.196098 0.852945
vt 0.472140 0.277707
vt 0.521787 0.271306
vt 0.521787 0.558958
vt 0.502946 0.551625
vt 0.589211 0.913365
vt 0.524165 0.904484
vt 0.567154 0.695971
vt 0.589211 0.685026
vt 0.247670 0.747240
vt 0.294624 0.745871
vt 0.294624 0.869553
vt 0.633515 0.922102
vt 0.610969 0.864220
vt 0.633515 0.858701
vt 0.753712 0.265693
vt 0.633437 0.150092
vt 0.753712 0.001189
vt 0.608591 0.990009
vt 0.591589 0.945962
vt 0.608591 0.858701
vt 0.998811 0.001189
vt 0.998811 0.192601
vt 0.973304 0.063793
vt 0.849457 0.273714
vt 0.875846 0.251071
vt 0.875846 0.348484
vt 0.337392 0.660442
vt 0.423526 0.616829
vt 0.423526 0.892473
vt 0.907835 0.001189
vt 0.907835 0.248692
vt 0.849457 0.017168
vt 0.245291 0.924602
vt 0.213270 0.791975
vt 0.245291 0.745871
vt 0.509495 0.616829
vt 0.509495 0.855600
vt 0.425904 0.645489
vt 0.637118 0.705074
vt 0.718763 0.649706
vt 0.718763 0.864068
vt 0.335014 0.538300
vt 0.001189 0.491016
vt 0.043732 0.325086
vt 0.335014 0.289963
vt 0.847078 0.268928
vt 0.781034 0.273885
vt 0.756091 0.045477
vt 0.847078 0.001189
vt 0.516855 0.613164
vt 0.472140 0.579231
vt 0.516855 0.561336
vt 0.753599 0.661451
vt 0.814632 0.627475
vt 0.814632 0.857424
vt 0.735716 0.827313
vt 0.210892 0.850567
vt 0.145417 0.805846
vt 0.145538 0.770532
vt 0.210892 0.745871
vt 0.883015 0.360662
vt 0.883015 0.716770
vt 0.833280 0.695901
vt 0.858322 0.359676
vt 0.634039 0.856323
vt 0.591589 0.818478
vt 0.634039 0.685026
vt 0.830901 0.625097
vt 0.735716 0.567229
vt 0.830901 0.359676
vt 0.937142 0.388671
vt 0.975599 0.359676
vt 0.975599 0.651291
vt 0.242702 0.540679
vt 0.242702 0.658709
vt 0.001189 0.561633
vt 0.970926 0.002474
vt 0.970926 0.244894
vt 0.952369 0.230950
vt 0.950805 0.001189
vt 0.284509 0.641872
vt 0.245081 0.593871
vt 0.284509 0.540679
vt 0.968343 0.820937
vt 0.989943 0.815587
vt 0.989943 0.967570
vt 0.827394 0.666021
vt 0.817010 0.642665
vt 0.827394 0.627475
vt 0.934764 0.623958
vt 0.885394 0.496040
vt 0.934764 0.359676
vt 0.326709 0.866362
vt 0.326709 0.888417
vt 0.299413 0.874950
vt 0.885394 0.634640
vt 0.906039 0.626336
vt 0.906039 0.699608
vt 0.296732 0.590736
vt 0.286888 0.572496
vt 0.296732 0.540679
vt 0.634740 0.682647
vt 0.524165 0.442609
vt 0.634740 0.359676
vt 0.172236 0.991165
vt 0.145417 0.981187
vt 0.172236 0.852945
vt 0.324570 0.272545
vt 0.357853 0.271306
vt 0.357853 0.282612
vt 0.731993 0.746252
vt 0.721141 0.664565
vt 0.731993 0.649706
vt 0.937142 0.667729
vt 0.973033 0.653670
vt 0.973033 0.813208
vt 0.948427 0.001189
vt 0.948427 0.299289
vt 0.910213 0.156084
vt 0.295862 0.618675
vt 0.286888 0.611798
vt 0.295862 0.593115
vt 0.001189 0.789722
vt 0.088175 0.745871
vt 0.088175 0.895712
vt 0.633437 0.276679
vt 0.742061 0.268072
vt 0.742061 0.341344
vt 0.794942 0.894227
vt 0.826903 0.859803
vt 0.826903 0.920310
vt 0.878224 0.265098
vt 0.905236 0.251071
vt 0.905236 0.319241
vt 0.335014 0.540679
vt 0.335014 0.863651
vt 0.299413 0.863983
vt 0.299707 0.541381
vn -0.3691 0.6801 -0.6335
vn 0.1604 0.1413 0.9769
vn -0.6748 0.2861 0.6802
vn -0.0400 0.9975 -0.0587
vn -0.0814 0.9946 -0.0646
vn -0.1294 0.9825 0.1336
vn -0.2927 0.1221 0.9484
vn -0.5034 0.8640 -0.0078
vn -0.9961 0.0866 0.0137
vn -0.7955 0.1980 -0.5727
vn -0.6673 0.4819 -0.5679
vn 0.5375 0.2843 -0.7939
vn 0.5716 0.3089 -0.7602
vn 0.6283 0.1663 -0.7600
vn 0.6057 0.1626 -0.7789
vn -0.9928 0.1198 0.0003
vn -0.9928 0.1200 0.0006
vn 0.9886 0.1477 -0.0302
vn 0.9887 0.1466 -0.0315
vn 0.9886 0.1473 -0.0307
vn 0.9885 0.1478 -0.0308
vn 0.0445 0.1172 -0.9921
vn -0.3890 0.0729 0.9184
vn -0.3858 0.0881 0.9184
vn -0.3241 0.0788 0.9427
vn -0.3242 0.0788 0.9427
vn -0.1212 0.2432 -0.9624
vn -0.3505 0.1037 0.9308
vn -0.1016 0.9910 -0.0866
vn -0.1423 0.9867 -0.0788
vn -0.3685 0.9296 0.0093
vn -0.4168 0.9082 0.0372
vn -0.4665 0.1269 -0.8754
vn -0.4664 0.1269 -0.8754
vn -0.5248 0.1107 -0.8440
vn 0.3894 0.0675 0.9186
vn 0.4668 0.1822 0.8654
vn 0.4982 0.1402 0.8556
vn -0.1380 0.9904 -0.0022
vn -0.0957 0.9954 -0.0034
vn -0.1469 0.9670 0.2083
vn 0.5419 0.3646 0.7572
vn -0.3238 0.9461 -0.0000
vn -0.4898 0.8719 -0.0000
vn -0.4864 0.8737 0.0006
vn -0.4905 0.8715 -0.0039
vn -0.5410 0.7664 -0.3463
vn -0.4998 0.8661 -0.0023
vn -0.4934 0.8698 -0.0003
vn -0.4964 0.8681 -0.0019
vn -0.5289 0.8473 -0.0479
vn 0.0709 0.1820 -0.9807
vn 0.1600 0.1196 -0.9798
vn -0.7096 0.1375 0.6910
vn -0.8414 0.2066 0.4994
vn 0.9887 0.1471 -0.0293
vn 0.9887 0.1475 -0.0287
vn 0.9888 0.1464 -0.0290
vn 0.6503 0.5139 0.5595
vn -0.8010 0.1794 -0.5712
vn -0.9228 0.1682 -0.3466
vn 0.0636 0.1496 -0.9867
vn -0.3283 0.1389 -0.9343
vn -0.2055 0.2115 -0.9555
vn -0.2859 0.0948 0.9536
vn -0.6087 0.1194 0.7844
vn -0.4919 0.1230 0.8619
vn -0.8659 0.1311 0.4828
vn 0.0807 0.1476 0.9858
vn 0.0159 0.9055 0.4240
vn 0.0397 0.6878 0.7249
vn 0.0050 0.6096 0.7927
vn 0.4695 0.1516 0.8698
vn 0.0316 0.4795 0.8770
vn -0.0061 0.1339 0.9910
vn -0.1267 0.1532 0.9800
vn 0.0769 0.1422 0.9869
vn -0.0058 0.9962 -0.0867
vn -0.0699 0.9950 -0.0712
vn -0.1042 0.9869 -0.1235
vn 0.5099 0.0707 0.8573
vn 0.4276 0.1542 0.8907
vn 0.5184 0.3463 0.7819
vn 0.6267 0.2749 0.7292
vn 0.5411 0.4157 0.7310
vn -0.0648 0.4501 0.8906
vn -0.0411 0.1888 0.9812
vn -0.4151 0.0986 0.9044
vn -0.4009 0.0771 0.9129
vn -0.4121 0.0549 0.9095
vn -0.0818 0.1631 0.9832
vn -0.1522 0.1389 0.9785
vn -0.1724 0.1294 0.9765
vn -0.2486 0.1127 0.9620
vn -0.2272 0.2074 0.9515
vn 0.7966 0.1847 0.5756
vn 0.7483 0.1745 0.6400
g Rock_9_Rock_9_Collor_Material
usemtl Collor_Material
s off
f 12/1/1 13/2/1 14/3/1
f 42/4/2 43/5/2 44/6/2
f 30/7/3 34/8/3 29/9/3
f 8/10/4 9/11/5 12/12/6
f 4/13/7 35/14/7 38/15/7
f 7/16/8 30/17/8 2/18/8
f 7/19/9 10/20/9 28/21/9
f 2/22/10 12/23/10 14/24/10
f 10/25/11 27/26/11 28/27/11
f 15/28/12 16/29/12 23/30/13 24/31/13
f 22/32/14 21/33/14 24/34/15 23/35/15
f 6/36/16 7/37/17 28/38/16 25/39/16
f 17/40/18 22/41/19 23/42/20 20/43/21
f 13/44/22 15/45/22 24/46/22
f 3/47/23 35/48/24 4/49/25 34/50/26
f 11/51/27 2/52/27 1/53/27
f 4/54/28 29/55/28 34/56/28
f 41/57/29 8/58/30 12/59/31 2/60/32
f 26/61/33 25/62/34 28/63/35 27/64/35
f 45/65/36 37/66/37 18/67/38
f 30/68/3 33/69/3 34/70/3
f 9/71/39 16/72/39 12/73/39
f 16/74/40 15/75/40 13/76/40
f 12/77/41 16/78/41 13/79/41
f 8/80/42 39/81/42 19/82/42
f 4/83/43 41/84/43 2/85/43
f 4/86/44 2/87/45 29/88/46
f 2/89/47 11/90/47 10/91/47
f 29/92/48 2/93/49 30/94/50
f 10/95/51 7/96/51 2/97/51
f 5/98/52 14/99/52 24/100/53 21/101/53
f 6/102/54 32/103/54 33/104/55 7/105/55
f 10/106/11 11/107/11 27/108/11
f 9/109/56 20/110/57 23/111/56 16/112/58
f 8/113/59 19/114/59 20/115/59 9/116/59
f 1/117/60 2/118/60 14/119/61 5/120/61
f 14/121/62 13/122/62 24/123/62
f 1/124/63 26/125/63 27/126/63
f 27/127/64 11/128/64 1/129/64
f 31/130/65 3/131/65 34/132/65
f 31/133/66 34/134/66 33/135/67 32/136/67
f 33/137/68 30/138/68 7/139/68
f 35/140/69 44/141/69 43/142/69
f 39/143/70 41/144/71 38/145/72
f 19/146/73 43/147/73 42/148/73
f 42/149/74 44/150/74 45/151/74
f 44/152/75 35/153/76 36/154/77
f 41/155/78 40/156/79 8/157/80
f 19/158/37 42/159/81 18/160/82
f 42/161/83 45/162/84 18/163/85
f 8/164/42 40/165/42 39/166/42
f 4/167/43 38/168/43 41/169/43
f 39/170/69 38/171/69 43/172/69
f 38/173/69 35/174/69 43/175/69
f 39/176/86 40/177/72 41/178/87
f 19/179/73 39/180/73 43/181/73
f 3/182/88 36/183/89 35/184/90
f 37/185/76 45/186/91 36/187/92
f 45/188/93 44/189/94 36/190/95
f 19/191/96 18/192/96 17/193/97 20/194/97
