# Blender v3.0.0 OBJ File: 'aa.blend'
# www.blender.org
mtllib Rock_4.mtl
o Rock_4
v -0.525847 1.696462 0.372789
v -0.466103 2.133701 0.095821
v -0.137704 2.527372 -0.320831
v 0.015540 2.564385 -0.074958
v 0.084858 1.171390 -0.861017
v 0.489271 1.094964 -0.783855
v -0.574326 1.437431 -0.535907
v -0.505116 1.914389 -0.506950
v -0.769159 0.000094 0.460927
v -0.580527 0.000094 0.757295
v 0.055913 0.542298 0.915021
v 0.309771 0.531589 0.920297
v 0.414575 0.258249 0.939710
v 0.399820 0.000094 0.955529
v -0.604929 0.138785 0.730296
v -0.056453 0.000094 0.947285
v 0.838503 0.000093 -0.274264
v 0.175940 0.000093 -0.751399
v -0.351627 0.000093 -0.675753
v 0.262484 2.569827 -0.311185
v 0.032483 2.607169 -0.163907
v -0.074176 2.490653 -0.426867
v 0.412946 2.484449 -0.302994
v 0.571060 1.249667 -0.706942
v 0.418451 2.118683 0.319306
v -0.290013 2.005140 -0.657669
v -0.180457 1.401187 -0.846908
v -0.723817 0.309551 0.558158
v 0.189348 1.386946 0.751661
v 0.653689 1.083042 0.625694
v 0.225577 1.296793 0.769730
v 0.894934 0.757940 -0.299421
v 0.480324 2.209084 -0.384762
v 0.900545 0.196274 0.452684
v 0.580237 2.259688 -0.071198
v 0.670442 1.937909 -0.136268
v -0.065278 1.263262 0.772636
v -0.349388 1.328423 0.660642
v -0.768214 0.000093 -0.237046
v 0.575761 0.000093 -0.692279
v 0.886771 0.000094 0.467281
v -0.315828 0.840734 -0.769035
v -0.452697 2.254537 -0.235653
vt 0.825414 0.806998
vt 0.757598 0.593978
vt 0.825414 0.517247
vt 0.707344 0.353926
vt 0.800606 0.320723
vt 0.800606 0.514714
vt 0.697896 0.485345
vt 0.001266 0.498958
vt 0.021575 0.344386
vt 0.122090 0.356420
vt 0.122090 0.582388
vt 0.001266 0.869414
vt 0.009047 0.816871
vt 0.092914 0.774542
vt 0.092914 0.888268
vt 0.182796 0.093318
vt 0.182796 0.341854
vt 0.001266 0.192896
vt 0.013769 0.001266
vt 0.844076 0.134143
vt 0.907749 0.001266
vt 0.907749 0.163409
vt 0.780240 0.912301
vt 0.757598 0.860017
vt 0.879235 0.809531
vt 0.879235 0.912695
vt 0.373962 0.333356
vt 0.373962 0.496569
vt 0.185328 0.501392
vt 0.319632 0.322677
vt 0.369764 0.657313
vt 0.338500 0.559797
vt 0.369764 0.503925
vt 0.376495 0.481024
vt 0.392613 0.375420
vt 0.562270 0.322677
vt 0.562270 0.503162
vt 0.662487 0.954125
vt 0.643779 0.923942
vt 0.662487 0.866413
vt 0.612782 0.931086
vt 0.641246 0.866413
vt 0.641246 0.938443
vt 0.206092 0.290273
vt 0.185328 0.001266
vt 0.378719 0.016523
vt 0.378719 0.320145
vt 0.878264 0.677658
vt 0.886796 0.525183
vt 0.938296 0.517247
vt 0.938296 0.678078
vt 0.335967 0.503925
vt 0.335967 0.659825
vt 0.185328 0.540028
vt 0.944960 0.809531
vt 0.944960 0.946557
vt 0.886895 0.931904
vt 0.881768 0.844845
vt 0.936640 0.125502
vt 0.910282 0.112482
vt 0.936640 0.001266
vt 0.280142 0.862077
vt 0.185328 0.807748
vt 0.280142 0.662358
vt 0.691085 0.243194
vt 0.691013 0.001266
vt 0.773619 0.024667
vt 0.773619 0.250635
vt 0.932702 0.765503
vt 0.882171 0.798763
vt 0.878264 0.724307
vt 0.932702 0.680611
vt 0.755066 0.743879
vt 0.662849 0.588732
vt 0.755066 0.517247
vt 0.755066 0.863090
vt 0.741568 0.847978
vt 0.755066 0.746411
vt 0.163085 0.581996
vt 0.146732 0.569578
vt 0.163085 0.522111
vt 0.940828 0.788842
vt 0.962943 0.672144
vt 0.962943 0.803332
vt 0.776152 0.218259
vt 0.841543 0.001266
vt 0.841543 0.282063
vt 0.947493 0.874115
vt 0.984747 0.809531
vt 0.984747 0.957536
vt 0.967784 0.146291
vt 0.998734 0.128881
vt 0.998734 0.291024
vt 0.373924 0.732435
vt 0.360179 0.677613
vt 0.373924 0.662358
vt 0.981980 0.320723
vt 0.981980 0.467543
vt 0.943137 0.325945
vt 0.916739 0.161033
vt 0.965252 0.128881
vt 0.965252 0.306547
vt 0.642096 0.270130
vt 0.688480 0.237836
vt 0.688480 0.312608
vt 0.662273 0.316101
vt 0.108183 0.772009
vt 0.001266 0.670623
vt 0.108183 0.584921
vt 0.464408 0.755973
vt 0.464408 0.875264
vt 0.363233 0.776140
vt 0.464408 0.753440
vt 0.376495 0.564556
vt 0.464408 0.505694
vt 0.598750 0.960945
vt 0.568836 0.935624
vt 0.598750 0.855147
vt 0.178695 0.832667
vt 0.110716 0.808868
vt 0.178695 0.584921
vt 0.688480 0.235303
vt 0.592663 0.144952
vt 0.688480 0.001266
vt 0.891015 0.493427
vt 0.803138 0.413519
vt 0.891015 0.320723
vt 0.516852 0.982949
vt 0.466941 0.927273
vt 0.516852 0.855147
vt 0.234676 0.935270
vt 0.185328 0.910157
vt 0.234676 0.864610
vt 0.124622 0.576919
vt 0.144200 0.522111
vt 0.144200 0.582144
vt 0.610250 0.750155
vt 0.610250 0.852614
vt 0.466941 0.779613
vt 0.590131 0.249802
vt 0.481888 0.150607
vt 0.590131 0.001266
vt 0.357647 0.662358
vt 0.357647 0.870699
vt 0.282674 0.830876
vt 0.695363 0.322677
vt 0.695363 0.514714
vt 0.571150 0.437406
vt 0.564802 0.377588
vt 0.827947 0.568134
vt 0.875731 0.517247
vt 0.875731 0.798043
vt 0.940828 0.520050
vt 0.981165 0.517247
vt 0.981165 0.669611
vt 0.267825 0.958553
vt 0.237208 0.906774
vt 0.267825 0.864610
vt 0.736785 0.750155
vt 0.736785 0.863880
vt 0.612782 0.757759
vt 0.940605 0.509419
vt 0.893547 0.364136
vt 0.940605 0.320723
vt 0.110716 0.847489
vt 0.181684 0.835200
vt 0.181684 0.943373
vt 0.555082 0.505694
vt 0.555082 0.747622
vt 0.466941 0.568404
vt 0.479355 0.001266
vt 0.479355 0.304888
vt 0.381251 0.202723
vt 0.660317 0.741321
vt 0.564802 0.596391
vt 0.660317 0.517247
vt 0.124622 0.386402
vt 0.177009 0.344386
vt 0.177009 0.519578
vt 0.914206 0.297130
vt 0.858013 0.306547
vt 0.844076 0.217781
vt 0.914206 0.165942
vt 0.566303 0.986905
vt 0.519384 0.931777
vt 0.566303 0.855147
vt 0.482630 0.293652
vt 0.481888 0.253225
vt 0.623523 0.252335
vt 0.623523 0.305451
vn -0.8689 0.0087 0.4949
vn -0.8057 0.2696 0.5275
vn -0.7082 0.1919 0.6795
vn -0.9897 0.1429 0.0121
vn -0.9903 0.1382 0.0138
vn -0.9895 0.1436 0.0152
vn 0.8439 -0.0804 -0.5304
vn 0.7692 0.0073 -0.6390
vn -0.0182 0.0625 0.9979
vn -0.0184 0.0629 0.9979
vn 0.9783 0.1696 0.1194
vn 0.9662 0.1691 0.1946
vn 0.9438 0.2174 0.2489
vn 0.4200 0.7840 0.4571
vn -0.6063 0.1356 -0.7836
vn -0.3785 0.1953 0.9048
vn -0.3962 0.1153 0.9109
vn -0.4845 -0.0544 0.8731
vn -0.6512 0.2337 0.7220
vn -0.1969 0.5437 0.8159
vn 0.2366 0.3293 -0.9141
vn -0.8428 -0.0439 0.5364
vn -0.8427 -0.0430 0.5367
vn -0.9898 0.1420 0.0128
vn -0.9899 0.1418 0.0077
vn -0.9906 0.1368 0.0030
vn -0.9900 0.1412 0.0013
vn -0.0123 0.1917 0.9814
vn 0.9950 -0.0762 -0.0643
vn -0.5929 0.7640 0.2545
vn -0.3383 0.1221 0.9331
vn -0.1412 -0.1032 -0.9846
vn 0.1458 -0.0809 -0.9860
vn 0.1745 -0.0684 -0.9823
vn 0.8879 0.3164 -0.3340
vn 0.4497 0.3458 0.8235
vn -0.6232 0.5441 -0.5618
vn 0.8270 0.3238 0.4596
vn 0.7435 -0.0621 -0.6658
vn -0.0890 0.9235 -0.3731
vn -0.6170 0.0398 -0.7860
vn -0.8424 -0.0453 0.5369
vn -0.8427 -0.0445 0.5366
vn 0.4077 0.2193 0.8864
vn 0.8768 0.2255 -0.4247
vn 0.6286 0.0233 0.7774
vn 0.6922 0.3116 0.6510
vn 0.9347 0.2239 0.2761
vn 0.9425 0.2119 0.2585
vn 0.9354 0.1628 0.3140
vn 0.9951 -0.0747 -0.0648
vn -0.0180 0.0639 0.9978
vn -0.3374 0.1254 0.9330
vn -0.2816 0.1683 0.9447
vn -0.2656 0.1084 0.9580
vn -0.3383 0.0562 0.9394
vn -0.3383 0.1273 0.9324
vn -0.2207 -0.0243 0.9750
vn -0.1413 -0.1027 -0.9846
vn -0.1409 -0.1031 -0.9846
vn -0.7246 -0.0452 -0.6877
vn -0.7244 -0.0455 -0.6879
vn -0.9894 0.1454 -0.0013
vn -0.9886 0.1504 -0.0047
vn -0.9884 0.1522 -0.0014
vn 0.7080 0.0028 0.7062
g Rock_4_Rock_4_Collor_Material
usemtl Collor_Material
s off
f 28/1/1 38/2/2 1/3/3
f 8/4/4 7/5/5 1/6/6 2/7/4
f 32/8/7 17/9/7 40/10/8 6/11/8
f 14/12/9 13/13/10 11/14/10 16/15/10
f 32/16/11 36/17/12 30/18/13 34/19/11
f 4/20/14 25/21/14 20/22/14
f 8/23/15 26/24/15 27/25/15 7/26/15
f 15/27/16 11/28/17 38/29/18 28/30/19
f 1/31/20 38/32/20 37/33/20
f 2/34/20 1/35/20 29/36/20 25/37/20
f 20/38/21 23/39/21 33/40/21
f 15/41/22 9/42/23 10/43/22
f 28/44/24 1/45/25 7/46/26 39/47/27
f 37/48/28 11/49/28 12/50/28 31/51/28
f 17/52/29 32/53/29 34/54/29
f 2/55/30 4/56/30 3/57/30 43/58/30
f 15/59/31 10/60/31 16/61/31
f 18/62/32 19/63/32 42/64/32
f 18/65/33 5/66/34 6/67/34 40/68/33
f 33/69/35 23/70/35 35/71/35 36/72/35
f 25/73/36 29/74/36 30/75/36
f 29/76/36 31/77/36 30/78/36
f 4/79/30 21/80/30 3/81/30
f 22/82/37 26/83/37 3/84/37
f 25/85/38 30/86/38 35/87/38
f 35/88/14 23/89/14 25/90/14
f 23/91/14 20/92/14 25/93/14
f 20/94/14 21/95/14 4/96/14
f 24/97/39 32/98/39 6/99/39
f 37/100/20 29/101/20 1/102/20
f 21/103/40 20/104/40 22/105/40 3/106/40
f 25/107/20 4/108/20 2/109/20
f 27/110/41 42/111/41 7/112/41
f 33/113/21 24/114/21 5/115/21
f 24/116/21 6/117/21 5/118/21
f 5/119/21 27/120/21 33/121/21
f 27/122/21 26/123/21 33/124/21
f 26/125/21 22/126/21 33/127/21
f 22/128/21 20/129/21 33/130/21
f 15/131/42 28/132/42 9/133/43
f 29/134/28 37/135/28 31/136/28
f 30/137/44 31/138/44 12/139/44
f 32/140/45 24/141/45 36/142/45
f 24/143/45 33/144/45 36/145/45
f 34/146/46 30/147/46 12/148/47 13/149/47
f 36/150/48 35/151/49 30/152/50
f 34/153/51 41/154/51 17/155/51
f 13/156/52 12/157/52 11/158/52
f 16/159/53 11/160/54 15/161/55
f 11/162/56 37/163/57 38/164/58
f 27/165/59 5/166/59 42/167/59
f 5/168/60 18/169/60 42/170/60
f 39/171/61 7/172/61 42/173/61
f 42/174/62 19/175/62 39/176/62
f 9/177/63 28/178/64 39/179/65
f 26/180/37 8/181/37 43/182/37 3/183/37
f 2/184/4 43/185/4 8/186/4
f 41/187/66 34/188/66 13/189/66 14/190/66
