# Blender v3.0.0 OBJ File: 'aa.blend'
# www.blender.org
mtllib Rock_3.mtl
o Rock_3
v -0.918665 0.002850 0.808597
v -2.192047 -0.043495 -2.003636
v -3.059962 0.026820 -1.422058
v -3.268194 0.005411 -0.296521
v -3.001249 0.005104 0.600653
v -2.153438 -0.014141 0.995851
v -1.263037 0.002299 0.813449
v -1.023249 0.001413 0.173280
v -0.097989 0.002559 1.729761
v 0.689493 0.011807 2.011569
v 1.379435 -0.028061 1.531112
v 1.845117 0.018462 0.792525
v 1.854431 -0.008913 0.375541
v 2.158197 0.001847 0.377707
v 2.349763 -0.008833 0.783215
v 3.015251 -0.000459 0.995606
v 4.253731 -0.004406 0.490958
v 4.900280 0.006158 -0.593193
v 4.392924 -0.001745 -2.081432
v 3.209132 -0.001727 -2.837599
v 1.948823 -0.000643 -2.714702
v 1.714813 -0.005868 -2.283479
v 1.599243 -0.006737 -2.491684
v 1.094118 -0.005911 -2.758826
v -0.301330 -0.001073 -2.866742
v -0.938901 -0.001182 -2.226872
v -0.988570 0.051560 -1.562868
v -1.220181 0.005803 -2.007334
v 1.619673 0.009125 -1.273732
v 1.165127 0.016582 -0.647312
v 0.263758 -0.022064 -0.353209
v -0.346865 0.000810 -0.719867
v 0.136026 -0.013814 0.359126
v -2.585957 4.446036 -1.099833
v -1.973968 4.523337 -1.486657
v -1.406867 4.282379 -1.524381
v -1.147068 4.359727 -1.292548
v -1.267721 4.505532 -0.127333
v -2.091527 3.973173 0.516759
v -2.720580 4.173195 -0.314498
v 1.452436 4.633233 -0.623051
v 1.874351 4.629648 -1.181535
v 1.954669 4.601637 -1.957103
v 2.188612 4.420543 -2.256937
v 3.094320 4.488720 -2.363014
v 3.904979 4.455643 0.086272
v 2.975889 4.441805 0.485752
v 2.663051 4.472190 0.407444
v 2.466756 4.599648 -0.119960
v 1.310670 3.484067 -2.108611
v 1.416139 3.502350 -1.960896
v 1.330326 3.657821 -1.382375
v 0.976436 3.696133 -0.894996
v 0.292837 3.717461 -0.648690
v -0.180411 3.699701 -0.933727
v -0.489473 3.440130 -1.970939
v 0.952885 3.694268 -2.270130
v 1.460031 2.658720 0.282049
v 1.318507 2.635683 0.538551
v 0.495914 2.597940 -0.155525
v 1.054125 2.617877 -0.340811
v 0.158820 1.473316 0.582687
v -0.821833 1.764013 -0.900558
v -0.537393 1.929068 -0.482750
v -0.040661 1.962526 -0.206864
v -1.855866 1.567419 -1.627851
v -1.977015 3.061885 -1.345191
v -2.531361 3.069043 -1.028609
v -2.752359 1.525042 -1.153565
v -1.326187 1.532635 -1.661138
v -1.474972 3.074259 -1.395934
v -1.059842 1.532147 -1.296572
v -1.234704 3.066476 -1.150872
v -1.144462 1.524708 -0.101313
v -1.326973 3.063038 -0.180896
v -1.439937 1.533271 0.514371
v -1.567923 3.071791 0.321950
v -2.183068 1.357485 0.682410
v -2.076588 3.066186 0.431877
v -2.730577 1.536710 0.379446
v -2.528771 3.071640 0.183332
v -2.861847 1.903399 -0.401243
v -2.668151 3.063119 -0.346673
v 1.563026 1.857061 -1.995205
v 1.401538 1.853125 -2.216117
v 1.491645 1.854009 -1.331367
v 1.073603 1.855877 -0.768610
v 0.264159 1.861156 -0.485257
v -0.289948 1.851328 -0.806781
v -0.751782 1.857229 -1.377484
v -0.665533 1.862213 -2.055643
v -0.180288 1.864291 -2.529736
v 0.991783 1.853621 -2.428329
v 1.289273 1.536825 -0.634047
v 1.376819 3.076250 -0.633783
v 1.787224 3.074058 0.021459
v 1.759867 1.535636 0.114877
v 1.719685 1.531514 -1.236144
v 1.796650 3.064066 -1.206500
v 1.798244 1.531556 -2.018203
v 1.875817 3.064855 -1.991416
v 2.079642 1.537274 -2.427884
v 2.141970 3.070382 -2.324566
v 3.117816 1.531073 -2.493402
v 4.048943 3.067235 -1.817261
v 4.560859 1.542158 -0.613250
v 4.457378 3.071342 -0.634881
v 3.968767 3.067016 0.174332
v 2.993034 1.537293 0.698606
v 2.956262 2.952745 0.621972
v 2.536891 1.535952 0.552847
v 2.597693 2.958282 0.521594
v 2.333739 1.543636 0.105073
v 2.396133 3.077720 -0.011253
v 0.153309 0.744196 0.456486
v -0.609089 0.768623 0.726275
v 1.465625 0.938700 0.771756
v 0.661681 1.434713 1.453408
v 0.658871 0.756563 1.630812
v 0.089260 0.756101 1.435451
v 1.493053 1.319901 0.576289
v 1.585398 1.304667 0.258824
v 0.282753 1.315613 0.249211
v 0.382578 1.309337 -0.233421
v 1.099093 1.311026 -0.468456
v 4.220776 4.634662 -1.017127
v 4.412923 3.743721 -0.649267
v 4.194327 4.581037 -0.297514
v 3.975984 4.588469 -0.539011
v 3.743235 1.553834 0.440536
v 4.077599 1.844098 0.010239
v 4.085646 1.047587 0.304245
v -0.118904 3.122592 -2.402040
v -0.122914 3.700321 -2.168643
v 3.879761 4.556310 -1.756140
v 4.015676 4.009539 -1.791996
v 4.047762 4.575222 -1.555996
v 3.834818 4.563901 -1.599424
v 4.276207 1.517372 -1.491211
v 4.173655 1.877359 -1.573605
v 3.773134 1.536945 -2.133765
v 3.909395 1.124249 -2.075741
v -0.253072 1.489743 0.736762
v 0.176299 1.435758 1.292247
v -0.326491 1.397073 0.823642
v -0.337360 1.391137 0.726688
v -0.668052 1.766425 0.490103
v -0.790526 1.896892 0.050522
v -0.094707 1.976544 0.161773
v -2.479288 4.265761 0.319111
v -2.551583 3.795346 0.225797
v -1.555646 4.195340 0.411667
v -0.676081 2.940341 -1.398698
v 2.815765 3.063489 -2.395362
v 3.099648 2.644803 -2.394295
v 3.202769 3.237273 -2.375393
v 3.097405 3.359654 -2.396884
v 1.646248 4.588770 -0.388879
v 1.851340 4.630673 -0.413058
v 2.205853 4.618400 -0.071601
v 1.820557 3.719783 -0.023344
v 0.285533 1.926712 0.247167
v 0.561206 2.540121 0.243822
vt 0.074219 0.579999
vt 0.074219 0.579999
vt 0.074219 0.579999
vt 0.074219 0.579999
vt 0.074219 0.579999
vt 0.074219 0.579999
vt 0.074219 0.579999
vt 0.074219 0.579999
vt 0.074219 0.579999
vt 0.074219 0.579999
vt 0.074219 0.579999
vt 0.074219 0.579999
vt 0.074219 0.579999
vt 0.074219 0.579999
vt 0.074219 0.579999
vt 0.074219 0.579999
vt 0.074219 0.579999
vt 0.074219 0.579999
vt 0.074219 0.579999
vt 0.074219 0.579999
vt 0.074219 0.579999
vt 0.074219 0.579999
vt 0.074219 0.579999
vt 0.074219 0.579999
vt 0.074219 0.579999
vt 0.074219 0.579999
vt 0.074219 0.579999
vt 0.074219 0.579999
vt 0.074219 0.579999
vt 0.074219 0.579999
vt 0.074219 0.579999
vt 0.074219 0.579999
vt 0.074219 0.579999
vt 0.074219 0.579999
vt 0.074219 0.579999
vt 0.074219 0.579999
vt 0.074219 0.579999
vt 0.074219 0.579999
vt 0.074219 0.579999
vt 0.074219 0.579999
vt 0.074219 0.579999
vt 0.074219 0.579999
vt 0.074219 0.579999
vt 0.074219 0.579999
vt 0.074219 0.579999
vt 0.074219 0.579999
vt 0.074219 0.579999
vt 0.074219 0.579999
vt 0.074219 0.579999
vt 0.074219 0.579999
vt 0.074219 0.579999
vt 0.074219 0.579999
vt 0.074219 0.579999
vt 0.074219 0.579999
vt 0.074219 0.579999
vt 0.074219 0.579999
vt 0.074219 0.579999
vt 0.074219 0.579999
vt 0.074219 0.579999
vt 0.074219 0.579999
vt 0.074219 0.579999
vt 0.074219 0.579999
vt 0.074219 0.579999
vt 0.074219 0.579999
vt 0.074219 0.579999
vt 0.074219 0.579999
vt 0.074219 0.579999
vt 0.074219 0.579999
vt 0.074219 0.579999
vt 0.074219 0.579999
vt 0.074219 0.579999
vt 0.074219 0.579999
vt 0.074219 0.579999
vt 0.074219 0.579999
vt 0.074219 0.579999
vt 0.074219 0.579999
vt 0.074219 0.579999
vt 0.074219 0.579999
vt 0.074219 0.579999
vt 0.074219 0.579999
vt 0.074219 0.579999
vt 0.074219 0.579999
vt 0.074219 0.579999
vt 0.074219 0.579999
vt 0.074219 0.579999
vt 0.074219 0.579999
vt 0.074219 0.579999
vt 0.074219 0.579999
vt 0.074219 0.579999
vt 0.074219 0.579999
vt 0.074219 0.579999
vt 0.074219 0.579999
vt 0.074219 0.579999
vt 0.074219 0.579999
vt 0.074219 0.579999
vt 0.074219 0.579999
vt 0.074219 0.579999
vt 0.074219 0.579999
vt 0.074219 0.579999
vt 0.074219 0.579999
vt 0.074219 0.579999
vt 0.074219 0.579999
vt 0.074219 0.579999
vt 0.074219 0.579999
vt 0.074219 0.579999
vt 0.074219 0.579999
vt 0.074219 0.579999
vt 0.074219 0.579999
vt 0.074219 0.579999
vt 0.074219 0.579999
vt 0.074219 0.579999
vt 0.074219 0.579999
vt 0.074219 0.579999
vt 0.074219 0.579999
vt 0.074219 0.579999
vt 0.074219 0.579999
vt 0.074219 0.579999
vt 0.074219 0.579999
vt 0.074219 0.579999
vt 0.074219 0.579999
vt 0.074219 0.579999
vt 0.074219 0.579999
vt 0.074219 0.579999
vt 0.074219 0.579999
vt 0.074219 0.579999
vt 0.074219 0.579999
vt 0.074219 0.579999
vt 0.074219 0.579999
vt 0.074219 0.579999
vt 0.074219 0.579999
vt 0.074219 0.579999
vt 0.074219 0.579999
vt 0.074219 0.579999
vt 0.074219 0.579999
vt 0.074219 0.579999
vt 0.074219 0.579999
vt 0.074219 0.579999
vt 0.074219 0.579999
vt 0.074219 0.579999
vt 0.074219 0.579999
vt 0.074219 0.579999
vt 0.074219 0.579999
vt 0.074219 0.579999
vt 0.074219 0.579999
vt 0.074219 0.579999
vt 0.074219 0.579999
vt 0.074219 0.579999
vt 0.074219 0.579999
vt 0.074219 0.579999
vt 0.074219 0.579999
vt 0.074219 0.579999
vt 0.074219 0.579999
vt 0.074219 0.579999
vt 0.074219 0.579999
vt 0.074219 0.579999
vt 0.074219 0.579999
vt 0.074219 0.579999
vt 0.074219 0.579999
vt 0.074219 0.579999
vt 0.074219 0.579999
vt 0.074219 0.579999
vt 0.074219 0.579999
vt 0.074219 0.579999
vn 0.7064 0.3987 0.5848
vn 0.8336 0.2916 0.4691
vn 0.8391 0.2883 0.4613
vn 0.0503 0.9987 0.0002
vn 0.0070 1.0000 -0.0011
vn -0.7738 0.0889 0.6271
vn -0.9861 0.1166 -0.1184
vn -0.9852 0.1180 -0.1245
vn -0.9842 0.1191 -0.1307
vn -0.8880 0.0025 -0.4598
vn -0.9743 0.0980 -0.2028
vn -0.0165 0.9986 0.0500
vn -0.0122 0.9985 0.0542
vn -0.0155 0.9985 0.0532
vn -0.7616 0.6464 0.0458
vn 0.5418 0.1952 -0.8176
vn 0.5196 0.2272 -0.8237
vn 0.5118 0.2399 -0.8249
vn 0.3688 0.2192 0.9033
vn 0.5390 0.4009 0.7408
vn 0.0784 -0.0527 -0.9955
vn 0.0957 -0.0933 -0.9910
vn 0.0531 -0.0034 -0.9986
vn 0.8200 0.2055 0.5342
vn 0.8374 0.2122 0.5037
vn 0.7719 0.2109 0.5997
vn 0.2867 0.7651 -0.5766
vn -0.6009 -0.0657 0.7966
vn 0.0282 0.3924 0.9194
vn 0.0552 0.0670 0.9962
vn 0.0556 0.0686 0.9961
vn -0.1288 0.8012 -0.5844
vn 0.0394 0.9745 0.2209
vn -0.0147 0.9718 0.2352
vn 0.4282 0.8797 -0.2067
vn -0.1600 0.9857 0.0532
vn 0.6768 0.4282 -0.5988
vn 0.0516 0.0658 0.9965
vn 0.0531 0.0664 0.9964
vn 0.9411 0.2169 0.2594
vn -0.8446 0.0803 0.5293
vn 0.5633 0.8000 -0.2066
vn 0.1612 0.9588 -0.2338
vn 0.1034 0.9946 -0.0031
vn 0.0055 0.9974 -0.0712
vn -0.9649 0.0651 -0.2546
vn -0.9627 0.0688 -0.2616
vn -0.9636 0.0623 -0.2599
vn -0.5882 0.8082 -0.0270
vn 0.3976 0.8976 -0.1902
vn 0.3978 0.8976 -0.1897
vn 0.3951 0.8991 -0.1883
vn 0.2071 0.1653 -0.9642
vn -0.3641 0.9240 -0.1171
vn -0.1487 0.9336 0.3259
vn -0.1798 0.9466 0.2676
vn -0.1408 0.9254 0.3519
vn 0.3161 0.1843 0.9307
vn 0.8217 -0.0304 -0.5691
vn -0.1364 0.9873 0.0817
vn 0.3457 0.9236 -0.1656
vn 0.3779 0.9073 -0.1841
vn 0.3776 0.2329 0.8962
vn 0.8149 0.3625 0.4523
vn -0.1826 0.9832 0.0015
vn -0.6070 0.2941 -0.7383
vn 0.1665 0.3716 -0.9133
vn -0.9137 0.3988 0.0780
vn -0.4632 0.7731 0.4332
vn -0.8659 0.4809 0.1377
vn -0.7335 0.0645 0.6766
vn -0.8261 0.0362 0.5623
vn -0.6523 0.3167 0.6886
vn 0.0657 0.9973 -0.0323
vn 0.5399 -0.0672 -0.8390
vn -0.1050 -0.0737 -0.9917
vn -0.0370 0.9970 -0.0681
vn -0.0397 0.9974 -0.0597
vn -0.1556 0.9389 0.3071
vn -0.8925 0.4022 0.2042
vn 0.0590 0.9969 0.0513
vn 0.4781 0.0881 0.8739
vn 0.4806 0.0355 -0.8762
vn 0.9314 0.1950 -0.3075
vn 0.1805 -0.0246 0.9833
vn 0.8040 -0.0393 0.5933
vn -0.1727 0.9673 0.1859
vn -0.0851 0.3727 -0.9240
vn 0.7932 -0.0111 0.6089
vn -0.1031 0.0930 -0.9903
vn -0.0326 0.9945 -0.0992
vn 0.5886 0.1977 -0.7839
vn 0.7012 0.3044 -0.6447
vn -0.3145 0.3586 -0.8789
vn -0.9355 0.0753 0.3453
vn -0.0463 0.5163 0.8552
vn 0.2329 0.0298 -0.9721
vn -0.7533 0.1208 0.6464
vn -0.3761 0.1740 0.9101
vn 0.6913 0.4096 0.5952
vn 0.6880 0.4113 0.5980
vn 0.8218 0.3033 0.4824
vn -0.0316 0.9693 0.2439
vn 0.0116 0.9899 0.1414
vn -0.0071 0.9922 0.1241
vn -0.9335 0.1947 0.3010
vn -0.9332 0.1947 0.3020
vn -0.9441 0.2261 0.2400
vn -0.9442 0.2263 0.2393
vn -0.9837 0.1793 0.0149
vn -0.9842 0.1769 0.0054
vn -0.9689 0.1130 -0.2203
vn -0.9705 0.1101 -0.2146
vn 0.1824 -0.0668 0.9810
vn 0.2620 -0.1043 0.9594
vn 0.2611 -0.1032 0.9598
vn 0.1814 -0.0662 0.9812
vn -0.0040 0.0531 0.9986
vn -0.0047 0.0529 0.9986
vn 0.0716 0.0801 0.9942
vn 0.0723 0.0802 0.9942
vn -0.7327 0.1556 0.6625
vn -0.7365 0.1506 0.6594
vn -0.6145 0.2986 0.7302
vn -0.6081 0.3050 0.7329
vn 0.5514 0.0506 -0.8327
vn 0.5500 0.0493 -0.8337
vn 0.5503 0.0495 -0.8335
vn -0.4185 0.0279 -0.9078
vn -0.4207 0.0247 -0.9069
vn -0.2824 0.1750 -0.9432
vn -0.2762 0.1787 -0.9443
vn -0.7112 0.3356 0.6177
vn -0.7119 0.3346 0.6175
vn -0.6294 0.4289 0.6480
vn -0.6286 0.4301 0.6480
vn -0.8261 0.0359 -0.5624
vn -0.8265 0.0358 -0.5618
vn -0.7902 0.0623 -0.6097
vn -0.7898 0.0627 -0.6101
vn -0.7948 0.0798 -0.6016
vn -0.7951 0.0798 -0.6012
vn -0.8239 0.0577 -0.5638
vn -0.8236 0.0582 -0.5641
vn 0.2360 0.2513 0.9387
vn 0.2328 0.2500 0.9399
vn 0.1168 0.1735 0.9779
vn 0.1197 0.1761 0.9771
vn -0.3936 0.1373 0.9090
vn -0.3905 0.1359 0.9105
vn -0.5287 0.1987 0.8253
vn -0.5333 0.2002 0.8219
vn -0.2152 0.9747 -0.0605
vn 0.0152 0.8631 0.5048
vn -0.0260 0.9891 -0.1451
vn -0.0235 0.9897 -0.1409
vn 0.1651 0.9850 0.0500
vn 0.1557 0.9869 0.0431
vn -0.5017 -0.0675 -0.8624
vn -0.5015 -0.0676 -0.8625
vn -0.5198 -0.0778 -0.8507
vn -0.5200 -0.0775 -0.8506
vn 0.8266 0.0800 -0.5571
vn 0.8343 0.0892 -0.5440
vn 0.8343 0.0893 -0.5440
vn 0.6672 -0.1094 -0.7368
vn 0.7207 -0.1309 -0.6807
vn 0.7210 -0.1239 -0.6818
vn 0.6644 -0.1163 -0.7383
vn -0.0116 0.9998 -0.0138
vn 0.0240 0.9996 0.0166
vn 0.0237 0.9996 0.0161
vn -0.0119 0.9998 -0.0141
vn 0.3745 0.1013 0.9217
vn 0.3736 0.1010 0.9221
vn 0.4797 0.1522 0.8641
vn 0.4811 0.1526 0.8633
vn -0.8715 0.1629 -0.4626
vn -0.8713 0.1628 -0.4629
vn -0.8138 0.1385 -0.5644
vn -0.8140 0.1387 -0.5641
vn -0.0703 0.1937 0.9786
vn 0.0473 0.1570 0.9865
vn 0.0462 0.1575 0.9864
vn -0.0740 0.1938 0.9783
vn -0.9933 0.0515 -0.1036
vn -0.9930 0.0585 -0.1030
vn -0.9927 0.0573 -0.1059
vn -0.9934 0.0521 -0.1024
vn -0.8166 0.0551 -0.5746
vn -0.7887 0.0693 -0.6108
vn -0.7887 0.0695 -0.6108
vn 0.8373 0.1561 -0.5241
vn 0.8378 0.1563 -0.5231
vn 0.8366 0.1558 -0.5252
vn 0.8098 0.1607 -0.5643
vn 0.8093 0.1600 -0.5653
vn 0.7506 0.1357 -0.6466
vn 0.7534 0.1341 -0.6437
vn 0.0495 0.9451 0.3231
vn 0.0511 0.9488 0.3116
vn 0.0920 0.9940 0.0595
vn 0.0893 0.9934 0.0724
vn 0.9969 0.0710 0.0348
vn 0.9969 0.0711 0.0346
vn 0.9972 0.0536 0.0523
vn 0.9972 0.0534 0.0525
vn 0.4841 0.0896 -0.8704
vn 0.9948 0.0618 0.0804
vn 0.9949 0.0619 0.0801
vn 0.9891 0.0790 0.1242
vn 0.9890 0.0793 0.1245
vn 0.1480 0.1255 -0.9810
vn -0.3070 0.3563 -0.8825
vn -0.3668 0.3832 -0.8477
vn 0.1163 0.1435 -0.9828
vn -0.1169 0.1741 -0.9778
vn -0.0336 0.2341 -0.9716
vn -0.0321 0.2349 -0.9715
vn -0.1162 0.1750 -0.9777
vn -0.9413 0.0670 0.3310
vn -0.9342 0.1035 0.3414
vn -0.9218 0.0609 0.3829
vn -0.9221 0.0600 0.3822
vn 0.5400 0.2196 -0.8125
vn 0.5478 0.2083 -0.8102
vn 0.5130 0.2524 -0.8204
vn 0.7619 0.1088 0.6385
vn 0.7640 0.1075 0.6361
vn 0.8477 0.0593 0.5272
vn 0.8455 0.0611 0.5304
vn 0.3996 0.0820 0.9130
vn 0.3997 0.0818 0.9130
vn 0.3878 0.0720 0.9189
vn 0.3880 0.0719 0.9189
vn -0.4087 0.0937 -0.9078
vn -0.4021 0.0908 -0.9111
vn -0.5746 0.1902 -0.7960
vn -0.5827 0.1962 -0.7887
vn -0.7037 0.1108 -0.7018
vn -0.7021 0.1112 -0.7034
vn -0.7004 0.1125 -0.7049
vn -0.7022 0.1120 -0.7031
vn 0.8253 0.2103 0.5241
vn 0.8407 0.1943 0.5055
vn 0.8404 0.1949 0.5056
vn 0.8251 0.2106 0.5243
vn 0.8291 0.0310 0.5582
vn 0.8308 0.0292 0.5558
vn 0.8304 0.0353 0.5560
vn -0.2711 0.1881 -0.9440
vn -0.2697 0.1898 -0.9441
vn -0.3475 0.1249 -0.9293
vn -0.3486 0.1241 -0.9290
vn -0.9565 0.2108 -0.2019
vn -0.9556 0.2084 -0.2084
vn 0.3862 0.0689 0.9199
vn 0.3356 0.1068 0.9359
vn 0.3348 0.1065 0.9363
vn 0.3862 0.0696 0.9198
vn -0.8205 0.0353 0.5706
vn -0.8202 0.0352 0.5710
vn -0.8541 0.0760 0.5145
vn -0.8545 0.0766 0.5138
vn -0.0508 0.0770 -0.9957
vn 0.9355 0.1892 0.2983
vn 0.9348 0.1875 0.3018
vn 0.8737 0.1327 0.4679
vn 0.8754 0.1336 0.4646
vn -0.3114 0.1136 -0.9435
vn 0.9328 0.1899 -0.3064
vn 0.9215 0.2099 -0.3267
vn 0.9214 0.2100 -0.3270
vn 0.9327 0.1900 -0.3065
vn -0.0827 0.9966 -0.0056
vn -0.0833 0.9965 -0.0084
vn -0.0966 0.9948 -0.0325
vn -0.0983 0.9947 -0.0288
vn -0.2220 0.1991 -0.9545
vn -0.2019 0.1992 -0.9589
vn 0.0805 0.1309 -0.9881
vn 0.0605 0.1402 -0.9883
vn -0.9779 -0.0344 -0.2060
vn -0.9780 -0.0344 -0.2058
vn -0.9825 -0.0531 -0.1784
vn -0.9825 -0.0530 -0.1784
vn -0.9952 0.0891 -0.0408
vn -0.9952 0.0881 -0.0425
vn -0.9873 0.1463 0.0614
vn -0.9871 0.1456 0.0660
vn -0.5316 -0.0994 0.8411
vn -0.4616 -0.0720 0.8842
vn -0.4621 -0.0724 0.8839
vn -0.5327 -0.0992 0.8404
vn 0.5224 0.0646 -0.8503
vn 0.5266 0.0640 -0.8477
vn 0.3864 0.1044 -0.9164
vn 0.3823 0.1062 -0.9179
vn -0.2875 0.4024 0.8692
vn -0.2869 0.4018 0.8696
vn -0.3269 0.4386 0.8371
vn -0.3281 0.4392 0.8363
vn -0.2742 0.0343 0.9611
vn -0.2739 0.0343 0.9612
vn -0.3059 0.0442 0.9510
vn -0.3064 0.0445 0.9509
vn -0.3304 0.1650 0.9293
vn -0.3315 0.1646 0.9290
vn -0.2553 0.1931 0.9474
vn -0.2537 0.1937 0.9477
vn 0.9773 0.1348 0.1635
vn 0.9783 0.1330 0.1591
vn 0.9777 0.1330 0.1625
vn 0.9767 0.1351 0.1666
vn 0.8635 0.0806 0.4978
vn 0.8333 0.0454 0.5509
vn 0.8337 0.0462 0.5503
vn 0.8608 0.0818 0.5023
vn -0.8166 0.0765 0.5720
vn -0.7367 0.0026 0.6762
vn -0.7396 0.0046 0.6730
vn -0.8176 0.0786 0.5703
vn -0.8551 0.0387 0.5170
vn -0.8359 0.0576 0.5458
vn -0.8357 0.0578 0.5462
vn -0.8549 0.0389 0.5173
vn -0.3171 0.2428 0.9168
vn -0.3169 0.2431 0.9168
vn -0.3034 0.2313 0.9244
vn -0.3029 0.2317 0.9244
vn -0.2951 0.0734 -0.9526
vn -0.3361 0.0956 -0.9370
vn -0.3365 0.0958 -0.9368
vn -0.2954 0.0736 -0.9525
vn -0.5010 0.0556 0.8637
vn -0.5144 0.0611 0.8554
vn -0.5146 0.0612 0.8553
vn 0.1703 0.1238 0.9776
vn 0.1697 0.1237 0.9777
vn 0.2346 0.1492 0.9606
vn 0.2354 0.1497 0.9603
vn 0.9631 0.2667 -0.0369
vn 0.9630 0.2676 -0.0310
vn 0.9272 0.2037 0.3143
vn 0.9287 0.2068 0.3078
vn -0.6554 0.1642 -0.7372
vn -0.6824 0.1391 -0.7176
vn -0.2991 0.3701 -0.8796
vn -0.2562 0.3846 -0.8868
vn 0.8295 0.1142 -0.5468
vn 0.8295 0.1141 -0.5467
vn 0.8191 0.1264 -0.5596
vn 0.8190 0.1265 -0.5597
vn 0.9905 0.0941 0.0999
vn 0.9876 0.0820 0.1340
vn 0.9876 0.0820 0.1338
vn 0.9905 0.0942 0.0999
vn 0.9951 0.0882 0.0444
vn 0.9952 0.0875 0.0432
vn 0.9815 0.1440 0.1264
vn 0.9811 0.1449 0.1280
vn 0.6948 0.0593 -0.7167
vn 0.6775 0.0546 -0.7335
vn 0.9159 0.1172 -0.3840
vn 0.9322 0.1227 -0.3406
vn 0.5209 0.1388 -0.8422
vn 0.5212 0.1389 -0.8421
vn 0.4616 0.1562 -0.8732
vn 0.4614 0.1565 -0.8733
vn -0.1416 0.0677 -0.9876
vn -0.0607 0.0132 -0.9981
vn -0.0598 0.0123 -0.9981
vn -0.1404 0.0678 -0.9878
vn 0.9595 0.1697 -0.2246
vn 0.9452 0.1714 -0.2779
vn 0.6213 0.1308 -0.7726
vn 0.6582 0.1359 -0.7405
vn -0.8934 0.0348 0.4479
vn -0.8924 0.0339 0.4500
vn -0.9349 0.0366 0.3530
vn -0.9172 0.0929 0.3876
vn -0.9644 0.1601 -0.2104
vn -0.9654 0.1622 -0.2043
vn -0.9652 0.1643 -0.2033
vn -0.9652 0.1642 -0.2033
vn 0.9910 -0.0612 0.1188
vn 0.9955 -0.0390 0.0862
vn 0.9955 -0.0378 0.0865
vn 0.9911 -0.0614 0.1181
vn 0.8385 0.1932 -0.5095
vn 0.8337 0.1926 -0.5176
vn 0.6189 0.1133 -0.7772
vn 0.6314 0.1212 -0.7659
vn 0.4073 0.1633 -0.8986
vn 0.4047 0.1622 -0.8999
vn 0.5200 0.1983 -0.8308
vn 0.5243 0.1990 -0.8280
vn 0.0635 0.1639 -0.9844
vn 0.0632 0.1638 -0.9845
vn 0.1017 0.1889 -0.9767
vn 0.1019 0.1891 -0.9766
vn 0.2871 0.0562 0.9562
vn 0.2865 0.0559 0.9565
vn 0.3524 0.0901 0.9315
vn 0.3532 0.0905 0.9312
vn 0.8756 0.1107 0.4702
vn 0.8746 0.1098 0.4723
vn 0.9164 0.1491 0.3714
vn 0.9174 0.1500 0.3686
vn 0.3532 0.0712 0.9328
vn 0.3537 0.0710 0.9326
vn 0.3131 0.0898 0.9455
vn 0.3126 0.0900 0.9456
vn -0.9830 0.0867 -0.1619
vn -0.9831 0.0868 -0.1614
vn -0.9681 0.1141 -0.2229
vn -0.9679 0.1145 -0.2235
vn -0.5021 0.0884 0.8603
vn -0.5021 0.0885 0.8603
vn -0.5153 0.0834 0.8529
vn -0.5152 0.0836 0.8530
vn 0.9722 0.0695 0.2237
vn 0.9740 0.0690 0.2160
vn 0.8299 0.1375 0.5408
vn 0.8241 0.1407 0.5488
vn -0.0694 -0.0861 -0.9939
vn -0.1382 -0.1091 -0.9844
vn -0.1372 -0.1096 -0.9845
vn -0.0685 -0.0860 -0.9939
vn -0.0035 0.0232 -0.9997
vn 0.0531 -0.0035 -0.9986
vn 0.0414 0.0225 -0.9989
vn -0.1309 0.9910 0.0287
vn -0.0470 0.9942 0.0969
vn -0.1303 0.9915 -0.0035
vn -0.1328 0.9911 -0.0032
vn -0.9608 0.1110 0.2542
vn -0.9628 0.1488 0.2253
vn -0.8739 0.4749 -0.1036
vn -0.9547 0.2129 0.2078
vn -0.8842 0.1687 0.4355
vn -0.8841 0.1687 0.4357
vn -0.8994 0.1764 0.3999
vn -0.8995 0.1764 0.3998
vn -0.6700 0.1543 -0.7261
vn -0.6689 0.1536 -0.7273
vn -0.7260 0.1878 -0.6616
vn -0.7273 0.1888 -0.6598
vn -0.9938 0.0773 -0.0803
vn -0.9938 0.0771 -0.0804
vn -0.9913 0.0586 -0.1182
vn -0.9914 0.0570 -0.1178
vn 0.0696 0.9967 0.0405
vn 0.0675 0.9970 0.0385
vn -0.0461 0.9967 -0.0667
vn -0.0429 0.9971 -0.0636
vn -0.9607 0.1607 0.2262
vn -0.9607 0.1608 0.2265
vn -0.9541 0.1389 0.2653
vn -0.9541 0.1394 0.2651
vn 0.6674 0.2625 0.6969
vn 0.7706 0.2275 0.5953
vn 0.6740 0.2947 0.6774
vn -0.3665 0.8388 0.4027
vn -0.2869 0.8977 0.3343
vn 0.0942 0.9751 -0.2010
vn 0.9335 0.0566 -0.3541
vn 0.9335 0.0565 -0.3542
vn 0.9441 0.0337 -0.3280
vn 0.9455 0.0337 -0.3238
vn -0.2513 0.0989 0.9629
vn -0.2515 0.0991 0.9628
vn -0.2532 0.1009 0.9621
vn -0.2530 0.1008 0.9622
vn -0.2968 0.0985 0.9499
vn -0.2956 0.0985 0.9502
vn -0.1966 0.0723 0.9778
vn -0.1987 0.0710 0.9775
vn 0.9216 -0.0718 0.3814
vn 0.8636 -0.0171 0.5039
vn 0.8614 -0.0188 0.5076
vn 0.9205 -0.0706 0.3843
vn -0.4688 0.2319 0.8523
vn -0.4653 0.2296 0.8549
vn -0.3425 0.1509 0.9273
vn -0.3484 0.1560 0.9243
vn -0.8179 0.0378 -0.5741
vn -0.7137 0.0871 -0.6950
vn -0.7095 0.0841 -0.6996
vn -0.8160 0.0388 -0.5767
vn 0.9581 0.0374 -0.2840
vn 0.9578 0.0357 -0.2853
vn 0.8974 0.1957 -0.3954
vn 0.8916 0.2068 -0.4029
vn -0.2509 -0.0153 0.9679
vn -0.2997 0.0263 0.9537
vn -0.3006 0.0264 0.9534
vn -0.2510 -0.0149 0.9679
vn 0.7825 0.1312 -0.6087
vn 0.9446 0.0491 -0.3244
vn 0.9475 0.0536 -0.3152
vn 0.9463 0.0484 -0.3196
vn 0.9435 0.0425 -0.3285
vn 0.0975 0.0803 -0.9920
vn 0.0527 0.1083 -0.9927
vn 0.0523 0.1084 -0.9927
vn 0.0974 0.0804 -0.9920
vn 0.2743 0.0361 -0.9610
vn 0.2759 0.0322 -0.9606
vn 0.1647 0.1882 -0.9682
vn 0.1609 0.1952 -0.9675
vn 0.8206 0.0883 0.5646
vn 0.7842 0.0630 0.6173
vn 0.7846 0.0634 0.6167
vn 0.8210 0.0885 0.5640
vn -0.9662 -0.0543 0.2519
vn -0.9626 -0.0472 0.2668
vn -0.9626 -0.0470 0.2667
vn -0.9662 -0.0545 0.2518
vn -0.8094 0.0403 -0.5859
vn -0.7924 0.0523 -0.6077
vn -0.7924 0.0522 -0.6078
vn -0.9928 0.0469 -0.1101
vn -0.9927 0.0482 -0.1102
vn -0.9943 0.0569 -0.0899
vn -0.9948 0.0506 -0.0888
g Rock_3_Rock_3_Collor_Material
usemtl Collor_Material
s off
f 117/1/1 11/2/2 12/3/3
f 49/4/4 42/5/4 159/6/4
f 159/6/5 42/5/5 41/7/5
f 90/8/6 89/9/6 55/10/6
f 56/11/7 91/12/8 90/8/9
f 60/13/10 123/14/10 162/15/10
f 60/13/11 124/16/11 123/14/11
f 118/17/12 62/18/13 144/19/14
f 146/20/15 145/21/15 143/22/15
f 142/23/16 20/24/17 104/25/18
f 16/26/19 17/27/19 132/28/19
f 119/29/20 10/30/20 11/2/20
f 156/31/21 154/32/22 157/33/23
f 131/34/24 132/28/25 106/35/26
f 35/36/27 37/37/27 36/38/27
f 150/39/28 151/40/28 81/41/28
f 161/42/29 159/6/29 158/43/29
f 161/42/30 114/44/31 49/4/31
f 43/45/32 45/46/32 44/47/32
f 47/48/33 49/4/33 48/49/33
f 34/50/34 38/51/35 35/36/36
f 127/52/37 129/53/37 128/54/37
f 161/42/38 96/55/39 114/44/39
f 138/56/40 136/57/40 135/58/40
f 95/59/41 96/55/41 161/42/41
f 57/60/42 52/61/42 50/62/42
f 50/62/43 52/61/43 51/63/43
f 52/61/44 57/60/44 53/64/44
f 53/64/45 55/10/45 54/65/45
f 56/11/46 90/8/47 153/66/48
f 56/11/49 55/10/49 134/67/49
f 62/18/50 118/17/51 117/1/52
f 117/1/53 115/68/53 62/18/53
f 148/69/54 64/70/54 63/71/54
f 149/72/55 148/69/56 147/73/57
f 16/26/58 130/74/58 109/75/58
f 105/76/59 140/77/59 141/78/59
f 35/36/60 38/51/61 37/37/62
f 119/29/63 11/2/63 118/17/63
f 127/52/64 126/79/64 129/53/64
f 129/53/65 126/79/65 138/56/65
f 133/80/66 56/11/66 134/67/66
f 136/57/67 138/56/67 137/81/67
f 145/21/68 146/20/68 116/82/68
f 143/22/69 145/21/69 144/19/69
f 153/66/70 55/10/70 56/11/70
f 153/66/71 90/8/71 55/10/71
f 41/7/72 95/59/72 161/42/72
f 159/6/73 161/42/73 160/83/73
f 49/4/74 159/6/74 160/83/74
f 105/76/75 155/84/75 156/31/75
f 155/84/76 103/85/76 154/32/76
f 45/46/77 138/56/78 135/58/78
f 159/6/79 41/7/79 158/43/79
f 60/13/80 162/15/80 163/86/80
f 144/19/81 62/18/81 143/22/81
f 16/26/82 132/28/82 130/74/82
f 142/23/83 104/25/83 141/78/83
f 140/77/84 106/35/84 139/87/84
f 161/42/85 49/4/85 160/83/85
f 46/88/86 127/52/86 128/54/86
f 129/53/87 46/88/87 128/54/87
f 57/60/88 133/80/88 134/67/88
f 108/89/89 130/74/89 131/34/89
f 103/85/90 157/33/90 154/32/90
f 138/56/91 126/79/91 137/81/91
f 136/57/92 45/46/92 135/58/92
f 139/87/93 19/90/93 142/23/93
f 62/18/94 146/20/94 143/22/94
f 150/39/95 40/91/95 151/40/95
f 150/39/96 39/92/96 152/93/96
f 45/46/97 156/31/97 157/33/97
f 41/7/98 161/42/98 158/43/98
f 162/15/99 59/94/99 163/86/99
f 117/1/100 118/17/101 11/2/102
f 61/95/103 60/13/104 163/86/105
f 4/96/106 5/97/107 80/98/108 82/99/109
f 91/12/110 26/100/111 27/101/112 90/8/113
f 77/102/114 152/93/115 39/92/116 79/103/117
f 96/55/118 97/104/119 113/105/120 114/44/121
f 145/21/122 116/82/123 120/106/124 144/19/125
f 136/57/126 105/76/127 156/31/128 45/46/126
f 33/107/129 1/108/130 116/82/131 115/68/132
f 116/82/133 1/108/134 9/109/135 120/106/136
f 98/110/137 94/111/138 95/59/139 99/112/140
f 29/113/141 30/114/142 94/111/143 98/110/144
f 78/115/145 6/116/146 7/117/147 76/118/148
f 80/98/149 78/115/150 79/103/151 81/41/152
f 38/51/153 40/91/153 150/39/154 152/93/154
f 42/5/155 138/56/156 45/46/157 43/45/158
f 67/119/159 68/120/160 34/50/161 35/36/162
f 122/121/163 125/122/163 61/95/164 58/123/165
f 73/124/166 71/125/167 36/38/168 37/37/169
f 53/64/170 57/60/171 134/67/172 55/10/173
f 147/73/174 1/108/175 33/107/176 149/72/177
f 102/126/178 21/127/179 22/128/180 100/129/181
f 14/130/182 113/105/183 97/104/184 13/131/185
f 43/45/186 101/132/187 99/112/188 42/5/189
f 102/126/190 100/129/190 101/132/191 103/85/192
f 27/101/193 28/133/194 70/134/193 72/135/195
f 32/136/196 27/101/197 63/71/198 64/70/199
f 46/88/200 129/53/201 49/4/202 47/48/203
f 74/137/204 8/138/205 27/101/206 72/135/207
f 155/84/208 105/76/208 141/78/208 104/25/208
f 29/113/209 22/128/210 84/139/211 86/140/212
f 28/133/213 2/141/214 66/142/215 70/134/216
f 21/127/217 102/126/218 104/25/219 20/24/220
f 114/44/221 112/143/222 48/49/223 49/4/224
f 142/23/225 19/90/226 20/24/227
f 87/144/228 86/140/229 52/61/230 53/64/231
f 47/48/232 110/145/233 108/89/234 46/88/235
f 67/119/236 66/142/237 69/146/238 68/120/239
f 91/12/240 56/11/241 133/80/242 92/147/243
f 18/148/244 106/35/245 132/28/246 17/27/247
f 107/149/248 108/89/249 131/34/250 106/35/250
f 146/20/251 62/18/252 115/68/253 116/82/254
f 69/146/255 3/150/255 4/96/255 82/99/256
f 110/145/257 109/75/258 130/74/259 108/89/260
f 30/114/261 13/131/262 97/104/263 94/111/264
f 155/84/265 104/25/265 102/126/265 103/85/265
f 76/118/266 7/117/267 8/138/268 74/137/269
f 30/114/270 31/151/270 124/16/270 125/122/270
f 18/148/271 19/90/272 139/87/273 106/35/274
f 65/152/275 64/70/276 148/69/277 149/72/278
f 71/125/279 70/134/280 66/142/281 67/119/282
f 68/120/283 83/153/284 40/91/285 34/50/286
f 63/71/287 27/101/288 8/138/289 148/69/290
f 39/92/291 150/39/292 81/41/293 79/103/294
f 50/62/295 85/154/296 93/155/297 57/60/298
f 9/109/299 10/30/300 119/29/301 120/106/302
f 111/156/303 109/75/304 110/145/305 112/143/306
f 111/156/307 15/157/308 16/26/309 109/75/310
f 33/107/311 31/151/312 65/152/313 149/72/314
f 108/89/315 107/149/316 127/52/317 46/88/318
f 32/136/319 89/9/320 90/8/321 27/101/322
f 94/111/323 97/104/324 96/55/325 95/59/326
f 120/106/327 119/29/328 118/17/329 144/19/330
f 125/122/331 124/16/332 60/13/333 61/95/334
f 32/136/335 31/151/335 88/158/336 89/9/337
f 79/103/338 78/115/339 76/118/340 77/102/341
f 121/159/342 12/3/343 13/131/344 122/121/345
f 2/141/346 3/150/347 69/146/348 66/142/349
f 122/121/350 13/131/351 30/114/352 125/122/353
f 86/140/354 84/139/355 51/63/356 52/61/357
f 74/137/358 72/135/359 73/124/360 75/160/361
f 84/139/362 85/154/363 50/62/364 51/63/365
f 65/152/366 31/151/367 32/136/368 64/70/369
f 44/47/370 45/46/371 157/33/372 103/85/373
f 22/128/374 23/161/375 85/154/376 84/139/377
f 113/105/378 111/156/379 112/143/380 114/44/381
f 68/120/382 69/146/383 82/99/384 83/153/385
f 75/160/386 73/124/387 37/37/388 38/51/389
f 72/135/390 70/134/391 71/125/392 73/124/393
f 23/161/394 24/162/395 93/155/396 85/154/397
f 24/162/398 25/163/399 92/147/400 93/155/401
f 88/158/402 31/151/403 30/114/404 87/144/405
f 77/102/406 76/118/407 74/137/408 75/160/409
f 88/158/410 87/144/411 53/64/412 54/65/413
f 31/151/414 33/107/415 123/14/416 124/16/417
f 55/10/418 89/9/419 88/158/420 54/65/421
f 121/159/422 122/121/423 58/123/424 59/94/425
f 67/119/426 35/36/427 36/38/428 71/125/429
f 156/31/430 155/84/431 154/32/432
f 58/123/433 61/95/434 163/86/435 59/94/436
f 8/138/437 1/108/438 147/73/439 148/69/440
f 14/130/441 15/157/442 111/156/443 113/105/444
f 92/147/445 25/163/446 26/100/447 91/12/448
f 100/129/449 22/128/450 29/113/451 98/110/452
f 138/56/453 42/5/454 49/4/455 129/53/456
f 82/99/457 80/98/458 81/41/459 83/153/460
f 131/34/461 130/74/462 132/28/463
f 34/50/464 40/91/465 38/51/466
f 107/149/467 106/35/468 140/77/469 105/76/470
f 33/107/471 12/3/472 121/159/473 123/14/474
f 112/143/475 110/145/476 47/48/477 48/49/478
f 75/160/479 38/51/480 152/93/481 77/102/482
f 5/97/483 6/116/484 78/115/485 80/98/486
f 101/132/487 43/45/488 44/47/489 103/85/490
f 126/79/491 127/52/492 136/57/493 137/81/494
f 121/159/495 59/94/496 162/15/497 123/14/498
f 139/87/499 142/23/499 141/78/499 140/77/499
f 105/76/500 136/57/501 127/52/502 107/149/503
f 93/155/504 92/147/505 133/80/506 57/60/507
f 117/1/508 12/3/509 33/107/510 115/68/511
f 30/114/512 29/113/513 86/140/514 87/144/515
f 151/40/516 40/91/517 83/153/518 81/41/519
f 99/112/520 95/59/520 41/7/521 42/5/522
f 101/132/523 100/129/524 98/110/525 99/112/526
