# Blender v3.0.0 OBJ File: 'aa.blend'
# www.blender.org
mtllib Rock_5.mtl
o Rock_5
v -0.657626 0.000000 -0.566579
v -0.462107 0.000000 -0.734806
v -0.489424 0.777306 -0.371090
v -0.274315 1.090546 -0.318817
v -0.293905 0.777306 -0.539317
v 0.566579 -0.000000 -0.657626
v 0.734806 -0.000000 -0.462107
v 0.664041 0.281377 -0.401220
v 0.476957 0.356354 -0.580514
v -0.427338 0.000000 0.806970
v -0.734806 0.000000 0.462107
v -0.318817 0.950411 0.274316
v -0.539317 0.777306 0.293906
v -0.371090 0.777306 0.489424
v 0.657626 -0.000000 0.566579
v 0.064911 -0.000000 0.705005
v 0.293906 0.777306 0.539317
v 0.489424 0.777306 0.371090
v 0.181244 0.943777 -0.355236
v 0.160946 1.031275 -0.297354
v 0.204772 0.992644 -0.162187
v 0.392503 0.941820 -0.105378
v 0.431718 0.825920 -0.315818
v 0.388494 0.828271 -0.367459
vt 0.734855 0.903706
vt 0.584094 0.898961
vt 0.575243 0.863398
vt 0.734855 0.772157
vt 0.343659 0.605557
vt 0.106902 0.616327
vt 0.000820 0.356253
vt 0.343659 0.400410
vt 0.776930 0.594418
vt 0.776930 0.770517
vt 0.575243 0.713540
vt 0.345732 0.879739
vt 0.000820 0.856842
vt 0.345732 0.778064
vt 0.915870 0.102626
vt 0.999180 0.000820
vt 0.999180 0.132369
vt 0.932964 0.233144
vt 0.932964 0.329522
vt 0.854369 0.288925
vt 0.281693 0.617967
vt 0.281693 0.776425
vt 0.001307 0.707973
vt 0.000820 0.619513
vt 0.357145 0.829678
vt 0.418013 0.660119
vt 0.440782 0.664082
vt 0.440782 0.869229
vt 0.892568 0.584963
vt 0.796986 0.368611
vt 0.892568 0.356253
vt 0.957130 0.861569
vt 0.957130 0.963244
vt 0.868669 0.963244
vt 0.868669 0.834476
vt 0.319717 0.725583
vt 0.283332 0.652677
vt 0.342702 0.617967
vt 0.342702 0.727985
vt 0.852729 0.000820
vt 0.852729 0.349335
vt 0.725293 0.330865
vt 0.914230 0.000820
vt 0.914230 0.231504
vt 0.854369 0.166374
vt 0.795347 0.592779
vt 0.575243 0.523715
vt 0.582770 0.454634
vt 0.795347 0.356253
vt 0.635193 0.281697
vt 0.516216 0.024188
vt 0.723654 0.000820
vt 0.723654 0.281697
vt 0.402943 0.634000
vt 0.345298 0.356253
vt 0.573604 0.369859
vt 0.573604 0.658479
vt 0.542432 0.352109
vt 0.516216 0.326501
vt 0.542432 0.283336
vt 0.919351 0.659158
vt 0.972065 0.594418
vt 0.972065 0.704436
vt 0.776600 0.948255
vt 0.736495 0.917563
vt 0.776600 0.772157
vt 0.276285 0.008588
vt 0.514577 0.000820
vt 0.514577 0.349335
vt 0.281659 0.192360
vt 0.942891 0.584963
vt 0.894208 0.517141
vt 0.942891 0.347962
vt 0.274646 0.063361
vt 0.274646 0.292072
vt 0.000820 0.354614
vt 0.000820 0.000820
vt 0.478021 0.876471
vt 0.442421 0.669937
vt 0.573604 0.660119
vt 0.573604 0.888829
vt 0.917712 0.832837
vt 0.868669 0.767768
vt 0.917712 0.594418
vt 0.778569 0.594418
vt 0.867030 0.594418
vt 0.867030 0.875296
vt 0.778569 0.875296
vn 0.1174 0.5667 -0.8155
vn 0.9248 0.3804 0.0066
vn 0.9314 0.3603 -0.0519
vn 0.9697 0.2383 0.0541
vn 0.9297 0.3603 -0.0768
vn 0.1196 0.9642 0.2368
vn 0.9366 0.3170 0.1494
vn 0.9722 0.1963 0.1279
vn 0.9708 0.2284 0.0728
vn -0.5656 0.4981 -0.6573
vn -0.5256 0.7206 0.4522
vn -0.7097 0.3098 0.6327
vn -0.7097 0.3099 0.6327
vn -0.7195 0.3149 0.6190
vn 0.7132 0.3951 -0.5790
vn -0.0465 0.7837 0.6194
vn 0.7195 0.3149 -0.6190
vn 0.4565 0.8477 -0.2702
vn 0.4173 0.8541 -0.3104
vn 0.0728 0.2284 -0.9708
vn 0.2357 0.9324 0.2740
vn 0.1561 0.9496 0.2717
vn 0.1565 0.9496 0.2716
vn 0.2252 0.1392 0.9643
vn 0.6190 0.3149 0.7195
vn -0.0728 0.2284 0.9708
vn 0.1893 0.3596 0.9137
vn 0.9174 0.3445 -0.1990
vn 0.3505 0.8464 -0.4009
vn 0.1996 0.3653 -0.9092
vn 0.1449 0.4152 -0.8981
vn 0.1895 0.4333 -0.8811
vn 0.8940 0.4237 -0.1456
vn 0.9159 0.3984 -0.0487
vn 0.8706 0.4854 -0.0801
vn -0.9708 0.2284 -0.0728
vn -0.8277 0.5568 0.0695
vn -0.8277 0.5568 0.0694
vn -0.6194 0.7837 -0.0465
vn 0.1708 0.5387 -0.8250
vn 0.2631 0.5065 -0.8211
vn -0.6190 0.3149 -0.7195
g Rock_5_Rock_5_Collor_Material
usemtl Collor_Material
s off
f 4/1/1 20/2/1 19/3/1 5/4/1
f 23/5/2 18/6/3 15/7/4 8/8/5
f 21/9/6 4/10/6 12/11/6
f 8/12/7 15/13/8 7/14/9
f 3/15/10 4/16/10 5/17/10
f 12/18/11 13/19/11 14/20/11
f 11/21/12 10/22/13 14/23/14 13/24/14
f 9/25/15 24/26/15 23/27/15 8/28/15
f 17/29/16 12/30/16 14/31/16
f 8/32/17 7/33/17 6/34/17 9/35/17
f 24/36/18 19/37/18 21/38/19 23/39/19
f 2/40/20 9/41/20 6/42/20
f 22/43/21 17/44/21 18/45/21
f 17/46/22 22/47/23 21/48/23 12/49/23
f 17/50/24 16/51/24 15/52/25 18/53/25
f 16/54/26 17/55/26 14/56/27 10/57/27
f 19/58/28 20/59/28 21/60/28
f 22/61/29 23/62/29 21/63/29
f 21/64/6 20/65/6 4/66/6
f 19/67/30 9/68/31 2/69/20 5/70/32
f 23/71/33 22/72/34 18/73/35
f 13/74/36 3/75/36 1/76/36 11/77/36
f 12/78/37 4/79/38 3/80/39 13/81/39
f 19/82/40 24/83/32 9/84/41
f 3/85/42 5/86/42 2/87/42 1/88/42
