# Blender v3.0.0 OBJ File: 'aa.blend'
# www.blender.org
mtllib Rock_2.mtl
o Rock_2
v 1.895084 0.000000 -1.124697
v -0.162536 0.000000 -1.443272
v -0.123634 -0.000000 1.212283
v -1.801878 -0.000000 0.950003
v -1.784251 0.000000 -1.258212
v 0.186023 -0.000000 0.861725
v 0.437322 2.000000 0.505290
v 0.503551 0.000000 -1.135804
v 0.447564 2.000000 -0.777810
v 2.225566 -0.000000 -0.122027
v 1.867148 2.000000 -0.124887
v -0.165476 2.340593 -0.141112
v -2.187475 -0.000000 0.295553
v -1.894354 2.340593 0.076118
v 0.442443 2.000000 -0.136260
v 1.136348 2.000000 0.510870
v 1.706977 2.000000 0.172927
v -1.602436 1.578845 0.586797
v -1.278881 2.340593 0.434996
v -1.679121 2.340593 0.262128
v -1.083562 2.340593 -0.751098
v -1.546469 1.938977 -0.808307
v -1.683477 2.340593 -0.344023
v -0.161889 2.340593 -0.590381
v 0.049683 2.223060 -0.812927
v -0.119493 2.111861 -0.895869
v -0.400116 2.340593 -0.810543
v 1.581936 1.733546 -0.816509
v 1.258934 2.000000 -0.771333
v 1.660123 2.000000 -0.525003
v 2.002090 -0.000000 0.521264
v 1.266812 -0.000000 0.870352
v 1.422553 1.763342 0.555568
v 1.632867 1.761595 0.432596
v -0.169423 2.340593 0.353379
v -0.365786 2.340593 0.529124
v -0.157532 1.675559 0.737606
v -0.000452 2.245111 0.536894
vt 0.990955 0.209812
vt 0.971588 0.162285
vt 0.990955 0.111161
vt 0.197920 0.865177
vt 0.238908 0.679384
vt 0.238908 0.917120
vt 0.897623 0.881213
vt 0.951755 0.733852
vt 0.951755 0.927846
vt 0.835862 0.216564
vt 0.812916 0.192564
vt 0.835862 0.127032
vt 0.243181 0.001167
vt 0.243181 0.360716
vt 0.092124 0.319461
vt 0.001167 0.029134
vt 0.813437 0.945349
vt 0.759691 0.868944
vt 0.813437 0.726791
vt 0.821989 0.646289
vt 0.895288 0.564229
vt 0.895288 0.796663
vt 0.733028 0.953120
vt 0.667985 0.913238
vt 0.733028 0.844409
vt 0.111536 0.902689
vt 0.111536 0.942684
vt 0.001167 0.940234
vt 0.869302 0.248928
vt 0.869302 0.559598
vt 0.782411 0.494266
vt 0.800735 0.230547
vt 0.993466 0.731517
vt 0.964874 0.611738
vt 0.993466 0.554572
vt 0.923861 0.025115
vt 0.969253 0.001167
vt 0.969253 0.217400
vt 0.886231 0.925208
vt 0.821989 0.814842
vt 0.886231 0.798998
vt 0.358405 0.627273
vt 0.447279 0.511356
vt 0.447279 0.870905
vt 0.602110 0.844409
vt 0.602110 0.937823
vt 0.511715 0.907141
vt 0.243026 0.519639
vt 0.214628 0.454189
vt 0.243026 0.363051
vt 0.871973 0.515848
vt 0.871637 0.478874
vt 0.917497 0.449114
vt 0.917497 0.549765
vt 0.385595 0.927356
vt 0.507590 0.908304
vt 0.507590 0.958204
vt 0.238908 0.980557
vt 0.178973 0.958349
vt 0.238908 0.919455
vt 0.116878 0.900355
vt 0.010070 0.872438
vt 0.001167 0.733410
vt 0.116878 0.679384
vt 0.356070 0.511356
vt 0.356070 0.842526
vt 0.267126 0.832288
vt 0.245515 0.524568
vt 0.576673 0.001167
vt 0.576673 0.248890
vt 0.273734 0.220776
vt 0.245515 0.004048
vt 0.984440 0.882253
vt 0.984440 0.998833
vt 0.954090 0.909127
vt 0.507590 0.905969
vt 0.449614 0.856372
vt 0.507590 0.778143
vt 0.819654 0.564229
vt 0.819654 0.724456
vt 0.549851 0.694911
vt 0.511715 0.580575
vt 0.195585 0.869645
vt 0.119213 0.753131
vt 0.195585 0.679384
vt 0.756279 0.950575
vt 0.735363 0.916486
vt 0.756279 0.844409
vt 0.966526 0.230547
vt 0.966526 0.494999
vt 0.934444 0.466108
vt 0.702153 0.127032
vt 0.702153 0.224403
vt 0.579008 0.127032
vt 0.932109 0.230547
vt 0.932109 0.446779
vt 0.871637 0.414876
vt 0.212293 0.368571
vt 0.212293 0.677050
vt 0.041316 0.631481
vt 0.001167 0.363051
vt 0.674537 0.561895
vt 0.511715 0.541986
vt 0.521631 0.269289
vt 0.674537 0.251225
vt 0.993466 0.382521
vt 0.968861 0.281353
vt 0.993466 0.230547
vt 0.848801 0.001167
vt 0.848801 0.124698
vt 0.579008 0.079848
vt 0.579131 0.042873
vt 0.508890 0.511356
vt 0.508890 0.775808
vt 0.449614 0.551060
vt 0.994655 0.108826
vt 0.971588 0.044659
vt 0.994655 0.001167
vt 0.962539 0.564229
vt 0.962539 0.731517
vt 0.897623 0.645632
vt 0.780077 0.251225
vt 0.780077 0.559598
vt 0.685928 0.530136
vt 0.676872 0.256790
vt 0.810581 0.127032
vt 0.810581 0.224403
vt 0.704487 0.224403
vt 0.851136 0.073111
vt 0.921527 0.001167
vt 0.921527 0.198737
vt 0.757356 0.726791
vt 0.757356 0.842074
vt 0.511715 0.809947
vt 0.989369 0.879918
vt 0.954090 0.758739
vt 0.989369 0.733852
vt 0.870815 0.933840
vt 0.870815 0.983740
vt 0.837670 0.981772
vt 0.821989 0.927543
vt 0.351274 0.844861
vt 0.351274 0.913048
vt 0.245515 0.913048
vt 0.173833 0.995454
vt 0.119213 0.914846
vt 0.173833 0.871980
vt 0.992464 0.505383
vt 0.968861 0.449024
vt 0.992464 0.384856
vt 0.239771 0.675943
vt 0.214628 0.625045
vt 0.239771 0.521974
vt 0.604445 0.887842
vt 0.665650 0.844409
vt 0.665650 0.974091
vt 0.372531 0.915383
vt 0.372531 0.955921
vt 0.245515 0.941549
vt 0.509380 0.509021
vt 0.245515 0.492930
vt 0.262572 0.272619
vt 0.509380 0.251225
vn 0.8560 0.2353 0.4604
vn 0.0000 1.0000 0.0000
vn 0.2512 0.3034 -0.9192
vn -0.9153 0.0776 -0.3952
vn -0.9531 0.1743 -0.2473
vn -0.0804 0.2436 -0.9665
vn -0.0884 0.2396 -0.9669
vn -0.0846 0.2313 -0.9692
vn 0.2189 0.2701 0.9376
vn 0.6099 0.4046 0.6814
vn 0.2978 0.1311 0.9456
vn 0.7346 0.1987 0.6488
vn 0.7345 0.1987 0.6489
vn 0.0079 0.1764 -0.9843
vn -0.3741 0.3315 0.8661
vn -0.7411 0.1541 0.6535
vn -0.4460 0.6076 -0.6572
vn -0.8740 0.2090 -0.4387
vn 0.4020 0.6144 0.6789
vn 0.4887 0.8724 0.0039
vn 0.4128 0.6144 -0.6724
vn -0.0987 0.2694 0.9580
vn -0.0988 0.2694 0.9580
vn -0.1167 0.2415 0.9633
vn -0.1167 0.2416 0.9633
vn 0.2429 0.2388 -0.9402
vn 0.4129 0.1717 -0.8945
vn -0.1101 0.2375 -0.9651
vn -0.0929 0.2394 -0.9665
vn -0.0909 0.2442 -0.9655
vn -0.5557 0.4084 0.7242
vn 0.9261 0.2216 -0.3052
vn 0.9261 0.2216 -0.3053
vn 0.8897 0.1588 -0.4281
vn -0.0079 0.1764 0.9843
vn -0.0838 0.2565 -0.9629
vn 0.4250 0.1341 0.8952
vn 0.5024 0.1087 0.8577
vn 0.8840 0.1591 0.4395
vn 0.9236 0.2097 0.3209
vn -0.8404 0.2201 0.4952
vn -0.6333 0.2486 0.7329
vn -0.2089 0.7687 -0.6045
vn 0.4550 0.7420 -0.4924
vn 0.8632 0.2353 -0.4466
vn -0.1178 0.2685 0.9561
vn -0.1499 0.2396 0.9592
g Rock_2_Rock_2_Collor_Material
usemtl Collor_Material
s off
f 11/1/1 17/2/1 34/3/1
f 19/4/2 12/5/2 20/6/2
f 29/7/2 15/8/2 30/9/2
f 26/10/3 25/11/3 9/12/3
f 13/13/4 14/14/4 22/15/5 5/16/5
f 22/17/6 21/18/7 26/19/8
f 21/20/2 23/21/2 12/22/2
f 7/23/9 38/24/9 37/25/9
f 35/26/10 36/27/10 37/28/10
f 6/29/11 7/30/11 37/31/12 3/32/13
f 9/33/14 29/34/14 28/35/14
f 17/36/2 11/37/2 15/38/2
f 18/39/15 19/40/15 20/41/15
f 18/42/16 14/43/16 13/44/16
f 21/45/17 22/46/17 23/47/17
f 14/48/18 23/49/18 22/50/18
f 33/51/19 34/52/19 17/53/19 16/54/19
f 15/55/20 25/56/20 24/57/20
f 28/58/21 29/59/21 30/60/21
f 37/61/22 36/62/23 19/63/24 18/64/25
f 2/65/26 26/66/26 9/67/27 8/68/27
f 2/69/28 5/70/28 22/71/29 26/72/30
f 35/73/31 37/74/31 38/75/31
f 38/76/20 7/77/20 15/78/20
f 10/79/32 1/80/33 28/81/34 11/82/34
f 19/83/2 36/84/2 12/85/2
f 36/86/2 35/87/2 12/88/2
f 12/89/2 14/90/2 20/91/2
f 9/92/2 15/93/2 29/94/2
f 15/95/2 11/96/2 30/97/2
f 8/98/14 9/99/14 28/100/14 1/101/14
f 6/102/35 32/103/35 33/104/35 7/105/35
f 21/106/36 27/107/36 26/108/36
f 32/109/37 31/110/37 34/111/38 33/112/38
f 14/113/2 12/114/2 23/115/2
f 12/116/2 24/117/2 27/118/2
f 21/119/2 12/120/2 27/121/2
f 10/122/39 11/123/39 34/124/40 31/125/40
f 15/126/2 7/127/2 16/128/2
f 16/129/2 17/130/2 15/131/2
f 13/132/41 4/133/41 18/134/41
f 18/135/42 20/136/42 14/137/42
f 24/138/43 25/139/43 26/140/44 27/141/44
f 24/142/20 12/143/20 15/144/20
f 15/145/20 9/146/20 25/147/20
f 28/148/45 30/149/45 11/150/45
f 33/151/35 16/152/35 7/153/35
f 12/154/20 35/155/20 15/156/20
f 35/157/20 38/158/20 15/159/20
f 3/160/46 37/161/46 18/162/47 4/163/47
