# Blender v3.0.0 OBJ File: 'aa.blend'
# www.blender.org
mtllib Rock_6.mtl
o Rock_6
v -0.459302 0.927270 0.520750
v 0.640313 0.493031 0.554451
v 0.821045 -0.000000 0.226410
v 0.581070 1.021411 0.149447
v -0.786335 0.000000 0.327190
v -0.557853 1.021412 0.220856
v -0.719390 0.299271 0.296035
v 0.750733 0.299271 0.203860
v -0.638621 0.660341 0.258445
v 0.507230 1.021411 -0.256961
v 0.191720 1.021411 -0.503974
v 0.415783 -0.000000 -0.847323
v 0.812810 -0.000000 -0.536157
v 0.675303 0.299270 -0.537843
v 0.443633 0.660341 -0.591298
v 0.540774 0.660341 -0.515248
v 0.489542 0.937692 -0.457099
v 0.392329 0.937726 -0.533130
v -0.746907 0.000000 -0.421149
v -0.510874 -0.000000 -0.686990
v -0.293601 1.021411 -0.473545
v -0.684244 0.299271 -0.365802
v -0.446151 0.299271 -0.618671
v -0.369318 0.660341 -0.540327
v 0.788121 -0.000000 0.595360
v 0.628991 0.000000 0.879286
v 0.566233 0.299271 0.823933
v 0.724614 0.299271 0.539920
v -0.374008 0.000000 1.177234
v -0.665015 0.000000 0.830631
v -0.608891 0.299271 0.767549
v -0.567506 0.660341 0.472053
v 0.562657 0.959733 0.299176
v 0.324072 0.900439 0.474272
v 0.566814 0.794213 0.484298
v -0.514027 0.654583 0.510656
v -0.396627 0.586723 0.662522
v -0.396794 0.623110 0.529747
v -0.414320 0.706112 0.576056
v 0.524569 0.299270 -0.655928
v 0.430540 0.164570 -0.777377
v 0.339188 0.299270 -0.708320
v 0.442750 0.346003 -0.703453
v -0.543111 1.021412 -0.049386
v -0.404108 1.021412 -0.362229
v -0.550420 0.938786 -0.247536
v -0.531717 0.660341 -0.376606
v -0.658785 0.420900 -0.343309
v -0.614530 0.660341 -0.189916
v -0.598355 0.709639 -0.289911
v 0.658814 0.614000 0.281294
v 0.719901 0.430501 0.193972
v 0.639879 0.660341 0.032758
v 0.650375 0.726428 0.171674
v -0.428683 0.299271 0.964597
v -0.372876 0.183228 1.084888
v -0.290286 0.299271 1.008739
v -0.374967 0.332263 0.984639
vt 0.945181 0.565786
vt 0.865356 0.540672
vt 0.945181 0.503207
vt 0.949612 0.138949
vt 0.913807 0.082084
vt 0.949612 0.001421
vt 0.057685 0.685467
vt 0.057685 0.832862
vt 0.001421 0.805426
vt 0.875258 0.806057
vt 0.904866 0.570641
vt 0.904866 0.806663
vt 0.812831 0.775241
vt 0.864560 0.732349
vt 0.864560 0.855127
vt 0.812810 0.813056
vt 0.478460 0.466677
vt 0.455793 0.342779
vt 0.478460 0.324998
vt 0.563366 0.860692
vt 0.582607 0.777616
vt 0.582607 0.867122
vt 0.985278 0.780219
vt 0.958334 0.712483
vt 0.985278 0.690906
vt 0.345312 0.704565
vt 0.328428 0.653090
vt 0.345312 0.600770
vt 0.981811 0.272281
vt 0.954785 0.173654
vt 0.981811 0.151658
vt 0.754182 0.001421
vt 0.754182 0.266180
vt 0.695070 0.088072
vt 0.293150 0.791995
vt 0.347478 0.760902
vt 0.347478 0.815075
vt 0.064195 0.835704
vt 0.064195 0.935344
vt 0.001421 0.918875
vt 0.392660 0.909206
vt 0.392660 0.971589
vt 0.367817 0.937497
vt 0.697687 0.852435
vt 0.682866 0.805218
vt 0.697687 0.744120
vt 0.752248 0.319996
vt 0.705778 0.292505
vt 0.752248 0.275486
vt 0.542635 0.961592
vt 0.465405 0.910718
vt 0.542635 0.885492
vt 0.828320 0.729277
vt 0.801766 0.702585
vt 0.828320 0.689475
vt 0.579452 0.320046
vt 0.702936 0.275486
vt 0.702936 0.329478
vt 0.085587 0.820524
vt 0.085587 0.879552
vt 0.069562 0.848610
vt 0.989249 0.001421
vt 0.989249 0.106315
vt 0.952454 0.055996
vt 0.310193 0.817917
vt 0.310193 0.880495
vt 0.293150 0.850478
vt 0.458857 0.677500
vt 0.458857 0.722010
vt 0.448712 0.695046
vt 0.859674 0.036930
vt 0.910965 0.001421
vt 0.910965 0.138875
vt 0.367005 0.250980
vt 0.363453 0.001421
vt 0.480774 0.029451
vt 0.480774 0.271647
vt 0.951943 0.266383
vt 0.900015 0.227254
vt 0.951943 0.151658
vt 0.698956 0.741278
vt 0.611958 0.726538
vt 0.585706 0.665229
vt 0.698956 0.570641
vt 0.813090 0.906849
vt 0.585706 0.884952
vt 0.813090 0.865434
vt 0.468954 0.771663
vt 0.465405 0.623315
vt 0.582864 0.705791
vt 0.582864 0.774774
vt 0.692228 0.251005
vt 0.579452 0.229130
vt 0.579452 0.080132
vt 0.692228 0.001421
vt 0.903283 0.865434
vt 0.903283 0.941534
vt 0.815932 0.932447
vt 0.819623 0.884406
vt 0.949862 0.946965
vt 0.907708 0.906158
vt 0.949862 0.814467
vt 0.856832 0.148816
vt 0.801932 0.004332
vt 0.856832 0.001421
vt 0.726491 0.839416
vt 0.701798 0.773213
vt 0.809967 0.732349
vt 0.809967 0.845276
vt 0.256831 0.001421
vt 0.256831 0.321778
vt 0.142899 0.209548
vt 0.912515 0.492246
vt 0.872918 0.403264
vt 0.912515 0.332320
vt 0.090438 0.737764
vt 0.325586 0.686862
vt 0.325586 0.758060
vt 0.802691 0.469899
vt 0.689463 0.457071
vt 0.689448 0.374143
vt 0.802691 0.332320
vt 0.799090 0.322155
vt 0.757024 0.004573
vt 0.799090 0.001421
vt 0.578511 0.970767
vt 0.545477 0.948563
vt 0.578511 0.885492
vt 0.957531 0.570641
vt 0.957531 0.688064
vt 0.921758 0.679635
vt 0.907708 0.608104
vt 0.360611 0.322021
vt 0.266273 0.309116
vt 0.259673 0.040714
vt 0.360611 0.001421
vt 0.984560 0.565786
vt 0.952991 0.558785
vt 0.948023 0.456643
vt 0.984560 0.446947
vt 0.955492 0.811625
vt 0.907708 0.766360
vt 0.955492 0.690906
vt 0.228875 0.454405
vt 0.228875 0.654681
vt 0.120160 0.620533
vt 0.146349 0.485469
vt 0.582864 0.620473
vt 0.488014 0.604864
vt 0.483616 0.362707
vt 0.582864 0.332320
vt 0.194214 0.763389
vt 0.290307 0.760902
vt 0.290307 0.869831
vt 0.195098 0.869806
vt 0.592428 0.339462
vt 0.686606 0.332320
vt 0.686606 0.565990
vt 0.585706 0.567799
vt 0.231717 0.470330
vt 0.325586 0.454405
vt 0.325586 0.684020
vt 0.231735 0.673407
vt 0.576609 0.329478
vt 0.483616 0.249311
vt 0.576609 0.001421
vt 0.940702 0.492246
vt 0.915357 0.345419
vt 0.940702 0.304584
vt 0.560524 0.877345
vt 0.465405 0.882650
vt 0.465461 0.783009
vt 0.560524 0.777616
vt 0.290307 0.911368
vt 0.090088 0.877418
vt 0.290307 0.872673
vt 0.701798 0.648357
vt 0.753052 0.570641
vt 0.798924 0.581951
vt 0.798924 0.729507
vt 0.445870 0.681978
vt 0.445870 0.840652
vt 0.351742 0.825889
vt 0.351528 0.677500
vt 0.348686 0.324998
vt 0.348686 0.451563
vt 0.020667 0.446517
vt 0.001421 0.365854
vt 0.117318 0.454405
vt 0.117318 0.682625
vt 0.001421 0.659064
vt 0.036154 0.491999
vt 0.824361 0.571403
vt 0.872416 0.570641
vt 0.872416 0.685519
vt 0.801766 0.686633
vt 0.998579 0.394032
vt 0.951912 0.386658
vt 0.943544 0.339207
vt 0.998579 0.304584
vt 0.085587 0.817682
vt 0.060527 0.728662
vt 0.085587 0.685467
vt 0.897173 0.151658
vt 0.897173 0.233477
vt 0.801932 0.230819
vt 0.315518 0.890798
vt 0.445870 0.843494
vt 0.445870 0.906364
vt 0.828723 0.444677
vt 0.805533 0.332320
vt 0.870076 0.339106
vt 0.870076 0.442388
vt 0.862514 0.447519
vt 0.862514 0.565786
vt 0.805533 0.551807
vt 0.363453 0.275395
vt 0.469870 0.274489
vt 0.469870 0.313184
vt 0.039073 0.027118
vt 0.140057 0.001421
vt 0.140057 0.322156
vt 0.001421 0.292948
vt 0.585975 0.759310
vt 0.680023 0.744120
vt 0.680023 0.857618
vt 0.585706 0.862592
vt 0.351528 0.409818
vt 0.452950 0.324998
vt 0.452950 0.674658
vt 0.354978 0.650387
vt 0.801932 0.274113
vt 0.885495 0.236319
vt 0.885495 0.324141
vt 0.125052 0.760902
vt 0.191372 0.779884
vt 0.191372 0.869390
vt 0.090438 0.869470
vt 0.364975 0.994991
vt 0.315518 0.916119
vt 0.364975 0.909206
vt 0.328428 0.461779
vt 0.347327 0.454405
vt 0.347327 0.597928
vt 0.801776 0.472742
vt 0.801776 0.554560
vt 0.689448 0.492887
vt 0.475706 0.597664
vt 0.455793 0.593890
vt 0.475706 0.469519
vt 0.952718 0.902720
vt 0.952704 0.814467
vt 0.990515 0.815072
vt 0.990515 0.903310
vn -0.8401 0.3940 -0.3727
vn -0.0614 0.1940 -0.9791
vn 0.5941 0.2688 -0.7581
vn 0.0948 0.0335 0.9949
vn 0.1992 -0.4476 0.8718
vn 0.4284 -0.2902 0.8557
vn 0.3056 0.8685 -0.3903
vn 0.1299 0.7028 0.6995
vn 0.1309 0.8192 0.5584
vn 0.0908 0.8124 0.5760
vn -0.5770 0.0857 0.8122
vn -0.9755 0.2138 -0.0524
vn -0.1002 0.3887 -0.9159
vn -0.1357 0.3243 -0.9362
vn -0.1172 0.3935 -0.9118
vn -0.1035 0.3284 -0.9388
vn -0.0854 0.2828 -0.9554
vn -0.1140 0.3196 -0.9407
vn 0.0000 1.0000 0.0000
vn 0.2251 0.5611 -0.7966
vn 0.8260 0.3248 0.4606
vn 0.2111 0.9428 0.2581
vn 0.1837 0.4299 0.8840
vn 0.2357 0.3361 0.9119
vn 0.2047 0.4358 0.8765
vn -0.2325 0.6438 0.7290
vn 0.2876 0.7172 0.6348
vn -0.2702 -0.5120 0.8154
vn -0.7255 0.3003 0.6193
vn -0.7344 0.2801 0.6183
vn -0.7300 0.2983 0.6149
vn 0.2430 -0.4490 -0.8599
vn -0.6288 0.7256 -0.2794
vn -0.8102 -0.4631 -0.3594
vn -0.3028 -0.0837 0.9494
vn -0.5001 0.6023 0.6222
vn -0.5203 0.4950 0.6959
vn -0.4685 0.6129 0.6362
vn -0.0832 0.2731 -0.9584
vn -0.0709 0.2693 -0.9604
vn 0.9564 0.2375 0.1700
vn 0.9451 0.2988 0.1325
vn 0.9571 0.2356 0.1687
vn 0.9613 0.2138 -0.1740
vn 0.9475 0.2922 -0.1299
vn 0.9721 0.2130 -0.0982
vn 0.9653 0.2230 -0.1356
vn -0.9304 0.2711 0.2466
vn 0.9509 0.2484 0.1844
vn 0.9486 0.2472 0.1977
vn 0.9454 0.2541 0.2042
vn 0.9448 0.2617 0.1971
vn 0.5940 0.2687 -0.7583
vn 0.5941 0.2689 -0.7581
vn -0.6912 0.2811 -0.6658
vn -0.6912 0.2811 -0.6657
vn -0.6884 0.2844 -0.6672
vn -0.6859 0.2882 -0.6682
vn 0.4454 0.3682 0.8161
vn 0.0364 0.1402 0.9895
vn 0.0093 0.1580 0.9874
vn 0.0619 0.1783 0.9820
vn 0.0491 0.1511 0.9873
vn 0.0979 0.2227 0.9700
vn 0.0295 0.2475 0.9684
vn -0.0663 0.4451 0.8930
vn -0.9755 0.2135 -0.0525
vn -0.9756 0.2131 -0.0527
vn 0.1216 0.9631 0.2400
vn 0.2324 0.9390 0.2534
vn -0.6837 0.2686 -0.6785
vn -0.6836 0.2689 -0.6785
vn 0.2357 0.3360 0.9119
vn 0.2439 0.3217 0.9149
vn 0.2422 0.3174 0.9168
vn 0.5939 0.2689 -0.7583
vn -0.9755 0.2136 -0.0531
vn -0.9756 0.2132 -0.0521
vn -0.9755 0.2134 -0.0525
vn -0.1419 0.3139 -0.9388
vn -0.1410 0.3090 -0.9406
vn -0.7077 0.2843 -0.6468
vn 0.9440 0.3257 -0.0525
vn -0.9756 0.2133 -0.0516
vn 0.8417 0.2647 0.4706
vn -0.9755 0.2138 -0.0518
vn 0.9614 0.2130 -0.1745
vn 0.9613 0.2132 -0.1743
vn -0.9468 0.2301 0.2251
vn 0.9281 0.3416 -0.1483
vn 0.9436 0.3031 -0.1334
vn -0.6837 0.2688 -0.6784
vn 0.9971 0.0009 -0.0758
vn 0.9971 0.0010 -0.0758
vn 0.9470 0.3211 -0.0123
vn 0.0568 0.9217 0.3837
vn 0.0347 0.9413 0.3358
vn 0.0383 0.9256 0.3766
vn -0.7094 0.2782 0.6476
vn -0.7214 0.2929 0.6275
vn -0.7128 0.2735 0.6458
vn -0.7255 0.3176 0.6105
vn -0.7206 0.3027 0.6237
vn 0.9370 0.3307 0.1126
vn 0.9376 0.3285 0.1140
vn 0.5940 0.2688 -0.7582
vn -0.7013 0.2694 -0.6600
vn -0.6985 0.2665 -0.6642
vn 0.1298 0.7991 0.5871
vn 0.1539 0.7040 0.6933
vn 0.1604 0.8125 0.5605
vn 0.9704 0.2275 0.0813
vn 0.0320 0.9434 0.3302
vn 0.0294 0.9487 0.3149
vn 0.0347 0.9413 0.3359
vn 0.9461 0.2571 0.1970
vn 0.9447 0.2683 0.1885
vn 0.9439 0.2700 0.1901
vn -0.9001 0.2647 0.3459
vn 0.9470 0.2446 0.2082
vn 0.9461 0.2571 0.1971
vn 0.9453 0.2517 0.2074
vn -0.5098 0.6183 0.5982
vn -0.5308 0.6116 0.5866
vn -0.4142 0.6235 0.6631
vn -0.5619 0.6179 0.5500
vn -0.5198 0.6674 0.5332
vn -0.5934 0.6013 0.5351
vn -0.5411 0.5987 0.5906
vn -0.5308 0.6116 0.5867
vn -0.5814 0.6027 0.5465
vn 0.5936 0.2688 -0.7585
g Rock_6_Rock_6_Collor_Material
usemtl Collor_Material
s off
f 47/1/1 48/2/1 49/3/1
f 11/4/2 18/5/2 15/6/2
f 13/7/3 41/8/3 40/9/3
f 38/10/4 34/11/5 39/12/6
f 18/13/7 11/14/7 10/15/7 17/16/7
f 37/17/8 58/18/9 57/19/10
f 36/20/11 1/21/11 32/22/11
f 46/23/12 50/24/12 49/25/12
f 42/26/13 41/27/14 12/28/15
f 15/29/16 43/30/17 42/31/18
f 44/32/19 11/33/19 45/34/19
f 40/35/20 41/36/20 42/37/20
f 27/38/21 28/39/21 2/40/21
f 36/41/22 37/42/22 38/43/22
f 57/44/23 56/45/24 29/46/25
f 55/47/26 56/48/26 57/49/26
f 33/50/27 34/51/27 35/52/27
f 36/53/28 38/54/28 39/55/28
f 30/56/29 56/57/30 55/58/31
f 40/59/32 42/60/32 43/61/32
f 44/62/33 45/63/33 46/64/33
f 47/65/34 49/66/34 50/67/34
f 55/68/35 57/69/35 58/70/35
f 37/71/36 36/72/37 31/73/38
f 24/74/17 15/75/39 42/76/40 23/77/17
f 52/78/41 51/79/42 2/80/43
f 16/81/44 17/82/44 10/83/44 53/84/44
f 8/85/45 14/86/46 52/87/47
f 7/88/48 31/89/48 32/90/48 9/91/48
f 24/92/2 21/93/2 11/94/2 15/95/2
f 33/96/49 35/97/50 51/98/51 54/99/52
f 40/100/53 14/101/53 13/102/53
f 13/103/54 12/104/54 41/105/54
f 47/106/55 24/107/56 23/108/57 48/109/58
f 38/110/59 2/111/60 34/112/61
f 2/113/62 35/114/63 34/115/64
f 34/116/65 1/117/63 39/118/66
f 9/119/67 6/120/68 44/121/68 49/122/68
f 2/123/69 38/124/9 37/125/70
f 36/126/11 39/127/11 1/128/11
f 45/129/71 47/130/71 50/131/72 46/132/71
f 26/133/24 27/134/73 57/135/74 29/136/75
f 40/137/76 43/138/76 15/139/76 16/140/76
f 44/141/77 46/142/77 49/143/77
f 48/144/78 7/145/78 9/146/79 49/147/78
f 20/148/14 23/149/14 42/150/80 12/151/81
f 23/152/82 20/153/82 19/154/82 22/155/82
f 8/156/83 3/157/83 13/158/83 14/159/83
f 22/160/84 19/161/84 5/162/84 7/163/84
f 10/164/19 11/165/19 44/166/19
f 11/167/19 21/168/19 45/169/19
f 25/170/85 28/171/85 27/172/85 26/173/85
f 22/174/86 7/175/86 48/176/86
f 4/177/87 54/178/88 53/179/87 10/180/87
f 5/181/89 30/182/89 31/183/89 7/184/89
f 4/185/19 10/186/19 44/187/19 6/188/19
f 52/189/90 14/190/91 16/191/45 53/192/45
f 45/193/92 21/194/92 24/195/92 47/196/92
f 53/197/93 54/198/94 51/199/95 52/200/95
f 34/201/96 33/202/97 4/203/98
f 55/204/99 31/205/100 30/206/101
f 30/207/102 29/208/100 56/209/103
f 52/210/104 2/211/105 28/212/42 8/213/42
f 16/214/106 14/215/106 40/216/106
f 23/217/107 22/218/55 48/219/108
f 27/220/9 2/221/109 37/222/110 57/223/111
f 28/224/112 25/225/112 3/226/112 8/227/112
f 34/228/113 4/229/114 6/230/115 1/231/115
f 2/232/116 51/233/117 35/234/118
f 9/235/119 32/236/119 1/237/119 6/238/119
f 54/239/120 4/240/121 33/241/122
f 36/242/123 32/243/124 31/244/125
f 31/245/126 55/246/127 37/247/128
f 55/248/129 58/249/130 37/250/131
f 15/251/132 18/252/132 17/253/132 16/254/132
