# Blender v3.0.0 OBJ File: 'aa.blend'
# www.blender.org
mtllib Rock_7.mtl
o Rock_7
v 0.475206 1.973405 0.475205
v 0.574356 1.049262 -0.584936
v 0.268428 -0.000000 -0.779382
v 0.179552 2.173755 -0.552240
v 0.268428 0.000000 0.779382
v 0.179552 2.173756 0.552237
v 0.242388 0.636904 0.712829
v 0.242388 0.636904 -0.712830
v 0.210970 1.405330 0.632533
v -0.217493 2.173755 -0.505527
v -0.475206 2.173755 -0.215717
v -0.793297 -0.000000 -0.452946
v -0.468678 -0.000000 -0.817613
v -0.478635 0.636904 -0.684888
v -0.544301 1.405329 -0.464343
v -0.464956 1.405329 -0.553571
v -0.411890 1.995584 -0.500562
v -0.491220 1.995658 -0.411263
v -0.452047 0.000000 0.695974
v -0.694544 0.000000 0.451875
v -0.475206 2.173755 0.254925
v -0.394790 0.636904 0.638795
v -0.624631 0.636904 0.393493
v -0.544301 1.405330 0.324021
v 0.622824 -0.000000 -0.725234
v 0.887447 -0.000000 -0.554325
v 0.830178 0.636904 -0.497057
v 0.565426 0.636904 -0.667248
v 1.114507 0.000000 0.432574
v 0.762079 0.000000 0.692683
v 0.704543 0.636904 0.634649
v 0.421613 1.405330 0.576776
v 0.323069 2.042492 -0.525385
v 0.477754 1.916302 -0.284317
v 0.502140 1.690233 -0.518189
v 0.462141 1.393075 0.527455
v 0.615947 1.248657 0.423250
v 0.487682 1.326094 0.415369
v 0.531353 1.502739 0.435103
v -0.601828 0.636904 -0.546438
v -0.724838 0.350237 -0.462965
v -0.663665 0.636904 -0.370540
v -0.652691 0.736359 -0.470283
v -0.080598 2.173756 0.521630
v -0.374372 2.173756 0.368412
v -0.272445 1.997913 0.516690
v -0.395988 1.405330 0.490806
v -0.371520 0.895754 0.615566
v -0.220669 1.405330 0.582108
v -0.316281 1.510245 0.560427
v 0.311619 1.306707 -0.619351
v 0.230969 0.916186 -0.683647
v 0.070397 1.405329 -0.616113
v 0.205219 1.545975 -0.617838
v 0.905797 0.636904 0.472509
v 1.025373 0.389944 0.425887
v 0.956818 0.636904 0.341497
v 0.928410 0.707118 0.421835
vt 0.951463 0.789015
vt 0.951463 0.907632
vt 0.907332 0.795759
vt 0.792302 0.838835
vt 0.851640 0.633953
vt 0.851640 0.846611
vt 0.402786 0.969300
vt 0.333320 0.883667
vt 0.402786 0.842730
vt 0.442145 0.639943
vt 0.487161 0.560598
vt 0.487161 0.677869
vt 0.989869 0.919912
vt 0.954457 0.890449
vt 0.989869 0.789015
vt 0.902021 0.586743
vt 0.846469 0.423134
vt 0.902021 0.381511
vt 0.676137 0.952456
vt 0.911236 0.934066
vt 0.911236 0.965975
vt 0.971552 0.179439
vt 0.971552 0.368319
vt 0.929381 0.241256
vt 0.854634 0.917435
vt 0.895734 0.857186
vt 0.895734 0.926602
vt 0.774267 0.378517
vt 0.714109 0.340650
vt 0.774267 0.267136
vt 0.459870 0.680863
vt 0.459870 0.734008
vt 0.442145 0.705128
vt 0.904338 0.854193
vt 0.854634 0.669217
vt 0.904338 0.633953
vt 0.902415 0.630496
vt 0.842694 0.610883
vt 0.902415 0.598742
vt 0.839700 0.559805
vt 0.839700 0.630496
vt 0.768108 0.613120
vt 0.779530 0.820150
vt 0.750253 0.813378
vt 0.779530 0.784194
vt 0.581075 0.844558
vt 0.581075 0.943486
vt 0.492027 0.928186
vt 0.905409 0.627873
vt 0.935816 0.598742
vt 0.935816 0.630650
vt 0.951463 0.976952
vt 0.937175 0.937611
vt 0.951463 0.910626
vt 0.998503 0.922906
vt 0.998503 0.997737
vt 0.954457 0.961840
vt 0.573575 0.266864
vt 0.541269 0.236052
vt 0.573575 0.233207
vt 0.405779 0.958575
vt 0.460525 0.936948
vt 0.460525 0.980953
vt 0.175876 0.888322
vt 0.265117 0.886310
vt 0.265117 0.964189
vt 0.642477 0.688570
vt 0.617546 0.668904
vt 0.642477 0.668358
vt 0.315201 0.883317
vt 0.175876 0.860338
vt 0.315201 0.811776
vt 0.510275 0.659060
vt 0.495799 0.548982
vt 0.614552 0.518905
vt 0.614552 0.693545
vt 0.477209 0.842730
vt 0.477209 0.933955
vt 0.405779 0.890823
vt 0.673143 0.515911
vt 0.495799 0.500029
vt 0.673143 0.381511
vt 0.245254 0.795098
vt 0.158155 0.643372
vt 0.245254 0.582441
vt 0.866904 0.153017
vt 0.926902 0.001497
vt 0.926902 0.173729
vt 0.788189 0.929780
vt 0.756774 0.849604
vt 0.851640 0.854466
vt 0.851640 0.928148
vt 0.624601 0.010649
vt 0.624601 0.108799
vt 0.508943 0.141762
vt 0.450201 0.001497
vt 0.717269 0.250945
vt 0.627595 0.240395
vt 0.658513 0.008409
vt 0.717269 0.001497
vt 0.955785 0.412978
vt 0.983385 0.381511
vt 0.983385 0.480486
vt 0.458081 0.839736
vt 0.333320 0.762083
vt 0.458081 0.740761
vt 0.843475 0.381611
vt 0.843475 0.556811
vt 0.768108 0.497472
vt 0.793067 0.381511
vt 0.447208 0.227838
vt 0.305852 0.039819
vt 0.447208 0.001497
vt 0.268132 0.916910
vt 0.319563 0.886310
vt 0.319563 0.973901
vt 0.268111 0.943887
vt 0.541269 0.298370
vt 0.711115 0.271080
vt 0.711115 0.378517
vt 0.538275 0.233207
vt 0.538275 0.378517
vt 0.338978 0.329518
vt 0.333320 0.249086
vt 0.153519 0.236792
vt 0.153519 0.472021
vt 0.120058 0.466671
vt 0.324289 0.570642
vt 0.308097 0.430366
vt 0.324289 0.411402
vt 0.327519 0.628507
vt 0.318195 0.617167
vt 0.327519 0.582441
vt 0.135467 0.642405
vt 0.135467 0.764138
vt 0.001497 0.753622
vt 0.155162 0.001497
vt 0.155162 0.233798
vt 0.001497 0.192029
vt 0.043843 0.005231
vt 0.864045 0.352243
vt 0.789598 0.301151
vt 0.864045 0.179439
vt 0.598494 0.241033
vt 0.617573 0.144755
vt 0.617573 0.267258
vt 0.652659 0.871178
vt 0.603451 0.871866
vt 0.584069 0.742412
vt 0.652659 0.696539
vt 0.977283 0.593311
vt 0.955785 0.538195
vt 0.977283 0.483479
vt 0.302858 0.230214
vt 0.158155 0.220860
vt 0.212703 0.007482
vt 0.302858 0.001497
vt 0.158155 0.247748
vt 0.330326 0.233207
vt 0.330326 0.408408
vt 0.117064 0.472609
vt 0.001497 0.337157
vt 0.117064 0.236792
vt 0.450201 0.146530
vt 0.595500 0.144755
vt 0.595500 0.222466
vt 0.450498 0.222450
vt 0.160444 0.416496
vt 0.305103 0.411402
vt 0.305103 0.578102
vt 0.158155 0.579447
vt 0.101224 0.772344
vt 0.144918 0.767131
vt 0.144918 0.941251
vt 0.085436 0.944426
vt 0.786604 0.235534
vt 0.720262 0.178343
vt 0.786604 0.001497
vt 0.172883 0.945654
vt 0.154801 0.840908
vt 0.172883 0.811776
vt 0.747260 0.786051
vt 0.747260 0.931072
vt 0.676201 0.929199
vt 0.676137 0.784194
vt 0.907332 0.767580
vt 0.963303 0.633953
vt 0.963303 0.786022
vt 0.926388 0.182519
vt 0.926388 0.358612
vt 0.867038 0.329001
vt 0.899596 0.179439
vt 0.789308 0.778702
vt 0.676137 0.781200
vt 0.683473 0.636361
vt 0.789308 0.633953
vt 0.001497 0.486964
vt 0.146054 0.475603
vt 0.146054 0.639411
vt 0.001503 0.631840
vt 0.439152 0.735238
vt 0.333320 0.737768
vt 0.389943 0.561224
vt 0.439152 0.560598
vt 0.008785 0.911970
vt 0.001497 0.767131
vt 0.082443 0.769116
vt 0.082443 0.913865
vt 0.248247 0.778051
vt 0.275023 0.592162
vt 0.315201 0.582441
vt 0.315201 0.808782
vt 0.985124 0.109101
vt 0.965407 0.041215
vt 0.985124 0.001497
vt 0.633382 0.923656
vt 0.665414 0.874860
vt 0.665414 0.977741
vt 0.581075 0.696539
vt 0.581075 0.841564
vt 0.495799 0.754093
vt 0.492805 0.557605
vt 0.371072 0.557563
vt 0.333320 0.446535
vt 0.492805 0.381511
vt 0.001497 0.917162
vt 0.077418 0.916859
vt 0.077418 0.975790
vt 0.789598 0.042083
vt 0.863910 0.001497
vt 0.863910 0.176445
vt 0.789615 0.153108
vt 0.671934 0.746232
vt 0.656473 0.698253
vt 0.671934 0.668358
vt 0.676137 0.442022
vt 0.765114 0.381511
vt 0.765114 0.630959
vt 0.684391 0.613848
vt 0.154671 0.727077
vt 0.138461 0.672617
vt 0.154671 0.642405
vt 0.671934 0.665364
vt 0.617546 0.602083
vt 0.671934 0.518905
vt 0.630389 0.974241
vt 0.584069 0.937467
vt 0.630389 0.874860
vt 0.962413 0.001497
vt 0.962413 0.144172
vt 0.929896 0.114024
vt 0.149047 0.488988
vt 0.155078 0.475603
vt 0.155078 0.541790
vt 0.952791 0.381511
vt 0.952791 0.566913
vt 0.905014 0.427317
vt 0.670224 0.820766
vt 0.656473 0.764039
vt 0.670224 0.749225
vt 0.465839 0.830939
vt 0.465829 0.696539
vt 0.492805 0.696754
vt 0.492805 0.831136
vn -0.4534 0.1914 0.8705
vn -0.9960 0.0896 -0.0000
vn -0.7410 0.1260 -0.6596
vn 0.0491 0.1524 -0.9871
vn 0.7768 0.0391 0.6286
vn -0.9799 0.1930 0.0501
vn -0.9848 0.1541 0.0803
vn -0.9787 0.1970 0.0570
vn -0.9909 0.1329 0.0229
vn -0.9918 0.1227 0.0344
vn -0.9898 0.1412 0.0162
vn 0.0000 1.0000 -0.0000
vn -0.9015 0.2946 -0.3169
vn 0.5343 0.1543 -0.8311
vn 0.4986 0.7894 -0.3581
vn 0.9648 0.2192 -0.1454
vn 0.9693 0.1602 -0.1867
vn 0.9616 0.2244 -0.1578
vn 0.8703 0.3574 0.3389
vn 0.8468 0.4239 -0.3214
vn 0.8954 -0.2616 0.3604
vn 0.5922 0.1482 0.7921
vn 0.6020 0.1380 0.7865
vn 0.5871 0.1461 0.7963
vn -0.9197 -0.2228 -0.3233
vn -0.7411 0.1259 -0.6595
vn -0.4170 0.4324 0.7995
vn -0.4494 -0.2312 0.8629
vn -0.0132 0.0004 -0.9999
vn 0.2624 0.1000 -0.9598
vn 0.2665 0.1150 -0.9570
vn 0.2633 0.1158 -0.9577
vn 0.9312 -0.0382 0.3626
vn 0.6590 0.3018 0.6890
vn 0.6047 0.2715 0.7488
vn 0.6296 0.3477 0.6948
vn -0.1158 0.0987 0.9884
vn 0.2354 0.1110 -0.9655
vn 0.1986 0.1410 -0.9699
vn 0.2266 0.1179 -0.9668
vn -0.0729 0.1376 -0.9878
vn -0.0379 0.1048 -0.9938
vn -0.0507 0.0945 -0.9942
vn 0.1793 0.1566 -0.9712
vn 0.1692 0.1530 -0.9736
vn -0.1152 0.0987 0.9884
vn -0.7411 0.1260 -0.6594
vn -0.7410 0.1259 -0.6595
vn -0.7310 0.1321 0.6695
vn -0.7348 0.1347 0.6648
vn -0.7334 0.1347 0.6664
vn -0.7310 0.1320 0.6695
vn 0.9898 0.1422 0.0099
vn 0.9975 0.0694 0.0129
vn 0.9897 0.1219 0.0753
vn -0.5844 0.6232 -0.5197
vn 0.9817 0.1905 0.0074
vn 0.9892 0.1405 0.0415
vn -0.9848 0.1540 0.0803
vn -0.9856 0.1442 0.0879
vn -0.9863 0.1371 0.0913
vn 0.5046 0.8412 -0.1943
vn 0.8268 0.5448 -0.1400
vn 0.5354 0.7677 -0.3521
vn 0.9364 0.3427 -0.0755
vn 0.8268 0.5447 -0.1399
vn 0.8359 0.5395 -0.1012
vn -0.1155 0.0991 -0.9884
vn 0.8492 0.5111 -0.1327
vn 0.9350 0.3378 -0.1077
vn 0.8279 0.5370 -0.1619
vn 0.8268 0.5448 -0.1399
vn -0.1163 0.0985 -0.9883
vn -0.1155 0.0990 0.9884
vn 0.2973 0.1239 0.9467
vn -0.1163 0.0991 0.9883
vn 0.9693 0.1602 -0.1868
vn 0.9696 0.1487 -0.1944
vn 0.9703 0.1353 -0.2004
vn -0.9915 0.1162 0.0585
vn -0.9908 0.1329 0.0263
vn -0.9928 0.1084 0.0501
vn -0.9871 0.1602 -0.0002
vn -0.9854 0.1698 0.0111
vn -0.7131 0.1336 0.6882
vn 0.0070 0.1547 -0.9879
vn -0.1158 0.0988 -0.9883
vn 0.5379 0.1236 -0.8339
vn 0.5375 0.1239 -0.8341
vn -0.1148 0.0990 0.9884
vn -0.7412 0.1259 -0.6594
vn 0.1690 0.1069 0.9798
vn -0.1146 0.0988 0.9885
vn 0.1937 0.1271 0.9728
vn 0.1448 0.1057 -0.9838
vn 0.9996 0.0085 0.0254
vn 0.9985 0.0299 -0.0451
vn 0.9996 0.0253 -0.0155
vn 0.9990 -0.0008 -0.0437
vn 0.6761 0.7347 -0.0566
vn 0.6188 0.7852 -0.0250
vn 0.6714 0.7403 -0.0324
vn 0.6120 0.1482 0.7769
vn 0.6186 0.1563 0.7700
vn 0.5975 0.1298 0.7913
vn 0.6103 0.1309 0.7813
vn 0.6061 0.1260 0.7854
vn -0.0729 0.1377 -0.9878
vn -0.0890 0.1581 -0.9834
vn -0.0833 0.1481 -0.9855
vn -0.7245 0.1293 0.6770
vn -0.7248 0.1245 0.6776
vn -0.7415 0.1259 0.6591
vn -0.7413 0.1258 0.6592
vn -0.7417 0.1261 0.6588
vn 0.6112 0.7912 -0.0208
vn 0.5965 0.8024 -0.0182
vn 0.6188 0.7852 -0.0249
vn -0.7416 0.1258 0.6589
vn 0.2628 0.1201 -0.9573
vn 0.2592 0.1216 -0.9581
vn 0.2514 0.1296 -0.9592
vn 0.2659 0.1317 -0.9550
vn 0.2612 0.1244 -0.9572
vn 0.2626 0.1235 -0.9570
vn 0.2781 0.1106 -0.9542
vn 0.2629 0.1201 -0.9573
vn 0.2671 0.1198 -0.9562
vn 0.6586 0.3317 0.6755
vn 0.7146 0.3504 0.6054
vn 0.6989 0.4708 0.5384
vn 0.6440 0.3064 0.7010
vn 0.7253 0.3656 0.5833
vn 0.6828 0.3236 0.6550
vn 0.6331 0.3348 0.6979
vn 0.6321 0.3878 0.6709
vn -0.7415 0.1259 -0.6591
g Rock_7_Rock_7_Collor_Material
usemtl Collor_Material
s off
f 47/1/1 48/2/1 49/3/1
f 18/4/2 24/5/2 11/6/2
f 13/7/3 12/8/3 41/9/3
f 51/10/4 52/11/4 53/12/4
f 32/13/5 39/14/5 1/15/5
f 23/16/6 42/17/7 41/18/8
f 24/19/9 43/20/10 42/21/11
f 44/22/12 11/23/12 45/24/12
f 40/25/13 41/26/13 42/27/13
f 27/28/14 28/29/14 2/30/14
f 36/31/15 37/32/15 38/33/15
f 27/34/16 57/35/17 56/36/18
f 55/37/19 56/38/19 57/39/19
f 33/40/20 34/41/20 35/42/20
f 36/43/21 38/44/21 39/45/21
f 30/46/22 29/47/23 56/48/24
f 40/49/25 42/50/25 43/51/25
f 14/52/26 40/53/26 43/54/26
f 44/55/27 45/56/27 46/57/27
f 47/58/28 49/59/28 50/60/28
f 51/61/29 53/62/29 54/63/29
f 33/64/30 35/65/31 54/66/32
f 55/67/33 57/68/33 58/69/33
f 58/70/34 37/71/35 31/72/36
f 46/73/37 50/74/37 9/75/37 6/76/37
f 52/77/38 51/78/39 2/79/40
f 15/80/2 24/81/2 18/82/2
f 24/83/2 21/84/2 11/85/2
f 8/86/41 14/87/42 52/88/43
f 52/89/44 2/90/45 28/91/39 8/92/39
f 9/93/46 49/94/46 48/95/46 7/96/46
f 4/97/12 10/98/12 44/99/12 6/100/12
f 40/101/47 14/102/47 41/103/47
f 14/104/48 13/105/48 41/106/48
f 24/107/49 23/108/50 48/109/51 47/110/52
f 38/111/53 2/112/54 35/113/55
f 18/114/56 11/115/56 10/116/56 17/117/56
f 34/118/57 1/119/54 39/120/58
f 20/121/59 23/122/60 41/123/61 12/124/59
f 2/125/62 38/126/63 37/127/64
f 37/128/65 58/129/66 57/130/67
f 32/131/5 36/132/5 39/133/5
f 53/134/68 16/135/68 17/136/68
f 2/137/69 37/138/70 57/139/71 27/140/72
f 10/141/73 4/142/73 54/143/73
f 49/144/74 9/145/74 50/146/74
f 9/147/75 32/148/75 1/149/75 6/150/75
f 6/151/76 44/152/76 46/153/76
f 26/154/77 27/155/78 56/156/79 29/157/17
f 42/158/80 23/159/81 24/160/82
f 24/161/83 15/162/81 43/163/84
f 23/164/85 20/165/85 19/166/85 22/167/85
f 8/168/86 3/169/86 13/170/86 14/171/86
f 54/172/87 53/173/87 17/174/87 10/175/87
f 10/176/12 11/177/12 44/178/12
f 11/179/12 21/180/12 45/181/12
f 25/182/88 28/183/89 27/184/89 26/185/89
f 22/186/90 7/187/90 48/188/90
f 16/189/91 14/190/91 43/191/91 15/192/91
f 5/193/92 30/194/92 31/195/92 7/196/92
f 22/197/93 19/198/93 5/199/93 7/200/93
f 7/201/94 31/202/94 32/203/94 9/204/94
f 28/205/95 25/206/95 3/207/95 8/208/95
f 34/209/96 39/210/97 38/211/98 35/212/99
f 34/213/100 33/214/101 4/215/102
f 55/216/23 31/217/103 56/218/104
f 31/219/105 30/220/106 56/221/107
f 16/222/108 53/223/41 52/224/109 14/225/110
f 23/226/111 22/227/52 48/228/112
f 46/229/113 21/230/113 24/231/113 50/232/113
f 24/233/114 47/234/115 50/235/114
f 34/236/116 4/237/117 6/238/101 1/239/118
f 46/240/119 45/241/119 21/242/119
f 2/243/120 51/244/121 35/245/122
f 51/246/123 54/247/124 35/248/125
f 54/249/126 4/250/127 33/251/128
f 36/252/129 32/253/130 37/254/131
f 32/255/132 31/256/133 37/257/134
f 31/258/135 55/259/129 58/260/136
f 15/261/137 18/262/137 17/263/137 16/264/137
