# Blender v3.0.0 OBJ File: 'aa.blend'
# www.blender.org
mtllib Rock_10.mtl
o Rock_10
v 0.016773 -0.000002 -1.895597
v 0.051811 3.551325 -1.003830
v -0.408544 0.000002 1.790585
v -0.335971 3.551328 1.511453
v 0.145886 0.043389 -2.110127
v -2.061942 0.000001 0.585372
v -1.656632 2.675618 0.079194
v 1.075823 3.893123 1.675813
v 1.892463 3.897278 0.974345
v -1.522182 2.605924 -0.923812
v -1.055230 2.723131 -1.242206
v 0.199408 3.615322 -1.135504
v 0.868801 3.760298 -1.254163
v 0.412631 3.427602 -1.406438
v 1.758928 3.847836 -1.065259
v 2.105701 3.886703 -0.727710
v 2.372807 0.054708 1.779723
v 2.115819 0.053731 2.040434
v 1.651799 3.317356 1.637198
v 1.926829 3.319823 1.400115
v 2.727625 0.060913 -1.143733
v 2.254396 3.054400 -0.926491
v 2.100377 3.031254 -1.095104
v -1.746300 -0.000001 -1.461982
v -1.109136 -0.000002 -1.684947
v -1.317245 2.309482 -1.316416
v -1.515142 2.166517 -1.249290
v -0.828183 3.257326 1.269321
v -1.405387 2.878501 0.678569
v -1.504403 0.000001 1.268959
v -1.666702 0.000001 1.139969
v -1.355913 2.338839 1.016679
v -1.208653 2.472216 1.148942
v 0.494626 0.788316 2.293149
v 0.537805 0.042248 2.388971
v 0.401287 3.817461 1.833338
v 0.794646 3.782067 1.866728
v 0.770732 3.890204 1.831371
v 0.569297 3.870696 1.764532
v 0.926984 0.785457 2.307359
v 0.841564 2.259454 2.097854
v 0.710799 0.717936 2.319118
v 5.666219 -0.000002 -2.247211
v 3.584184 -0.000002 -2.267679
v 4.003178 0.000000 0.354902
v 2.005717 -0.000002 -1.852166
v 4.259411 -0.000000 -0.036408
v 4.457047 1.999999 -0.425174
v 4.287453 -0.000002 -2.058823
v 4.283338 1.999998 -1.696502
v 6.136957 -0.000002 -1.302240
v 5.781826 1.999998 -1.253718
v 3.767851 2.340592 -0.978537
v 1.829281 -0.000000 -0.256658
v 2.087936 2.340592 -0.515829
v 4.370192 1.999999 -1.060838
v 5.149660 1.999999 -0.519810
v 5.665979 1.999999 -0.936026
v 2.450014 1.578845 -0.052246
v 2.748480 2.340593 -0.248842
v 2.327601 2.340593 -0.362578
v 2.771837 2.340591 -1.450682
v 2.305510 1.938976 -1.440974
v 2.236439 2.340592 -0.961851
v 3.707028 2.340591 -1.423683
v 3.884530 2.223058 -1.674248
v 3.705216 2.111859 -1.732094
v 3.439714 2.340591 -1.607440
v 5.400460 1.733544 -1.897337
v 5.087264 1.999998 -1.806347
v 5.519608 1.999998 -1.620042
v 6.007958 -0.000001 -0.633567
v 5.330285 -0.000001 -0.182728
v 5.439316 1.763342 -0.516581
v 5.629840 1.761594 -0.668418
v 3.834797 2.340592 -0.488582
v 3.665640 2.340592 -0.286515
v 3.901618 1.675559 -0.110023
v 4.028318 2.245110 -0.331171
v 2.025638 1.973404 -1.064715
v 2.285164 1.049260 -2.097368
v 2.012436 -0.000002 -2.336158
v 1.889987 2.173753 -2.125210
v 1.469250 2.173754 -1.103519
v 1.976559 0.636902 -2.274351
v 1.490461 2.173753 -2.139541
v 1.191599 2.173754 -1.892383
v 0.913369 -0.000002 -2.175308
v 1.289762 -0.000002 -2.486255
v 1.259698 0.636902 -2.356597
v 1.161194 1.405328 -2.148634
v 1.253208 1.405328 -2.224730
v 1.297578 1.995582 -2.164254
v 1.205567 1.995656 -2.088085
v 0.873101 -0.000001 -1.266005
v 1.119888 2.173754 -1.427236
v 0.951094 0.636903 -1.313053
v 1.041071 1.405328 -1.369475
v 2.354444 -0.000002 -2.228642
v 2.589935 -0.000002 -2.019409
v 2.524609 0.636902 -1.971535
v 2.288880 0.636902 -2.180079
v 2.027737 2.042490 -2.076801
v 2.143885 1.916300 -1.814979
v 2.203621 1.690231 -2.042404
v 2.087239 1.502738 -1.095792
v 2.172652 1.248655 -1.094618
v 2.047085 1.326093 -1.121950
v 1.116847 0.636902 -2.238534
v 0.982555 0.350235 -2.174779
v 1.028931 0.636902 -2.074113
v 1.054974 0.736358 -2.171019
v 2.030738 1.306706 -2.171415
v 1.960827 0.916184 -2.247249
v 1.791840 1.405328 -2.204970
v 1.925351 1.545974 -2.186132
v 2.576896 0.389942 -1.029626
v 2.521999 0.636903 -1.123477
v 2.481682 0.707117 -1.048405
v -1.448964 -0.000001 -1.532706
v -1.048918 1.090544 -1.497281
v -1.270274 0.777305 -1.494950
v -1.321105 -0.000002 -2.362039
v -1.113061 -0.000002 -2.514504
v -0.968842 1.004792 -2.122659
v -1.057878 0.281375 -2.439205
v -1.251219 0.356352 -2.266676
v -0.001755 -0.000002 -1.755617
v -0.425386 0.930615 -1.474141
v -0.221374 0.777304 -1.527892
v -0.093529 -0.000002 -2.357323
v -0.149077 0.777304 -1.996837
v -0.301541 0.777304 -2.204882
v 3.170269 -0.000002 -2.063498
v 3.045268 0.379776 -2.079337
v 2.950138 0.532820 -2.027878
v 2.711578 0.490924 -1.832992
v 2.631045 -0.000002 -1.645556
v 2.637094 -0.000002 -2.486285
v 2.861506 -0.000002 -2.461861
v 2.772107 0.464353 -2.257571
v 2.845668 0.379776 -2.336859
v 2.720647 0.379776 -2.352700
v 2.322282 -0.000002 -2.043918
v 2.491939 -0.000002 -2.288158
v 2.463125 0.379776 -2.153100
v 2.447284 0.379777 -2.028080
v -2.747125 0.927270 0.075341
v -1.865494 0.493032 0.733380
v -1.681837 1.021412 0.367581
v -2.904103 -0.000000 -0.270742
v -2.655937 1.021412 -0.226874
v -2.831391 0.299271 -0.257889
v -2.743664 0.660341 -0.242381
v -1.509337 1.021412 -0.007737
v -1.626230 1.021411 -0.391010
v -1.245799 -0.000000 -0.543868
v -2.442764 -0.000001 -0.861277
v -2.096963 -0.000001 -0.943769
v -2.041315 1.021411 -0.644321
v -2.423153 0.299270 -0.780004
v -2.083102 0.299270 -0.850686
v -2.065066 0.660341 -0.742448
v -1.767843 0.000001 0.851639
v -2.061003 0.000001 0.993038
v -2.080688 0.299272 0.911705
v -1.788091 0.299271 0.769806
v -3.053613 0.000001 0.662122
v -3.093333 0.000000 0.211299
v -3.011182 0.299271 0.191791
v -2.807862 0.660341 -0.026593
v -2.078633 0.900439 0.486380
v -1.885494 0.794213 0.633763
v -2.786176 0.654583 0.035696
v -2.777053 0.586723 0.227432
v -2.701068 0.623110 0.118549
v -2.741977 0.706112 0.146444
v -1.388249 0.299270 -0.473892
v -2.488925 1.021411 -0.439841
v -2.195677 1.021411 -0.616471
v -2.381310 0.938785 -0.606382
v -2.291988 0.660341 -0.701411
v -2.415190 0.420899 -0.746979
v -2.466873 0.660341 -0.595927
v -2.396291 0.709638 -0.668584
v -1.782766 0.959734 0.479703
v -2.976502 0.299271 0.456555
v -2.999742 0.183229 0.587109
v -2.888416 0.299271 0.572066
v -2.943981 0.332264 0.503772
v 0.366720 0.000003 3.566135
v 1.894055 0.000003 3.289820
v 2.466663 0.000001 1.204535
v 2.991678 0.000002 2.764735
v 1.220337 0.000001 1.428182
v 1.461640 1.170309 2.022222
v 1.349898 0.000003 3.235291
v 1.302218 1.000012 2.969420
v -0.110168 0.000003 2.940085
v 0.143071 1.000012 2.854869
v 1.579208 1.170309 2.371601
v 2.897635 0.000001 1.571815
v 2.744507 1.170309 1.797767
v 1.149686 1.000012 2.516138
v 0.503263 1.000011 2.229052
v 0.183445 1.000012 2.606046
v 2.414533 0.789431 1.508989
v 2.223501 1.170309 1.694695
v 2.547583 1.170309 1.719088
v 2.374550 1.170310 2.577954
v 2.714638 0.969500 2.505602
v 2.698177 1.170309 2.145122
v 1.686023 1.170310 2.689029
v 1.591113 1.111543 2.897328
v 1.730501 1.055943 2.914595
v 1.907461 1.170310 2.786176
v 0.512357 0.866784 3.272771
v 0.728950 1.000012 3.162328
v 0.386320 1.000012 3.086405
v -0.109270 0.000002 2.432433
v 0.323847 0.000002 2.007514
v 0.290724 0.881682 2.267214
v 0.172465 0.880808 2.405046
v 1.514481 1.152102 1.900354
v 2.302684 1.702053 0.777371
v 2.900114 0.904985 1.658738
v 3.259879 0.000001 1.614346
v 3.184082 1.874854 1.382508
v 2.304671 0.000000 0.335790
v 2.481930 1.874854 0.529952
v 2.331334 0.549327 0.445938
v 3.237671 0.549328 1.546419
v 2.406632 1.212090 0.487945
v 3.460867 1.874854 1.094036
v 3.475557 1.874854 0.706493
v 3.871909 0.000000 0.687395
v 3.853163 0.000001 1.175255
v 3.776472 0.549327 1.066473
v 3.686952 1.212090 0.854485
v 3.682430 1.212091 0.973803
v 3.607768 1.721183 0.966620
v 3.612233 1.721246 0.847256
v 3.220457 -0.000000 0.051734
v 3.176355 1.874853 0.343200
v 2.878091 -0.000000 0.017475
v 3.185764 1.212090 0.245939
v 2.951893 0.000002 1.797850
v 2.638977 0.000002 1.834153
v 2.646775 0.549328 1.753538
v 2.959336 0.549328 1.716599
v 2.279481 1.212091 0.664897
v 3.056227 1.761641 1.453017
v 2.783569 1.652802 1.365273
v 2.913425 1.457819 1.561304
v 3.783549 0.549327 0.881283
v 3.825435 0.302078 0.738649
v 3.719458 0.549327 0.706195
v 3.774396 0.635107 0.790163
v 2.702200 1.874854 0.388192
v 3.026373 1.874853 0.319701
v 2.853430 1.723190 0.270043
v 2.965249 1.212090 0.211483
v 2.867049 0.772583 0.130735
v 2.771875 1.212090 0.252462
v 2.859462 1.302579 0.208414
v 3.124803 1.127030 1.518273
v 3.227932 0.790207 1.516632
v 3.308946 1.212091 1.362420
v 3.205972 1.333398 1.449463
v 1.986780 0.609887 1.106685
v 3.579111 0.000000 0.484224
v 3.616504 0.000000 0.363879
v 3.699437 0.379779 0.521611
v 3.802082 0.532822 0.487523
v 3.736831 0.379779 0.401266
v 4.062593 -0.000000 0.129290
v 4.182938 -0.000000 0.166683
v 4.070963 0.490926 0.337209
v 4.169404 0.137476 0.210240
v 4.045453 0.174109 0.184453
v 4.030418 0.000001 0.993485
v 3.813700 0.000001 0.930312
v 3.937344 0.464355 0.744734
v 3.851088 0.379779 0.809986
v 3.971433 0.379779 0.847379
v 4.417527 0.000000 0.612772
v 4.207891 0.000001 0.823696
v 4.259808 0.379779 0.695728
v 4.297201 0.379779 0.575384
v -0.941493 0.000001 1.457554
v -0.992867 0.000002 1.572627
v -1.056549 0.379780 1.406187
v -1.162506 0.532824 1.427887
v -1.107923 0.379780 1.521260
v -1.463585 0.000002 1.752771
v -1.578658 0.000002 1.701397
v -1.447287 0.490927 1.545321
v -1.560064 0.137478 1.659748
v -1.440036 0.174110 1.700024
v -1.266376 0.464356 1.156474
v -1.758802 0.000001 1.230679
v -1.525675 0.000001 1.046048
v -1.592373 0.379780 1.166971
v -1.643747 0.379780 1.282044
vt 0.804984 0.148987
vt 0.766711 0.124358
vt 0.804984 0.123283
vt 0.889933 0.627067
vt 0.903664 0.530396
vt 0.903664 0.632721
vt 0.411824 0.799324
vt 0.452169 0.785384
vt 0.452169 0.843049
vt 0.901041 0.512117
vt 0.878575 0.500282
vt 0.885798 0.446003
vt 0.901041 0.438141
vt 0.558219 0.441374
vt 0.493438 0.413589
vt 0.558219 0.247710
vt 0.563523 0.428786
vt 0.617556 0.240675
vt 0.617556 0.441374
vt 0.700377 0.215198
vt 0.742619 0.200957
vt 0.742619 0.353200
vt 0.194500 0.640250
vt 0.175095 0.576732
vt 0.194500 0.546640
vt 0.985081 0.181091
vt 0.977978 0.169480
vt 0.985081 0.144777
vt 0.672009 0.181083
vt 0.706321 0.174739
vt 0.706321 0.191317
vt 0.972612 0.515798
vt 0.950412 0.522143
vt 0.960348 0.495829
vt 0.972612 0.495443
vt 0.402336 0.568916
vt 0.288501 0.561974
vt 0.295859 0.466928
vt 0.402336 0.457699
vt 0.292953 0.887561
vt 0.292953 0.929524
vt 0.271599 0.928974
vt 0.269486 0.886985
vt 0.497184 0.801102
vt 0.497184 0.868875
vt 0.467010 0.864230
vt 0.464049 0.803727
vt 0.789004 0.446678
vt 0.789004 0.645477
vt 0.773980 0.645053
vt 0.679642 0.799698
vt 0.644306 0.751388
vt 0.679642 0.705414
vt 0.257809 0.727953
vt 0.180257 0.714666
vt 0.192158 0.667944
vt 0.257809 0.649604
vt 0.383726 0.059737
vt 0.455693 0.002652
vt 0.455693 0.242406
vt 0.910977 0.901412
vt 0.896512 0.863316
vt 0.910977 0.807495
vt 0.682389 0.389684
vt 0.661648 0.205266
vt 0.695073 0.200957
vt 0.695073 0.394622
vt 0.695992 0.931379
vt 0.695987 0.903543
vt 0.717530 0.893320
vt 0.717530 0.937184
vt 0.961746 0.428380
vt 0.946566 0.389410
vt 0.961746 0.385695
vt 0.541974 0.180732
vt 0.460997 0.102902
vt 0.541974 0.002652
vt 0.638613 0.917516
vt 0.627167 0.887861
vt 0.638613 0.829111
vt 0.838342 0.438141
vt 0.838342 0.567011
vt 0.821170 0.480290
vt 0.920256 0.667926
vt 0.938022 0.652681
vt 0.938022 0.718266
vt 0.199818 0.488082
vt 0.257809 0.458719
vt 0.257809 0.644300
vt 0.711579 0.002652
vt 0.711579 0.169286
vt 0.672275 0.013410
vt 0.815866 0.567011
vt 0.794307 0.477718
vt 0.815866 0.446678
vt 0.646103 0.446678
vt 0.646103 0.607434
vt 0.589825 0.465974
vt 0.114823 0.583917
vt 0.169791 0.546640
vt 0.169791 0.690961
vt 0.464049 0.939565
vt 0.464049 0.918232
vt 0.489590 0.912398
vt 0.489590 0.945398
vt 0.932199 0.644114
vt 0.908967 0.636817
vt 0.914564 0.607955
vt 0.932199 0.601317
vt 0.373308 0.918237
vt 0.343203 0.895391
vt 0.373308 0.883343
vt 0.563798 0.963752
vt 0.563798 0.988844
vt 0.556154 0.987043
vt 0.553151 0.971757
vt 0.927552 0.438141
vt 0.927552 0.499716
vt 0.907284 0.496380
vt 0.906345 0.444635
vt 0.795290 0.117980
vt 0.766711 0.092500
vt 0.795290 0.002652
vt 0.488134 0.586826
vt 0.424050 0.547866
vt 0.488134 0.408128
vt 0.747923 0.176388
vt 0.773814 0.156866
vt 0.773814 0.353200
vt 0.114823 0.395727
vt 0.188555 0.366090
vt 0.188555 0.541336
vt 0.843608 0.003517
vt 0.843608 0.166729
vt 0.831115 0.157341
vt 0.830062 0.002652
vt 0.829371 0.892809
vt 0.802826 0.860492
vt 0.829371 0.824679
vt 0.889144 0.192380
vt 0.903687 0.188778
vt 0.903687 0.291102
vt 0.737645 0.624609
vt 0.704406 0.538487
vt 0.737645 0.446678
vt 0.972548 0.776720
vt 0.964193 0.756216
vt 0.972548 0.734160
vt 0.263113 0.538873
vt 0.280796 0.458719
vt 0.280796 0.561282
vt 0.383110 0.830371
vt 0.406464 0.766797
vt 0.406464 0.850489
vt 0.583249 0.772878
vt 0.573349 0.762525
vt 0.583249 0.734253
vt 0.944339 0.962952
vt 0.938962 0.937045
vt 0.960258 0.938314
vt 0.960258 0.965235
vt 0.857862 0.834355
vt 0.834675 0.801393
vt 0.857862 0.740066
vt 0.779118 0.192268
vt 0.810740 0.156866
vt 0.810740 0.257142
vt 0.504031 0.874179
vt 0.504031 0.907094
vt 0.464049 0.898694
vt 0.937411 0.807878
vt 0.954661 0.807495
vt 0.954661 0.855121
vt 0.454010 0.981494
vt 0.438587 0.982736
vt 0.439563 0.972894
vt 0.454010 0.965662
vt 0.944243 0.265114
vt 0.931908 0.213440
vt 0.944243 0.188778
vt 0.672261 0.617156
vt 0.691844 0.606824
vt 0.691844 0.700110
vt 0.613840 0.178279
vt 0.666705 0.162772
vt 0.666705 0.191317
vt 0.180257 0.868454
vt 0.218419 0.855501
vt 0.218419 0.896684
vt 0.945108 0.505696
vt 0.932856 0.477460
vt 0.945108 0.438141
vt 0.931645 0.302302
vt 0.931500 0.286351
vt 0.951285 0.273512
vt 0.951285 0.316935
vt 0.864916 0.511982
vt 0.864916 0.565251
vt 0.843646 0.561929
vt 0.772219 0.947245
vt 0.794331 0.930771
vt 0.794331 0.961595
vt 0.458589 0.780080
vt 0.411824 0.756169
vt 0.429450 0.698150
vt 0.458589 0.700771
vt 0.606695 0.191552
vt 0.606695 0.233677
vt 0.548918 0.219472
vt 0.547278 0.196155
vt 0.109519 0.508962
vt 0.002652 0.508033
vt 0.015917 0.377450
vt 0.109519 0.366090
vt 0.187238 0.909005
vt 0.187238 0.959299
vt 0.174145 0.920599
vt 0.541080 0.241182
vt 0.516068 0.219785
vt 0.541080 0.186036
vt 0.337900 0.951892
vt 0.337900 0.973253
vt 0.322002 0.973726
vt 0.314032 0.950483
vt 0.828310 0.734762
vt 0.795362 0.684497
vt 0.828310 0.652681
vt 0.968988 0.853297
vt 0.959965 0.838590
vt 0.968988 0.807495
vt 0.884629 0.530396
vt 0.884629 0.644485
vt 0.870789 0.632021
vt 0.568046 0.810045
vt 0.568046 0.852052
vt 0.514919 0.810045
vt 0.263022 0.733257
vt 0.263022 0.826542
vt 0.236933 0.812779
vt 0.584521 0.449060
vt 0.584521 0.582142
vt 0.510759 0.562483
vt 0.493438 0.446678
vt 0.732993 0.887628
vt 0.695987 0.888016
vt 0.696753 0.840778
vt 0.732993 0.839301
vt 0.109402 0.816779
vt 0.098787 0.773134
vt 0.109402 0.751216
vt 0.873234 0.324082
vt 0.873234 0.398800
vt 0.846374 0.395640
vt 0.855635 0.326153
vt 0.805399 0.324082
vt 0.805399 0.438171
vt 0.779826 0.341211
vt 0.194370 0.345095
vt 0.184418 0.317412
vt 0.194370 0.298649
vt 0.865485 0.572315
vt 0.865485 0.644485
vt 0.837479 0.607433
vt 0.956130 0.887494
vt 0.956130 0.931741
vt 0.938962 0.923733
vt 0.948380 0.886464
vt 0.894114 0.802191
vt 0.863165 0.773787
vt 0.894114 0.740066
vt 0.810703 0.355120
vt 0.841070 0.324082
vt 0.841070 0.409317
vt 0.790058 0.764562
vt 0.742949 0.748615
vt 0.790058 0.652681
vt 0.595388 0.946496
vt 0.580168 0.894217
vt 0.595388 0.883480
vt 0.580442 0.670353
vt 0.493438 0.662329
vt 0.525366 0.594326
vt 0.580442 0.587446
vt 0.098130 0.867293
vt 0.098130 0.896710
vt 0.052504 0.896709
vt 0.795783 0.925467
vt 0.772219 0.890691
vt 0.795783 0.872198
vt 0.960594 0.490139
vt 0.950412 0.465825
vt 0.960594 0.438141
vt 0.335550 0.840393
vt 0.324703 0.818435
vt 0.335550 0.773968
vt 0.544595 0.876094
vt 0.571000 0.857356
vt 0.571000 0.913303
vt 0.916281 0.888430
vt 0.933659 0.886464
vt 0.933659 0.941610
vt 0.089195 0.979070
vt 0.089200 0.971249
vt 0.102893 0.962378
vt 0.102893 0.987771
vt 0.737645 0.833483
vt 0.695987 0.833997
vt 0.700530 0.792068
vt 0.737645 0.777175
vt 0.337900 0.883343
vt 0.337900 0.945180
vt 0.320749 0.885963
vt 0.678717 0.861437
vt 0.678717 0.905197
vt 0.648501 0.897020
vt 0.644306 0.869502
vt 0.194515 0.219848
vt 0.002652 0.200667
vt 0.039720 0.005208
vt 0.194515 0.002652
vt 0.458725 0.960358
vt 0.438587 0.935533
vt 0.458725 0.923665
vt 0.880583 0.072183
vt 0.879846 0.020777
vt 0.901518 0.002652
vt 0.901518 0.077370
vt 0.961261 0.675683
vt 0.974312 0.652681
vt 0.974312 0.686678
vt 0.231600 0.806333
vt 0.231600 0.850197
vt 0.187170 0.844638
vt 0.180257 0.811657
vt 0.231629 0.801029
vt 0.180257 0.797021
vt 0.194390 0.738021
vt 0.231629 0.733257
vt 0.616797 0.942978
vt 0.600692 0.895547
vt 0.616797 0.883480
vt 0.377472 0.234950
vt 0.377472 0.303314
vt 0.368250 0.302593
vt 0.986083 0.725745
vt 0.978265 0.725679
vt 0.978262 0.691982
vt 0.986083 0.692053
vt 0.970846 0.585536
vt 0.982761 0.568070
vt 0.982761 0.588193
vt 0.968391 0.077011
vt 0.950951 0.066033
vt 0.968391 0.044721
vt 0.343222 0.959897
vt 0.343203 0.923540
vt 0.363820 0.924163
vt 0.363820 0.960525
vt 0.891105 0.957163
vt 0.911418 0.956010
vt 0.911418 0.977321
vt 0.891092 0.978455
vt 0.990212 0.627773
vt 0.990212 0.645324
vt 0.983790 0.637890
vt 0.402336 0.574220
vt 0.402336 0.643344
vt 0.285939 0.630598
vt 0.269486 0.581272
vt 0.432578 0.956489
vt 0.432578 0.976982
vt 0.411824 0.971945
vt 0.017568 0.984866
vt 0.002652 0.976165
vt 0.002658 0.968344
vt 0.017568 0.959473
vt 0.193630 0.359251
vt 0.184418 0.351240
vt 0.193630 0.350399
vt 0.959519 0.989767
vt 0.955377 0.978362
vt 0.959519 0.970539
vt 0.863165 0.976822
vt 0.879036 0.970552
vt 0.879036 0.983309
vt 0.966748 0.266918
vt 0.949547 0.247585
vt 0.966748 0.232961
vt 0.639002 0.784080
vt 0.639002 0.823807
vt 0.580168 0.809384
vt 0.580295 0.797493
vt 0.906822 0.065873
vt 0.925746 0.002652
vt 0.925746 0.070195
vt 0.314223 0.886985
vt 0.314223 0.939015
vt 0.298256 0.931464
vt 0.874542 0.073562
vt 0.848912 0.078881
vt 0.851676 0.004957
vt 0.874542 0.002652
vt 0.651407 0.604338
vt 0.651407 0.594854
vt 0.659659 0.594854
vt 0.659659 0.606865
vt 0.918647 0.802191
vt 0.899418 0.795543
vt 0.909256 0.739021
vt 0.918647 0.734160
vt 0.903687 0.304657
vt 0.879668 0.315755
vt 0.877488 0.296406
vt 0.903687 0.296406
vt 0.507449 0.912398
vt 0.507449 0.952390
vt 0.494894 0.940816
vt 0.766915 0.927140
vt 0.742949 0.877672
vt 0.766915 0.872198
vt 0.441380 0.903301
vt 0.411824 0.857923
vt 0.441380 0.848352
vt 0.958926 0.324082
vt 0.958926 0.380391
vt 0.946566 0.368882
vt 0.510764 0.186036
vt 0.510764 0.238317
vt 0.460997 0.209375
vt 0.669847 0.916334
vt 0.669847 0.937667
vt 0.644306 0.943501
vt 0.644306 0.910501
vt 0.421805 0.648648
vt 0.421805 0.692847
vt 0.278796 0.683161
vt 0.269486 0.669444
vt 0.952319 0.153580
vt 0.972674 0.153453
vt 0.972674 0.173002
vt 0.952148 0.181091
vt 0.991387 0.301628
vt 0.983461 0.292261
vt 0.991387 0.273512
vt 0.835985 0.183474
vt 0.828654 0.178271
vt 0.835985 0.174484
vt 0.002652 0.926192
vt 0.023362 0.916882
vt 0.023362 0.954169
vt 0.054394 0.839204
vt 0.105789 0.822136
vt 0.105789 0.861989
vt 0.052504 0.855986
vt 0.764675 0.969714
vt 0.764675 0.991777
vt 0.756054 0.989228
vt 0.507449 0.983893
vt 0.492669 0.983811
vt 0.499197 0.957694
vt 0.507449 0.957694
vt 0.656344 0.201621
vt 0.656344 0.441374
vt 0.622859 0.427324
vt 0.639719 0.200957
vt 0.675151 0.934874
vt 0.689167 0.910501
vt 0.689167 0.957008
vt 0.109472 0.867293
vt 0.109472 0.894804
vt 0.103434 0.889181
vt 0.784975 0.966899
vt 0.784975 0.984780
vt 0.772219 0.970912
vt 0.201182 0.234950
vt 0.283197 0.257698
vt 0.283197 0.453415
vt 0.199818 0.410190
vt 0.580442 0.675657
vt 0.580442 0.728949
vt 0.464049 0.709601
vt 0.464102 0.693649
vt 0.967050 0.378340
vt 0.973343 0.377679
vt 0.973343 0.428380
vt 0.914583 0.182852
vt 0.890388 0.180111
vt 0.890384 0.162391
vt 0.914583 0.153453
vt 0.427116 0.664252
vt 0.431227 0.646499
vt 0.431227 0.665626
vt 0.969951 0.801109
vt 0.964193 0.786635
vt 0.969951 0.782024
vt 0.975325 0.022832
vt 0.972005 0.003568
vt 0.984241 0.002652
vt 0.984241 0.023985
vt 0.943326 0.724044
vt 0.943326 0.714560
vt 0.951577 0.714560
vt 0.951577 0.726571
vt 0.774522 0.358504
vt 0.774522 0.438171
vt 0.706960 0.429130
vt 0.700377 0.359431
vt 0.925395 0.414621
vt 0.925395 0.430849
vt 0.879821 0.430723
vt 0.879054 0.418873
vt 0.608536 0.182910
vt 0.564071 0.186248
vt 0.547278 0.032469
vt 0.608536 0.002652
vt 0.956589 0.307419
vt 0.977184 0.302016
vt 0.977184 0.315884
vt 0.168841 0.909671
vt 0.168841 0.945941
vt 0.147490 0.945305
vt 0.145377 0.909005
vt 0.988044 0.918231
vt 0.988044 0.931562
vt 0.982736 0.924277
vt 0.928378 0.596013
vt 0.908967 0.587104
vt 0.916730 0.533215
vt 0.928378 0.530396
vt 0.986833 0.417606
vt 0.986833 0.429143
vt 0.978647 0.422448
vt 0.689167 0.986860
vt 0.674070 0.987098
vt 0.678898 0.962475
vt 0.689167 0.962312
vt 0.187725 0.964603
vt 0.187725 0.984365
vt 0.174145 0.973549
vt 0.518660 0.743600
vt 0.518660 0.791801
vt 0.464049 0.795798
vt 0.488898 0.734253
vt 0.908904 0.399488
vt 0.908904 0.407533
vt 0.902905 0.405517
vt 0.989356 0.798171
vt 0.977852 0.772586
vt 0.989356 0.771707
vt 0.233507 0.974934
vt 0.233507 0.997348
vt 0.225645 0.986596
vt 0.926196 0.265885
vt 0.926196 0.316935
vt 0.908991 0.308350
vt 0.918430 0.264992
vt 0.258183 0.974934
vt 0.258183 0.988306
vt 0.254541 0.981892
vt 0.072896 0.648294
vt 0.002652 0.639705
vt 0.006930 0.522060
vt 0.072896 0.514266
vt 0.315766 0.830063
vt 0.315766 0.839574
vt 0.313598 0.833813
vt 0.977800 0.331670
vt 0.988760 0.324082
vt 0.988760 0.353454
vt 0.996033 0.683211
vt 0.991547 0.667327
vt 0.996033 0.652681
vt 0.928080 0.383833
vt 0.941262 0.324082
vt 0.941262 0.400538
vt 0.923951 0.781551
vt 0.941360 0.734160
vt 0.941360 0.796549
vt 0.996660 0.720489
vt 0.991387 0.712121
vt 0.996660 0.691982
vt 0.896374 0.676786
vt 0.914952 0.652681
vt 0.914952 0.727806
vt 0.458725 0.918361
vt 0.446684 0.894991
vt 0.458725 0.848352
vt 0.867497 0.679071
vt 0.891070 0.652681
vt 0.891070 0.727431
vt 0.970846 0.551858
vt 0.982718 0.530396
vt 0.982718 0.562766
vt 0.508864 0.857184
vt 0.502488 0.818098
vt 0.508864 0.801102
vt 0.931050 0.010353
vt 0.945647 0.002652
vt 0.945647 0.072192
vt 0.427109 0.683127
vt 0.455262 0.671567
vt 0.455262 0.692847
vt 0.833614 0.677769
vt 0.862193 0.652681
vt 0.862193 0.731364
vt 0.225645 0.927490
vt 0.251745 0.924345
vt 0.251745 0.951384
vt 0.979436 0.132399
vt 0.972869 0.110414
vt 0.979436 0.084185
vt 0.406520 0.761493
vt 0.342563 0.751157
vt 0.370476 0.702764
vt 0.406520 0.698150
vt 0.638613 0.961364
vt 0.623390 0.925589
vt 0.638613 0.922820
vt 0.044433 0.981764
vt 0.026492 0.979001
vt 0.044433 0.964644
vt 0.292953 0.936237
vt 0.292953 0.957598
vt 0.274558 0.958071
vt 0.265451 0.934828
vt 0.832175 0.642289
vt 0.794307 0.624036
vt 0.814510 0.572315
vt 0.832175 0.572630
vt 0.164742 0.791595
vt 0.118664 0.779552
vt 0.114823 0.719572
vt 0.164742 0.696265
vt 0.377806 0.766797
vt 0.377806 0.840948
vt 0.349301 0.840612
vt 0.342563 0.773125
vt 0.539291 0.918543
vt 0.514919 0.876784
vt 0.539291 0.857356
vt 0.995299 0.264128
vt 0.990696 0.256654
vt 0.995299 0.232961
vt 0.418746 0.454082
vt 0.418746 0.539129
vt 0.408428 0.529838
vt 0.692962 0.439529
vt 0.661648 0.439529
vt 0.692962 0.399926
vt 0.402558 0.855793
vt 0.402558 0.925333
vt 0.383110 0.915073
vt 0.978157 0.277569
vt 0.978157 0.296695
vt 0.956589 0.296712
vt 0.963986 0.273512
vt 0.139922 0.933833
vt 0.139922 0.948574
vt 0.115581 0.947909
vt 0.114823 0.916209
vt 0.967565 0.138482
vt 0.961483 0.132152
vt 0.967565 0.084185
vt 0.574700 0.966775
vt 0.569102 0.933762
vt 0.574700 0.918607
vt 0.397058 0.957869
vt 0.397058 0.972650
vt 0.370905 0.966265
vt 0.370860 0.958014
vt 0.897601 0.324082
vt 0.897601 0.409130
vt 0.878538 0.336851
vt 0.986066 0.412302
vt 0.978647 0.391666
vt 0.986066 0.377679
vt 0.884042 0.877955
vt 0.884042 0.931754
vt 0.863165 0.904133
vt 0.996993 0.997150
vt 0.991160 0.986788
vt 0.996993 0.972624
vt 0.855214 0.973426
vt 0.837377 0.972174
vt 0.832100 0.958027
vt 0.855214 0.949295
vt 0.863165 0.835796
vt 0.891209 0.807495
vt 0.891209 0.872651
vt 0.834675 0.862796
vt 0.857313 0.839659
vt 0.857313 0.903197
vt 0.797483 0.829819
vt 0.797483 0.866894
vt 0.742949 0.856562
vt 0.975311 0.975074
vt 0.965562 0.946932
vt 0.975311 0.937045
vt 0.139681 0.796899
vt 0.163780 0.801573
vt 0.163780 0.833412
vt 0.114823 0.843952
vt 0.402558 0.930637
vt 0.402558 0.952566
vt 0.370860 0.952566
vt 0.966267 0.227657
vt 0.949547 0.201181
vt 0.966267 0.188778
vt 0.617556 0.235371
vt 0.612124 0.219136
vt 0.617556 0.197829
vt 0.174282 0.776839
vt 0.170046 0.761283
vt 0.174282 0.696265
vt 0.544595 0.933229
vt 0.563798 0.918607
vt 0.563798 0.958448
vt 0.166441 0.953962
vt 0.166441 0.975489
vt 0.152142 0.974640
vt 0.145377 0.951245
vt 0.255147 0.969630
vt 0.225645 0.964436
vt 0.255147 0.956688
vt 0.871526 0.313845
vt 0.834143 0.302881
vt 0.830657 0.262446
vt 0.871526 0.268812
vt 0.230682 0.900276
vt 0.223723 0.870257
vt 0.230682 0.855501
vt 0.825353 0.262446
vt 0.825353 0.313496
vt 0.790062 0.313484
vt 0.779118 0.281296
vt 0.514965 0.955556
vt 0.514919 0.923847
vt 0.535079 0.924804
vt 0.535079 0.958711
vt 0.762941 0.932444
vt 0.762941 0.964411
vt 0.742949 0.960940
vt 0.378422 0.002652
vt 0.378422 0.229646
vt 0.263795 0.216954
vt 0.199818 0.028732
vt 0.971571 0.207927
vt 0.984426 0.188778
vt 0.984426 0.218663
vt 0.102168 0.514266
vt 0.102168 0.731710
vt 0.078200 0.731934
vt 0.078397 0.514739
vt 0.761407 0.002652
vt 0.761407 0.135689
vt 0.720790 0.122978
vt 0.716883 0.005053
vt 0.810703 0.429530
vt 0.873751 0.414621
vt 0.873751 0.432362
vt 0.693380 0.705414
vt 0.693380 0.770085
vt 0.684946 0.768193
vt 0.411824 0.908605
vt 0.432442 0.909143
vt 0.432442 0.951185
vt 0.411842 0.950642
vt 0.938335 0.868764
vt 0.963445 0.860425
vt 0.963445 0.879896
vt 0.937411 0.876964
vt 0.699102 0.446678
vt 0.699102 0.589550
vt 0.660731 0.585133
vt 0.651407 0.452378
vt 0.950073 0.970539
vt 0.950073 0.989429
vt 0.938962 0.975598
vt 0.217049 0.955847
vt 0.217049 0.976455
vt 0.193383 0.973049
vt 0.978498 0.616955
vt 0.958153 0.616950
vt 0.957964 0.594210
vt 0.978498 0.593679
vt 0.045252 0.872191
vt 0.002652 0.872581
vt 0.003315 0.825341
vt 0.045252 0.823864
vt 0.083891 0.962378
vt 0.083891 0.982440
vt 0.065048 0.975734
vt 0.625880 0.025527
vt 0.666971 0.002652
vt 0.666971 0.157468
vt 0.613840 0.137195
vt 0.597324 0.976575
vt 0.597324 0.988782
vt 0.591514 0.982383
vt 0.572738 0.991022
vt 0.569102 0.979446
vt 0.572738 0.972079
vt 0.961434 0.930806
vt 0.977432 0.916154
vt 0.977432 0.931562
vt 0.737645 0.637843
vt 0.737645 0.771871
vt 0.700159 0.743686
vt 0.708064 0.629913
vt 0.972044 0.476445
vt 0.972044 0.489388
vt 0.965898 0.483180
vt 0.666957 0.700110
vt 0.597203 0.695799
vt 0.589825 0.636034
vt 0.666957 0.612737
vt 0.249237 0.974934
vt 0.249237 0.991682
vt 0.238811 0.985998
vt 0.114823 0.957003
vt 0.137706 0.953878
vt 0.137706 0.975943
vt 0.337259 0.766071
vt 0.269486 0.768664
vt 0.278515 0.713314
vt 0.337259 0.698150
vt 0.868542 0.962965
vt 0.863165 0.937058
vt 0.884461 0.938327
vt 0.884461 0.965248
vt 0.644477 0.948931
vt 0.664832 0.948805
vt 0.664832 0.968353
vt 0.644306 0.976442
vt 0.547091 0.973498
vt 0.514919 0.971362
vt 0.547091 0.964014
vt 0.757386 0.149244
vt 0.745830 0.145118
vt 0.757386 0.140993
vt 0.750750 0.969714
vt 0.750750 0.995135
vt 0.742949 0.991446
vt 0.897264 0.647015
vt 0.889933 0.641812
vt 0.897264 0.638025
vt 0.983802 0.593679
vt 0.992053 0.593679
vt 0.992053 0.619878
vt 0.983802 0.619878
vt 0.717530 0.962843
vt 0.695330 0.969188
vt 0.705266 0.942874
vt 0.717530 0.942488
vt 0.916771 0.966325
vt 0.916771 0.946914
vt 0.933659 0.946914
vt 0.933659 0.971497
vt 0.441478 0.618559
vt 0.488134 0.592130
vt 0.488134 0.658122
vt 0.436531 0.664768
vt 0.086008 0.914926
vt 0.108804 0.902013
vt 0.108804 0.934256
vt 0.083591 0.937503
vt 0.695330 0.980747
vt 0.716487 0.974492
vt 0.716487 0.983482
vt 0.431227 0.641196
vt 0.411173 0.638928
vt 0.411169 0.595533
vt 0.431227 0.592130
vt 0.345018 0.967702
vt 0.364477 0.965828
vt 0.364477 0.978099
vt 0.343203 0.976507
vt 0.977607 0.471142
vt 0.965898 0.440816
vt 0.977607 0.438141
vt 0.996424 0.144777
vt 0.996424 0.172289
vt 0.990385 0.166666
vt 0.946844 0.153453
vt 0.946844 0.179652
vt 0.919887 0.171621
vt 0.645282 0.815974
vt 0.687109 0.805002
vt 0.687109 0.856133
vt 0.644306 0.852686
vt 0.987315 0.734160
vt 0.987315 0.766403
vt 0.977852 0.734789
vt 0.985570 0.358758
vt 0.985570 0.371028
vt 0.977800 0.361532
vt 0.994959 0.839263
vt 0.994959 0.864684
vt 0.987157 0.860994
vt 0.306077 0.944381
vt 0.306077 0.983339
vt 0.298259 0.983282
vt 0.298256 0.944319
vt 0.788387 0.811527
vt 0.742949 0.824515
vt 0.763286 0.770656
vt 0.788387 0.769866
vt 0.002652 0.806451
vt 0.014928 0.752298
vt 0.047200 0.751216
vt 0.047200 0.818560
vt 0.834517 0.921414
vt 0.857313 0.908501
vt 0.857313 0.940744
vt 0.832100 0.943991
vt 0.581092 0.960139
vt 0.606203 0.951800
vt 0.606203 0.971271
vt 0.580168 0.968338
vt 0.908967 0.517745
vt 0.941139 0.513082
vt 0.941139 0.525093
vt 0.796317 0.966899
vt 0.796317 0.994410
vt 0.790278 0.988787
vt 0.635603 0.966668
vt 0.635603 0.986217
vt 0.623390 0.985041
vt 0.220341 0.924345
vt 0.220341 0.950544
vt 0.193383 0.942512
vt 0.986243 0.686383
vt 0.979615 0.674103
vt 0.986243 0.652681
vt 0.362946 0.452395
vt 0.288501 0.290786
vt 0.362946 0.234950
vt 0.870789 0.518314
vt 0.893196 0.517481
vt 0.893196 0.525093
vt 0.823350 0.183474
vt 0.816044 0.128477
vt 0.823350 0.118473
vt 0.800594 0.012118
vt 0.824758 0.002652
vt 0.824758 0.110063
vt 0.768677 0.446678
vt 0.768677 0.647377
vt 0.742949 0.550963
vt 0.876830 0.272672
vt 0.883821 0.262446
vt 0.883821 0.288397
vt 0.586210 0.993784
vt 0.580168 0.989153
vt 0.586210 0.976575
vt 0.066652 0.745912
vt 0.002652 0.731580
vt 0.066652 0.653598
vt 0.639002 0.705414
vt 0.639002 0.778776
vt 0.589825 0.774880
vt 0.485986 0.975666
vt 0.464049 0.960896
vt 0.485986 0.950702
vt 0.308294 0.830063
vt 0.308294 0.881681
vt 0.269486 0.833539
vt 0.140073 0.910905
vt 0.114823 0.866920
vt 0.140073 0.849255
vt 0.933681 0.574323
vt 0.951075 0.530396
vt 0.951075 0.580327
vt 0.982911 0.447264
vt 0.990913 0.438141
vt 0.990913 0.466834
vt 0.885081 0.182852
vt 0.848912 0.160340
vt 0.885081 0.154159
vt 0.093483 0.816832
vt 0.052504 0.762325
vt 0.093483 0.751216
vt 0.173545 0.903701
vt 0.145377 0.862547
vt 0.173545 0.849255
vt 0.194118 0.225152
vt 0.194118 0.293345
vt 0.184418 0.291795
vt 0.174740 0.828307
vt 0.170046 0.787641
vt 0.174740 0.782143
vt 0.973695 0.066516
vt 0.980947 0.031978
vt 0.980947 0.077011
vt 0.981854 0.879848
vt 0.974292 0.864323
vt 0.981854 0.839263
vt 0.375520 0.448778
vt 0.391724 0.408128
vt 0.418746 0.417042
vt 0.418746 0.447546
vt 0.269486 0.778184
vt 0.319399 0.773968
vt 0.319399 0.824759
vt 0.849548 0.257142
vt 0.816044 0.217874
vt 0.849548 0.188778
vt 0.965542 0.578598
vt 0.956379 0.554078
vt 0.965542 0.530396
vt 0.737374 0.948077
vt 0.722834 0.920908
vt 0.737374 0.893320
vt 0.854851 0.229357
vt 0.883841 0.188778
vt 0.883841 0.255150
vt 0.993738 0.561591
vt 0.988022 0.541911
vt 0.993738 0.530396
vt 0.843646 0.500437
vt 0.851692 0.443632
vt 0.873271 0.438141
vt 0.873271 0.506678
vt 0.044433 0.959340
vt 0.028665 0.940995
vt 0.044433 0.916882
vt 0.736262 0.982192
vt 0.722834 0.971531
vt 0.736262 0.953381
vt 0.417855 0.544433
vt 0.417855 0.585795
vt 0.408428 0.577055
vt 0.488134 0.247710
vt 0.488134 0.402824
vt 0.422966 0.385027
vt 0.383726 0.259775
vt 0.261279 0.831846
vt 0.261279 0.900302
vt 0.236933 0.876320
vt 0.986377 0.522143
vt 0.977916 0.503129
vt 0.986377 0.487969
vt 0.952660 0.644114
vt 0.937502 0.594987
vt 0.952660 0.593679
vt 0.377239 0.377155
vt 0.368250 0.309292
vt 0.377239 0.308618
vt 0.996004 0.967320
vt 0.991160 0.940845
vt 0.996004 0.937045
vt 0.375309 0.400681
vt 0.368250 0.395936
vt 0.375309 0.382459
vt 0.621863 0.878177
vt 0.580168 0.863365
vt 0.591995 0.830115
vt 0.621863 0.829111
vt 0.941262 0.431637
vt 0.931051 0.421965
vt 0.941262 0.405841
vt 0.740526 0.194208
vt 0.716883 0.148170
vt 0.740526 0.140993
vt 0.922777 0.394184
vt 0.902905 0.377053
vt 0.922777 0.324082
vt 0.689436 0.901537
vt 0.684021 0.870162
vt 0.689436 0.861437
vt 0.955958 0.652681
vt 0.955958 0.709257
vt 0.943326 0.671197
vt 0.964230 0.366683
vt 0.972496 0.324082
vt 0.972496 0.366879
vt 0.261279 0.919041
vt 0.193383 0.909899
vt 0.261279 0.905606
vt 0.996724 0.405932
vt 0.991369 0.386909
vt 0.996724 0.377679
vt 0.987738 0.833959
vt 0.974292 0.822783
vt 0.987738 0.807495
vt 0.985392 0.261013
vt 0.972052 0.234554
vt 0.985392 0.232961
vt 0.078200 0.737432
vt 0.100940 0.737238
vt 0.100940 0.745507
vt 0.568046 0.804741
vt 0.523964 0.774632
vt 0.524045 0.750857
vt 0.568046 0.734253
vt 0.617277 0.951800
vt 0.617277 0.986999
vt 0.611506 0.971795
vt 0.043102 0.879461
vt 0.047140 0.877885
vt 0.047140 0.908554
vt 0.978643 0.910850
vt 0.961434 0.907764
vt 0.978643 0.886464
vt 0.995936 0.515352
vt 0.991681 0.514546
vt 0.995936 0.487969
vt 0.978486 0.622259
vt 0.978486 0.645324
vt 0.957964 0.635772
vt 0.377806 0.846251
vt 0.377806 0.878039
vt 0.321305 0.871600
vt 0.320749 0.856581
vt 0.956179 0.084185
vt 0.956179 0.131429
vt 0.940296 0.085006
vt 0.108804 0.942807
vt 0.108804 0.957074
vt 0.065048 0.956431
vt 0.986251 0.041645
vt 0.993584 0.031978
vt 0.993584 0.059053
vt 0.052504 0.928561
vt 0.078288 0.902013
vt 0.078288 0.936823
vt 0.829371 0.740066
vt 0.829371 0.819376
vt 0.795362 0.805411
vt 0.932107 0.881160
vt 0.916281 0.868931
vt 0.932107 0.807495
vt 0.910529 0.147627
vt 0.884897 0.104889
vt 0.910529 0.084185
vt 0.891092 0.918239
vt 0.910977 0.906716
vt 0.910977 0.950476
vt 0.896712 0.950706
vt 0.002652 0.881078
vt 0.037798 0.877885
vt 0.037798 0.911578
vt 0.823322 0.943687
vt 0.802826 0.927405
vt 0.823322 0.898113
vt 0.984740 0.112230
vt 0.989541 0.084185
vt 0.989541 0.119528
vt 0.291393 0.994678
vt 0.285916 0.978425
vt 0.291393 0.963375
vt 0.915833 0.140616
vt 0.934992 0.084185
vt 0.934992 0.147296
vt 0.879593 0.148855
vt 0.848912 0.107345
vt 0.879593 0.084185
vt 0.179114 0.360786
vt 0.002652 0.323988
vt 0.036236 0.236609
vt 0.179114 0.225152
vt 0.985856 0.975857
vt 0.980614 0.945490
vt 0.985856 0.937045
vt 0.958889 0.734160
vt 0.958889 0.788917
vt 0.946664 0.752082
vt 0.926604 0.259688
vt 0.908991 0.213070
vt 0.926604 0.188778
vt 0.995308 0.218783
vt 0.989730 0.199512
vt 0.995308 0.188778
vt 0.802997 0.949117
vt 0.823352 0.948990
vt 0.823352 0.968539
vt 0.802826 0.976628
vt 0.972958 0.728320
vt 0.961261 0.700742
vt 0.972958 0.691982
vt 0.406285 0.980176
vt 0.402362 0.966099
vt 0.406285 0.957869
vt 0.689130 0.799234
vt 0.684946 0.784405
vt 0.689130 0.775388
vt 0.966701 0.039417
vt 0.950951 0.023159
vt 0.966701 0.002652
vt 0.265451 0.964495
vt 0.280612 0.963375
vt 0.280612 0.985440
vt 0.059745 0.942807
vt 0.059745 0.978558
vt 0.050318 0.970977
vt 0.983947 0.886464
vt 0.992198 0.886464
vt 0.992198 0.912663
vt 0.983947 0.912663
vn -0.2682 0.6801 -0.6823
vn 0.0097 0.1413 0.9899
vn -0.7706 0.2861 0.5695
vn 0.1263 0.9906 -0.0525
vn 0.0000 1.0000 -0.0000
vn 0.1631 0.9670 0.1955
vn -0.0241 0.9972 -0.0702
vn -0.0706 0.9946 -0.0763
vn -0.1476 0.9826 0.1126
vn -0.4338 0.1221 0.8927
vn -0.4964 0.8640 -0.0844
vn -0.9866 0.0866 -0.1383
vn -0.6989 0.1980 -0.6872
vn -0.5730 0.4819 -0.6629
vn -0.3066 0.4333 -0.8475
vn -0.3330 0.5667 -0.7536
vn 0.0205 0.2685 0.9631
vn 0.0204 0.2685 0.9631
vn -0.0109 0.2396 0.9708
vn 0.2873 0.1085 -0.9517
vn 0.2631 0.0938 -0.9602
vn 0.2859 0.0756 -0.9553
vn 0.2983 0.1031 -0.9489
vn -0.9643 0.2335 -0.1249
vn -0.9643 0.2336 -0.1249
vn -0.9525 0.3046 -0.0017
vn 0.7173 0.1626 -0.6775
vn 0.1951 0.1172 -0.9738
vn 0.9905 0.1152 0.0745
vn 0.9639 0.2551 -0.0760
vn 0.0268 0.2432 -0.9696
vn -0.4882 0.1037 0.8665
vn -0.4176 0.9082 -0.0267
vn -0.0581 0.9951 -0.0802
vn -0.1316 0.9855 -0.1072
vn -0.3656 0.9296 -0.0463
vn 0.1529 0.1455 -0.9775
vn -0.1360 0.9904 -0.0232
vn -0.0941 0.9954 -0.0180
vn -0.1769 0.9670 0.1835
vn 0.4202 0.3646 0.8310
vn -0.3200 0.9461 -0.0493
vn -0.4841 0.8719 -0.0746
vn -0.4808 0.8737 -0.0735
vn -0.4841 0.8715 -0.0785
vn -0.4819 0.7664 -0.4247
vn -0.4936 0.8662 -0.0784
vn -0.4875 0.8698 -0.0754
vn -0.4903 0.8681 -0.0776
vn -0.5154 0.8473 -0.1280
vn 0.7695 0.2284 -0.5964
vn -0.7695 0.2132 -0.6021
vn -0.7696 0.2136 -0.6018
vn -0.1712 0.2686 -0.9479
vn -0.1715 0.2766 -0.9456
vn 0.4114 0.2533 -0.8756
vn 0.4375 0.3969 -0.8068
vn 0.4375 0.3969 -0.8069
vn 0.2132 0.1495 -0.9655
vn -0.1821 0.1389 -0.9734
vn -0.0575 0.2115 -0.9757
vn -0.4279 0.0948 0.8989
vn -0.7211 0.1194 0.6825
vn -0.6175 0.1230 0.7769
vn -0.9293 0.1311 0.3452
vn -0.0705 0.1476 0.9865
vn 0.3315 0.1516 0.9312
vn 0.9131 0.2353 0.3330
vn 0.1169 0.3034 -0.9457
vn 0.4532 0.2284 0.8617
vn 0.4531 0.2284 0.8617
vn 0.6451 0.3596 0.6742
vn -0.2181 0.2436 -0.9451
vn -0.2260 0.2396 -0.9442
vn -0.2225 0.2314 -0.9471
vn 0.3510 0.2701 0.8966
vn 0.7012 0.4046 0.5870
vn 0.3008 0.8732 0.3834
vn -0.2082 0.8552 0.4747
vn -0.2083 0.8552 0.4747
vn -0.1333 0.1764 -0.9753
vn -0.2461 0.3315 0.9108
vn -0.5355 0.6076 -0.5865
vn -0.9278 0.2090 -0.3089
vn 0.4952 0.6144 0.6142
vn 0.4843 0.8724 -0.0662
vn 0.3122 0.6144 -0.7246
vn -0.5350 0.6532 0.5359
vn -0.5537 0.5589 0.6173
vn -0.9905 0.1158 -0.0747
vn -0.9801 0.1937 -0.0434
vn -0.2473 0.2375 -0.9394
vn -0.2305 0.2394 -0.9432
vn -0.2283 0.2442 -0.9425
vn -0.4462 0.4084 0.7963
vn 0.5052 0.1922 0.8413
vn 0.4665 0.1500 0.8717
vn 0.4510 0.2160 0.8660
vn 0.6467 0.2340 0.7260
vn 0.5904 0.1225 0.7977
vn -0.2209 0.2565 -0.9410
vn 0.9886 0.1456 0.0377
vn -0.7608 0.2201 0.6105
vn -0.5218 0.2486 0.8160
vn -0.2600 0.4791 -0.8383
vn -0.2600 0.4792 -0.8383
vn -0.1658 0.3453 -0.9237
vn 0.7903 0.2353 -0.5657
vn 0.1333 0.1764 0.9753
vn 0.7340 0.6786 0.0278
vn 0.2507 0.9629 -0.0999
vn 0.2835 0.9503 -0.1289
vn -0.9844 0.0896 -0.1518
vn -0.5380 0.1143 -0.8351
vn 0.9815 0.1480 0.1211
vn 0.9820 0.1466 0.1195
vn 0.9817 0.1473 0.1203
vn 0.9816 0.1482 0.1201
vn -0.6318 0.1260 -0.7648
vn -0.1767 0.9209 0.3475
vn -0.1534 0.9557 0.2514
vn -0.1534 0.9556 0.2514
vn 0.1989 0.1524 -0.9681
vn 0.7677 0.1037 -0.6323
vn -0.7534 0.3209 0.5739
vn -0.7534 0.3208 0.5739
vn -0.6906 0.2332 0.6846
vn -0.9761 0.1930 -0.0998
vn -0.9829 0.1328 -0.1279
vn 0.9886 0.1456 0.0373
vn -0.8427 0.2946 -0.4506
vn 0.6547 0.1543 -0.7400
vn 0.1142 0.1427 0.9832
vn 0.1143 0.1428 0.9831
vn 0.1160 0.1437 0.9828
vn 0.1159 0.1437 0.9828
vn 0.4199 0.2647 0.8681
vn 0.4191 0.2637 0.8688
vn 0.4206 0.2656 0.8675
vn 0.2607 0.0832 -0.9618
vn 0.8728 0.2216 -0.4348
vn 0.8192 0.1588 -0.5511
vn 0.8858 0.4239 -0.1887
vn -0.4984 0.6232 -0.6027
vn -0.8597 -0.2228 -0.4597
vn -0.6320 0.1259 -0.7647
vn 0.1393 0.0004 -0.9903
vn 0.4080 0.1153 -0.9057
vn 0.4039 0.1220 -0.9066
vn 0.4114 0.1171 -0.9039
vn -0.6865 0.1978 -0.6997
vn -0.7496 0.1610 -0.6421
vn 0.2198 0.3142 -0.9236
vn 0.2139 0.1900 -0.9582
vn 0.1483 0.2284 -0.9622
vn -0.5216 0.3951 -0.7562
vn -0.1819 0.9828 0.0318
vn -0.4054 0.8622 0.3038
vn -0.3895 0.8633 0.3208
vn -0.3869 0.3149 0.8667
vn -0.3782 0.2195 0.8993
vn -0.3782 0.2196 0.8993
vn -0.2976 0.3980 0.8678
vn -0.6148 0.1392 -0.7763
vn -0.8667 0.3149 -0.3869
vn 0.6139 0.7837 0.0946
vn -0.9622 0.2284 -0.1483
vn 0.9622 0.2284 0.1483
vn 0.2915 0.9324 -0.2137
vn -0.8617 0.2284 0.4531
vn -0.3276 0.1269 -0.9363
vn -0.3277 0.1269 -0.9362
vn -0.3901 0.1107 -0.9141
vn -0.3900 0.1107 -0.9141
vn 0.2270 0.9642 0.1373
vn 0.2722 0.9503 0.1512
vn 0.6153 0.1205 0.7791
vn 0.0872 0.7206 -0.6878
vn -0.6473 0.3622 0.6706
vn 0.9789 0.1392 -0.1493
vn 0.7656 0.3149 -0.5610
vn -0.3805 0.7837 -0.4909
vn -0.2661 0.3098 0.9128
vn -0.2661 0.3099 0.9128
vn -0.2816 0.3149 0.9064
vn -0.7046 0.1794 -0.6866
vn -0.8592 0.1682 -0.4831
vn 0.6269 0.2373 0.7421
vn -0.3586 0.9324 -0.0454
vn -0.4747 0.3940 -0.7870
vn -0.5353 0.0771 0.8411
vn -0.4640 0.0788 0.8823
vn 0.5489 0.1341 0.8250
vn 0.5489 0.1341 0.8251
vn 0.6201 0.1087 0.7769
vn 0.6202 0.1087 0.7769
vn -0.3063 -0.4354 0.8465
vn -0.7691 0.2131 -0.6025
vn -0.7689 0.2128 -0.6029
vn -0.9384 0.0857 0.3346
vn -0.7692 0.2138 -0.6022
vn -0.6649 0.5568 0.4979
vn -0.5497 0.7837 0.2891
vn -0.5498 0.7837 0.2891
vn 0.2816 0.3149 -0.9064
vn 0.4054 0.3424 0.8476
vn 0.4055 0.3424 0.8476
vn 0.3847 0.3614 0.8493
vn 0.7165 0.1144 0.6881
vn -0.8066 0.1375 0.5749
vn -0.8066 0.1375 0.5748
vn -0.9077 0.2066 0.3653
vn -0.9076 0.2066 0.3654
vn 0.4127 0.3248 0.8510
vn 0.5175 0.1256 0.8464
vn 0.5412 0.1060 0.8342
vn 0.5212 0.0890 0.8488
vn 0.5082 0.1193 0.8529
vn 0.0250 0.9428 0.3325
vn 0.9792 0.0652 0.1923
vn 0.9755 -0.2148 -0.0467
vn -0.6084 0.6438 0.4640
vn -0.1751 0.2824 -0.9432
vn -0.1633 0.2711 -0.9486
vn -0.1708 0.2690 -0.9479
vn -0.1713 0.2688 -0.9479
vn -0.1283 0.7172 0.6850
vn 0.0214 0.9956 0.0910
vn 0.0756 0.9971 -0.0131
vn 0.5450 0.8079 0.2244
vn -0.6889 -0.5120 0.5131
vn -0.9509 0.2950 0.0930
vn -0.3550 0.7256 -0.5894
vn -0.6321 0.1259 -0.7646
vn -0.4578 -0.4631 -0.7589
vn -0.7924 -0.0837 0.6043
vn -0.7662 0.5935 0.2465
vn -0.9284 0.3395 -0.1507
vn 0.0594 0.4288 0.9014
vn -0.3832 0.2424 -0.8913
vn 0.3859 0.3452 0.8555
vn -0.4976 0.7577 -0.4222
vn 0.3081 0.2581 0.9157
vn 0.0665 0.4640 -0.8833
vn 0.4802 0.2264 -0.8474
vn 0.5280 0.7519 0.3948
vn 0.9444 0.3036 0.1260
vn 0.7340 0.1279 -0.6670
vn 0.1322 0.1605 -0.9781
vn -0.3334 0.9361 0.1122
vn -0.1412 0.7577 0.6371
vn 0.2957 0.1678 -0.9404
vn 0.3366 0.1265 -0.9331
vn 0.3477 0.1874 -0.9187
vn 0.3476 0.1874 -0.9187
vn 0.9942 0.1041 -0.0279
vn 0.9759 0.2181 0.0030
vn 0.0395 0.2694 0.9622
vn 0.0225 0.2415 0.9701
vn 0.0225 0.2416 0.9701
vn 0.0749 0.3442 0.9359
vn -0.0965 0.2514 0.9631
vn -0.0965 0.2514 0.9630
vn -0.0354 0.9988 -0.0337
vn 0.1901 0.9797 -0.0640
vn -0.9541 0.1926 -0.2292
vn -0.9381 0.2874 -0.1935
vn -0.9309 0.2381 -0.2769
vn -0.9422 0.2673 -0.2022
vn -0.9108 0.3099 -0.2727
vn -0.9131 0.2396 -0.3299
vn -0.8898 0.2859 -0.3558
vn -0.8898 0.2859 -0.3557
vn 0.0774 -0.9806 0.1801
vn 0.3786 0.3678 0.8493
vn 0.1029 0.3098 -0.9452
vn 0.1193 0.3149 -0.9416
vn -0.1714 0.2686 -0.9479
vn -0.1823 0.2759 -0.9438
vn -0.1960 0.2793 -0.9400
vn -0.1866 0.2906 -0.9385
vn -0.1147 0.9592 0.2583
vn 0.6148 0.3188 -0.7214
vn 0.3465 0.3574 -0.8673
vn 0.5110 0.1940 -0.8374
vn 0.5110 0.1939 -0.8374
vn 0.4701 0.2520 -0.8459
vn -0.6485 0.3395 0.6813
vn -0.2258 0.0928 -0.9698
vn -0.2934 0.7687 -0.5684
vn 0.3798 0.7420 -0.5525
vn -0.2022 0.2205 -0.9542
vn 0.0586 0.0783 -0.9952
vn 0.0361 0.0988 -0.9944
vn 0.0857 0.1692 -0.9818
vn 0.0466 0.1279 -0.9907
vn 0.0675 0.1198 -0.9905
vn -0.9032 0.2336 -0.3602
vn -0.9026 0.2348 -0.3609
vn -0.9063 0.2268 -0.3566
vn -0.9068 0.2257 -0.3560
vn 0.9886 0.1457 0.0380
vn 0.2195 0.1820 -0.9585
vn 0.3487 0.0889 -0.9330
vn 0.3486 0.0889 -0.9330
vn 0.5873 0.1760 0.7900
vn 0.6996 0.1847 0.6903
vn 0.6420 0.1745 0.7466
vn 0.9379 0.1591 0.3083
vn 0.9601 0.2097 0.1852
vn 0.6885 0.2038 -0.6960
vn 0.7477 0.1535 -0.6460
vn 0.6578 0.1235 -0.7430
vn 0.6590 0.1244 -0.7417
vn 0.6589 0.1243 -0.7419
vn 0.6575 0.1233 -0.7433
vn -0.8133 0.1392 -0.5649
vn -0.9416 0.3149 -0.1193
vn 0.1056 0.2388 -0.9653
vn 0.2805 0.1717 -0.9444
vn 0.8843 0.3365 -0.3237
vn 0.1155 0.1782 0.9772
vn -0.1960 0.2689 -0.9430
vn -0.2058 0.2745 -0.9393
vn -0.2262 0.2945 -0.9285
vn -0.2214 0.2990 -0.9282
vn 0.1116 0.2033 -0.9727
vn 0.2022 0.1059 -0.9736
vn -0.4360 0.4769 0.7632
vn 0.9816 0.1468 0.1218
vn 0.9814 0.1476 0.1224
vn 0.9816 0.1471 0.1217
vn 0.9817 0.1462 0.1221
vn 0.9077 -0.2561 -0.3323
vn 0.9886 0.1456 0.0378
vn -0.1807 0.4860 -0.8551
vn 0.4302 0.1311 0.8932
vn 0.8199 0.1987 0.5369
vn -0.1999 -0.2656 -0.9431
vn -0.5293 0.2214 -0.8190
vn -0.5293 0.2214 -0.8191
vn -0.2915 0.4801 -0.8274
vn -0.2914 0.4801 -0.8274
vn 0.6459 0.0005 0.7634
vn 0.4029 0.1334 0.9055
vn 0.4062 0.1403 0.9030
vn 0.3987 0.1346 0.9071
vn -0.5964 0.2284 -0.7695
vn -0.7527 0.3596 -0.5515
vn -0.2092 0.9642 -0.1632
vn -0.2091 0.9642 -0.1632
vn -0.2524 0.9503 -0.1824
vn 0.8731 0.3142 -0.3727
vn 0.8975 0.1900 -0.3981
vn 0.8617 0.2284 -0.4531
vn -0.8281 0.4981 -0.2573
vn 0.2976 0.3951 -0.8691
vn -0.2057 0.7206 0.6621
vn 0.8667 0.3149 0.3869
vn 0.2041 0.4333 0.8778
vn 0.2415 0.5667 0.7877
vn -0.5610 0.3149 -0.7656
vn 0.1484 0.2284 -0.9622
vn 0.1260 0.2404 -0.9625
vn -0.0093 0.3694 -0.9292
vn 0.0228 0.3984 -0.9169
vn -0.9093 0.2284 0.3480
vn -0.8984 0.2404 0.3675
vn -0.8025 0.3694 0.4685
vn -0.8077 0.3984 0.4345
vn 0.2891 0.7837 0.5497
vn -0.7698 0.2133 -0.6016
vn 0.5679 0.5568 -0.6062
vn 0.4909 0.7837 -0.3805
vn -0.4531 0.2284 -0.8617
vn 0.3452 0.9324 0.1072
vn -0.5327 0.1330 -0.8358
vn -0.5187 0.1295 -0.8451
vn -0.4760 0.1951 -0.8575
vn -0.9111 0.3142 0.2668
vn -0.9383 0.1900 0.2890
vn 0.7918 0.4981 0.3535
vn -0.3983 0.3951 0.8278
vn -0.6324 0.1259 -0.7644
vn -0.8636 0.4333 -0.2577
vn -0.8039 0.5667 -0.1806
vn 0.8651 0.5016 0.0020
vn 0.8644 0.5027 0.0026
vn 0.8682 0.4963 -0.0010
vn 0.8683 0.4960 -0.0012
vn 0.8486 0.2404 -0.4712
vn 0.7414 0.3694 -0.5602
vn 0.7506 0.3984 -0.5271
vn 0.7024 0.1392 0.6981
vn 0.9064 0.3149 0.2816
vn 0.3480 0.2284 0.9093
vn -0.3300 0.9324 -0.1473
vn 0.7191 0.5568 -0.4157
vn -0.0620 0.9928 -0.1029
vn 0.3088 0.1598 0.9376
vn 0.0155 0.7721 0.6353
vn -0.3264 0.2278 0.9174
vn 0.3792 0.1105 -0.9187
vn 0.1134 0.1023 -0.9883
vn -0.6320 0.1260 -0.7647
vn -0.6319 0.1259 -0.7648
vn 0.9725 0.1059 0.2073
vn 0.9821 0.1189 0.1457
vn 0.5385 0.8359 -0.1058
vn 0.8684 0.4958 0.0027
vn 0.0135 0.1115 -0.9937
vn 0.0489 0.0708 -0.9963
vn 0.0365 0.0986 -0.9945
vn 0.0357 0.0993 -0.9944
vn 0.0352 0.0992 -0.9944
vn -0.5234 0.0941 -0.8469
vn -0.5386 0.1143 -0.8348
vn -0.5550 0.1157 -0.8237
vn -0.9890 0.1084 -0.1011
vn -0.9756 0.1599 -0.1504
vn -0.1658 0.9801 -0.1091
vn -0.2283 0.9701 0.0818
vn 0.3399 0.9403 -0.0180
vn 0.6794 0.7319 0.0514
vn -0.2365 0.7864 0.5706
vn -0.2388 0.7878 0.5678
vn -0.2389 0.7831 0.5742
vn -0.2401 0.7824 0.5746
vn 0.3945 0.1282 -0.9099
vn 0.3996 0.1247 -0.9082
vn 0.3917 0.1212 -0.9121
vn 0.4066 0.1283 -0.9045
vn 0.4064 0.1187 -0.9060
vn 0.3983 0.1189 -0.9095
vn 0.4221 0.1111 -0.8997
vn -0.9625 0.0776 -0.2600
vn -0.9787 0.1743 -0.1082
vn -0.5617 0.1938 0.8043
vn -0.5012 0.2415 0.8309
vn -0.4991 0.2547 0.8283
vn -0.0571 0.9582 0.2803
vn -0.2434 0.7804 0.5760
vn -0.2415 0.7822 0.5744
vn -0.2429 0.7839 0.5714
vn 0.7071 0.1953 0.6796
vn 0.7071 0.1954 0.6796
vn 0.6643 0.1408 0.7341
vn -0.7688 0.2136 -0.6028
vn 0.4636 0.2331 -0.8549
vn -0.7696 0.2138 -0.6017
vn -0.7700 0.2136 -0.6012
vn -0.2850 0.4337 0.8548
vn -0.9546 0.2702 0.1250
vn -0.9463 0.3124 0.0834
vn -0.2059 0.2866 -0.9357
vn -0.1860 0.2726 -0.9440
vn 0.5575 0.5139 0.6520
vn 0.6313 0.2810 0.7229
vn -0.7350 0.6023 0.3116
vn -0.7775 0.6206 0.1018
vn 0.4318 0.1279 0.8929
vn 0.6522 0.2843 -0.7027
vn 0.6807 0.3089 -0.6642
vn 0.6605 0.1184 0.7415
vn -0.8054 0.1282 -0.5787
vn 0.9886 0.1457 0.0378
vn 0.9886 0.1455 0.0379
vn -0.8257 0.1171 0.5518
vn -0.8198 0.0289 0.5719
vn -0.7740 -0.1066 0.6242
vn -0.8437 0.1289 -0.5212
vn -0.8003 0.1699 -0.5750
vn -0.8003 0.1699 -0.5751
vn 0.7162 0.1148 0.6884
vn 0.7169 0.1140 0.6878
vn -0.5383 0.1146 -0.8349
vn -0.5376 0.1147 -0.8354
vn 0.6808 0.2231 -0.6977
vn 0.7586 0.1846 -0.6248
vn -0.9813 0.1198 -0.1509
vn -0.4510 0.7798 0.4342
vn -0.2475 0.9642 -0.0956
vn -0.2474 0.9642 -0.0956
vn -0.2944 0.9503 -0.1014
vn 0.1527 0.1455 -0.9775
vn 0.1527 0.1454 -0.9775
vn 0.1531 0.1454 -0.9774
vn 0.4148 0.1482 0.8978
vn 0.4102 0.1445 0.9005
vn 0.4190 0.1415 0.8969
vn 0.4023 0.1472 0.9036
vn 0.4042 0.1373 0.9043
vn 0.4125 0.1386 0.9004
vn 0.3892 0.1285 0.9121
vn -0.9064 0.3149 -0.2816
g Rock_10_Rock_10_Collor_Material
usemtl Collor_Material
s off
f 12/1/1 13/2/1 14/3/1
f 40/4/2 41/5/2 42/6/2
f 29/7/3 33/8/3 28/9/3
f 234/10/4 235/11/5 259/12/5 230/13/6
f 8/14/7 9/15/8 12/16/9
f 4/17/10 34/18/10 36/19/10
f 7/20/11 29/21/11 2/22/11
f 7/23/12 10/24/12 27/25/12
f 2/26/13 12/27/13 14/28/13
f 10/29/14 26/30/14 27/31/14
f 278/32/15 280/33/15 275/34/16 274/35/16
f 45/36/17 78/37/18 59/38/19 229/39/19
f 82/40/20 85/41/21 102/42/22 99/43/23
f 199/44/24 200/45/25 223/46/26 220/47/26
f 21/48/27 23/49/27 22/50/27
f 13/51/28 15/52/28 23/53/28
f 202/54/29 203/55/29 211/56/30 194/57/30
f 11/58/31 2/59/31 1/60/31
f 4/61/32 28/62/32 33/63/32
f 2/64/33 39/65/34 8/66/35 12/67/36
f 265/68/37 261/69/37 244/70/37 246/71/37
f 29/72/3 32/73/3 33/74/3
f 9/75/38 16/76/38 12/77/38
f 16/78/39 15/79/39 13/80/39
f 12/81/40 16/82/40 13/83/40
f 8/84/41 37/85/41 19/86/41
f 4/87/42 39/88/42 2/89/42
f 4/90/43 2/91/44 28/92/45
f 2/93/46 11/94/46 10/95/46
f 28/96/47 2/97/48 29/98/49
f 10/99/50 7/100/50 2/101/50
f 142/102/51 135/103/51 134/104/51 140/105/51
f 153/106/52 154/107/52 184/108/52 183/109/53
f 10/110/14 11/111/14 26/112/14
f 180/113/54 182/114/55 185/115/54 181/116/54
f 157/117/56 159/118/56 162/119/57 178/120/58
f 14/121/59 13/122/59 23/123/59
f 1/124/60 25/125/60 26/126/60
f 26/127/61 11/128/61 1/129/61
f 30/130/62 3/131/62 33/132/62
f 30/133/63 33/134/63 32/135/64 31/136/64
f 32/137/65 29/138/65 7/139/65
f 34/140/66 42/141/66 41/142/66
f 19/143/67 41/144/67 40/145/67
f 52/146/68 58/147/68 75/148/68
f 60/149/5 53/150/5 61/151/5
f 70/152/5 56/153/5 71/154/5
f 67/155/69 66/156/69 50/157/69
f 287/158/70 288/159/71 285/160/72 281/161/72
f 63/162/73 62/163/74 67/164/75
f 62/165/5 64/166/5 53/167/5
f 48/168/76 79/169/76 78/170/76
f 76/171/77 77/172/77 78/173/77
f 213/174/78 214/175/78 215/176/79 216/177/80
f 50/178/81 70/179/81 69/180/81
f 58/181/5 52/182/5 56/183/5
f 59/184/82 60/185/82 61/186/82
f 62/187/83 63/188/83 64/189/83
f 55/190/84 64/191/84 63/192/84
f 74/193/85 75/194/85 58/195/85 57/196/85
f 56/197/86 66/198/86 65/199/86
f 69/200/87 70/201/87 71/202/87
f 251/203/88 270/204/89 249/205/89 226/206/88
f 95/207/90 97/208/90 110/209/91 88/210/91
f 44/211/92 46/212/92 63/213/93 67/214/94
f 76/215/95 78/216/95 79/217/95
f 79/218/86 48/219/86 56/220/86
f 250/221/96 232/222/97 267/223/98 226/224/98
f 60/225/5 77/226/5 53/227/5
f 77/228/5 76/229/5 53/230/5
f 53/231/5 55/232/5 61/233/5
f 50/234/5 56/235/5 70/236/5
f 56/237/5 52/238/5 71/239/5
f 49/240/81 50/241/81 69/242/81 43/243/81
f 237/244/99 238/245/99 232/246/100 227/247/100
f 62/248/101 68/249/101 67/250/101
f 152/251/5 150/252/5 155/253/5 179/254/5
f 55/255/5 53/256/5 64/257/5
f 53/258/5 65/259/5 68/260/5
f 62/261/5 53/262/5 68/263/5
f 240/264/102 238/265/102 258/266/102 239/267/102
f 56/268/5 48/269/5 57/270/5
f 57/271/5 58/272/5 56/273/5
f 54/274/103 229/275/103 59/276/103
f 59/277/104 61/278/104 55/279/104
f 195/280/105 196/281/106 207/282/107 193/283/107
f 65/284/86 53/285/86 56/286/86
f 56/287/86 50/288/86 66/289/86
f 69/290/108 71/291/108 52/292/108
f 74/293/109 57/294/109 48/295/109
f 53/296/86 76/297/86 56/298/86
f 76/299/86 79/300/86 56/301/86
f 241/302/110 242/303/110 235/304/110 234/305/110
f 125/306/111 121/307/111 129/308/112 132/309/112
f 94/310/113 98/311/113 87/312/113
f 233/313/114 230/314/114 261/315/114 265/316/114
f 17/317/115 21/318/116 22/319/117 20/320/118
f 89/321/119 88/322/119 110/323/119
f 148/324/120 172/325/120 150/326/121 152/327/122
f 113/328/123 114/329/123 115/330/123
f 246/331/124 244/332/124 242/333/124 239/334/124
f 199/335/125 191/336/126 217/337/127 200/338/127
f 97/339/128 111/340/128 110/341/128
f 98/342/129 112/343/129 111/344/129
f 240/345/130 239/346/130 242/347/130 241/348/130
f 109/349/131 110/350/131 111/351/131
f 101/352/132 102/353/132 81/354/132
f 249/355/133 248/356/134 247/357/135 250/358/136
f 166/359/137 165/360/138 164/361/137 167/362/139
f 106/363/140 107/364/140 108/365/140
f 51/366/141 43/367/141 69/368/142 52/369/142
f 103/370/143 104/371/143 105/372/143
f 86/373/144 93/374/144 94/375/144 87/376/144
f 109/377/145 111/378/145 112/379/145
f 90/380/146 109/381/146 112/382/146
f 113/383/147 115/384/147 116/385/147
f 103/386/148 105/387/149 116/388/150
f 221/389/151 220/390/151 223/391/152 222/392/152
f 126/393/153 131/394/154 124/395/155
f 125/396/156 126/397/156 127/398/156
f 228/399/5 234/400/157 230/401/158 225/402/159
f 298/403/160 296/404/160 295/405/160 299/406/160
f 165/407/161 166/408/162 189/409/163 188/410/163
f 303/411/164 302/412/164 301/413/165 304/414/165
f 132/415/166 129/416/166 130/417/166
f 120/418/167 127/419/167 123/420/167
f 128/421/168 132/422/168 130/423/168
f 125/424/169 132/425/169 133/426/169
f 120/427/167 122/428/167 127/429/167
f 284/430/170 273/431/170 271/432/170 282/433/170
f 25/434/171 24/435/172 27/436/173 26/437/174
f 278/438/175 274/439/175 283/440/176 288/441/176
f 135/442/177 136/443/177 137/444/177
f 141/445/178 142/446/178 143/447/178
f 137/448/179 147/449/179 138/450/179
f 132/451/180 128/452/180 131/453/181 133/454/181
f 146/455/182 141/456/182 143/457/182
f 282/458/183 281/459/184 285/460/185 284/461/185
f 1/462/186 2/463/186 14/464/187 5/465/187
f 135/466/188 137/467/188 134/468/188
f 137/469/189 146/470/189 147/471/189
f 182/472/190 183/473/190 184/474/190
f 3/475/191 34/476/191 4/477/192 33/478/192
f 73/479/193 72/480/194 75/481/195 74/482/196
f 177/483/197 176/484/197 172/485/197
f 154/486/198 152/487/199 179/488/198 184/489/198
f 174/490/200 148/491/200 171/492/200
f 181/493/201 185/494/201 184/495/201
f 283/496/202 274/497/202 273/498/203 284/499/204
f 279/500/205 277/501/205 276/502/205 280/503/205
f 192/504/206 194/505/207 211/506/208 215/507/208
f 241/508/209 234/509/209 269/510/209 268/511/209
f 6/512/210 31/513/211 32/514/212 7/515/213
f 166/516/214 167/517/214 149/518/214
f 227/519/215 232/520/216 250/521/217 247/522/218
f 174/523/219 175/524/219 176/525/219
f 105/526/220 104/527/221 106/528/221 108/529/220
f 187/530/222 188/531/222 189/532/222
f 163/533/223 182/534/224 180/535/225 160/536/226
f 186/537/227 172/538/227 173/539/227
f 83/540/228 87/541/229 84/542/230 104/543/230
f 174/544/231 176/545/231 177/546/231
f 169/547/232 188/548/232 187/549/232
f 179/550/233 180/551/233 181/552/233
f 92/553/234 90/554/234 112/555/234 91/556/234
f 182/557/235 184/558/235 185/559/235
f 47/560/109 73/561/109 74/562/109 48/563/109
f 187/564/236 189/565/236 190/566/236
f 175/567/237 174/568/237 170/569/237
f 200/570/238 206/571/238 223/572/238
f 208/573/5 201/574/5 209/575/5
f 218/576/5 204/577/5 219/578/5
f 215/579/239 214/580/239 198/581/239
f 208/582/240 207/583/240 196/584/240
f 211/585/241 210/586/241 215/587/241
f 210/588/5 212/589/5 201/590/5
f 222/591/242 206/592/242 205/593/242
f 198/594/243 218/595/243 217/596/243
f 206/597/5 200/598/5 204/599/5
f 207/600/244 208/601/244 209/602/244
f 207/603/245 203/604/245 202/605/245
f 210/606/246 211/607/246 212/608/246
f 203/609/247 212/610/247 211/611/247
f 257/612/248 243/613/249 263/614/249 246/615/248
f 204/616/250 214/617/250 213/618/250
f 217/619/251 218/620/251 219/621/251
f 102/622/252 85/623/253 114/624/254 81/625/255
f 100/626/256 101/627/257 118/628/257 117/629/256
f 78/630/258 77/631/258 60/632/259 59/633/260
f 192/634/261 215/635/261 198/636/262 197/637/263
f 208/638/264 224/639/264 201/640/264
f 224/641/265 196/642/265 201/643/265
f 201/644/5 203/645/5 209/646/5
f 198/647/5 204/648/5 218/649/5
f 204/650/5 200/651/5 219/652/5
f 171/653/266 148/654/267 152/655/268 154/656/269
f 171/657/270 154/658/271 153/659/272 170/660/273
f 196/661/274 224/662/274 208/663/274
f 210/664/275 216/665/275 215/666/275
f 140/667/276 139/668/276 143/669/277 142/670/277
f 203/671/5 201/672/5 212/673/5
f 201/674/5 213/675/5 216/676/5
f 210/677/5 201/678/5 216/679/5
f 222/680/242 223/681/242 206/682/242
f 183/683/278 182/684/279 163/685/280 162/686/281
f 204/687/282 196/688/282 205/689/282
f 205/690/5 206/691/5 204/692/5
f 202/693/283 193/694/283 207/695/283
f 207/696/284 209/697/284 203/698/284
f 163/699/285 160/700/286 156/701/287 178/702/287
f 213/703/250 201/704/250 204/705/250
f 204/706/250 198/707/250 214/708/250
f 217/709/288 219/710/288 200/711/288
f 222/712/289 205/713/289 196/714/289
f 201/715/250 196/716/250 204/717/250
f 65/718/290 66/719/290 67/720/291 68/721/291
f 262/722/292 263/723/292 264/724/292
f 92/725/293 93/726/294 83/727/294 116/728/294
f 244/729/124 235/730/124 242/731/124
f 90/732/295 92/733/296 115/734/297 114/735/295
f 170/736/298 153/737/299 151/738/300 169/739/301
f 237/740/302 236/741/302 256/742/302
f 5/743/303 14/744/303 23/745/304 21/746/305
f 266/747/306 267/748/306 268/749/306
f 19/750/307 18/751/307 17/752/308 20/753/308
f 51/754/309 52/755/309 75/756/310 72/757/310
f 243/758/311 257/759/311 256/760/311
f 246/761/312 258/762/312 257/763/312
f 100/764/313 99/765/314 102/766/315 101/767/316
f 146/768/317 145/769/317 144/770/318 147/771/318
f 44/772/319 67/773/319 50/774/320 49/775/320
f 255/776/321 256/777/321 257/778/321
f 249/779/322 250/780/322 226/781/322
f 158/782/323 161/783/324 162/784/325 159/785/326
f 89/786/327 90/787/327 85/788/328 82/789/328
f 252/790/329 253/791/329 254/792/329
f 9/793/330 20/794/331 22/795/332 16/796/333
f 255/797/334 257/798/334 258/799/334
f 238/800/335 255/801/335 258/802/335
f 259/803/336 260/804/336 261/805/336
f 47/806/337 48/807/337 78/808/338 45/809/338
f 262/810/339 264/811/339 265/812/339
f 195/813/340 221/814/341 222/815/342 196/816/343
f 266/817/344 268/818/344 269/819/344
f 252/820/345 254/821/346 269/822/347
f 197/823/243 198/824/243 217/825/243 191/826/243
f 145/827/348 146/828/348 143/829/349 139/830/349
f 297/831/350 293/832/351 300/833/352 303/834/352
f 279/835/353 286/836/354 277/837/355
f 273/838/356 274/839/356 275/840/356
f 278/841/357 279/842/357 280/843/357
f 283/844/358 284/845/358 285/846/358
f 292/847/359 294/848/359 291/849/359 290/850/359
f 297/851/360 299/852/360 294/853/361 293/854/361
f 126/855/362 124/856/362 123/857/362 127/858/362
f 133/859/363 131/860/364 126/861/365 125/862/366
f 304/863/367 301/864/368 298/865/369 297/866/370
f 288/867/371 283/868/371 285/869/371
f 151/870/372 153/871/372 161/872/372 158/873/372
f 141/874/373 136/875/373 135/876/374 142/877/374
f 272/878/375 280/879/375 276/880/375
f 278/881/376 288/882/376 289/883/376
f 272/884/375 275/885/375 280/886/375
f 231/887/377 263/888/378 245/889/379 229/890/379
f 298/891/380 301/892/381 296/893/367
f 292/894/382 293/895/382 294/896/382
f 297/897/383 298/898/383 299/899/383
f 93/900/384 92/901/384 91/902/384 94/903/384
f 125/904/385 127/905/385 122/906/386 121/907/386
f 118/908/387 101/909/388 81/910/389 107/911/390
f 289/912/355 286/913/391 279/914/392 278/915/393
f 288/916/394 287/917/394 286/918/395 289/919/395
f 291/920/396 299/921/396 295/922/396
f 297/923/397 303/924/397 304/925/397
f 300/926/398 293/927/398 292/928/398
f 291/929/396 294/930/396 299/931/396
f 39/932/399 38/933/399 8/934/399
f 19/935/400 40/936/400 18/937/400
f 8/938/41 38/939/41 37/940/41
f 4/941/42 36/942/42 39/943/42
f 37/944/66 36/945/66 41/946/66
f 36/947/66 34/948/66 41/949/66
f 39/950/401 36/951/401 37/952/401
f 37/953/402 38/954/402 39/955/402
f 19/956/67 37/957/67 41/958/67
f 3/959/191 35/960/191 34/961/191
f 114/962/403 113/963/403 81/964/403
f 91/965/113 98/966/113 94/967/113
f 98/968/113 96/969/113 87/970/113
f 85/971/404 90/972/404 114/973/404
f 109/974/405 90/975/405 110/976/405
f 90/977/406 89/978/406 110/979/406
f 108/980/407 81/981/407 105/982/407
f 104/983/408 80/984/408 106/985/408
f 81/986/409 108/987/409 107/988/409
f 107/989/410 119/990/410 118/991/410
f 115/992/411 92/993/412 116/994/413
f 93/995/414 86/996/414 83/997/415
f 231/998/416 233/999/417 264/1000/417 263/1001/418
f 111/1002/419 97/1003/419 98/1004/419
f 98/1005/420 91/1006/420 112/1007/420
f 83/1008/421 86/1009/5 87/1010/422
f 87/1011/5 96/1012/5 84/1013/5
f 80/1014/423 104/1015/423 84/1016/423
f 104/1017/424 103/1018/424 83/1019/424
f 189/1020/425 166/1021/426 149/1022/427 175/1023/428
f 81/1024/429 113/1025/430 105/1026/431
f 113/1027/432 116/1028/433 105/1029/434
f 116/1030/435 83/1031/435 103/1032/435
f 54/1033/436 55/1034/436 63/1035/437 46/1036/437
f 176/1037/438 149/1038/438 172/1039/438
f 149/1040/439 173/1041/439 172/1042/439
f 172/1043/440 148/1044/440 177/1045/440
f 149/1046/441 176/1047/441 175/1048/441
f 175/1049/442 190/1050/443 189/1051/444
f 174/1052/200 177/1053/200 148/1054/200
f 238/1055/445 240/1056/446 268/1057/447 267/1058/447
f 179/1059/448 181/1060/448 184/1061/448
f 178/1062/449 162/1063/449 163/1064/449
f 155/1065/5 156/1066/5 179/1067/5
f 156/1068/5 160/1069/5 180/1070/5
f 179/1071/5 156/1072/5 180/1073/5
f 161/1074/450 153/1075/450 183/1076/451
f 168/1077/452 165/1078/452 188/1079/452
f 172/1080/120 186/1081/120 150/1082/120
f 187/1083/453 170/1084/453 169/1085/453
f 169/1086/454 168/1087/454 188/1088/454
f 162/1089/455 161/1090/456 183/1091/323
f 8/1092/457 19/1093/457 20/1094/457 9/1095/457
f 149/1096/458 186/1097/458 173/1098/458
f 174/1099/459 171/1100/459 170/1101/459
f 170/1102/460 187/1103/460 175/1104/460
f 187/1105/460 190/1106/460 175/1107/460
f 267/1108/461 266/1109/461 226/1110/461
f 15/1111/462 16/1112/462 22/1113/463 23/1114/463
f 232/1115/464 238/1116/464 267/1117/464
f 251/1118/465 233/1119/465 231/1120/465
f 255/1121/466 238/1122/466 256/1123/466
f 238/1124/467 237/1125/467 256/1126/467
f 251/1127/468 226/1128/468 254/1129/468
f 254/1130/469 253/1131/469 251/1132/469
f 253/1133/470 225/1134/470 251/1135/470
f 225/1136/471 230/1137/471 233/1138/472 251/1139/473
f 268/1140/474 240/1141/474 241/1142/474
f 234/1143/475 228/1144/475 269/1145/475
f 264/1146/476 233/1147/476 265/1148/476
f 230/1149/477 259/1150/477 261/1151/477
f 236/1152/478 243/1153/478 256/1154/478
f 246/1155/479 239/1156/479 258/1157/479
f 6/1158/480 7/1159/480 27/1160/480 24/1161/480
f 235/1162/5 244/1163/5 260/1164/5
f 259/1165/5 235/1166/5 260/1167/5
f 225/1168/481 253/1169/481 228/1170/481
f 253/1171/481 252/1172/481 228/1173/481
f 137/1174/482 136/1175/483 141/1176/484 146/1177/484
f 263/1178/485 262/1179/485 246/1180/485
f 246/1181/486 262/1182/486 265/1183/486
f 261/1184/487 260/1185/487 244/1186/487
f 226/1187/488 266/1188/489 254/1189/490
f 266/1190/491 269/1191/492 254/1192/493
f 269/1193/494 228/1194/494 252/1195/494
f 273/1196/495 275/1197/495 272/1198/495 271/1199/495
