# Blender v3.0.0 OBJ File: 'aa.blend'
# www.blender.org
mtllib Spear.mtl
o Spear
v -0.000000 -0.000000 -0.043574
v -0.000000 1.289410 -0.023703
v 0.036306 -0.000000 -0.013464
v 0.019749 1.289410 -0.007324
v 0.022438 0.000000 0.035254
v 0.012206 1.289410 0.019177
v -0.022438 0.000000 0.035254
v -0.012206 1.289410 0.019177
v -0.036306 -0.000000 -0.013464
v -0.019749 1.289410 -0.007324
v 0.043055 1.307363 -0.015969
v -0.000000 1.307363 -0.051676
v 0.026610 1.307363 0.041807
v -0.026610 1.307363 0.041807
v -0.043056 1.307363 -0.015969
v 0.043055 1.397640 -0.015969
v -0.000000 1.397640 -0.051676
v 0.026610 1.397640 0.041807
v -0.026610 1.397640 0.041807
v -0.043056 1.397640 -0.015969
v -0.019391 1.322409 0.030465
v -0.026610 1.337455 0.041807
v -0.019391 1.352501 0.030465
v -0.026610 1.367548 0.041807
v -0.019391 1.382594 0.030465
v 0.019390 1.382594 0.030465
v 0.026610 1.367548 0.041807
v 0.019390 1.352501 0.030465
v 0.026610 1.337455 0.041807
v 0.019391 1.322409 0.030465
v -0.000000 1.322409 -0.037657
v -0.000000 1.337455 -0.051676
v -0.000000 1.352501 -0.037657
v -0.000000 1.367548 -0.051676
v -0.000000 1.382594 -0.037657
v -0.031375 1.382594 -0.011637
v -0.043056 1.367548 -0.015969
v -0.031375 1.352501 -0.011637
v -0.043056 1.337455 -0.015969
v -0.031375 1.322409 -0.011637
v 0.034503 1.415592 -0.012797
v -0.000000 1.415592 -0.041411
v 0.021324 1.415592 0.033503
v -0.021324 1.415592 0.033503
v -0.034503 1.415592 -0.012797
v 0.031374 1.382594 -0.011637
v 0.043055 1.367548 -0.015969
v 0.031375 1.352501 -0.011637
v 0.043055 1.337455 -0.015969
v 0.031375 1.322409 -0.011637
v 0.097858 1.508424 -0.015415
v -0.000000 1.508424 -0.049883
v 0.060480 1.508424 0.040356
v -0.060480 1.508424 0.040356
v -0.097858 1.508424 -0.015415
v -0.000000 1.745826 0.000000
v -0.010282 0.464291 -0.031869
v 0.013007 0.464291 -0.012555
v 0.004111 0.464291 0.018695
v -0.024675 0.464291 0.018695
v -0.033570 0.464291 -0.012555
v 0.001404 0.944347 -0.028589
v 0.026069 0.944347 -0.008133
v 0.016648 0.944347 0.024965
v -0.013840 0.944347 0.024965
v -0.023261 0.944347 -0.008133
vt 0.479766 0.303720
vt 0.403528 0.283059
vt 0.479766 0.001076
vt 0.481917 0.021737
vt 0.558155 0.001076
vt 0.558155 0.303720
vt 0.122853 0.430937
vt 0.001076 0.422599
vt 0.122853 0.145536
vt 0.284385 0.001076
vt 0.284385 0.143384
vt 0.001076 0.072230
vt 0.401376 0.303720
vt 0.286537 0.262353
vt 0.401376 0.001076
vt 0.234518 0.145536
vt 0.234518 0.287844
vt 0.125005 0.241777
vt 0.125005 0.191602
vt 0.672973 0.001076
vt 0.672973 0.123138
vt 0.560307 0.053858
vt 0.563303 0.001207
vt 0.638032 0.139360
vt 0.638032 0.258168
vt 0.581444 0.255852
vt 0.560307 0.125290
vt 0.717908 0.244097
vt 0.640183 0.258167
vt 0.661320 0.127605
vt 0.717908 0.125290
vt 0.645844 0.430937
vt 0.536175 0.430806
vt 0.533179 0.378155
vt 0.645844 0.308875
vt 0.001076 0.619164
vt 0.407053 0.614223
vt 0.407053 0.651922
vt 0.001076 0.649350
vt 0.530985 0.347813
vt 0.530985 0.388299
vt 0.125005 0.382277
vt 0.125005 0.349859
vt 0.531006 0.340545
vt 0.125005 0.345661
vt 0.125005 0.307962
vt 0.531006 0.310359
vt 0.789892 0.433468
vt 0.825485 0.433089
vt 0.825485 0.998028
vt 0.787788 0.998429
vt 0.531027 0.425821
vt 0.125005 0.430937
vt 0.125005 0.390451
vt 0.531027 0.393404
vt 0.272093 0.230962
vt 0.236669 0.188249
vt 0.272093 0.145536
vt 0.490000 0.630538
vt 0.547317 0.614223
vt 0.547317 0.699650
vt 0.490000 0.683335
vt 0.569982 0.979653
vt 0.550086 0.433089
vt 0.605577 0.433142
vt 0.605577 0.979687
vt 0.660525 0.979677
vt 0.607729 0.979931
vt 0.626659 0.433252
vt 0.660525 0.433089
vt 0.863496 0.433898
vt 0.863496 0.998869
vt 0.829637 0.998105
vt 0.827636 0.433089
vt 0.547316 0.494835
vt 0.547316 0.554428
vt 0.001076 0.534971
vt 0.001076 0.496744
vt 0.001076 0.445923
vt 0.547935 0.433089
vt 0.547935 0.492683
vt 0.001076 0.484149
vt 0.703158 0.433686
vt 0.703158 0.998623
vt 0.664936 0.998060
vt 0.662677 0.433089
vt 0.547317 0.593969
vt 0.001076 0.612071
vt 0.001076 0.556580
vt 0.547317 0.558374
vt 0.750051 0.433911
vt 0.785636 0.433089
vt 0.785636 0.998054
vt 0.747948 0.998924
vt 0.001076 0.689942
vt 0.001076 0.654074
vt 0.407098 0.659298
vt 0.407098 0.688018
vt 0.707570 0.433143
vt 0.745796 0.433089
vt 0.745796 0.998105
vt 0.705310 0.998162
vt 0.487848 0.614223
vt 0.487848 0.680031
vt 0.454866 0.659022
vt 0.454866 0.628836
vt 0.729613 0.316569
vt 0.729613 0.373204
vt 0.706787 0.379548
vt 0.706787 0.308875
vt 0.268331 0.233114
vt 0.268331 0.303787
vt 0.236669 0.282820
vt 0.236669 0.250402
vt 0.452715 0.680031
vt 0.419732 0.665418
vt 0.419732 0.635232
vt 0.452715 0.614223
vt 0.704636 0.371854
vt 0.681809 0.379548
vt 0.681809 0.308875
vt 0.704636 0.315219
vt 0.236285 0.702623
vt 0.236285 0.750578
vt 0.214502 0.757902
vt 0.214502 0.692094
vt 0.782095 0.001076
vt 0.782095 0.063688
vt 0.759927 0.055195
vt 0.759927 0.009569
vt 0.745288 0.135819
vt 0.767072 0.125290
vt 0.767072 0.191098
vt 0.745288 0.183774
vt 0.162991 0.702603
vt 0.162991 0.754103
vt 0.141705 0.762767
vt 0.141705 0.692094
vt 0.419732 0.692692
vt 0.441019 0.682183
vt 0.441019 0.752856
vt 0.419732 0.744192
vt 0.731765 0.319384
vt 0.753052 0.308875
vt 0.753052 0.379548
vt 0.731765 0.370884
vt 0.118267 0.762767
vt 0.118267 0.692094
vt 0.139553 0.702603
vt 0.139553 0.754103
vt 0.709109 0.063688
vt 0.675124 0.046742
vt 0.675124 0.018022
vt 0.709109 0.001076
vt 0.334180 0.692094
vt 0.355963 0.699418
vt 0.355963 0.747373
vt 0.334180 0.757902
vt 0.024514 0.752258
vt 0.024514 0.700759
vt 0.045800 0.692094
vt 0.045800 0.762767
vt 0.284157 0.757902
vt 0.262373 0.750578
vt 0.262373 0.702623
vt 0.284157 0.692094
vt 0.757775 0.071749
vt 0.736489 0.063085
vt 0.736489 0.011585
vt 0.757775 0.001076
vt 0.332028 0.692094
vt 0.332028 0.757902
vt 0.310244 0.747373
vt 0.310244 0.699418
vt 0.358115 0.692094
vt 0.379899 0.699418
vt 0.379899 0.747373
vt 0.358115 0.757902
vt 0.767433 0.250565
vt 0.767433 0.204939
vt 0.789601 0.196446
vt 0.789601 0.259058
vt 0.490000 0.712331
vt 0.511784 0.701801
vt 0.511784 0.767609
vt 0.490000 0.760285
vt 0.791391 0.133784
vt 0.791391 0.179409
vt 0.769223 0.187903
vt 0.769223 0.125290
vt 0.238437 0.747373
vt 0.238437 0.699418
vt 0.260221 0.692094
vt 0.260221 0.757902
vt 0.536104 0.701801
vt 0.536104 0.764414
vt 0.513936 0.755921
vt 0.513936 0.710295
vt 0.801691 0.325429
vt 0.801691 0.371055
vt 0.779523 0.379548
vt 0.779523 0.316936
vt 0.743498 0.203779
vt 0.765282 0.193250
vt 0.765282 0.259058
vt 0.743498 0.251734
vt 0.212350 0.692094
vt 0.212350 0.757902
vt 0.190566 0.747373
vt 0.190566 0.699419
vt 0.308092 0.692094
vt 0.308092 0.757902
vt 0.286308 0.747373
vt 0.286308 0.699419
vt 0.385314 0.747373
vt 0.385314 0.699418
vt 0.407098 0.692094
vt 0.407098 0.757902
vt 0.755203 0.379548
vt 0.755203 0.316936
vt 0.777371 0.325429
vt 0.777371 0.371055
vt 0.711260 0.059174
vt 0.711260 0.006438
vt 0.734337 0.001076
vt 0.734337 0.066884
vt 0.720060 0.133000
vt 0.743136 0.125290
vt 0.743136 0.191098
vt 0.720060 0.185736
vt 0.022362 0.762767
vt 0.001076 0.754103
vt 0.001076 0.702603
vt 0.022362 0.692094
vt 0.092677 0.702603
vt 0.092677 0.754103
vt 0.071390 0.762767
vt 0.071390 0.692094
vt 0.741346 0.263923
vt 0.720060 0.255259
vt 0.720060 0.203759
vt 0.741346 0.193250
vt 0.069239 0.692094
vt 0.069239 0.762767
vt 0.047952 0.752258
vt 0.047952 0.700759
vt 0.116115 0.692094
vt 0.116115 0.762767
vt 0.094828 0.752258
vt 0.094828 0.700759
vt 0.679658 0.379548
vt 0.647996 0.362260
vt 0.647996 0.329842
vt 0.679658 0.308875
vt 0.466562 0.692692
vt 0.487848 0.682183
vt 0.487848 0.752856
vt 0.466562 0.744192
vt 0.165143 0.698313
vt 0.188414 0.692094
vt 0.188414 0.754707
vt 0.165143 0.748488
vn -0.7943 0.2928 0.5323
vn 0.7943 0.2928 0.5323
vn -0.3259 0.1944 -0.9252
vn -0.0000 0.1676 0.9859
vn 0.3259 0.1944 -0.9252
vn -0.0000 -0.0736 0.9973
vn 0.4218 -0.1968 -0.8851
vn 0.7999 -0.4507 0.3962
vn -0.7999 -0.4507 0.3962
vn -0.4218 -0.1968 -0.8851
vn -0.6383 0.0083 -0.7697
vn -0.9618 0.0091 0.2738
vn 0.6383 0.0135 -0.7697
vn -0.6382 0.0208 -0.7696
vn 0.9617 0.0170 0.2737
vn 0.0000 -1.0000 0.0000
vn 0.6380 0.0335 -0.7693
vn -0.0000 0.0356 0.9994
vn -0.0000 -0.0131 0.9999
vn -0.9618 0.0051 0.2738
vn 0.9607 0.0477 0.2735
vn -0.9616 0.0181 0.2737
vn -0.6384 0.0053 -0.7697
vn 0.6383 -0.0103 -0.7697
vn -0.0000 0.0168 0.9999
vn 0.9614 -0.0287 0.2737
vn -0.4088 -0.7681 -0.4929
vn -0.8900 0.3792 0.2533
vn 0.6416 -0.7450 0.1826
vn 0.4088 -0.7681 -0.4929
vn 0.8900 0.3792 0.2533
vn -0.5187 -0.5828 -0.6255
vn -0.0000 0.6020 0.7985
vn -0.5187 0.5828 -0.6255
vn 0.7998 -0.5554 0.2277
vn 0.7998 0.5554 0.2277
vn -0.7998 0.5554 0.2277
vn -0.0000 -0.7834 0.6215
vn 0.5187 -0.5828 -0.6255
vn -0.7998 -0.5554 0.2277
vn 0.5187 0.5828 -0.6255
vn -0.0000 -0.6020 0.7985
vn 0.5843 0.4028 -0.7045
vn -0.5843 0.4028 -0.7045
vn -0.6416 -0.7450 0.1826
vn -0.0000 0.4198 0.9076
g Spear_Spear_Collor_Material
usemtl Collor_Material
s off
f 55/1/1 54/2/1 56/3/1
f 53/4/2 51/5/2 56/6/2
f 52/7/3 55/8/3 56/9/3
f 54/10/4 53/11/4 56/12/4
f 51/13/5 52/14/5 56/15/5
f 53/16/6 54/17/6 44/18/6 43/19/6
f 52/20/7 51/21/7 41/22/7 42/23/7
f 53/24/8 43/25/8 41/26/8 51/27/8
f 54/28/9 55/29/9 45/30/9 44/31/9
f 52/32/10 42/33/10 45/34/10 55/35/10
f 2/36/11 62/37/11 66/38/11 10/39/11
f 66/40/12 65/41/12 8/42/12 10/43/12
f 4/44/13 63/45/13 62/46/13 2/47/13
f 57/48/14 61/49/14 66/50/14 62/51/14
f 6/52/15 64/53/15 63/54/15 4/55/15
f 9/56/16 1/57/16 3/58/16
f 7/59/16 9/60/16 3/61/16 5/62/16
f 58/63/17 3/64/17 1/65/17 57/66/17
f 7/67/18 5/68/18 59/69/18 60/70/18
f 65/71/19 60/72/19 59/73/19 64/74/19
f 9/75/20 7/76/20 60/77/20 61/78/20
f 59/79/21 5/80/21 3/81/21 58/82/21
f 66/83/22 61/84/22 60/85/22 65/86/22
f 57/87/23 1/88/23 9/89/23 61/90/23
f 58/91/24 57/92/24 62/93/24 63/94/24
f 65/95/25 64/96/25 6/97/25 8/98/25
f 59/99/26 58/100/26 63/101/26 64/102/26
f 15/103/27 12/104/27 2/105/27 10/106/27
f 44/107/28 45/108/28 20/109/28 19/110/28
f 11/111/29 13/112/29 6/113/29 4/114/29
f 11/115/30 4/116/30 2/117/30 12/118/30
f 43/119/31 18/120/31 16/121/31 41/122/31
f 35/123/32 36/124/32 20/125/32 17/126/32
f 24/127/33 27/128/33 26/129/33 25/130/33
f 33/131/34 32/132/34 39/133/34 38/134/34
f 26/135/35 46/136/35 16/137/35 18/138/35
f 30/139/36 13/140/36 11/141/36 50/142/36
f 26/143/36 27/144/36 47/145/36 46/146/36
f 15/147/37 14/148/37 21/149/37 40/150/37
f 14/151/38 8/152/38 6/153/38 13/154/38
f 16/155/39 46/156/39 35/157/39 17/158/39
f 30/159/35 50/160/35 49/161/35 29/162/35
f 49/163/39 50/164/39 31/165/39 32/166/39
f 37/167/40 38/168/40 23/169/40 24/170/40
f 47/171/41 34/172/41 35/173/41 46/174/41
f 47/175/39 48/176/39 33/177/39 34/178/39
f 21/179/42 30/180/42 29/181/42 22/182/42
f 31/183/34 12/184/34 15/185/34 40/186/34
f 25/187/42 26/188/42 18/189/42 19/190/42
f 33/191/32 38/192/32 37/193/32 34/194/32
f 22/195/33 29/196/33 28/197/33 23/198/33
f 23/199/42 28/200/42 27/201/42 24/202/42
f 35/203/34 34/204/34 37/205/34 36/206/34
f 11/207/41 12/208/41 31/209/41 50/210/41
f 49/211/41 32/212/41 33/213/41 48/214/41
f 31/215/32 40/216/32 39/217/32 32/218/32
f 14/219/33 13/220/33 30/221/33 21/222/33
f 42/223/43 41/224/43 16/225/43 17/226/43
f 42/227/44 17/228/44 20/229/44 45/230/44
f 39/231/40 40/232/40 21/233/40 22/234/40
f 28/235/35 48/236/35 47/237/35 27/238/35
f 20/239/40 36/240/40 25/241/40 19/242/40
f 39/243/37 22/244/37 23/245/37 38/246/37
f 37/247/37 24/248/37 25/249/37 36/250/37
f 15/251/45 10/252/45 8/253/45 14/254/45
f 28/255/36 29/256/36 49/257/36 48/258/36
f 44/259/46 19/260/46 18/261/46 43/262/46
