# Blender v3.0.0 OBJ File: 'aa.blend'
# www.blender.org
mtllib Stone_1.mtl
o Stone_1
v 0.480903 0.061651 0.507670
v -0.503170 0.111562 0.472096
v -0.433205 0.659348 0.457814
v 0.528540 0.549672 -0.475767
v -0.443796 0.100987 -0.459170
v -0.013084 0.051404 0.546241
v -0.044007 0.650772 0.570181
v -0.591002 0.385338 0.594068
v -0.579787 0.026189 -0.009294
v -0.504735 0.658965 -0.047343
v 0.055632 0.030866 -0.541621
v 0.000387 -0.027375 -0.006376
v -0.717422 0.376113 -0.001623
v -0.031691 0.365564 0.731109
v 0.287205 0.716278 -0.003461
v 0.027515 0.703104 -0.244533
v -0.306203 0.750425 -0.029715
v -0.102944 0.741673 0.182864
v 0.489821 0.264004 -0.652192
v 0.519626 0.057736 -0.466672
v 0.170769 0.576574 -0.574731
v 0.042800 0.326030 -0.762710
v 0.665524 0.612614 -0.048171
v 0.528844 0.563130 0.391620
v 0.351453 0.614731 0.506059
v 0.540829 0.306081 0.541870
v 0.446140 0.270995 0.639918
v 0.576462 0.022436 0.056524
v 0.676140 0.289307 -0.209419
v 0.638960 0.310884 0.224465
v -0.219902 0.600132 -0.549495
v -0.542307 0.411821 -0.586437
vt 0.332884 0.813950
vt 0.183122 0.791808
vt 0.332884 0.682123
vt 0.970034 0.850392
vt 0.970034 0.996491
vt 0.871972 0.990417
vt 0.375181 0.560891
vt 0.375181 0.680041
vt 0.183122 0.630214
vt 0.510360 0.648780
vt 0.379414 0.683840
vt 0.413178 0.561002
vt 0.510360 0.503385
vt 0.179429 0.791253
vt 0.111909 0.764673
vt 0.179429 0.616454
vt 0.975490 0.737365
vt 0.975490 0.848310
vt 0.890770 0.844491
vt 0.871972 0.691100
vt 0.493679 0.685922
vt 0.493679 0.816052
vt 0.379414 0.854899
vt 0.385208 0.718947
vt 0.894993 0.636845
vt 0.759817 0.626667
vt 0.894993 0.503385
vt 0.990809 0.282736
vt 0.919416 0.266464
vt 0.990809 0.111788
vt 0.183122 0.871857
vt 0.306361 0.816032
vt 0.306361 0.950324
vt 0.636298 0.752454
vt 0.752977 0.691100
vt 0.752977 0.853974
vt 0.723460 0.856056
vt 0.723460 0.967000
vt 0.636298 0.904041
vt 0.755059 0.878109
vt 0.860175 0.855484
vt 0.860175 0.991560
vt 0.962587 0.457103
vt 0.835980 0.334673
vt 0.962587 0.326973
vt 0.174059 0.297299
vt 0.128594 0.225710
vt 0.174059 0.213807
vt 0.014288 0.828993
vt 0.125687 0.810931
vt 0.125687 0.944709
vt 0.001041 0.921213
vt 0.709056 0.335820
vt 0.709056 0.501303
vt 0.626673 0.487741
vt 0.587505 0.326973
vt 0.593104 0.282969
vt 0.584330 0.112838
vt 0.703475 0.111788
vt 0.703475 0.315146
vt 0.624459 0.711581
vt 0.624459 0.866726
vt 0.520773 0.821855
vt 0.512443 0.697862
vt 0.376465 0.376007
vt 0.183122 0.357666
vt 0.211781 0.205808
vt 0.376465 0.189565
vt 0.027832 0.169558
vt 0.001041 0.001041
vt 0.181039 0.017175
vt 0.181039 0.211725
vt 0.414979 0.493271
vt 0.379414 0.381937
vt 0.585423 0.378089
vt 0.585423 0.501303
vt 0.109827 0.808848
vt 0.002232 0.788927
vt 0.001041 0.653639
vt 0.109827 0.616454
vt 0.582248 0.315146
vt 0.378547 0.301055
vt 0.423383 0.193121
vt 0.582248 0.189565
vt 0.125728 0.602198
vt 0.001041 0.614372
vt 0.052588 0.422766
vt 0.125728 0.419247
vt 0.869889 0.719943
vt 0.869889 0.853402
vt 0.773467 0.834539
vt 0.755059 0.691100
vt 0.554433 0.136803
vt 0.379661 0.139873
vt 0.420149 0.001041
vt 0.554433 0.002492
vt 0.917334 0.111788
vt 0.917334 0.317833
vt 0.829989 0.228023
vt 0.718557 0.276747
vt 0.705557 0.111788
vt 0.827907 0.146446
vt 0.827907 0.280757
vt 0.742070 0.342713
vt 0.833898 0.326973
vt 0.833898 0.484168
vt 0.711139 0.494744
vt 0.897075 0.590082
vt 0.998959 0.503385
vt 0.998959 0.654775
vt 0.757735 0.689018
vt 0.636298 0.662622
vt 0.643762 0.535447
vt 0.757735 0.503385
vt 0.211804 0.169763
vt 0.183122 0.007032
vt 0.377579 0.001041
vt 0.377579 0.187483
vt 0.449995 0.856981
vt 0.449995 0.984146
vt 0.405201 0.969925
vt 0.379414 0.873827
vt 0.028322 0.248939
vt 0.126512 0.213807
vt 0.126512 0.417165
vt 0.001041 0.411911
vt 0.634215 0.503385
vt 0.634215 0.695780
vt 0.532259 0.673861
vt 0.512443 0.508323
vt 0.377332 0.378089
vt 0.377332 0.558809
vt 0.220340 0.550840
vt 0.183122 0.378696
vn 0.2344 0.9481 -0.2147
vn -0.1175 0.9813 0.1527
vn -0.7980 0.5670 -0.2043
vn 0.0343 0.9381 -0.3446
vn -0.0149 0.6050 -0.7961
vn -0.0150 0.6049 -0.7961
vn 0.3581 0.9233 0.1389
vn 0.9222 -0.2655 0.2811
vn 0.9222 -0.2654 0.2811
vn 0.9178 -0.3287 0.2230
vn 0.9178 -0.3286 0.2230
vn 0.9599 -0.2635 0.0954
vn 0.9775 -0.0094 0.2108
vn 0.9930 -0.1044 0.0547
vn -0.0475 0.9574 -0.2847
vn -0.4220 0.9047 0.0591
vn -0.0464 0.9709 0.2349
vn 0.2805 0.9403 0.1930
vn 0.9324 0.2139 0.2915
vn 0.9292 0.1994 0.3112
vn 0.8814 -0.4552 -0.1265
vn 0.7392 -0.2677 0.6180
vn 0.9207 0.1559 -0.3578
vn 0.9397 0.0520 -0.3380
vn 0.8468 -0.0962 -0.5231
vn 0.9068 -0.2018 -0.3701
vn 0.0700 -0.5116 0.8564
vn -0.8029 0.5797 0.1393
vn 0.2702 0.4823 -0.8333
vn 0.2704 0.4825 -0.8331
vn 0.0528 -0.9911 0.1222
vn -0.1238 -0.9799 -0.1564
vn -0.2682 -0.5167 -0.8131
vn -0.2061 0.5005 0.8409
vn -0.8785 -0.3689 -0.3035
vn -0.4181 0.8440 -0.3360
vn 0.0605 0.9956 -0.0714
vn 0.1366 0.9723 0.1899
vn -0.1860 0.4860 -0.8539
vn 0.2209 0.4445 0.8681
vn 0.1340 -0.6173 -0.7753
vn 0.8586 0.3167 -0.4031
vn 0.8913 0.2788 -0.3576
vn 0.9178 0.2407 -0.3158
vn 0.1678 0.9492 -0.2663
vn -0.1158 -0.9799 0.1626
vn -0.1164 -0.9799 0.1621
vn 0.5716 0.4317 0.6978
vn 0.5714 0.4316 0.6981
vn -0.9065 -0.3700 0.2034
vn -0.2080 -0.4819 0.8512
vn 0.0845 -0.9925 -0.0882
vn 0.0848 -0.9925 -0.0878
vn 0.0851 -0.9925 -0.0875
g Stone_1_Stone_1_Collor_Material
usemtl Collor_Material
s off
f 23/1/1 4/2/1 15/3/1
f 3/4/2 18/5/2 17/6/2
f 13/7/3 10/8/3 32/9/3
f 31/10/4 16/11/4 21/12/5 22/13/6
f 25/14/7 24/15/7 15/16/7
f 30/17/8 26/18/9 1/19/10 28/20/11
f 28/21/12 29/22/13 23/23/14 30/24/12
f 16/25/15 31/26/15 17/27/15
f 17/28/16 10/29/16 3/30/16
f 3/31/17 7/32/17 18/33/17
f 23/34/18 15/35/18 24/36/18
f 26/37/19 30/38/19 24/39/19
f 24/40/20 30/41/20 23/42/20
f 28/43/21 20/44/21 29/45/21
f 1/46/22 26/47/22 27/48/22
f 19/49/23 4/50/24 29/51/25 20/52/26
f 6/53/27 1/54/27 27/55/27 14/56/27
f 3/57/28 10/58/28 13/59/28 8/60/28
f 19/61/29 22/62/29 21/63/30 4/64/29
f 12/65/31 28/66/31 1/67/31 6/68/31
f 5/69/32 11/70/32 12/71/32 9/72/32
f 5/73/33 32/74/33 22/75/33 11/76/33
f 14/77/34 7/78/34 3/79/34 8/80/34
f 13/81/35 32/82/35 5/83/35 9/84/35
f 31/85/36 32/86/36 10/87/36 17/88/36
f 16/89/37 17/90/37 18/91/37 15/92/37
f 25/93/38 15/94/38 18/95/38 7/96/38
f 22/97/39 32/98/39 31/99/39
f 14/100/40 27/101/40 25/102/40 7/103/40
f 19/104/41 20/105/41 11/106/41 22/107/41
f 29/108/42 4/109/43 23/110/44
f 4/111/45 21/112/45 16/113/45 15/114/45
f 2/115/46 9/116/46 12/117/47 6/118/46
f 25/119/48 27/120/49 26/121/49 24/122/49
f 2/123/50 8/124/50 13/125/50 9/126/50
f 14/127/51 8/128/51 2/129/51 6/130/51
f 12/131/52 11/132/53 20/133/54 28/134/53
