# Blender v3.0.0 OBJ File: 'aa.blend'
# www.blender.org
mtllib Stone_3.mtl
o Stone_3
v 0.566399 -0.008363 -0.195054
v -0.191956 -0.031156 -0.712477
v -0.172629 0.456710 -0.706869
v 0.059567 0.024663 0.578281
v -0.005530 0.513080 0.507539
v -0.647464 -0.019616 0.039140
v 0.228396 -0.026236 -0.522535
v 0.166860 0.502964 -0.582276
v -0.203527 0.198261 -0.855016
v -0.500118 -0.074164 -0.406424
v -0.510118 0.479982 -0.376822
v -0.485401 0.274343 0.475072
v -0.606019 0.212857 -0.498279
v 0.292807 0.232365 -0.672813
v 0.084652 0.602666 0.015028
v -0.253166 0.592557 0.072055
v -0.339454 0.553321 -0.295156
v -0.095573 0.570663 -0.335858
v -0.118670 0.261695 0.664106
v -0.001566 0.307968 0.692611
v 0.078632 0.230347 0.653336
v 0.019750 0.198752 0.683166
v -0.440603 0.481286 0.333480
v 0.443201 0.566706 0.103718
v 0.328218 0.554999 0.244748
v 0.381554 0.589395 0.151032
v 0.490964 0.540143 -0.131654
v 0.428833 0.508152 -0.313680
v 0.536998 0.466942 -0.223496
v 0.662980 0.183762 -0.223004
v 0.650494 0.317501 -0.243856
v 0.608457 0.239910 -0.367684
v 0.399525 0.045861 0.216736
v 0.298893 0.286772 0.455530
v 0.477114 0.506979 0.206339
v 0.604092 0.261202 -0.077288
v -0.669619 0.432672 0.044850
v -0.766855 0.272427 0.027333
v 0.017481 -0.096787 0.039236
v 0.247198 -0.073641 0.068326
v 0.124615 -0.060183 -0.270088
v -0.129393 -0.077918 -0.250327
v -0.463384 -0.026553 0.305706
v -0.384784 0.060211 0.412897
v -0.201907 0.017678 0.460467
v -0.246237 -0.067031 0.338383
vt 0.237191 0.124253
vt 0.276485 0.114787
vt 0.276485 0.141272
vt 0.580435 0.089642
vt 0.431006 0.063922
vt 0.580435 0.001352
vt 0.404823 0.963199
vt 0.315267 0.825174
vt 0.404823 0.819990
vt 0.166266 0.801954
vt 0.166266 0.925874
vt 0.107965 0.802396
vt 0.757381 0.010693
vt 0.806363 0.001352
vt 0.806363 0.042316
vt 0.303116 0.461334
vt 0.303116 0.605865
vt 0.270779 0.507203
vt 0.985767 0.296880
vt 0.985767 0.472493
vt 0.922341 0.327814
vt 0.976259 0.839411
vt 0.976259 0.954150
vt 0.935765 0.930841
vt 0.803198 0.085439
vt 0.757381 0.076278
vt 0.803198 0.045021
vt 0.988535 0.685447
vt 0.988535 0.796150
vt 0.949957 0.709860
vt 0.838074 0.001352
vt 0.838074 0.046044
vt 0.809068 0.041913
vt 0.700456 0.064764
vt 0.654158 0.048128
vt 0.700456 0.001352
vt 0.305133 0.679137
vt 0.270779 0.649068
vt 0.305133 0.608570
vt 0.989721 0.227793
vt 0.925898 0.139342
vt 0.989721 0.091870
vt 0.754676 0.050548
vt 0.703160 0.020709
vt 0.754676 0.001352
vt 0.947252 0.685447
vt 0.947252 0.836706
vt 0.843358 0.712407
vt 0.472681 0.571747
vt 0.472681 0.696967
vt 0.436335 0.652478
vt 0.587761 0.766548
vt 0.752454 0.685447
vt 0.752454 0.808636
vt 0.472681 0.446647
vt 0.472681 0.569042
vt 0.433192 0.558150
vt 0.919637 0.296880
vt 0.919637 0.460141
vt 0.822784 0.437143
vt 0.820079 0.296880
vt 0.820079 0.460141
vt 0.706101 0.360143
vt 0.908797 0.639882
vt 0.978813 0.490989
vt 0.978813 0.662041
vt 0.923193 0.091870
vt 0.923193 0.235078
vt 0.811994 0.162897
vt 0.126879 0.514246
vt 0.126879 0.683879
vt 0.001352 0.610129
vt 0.833174 0.879556
vt 0.833174 0.998648
vt 0.798599 0.904819
vt 0.906092 0.490989
vt 0.906092 0.670764
vt 0.817805 0.491471
vt 0.129584 0.532505
vt 0.152497 0.514246
vt 0.152497 0.648555
vt 0.174030 0.880920
vt 0.248347 0.834824
vt 0.248347 0.992794
vt 0.651453 0.067166
vt 0.583140 0.066679
vt 0.651453 0.001352
vt 0.451253 0.963382
vt 0.407528 0.829234
vt 0.451253 0.819990
vt 0.679620 0.865561
vt 0.748236 0.811341
vt 0.748236 0.952435
vt 0.809289 0.271644
vt 0.712732 0.187534
vt 0.809289 0.091870
vt 0.461293 0.699672
vt 0.461293 0.779214
vt 0.436335 0.770351
vt 0.795894 0.879556
vt 0.795894 0.990051
vt 0.755159 0.946636
vt 0.566905 0.862988
vt 0.566905 0.970323
vt 0.520963 0.906695
vt 0.585056 0.860283
vt 0.464731 0.833873
vt 0.585056 0.725777
vt 0.840653 0.876851
vt 0.755159 0.842366
vt 0.776959 0.709639
vt 0.840653 0.685447
vt 0.036859 0.191042
vt 0.153795 0.149645
vt 0.153795 0.333224
vt 0.001352 0.308174
vt 0.518259 0.943801
vt 0.464731 0.960665
vt 0.467901 0.890637
vt 0.518259 0.862988
vt 0.933060 0.839465
vt 0.933060 0.958372
vt 0.843358 0.906090
vt 0.877596 0.839411
vt 0.256550 0.924965
vt 0.251052 0.856872
vt 0.301474 0.834824
vt 0.301474 0.953286
vt 0.020046 0.927327
vt 0.001352 0.859765
vt 0.105260 0.801954
vt 0.105260 0.951347
vt 0.432878 0.798562
vt 0.315267 0.817285
vt 0.327249 0.708872
vt 0.432878 0.644075
vt 0.510562 0.328208
vt 0.585056 0.296880
vt 0.585056 0.532368
vt 0.484836 0.470636
vt 0.676915 0.835738
vt 0.676915 0.966096
vt 0.601691 0.928222
vt 0.587761 0.811341
vt 0.208328 0.693052
vt 0.297800 0.686584
vt 0.297800 0.823841
vt 0.174030 0.832119
vt 0.485888 0.157625
vt 0.485888 0.294176
vt 0.359990 0.270780
vt 0.347510 0.120036
vt 0.606535 0.133979
vt 0.710027 0.091870
vt 0.710027 0.291971
vt 0.641929 0.294176
vt 0.478465 0.564182
vt 0.585057 0.535073
vt 0.585056 0.705525
vt 0.475726 0.723073
vt 0.261347 0.111850
vt 0.237191 0.017038
vt 0.428301 0.001352
vt 0.428301 0.112082
vt 0.815100 0.626794
vt 0.700529 0.656907
vt 0.702434 0.498004
vt 0.815100 0.490989
vt 0.399815 0.443942
vt 0.315267 0.296880
vt 0.482131 0.302353
vt 0.482131 0.401898
vt 0.430487 0.446647
vt 0.430487 0.641370
vt 0.336987 0.612550
vt 0.315267 0.456093
vt 0.181976 0.416359
vt 0.156500 0.347480
vt 0.312562 0.296880
vt 0.312562 0.458629
vt 0.595214 0.647806
vt 0.587761 0.516069
vt 0.697824 0.490989
vt 0.697824 0.682742
vt 0.200180 0.288599
vt 0.156500 0.216591
vt 0.344805 0.149645
vt 0.344805 0.294176
vt 0.064009 0.014597
vt 0.234486 0.001352
vt 0.234486 0.146940
vt 0.001352 0.113726
vt 0.703396 0.488285
vt 0.592165 0.462117
vt 0.587761 0.344929
vt 0.703396 0.296880
vt 0.268074 0.656058
vt 0.156500 0.661951
vt 0.163835 0.491057
vt 0.268074 0.461334
vt 0.001352 0.377947
vt 0.138284 0.335929
vt 0.138284 0.511541
vt 0.002484 0.510514
vt 0.491308 0.113970
vt 0.603831 0.094074
vt 0.603831 0.294176
vt 0.488593 0.284939
vt 0.171325 0.688655
vt 0.171325 0.780843
vt 0.023071 0.799249
vt 0.001352 0.686584
vn 0.4318 0.0086 0.9019
vn 0.4148 -0.8655 0.2807
vn -0.1191 0.9555 -0.2699
vn 0.3738 0.5450 0.7505
vn 0.3822 0.7766 0.5008
vn 0.3823 0.7766 0.5008
vn -0.2539 -0.7414 0.6211
vn 0.0762 0.9759 -0.2045
vn -0.3939 0.6135 0.6845
vn -0.1695 -0.1140 0.9789
vn 0.9076 0.3984 0.1324
vn 0.9091 0.3952 0.1319
vn 0.9095 0.3953 0.1286
vn 0.5215 0.8004 0.2957
vn 0.9423 0.1303 0.3084
vn 0.5654 0.7542 -0.3338
vn 0.5655 0.7542 -0.3337
vn 0.6750 -0.3064 0.6712
vn 0.6807 -0.3168 0.6605
vn 0.6861 -0.3114 0.6575
vn 0.9415 0.0264 -0.3360
vn 0.8709 -0.2972 0.3915
vn 0.8708 -0.2973 0.3915
vn -0.5187 -0.4444 0.7304
vn -0.1806 0.9441 0.2759
vn -0.1807 0.9440 0.2760
vn -0.1807 0.9441 0.2759
vn -0.0938 0.9502 0.2972
vn -0.0937 0.9502 0.2972
vn 0.1406 -0.9868 -0.0808
vn 0.1375 -0.9866 -0.0882
vn 0.1401 -0.9858 -0.0924
vn 0.1411 -0.9866 -0.0813
vn 0.1382 -0.9859 -0.0946
vn 0.1387 -0.9868 -0.0839
vn -0.2450 0.9180 -0.3119
vn -0.2450 0.9180 -0.3120
vn -0.0313 0.9568 -0.2890
vn 0.0434 -0.9943 -0.0970
vn 0.7034 0.4851 0.5195
vn 0.3828 -0.8682 0.3157
vn 0.1581 0.9548 -0.2519
vn 0.1207 0.9889 -0.0871
vn 0.7524 0.5297 0.3915
vn 0.8811 0.4727 -0.0128
vn 0.9108 0.3906 0.1339
vn 0.9077 0.3958 0.1395
vn 0.9076 0.3985 0.1322
vn 0.6933 -0.3407 0.6350
vn 0.6922 -0.3406 0.6362
vn 0.6957 -0.3500 0.6273
vn 0.5540 -0.3416 0.7592
vn 0.7622 -0.4579 -0.4575
vn 0.8009 -0.3333 0.4974
vn 0.8009 -0.3332 0.4974
vn -0.3609 0.9223 0.1383
vn -0.7465 0.4532 0.4872
vn -0.7463 0.4532 0.4874
vn -0.7464 0.4532 0.4873
vn 0.0099 0.9835 0.1807
vn 0.0099 0.9834 0.1813
vn 0.0101 0.9834 0.1809
vn -0.2705 -0.6924 0.6689
vn -0.3313 -0.5476 0.7684
vn 0.6334 0.5546 -0.5397
vn 0.6334 0.5545 -0.5397
vn -0.3889 -0.4754 0.7892
vn -0.3888 -0.4753 0.7892
vn -0.3889 -0.4755 0.7891
vn -0.3889 -0.4753 0.7892
vn 0.4973 0.5074 0.7038
vn 0.4973 0.5075 0.7037
vn -0.1475 -0.9889 -0.0183
vn -0.1476 -0.9889 -0.0183
vn -0.1476 -0.9889 -0.0182
vn 0.0690 -0.9945 -0.0786
vn 0.0689 -0.9945 -0.0786
vn -0.0621 0.9952 -0.0756
vn -0.0620 0.9952 -0.0756
vn 0.8566 -0.1329 0.4985
vn 0.8567 -0.1329 0.4985
vn 0.8565 -0.1329 0.4987
vn 0.8566 -0.1329 0.4986
vn -0.8340 0.4706 -0.2881
vn 0.6033 -0.5202 -0.6045
vn 0.6033 -0.5203 -0.6045
vn 0.3457 -0.5076 -0.7892
vn 0.3457 -0.5077 -0.7892
vn 0.6044 0.5042 -0.6168
vn 0.6044 0.5041 -0.6168
vn 0.6043 0.5041 -0.6171
vn 0.0585 -0.9924 -0.1087
vn 0.0582 -0.9924 -0.1087
vn 0.0584 -0.9924 -0.1087
vn -0.6039 -0.4359 -0.6674
vn -0.6039 -0.4358 -0.6674
vn -0.3637 0.9312 -0.0262
vn -0.3636 0.9312 -0.0263
vn 0.2716 0.4289 -0.8615
vn 0.2716 0.4290 -0.8615
vn 0.1045 -0.9716 0.2123
vn -0.0709 -0.9949 0.0712
vn -0.0708 -0.9949 0.0712
vn -0.0710 -0.9949 0.0712
vn -0.7954 -0.3209 0.5141
vn -0.7954 -0.3209 0.5142
vn -0.5853 0.4762 -0.6562
vn -0.5853 0.4763 -0.6562
vn 0.1268 0.9817 -0.1423
vn 0.1269 0.9817 -0.1422
vn 0.1268 0.9817 -0.1422
vn -0.8914 -0.3867 -0.2362
vn -0.8914 -0.3868 -0.2363
vn -0.8913 -0.3869 -0.2363
vn -0.3446 0.5984 0.7234
vn -0.3446 0.5984 0.7233
g Stone_3_Stone_3_Collor_Material
usemtl Collor_Material
s off
f 20/1/1 22/2/1 21/3/1
f 40/4/2 1/5/2 33/6/2
f 3/7/3 17/8/3 18/9/3
f 25/10/4 34/11/4 35/12/4
f 35/13/5 26/14/6 25/15/6
f 46/16/7 4/17/7 45/18/7
f 28/19/8 15/20/8 27/21/8
f 5/22/9 19/23/9 20/24/9
f 20/25/10 19/26/10 22/27/10
f 27/28/11 36/29/12 29/30/13
f 35/31/14 24/32/14 26/33/14
f 30/34/15 31/35/15 36/36/15
f 27/37/16 29/38/17 28/39/17
f 34/40/18 21/41/19 4/42/20
f 30/43/21 32/44/21 31/45/21
f 36/46/22 33/47/23 1/48/23
f 12/49/24 43/50/24 44/51/24
f 5/52/25 16/53/26 23/54/27
f 15/55/28 25/56/29 26/57/29
f 1/58/30 41/59/31 7/60/32
f 41/61/33 1/62/34 40/63/35
f 17/64/36 3/65/37 11/66/36
f 3/67/38 18/68/38 8/69/38
f 2/70/39 42/71/39 10/72/39
f 21/73/40 5/74/40 20/75/40
f 33/76/41 4/77/41 40/78/41
f 26/79/42 24/80/42 15/81/42
f 24/82/43 27/83/43 15/84/43
f 31/85/44 29/86/44 36/87/44
f 36/88/45 24/89/45 35/90/45
f 27/91/46 24/92/47 36/93/48
f 33/94/49 34/95/50 4/96/51
f 4/97/52 21/98/52 22/99/52
f 1/100/53 32/101/53 30/102/53
f 36/103/54 1/104/54 30/105/55
f 23/106/56 16/107/56 37/108/56
f 12/109/57 23/110/58 37/111/59 38/112/57
f 15/113/60 16/114/61 5/115/62 25/116/60
f 46/117/63 45/118/63 44/119/63 43/120/63
f 19/121/64 45/122/64 4/123/64 22/124/64
f 29/125/65 31/126/65 32/127/66 28/128/66
f 44/129/67 45/130/68 19/131/69 12/132/70
f 5/133/71 21/134/71 34/135/71 25/136/72
f 46/137/73 43/138/74 42/139/75 39/140/74
f 41/141/76 40/142/77 39/143/77 42/144/76
f 18/145/78 17/146/78 16/147/78 15/148/79
f 35/149/80 34/150/81 33/151/82 36/152/83
f 11/153/84 13/154/84 38/155/84 37/156/84
f 32/157/85 1/158/85 7/159/86 14/160/86
f 2/161/87 9/162/88 14/163/87 7/164/88
f 28/165/89 32/166/90 14/167/91 8/168/89
f 42/169/92 2/170/92 7/171/93 41/172/94
f 13/173/95 9/174/96 2/175/96 10/176/96
f 17/177/97 11/178/98 37/179/98 16/180/97
f 3/181/99 8/182/100 14/183/99 9/184/99
f 39/185/101 40/186/101 4/187/101 46/188/101
f 6/189/102 10/190/103 42/191/104 43/192/102
f 38/193/105 6/194/106 43/195/105 12/196/105
f 13/197/107 11/198/107 3/199/108 9/200/107
f 18/201/109 15/202/110 28/203/110 8/204/111
f 6/205/112 38/206/113 13/207/114 10/208/114
f 23/209/115 12/210/116 19/211/116 5/212/116
