# Blender v3.0.0 OBJ File: 'aa.blend'
# www.blender.org
mtllib Stone_2.mtl
o Stone_2
v -0.284600 0.040917 0.230004
v -0.289789 0.339073 0.236806
v -0.308974 0.044593 -0.332143
v -0.318397 0.383204 -0.297766
v 0.273240 0.019315 0.253386
v 0.273659 0.316024 0.254614
v 0.253701 0.051588 -0.325011
v 0.265351 0.378204 -0.322962
v -0.338749 0.012277 -0.040117
v -0.340427 0.168186 0.286650
v -0.365407 0.374874 -0.031287
v -0.385604 0.203960 -0.376385
v -0.022655 0.008290 -0.379317
v -0.042258 0.409930 -0.361599
v 0.332345 0.217835 -0.385094
v 0.306177 0.006226 -0.024239
v -0.025626 0.001117 0.295441
v -0.009590 -0.035699 -0.044963
v -0.034478 0.188330 0.427873
v 0.437209 0.187508 -0.039670
v -0.035200 0.207617 -0.462703
v -0.441709 0.198297 -0.042511
v 0.123483 0.402150 -0.035138
v -0.045381 0.413746 -0.191518
v -0.204020 0.406436 -0.022983
v 0.372738 0.147593 0.209041
v 0.204251 0.153918 0.364429
v 0.297667 0.100813 0.292734
v 0.327608 0.340404 0.042908
v -0.106158 0.349947 0.328517
v 0.015494 0.340166 0.330149
v -0.039990 0.398366 0.148780
vt 0.903606 0.744109
vt 0.997130 0.613161
vt 0.997130 0.816406
vt 0.526028 0.907571
vt 0.644440 0.851518
vt 0.644440 0.924074
vt 0.177075 0.320966
vt 0.137529 0.260135
vt 0.177075 0.220693
vt 0.242928 0.997326
vt 0.130716 0.960153
vt 0.242928 0.924602
vt 0.834941 0.183374
vt 0.834941 0.405648
vt 0.718925 0.253006
vt 0.743731 0.980448
vt 0.648606 0.945382
vt 0.743731 0.804947
vt 0.526028 0.947857
vt 0.635541 0.926208
vt 0.635541 0.998933
vt 0.339204 0.846909
vt 0.523894 0.827685
vt 0.523894 0.929067
vt 0.172737 0.434902
vt 0.137529 0.391544
vt 0.172737 0.323101
vt 0.121971 0.902732
vt 0.121971 0.979700
vt 0.001067 0.929246
vt 0.897663 0.029284
vt 0.991624 0.001067
vt 0.991624 0.168403
vt 0.523894 0.633824
vt 0.523894 0.825550
vt 0.392088 0.672294
vt 0.902763 0.556383
vt 0.786660 0.599287
vt 0.795473 0.438613
vt 0.902763 0.407783
vt 0.526028 0.685402
vt 0.643405 0.647634
vt 0.643405 0.849384
vt 0.528630 0.846685
vt 0.393592 0.401769
vt 0.393592 0.616802
vt 0.273689 0.588045
vt 0.259871 0.418988
vt 0.233543 0.028185
vt 0.396333 0.001067
vt 0.396333 0.199283
vt 0.192689 0.183824
vt 0.383201 0.824919
vt 0.259871 0.795934
vt 0.295185 0.634723
vt 0.383201 0.618937
vt 0.901472 0.613161
vt 0.901472 0.819143
vt 0.794896 0.790837
vt 0.787147 0.623680
vt 0.034718 0.585259
vt 0.195605 0.582461
vt 0.195605 0.719197
vt 0.001067 0.668105
vt 0.682671 0.757805
vt 0.648606 0.613161
vt 0.785012 0.622658
vt 0.785012 0.802812
vt 0.416202 0.590558
vt 0.395726 0.422015
vt 0.523894 0.407783
vt 0.523894 0.631689
vt 0.216798 0.446735
vt 0.216798 0.580326
vt 0.033575 0.564412
vt 0.001067 0.453811
vt 0.429011 0.052908
vt 0.556876 0.001067
vt 0.556876 0.176569
vt 0.398468 0.146139
vt 0.190555 0.017473
vt 0.190555 0.218559
vt 0.024434 0.183490
vt 0.001067 0.001067
vt 0.006650 0.732813
vt 0.128581 0.721332
vt 0.128581 0.839041
vt 0.001067 0.900597
vt 0.537631 0.629754
vt 0.526028 0.407783
vt 0.646472 0.429652
vt 0.646472 0.645499
vt 0.648606 0.462799
vt 0.784526 0.407783
vt 0.784526 0.611027
vt 0.654196 0.597992
vt 0.716791 0.405648
vt 0.587965 0.399860
vt 0.614700 0.227678
vt 0.716791 0.190614
vt 0.132821 0.864739
vt 0.130716 0.742286
vt 0.238977 0.721332
vt 0.238977 0.922467
vt 0.841879 0.314266
vt 0.837076 0.183374
vt 0.953938 0.208614
vt 0.953938 0.363538
vt 0.029258 0.249491
vt 0.135394 0.220693
vt 0.135394 0.444600
vt 0.001067 0.433027
vt 0.895528 0.167827
vt 0.762596 0.181088
vt 0.799728 0.030679
vt 0.895528 0.001067
vt 0.408550 0.233469
vt 0.585831 0.201418
vt 0.585831 0.405648
vt 0.395726 0.399735
vt 0.584801 0.011282
vt 0.760462 0.001067
vt 0.760462 0.127757
vt 0.559011 0.116785
vt 0.393592 0.201418
vt 0.393592 0.399634
vt 0.218488 0.382323
vt 0.192689 0.209998
vt 0.795773 0.962609
vt 0.787147 0.821278
vt 0.933745 0.824404
vt 0.933745 0.961709
vn 0.1639 0.9528 0.2556
vn 0.6706 0.2013 0.7140
vn 0.7755 -0.4475 0.4454
vn 0.0730 0.9559 0.2844
vn 0.2704 0.9613 0.0533
vn -0.0799 0.9965 -0.0252
vn -0.1018 0.9945 -0.0242
vn -0.1071 0.9938 0.0289
vn 0.0316 0.5336 0.8452
vn 0.1051 0.9943 -0.0204
vn 0.3385 -0.4895 0.8036
vn 0.6659 0.2015 0.7183
vn -0.1978 0.9628 0.1843
vn 0.0995 0.9945 -0.0337
vn 0.2894 0.4489 0.8454
vn -0.9042 0.4015 -0.1459
vn -0.2291 0.4441 -0.8662
vn -0.1582 -0.9807 0.1150
vn -0.8543 -0.4707 0.2207
vn -0.8541 -0.4711 0.2204
vn -0.8844 0.3566 0.3013
vn -0.3064 -0.5360 0.7867
vn 0.1407 -0.5755 0.8056
vn 0.2158 -0.3903 -0.8950
vn 0.8013 -0.5396 -0.2583
vn -0.0937 0.9946 -0.0451
vn -0.1275 0.9907 -0.0483
vn -0.1861 0.9824 -0.0132
vn -0.1918 0.9814 -0.0032
vn 0.1598 -0.9751 -0.1537
vn -0.1591 0.9669 0.1997
vn 0.9012 0.4191 -0.1101
vn 0.7538 0.6339 -0.1732
vn 0.9012 0.4191 -0.1100
vn 0.2037 0.9623 0.1804
vn -0.2087 -0.3735 -0.9039
vn -0.4205 0.3491 0.8374
vn 0.8522 0.4414 0.2808
vn 0.1663 0.4328 -0.8860
vn 0.8072 -0.5780 0.1199
vn 0.1000 -0.9911 0.0880
vn -0.8692 -0.4719 -0.1479
vn -0.1449 -0.9817 -0.1235
vn 0.0147 0.9989 0.0449
g Stone_2_Stone_2_Collor_Material
usemtl Collor_Material
s off
f 31/1/1 6/2/1 32/3/1
f 6/4/2 28/5/2 26/6/2
f 26/7/3 28/8/3 5/9/3
f 31/10/4 32/11/4 30/12/4
f 29/13/5 8/14/5 23/15/5
f 24/16/6 14/17/7 4/18/8
f 19/19/9 31/20/9 30/21/9
f 8/22/10 14/23/10 24/24/10
f 5/25/11 28/26/11 27/27/11
f 27/28/12 28/29/12 6/30/12
f 25/31/13 11/32/13 2/33/13
f 23/34/14 8/35/14 24/36/14
f 27/37/15 6/38/15 31/39/15 19/40/15
f 4/41/16 12/42/16 22/43/16 11/44/16
f 21/45/17 12/46/17 4/47/17 14/48/17
f 1/49/18 9/50/18 18/51/18 17/52/18
f 22/53/19 9/54/20 1/55/20 10/56/20
f 22/57/21 10/58/21 2/59/21 11/60/21
f 1/61/22 17/62/22 19/63/22 10/64/22
f 27/65/23 19/66/23 17/67/23 5/68/23
f 7/69/24 13/70/24 21/71/24 15/72/24
f 20/73/25 16/74/25 7/75/25 15/76/25
f 25/77/26 24/78/27 4/79/28 11/80/29
f 18/81/30 13/82/30 7/83/30 16/84/30
f 2/85/31 30/86/31 32/87/31 25/88/31
f 8/89/32 29/90/33 20/91/33 15/92/34
f 23/93/35 32/94/35 6/95/35 29/96/35
f 21/97/36 13/98/36 3/99/36 12/100/36
f 30/101/37 2/102/37 10/103/37 19/104/37
f 29/105/38 6/106/38 26/107/38 20/108/38
f 8/109/39 15/110/39 21/111/39 14/112/39
f 16/113/40 20/114/40 26/115/40 5/116/40
f 5/117/41 17/118/41 18/119/41 16/120/41
f 3/121/42 9/122/42 22/123/42 12/124/42
f 18/125/43 9/126/43 3/127/43 13/128/43
f 25/129/44 32/130/44 23/131/44 24/132/44
