# Blender v3.0.0 OBJ File: 'aa.blend'
# www.blender.org
mtllib Tent_4.mtl
o Tent_4
v 2.004881 -0.007018 -3.025828
v 1.805946 2.118914 -2.907038
v 2.060026 -0.007017 3.061217
v 0.595889 1.963807 2.899302
v -2.004798 -0.007018 -3.025826
v -1.805863 2.118914 -2.907037
v -2.059938 -0.007017 3.061219
v -1.855531 2.037780 2.907038
v 0.000042 3.266640 -2.965364
v 0.418523 2.365799 2.845686
v -0.418435 2.365799 2.845686
v -0.803448 2.733344 -2.936173
v 0.803532 2.733344 -2.936174
v 1.912593 -0.007017 1.453518
v 1.861699 -0.007017 -0.000001
v 1.912592 -0.007017 -1.453519
v 1.722815 1.950051 -1.453519
v 1.676972 1.980227 -0.000001
v 1.722816 2.019074 1.453518
v -1.912507 -0.007017 -1.453518
v -1.912506 -0.007017 1.453519
v -1.722729 2.019074 1.453519
v -1.683985 1.975555 -0.002346
v -1.722730 1.950051 -1.453518
v 0.000042 3.230926 -1.453519
v 0.000044 3.247934 1.453518
v 0.000043 3.209087 -0.000000
v 0.766545 2.564481 -1.453519
v 0.775443 2.583537 -0.035118
v 0.766546 2.551407 1.453518
v -0.766459 2.633504 1.453519
v -0.752539 2.606991 -0.002346
v -0.766460 2.564481 -1.453519
v 1.921810 0.679260 -2.905149
v 1.863465 1.358520 -2.907038
v 0.885000 1.313528 2.967570
v 1.168488 0.625790 2.997128
v -0.968518 1.183830 2.954247
v -1.168400 0.625790 2.997129
v -1.863381 1.358520 -2.907037
v -1.921726 0.679260 -2.905147
v -1.772440 1.358520 1.460056
v -1.894354 0.664227 1.572732
v -1.739976 1.330633 -0.002345
v -1.751404 1.297711 -1.453518
v -1.770374 0.659196 -1.404168
v 1.777685 1.358520 -1.453520
v 1.881368 0.669013 -1.509554
v 1.730382 1.358520 -0.000001
v 1.784560 0.679260 -0.000001
v 1.783181 1.371307 1.463732
v 1.833345 0.679260 1.453518
v 1.974670 0.679260 2.919421
v -1.407614 -0.007017 3.019496
v 1.407702 -0.007017 3.019495
v -1.974581 0.679260 2.919422
v 0.825634 2.652210 2.907037
v 0.000044 3.266640 2.971917
v -0.825546 2.652210 2.907037
v -0.595800 1.963807 2.899303
v 1.855620 2.037780 2.907036
v 1.914720 1.358520 2.907036
v -1.914632 1.358520 2.907038
v 1.937088 -0.007018 -2.956939
v 1.739501 1.994758 -2.848382
v 1.990697 -0.007017 2.993708
v 0.597606 1.961476 2.799348
v -1.937043 -0.007018 -2.958670
v -1.739231 1.995041 -2.848396
v -1.990706 -0.007017 2.992930
v -1.789192 1.993348 2.849312
v 0.000042 3.186058 -2.906152
v 0.422338 2.372690 2.746003
v -0.422250 2.372690 2.746004
v -0.763471 2.595155 -2.865181
v 0.763555 2.595155 -2.865182
v 1.816621 -0.007017 1.460089
v 1.765366 -0.007017 -0.000788
v 1.816221 -0.007017 -1.458390
v 1.640171 1.898136 -1.458110
v 1.595031 1.926942 0.000594
v 1.641656 1.964806 1.459036
v -1.817088 -0.007017 -1.458380
v -1.816173 -0.007017 1.460172
v -1.640842 1.966027 1.459427
v -1.601384 1.923411 -0.002346
v -1.639832 1.898576 -1.458166
v -0.001446 3.147995 1.456573
v -0.000731 3.209065 0.004397
v 0.711492 2.482261 -1.456284
v 0.766545 2.482261 -0.035565
v 0.711730 2.469035 1.456710
v -0.711566 2.551187 1.456735
v -0.696988 2.525120 -0.000000
v -0.711408 2.482261 -1.456284
v 1.850848 0.665297 -2.838554
v 1.793597 1.350987 -2.838210
v 0.881235 1.308175 2.867789
v 1.163665 0.617682 2.897583
v -0.915191 1.197798 2.901332
v -1.163577 0.617682 2.897584
v -1.792588 1.353896 -2.838965
v -1.849624 0.664684 -2.840005
v -1.681508 1.347988 1.460056
v -1.789941 0.664227 1.572732
v -1.652472 1.326103 -0.002346
v -1.674509 1.297711 -1.453518
v -1.674171 0.648747 -1.408798
v 1.681488 1.348073 -1.458265
v 1.785142 0.658887 -1.514352
v 1.633981 1.349062 -0.000208
v 1.688206 0.669323 -0.000721
v 1.703005 1.366582 1.914597
v 1.737193 0.669152 1.459710
v 1.900493 0.664801 2.856785
v -1.405767 -0.007017 2.920360
v 1.405855 -0.007017 2.920359
v -1.900999 0.665683 2.855850
v 0.787962 2.594344 2.835361
v -0.001401 3.173806 2.934779
v -0.788406 2.594902 2.834620
v -0.597517 1.961476 2.799349
v 1.789278 1.992802 2.849738
v 1.841542 1.348367 2.842337
v -1.842175 1.347051 2.841695
v -1.770373 0.659196 -0.002345
v -1.682870 0.654666 -0.002345
v -1.912507 -0.007017 -0.002345
v -1.825003 -0.011548 -0.002345
v -1.992329 2.381113 3.218332
v -1.689681 2.205491 1.453519
v -2.068502 2.349561 3.218332
v -1.761827 2.191397 1.453519
v -2.100054 2.273388 3.218332
v -1.801391 2.130960 1.453519
v -2.068502 2.197215 3.218332
v -1.785195 2.059581 1.453519
v -1.992329 2.165663 3.218332
v -1.916156 2.197215 3.218332
v -1.650582 2.033167 1.453519
v -1.884604 2.273388 3.218332
v -1.611018 2.093605 1.453519
v -1.916156 2.349561 3.218332
v -1.627214 2.164984 1.453519
v -1.824738 2.173878 -0.022816
v -1.744476 2.175300 -0.004006
v -1.877754 2.115869 -0.047757
v -1.872468 2.035253 -0.064220
v -1.811977 1.979254 -0.062559
v -1.731715 1.980676 -0.043749
v -1.683985 2.119301 -0.002346
v -1.931365 2.067182 -1.453518
v -1.855192 2.098734 -1.453518
v -1.962916 1.991009 -1.453518
v -1.931365 1.914836 -1.453518
v -1.855192 1.883284 -1.453518
v -1.779019 1.914836 -1.453518
v -1.747467 1.991009 -1.453518
v -1.779019 2.067182 -1.453518
v -1.941039 2.221677 -3.081350
v -1.864866 2.253229 -3.081350
v -1.972590 2.145504 -3.081350
v -1.941039 2.069331 -3.081350
v -1.864866 2.037780 -3.081350
v -1.788693 2.069331 -3.081350
v -1.757141 2.145504 -3.081350
v -1.788693 2.221677 -3.081350
v 1.992332 2.069332 3.242952
v 1.886744 2.126799 1.453518
v 2.068504 2.037780 3.242952
v 1.962917 2.095247 1.453518
v 2.100056 1.961607 3.242952
v 1.994469 2.019074 1.453518
v 2.068504 1.885434 3.242952
v 1.962917 1.942901 1.453518
v 1.992332 1.853882 3.242952
v 1.886744 1.911349 1.453518
v 1.916159 1.885434 3.242953
v 1.810571 1.942901 1.453518
v 1.884606 1.961607 3.242953
v 1.779019 2.019074 1.453518
v 1.916159 2.037780 3.242952
v 1.810571 2.095247 1.453518
v 1.915576 2.056400 -0.000001
v 1.839403 2.087952 -0.000001
v 1.947128 1.980227 -0.000001
v 1.915576 1.904054 -0.000001
v 1.839403 1.872503 -0.000001
v 1.763230 1.904054 -0.000001
v 1.731678 1.980227 -0.000001
v 1.763230 2.056400 -0.000001
v 1.931363 2.102397 -1.453520
v 1.855191 2.133949 -1.453520
v 1.962915 2.026224 -1.453520
v 1.931363 1.950051 -1.453520
v 1.855191 1.918499 -1.453520
v 1.779018 1.950051 -1.453519
v 1.747465 2.026224 -1.453519
v 1.779018 2.102397 -1.453520
v 1.941036 2.221677 -3.081351
v 1.864863 2.253229 -3.081351
v 1.972588 2.145504 -3.081351
v 1.941036 2.069331 -3.081351
v 1.864863 2.037780 -3.081351
v 1.788690 2.069331 -3.081351
v 1.757138 2.145504 -3.081351
v 1.788690 2.221677 -3.081351
v -2.026784 0.000000 3.023362
v -2.076053 0.000000 3.043770
v -2.096461 0.000000 3.093039
v -2.076053 0.000000 3.142309
v -2.026784 0.000000 3.162717
v -1.977514 0.000000 3.142309
v -1.957106 0.000000 3.093039
v -1.977514 0.000000 3.043770
v -1.964357 0.679260 2.930835
v -2.013627 0.679260 2.951242
v -2.034035 0.679260 3.000512
v -2.013627 0.679260 3.049782
v -1.964357 0.679260 3.070190
v -1.915088 0.679260 3.049782
v -1.894680 0.679260 3.000512
v -1.915088 0.679260 2.951243
v -1.920827 1.358520 2.918450
v -1.970096 1.358520 2.938858
v -1.990504 1.358520 2.988128
v -1.970096 1.358520 3.037397
v -1.920827 1.358520 3.057805
v -1.871557 1.358520 3.037397
v -1.851149 1.358520 2.988128
v -1.871557 1.358520 2.938858
v -1.813422 2.266436 2.918450
v -1.862691 2.266436 2.938858
v -1.883099 2.266436 2.988128
v -1.862691 2.266436 3.037397
v -1.813422 2.266436 3.057805
v -1.764152 2.266436 3.037397
v -1.743744 2.266436 2.988127
v -1.764152 2.266436 2.938858
v -2.068730 2.115562 2.872082
v -2.068730 2.069436 2.891188
v -2.068730 2.050330 2.937315
v -2.068730 2.069436 2.983441
v -2.068730 2.115562 3.002547
v -2.068730 2.161688 2.983441
v -2.068730 2.180794 2.937315
v -2.068730 2.161688 2.891189
v -1.644679 2.252975 2.808279
v -1.628325 2.207355 2.828687
v -1.621551 2.188459 2.877957
v -1.628325 2.207355 2.927226
v -1.644679 2.252975 2.947634
v -1.661033 2.298594 2.927226
v -1.667807 2.317490 2.877957
v -1.661033 2.298594 2.828687
v -0.873492 2.696804 2.819911
v -0.852543 2.652210 2.840319
v -0.843866 2.633739 2.889588
v -0.852543 2.652210 2.938858
v -0.873492 2.696804 2.959266
v -0.894441 2.741398 2.938858
v -0.903119 2.759869 2.889588
v -0.894441 2.741398 2.840319
v 0.257171 3.504375 2.956805
v 0.273359 3.469917 2.972574
v 0.280064 3.455643 3.010646
v 0.273359 3.469917 3.048718
v 0.257171 3.504375 3.064488
v 0.240983 3.538834 3.048718
v 0.234277 3.553107 3.010646
v 0.240983 3.538834 2.972574
v 2.079218 0.000000 3.052210
v 2.128487 0.000000 3.072618
v 2.148896 0.000000 3.121887
v 2.128487 0.000000 3.171156
v 2.079218 0.000000 3.191565
v 2.029948 0.000000 3.171156
v 2.009540 0.000000 3.121887
v 2.029948 0.000000 3.072618
v 2.016792 0.679260 2.959682
v 2.066061 0.679260 2.980090
v 2.086469 0.679260 3.029360
v 2.066061 0.679260 3.078629
v 2.016792 0.679260 3.099037
v 1.967522 0.679260 3.078629
v 1.947114 0.679260 3.029360
v 1.967522 0.679260 2.980090
v 1.940537 1.358520 2.947298
v 1.989807 1.358520 2.967706
v 2.010215 1.358520 3.016975
v 1.989807 1.358520 3.066245
v 1.940537 1.358520 3.086653
v 1.891268 1.358520 3.066245
v 1.870860 1.358520 3.016975
v 1.891268 1.358520 2.967706
v 1.813424 2.266436 2.918448
v 1.862694 2.266436 2.938856
v 1.883102 2.266436 2.988126
v 1.862694 2.266436 3.037395
v 1.813424 2.266436 3.057804
v 1.764155 2.266436 3.037396
v 1.743747 2.266436 2.988126
v 1.764155 2.266436 2.938857
v 2.068732 2.115562 2.872081
v 2.068732 2.069436 2.891187
v 2.068732 2.050330 2.937313
v 2.068732 2.069436 2.983439
v 2.068732 2.115562 3.002545
v 2.068732 2.161688 2.983439
v 2.068732 2.180794 2.937313
v 2.068732 2.161688 2.891187
v 1.644681 2.252975 2.808278
v 1.628327 2.207355 2.828686
v 1.621553 2.188459 2.877955
v 1.628327 2.207355 2.927225
v 1.644681 2.252975 2.947633
v 1.661036 2.298594 2.927225
v 1.667809 2.317490 2.877955
v 1.661035 2.298594 2.828686
v 0.873494 2.696804 2.819910
v 0.852545 2.652210 2.840318
v 0.843868 2.633739 2.889587
v 0.852545 2.652210 2.938857
v 0.873494 2.696804 2.959265
v 0.894444 2.741398 2.938857
v 0.903121 2.759869 2.889588
v 0.894444 2.741398 2.840318
v -0.280667 3.487804 2.829801
v -0.298535 3.449769 2.847207
v -0.305936 3.434014 2.889231
v -0.298535 3.449769 2.931254
v -0.280667 3.487804 2.948661
v -0.262798 3.525839 2.931254
v -0.255397 3.541594 2.889231
v -0.262798 3.525839 2.847208
v -2.026786 -0.000000 -3.005230
v -2.076056 -0.000000 -3.025638
v -2.096464 -0.000000 -3.074908
v -2.076056 -0.000000 -3.124177
v -2.026786 -0.000000 -3.144585
v -1.977517 -0.000000 -3.124177
v -1.957108 -0.000000 -3.074908
v -1.977517 -0.000000 -3.025639
v -1.964360 0.679260 -2.912703
v -2.013629 0.679260 -2.933111
v -2.034037 0.679260 -2.982381
v -2.013629 0.679260 -3.031650
v -1.964360 0.679260 -3.052058
v -1.915090 0.679260 -3.031650
v -1.894682 0.679260 -2.982381
v -1.915090 0.679260 -2.933111
v -1.920829 1.358519 -2.886629
v -1.970098 1.358519 -2.907037
v -1.990506 1.358519 -2.956306
v -1.970098 1.358519 -3.005576
v -1.920829 1.358519 -3.025984
v -1.871560 1.358519 -3.005576
v -1.851151 1.358519 -2.956306
v -1.871559 1.358519 -2.907037
v -1.756406 2.406271 -2.847097
v -1.805675 2.406271 -2.867505
v -1.826084 2.406271 -2.916775
v -1.805676 2.406271 -2.966044
v -1.756406 2.406271 -2.986452
v -1.707137 2.406271 -2.966044
v -1.686728 2.406271 -2.916775
v -1.707137 2.406271 -2.867506
v -2.068732 2.223063 -2.755015
v -2.068732 2.176937 -2.774121
v -2.068732 2.157831 -2.820247
v -2.068732 2.176937 -2.866373
v -2.068732 2.223063 -2.885479
v -2.068732 2.269189 -2.866373
v -2.068732 2.288295 -2.820247
v -2.068732 2.269189 -2.774122
v -1.616496 2.281521 -2.744254
v -1.599974 2.235940 -2.764662
v -1.593131 2.217059 -2.813931
v -1.599974 2.235940 -2.863201
v -1.616496 2.281521 -2.883609
v -1.633018 2.327104 -2.863201
v -1.639862 2.345984 -2.813931
v -1.633018 2.327104 -2.764662
v -0.873494 2.696803 -2.788090
v -0.852545 2.652210 -2.808498
v -0.843868 2.633738 -2.857768
v -0.852545 2.652210 -2.907037
v -0.873494 2.696803 -2.927445
v -0.894444 2.741397 -2.907037
v -0.903121 2.759868 -2.857767
v -0.894444 2.741397 -2.808498
v 0.156596 3.510593 -2.768360
v 0.177546 3.465999 -2.788768
v 0.186223 3.447528 -2.838037
v 0.177545 3.465999 -2.887307
v 0.156596 3.510593 -2.907715
v 0.135647 3.555187 -2.887307
v 0.126970 3.573658 -2.838037
v 0.135647 3.555187 -2.788768
v 2.026784 -0.000000 -3.019189
v 2.076053 -0.000000 -3.039597
v 2.096461 -0.000000 -3.088866
v 2.076053 -0.000000 -3.138135
v 2.026784 -0.000000 -3.158544
v 1.977514 -0.000000 -3.138135
v 1.957106 -0.000000 -3.088866
v 1.977514 -0.000000 -3.039597
v 1.964357 0.679260 -2.926661
v 2.013627 0.679260 -2.947069
v 2.034035 0.679260 -2.996339
v 2.013627 0.679260 -3.045609
v 1.964357 0.679260 -3.066017
v 1.915088 0.679260 -3.045609
v 1.894680 0.679260 -2.996339
v 1.915088 0.679260 -2.947070
v 1.920827 1.358519 -2.886630
v 1.970096 1.358519 -2.907038
v 1.990504 1.358519 -2.956308
v 1.970096 1.358519 -3.005577
v 1.920827 1.358519 -3.025985
v 1.871557 1.358519 -3.005577
v 1.851149 1.358519 -2.956308
v 1.871557 1.358519 -2.907038
v 1.714073 2.422674 -2.939260
v 1.763342 2.422674 -2.959668
v 1.783750 2.422674 -3.008938
v 1.763342 2.422674 -3.058207
v 1.714073 2.422674 -3.078615
v 1.664803 2.422674 -3.058207
v 1.644395 2.422674 -3.008937
v 1.664803 2.422674 -2.959668
v 2.068730 2.261403 -2.840263
v 2.068730 2.215277 -2.859369
v 2.068730 2.196171 -2.905495
v 2.068730 2.215277 -2.951621
v 2.068730 2.261403 -2.970727
v 2.068730 2.307529 -2.951621
v 2.068730 2.326635 -2.905495
v 2.068730 2.307529 -2.859369
v 1.644679 2.298300 -2.803270
v 1.628325 2.252681 -2.823678
v 1.621551 2.233785 -2.872947
v 1.628325 2.252681 -2.922217
v 1.644679 2.298300 -2.942625
v 1.661033 2.343920 -2.922217
v 1.667807 2.362816 -2.872947
v 1.661033 2.343920 -2.823678
v 0.873492 2.696803 -2.788091
v 0.852543 2.652210 -2.808499
v 0.843866 2.633738 -2.857768
v 0.852543 2.652210 -2.907038
v 0.873492 2.696803 -2.927446
v 0.894441 2.741397 -2.907037
v 0.903119 2.759868 -2.857768
v 0.894441 2.741397 -2.808499
v -0.192840 3.512015 -2.911362
v -0.213789 3.467421 -2.931770
v -0.222467 3.448950 -2.981040
v -0.213789 3.467421 -3.030309
v -0.192840 3.512015 -3.050717
v -0.171891 3.556609 -3.030309
v -0.163213 3.575080 -2.981040
v -0.171891 3.556609 -2.931770
v -0.331342 3.003053 -2.847951
v -0.340020 3.021524 -2.897220
v -0.360969 3.066118 -2.917628
v -0.381918 3.110712 -2.897220
v -0.390596 3.129183 -2.847951
v -0.381918 3.110712 -2.798681
v -0.360969 3.066118 -2.778273
v -0.340020 3.021524 -2.798681
v -0.270852 3.149240 2.898227
v -0.289078 3.188036 2.915982
v -0.289078 3.188036 3.001709
v -0.252627 3.110445 3.001709
v -0.252627 3.110445 2.915982
v -0.296627 3.204106 2.958845
v -0.270852 3.149240 3.019463
v -0.245078 3.094375 2.958845
v -0.013341 3.292937 3.080666
v -0.089514 3.261385 3.080666
v -0.121066 3.185212 3.080666
v -0.089514 3.109039 3.080666
v -0.013341 3.077487 3.080666
v 0.062832 3.109039 3.080666
v 0.094384 3.185212 3.080666
v 0.062832 3.261385 3.080666
v -0.013344 3.292936 -3.202632
v -0.089517 3.261384 -3.202632
v -0.121068 3.185211 -3.202632
v -0.089517 3.109038 -3.202632
v -0.013344 3.077487 -3.202632
v 0.062829 3.109038 -3.202632
v 0.094381 3.185211 -3.202632
v 0.062829 3.261384 -3.202632
v 0.031552 3.255084 -1.453519
v -0.000001 3.178911 -1.453519
v -0.076174 3.147359 -1.453519
v -0.152346 3.178911 -1.453519
v -0.183898 3.255084 -1.453519
v -0.152346 3.331257 -1.453519
v -0.000001 3.331257 -1.453519
v -0.076174 3.362808 -1.453519
v 0.000001 3.120718 1.453518
v -0.152345 3.120718 1.453518
v -0.152345 3.273063 1.453518
v -0.076172 3.304615 1.453518
v 0.031553 3.196891 1.453518
v -0.076172 3.089166 1.453518
v -0.183897 3.196891 1.453518
v 0.000001 3.273063 1.453518
v -1.678698 2.038685 -0.018808
vt 0.870985 0.747757
vt 0.870985 0.851768
vt 0.836416 0.799762
vt 0.734566 0.548598
vt 0.734566 0.722120
vt 0.710701 0.620884
vt 0.880997 0.301251
vt 0.850051 0.244309
vt 0.880997 0.234508
vt 0.876360 0.084371
vt 0.832749 0.066912
vt 0.876360 0.002694
vt 0.605107 0.648075
vt 0.605107 0.695050
vt 0.585627 0.669083
vt 0.859599 0.155787
vt 0.890546 0.098845
vt 0.890546 0.165588
vt 0.603497 0.799287
vt 0.565159 0.749868
vt 0.603497 0.700450
vt 0.387826 0.227854
vt 0.348964 0.065846
vt 0.387826 0.002694
vt 0.904509 0.807674
vt 0.876372 0.750519
vt 0.904509 0.747757
vt 0.878710 0.170975
vt 0.878710 0.213856
vt 0.859599 0.192970
vt 0.759059 0.847154
vt 0.759059 0.889993
vt 0.739953 0.867993
vt 0.452743 0.200381
vt 0.452743 0.228690
vt 0.393213 0.206396
vt 0.717171 0.727507
vt 0.717171 0.781225
vt 0.710701 0.727674
vt 0.194935 0.438225
vt 0.201323 0.379350
vt 0.201323 0.439268
vt 0.284285 0.834270
vt 0.281310 0.775210
vt 0.284285 0.769462
vt 0.120630 0.444216
vt 0.026380 0.444069
vt 0.026326 0.371234
vt 0.120630 0.370647
vt 0.282219 0.438741
vt 0.206710 0.442074
vt 0.211178 0.351696
vt 0.282219 0.349374
vt 0.107822 0.008355
vt 0.151970 0.002694
vt 0.151970 0.253446
vt 0.107785 0.247867
vt 0.343576 0.002694
vt 0.343576 0.236467
vt 0.303763 0.171586
vt 0.028836 0.364188
vt 0.026326 0.267606
vt 0.102398 0.270395
vt 0.102398 0.365260
vt 0.367318 0.341975
vt 0.289691 0.341953
vt 0.296480 0.247719
vt 0.367318 0.247593
vt 0.026585 0.659027
vt 0.026326 0.598989
vt 0.120630 0.598235
vt 0.120630 0.661407
vt 0.282219 0.527001
vt 0.282219 0.592743
vt 0.188281 0.590257
vt 0.188134 0.527876
vt 0.591122 0.338357
vt 0.525394 0.339736
vt 0.528733 0.243180
vt 0.591122 0.240476
vt 0.705294 0.804955
vt 0.610494 0.803976
vt 0.611138 0.763593
vt 0.705294 0.762842
vt 0.295806 0.846660
vt 0.289691 0.756436
vt 0.331509 0.756897
vt 0.331509 0.846508
vt 0.765128 0.447255
vt 0.765128 0.541835
vt 0.721069 0.541666
vt 0.721063 0.447053
vt 0.685897 0.003491
vt 0.780001 0.002694
vt 0.780001 0.046825
vt 0.685523 0.046367
vt 0.443541 0.341428
vt 0.372705 0.341975
vt 0.373347 0.247818
vt 0.443541 0.245052
vt 0.157358 0.251466
vt 0.157358 0.002694
vt 0.201323 0.006470
vt 0.201323 0.247689
vt 0.790556 0.549790
vt 0.834815 0.548598
vt 0.834815 0.631959
vt 0.790102 0.639817
vt 0.134216 0.712040
vt 0.133902 0.620999
vt 0.177964 0.621604
vt 0.177964 0.721504
vt 0.746471 0.328930
vt 0.701386 0.332853
vt 0.702335 0.234685
vt 0.746471 0.234508
vt 0.191796 0.448347
vt 0.282219 0.447461
vt 0.282219 0.521613
vt 0.190703 0.519320
vt 0.751858 0.263354
vt 0.797435 0.234508
vt 0.797435 0.325549
vt 0.753043 0.324068
vt 0.121507 0.825548
vt 0.121507 0.878084
vt 0.079529 0.865543
vt 0.075865 0.823394
vt 0.128274 0.813584
vt 0.108794 0.792576
vt 0.128274 0.766609
vt 0.541357 0.847400
vt 0.465530 0.817043
vt 0.541357 0.800425
vt 0.365861 0.662846
vt 0.409661 0.653374
vt 0.409661 0.753222
vt 0.366138 0.746206
vt 0.655237 0.646250
vt 0.610494 0.654066
vt 0.611171 0.552126
vt 0.655237 0.548598
vt 0.794227 0.513966
vt 0.771164 0.443470
vt 0.794227 0.347362
vt 0.460143 0.521008
vt 0.369716 0.520133
vt 0.368627 0.449131
vt 0.460143 0.446836
vt 0.177394 0.726892
vt 0.177394 0.820845
vt 0.135986 0.818599
vt 0.133902 0.727890
vt 0.455470 0.759153
vt 0.455470 0.803688
vt 0.369655 0.803705
vt 0.365861 0.758609
vt 0.585457 0.002694
vt 0.680136 0.004402
vt 0.680136 0.047905
vt 0.577874 0.048272
vt 0.839700 0.347871
vt 0.839700 0.442554
vt 0.800901 0.442041
vt 0.799614 0.347362
vt 0.553910 0.439959
vt 0.549601 0.348515
vt 0.616439 0.347362
vt 0.616439 0.441428
vt 0.740590 0.738570
vt 0.739953 0.647537
vt 0.784044 0.647353
vt 0.784044 0.741597
vt 0.901899 0.447941
vt 0.901899 0.496266
vt 0.895428 0.496155
vt 0.895427 0.447970
vt 0.179544 0.878769
vt 0.133902 0.880923
vt 0.137566 0.838774
vt 0.179544 0.826233
vt 0.400352 0.092949
vt 0.393213 0.002694
vt 0.468818 0.003721
vt 0.468818 0.093458
vt 0.460143 0.526395
vt 0.460143 0.593242
vt 0.368639 0.590511
vt 0.366091 0.528017
vt 0.666521 0.106583
vt 0.709979 0.098845
vt 0.709979 0.201107
vt 0.665889 0.200812
vt 0.536589 0.099630
vt 0.536589 0.197915
vt 0.470011 0.193226
vt 0.469558 0.098845
vt 0.138867 0.586357
vt 0.140477 0.491894
vt 0.177964 0.491591
vt 0.177964 0.615612
vt 0.848631 0.460903
vt 0.890040 0.447941
vt 0.890040 0.495802
vt 0.845389 0.498916
vt 0.439142 0.851972
vt 0.365861 0.827604
vt 0.439142 0.809092
vt 0.840203 0.612345
vt 0.880865 0.548598
vt 0.880865 0.625825
vt 0.880916 0.709585
vt 0.837694 0.726215
vt 0.839097 0.649001
vt 0.880916 0.647353
vt 0.075922 0.883725
vt 0.082335 0.883471
vt 0.082335 0.927282
vt 0.075865 0.927116
vt 0.512545 0.210527
vt 0.512545 0.239665
vt 0.506163 0.238589
vt 0.506099 0.209939
vt 0.911544 0.447941
vt 0.911544 0.504005
vt 0.907287 0.501489
vt 0.930616 0.436992
vt 0.930616 0.501800
vt 0.927495 0.496130
vt 0.127092 0.556582
vt 0.133480 0.555539
vt 0.133480 0.615371
vt 0.206937 0.238508
vt 0.206710 0.006393
vt 0.251318 0.002694
vt 0.251318 0.242206
vt 0.854212 0.099273
vt 0.854212 0.193547
vt 0.815418 0.192801
vt 0.815258 0.098845
vt 0.469405 0.700450
vt 0.559772 0.701137
vt 0.559772 0.745264
vt 0.465530 0.745560
vt 0.787275 0.093162
vt 0.785388 0.002694
vt 0.827362 0.002762
vt 0.827362 0.092791
vt 0.529254 0.644453
vt 0.465530 0.645585
vt 0.465943 0.555849
vt 0.529254 0.548762
vt 0.693430 0.493124
vt 0.693430 0.537255
vt 0.631368 0.543211
vt 0.611788 0.490677
vt 0.559363 0.871481
vt 0.557756 0.804674
vt 0.603497 0.819827
vt 0.603497 0.872362
vt 0.442196 0.347518
vt 0.442196 0.439334
vt 0.371979 0.441448
vt 0.368627 0.347362
vt 0.488395 0.427690
vt 0.447583 0.426028
vt 0.449932 0.421676
vt 0.488395 0.421218
vt 0.844664 0.234508
vt 0.844664 0.325044
vt 0.805347 0.296085
vt 0.802823 0.235412
vt 0.889798 0.350376
vt 0.889798 0.398283
vt 0.848373 0.385371
vt 0.845087 0.347362
vt 0.290695 0.750935
vt 0.289691 0.653031
vt 0.334800 0.656920
vt 0.334800 0.751049
vt 0.365861 0.637494
vt 0.365901 0.599043
vt 0.460143 0.598630
vt 0.460143 0.647986
vt 0.028756 0.452467
vt 0.120736 0.449603
vt 0.120736 0.520614
vt 0.026326 0.517019
vt 0.026998 0.666794
vt 0.121130 0.667045
vt 0.121130 0.711150
vt 0.026326 0.711704
vt 0.605107 0.548598
vt 0.605107 0.642688
vt 0.540605 0.641023
vt 0.539368 0.549216
vt 0.026439 0.528907
vt 0.120697 0.526001
vt 0.120697 0.592848
vt 0.026326 0.592078
vt 0.520007 0.339622
vt 0.448928 0.339736
vt 0.449699 0.245052
vt 0.520007 0.245315
vt 0.559457 0.750947
vt 0.559457 0.795038
vt 0.468724 0.795038
vt 0.465530 0.750947
vt 0.284304 0.249823
vt 0.284304 0.343987
vt 0.210762 0.341984
vt 0.206710 0.247593
vt 0.393887 0.193117
vt 0.393213 0.098845
vt 0.464171 0.100690
vt 0.464171 0.194994
vt 0.723799 0.810343
vt 0.723799 0.854486
vt 0.671273 0.853437
vt 0.661725 0.816175
vt 0.256706 0.231274
vt 0.256871 0.006113
vt 0.298376 0.002694
vt 0.298376 0.234809
vt 0.572487 0.003497
vt 0.572487 0.067081
vt 0.478349 0.069308
vt 0.474205 0.002694
vt 0.355419 0.449876
vt 0.355419 0.547757
vt 0.293030 0.545053
vt 0.289691 0.448496
vt 0.240220 0.769583
vt 0.275923 0.769462
vt 0.275923 0.863885
vt 0.238435 0.864044
vt 0.070478 0.823394
vt 0.070478 0.884288
vt 0.030850 0.874389
vt 0.026326 0.826696
vt 0.840002 0.448054
vt 0.840002 0.542182
vt 0.801551 0.542067
vt 0.799614 0.447941
vt 0.760989 0.106157
vt 0.760989 0.193481
vt 0.716849 0.192940
vt 0.715367 0.098845
vt 0.449752 0.349055
vt 0.544214 0.347362
vt 0.544214 0.415830
vt 0.447583 0.413616
vt 0.194473 0.598130
vt 0.283817 0.600132
vt 0.283817 0.660171
vt 0.188134 0.661380
vt 0.767818 0.100917
vt 0.809871 0.098845
vt 0.809871 0.192801
vt 0.766376 0.191941
vt 0.188920 0.667937
vt 0.233048 0.666767
vt 0.233048 0.762087
vt 0.188134 0.761742
vt 0.651221 0.241992
vt 0.695999 0.234508
vt 0.695999 0.336691
vt 0.652496 0.336666
vt 0.615839 0.108489
vt 0.660502 0.098845
vt 0.660502 0.203340
vt 0.615790 0.203809
vt 0.363240 0.441334
vt 0.289691 0.443109
vt 0.290426 0.349137
vt 0.363240 0.347362
vt 0.051910 0.240190
vt 0.002694 0.243913
vt 0.002694 0.002694
vt 0.051910 0.006416
vt 0.715676 0.355285
vt 0.715676 0.448619
vt 0.672286 0.444777
vt 0.671876 0.347362
vt 0.541900 0.541513
vt 0.539368 0.447434
vt 0.606401 0.446836
vt 0.606401 0.543211
vt 0.290894 0.553540
vt 0.353275 0.553144
vt 0.353275 0.647395
vt 0.289691 0.647644
vt 0.782209 0.840959
vt 0.739953 0.841767
vt 0.740317 0.747814
vt 0.782209 0.746984
vt 0.087779 0.927028
vt 0.087722 0.883637
vt 0.094192 0.883471
vt 0.094192 0.927282
vt 0.232243 0.768859
vt 0.232243 0.850536
vt 0.188914 0.834296
vt 0.188134 0.767474
vt 0.742744 0.551938
vt 0.784715 0.548598
vt 0.784715 0.641932
vt 0.739953 0.641966
vt 0.580240 0.694385
vt 0.573780 0.694785
vt 0.573783 0.648512
vt 0.580240 0.648075
vt 0.654620 0.659803
vt 0.654620 0.757455
vt 0.613308 0.753851
vt 0.610494 0.659453
vt 0.533981 0.542743
vt 0.465530 0.543375
vt 0.470274 0.446836
vt 0.533981 0.448668
vt 0.057297 0.262219
vt 0.057297 0.002694
vt 0.102398 0.008070
vt 0.102398 0.256842
vt 0.500712 0.239077
vt 0.494267 0.239665
vt 0.494330 0.211015
vt 0.500712 0.209939
vt 0.110295 0.259904
vt 0.183857 0.258833
vt 0.183857 0.353697
vt 0.107785 0.356486
vt 0.473051 0.651378
vt 0.567713 0.650972
vt 0.567713 0.695063
vt 0.465530 0.694817
vt 0.705314 0.548598
vt 0.705314 0.650541
vt 0.660624 0.642428
vt 0.661498 0.552063
vt 0.792108 0.749436
vt 0.831029 0.747757
vt 0.831029 0.837828
vt 0.789431 0.839824
vt 0.459743 0.751282
vt 0.415048 0.750700
vt 0.415907 0.656567
vt 0.459743 0.653374
vt 0.645834 0.242252
vt 0.645834 0.336691
vt 0.603601 0.335074
vt 0.596509 0.240476
vt 0.704680 0.655928
vt 0.704680 0.754101
vt 0.661499 0.750911
vt 0.660624 0.656515
vt 0.765777 0.441494
vt 0.721063 0.441666
vt 0.721078 0.347530
vt 0.765777 0.347362
vt 0.238435 0.674853
vt 0.282231 0.666767
vt 0.282231 0.764075
vt 0.239066 0.760666
vt 0.666489 0.347362
vt 0.666489 0.451857
vt 0.621826 0.442213
vt 0.622995 0.354897
vt 0.832307 0.742048
vt 0.789431 0.742370
vt 0.790413 0.648069
vt 0.832307 0.647353
vt 0.610403 0.193219
vt 0.543557 0.192764
vt 0.541976 0.100752
vt 0.610403 0.098845
vt 0.120803 0.717091
vt 0.120803 0.761222
vt 0.027008 0.759660
vt 0.026326 0.717552
vt 0.103407 0.813264
vt 0.026326 0.818007
vt 0.042693 0.766609
vt 0.103407 0.771289
vt 0.656338 0.858204
vt 0.610494 0.873489
vt 0.611930 0.811274
vt 0.656338 0.810343
vt 0.183857 0.485894
vt 0.139722 0.486204
vt 0.138867 0.391629
vt 0.183857 0.361873
vt 0.362848 0.488852
vt 0.360806 0.483922
vt 0.362848 0.478992
vt 0.543722 0.427595
vt 0.542401 0.424407
vt 0.543722 0.421218
vt 0.519974 0.235047
vt 0.517932 0.230117
vt 0.519974 0.225187
vt 0.645029 0.222243
vt 0.642987 0.217313
vt 0.645029 0.212383
vt 0.971692 0.739060
vt 0.968244 0.739212
vt 0.968315 0.684046
vt 0.971692 0.683613
vt 0.729241 0.949663
vt 0.732687 0.949458
vt 0.732687 0.993707
vt 0.729241 0.993912
vt 0.671876 0.482116
vt 0.672073 0.454105
vt 0.675303 0.454006
vt 0.675303 0.482462
vt 0.476249 0.952688
vt 0.479698 0.952535
vt 0.479698 0.996622
vt 0.476249 0.996776
vt 0.715456 0.093105
vt 0.712010 0.093299
vt 0.712010 0.052405
vt 0.715456 0.052212
vt 0.612999 0.082329
vt 0.613166 0.053659
vt 0.616396 0.053772
vt 0.616396 0.082893
vt 0.959418 0.621042
vt 0.962856 0.620852
vt 0.962856 0.678157
vt 0.959405 0.678226
vt 0.847138 0.857221
vt 0.852474 0.857155
vt 0.852474 0.951317
vt 0.847138 0.951383
vt 0.458694 0.905496
vt 0.458694 0.962802
vt 0.455262 0.962528
vt 0.455246 0.905343
vt 0.567377 0.994739
vt 0.567042 0.953481
vt 0.570044 0.953520
vt 0.570044 0.994773
vt 0.560759 0.994874
vt 0.557756 0.994912
vt 0.558092 0.953515
vt 0.560759 0.953481
vt 0.964882 0.811844
vt 0.964882 0.852737
vt 0.961477 0.852171
vt 0.961477 0.811278
vt 0.971575 0.325644
vt 0.971575 0.381838
vt 0.968194 0.381446
vt 0.968125 0.325547
vt 0.900698 0.326193
vt 0.900698 0.442554
vt 0.895427 0.441720
vt 0.896005 0.325547
vt 0.887083 0.093033
vt 0.881747 0.093020
vt 0.881747 0.002734
vt 0.887083 0.002694
vt 0.989223 0.509775
vt 0.989223 0.554330
vt 0.985785 0.554021
vt 0.985785 0.509466
vt 0.241863 0.869838
vt 0.241863 0.940086
vt 0.238435 0.939679
vt 0.238435 0.869431
vt 0.775164 0.944266
vt 0.775530 0.847154
vt 0.780279 0.847457
vt 0.780279 0.945788
vt 0.250677 0.989634
vt 0.247328 0.990466
vt 0.247328 0.946305
vt 0.250677 0.945472
vt 0.424435 0.857638
vt 0.424435 0.950656
vt 0.419448 0.948756
vt 0.419106 0.857360
vt 0.607611 0.053659
vt 0.607611 0.082781
vt 0.604396 0.082462
vt 0.604169 0.053762
vt 0.688963 0.052505
vt 0.688963 0.093398
vt 0.685523 0.093105
vt 0.685523 0.052212
vt 0.546744 0.919719
vt 0.550186 0.919458
vt 0.550186 0.974226
vt 0.546763 0.974604
vt 0.968244 0.676299
vt 0.968327 0.620852
vt 0.971683 0.621425
vt 0.971683 0.676591
vt 0.649198 0.878962
vt 0.649198 0.947655
vt 0.645748 0.947569
vt 0.645748 0.878876
vt 0.967173 0.113129
vt 0.970554 0.112741
vt 0.970554 0.169229
vt 0.967103 0.169322
vt 0.922108 0.325817
vt 0.922108 0.439194
vt 0.916778 0.438924
vt 0.916778 0.325547
vt 0.931260 0.853401
vt 0.931260 0.747757
vt 0.936585 0.748105
vt 0.936585 0.853750
vt 0.277106 0.990292
vt 0.273656 0.990403
vt 0.273656 0.945849
vt 0.277106 0.945737
vt 0.029774 0.948849
vt 0.026326 0.949005
vt 0.026326 0.889830
vt 0.029774 0.889675
vt 0.920537 0.747852
vt 0.925873 0.747757
vt 0.925873 0.861131
vt 0.920537 0.861226
vt 0.429822 0.857699
vt 0.435148 0.857360
vt 0.435148 0.947699
vt 0.430030 0.949210
vt 0.979393 0.161844
vt 0.975941 0.161852
vt 0.976390 0.112749
vt 0.979393 0.112741
vt 0.965931 0.437131
vt 0.965931 0.493619
vt 0.962555 0.493186
vt 0.962482 0.436992
vt 0.604546 0.204742
vt 0.607883 0.204065
vt 0.607883 0.233580
vt 0.604675 0.233192
vt 0.155008 0.995378
vt 0.151567 0.995650
vt 0.151567 0.951519
vt 0.155008 0.951247
vt 0.906085 0.326122
vt 0.911391 0.325547
vt 0.911391 0.441487
vt 0.906675 0.442120
vt 0.979187 0.748223
vt 0.982607 0.747757
vt 0.982607 0.792311
vt 0.979187 0.792778
vt 0.689362 0.481690
vt 0.689540 0.454006
vt 0.692771 0.454046
vt 0.692771 0.482175
vt 0.952688 0.916634
vt 0.952770 0.858747
vt 0.956131 0.859285
vt 0.956131 0.916881
vt 0.947301 0.859030
vt 0.947301 0.950427
vt 0.942150 0.949033
vt 0.941972 0.858747
vt 0.214914 0.855981
vt 0.214914 0.950170
vt 0.209721 0.948943
vt 0.209578 0.855924
vt 0.906652 0.050012
vt 0.911938 0.049282
vt 0.911938 0.165498
vt 0.907232 0.166042
vt 0.621826 0.484144
vt 0.621941 0.457583
vt 0.625154 0.457244
vt 0.625155 0.484854
vt 0.934704 0.859325
vt 0.934704 0.949998
vt 0.931260 0.949777
vt 0.931766 0.859137
vt 0.980370 0.326096
vt 0.980370 0.370650
vt 0.976962 0.370102
vt 0.976962 0.325547
vt 0.971589 0.615109
vt 0.968153 0.615441
vt 0.968153 0.571192
vt 0.971589 0.570860
vt 0.816208 0.950610
vt 0.810872 0.950724
vt 0.810873 0.845325
vt 0.816208 0.845211
vt 0.968167 0.509696
vt 0.971603 0.509466
vt 0.971603 0.565365
vt 0.968153 0.565473
vt 0.645749 0.997105
vt 0.645749 0.953042
vt 0.649198 0.953185
vt 0.649198 0.997247
vt 0.300413 0.952096
vt 0.303859 0.951889
vt 0.303859 0.995976
vt 0.300413 0.996183
vt 0.529853 0.952567
vt 0.533303 0.952441
vt 0.533303 0.996572
vt 0.529853 0.996698
vt 0.444529 0.809350
vt 0.449859 0.809092
vt 0.449859 0.922467
vt 0.444529 0.922725
vt 0.933377 0.155117
vt 0.928043 0.155281
vt 0.928043 0.049445
vt 0.933377 0.049282
vt 0.886366 0.632339
vt 0.891582 0.631212
vt 0.891582 0.729622
vt 0.886844 0.729638
vt 0.590004 0.083802
vt 0.586601 0.083853
vt 0.586948 0.054709
vt 0.590004 0.053659
vt 0.665137 0.860318
vt 0.665137 0.950960
vt 0.661725 0.950438
vt 0.662227 0.859873
vt 0.142730 0.886393
vt 0.146180 0.886310
vt 0.146180 0.945677
vt 0.142729 0.945760
vt 0.529853 0.946948
vt 0.529853 0.852787
vt 0.535189 0.852893
vt 0.535189 0.947054
vt 0.610494 0.953620
vt 0.613478 0.953280
vt 0.613478 0.994570
vt 0.610828 0.994872
vt 0.311132 0.853871
vt 0.316147 0.852047
vt 0.316147 0.949347
vt 0.311475 0.949519
vt 0.300415 0.852315
vt 0.305745 0.852047
vt 0.305745 0.946269
vt 0.300413 0.946502
vt 0.953585 0.278616
vt 0.953585 0.320014
vt 0.950602 0.319675
vt 0.950935 0.278315
vt 0.953961 0.272134
vt 0.950602 0.272928
vt 0.950602 0.185685
vt 0.953961 0.184892
vt 0.948935 0.421009
vt 0.949243 0.325547
vt 0.953911 0.325825
vt 0.953911 0.422937
vt 0.637600 0.222243
vt 0.635558 0.217313
vt 0.637600 0.212383
vt 0.513161 0.078468
vt 0.516935 0.074695
vt 0.516935 0.087578
vt 0.474205 0.076737
vt 0.479135 0.074695
vt 0.479135 0.088640
vt 0.361847 0.233241
vt 0.361847 0.238577
vt 0.348964 0.238577
vt 0.488014 0.228831
vt 0.484241 0.225057
vt 0.488015 0.215948
vt 0.729241 0.849849
vt 0.734553 0.849332
vt 0.734553 0.942447
vt 0.729469 0.944071
vt 0.642755 0.082805
vt 0.639363 0.082522
vt 0.639608 0.054395
vt 0.642755 0.053659
vt 0.902337 0.185831
vt 0.902337 0.302280
vt 0.897101 0.301251
vt 0.897611 0.184892
vt 0.408411 0.857918
vt 0.413719 0.857360
vt 0.413719 0.948871
vt 0.408839 0.951032
vt 0.901143 0.925188
vt 0.901143 0.974226
vt 0.897781 0.973444
vt 0.898218 0.924508
vt 0.571281 0.084555
vt 0.569239 0.079625
vt 0.571281 0.074695
vt 0.362848 0.473604
vt 0.360806 0.468674
vt 0.362848 0.463744
vt 0.128515 0.646107
vt 0.126473 0.641177
vt 0.128515 0.636247
vt 0.362848 0.519348
vt 0.360806 0.514417
vt 0.362848 0.509487
vt 0.563851 0.083028
vt 0.560400 0.083028
vt 0.560400 0.074695
vt 0.563851 0.074695
vt 0.957095 0.494999
vt 0.953644 0.495065
vt 0.953656 0.437178
vt 0.957095 0.436992
vt 0.927495 0.325769
vt 0.932827 0.325547
vt 0.932827 0.431383
vt 0.927495 0.431605
vt 0.876372 0.813515
vt 0.881690 0.813062
vt 0.881690 0.918897
vt 0.876372 0.919351
vt 0.912986 0.631637
vt 0.912986 0.737475
vt 0.907671 0.736997
vt 0.907671 0.631160
vt 0.929134 0.615301
vt 0.929134 0.509466
vt 0.934468 0.509630
vt 0.934468 0.615464
vt 0.967188 0.049720
vt 0.970563 0.049282
vt 0.970563 0.105475
vt 0.967115 0.105619
vt 0.907725 0.300971
vt 0.907725 0.184892
vt 0.913061 0.184929
vt 0.913061 0.301008
vt 0.901265 0.165363
vt 0.895933 0.165588
vt 0.895933 0.049506
vt 0.901265 0.049282
vt 0.008018 0.874495
vt 0.002694 0.874851
vt 0.002694 0.758770
vt 0.008018 0.758414
vt 0.886253 0.509744
vt 0.891582 0.509466
vt 0.891582 0.625547
vt 0.886252 0.625825
vt 0.013417 0.636635
vt 0.018753 0.636594
vt 0.018753 0.824788
vt 0.013417 0.824828
vt 0.362848 0.458357
vt 0.360806 0.453426
vt 0.362848 0.448496
vt 0.630171 0.222243
vt 0.628129 0.217313
vt 0.630171 0.212383
vt 0.652459 0.222243
vt 0.650417 0.217313
vt 0.652459 0.212383
vt 0.513667 0.424991
vt 0.517440 0.421218
vt 0.517440 0.434101
vt 0.475284 0.211143
vt 0.469392 0.213583
vt 0.466951 0.207691
vt 0.475284 0.207691
vt 0.324985 0.951902
vt 0.324985 0.996150
vt 0.321534 0.996061
vt 0.321534 0.951812
vt 0.519131 0.852893
vt 0.524466 0.852787
vt 0.524466 0.946949
vt 0.519131 0.947055
vt 0.481582 0.946950
vt 0.476249 0.947148
vt 0.476249 0.852985
vt 0.481582 0.852787
vt 0.863198 0.857221
vt 0.863198 0.951382
vt 0.857862 0.951317
vt 0.857862 0.857155
vt 0.465530 0.853002
vt 0.470862 0.852787
vt 0.470862 0.946950
vt 0.465530 0.947165
vt 0.941972 0.747962
vt 0.947305 0.747757
vt 0.947305 0.853155
vt 0.941972 0.853360
vt 0.923746 0.628476
vt 0.923746 0.741853
vt 0.918411 0.741729
vt 0.918411 0.628353
vt 0.836416 0.951288
vt 0.836416 0.857155
vt 0.841751 0.857273
vt 0.841751 0.951406
vt 0.198856 0.950056
vt 0.198856 0.855924
vt 0.204191 0.856057
vt 0.204191 0.950190
vt 0.944098 0.154928
vt 0.938764 0.155106
vt 0.938764 0.049460
vt 0.944098 0.049282
vt 0.381774 0.951491
vt 0.376438 0.951502
vt 0.376438 0.857371
vt 0.381774 0.857360
vt 0.508410 0.946921
vt 0.508410 0.852787
vt 0.513743 0.852965
vt 0.513743 0.947099
vt 0.954018 0.620864
vt 0.954018 0.708109
vt 0.950567 0.708096
vt 0.950567 0.620852
vt 0.961532 0.747871
vt 0.964974 0.747757
vt 0.964974 0.804367
vt 0.961522 0.804359
vt 0.128515 0.630860
vt 0.126473 0.625930
vt 0.128515 0.620999
vt 0.615312 0.222243
vt 0.613270 0.217313
vt 0.615312 0.212383
vt 0.471746 0.441410
vt 0.465854 0.438969
vt 0.468295 0.433077
vt 0.471746 0.433077
vt 0.507774 0.087578
vt 0.504001 0.083805
vt 0.507774 0.074695
vt 0.362848 0.504100
vt 0.360806 0.499170
vt 0.362848 0.494239
vt 0.018742 0.935861
vt 0.013417 0.936209
vt 0.013417 0.830564
vt 0.018742 0.830216
vt 0.938214 0.431195
vt 0.938214 0.325547
vt 0.943547 0.325726
vt 0.943547 0.431374
vt 0.056281 0.889823
vt 0.056281 0.947830
vt 0.052848 0.947562
vt 0.052832 0.889675
vt 0.945180 0.726498
vt 0.939844 0.726618
vt 0.939844 0.620972
vt 0.945180 0.620852
vt 0.929171 0.290538
vt 0.929171 0.184892
vt 0.934495 0.185264
vt 0.934495 0.290910
vt 0.056284 0.953244
vt 0.056284 0.997306
vt 0.052832 0.997280
vt 0.052832 0.953217
vt 0.987994 0.747868
vt 0.991444 0.747757
vt 0.991444 0.792311
vt 0.987994 0.792423
vt 0.980370 0.376586
vt 0.980370 0.421141
vt 0.976962 0.420592
vt 0.976962 0.376037
vt 0.006143 0.945588
vt 0.006143 0.990142
vt 0.002694 0.990030
vt 0.002694 0.945476
vt 0.680690 0.481786
vt 0.680748 0.454176
vt 0.683975 0.454006
vt 0.683975 0.482677
vt 0.989249 0.229446
vt 0.985811 0.229755
vt 0.985811 0.185200
vt 0.989249 0.184892
vt 0.977079 0.684080
vt 0.980499 0.683613
vt 0.980499 0.728168
vt 0.977079 0.728635
vt 0.989246 0.248436
vt 0.989246 0.292990
vt 0.985808 0.292682
vt 0.985808 0.248127
vt 0.982614 0.859214
vt 0.982614 0.903768
vt 0.979194 0.903301
vt 0.979194 0.858747
vt 0.948256 0.496167
vt 0.944808 0.496322
vt 0.944808 0.437147
vt 0.948256 0.436992
vt 0.587664 0.996339
vt 0.584220 0.996567
vt 0.584220 0.952504
vt 0.587664 0.952276
vt 0.356247 0.846695
vt 0.356247 0.952092
vt 0.350910 0.952049
vt 0.350910 0.846652
vt 0.729241 0.843589
vt 0.729241 0.727507
vt 0.734566 0.727863
vt 0.734566 0.843945
vt 0.886384 0.300972
vt 0.886384 0.184892
vt 0.891714 0.185170
vt 0.891714 0.301251
vt 0.993614 0.049424
vt 0.997063 0.049282
vt 0.997063 0.093344
vt 0.993614 0.093486
vt 0.468977 0.996614
vt 0.465530 0.996794
vt 0.465530 0.952732
vt 0.468977 0.952552
vt 0.897781 0.918899
vt 0.897781 0.813062
vt 0.903113 0.813284
vt 0.903113 0.919121
vt 0.184672 0.509795
vt 0.183351 0.506606
vt 0.184672 0.503417
vt 0.656815 0.473405
vt 0.659256 0.470964
vt 0.659256 0.479297
vt 0.618198 0.228651
vt 0.618198 0.233580
vt 0.613270 0.233580
vt 0.615734 0.227630
vt 0.190640 0.333821
vt 0.189319 0.330632
vt 0.190640 0.327443
vt 0.190640 0.345586
vt 0.189319 0.342397
vt 0.190640 0.339208
vt 0.172636 0.945485
vt 0.169204 0.945859
vt 0.169204 0.886685
vt 0.172636 0.886310
vt 0.038610 0.889830
vt 0.038610 0.949005
vt 0.035162 0.948849
vt 0.035162 0.889675
vt 0.043997 0.948849
vt 0.043997 0.889675
vt 0.047445 0.889830
vt 0.047445 0.949004
vt 0.181454 0.945485
vt 0.178023 0.945859
vt 0.178023 0.886685
vt 0.181454 0.886310
vt 0.488880 0.239537
vt 0.372705 0.239665
vt 0.372882 0.234331
vt 0.488880 0.234862
vt 0.163817 0.886685
vt 0.163817 0.945860
vt 0.160386 0.945485
vt 0.160386 0.886310
vt 0.359898 0.639843
vt 0.358662 0.636857
vt 0.359898 0.633872
vt 0.696985 0.214668
vt 0.699270 0.212383
vt 0.699270 0.220184
vt 0.483104 0.434313
vt 0.483104 0.440284
vt 0.477133 0.440284
vt 0.480119 0.433077
vt 0.359898 0.617127
vt 0.358662 0.614141
vt 0.359898 0.611156
vt 0.128515 0.705260
vt 0.127278 0.702275
vt 0.128515 0.699289
vt 0.962856 0.683683
vt 0.962856 0.740988
vt 0.959418 0.740798
vt 0.959405 0.683613
vt 0.569458 0.204524
vt 0.572871 0.204065
vt 0.572871 0.234600
vt 0.569640 0.234614
vt 0.277042 0.939679
vt 0.273656 0.940350
vt 0.273656 0.870103
vt 0.277042 0.869431
vt 0.660338 0.081343
vt 0.657210 0.082153
vt 0.656921 0.054081
vt 0.660338 0.053659
vt 0.665725 0.081730
vt 0.666014 0.053659
vt 0.669143 0.054468
vt 0.669143 0.082153
vt 0.604850 0.925361
vt 0.604850 0.966722
vt 0.601894 0.966196
vt 0.602224 0.924894
vt 0.365861 0.951706
vt 0.366315 0.857360
vt 0.371051 0.857486
vt 0.371051 0.952948
vt 0.748780 0.953266
vt 0.748866 0.895380
vt 0.752221 0.895953
vt 0.752221 0.953548
vt 0.896969 0.625548
vt 0.896969 0.509466
vt 0.902301 0.509691
vt 0.902301 0.625772
vt 0.962796 0.305433
vt 0.959348 0.305586
vt 0.959364 0.248401
vt 0.962796 0.248127
vt 0.596496 0.952382
vt 0.596496 0.996444
vt 0.593052 0.996216
vt 0.593052 0.952154
vt 0.952692 0.748004
vt 0.956135 0.747757
vt 0.956135 0.805352
vt 0.952774 0.805891
vt 0.601875 0.878161
vt 0.604850 0.877750
vt 0.604850 0.919141
vt 0.602208 0.919506
vt 0.605190 0.093096
vt 0.604169 0.090632
vt 0.605190 0.088168
vt 0.614019 0.093209
vt 0.612999 0.090745
vt 0.614019 0.088281
vt 0.561420 0.093344
vt 0.560400 0.090879
vt 0.561420 0.088415
vt 0.183351 0.493477
vt 0.185237 0.491591
vt 0.185237 0.498030
vt 0.534070 0.428325
vt 0.531988 0.423299
vt 0.537014 0.421218
vt 0.537014 0.428325
vt 0.003355 0.752934
vt 0.002694 0.636720
vt 0.008029 0.636638
vt 0.008029 0.753027
vt 0.169679 0.951773
vt 0.172636 0.951247
vt 0.172636 0.992594
vt 0.170010 0.993062
vt 0.970361 0.808987
vt 0.973792 0.808607
vt 0.973792 0.852856
vt 0.970361 0.853235
vt 0.137342 0.995596
vt 0.133892 0.995686
vt 0.133892 0.951438
vt 0.137342 0.951348
vt 0.989336 0.683725
vt 0.989336 0.728280
vt 0.985886 0.728168
vt 0.985886 0.683613
vt 0.079273 0.977224
vt 0.075865 0.977772
vt 0.075865 0.933218
vt 0.079273 0.932669
vt 0.238435 0.990027
vt 0.238435 0.945473
vt 0.241885 0.945585
vt 0.241885 0.990139
vt 0.976990 0.560505
vt 0.980398 0.559956
vt 0.980398 0.604511
vt 0.976990 0.605059
vt 0.989195 0.376346
vt 0.989195 0.420901
vt 0.985757 0.420592
vt 0.985757 0.376037
vt 0.939421 0.437476
vt 0.939421 0.496843
vt 0.936003 0.496360
vt 0.936003 0.436992
vt 0.985757 0.325856
vt 0.989195 0.325547
vt 0.989195 0.370102
vt 0.985757 0.370410
vt 0.980490 0.665406
vt 0.977070 0.665873
vt 0.977070 0.621318
vt 0.980490 0.620852
vt 0.991432 0.859127
vt 0.991432 0.903375
vt 0.988001 0.902995
vt 0.988001 0.858747
vt 0.570044 0.947997
vt 0.566594 0.948094
vt 0.566594 0.877847
vt 0.570044 0.877750
vt 0.295026 0.946396
vt 0.289691 0.946547
vt 0.290208 0.852122
vt 0.295026 0.852047
vt 0.099579 0.992875
vt 0.099579 0.948627
vt 0.103025 0.948832
vt 0.103025 0.993081
vt 0.991437 0.909094
vt 0.991437 0.953342
vt 0.988001 0.953010
vt 0.988001 0.908762
vt 0.190640 0.310291
vt 0.189319 0.307102
vt 0.190640 0.303913
vt 0.184672 0.521560
vt 0.183351 0.518371
vt 0.184672 0.515182
vt 0.359983 0.571287
vt 0.358662 0.568098
vt 0.359983 0.564909
vt 0.359983 0.583052
vt 0.358662 0.579863
vt 0.359983 0.576674
vt 0.387162 0.951491
vt 0.387162 0.857360
vt 0.392498 0.857371
vt 0.392498 0.951502
vt 0.103007 0.883871
vt 0.103007 0.943240
vt 0.099579 0.942840
vt 0.099579 0.883471
vt 0.133902 0.886593
vt 0.137342 0.886310
vt 0.137342 0.945677
vt 0.133902 0.945961
vt 0.921862 0.444711
vt 0.921862 0.504079
vt 0.918411 0.503996
vt 0.918411 0.444629
vt 0.002694 0.880722
vt 0.006111 0.880238
vt 0.006111 0.939605
vt 0.002694 0.940089
vt 0.359898 0.628485
vt 0.358662 0.625499
vt 0.359898 0.622514
vt 0.128515 0.693902
vt 0.127278 0.690917
vt 0.128515 0.687931
vt 0.645539 0.233601
vt 0.644302 0.230616
vt 0.645539 0.227630
vt 0.665880 0.474573
vt 0.664643 0.471588
vt 0.665880 0.468602
vt 0.531988 0.439683
vt 0.531988 0.433712
vt 0.537959 0.433712
vt 0.537959 0.439683
vt 0.590380 0.204116
vt 0.590380 0.234259
vt 0.587324 0.233209
vt 0.586977 0.204065
vt 0.651533 0.053659
vt 0.651533 0.082805
vt 0.648387 0.082069
vt 0.648142 0.053941
vt 0.596012 0.204801
vt 0.599159 0.204065
vt 0.599159 0.234156
vt 0.595767 0.233870
vt 0.555271 0.204409
vt 0.555271 0.234944
vt 0.552125 0.234206
vt 0.551845 0.204065
vt 0.718776 0.226997
vt 0.715545 0.227037
vt 0.715367 0.199353
vt 0.718776 0.198868
vt 0.622135 0.054724
vt 0.625186 0.053659
vt 0.625186 0.082729
vt 0.621783 0.082794
vt 0.709197 0.860319
vt 0.709197 0.950887
vt 0.705786 0.950364
vt 0.706287 0.859873
vt 0.970361 0.748054
vt 0.973800 0.747757
vt 0.973800 0.802642
vt 0.970444 0.803220
vt 0.961727 0.049347
vt 0.961727 0.107354
vt 0.958289 0.107168
vt 0.958276 0.049282
vt 0.934457 0.726498
vt 0.929134 0.726870
vt 0.929134 0.621224
vt 0.934457 0.620852
vt 0.962790 0.242197
vt 0.959430 0.242740
vt 0.959348 0.185144
vt 0.962790 0.184892
vt 0.061684 0.889943
vt 0.065117 0.889675
vt 0.065117 0.947682
vt 0.061668 0.947830
vt 0.959324 0.567063
vt 0.959406 0.509466
vt 0.962766 0.510009
vt 0.962766 0.567315
vt 0.959298 0.383143
vt 0.959383 0.325547
vt 0.962738 0.326125
vt 0.962738 0.383430
vt 0.658047 0.092980
vt 0.656921 0.090260
vt 0.658047 0.087540
vt 0.675656 0.093187
vt 0.674530 0.090467
vt 0.675656 0.087747
vt 0.664561 0.092980
vt 0.663434 0.090260
vt 0.664561 0.087540
vt 0.623585 0.229712
vt 0.625667 0.227630
vt 0.625667 0.234738
vt 0.633976 0.053725
vt 0.633976 0.082794
vt 0.630925 0.081730
vt 0.630573 0.053659
vt 0.673936 0.950515
vt 0.671026 0.950961
vt 0.670524 0.860396
vt 0.673936 0.859873
vt 0.700399 0.950439
vt 0.697488 0.950885
vt 0.696987 0.860395
vt 0.700399 0.859873
vt 0.682768 0.860063
vt 0.682768 0.950558
vt 0.679323 0.950335
vt 0.679830 0.859873
vt 0.458690 0.899766
vt 0.455753 0.899956
vt 0.455246 0.809315
vt 0.458691 0.809092
vt 0.964928 0.921317
vt 0.964928 0.970422
vt 0.961518 0.969882
vt 0.961962 0.920847
vt 0.691599 0.950363
vt 0.688661 0.950552
vt 0.688155 0.860094
vt 0.691599 0.859873
vt 0.800152 0.845387
vt 0.805485 0.845211
vt 0.805485 0.950609
vt 0.800152 0.950784
vt 0.091130 0.933218
vt 0.091130 0.977772
vt 0.087722 0.977224
vt 0.087722 0.932669
vt 0.913346 0.990881
vt 0.909896 0.990992
vt 0.909896 0.946438
vt 0.913346 0.946326
vt 0.980421 0.292682
vt 0.977013 0.293230
vt 0.977013 0.248675
vt 0.980421 0.248127
vt 0.989223 0.604511
vt 0.985785 0.604820
vt 0.985785 0.560265
vt 0.989223 0.559956
vt 0.983573 0.437459
vt 0.983573 0.482013
vt 0.980153 0.481547
vt 0.980153 0.436992
vt 0.989315 0.665406
vt 0.985877 0.665715
vt 0.985877 0.621160
vt 0.989315 0.620852
vt 0.016837 0.942063
vt 0.016837 0.986618
vt 0.013417 0.986151
vt 0.013417 0.941597
vt 0.974766 0.437149
vt 0.974766 0.492315
vt 0.971389 0.491877
vt 0.971318 0.436992
vt 0.971567 0.387480
vt 0.971567 0.431567
vt 0.968125 0.431313
vt 0.968125 0.387225
vt 0.714584 0.953109
vt 0.718036 0.953071
vt 0.718036 0.997159
vt 0.714584 0.997196
vt 0.639435 0.457568
vt 0.642651 0.457244
vt 0.642651 0.483805
vt 0.639208 0.483707
vt 0.293137 0.952140
vt 0.293137 0.996227
vt 0.289691 0.996021
vt 0.289691 0.951934
vt 0.488854 0.996623
vt 0.488854 0.952535
vt 0.492302 0.952688
vt 0.492302 0.996776
vt 0.468993 0.218970
vt 0.478854 0.218970
vt 0.478854 0.228831
vt 0.466951 0.223901
vt 0.691598 0.220716
vt 0.689157 0.218275
vt 0.691598 0.212383
vt 0.190640 0.298526
vt 0.189319 0.295337
vt 0.190640 0.292148
vt 0.190640 0.369116
vt 0.189319 0.365927
vt 0.190640 0.362738
vt 0.190640 0.286761
vt 0.189319 0.283572
vt 0.190640 0.280383
vt 0.587665 0.878194
vt 0.587664 0.946889
vt 0.584242 0.946444
vt 0.584242 0.877750
vt 0.610494 0.879200
vt 0.613931 0.878876
vt 0.613931 0.947570
vt 0.610494 0.947893
vt 0.636910 0.878962
vt 0.640360 0.878876
vt 0.640360 0.947570
vt 0.636910 0.947656
vt 0.268269 0.869975
vt 0.268269 0.940221
vt 0.264860 0.939678
vt 0.264860 0.869431
vt 0.188134 0.856057
vt 0.193469 0.855924
vt 0.193469 0.950055
vt 0.188134 0.950189
vt 0.628114 0.879420
vt 0.631523 0.878876
vt 0.631523 0.947569
vt 0.628114 0.948113
vt 0.769777 0.847400
vt 0.769777 0.945733
vt 0.764961 0.945564
vt 0.764446 0.847154
vt 0.665880 0.463215
vt 0.664643 0.460230
vt 0.665880 0.457244
vt 0.128515 0.682544
vt 0.127278 0.679559
vt 0.128515 0.676573
vt 0.638915 0.233601
vt 0.637678 0.230616
vt 0.638915 0.227630
vt 0.128515 0.671186
vt 0.127278 0.668200
vt 0.128515 0.665215
vt 0.531483 0.074695
vt 0.537860 0.074695
vt 0.537860 0.081073
vt 0.531483 0.081073
vt 0.220301 0.856042
vt 0.225636 0.855924
vt 0.225636 0.950056
vt 0.220301 0.950174
vt 0.458130 0.200636
vt 0.461564 0.200381
vt 0.461564 0.228831
vt 0.458338 0.228647
vt 0.546458 0.234600
vt 0.543031 0.234944
vt 0.543311 0.204802
vt 0.546458 0.204065
vt 0.888525 0.925239
vt 0.888525 0.974177
vt 0.885121 0.973601
vt 0.885564 0.924738
vt 0.525394 0.234842
vt 0.525603 0.204257
vt 0.528829 0.204065
vt 0.528829 0.235088
vt 0.952889 0.049852
vt 0.952889 0.137095
vt 0.949485 0.136524
vt 0.949485 0.049282
vt 0.330372 0.952066
vt 0.333814 0.951812
vt 0.333814 0.995899
vt 0.330372 0.996154
vt 0.534216 0.204395
vt 0.537644 0.204065
vt 0.537644 0.235088
vt 0.534415 0.234975
vt 0.577874 0.083579
vt 0.578007 0.054056
vt 0.581213 0.053659
vt 0.581213 0.084245
vt 0.578855 0.946443
vt 0.575432 0.946888
vt 0.575432 0.878194
vt 0.578855 0.877750
vt 0.970356 0.919767
vt 0.973807 0.919697
vt 0.973807 0.974582
vt 0.970363 0.974536
vt 0.968183 0.303690
vt 0.968202 0.248127
vt 0.971626 0.248498
vt 0.971626 0.303944
vt 0.596488 0.878073
vt 0.596488 0.946766
vt 0.593052 0.946443
vt 0.593052 0.877750
vt 0.958276 0.113028
vt 0.961716 0.112741
vt 0.961716 0.170046
vt 0.958362 0.170624
vt 0.190640 0.357351
vt 0.189319 0.354162
vt 0.190640 0.350973
vt 0.126074 0.653935
vt 0.128515 0.651495
vt 0.128515 0.659828
vt 0.051291 0.259161
vt 0.041430 0.259161
vt 0.041430 0.249300
vt 0.051291 0.249300
vt 0.190640 0.263231
vt 0.189319 0.260042
vt 0.190640 0.256853
vt 0.665674 0.214823
vt 0.668114 0.212383
vt 0.668114 0.220716
vt 0.264919 0.989770
vt 0.264919 0.945608
vt 0.268269 0.946441
vt 0.268269 0.990603
vt 0.992389 0.481154
vt 0.988960 0.481553
vt 0.988960 0.437391
vt 0.992389 0.436992
vt 0.397885 0.858798
vt 0.403024 0.857360
vt 0.403024 0.953009
vt 0.398271 0.953222
vt 0.108395 0.883871
vt 0.111823 0.883471
vt 0.111823 0.942839
vt 0.108395 0.943239
vt 0.982614 0.953317
vt 0.979274 0.954188
vt 0.979274 0.910026
vt 0.982614 0.909155
vt 0.142730 0.951454
vt 0.146168 0.951147
vt 0.146168 0.995308
vt 0.142729 0.995615
vt 0.501140 0.996616
vt 0.497689 0.996719
vt 0.497689 0.952588
vt 0.501140 0.952485
vt 0.991444 0.798277
vt 0.991444 0.842831
vt 0.987994 0.842719
vt 0.987994 0.798165
vt 0.977016 0.185440
vt 0.980424 0.184892
vt 0.980424 0.229446
vt 0.977016 0.229995
vt 0.256065 0.945721
vt 0.259515 0.945610
vt 0.259515 0.990164
vt 0.256065 0.990276
vt 0.980398 0.510015
vt 0.980398 0.554569
vt 0.976990 0.554021
vt 0.976990 0.509466
vt 0.988227 0.049590
vt 0.988227 0.094145
vt 0.984789 0.093836
vt 0.984789 0.049282
vt 0.982607 0.798632
vt 0.982607 0.843186
vt 0.979187 0.842719
vt 0.979187 0.798165
vt 0.902284 0.736996
vt 0.896969 0.737474
vt 0.896969 0.631637
vt 0.902284 0.631160
vt 0.988200 0.157296
vt 0.984780 0.157762
vt 0.984780 0.113208
vt 0.988200 0.112741
vt 0.511860 0.952589
vt 0.511860 0.996720
vt 0.508410 0.996617
vt 0.508410 0.952486
vt 0.120650 0.883754
vt 0.120650 0.943122
vt 0.117210 0.942839
vt 0.117210 0.883471
vt 0.181463 0.951528
vt 0.181463 0.995659
vt 0.178023 0.995377
vt 0.178023 0.951247
vt 0.522580 0.952568
vt 0.522580 0.996699
vt 0.519131 0.996573
vt 0.519131 0.952442
vt 0.778604 0.995307
vt 0.775164 0.995588
vt 0.775164 0.951457
vt 0.778604 0.951176
vt 0.492302 0.852985
vt 0.492302 0.947148
vt 0.486969 0.946950
vt 0.486969 0.852787
vt 0.160396 0.995378
vt 0.160396 0.951247
vt 0.163837 0.951519
vt 0.163837 0.995650
vt 0.190640 0.322056
vt 0.189319 0.318867
vt 0.190640 0.315678
vt 0.656815 0.459685
vt 0.659256 0.457244
vt 0.659256 0.465577
vt 0.551824 0.076016
vt 0.555013 0.074695
vt 0.555013 0.083715
vt 0.546437 0.083715
vt 0.543248 0.082394
vt 0.546437 0.074695
vt 0.660287 0.220716
vt 0.657846 0.218275
vt 0.660287 0.212383
vt 0.482044 0.204589
vt 0.488014 0.204589
vt 0.488014 0.210560
vt 0.480807 0.207575
vt 0.561207 0.877847
vt 0.561207 0.948094
vt 0.557757 0.947997
vt 0.557756 0.877750
vt 0.259473 0.939679
vt 0.256065 0.940222
vt 0.256065 0.869975
vt 0.259473 0.869431
vt 0.250677 0.939679
vt 0.247250 0.940085
vt 0.247250 0.869838
vt 0.250677 0.869431
vt 0.913282 0.870692
vt 0.913282 0.940939
vt 0.909896 0.940268
vt 0.909896 0.870020
vt 0.359898 0.605768
vt 0.358662 0.602783
vt 0.359898 0.599797
vt 0.704657 0.214668
vt 0.706942 0.212383
vt 0.706942 0.220184
vt 0.036043 0.249300
vt 0.036043 0.259161
vt 0.026183 0.259161
vt 0.024140 0.254230
vt 0.359898 0.594410
vt 0.358662 0.591425
vt 0.359898 0.588439
vt 0.632291 0.233601
vt 0.631054 0.230616
vt 0.632291 0.227630
vt 0.154999 0.886685
vt 0.154999 0.945860
vt 0.151567 0.945486
vt 0.151567 0.886310
vt 0.702224 0.455966
vt 0.702224 0.543211
vt 0.698817 0.542659
vt 0.698817 0.455414
vt 0.560658 0.234155
vt 0.560840 0.204065
vt 0.564071 0.204078
vt 0.564071 0.234614
vt 0.117210 0.992671
vt 0.117210 0.948509
vt 0.120639 0.948909
vt 0.120639 0.993070
vt 0.962695 0.429710
vt 0.959298 0.430318
vt 0.959298 0.389425
vt 0.962695 0.388817
vt 0.711018 0.542657
vt 0.707611 0.543209
vt 0.707611 0.455966
vt 0.711018 0.455414
vt 0.997034 0.112921
vt 0.997034 0.156983
vt 0.993587 0.156804
vt 0.993587 0.112741
vt 0.939855 0.615111
vt 0.939855 0.509466
vt 0.945190 0.509586
vt 0.945190 0.615231
vt 0.971629 0.184892
vt 0.971629 0.240791
vt 0.968188 0.240673
vt 0.968177 0.184896
vt 0.764446 0.995282
vt 0.764446 0.951120
vt 0.767884 0.951427
vt 0.767884 0.995588
vt 0.190640 0.274996
vt 0.189319 0.271807
vt 0.190640 0.268618
vt 0.681329 0.214823
vt 0.683770 0.212383
vt 0.683770 0.220716
vt 0.531483 0.086460
vt 0.537454 0.086460
vt 0.537454 0.092431
vt 0.531483 0.092431
vt 0.359983 0.559522
vt 0.358662 0.556333
vt 0.359983 0.553144
vt 0.673502 0.214823
vt 0.675942 0.212383
vt 0.675942 0.220716
vt 0.201323 0.257573
vt 0.201323 0.373963
vt 0.196027 0.373301
vt 0.196620 0.256853
vt 0.923989 0.953857
vt 0.920537 0.953870
vt 0.920537 0.866626
vt 0.923989 0.866613
vt 0.953936 0.510260
vt 0.953936 0.597502
vt 0.950577 0.596708
vt 0.950577 0.509466
vt 0.714585 0.860443
vt 0.717989 0.859873
vt 0.717989 0.947114
vt 0.714584 0.947684
vt 0.952688 0.922842
vt 0.956092 0.922269
vt 0.956092 0.971371
vt 0.953131 0.971870
vt 0.956090 0.811885
vt 0.956090 0.852779
vt 0.952692 0.852171
vt 0.952692 0.811278
vt 0.578258 0.204766
vt 0.581590 0.204065
vt 0.581590 0.234645
vt 0.578379 0.234281
vt 0.697789 0.093105
vt 0.694350 0.093398
vt 0.694350 0.052505
vt 0.697789 0.052212
vt 0.962729 0.613595
vt 0.959324 0.614162
vt 0.959324 0.573269
vt 0.962729 0.572702
vt 0.887077 0.918897
vt 0.887077 0.813062
vt 0.892394 0.813515
vt 0.892394 0.919351
vt 0.706622 0.052405
vt 0.706622 0.093299
vt 0.703176 0.093105
vt 0.703176 0.052212
vt 0.677861 0.082360
vt 0.674649 0.082009
vt 0.674530 0.054355
vt 0.677861 0.053659
vt 0.444529 0.928654
vt 0.447938 0.928112
vt 0.447938 0.977043
vt 0.444972 0.977514
vt 0.876372 0.925520
vt 0.879734 0.924738
vt 0.879734 0.973769
vt 0.876809 0.974449
vt 0.913024 0.625548
vt 0.907688 0.625586
vt 0.907688 0.509504
vt 0.913024 0.509466
vt 0.976399 0.098144
vt 0.975951 0.049282
vt 0.979402 0.049290
vt 0.979402 0.098152
vt 0.633821 0.484898
vt 0.630593 0.484747
vt 0.630542 0.458154
vt 0.633821 0.457244
vt 0.622727 0.879420
vt 0.622727 0.948113
vt 0.619318 0.947570
vt 0.619318 0.878876
vt 0.611788 0.475645
vt 0.611906 0.447189
vt 0.615118 0.446836
vt 0.615118 0.476358
vt 0.578406 0.952641
vt 0.578406 0.993945
vt 0.575432 0.993533
vt 0.575764 0.952275
vt 0.622741 0.222243
vt 0.620699 0.217313
vt 0.622741 0.212383
vt 0.494840 0.078468
vt 0.498613 0.074695
vt 0.498613 0.087578
vt 0.460467 0.433077
vt 0.460467 0.438413
vt 0.447583 0.433077
vt 0.489453 0.088640
vt 0.484523 0.086598
vt 0.489453 0.074695
vt 0.526601 0.434101
vt 0.522827 0.430328
vt 0.526601 0.421218
vt 0.551581 0.089102
vt 0.551581 0.092553
vt 0.543248 0.092553
vt 0.543248 0.089102
vt 0.526095 0.087578
vt 0.522322 0.083805
vt 0.526095 0.074695
vt 0.519974 0.219800
vt 0.517932 0.214869
vt 0.519974 0.209939
vt 0.508279 0.434101
vt 0.504506 0.430328
vt 0.508279 0.421218
vt 0.923747 0.622842
vt 0.918411 0.622965
vt 0.918412 0.509590
vt 0.923747 0.509466
vt 0.917326 0.162658
vt 0.917326 0.049282
vt 0.922656 0.049540
vt 0.922656 0.162916
vt 0.552074 0.913801
vt 0.546744 0.914071
vt 0.546744 0.800695
vt 0.552074 0.800425
vt 0.918448 0.298267
vt 0.918448 0.184892
vt 0.923784 0.184987
vt 0.923784 0.298362
vt 0.964968 0.858850
vt 0.964968 0.915460
vt 0.961532 0.915235
vt 0.961518 0.858747
vt 0.002694 0.631152
vt 0.002694 0.442973
vt 0.008030 0.443072
vt 0.008030 0.631251
vt 0.350910 0.841223
vt 0.350910 0.653031
vt 0.356247 0.653072
vt 0.356247 0.841264
vt 0.065123 0.997280
vt 0.061671 0.997306
vt 0.061671 0.953244
vt 0.065123 0.953217
vt 0.008030 0.437487
vt 0.002694 0.437586
vt 0.002694 0.249399
vt 0.008030 0.249300
vt 0.340187 0.841223
vt 0.340187 0.653031
vt 0.345523 0.653072
vt 0.345523 0.841264
vt 0.128144 0.550053
vt 0.128144 0.361873
vt 0.133480 0.361972
vt 0.133480 0.550152
vt 0.013418 0.249399
vt 0.018753 0.249300
vt 0.018753 0.437487
vt 0.013417 0.437586
vt 0.018753 0.631166
vt 0.013417 0.631207
vt 0.013417 0.443014
vt 0.018753 0.442973
vt 0.340187 0.846695
vt 0.345523 0.846652
vt 0.345523 0.952049
vt 0.340187 0.952093
vt 0.321534 0.946210
vt 0.321534 0.852047
vt 0.326866 0.852262
vt 0.326866 0.946425
vt 0.636910 0.997130
vt 0.636910 0.953043
vt 0.640361 0.953080
vt 0.640361 0.997168
vt 0.826930 0.845325
vt 0.826930 0.950723
vt 0.821595 0.950609
vt 0.821595 0.845211
vt 0.503023 0.946920
vt 0.497689 0.947098
vt 0.497690 0.852965
vt 0.503023 0.852787
vt 0.970356 0.914237
vt 0.970363 0.858791
vt 0.973807 0.858747
vt 0.973807 0.914310
vt 0.794765 0.845387
vt 0.794765 0.950784
vt 0.789431 0.950609
vt 0.789431 0.845211
vt 0.939882 0.290291
vt 0.939882 0.184892
vt 0.945214 0.185097
vt 0.945214 0.290496
vt 0.743393 0.952976
vt 0.740038 0.953548
vt 0.739953 0.895662
vt 0.743393 0.895380
vt 0.598782 0.053659
vt 0.598782 0.083750
vt 0.595636 0.083014
vt 0.595391 0.053945
vt 0.108483 0.992788
vt 0.108483 0.948626
vt 0.111823 0.949497
vt 0.111823 0.993658
vt 0.651428 0.483838
vt 0.648200 0.483987
vt 0.648038 0.457848
vt 0.651428 0.457244
vt 0.909896 0.748693
vt 0.915150 0.747757
vt 0.915150 0.863789
vt 0.910406 0.864633
vt 0.499119 0.434101
vt 0.493782 0.434101
vt 0.493782 0.421218
vt 0.499119 0.421218
vn -0.0042 -0.0539 -0.9985
vn 0.0041 -0.0539 -0.9985
vn -0.0000 -0.0547 -0.9985
vn -0.0000 -0.0474 -0.9989
vn 0.0042 -0.0480 -0.9988
vn 0.0008 -0.0516 -0.9987
vn -0.0388 -0.1563 0.9869
vn -0.0252 -0.0219 0.9994
vn -0.0151 -0.0155 0.9998
vn 0.0420 0.0028 0.9991
vn -0.1594 0.0731 0.9845
vn -0.1841 0.0286 0.9825
vn -0.0420 0.0028 0.9991
vn 0.0388 -0.1563 0.9869
vn 0.0000 0.0692 0.9976
vn 0.0013 0.0349 0.9994
vn -0.0000 0.0280 0.9996
vn -0.0028 0.0344 0.9994
vn 0.0739 0.2656 -0.9612
vn -0.2123 -0.0189 -0.9770
vn -0.2185 -0.0021 -0.9758
vn -0.0837 0.0303 -0.9960
vn 0.2200 -0.0011 -0.9755
vn 0.2138 -0.0181 -0.9767
vn 0.0843 0.0313 -0.9959
vn -0.0722 0.2645 -0.9617
vn 0.8930 -0.3828 0.2368
vn 0.7639 -0.5834 -0.2759
vn 0.8885 -0.3697 0.2718
vn -0.8509 -0.4631 0.2479
vn -0.9508 0.1513 -0.2702
vn -0.8392 -0.4669 0.2788
vn 0.1914 -0.3750 0.9070
vn 0.8218 -0.4812 0.3052
vn 0.8462 -0.4654 0.2598
vn -0.5506 0.8342 -0.0300
vn 0.5231 -0.8498 0.0644
vn -0.0005 -0.1742 0.9847
vn -0.0004 -0.1737 0.9848
vn -0.0003 -0.1734 0.9849
vn -0.0011 -0.0515 -0.9987
vn -0.5265 0.8419 0.1184
vn 0.4988 0.8640 -0.0684
vn 0.6733 -0.7393 -0.0054
vn -0.6410 0.7676 -0.0024
vn 0.6053 0.7936 0.0617
vn 0.9954 0.0889 -0.0352
vn -0.9937 -0.0801 -0.0787
vn -0.9928 -0.1149 0.0341
vn -0.9923 0.0801 -0.0946
vn 0.5217 0.8531 -0.0085
vn -0.0000 -0.0028 -1.0000
vn 0.9886 -0.1118 0.1008
vn -0.9871 -0.1127 0.1135
vn -0.9925 -0.1125 -0.0478
vn 0.5252 -0.8460 -0.0917
vn -0.9861 -0.1070 0.1270
vn 0.0198 0.1283 0.9915
vn 0.1594 0.0731 0.9845
vn 0.1841 0.0286 0.9825
vn 0.0252 -0.0219 0.9994
vn 0.0151 -0.0155 0.9998
vn 0.9914 -0.0837 0.1006
vn -0.9849 0.1541 0.0791
vn 0.0033 0.0342 0.9994
vn -0.5254 -0.8459 -0.0917
vn -0.9993 0.0378 0.0036
vn -0.9914 -0.1133 -0.0656
vn -0.9929 0.1064 -0.0523
vn 0.9969 -0.0752 0.0250
vn -0.6716 -0.7403 -0.0298
vn 0.9775 -0.2110 0.0058
vn -0.9241 -0.3766 0.0653
vn -0.0198 0.1283 0.9915
vn -0.4955 -0.8641 0.0879
vn 0.6716 -0.7403 -0.0298
vn -0.9916 0.1225 -0.0408
vn 0.6340 0.7721 -0.0437
vn -0.9968 -0.0713 0.0353
vn -0.9968 -0.0716 0.0358
vn 0.0286 -0.1150 -0.9930
vn -0.0175 0.0703 -0.9974
vn -0.0077 0.0332 -0.9994
vn 0.0078 0.0342 -0.9994
vn 0.0177 0.0716 -0.9973
vn 0.0130 -0.0436 -0.9990
vn -0.9335 -0.3557 0.0459
vn 0.9152 -0.4014 -0.0345
vn 0.6100 -0.1234 0.7827
vn 0.8885 -0.3698 0.2718
vn 0.8845 -0.3438 0.3153
vn -0.1494 -0.3659 0.9186
vn -0.8392 -0.4669 0.2787
vn -0.8138 -0.4816 0.3253
vn 0.8565 -0.4615 0.2309
vn 0.8461 -0.4654 0.2598
vn 0.9542 0.1506 -0.2585
vn -0.0003 -0.0010 1.0000
vn 0.9973 -0.0715 -0.0194
vn 0.9923 0.1157 0.0444
vn 0.9910 -0.0740 0.1112
vn -0.6388 -0.7672 0.0576
vn -0.0132 0.0415 0.9991
vn 0.0724 0.0488 0.9962
vn 0.5483 0.8363 -0.0073
vn 0.8839 -0.3370 0.3242
vn -0.9914 -0.0464 0.1226
vn -0.0273 -0.1153 -0.9929
vn 0.9925 0.1125 0.0479
vn 0.9946 0.0827 0.0626
vn -0.5442 -0.8389 0.0103
vn 0.9965 0.0761 -0.0350
vn 0.6422 0.7665 -0.0012
vn 0.6386 0.7695 0.0021
vn 0.7133 -0.7009 0.0017
vn 0.5431 -0.8391 0.0298
vn -0.9780 0.2086 0.0000
vn -0.5256 0.8495 -0.0456
vn 0.5430 -0.8397 0.0097
vn -0.0635 0.0578 0.9963
vn -0.0029 0.0217 0.9998
vn 0.0028 0.0217 0.9998
vn -0.0001 0.0153 0.9999
vn -0.6103 0.7919 -0.0221
vn -0.6053 0.7936 0.0617
vn -0.9970 -0.0709 -0.0309
vn 0.0579 -0.0226 -0.9981
vn 0.0581 -0.0224 -0.9981
vn 0.9956 0.0889 0.0310
vn -0.9891 0.1237 -0.0794
vn -0.5162 -0.8565 0.0057
vn 0.6158 -0.7871 0.0357
vn 0.9997 -0.0229 -0.0044
vn 0.9925 0.0795 -0.0931
vn 0.9925 0.0796 -0.0927
vn 0.9941 -0.0981 0.0456
vn 0.9897 0.1091 -0.0930
vn -0.5508 0.8346 -0.0096
vn -0.0000 0.0000 -1.0000
vn 0.9824 -0.1578 -0.0999
vn 0.6484 0.7613 -0.0045
vn 0.6509 0.7591 0.0002
vn -0.6249 0.7804 -0.0205
vn -0.9978 0.0651 0.0159
vn 0.9335 -0.3557 0.0459
vn 0.0201 0.0565 0.9982
vn 0.9935 -0.0455 -0.1047
vn -0.9162 -0.3999 0.0248
vn -0.9940 0.0618 0.0903
vn -0.6887 -0.7244 -0.0313
vn -0.0000 0.1732 -0.9849
vn -0.9152 -0.4014 -0.0345
vn 0.5265 0.8419 0.1184
vn 0.9913 -0.1275 0.0327
vn 0.9958 0.0814 0.0425
vn 0.9957 0.0814 0.0448
vn 0.9958 0.0792 0.0449
vn 0.9941 -0.0714 -0.0818
vn 0.9955 0.0812 0.0493
vn 0.9953 0.0834 0.0492
vn 0.9954 0.0812 0.0515
vn -0.9956 0.0607 0.0716
vn -0.9954 -0.0823 -0.0492
vn 0.9930 0.1131 -0.0340
vn -0.9943 -0.0841 -0.0659
vn -0.9942 0.0745 -0.0770
vn -0.9964 0.0805 -0.0263
vn -0.7062 -0.7080 0.0079
vn 0.9919 0.0886 -0.0907
vn -0.0011 -0.0665 -0.9978
vn -0.0369 -0.0413 -0.9985
vn -0.9965 -0.0756 0.0352
vn 0.0000 0.0000 1.0000
vn 0.0000 1.0000 0.0000
vn 0.2322 -0.3194 0.9187
vn -0.9196 -0.0963 0.3809
vn -0.1296 0.9180 0.3748
vn -0.3820 0.0599 -0.9222
vn -0.5463 0.7481 0.3767
vn -0.1040 -0.9214 -0.3744
vn -0.4679 0.7995 0.3766
vn -0.9231 -0.3824 0.0403
vn -0.4592 0.8043 -0.3770
vn -0.5341 0.7564 0.3776
vn 0.5500 -0.7455 -0.3764
vn 0.2399 -0.3085 -0.9205
vn 0.1927 0.3372 0.9215
vn 0.9447 0.3057 0.1190
vn -0.5382 -0.8385 0.0850
vn -0.9153 -0.1358 0.3791
vn 0.9122 0.1585 -0.3778
vn 0.0982 -0.9949 0.0249
vn 0.0982 -0.9949 0.0239
vn -0.2694 0.2932 0.9173
vn 0.8470 -0.5314 -0.0134
vn -0.0497 -0.9266 0.3727
vn -0.5366 0.7547 -0.3775
vn -0.4359 0.8166 0.3782
vn 0.1451 -0.3573 -0.9226
vn 0.9124 -0.1574 0.3779
vn -0.1922 -0.3375 -0.9215
vn 0.9237 0.3826 0.0179
vn -0.9234 -0.3825 -0.0335
vn -0.9231 -0.3826 -0.0391
vn -0.9212 -0.3877 -0.0333
vn 0.3778 -0.1590 -0.9121
vn 0.9184 -0.1086 -0.3804
vn 0.3822 -0.9227 0.0506
vn -0.9694 -0.2352 0.0706
vn 0.5926 -0.7144 -0.3722
vn -0.1625 -0.3502 0.9225
vn -0.0457 0.3883 -0.9204
vn 0.9233 0.0366 0.3824
vn 0.9239 0.0362 0.3808
vn 0.9232 0.0384 0.3823
vn 0.2917 -0.9479 0.1277
vn 0.3811 -0.0903 0.9201
vn 0.3473 0.8624 -0.3682
vn 0.2046 -0.3320 -0.9208
vn 0.2002 -0.9785 0.0501
vn 0.9700 0.2346 -0.0632
vn -0.9432 -0.3052 -0.1313
vn -0.0281 0.3996 -0.9162
vn -0.5290 -0.7598 0.3780
vn 0.9234 -0.0328 0.3825
vn 0.3820 0.0597 0.9222
vn 0.9234 0.3825 -0.0329
vn 0.4203 0.8246 -0.3786
vn 0.9226 -0.0522 0.3822
vn 0.9233 -0.0386 -0.3822
vn 0.9252 -0.0440 -0.3770
vn 0.9230 -0.0445 -0.3823
vn -0.3815 -0.0787 0.9210
vn -0.3826 -0.9236 0.0232
vn 0.3811 -0.9202 -0.0896
vn -0.9878 -0.1456 0.0554
vn 0.0078 -0.3967 -0.9179
vn -0.2251 -0.3161 0.9217
vn 0.9148 0.1401 0.3789
vn -0.3824 -0.9232 0.0371
vn -0.2738 0.2909 0.9167
vn -0.7906 0.6116 0.0303
vn 0.5385 0.8392 -0.0754
vn 0.2909 -0.2818 -0.9143
vn -0.1592 -0.3480 -0.9239
vn 0.7895 -0.6135 -0.0174
vn 0.7895 -0.6135 -0.0177
vn -0.2006 0.9785 -0.0471
vn 0.2511 0.3448 -0.9045
vn 0.4611 0.8872 -0.0133
vn -0.8471 0.5313 0.0139
vn -0.1465 0.3581 -0.9221
vn -0.1459 0.3542 -0.9237
vn -0.1499 0.3529 -0.9236
vn -0.9051 0.4252 0.0000
vn -0.4648 -0.8013 -0.3767
vn 0.3813 0.9205 0.0851
vn 0.9231 -0.3824 -0.0418
vn -0.9234 -0.3825 -0.0308
vn -0.3811 0.9202 0.0896
vn 0.1629 0.3500 -0.9225
vn -0.9218 0.3818 0.0667
vn -0.3822 0.9226 0.0522
vn 0.3827 0.9239 0.0071
vn 0.9231 0.3823 -0.0422
vn 0.3826 -0.9237 -0.0185
vn -0.9183 -0.1100 -0.3804
vn 0.3824 0.9232 -0.0371
vn -0.9237 0.3826 0.0199
vn 0.9231 0.3824 -0.0403
vn -0.3827 0.9238 -0.0122
vn 0.3827 0.9238 -0.0081
vn 0.9228 -0.3822 0.0484
vn -0.3826 0.9236 0.0251
vn -0.9258 -0.3774 -0.0227
vn -0.9237 -0.3826 -0.0221
vn -0.9238 -0.3826 -0.0164
vn 0.3819 -0.9219 -0.0653
vn 0.3825 0.9234 0.0334
vn -0.9239 0.3827 0.0021
vn 0.5904 0.7160 -0.3724
vn -0.4294 -0.8200 -0.3783
vn 0.9235 0.3827 0.0279
vn 0.9212 0.3877 0.0334
vn 0.9234 0.3825 0.0335
vn -0.3819 0.9219 0.0653
vn -0.4562 -0.8060 0.3772
vn 0.3818 0.9216 0.0698
vn -0.9236 0.3826 0.0225
vn -0.9219 0.0660 0.3818
vn -0.3778 0.1590 -0.9121
vn -0.9233 -0.0344 -0.3826
vn -0.9234 -0.0328 -0.3825
vn -0.9227 -0.0328 -0.3842
vn 0.3778 0.1590 -0.9121
vn -0.0939 -0.3797 -0.9204
vn 0.9153 -0.1358 0.3791
vn 0.3811 0.0903 -0.9201
vn -0.9153 0.1358 -0.3791
vn -0.3811 -0.0903 0.9201
vn -0.9184 0.1086 -0.3804
vn -0.3827 0.0077 -0.9239
vn 0.9232 -0.3824 -0.0384
vn -0.3827 -0.9239 -0.0071
vn -0.9231 -0.3823 0.0422
vn -0.9226 0.0522 -0.3822
vn 0.3823 -0.0432 -0.9230
vn 0.3824 -0.0413 -0.9231
vn -0.3813 -0.9205 -0.0851
vn 0.9051 0.4252 0.0000
vn 0.3823 -0.0452 -0.9229
vn 0.3840 -0.0452 -0.9222
vn -0.9184 0.1086 0.3804
vn 0.9184 -0.1086 0.3804
vn -0.3823 0.0452 -0.9229
vn 0.8729 -0.4544 0.1776
vn 0.8728 -0.4543 0.1786
vn 0.3823 -0.0452 0.9229
vn -1.0000 0.0000 0.0000
vn 1.0000 0.0000 0.0000
vn 0.4679 0.7995 0.3766
vn -0.3195 -0.8723 0.3702
vn -0.3825 -0.0286 0.9235
vn -0.2489 0.8935 0.3736
vn 0.2489 0.8935 0.3736
vn -0.1382 0.3577 -0.9235
vn -0.1341 0.3592 -0.9236
vn -0.1378 0.3538 -0.9251
vn 0.9883 0.1448 -0.0470
vn -0.1824 -0.3417 0.9219
vn 0.3822 -0.9226 -0.0522
vn 0.4592 0.8043 -0.3770
vn 0.3827 -0.0077 0.9239
vn -0.2046 -0.3320 -0.9208
vn 0.4986 -0.7792 0.3799
vn -0.8712 0.4535 -0.1880
vn 0.1612 -0.3466 0.9240
vn 0.1545 -0.3444 0.9260
vn 0.1562 -0.3494 0.9239
vn -0.3826 -0.0261 0.9236
vn 0.9183 0.1100 0.3804
vn 0.3778 -0.1590 0.9121
vn 0.9227 0.0330 0.3842
vn 0.9234 0.0309 0.3826
vn 0.9234 0.0328 0.3825
vn -0.3778 -0.1590 -0.9121
vn -0.9234 -0.0328 0.3825
vn 0.9153 -0.1358 -0.3791
vn 0.3826 0.0242 -0.9236
vn -0.9153 -0.1358 -0.3791
vn -0.3811 0.0903 0.9201
vn 0.3826 0.0261 -0.9236
vn 0.9062 0.1946 0.3754
vn 0.6172 0.7856 -0.0441
vn 0.9196 0.0963 -0.3809
vn -0.3820 -0.0597 -0.9222
vn -0.3825 -0.9234 -0.0334
vn -0.3814 -0.0827 -0.9207
vn -0.9176 -0.1164 0.3801
vn -0.9148 -0.1401 -0.3789
vn -0.3826 -0.0242 0.9236
vn -0.0078 -0.3967 -0.9179
vn -0.2511 0.3448 -0.9045
vn 0.2284 -0.3505 0.9083
vn 0.2282 -0.8988 -0.3743
vn -0.3473 0.8624 -0.3682
vn -0.0073 0.3945 0.9189
vn 0.2125 0.3224 0.9225
vn 0.2175 0.3248 0.9204
vn 0.2096 0.3275 0.9213
vn -0.1454 0.3572 0.9226
vn 0.4648 -0.8013 -0.3767
vn 0.9236 -0.3826 -0.0225
vn -0.2052 0.3317 0.9208
vn 0.4562 -0.8060 0.3772
vn 0.2079 0.3266 0.9220
vn 0.2052 0.3317 0.9208
vn 0.2004 0.3288 0.9229
vn -0.1829 0.3415 -0.9219
vn 0.0073 0.3945 0.9189
vn -0.2247 -0.3163 -0.9217
vn 0.2129 0.3221 -0.9224
vn 0.5176 0.7672 0.3788
vn -0.5288 -0.7599 -0.3780
vn 0.3184 -0.2667 -0.9097
vn 0.5177 0.7671 -0.3788
vn -0.3826 0.9237 0.0214
vn 0.9234 0.0328 -0.3825
vn -0.3778 -0.1590 0.9121
vn -0.9234 0.0328 -0.3825
vn -0.9153 0.1358 0.3791
vn 0.3811 -0.0903 -0.9201
vn 0.9153 0.1358 -0.3791
vn -0.3811 0.0903 -0.9201
vn -0.2330 0.3190 -0.9187
vn -0.3827 -0.0109 0.9238
vn 0.9214 -0.0737 0.3816
vn 0.0546 0.9263 -0.3729
vn -0.9230 0.0445 0.3823
vn -0.9228 0.0504 0.3820
vn -0.9252 0.0431 0.3771
vn 0.3820 -0.0599 0.9222
vn 0.3810 -0.0945 0.9197
vn 0.9161 -0.1294 -0.3795
vn -0.9124 0.1574 -0.3779
vn -0.3800 -0.1192 -0.9173
vn 0.9237 0.3826 0.0221
vn 0.9235 0.3825 0.0278
vn 0.9258 0.3774 0.0223
vn 0.3826 -0.0252 -0.9236
vn -0.6170 -0.7852 0.0525
vn -0.6170 -0.7851 0.0538
vn 0.3826 -0.9236 -0.0251
vn -0.1188 0.9195 -0.3747
vn -0.2282 -0.8988 -0.3743
vn -0.5183 0.7667 -0.3787
vn 0.1090 -0.9208 0.3745
vn 0.5344 0.7562 0.3776
vn 0.3827 0.0109 -0.9238
vn 0.1189 -0.9195 -0.3747
vn 0.0297 -0.3910 0.9199
vn -0.3810 0.0945 -0.9197
vn -0.4704 0.7981 -0.3766
vn 0.4331 -0.8181 -0.3783
vn -0.9161 0.1294 0.3795
vn 0.1829 0.3415 -0.9219
vn 0.2694 -0.2932 -0.9173
vn 0.6008 -0.7079 0.3712
vn -0.0998 0.9949 -0.0122
vn -0.0998 0.9949 -0.0130
vn 0.3814 0.0827 0.9207
vn 0.2451 -0.3059 0.9200
vn -0.6093 0.7012 0.3702
vn 0.9208 0.0815 -0.3814
vn -0.3778 0.1590 0.9121
vn 0.9234 -0.0328 -0.3825
vn 0.9230 -0.0385 -0.3828
vn 0.9211 -0.0329 -0.3879
vn 0.3778 0.1590 0.9121
vn -0.9211 0.0333 0.3878
vn -0.9234 0.0328 0.3825
vn -0.9234 0.0269 0.3830
vn 0.9153 0.1358 0.3791
vn 0.3811 0.0903 0.9201
vn 0.9234 0.3825 0.0308
vn -0.3811 -0.0903 -0.9201
vn -0.9208 -0.0815 0.3814
vn 0.9176 0.1164 -0.3801
vn -0.3825 0.0299 -0.9235
vn 0.3815 0.0787 -0.9210
vn 0.3825 -0.0299 0.9235
vn 0.9237 -0.3826 -0.0199
vn -0.9233 -0.0366 -0.3824
vn -0.9239 -0.0365 -0.3809
vn -0.9233 -0.0348 -0.3824
vn -0.9062 -0.1946 -0.3754
vn 0.3800 0.1192 0.9173
vn -0.9122 -0.1585 0.3778
vn 0.3825 0.0286 -0.9235
vn -0.3823 0.0452 0.9229
vn -0.3824 0.0471 0.9228
vn -0.3119 -0.2703 0.9108
vn 0.3195 -0.8723 0.3702
vn -0.6008 0.7079 -0.3712
vn 0.2141 -0.3216 0.9224
vn 0.3119 0.2703 -0.9108
vn -0.3806 0.0416 0.9238
vn -0.3824 0.0413 0.9231
vn -0.3818 -0.9216 -0.0698
vn 0.4322 0.8186 0.3782
vn 0.6093 -0.7012 -0.3702
vn -0.2912 0.9464 -0.1398
vn -0.5904 -0.7160 0.3724
vn 0.1592 0.3480 0.9239
vn -0.5344 -0.7562 -0.3776
vn 0.5368 -0.7546 0.3774
vn -0.2141 0.3216 -0.9224
vn 0.0544 -0.3868 -0.9205
vn 0.5366 -0.7547 0.3775
vn -0.2399 0.3085 0.9205
vn -0.9231 0.3823 0.0418
vn 0.5463 -0.7481 -0.3767
vn 0.0424 -0.4016 0.9148
vn -0.2993 0.2772 0.9130
vn 0.1664 -0.3446 0.9239
vn 0.1615 -0.3475 0.9237
vn 0.1683 -0.3495 0.9217
vn 0.9218 -0.3818 -0.0667
vn -0.5754 0.7273 0.3740
vn 0.1135 0.3759 0.9197
vn -0.3826 0.0252 0.9236
vn -0.0713 0.3838 0.9206
vn -0.4817 0.7893 -0.3808
vn -0.9228 0.3822 -0.0484
vn 0.3826 0.9236 -0.0232
vn -0.9237 -0.3826 -0.0179
vn -0.3822 0.9227 -0.0506
vn -0.4177 -0.8259 0.3787
vn -0.9239 0.3827 0.0077
vn -0.3826 0.9237 0.0185
vn 0.9219 -0.0660 -0.3818
vn 0.9239 -0.3827 -0.0077
vn -0.3826 -0.9237 -0.0185
vn -0.9239 -0.3827 -0.0077
vn 0.9239 0.3827 0.0077
vn 0.3826 0.9237 0.0185
vn -0.9232 0.3824 0.0384
vn 0.3827 -0.9238 0.0122
vn -0.9214 0.0737 -0.3816
vn -0.9234 -0.3825 0.0329
vn 0.9239 -0.3827 -0.0021
vn 0.4672 -0.7998 0.3768
vn 0.3826 -0.9237 -0.0214
vn -0.3827 -0.9238 0.0081
vn 0.1824 -0.3417 0.9219
vn -0.2284 -0.3505 0.9083
vn -0.2451 0.3059 -0.9200
vn 0.1142 0.9201 0.3747
vn -0.4612 -0.8873 -0.0008
g Tent_4_Tent_4_Collor_Material
usemtl Collor_Material
s off
f 13/1/1 12/2/2 9/3/3
f 2/4/4 12/5/5 13/6/6
f 58/7/7 10/8/7 57/9/7
f 60/10/8 59/11/9 8/12/10
f 4/13/11 57/14/12 10/15/13
f 11/16/14 58/17/14 59/18/14
f 76/19/15 72/20/15 75/21/15
f 65/22/16 75/23/17 69/24/18
f 120/25/19 119/26/19 73/27/19
f 122/28/20 121/29/21 74/30/22
f 119/31/23 67/32/24 73/33/25
f 74/34/26 121/35/26 120/36/26
f 60/37/27 100/38/28 122/39/29
f 10/40/30 120/41/31 73/42/32
f 11/43/33 120/44/34 58/45/35
f 31/46/36 32/47/36 23/48/36 22/49/36
f 121/50/37 71/51/37 85/52/37 93/53/37
f 103/54/38 68/55/39 64/56/40 96/57/39
f 2/58/4 6/59/4 12/60/41
f 33/61/42 12/62/42 6/63/42 24/64/42
f 57/65/43 61/66/43 19/67/43 30/68/43
f 88/69/44 93/70/44 94/71/44 89/72/44
f 25/73/45 33/74/45 32/75/45 27/76/45
f 25/77/46 28/78/46 13/79/46 9/80/46
f 51/81/47 49/82/47 18/83/47 19/84/47
f 80/85/48 65/86/48 97/87/48 109/88/48
f 114/89/49 112/90/49 78/91/49 77/92/49
f 42/93/50 63/94/50 8/95/50 22/96/50
f 30/97/51 19/98/51 18/99/51 29/100/51
f 34/101/52 41/102/52 40/103/52 35/104/52
f 125/105/53 118/106/53 105/107/53 104/108/53
f 115/109/54 114/110/54 77/111/54 66/112/54
f 109/113/55 110/114/55 112/115/55 111/116/55
f 87/117/56 69/118/56 75/119/56 95/120/56
f 113/121/57 114/122/57 115/123/57 124/124/57
f 53/125/58 37/126/58 55/127/58 3/128/58
f 60/129/59 11/130/10 59/131/60
f 4/132/61 61/133/13 57/134/62
f 118/135/63 70/136/63 84/137/63 105/138/63
f 41/139/64 5/140/64 20/141/64 46/142/64
f 65/143/65 76/144/17 75/145/17
f 65/146/66 80/147/66 90/148/66 76/149/66
f 44/150/67 45/151/67 46/152/67 126/153/67
f 97/154/68 96/155/68 110/156/68 109/157/68
f 42/158/69 44/159/69 126/160/69 43/161/69
f 104/162/70 106/163/70 86/164/70 85/165/70
f 76/166/71 90/167/71 25/168/71 72/169/71
f 108/170/72 127/171/72 129/172/72 83/173/72
f 98/174/73 99/175/73 37/176/73 36/177/73
f 56/178/74 7/179/74 54/180/74 39/181/74
f 82/182/75 123/183/75 119/184/75 92/185/75
f 25/186/76 95/187/76 75/188/76 72/189/76
f 21/190/77 43/191/77 126/192/77 128/193/77
f 26/194/78 58/195/78 57/196/78 30/197/78
f 82/198/79 81/199/79 111/200/79 113/201/80
f 117/202/81 99/203/81 115/204/81 66/205/81
f 122/206/82 71/207/22 121/208/83
f 119/209/84 123/210/25 67/211/85
f 98/212/86 67/213/86 123/214/86 124/215/86
f 117/216/87 55/217/87 37/218/87 99/219/87
f 122/220/88 74/221/88 11/222/88 60/223/88
f 60/224/89 38/225/90 100/226/91
f 10/227/92 58/228/93 120/229/94
f 11/230/95 74/231/96 120/232/97
f 97/233/98 102/234/98 103/235/98 96/236/98
f 87/237/99 86/238/99 106/239/99 107/240/99
f 48/241/100 34/242/100 35/243/100 47/244/100
f 85/245/101 71/246/101 125/247/101 104/248/101
f 88/249/102 92/250/102 119/251/102 120/252/102
f 8/253/103 63/254/103 38/255/103 60/256/103
f 62/257/104 36/258/104 37/259/104 53/260/104
f 28/261/105 29/262/105 18/263/105 17/264/105
f 101/265/106 100/266/106 38/267/106 39/268/106
f 123/269/107 82/270/107 113/271/107 124/272/107
f 118/273/108 101/274/108 116/275/108 70/276/108
f 50/277/109 48/278/109 47/279/109 49/280/109
f 17/281/110 47/282/110 35/283/110 2/284/110
f 91/285/111 90/286/111 80/287/111 81/288/111
f 52/289/112 50/290/112 49/291/112 51/292/112
f 25/293/113 27/294/114 29/295/113 28/296/113
f 94/297/115 95/298/115 25/299/115 89/300/115
f 93/301/116 85/302/116 86/303/116 94/304/116
f 128/305/117 126/306/117 46/307/117 20/308/117
f 59/309/118 31/310/118 22/311/118 8/312/118
f 86/313/119 87/314/119 95/315/119 94/316/119
f 63/317/120 56/318/120 39/319/120 38/320/120
f 65/321/121 69/322/122 102/323/123 97/324/123
f 26/325/124 31/326/124 59/327/124 58/328/124
f 25/329/125 9/330/125 12/331/125 33/332/125
f 80/333/126 109/334/126 111/335/126 81/336/126
f 125/337/127 100/338/128 101/339/128 118/340/128
f 49/341/129 47/342/129 17/343/129 18/344/129
f 43/345/130 56/346/130 63/347/130 42/348/130
f 81/349/131 82/350/131 92/351/131 91/352/131
f 121/353/132 93/354/132 88/355/132 120/356/132
f 108/357/133 107/358/133 106/359/133 127/360/133
f 62/361/134 53/362/135 52/363/135 51/364/135
f 104/365/136 105/366/136 127/367/136 106/368/136
f 53/369/137 3/370/137 14/371/137 52/372/137
f 33/373/138 24/374/138 23/375/138 32/376/138
f 2/377/139 35/378/139 40/379/139 6/380/139
f 103/381/140 108/382/140 83/383/140 68/384/140
f 27/385/141 26/386/142 30/387/142 29/388/142
f 27/389/143 32/390/143 31/391/143 26/392/143
f 24/393/144 45/394/144 44/395/144 23/396/144
f 116/397/145 101/398/145 39/399/145 54/400/145
f 61/401/146 4/402/146 36/403/146 62/404/146
f 107/405/147 108/406/147 103/407/147 102/408/147
f 98/409/148 36/410/148 4/411/148 67/412/148
f 41/413/149 46/414/149 45/415/149 40/416/149
f 89/417/150 91/418/150 92/419/150 88/420/150
f 1/421/151 5/422/151 41/423/151 34/424/151
f 67/425/152 4/426/152 10/427/152 73/428/152
f 28/429/153 17/430/153 2/431/153 13/432/153
f 84/433/154 129/434/154 127/435/154 105/436/154
f 16/437/155 1/438/156 34/439/156 48/440/157
f 87/441/158 107/442/158 102/443/158 69/444/158
f 50/445/159 15/446/159 16/447/160 48/448/161
f 40/449/162 45/450/162 24/451/162 6/452/162
f 112/453/163 110/454/163 79/455/163 78/456/163
f 52/457/164 14/458/164 15/459/164 50/460/164
f 96/461/165 64/462/165 79/463/165 110/464/165
f 21/465/166 7/466/166 56/467/166 43/468/166
f 42/469/167 22/470/167 23/471/167 44/472/167
f 25/473/168 90/474/168 91/475/168 89/476/168
f 61/477/169 62/478/169 51/479/169 19/480/169
f 71/481/170 122/482/170 100/483/170 125/484/170
f 99/485/171 98/486/171 124/487/171 115/488/171
f 111/489/172 112/490/172 114/491/172 113/492/172
f 139/493/173 141/494/173 143/495/173
f 429/496/174 430/497/174 431/498/174
f 485/499/173 486/500/173 487/501/173
f 491/502/139 490/503/139 489/504/139
f 385/505/175 384/506/175 376/507/175 377/508/175
f 286/509/176 285/510/176 293/511/176 294/512/176
f 382/513/177 374/514/177 375/515/177 383/516/177
f 348/517/178 347/518/178 355/519/178 356/520/178
f 469/521/179 468/522/179 390/523/179 391/524/179
f 443/525/180 435/526/180 434/527/180 442/528/180
f 254/529/181 253/530/181 261/531/181 262/532/181
f 179/533/182 181/534/182 190/535/182 189/536/182
f 263/537/183 255/538/183 254/539/183 262/540/183
f 270/541/184 477/542/184 474/543/184 269/544/184
f 479/545/185 476/546/185 265/547/185 266/548/185
f 465/549/186 387/550/186 388/551/186 466/552/186
f 448/553/187 440/554/187 447/555/187 455/556/187
f 144/557/188 143/558/188 141/559/188 142/560/188
f 155/561/189 156/562/189 149/563/189 148/564/189
f 414/565/190 406/566/190 407/567/190 415/568/190
f 426/569/191 418/570/191 419/571/191 427/572/191
f 150/573/192 140/574/193 22/575/192 149/576/192
f 392/577/194 399/578/194 469/579/194 470/580/194
f 158/581/195 512/582/195 150/583/195 157/584/195
f 442/585/196 434/586/196 433/587/196 441/588/196
f 467/589/197 389/590/197 390/591/197 468/592/197
f 391/593/198 390/594/198 382/595/198 383/596/198
f 387/597/199 379/598/199 380/599/199 388/600/199
f 367/601/200 359/602/200 358/603/200 366/604/200
f 444/605/201 443/606/201 451/607/201 452/608/201
f 495/609/202 502/610/202 496/611/202 494/612/202
f 205/613/203 197/614/204 198/615/205 206/616/203
f 216/617/206 223/618/206 215/619/206 208/620/206
f 239/621/207 238/622/207 230/623/207 231/624/207
f 497/625/208 498/626/208 492/627/208 493/628/208
f 154/629/209 155/630/209 148/631/209 147/632/209
f 258/633/210 257/634/210 476/635/210 479/636/210
f 449/637/211 441/638/211 440/639/211 448/640/211
f 381/641/212 380/642/212 372/643/212 373/644/212
f 418/645/213 417/646/213 409/647/214 410/648/215
f 139/649/216 138/650/216 22/651/216 140/652/216
f 409/653/217 408/654/217 400/655/217 401/656/217
f 318/657/218 310/658/218 311/659/218 319/660/218
f 257/661/219 249/662/219 248/663/219 256/664/219
f 157/665/220 150/666/220 149/667/220 156/668/220
f 159/669/221 151/670/221 512/671/221 158/672/221
f 136/673/222 134/674/222 135/675/222 137/676/222
f 445/677/223 437/678/223 436/679/223 444/680/223
f 330/681/224 322/682/224 323/683/224 331/684/224
f 221/685/225 213/686/225 214/687/225 222/688/225
f 284/689/226 283/690/226 291/691/226 292/692/226
f 487/693/227 486/694/227 508/695/227 511/696/227
f 446/697/228 445/698/228 453/699/228 454/700/228
f 229/701/229 221/702/229 222/703/229 230/704/229
f 350/705/230 349/706/231 357/707/232 358/708/232
f 416/709/233 423/710/233 415/711/233 408/712/233
f 498/713/234 499/714/234 491/715/234 492/716/234
f 164/717/235 165/718/235 157/719/235 156/720/235
f 147/721/236 148/722/236 137/723/236 135/724/236
f 313/725/237 312/726/237 304/727/237 305/728/237
f 331/729/238 323/730/238 324/731/238 332/732/238
f 291/733/239 290/734/239 298/735/239 299/736/239
f 188/737/240 177/738/240 179/739/240 189/740/240
f 474/741/241 478/742/241 268/743/241 269/744/241
f 145/745/242 147/746/242 135/747/242 133/748/242
f 159/749/243 153/750/243 146/751/243 151/752/243
f 265/753/244 476/754/244 472/755/244 264/756/244
f 452/757/245 451/758/245 459/759/245 460/760/245
f 512/761/246 142/762/247 140/763/246 150/764/246
f 143/765/173 130/766/173 132/767/173
f 132/768/173 134/769/173 143/770/173
f 134/771/173 136/772/173 143/773/173
f 136/774/173 138/775/173 143/776/173
f 138/777/173 139/778/173 143/779/173
f 153/780/248 152/781/248 145/782/248 146/783/248
f 312/784/249 319/785/249 311/786/249 304/787/249
f 131/788/250 130/789/250 143/790/250 144/791/250
f 152/792/251 154/793/251 147/794/251 145/795/251
f 472/796/252 256/797/253 263/798/253 473/799/254
f 162/800/139 160/801/139 161/802/139
f 161/803/139 167/804/139 166/805/139
f 166/806/139 165/807/139 164/808/139
f 164/809/139 163/810/139 162/811/139
f 458/812/255 457/813/255 462/814/255 461/815/255
f 322/816/256 321/817/256 313/818/256 314/819/256
f 167/820/257 161/821/257 153/822/257 159/823/257
f 165/824/258 166/825/258 158/826/258 157/827/258
f 163/828/259 155/829/259 154/830/259 162/831/259
f 160/832/260 152/833/260 153/834/260 161/835/260
f 445/836/261 444/837/261 452/838/261 453/839/261
f 181/840/262 180/841/262 182/842/262 183/843/262
f 169/844/263 183/845/263 182/846/263 168/847/263
f 171/848/264 169/849/264 168/850/264 170/851/264
f 173/852/265 171/853/265 170/854/265 172/855/265
f 504/856/266 509/857/266 498/858/266 497/859/266
f 170/860/173 168/861/173 182/862/173
f 182/863/173 180/864/173 178/865/173
f 178/866/173 176/867/173 174/868/173
f 174/869/173 172/870/173 178/871/173
f 235/872/174 237/873/174 239/874/174 234/875/174
f 295/876/267 287/877/267 286/878/267 294/879/267
f 169/880/268 171/881/268 184/882/268 185/883/268
f 181/884/269 183/885/269 191/886/269 190/887/269
f 184/888/270 171/889/270 173/890/270 186/891/270
f 183/892/271 169/893/271 185/894/271 191/895/271
f 480/896/272 487/897/272 511/898/272 507/899/272
f 494/900/273 496/901/273 497/902/273 493/903/273
f 199/904/274 191/905/274 185/906/274 193/907/274
f 197/908/275 189/909/276 190/910/276 198/911/277
f 195/912/278 196/913/278 204/914/278 203/915/278
f 185/916/279 184/917/279 192/918/279 193/919/279
f 198/920/280 190/921/280 191/922/280 199/923/280
f 462/924/281 454/925/281 453/926/281 461/927/281
f 443/928/282 442/929/282 450/930/282 451/931/282
f 201/932/139 200/933/139 202/934/139
f 202/935/139 203/936/139 204/937/139
f 365/938/174 363/939/174 361/940/174 360/941/174
f 205/942/139 206/943/139 201/944/139
f 206/945/139 207/946/139 201/947/139
f 192/948/283 194/949/284 202/950/285 200/951/285
f 207/952/286 199/953/286 193/954/286 201/955/286
f 322/956/287 314/957/287 315/958/287 323/959/287
f 193/960/288 192/961/288 200/962/288 201/963/288
f 206/964/289 198/965/289 199/966/289 207/967/289
f 226/968/290 218/969/290 219/970/290 227/971/290
f 340/972/291 339/973/291 347/974/291 348/975/291
f 413/976/292 405/977/293 406/978/293 414/979/294
f 411/980/295 403/981/295 404/982/295 412/983/295
f 444/984/296 436/985/296 435/986/296 443/987/296
f 343/988/297 342/989/297 350/990/297 351/991/297
f 341/992/298 340/993/298 348/994/298 349/995/298
f 347/996/299 339/997/299 338/998/299 346/999/299
f 345/1000/300 337/1001/300 336/1002/300 344/1003/300
f 234/1004/301 233/1005/301 225/1006/301 226/1007/301
f 225/1008/302 224/1009/302 216/1010/302 217/1011/302
f 508/1012/303 486/1013/303 485/1014/303 504/1015/303
f 177/1016/304 176/1017/304 178/1018/304 179/1019/304
f 179/1020/305 178/1021/305 180/1022/305 181/1023/305
f 226/1024/306 225/1025/306 217/1026/306 218/1027/306
f 224/1028/307 231/1029/308 223/1030/308 216/1031/308
f 164/1032/309 156/1033/309 155/1034/309 163/1035/309
f 239/1036/174 232/1037/174 233/1038/174
f 233/1039/174 234/1040/174 239/1041/174
f 265/1042/310 271/1043/310 269/1044/310 266/1045/310
f 235/1046/174 236/1047/174 237/1048/174
f 237/1049/174 238/1050/174 239/1051/174
f 232/1052/311 239/1053/311 231/1054/311 224/1055/312
f 234/1056/313 226/1057/313 227/1058/313 235/1059/313
f 237/1060/314 229/1061/314 230/1062/314 238/1063/314
f 233/1064/315 232/1065/315 224/1066/315 225/1067/315
f 142/1068/316 141/1069/317 139/1070/316 140/1071/316
f 236/1072/318 228/1073/318 229/1074/318 237/1075/318
f 247/1076/319 240/1077/319 241/1078/319
f 241/1079/319 242/1080/319 247/1081/319
f 435/1082/320 437/1083/320 439/1084/320 434/1085/320
f 243/1086/319 244/1087/319 245/1088/319
f 245/1089/319 246/1090/319 247/1091/319
f 325/1092/321 317/1093/321 318/1094/321 326/1095/321
f 315/1096/322 314/1097/322 306/1098/322 307/1099/322
f 424/1100/323 431/1101/323 423/1102/323 416/1103/323
f 246/1104/324 245/1105/324 253/1106/324 254/1107/324
f 317/1108/325 309/1109/325 310/1110/325 318/1111/325
f 264/1112/326 472/1113/327 473/1114/328 271/1115/326
f 151/1116/329 144/1117/329 142/1118/329 512/1119/329
f 323/1120/330 315/1121/330 316/1122/330 324/1123/330
f 175/1124/331 174/1125/331 176/1126/331 177/1127/331
f 327/1128/332 326/1129/332 318/1130/332 319/1131/332
f 228/1132/333 220/1133/333 221/1134/333 229/1135/333
f 321/1136/334 320/1137/334 312/1138/334 313/1139/334
f 475/1140/335 479/1141/335 266/1142/335 267/1143/335
f 265/1144/310 264/1145/310 271/1146/310
f 271/1147/310 270/1148/310 269/1149/310
f 269/1150/310 268/1151/310 267/1152/310
f 267/1153/310 266/1154/310 269/1155/310
f 335/1156/255 329/1157/255 331/1158/255 334/1159/255
f 135/1160/336 134/1161/336 132/1162/336 133/1163/336
f 478/1164/337 475/1165/338 267/1166/339 268/1167/339
f 285/1168/340 284/1169/340 292/1170/340 293/1171/340
f 283/1172/341 282/1173/341 290/1174/341 291/1175/341
f 344/1176/342 336/1177/342 343/1178/342 351/1179/342
f 410/1180/343 409/1181/344 401/1182/345 402/1183/345
f 280/1184/346 272/1185/346 279/1186/346 287/1187/346
f 278/1188/347 277/1189/347 285/1190/347 286/1191/347
f 222/1192/348 214/1193/348 215/1194/348 223/1195/348
f 297/1196/349 289/1197/349 288/1198/349 296/1199/349
f 279/1200/350 278/1201/350 286/1202/350 287/1203/350
f 277/1204/351 276/1205/351 284/1206/351 285/1207/351
f 289/1208/352 281/1209/352 280/1210/352 288/1211/352
f 426/1212/353 425/1213/353 417/1214/353 418/1215/353
f 151/1216/354 146/1217/354 131/1218/354 144/1219/354
f 290/1220/355 282/1221/355 281/1222/355 289/1223/355
f 288/1224/356 280/1225/356 287/1226/356 295/1227/356
f 297/1228/174 296/1229/174 303/1230/174
f 303/1231/174 302/1232/174 301/1233/174
f 301/1234/174 300/1235/174 299/1236/174
f 299/1237/174 298/1238/174 297/1239/174
f 196/1240/357 188/1241/357 189/1242/357 197/1243/357
f 296/1244/358 288/1245/358 295/1246/358 303/1247/358
f 294/1248/359 293/1249/359 301/1250/359 302/1251/359
f 303/1252/360 295/1253/360 294/1254/360 302/1255/360
f 293/1256/361 292/1257/361 300/1258/361 301/1259/361
f 305/1260/320 304/1261/320 311/1262/320
f 311/1263/320 310/1264/320 309/1265/320
f 309/1266/320 308/1267/320 307/1268/320
f 307/1269/320 306/1270/320 305/1271/320
f 375/1272/319 373/1273/319 371/1274/319 369/1275/319
f 249/1276/362 241/1277/362 240/1278/362 248/1279/362
f 248/1280/363 240/1281/363 247/1282/363 255/1283/363
f 244/1284/364 243/1285/364 251/1286/364 252/1287/364
f 250/1288/365 242/1289/365 241/1290/365 249/1291/365
f 247/1292/366 246/1293/366 254/1294/366 255/1295/366
f 245/1296/367 244/1297/367 252/1298/367 253/1299/367
f 332/1300/368 324/1301/369 325/1302/370 333/1303/368
f 384/1304/371 391/1305/371 383/1306/371 376/1307/371
f 258/1308/372 250/1309/372 249/1310/372 257/1311/372
f 194/1312/373 195/1313/373 203/1314/373 202/1315/373
f 253/1316/374 252/1317/374 260/1318/374 261/1319/374
f 251/1320/375 250/1321/375 258/1322/375 259/1323/375
f 324/1324/376 316/1325/377 317/1326/377 325/1327/378
f 256/1328/379 248/1329/379 255/1330/379 263/1331/379
f 335/1332/255 328/1333/255 329/1334/255
f 329/1335/255 330/1336/255 331/1337/255
f 331/1338/255 332/1339/255 333/1340/255
f 333/1341/255 334/1342/255 331/1343/255
f 316/1344/380 308/1345/380 309/1346/380 317/1347/380
f 329/1348/381 328/1349/381 320/1350/381 321/1351/381
f 328/1352/382 335/1353/382 327/1354/382 320/1355/382
f 333/1356/383 325/1357/383 326/1358/383 334/1359/383
f 330/1360/384 329/1361/384 321/1362/384 322/1363/384
f 476/1364/385 257/1365/385 256/1366/385 472/1367/385
f 335/1368/386 334/1369/386 326/1370/386 327/1371/386
f 481/1372/387 480/1373/387 507/1374/387 506/1375/387
f 282/1376/388 274/1377/388 273/1378/388 281/1379/388
f 408/1380/389 415/1381/389 407/1382/389 400/1383/389
f 218/1384/390 217/1385/390 209/1386/390 210/1387/390
f 219/1388/391 218/1389/391 210/1390/391 211/1391/391
f 281/1392/392 273/1393/392 272/1394/392 280/1395/392
f 411/1396/393 410/1397/393 402/1398/393 403/1399/393
f 412/1400/394 404/1401/394 405/1402/394 413/1403/394
f 388/1404/395 380/1405/395 381/1406/395 389/1407/395
f 353/1408/396 345/1409/396 344/1410/396 352/1411/396
f 351/1412/397 350/1413/397 358/1414/397 359/1415/397
f 438/1416/398 437/1417/398 445/1418/398 446/1419/398
f 354/1420/399 346/1421/400 345/1422/401 353/1423/399
f 352/1424/402 344/1425/402 351/1426/402 359/1427/402
f 170/1428/173 182/1429/173 178/1430/173 172/1431/173
f 360/1432/174 367/1433/174 365/1434/174
f 367/1435/174 366/1436/174 365/1437/174
f 365/1438/174 364/1439/174 363/1440/174
f 363/1441/174 362/1442/174 361/1443/174
f 360/1444/403 352/1445/403 359/1446/403 367/1447/403
f 358/1448/404 357/1449/404 365/1450/404 366/1451/404
f 355/1452/405 354/1453/405 362/1454/405 363/1455/405
f 428/1456/406 420/1457/406 421/1458/406 429/1459/406
f 184/1460/407 186/1461/407 194/1462/408 192/1463/409
f 357/1464/410 356/1465/410 364/1466/410 365/1467/410
f 149/1468/411 22/1469/412 137/1470/411 148/1471/411
f 369/1472/319 368/1473/319 375/1474/319
f 375/1475/319 374/1476/319 373/1477/319
f 373/1478/319 372/1479/319 371/1480/319
f 371/1481/319 370/1482/319 369/1483/319
f 303/1484/174 301/1485/174 299/1486/174 297/1487/174
f 187/1488/413 188/1489/413 196/1490/413 195/1491/413
f 382/1492/414 381/1493/414 373/1494/414 374/1495/414
f 314/1496/415 313/1497/415 305/1498/415 306/1499/415
f 473/1500/416 263/1501/416 262/1502/416 477/1503/416
f 377/1504/417 369/1505/417 370/1506/417 378/1507/417
f 463/1508/418 455/1509/418 454/1510/418 462/1511/418
f 349/1512/419 348/1513/419 356/1514/419 357/1515/419
f 379/1516/420 378/1517/420 370/1518/420 371/1519/420
f 376/1520/421 368/1521/421 369/1522/421 377/1523/421
f 356/1524/422 355/1525/422 363/1526/422 364/1527/422
f 390/1528/423 389/1529/423 381/1530/423 382/1531/423
f 386/1532/424 378/1533/424 379/1534/424 387/1535/424
f 362/1536/425 354/1537/425 353/1538/425 361/1539/425
f 320/1540/426 327/1541/426 319/1542/426 312/1543/426
f 399/1544/310 392/1545/310 393/1546/310
f 393/1547/310 394/1548/310 399/1549/310
f 161/1550/139 166/1551/139 164/1552/139 162/1553/139
f 395/1554/310 396/1555/310 397/1556/310
f 397/1557/310 398/1558/310 395/1559/310
f 395/1560/427 465/1561/427 466/1562/427 396/1563/427
f 394/1564/428 393/1565/428 471/1566/428 464/1567/428
f 146/1568/429 145/1569/429 133/1570/430 131/1571/429
f 292/1572/431 291/1573/431 299/1574/431 300/1575/431
f 393/1576/432 392/1577/432 470/1578/432 471/1579/432
f 399/1580/433 398/1581/433 468/1582/433 469/1583/433
f 419/1584/434 418/1585/434 410/1586/434 411/1587/434
f 219/1588/435 211/1589/435 212/1590/435 220/1591/435
f 342/1592/436 341/1593/436 349/1594/437 350/1595/438
f 276/1596/439 275/1597/439 283/1598/439 284/1599/439
f 346/1600/440 338/1601/441 337/1602/441 345/1603/442
f 283/1604/443 275/1605/443 274/1606/443 282/1607/443
f 220/1608/444 212/1609/444 213/1610/444 221/1611/444
f 166/1612/445 167/1613/445 159/1614/445 158/1615/445
f 217/1616/446 216/1617/446 208/1618/446 209/1619/446
f 422/1620/447 414/1621/447 415/1622/447 423/1623/447
f 298/1624/448 290/1625/448 289/1626/448 297/1627/448
f 420/1628/449 412/1629/449 413/1630/449 421/1631/449
f 419/1632/450 411/1633/450 412/1634/450 420/1635/450
f 417/1636/451 416/1637/451 408/1638/451 409/1639/451
f 186/1640/452 173/1641/452 175/1642/452 187/1643/452
f 421/1644/453 413/1645/454 414/1646/455 422/1647/453
f 431/1648/174 424/1649/174 425/1650/174
f 425/1651/174 426/1652/174 431/1653/174
f 426/1654/174 427/1655/174 431/1656/174
f 427/1657/174 428/1658/174 431/1659/174
f 428/1660/174 429/1661/174 431/1662/174
f 243/1663/319 245/1664/319 247/1665/319 242/1666/319
f 429/1667/456 421/1668/456 422/1669/456 430/1670/456
f 425/1671/457 424/1672/457 416/1673/457 417/1674/457
f 431/1675/458 430/1676/458 422/1677/458 423/1678/458
f 427/1679/459 419/1680/459 420/1681/459 428/1682/459
f 439/1683/320 432/1684/320 433/1685/320
f 433/1686/320 434/1687/320 439/1688/320
f 201/1689/139 202/1690/139 204/1691/139 205/1692/139
f 435/1693/320 436/1694/320 437/1695/320
f 437/1696/320 438/1697/320 439/1698/320
f 235/1699/460 227/1700/461 228/1701/460 236/1702/460
f 457/1703/462 449/1704/462 448/1705/462 456/1706/462
f 251/1707/463 243/1708/463 242/1709/463 250/1710/463
f 397/1711/464 467/1712/464 468/1713/464 398/1714/464
f 471/1715/465 470/1716/465 384/1717/465 385/1718/465
f 453/1719/466 452/1720/466 460/1721/466 461/1722/466
f 227/1723/467 219/1724/468 220/1725/468 228/1726/468
f 204/1727/469 196/1728/469 197/1729/469 205/1730/469
f 455/1731/470 447/1732/470 446/1733/470 454/1734/470
f 394/1735/471 464/1736/471 465/1737/471 395/1738/471
f 457/1739/255 456/1740/255 463/1741/255
f 463/1742/255 462/1743/255 457/1744/255
f 311/1745/320 309/1746/320 307/1747/320 305/1748/320
f 461/1749/255 460/1750/255 459/1751/255
f 459/1752/255 458/1753/255 461/1754/255
f 133/1755/472 132/1756/472 130/1757/472 131/1758/472
f 450/1759/473 449/1760/473 457/1761/473 458/1762/473
f 456/1763/474 448/1764/474 455/1765/474 463/1766/474
f 451/1767/475 450/1768/475 458/1769/475 459/1770/475
f 259/1771/476 258/1772/476 479/1773/476 475/1774/476
f 466/1775/477 388/1776/477 389/1777/477 467/1778/477
f 380/1779/478 379/1780/478 371/1781/478 372/1782/478
f 464/1783/479 471/1784/479 385/1785/479 386/1786/479
f 470/1787/480 469/1788/480 391/1789/480 384/1790/480
f 162/1791/481 154/1792/481 152/1793/481 160/1794/481
f 464/1795/482 386/1796/482 387/1797/482 465/1798/482
f 433/1799/483 432/1800/483 440/1801/483 441/1802/483
f 261/1803/484 260/1804/484 478/1805/484 474/1806/484
f 260/1807/485 259/1808/485 475/1809/486 478/1810/487
f 175/1811/488 173/1812/488 172/1813/488 174/1814/488
f 477/1815/489 262/1816/489 261/1817/489 474/1818/489
f 432/1819/490 439/1820/490 447/1821/490 440/1822/490
f 361/1823/491 353/1824/491 352/1825/491 360/1826/491
f 383/1827/492 375/1828/492 368/1829/492 376/1830/492
f 271/1831/493 473/1832/493 477/1833/493 270/1834/493
f 487/1835/173 480/1836/173 481/1837/173
f 481/1838/173 482/1839/173 487/1840/173
f 482/1841/173 483/1842/173 487/1843/173
f 483/1844/173 484/1845/173 487/1846/173
f 484/1847/173 485/1848/173 487/1849/173
f 398/1850/310 399/1851/310 394/1852/310 395/1853/310
f 488/1854/139 495/1855/139 493/1856/139
f 495/1857/139 494/1858/139 493/1859/139
f 492/1860/139 491/1861/139 489/1862/139
f 500/1863/494 501/1864/494 489/1865/494 490/1866/494
f 488/1867/495 503/1868/495 502/1869/495 495/1870/495
f 499/1871/496 500/1872/496 490/1873/496 491/1874/496
f 489/1875/497 501/1876/497 503/1877/497 488/1878/497
f 450/1879/498 442/1880/498 441/1881/498 449/1882/498
f 500/1883/499 510/1884/499 506/1885/499 501/1886/499
f 501/1887/500 506/1888/500 507/1889/500 503/1890/500
f 231/1891/501 230/1892/501 222/1893/501 223/1894/501
f 508/1895/502 504/1896/502 497/1897/502 496/1898/502
f 498/1899/503 509/1900/503 505/1901/503 499/1902/503
f 499/1903/504 505/1904/504 510/1905/504 500/1906/504
f 511/1907/505 508/1908/505 496/1909/505 502/1910/505
f 507/1911/506 511/1912/506 502/1913/506 503/1914/506
f 482/1915/507 481/1916/507 506/1917/507 510/1918/507
f 187/1919/508 175/1920/508 177/1921/508 188/1922/508
f 355/1923/509 347/1924/509 346/1925/509 354/1926/509
f 505/1927/510 483/1928/510 482/1929/510 510/1930/510
f 186/1931/511 187/1932/511 195/1933/511 194/1934/511
f 385/1935/512 377/1936/512 378/1937/512 386/1938/512
f 504/1939/513 485/1940/513 484/1941/513 509/1942/513
f 509/1943/514 484/1944/514 483/1945/514 505/1946/514
f 252/1947/515 251/1948/515 259/1949/515 260/1950/515
f 315/1951/516 307/1952/516 308/1953/516 316/1954/516
f 396/1955/517 466/1956/517 467/1957/517 397/1958/517
f 439/1959/518 438/1960/518 446/1961/518 447/1962/518
f 138/1963/519 136/1964/519 137/1965/519 22/1966/519
f 493/1967/139 492/1968/139 489/1969/139 488/1970/139
