# Blender v3.0.0 OBJ File: 'aa.blend'
# www.blender.org
mtllib Tent_2.mtl
o Tent_2
v -0.095681 -0.000001 -0.085304
v -0.095681 4.173568 -0.085308
v -0.007338 -0.000001 -0.127976
v -0.007338 4.173568 -0.127980
v 0.085304 -0.000001 -0.095681
v 0.085304 4.173568 -0.095686
v 0.127976 -0.000001 -0.007338
v 0.127976 4.173568 -0.007343
v 0.095681 -0.000001 0.085304
v 0.095681 4.173568 0.085299
v 0.007338 -0.000001 0.127976
v 0.007338 4.173568 0.127971
v -0.085304 -0.000001 0.095681
v -0.085304 4.173568 0.095677
v -0.127976 -0.000001 0.007338
v -0.127976 4.173568 0.007334
v -0.002402 4.558890 -0.041890
v -0.031316 4.558890 -0.027924
v 0.027919 4.558890 -0.031321
v 0.041885 4.558890 -0.002407
v 0.031316 4.558890 0.027914
v 0.002402 4.558890 0.041880
v -0.027919 4.558890 0.031311
v -0.041885 4.558890 0.002397
v 1.746632 -0.000007 -5.590470
v 5.487792 -0.000003 -1.662053
v 3.276527 0.000004 4.705598
v -3.462787 0.000004 4.570271
v -5.652414 -0.000002 -1.169743
v 1.067252 2.495678 1.692986
v -2.055261 2.425735 -0.357720
v -2.871823 0.460473 3.842206
v -2.280858 0.997625 3.114141
v -1.761677 1.602656 2.472425
v 2.720312 0.460473 3.951294
v 2.164098 0.997625 3.196989
v 1.627395 1.700972 2.445135
v 1.486503 0.378853 -4.738315
v 1.226374 0.834396 -3.886160
v 0.966246 1.453551 -3.034006
v -4.729652 0.460468 -0.952148
v -3.807765 0.997022 -0.735105
v -2.946575 1.655565 -0.556363
v 4.609015 0.460467 -1.310353
v 3.730239 0.997621 -0.958654
v 2.863703 1.705837 -0.608008
v 1.693889 -0.000007 -5.615156
v 5.470146 -0.000003 -1.716535
v 3.322879 0.000004 4.672978
v -3.417451 0.000004 4.605276
v -5.660679 -0.000002 -1.112110
v -2.833821 0.460473 3.871318
v -2.250191 0.997625 3.137360
v -1.741451 1.602720 2.487678
v 2.759125 0.460473 3.924293
v 2.195371 0.997625 3.175607
v 1.649220 1.700659 2.429038
v 1.442323 0.378853 -4.760434
v 1.190758 0.834396 -3.905713
v 0.939192 1.453551 -3.050992
v -4.735780 0.460468 -0.903784
v -3.811509 0.997191 -0.695855
v -2.946329 1.657005 -0.525212
v 4.594943 0.460467 -1.356037
v 3.719738 0.997621 -0.995539
v 2.856644 1.705757 -0.636083
v 1.746625 0.075973 -5.589681
v 5.488123 0.075978 -1.661335
v 3.276858 0.075984 4.706315
v -3.462457 0.075984 4.570989
v -5.651951 0.075978 -1.169104
v -2.871492 0.520409 3.842923
v -2.280527 1.057561 3.114857
v -1.760954 1.648122 2.473110
v 2.720643 0.520409 3.952010
v 2.164429 1.057561 3.197706
v 1.622991 1.760339 2.445344
v 1.486496 0.438789 -4.737525
v 1.226368 0.894332 -3.885371
v 0.966239 1.513487 -3.033216
v -4.729190 0.520404 -0.951510
v -3.807836 1.056592 -0.734804
v -2.947938 1.714248 -0.556877
v 4.609346 0.520403 -1.309636
v 3.730570 1.057557 -0.957937
v 2.865623 1.766740 -0.607428
v 1.693882 0.075973 -5.614367
v 5.470477 0.075977 -1.715819
v 3.323210 0.075984 4.673696
v -3.417120 0.075984 4.605993
v -5.660215 0.075978 -1.111471
v 0.584092 2.490083 -1.899972
v -2.833490 0.520409 3.872035
v -2.249860 1.057561 3.138077
v -1.740696 1.648174 2.488373
v 2.759456 0.520409 3.925010
v 2.195702 1.057561 3.176324
v 1.645023 1.760051 2.429272
v 1.442317 0.438789 -4.759644
v 1.190750 0.894332 -3.904923
v 0.939186 1.513487 -3.050202
v -4.735316 0.520404 -0.903145
v -3.811506 1.056812 -0.695506
v -2.947654 1.715714 -0.525702
v 4.595273 0.520403 -1.355320
v 3.720069 1.057557 -0.994822
v 2.858556 1.766655 -0.635502
v 3.368661 0.000004 4.709987
v 3.293712 0.000004 4.762729
v 5.521259 -0.000003 -1.752467
v 5.549020 -0.000003 -1.666754
v 1.690993 -0.000007 -5.665414
v 1.771284 -0.000007 -5.627833
v -3.432423 0.000004 4.638338
v -3.493549 0.000004 4.591141
v -5.719038 -0.000002 -1.107601
v -5.705895 -0.000002 -1.199242
v 3.369196 0.076298 4.711145
v 3.294248 0.076298 4.763889
v 5.521779 0.076302 -1.751339
v 5.549541 0.076302 -1.665626
v 1.690983 0.076200 -5.664211
v 1.771274 0.076200 -5.626630
v -3.431977 0.076168 4.639305
v -3.493103 0.076168 4.592109
v -5.718300 0.076260 -1.106585
v -5.705160 0.076260 -1.198226
v -3.470950 0.000004 4.649795
v -3.494425 0.000004 4.631670
v -3.470779 0.075970 4.650166
v -3.494254 0.075970 4.632041
v -3.424438 0.137727 4.607510
v -3.462336 0.137727 4.578249
v -3.436856 0.137881 4.635356
v -3.487955 0.137881 4.595903
v -3.469294 0.137716 4.644436
v -3.488917 0.137716 4.629285
v -5.759943 -0.000002 -1.131145
v -5.751586 -0.000002 -1.189422
v -5.759475 0.076617 -1.130499
v -5.751119 0.076617 -1.188777
v -5.671887 0.128382 -1.121364
v -5.665714 0.128382 -1.164420
v -5.715281 0.128592 -1.117714
v -5.705465 0.128592 -1.186177
v -5.746042 0.128859 -1.135579
v -5.739799 0.128859 -1.179117
v 1.719089 -0.000007 -5.689885
v 1.772230 -0.000007 -5.665012
v 1.719083 0.076610 -5.689089
v 1.772224 0.076610 -5.664217
v 1.700777 0.102035 -5.619071
v 1.743937 0.102035 -5.598871
v 1.698405 0.102220 -5.659859
v 1.764107 0.102220 -5.629107
v 1.721398 0.102556 -5.680217
v 1.764884 0.102556 -5.659863
v 5.562064 -0.000003 -1.748524
v 5.579901 -0.000003 -1.693451
v 5.562397 0.076243 -1.747799
v 5.580235 0.076243 -1.692726
v 5.490557 0.155995 -1.712285
v 5.502079 0.155995 -1.676711
v 5.524055 0.156319 -1.735477
v 5.542181 0.156319 -1.679512
v 5.550575 0.156260 -1.733166
v 5.562222 0.156260 -1.697207
v 3.385224 0.000004 4.768832
v 3.342684 0.000004 4.798768
v 3.385528 0.075900 4.769489
v 3.342988 0.075900 4.799426
v 3.326406 0.176836 4.696564
v 3.296667 0.176836 4.717491
v 3.355908 0.177037 4.720590
v 3.307823 0.177037 4.754428
v 3.366386 0.176782 4.758021
v 3.339094 0.176782 4.777228
v -1.833323 -0.000003 -1.631376
v -1.688538 2.418389 -1.461079
v -0.654353 -0.000003 -2.350824
v -0.632990 2.475037 -2.014982
v 0.720475 -0.000003 -2.331409
v 0.598700 2.533710 -1.944809
v 1.866557 -0.000003 -1.571788
v 1.559813 2.537101 -1.310652
v 2.420020 -0.000001 -0.313134
v 2.052720 2.555997 -0.264046
v 2.205145 0.000000 1.044937
v 1.839725 2.535633 0.870969
v 1.518875 0.000001 1.850683
v 1.103545 2.537862 1.711041
v 1.313648 0.000001 2.015686
v 0.017132 2.546524 2.047237
v -1.365674 0.000001 2.026673
v -1.123860 2.535008 1.695656
v -2.233773 0.000000 0.982249
v -1.841172 2.366956 0.924827
v -2.410326 -0.000001 -0.381420
v -2.103394 2.470455 -0.377280
v -0.024303 4.297857 -0.087312
v -0.067647 4.297857 -0.060314
v 0.026758 4.297857 -0.086592
v 0.069323 4.297857 -0.058380
v 0.089878 4.297857 -0.011634
v 0.081898 4.297857 0.038805
v 0.047916 4.297857 0.076921
v -0.001280 4.297857 0.090614
v -0.050069 4.297857 0.075537
v -0.082962 4.297857 0.036476
v -0.089513 4.297857 -0.014168
v -1.758489 0.780143 -1.545492
v -1.733768 1.555589 -1.503663
v -0.645065 1.611291 -2.079951
v -0.633382 0.816570 -2.179699
v 0.621323 1.665856 -2.012983
v 0.661775 0.838749 -2.141456
v 1.611780 1.666577 -1.356886
v 1.714477 0.838750 -1.443726
v 2.109739 1.678863 -0.272093
v 2.222848 0.838751 -0.287622
v 1.903587 1.666289 0.902039
v 2.025477 0.838753 0.959799
v 1.222979 1.687352 1.808200
v 1.342032 0.857247 1.917385
v 0.505761 1.718755 2.117567
v 1.019121 0.882596 2.135392
v -1.178429 1.629806 1.777183
v -1.283906 0.855351 1.853153
v -1.866663 1.200103 1.145507
v -2.027461 0.656060 1.018847
v -2.157062 1.566054 -0.353150
v -2.250260 0.813775 -0.373261
v -0.793521 2.986259 1.197228
v -0.361000 3.697343 0.544654
v -0.598157 3.697343 0.263022
v -1.321253 2.981853 0.574102
v 0.037561 3.075112 1.306412
v -0.009200 3.697337 0.653369
v 0.762338 2.986183 1.216020
v 0.345488 3.697331 0.554640
v 1.220085 2.998142 0.562634
v 0.590490 3.697344 0.279809
v 1.432000 2.990835 -0.184977
v 0.648030 3.697344 -0.083854
v 1.098758 2.986290 -0.925201
v 0.499823 3.697344 -0.420896
v -1.174597 2.915977 -1.020518
v -0.495962 3.691705 -0.440030
v -0.178955 3.694783 -0.631860
v -0.445197 2.945080 -1.421637
v 0.419329 2.982986 -1.375330
v 0.192928 3.697344 -0.624306
v -1.482407 2.942559 -0.264692
v -0.649510 3.694528 -0.104712
v -1.714965 2.242750 -1.482796
v -0.643195 2.302022 -2.042009
v 0.606213 2.362828 -1.969666
v 1.579791 2.366620 -1.327365
v 2.080152 2.386760 -0.267558
v 1.863123 2.365083 0.882097
v 1.112642 2.371622 1.755865
v 0.039585 2.383687 2.079993
v -1.138120 2.359779 1.720426
v -1.853180 2.115289 0.987843
v -2.131428 2.291557 -0.379583
v -1.050679 0.018147 2.238745
v -0.892117 0.859392 2.007406
v -0.454675 1.674859 2.089337
v -1.917818 2.180128 -1.661514
v -0.708240 2.247722 -2.291296
v 0.685788 2.306997 -2.217979
v 1.778964 2.308623 -1.495215
v 2.289711 2.376477 -0.362468
v 2.100217 2.304978 0.993972
v 1.253691 2.342507 1.941838
v 0.035708 2.323263 2.342955
v -1.304412 2.301589 1.914056
v -2.091239 2.045470 1.101760
v -2.362026 2.288046 -0.416377
v -1.965564 2.072334 -1.654444
v -0.673902 2.130546 -2.333408
v 0.627518 2.186182 -2.264982
v 1.764559 2.187303 -1.558755
v 2.302536 2.200406 -0.496591
v 2.107704 2.151470 1.047939
v 1.329534 2.188324 1.948580
v 0.156887 2.227030 2.355500
v -1.344685 2.172855 1.931698
v -2.100399 1.877103 1.176301
v -2.420008 2.088236 -0.382347
v -0.034795 2.149760 2.363046
v -1.245115 2.182977 1.990632
v 1.209877 2.459903 1.884616
v 2.022888 2.455669 0.957568
v -1.848305 2.333715 -1.600836
v -2.301927 2.392562 -0.408321
v 2.260665 2.469371 -0.293890
v -2.019899 2.256549 1.027960
v 1.713306 2.458620 -1.440106
v -0.686037 2.397494 -2.208167
v 0.659686 2.456558 -2.136030
v -1.234581 2.456220 1.864822
v 0.022212 2.469304 2.252196
v 1.246430 2.195855 2.024200
v 2.164542 2.182573 0.976902
v 2.333896 2.205091 -0.284543
v 1.833850 2.188603 -1.482267
v 0.745927 2.186513 -2.232932
v -0.793148 2.140190 -2.300824
v -1.927966 2.040125 -1.708899
v -2.399852 2.116896 -0.521604
v -2.132229 1.877012 1.092854
v -1.787270 -0.000003 -1.590504
v -1.654596 2.375401 -1.430882
v -0.638065 -0.000003 -2.292309
v -0.622160 2.431009 -1.972293
v 0.702542 -0.000003 -2.273377
v 0.584706 2.490101 -1.902093
v 1.820096 -0.000003 -1.532663
v 1.525331 2.494192 -1.281577
v 2.359783 -0.000001 -0.305340
v 2.007195 2.512885 -0.258225
v 2.150255 0.000000 1.018927
v 1.798906 2.492719 0.851662
v 1.478707 0.000001 1.804660
v 1.081971 2.495296 1.674250
v 1.281464 0.000001 1.962771
v 0.022986 2.504325 2.004025
v -1.328664 0.000001 1.979189
v -1.098786 2.490814 1.658691
v -2.178171 0.000000 0.957800
v -1.797736 2.306046 0.917747
v -2.350316 -0.000001 -0.371917
v -2.059817 2.425483 -0.370291
v -0.012083 4.255146 -0.043415
v -0.033635 4.255146 -0.029991
v 0.013304 4.255146 -0.043056
v 0.034468 4.255146 -0.029029
v 0.044688 4.255146 -0.005787
v 0.040720 4.255146 0.019291
v 0.023824 4.255146 0.038243
v -0.000636 4.255146 0.045052
v -0.024895 4.255146 0.037555
v -0.041249 4.255146 0.018134
v -0.044507 4.255146 -0.007046
v -1.710809 0.769127 -1.503501
v -1.684795 1.550254 -1.460695
v -0.628686 1.603952 -2.020343
v -0.616902 0.804236 -2.120684
v 0.602575 1.658400 -1.953975
v 0.643700 0.826371 -2.082969
v 1.564342 1.659428 -1.316924
v 1.667653 0.826372 -1.404295
v 2.047228 1.671105 -0.264047
v 2.162137 0.826373 -0.279767
v 1.847520 1.659127 0.875470
v 1.970159 0.826374 0.933585
v 1.190291 1.679154 1.757545
v 1.306306 0.845786 1.868404
v 0.484525 1.709582 2.058795
v 0.992515 0.870559 2.079983
v -1.142130 1.617916 1.729485
v -1.247469 0.842978 1.804516
v -1.810542 1.195549 1.118851
v -1.971715 0.645869 0.992808
v -2.094653 1.554453 -0.340093
v -2.189613 0.801523 -0.363577
v -0.771694 2.937888 1.164296
v -0.336922 3.652607 0.508329
v -0.558263 3.652607 0.245479
v -1.286096 2.932745 0.557583
v -0.019715 2.937888 1.396680
v -0.008612 3.652607 0.609787
v 0.741390 2.937888 1.182410
v 0.322433 3.652607 0.517641
v 1.262293 2.937887 0.598136
v 0.551108 3.652607 0.261146
v 1.392679 2.942381 -0.179896
v 0.604810 3.652607 -0.078262
v 1.068559 2.937935 -0.899754
v 0.466489 3.652606 -0.392824
v -1.145101 2.867612 -0.994223
v -0.463245 3.647096 -0.410910
v -0.167384 3.649967 -0.589949
v -0.435579 2.896040 -1.384192
v 0.406742 2.933985 -1.338163
v 0.180061 3.652606 -0.582668
v -1.444293 2.893564 -0.259090
v -0.606561 3.649725 -0.097962
v -1.665684 2.240509 -1.439581
v -0.626900 2.297599 -1.982236
v 0.587046 2.358164 -1.910610
v 1.532227 2.362545 -1.287232
v 2.016941 2.381764 -0.259440
v 1.806926 2.361017 0.855401
v 1.081240 2.366189 1.703182
v 0.040759 2.376916 2.018067
v -1.102738 2.352403 1.670227
v -1.796653 2.112242 0.961696
v -2.069763 2.285574 -0.368797
v -1.023682 0.000001 2.185249
v -0.866090 0.847273 1.951989
v -0.428777 1.666496 2.032847
v -1.875418 2.154164 -1.623545
v -0.695685 2.220209 -2.237621
v 0.668456 2.280459 -2.164158
v 1.735721 2.282514 -1.459026
v 2.233609 2.350619 -0.351745
v 2.047770 2.281136 0.970331
v 1.226798 2.317245 1.894947
v 0.043668 2.299139 2.287785
v -1.270206 2.273715 1.869725
v -2.036507 2.001257 1.090589
v -2.307137 2.258868 -0.408170
v -1.912263 2.050796 -1.629343
v -0.678010 2.107207 -2.276697
v 0.626452 2.164929 -2.206350
v 1.732570 2.166523 -1.509794
v 2.248585 2.178802 -0.473229
v 2.063290 2.133126 1.008269
v 1.290266 2.171095 1.910376
v 0.145912 2.205080 2.301237
v -1.298869 2.151445 1.895080
v -2.052371 1.840294 1.149523
v -2.363679 2.064088 -0.389683
v -0.010492 2.133057 2.307976
v -1.227274 2.161612 1.935516
v 1.190747 2.415706 1.849085
v 1.982252 2.412293 0.938988
v -1.816774 2.288109 -1.572540
v -2.260795 2.345293 -0.401955
v 2.215250 2.426673 -0.291352
v -1.977216 2.187245 1.025989
v 1.680451 2.413760 -1.412316
v -0.676181 2.351190 -2.167655
v 0.646598 2.411202 -2.094990
v -1.211163 2.410705 1.828360
v 0.029888 2.426529 2.210466
v 1.233783 2.173403 1.969299
v 2.106512 2.160421 0.970214
v 2.275640 2.182800 -0.291212
v 1.780027 2.167076 -1.458916
v 0.713420 2.165416 -2.183944
v -0.761675 2.119540 -2.250933
v -1.896379 2.019554 -1.658936
v -2.346359 2.093502 -0.495373
v -2.070841 1.839015 1.097507
vt 0.097064 0.139852
vt 0.097064 0.430782
vt 0.090226 0.430782
vt 0.090225 0.139852
vt 0.297897 0.216560
vt 0.588827 0.216560
vt 0.588827 0.223399
vt 0.297897 0.223399
vt 0.626867 0.321020
vt 0.623241 0.321026
vt 0.623241 0.315735
vt 0.626867 0.315729
vt 0.853670 0.511771
vt 0.853670 0.802700
vt 0.846832 0.802700
vt 0.846831 0.511771
vt 0.841510 0.298605
vt 0.841510 0.007675
vt 0.848349 0.007675
vt 0.848349 0.298605
vt 0.459793 0.572878
vt 0.459793 0.863807
vt 0.452954 0.863807
vt 0.452953 0.572878
vt 0.430166 0.108702
vt 0.402737 0.106401
vt 0.402737 0.104163
vt 0.430166 0.101863
vt 0.084624 0.139852
vt 0.084624 0.430782
vt 0.077785 0.430782
vt 0.077785 0.139852
vt 0.053018 0.842463
vt 0.343948 0.842463
vt 0.343948 0.849302
vt 0.053018 0.849303
vt 0.558800 0.315729
vt 0.558800 0.321049
vt 0.554445 0.321036
vt 0.554450 0.315739
vt 0.364107 0.108702
vt 0.336678 0.106401
vt 0.336678 0.104163
vt 0.364107 0.101863
vt 0.331077 0.101863
vt 0.331077 0.108702
vt 0.303649 0.106401
vt 0.303649 0.104163
vt 0.271610 0.466542
vt 0.244182 0.464241
vt 0.244182 0.462003
vt 0.271610 0.459703
vt 0.435767 0.106401
vt 0.435767 0.104163
vt 0.463195 0.101863
vt 0.463195 0.108702
vt 0.244182 0.439361
vt 0.244182 0.437123
vt 0.271611 0.434822
vt 0.271611 0.441661
vt 0.578551 0.321026
vt 0.574294 0.321066
vt 0.574323 0.315749
vt 0.578551 0.315729
vt 0.726358 0.204619
vt 0.726358 0.199324
vt 0.728425 0.199334
vt 0.728425 0.204629
vt 0.586256 0.109243
vt 0.581937 0.109019
vt 0.581937 0.106691
vt 0.586256 0.106458
vt 0.713121 0.692020
vt 0.709393 0.691785
vt 0.709393 0.689305
vt 0.713121 0.688700
vt 0.603854 0.321070
vt 0.603854 0.315729
vt 0.607958 0.315760
vt 0.607958 0.321101
vt 0.728878 0.215563
vt 0.726336 0.215593
vt 0.726349 0.210283
vt 0.728878 0.210266
vt 0.458112 0.322072
vt 0.450937 0.321441
vt 0.450937 0.319115
vt 0.458112 0.318446
vt 0.533074 0.419297
vt 0.528751 0.419173
vt 0.528751 0.417004
vt 0.533074 0.416702
vt 0.511540 0.109131
vt 0.511512 0.106538
vt 0.516853 0.106535
vt 0.516853 0.109156
vt 0.601810 0.096911
vt 0.601777 0.091592
vt 0.605969 0.091657
vt 0.605969 0.096954
vt 0.488947 0.209544
vt 0.488947 0.206909
vt 0.494632 0.206225
vt 0.494632 0.210260
vt 0.266425 0.666687
vt 0.266425 0.671983
vt 0.263623 0.671981
vt 0.263616 0.666671
vt 0.367870 0.510249
vt 0.365971 0.510043
vt 0.365971 0.507902
vt 0.367870 0.507633
vt 0.668561 0.102568
vt 0.668561 0.107864
vt 0.665776 0.107864
vt 0.665735 0.102555
vt 0.605910 0.107851
vt 0.601777 0.107912
vt 0.601807 0.102593
vt 0.605910 0.102555
vt 0.639962 0.102568
vt 0.643220 0.102555
vt 0.643220 0.107896
vt 0.639949 0.107885
vt 0.093193 0.683902
vt 0.093193 0.688261
vt 0.091612 0.686841
vt 0.648837 0.102565
vt 0.651679 0.102555
vt 0.651679 0.107870
vt 0.648821 0.107885
vt 0.644509 0.321026
vt 0.641388 0.321053
vt 0.641413 0.315740
vt 0.644509 0.315729
vt 0.273915 0.666671
vt 0.273915 0.671418
vt 0.272026 0.669042
vt 0.684024 0.105847
vt 0.684024 0.102812
vt 0.687751 0.102555
vt 0.687751 0.106618
vt 0.657289 0.102563
vt 0.660134 0.102555
vt 0.660134 0.107870
vt 0.657280 0.107883
vt 0.630867 0.107868
vt 0.630839 0.102555
vt 0.634348 0.102591
vt 0.634348 0.107888
vt 0.744043 0.199324
vt 0.744043 0.203793
vt 0.742181 0.201042
vt 0.112317 0.555447
vt 0.112317 0.559968
vt 0.109865 0.559598
vt 0.109206 0.554896
vt 0.121681 0.558955
vt 0.117918 0.558495
vt 0.117918 0.555463
vt 0.121681 0.554896
vt 0.625238 0.107870
vt 0.621203 0.107912
vt 0.621203 0.102597
vt 0.625238 0.102555
vt 0.463721 0.321757
vt 0.463713 0.318916
vt 0.469382 0.318446
vt 0.469382 0.322796
vt 0.480652 0.322738
vt 0.474983 0.322323
vt 0.474991 0.319521
vt 0.480652 0.318446
vt 0.490297 0.096439
vt 0.490297 0.100702
vt 0.488634 0.098695
vt 0.268214 0.109390
vt 0.261108 0.109051
vt 0.261108 0.106342
vt 0.268214 0.105166
vt 0.500234 0.209497
vt 0.500234 0.206891
vt 0.505951 0.206225
vt 0.505951 0.210217
vt 0.734026 0.200169
vt 0.736580 0.199324
vt 0.736580 0.203422
vt 0.734026 0.202704
vt 0.532682 0.109112
vt 0.532682 0.106764
vt 0.537000 0.106535
vt 0.537000 0.109344
vt 0.718723 0.688700
vt 0.720605 0.689008
vt 0.720605 0.691856
vt 0.718723 0.692181
vt 0.434788 0.711338
vt 0.434788 0.713781
vt 0.431050 0.713999
vt 0.431050 0.710728
vt 0.540539 0.206225
vt 0.544285 0.206708
vt 0.544285 0.209774
vt 0.540539 0.210329
vt 0.293634 0.109359
vt 0.286525 0.109037
vt 0.286525 0.106348
vt 0.293634 0.105166
vt 0.445336 0.322397
vt 0.438161 0.321717
vt 0.438161 0.319182
vt 0.445336 0.318446
vt 0.548600 0.419027
vt 0.548600 0.416882
vt 0.550481 0.416702
vt 0.550481 0.419323
vt 0.598253 0.315765
vt 0.598253 0.321055
vt 0.594048 0.321048
vt 0.594015 0.315729
vt 0.564412 0.321049
vt 0.564401 0.315729
vt 0.568693 0.315768
vt 0.568693 0.321064
vt 0.734670 0.214229
vt 0.734480 0.210609
vt 0.736803 0.210266
vt 0.736803 0.214625
vt 0.244182 0.451801
vt 0.244182 0.449563
vt 0.271610 0.447262
vt 0.271610 0.454101
vt 0.273815 0.108194
vt 0.273815 0.105496
vt 0.280924 0.105166
vt 0.280924 0.109371
vt 0.744278 0.210674
vt 0.744278 0.214021
vt 0.742404 0.214356
vt 0.742404 0.210266
vt 0.425451 0.321364
vt 0.425451 0.318712
vt 0.432560 0.318446
vt 0.432560 0.322581
vt 0.505911 0.109377
vt 0.500228 0.109132
vt 0.500229 0.107276
vt 0.505911 0.106535
vt 0.542999 0.417028
vt 0.542999 0.419154
vt 0.538676 0.419245
vt 0.538676 0.416702
vt 0.397136 0.108702
vt 0.369708 0.106401
vt 0.369708 0.104163
vt 0.397136 0.101863
vt 0.527081 0.106535
vt 0.527081 0.109383
vt 0.522633 0.108941
vt 0.522455 0.106804
vt 0.534938 0.210453
vt 0.531213 0.210086
vt 0.531213 0.206927
vt 0.534938 0.206225
vt 0.635787 0.315736
vt 0.635787 0.321077
vt 0.632497 0.321046
vt 0.632468 0.315729
vt 0.718144 0.215576
vt 0.718140 0.210266
vt 0.720735 0.210283
vt 0.720735 0.215580
vt 0.425449 0.714496
vt 0.422654 0.715000
vt 0.423589 0.710842
vt 0.425449 0.710728
vt 0.546516 0.109366
vt 0.544631 0.109241
vt 0.544631 0.106708
vt 0.546516 0.106270
vt 0.488949 0.108647
vt 0.488947 0.106783
vt 0.494626 0.106535
vt 0.494626 0.109390
vt 0.428925 0.210587
vt 0.424605 0.210425
vt 0.424605 0.208697
vt 0.428925 0.208520
vt 0.611511 0.102572
vt 0.615601 0.102555
vt 0.615601 0.107896
vt 0.611511 0.107914
vt 0.584190 0.315741
vt 0.588414 0.315729
vt 0.588414 0.321020
vt 0.584152 0.321060
vt 0.613576 0.321046
vt 0.613559 0.315729
vt 0.617640 0.315751
vt 0.617640 0.321048
vt 0.720757 0.199324
vt 0.720757 0.204665
vt 0.718159 0.204647
vt 0.718140 0.199334
vt 0.515874 0.210218
vt 0.511552 0.209902
vt 0.511552 0.206564
vt 0.515874 0.206225
vt 0.442943 0.714827
vt 0.440389 0.713959
vt 0.440389 0.711633
vt 0.442943 0.710728
vt 0.749644 0.202942
vt 0.749644 0.199620
vt 0.751528 0.199324
vt 0.751528 0.203383
vt 0.103522 0.087018
vt 0.102666 0.084950
vt 0.103522 0.082882
vt 0.103522 0.077281
vt 0.102666 0.075213
vt 0.103522 0.073145
vt 0.103522 0.096755
vt 0.102666 0.094687
vt 0.103522 0.092619
vt 0.103522 0.106492
vt 0.102666 0.104424
vt 0.103522 0.102356
vt 0.103563 0.115718
vt 0.102666 0.113570
vt 0.103563 0.112093
vt 0.093171 0.668066
vt 0.091612 0.666184
vt 0.093171 0.663544
vt 0.093031 0.678301
vt 0.091612 0.675270
vt 0.093031 0.673667
vt 0.234614 0.220206
vt 0.233419 0.217858
vt 0.234614 0.216439
vt 0.860789 0.007675
vt 0.860789 0.298604
vt 0.853950 0.298604
vt 0.853950 0.007675
vt 0.525612 0.210361
vt 0.521476 0.210361
vt 0.521476 0.206225
vt 0.525612 0.206225
vt 0.993540 0.404251
vt 0.990900 0.404302
vt 0.991639 0.323168
vt 0.993540 0.323166
vt 0.359938 0.721207
vt 0.359938 0.817055
vt 0.358173 0.721260
vt 0.637764 0.749453
vt 0.639654 0.663788
vt 0.639654 0.749516
vt 0.837916 0.693305
vt 0.840099 0.582961
vt 0.840099 0.693741
vt 0.991244 0.597331
vt 0.993245 0.511771
vt 0.993245 0.597595
vt 0.993913 0.198206
vt 0.993913 0.281477
vt 0.991784 0.198645
vt 0.556136 0.990191
vt 0.556754 0.914560
vt 0.558925 0.915056
vt 0.558925 0.990689
vt 0.989698 0.926383
vt 0.987931 0.926329
vt 0.989698 0.832551
vt 0.995299 0.832616
vt 0.997199 0.832551
vt 0.997199 0.915533
vt 0.350825 0.990761
vt 0.348693 0.991188
vt 0.348088 0.914415
vt 0.350825 0.914167
vt 0.658533 0.985381
vt 0.654583 0.985460
vt 0.655238 0.913159
vt 0.658533 0.913077
vt 0.548354 0.855856
vt 0.550535 0.855409
vt 0.550535 0.963465
vt 0.992198 0.007141
vt 0.994197 0.006870
vt 0.994197 0.090056
vt 0.995036 0.183451
vt 0.992907 0.183000
vt 0.995036 0.102675
vt 0.581918 0.915103
vt 0.585319 0.914560
vt 0.585319 0.984316
vt 0.582538 0.984856
vt 0.710599 0.913132
vt 0.713280 0.913077
vt 0.713280 0.988409
vt 0.709944 0.988461
vt 0.072184 0.258262
vt 0.072184 0.333564
vt 0.068532 0.331533
vt 0.068532 0.256232
vt 0.983262 0.009245
vt 0.986597 0.006870
vt 0.986597 0.083526
vt 0.983272 0.086020
vt 0.300611 0.984927
vt 0.301435 0.914167
vt 0.303996 0.916037
vt 0.303996 0.987378
vt 0.840339 0.795186
vt 0.837916 0.793143
vt 0.840339 0.699342
vt 0.982330 0.918240
vt 0.979273 0.915433
vt 0.982330 0.832551
vt 0.369095 0.502032
vt 0.365971 0.499257
vt 0.369095 0.391671
vt 0.779754 0.967368
vt 0.775930 0.969051
vt 0.774900 0.901998
vt 0.779754 0.899877
vt 0.982571 0.710259
vt 0.979379 0.707699
vt 0.982571 0.626986
vt 0.976536 0.284031
vt 0.973261 0.200910
vt 0.976536 0.198206
vt 0.683113 0.988933
vt 0.683766 0.913077
vt 0.686497 0.913413
vt 0.686497 0.989243
vt 0.978370 0.183666
vt 0.975162 0.186299
vt 0.975011 0.105161
vt 0.978371 0.102675
vt 0.987306 0.105164
vt 0.987306 0.181639
vt 0.983972 0.179266
vt 0.983982 0.102675
vt 0.973296 0.818294
vt 0.970873 0.724532
vt 0.973296 0.722489
vt 0.391031 0.971482
vt 0.387269 0.973301
vt 0.386265 0.900972
vt 0.391031 0.898659
vt 0.981957 0.808221
vt 0.978898 0.725294
vt 0.981957 0.722489
vt 0.985298 0.398498
vt 0.981660 0.400553
vt 0.981660 0.325221
vt 0.985298 0.323166
vt 0.072184 0.250630
vt 0.069051 0.142617
vt 0.072184 0.139852
vt 0.365539 0.971642
vt 0.366545 0.898659
vt 0.370285 0.900522
vt 0.370285 0.973993
vt 0.788539 0.982739
vt 0.785355 0.902450
vt 0.788539 0.899877
vt 0.977660 0.092452
vt 0.974389 0.089743
vt 0.977660 0.006870
vt 0.982005 0.587103
vt 0.982005 0.511771
vt 0.985643 0.513826
vt 0.985643 0.589159
vt 0.847821 0.970172
vt 0.848826 0.897287
vt 0.852585 0.899112
vt 0.852585 0.972487
vt 0.794140 0.975742
vt 0.794141 0.899877
vt 0.797776 0.901937
vt 0.797776 0.977802
vt 0.174577 0.106749
vt 0.255507 0.107181
vt 0.255507 0.109072
vt 0.174520 0.109390
vt 0.648982 0.913128
vt 0.648982 0.985464
vt 0.645645 0.985409
vt 0.644989 0.913077
vt 0.416963 0.979746
vt 0.417118 0.898659
vt 0.420320 0.901299
vt 0.420320 0.982234
vt 0.318583 0.914735
vt 0.322602 0.914167
vt 0.322602 0.981228
vt 0.319205 0.981793
vt 0.890624 0.917072
vt 0.890624 0.987822
vt 0.888856 0.987793
vt 0.887942 0.917036
vt 0.871062 0.504375
vt 0.867288 0.506169
vt 0.866284 0.433872
vt 0.871062 0.431585
vt 0.731114 0.913156
vt 0.731114 0.988458
vt 0.728474 0.988376
vt 0.727819 0.913077
vt 0.537595 0.913007
vt 0.537595 0.985797
vt 0.534300 0.985716
vt 0.533645 0.912929
vt 0.524707 0.912983
vt 0.528044 0.912929
vt 0.528044 0.985751
vt 0.524051 0.985802
vt 0.312982 0.985496
vt 0.310422 0.987365
vt 0.309597 0.916618
vt 0.312982 0.914167
vt 0.639040 0.886839
vt 0.639040 0.968548
vt 0.635593 0.966067
vt 0.635711 0.884313
vt 0.816229 0.975779
vt 0.812616 0.977832
vt 0.812614 0.901972
vt 0.816229 0.899877
vt 0.486235 0.985915
vt 0.486898 0.912929
vt 0.490281 0.913253
vt 0.490281 0.986242
vt 0.803377 0.901937
vt 0.807013 0.899877
vt 0.807013 0.975744
vt 0.803378 0.977804
vt 0.356426 0.990819
vt 0.357033 0.914167
vt 0.359166 0.914596
vt 0.359166 0.991072
vt 0.505466 0.913208
vt 0.509448 0.912929
vt 0.509448 0.985821
vt 0.506127 0.986098
vt 0.564526 0.915058
vt 0.567314 0.914560
vt 0.567314 0.990194
vt 0.565143 0.990689
vt 0.515049 0.915356
vt 0.518450 0.912929
vt 0.518450 0.988560
vt 0.515049 0.990988
vt 0.375887 0.970956
vt 0.376890 0.898659
vt 0.380664 0.900454
vt 0.380664 0.973244
vt 0.745611 0.982833
vt 0.745611 0.913077
vt 0.749307 0.915026
vt 0.749307 0.984782
vt 0.988172 0.708737
vt 0.988830 0.626986
vt 0.990834 0.627227
vt 0.990834 0.708987
vt 0.495882 0.986301
vt 0.496544 0.912929
vt 0.499864 0.913204
vt 0.499864 0.986579
vt 0.677512 0.988955
vt 0.674783 0.989286
vt 0.674127 0.913387
vt 0.677512 0.913077
vt 0.842219 0.970662
vt 0.838461 0.972488
vt 0.837455 0.899602
vt 0.842219 0.897287
vt 0.722218 0.913129
vt 0.722218 0.988461
vt 0.719537 0.988406
vt 0.718881 0.913077
vt 0.396632 0.970989
vt 0.397636 0.898659
vt 0.401397 0.900479
vt 0.401397 0.973302
vt 0.821830 0.975707
vt 0.821832 0.899877
vt 0.825445 0.901924
vt 0.825445 0.977803
vt 0.229665 0.888653
vt 0.233111 0.886170
vt 0.233111 0.967886
vt 0.229783 0.970411
vt 0.986183 0.271678
vt 0.982800 0.272000
vt 0.982138 0.198531
vt 0.986183 0.198206
vt 0.754908 0.915026
vt 0.758604 0.913077
vt 0.758604 0.982832
vt 0.754908 0.984781
vt 0.164769 0.698810
vt 0.165798 0.631757
vt 0.169622 0.633441
vt 0.169622 0.700931
vt 0.973387 0.499636
vt 0.969646 0.501498
vt 0.968640 0.428516
vt 0.973387 0.426165
vt 0.740010 0.988378
vt 0.736715 0.988456
vt 0.737370 0.913159
vt 0.740010 0.913077
vt 0.701021 0.988942
vt 0.701682 0.913077
vt 0.704342 0.913340
vt 0.704342 0.989208
vt 0.764205 0.980563
vt 0.764827 0.913077
vt 0.768225 0.913638
vt 0.768225 0.981127
vt 0.987558 0.798121
vt 0.987558 0.722489
vt 0.990959 0.724917
vt 0.990959 0.800549
vt 0.988241 0.421789
vt 0.990902 0.421539
vt 0.990902 0.503256
vt 0.988899 0.503497
vt 0.692098 0.913343
vt 0.695420 0.913077
vt 0.695420 0.988944
vt 0.692760 0.989207
vt 0.880576 0.917064
vt 0.882341 0.917036
vt 0.882341 0.988366
vt 0.879660 0.988401
vt 0.978988 0.428195
vt 0.982639 0.426165
vt 0.982639 0.501466
vt 0.978988 0.503497
vt 0.572915 0.984313
vt 0.573536 0.914560
vt 0.576316 0.915100
vt 0.576316 0.984855
vt 0.389006 0.510003
vt 0.384731 0.509176
vt 0.384658 0.500116
vt 0.389006 0.500095
vt 0.419850 0.229614
vt 0.419850 0.323480
vt 0.362723 0.318504
vt 0.365648 0.230964
vt 0.112081 0.270945
vt 0.109206 0.223023
vt 0.207876 0.216439
vt 0.207876 0.274256
vt 0.227818 0.231897
vt 0.223512 0.231144
vt 0.223451 0.216439
vt 0.227818 0.216442
vt 0.367094 0.721525
vt 0.446188 0.721207
vt 0.446188 0.770792
vt 0.365539 0.770530
vt 0.942478 0.183426
vt 0.942502 0.103158
vt 0.954514 0.102675
vt 0.954514 0.183981
vt 0.247927 0.965097
vt 0.238731 0.964948
vt 0.238712 0.886396
vt 0.247927 0.886170
vt 0.179074 0.557579
vt 0.180667 0.474192
vt 0.235206 0.472558
vt 0.235206 0.560146
vt 0.137367 0.886171
vt 0.137367 0.965396
vt 0.128201 0.965337
vt 0.128174 0.886477
vt 0.223224 0.886585
vt 0.223224 0.965901
vt 0.219009 0.965584
vt 0.219094 0.886171
vt 0.233062 0.373318
vt 0.173935 0.369404
vt 0.173935 0.283771
vt 0.233062 0.279857
vt 0.458153 0.419418
vt 0.402314 0.419078
vt 0.399757 0.330632
vt 0.458153 0.329081
vt 0.554038 0.516685
vt 0.554038 0.569544
vt 0.468582 0.570320
vt 0.465394 0.516253
vt 0.675321 0.067917
vt 0.675321 0.093574
vt 0.615081 0.095701
vt 0.613088 0.067266
vt 0.772652 0.778863
vt 0.723067 0.778779
vt 0.723565 0.699556
vt 0.772652 0.698114
vt 0.424605 0.201357
vt 0.427157 0.115357
vt 0.483346 0.114991
vt 0.483346 0.202918
vt 0.831210 0.102318
vt 0.835564 0.102216
vt 0.835564 0.190948
vt 0.831192 0.191055
vt 0.717466 0.815169
vt 0.644989 0.799713
vt 0.644989 0.775759
vt 0.717466 0.760303
vt 0.004302 0.663963
vt 0.086011 0.663544
vt 0.086011 0.712935
vt 0.002801 0.712833
vt 0.459793 0.516242
vt 0.459793 0.567277
vt 0.368127 0.565830
vt 0.365539 0.552221
vt 0.330655 0.715886
vt 0.282510 0.714792
vt 0.279672 0.634999
vt 0.330655 0.632709
vt 0.490297 0.090838
vt 0.431939 0.088241
vt 0.431893 0.005423
vt 0.490297 0.002801
vt 0.764312 0.784544
vt 0.768659 0.784464
vt 0.768659 0.875617
vt 0.764377 0.875472
vt 0.466031 0.507987
vt 0.465394 0.427340
vt 0.524786 0.425019
vt 0.524786 0.510652
vt 0.953374 0.627315
vt 0.963820 0.626986
vt 0.963820 0.711491
vt 0.952707 0.712505
vt 0.102060 0.525774
vt 0.102060 0.538904
vt 0.097706 0.538962
vt 0.097929 0.526705
vt 0.079358 0.969506
vt 0.069674 0.969279
vt 0.070429 0.887458
vt 0.079358 0.886171
vt 0.645255 0.602831
vt 0.693930 0.604029
vt 0.693930 0.692512
vt 0.645765 0.690173
vt 0.291664 0.449132
vt 0.287268 0.446822
vt 0.287288 0.434822
vt 0.291664 0.436281
vt 0.240083 0.007767
vt 0.298048 0.002801
vt 0.298048 0.099079
vt 0.243103 0.097783
vt 0.529309 0.408536
vt 0.528751 0.329524
vt 0.587700 0.329081
vt 0.587700 0.411101
vt 0.725334 0.236810
vt 0.725334 0.314954
vt 0.677798 0.284106
vt 0.677419 0.229614
vt 0.328203 0.979153
vt 0.328230 0.914394
vt 0.332574 0.914167
vt 0.332574 0.979146
vt 0.251529 0.335271
vt 0.240331 0.239547
vt 0.292393 0.230019
vt 0.292393 0.336608
vt 0.554038 0.663788
vt 0.554038 0.758967
vt 0.546070 0.753659
vt 0.543718 0.664197
vt 0.811800 0.403582
vt 0.762697 0.402903
vt 0.762922 0.323976
vt 0.811800 0.323166
vt 0.621156 0.595319
vt 0.623836 0.513092
vt 0.671759 0.511771
vt 0.671759 0.597230
vt 0.244182 0.342209
vt 0.292393 0.343265
vt 0.292393 0.429221
vt 0.244525 0.426580
vt 0.199141 0.974475
vt 0.199161 0.886171
vt 0.203464 0.886269
vt 0.203464 0.974997
vt 0.873060 0.924250
vt 0.859272 0.917268
vt 0.861029 0.838326
vt 0.873060 0.838866
vt 0.929677 0.415627
vt 0.921501 0.414662
vt 0.917248 0.330139
vt 0.929677 0.323166
vt 0.935892 0.595681
vt 0.935056 0.512454
vt 0.947414 0.511771
vt 0.947414 0.597624
vt 0.394156 0.386069
vt 0.297994 0.379636
vt 0.300748 0.332386
vt 0.394156 0.329081
vt 0.859272 0.632793
vt 0.872376 0.626986
vt 0.872376 0.734659
vt 0.865526 0.734681
vt 0.913524 0.832551
vt 0.913524 0.927730
vt 0.901369 0.924858
vt 0.901509 0.833336
vt 0.957397 0.732661
vt 0.965272 0.731383
vt 0.965272 0.818294
vt 0.954880 0.817379
vt 0.465828 0.656079
vt 0.515740 0.641126
vt 0.515740 0.722950
vt 0.465394 0.710942
vt 0.589544 0.504955
vt 0.530387 0.504339
vt 0.530787 0.427648
vt 0.589544 0.425019
vt 0.002801 0.734696
vt 0.075406 0.718536
vt 0.075406 0.773875
vt 0.002878 0.758650
vt 0.109206 0.118895
vt 0.169167 0.114991
vt 0.169167 0.210838
vt 0.111013 0.209213
vt 0.242176 0.526683
vt 0.240807 0.472558
vt 0.292169 0.475371
vt 0.292169 0.558706
vt 0.936870 0.732655
vt 0.949279 0.731383
vt 0.949279 0.813654
vt 0.936655 0.813631
vt 0.281667 0.434822
vt 0.281667 0.449073
vt 0.277212 0.448838
vt 0.277353 0.435523
vt 0.973778 0.716480
vt 0.969427 0.716703
vt 0.969421 0.627214
vt 0.973778 0.626986
vt 0.022452 0.840934
vt 0.034377 0.839248
vt 0.034377 0.930601
vt 0.022464 0.928956
vt 0.743567 0.790211
vt 0.758710 0.784464
vt 0.758710 0.874253
vt 0.743764 0.871568
vt 0.075570 0.500435
vt 0.072732 0.438685
vt 0.102068 0.439685
vt 0.102068 0.500791
vt 0.963263 0.832551
vt 0.963263 0.921719
vt 0.952910 0.920314
vt 0.952934 0.833952
vt 0.441531 0.776415
vt 0.445858 0.776393
vt 0.445858 0.861572
vt 0.441504 0.861565
vt 0.168919 0.109390
vt 0.109206 0.028072
vt 0.168919 0.002801
vt 0.354360 0.632709
vt 0.354360 0.707038
vt 0.336256 0.707193
vt 0.342057 0.634054
vt 0.605219 0.914560
vt 0.605219 0.974802
vt 0.600889 0.974205
vt 0.600884 0.914834
vt 0.059639 0.339508
vt 0.059639 0.433083
vt 0.005518 0.429813
vt 0.002801 0.343639
vt 0.879660 0.744127
vt 0.894440 0.740282
vt 0.894440 0.826950
vt 0.879665 0.823405
vt 0.952733 0.006870
vt 0.952733 0.097074
vt 0.942289 0.094343
vt 0.945886 0.007054
vt 0.426292 0.094805
vt 0.373357 0.082011
vt 0.368377 0.024173
vt 0.426292 0.002801
vt 0.919127 0.191666
vt 0.907114 0.191129
vt 0.907258 0.113264
vt 0.919127 0.111373
vt 0.554038 0.764821
vt 0.554038 0.849515
vt 0.549587 0.849199
vt 0.549672 0.764569
vt 0.708412 0.405164
vt 0.708207 0.323858
vt 0.757095 0.323166
vt 0.757095 0.405983
vt 0.913618 0.626986
vt 0.913618 0.711064
vt 0.898815 0.706859
vt 0.898876 0.630795
vt 0.781149 0.513005
vt 0.781149 0.593298
vt 0.732761 0.590783
vt 0.732351 0.511771
vt 0.227729 0.252663
vt 0.223466 0.251695
vt 0.223451 0.237498
vt 0.227729 0.237967
vt 0.953041 0.291032
vt 0.943249 0.291659
vt 0.945604 0.202202
vt 0.953041 0.198206
vt 0.664134 0.913385
vt 0.668526 0.913077
vt 0.668526 0.981465
vt 0.664173 0.981792
vt 0.109206 0.369404
vt 0.111013 0.281495
vt 0.168334 0.279857
vt 0.168334 0.373318
vt 0.223763 0.272079
vt 0.223451 0.259982
vt 0.228193 0.258264
vt 0.228193 0.269834
vt 0.179733 0.464297
vt 0.179074 0.381089
vt 0.238136 0.378919
vt 0.238136 0.466957
vt 0.109315 0.880569
vt 0.053018 0.869517
vt 0.053018 0.865957
vt 0.109315 0.854904
vt 0.365539 0.596840
vt 0.444854 0.572878
vt 0.444854 0.629350
vt 0.366715 0.620918
vt 0.685183 0.067266
vt 0.685183 0.070825
vt 0.680922 0.069930
vt 0.680922 0.068161
vt 0.233111 0.854904
vt 0.233111 0.880569
vt 0.176814 0.869516
vt 0.176814 0.865957
vt 0.542533 0.877772
vt 0.486236 0.866722
vt 0.486235 0.863163
vt 0.542533 0.852107
vt 0.644989 0.894614
vt 0.701480 0.883522
vt 0.701480 0.907476
vt 0.644989 0.896384
vt 0.556136 0.867408
vt 0.556162 0.865638
vt 0.613186 0.855409
vt 0.613186 0.879404
vt 0.086824 0.516104
vt 0.082484 0.516204
vt 0.082493 0.506846
vt 0.086824 0.506392
vt 0.701286 0.852255
vt 0.701286 0.877921
vt 0.644989 0.866867
vt 0.644989 0.863308
vt 0.701463 0.846653
vt 0.645033 0.836298
vt 0.644989 0.832738
vt 0.701463 0.820770
vt 0.399812 0.507038
vt 0.399757 0.425019
vt 0.459793 0.436862
vt 0.459793 0.510641
vt 0.099023 0.602413
vt 0.100304 0.576516
vt 0.173473 0.565747
vt 0.173473 0.626156
vt 0.359310 0.627108
vt 0.280914 0.617251
vt 0.279672 0.591572
vt 0.359310 0.570188
vt 0.866408 0.106707
vt 0.881082 0.102079
vt 0.881082 0.192605
vt 0.866390 0.188531
vt 0.477378 0.962429
vt 0.468721 0.960231
vt 0.465394 0.883293
vt 0.477378 0.883918
vt 0.835908 0.296272
vt 0.784671 0.298605
vt 0.810511 0.229614
vt 0.835908 0.233310
vt 0.852359 0.402298
vt 0.817401 0.343654
vt 0.852359 0.323166
vt 0.962065 0.323166
vt 0.962065 0.420563
vt 0.953280 0.415981
vt 0.953261 0.325053
vt 0.858967 0.327427
vt 0.873373 0.323166
vt 0.873373 0.425638
vt 0.857960 0.420292
vt 0.554434 0.148706
vt 0.604356 0.114991
vt 0.604356 0.200844
vt 0.553322 0.203729
vt 0.825591 0.191055
vt 0.774723 0.180882
vt 0.775131 0.126318
vt 0.825591 0.114991
vt 0.960198 0.102996
vt 0.969410 0.102675
vt 0.969410 0.187047
vt 0.960115 0.187871
vt 0.618790 0.874219
vt 0.618787 0.790988
vt 0.633386 0.787031
vt 0.633386 0.878712
vt 0.002801 0.231794
vt 0.002801 0.143757
vt 0.062762 0.139852
vt 0.062762 0.235699
vt 0.911647 0.426165
vt 0.911647 0.505443
vt 0.899999 0.504536
vt 0.899630 0.426393
vt 0.298664 0.394319
vt 0.357051 0.391671
vt 0.357051 0.479708
vt 0.297994 0.477420
vt 0.407008 0.974746
vt 0.406998 0.898659
vt 0.411362 0.898819
vt 0.411362 0.974902
vt 0.159168 0.703921
vt 0.099023 0.690013
vt 0.107526 0.635219
vt 0.159168 0.631757
vt 0.103605 0.067543
vt 0.002801 0.045378
vt 0.103605 0.002801
vt 0.866390 0.091794
vt 0.866773 0.011281
vt 0.881522 0.007675
vt 0.881522 0.096478
vt 0.968864 0.938353
vt 0.969398 0.832551
vt 0.973672 0.833054
vt 0.973672 0.939874
vt 0.901920 0.198206
vt 0.901920 0.282962
vt 0.887003 0.279192
vt 0.886975 0.201873
vt 0.878974 0.420008
vt 0.893475 0.416062
vt 0.893475 0.504084
vt 0.878978 0.500276
vt 0.615555 0.597230
vt 0.561019 0.590568
vt 0.559639 0.533666
vt 0.615555 0.516253
vt 0.831596 0.222365
vt 0.774775 0.212174
vt 0.774723 0.208614
vt 0.831596 0.196656
vt 0.846831 0.433834
vt 0.860683 0.434006
vt 0.860683 0.506169
vt 0.851089 0.504837
vt 0.703527 0.503231
vt 0.652703 0.494652
vt 0.652399 0.435788
vt 0.703527 0.418859
vt 0.596175 0.091592
vt 0.596175 0.100595
vt 0.591894 0.100770
vt 0.591947 0.092344
vt 0.179074 0.599980
vt 0.180326 0.574181
vt 0.258015 0.565747
vt 0.258015 0.623809
vt 0.566381 0.101166
vt 0.562143 0.100465
vt 0.562045 0.092023
vt 0.566381 0.091592
vt 0.546181 0.652931
vt 0.546430 0.575921
vt 0.550782 0.575971
vt 0.550782 0.653256
vt 0.616433 0.291581
vt 0.617763 0.236241
vt 0.671817 0.229614
vt 0.671817 0.308836
vt 0.447845 0.950602
vt 0.447787 0.870088
vt 0.459793 0.869408
vt 0.459793 0.950979
vt 0.925739 0.284827
vt 0.928071 0.198904
vt 0.937648 0.198206
vt 0.937648 0.286834
vt 0.292296 0.224418
vt 0.240331 0.214733
vt 0.251805 0.116511
vt 0.292296 0.114991
vt 0.726750 0.594874
vt 0.677360 0.594734
vt 0.677957 0.513166
vt 0.726750 0.511771
vt 0.152164 0.965265
vt 0.142968 0.964944
vt 0.142998 0.886212
vt 0.152164 0.886171
vt 0.718140 0.127722
vt 0.769122 0.114991
vt 0.769122 0.193723
vt 0.718591 0.182713
vt 0.893213 0.626986
vt 0.893213 0.714349
vt 0.877977 0.708854
vt 0.878200 0.629632
vt 0.941544 0.631051
vt 0.947106 0.626986
vt 0.947106 0.720177
vt 0.936840 0.718219
vt 0.919049 0.820202
vt 0.921696 0.731508
vt 0.931054 0.731383
vt 0.931054 0.824575
vt 0.907399 0.011431
vt 0.919127 0.007675
vt 0.919127 0.105772
vt 0.907403 0.103111
vt 0.543058 0.789145
vt 0.543058 0.814975
vt 0.486235 0.802784
vt 0.486288 0.799225
vt 0.179074 0.733917
vt 0.179142 0.708252
vt 0.251288 0.693063
vt 0.251288 0.749877
vt 0.731385 0.258857
vt 0.779070 0.229614
vt 0.779070 0.305397
vt 0.730935 0.312390
vt 0.073308 0.779476
vt 0.073308 0.833647
vt 0.002801 0.811499
vt 0.005126 0.785939
vt 0.895767 0.832551
vt 0.895767 0.911435
vt 0.879660 0.906680
vt 0.880650 0.834523
vt 0.947660 0.324674
vt 0.947660 0.407864
vt 0.935437 0.407536
vt 0.935278 0.323166
vt 0.068129 0.594283
vt 0.093167 0.583614
vt 0.093167 0.649009
vt 0.075813 0.654991
vt 0.246831 0.814237
vt 0.184030 0.809722
vt 0.179074 0.784538
vt 0.246831 0.755478
vt 0.446991 0.640667
vt 0.446991 0.705127
vt 0.422654 0.694797
vt 0.430321 0.634951
vt 0.171130 0.887135
vt 0.180099 0.886171
vt 0.180099 0.963490
vt 0.170894 0.962917
vt 0.629992 0.884313
vt 0.629992 0.966422
vt 0.618787 0.887803
vt 0.276939 0.886170
vt 0.276939 0.965131
vt 0.268329 0.889533
vt 0.967659 0.198206
vt 0.967659 0.289560
vt 0.958642 0.286269
vt 0.958675 0.201118
vt 0.419003 0.114991
vt 0.419003 0.207862
vt 0.361168 0.187770
vt 0.365709 0.128340
vt 0.922594 0.602704
vt 0.917594 0.514042
vt 0.929455 0.511771
vt 0.929455 0.607374
vt 0.820119 0.002801
vt 0.820119 0.104881
vt 0.805480 0.100627
vt 0.804369 0.008629
vt 0.465394 0.793463
vt 0.480634 0.789145
vt 0.480634 0.877692
vt 0.466038 0.874115
vt 0.482897 0.107623
vt 0.478628 0.106740
vt 0.478601 0.097198
vt 0.482897 0.096949
vt 0.631978 0.720711
vt 0.559787 0.705751
vt 0.559639 0.680086
vt 0.631978 0.663788
vt 0.279672 0.760710
vt 0.279733 0.736757
vt 0.352251 0.721487
vt 0.352251 0.776520
vt 0.540580 0.635525
vt 0.467036 0.626045
vt 0.465394 0.600213
vt 0.540580 0.575921
vt 0.099023 0.748431
vt 0.099188 0.724477
vt 0.171769 0.709522
vt 0.171769 0.764971
vt 0.522060 0.720005
vt 0.521341 0.645680
vt 0.537006 0.641126
vt 0.537006 0.722328
vt 0.717465 0.754702
vt 0.645320 0.739510
vt 0.645255 0.713844
vt 0.717465 0.698114
vt 0.723067 0.870347
vt 0.723235 0.787158
vt 0.737966 0.784464
vt 0.737966 0.875987
vt 0.076883 0.517286
vt 0.072812 0.516121
vt 0.072732 0.506392
vt 0.076883 0.506464
vt 0.590964 0.976376
vt 0.590920 0.914560
vt 0.595283 0.914667
vt 0.595283 0.976904
vt 0.927208 0.095544
vt 0.924729 0.008912
vt 0.936688 0.007675
vt 0.936688 0.097074
vt 0.262728 0.886170
vt 0.262728 0.963962
vt 0.253631 0.962438
vt 0.253528 0.886375
vt 0.774900 0.883184
vt 0.774900 0.881414
vt 0.831391 0.870322
vt 0.831391 0.894276
vt 0.468840 0.108684
vt 0.468796 0.096949
vt 0.472999 0.097404
vt 0.472999 0.108702
vt 0.303649 0.092348
vt 0.303649 0.006715
vt 0.362776 0.002801
vt 0.362776 0.096262
vt 0.542726 0.907327
vt 0.486235 0.896235
vt 0.486235 0.894466
vt 0.542726 0.883373
vt 0.421836 0.837612
vt 0.421836 0.863280
vt 0.365539 0.852225
vt 0.365539 0.848665
vt 0.707081 0.894614
vt 0.763572 0.883522
vt 0.763572 0.907476
vt 0.707081 0.896384
vt 0.774900 0.851859
vt 0.831391 0.840767
vt 0.831391 0.864721
vt 0.774900 0.853629
vt 0.556136 0.896097
vt 0.612627 0.885005
vt 0.612627 0.908959
vt 0.556136 0.897867
vt 0.357102 0.897474
vt 0.300611 0.908566
vt 0.300611 0.884612
vt 0.357102 0.895704
vt 0.818111 0.688742
vt 0.820235 0.582961
vt 0.832314 0.583693
vt 0.832314 0.692512
vt 0.750452 0.683099
vt 0.699654 0.671581
vt 0.699531 0.614767
vt 0.750452 0.602831
vt 0.859637 0.745036
vt 0.874059 0.740282
vt 0.874059 0.832725
vt 0.859272 0.829407
vt 0.835553 0.002801
vt 0.835553 0.096276
vt 0.825720 0.006285
vt 0.586293 0.091592
vt 0.586293 0.100836
vt 0.581937 0.100857
vt 0.582010 0.092238
vt 0.712539 0.114991
vt 0.712539 0.217814
vt 0.672268 0.180698
vt 0.919219 0.711567
vt 0.923579 0.626986
vt 0.931239 0.627093
vt 0.931239 0.717297
vt 0.911993 0.607374
vt 0.902373 0.606037
vt 0.899717 0.517340
vt 0.911993 0.511771
vt 0.812021 0.571396
vt 0.786750 0.511771
vt 0.841230 0.519561
vt 0.841230 0.574302
vt 0.832314 0.757064
vt 0.778253 0.763906
vt 0.805257 0.701055
vt 0.832314 0.698114
vt 0.559639 0.636678
vt 0.560805 0.612711
vt 0.639654 0.602831
vt 0.639654 0.658187
vt 0.234482 0.006705
vt 0.234482 0.094743
vt 0.174520 0.098647
vt 0.174521 0.002801
vt 0.963039 0.506050
vt 0.953608 0.505386
vt 0.953261 0.426165
vt 0.963039 0.426207
vt 0.936877 0.104065
vt 0.936877 0.190161
vt 0.924829 0.190019
vt 0.924729 0.102675
vt 0.209413 0.969026
vt 0.209065 0.886171
vt 0.213408 0.886279
vt 0.213408 0.969289
vt 0.297994 0.319566
vt 0.297994 0.233933
vt 0.357122 0.230019
vt 0.357122 0.323480
vt 0.653736 0.410439
vt 0.654239 0.325566
vt 0.702606 0.323166
vt 0.702606 0.409203
vt 0.693519 0.087241
vt 0.693849 0.005448
vt 0.741934 0.002801
vt 0.741934 0.086202
vt 0.234730 0.210838
vt 0.174769 0.206933
vt 0.174769 0.118895
vt 0.234730 0.114991
vt 0.936794 0.834996
vt 0.947309 0.832551
vt 0.947309 0.925376
vt 0.936885 0.924785
vt 0.379056 0.500095
vt 0.379056 0.510423
vt 0.374696 0.510568
vt 0.374746 0.500757
vt 0.853670 0.889503
vt 0.837455 0.891686
vt 0.841647 0.810965
vt 0.853670 0.808302
vt 0.168431 0.537776
vt 0.109206 0.549295
vt 0.109286 0.469359
vt 0.168431 0.465725
vt 0.256890 0.795456
vt 0.263514 0.693197
vt 0.271936 0.693063
vt 0.271936 0.801883
vt 0.859272 0.514595
vt 0.873185 0.511771
vt 0.873185 0.619444
vt 0.861779 0.621384
vt 0.179074 0.662874
vt 0.180624 0.638747
vt 0.254640 0.629411
vt 0.254640 0.687462
vt 0.703792 0.692260
vt 0.699532 0.691365
vt 0.699531 0.689595
vt 0.703792 0.688700
vt 0.016851 0.842366
vt 0.016851 0.920877
vt 0.002801 0.918044
vt 0.006521 0.839248
vt 0.556444 0.101191
vt 0.552179 0.100436
vt 0.552118 0.091608
vt 0.556444 0.091592
vt 0.709128 0.484907
vt 0.709515 0.429875
vt 0.760089 0.418859
vt 0.760089 0.497719
vt 0.291607 0.454734
vt 0.291607 0.466088
vt 0.287268 0.466291
vt 0.287351 0.455586
vt 0.417053 0.715606
vt 0.365947 0.704491
vt 0.365539 0.647904
vt 0.417053 0.634951
vt 0.171213 0.880569
vt 0.114916 0.869516
vt 0.114916 0.865957
vt 0.171213 0.854904
vt 0.826994 0.501524
vt 0.826607 0.415429
vt 0.841230 0.412136
vt 0.841230 0.506169
vt 0.901363 0.102079
vt 0.901363 0.188442
vt 0.886683 0.184452
vt 0.886697 0.105900
vt 0.609957 0.210398
vt 0.666576 0.198456
vt 0.666576 0.222682
vt 0.609976 0.212168
vt 0.493061 0.232148
vt 0.548843 0.229614
vt 0.548843 0.319681
vt 0.494706 0.318088
vt 0.355567 0.210959
vt 0.297897 0.206841
vt 0.300704 0.118240
vt 0.355567 0.114991
vt 0.193540 0.886171
vt 0.193540 0.971363
vt 0.185701 0.969882
vt 0.805097 0.832406
vt 0.778253 0.769508
vt 0.831391 0.776006
vt 0.831391 0.835166
vt 0.062804 0.241300
vt 0.062804 0.333907
vt 0.016789 0.322828
vt 0.002801 0.247042
vt 0.427856 0.869273
vt 0.439804 0.868881
vt 0.439804 0.950591
vt 0.427800 0.949928
vt 0.878974 0.328064
vt 0.894067 0.323166
vt 0.894067 0.410461
vt 0.879289 0.406795
vt 0.342487 0.979562
vt 0.338177 0.978862
vt 0.338176 0.914401
vt 0.342487 0.914167
vt 0.071286 0.426092
vt 0.065240 0.342812
vt 0.071286 0.339508
vt 0.598801 0.223399
vt 0.594484 0.222784
vt 0.594428 0.215124
vt 0.598801 0.215166
vt 0.919125 0.835770
vt 0.931193 0.832551
vt 0.931193 0.925012
vt 0.922775 0.924729
vt 0.646798 0.418859
vt 0.646798 0.504955
vt 0.595145 0.487993
vt 0.595447 0.427585
vt 0.238712 0.880568
vt 0.238712 0.854904
vt 0.295010 0.865958
vt 0.295010 0.869518
vt 0.093523 0.975339
vt 0.084999 0.973497
vt 0.084959 0.888318
vt 0.093523 0.886171
vt 0.488947 0.197986
vt 0.489015 0.117569
vt 0.547720 0.114991
vt 0.547720 0.200624
vt 0.047330 0.926159
vt 0.039978 0.845621
vt 0.047330 0.839248
vt 0.947565 0.505360
vt 0.936097 0.501873
vt 0.936412 0.418863
vt 0.947565 0.416733
vt 0.435902 0.832011
vt 0.367912 0.823776
vt 0.365539 0.798220
vt 0.435902 0.776393
vt 0.584826 0.789910
vt 0.613186 0.787031
vt 0.613186 0.841798
vt 0.559639 0.849808
vt 0.359310 0.485309
vt 0.359310 0.564587
vt 0.308611 0.551829
vt 0.297994 0.501649
vt 0.894116 0.511771
vt 0.894116 0.598354
vt 0.878786 0.594255
vt 0.879342 0.515397
vt 0.911647 0.323166
vt 0.911647 0.420563
vt 0.899827 0.418272
vt 0.899669 0.324239
vt 0.887192 0.011866
vt 0.901798 0.007675
vt 0.901798 0.093629
vt 0.887123 0.089730
vt 0.610832 0.229614
vt 0.610832 0.310128
vt 0.559295 0.297267
vt 0.554445 0.243314
vt 0.798768 0.080120
vt 0.747535 0.070635
vt 0.748477 0.015525
vt 0.798768 0.002801
vt 0.902862 0.731383
vt 0.913448 0.733475
vt 0.913448 0.826950
vt 0.901369 0.824862
vt 0.102068 0.506392
vt 0.102068 0.519872
vt 0.097706 0.520173
vt 0.097815 0.507397
vt 0.607487 0.002801
vt 0.607487 0.085991
vt 0.552118 0.066910
vt 0.553459 0.008864
vt 0.357612 0.879011
vt 0.300638 0.868899
vt 0.300611 0.867129
vt 0.357612 0.854904
vt 0.766120 0.421145
vt 0.814706 0.418859
vt 0.814706 0.496651
vt 0.765691 0.497837
vt 0.613088 0.026829
vt 0.687918 0.002801
vt 0.687918 0.061665
vt 0.614301 0.051024
vt 0.487460 0.312845
vt 0.425451 0.299372
vt 0.436656 0.241692
vt 0.487460 0.229614
vt 0.685183 0.085587
vt 0.685183 0.089147
vt 0.680922 0.088252
vt 0.680922 0.086482
vt 0.171499 0.825138
vt 0.099023 0.809983
vt 0.099023 0.786029
vt 0.171499 0.770572
vt 0.263616 0.681144
vt 0.263616 0.677584
vt 0.267876 0.678479
vt 0.267876 0.680249
vt 0.170990 0.554896
vt 0.170990 0.558456
vt 0.166729 0.557561
vt 0.166729 0.555791
vt 0.131543 0.558456
vt 0.127282 0.557561
vt 0.127282 0.555791
vt 0.131543 0.554896
vt 0.685183 0.079986
vt 0.680922 0.079091
vt 0.680922 0.077321
vt 0.685183 0.076427
vt 0.141405 0.554896
vt 0.141405 0.558456
vt 0.137144 0.557561
vt 0.137144 0.555791
vt 0.147006 0.554896
vt 0.151266 0.555791
vt 0.151266 0.557561
vt 0.147006 0.558456
vt 0.161128 0.558456
vt 0.156868 0.557561
vt 0.156868 0.555791
vt 0.161128 0.554896
vt 0.365539 0.880976
vt 0.365563 0.879206
vt 0.422199 0.868881
vt 0.422199 0.893058
vt 0.678423 0.102555
vt 0.678423 0.106114
vt 0.674162 0.105219
vt 0.674162 0.103450
vt 0.002801 0.438685
vt 0.067131 0.446803
vt 0.067131 0.517934
vt 0.016892 0.506884
vt 0.099217 0.886584
vt 0.108540 0.886171
vt 0.108540 0.967528
vt 0.099124 0.968378
vt 0.930496 0.504726
vt 0.920067 0.505360
vt 0.917248 0.427613
vt 0.930496 0.421228
vt 0.005843 0.523535
vt 0.089015 0.524402
vt 0.089015 0.577329
vt 0.002801 0.578013
vt 0.976059 0.418488
vt 0.967666 0.417752
vt 0.967675 0.326599
vt 0.976059 0.323166
vt 0.693519 0.096707
vt 0.774256 0.092842
vt 0.774256 0.105694
vt 0.696971 0.105539
vt 0.217850 0.273107
vt 0.213512 0.272891
vt 0.213478 0.216954
vt 0.217850 0.216439
vt 0.648135 0.410439
vt 0.594609 0.404471
vt 0.593302 0.348014
vt 0.648135 0.329081
vt 0.666667 0.192855
vt 0.609957 0.180556
vt 0.615395 0.125205
vt 0.666667 0.114991
vt 0.093372 0.718536
vt 0.093372 0.816633
vt 0.084186 0.811197
vt 0.081007 0.722951
vt 0.632082 0.781430
vt 0.559639 0.765821
vt 0.559690 0.741867
vt 0.632082 0.726312
vt 0.010499 0.653477
vt 0.002801 0.597077
vt 0.062527 0.583614
vt 0.062527 0.657943
vt 0.173473 0.378919
vt 0.173473 0.452287
vt 0.109206 0.460123
vt 0.123549 0.389894
vt 0.523150 0.414715
vt 0.463754 0.412505
vt 0.464379 0.331758
vt 0.523150 0.329081
vt 0.263760 0.567768
vt 0.274003 0.565747
vt 0.274003 0.661070
vt 0.263616 0.660210
vt 0.537979 0.783544
vt 0.465459 0.768287
vt 0.465394 0.744334
vt 0.537979 0.728551
vt 0.866390 0.203619
vt 0.881374 0.198206
vt 0.881374 0.287240
vt 0.866585 0.284596
vt 0.097064 0.073145
vt 0.097064 0.134251
vt 0.018232 0.127373
vt 0.002801 0.081911
vt 0.486235 0.834667
vt 0.486268 0.831108
vt 0.542665 0.820576
vt 0.542665 0.846506
vt 0.281324 0.466662
vt 0.277212 0.466038
vt 0.277326 0.454879
vt 0.281324 0.454675
vt 0.546516 0.099213
vt 0.495898 0.100668
vt 0.528681 0.002801
vt 0.546516 0.005912
vt 0.576336 0.091592
vt 0.576336 0.101036
vt 0.571982 0.101006
vt 0.572037 0.092287
vt 0.756053 0.669574
vt 0.756182 0.614235
vt 0.806448 0.602831
vt 0.806448 0.681384
vt 0.102054 0.544563
vt 0.102054 0.554046
vt 0.097706 0.554226
vt 0.097756 0.545295
vt 0.920138 0.198206
vt 0.920138 0.291077
vt 0.907521 0.290650
vt 0.343948 0.782121
vt 0.343948 0.836862
vt 0.279672 0.805137
vt 0.165293 0.886171
vt 0.165293 0.974718
vt 0.157765 0.971222
vt 0.122573 0.886171
vt 0.122573 0.975570
vt 0.114916 0.967921
vt 0.953015 0.512617
vt 0.962756 0.511771
vt 0.962756 0.603775
vt 0.394156 0.494494
vt 0.374696 0.458537
vt 0.394156 0.391671
vt 0.064073 0.967044
vt 0.053018 0.964713
vt 0.064073 0.886171
vt 0.290881 0.963968
vt 0.282540 0.961794
vt 0.290881 0.886170
vt 0.976404 0.605261
vt 0.968357 0.516900
vt 0.976404 0.511771
vt 0.968787 0.091376
vt 0.958334 0.089065
vt 0.968787 0.006870
vn -0.3292 0.0000 0.9443
vn 0.9443 0.0000 0.3292
vn 0.5755 -0.0094 0.8178
vn -0.9005 0.0000 0.4349
vn -0.4349 -0.0000 -0.9005
vn -0.9443 -0.0000 -0.3292
vn -0.4259 0.2025 -0.8818
vn 0.9005 -0.0000 -0.4349
vn 0.3292 -0.0000 -0.9443
vn -0.5750 0.0160 -0.8180
vn -0.5692 0.0102 -0.8221
vn -0.5693 0.0102 -0.8221
vn 0.3223 0.2025 -0.9247
vn 0.9247 0.2025 0.3223
vn 0.4259 0.2025 0.8818
vn -0.3223 0.2025 0.9247
vn 0.8818 0.2025 -0.4259
vn 0.4805 0.0048 -0.8770
vn 0.4829 0.0070 -0.8756
vn 0.4827 0.0068 -0.8758
vn 0.4802 0.0045 -0.8772
vn -0.6111 -0.0025 0.7915
vn -0.9960 0.0848 -0.0283
vn -0.4899 0.2083 0.8466
vn -0.9898 0.0072 -0.1419
vn 0.9114 -0.0084 0.4114
vn 0.9132 -0.0105 0.4074
vn 0.9128 -0.0100 0.4083
vn 0.9109 -0.0079 0.4124
vn 0.5641 0.1982 0.8016
vn -0.5643 0.0975 -0.8198
vn 0.9997 -0.0002 0.0254
vn -0.9573 0.0024 0.2892
vn -0.9573 0.0023 0.2891
vn -0.9577 0.0013 0.2879
vn 0.9334 0.1932 -0.3023
vn 0.2851 -0.0053 0.9585
vn 0.2850 -0.0053 0.9585
vn 0.2696 -0.0138 0.9629
vn -0.6348 0.3001 -0.7120
vn -0.9996 0.0024 -0.0288
vn -0.9997 0.0061 -0.0216
vn 0.6289 0.0048 -0.7775
vn 0.6314 0.0073 -0.7755
vn 0.6312 0.0071 -0.7756
vn 0.6287 0.0047 -0.7776
vn -0.2024 0.0143 -0.9792
vn -0.2101 0.0095 -0.9776
vn -0.2090 0.0102 -0.9779
vn -0.2013 0.0150 -0.9794
vn 0.0038 1.0000 -0.0080
vn 0.0060 1.0000 -0.0071
vn 0.0032 1.0000 -0.0041
vn 0.0947 0.0133 -0.9954
vn 0.0869 0.0091 -0.9962
vn 0.0883 0.0099 -0.9960
vn 0.0962 0.0140 -0.9953
vn 0.8323 -0.0062 0.5542
vn 0.8346 -0.0086 0.5507
vn 0.8342 -0.0081 0.5514
vn 0.8319 -0.0057 0.5549
vn 0.0045 1.0000 0.0011
vn 0.0051 1.0000 -0.0001
vn 0.0049 1.0000 0.0007
vn 0.0831 0.2027 0.9757
vn 0.6606 -0.0147 0.7506
vn 0.6540 -0.0101 0.7565
vn 0.6552 -0.0109 0.7554
vn 0.6618 -0.0156 0.7495
vn -0.9983 -0.0009 0.0578
vn -0.0042 1.0000 0.0037
vn -0.0001 1.0000 0.0046
vn -0.0022 1.0000 0.0047
vn 0.0075 1.0000 0.0010
vn 0.0074 1.0000 0.0012
vn 0.0054 1.0000 0.0008
vn 0.0055 1.0000 0.0007
vn 0.9609 0.2400 0.1378
vn 0.9513 -0.0012 -0.3081
vn -0.5612 0.1764 -0.8086
vn 0.0675 0.1768 0.9819
vn 0.0672 0.1766 0.9820
vn -0.0109 0.9999 0.0039
vn -0.0104 0.9999 0.0023
vn -0.0079 1.0000 0.0026
vn 0.9523 0.1505 -0.2655
vn -0.9281 0.2196 0.3006
vn -0.0032 1.0000 -0.0045
vn 0.0030 1.0000 -0.0056
vn -0.0063 0.9999 -0.0098
vn 0.2682 0.0826 0.9598
vn -0.9626 0.2650 0.0572
vn -0.1949 0.2190 -0.9561
vn -0.9624 0.2341 -0.1380
vn -0.9461 0.1543 0.2849
vn -0.5639 0.1996 -0.8013
vn 0.9631 0.2679 0.0273
vn -0.5892 -0.0047 0.8080
vn -0.5927 -0.0081 0.8054
vn 0.0698 -0.0152 0.9974
vn 0.0697 -0.0152 0.9974
vn 0.0765 -0.0098 0.9970
vn -0.0015 1.0000 0.0042
vn -0.0039 1.0000 0.0026
vn -0.0007 1.0000 -0.0039
vn 0.0032 1.0000 -0.0021
vn -0.9247 0.2025 -0.3223
vn -0.5814 0.1534 0.7991
vn 0.4091 0.2624 -0.8740
vn 0.6233 0.1541 -0.7667
vn 0.0855 0.1914 -0.9778
vn 0.9091 0.0978 0.4049
vn -0.8818 0.2025 0.4259
vn -0.0048 0.9999 0.0097
vn -0.0028 1.0000 0.0054
vn -0.0024 1.0000 0.0055
vn -0.0044 0.9999 0.0101
vn 0.4712 0.2005 -0.8589
vn -0.4988 -0.0042 0.8667
vn -0.4988 -0.0043 0.8667
vn -0.5022 -0.0067 0.8647
vn -0.5023 -0.0067 0.8647
vn -0.5674 0.0138 -0.8234
vn -0.5673 0.0138 -0.8234
vn -0.5614 0.0103 -0.8275
vn 0.0003 1.0000 0.0027
vn -0.0058 1.0000 0.0030
vn -0.0071 1.0000 0.0004
vn 0.0001 1.0000 -0.0016
vn 0.7999 0.2713 0.5353
vn 0.6504 0.1876 0.7361
vn -0.6088 0.0878 0.7885
vn 0.4239 0.0094 -0.9057
vn 0.9628 -0.0021 -0.2703
vn 0.9630 -0.0015 -0.2696
vn 0.9626 -0.0026 -0.2710
vn 0.0771 -0.0140 0.9969
vn 0.0837 -0.0089 0.9965
vn 0.0837 -0.0090 0.9965
vn -0.6568 0.0078 -0.7540
vn -0.6629 0.0117 -0.7486
vn 0.6086 0.0915 -0.7882
vn 0.0070 0.9999 0.0112
vn 0.0040 1.0000 0.0057
vn -0.0020 1.0000 0.0072
vn -0.4087 0.2657 0.8731
vn 0.0000 1.0000 0.0000
vn -0.0072 0.9999 0.0074
vn -0.0037 1.0000 0.0048
vn -0.0038 0.9999 0.0093
vn 0.0078 1.0000 0.0023
vn 0.0080 1.0000 0.0011
vn 0.0086 1.0000 0.0002
vn -0.0080 0.9999 0.0105
vn -0.0051 0.9999 0.0108
vn -0.0030 0.9999 0.0125
vn 0.0072 1.0000 0.0004
vn 0.0023 1.0000 -0.0007
vn 0.0062 1.0000 -0.0029
vn 0.4349 0.0000 0.9005
vn 0.3408 0.7972 0.4984
vn 0.3628 0.7968 0.4832
vn 0.3629 0.7968 0.4832
vn 0.3906 -0.7632 -0.5148
vn -0.3908 -0.7629 -0.5150
vn -0.3537 -0.7467 0.5633
vn -0.6405 -0.7504 0.1632
vn 0.6497 -0.7596 0.0300
vn -0.3107 -0.8116 0.4948
vn -0.2790 -0.8148 0.5082
vn -0.3781 0.7796 0.4992
vn 0.3709 0.7861 0.4944
vn 0.6021 -0.7978 0.0321
vn 0.5984 -0.7989 0.0605
vn 0.2454 0.9035 0.3514
vn 0.2466 0.9035 0.3506
vn 0.2462 0.9035 0.3509
vn 0.2448 0.9035 0.3518
vn 0.3419 0.7658 -0.5446
vn 0.6110 0.7761 -0.1562
vn -0.6187 0.7850 -0.0313
vn 0.2064 0.8874 -0.4122
vn 0.2228 0.8864 -0.4058
vn 0.3014 -0.8676 -0.3954
vn 0.3002 -0.8677 -0.3963
vn 0.3010 -0.8676 -0.3957
vn 0.3022 -0.8676 -0.3948
vn -0.8057 -0.0026 0.5923
vn -0.1898 -0.0019 0.9818
vn -0.1958 0.0031 0.9806
vn -0.1938 0.0010 0.9810
vn -0.1893 -0.0057 0.9819
vn -0.7859 0.0195 -0.6180
vn -0.7838 0.0178 -0.6208
vn -0.7834 0.0149 -0.6213
vn -0.7849 0.0147 -0.6194
vn -0.7873 0.0202 -0.6162
vn -0.7877 0.0229 -0.6156
vn -0.7866 0.0218 -0.6170
vn -0.8413 -0.0303 0.5397
vn -0.8392 -0.0677 0.5397
vn -0.8314 -0.0636 0.5520
vn 0.9465 -0.0042 0.3227
vn -0.9589 0.0032 -0.2836
vn -0.9589 0.0035 -0.2837
vn -0.9590 0.0029 -0.2835
vn 0.2203 -0.0034 -0.9754
vn -0.3896 0.0210 -0.9207
vn -0.4924 0.8687 -0.0542
vn -0.4929 0.8686 -0.0509
vn -0.4916 0.8688 -0.0589
vn -0.4910 0.8689 -0.0622
vn 0.8299 0.0608 -0.5546
vn 0.8299 0.0609 -0.5545
vn 0.8082 0.0026 -0.5888
vn 0.2037 -0.0012 -0.9790
vn 0.2054 -0.0038 -0.9787
vn 0.2012 0.0025 -0.9795
vn 0.1994 0.0052 -0.9799
vn 0.8016 -0.0224 0.5974
vn 0.7854 -0.0100 0.6189
vn 0.7856 -0.0107 0.6187
vn 0.7858 -0.0107 0.6183
vn 0.7855 -0.0092 0.6188
vn 0.8134 0.0598 -0.5786
vn 0.7868 -0.0117 0.6171
vn 0.7871 -0.0111 0.6168
vn -0.9546 0.0038 -0.2979
vn -0.9567 0.0053 -0.2910
vn -0.9549 0.0102 -0.2968
vn 0.2260 0.0076 -0.9741
vn 0.2261 0.0072 -0.9741
vn -0.1880 0.0040 0.9822
vn -0.1928 0.0018 0.9812
vn -0.1888 0.0011 0.9820
vn 0.3608 -0.0186 0.9324
vn 0.3606 -0.0208 0.9325
vn 0.3616 -0.0203 0.9321
vn -0.7808 0.0120 -0.6247
vn -0.7782 0.0135 -0.6279
vn -0.7797 0.0110 -0.6260
vn -0.7806 0.0118 -0.6249
vn 0.3663 -0.0119 0.9304
vn 0.3666 -0.0119 0.9303
vn 0.3669 -0.0112 0.9302
vn 0.3668 -0.0105 0.9302
vn 0.3642 -0.0134 0.9312
vn 0.3654 -0.0147 0.9307
vn 0.3656 -0.0126 0.9307
vn 0.3642 -0.0124 0.9312
vn -0.3670 -0.7955 -0.4822
vn -0.3671 -0.7955 -0.4821
vn -0.3416 -0.7960 -0.4997
vn -0.2612 0.9036 0.3395
vn -0.2605 0.9036 0.3400
vn -0.2617 0.9036 0.3392
vn -0.8374 -0.0640 0.5428
vn -0.8227 -0.0466 0.5666
vn -0.8079 -0.0169 0.5891
vn -0.8150 -0.0024 0.5795
vn 0.1682 0.9244 -0.3424
vn 0.1615 0.9246 -0.3450
vn 0.1641 0.9245 -0.3439
vn 0.1709 0.9243 -0.3413
vn -0.3514 0.8132 0.4639
vn 0.7998 0.0028 -0.6002
vn 0.7993 0.0029 -0.6009
vn 0.7996 0.0024 -0.6006
vn 0.7995 0.0021 -0.6007
vn -0.2819 -0.8675 -0.4099
vn -0.2809 -0.8675 -0.4106
vn -0.2832 -0.8675 -0.4091
vn -0.2841 -0.8675 -0.4084
vn -0.2519 -0.8975 -0.3621
vn -0.2539 -0.8974 -0.3608
vn -0.2538 -0.8974 -0.3608
vn 0.2688 -0.8976 -0.3494
vn 0.2683 -0.8976 -0.3498
vn 0.2693 -0.8976 -0.3491
vn 0.7938 -0.0148 0.6081
vn 0.7967 -0.0224 0.6040
vn 0.7955 -0.0194 0.6056
vn 0.7925 -0.0117 0.6097
vn 0.3618 -0.0176 0.9321
vn 0.3640 -0.0179 0.9312
vn 0.3650 -0.0159 0.9309
vn 0.3629 -0.0156 0.9317
vn -0.2152 -0.0075 0.9765
vn -0.2161 -0.0058 0.9764
vn -0.2154 -0.0072 0.9765
vn -0.4223 0.9047 -0.0555
vn -0.4227 0.9047 -0.0536
vn -0.4219 0.9048 -0.0584
vn -0.4215 0.9048 -0.0604
vn -0.3749 0.0126 -0.9270
vn -0.3747 0.0148 -0.9270
vn -0.3735 0.0135 -0.9275
vn -0.3737 0.0129 -0.9274
vn -0.6022 0.7977 -0.0320
vn -0.6022 0.7977 -0.0321
vn -0.5985 0.7989 -0.0603
vn -0.5985 0.7989 -0.0604
vn 0.4067 0.9047 -0.1272
vn 0.4053 0.9047 -0.1313
vn 0.4059 0.9047 -0.1297
vn 0.4073 0.9046 -0.1255
vn 0.2790 0.8148 -0.5082
vn 0.2790 0.8148 -0.5081
vn 0.3107 0.8116 -0.4948
vn -0.9567 0.0026 -0.2909
vn -0.9581 -0.0036 -0.2863
vn -0.9586 0.0036 -0.2848
vn -0.8055 -0.0023 0.5926
vn 0.9559 -0.0038 0.2938
vn 0.9559 -0.0040 0.2936
vn -0.5885 -0.7944 0.1502
vn -0.5832 -0.7951 0.1660
vn -0.4192 -0.8987 0.1292
vn -0.4192 -0.8987 0.1291
vn -0.4172 -0.8987 0.1351
vn -0.4172 -0.8987 0.1350
vn 0.4916 -0.8688 0.0590
vn 0.4930 -0.8686 0.0507
vn 0.4924 -0.8687 0.0540
vn 0.4911 -0.8689 0.0623
vn -0.3761 0.0113 -0.9265
vn -0.3761 0.0120 -0.9265
vn -0.3755 0.0122 -0.9268
vn -0.3761 0.0104 -0.9265
vn -0.3014 0.8676 0.3954
vn -0.3001 0.8677 0.3964
vn -0.3023 0.8676 0.3948
vn -0.7797 0.0110 -0.6261
vn -0.7794 0.0107 -0.6264
vn -0.7795 0.0104 -0.6263
vn -0.7793 0.0094 -0.6266
vn 0.2252 0.0069 -0.9743
vn 0.2261 0.0053 -0.9741
vn -0.3738 0.0153 -0.9274
vn -0.3705 0.0205 -0.9286
vn -0.3712 0.0176 -0.9284
vn -0.3723 0.0157 -0.9280
vn 0.4342 -0.8988 0.0602
vn 0.4350 -0.8987 0.0551
vn 0.4347 -0.8988 0.0571
vn 0.4339 -0.8988 0.0622
vn -0.9588 0.0036 -0.2841
vn 0.9560 -0.0033 0.2933
vn -0.2161 -0.0077 0.9763
vn -0.2165 -0.0069 0.9763
vn 0.2819 0.8675 0.4099
vn 0.2840 0.8674 0.4085
vn 0.2830 0.8675 0.4092
vn 0.2808 0.8675 0.4107
vn -0.4756 -0.8687 0.1387
vn -0.4766 -0.8686 0.1357
vn -0.4742 -0.8688 0.1428
vn -0.4732 -0.8688 0.1457
vn -0.1773 -0.9182 0.3541
vn -0.1675 -0.9186 0.3579
vn 0.9557 -0.0038 0.2945
vn 0.5844 0.7943 -0.1664
vn 0.5844 0.7943 -0.1663
vn 0.5895 0.7935 -0.1508
vn 0.4756 0.8687 -0.1386
vn 0.4732 0.8688 -0.1457
vn 0.4742 0.8688 -0.1428
vn 0.4766 0.8686 -0.1357
vn 0.3577 -0.8064 -0.4709
vn 0.3575 -0.8064 -0.4711
vn 0.3573 -0.8064 -0.4713
vn 0.7998 0.0028 -0.6003
vn 0.8000 0.0031 -0.6000
vn -0.2228 -0.8864 0.4058
vn -0.2064 -0.8874 0.4122
vn 0.9202 -0.3752 0.1113
vn 0.9118 -0.3911 -0.1252
vn 0.5115 -0.1922 0.8375
vn 0.4897 -0.1459 0.8596
vn -0.9407 0.2856 0.1829
vn -0.9736 0.1902 0.1261
vn -0.9736 0.1902 0.1260
vn 0.3826 -0.5109 0.7698
vn 0.5049 -0.4995 0.7040
vn -0.9818 -0.0406 -0.1857
vn -0.9830 -0.0618 -0.1729
vn 0.5445 0.1441 -0.8263
vn 0.5446 0.1445 -0.8262
vn -0.5496 -0.0652 0.8329
vn -0.5493 -0.0640 0.8332
vn -0.5493 -0.0636 0.8332
vn -0.5495 -0.0624 0.8331
vn 0.4698 -0.0639 0.8805
vn 0.4913 -0.1013 0.8651
vn -0.9018 -0.0696 0.4264
vn -0.9017 -0.0710 0.4266
vn -0.9021 -0.0670 0.4262
vn -0.9023 -0.0656 0.4261
vn 0.0828 -0.9292 0.3601
vn 0.0830 -0.9290 0.3606
vn 0.0827 -0.9295 0.3594
vn -0.8918 -0.2254 0.3922
vn 0.0470 0.1251 -0.9910
vn 0.0265 0.1547 -0.9876
vn -0.9308 0.1245 -0.3436
vn -0.9205 0.0502 -0.3876
vn -0.9205 0.0503 -0.3876
vn 0.5461 -0.2201 -0.8083
vn 0.3461 -0.3083 -0.8861
vn -0.9034 -0.0413 0.4268
vn -0.9071 -0.0590 0.4167
vn -0.0479 -0.1251 0.9910
vn -0.0479 -0.1250 0.9910
vn -0.0268 -0.1544 0.9876
vn 0.3537 -0.9348 0.0308
vn 0.3541 -0.9347 0.0309
vn 0.2030 -0.7263 -0.6568
vn 0.9032 0.0405 -0.4272
vn 0.9070 0.0590 -0.4170
vn 0.9783 -0.0443 -0.2025
vn 0.9777 -0.0414 -0.2061
vn 0.9775 -0.0373 -0.2074
vn 0.9345 -0.0367 0.3542
vn 0.9390 -0.0185 0.3435
vn 0.5457 0.1544 -0.8236
vn 0.5454 0.1548 -0.8238
vn 0.0598 -0.9388 -0.3392
vn 0.0593 -0.9246 -0.3762
vn -0.9764 -0.1296 -0.1725
vn -0.9759 -0.1545 -0.1544
vn -0.6685 -0.4714 -0.5752
vn -0.7021 -0.3692 -0.6090
vn -0.7021 -0.3692 -0.6089
vn 0.8406 -0.2885 0.4585
vn 0.9285 -0.2720 0.2529
vn 0.2941 -0.0877 -0.9518
vn 0.2917 -0.0645 -0.9543
vn 0.0543 0.0559 -0.9970
vn 0.0500 0.0630 -0.9968
vn 0.0507 0.0618 -0.9968
vn 0.0551 0.0546 -0.9970
vn -0.4035 -0.2793 -0.8713
vn -0.6250 -0.2874 -0.7259
vn -0.6249 -0.2874 -0.7259
vn -0.5115 0.1888 -0.8383
vn -0.4896 0.1417 -0.8604
vn 0.7871 0.1901 0.5868
vn 0.7871 0.1900 0.5868
vn 0.8051 0.1585 0.5716
vn 0.2825 0.2504 0.9260
vn 0.3974 0.1335 0.9079
vn 0.7633 -0.4555 0.4581
vn 0.7802 -0.4585 0.4256
vn 0.9782 -0.1181 -0.1707
vn 0.9453 -0.2224 -0.2388
vn -0.4381 0.4165 -0.7966
vn -0.4607 0.3143 -0.8300
vn -0.5507 -0.0632 0.8323
vn -0.5494 -0.0624 0.8332
vn -0.5488 -0.0618 0.8336
vn -0.5510 -0.0637 0.8321
vn -0.9344 0.0363 -0.3544
vn -0.9344 0.0363 -0.3543
vn -0.9382 0.0206 -0.3454
vn -0.4692 0.0497 -0.8817
vn -0.4722 0.0753 -0.8783
vn -0.4478 0.0504 -0.8927
vn -0.4640 0.0396 -0.8850
vn -0.1252 -0.9381 0.3231
vn -0.0987 -0.9635 0.2487
vn 0.8398 0.3663 -0.4006
vn 0.7860 0.4849 -0.3835
vn -0.8660 0.3609 -0.3462
vn -0.8531 0.3968 -0.3387
vn -0.2921 0.1552 0.9437
vn -0.2923 0.1571 0.9433
vn -0.2917 0.1519 0.9444
vn -0.2915 0.1499 0.9448
vn 0.9391 -0.2902 -0.1842
vn 0.9729 -0.1938 -0.1260
vn 0.9027 -0.3663 -0.2259
vn 0.9027 -0.3662 -0.2259
vn 0.8659 -0.4484 -0.2216
vn -0.4240 0.4907 -0.7612
vn -0.4235 0.4921 -0.7606
vn -0.4249 0.4880 -0.7624
vn -0.4254 0.4867 -0.7630
vn -0.2687 -0.4858 -0.8317
vn -0.2580 -0.5215 -0.8133
vn 0.1879 -0.7931 -0.5794
vn 0.1824 -0.7863 -0.5903
vn -0.7897 -0.1876 -0.5841
vn -0.8066 -0.1585 -0.5695
vn -0.3778 -0.7251 0.5757
vn -0.3774 -0.7249 0.5763
vn -0.3792 -0.7260 0.5737
vn -0.3797 -0.7263 0.5730
vn 0.0138 0.2218 -0.9750
vn 0.0254 0.2044 -0.9786
vn 0.3951 -0.0949 -0.9137
vn 0.2886 -0.2102 -0.9341
vn 0.2887 -0.2102 -0.9341
vn -0.9173 0.1818 -0.3543
vn -0.9211 0.1490 -0.3597
vn -0.5322 -0.3550 0.7686
vn -0.5321 -0.3550 0.7686
vn -0.3302 -0.3778 0.8650
vn -0.0899 -0.9393 -0.3310
vn -0.0903 -0.9391 -0.3317
vn -0.0895 -0.9396 -0.3304
vn 0.4820 0.4831 -0.7309
vn 0.4832 0.4805 -0.7319
vn 0.4827 0.4815 -0.7315
vn 0.4815 0.4843 -0.7305
vn 0.2176 -0.9224 0.3192
vn 0.2162 -0.9233 0.3175
vn -0.3512 0.3092 0.8838
vn -0.3511 0.3092 0.8838
vn -0.5538 0.2161 0.8041
vn -0.4863 -0.4685 0.7376
vn -0.4867 -0.4676 0.7379
vn -0.4857 -0.4700 0.7371
vn -0.4853 -0.4709 0.7367
vn 0.1862 -0.9418 -0.2800
vn 0.1855 -0.9422 -0.2789
vn 0.1868 -0.9413 -0.2812
vn 0.9779 -0.0542 -0.2020
vn 0.9771 -0.0515 -0.2064
vn 0.9780 -0.0496 -0.2026
vn -0.7388 0.1966 0.6446
vn -0.7322 0.1534 0.6635
vn 0.7474 -0.5156 0.4190
vn 0.8326 -0.5487 0.0758
vn 0.8993 -0.1364 0.4155
vn 0.9041 -0.1853 0.3850
vn 0.1150 0.9306 0.3476
vn 0.1149 0.9307 0.3472
vn 0.8122 -0.4812 0.3299
vn 0.8121 -0.4812 0.3299
vn 0.8205 -0.4640 0.3339
vn 0.6126 -0.7863 -0.0809
vn 0.6969 -0.6871 -0.2055
vn 0.7444 0.1447 0.6519
vn 0.7444 0.1446 0.6519
vn 0.7421 0.2121 0.6358
vn -0.3564 -0.9288 -0.1015
vn -0.3356 -0.9375 -0.0918
vn -0.3356 -0.9375 -0.0917
vn 0.5498 0.0608 -0.8331
vn 0.5496 0.0604 -0.8333
vn 0.5509 0.0632 -0.8322
vn 0.5511 0.0637 -0.8320
vn -0.2859 -0.9263 -0.2455
vn -0.2851 -0.9268 -0.2445
vn -0.2870 -0.9256 -0.2469
vn -0.2877 -0.9251 -0.2478
vn 0.7482 0.1697 0.6414
vn 0.7987 0.0633 0.5984
vn 0.0849 -0.1185 -0.9893
vn -0.1767 -0.1152 -0.9775
vn 0.4625 -0.2921 0.8371
vn 0.4413 -0.3958 0.8053
vn 0.4414 -0.3958 0.8053
vn -0.8011 -0.4755 0.3637
vn -0.8009 -0.4757 0.3636
vn -0.7591 -0.4569 0.4638
vn -0.7594 -0.4563 0.4638
vn -0.0256 -0.2080 0.9778
vn -0.0138 -0.2254 0.9742
vn -0.0938 -0.0298 0.9951
vn -0.0939 -0.0298 0.9951
vn 0.1996 -0.0005 0.9799
vn 0.9007 0.1289 -0.4149
vn 0.9045 0.1539 -0.3977
vn 0.7344 0.6687 0.1162
vn 0.3488 -0.7372 0.5788
vn 0.3478 -0.7375 0.5790
vn 0.3545 -0.7354 0.5775
vn 0.3564 -0.7348 0.5771
vn -0.5216 0.7153 -0.4650
vn 0.4108 0.6687 -0.6198
vn 0.5550 0.6687 0.4948
vn -0.6806 -0.6687 0.2993
vn 0.6716 -0.6709 0.3145
vn 0.6706 -0.6703 0.3178
vn 0.6710 -0.6705 0.3165
vn 0.6718 -0.6710 0.3137
vn -0.3411 -0.1669 0.9251
vn -0.3412 -0.1669 0.9251
vn -0.0509 -0.1641 0.9851
vn 0.6807 0.6687 -0.2993
vn -0.7372 0.6688 0.0960
vn -0.7375 0.6686 0.0953
vn -0.7368 0.6691 0.0975
vn -0.7366 0.6692 0.0981
vn 0.8090 0.1221 0.5750
vn 0.8090 0.1222 0.5750
vn 0.7421 0.2231 0.6321
vn 0.0055 0.7245 -0.6892
vn 0.0090 0.7259 -0.6877
vn 0.0082 0.7256 -0.6881
vn 0.0053 0.7244 -0.6893
vn -0.6114 0.7387 -0.2838
vn -0.6113 0.7379 -0.2861
vn -0.6119 0.7410 -0.2764
vn -0.6120 0.7414 -0.2753
vn 0.1207 -0.9276 -0.3536
vn 0.1211 -0.9262 -0.3571
vn 0.7307 -0.2973 -0.6146
vn 0.7307 -0.2986 -0.6139
vn 0.7307 -0.2982 -0.6141
vn 0.7307 -0.2971 -0.6147
vn 0.1722 0.7231 0.6690
vn 0.1867 0.7179 0.6706
vn 0.1867 0.7179 0.6707
vn -0.7530 0.0702 0.6543
vn 0.0345 0.3474 -0.9371
vn 0.0345 0.3479 -0.9369
vn -0.3822 0.9099 0.1612
vn -0.4501 0.8785 0.1605
vn -0.2892 0.2140 0.9330
vn -0.3992 0.0930 0.9121
vn -0.4521 -0.7957 -0.4030
vn -0.4644 -0.7890 -0.4023
vn -0.0548 -0.0654 0.9964
vn -0.0548 -0.0653 0.9964
vn -0.0552 -0.0722 0.9959
vn -0.0551 -0.0722 0.9959
vn -0.1185 0.9279 0.3535
vn -0.1186 0.9276 0.3543
vn -0.1184 0.9282 0.3529
vn 0.5387 0.2218 -0.8128
vn 0.2896 0.2270 0.9299
vn 0.2816 0.2641 0.9225
vn 0.9759 0.1545 0.1544
vn 0.9766 0.1283 0.1728
vn 0.3155 -0.9387 -0.1388
vn 0.5437 -0.7053 -0.4550
vn 0.5512 -0.7669 -0.3287
vn -0.9837 0.0582 0.1699
vn -0.9795 0.0451 0.1965
vn -0.9782 0.0491 0.2016
vn 0.3646 0.9273 0.0851
vn 0.3935 0.9154 0.0848
vn -0.3993 -0.9153 -0.0532
vn -0.5247 -0.8509 -0.0255
vn -0.5247 -0.8509 -0.0254
vn -0.1167 -0.9303 -0.3478
vn -0.1166 -0.9307 -0.3468
vn -0.1169 -0.9297 -0.3493
vn -0.1170 -0.9293 -0.3502
vn 0.2069 0.9259 -0.3160
vn 0.2016 0.9289 -0.3105
vn 0.2016 0.9290 -0.3105
vn -0.5557 0.7916 -0.2541
vn -0.5541 0.7939 -0.2503
vn -0.6711 0.6705 -0.3164
vn -0.6707 0.6702 -0.3177
vn -0.6718 0.6710 -0.3139
vn 0.7375 -0.1454 -0.6595
vn 0.7253 -0.0777 -0.6840
vn 0.0016 -0.7856 0.6188
vn 0.0015 -0.7856 0.6188
vn 0.0024 -0.7847 0.6198
vn 0.0024 -0.7848 0.6198
vn -0.9612 -0.2236 -0.1617
vn -0.9612 -0.2236 -0.1616
vn -0.9723 -0.1960 0.1270
vn -0.9724 -0.1960 0.1269
vn -0.3488 0.7372 -0.5787
vn -0.3564 0.7347 -0.5772
vn -0.3545 0.7353 -0.5776
vn -0.3479 0.7375 -0.5789
vn 0.7840 -0.4586 -0.4184
vn 0.6517 -0.4613 -0.6021
vn 0.6517 -0.4613 -0.6020
vn -0.0662 -0.8953 0.4406
vn -0.0663 -0.8953 0.4406
vn -0.2718 -0.7723 0.5742
vn -0.2717 -0.7723 0.5742
vn 0.5557 -0.7918 0.2536
vn 0.5559 -0.7914 0.2542
vn 0.5549 -0.7930 0.2516
vn 0.5540 -0.7944 0.2492
vn 0.9715 0.1475 0.1853
vn 0.9719 0.1454 0.1850
vn 0.9709 0.1514 0.1858
vn 0.9705 0.1534 0.1861
vn 0.6454 0.5156 0.5636
vn 0.6639 0.4794 0.5740
vn -0.9785 0.1167 0.1698
vn -0.9451 0.2240 0.2378
vn 0.9817 0.0399 0.1861
vn 0.9829 0.0619 0.1732
vn -0.9805 -0.0650 -0.1852
vn -0.9800 -0.0711 -0.1859
vn -0.5790 -0.8059 -0.1233
vn -0.5790 -0.8060 -0.1233
vn -0.6048 -0.7893 -0.1059
vn 0.3424 -0.9232 0.1747
vn 0.3435 -0.9226 0.1754
vn 0.3421 -0.9233 0.1745
vn 0.3412 -0.9237 0.1740
vn -0.9819 -0.1223 -0.1444
vn -0.8649 -0.4725 -0.1693
vn -0.8919 -0.4339 -0.1273
vn -0.9454 -0.2902 -0.1481
vn -0.2846 0.4052 0.8688
vn -0.2819 0.4736 0.8344
vn -0.2593 0.5223 0.8124
vn -0.2611 0.4920 0.8305
vn -0.3916 0.6700 -0.6307
vn -0.3893 0.6705 -0.6316
vn -0.3926 0.6698 -0.6303
vn 0.3781 0.7252 -0.5754
vn 0.3798 0.7263 -0.5730
vn 0.3793 0.7260 -0.5737
vn 0.3779 0.7250 -0.5758
vn -0.2831 -0.2449 -0.9273
vn -0.2832 -0.2449 -0.9273
vn -0.3939 -0.1345 -0.9093
vn 0.6711 0.7184 0.1832
vn 0.7152 0.6897 0.1131
vn 0.4570 -0.8679 -0.1947
vn 0.4571 -0.8679 -0.1947
vn 0.4048 -0.9008 -0.1572
vn -0.4647 0.1670 -0.8696
vn -0.4653 0.1634 -0.8700
vn -0.4636 0.1734 -0.8689
vn -0.4630 0.1771 -0.8685
vn 0.5620 0.0758 0.8237
vn 0.6251 0.0685 0.7775
vn -0.2108 0.7001 0.6822
vn -0.1656 0.7196 0.6744
vn -0.5616 -0.0754 -0.8240
vn -0.6240 -0.0685 -0.7784
vn -0.2950 -0.1452 -0.9444
vn -0.2953 -0.1453 -0.9443
vn -0.2853 -0.2080 -0.9356
vn 0.2716 0.4561 0.8474
vn 0.2756 0.4616 0.8432
vn 0.2702 0.4613 0.8451
vn 0.8466 0.3433 -0.4067
vn 0.5164 0.3499 -0.7816
vn 0.5166 0.3483 -0.7822
vn 0.5161 0.3526 -0.7806
vn 0.5159 0.3543 -0.7799
vn -0.6915 0.6957 0.1946
vn -0.6915 0.6957 0.1945
vn -0.6125 0.7863 0.0808
vn 0.8598 0.4820 0.1686
vn 0.8598 0.4819 0.1686
vn 0.9698 0.1956 0.1458
vn 0.3887 -0.9042 -0.1773
vn 0.4676 -0.8663 -0.1755
vn 0.3564 0.9171 -0.1788
vn 0.3296 0.9283 -0.1720
vn -0.8103 -0.4947 -0.3142
vn -0.8664 -0.4912 -0.0900
vn -0.5264 0.7260 0.4425
vn -0.5259 0.7262 0.4428
vn -0.5276 0.7255 0.4419
vn -0.6222 -0.7297 0.2836
vn -0.6292 -0.7263 0.2767
vn -0.6276 -0.7271 0.2783
vn -0.6214 -0.7301 0.2843
vn -0.6801 0.7275 0.0908
vn -0.6808 0.7270 0.0895
vn -0.6774 0.7294 0.0954
vn -0.6771 0.7296 0.0959
vn 0.5274 -0.7256 -0.4419
vn 0.5259 -0.7262 -0.4428
vn 0.5264 -0.7260 -0.4425
vn 0.5280 -0.7254 -0.4416
vn -0.4263 0.8812 0.2046
vn -0.3992 0.9029 0.1592
vn 0.6276 0.7271 -0.2782
vn 0.6292 0.7263 -0.2767
vn 0.6221 0.7298 -0.2835
vn 0.6214 0.7301 -0.2842
vn -0.2144 0.9250 -0.3136
vn -0.2139 0.9254 -0.3128
vn -0.2149 0.9247 -0.3142
vn -0.6767 -0.7054 0.2108
vn -0.5946 -0.6963 0.4019
vn -0.5946 -0.6963 0.4020
vn 0.8865 -0.0403 0.4610
vn 0.9000 -0.0481 0.4332
vn 0.2550 0.5273 0.8105
vn 0.2637 0.5004 0.8247
vn -0.7526 -0.1399 -0.6434
vn -0.7524 -0.0645 -0.6556
vn -0.7524 -0.0644 -0.6556
vn 0.5687 -0.6687 -0.4789
vn 0.9757 -0.1420 -0.1667
vn 0.8917 -0.1729 -0.4183
vn -0.9623 -0.2254 -0.1523
vn 0.2195 -0.6687 -0.7104
vn -0.2195 0.6687 0.7104
vn -0.5550 -0.6687 -0.4948
vn -0.1994 -0.6687 -0.7163
vn -0.4108 -0.6687 0.6198
vn -0.7344 -0.6687 -0.1162
vn -0.9511 0.2199 0.2170
vn -0.9511 0.2200 0.2170
vn -0.9277 0.3057 0.2143
vn 0.3373 0.7879 -0.5152
vn 0.0216 -0.9276 0.3730
vn 0.0228 -0.9227 0.3847
vn 0.0228 -0.9228 0.3847
vn 0.2638 -0.4795 -0.8370
vn -0.3046 -0.2387 -0.9221
vn -0.5490 -0.2115 -0.8086
vn 0.7555 -0.1641 -0.6343
vn 0.8767 -0.3320 0.3481
vn 0.8598 -0.3824 0.3384
vn 0.8852 0.4475 0.1268
vn 0.9395 0.3093 0.1475
vn -0.3995 0.1230 0.9085
vn -0.3640 0.1399 0.9208
vn 0.3921 0.2595 0.8826
vn 0.5597 0.1865 0.8074
vn 0.6119 -0.7410 0.2766
vn 0.6111 -0.7380 0.2861
vn 0.6113 -0.7388 0.2837
vn 0.6120 -0.7414 0.2752
vn 0.9631 0.2218 0.1524
vn 0.9279 -0.0995 0.3592
vn 0.9279 -0.0994 0.3592
vn 0.9329 -0.0625 0.3547
vn 0.0495 0.1474 -0.9878
vn 0.0493 0.1459 -0.9881
vn 0.0497 0.1497 -0.9875
vn 0.0498 0.1513 -0.9872
vn 0.2045 -0.9548 0.2156
vn 0.2033 -0.9554 0.2144
vn 0.2053 -0.9545 0.2163
vn 0.2067 -0.9539 0.2176
vn -0.5382 -0.2254 0.8121
vn -0.0553 -0.0558 0.9969
vn -0.0561 -0.0546 0.9969
vn -0.0517 -0.0617 0.9968
vn -0.0509 -0.0629 0.9967
vn 0.4651 -0.0413 0.8843
vn 0.4644 -0.0399 0.8847
vn 0.4689 -0.0483 0.8819
vn 0.4696 -0.0496 0.8815
vn 0.8926 0.2218 -0.3925
vn 0.4272 -0.4759 0.7688
vn 0.4263 -0.4789 0.7675
vn 0.4267 -0.4776 0.7680
vn 0.4276 -0.4746 0.7693
vn -0.8597 -0.1068 0.4996
vn -0.6919 -0.0809 0.7174
vn -0.7117 0.4337 0.5526
vn -0.6930 0.4833 0.5350
vn -0.8104 -0.1220 -0.5730
vn -0.7404 -0.2267 -0.6328
vn -0.8541 0.4747 0.2127
vn -0.8979 0.3807 0.2210
vn 0.9315 -0.2911 -0.2182
vn 0.9525 -0.2109 -0.2195
vn 0.9525 -0.2110 -0.2195
vn 0.6774 -0.7294 -0.0955
vn 0.6807 -0.7271 -0.0896
vn 0.6799 -0.7277 -0.0911
vn 0.6771 -0.7296 -0.0961
vn 0.6315 0.7153 0.2992
vn 0.7158 -0.4216 -0.5566
vn 0.7159 -0.4215 -0.5567
vn 0.7013 -0.4653 -0.5400
vn 0.7120 -0.2977 0.6360
vn 0.8495 -0.3204 0.4191
vn -0.5556 -0.7914 0.2551
vn -0.5556 -0.7914 0.2550
vn -0.5297 -0.8060 0.2641
vn 0.6979 -0.2070 -0.6856
vn 0.4690 -0.1728 -0.8661
vn 0.5566 0.7905 -0.2554
vn 0.5305 0.8054 -0.2644
vn -0.5688 0.6687 0.4790
vn -0.0221 0.9260 -0.3768
vn -0.0224 0.9246 -0.3802
vn -0.0214 0.9285 -0.3707
vn -0.0211 0.9298 -0.3675
vn -0.2077 -0.9248 0.3187
vn -0.2092 -0.9240 0.3202
vn -0.2047 -0.9265 0.3157
vn -0.2032 -0.9274 0.3141
vn -0.0105 -0.6687 0.7434
vn -0.5072 0.0748 -0.8586
vn -0.4910 0.1014 -0.8652
vn -0.4694 0.0625 -0.8808
vn -0.4771 0.0613 -0.8767
vn -0.9049 0.1819 -0.3848
vn -0.9049 0.1818 -0.3848
vn -0.9000 0.1321 -0.4154
vn -0.6532 -0.5029 -0.5662
vn -0.3887 -0.2577 -0.8846
vn -0.5594 -0.1853 -0.8079
vn 0.7525 -0.2060 -0.6255
vn 0.7523 -0.2064 -0.6256
vn 0.7543 -0.2027 -0.6245
vn 0.7546 -0.2020 -0.6243
vn 0.8924 0.1534 -0.4243
vn 0.8925 0.1534 -0.4243
vn 0.8939 0.1463 -0.4236
vn 0.8939 0.1463 -0.4237
vn -0.3929 -0.9156 -0.0851
vn -0.3658 -0.9268 -0.0855
vn -0.8191 -0.3346 0.4660
vn -0.8050 -0.3349 0.4897
vn -0.8050 -0.3350 0.4896
vn -0.7841 -0.4908 0.3798
vn 0.5980 -0.1692 -0.7835
vn 0.3447 -0.2126 -0.9143
vn 0.3446 -0.2126 -0.9143
vn -0.8060 0.4909 -0.3307
vn -0.8043 0.4943 -0.3298
vn -0.8050 0.4929 -0.3302
vn -0.8067 0.4895 -0.3310
vn -0.0017 0.7845 -0.6202
vn -0.0019 0.7842 -0.6205
vn -0.0013 0.7848 -0.6197
vn 0.1994 0.6687 0.7163
vn -0.5196 -0.3325 0.7871
vn -0.5190 -0.3379 0.7852
vn -0.5192 -0.3358 0.7859
vn -0.5198 -0.3307 0.7877
vn -0.5457 -0.1544 0.8237
vn -0.2791 -0.4265 -0.8603
vn 0.7090 0.3749 0.5973
vn 0.7254 0.2595 0.6376
vn 0.5435 0.6854 0.4846
vn 0.5671 0.7141 0.4104
vn 0.3586 -0.1381 -0.9232
vn 0.3955 -0.1212 -0.9105
vn 0.1873 0.7889 0.5852
vn 0.1874 0.7889 0.5853
vn 0.1699 0.8000 0.5755
vn -0.3523 -0.9187 0.1786
vn -0.3522 -0.9187 0.1786
vn -0.3337 -0.9265 0.1741
vn 0.0256 0.4830 -0.8752
vn 0.0256 0.4824 -0.8756
vn 0.0256 0.4836 -0.8749
vn 0.2826 0.9278 0.2436
vn 0.2864 0.9253 0.2486
vn 0.2864 0.9253 0.2485
vn 0.5798 0.8053 0.1233
vn 0.5799 0.8053 0.1233
vn 0.5440 0.8263 0.1461
vn -0.1594 -0.8088 -0.5661
vn -0.1879 -0.7913 -0.5819
vn 0.2863 -0.3879 -0.8761
vn 0.3001 -0.2110 -0.9303
vn 0.2378 -0.3506 -0.9058
vn -0.0210 -0.3439 -0.9388
vn -0.3182 0.7903 -0.5237
vn -0.3172 0.7909 -0.5234
vn -0.3192 0.7897 -0.5240
vn -0.3197 0.7894 -0.5241
vn 0.3914 -0.6701 0.6307
vn 0.3925 -0.6699 0.6302
vn 0.3895 -0.6704 0.6315
vn 0.3891 -0.6705 0.6317
vn -0.7492 -0.1696 -0.6403
vn -0.8010 -0.0634 -0.5954
vn -0.8010 -0.0633 -0.5954
vn -0.0057 -0.7247 0.6891
vn -0.0052 -0.7245 0.6893
vn -0.0079 -0.7255 0.6882
vn -0.0088 -0.7258 0.6878
vn -0.1610 0.8055 0.5703
vn -0.1889 0.7870 0.5873
vn 0.3695 0.7153 0.5931
vn -0.5131 -0.7263 -0.4575
vn -0.6397 0.7153 0.2813
vn -0.1874 0.7153 -0.6732
vn -0.0099 0.7153 0.6987
vn 0.5345 0.7153 -0.4501
vn 0.6930 0.7153 -0.0897
vn 0.2063 0.7153 -0.6676
vn -0.6902 0.7153 -0.1092
vn 0.7367 -0.6691 -0.0978
vn 0.7374 -0.6687 -0.0954
vn 0.7372 -0.6688 -0.0961
vn -0.3861 0.7153 0.5825
vn 0.7298 -0.1262 -0.6719
vn 0.7298 -0.1263 -0.6719
vn 0.7034 -0.0946 -0.7045
vn 0.4663 -0.0822 0.8808
vn 0.4650 -0.0950 0.8802
vn -0.7932 -0.4713 0.3856
vn -0.8434 -0.3572 0.4012
vn 0.9313 -0.1281 0.3411
vn 0.9202 -0.0519 0.3880
vn -0.0362 -0.3314 0.9428
vn -0.7299 0.3104 0.6090
vn -0.7299 0.3096 0.6094
vn -0.7300 0.3110 0.6086
vn -0.7300 0.3117 0.6082
vn -0.8331 -0.5513 0.0445
vn -0.7731 -0.5216 0.3608
vn -0.7731 -0.5217 0.3608
vn 0.3193 -0.7900 0.5234
vn 0.3168 -0.7915 0.5227
vn 0.3167 -0.7915 0.5227
vn 0.4525 0.8276 0.3321
vn 0.4525 0.8276 0.3322
vn 0.4598 0.7925 0.4008
vn -0.3605 0.3304 0.8723
vn -0.2597 0.3315 0.9070
vn -0.2811 0.2223 0.9336
vn -0.2812 0.2224 0.9335
vn -0.1850 -0.7260 -0.6623
vn -0.1844 -0.7262 -0.6623
vn -0.1863 -0.7256 -0.6624
vn -0.1864 -0.7255 -0.6625
vn -0.5382 0.7122 0.4508
vn -0.5382 0.7122 0.4507
vn -0.5425 0.7695 0.3371
vn -0.7306 0.1263 0.6710
vn -0.7306 0.1264 0.6710
vn -0.7043 0.0936 0.7037
vn -0.9007 -0.1302 0.4145
vn -0.9045 -0.1539 0.3977
vn -0.0270 -0.4701 0.8822
vn -0.0269 -0.4679 0.8834
vn -0.0270 -0.4688 0.8829
vn -0.0271 -0.4710 0.8817
vn -0.6778 -0.7271 -0.1095
vn -0.6790 -0.7263 -0.1074
vn -0.6738 -0.7297 -0.1161
vn -0.6732 -0.7301 -0.1170
vn -0.3378 0.9250 -0.1741
vn -0.3363 0.9257 -0.1732
vn -0.7547 0.1990 0.6251
vn -0.7532 0.2019 0.6260
vn 0.0105 0.6687 -0.7435
vn -0.7650 -0.2705 0.5845
vn -0.6092 -0.2670 0.7467
vn -0.9780 0.0420 0.2044
vn -0.9773 0.0500 0.2058
vn -0.9720 0.0879 0.2178
vn -0.9725 0.0992 0.2107
vn -0.7348 -0.2907 -0.6128
vn -0.8701 -0.2691 -0.4129
vn -0.3361 -0.7887 0.5147
vn 0.5998 -0.0785 0.7963
vn 0.7749 -0.0510 0.6300
vn -0.9670 0.1489 0.2066
vn -0.7207 0.1642 0.6735
vn 0.7709 0.5164 -0.3730
vn 0.2678 0.4511 0.8513
vn 0.2723 0.4535 0.8486
vn 0.2707 0.4586 0.8464
vn 0.9761 -0.0716 -0.2052
vn 0.6858 -0.0344 -0.7269
vn -0.2723 -0.4522 -0.8493
vn -0.8521 -0.3267 0.4089
vn 0.2576 -0.4138 -0.8732
vn -0.7424 -0.2383 -0.6261
g Tent_2_Tent_2_Collor_Material
usemtl Collor_Material
s off
f 14/1/1 13/2/1 11/3/1 12/4/1
f 10/5/2 9/6/2 7/7/2 8/8/2
f 170/9/3 171/10/3 169/11/3 168/12/3
f 16/13/4 15/14/4 13/15/4 14/16/4
f 4/17/5 3/18/5 1/19/5 2/20/5
f 2/21/6 1/22/6 15/23/6 16/24/6
f 2/25/7 18/26/7 17/27/7 4/28/7
f 8/29/8 7/30/8 5/31/8 6/32/8
f 6/33/9 5/34/9 3/35/9 4/36/9
f 120/37/10 110/38/10 48/39/11 88/40/12
f 4/41/13 17/42/13 19/43/13 6/44/13
f 10/45/14 8/46/14 20/47/14 21/48/14
f 10/49/15 21/50/15 22/51/15 12/52/15
f 22/53/16 23/54/16 14/55/16 12/56/16
f 19/57/17 20/58/17 8/59/17 6/60/17
f 29/61/18 117/62/19 127/63/20 71/64/21
f 128/65/22 130/66/22 131/67/22 129/68/22
f 131/69/23 137/70/23 135/71/23 125/72/23
f 126/73/24 144/74/24 146/75/24 140/76/24
f 138/77/25 140/78/25 141/79/25 139/80/25
f 90/81/26 124/82/27 114/83/28 50/84/29
f 170/85/30 176/86/30 177/87/30 171/88/30
f 125/89/31 135/90/31 133/91/31 70/92/31
f 113/93/32 149/94/32 151/95/32 123/96/32
f 109/97/33 119/98/34 69/99/35 27/100/35
f 166/101/36 167/102/36 161/103/36 160/104/36
f 130/105/37 128/106/38 114/107/39 124/108/39
f 122/109/40 154/110/40 156/111/40 150/112/40
f 129/113/41 131/114/41 125/115/42 115/116/42
f 89/117/43 118/118/44 108/119/45 49/120/46
f 117/121/47 139/122/48 141/123/49 127/124/50
f 133/125/51 134/126/52 132/127/53
f 120/128/54 160/129/55 158/130/56 110/131/57
f 25/132/58 113/133/59 123/134/60 67/135/61
f 143/136/62 144/137/63 142/138/64
f 142/139/65 144/140/65 126/141/65 91/142/65
f 111/143/66 159/144/67 161/145/68 121/146/69
f 122/147/70 112/148/70 47/149/70 87/150/70
f 155/151/71 152/152/72 153/153/73
f 145/154/74 146/155/75 144/156/76 143/157/77
f 71/158/78 143/159/78 142/160/78 91/161/78
f 160/162/79 161/163/79 159/164/79 158/165/79
f 162/166/80 164/167/80 120/168/80 88/169/80
f 121/170/81 165/171/82 163/172/81 68/173/81
f 165/174/83 162/175/84 163/176/85
f 118/177/86 174/178/86 176/179/86 170/180/86
f 163/181/87 162/182/87 88/183/87 68/184/87
f 173/185/88 175/186/89 174/187/90 172/188/88
f 134/189/91 136/190/91 130/191/91 124/192/91
f 87/193/92 152/194/92 154/195/92 122/196/92
f 147/197/93 145/198/93 127/199/93 141/200/93
f 140/201/94 146/202/94 147/203/94 141/204/94
f 119/205/95 175/206/95 173/207/95 69/208/95
f 69/209/96 173/210/96 172/211/96 89/212/96
f 157/213/97 155/214/97 123/215/97 151/216/97
f 169/217/98 171/218/98 119/219/99 109/220/99
f 111/221/100 121/222/101 68/223/102 26/224/102
f 135/225/103 136/226/104 134/227/105 133/228/106
f 24/229/107 18/230/107 2/231/107 16/232/107
f 177/233/108 175/234/108 119/235/108 171/236/108
f 156/237/109 157/238/109 151/239/109 150/240/109
f 172/241/110 174/242/110 118/243/110 89/244/110
f 120/245/111 164/246/111 166/247/111 160/248/111
f 132/249/112 134/250/112 124/251/112 90/252/112
f 14/253/113 23/254/113 24/255/113 16/256/113
f 154/257/114 152/258/115 155/259/116 157/260/117
f 127/261/118 145/262/118 143/263/118 71/264/118
f 140/265/119 138/266/120 116/267/121 126/268/122
f 115/269/123 125/270/124 70/271/125 28/272/125
f 164/273/126 162/274/127 165/275/128 167/276/129
f 123/277/130 155/278/130 153/279/130 67/280/130
f 167/281/131 165/282/131 121/283/131 161/284/131
f 130/285/132 136/286/132 137/287/132 131/288/132
f 150/289/133 151/290/133 149/291/133 148/292/133
f 118/293/134 170/294/135 168/295/134 108/296/136
f 126/297/137 116/298/137 51/299/138 91/300/139
f 150/301/140 148/302/140 112/303/141 122/304/141
f 70/305/142 133/306/142 132/307/142 90/308/142
f 175/309/143 177/310/144 176/311/144 174/312/145
f 153/313/146 152/314/146 87/315/146 67/316/146
f 19/317/147 17/318/147 18/319/147
f 18/320/147 24/321/147 23/322/147
f 23/323/147 22/324/147 21/325/147
f 21/326/147 20/327/147 19/328/147
f 135/329/148 137/330/149 136/331/150
f 145/332/151 147/333/152 146/334/153
f 157/335/154 156/336/155 154/337/156
f 167/338/157 166/339/158 164/340/159
f 12/341/160 11/342/160 9/343/160 10/344/160
f 18/345/147 23/346/147 21/347/147 19/348/147
f 76/349/161 97/350/161 98/351/162 77/352/163
f 34/353/164 330/354/164 54/355/164
f 37/356/165 30/357/165 57/358/165
f 40/359/166 92/360/166 60/361/166
f 46/362/167 322/363/167 66/364/167
f 43/365/168 31/366/168 63/367/168
f 39/368/169 40/369/169 60/370/170 59/371/170
f 74/372/171 95/373/171 330/374/171
f 77/375/172 98/376/172 30/377/172
f 43/378/173 63/379/173 62/380/174 42/381/174
f 69/382/175 89/383/176 96/384/177 75/385/178
f 80/386/179 101/387/179 92/388/179
f 86/389/180 107/390/180 322/391/180
f 83/392/181 104/393/181 31/394/181
f 78/395/182 99/396/182 100/397/183 79/398/183
f 33/399/184 53/400/185 52/401/186 32/402/187
f 75/403/188 76/404/188 36/405/188 35/406/188
f 63/407/189 104/408/190 103/409/191 62/410/192
f 73/411/193 74/412/194 34/413/195 33/414/196
f 34/415/197 74/416/198 330/417/199
f 37/418/200 77/419/201 30/420/202
f 40/421/203 80/422/203 92/423/203
f 58/424/204 99/425/204 87/426/205 47/427/206
f 43/428/207 83/429/207 31/430/207
f 322/431/208 107/432/208 66/433/208
f 102/434/209 103/435/210 82/436/211 81/437/212
f 57/438/213 98/439/214 97/440/215 56/441/215
f 82/442/216 83/443/217 43/444/218 42/445/219
f 330/446/220 95/447/220 54/448/220
f 52/449/221 93/450/222 90/451/223 50/452/224
f 30/453/225 98/454/225 57/455/225
f 53/456/226 94/457/226 93/458/226 52/459/227
f 92/460/228 101/461/229 60/462/230
f 71/463/231 81/464/231 41/465/231 29/466/232
f 31/467/233 104/468/234 63/469/235
f 46/470/236 86/471/237 322/472/238
f 72/473/239 73/474/240 33/475/241 32/476/242
f 68/477/243 84/478/244 44/479/245 26/480/246
f 84/481/247 85/482/248 45/483/249 44/484/250
f 36/485/251 37/486/252 57/487/253 56/488/253
f 90/489/254 93/490/255 72/491/254 70/492/256
f 76/493/257 77/494/258 37/495/259 36/496/260
f 67/497/261 87/498/262 99/499/263 78/500/264
f 94/501/265 95/502/265 74/503/265 73/504/265
f 55/505/266 96/506/267 89/507/268 49/508/269
f 35/509/270 36/510/271 56/511/272 55/512/273
f 27/513/274 35/514/274 55/515/275 49/516/276
f 32/517/277 52/518/278 50/519/277 28/520/279
f 54/521/280 95/522/281 94/523/282 53/524/283
f 85/525/284 86/526/285 46/527/286 45/528/287
f 62/529/288 103/530/289 102/531/290 61/532/290
f 91/533/291 102/534/292 81/535/293 71/536/294
f 65/537/295 106/538/296 105/539/297 64/540/298
f 103/541/299 104/542/300 83/543/301 82/544/302
f 68/545/303 88/546/304 105/547/305 84/548/306
f 79/549/307 100/550/308 101/551/309 80/552/309
f 60/553/310 101/554/311 100/555/312 59/556/312
f 69/557/313 75/558/313 35/559/313 27/560/313
f 78/561/314 79/562/314 39/563/314 38/564/315
f 45/565/316 46/566/316 66/567/317 65/568/317
f 26/569/318 44/570/319 64/571/320 48/572/321
f 42/573/322 62/574/323 61/575/324 41/576/325
f 64/577/326 105/578/327 88/579/328 48/580/329
f 93/581/330 94/582/331 73/583/330 72/584/332
f 70/585/333 72/586/334 32/587/335 28/588/336
f 81/589/337 82/590/338 42/591/337 41/592/337
f 66/593/339 107/594/340 106/595/341 65/596/342
f 41/597/343 61/598/344 51/599/345 29/600/346
f 59/601/347 100/602/347 99/603/347 58/604/347
f 67/605/348 78/606/348 38/607/348 25/608/348
f 61/609/349 102/610/349 91/611/349 51/612/350
f 75/613/351 96/614/352 97/615/353 76/616/354
f 44/617/355 45/618/356 65/619/357 64/620/358
f 25/621/359 38/622/359 58/623/360 47/624/360
f 79/625/361 80/626/361 40/627/361 39/628/361
f 85/629/362 106/630/363 107/631/364 86/632/364
f 84/633/365 105/634/366 106/635/367 85/636/368
f 34/637/369 54/638/370 53/639/371 33/640/371
f 56/641/372 97/642/372 96/643/373 55/644/372
f 38/645/374 39/646/374 59/647/375 58/648/375
f 271/649/376 406/650/376 417/651/377 282/652/377
f 313/653/378 315/654/378 349/655/379 346/656/379
f 196/657/380 230/658/380 232/659/381 198/660/382
f 273/661/383 408/662/383 419/663/384 284/664/384
f 395/665/385 394/666/385 354/667/386 356/668/386
f 183/669/387 185/670/388 258/671/388 257/672/388
f 393/673/389 320/674/390 318/675/391 392/676/392
f 348/677/393 347/678/393 346/679/394 349/680/394
f 393/681/395 394/682/396 322/683/397 320/684/398
f 422/685/399 439/686/400 304/687/399 287/688/401
f 321/689/402 355/690/402 353/691/402 319/692/402
f 214/693/403 213/694/403 215/695/404 216/696/404
f 232/697/405 231/698/405 212/699/406 211/700/407
f 401/701/408 329/702/408 363/703/409 402/704/409
f 354/705/410 394/706/410 393/707/411 352/708/411
f 350/709/412 348/710/413 349/711/414 351/712/414
f 305/713/415 440/714/415 441/715/415 306/716/416
f 368/717/417 369/718/417 373/719/417 372/720/417
f 258/721/418 259/722/418 219/723/419 217/724/419
f 366/725/420 400/726/421 332/727/421 399/728/422
f 347/729/423 390/730/423 400/731/424 366/732/424
f 216/733/425 215/734/426 217/735/425 218/736/425
f 282/737/427 417/738/427 416/739/428 281/740/428
f 356/741/429 354/742/429 355/743/430 357/744/430
f 429/745/431 409/746/432 421/747/433 410/748/431
f 276/749/434 291/750/434 426/751/435 411/752/435
f 398/753/436 330/754/436 328/755/437 397/756/437
f 257/757/438 215/758/439 213/759/440 256/760/441
f 278/761/442 413/762/442 424/763/443 289/764/444
f 214/765/445 180/766/445 178/767/446 211/768/446
f 221/769/447 223/770/448 224/771/449 222/772/449
f 261/773/450 262/774/450 225/775/451 223/776/451
f 268/777/452 267/778/452 402/779/453 403/780/453
f 365/781/454 367/782/454 366/783/455 364/784/455
f 269/785/456 270/786/456 309/787/457 310/788/457
f 352/789/458 393/790/459 392/791/460 350/792/461
f 265/793/462 255/794/463 212/795/464 231/796/464
f 256/797/465 213/798/466 212/799/467 255/800/468
f 291/801/469 292/802/469 427/803/470 426/804/470
f 273/805/471 284/806/471 272/807/472 299/808/472
f 269/809/473 280/810/473 311/811/474 279/812/474
f 193/813/475 195/814/476 263/815/477 262/816/478
f 367/817/479 365/818/479 331/819/480 333/820/480
f 433/821/481 413/822/482 414/823/483 431/824/483
f 270/825/484 269/826/485 295/827/486 300/828/487
f 428/829/488 410/830/488 411/831/489 438/832/489
f 372/833/490 328/834/490 330/835/491 368/836/491
f 359/837/492 358/838/492 356/839/493 357/840/493
f 387/841/494 386/842/495 380/843/496 381/844/497
f 216/845/498 182/846/498 180/847/499 214/848/499
f 403/849/500 362/850/500 398/851/501 397/852/502
f 179/853/503 255/854/503 265/855/504 199/856/504
f 279/857/505 311/858/506 446/859/507 414/860/507
f 309/861/508 444/862/509 445/863/508 310/864/510
f 299/865/511 272/866/512 271/867/513 301/868/514
f 314/869/515 430/870/515 435/871/516 316/872/516
f 266/873/517 267/874/518 228/875/519 194/876/519
f 406/877/520 407/878/521 434/879/522 436/880/523
f 283/881/524 418/882/525 443/883/524 308/884/526
f 366/885/527 399/886/528 364/887/529
f 195/888/530 197/889/530 264/890/531 263/891/531
f 262/892/532 268/893/532 403/894/533 397/895/533
f 333/896/534 313/897/534 346/898/535 367/899/535
f 193/900/536 303/901/536 293/902/537 191/903/537
f 414/904/538 404/905/539 430/906/540 431/907/540
f 334/908/541 388/909/541 371/910/542 332/911/542
f 260/912/543 189/913/544 191/914/545 261/915/545
f 415/916/546 446/917/546 311/918/547 280/919/548
f 257/920/549 258/921/550 217/922/551 215/923/552
f 429/924/553 428/925/554 326/926/555 324/927/556
f 260/928/557 261/929/557 223/930/558 221/931/558
f 279/932/559 414/933/559 425/934/560 290/935/560
f 404/936/561 445/937/561 444/938/562 405/939/563
f 225/940/564 360/941/565 361/942/566 226/943/567
f 351/944/568 349/945/568 315/946/569 317/947/569
f 278/948/570 312/949/571 447/950/572 413/951/572
f 217/952/573 219/953/573 220/954/574 218/955/574
f 244/956/575 204/957/575 205/958/575 242/959/575
f 383/960/576 382/961/577 385/962/578 384/963/579
f 206/964/580 205/965/580 340/966/580 341/967/580
f 246/968/581 252/969/581 202/970/581 203/971/581
f 242/972/582 205/973/582 206/974/582 240/975/582
f 338/976/583 381/977/583 379/978/583 339/979/583
f 336/980/584 345/981/585 389/982/586 383/983/587
f 274/984/588 409/985/589 440/986/590 305/987/590
f 244/988/591 246/989/591 203/990/591 204/991/591
f 235/992/592 209/993/593 210/994/594 254/995/595
f 222/996/596 224/997/597 190/998/598 188/999/598
f 249/1000/599 252/1001/600 251/1002/601 250/1003/602
f 253/1004/603 254/1005/604 248/1006/605 247/1007/606
f 328/1008/607 438/1009/607 437/1010/608 330/1011/608
f 412/1012/609 423/1013/610 424/1014/611 413/1015/612
f 237/1016/613 239/1017/613 240/1018/614 238/1019/615
f 228/1020/616 229/1021/616 230/1022/616
f 270/1023/617 271/1024/617 282/1025/618 281/1026/617
f 199/1027/619 296/1028/619 298/1029/620 197/1030/620
f 268/1031/621 262/1032/621 263/1033/622 227/1034/622
f 326/1035/623 374/1036/623 376/1037/624 324/1038/624
f 392/1039/625 318/1040/626 316/1041/627 391/1042/628
f 193/1043/629 195/1044/630 302/1045/629 303/1046/631
f 216/1047/632 218/1048/632 184/1049/632 182/1050/632
f 191/1051/633 193/1052/633 262/1053/634 261/1054/634
f 221/1055/635 222/1056/635 220/1057/636 219/1058/636
f 307/1059/637 284/1060/637 419/1061/637 442/1062/637
f 332/1063/638 371/1064/638 368/1065/639 330/1066/639
f 264/1067/640 231/1068/641 229/1069/642
f 187/1070/643 189/1071/643 294/1072/644 297/1073/644
f 312/1074/645 290/1075/645 425/1076/646 447/1077/647
f 428/1078/648 438/1079/649 328/1080/650 326/1081/651
f 185/1082/652 299/1083/652 301/1084/653 183/1085/654
f 199/1086/655 253/1087/655 247/1088/656 179/1089/656
f 254/1090/657 210/1091/658 201/1092/659 248/1093/659
f 399/1094/660 332/1095/660 330/1096/661 398/1097/661
f 318/1098/662 386/1099/663 385/1100/664 316/1101/665
f 270/1102/666 281/1103/667 416/1104/668 405/1105/669
f 248/1106/670 249/1107/671 250/1108/672 247/1109/673
f 270/1110/674 405/1111/674 444/1112/675 309/1113/676
f 424/1114/677 423/1115/678 288/1116/679 289/1117/680
f 382/1118/681 388/1119/682 334/1120/683 314/1121/684
f 187/1122/685 189/1123/686 260/1124/687 259/1125/688
f 294/1126/689 293/1127/689 275/1128/690 274/1129/690
f 231/1130/691 232/1131/691 230/1132/692 229/1133/692
f 219/1134/693 259/1135/693 260/1136/694 221/1137/694
f 395/1138/695 324/1139/695 322/1140/696 394/1141/696
f 378/1142/697 322/1143/698 324/1144/699 376/1145/699
f 431/1146/700 430/1147/701 314/1148/702 334/1149/703
f 432/1150/704 408/1151/704 409/1152/705 429/1153/705
f 441/1154/706 440/1155/706 409/1156/707 408/1157/707
f 302/1158/708 277/1159/709 276/1160/710 303/1161/711
f 249/1162/712 248/1163/713 201/1164/713 200/1165/714
f 252/1166/715 246/1167/716 245/1168/717 251/1169/718
f 360/1170/719 397/1171/720 396/1172/721 358/1173/721
f 241/1174/722 243/1175/722 244/1176/723 242/1177/723
f 437/1178/724 433/1179/725 332/1180/726 330/1181/726
f 179/1182/727 181/1183/728 256/1184/729 255/1185/730
f 224/1186/731 226/1187/731 192/1188/732 190/1189/732
f 237/1190/733 238/1191/733 234/1192/734 233/1193/734
f 327/1194/735 361/1195/735 359/1196/736 325/1197/736
f 397/1198/737 328/1199/738 326/1200/739 396/1201/739
f 275/1202/740 287/1203/741 304/1204/742
f 272/1205/743 284/1206/743 307/1207/743
f 271/1208/744 272/1209/745 283/1210/746 308/1211/747
f 199/1212/748 197/1213/749 236/1214/750 253/1215/750
f 297/1216/751 294/1217/752 274/1218/753 273/1219/753
f 433/1220/754 431/1221/754 334/1222/755 332/1223/755
f 187/1224/756 297/1225/756 299/1226/757 185/1227/757
f 277/1228/758 412/1229/758 427/1230/759 292/1231/759
f 233/1232/760 234/1233/761 235/1234/762 236/1235/762
f 379/1236/763 381/1237/764 380/1238/765 378/1239/766
f 236/1240/767 235/1241/768 254/1242/769 253/1243/770
f 370/1244/771 369/1245/772 368/1246/773 371/1247/774
f 195/1248/775 197/1249/775 298/1250/776 302/1251/776
f 245/1252/777 246/1253/778 244/1254/779 243/1255/780
f 179/1256/781 181/1257/782 300/1258/781 295/1259/783
f 276/1260/784 411/1261/784 422/1262/785 287/1263/786
f 267/1264/787 266/1265/787 401/1266/788 402/1267/788
f 293/1268/789 303/1269/789 276/1270/790 275/1271/790
f 395/1272/791 396/1273/791 326/1274/792 324/1275/793
f 344/1276/794 343/1277/794 369/1278/794 370/1279/794
f 275/1280/795 304/1281/795 439/1282/796 410/1283/796
f 357/1284/797 355/1285/797 321/1286/797 323/1287/797
f 369/1288/798 343/1289/798 342/1290/798 373/1291/798
f 234/1292/799 238/1293/799 207/1294/799 208/1295/799
f 340/1296/800 377/1297/800 375/1298/800 341/1299/800
f 341/1300/801 375/1301/801 373/1302/801 342/1303/801
f 337/1304/802 387/1305/802 381/1306/802 338/1307/802
f 339/1308/803 379/1309/803 377/1310/803 340/1311/803
f 290/1312/804 312/1313/805 278/1314/806 279/1315/806
f 183/1316/807 251/1317/807 245/1318/807 185/1319/807
f 316/1320/808 435/1321/808 436/1322/809 318/1323/810
f 411/1324/811 437/1325/811 438/1326/811
f 272/1327/812 307/1328/812 442/1329/813 407/1330/813
f 365/1331/814 362/1332/814 363/1333/814
f 446/1334/815 415/1335/815 404/1336/816 414/1337/816
f 274/1338/817 305/1339/817 306/1340/818 273/1341/818
f 267/1342/819 268/1343/819 227/1344/820 228/1345/820
f 223/1346/821 225/1347/821 226/1348/822 224/1349/822
f 383/1350/823 389/1351/824 388/1352/825 382/1353/826
f 220/1354/827 222/1355/827 188/1356/827 186/1357/827
f 390/1358/828 314/1359/829 334/1360/830 400/1361/830
f 181/1362/831 183/1363/832 257/1364/833 256/1365/834
f 421/1366/835 420/1367/836 285/1368/837 286/1369/838
f 353/1370/839 351/1371/839 317/1372/839 319/1373/839
f 392/1374/840 391/1375/841 348/1376/842 350/1377/843
f 391/1378/844 390/1379/845 347/1380/846 348/1381/847
f 184/1382/848 218/1383/848 220/1384/848 186/1385/848
f 430/1386/849 404/1387/850 405/1388/851 435/1389/852
f 269/1390/853 310/1391/853 445/1392/854 404/1393/854
f 298/1394/855 278/1395/855 277/1396/856 302/1397/856
f 325/1398/857 359/1399/857 357/1400/858 323/1401/858
f 298/1402/859 296/1403/859 279/1404/860 278/1405/860
f 425/1406/861 414/1407/861 413/1408/862 447/1409/863
f 389/1410/864 370/1411/865 371/1412/866 388/1413/867
f 210/1414/868 345/1415/868 336/1416/868 201/1417/868
f 412/1418/869 413/1419/870 433/1420/871 437/1421/871
f 272/1422/872 407/1423/872 418/1424/873 283/1425/873
f 378/1426/874 380/1427/875 320/1428/876 322/1429/876
f 274/1430/877 285/1431/877 420/1432/878 409/1433/878
f 185/1434/879 245/1435/879 243/1436/880 187/1437/880
f 234/1438/881 208/1439/881 209/1440/881 235/1441/881
f 181/1442/882 183/1443/883 301/1444/884 300/1445/885
f 436/1446/886 434/1447/887 320/1448/888 318/1449/889
f 335/1450/890 384/1451/890 387/1452/890 337/1453/890
f 213/1454/891 214/1455/892 211/1456/893 212/1457/894
f 198/1458/895 232/1459/896 211/1460/897 178/1461/897
f 429/1462/898 410/1463/898 428/1464/898
f 361/1465/899 360/1466/899 358/1467/900 359/1468/900
f 329/1469/901 331/1470/902 365/1471/903 363/1472/904
f 187/1473/905 259/1474/906 258/1475/907 185/1476/908
f 322/1477/909 432/1478/909 429/1479/910 324/1480/910
f 226/1481/911 361/1482/911 327/1483/912 192/1484/913
f 434/1485/914 408/1486/914 432/1487/914
f 269/1488/915 404/1489/915 415/1490/916 280/1491/917
f 295/1492/918 269/1493/919 279/1494/920 296/1495/921
f 183/1496/922 181/1497/923 250/1498/922 251/1499/924
f 238/1500/925 240/1501/925 206/1502/925 207/1503/925
f 406/1504/926 443/1505/927 418/1506/928 407/1507/929
f 352/1508/930 350/1509/930 351/1510/930 353/1511/930
f 410/1512/931 422/1513/931 411/1514/931
f 275/1515/932 286/1516/932 285/1517/933 274/1518/933
f 241/1519/934 242/1520/934 240/1521/935 239/1522/935
f 402/1523/936 363/1524/936 362/1525/937 403/1526/937
f 193/1527/938 191/1528/939 239/1529/940 237/1530/940
f 434/1531/941 432/1532/942 322/1533/943 320/1534/943
f 271/1535/944 270/1536/945 300/1537/944 301/1538/946
f 191/1539/947 293/1540/947 294/1541/948 189/1542/949
f 189/1543/950 187/1544/951 243/1545/952 241/1546/952
f 328/1547/953 372/1548/953 374/1549/954 326/1550/954
f 412/1551/955 437/1552/955 411/1553/956 426/1554/956
f 273/1555/957 306/1556/957 441/1557/958 408/1558/958
f 181/1559/959 179/1560/960 247/1561/961 250/1562/962
f 384/1563/963 335/1564/964 336/1565/965 383/1566/966
f 358/1567/967 396/1568/967 395/1569/968 356/1570/969
f 384/1571/970 385/1572/971 386/1573/972 387/1574/973
f 193/1575/974 237/1576/974 233/1577/975 195/1578/975
f 200/1579/976 201/1580/976 336/1581/976 335/1582/976
f 374/1583/977 375/1584/977 377/1585/977 376/1586/977
f 204/1587/978 203/1588/978 338/1589/978 339/1590/978
f 207/1591/979 206/1592/979 341/1593/979 342/1594/979
f 200/1595/980 335/1596/980 337/1597/980 202/1598/980
f 208/1599/981 343/1600/981 344/1601/981 209/1602/981
f 210/1603/982 209/1604/982 344/1605/982 345/1606/982
f 207/1607/983 342/1608/983 343/1609/983 208/1610/983
f 204/1611/984 339/1612/984 340/1613/984 205/1614/984
f 345/1615/985 344/1616/986 370/1617/987 389/1618/985
f 203/1619/988 202/1620/988 337/1621/988 338/1622/988
f 364/1623/989 399/1624/990 398/1625/991 362/1626/991
f 391/1627/992 316/1628/992 314/1629/993 390/1630/993
f 434/1631/994 407/1632/995 419/1633/995 408/1634/994
f 347/1635/996 366/1636/996 367/1637/997 346/1638/997
f 405/1639/998 416/1640/998 417/1641/998 406/1642/998
f 277/1643/999 278/1644/1000 289/1645/1001 288/1646/1002
f 262/1647/1003 397/1648/1003 360/1649/1004 225/1650/1005
f 316/1651/1006 385/1652/1006 382/1653/1007 314/1654/1008
f 189/1655/1009 241/1656/1010 239/1657/1011 191/1658/1011
f 276/1659/1012 277/1660/1013 292/1661/1014 291/1662/1015
f 372/1663/1016 373/1664/1017 375/1665/1018 374/1666/1019
f 233/1667/1020 236/1668/1021 197/1669/1022 195/1670/1022
f 263/1671/1023 264/1672/1024 229/1673/1025 227/1674/1025
f 355/1675/1026 354/1676/1026 352/1677/1027 353/1678/1027
f 435/1679/1028 405/1680/1029 406/1681/1030 436/1682/1031
f 376/1683/1032 377/1684/1033 379/1685/1034 378/1686/1035
f 179/1687/1036 295/1688/1036 296/1689/1037 199/1690/1037
f 194/1691/1038 228/1692/1038 230/1693/1039 196/1694/1039
f 200/1695/1040 202/1696/1040 252/1697/1040 249/1698/1040
f 275/1699/1041 410/1700/1041 421/1701/1042 286/1702/1042
f 265/1703/1043 231/1704/1044 264/1705/1045 197/1706/1046
f 271/1707/1047 308/1708/1047 443/1709/1048 406/1710/1048
f 380/1711/1049 386/1712/1049 318/1713/1049 320/1714/1049
f 277/1715/1050 288/1716/1050 423/1717/1051 412/1718/1051
f 197/1719/1052 199/1720/1052 265/1721/1052
f 228/1722/1053 227/1723/1053 229/1724/1053
f 299/1725/1054 297/1726/1054 273/1727/1054
f 275/1728/1055 276/1729/1056 287/1730/1057
f 400/1731/1058 334/1732/1058 332/1733/1058
f 365/1734/1059 364/1735/1059 362/1736/1059
f 410/1737/1060 439/1738/1060 422/1739/1060
f 407/1740/1061 442/1741/1061 419/1742/1061
f 426/1743/1062 427/1744/1062 412/1745/1062
f 409/1746/1063 420/1747/1063 421/1748/1063
