# Blender v3.0.0 OBJ File: 'aa.blend'
# www.blender.org
mtllib Tent_1.mtl
o Tent_1
v -1.818565 0.000002 2.097844
v -2.097225 0.000002 1.820121
v -1.775778 2.395219 1.485373
v -1.484455 2.394705 1.776108
v -2.097225 -0.000002 -1.820121
v -1.820121 -0.000002 -2.097225
v -1.485375 2.395216 -1.775781
v -1.775778 2.395216 -1.485378
v 2.097225 0.000002 1.820121
v 1.818565 0.000002 2.097844
v 1.484958 2.394723 1.775935
v 1.775778 2.395219 1.485373
v 1.820121 -0.000002 -2.097225
v 2.097225 -0.000002 -1.820121
v 1.775778 2.395216 -1.485378
v 1.485375 2.395216 -1.775781
v -1.621064 0.824347 1.893974
v -1.516184 1.578669 1.792058
v -1.791569 1.578965 1.517519
v -1.893322 0.824455 1.622918
v -1.517520 1.578962 -1.791570
v -1.622919 0.824451 -1.893322
v -1.893322 0.824451 -1.622920
v -1.791569 1.578962 -1.517522
v 1.791569 1.578962 -1.517522
v 1.893321 0.824451 -1.622920
v 1.622919 0.824451 -1.893322
v 1.517520 1.578962 -1.791570
v 1.516261 1.578670 1.792032
v 1.621064 0.824347 1.893974
v 1.893321 0.824455 1.622918
v 1.791569 1.578965 1.517519
v -1.998591 -0.000001 -0.567906
v -1.998591 0.000001 0.567905
v -1.692307 2.394847 0.462266
v -1.692307 2.394846 -0.462271
v -1.804217 0.822746 0.505966
v -1.804217 0.822745 -0.505967
v -1.707364 1.578126 0.472471
v -1.707364 1.578125 -0.472475
v -1.131563 0.000002 1.998134
v 1.131563 0.000002 1.998134
v 0.452190 2.378288 1.695327
v -0.442313 2.410086 1.691355
v 1.007518 0.822202 1.803709
v -1.007519 0.822202 1.803709
v 0.942004 1.577257 1.707009
v -0.941804 1.577268 1.706982
v 1.692307 2.394847 0.462266
v 1.692307 2.394846 -0.462271
v 1.998591 0.000001 0.567905
v 1.998591 -0.000001 -0.567906
v 1.804217 0.822745 -0.505967
v 1.804217 0.822746 0.505966
v 1.707364 1.578125 -0.472475
v 1.707364 1.578126 0.472471
v 0.462268 2.394845 -1.692309
v -0.462268 2.394845 -1.692309
v 0.567905 -0.000002 -1.998591
v -0.567906 -0.000002 -1.998591
v -0.505967 0.822743 -1.804218
v 0.505967 0.822743 -1.804218
v -0.472473 1.578124 -1.707365
v 0.472473 1.578124 -1.707365
v -0.641396 2.126776 1.693565
v 0.609804 2.116396 1.698779
v 0.004851 2.394495 1.693380
v -0.016096 2.223987 1.696371
v -1.800989 0.000002 2.048486
v -2.048486 0.000002 1.800989
v -1.725289 2.394392 1.467274
v -1.467277 2.394392 1.725286
v -2.048486 -0.000002 -1.800989
v -1.800989 -0.000002 -2.048486
v -1.467277 2.394388 -1.725291
v -1.725289 2.394388 -1.467279
v 2.048486 0.000002 1.800989
v 1.800989 0.000002 2.048486
v 1.467277 2.394392 1.725286
v 1.725289 2.394392 1.467274
v 1.800989 -0.000002 -2.048486
v 2.048486 -0.000002 -1.800989
v 1.725289 2.394388 -1.467279
v 1.467277 2.394388 -1.725291
v -1.605112 0.818121 1.843540
v -1.499446 1.576272 1.741204
v -1.741205 1.576272 1.499445
v -1.843541 0.818121 1.605111
v -1.499446 1.576269 -1.741206
v -1.605112 0.818117 -1.843542
v -1.843541 0.818118 -1.605113
v -1.741205 1.576269 -1.499448
v 1.741205 1.576269 -1.499448
v 1.843541 0.818118 -1.605113
v 1.605112 0.818117 -1.843542
v 1.499446 1.576269 -1.741206
v 1.499446 1.576272 1.741204
v 1.605112 0.818121 1.843540
v 1.843541 0.818121 1.605111
v 1.741205 1.576272 1.499445
v -1.945690 -0.000001 -0.570204
v -1.945690 0.000001 0.570204
v -1.638712 2.394391 0.464546
v -1.638712 2.394390 -0.464551
v -1.751030 0.818120 0.508188
v -1.751030 0.818119 -0.508189
v -1.653829 1.576271 0.474732
v -1.653829 1.576270 -0.474736
v -1.139753 0.000002 1.945690
v 1.139752 0.000002 1.945690
v 0.454442 2.378227 1.641726
v -0.444318 2.410015 1.637743
v 1.015792 0.818121 1.751029
v -1.015792 0.818121 1.751029
v 0.948922 1.576272 1.653828
v -0.948922 1.576272 1.653828
v 1.638712 2.394391 0.464546
v 1.638712 2.394390 -0.464551
v 1.945690 0.000001 0.570204
v 1.945690 -0.000001 -0.570204
v 1.751030 0.818119 -0.508189
v 1.751030 0.818120 0.508188
v 1.653829 1.576270 -0.474736
v 1.653829 1.576271 0.474732
v 0.464549 2.394388 -1.638714
v -0.464549 2.394388 -1.638714
v 0.570204 -0.000002 -1.945691
v -0.570204 -0.000002 -1.945691
v -0.508188 0.818117 -1.751031
v 0.508188 0.818117 -1.751031
v -0.474734 1.576269 -1.653831
v 0.474734 1.576269 -1.653831
v -0.646098 2.127063 1.640126
v 0.614336 2.116674 1.645324
v 0.005062 2.394121 1.639735
v -0.015881 2.223613 1.642725
v -1.751580 2.483808 1.489633
v -1.489636 2.483808 1.751577
v -1.489636 2.483805 -1.751583
v -1.751580 2.483805 -1.489639
v 1.489636 2.483808 1.751577
v 1.751580 2.483808 1.489633
v 1.751580 2.483805 -1.489639
v 1.489636 2.483805 -1.751583
v -1.565239 2.196488 1.840475
v -1.840477 2.196488 1.565236
v -1.840477 2.196485 -1.565241
v -1.565239 2.196485 -1.840479
v 1.565239 2.196485 -1.840479
v 1.840477 2.196485 -1.565241
v 1.840477 2.196488 1.565236
v 1.565239 2.196488 1.840475
v -0.264085 3.592916 0.310519
v -0.310522 3.592916 0.264081
v -0.310522 3.592916 -0.264089
v -0.264085 3.592916 -0.310527
v 0.264086 3.592916 -0.310527
v 0.310524 3.592916 -0.264089
v 0.310524 3.592916 0.264081
v 0.264086 3.592916 0.310519
v -1.040455 2.887068 0.884855
v -0.647303 3.189656 0.550498
v -0.550501 3.189656 0.647300
v -0.884858 2.887068 1.040452
v 0.884858 2.887066 -1.040459
v 0.550502 3.189655 -0.647308
v -0.550501 3.189655 -0.647308
v -0.884858 2.887066 -1.040459
v 0.550502 3.189656 0.647300
v 0.884859 2.887068 1.040452
v 0.647305 3.189656 0.550498
v 1.040456 2.887068 0.884855
v -0.647303 3.189655 -0.550505
v -1.040455 2.887066 -0.884861
v 0.647305 3.189655 -0.550505
v 1.040456 2.887066 -0.884861
v -1.679458 2.483807 0.476097
v -1.679458 2.483806 -0.476102
v -1.764695 2.196487 0.500261
v -1.764695 2.101465 -0.500266
v -0.297737 3.592916 0.084400
v -0.297737 3.592916 -0.084408
v -0.997614 2.887067 -0.282811
v -0.997614 2.887067 0.282805
v -0.620650 3.189656 -0.175948
v -0.620650 3.189656 0.175941
v 0.476100 2.483808 1.679455
v -0.476100 2.483808 1.679455
v 0.556681 2.239949 1.766123
v -0.507349 2.154374 1.772729
v 0.084405 3.592916 0.297733
v -0.084403 3.592916 0.297733
v -0.282807 2.887068 0.997611
v 0.282808 2.887068 0.997611
v -0.175944 3.189656 0.620647
v 0.175945 3.189656 0.620647
v 1.679458 2.483807 0.476097
v 1.679458 2.483806 -0.476102
v 1.764695 2.135110 0.364957
v 1.764695 2.196486 -0.500266
v 0.297738 3.592916 0.084400
v 0.297738 3.592916 -0.084408
v 0.997615 2.887067 0.282805
v 0.997615 2.887067 -0.282811
v 0.620652 3.189656 0.175941
v 0.620652 3.189656 -0.175948
v 0.476100 2.483805 -1.679461
v -0.476100 2.483805 -1.679461
v 0.500263 2.196485 -1.764697
v -0.500263 2.196485 -1.764697
v 0.084405 3.592916 -0.297742
v -0.084403 3.592916 -0.297742
v 0.282808 2.887066 -0.997617
v -0.282807 2.887066 -0.997617
v 0.175945 3.189655 -0.620655
v -0.175944 3.189655 -0.620655
v -1.609848 1.858538 1.795866
v -1.795868 1.858538 1.609846
v -1.789773 1.858535 -1.615945
v -1.615942 1.858535 -1.789776
v 1.597589 1.858535 -1.808129
v 1.808126 1.858535 -1.597591
v 1.795464 1.858538 1.610249
v 1.610251 1.858538 1.795462
v -1.802586 2.196486 -1.032753
v -1.032751 2.196488 1.802584
v 1.817655 2.154665 -1.061536
v -1.032751 2.196485 -1.802588
v -1.787497 2.231698 0.964533
v -1.764695 2.196487 -0.000002
v 1.057976 2.141588 1.819883
v -0.000000 2.196488 1.764693
v 1.802586 2.196488 1.032749
v 1.764695 2.196487 -0.000002
v 1.032751 2.196485 -1.802588
v -0.000000 2.196485 -1.764697
v -1.774069 2.494649 1.497994
v -1.497996 2.494649 1.774066
v -1.497996 2.494646 -1.774072
v -1.774069 2.494646 -1.497999
v 1.497993 2.494647 1.774070
v 1.774069 2.494649 1.497994
v 1.774062 2.494650 -1.498005
v 1.497996 2.494646 -1.774072
v -1.579340 2.199921 1.864877
v -1.864712 2.199898 1.579635
v -1.864892 2.199932 -1.579313
v -1.579310 2.199931 -1.864894
v 1.579399 2.199889 -1.864856
v 1.865067 2.199922 -1.579009
v 1.864880 2.199922 1.579335
v 1.578807 2.199961 1.865165
v -0.268531 3.616505 0.325626
v -0.325629 3.616505 0.268528
v -0.325629 3.616505 -0.268536
v -0.268531 3.616505 -0.325634
v 0.268533 3.616505 -0.325634
v 0.325631 3.616505 -0.268536
v 0.325631 3.616505 0.268528
v 0.268533 3.616505 0.325626
v -1.056923 2.902905 0.890221
v -0.667281 3.203115 0.557201
v -0.557204 3.203116 0.667278
v -0.890224 2.902905 1.056920
v 0.890224 2.902903 -1.056927
v 0.557205 3.203115 -0.667285
v -0.557204 3.203115 -0.667285
v -0.890224 2.902903 -1.056927
v 0.557205 3.203116 0.667278
v 0.890225 2.902905 1.056920
v 0.667282 3.203115 0.557201
v 1.056924 2.902905 0.890221
v -0.667281 3.203115 -0.557208
v -1.056923 2.902903 -0.890227
v 0.667282 3.203115 -0.557208
v 1.056924 2.902903 -0.890227
v -1.704066 2.493940 0.475189
v -1.704263 2.493704 -0.475204
v -1.792712 2.200465 0.499259
v -1.792958 2.104480 -0.499233
v -0.312360 3.616992 0.083931
v -0.312360 3.616992 -0.083939
v -1.017872 2.901109 -0.282087
v -1.017872 2.901109 0.282081
v -0.644172 3.200969 -0.175117
v -0.644172 3.200969 0.175110
v 0.475194 2.494094 1.703932
v -0.475194 2.493897 1.704100
v 0.555687 2.244570 1.793935
v -0.506290 2.158168 1.800796
v 0.083936 3.616992 0.312357
v -0.083934 3.616992 0.312357
v -0.282084 2.901109 1.017869
v 0.282084 2.901109 1.017869
v -0.175113 3.200970 0.644169
v 0.175114 3.200970 0.644169
v 1.704164 2.493821 0.475156
v 1.704062 2.493942 -0.475188
v 1.792885 2.138504 0.364555
v 1.792710 2.200460 -0.499174
v 0.312362 3.616992 0.083931
v 0.312362 3.616992 -0.083939
v 1.017873 2.901109 0.282081
v 1.017873 2.901109 -0.282087
v 0.644173 3.200969 0.175110
v 0.644173 3.200969 -0.175117
v 0.475192 2.493938 -1.704068
v -0.475192 2.493938 -1.704068
v 0.499227 2.200462 -1.792713
v -0.499227 2.200462 -1.792713
v 0.083936 3.616992 -0.312365
v -0.083934 3.616992 -0.312365
v 0.282084 2.901107 -1.017875
v -0.282084 2.901107 -1.017875
v 0.175114 3.200969 -0.644176
v -0.175113 3.200969 -0.644176
v -1.630079 1.858538 1.816098
v -1.816100 1.858538 1.630077
v -1.810005 1.858535 -1.636176
v -1.636174 1.858535 -1.810007
v 1.617821 1.858535 -1.828360
v 1.828358 1.858535 -1.617823
v 1.815696 1.858538 1.630481
v 1.630483 1.858538 1.815694
v -1.830614 2.200159 -1.030475
v -1.030710 2.200375 1.830571
v 1.845627 2.158618 -1.059549
v -1.030761 2.200418 -1.830566
v -1.815474 2.235631 0.962543
v -1.792793 2.200236 -0.000353
v 1.056118 2.145617 1.847841
v -0.000218 2.200587 1.792691
v 1.830576 2.200357 1.030688
v 1.792785 2.200266 0.000310
v 1.030761 2.200418 -1.830566
v -0.000000 2.200505 -1.792720
v -1.490404 2.186065 1.738764
v -2.735134 0.000004 3.425513
v -1.408101 2.186065 1.742507
v -2.676369 0.000004 3.484277
v -1.451012 2.258614 1.765871
v -2.793899 0.000004 3.484277
v -1.367928 2.258614 1.767787
v -2.735134 0.000004 3.543042
v 1.490404 2.186065 1.738764
v 2.735134 0.000004 3.425513
v 1.408101 2.186065 1.742507
v 2.676369 0.000004 3.484277
v 1.451012 2.258614 1.765871
v 2.793899 0.000004 3.484277
v 1.367928 2.258614 1.767787
v 2.735134 0.000004 3.543042
v -1.490404 2.186062 -1.738769
v -2.735134 -0.000004 -3.425513
v -1.408101 2.186062 -1.742511
v -2.676369 -0.000004 -3.484277
v -1.451012 2.258610 -1.765875
v -2.793899 -0.000004 -3.484277
v -1.367928 2.258610 -1.767792
v -2.735134 -0.000004 -3.543042
v 1.490404 2.186062 -1.738769
v 2.735134 -0.000004 -3.425513
v 1.408101 2.186062 -1.742511
v 2.676369 -0.000004 -3.484277
v 1.451012 2.258610 -1.765875
v 2.793899 -0.000004 -3.484277
v 1.367928 2.258610 -1.767792
v 2.735134 -0.000004 -3.543042
v 0.000000 3.610015 0.060011
v 0.000000 4.735846 0.060010
v -0.060015 3.610015 -0.000004
v -0.060015 4.735846 -0.000005
v 0.060015 3.610015 -0.000004
v 0.060015 4.735846 -0.000005
v 0.000000 3.610015 -0.060019
v 0.000000 4.735846 -0.060020
v 0.050448 4.186235 -0.000004
v 0.020441 4.186235 0.026235
v 0.020441 4.186235 -0.026244
v 0.050448 4.662891 -0.000005
v 0.020441 4.662891 0.026235
v 0.020441 4.662891 -0.026245
v 0.276138 4.593214 0.026235
v 0.531835 4.460866 0.008615
v 0.561843 4.460866 -0.000005
v 0.306145 4.593214 -0.000005
v 0.306145 4.255913 -0.000005
v 0.561843 4.388260 -0.000005
v 0.531835 4.388260 0.008616
v 0.276138 4.255913 0.026235
v 0.531835 4.460866 -0.008625
v 0.276138 4.593214 -0.026245
v 0.276138 4.255913 -0.026244
v 0.531835 4.388260 -0.008625
v 0.000001 3.895425 -0.000004
vt 0.365323 0.882981
vt 0.365323 0.908022
vt 0.331065 0.915670
vt 0.331065 0.875332
vt 0.426162 0.939879
vt 0.426162 0.927876
vt 0.464210 0.921357
vt 0.464210 0.946398
vt 0.403574 0.779322
vt 0.331065 0.773945
vt 0.331065 0.758212
vt 0.403574 0.752835
vt 0.233191 0.817048
vt 0.199102 0.826583
vt 0.199102 0.799734
vt 0.233191 0.773893
vt 0.090296 0.816616
vt 0.056444 0.825898
vt 0.056320 0.798528
vt 0.090296 0.773044
vt 0.193059 0.698066
vt 0.136007 0.684269
vt 0.136000 0.643930
vt 0.193059 0.630117
vt 0.518380 0.703216
vt 0.518380 0.635133
vt 0.575020 0.648954
vt 0.575020 0.689395
vt 0.581609 0.716026
vt 0.581609 0.732882
vt 0.508540 0.738412
vt 0.508540 0.710496
vt 0.824930 0.949154
vt 0.787992 0.942609
vt 0.787992 0.930539
vt 0.824930 0.923994
vt 0.888611 0.546427
vt 0.888611 0.535296
vt 0.930987 0.532433
vt 0.930987 0.549289
vt 0.941809 0.690173
vt 0.941809 0.699961
vt 0.899100 0.697414
vt 0.899100 0.692719
vt 0.656344 0.083416
vt 0.656344 0.093204
vt 0.613635 0.090658
vt 0.613635 0.085962
vt 0.781948 0.709514
vt 0.781948 0.782165
vt 0.757428 0.751968
vt 0.781948 0.917950
vt 0.766695 0.902697
vt 0.781948 0.875374
vt 0.908798 0.744422
vt 0.920752 0.708864
vt 0.931774 0.715527
vt 0.931774 0.758312
vt 0.908802 0.896692
vt 0.931778 0.882801
vt 0.931778 0.925586
vt 0.920756 0.932250
vt 0.705097 0.093204
vt 0.662387 0.090658
vt 0.662387 0.085962
vt 0.705097 0.083416
vt 0.964525 0.225467
vt 0.921816 0.222921
vt 0.921816 0.218225
vt 0.964525 0.215679
vt 0.892797 0.195969
vt 0.904751 0.160411
vt 0.915772 0.167075
vt 0.915772 0.209860
vt 0.908798 0.799914
vt 0.920752 0.764356
vt 0.931774 0.771020
vt 0.931774 0.813805
vt 0.564126 0.091868
vt 0.564126 0.086094
vt 0.607591 0.083416
vt 0.607591 0.094546
vt 0.128829 0.740514
vt 0.128829 0.767001
vt 0.056320 0.761624
vt 0.056320 0.745891
vt 0.628453 0.293575
vt 0.585780 0.290603
vt 0.585780 0.280815
vt 0.628453 0.277842
vt 0.446464 0.724747
vt 0.502157 0.698837
vt 0.502157 0.741993
vt 0.037110 0.793256
vt 0.037110 0.836412
vt 0.003022 0.810570
vt 0.003022 0.783722
vt 0.753302 0.358850
vt 0.712078 0.313314
vt 0.753302 0.300548
vt 0.621741 0.778764
vt 0.621741 0.821920
vt 0.587653 0.796078
vt 0.587653 0.769230
vt 0.502157 0.774523
vt 0.429648 0.769147
vt 0.429648 0.753413
vt 0.502157 0.748036
vt 0.322545 0.954245
vt 0.322545 0.969978
vt 0.279872 0.967006
vt 0.279872 0.957217
vt 0.440421 0.622875
vt 0.440421 0.684299
vt 0.401292 0.666096
vt 0.737950 0.818294
vt 0.703862 0.827828
vt 0.703862 0.800980
vt 0.737950 0.775138
vt 0.751385 0.534290
vt 0.710160 0.488753
vt 0.751385 0.475988
vt 0.508540 0.786520
vt 0.542628 0.776986
vt 0.542628 0.803834
vt 0.508540 0.829676
vt 0.581049 0.744455
vt 0.581049 0.770942
vt 0.508540 0.765565
vt 0.508540 0.749832
vt 0.566764 0.197435
vt 0.524091 0.194463
vt 0.524091 0.184674
vt 0.566764 0.181702
vt 0.621741 0.720031
vt 0.621741 0.763186
vt 0.587653 0.737345
vt 0.587653 0.710496
vt 0.290005 0.883720
vt 0.290005 0.843278
vt 0.324567 0.850919
vt 0.324567 0.876079
vt 0.201872 0.562648
vt 0.201872 0.624073
vt 0.136000 0.593293
vt 0.647477 0.475988
vt 0.704117 0.489808
vt 0.704117 0.530250
vt 0.647477 0.544070
vt 0.187558 0.923831
vt 0.187558 0.948991
vt 0.150620 0.942446
vt 0.150620 0.930376
vt 0.324093 0.794079
vt 0.324093 0.837234
vt 0.290005 0.811393
vt 0.290005 0.784544
vt 0.003022 0.873525
vt 0.037584 0.881166
vt 0.037584 0.906326
vt 0.003022 0.913966
vt 0.512336 0.557762
vt 0.512336 0.619187
vt 0.446464 0.588407
vt 0.706034 0.368631
vt 0.649394 0.354810
vt 0.649394 0.314369
vt 0.706034 0.300548
vt 0.908802 0.841199
vt 0.931778 0.827308
vt 0.931778 0.870094
vt 0.920756 0.876757
vt 0.144576 0.948991
vt 0.107638 0.942446
vt 0.107638 0.930376
vt 0.144576 0.923831
vt 0.674856 0.796730
vt 0.640768 0.806264
vt 0.640768 0.779416
vt 0.674856 0.753574
vt 0.518380 0.582385
vt 0.574029 0.556382
vt 0.574029 0.629090
vt 0.781948 0.788209
vt 0.781948 0.819501
vt 0.744773 0.798748
vt 0.750656 0.788209
vt 0.899100 0.648571
vt 0.922076 0.634680
vt 0.922076 0.677465
vt 0.911054 0.684129
vt 0.858741 0.003022
vt 0.858741 0.075673
vt 0.837351 0.035348
vt 0.886213 0.081717
vt 0.886213 0.149799
vt 0.864784 0.115758
vt 0.429648 0.915314
vt 0.429648 0.874872
vt 0.464210 0.882513
vt 0.464210 0.907673
vt 0.068893 0.563563
vt 0.068893 0.624987
vt 0.003022 0.594208
vt 0.315080 0.699155
vt 0.258439 0.685334
vt 0.258439 0.644893
vt 0.315080 0.631072
vt 0.921464 0.510080
vt 0.933418 0.474522
vt 0.944440 0.481186
vt 0.944440 0.523971
vt 0.624591 0.949809
vt 0.587653 0.943264
vt 0.587653 0.931194
vt 0.624591 0.924649
vt 0.883885 0.555333
vt 0.883885 0.627984
vt 0.862496 0.587659
vt 0.677464 0.827964
vt 0.677464 0.896046
vt 0.656035 0.862005
vt 0.877397 0.782165
vt 0.856008 0.749839
vt 0.877397 0.709514
vt 0.189988 0.868173
vt 0.208756 0.832790
vt 0.208756 0.905441
vt 0.837351 0.114043
vt 0.858741 0.081717
vt 0.858741 0.154368
vt 0.856375 0.861350
vt 0.877803 0.827308
vt 0.877803 0.895391
vt 0.865325 0.194452
vt 0.886753 0.160411
vt 0.886753 0.228494
vt 0.836160 0.427563
vt 0.857549 0.395237
vt 0.857549 0.467888
vt 0.003022 0.747239
vt 0.028489 0.705027
vt 0.028489 0.777678
vt 0.558082 0.094546
vt 0.514617 0.091868
vt 0.514617 0.086094
vt 0.558082 0.083416
vt 0.315080 0.778501
vt 0.290005 0.736142
vt 0.315080 0.705198
vt 0.976125 0.642316
vt 0.986932 0.634680
vt 0.986932 0.670852
vt 0.904111 0.239385
vt 0.917036 0.236546
vt 0.917036 0.275149
vt 0.890227 0.280660
vt 0.892744 0.016913
vt 0.915720 0.003022
vt 0.915720 0.045807
vt 0.904698 0.052471
vt 0.567552 0.294117
vt 0.524087 0.291438
vt 0.524087 0.285665
vt 0.567552 0.282986
vt 0.915421 0.480033
vt 0.915421 0.518636
vt 0.902496 0.515797
vt 0.888611 0.474522
vt 0.484138 0.877711
vt 0.497063 0.874872
vt 0.497063 0.913475
vt 0.470254 0.918986
vt 0.459643 0.193176
vt 0.459643 0.187403
vt 0.503108 0.184724
vt 0.503108 0.195855
vt 0.272172 0.733891
vt 0.199102 0.728361
vt 0.199102 0.711505
vt 0.272172 0.705975
vt 0.712078 0.378887
vt 0.712078 0.367756
vt 0.754453 0.364894
vt 0.754453 0.381750
vt 0.325026 0.176254
vt 0.268863 0.193349
vt 0.268662 0.149778
vt 0.325026 0.102950
vt 0.136000 0.780679
vt 0.136125 0.753309
vt 0.169977 0.762591
vt 0.169977 0.806163
vt 0.325022 0.277536
vt 0.268867 0.294639
vt 0.268662 0.251067
vt 0.325022 0.204235
vt 0.273211 0.817465
vt 0.239359 0.826746
vt 0.239234 0.799377
vt 0.273211 0.773893
vt 0.056320 0.728941
vt 0.056320 0.712085
vt 0.129389 0.706555
vt 0.129389 0.734470
vt 0.892744 0.072508
vt 0.892744 0.061377
vt 0.935119 0.058514
vt 0.935119 0.075370
vt 0.404190 0.968532
vt 0.361518 0.965560
vt 0.361518 0.955771
vt 0.404190 0.952799
vt 0.331065 0.247806
vt 0.331273 0.204235
vt 0.387423 0.221340
vt 0.387423 0.294642
vt 0.331070 0.146522
vt 0.331277 0.102950
vt 0.387427 0.120055
vt 0.387427 0.193357
vt 0.821969 0.753086
vt 0.788117 0.762368
vt 0.787992 0.734998
vt 0.821969 0.709514
vt 0.199102 0.762319
vt 0.199102 0.745463
vt 0.272172 0.739935
vt 0.272172 0.767849
vt 0.464210 0.969298
vt 0.421835 0.966435
vt 0.421835 0.955305
vt 0.464210 0.952442
vt 0.405063 0.828938
vt 0.371211 0.838219
vt 0.371086 0.810850
vt 0.405063 0.785366
vt 0.405625 0.915670
vt 0.371367 0.908022
vt 0.371367 0.882981
vt 0.405625 0.875332
vt 0.268662 0.344254
vt 0.268869 0.300682
vt 0.325019 0.317786
vt 0.325019 0.391089
vt 0.697818 0.698332
vt 0.640778 0.684539
vt 0.640768 0.644201
vt 0.697818 0.630379
vt 0.905990 0.318846
vt 0.918915 0.316007
vt 0.918915 0.354610
vt 0.892106 0.360121
vt 0.787992 0.795781
vt 0.788117 0.768411
vt 0.821969 0.777693
vt 0.821969 0.821265
vt 0.107638 0.910139
vt 0.107638 0.885097
vt 0.141896 0.877449
vt 0.141896 0.917787
vt 0.916738 0.560844
vt 0.916738 0.599447
vt 0.903813 0.596608
vt 0.889929 0.555333
vt 0.331065 0.921714
vt 0.369113 0.928233
vt 0.369113 0.940236
vt 0.331065 0.946755
vt 0.429648 0.807936
vt 0.429773 0.780567
vt 0.463625 0.789849
vt 0.463625 0.833420
vt 0.147940 0.910139
vt 0.147940 0.885097
vt 0.182198 0.877449
vt 0.182198 0.917787
vt 0.387433 0.076324
vt 0.331284 0.093429
vt 0.331076 0.049857
vt 0.387433 0.003022
vt 0.060072 0.644838
vt 0.060072 0.685176
vt 0.003022 0.698983
vt 0.003022 0.631031
vt 0.919065 0.087228
vt 0.919065 0.125830
vt 0.906141 0.122991
vt 0.892256 0.081717
vt 0.375157 0.940236
vt 0.375157 0.928233
vt 0.413205 0.921714
vt 0.413205 0.946755
vt 0.856452 0.628636
vt 0.834511 0.595560
vt 0.856452 0.555333
vt 0.859281 0.228361
vt 0.837351 0.194413
vt 0.859281 0.160411
vt 0.331065 0.812735
vt 0.331190 0.785366
vt 0.365042 0.794647
vt 0.365042 0.838219
vt 0.331065 0.344257
vt 0.331281 0.300685
vt 0.387414 0.317800
vt 0.387414 0.391102
vt 0.697834 0.624335
vt 0.640780 0.610545
vt 0.640768 0.570207
vt 0.697834 0.556382
vt 0.905448 0.398076
vt 0.918373 0.395237
vt 0.918373 0.433839
vt 0.891564 0.439351
vt 0.317920 0.948201
vt 0.279872 0.941682
vt 0.279872 0.929679
vt 0.317920 0.923160
vt 0.858102 0.389193
vt 0.836160 0.356125
vt 0.858102 0.315892
vt 0.886062 0.383960
vt 0.864145 0.349984
vt 0.886062 0.316007
vt 0.858102 0.236546
vt 0.858102 0.309848
vt 0.836160 0.269614
vt 0.883441 0.746870
vt 0.902754 0.708864
vt 0.902754 0.782165
vt 0.828012 0.749720
vt 0.849964 0.709514
vt 0.849964 0.782814
vt 0.863593 0.429245
vt 0.885520 0.395237
vt 0.885520 0.463190
vt 0.864784 0.037019
vt 0.886700 0.003022
vt 0.886700 0.070975
vt 0.834511 0.516216
vt 0.856454 0.475988
vt 0.856454 0.549289
vt 0.703862 0.726966
vt 0.729882 0.695793
vt 0.729882 0.769095
vt 0.401292 0.690343
vt 0.435855 0.697984
vt 0.435855 0.723144
vt 0.401292 0.730785
vt 0.496478 0.786078
vt 0.496478 0.824681
vt 0.483553 0.821842
vt 0.469669 0.780567
vt 0.325033 0.076322
vt 0.268857 0.093413
vt 0.268662 0.049841
vt 0.325033 0.003022
vt 0.049963 0.829268
vt 0.044207 0.828807
vt 0.049963 0.793096
vt 0.967736 0.605490
vt 0.967736 0.617493
vt 0.937817 0.611492
vt 0.976639 0.089352
vt 0.987447 0.081717
vt 0.987447 0.117889
vt 0.495695 0.286009
vt 0.495695 0.291782
vt 0.459639 0.288895
vt 0.883847 0.961661
vt 0.895615 0.959300
vt 0.895615 0.989815
vt 0.490007 0.090742
vt 0.490007 0.096515
vt 0.453950 0.093628
vt 0.987677 0.352180
vt 0.976870 0.344544
vt 0.987677 0.316007
vt 0.429527 0.190533
vt 0.429527 0.196307
vt 0.393470 0.193420
vt 0.988638 0.388738
vt 0.976870 0.386377
vt 0.988638 0.358223
vt 0.257663 0.940228
vt 0.268471 0.932592
vt 0.268471 0.968765
vt 0.990166 0.168286
vt 0.979358 0.160650
vt 0.990166 0.132113
vt 0.977020 0.279726
vt 0.988788 0.277365
vt 0.988788 0.307880
vt 0.781948 0.861717
vt 0.771141 0.854082
vt 0.781948 0.825545
vt 0.972765 0.239269
vt 0.983573 0.231633
vt 0.983573 0.267806
vt 0.987208 0.431409
vt 0.976400 0.423774
vt 0.987208 0.395237
vt 0.666833 0.980571
vt 0.664038 0.976798
vt 0.666833 0.964226
vt 0.962085 0.702711
vt 0.952354 0.694273
vt 0.962085 0.681139
vt 0.099135 0.903936
vt 0.096340 0.900163
vt 0.099135 0.887590
vt 0.399015 0.857396
vt 0.408746 0.844263
vt 0.408746 0.865834
vt 0.615859 0.966392
vt 0.621743 0.955853
vt 0.621743 0.987145
vt 0.637292 0.294188
vt 0.634496 0.281615
vt 0.637292 0.277842
vt 0.898486 0.820150
vt 0.892602 0.799397
vt 0.898486 0.788858
vt 0.575603 0.198047
vt 0.572808 0.194275
vt 0.575603 0.181702
vt 0.640460 0.198129
vt 0.630730 0.189691
vt 0.640460 0.176558
vt 0.957857 0.070861
vt 0.948126 0.057727
vt 0.957857 0.049289
vt 0.502496 0.867012
vt 0.496613 0.856473
vt 0.502496 0.835719
vt 0.524087 0.250940
vt 0.579736 0.204235
vt 0.579736 0.276943
vt 0.524091 0.149655
vt 0.579741 0.102950
vt 0.579741 0.175658
vt 0.268662 0.531558
vt 0.324311 0.484853
vt 0.324311 0.557561
vt 0.324311 0.625029
vt 0.258439 0.594384
vt 0.324311 0.563604
vt 0.331065 0.720882
vt 0.386758 0.703636
vt 0.386758 0.746792
vt 0.640768 0.721621
vt 0.696460 0.704375
vt 0.696460 0.747531
vt 0.743006 0.617807
vt 0.703878 0.574585
vt 0.743006 0.556382
vt 0.136000 0.721356
vt 0.191693 0.704110
vt 0.191693 0.747265
vt 0.744773 0.701668
vt 0.750841 0.701668
vt 0.750841 0.782165
vt 0.744773 0.782165
vt 0.633853 0.710496
vt 0.633853 0.790993
vt 0.627785 0.790993
vt 0.627785 0.710496
vt 0.044207 0.706555
vt 0.050276 0.706555
vt 0.050276 0.787052
vt 0.044208 0.787052
vt 0.417536 0.748036
vt 0.423605 0.748036
vt 0.423605 0.828534
vt 0.417536 0.828534
vt 0.441639 0.196602
vt 0.435571 0.196602
vt 0.435571 0.190533
vt 0.441639 0.190533
vt 0.996168 0.743782
vt 0.996168 0.779550
vt 0.994145 0.779479
vt 0.994141 0.743756
vt 0.995001 0.672849
vt 0.992976 0.672849
vt 0.992977 0.634748
vt 0.995001 0.634680
vt 0.991647 0.231660
vt 0.991647 0.270428
vt 0.989616 0.270321
vt 0.989619 0.231633
vt 0.974647 0.548621
vt 0.950484 0.545349
vt 0.950484 0.524061
vt 0.974647 0.520790
vt 0.549820 0.974376
vt 0.549820 0.956799
vt 0.574230 0.951149
vt 0.574230 0.980026
vt 0.996483 0.878961
vt 0.996483 0.914730
vt 0.994460 0.914652
vt 0.994457 0.878939
vt 0.036556 0.705027
vt 0.036556 0.744950
vt 0.034540 0.744910
vt 0.034533 0.705039
vt 0.966250 0.879611
vt 0.988413 0.878939
vt 0.988413 0.906770
vt 0.966250 0.906098
vt 0.955703 0.760554
vt 0.955703 0.806201
vt 0.937817 0.772481
vt 0.208756 0.911485
vt 0.208756 0.960784
vt 0.196218 0.926263
vt 0.587653 0.956525
vt 0.609816 0.955853
vt 0.609816 0.983684
vt 0.587653 0.983012
vt 0.716062 0.070446
vt 0.718089 0.070423
vt 0.718089 0.096838
vt 0.716060 0.096907
vt 0.970826 0.316007
vt 0.970826 0.356060
vt 0.952940 0.327935
vt 0.987090 0.922939
vt 0.987090 0.949426
vt 0.964927 0.950098
vt 0.964927 0.922267
vt 0.958884 0.922267
vt 0.958884 0.961029
vt 0.937821 0.929197
vt 0.574463 0.904882
vt 0.574463 0.945106
vt 0.549820 0.918305
vt 0.470254 0.957355
vt 0.491643 0.925029
vt 0.491643 0.963199
vt 0.071404 0.942783
vt 0.095611 0.910658
vt 0.095611 0.947063
vt 0.162009 0.982865
vt 0.137845 0.978355
vt 0.137845 0.959545
vt 0.162009 0.955034
vt 0.946567 0.302440
vt 0.946569 0.281151
vt 0.970976 0.277365
vt 0.970976 0.306260
vt 0.131802 0.982865
vt 0.107638 0.978314
vt 0.107638 0.959586
vt 0.131802 0.955034
vt 0.585180 0.374479
vt 0.609761 0.374479
vt 0.609761 0.376525
vt 0.584845 0.376481
vt 0.126842 0.797637
vt 0.126795 0.773048
vt 0.128841 0.773044
vt 0.128841 0.797986
vt 0.892256 0.141932
vt 0.929076 0.131874
vt 0.929076 0.154047
vt 0.573675 0.825011
vt 0.548672 0.786821
vt 0.573675 0.776986
vt 0.970596 0.121941
vt 0.953090 0.102098
vt 0.970596 0.081717
vt 0.842150 0.964790
vt 0.877803 0.946167
vt 0.877803 0.967665
vt 0.940523 0.280660
vt 0.923079 0.244198
vt 0.940523 0.231633
vt 0.725676 0.969729
vt 0.703862 0.937523
vt 0.725676 0.933553
vt 0.214800 0.942651
vt 0.251620 0.932592
vt 0.251620 0.954766
vt 0.955703 0.708864
vt 0.955703 0.754510
vt 0.937817 0.742583
vt 0.065017 0.963562
vt 0.043627 0.931236
vt 0.065017 0.925393
vt 0.969538 0.514746
vt 0.950484 0.484475
vt 0.969538 0.474522
vt 0.967181 0.003022
vt 0.967181 0.043246
vt 0.948126 0.033293
vt 0.931123 0.286704
vt 0.931123 0.308877
vt 0.890227 0.294988
vt 0.694629 0.902090
vt 0.694629 0.930151
vt 0.656035 0.926465
vt 0.543776 0.939520
vt 0.543776 0.961018
vt 0.508123 0.958143
vt 0.969756 0.595557
vt 0.951023 0.590589
vt 0.969756 0.555333
vt 0.942082 0.048669
vt 0.921763 0.034833
vt 0.942082 0.003022
vt 0.966721 0.271322
vt 0.946567 0.262077
vt 0.966721 0.231633
vt 0.984478 0.855705
vt 0.961680 0.856185
vt 0.961680 0.827308
vt 0.984478 0.827789
vt 0.902038 0.953257
vt 0.883847 0.940907
vt 0.902038 0.907429
vt 0.697446 0.854543
vt 0.684657 0.839401
vt 0.697446 0.805026
vt 0.787997 0.955699
vt 0.810794 0.955198
vt 0.810794 0.984092
vt 0.787992 0.983614
vt 0.970357 0.435471
vt 0.952184 0.423094
vt 0.970357 0.395237
vt 0.908809 0.938807
vt 0.931602 0.938293
vt 0.931602 0.967208
vt 0.908802 0.966723
vt 0.929393 0.445394
vt 0.929393 0.468198
vt 0.891564 0.457480
vt 0.543776 0.904882
vt 0.543776 0.933476
vt 0.508540 0.924667
vt 0.946141 0.434927
vt 0.924416 0.427991
vt 0.946141 0.395237
vt 0.944979 0.595747
vt 0.922782 0.584075
vt 0.944979 0.555333
vt 0.393831 0.094083
vt 0.393477 0.092084
vt 0.418532 0.092037
vt 0.418532 0.094083
vt 0.629830 0.797359
vt 0.629830 0.821743
vt 0.627785 0.821743
vt 0.627826 0.797037
vt 0.946897 0.355312
vt 0.924959 0.322234
vt 0.946897 0.316007
vt 0.279872 0.907016
vt 0.324567 0.889763
vt 0.324567 0.917117
vt 0.970081 0.634680
vt 0.970081 0.675095
vt 0.952354 0.654264
vt 0.753641 0.933553
vt 0.753641 0.969266
vt 0.731720 0.967560
vt 0.939563 0.160411
vt 0.939563 0.209635
vt 0.921816 0.196656
vt 0.960207 0.878939
vt 0.960207 0.916223
vt 0.937821 0.911880
vt 0.892106 0.378228
vt 0.929913 0.366165
vt 0.929913 0.388972
vt 0.946311 0.680508
vt 0.928120 0.647030
vt 0.946311 0.634680
vt 0.947046 0.081717
vt 0.947046 0.121015
vt 0.925109 0.114788
vt 0.781604 0.969248
vt 0.759685 0.935273
vt 0.781604 0.933553
vt 0.656035 0.938987
vt 0.691621 0.936195
vt 0.691621 0.958182
vt 0.931773 0.628298
vt 0.889929 0.620143
vt 0.931773 0.605490
vt 0.849345 0.937330
vt 0.877803 0.901434
vt 0.877803 0.940123
vt 0.649986 0.924649
vt 0.649986 0.965113
vt 0.630634 0.935087
vt 0.624686 0.196378
vt 0.585784 0.185297
vt 0.624686 0.176558
vt 0.064240 0.873525
vt 0.064240 0.919349
vt 0.043627 0.887810
vt 0.003022 0.953823
vt 0.025504 0.920010
vt 0.025504 0.957604
vt 0.993787 0.082782
vt 0.995515 0.081717
vt 0.995515 0.119001
vt 0.993491 0.118956
vt 0.985787 0.537562
vt 0.985458 0.499394
vt 0.987483 0.499372
vt 0.987483 0.538677
vt 0.993537 0.396285
vt 0.995275 0.395237
vt 0.995275 0.432831
vt 0.993251 0.432795
vt 0.988097 0.744890
vt 0.988097 0.783060
vt 0.986072 0.783060
vt 0.986413 0.743756
vt 0.429235 0.291818
vt 0.429235 0.293842
vt 0.393540 0.293841
vt 0.393466 0.291818
vt 0.718087 0.102950
vt 0.718087 0.150975
vt 0.716060 0.150868
vt 0.716061 0.102959
vt 0.394826 0.744056
vt 0.392802 0.744081
vt 0.392804 0.703725
vt 0.394826 0.703636
vt 0.996095 0.591497
vt 0.994072 0.591474
vt 0.994070 0.555158
vt 0.996095 0.555092
vt 0.003022 0.963648
vt 0.005047 0.963670
vt 0.005047 0.996930
vt 0.003023 0.996978
vt 0.995160 0.922267
vt 0.995160 0.960014
vt 0.993134 0.959954
vt 0.993134 0.922277
vt 0.282174 0.864375
vt 0.282174 0.883184
vt 0.280129 0.883184
vt 0.280129 0.864375
vt 0.672877 0.964226
vt 0.674923 0.964226
vt 0.674923 0.981803
vt 0.672877 0.981803
vt 0.071404 0.980938
vt 0.071404 0.953107
vt 0.095567 0.958233
vt 0.095567 0.975811
vt 0.833019 0.948575
vt 0.831018 0.948916
vt 0.830974 0.923994
vt 0.833019 0.923994
vt 0.610435 0.469028
vt 0.610120 0.467023
vt 0.634819 0.466983
vt 0.634819 0.469028
vt 0.579488 0.469028
vt 0.579146 0.467027
vt 0.604076 0.466983
vt 0.604076 0.469028
vt 0.355474 0.981648
vt 0.331066 0.976642
vt 0.331065 0.957832
vt 0.355474 0.952799
vt 0.096340 0.796843
vt 0.096342 0.778114
vt 0.120752 0.773044
vt 0.120752 0.801959
vt 0.034579 0.775699
vt 0.034533 0.750998
vt 0.036579 0.750994
vt 0.036579 0.776049
vt 0.995751 0.352154
vt 0.993724 0.352180
vt 0.993721 0.315859
vt 0.995751 0.315746
vt 0.984550 0.708864
vt 0.984550 0.737713
vt 0.961750 0.737237
vt 0.961747 0.709322
vt 0.964927 0.956814
vt 0.987090 0.956141
vt 0.987090 0.983973
vt 0.964927 0.983300
vt 0.995003 0.003022
vt 0.995003 0.041191
vt 0.992980 0.041123
vt 0.992978 0.003022
vt 0.749379 0.594588
vt 0.749050 0.556420
vt 0.751077 0.556382
vt 0.751077 0.595701
vt 0.995551 0.536100
vt 0.993527 0.536125
vt 0.993535 0.499448
vt 0.995551 0.499372
vt 0.986330 0.593281
vt 0.986001 0.555113
vt 0.988026 0.555092
vt 0.988026 0.594396
vt 0.216824 0.960809
vt 0.216824 0.996578
vt 0.214800 0.996504
vt 0.214800 0.960809
vt 0.424576 0.092037
vt 0.445865 0.092037
vt 0.445865 0.094083
vt 0.424576 0.094083
vt 0.939076 0.549289
vt 0.937030 0.549289
vt 0.937030 0.530561
vt 0.939076 0.530561
vt 0.989565 0.175442
vt 0.991262 0.174329
vt 0.991262 0.213627
vt 0.989237 0.213610
vt 0.736276 0.696941
vt 0.737951 0.695793
vt 0.737951 0.740129
vt 0.735925 0.740130
vt 0.862498 0.489019
vt 0.882568 0.474522
vt 0.882568 0.549289
vt 0.459672 0.277630
vt 0.459639 0.204235
vt 0.518044 0.205002
vt 0.518044 0.279965
vt 0.202206 0.553828
vt 0.202172 0.480433
vt 0.260578 0.481200
vt 0.260578 0.556163
vt 0.762273 0.863266
vt 0.703875 0.862566
vt 0.703862 0.834768
vt 0.762273 0.833872
vt 0.850331 0.827308
vt 0.850331 0.855328
vt 0.787992 0.854989
vt 0.787992 0.827647
vt 0.712572 0.167546
vt 0.712572 0.195675
vt 0.650233 0.195303
vt 0.650236 0.167834
vt 0.169977 0.840336
vt 0.107641 0.840048
vt 0.107638 0.812579
vt 0.169977 0.812206
vt 0.063499 0.018147
vt 0.063499 0.098263
vt 0.003135 0.092833
vt 0.003022 0.003022
vt 0.447907 0.083138
vt 0.393477 0.085993
vt 0.393538 0.011030
vt 0.447907 0.003022
vt 0.587653 0.828302
vt 0.649992 0.827964
vt 0.649992 0.855983
vt 0.587653 0.855645
vt 0.508540 0.835719
vt 0.566952 0.836546
vt 0.566952 0.864257
vt 0.508540 0.865084
vt 0.703862 0.896836
vt 0.703862 0.869494
vt 0.758816 0.869309
vt 0.758816 0.897020
vt 0.273211 0.832790
vt 0.273211 0.862218
vt 0.214800 0.861320
vt 0.214814 0.833517
vt 0.889465 0.666813
vt 0.889465 0.694616
vt 0.834511 0.694407
vt 0.834527 0.666938
vt 0.650229 0.269139
vt 0.712136 0.268680
vt 0.712136 0.293706
vt 0.650229 0.293248
vt 0.269754 0.896059
vt 0.214816 0.895941
vt 0.214800 0.868472
vt 0.269754 0.868261
vt 0.063499 0.119431
vt 0.063499 0.199547
vt 0.003135 0.194117
vt 0.003022 0.104306
vt 0.202234 0.466381
vt 0.202172 0.391417
vt 0.256602 0.394273
vt 0.256602 0.474389
vt 0.069656 0.008452
vt 0.130020 0.003022
vt 0.130020 0.083138
vt 0.069543 0.098263
vt 0.136062 0.380482
vt 0.136000 0.305519
vt 0.190430 0.308375
vt 0.190430 0.388491
vt 0.404219 0.484978
vt 0.447887 0.477283
vt 0.447887 0.538340
vt 0.399031 0.547098
vt 0.746275 0.634889
vt 0.746275 0.689749
vt 0.706644 0.685527
vt 0.703862 0.630379
vt 0.447887 0.468384
vt 0.393458 0.471240
vt 0.393519 0.396277
vt 0.447887 0.388268
vt 0.129389 0.565957
vt 0.129389 0.633521
vt 0.074937 0.635916
vt 0.074937 0.563563
vt 0.069656 0.109736
vt 0.130020 0.104306
vt 0.130020 0.184422
vt 0.069543 0.199547
vt 0.202173 0.380945
vt 0.202172 0.308592
vt 0.262618 0.304163
vt 0.262618 0.385374
vt 0.061427 0.556752
vt 0.003022 0.557519
vt 0.003055 0.484124
vt 0.061427 0.481789
vt 0.585784 0.169784
vt 0.585784 0.103680
vt 0.644190 0.102950
vt 0.644190 0.170514
vt 0.440421 0.562200
vt 0.440421 0.616831
vt 0.399118 0.612628
vt 0.396302 0.557762
vt 0.089569 0.698844
vt 0.067348 0.659197
vt 0.129389 0.641959
vt 0.129389 0.700511
vt 0.117925 0.472890
vt 0.063495 0.475745
vt 0.063556 0.400782
vt 0.117925 0.392773
vt 0.694293 0.390663
vt 0.694293 0.458227
vt 0.639841 0.460621
vt 0.639841 0.388268
vt 0.453599 0.184490
vt 0.393470 0.180055
vt 0.393470 0.107384
vt 0.453599 0.102950
vt 0.518048 0.177913
vt 0.459643 0.178681
vt 0.459676 0.105285
vt 0.518048 0.102950
vt 0.886559 0.814125
vt 0.828012 0.814947
vt 0.828012 0.788858
vt 0.886559 0.789680
vt 0.514253 0.379257
vt 0.459630 0.382225
vt 0.459638 0.308692
vt 0.514253 0.300548
vt 0.196541 0.018147
vt 0.196541 0.098263
vt 0.136177 0.092833
vt 0.136064 0.003022
vt 0.063468 0.309948
vt 0.063468 0.382301
vt 0.003022 0.386730
vt 0.003022 0.305519
vt 0.125876 0.556752
vt 0.067470 0.557519
vt 0.067504 0.484124
vt 0.125876 0.481789
vt 0.504870 0.625960
vt 0.504870 0.692064
vt 0.446464 0.692794
vt 0.446464 0.625230
vt 0.179165 0.955034
vt 0.179165 0.990288
vt 0.168052 0.960273
vt 0.963438 0.205658
vt 0.945607 0.177588
vt 0.963438 0.160411
vt 0.884183 0.236546
vt 0.884183 0.309964
vt 0.864145 0.295268
vt 0.573122 0.003839
vt 0.573122 0.077372
vt 0.514618 0.074984
vt 0.514617 0.003022
vt 0.576884 0.549521
vt 0.518380 0.550338
vt 0.518381 0.478376
vt 0.576884 0.475988
vt 0.834511 0.634680
vt 0.893057 0.635502
vt 0.893057 0.659948
vt 0.834511 0.660769
vt 0.584845 0.300548
vt 0.643350 0.301277
vt 0.643350 0.367707
vt 0.584845 0.368435
vt 0.169545 0.871405
vt 0.107638 0.870947
vt 0.107638 0.846838
vt 0.169545 0.846379
vt 0.003022 0.842914
vt 0.064928 0.842455
vt 0.064928 0.867481
vt 0.003022 0.867023
vt 0.578801 0.374081
vt 0.520297 0.374899
vt 0.520298 0.302937
vt 0.578801 0.300548
vt 0.063055 0.293898
vt 0.003022 0.299476
vt 0.003036 0.220767
vt 0.063055 0.205591
vt 0.508554 0.391236
vt 0.508554 0.469944
vt 0.453939 0.461801
vt 0.453931 0.388268
vt 0.587653 0.862027
vt 0.646199 0.862849
vt 0.646199 0.887294
vt 0.587653 0.888116
vt 0.759080 0.903064
vt 0.759080 0.927509
vt 0.703862 0.927341
vt 0.703862 0.903232
vt 0.787992 0.861372
vt 0.846538 0.862193
vt 0.846538 0.886639
vt 0.787992 0.887461
vt 0.508540 0.871127
vt 0.563495 0.871312
vt 0.563495 0.898654
vt 0.508540 0.898838
vt 0.488061 0.840291
vt 0.488061 0.868002
vt 0.429648 0.868828
vt 0.429648 0.839464
vt 0.843211 0.917950
vt 0.787992 0.917782
vt 0.787992 0.893673
vt 0.843211 0.893505
vt 0.331065 0.868830
vt 0.331065 0.844721
vt 0.392972 0.844263
vt 0.392972 0.869289
vt 0.214800 0.926549
vt 0.214800 0.902103
vt 0.270018 0.902271
vt 0.270018 0.926380
vt 0.129132 0.211168
vt 0.129132 0.299476
vt 0.069113 0.284299
vt 0.069099 0.205591
vt 0.190624 0.473243
vt 0.136000 0.476211
vt 0.136009 0.402678
vt 0.190624 0.394534
vt 0.262618 0.192614
vt 0.202585 0.198191
vt 0.202599 0.119483
vt 0.262618 0.104306
vt 0.323285 0.475841
vt 0.268662 0.478809
vt 0.268670 0.405276
vt 0.323285 0.397133
vt 0.634724 0.643674
vt 0.634724 0.704453
vt 0.592765 0.696793
vt 0.587653 0.635096
vt 0.210740 0.566839
vt 0.252035 0.562648
vt 0.252035 0.617277
vt 0.207916 0.621704
vt 0.634724 0.629053
vt 0.580072 0.626661
vt 0.580072 0.558774
vt 0.634724 0.556382
vt 0.262618 0.292542
vt 0.202585 0.298120
vt 0.202599 0.219411
vt 0.262618 0.204235
vt 0.393458 0.300685
vt 0.453586 0.305119
vt 0.453586 0.377790
vt 0.393458 0.382225
vt 0.389570 0.485683
vt 0.389570 0.559216
vt 0.331067 0.556828
vt 0.331065 0.484866
vt 0.585780 0.271069
vt 0.585780 0.204964
vt 0.644186 0.204235
vt 0.644186 0.271799
vt 0.742769 0.057882
vt 0.700356 0.062392
vt 0.703138 0.007244
vt 0.742769 0.003022
vt 0.071404 0.843058
vt 0.090296 0.831941
vt 0.090296 0.904615
vt 0.508574 0.005989
vt 0.508574 0.084698
vt 0.453959 0.076555
vt 0.453950 0.003022
vt 0.633798 0.460939
vt 0.579146 0.458547
vt 0.579146 0.390660
vt 0.633798 0.388268
vt 0.262618 0.008599
vt 0.262618 0.096907
vt 0.202599 0.081730
vt 0.202585 0.003022
vt 0.393466 0.204235
vt 0.453595 0.208669
vt 0.453595 0.281340
vt 0.393466 0.285774
vt 0.573102 0.389086
vt 0.573102 0.462619
vt 0.514599 0.460230
vt 0.514598 0.388268
vt 0.641433 0.543875
vt 0.582928 0.543147
vt 0.582928 0.476716
vt 0.641433 0.475988
vt 0.385689 0.400114
vt 0.385689 0.478822
vt 0.331074 0.470679
vt 0.331065 0.397146
vt 0.639860 0.072980
vt 0.639860 0.005417
vt 0.694312 0.003022
vt 0.694312 0.075375
vt 0.572996 0.896775
vt 0.573072 0.835719
vt 0.576788 0.836493
vt 0.576788 0.897270
vt 0.331065 0.565260
vt 0.389571 0.565988
vt 0.389571 0.632419
vt 0.331065 0.633147
vt 0.192547 0.799014
vt 0.176021 0.767710
vt 0.192547 0.753309
vt 0.937821 0.855571
vt 0.955636 0.827308
vt 0.955636 0.872895
vt 0.245358 0.990174
vt 0.241890 0.988536
vt 0.241890 0.962447
vt 0.245358 0.960809
vt 0.226335 0.990203
vt 0.222867 0.988564
vt 0.222879 0.962474
vt 0.226335 0.960809
vt 0.421369 0.834726
vt 0.421369 0.908122
vt 0.417876 0.906538
vt 0.417536 0.834577
vt 0.973314 0.205509
vt 0.969482 0.205658
vt 0.969821 0.133697
vt 0.973314 0.132113
vt 0.979957 0.555241
vt 0.979957 0.628636
vt 0.976464 0.627053
vt 0.976125 0.555092
vt 0.321123 0.711494
vt 0.324955 0.711331
vt 0.324955 0.777762
vt 0.321123 0.777599
vt 0.127801 0.467541
vt 0.123968 0.467709
vt 0.124278 0.394292
vt 0.127801 0.392773
vt 0.003083 0.467737
vt 0.003022 0.392773
vt 0.057452 0.395629
vt 0.057451 0.475745
vt 0.176021 0.805553
vt 0.179813 0.805058
vt 0.179813 0.865836
vt 0.176097 0.866609
vt 0.497699 0.970438
vt 0.497687 0.925029
vt 0.501523 0.925033
vt 0.501523 0.970739
vt 0.283961 0.784936
vt 0.283961 0.858331
vt 0.280468 0.856748
vt 0.280129 0.784786
vt 0.973225 0.003185
vt 0.977057 0.003022
vt 0.977057 0.069453
vt 0.973225 0.069290
vt 0.100173 0.881398
vt 0.096340 0.881547
vt 0.096679 0.809586
vt 0.100173 0.808002
vt 0.633817 0.075693
vt 0.579165 0.073301
vt 0.579165 0.005414
vt 0.633817 0.003022
vt 0.979374 0.174674
vt 0.983194 0.174329
vt 0.983194 0.219916
vt 0.979358 0.219921
vt 0.410237 0.984791
vt 0.410234 0.952799
vt 0.414070 0.952800
vt 0.414070 0.984951
vt 0.031552 0.974641
vt 0.031548 0.920010
vt 0.035369 0.920147
vt 0.035369 0.975008
vt 0.129957 0.309948
vt 0.129957 0.382301
vt 0.069511 0.386730
vt 0.069511 0.305519
vt 0.235846 0.960809
vt 0.235846 0.990174
vt 0.232378 0.988536
vt 0.232378 0.962447
vt 0.247959 0.638875
vt 0.247959 0.699932
vt 0.204290 0.692237
vt 0.199102 0.630117
vt 0.185211 0.955178
vt 0.189044 0.955034
vt 0.189044 0.987186
vt 0.185208 0.987185
vt 0.983109 0.048304
vt 0.983100 0.003022
vt 0.986935 0.003124
vt 0.986935 0.048574
vt 0.748817 0.236915
vt 0.752634 0.236546
vt 0.752634 0.291407
vt 0.748813 0.291544
vt 0.989539 0.789104
vt 0.989539 0.818531
vt 0.986099 0.816834
vt 0.986072 0.790745
vt 0.195209 0.211168
vt 0.195209 0.299476
vt 0.135190 0.284299
vt 0.135176 0.205591
vt 0.283961 0.778594
vt 0.280129 0.778743
vt 0.280468 0.706782
vt 0.283961 0.705198
vt 0.747408 0.449046
vt 0.700337 0.457624
vt 0.705449 0.395927
vt 0.747408 0.388268
vt 0.136177 0.109736
vt 0.196541 0.104306
vt 0.196541 0.184422
vt 0.136064 0.199547
vt 0.324957 0.631210
vt 0.324957 0.705288
vt 0.321445 0.703746
vt 0.321123 0.631072
vt 0.985464 0.448540
vt 0.989293 0.448316
vt 0.989293 0.493268
vt 0.985458 0.493328
vt 0.979414 0.514583
vt 0.975582 0.514746
vt 0.975582 0.448316
vt 0.979414 0.448479
vt 0.642871 0.894328
vt 0.642871 0.918437
vt 0.587653 0.918606
vt 0.587653 0.894160
vt 0.194505 0.555787
vt 0.136000 0.556605
vt 0.136002 0.484643
vt 0.194505 0.482254
vt 0.353173 0.640783
vt 0.394650 0.639190
vt 0.394650 0.697593
vt 0.331065 0.680302
vt 0.453964 0.549383
vt 0.453931 0.475988
vt 0.512336 0.476755
vt 0.512336 0.551718
vt 0.670054 0.261023
vt 0.650229 0.220861
vt 0.711539 0.204235
vt 0.711539 0.262637
vt 0.670196 0.104618
vt 0.710016 0.102950
vt 0.710016 0.161502
vt 0.650233 0.144894
vt 0.902758 0.827308
vt 0.902758 0.901385
vt 0.883847 0.890429
vt 0.697446 0.753574
vt 0.697446 0.798983
vt 0.680899 0.784703
vt 0.967827 0.366165
vt 0.967827 0.378449
vt 0.935957 0.375660
vt 0.695773 0.895986
vt 0.684657 0.890755
vt 0.695773 0.860587
vt 0.829076 0.955198
vt 0.829076 0.987349
vt 0.816838 0.986284
vt 0.725385 0.285635
vt 0.724908 0.069062
vt 0.730816 0.068436
vt 0.730816 0.287914
vt 0.769869 0.693173
vt 0.769391 0.476614
vt 0.775301 0.475988
vt 0.775301 0.695452
vt 0.789461 0.226385
vt 0.784692 0.006982
vt 0.789461 0.003022
vt 0.757946 0.700994
vt 0.757428 0.476504
vt 0.763348 0.475988
vt 0.763348 0.703471
vt 0.796968 0.696421
vt 0.792156 0.692491
vt 0.796968 0.475988
vt 0.815515 0.459856
vt 0.819768 0.236546
vt 0.819768 0.464006
vt 0.830116 0.461023
vt 0.825812 0.240643
vt 0.830116 0.236546
vt 0.742769 0.287906
vt 0.736860 0.287280
vt 0.737338 0.070715
vt 0.742769 0.068436
vt 0.788320 0.236546
vt 0.788320 0.459910
vt 0.783551 0.455950
vt 0.761294 0.228012
vt 0.760776 0.003538
vt 0.766696 0.003022
vt 0.766696 0.230488
vt 0.800316 0.003022
vt 0.800316 0.223451
vt 0.795505 0.006952
vt 0.806360 0.007172
vt 0.810612 0.003022
vt 0.810612 0.230501
vt 0.831308 0.003022
vt 0.831308 0.227499
vt 0.827003 0.223402
vt 0.778648 0.222486
vt 0.772739 0.221860
vt 0.773217 0.005301
vt 0.778648 0.003022
vt 0.786113 0.475988
vt 0.786113 0.699365
vt 0.781344 0.695405
vt 0.807823 0.475988
vt 0.807823 0.696416
vt 0.803012 0.479918
vt 0.813867 0.480138
vt 0.818120 0.475988
vt 0.818120 0.703466
vt 0.820960 0.003022
vt 0.820960 0.227516
vt 0.816656 0.223420
vt 0.766695 0.464016
vt 0.760776 0.463500
vt 0.761293 0.239023
vt 0.766695 0.236546
vt 0.777508 0.459924
vt 0.772739 0.240506
vt 0.777508 0.236546
vt 0.754733 0.230503
vt 0.748813 0.229986
vt 0.749331 0.005498
vt 0.754733 0.003022
vt 0.799176 0.456978
vt 0.794364 0.453048
vt 0.799176 0.236546
vt 0.805219 0.459874
vt 0.809472 0.236546
vt 0.809472 0.464024
vt 0.828467 0.700482
vt 0.824163 0.480084
vt 0.828467 0.475988
vt 0.953762 0.468198
vt 0.935436 0.458735
vt 0.935436 0.453544
vt 0.953762 0.444081
vt 0.496051 0.090742
vt 0.498283 0.090742
vt 0.498283 0.095933
vt 0.496051 0.095933
vt 0.990594 0.703632
vt 0.993444 0.703632
vt 0.993444 0.737713
vt 0.990594 0.737713
vt 0.447683 0.195725
vt 0.447683 0.190533
vt 0.449915 0.190533
vt 0.449915 0.195725
vt 0.965859 0.068239
vt 0.963900 0.051359
vt 0.965859 0.049289
vt 0.718746 0.224821
vt 0.717583 0.206140
vt 0.718746 0.204235
vt 0.959806 0.460960
vt 0.961765 0.444081
vt 0.961765 0.463030
vt 0.185856 0.823666
vt 0.187870 0.805058
vt 0.187870 0.825682
vt 0.968129 0.698018
vt 0.970088 0.681139
vt 0.970088 0.700088
vt 0.749050 0.620353
vt 0.751064 0.601745
vt 0.751064 0.622370
vt 0.657995 0.983174
vt 0.656035 0.966296
vt 0.657995 0.964226
vt 0.512076 0.645816
vt 0.510914 0.627136
vt 0.512076 0.625230
vt 0.953446 0.129930
vt 0.953446 0.154047
vt 0.935120 0.144584
vt 0.935120 0.139393
vt 0.980029 0.817962
vt 0.961747 0.812980
vt 0.961747 0.788863
vt 0.980029 0.783881
vt 0.990522 0.827308
vt 0.993372 0.827308
vt 0.993372 0.861389
vt 0.990522 0.861389
vt 0.980029 0.743756
vt 0.980029 0.777837
vt 0.961747 0.772855
vt 0.961747 0.748738
vt 0.011090 0.965718
vt 0.013049 0.963648
vt 0.013049 0.982597
vt 0.937166 0.288720
vt 0.939181 0.286704
vt 0.939181 0.307328
vt 0.961448 0.129930
vt 0.961448 0.148879
vt 0.959489 0.146809
vt 0.512076 0.651860
vt 0.512076 0.672446
vt 0.510914 0.670541
vt 0.021052 0.963648
vt 0.021052 0.982597
vt 0.019093 0.980527
vt 0.512076 0.678490
vt 0.512076 0.699076
vt 0.510914 0.697170
vt 0.976131 0.683209
vt 0.978090 0.681139
vt 0.978090 0.700088
vt 0.735925 0.748190
vt 0.737940 0.746174
vt 0.737940 0.766799
vn -0.6258 0.7800 0.0000
vn 0.0000 0.6235 -0.7818
vn 0.2812 -0.9175 0.2812
vn 0.0450 -0.7728 -0.6331
vn -0.0428 0.7733 -0.6326
vn -0.0424 0.7732 -0.6328
vn -0.0433 0.7735 -0.6323
vn 0.5103 0.8600 0.0000
vn 0.0000 -0.8607 -0.5091
vn -0.2825 0.9167 -0.2825
vn 0.0000 -0.6251 0.7806
vn -0.3582 0.8622 -0.3582
vn -0.4774 -0.7377 -0.4774
vn 0.4774 -0.7377 0.4774
vn -0.9570 -0.2818 -0.0684
vn -0.9571 -0.2819 -0.0677
vn -0.9578 -0.2792 -0.0681
vn 0.0000 -1.0000 0.0000
vn 0.0559 -0.6163 -0.7855
vn -0.7855 -0.6163 0.0559
vn 0.4774 -0.7377 -0.4774
vn -0.4774 -0.7377 0.4774
vn 0.7855 -0.6163 0.0559
vn -0.0559 -0.6163 0.7855
vn 0.4809 0.7332 -0.4809
vn -0.2812 -0.9175 -0.2812
vn 0.3585 -0.8619 -0.3585
vn 0.5164 -0.8556 -0.0367
vn -0.6331 -0.7728 0.0451
vn -0.5164 -0.8556 0.0367
vn -0.0450 -0.7728 -0.6331
vn 0.2812 -0.9175 -0.2812
vn -0.3585 -0.8619 -0.3585
vn -0.0367 -0.8556 -0.5164
vn -0.0450 -0.7728 0.6331
vn 0.0367 -0.8556 0.5164
vn -0.6331 -0.7728 -0.0450
vn -0.2812 -0.9175 0.2812
vn 0.3585 -0.8619 0.3585
vn 0.6331 -0.7728 -0.0450
vn 0.0000 -0.7798 -0.6260
vn 0.5164 -0.8556 0.0367
vn -0.5091 -0.8607 0.0000
vn 0.0000 -0.6251 -0.7806
vn 0.0450 -0.7728 0.6331
vn 0.0000 -0.7798 0.6260
vn 0.0367 -0.8556 -0.5164
vn 0.0000 -0.8607 0.5091
vn 0.7855 -0.6163 -0.0559
vn -0.7806 -0.6251 0.0000
vn 0.6331 -0.7728 0.0451
vn -0.5164 -0.8556 -0.0367
vn -0.0559 -0.6163 -0.7855
vn -0.9580 -0.2785 0.0682
vn -0.9587 -0.2844 0.0000
vn -0.6260 -0.7798 0.0000
vn -0.0367 -0.8556 0.5164
vn 0.5091 -0.8607 0.0000
vn -0.7855 -0.6163 -0.0559
vn 0.7806 -0.6251 0.0000
vn 0.0682 -0.2785 0.9580
vn 0.0000 -0.2844 0.9587
vn -0.0682 -0.2785 0.9580
vn 0.9580 -0.2785 0.0682
vn 0.9580 -0.2785 -0.0682
vn 0.9587 -0.2844 0.0000
vn 0.0049 -0.2785 -0.9604
vn 0.0030 -0.2908 -0.9568
vn 0.0000 -0.2844 -0.9587
vn -0.0682 -0.2785 -0.9580
vn 0.0685 -0.2774 -0.9583
vn 0.0682 -0.2773 -0.9584
vn 0.4809 0.7332 0.4809
vn 0.9542 0.2921 0.0644
vn 0.9570 0.2830 0.0639
vn 0.9533 0.2943 0.0681
vn 0.0463 0.7395 -0.6716
vn 0.0523 0.6149 -0.7868
vn 0.0549 0.6152 -0.7864
vn 0.0540 0.6151 -0.7866
vn 0.0512 0.6148 -0.7870
vn 0.0559 -0.6163 0.7855
vn -0.4809 0.7332 0.4809
vn 0.0541 0.6151 0.7866
vn 0.0549 0.6152 0.7865
vn 0.0518 0.6149 0.7869
vn 0.0511 0.6148 0.7870
vn -0.7869 0.6149 -0.0518
vn -0.7865 0.6152 -0.0549
vn -0.7866 0.6151 -0.0541
vn -0.7870 0.6148 -0.0511
vn -0.4809 0.7332 -0.4809
vn 0.2825 0.9167 0.2825
vn -0.3582 0.8622 0.3582
vn 0.5174 0.8550 -0.0359
vn 0.0428 0.7733 -0.6326
vn 0.0359 0.8550 0.5173
vn 0.0428 0.7733 0.6326
vn 0.0422 0.7731 0.6329
vn -0.2825 0.9167 0.2825
vn 0.3582 0.8622 -0.3582
vn -0.3585 -0.8619 0.3585
vn -0.5173 0.8550 -0.0359
vn 0.0359 0.8550 -0.5173
vn -0.6326 0.7733 0.0428
vn 0.2825 0.9167 -0.2825
vn 0.3582 0.8622 0.3582
vn 0.6326 0.7733 -0.0428
vn 0.0000 0.7800 0.6258
vn 0.5173 0.8550 0.0359
vn -0.0001 0.8600 0.5103
vn 0.7869 0.6149 0.0518
vn 0.7864 0.6152 0.0549
vn 0.7866 0.6151 0.0539
vn 0.7870 0.6148 0.0511
vn 0.6326 0.7733 0.0428
vn 0.6258 0.7800 0.0000
vn -0.7866 0.6151 0.0539
vn -0.7864 0.6152 0.0549
vn -0.7869 0.6149 0.0517
vn -0.7870 0.6148 0.0510
vn 0.7818 0.6235 0.0000
vn -0.6326 0.7733 -0.0428
vn 0.0000 0.7800 -0.6258
vn -0.0359 0.8550 -0.5173
vn 0.0000 0.8600 -0.5103
vn 0.7866 0.6151 -0.0539
vn 0.7864 0.6152 -0.0549
vn 0.7869 0.6149 -0.0518
vn 0.7870 0.6148 -0.0511
vn -0.7818 0.6235 0.0000
vn 0.9538 0.2928 -0.0672
vn 0.9568 0.2844 -0.0604
vn 0.9555 0.2875 -0.0655
vn 0.9573 0.2891 -0.0001
vn -0.0428 0.7733 0.6326
vn -0.0425 0.7732 0.6327
vn -0.0359 0.8551 0.5173
vn -0.5104 0.8600 -0.0001
vn -0.0517 0.6149 0.7869
vn -0.0549 0.6152 0.7865
vn -0.0540 0.6151 0.7866
vn -0.0511 0.6148 0.7870
vn 0.0000 0.6235 0.7818
vn -0.0673 0.2930 -0.9537
vn -0.0638 0.2826 -0.9571
vn -0.0648 0.2901 -0.9548
vn 0.0000 0.2892 -0.9573
vn 0.0672 0.2929 -0.9538
vn 0.0649 0.2899 -0.9549
vn 0.0639 0.2826 -0.9571
vn -0.9571 0.2826 -0.0644
vn -0.9533 0.2946 -0.0663
vn -0.9545 0.2911 -0.0647
vn -0.9568 0.2843 0.0604
vn -0.9556 0.2874 0.0655
vn -0.9539 0.2926 0.0671
vn -0.9573 0.2890 0.0001
vn 0.0001 0.2893 0.9572
vn 0.0604 0.2845 0.9568
vn 0.0656 0.2876 0.9555
vn 0.0672 0.2929 0.9538
vn -0.0619 0.2835 0.9570
vn -0.0675 0.2887 0.9550
vn -0.0657 0.2853 0.9562
vn 0.6260 -0.7798 0.0000
vn -0.0540 0.6151 -0.7866
vn -0.0549 0.6152 -0.7865
vn -0.0520 0.6149 -0.7869
vn -0.0511 0.6148 -0.7870
vn -0.5174 0.8550 0.0360
vn -0.5173 0.8551 0.0363
vn -0.3911 0.8331 0.3911
vn 0.6654 0.7465 0.0000
vn -0.6716 0.7395 -0.0463
vn -0.3911 0.8331 -0.3911
vn -0.6654 0.7465 0.0000
vn 0.3911 0.8331 -0.3911
vn -0.0463 0.7395 -0.6716
vn 0.3911 0.8331 0.3911
vn 0.0000 0.7465 -0.6654
vn -0.0463 0.7395 0.6716
vn -0.6716 0.7395 0.0463
vn 0.0000 0.7465 0.6654
vn 0.0463 0.7395 0.6716
vn 0.6716 0.7395 0.0463
vn 0.6716 0.7395 -0.0463
vn 0.7071 -0.0000 -0.7071
vn -0.7071 0.0000 0.7071
vn -0.7071 -0.0000 -0.7071
vn 0.7071 0.0000 0.7071
vn 0.0000 1.0000 0.0000
vn -0.1381 -0.9904 0.0001
vn -0.1405 -0.9901 0.0000
vn -0.1346 -0.9909 0.0003
vn -0.1322 -0.9912 0.0005
vn 0.0085 -0.9904 -0.1379
vn 0.0086 -0.9900 -0.1407
vn 0.0100 -0.9902 -0.1393
vn -0.1106 -0.9797 -0.1670
vn -0.1414 -0.9760 -0.1658
vn -0.7071 0.0041 -0.7071
vn 0.1384 -0.9904 -0.0001
vn 0.1404 -0.9901 -0.0000
vn 0.1354 -0.9908 -0.0003
vn 0.1333 -0.9911 -0.0004
vn 0.0859 -0.9823 0.1665
vn 0.0763 -0.9832 0.1661
vn 0.0777 -0.9864 0.1450
vn 0.0784 -0.9849 0.1546
vn 0.6554 -0.3753 0.6554
vn 0.0425 -0.3207 -0.9462
vn 0.0379 -0.3235 -0.9455
vn 0.0347 -0.3194 -0.9470
vn 0.6554 -0.3753 -0.6554
vn 0.1333 -0.9771 -0.1657
vn 0.1156 -0.9795 -0.1647
vn -0.6554 -0.3753 -0.6554
vn 0.9746 -0.2199 0.0418
vn 0.0032 -0.2788 -0.9603
vn 0.0004 -0.2698 -0.9629
vn 0.0074 -0.2731 -0.9620
vn 0.7072 0.0042 -0.7070
vn -0.6951 -0.1835 -0.6951
vn -0.5211 -0.1969 -0.8305
vn -0.6949 -0.1851 0.6949
vn -0.8466 -0.1996 0.4933
vn -0.9623 -0.2603 0.0785
vn -0.9734 -0.2258 -0.0380
vn -0.9582 -0.2779 -0.0682
vn -0.9580 -0.2783 -0.0697
vn -0.9578 -0.2792 -0.0690
vn -0.9581 -0.2783 -0.0681
vn -0.9577 -0.2797 -0.0674
vn -0.9580 -0.2789 -0.0666
vn 0.9719 -0.2099 -0.1066
vn 0.0332 -0.3278 -0.9442
vn 0.0231 -0.3289 -0.9441
vn 0.0279 -0.3265 -0.9448
vn -0.0759 -0.2650 -0.9613
vn 0.0686 -0.2781 -0.9581
vn 0.0690 -0.2783 -0.9580
vn -0.6536 0.3817 -0.6536
vn 0.0661 0.2849 -0.9563
vn 0.0681 0.2834 -0.9566
vn 0.0626 0.2841 -0.9567
vn -0.0370 0.3243 0.9452
vn -0.0322 0.3290 0.9438
vn -0.0367 0.3286 0.9438
vn 0.6537 0.3816 -0.6535
vn -0.9562 0.2852 -0.0661
vn -0.9566 0.2833 -0.0685
vn -0.9568 0.2840 -0.0625
vn 0.6535 0.3815 0.6537
vn -0.9573 0.2816 0.0646
vn -0.9585 0.2789 0.0597
vn -0.9602 0.2730 0.0597
vn -0.9735 0.2245 -0.0428
vn 0.0646 0.2817 0.9573
vn 0.0597 0.2788 0.9585
vn 0.0596 0.2729 0.9602
vn -0.0079 0.2774 0.9607
vn -0.5103 -0.2205 0.8313
vn -0.5102 -0.2205 0.8313
vn -0.6917 -0.2076 0.6917
vn 0.7007 -0.1342 0.7007
vn 0.7007 -0.1341 0.7007
vn 0.4989 -0.1507 0.8535
vn 0.4989 -0.1507 0.8534
vn 0.9602 0.2729 -0.0596
vn 0.9573 0.2816 -0.0646
vn 0.9585 0.2788 -0.0597
vn 0.9611 0.2646 -0.0789
vn 0.9723 0.2307 0.0388
vn 0.9573 0.2892 -0.0000
vn 0.9570 0.2831 0.0627
vn 0.9562 0.2852 0.0663
vn 0.9565 0.2833 0.0692
vn 0.9590 0.2761 0.0633
vn 0.9583 0.2799 0.0581
vn 0.9573 0.2819 0.0639
vn -0.0640 0.2753 -0.9592
vn -0.0647 0.2816 -0.9573
vn -0.0596 0.2787 -0.9585
vn -0.0626 0.2842 -0.9567
vn -0.0681 0.2834 -0.9566
vn -0.0660 0.2850 -0.9563
vn 0.0641 0.2755 -0.9592
vn 0.0597 0.2789 -0.9585
vn 0.0646 0.2817 -0.9573
vn -0.9571 0.2824 -0.0651
vn -0.9592 0.2751 -0.0657
vn -0.9587 0.2781 -0.0604
vn -0.9708 0.2146 0.1075
vn -0.9573 0.2892 0.0000
vn -0.0327 0.3300 0.9434
vn -0.0283 0.3311 0.9432
vn -0.0305 0.3348 0.9418
vn 0.0762 0.2694 0.9600
vn -0.0646 0.2807 0.9576
vn -0.0600 0.2755 0.9594
vn -0.0608 0.2795 0.9582
vn 0.0966 -0.9925 -0.0753
vn 0.1448 -0.9866 -0.0754
vn 0.1447 -0.9866 -0.0754
vn 0.1388 -0.9903 -0.0097
vn 0.1363 -0.9906 -0.0097
vn 0.1423 -0.9898 -0.0098
vn 0.1448 -0.9894 -0.0098
vn 0.1003 -0.9914 0.0843
vn 0.1003 -0.9914 0.0844
vn 0.1004 -0.9838 0.1484
vn -0.0099 -0.9901 -0.1401
vn -0.0109 -0.9901 -0.1400
vn -0.0108 -0.9898 -0.1420
vn -0.0100 -0.9895 -0.1440
vn -0.0000 -0.9900 -0.1413
vn -0.0004 -0.9899 -0.1416
vn 0.1203 -0.9892 0.0841
vn 0.1425 -0.9863 0.0835
vn 0.1353 -0.9870 0.0864
vn 0.1334 -0.9873 0.0863
vn 0.1347 -0.9871 0.0864
vn 0.1365 -0.9869 0.0864
vn 0.0734 -0.9864 0.1467
vn 0.0835 -0.9871 0.1363
vn 0.0841 -0.9879 0.1304
vn 0.0841 -0.9879 0.1303
vn -0.1431 -0.9874 0.0679
vn -0.1436 -0.9873 0.0679
vn -0.1428 -0.9874 0.0679
vn -0.0714 -0.9878 0.1382
vn -0.0715 -0.9881 0.1363
vn -0.0714 -0.9875 0.1404
vn -0.0714 -0.9873 0.1423
vn 0.8365 -0.1974 0.5111
vn 0.6951 -0.1835 0.6951
vn -0.8457 -0.1500 -0.5122
vn -0.8457 -0.1499 -0.5122
vn -0.7007 -0.1342 -0.7007
vn 0.5111 -0.1989 -0.8362
vn 0.6949 -0.1851 -0.6949
vn -0.7070 0.0039 0.7072
vn 0.7069 0.0043 0.7073
vn 0.6917 -0.2076 -0.6917
vn 0.8313 -0.2205 -0.5102
vn -0.1322 -0.9734 0.1869
vn -0.0975 -0.9778 0.1857
vn -0.6535 0.3819 0.6536
vn -0.6554 -0.3753 0.6554
vn -0.0090 -0.9903 -0.1384
vn -0.0100 -0.9902 -0.1393
vn -0.0089 -0.9901 -0.1403
vn -0.1292 -0.9916 0.0092
vn -0.1451 -0.9894 0.0095
vn -0.2055 -0.9705 0.1262
vn -0.2061 -0.9665 0.1532
vn 0.0098 -0.9902 0.1392
vn 0.0097 -0.9905 0.1369
vn 0.0098 -0.9897 0.1425
vn 0.0099 -0.9894 0.1449
vn 0.0004 -0.9899 -0.1416
vn 0.0099 -0.9900 -0.1406
vn 0.0100 -0.9893 -0.1454
vn 0.0113 -0.9896 -0.1431
vn 0.0114 -0.9900 -0.1403
vn -0.1803 -0.9810 -0.0712
vn -0.1340 -0.9885 -0.0698
vn 0.0817 -0.0496 0.9954
vn 0.9966 0.0167 0.0808
vn 0.9965 0.0174 0.0813
vn 0.9966 0.0160 0.0802
vn 0.0808 0.0167 -0.9966
vn 0.0812 0.0173 -0.9965
vn 0.0803 0.0161 -0.9966
vn 0.7058 0.0413 0.7072
vn 0.7056 0.0411 0.7074
vn 0.7060 0.0414 0.7070
vn 0.6686 0.3253 -0.6686
vn 0.6673 0.3254 0.6699
vn 0.6676 0.3252 0.6697
vn -0.6673 0.3254 0.6699
vn -0.6676 0.3252 0.6697
vn 0.0775 0.2232 -0.9717
vn 0.0778 0.2236 -0.9716
vn 0.0768 0.2224 -0.9719
vn 0.0766 0.2222 -0.9720
vn -0.0794 0.1228 -0.9892
vn -0.0797 0.1232 -0.9892
vn -0.6686 0.3253 -0.6686
vn -0.7065 0.0415 -0.7065
vn -0.6941 0.1906 -0.6941
vn -0.7056 0.0414 0.7074
vn -0.6928 0.1904 0.6955
vn -0.6681 -0.3273 -0.6681
vn 0.6928 0.1904 0.6955
vn 0.6926 0.1902 0.6958
vn 0.6931 0.1906 0.6952
vn -0.9716 0.2235 -0.0777
vn -0.9716 0.2237 -0.0778
vn -0.9719 0.2225 -0.0769
vn -0.9720 0.2221 -0.0766
vn -0.9892 0.1228 -0.0794
vn -0.9893 0.1224 -0.0792
vn -0.0776 0.2234 -0.9716
vn -0.0777 0.2235 -0.9716
vn -0.0766 0.2222 -0.9720
vn 0.0794 0.1228 -0.9892
vn 0.0797 0.1232 -0.9892
vn -0.1409 0.2060 0.9684
vn -0.1430 0.2072 0.9678
vn -0.1427 0.2070 0.9679
vn -0.1406 0.2058 0.9684
vn 0.1552 -0.1117 -0.9815
vn 0.1558 -0.1121 -0.9814
vn 0.1544 -0.1112 -0.9817
vn 0.1543 -0.1111 -0.9818
vn 0.9892 0.1228 -0.0794
vn 0.9893 0.1224 -0.0792
vn 0.0000 0.1272 -0.9919
vn -0.9716 0.2236 0.0778
vn -0.9716 0.2237 0.0778
vn -0.9720 0.2221 0.0766
vn -0.9720 0.2222 0.0766
vn 0.9732 0.2299 -0.0000
vn -0.0808 0.0167 -0.9966
vn -0.0812 0.0172 -0.9966
vn -0.0802 0.0160 -0.9966
vn 0.9998 0.0184 -0.0000
vn 0.1454 0.1129 0.9829
vn 0.0819 0.0351 -0.9960
vn 0.1243 0.0278 -0.9919
vn 0.1559 -0.0092 -0.9877
vn 0.1567 -0.0130 -0.9876
vn -0.9892 0.1228 0.0794
vn -0.9892 0.1232 0.0797
vn -0.9893 0.1224 0.0792
vn -0.9919 0.1272 -0.0000
vn 0.9728 -0.2315 0.0000
vn -0.9966 0.0167 0.0808
vn -0.9965 0.0174 0.0813
vn -0.9966 0.0160 0.0802
vn 0.7065 -0.0415 -0.7065
vn -0.9890 -0.1222 -0.0836
vn -0.9889 -0.1228 -0.0841
vn -0.9889 -0.1224 -0.0838
vn 0.9716 0.2236 0.0778
vn 0.9715 0.2237 0.0779
vn 0.9719 0.2226 0.0770
vn 0.9720 0.2221 0.0766
vn -0.9732 0.2299 -0.0000
vn 0.9966 0.0167 -0.0808
vn 0.9965 0.0174 -0.0813
vn 0.9966 0.0160 -0.0802
vn -0.9998 0.0184 -0.0000
vn -0.0058 0.0153 0.9999
vn -0.0029 0.0216 0.9998
vn -0.0037 0.0180 0.9998
vn -0.0029 0.0119 0.9999
vn -0.0040 0.0152 0.9999
vn -0.0064 0.0123 0.9999
vn -0.0859 0.0529 -0.9949
vn 0.9962 -0.0167 -0.0855
vn 0.9963 -0.0161 -0.0850
vn 0.9962 -0.0171 -0.0858
vn -0.0855 -0.0167 0.9962
vn -0.0858 -0.0171 0.9962
vn -0.0852 -0.0163 0.9962
vn -0.7065 -0.0415 -0.7065
vn 0.0000 -0.0185 0.9998
vn 0.6681 -0.3273 -0.6681
vn -0.6681 -0.3273 0.6681
vn -0.9962 -0.0167 -0.0855
vn -0.9962 -0.0171 -0.0858
vn -0.9962 -0.0162 -0.0851
vn -0.0818 -0.2248 0.9710
vn -0.0818 -0.2247 0.9710
vn -0.0813 -0.2241 0.9712
vn 0.0835 -0.1220 0.9890
vn 0.0834 -0.1219 0.9890
vn 0.0838 -0.1224 0.9889
vn 0.0843 -0.1230 0.9888
vn -0.7065 -0.0415 0.7065
vn -0.6942 -0.1904 0.6942
vn 0.7065 -0.0415 0.7065
vn 0.6941 0.1906 -0.6941
vn 0.7065 0.0415 -0.7065
vn -0.6942 -0.1904 -0.6942
vn 0.6681 -0.3273 0.6681
vn 0.6942 -0.1904 0.6942
vn 0.9711 -0.2243 -0.0815
vn 0.9710 -0.2246 -0.0817
vn -0.0838 -0.1224 0.9889
vn -0.0843 -0.1230 0.9888
vn -0.0836 -0.1221 0.9890
vn 0.9710 -0.2247 0.0818
vn 0.9710 -0.2246 0.0817
vn 0.9712 -0.2239 0.0811
vn 0.9711 -0.2243 0.0815
vn 0.9889 -0.1224 0.0838
vn 0.9890 -0.1222 0.0836
vn 0.1518 -0.2070 -0.9665
vn 0.1516 -0.2069 -0.9665
vn 0.1504 -0.2063 -0.9669
vn -0.1454 0.1129 0.9829
vn -0.9919 -0.1272 0.0000
vn -0.9710 -0.2248 -0.0818
vn -0.9710 -0.2248 -0.0819
vn -0.9711 -0.2243 -0.0815
vn -0.9712 -0.2241 -0.0813
vn -0.9728 -0.2315 0.0000
vn -0.9962 -0.0167 0.0855
vn -0.9962 -0.0163 0.0852
vn -0.9962 -0.0172 0.0859
vn 0.0000 0.0184 -0.9998
vn -0.1549 -0.1115 -0.9816
vn -0.1542 -0.1111 -0.9818
vn -0.1544 -0.1112 -0.9817
vn -0.1558 -0.1121 -0.9814
vn 0.0657 0.0424 -0.9969
vn 0.0816 0.0362 -0.9960
vn 0.0802 -0.0094 -0.9967
vn 0.9889 -0.1224 -0.0838
vn 0.9890 -0.1221 -0.0836
vn 0.9889 -0.1228 -0.0841
vn 0.9888 -0.1230 -0.0843
vn 0.0000 -0.1272 0.9919
vn 0.0815 -0.2243 0.9711
vn 0.0813 -0.2241 0.9712
vn 0.0000 -0.2315 0.9728
vn 0.0855 -0.0167 0.9962
vn 0.0853 -0.0164 0.9962
vn 0.0859 -0.0172 0.9962
vn 0.9998 -0.0185 0.0000
vn -0.9889 -0.1224 0.0838
vn -0.9889 -0.1228 0.0841
vn 0.9919 0.1272 -0.0000
vn 0.9714 -0.1824 -0.1517
vn 0.9737 -0.1806 -0.1389
vn -0.9998 -0.0185 0.0000
vn 0.0052 -0.0123 -0.9999
vn 0.0032 -0.0158 -0.9999
vn 0.0020 -0.0125 -0.9999
vn 0.0046 -0.0158 -0.9999
vn 0.0029 -0.0123 -0.9999
vn 0.0061 -0.0128 -0.9999
vn -0.0151 0.9997 0.0178
vn -0.0057 0.9999 0.0131
vn -0.0099 0.9999 0.0071
vn -0.0140 0.9998 0.0112
vn -0.0075 0.9999 -0.0120
vn -0.0097 0.9999 -0.0042
vn -0.0129 0.9999 -0.0067
vn -0.0087 0.9999 -0.0056
vn -0.0139 0.9999 -0.0025
vn -0.0141 0.9999 0.0005
vn -0.0089 1.0000 0.0031
vn -0.0110 0.9999 -0.0021
vn 0.0030 0.9999 0.0142
vn 0.0022 0.9999 0.0110
vn -0.0009 1.0000 0.0063
vn -0.0056 0.9999 0.0121
vn -0.0024 0.9999 0.0138
vn 0.0057 0.9999 0.0121
vn 0.0009 1.0000 0.0063
vn -0.0021 0.9999 0.0111
vn 0.0014 0.9999 0.0100
vn 0.0013 1.0000 0.0072
vn -0.0013 1.0000 0.0072
vn -0.0018 0.9999 0.0106
vn -0.0156 0.9998 -0.0084
vn -0.0153 0.9999 -0.0007
vn -0.0154 0.9999 -0.0038
vn -0.0157 0.9998 -0.0114
vn 0.9892 0.1228 0.0794
vn -0.9721 -0.1819 -0.1481
vn -0.9737 -0.1806 -0.1389
vn -0.9731 -0.1811 -0.1426
vn -0.9714 -0.1824 -0.1517
vn -0.1694 -0.9855 0.0062
vn -0.1672 -0.9857 -0.0193
vn 0.0139 0.9999 0.0025
vn 0.0082 1.0000 0.0007
vn 0.0087 1.0000 0.0000
vn 0.0110 0.9999 0.0021
vn 0.0101 0.9999 -0.0015
vn 0.0072 1.0000 -0.0014
vn 0.0072 1.0000 0.0014
vn 0.0106 0.9999 0.0019
vn 0.0143 0.9999 -0.0030
vn 0.0110 0.9999 -0.0022
vn 0.0089 1.0000 0.0031
vn 0.0141 0.9999 0.0005
vn 0.9919 -0.1272 0.0000
vn 0.1514 -0.9883 -0.0186
vn 0.1515 -0.9883 -0.0186
vn 0.1536 -0.9881 0.0075
vn 0.0350 0.9994 -0.0056
vn 0.0332 0.9994 -0.0067
vn 0.0341 0.9994 -0.0038
vn 0.0354 0.9994 -0.0027
vn 0.9837 -0.1044 -0.1464
vn 0.9861 -0.1037 -0.1301
vn 0.0000 0.2299 -0.9732
vn 0.0151 0.9997 0.0178
vn 0.0140 0.9998 0.0112
vn 0.0099 0.9999 0.0071
vn 0.0057 0.9999 0.0131
vn 0.1431 0.2072 0.9678
vn 0.1431 0.2073 0.9678
vn 0.1405 0.2058 0.9684
vn 0.1405 0.2058 0.9685
vn 0.0360 0.9993 -0.0048
vn 0.0354 0.9994 0.0003
vn 0.0368 0.9993 -0.0022
vn 0.0378 0.9993 -0.0051
vn -0.8485 -0.5239 -0.0747
vn -0.8452 -0.5249 -0.1002
vn -0.9866 -0.1032 -0.1264
vn -0.9837 -0.1041 -0.1464
vn 0.0071 0.9999 -0.0119
vn 0.0059 1.0000 -0.0041
vn 0.0104 0.9999 -0.0099
vn 0.0097 0.9999 -0.0041
vn -0.9711 -0.2243 0.0815
vn -0.9710 -0.2247 0.0818
vn -0.0142 0.9999 0.0030
vn -0.0110 0.9999 0.0022
vn -0.0086 1.0000 -0.0000
vn -0.0082 1.0000 0.0005
vn -0.1516 -0.2069 -0.9666
vn -0.1504 -0.2063 -0.9669
vn -0.1510 -0.2066 -0.9667
vn -0.1516 -0.2069 -0.9665
vn 0.9716 0.2237 -0.0778
vn 0.9720 0.2222 -0.0766
vn -0.0158 0.9999 -0.0014
vn -0.0136 0.9999 -0.0006
vn -0.0153 0.9999 -0.0056
vn 0.8701 -0.4810 -0.1075
vn 0.8738 -0.4797 -0.0795
vn -0.0101 0.9999 0.0015
vn -0.0072 1.0000 0.0014
vn -0.0072 1.0000 -0.0014
vn -0.0106 0.9999 -0.0019
vn 0.6942 -0.1904 -0.6942
vn 0.9962 -0.0167 0.0855
vn 0.9962 -0.0172 0.0859
vn 0.9962 -0.0163 0.0852
vn -0.1465 0.0139 0.9891
vn -0.0823 -0.0272 0.9962
vn -0.0981 -0.0236 0.9949
vn -0.9966 0.0167 -0.0808
vn -0.9965 0.0173 -0.0813
vn -0.9966 0.0161 -0.0803
vn 0.0896 -0.0247 0.9957
vn 0.1465 0.0136 0.9891
vn -0.1567 -0.0131 -0.9876
vn -0.1567 -0.0130 -0.9876
vn -0.0944 0.0271 -0.9952
vn -0.0791 -0.0649 0.9947
vn -0.0772 -0.0334 0.9965
vn -0.0636 -0.0249 0.9977
vn -0.0052 0.0118 0.9999
vn -0.0018 0.0121 0.9999
vn -0.0038 0.0152 0.9999
vn -0.0021 0.0150 0.9999
vn -0.0039 0.0180 0.9998
vn -0.0043 0.0217 0.9998
vn 0.0058 -0.0155 -0.9999
vn 0.0038 -0.0180 -0.9998
vn 0.0005 -0.0190 -0.9998
vn 0.0070 -0.0192 -0.9998
vn 0.0022 -0.0152 -0.9999
vn -0.5131 -0.6881 -0.5131
vn -0.0351 -0.6351 -0.7716
vn 0.5131 -0.6881 0.5131
vn 0.0351 -0.6351 0.7716
vn 0.8717 -0.4897 0.0201
vn 0.5105 0.6919 -0.5105
vn 0.0180 0.6246 -0.7808
vn -0.8754 0.4829 -0.0202
vn 0.7014 0.1267 0.7014
vn -0.7023 -0.1168 -0.7023
vn 0.5131 -0.6881 -0.5131
vn 0.0351 -0.6351 -0.7716
vn -0.8717 -0.4897 0.0201
vn -0.5105 0.6919 0.5105
vn -0.0180 0.6246 0.7808
vn 0.8754 0.4829 -0.0202
vn -0.7014 0.1267 0.7014
vn 0.7023 -0.1168 -0.7023
vn -0.5131 -0.6881 0.5131
vn -0.0351 -0.6351 0.7716
vn 0.8717 -0.4897 -0.0201
vn -0.8754 0.4829 0.0202
vn 0.7014 0.1267 -0.7014
vn -0.7023 -0.1168 0.7023
vn 0.5105 0.6919 0.5105
vn 0.0180 0.6246 0.7808
vn -0.8717 -0.4897 -0.0201
vn -0.5105 0.6919 -0.5105
vn -0.0180 0.6246 -0.7808
vn 0.8754 0.4829 0.0202
vn -0.7014 0.1267 -0.7014
vn 0.7023 -0.1168 0.7023
vn 0.0687 0.0000 0.9976
vn 0.2761 -0.0000 -0.9611
vn -0.6583 -0.0000 -0.7528
vn 0.2761 0.0000 0.9611
vn 0.2518 -0.9240 -0.2879
vn 0.2436 -0.4707 -0.8480
vn 0.2518 0.9240 -0.2879
vn 0.4274 0.7606 -0.4887
vn 0.2518 -0.9240 0.2879
vn 0.4274 -0.7606 0.4887
vn 0.2518 0.9240 0.2879
vn 0.2436 0.4707 0.8480
vn 0.0687 -0.0000 -0.9976
vn 0.0000 -0.0000 -1.0000
vn -0.6583 0.0000 0.7528
vn -0.0000 0.0000 1.0000
vn 0.4274 -0.7606 -0.4887
vn 0.2436 0.4707 -0.8480
vn 0.2436 -0.4707 0.8480
vn 0.4274 0.7606 0.4887
g Tent_1_Tent_1_Collor_Material
usemtl Collor_Material
s off
f 286/1/1 285/2/1 283/3/1 284/4/1
f 312/5/2 311/6/2 315/7/2 316/8/2
f 139/9/3 168/10/3 174/11/3 140/12/3
f 194/13/4 196/14/4 169/15/4 170/16/4
f 313/17/5 315/18/6 266/19/5 265/20/7
f 298/21/8 304/22/8 303/23/8 297/24/8
f 187/25/9 188/26/9 193/27/9 194/28/9
f 274/29/10 268/30/10 239/31/10 240/32/10
f 215/33/11 211/34/11 212/35/11 216/36/11
f 273/37/12 267/38/12 268/39/12 274/40/12
f 171/41/13 169/42/13 160/43/13 159/44/13
f 173/45/14 167/46/14 156/47/14 155/48/14
f 198/49/15 143/50/16 227/51/17
f 192/52/18 181/53/18 212/54/18
f 196/55/19 191/56/19 160/57/19 169/58/19
f 205/59/20 171/60/20 159/61/20 201/62/20
f 162/63/21 154/64/21 153/65/21 163/66/21
f 175/67/22 158/68/22 157/69/22 166/70/22
f 186/71/23 181/72/23 154/73/23 162/74/23
f 216/75/24 212/76/24 156/77/24 167/78/24
f 257/79/25 258/80/25 275/81/25 266/82/25
f 142/83/26 141/84/26 170/85/26 172/86/26
f 161/87/27 162/88/27 163/89/27 164/90/27
f 178/91/28 174/92/28 183/93/28
f 203/94/29 172/95/29 171/96/29 205/97/29
f 197/98/30 172/99/30 203/100/30
f 193/101/31 164/102/31 163/103/31 195/104/31
f 137/105/32 161/106/32 164/107/32 138/108/32
f 172/109/33 170/110/33 169/111/33 171/112/33
f 188/113/34 164/114/34 193/115/34
f 214/116/35 216/117/35 167/118/35 168/119/35
f 207/120/36 165/121/36 213/122/36
f 204/123/37 206/124/37 175/125/37 176/126/37
f 144/127/38 143/128/38 176/129/38 165/130/38
f 168/131/39 167/132/39 173/133/39 174/134/39
f 183/135/40 174/136/40 173/137/40 185/138/40
f 194/139/41 193/140/41 195/141/41 196/142/41
f 177/143/42 161/144/42 137/145/42
f 197/146/43 203/147/43 204/148/43 198/149/43
f 196/150/44 195/151/44 192/152/44 191/153/44
f 213/154/45 165/155/45 166/156/45 215/157/45
f 213/158/46 215/159/46 216/160/46 214/161/46
f 187/162/47 170/163/47 141/164/47
f 207/165/48 213/166/48 214/167/48 208/168/48
f 185/169/49 173/170/49 155/171/49 182/172/49
f 205/173/50 201/174/50 202/175/50 206/176/50
f 184/177/51 186/178/51 162/179/51 161/180/51
f 198/181/52 176/182/52 143/183/52
f 201/184/18 192/185/18 212/186/18 211/187/18
f 195/188/53 163/189/53 153/190/53 192/191/53
f 142/192/54 197/193/54 233/194/54
f 197/195/55 198/196/55 234/197/55
f 204/198/56 203/199/56 205/200/56 206/201/56
f 208/202/57 168/203/57 139/204/57
f 178/205/58 183/206/58 184/207/58 177/208/58
f 206/209/59 202/210/59 158/211/59 175/212/59
f 185/213/60 182/214/60 181/215/60 186/216/60
f 144/217/61 207/218/61 235/219/61
f 207/220/62 208/221/62 236/222/62
f 139/223/63 228/224/63 208/225/63
f 229/226/64 177/227/64 137/228/64
f 225/229/65 140/230/65 178/231/65
f 230/232/66 178/233/66 177/234/66
f 232/235/67 188/236/68 187/237/69
f 226/238/70 138/239/70 188/240/70
f 231/241/71 187/242/72 141/243/72
f 271/244/73 259/245/73 260/246/73 269/247/73
f 298/248/74 327/249/75 243/250/76
f 312/251/77 256/252/77 395/253/77
f 256/254/78 312/255/79 316/256/80 267/257/81
f 215/258/82 166/259/82 157/260/82 211/261/82
f 263/262/83 253/263/83 254/264/83 262/265/83
f 295/266/84 292/267/85 253/268/86 263/269/87
f 254/270/88 281/271/89 286/272/90 262/273/91
f 255/274/92 256/275/92 267/276/92 273/277/92
f 242/278/93 272/279/93 270/280/93 241/281/93
f 263/282/94 262/283/94 261/284/94 264/285/94
f 297/286/95 303/287/95 272/288/95 242/289/95
f 267/290/96 316/291/96 314/292/96 268/293/96
f 288/294/97 293/295/97 264/296/97 238/297/97
f 293/298/98 295/299/99 263/300/98 264/301/98
f 264/302/100 261/303/100 237/304/100 238/305/100
f 266/306/101 275/307/101 276/308/101 265/309/101
f 176/310/102 175/311/102 166/312/102 165/313/102
f 261/314/103 284/315/103 277/316/103 237/317/103
f 268/318/104 314/319/104 308/320/104 239/321/104
f 283/322/105 285/323/105 273/324/105 274/325/105
f 265/326/106 276/327/106 243/328/106 244/329/106
f 272/330/107 271/331/107 269/332/107 270/333/107
f 303/334/108 305/335/108 271/336/108 272/337/108
f 294/338/109 296/339/109 295/340/109 293/341/109
f 276/342/110 304/343/110 298/344/110 243/345/110
f 287/346/111 294/347/111 293/348/111 288/349/111
f 258/350/112 302/351/113 306/352/114 275/353/115
f 275/354/116 306/355/116 304/356/116 276/357/116
f 306/358/117 305/359/117 303/360/117 304/361/117
f 285/362/118 282/363/119 255/364/120 273/365/121
f 306/366/122 302/367/122 301/368/122 305/369/122
f 262/370/123 286/371/123 284/372/123 261/373/123
f 316/374/124 315/375/124 313/376/124 314/377/124
f 307/378/125 313/379/125 265/380/125 244/381/125
f 314/382/126 313/383/126 307/384/126 308/385/126
f 305/386/127 301/387/128 259/388/129 271/389/130
f 281/390/131 282/391/131 285/392/131 286/393/131
f 242/394/132 333/395/133 297/396/134
f 297/397/135 334/398/135 298/399/135
f 269/400/136 296/401/137 294/402/136 270/403/136
f 270/404/138 294/405/138 287/406/138 241/407/138
f 277/408/139 284/409/139 283/410/139 278/411/139
f 260/412/140 291/413/141 296/414/142 269/415/143
f 296/416/144 291/417/144 292/418/144 295/419/144
f 244/420/145 335/421/146 307/422/147
f 307/423/148 336/424/148 308/425/148
f 239/426/149 308/427/150 328/428/151
f 329/429/152 237/430/153 277/431/154
f 325/432/155 278/433/156 240/434/157
f 330/435/158 277/436/158 278/437/158
f 332/438/159 287/439/159 288/440/159
f 326/441/160 288/442/161 238/443/162
f 331/444/163 241/445/164 287/446/165
f 183/447/166 185/448/166 186/449/166 184/450/166
f 315/451/167 311/452/168 257/453/169 266/454/170
f 278/455/171 283/456/171 274/457/171 240/458/172
f 254/459/173 253/460/173 395/461/173
f 301/462/174 302/463/174 395/464/174
f 281/465/175 254/466/175 395/467/175
f 256/468/176 255/469/176 395/470/176
f 282/471/177 281/472/177 395/473/177
f 258/474/178 257/475/178 395/476/178
f 257/477/179 311/478/179 395/479/179
f 260/480/180 259/481/180 395/482/180
f 311/483/181 312/484/181 395/485/181
f 291/486/182 260/487/182 395/488/182
f 255/489/183 282/490/183 395/491/183
f 292/492/184 291/493/184 395/494/184
f 253/495/185 292/496/185 395/497/185
f 302/498/186 258/499/186 395/500/186
f 259/501/187 301/502/187 395/503/187
f 157/504/18 158/505/18 202/506/18
f 201/507/18 159/508/18 191/509/18
f 159/510/18 160/511/18 191/512/18
f 157/513/18 202/514/18 211/515/18
f 202/516/18 201/517/18 211/518/18
f 192/519/18 153/520/18 154/521/18
f 201/522/18 191/523/18 192/524/18
f 155/525/18 156/526/18 212/527/18
f 182/528/18 155/529/18 212/530/18
f 192/531/18 154/532/18 181/533/18
f 181/534/18 182/535/18 212/536/18
f 178/537/28 140/538/28 174/539/28
f 197/540/30 142/541/30 172/542/30
f 188/543/34 138/544/34 164/545/34
f 207/546/36 144/547/36 165/548/36
f 177/549/42 184/550/42 161/551/42
f 187/552/47 194/553/47 170/554/47
f 198/555/52 204/556/52 176/557/52
f 208/558/57 214/559/57 168/560/57
f 376/561/188 374/562/188 373/563/188 375/564/188
f 372/565/189 371/566/189 369/567/189 370/568/189
f 372/569/190 376/570/190 375/571/190 371/572/190
f 374/573/191 370/574/191 369/575/191 373/576/191
f 372/577/192 370/578/192 374/579/192 376/580/192
f 230/581/193 179/582/194 279/583/195 330/584/196
f 228/585/197 328/586/198 310/587/199 210/588/199
f 225/589/200 180/590/200 280/591/201 325/592/201
f 149/593/189 221/594/189 222/595/189 150/596/189
f 320/597/202 319/598/202 247/599/202 248/600/202
f 234/601/203 200/602/204 300/603/205 334/604/206
f 232/605/207 189/606/208 289/607/209 332/608/210
f 140/609/211 147/610/211 148/611/211 139/612/211
f 208/613/63 228/614/63 210/615/63
f 187/616/212 231/617/213 189/618/214
f 138/619/215 145/620/215 146/621/215 137/622/215
f 234/623/216 334/624/216 299/625/217 199/626/217
f 177/627/64 229/628/64 179/629/64
f 141/630/218 142/631/218 151/632/218 152/633/218
f 140/634/65 225/635/65 147/636/65
f 178/637/219 230/638/219 180/639/219
f 138/640/70 226/641/70 145/642/70
f 188/643/220 232/644/221 190/645/222
f 145/646/188 217/647/188 218/648/188 146/649/188
f 322/650/223 321/651/223 249/652/223 250/653/223
f 151/654/190 223/655/190 224/656/190 152/657/190
f 146/658/224 218/659/224 318/660/225 246/661/225
f 152/662/226 224/663/226 324/664/227 252/665/227
f 233/666/54 151/667/54 142/668/54
f 233/669/228 197/670/228 199/671/228
f 234/672/229 199/673/229 197/674/229
f 234/675/55 198/676/55 200/677/55
f 227/678/230 200/679/231 198/680/232
f 227/681/233 143/682/234 150/683/235
f 235/684/61 149/685/61 144/686/61
f 235/687/61 207/688/61 209/689/61
f 228/690/63 139/691/63 148/692/63
f 236/693/62 209/694/62 207/695/62
f 236/696/62 208/697/62 210/698/62
f 137/699/64 146/700/64 229/701/64
f 178/702/236 180/703/236 225/704/236
f 177/705/66 179/706/66 230/707/66
f 187/708/237 189/709/238 232/710/239
f 188/711/240 190/712/240 226/713/240
f 141/714/241 152/715/242 231/716/242
f 239/717/243 248/718/243 247/719/243 240/720/243
f 308/721/244 310/722/245 328/723/246
f 287/724/247 289/725/248 331/726/249
f 243/727/250 250/728/250 249/729/250 244/730/250
f 277/731/251 279/732/252 329/733/253
f 241/734/254 252/735/254 251/736/254 242/737/254
f 240/738/255 247/739/256 325/740/257
f 278/741/258 280/742/258 330/743/258
f 238/744/259 245/745/260 326/746/261
f 288/747/262 290/748/262 332/749/262
f 147/750/263 247/751/264 319/752/265 219/753/265
f 150/754/266 222/755/267 322/756/268 250/757/269
f 333/758/270 242/759/271 251/760/272
f 333/761/273 299/762/273 297/763/273
f 334/764/274 297/765/274 299/766/274
f 334/767/275 300/768/275 298/769/275
f 327/770/276 298/771/277 300/772/278
f 327/773/279 250/774/280 243/775/281
f 335/776/282 244/777/283 249/778/284
f 335/779/285 309/780/286 307/781/287
f 328/782/288 248/783/289 239/784/290
f 336/785/148 307/786/148 309/787/148
f 336/788/148 310/789/148 308/790/148
f 237/791/291 329/792/292 246/793/293
f 278/794/294 325/795/294 280/796/294
f 277/797/295 330/798/295 279/799/295
f 287/800/296 332/801/297 289/802/298
f 288/803/299 326/804/299 290/805/299
f 241/806/300 331/807/301 252/808/302
f 150/809/303 250/810/303 327/811/304 227/812/305
f 151/813/306 233/814/307 333/815/308 251/816/309
f 152/817/310 252/818/311 331/819/312 231/820/312
f 149/821/313 235/822/314 335/823/315 249/824/316
f 236/825/317 336/826/318 309/827/317 209/828/317
f 233/829/319 199/830/319 299/831/320 333/832/320
f 227/833/321 327/834/322 300/835/323 200/836/324
f 232/837/325 332/838/326 290/839/327 190/840/328
f 229/841/329 329/842/330 279/843/331 179/844/331
f 226/845/332 190/846/333 290/847/334 326/848/335
f 218/849/18 217/850/18 317/851/18 318/852/18
f 219/853/18 319/854/18 320/855/18 220/856/18
f 148/857/191 147/858/191 219/859/191 220/860/191
f 145/861/336 245/862/336 317/863/337 217/864/337
f 149/865/338 249/866/339 321/867/340 221/868/340
f 151/869/341 251/870/341 323/871/342 223/872/342
f 246/873/343 318/874/343 317/875/343 245/876/343
f 324/877/344 323/878/344 251/879/344 252/880/344
f 148/881/345 220/882/345 320/883/346 248/884/346
f 230/885/347 330/886/347 280/887/348 180/888/348
f 246/889/349 245/890/349 238/891/349 237/892/349
f 144/893/350 149/894/350 150/895/350 143/896/350
f 235/897/351 209/898/352 309/899/352 335/900/353
f 147/901/354 225/902/354 325/903/355 247/904/355
f 231/905/356 331/906/356 289/907/357 189/908/357
f 145/909/358 226/910/359 326/911/360 245/912/361
f 236/913/317 210/914/317 310/915/317 336/916/362
f 222/917/18 221/918/18 321/919/18 322/920/18
f 223/921/18 323/922/18 324/923/18 224/924/18
f 148/925/363 248/926/364 328/927/365 228/928/366
f 146/929/367 246/930/367 329/931/368 229/932/368
f 65/933/369 44/934/369 4/935/369
f 15/936/370 50/937/371 55/938/370 25/939/372
f 7/940/373 58/941/374 63/942/373 21/943/375
f 11/944/376 29/945/377 32/946/376 12/947/378
f 14/948/379 13/949/379 27/950/379 26/951/379
f 10/952/380 9/953/381 31/954/380 30/955/380
f 1/956/382 17/957/382 20/958/383 2/959/383
f 22/960/384 61/961/385 60/962/386 6/963/387
f 62/964/388 64/965/389 28/966/388 27/967/388
f 22/968/390 6/969/390 5/970/390 23/971/390
f 7/972/391 21/973/391 24/974/391 8/975/391
f 22/976/392 23/977/392 24/978/392 21/979/392
f 4/980/393 3/981/393 19/982/393 18/983/393
f 18/984/394 19/985/394 20/986/394 17/987/394
f 99/988/395 77/989/395 78/990/395 98/991/395
f 29/992/396 30/993/397 31/994/396 32/995/398
f 20/996/399 37/997/400 34/998/401 2/999/402
f 19/1000/403 39/1001/403 37/1002/403 20/1003/404
f 59/1004/405 62/1005/406 27/1006/407 13/1007/407
f 21/1008/408 63/1009/409 61/1010/408 22/1011/408
f 30/1012/410 45/1013/411 42/1014/412 10/1015/413
f 113/1016/414 115/1017/415 97/1018/416 98/1019/417
f 54/1020/418 56/1021/418 32/1022/418 31/1023/419
f 63/1024/420 64/1025/420 62/1026/420 61/1027/420
f 33/1028/421 38/1029/422 23/1030/423 5/1031/424
f 53/1032/425 54/1033/425 51/1034/425 52/1035/425
f 64/1036/426 57/1037/427 16/1038/426 28/1039/428
f 50/1040/429 49/1041/429 56/1042/429 55/1043/429
f 46/1044/430 48/1045/430 18/1046/430 17/1047/430
f 115/1048/431 134/1049/432 79/1050/433 97/1051/434
f 38/1052/435 40/1053/436 24/1054/435 23/1055/437
f 39/1056/438 40/1057/438 38/1058/438 37/1059/438
f 101/1060/439 106/1061/439 105/1062/439 102/1063/439
f 40/1064/440 36/1065/441 8/1066/440 24/1067/442
f 87/1068/443 71/1069/443 72/1070/443 86/1071/443
f 121/1072/444 123/1073/445 93/1074/446 94/1075/446
f 26/1076/447 53/1077/448 52/1078/449 14/1079/450
f 37/1080/451 38/1081/451 33/1082/451 34/1083/451
f 56/1084/452 49/1085/453 12/1086/452 32/1087/454
f 35/1088/455 36/1089/455 40/1090/455 39/1091/455
f 68/1092/456 43/1093/457 67/1094/458
f 68/1095/459 44/1096/460 65/1097/461
f 72/1098/462 112/1099/462 133/1100/462
f 108/1101/463 92/1102/464 76/1103/463 104/1104/465
f 131/1105/466 126/1106/467 75/1107/466 89/1108/468
f 80/1109/469 100/1110/469 97/1111/469 79/1112/469
f 132/1113/470 125/1114/470 126/1115/470 131/1116/470
f 70/1117/471 88/1118/471 85/1119/471 69/1120/471
f 95/1121/472 81/1122/472 82/1123/472 94/1124/472
f 123/1125/473 118/1126/474 83/1127/473 93/1128/475
f 128/1129/476 129/1130/477 90/1131/478 74/1132/478
f 130/1133/479 95/1134/480 96/1135/481 132/1136/482
f 84/1137/483 96/1138/483 93/1139/483 83/1140/483
f 93/1141/484 96/1142/484 95/1143/484 94/1144/484
f 76/1145/485 92/1146/485 89/1147/485 75/1148/485
f 25/1149/486 26/1150/486 27/1151/486 28/1152/486
f 25/1153/487 28/1154/487 16/1155/487 15/1156/487
f 100/1157/488 99/1158/488 98/1159/488 97/1160/488
f 90/1161/489 91/1162/489 73/1163/489 74/1164/489
f 89/1165/490 92/1166/490 91/1167/490 90/1168/490
f 101/1169/491 73/1170/491 91/1171/491 106/1172/492
f 129/1173/493 131/1174/494 89/1175/493 90/1176/495
f 102/1177/496 105/1178/497 88/1179/498 70/1180/499
f 105/1181/500 107/1182/500 87/1183/500 88/1184/501
f 110/1185/502 113/1186/503 98/1187/504 78/1188/504
f 29/1189/505 47/1190/505 45/1191/505 30/1192/505
f 122/1193/506 124/1194/506 123/1195/506 121/1196/506
f 120/1197/507 121/1198/508 94/1199/509 82/1200/510
f 119/1201/511 122/1202/511 121/1203/511 120/1204/511
f 124/1205/512 100/1206/513 80/1207/512 117/1208/514
f 58/1209/515 57/1210/515 64/1211/515 63/1212/515
f 114/1213/516 85/1214/517 86/1215/518 116/1216/519
f 134/1217/520 111/1218/521 79/1219/522
f 106/1220/523 91/1221/524 92/1222/525 108/1223/526
f 130/1224/527 132/1225/527 131/1226/527 129/1227/527
f 127/1228/528 81/1229/529 95/1230/528 130/1231/528
f 127/1232/530 130/1233/530 129/1234/530 128/1235/530
f 132/1236/531 96/1237/532 84/1238/531 125/1239/533
f 108/1240/534 104/1241/534 103/1242/534 107/1243/534
f 122/1244/535 99/1245/535 100/1246/535 124/1247/536
f 55/1248/537 56/1249/537 54/1250/537 53/1251/537
f 46/1252/538 41/1253/538 109/1254/539 114/1255/539
f 124/1256/540 117/1257/540 118/1258/540 123/1259/540
f 136/1260/541 111/1261/542 134/1262/543
f 112/1263/544 136/1264/545 133/1265/546
f 16/1266/547 84/1267/548 83/1268/549 15/1269/550
f 12/1270/551 80/1271/552 79/1272/553 11/1273/554
f 50/1274/555 15/1275/556 83/1276/557 118/1277/558
f 57/1278/559 125/1279/560 84/1280/561 16/1281/562
f 58/1282/563 7/1283/564 75/1284/565 126/1285/566
f 58/1286/567 126/1287/568 125/1288/569 57/1289/570
f 44/1290/571 112/1291/572 72/1292/573 4/1293/574
f 25/1294/575 55/1295/575 53/1296/575 26/1297/575
f 45/1298/576 113/1299/577 110/1300/578 42/1301/579
f 66/1302/580 68/1303/580 136/1304/581 134/1305/581
f 35/1306/582 3/1307/583 71/1308/584 103/1309/585
f 35/1310/586 103/1311/587 104/1312/588 36/1313/589
f 36/1314/590 104/1315/591 76/1316/592 8/1317/593
f 106/1318/594 108/1319/594 107/1320/594 105/1321/594
f 65/1322/595 133/1323/596 136/1324/597 68/1325/597
f 44/1326/598 67/1327/599 135/1328/600 112/1329/601
f 48/1330/602 46/1331/602 114/1332/603 116/1333/603
f 61/1334/604 62/1335/604 59/1336/604 60/1337/604
f 7/1338/605 8/1339/606 76/1340/607 75/1341/608
f 41/1342/609 46/1343/610 17/1344/611 1/1345/612
f 43/1346/613 111/1347/614 135/1348/615 67/1349/616
f 47/1350/617 66/1351/617 134/1352/618 115/1353/618
f 47/1354/619 115/1355/619 113/1356/620 45/1357/620
f 3/1358/621 4/1359/622 72/1360/623 71/1361/624
f 119/1362/625 77/1363/625 99/1364/625 122/1365/626
f 49/1366/627 117/1367/628 80/1368/629 12/1369/630
f 109/1370/631 69/1371/632 85/1372/633 114/1373/634
f 51/1374/635 54/1375/635 31/1376/636 9/1377/636
f 43/1378/637 11/1379/638 79/1380/639 111/1381/637
f 48/1382/640 116/1383/640 133/1384/641 65/1385/641
f 50/1386/642 118/1387/643 117/1388/644 49/1389/645
f 85/1390/646 88/1391/646 87/1392/646 86/1393/646
f 107/1394/647 103/1395/648 71/1396/647 87/1397/649
f 47/1398/650 29/1399/650 11/1400/651 66/1401/652
f 3/1402/653 35/1403/654 39/1404/653 19/1405/655
f 48/1406/656 65/1407/656 4/1408/657 18/1409/657
f 116/1410/658 86/1411/659 72/1412/660 133/1413/660
f 11/1414/661 43/1415/662 66/1416/663
f 68/1417/664 66/1418/665 43/1419/666
f 68/1420/667 67/1421/668 44/1422/669
f 136/1423/670 135/1424/671 111/1425/672
f 112/1426/673 135/1427/671 136/1428/674
f 345/1429/675 346/1430/675 348/1431/676 347/1432/676
f 353/1433/677 354/1434/677 356/1435/678 355/1436/678
f 340/1437/679 339/1438/679 343/1439/679
f 365/1440/680 366/1441/680 368/1442/681 367/1443/681
f 341/1444/682 337/1445/682 338/1446/682
f 340/1447/683 343/1448/683 344/1449/683
f 341/1450/684 338/1451/684 342/1452/684
f 340/1453/685 338/1454/685 337/1455/686 339/1456/686
f 348/1457/687 351/1458/687 347/1459/687
f 341/1460/688 342/1461/688 344/1462/689 343/1463/689
f 349/1464/690 346/1465/690 345/1466/690
f 348/1467/691 352/1468/691 351/1469/691
f 349/1470/692 350/1471/692 346/1472/692
f 364/1473/693 362/1474/693 361/1475/694 363/1476/694
f 356/1477/695 359/1478/695 355/1479/695
f 357/1480/696 354/1481/696 353/1482/696
f 356/1483/697 360/1484/697 359/1485/697
f 357/1486/698 358/1487/698 354/1488/698
f 352/1489/699 350/1490/699 349/1491/700 351/1492/700
f 364/1493/701 363/1494/701 367/1495/701
f 360/1496/702 358/1497/702 357/1498/703 359/1499/703
f 365/1500/704 361/1501/704 362/1502/704
f 364/1503/705 367/1504/705 368/1505/705
f 365/1506/706 362/1507/706 366/1508/706
f 390/1509/707 389/1510/707 384/1511/707 383/1512/707
f 391/1513/708 385/1514/708 388/1515/708 394/1516/708
f 381/1517/709 380/1518/709 377/1519/709 378/1520/709
f 388/1521/710 385/1522/710 384/1523/710 389/1524/710
f 377/1525/711 393/1526/711 387/1527/711
f 387/1528/712 394/1529/712 388/1530/712
f 380/1531/713 392/1532/713 382/1533/713
f 386/1534/714 391/1535/714 392/1536/714
f 377/1537/715 390/1538/715 378/1539/715
f 387/1540/716 389/1541/716 390/1542/716
f 380/1543/717 383/1544/717 386/1545/717
f 386/1546/718 384/1547/718 385/1548/718
f 393/1549/719 392/1550/719 391/1551/719 394/1552/719
f 382/1553/720 392/1554/720 393/1555/720 379/1556/720
f 380/1557/721 382/1558/721 379/1559/721 377/1560/721
f 381/1561/722 378/1562/722 390/1563/722 383/1564/722
f 377/1565/711 379/1566/711 393/1567/711
f 387/1568/723 393/1569/723 394/1570/723
f 380/1571/713 386/1572/713 392/1573/713
f 386/1574/724 385/1575/724 391/1576/724
f 377/1577/715 387/1578/715 390/1579/715
f 387/1580/725 388/1581/725 389/1582/725
f 380/1583/717 381/1584/717 383/1585/717
f 386/1586/726 383/1587/726 384/1588/726
