# Blender v3.0.0 OBJ File: 'aa.blend'
# www.blender.org
mtllib Tile_8.mtl
o Tile_8
v -0.164213 -0.000182 0.159740
v -0.164230 -0.000182 -0.149393
v 0.144986 -0.000182 0.159744
v 0.144395 -0.000182 -0.148973
v 0.052583 -0.000182 -0.163635
v -0.053247 -0.000182 0.173962
v -0.171584 -0.000182 0.005276
v 0.152163 -0.000182 -0.064383
v -0.009749 0.086934 0.005276
v -0.171567 0.086820 0.005272
v -0.120931 0.086936 -0.152625
v -0.164227 0.075235 -0.149390
v -0.166283 0.086934 -0.105808
v 0.147444 0.086942 -0.110305
v 0.144442 0.076417 -0.148670
v 0.106016 0.086947 -0.153674
v 0.144842 0.070332 0.159744
v 0.147081 0.086935 0.098157
v 0.083239 0.086934 0.164156
v -0.093246 0.087229 0.103172
v -0.079590 0.082738 0.170551
v -0.053247 0.039205 0.173962
v -0.023017 0.086934 0.171790
v 0.151570 0.086933 -0.055282
v 0.152032 0.059595 -0.064343
v 0.150747 0.086931 -0.082247
v 0.109137 0.086934 -0.052261
v 0.052320 0.074143 -0.162484
v -0.017068 0.086933 -0.159375
v 0.035346 0.086934 -0.082574
v -0.165567 0.073705 0.131561
v -0.164213 0.042091 0.159739
v -0.136371 0.074742 0.163324
vt 0.001109 0.300739
vt 0.175561 0.292444
vt 0.175561 0.546581
vt 0.704352 0.246511
vt 0.704352 0.297870
vt 0.627220 0.274658
vt 0.875463 0.445315
vt 0.768734 0.415119
vt 0.875463 0.315452
vt 0.656748 0.891892
vt 0.636423 0.805455
vt 0.656748 0.747033
vt 0.822979 0.837631
vt 0.678704 0.783191
vt 0.822979 0.748836
vt 0.172883 0.952771
vt 0.123995 0.901812
vt 0.172883 0.850404
vt 0.998440 0.150815
vt 0.949521 0.111014
vt 0.998440 0.001109
vt 0.838124 0.934042
vt 0.796491 0.887218
vt 0.838124 0.839848
vt 0.948185 0.320689
vt 0.884226 0.243508
vt 0.948185 0.153103
vt 0.366082 0.861547
vt 0.435857 0.789582
vt 0.435857 0.933794
vt 0.363864 0.779159
vt 0.210113 0.656150
vt 0.363864 0.525023
vt 0.947304 0.149417
vt 0.890349 0.057419
vt 0.947304 0.001109
vt 0.272116 0.850404
vt 0.272116 0.932512
vt 0.235335 0.876738
vt 0.768734 0.555333
vt 0.841146 0.447533
vt 0.841146 0.604971
vt 0.918042 0.796258
vt 0.845452 0.712392
vt 0.918042 0.620962
vt 0.175100 0.882995
vt 0.233118 0.850404
vt 0.233118 0.918030
vt 0.924714 0.916358
vt 0.845452 0.872130
vt 0.924714 0.798476
vt 0.101676 0.852090
vt 0.001109 0.832978
vt 0.101676 0.548798
vt 0.973297 0.773980
vt 0.920260 0.726866
vt 0.973297 0.620962
vt 0.484731 0.932539
vt 0.438074 0.867440
vt 0.484731 0.789582
vt 0.975034 0.482120
vt 0.951740 0.418632
vt 0.975034 0.356463
vt 0.206381 0.528093
vt 0.182700 0.466071
vt 0.206381 0.403882
vt 0.177779 0.326365
vt 0.206381 0.292444
vt 0.206381 0.401665
vt 0.103893 0.672652
vt 0.197231 0.548798
vt 0.197231 0.756229
vt 0.907328 0.615374
vt 0.843364 0.524972
vt 0.907328 0.447533
vt 0.949523 0.615374
vt 0.909545 0.594207
vt 0.949523 0.356463
vt 0.998891 0.302879
vt 0.950402 0.192783
vt 0.998891 0.153103
vt 0.900280 0.445315
vt 0.877680 0.407133
vt 0.900280 0.361013
vt 0.123995 0.805521
vt 0.363864 0.781377
vt 0.363864 0.848187
vt 0.484588 0.787365
vt 0.366082 0.623688
vt 0.484588 0.525023
vt 0.469461 0.522806
vt 0.210113 0.395023
vt 0.469461 0.355500
vt 0.979761 0.951346
vt 0.926932 0.845338
vt 0.979761 0.798476
vt 0.676487 0.744815
vt 0.488186 0.687252
vt 0.676487 0.620962
vt 0.794274 0.839848
vt 0.794274 0.907623
vt 0.678704 0.884383
vt 0.207896 0.001109
vt 0.207896 0.290227
vt 0.069005 0.251416
vt 0.001109 0.017433
vt 0.766253 0.262607
vt 0.787847 0.155543
vt 0.882009 0.153103
vt 0.882009 0.310541
vt 0.625002 0.001109
vt 0.625002 0.313235
vt 0.488186 0.216013
vt 0.488186 0.048707
vt 0.650476 0.514016
vt 0.629879 0.315452
vt 0.766517 0.315458
vt 0.766517 0.558321
vt 0.888131 0.001109
vt 0.888131 0.150885
vt 0.804393 0.141150
vt 0.766253 0.055365
vt 0.349152 0.110700
vt 0.485969 0.001109
vt 0.485969 0.342349
vt 0.349148 0.274162
vt 0.627662 0.618744
vt 0.490321 0.546709
vt 0.488186 0.400695
vt 0.627662 0.315452
vt 0.210113 0.097887
vt 0.346931 0.001109
vt 0.346931 0.353282
vt 0.253050 0.353213
vt 0.764036 0.244293
vt 0.627398 0.244285
vt 0.627220 0.069636
vt 0.764036 0.001109
vt 0.548727 0.883952
vt 0.488186 0.747033
vt 0.634205 0.747187
vt 0.634205 0.863929
vt 0.843235 0.746618
vt 0.678704 0.684972
vt 0.700408 0.627048
vt 0.843235 0.620962
vn -0.0007 1.0000 0.0010
vn -0.0007 1.0000 -0.0013
vn 0.5104 0.4878 0.7082
vn 0.1748 0.9773 -0.1193
vn 0.0717 0.0000 0.9974
vn -0.6304 0.4287 0.6471
vn -0.2700 0.9267 -0.2615
vn 0.1302 0.0038 -0.9915
vn 0.2872 0.9178 -0.2742
vn 0.9995 0.0039 0.0317
vn 0.9993 0.0020 0.0369
vn 0.9992 0.0024 0.0401
vn 0.2686 0.9276 0.2598
vn 0.0015 1.0000 -0.0038
vn -0.0030 1.0000 -0.0052
vn -0.0007 1.0000 -0.0036
vn 0.8520 0.5047 -0.1390
vn -0.0674 0.3129 -0.9474
vn -0.1970 0.9607 -0.1956
vn -0.0419 0.0153 -0.9990
vn -0.6496 0.4902 0.5811
vn -0.1495 0.9844 0.0926
vn -0.1508 0.9839 0.0961
vn -0.1475 0.9847 0.0931
vn -0.0000 1.0000 0.0000
vn -0.9989 0.0000 -0.0471
vn -0.1260 0.0015 0.9920
vn -0.1264 0.0012 0.9920
vn -0.1277 0.0000 0.9918
vn -0.9988 -0.0000 0.0480
vn 0.0003 1.0000 0.0003
vn 0.0715 0.0001 0.9974
vn 0.9996 0.0108 0.0268
vn 0.9995 0.0072 0.0292
vn 0.9994 0.0092 0.0343
vn 0.9970 -0.0003 -0.0779
vn 0.9927 -0.0299 -0.1169
vn 0.0039 1.0000 0.0003
vn 0.0051 1.0000 -0.0023
vn 0.0045 1.0000 -0.0016
vn 0.0020 1.0000 0.0002
vn -0.0803 0.0021 -0.9968
vn -0.0745 0.0001 -0.9972
vn -0.0775 0.0041 -0.9970
vn -0.1382 0.9840 0.1123
vn -0.1413 0.9840 0.1089
vn -0.1445 0.9844 0.1007
vn -0.1477 0.9841 0.0986
vn -0.1401 0.9850 0.1007
vn -0.0000 1.0000 0.0001
vn 0.0716 0.0001 0.9974
vn -0.9989 0.0000 0.0476
vn 0.9956 0.0048 -0.0932
vn -0.0653 -0.0040 -0.9979
vn -0.0690 0.0010 -0.9976
vn -0.0702 -0.0049 -0.9975
vn 0.9995 0.0051 0.0324
vn 0.9994 0.0021 0.0335
vn 0.9995 -0.0002 0.0314
vn 0.9994 0.0033 0.0338
vn -0.9989 0.0002 -0.0475
vn 0.1579 0.0161 -0.9873
vn -0.1271 -0.0002 0.9919
vn -0.1271 0.0002 0.9919
g Tile_8_Tile_8_Collor_Material
usemtl Collor_Material
s off
f 13/1/1 10/2/2 9/3/1
f 25/4/3 26/5/3 27/6/3
f 28/7/4 29/8/4 30/9/4
f 23/10/5 22/11/5 6/12/5
f 23/13/6 20/14/6 22/15/6
f 11/16/7 12/17/7 13/18/7
f 16/19/8 15/20/8 4/21/8
f 14/22/9 15/23/9 16/24/9
f 18/25/10 17/26/11 3/27/12
f 17/28/13 18/29/13 19/30/13
f 10/31/14 20/32/15 9/33/16
f 20/34/17 21/35/17 22/36/17
f 25/37/18 27/38/18 24/39/18
f 28/40/19 30/41/19 16/42/19
f 29/43/20 28/44/20 5/45/20
f 31/46/21 32/47/21 33/48/21
f 33/49/22 21/50/23 20/51/24
f 11/52/25 13/53/25 9/54/25
f 13/55/26 12/56/26 2/57/26
f 22/58/27 21/59/28 33/60/28
f 33/61/29 32/62/29 1/63/29
f 1/64/30 32/65/30 31/66/30
f 26/67/31 14/68/31 27/69/31
f 30/70/25 9/71/25 27/72/25
f 3/73/32 17/74/32 19/75/32
f 25/76/33 24/77/34 18/78/35
f 4/79/36 15/80/36 14/81/36
f 14/82/37 26/83/37 25/84/37
f 18/85/25 24/86/25 27/87/25
f 9/88/38 20/89/39 23/90/40
f 19/91/25 9/92/25 23/93/41
f 2/94/42 12/95/43 11/96/44
f 20/97/45 10/98/46 31/99/46
f 31/100/47 33/101/48 20/102/49
f 9/103/25 19/104/25 18/105/25 27/106/25
f 27/107/50 14/108/50 16/109/50 30/110/50
f 6/111/51 3/112/51 19/113/51 23/114/51
f 31/115/52 10/116/52 7/117/52 1/118/52
f 4/119/53 14/120/53 25/121/53 8/122/53
f 29/123/54 5/124/54 2/125/55 11/126/56
f 9/127/25 30/128/25 29/129/25 11/130/25
f 18/131/57 3/132/58 8/133/59 25/134/60
f 7/135/61 10/136/61 13/137/61 2/138/61
f 16/139/62 4/140/62 5/141/62 28/142/62
f 1/143/63 6/144/63 22/145/64 33/146/63
