# Blender v3.0.0 OBJ File: 'aa.blend'
# www.blender.org
mtllib Tile_1.mtl
o Tile_1
v -0.155630 -0.000182 0.153607
v -0.155630 -0.000182 -0.155320
v 0.153297 -0.000182 0.153607
v 0.153297 -0.000182 -0.155320
v -0.001167 -0.000182 -0.169543
v -0.001167 0.091160 -0.169543
v -0.001167 -0.000182 0.167830
v -0.001167 0.091160 0.167830
v -0.163001 -0.000182 -0.000857
v -0.163001 0.091160 -0.000857
v 0.160668 -0.000182 -0.000857
v 0.160668 0.091160 -0.000857
v -0.001167 0.091160 -0.000857
v -0.160050 0.091160 0.061007
v -0.155630 0.057100 0.153607
v -0.064389 0.091160 0.162008
v 0.153297 0.067085 0.153607
v 0.156380 0.091160 0.088991
v 0.104542 0.091160 0.158096
v 0.159394 0.091160 -0.027569
v 0.153297 0.065488 -0.155320
v 0.089358 0.091160 -0.161208
v -0.155630 0.078469 -0.155320
v -0.157935 0.091160 -0.107010
v -0.107469 0.091160 -0.159755
vt 0.859756 0.846410
vt 0.901179 0.846410
vt 0.901179 0.987891
vt 0.963323 0.921921
vt 0.903106 0.833580
vt 0.963323 0.748553
vt 0.962123 0.700319
vt 0.903627 0.610594
vt 0.962123 0.527380
vt 0.245532 0.470476
vt 0.000964 0.354661
vt 0.245532 0.255004
vt 0.901700 0.742852
vt 0.794204 0.634009
vt 0.901700 0.527380
vt 0.757634 0.930920
vt 0.650795 0.926969
vt 0.757634 0.846410
vt 0.648868 0.264172
vt 0.648868 0.559849
vt 0.522736 0.515184
vt 0.949907 0.234661
vt 0.857435 0.055012
vt 0.949907 0.000964
vt 0.759561 0.902945
vt 0.812498 0.846410
vt 0.812498 0.959480
vt 0.511012 0.430524
vt 0.511012 0.595134
vt 0.260629 0.583185
vt 0.559086 0.998602
vt 0.502079 0.890939
vt 0.559086 0.838512
vt 0.303953 0.740470
vt 0.399884 0.740470
vt 0.399884 0.881950
vt 0.610237 0.999036
vt 0.561014 0.907206
vt 0.610237 0.838512
vt 0.994367 0.424262
vt 0.937360 0.371834
vt 0.994367 0.264172
vt 0.892130 0.264172
vt 0.892130 0.525452
vt 0.794204 0.273189
vt 0.650795 0.760499
vt 0.901179 0.748553
vt 0.901179 0.844483
vt 0.500152 0.740470
vt 0.500152 0.881950
vt 0.401811 0.881950
vt 0.251347 0.472404
vt 0.251347 0.611729
vt 0.000964 0.599780
vt 0.260629 0.288128
vt 0.520809 0.264172
vt 0.520809 0.428597
vt 0.935433 0.514840
vt 0.894058 0.512866
vt 0.935433 0.264172
vt 0.425282 0.000964
vt 0.425282 0.262244
vt 0.260629 0.247083
vt 0.290082 0.757065
vt 0.290082 0.870135
vt 0.000964 0.821067
vt 0.855507 0.240487
vt 0.766783 0.240487
vt 0.714026 0.096894
vt 0.855507 0.000964
vt 0.258702 0.000964
vt 0.258702 0.253077
vt 0.036710 0.180039
vt 0.000964 0.043843
vt 0.502079 0.697259
vt 0.643560 0.597061
vt 0.643560 0.836584
vt 0.502079 0.836584
vt 0.568690 0.000964
vt 0.568690 0.241227
vt 0.427209 0.142886
vt 0.479967 0.000964
vt 0.792276 0.264172
vt 0.792276 0.504435
vt 0.650795 0.428597
vt 0.650795 0.264172
vt 0.650795 0.605817
vt 0.792276 0.506362
vt 0.792276 0.746625
vt 0.650795 0.746625
vt 0.500152 0.597061
vt 0.500152 0.738542
vt 0.335543 0.738542
vt 0.260629 0.597061
vt 0.712099 0.000964
vt 0.712099 0.241227
vt 0.570618 0.166313
vt 0.570618 0.000964
vt 0.042386 0.755137
vt 0.000964 0.613656
vt 0.240487 0.613657
vt 0.240487 0.715374
vn 0.9989 0.0000 -0.0476
vn 0.9989 -0.0000 0.0477
vn 0.0917 -0.0000 -0.9958
vn -0.0000 1.0000 -0.0000
vn -0.3563 0.8713 0.3375
vn 0.4421 0.8334 0.3316
vn 0.3809 0.9028 -0.1996
vn -0.2683 0.9285 -0.2567
vn -0.0917 -0.0000 -0.9958
vn -0.9989 -0.0000 0.0477
vn 0.0917 0.0000 0.9958
vn -0.9989 -0.0000 -0.0477
vn -0.0917 0.0000 0.9958
vn 0.9989 -0.0000 -0.0477
g Tile_1_Tile_1_Collor_Material
usemtl Collor_Material
s off
f 20/1/1 12/2/1 11/3/1
f 18/4/2 17/5/2 3/6/2
f 22/7/3 21/8/3 4/9/3
f 16/10/4 13/11/4 14/12/4
f 14/13/5 15/14/5 16/15/5
f 17/16/6 18/17/6 19/18/6
f 13/19/4 19/20/4 18/21/4
f 20/22/7 21/23/7 22/24/7
f 23/25/8 24/26/8 25/27/8
f 24/28/4 10/29/4 13/30/4
f 2/31/9 23/32/9 25/33/9
f 14/34/10 10/35/10 9/36/10
f 3/37/11 17/38/11 19/39/11
f 24/40/12 23/41/12 2/42/12
f 8/43/4 13/44/4 16/45/4
f 13/46/4 10/47/4 14/48/4
f 7/49/13 8/50/13 16/51/13
f 18/52/4 12/53/4 13/54/4
f 13/55/4 8/56/4 19/57/4
f 12/58/4 20/59/4 13/60/4
f 13/61/4 6/62/4 25/63/4
f 25/64/4 24/65/4 13/66/4
f 1/67/10 15/68/10 14/69/10 9/70/10
f 13/71/4 20/72/4 22/73/4 6/74/4
f 18/75/2 3/76/2 11/77/2 12/78/2
f 1/79/13 7/80/13 16/81/13 15/82/13
f 7/83/11 3/84/11 19/85/11 8/86/11
f 22/87/3 4/88/3 5/89/3 6/90/3
f 9/91/12 10/92/12 24/93/12 2/94/12
f 5/95/9 2/96/9 25/97/9 6/98/9
f 20/99/14 11/100/14 4/101/14 21/102/14
