# Blender v3.0.0 OBJ File: 'aa.blend'
# www.blender.org
mtllib Tile_7.mtl
o Tile_7
v -0.163817 -0.000182 0.138288
v -0.164139 -0.000182 -0.170329
v 0.144905 -0.000182 0.138236
v 0.145003 -0.000182 -0.170733
v 0.039769 -0.000182 -0.180592
v 0.035797 -0.000182 0.145800
v -0.170035 -0.000182 -0.042695
v 0.150276 -0.000182 0.019395
v 0.150449 0.090194 0.019399
v -0.009533 0.088287 -0.016206
v 0.144948 0.079941 0.138425
v 0.146625 0.089291 0.102752
v 0.109528 0.088542 0.141295
v -0.168967 0.089504 0.024432
v -0.164573 0.058769 0.139430
v -0.050495 0.088090 0.147344
v -0.163775 0.073771 -0.170916
v 0.030654 0.089269 -0.181039
v 0.146053 0.090074 -0.141938
v 0.145035 0.081777 -0.170658
v 0.116288 0.089531 -0.173138
v 0.024307 0.086038 0.147549
v 0.035781 0.025828 0.146217
v 0.048095 0.084815 0.145684
v 0.015679 0.087619 0.068622
v -0.168692 0.083011 -0.062071
v -0.170158 0.068621 -0.042681
v -0.170155 0.088724 -0.029314
v -0.064881 0.087307 -0.110546
vt 0.129065 0.748947
vt 0.129065 0.870367
vt 0.001018 0.855952
vt 0.879642 0.778621
vt 0.879642 0.876400
vt 0.744011 0.871212
vt 0.314010 0.957497
vt 0.265751 0.922013
vt 0.314010 0.801293
vt 0.932486 0.965251
vt 0.891758 0.938955
vt 0.932486 0.812357
vt 0.254805 0.595262
vt 0.148204 0.438852
vt 0.254805 0.278352
vt 0.764180 0.232026
vt 0.805040 0.188226
vt 0.805040 0.275036
vt 0.947324 0.513604
vt 0.871088 0.337878
vt 0.947324 0.280062
vt 0.636576 0.278027
vt 0.503014 0.138323
vt 0.636576 0.001018
vt 0.840675 0.258199
vt 0.807075 0.223173
vt 0.840675 0.188226
vt 0.665036 0.782050
vt 0.665036 0.946272
vt 0.586994 0.843738
vt 0.967461 0.590733
vt 0.967461 0.810322
vt 0.891758 0.633219
vt 0.218067 0.610889
vt 0.254805 0.597297
vt 0.254805 0.813067
vt 0.762145 0.276317
vt 0.638611 0.128454
vt 0.762145 0.001018
vt 0.981673 0.485551
vt 0.949359 0.302344
vt 0.981673 0.280062
vt 0.258394 0.968835
vt 0.218067 0.842109
vt 0.258394 0.815102
vt 0.741976 0.780015
vt 0.586994 0.693638
vt 0.741976 0.590733
vt 0.371348 0.973946
vt 0.412396 0.801293
vt 0.412396 0.983779
vt 0.364392 0.956359
vt 0.316045 0.835674
vt 0.364392 0.801293
vt 0.412396 0.280062
vt 0.412396 0.604187
vt 0.268956 0.464362
vt 0.998982 0.791048
vt 0.969496 0.760845
vt 0.998982 0.590733
vt 0.735413 0.954698
vt 0.667071 0.882411
vt 0.735413 0.782050
vt 0.959938 0.950976
vt 0.934521 0.842267
vt 0.959938 0.812357
vt 0.439138 0.960822
vt 0.414431 0.877154
vt 0.439138 0.846757
vt 0.892954 0.090403
vt 0.959841 0.001018
vt 0.959841 0.182799
vt 0.994328 0.198726
vt 0.961876 0.136733
vt 0.994328 0.001018
vt 0.208331 0.941552
vt 0.141446 0.823446
vt 0.208331 0.748947
vt 0.266921 0.276317
vt 0.001018 0.270942
vt 0.069969 0.018298
vt 0.266921 0.001018
vt 0.889723 0.730275
vt 0.744011 0.776586
vt 0.744533 0.605084
vt 0.889723 0.590733
vt 0.743571 0.499509
vt 0.735674 0.280062
vt 0.869053 0.303368
vt 0.869053 0.569325
vt 0.335022 0.260582
vt 0.268956 0.133086
vt 0.500979 0.001018
vt 0.500979 0.278027
vt 0.499967 0.299743
vt 0.584959 0.280062
vt 0.584959 0.547039
vt 0.414431 0.497835
vt 0.414431 0.657991
vt 0.559971 0.549074
vt 0.559971 0.842912
vt 0.464308 0.844722
vt 0.267218 0.663866
vt 0.412396 0.606222
vt 0.412396 0.799251
vt 0.265751 0.799258
vt 0.764180 0.096845
vt 0.793177 0.001018
vt 0.890919 0.003705
vt 0.890919 0.186190
vt 0.733639 0.280076
vt 0.733639 0.588698
vt 0.587188 0.541946
vt 0.586994 0.280062
vt 0.031422 0.611669
vt 0.208331 0.625219
vt 0.208331 0.745221
vt 0.001018 0.746912
vt 0.146169 0.609634
vt 0.026169 0.608996
vt 0.001018 0.293086
vt 0.146169 0.278352
vn 0.0274 0.9995 0.0170
vn -0.9021 0.1918 0.3865
vn 0.9989 0.0001 0.0471
vn 0.9989 -0.0006 0.0468
vn 0.0875 -0.0015 -0.9962
vn 0.0862 0.0009 -0.9963
vn 0.0837 0.0026 -0.9965
vn -0.0836 0.9928 -0.0857
vn 0.2477 0.9343 0.2565
vn -0.0640 -0.0201 0.9977
vn -0.2573 0.9311 0.2587
vn 0.2724 0.9218 -0.2759
vn 0.9767 0.1884 -0.1030
vn -0.0170 0.9998 0.0048
vn -0.0108 0.9999 0.0068
vn -0.0143 0.9999 0.0057
vn -0.5361 0.4675 -0.7029
vn -0.0246 0.9997 0.0004
vn -0.0197 0.9998 0.0012
vn -0.0210 0.9998 0.0073
vn 0.2435 0.7699 0.5898
vn 0.9994 -0.0004 -0.0353
vn -0.0822 0.9927 -0.0880
vn 0.0692 -0.0160 0.9975
vn 0.0851 -0.0016 0.9964
vn 0.0802 -0.0024 0.9968
vn 0.0837 0.0009 0.9965
vn -0.0376 -0.0542 0.9978
vn 0.0015 -0.0160 0.9999
vn 0.0011 -0.0169 0.9999
vn 0.0022 -0.0157 0.9999
vn -0.0039 -0.0222 0.9997
vn -0.0034 -0.0227 0.9997
vn -0.0030 -0.0222 0.9997
vn -0.9971 -0.0018 -0.0767
vn -0.9995 -0.0215 0.0211
vn -0.9996 -0.0147 0.0223
vn -0.9995 -0.0120 0.0291
vn -0.9998 -0.0089 0.0199
vn -0.9998 -0.0018 0.0183
vn -0.9997 -0.0083 0.0209
vn -0.0016 0.9999 -0.0159
vn -0.0562 0.9966 0.0599
vn -0.0163 0.9999 0.0031
vn -0.0058 1.0000 -0.0026
vn -0.0099 0.9999 0.0020
vn -0.0142 0.9999 0.0045
vn 0.0901 0.0028 -0.9959
vn 0.0901 0.0021 -0.9959
vn 0.0926 0.0037 -0.9957
vn -0.0149 0.9999 0.0077
vn -0.0147 0.9999 0.0083
vn -0.0183 0.9998 0.0062
vn -0.0179 0.9998 0.0057
vn 0.0094 0.9999 0.0036
vn 0.0038 0.9999 -0.0137
vn 0.0038 0.9999 -0.0133
vn -0.9993 -0.0137 0.0344
vn 0.9989 -0.0016 0.0462
vn 0.9990 -0.0016 0.0454
vn 0.0761 -0.0077 0.9971
vn 0.0716 -0.0059 0.9974
vn 0.0754 -0.0028 0.9972
vn 0.9996 -0.0024 -0.0275
vn 0.9996 -0.0027 -0.0277
vn 0.9996 -0.0020 -0.0273
vn -0.9989 0.0050 -0.0459
vn -0.0508 -0.0090 -0.9987
vn -0.0503 -0.0100 -0.9987
g Tile_7_Tile_7_Collor_Material
usemtl Collor_Material
s off
f 16/1/1 22/2/1 25/3/1
f 23/4/2 24/5/2 25/6/2
f 12/7/3 11/8/4 3/9/4
f 21/10/5 20/11/6 4/12/7
f 17/13/8 29/14/8 18/15/8
f 11/16/9 12/17/9 13/18/9
f 16/19/10 15/20/10 1/21/10
f 14/22/11 15/23/11 16/24/11
f 19/25/12 20/26/12 21/27/12
f 23/28/13 25/29/13 22/30/13
f 12/31/14 25/32/15 13/33/16
f 27/34/17 28/35/17 29/36/17
f 18/37/18 29/38/19 10/39/20
f 29/40/21 26/41/21 27/42/21
f 4/43/22 20/44/22 19/45/22
f 17/46/23 26/47/23 29/48/23
f 6/49/24 3/50/24 23/51/24
f 3/52/25 11/53/26 13/54/27
f 1/55/28 6/56/28 16/57/28
f 6/58/29 23/59/30 16/60/31
f 23/61/32 22/62/33 16/63/34
f 7/64/35 27/65/35 26/66/35
f 14/67/36 28/68/37 27/69/38
f 27/70/39 7/71/40 14/72/41
f 19/73/42 21/74/42 18/75/42
f 25/76/43 24/77/43 13/78/43
f 10/79/44 9/80/45 19/81/46 18/82/47
f 21/83/48 4/84/49 5/85/50 18/86/50
f 25/87/51 12/88/52 9/89/53 10/90/54
f 25/91/55 10/92/55 14/93/55 16/94/55
f 28/95/56 14/96/57 10/97/57 29/98/57
f 14/99/58 7/100/58 1/101/58 15/102/58
f 12/103/59 3/104/60 8/105/60 9/106/60
f 13/107/61 24/108/62 23/109/62 3/110/63
f 8/111/64 4/112/64 19/113/65 9/114/66
f 26/115/67 17/116/67 2/117/67 7/118/67
f 2/119/68 17/120/68 18/121/69 5/122/68
