# Blender v3.0.0 OBJ File: 'aa.blend'
# www.blender.org
mtllib Tile_4.mtl
o Tile_4
v -0.145645 -0.000182 0.138519
v -0.145708 -0.000182 -0.170208
v 0.163255 -0.000182 0.138890
v 0.163383 -0.000182 -0.170299
v 0.008786 -0.000182 -0.184239
v 0.008796 0.087958 -0.184393
v -0.042023 -0.000182 0.153212
v -0.153000 -0.000182 -0.015708
v -0.153019 0.086488 -0.015695
v 0.170525 -0.000182 -0.015703
v 0.170629 0.088130 -0.015709
v 0.008927 0.092319 -0.016032
v -0.147901 0.088130 0.091999
v -0.145630 0.060799 0.138472
v -0.099209 0.088139 0.144101
v -0.033629 0.088134 0.151161
v -0.014519 0.090217 0.050596
v -0.065897 0.088125 0.150065
v -0.041990 0.066411 0.152553
v 0.122471 0.087423 0.140997
v 0.163267 0.077126 0.138485
v 0.168647 0.088835 0.025542
v 0.168127 0.081657 -0.061231
v 0.163454 0.071017 -0.170414
v 0.027468 0.081657 -0.182271
v -0.145760 0.077173 -0.170251
v -0.150808 0.084617 -0.061022
v -0.023017 0.084057 -0.181326
vt 0.418700 0.201588
vt 0.418700 0.254063
vt 0.276115 0.236616
vt 0.949014 0.680864
vt 0.878970 0.653921
vt 0.949014 0.528185
vt 0.997434 0.963857
vt 0.950937 0.888815
vt 0.997434 0.800978
vt 0.206191 0.716421
vt 0.159423 0.687184
vt 0.206191 0.510786
vt 0.632311 0.849619
vt 0.632311 0.937563
vt 0.544781 0.926081
vt 0.950820 0.255987
vt 0.950820 0.438479
vt 0.899814 0.424864
vt 0.478338 0.460579
vt 0.478338 0.636992
vt 0.442769 0.623609
vt 0.542857 0.663248
vt 0.480262 0.634949
vt 0.542857 0.460579
vt 0.916870 0.686004
vt 0.949014 0.682788
vt 0.949014 0.957271
vt 0.999038 0.418705
vt 0.952744 0.330761
vt 0.999038 0.255987
vt 0.818971 0.693980
vt 0.799532 0.644897
vt 0.818971 0.593281
vt 0.984710 0.158490
vt 0.931424 0.044316
vt 0.984710 0.000962
vt 0.984345 0.799054
vt 0.950937 0.546303
vt 0.984345 0.528185
vt 0.496497 0.000962
vt 0.496497 0.176699
vt 0.276115 0.119674
vt 0.205886 0.764350
vt 0.205886 0.880574
vt 0.000962 0.863479
vt 0.664862 0.849619
vt 0.664862 0.993268
vt 0.634234 0.982995
vt 0.898749 0.804592
vt 0.898749 0.945844
vt 0.824790 0.942783
vt 0.268691 0.941674
vt 0.208115 0.811114
vt 0.268691 0.781752
vt 0.274007 0.779828
vt 0.208115 0.766045
vt 0.274007 0.510786
vt 0.275930 0.502293
vt 0.437498 0.460579
vt 0.437498 0.715529
vt 0.824790 0.272972
vt 0.897890 0.255987
vt 0.897890 0.526262
vt 0.877046 0.528185
vt 0.877046 0.802668
vt 0.824790 0.797876
vt 0.785548 0.077169
vt 0.929500 0.000962
vt 0.929500 0.171531
vt 0.820964 0.171434
vt 0.814968 0.847695
vt 0.544781 0.830215
vt 0.566084 0.759324
vt 0.814968 0.732527
vt 0.689487 0.330288
vt 0.822866 0.255987
vt 0.822866 0.508213
vt 0.706828 0.508395
vt 0.274191 0.029417
vt 0.274191 0.230586
vt 0.097119 0.254063
vt 0.000962 0.000962
vt 0.000962 0.686521
vt 0.003638 0.510804
vt 0.144890 0.510786
vt 0.144890 0.762426
vt 0.096369 0.255987
vt 0.274007 0.277615
vt 0.274007 0.500756
vt 0.000962 0.508862
vt 0.687563 0.255987
vt 0.687563 0.591358
vt 0.544781 0.524811
vt 0.579027 0.256115
vt 0.645421 0.179171
vt 0.657553 0.000962
vt 0.783624 0.001027
vt 0.783624 0.253109
vt 0.643498 0.000962
vt 0.643498 0.253192
vt 0.498421 0.185902
vt 0.517503 0.001622
vt 0.596745 0.730603
vt 0.544781 0.593281
vt 0.797608 0.593438
vt 0.797608 0.719509
vt 0.542857 0.458656
vt 0.275930 0.424987
vt 0.280818 0.309923
vt 0.542857 0.255987
vt 0.528911 0.850642
vt 0.275930 0.850859
vt 0.306429 0.717453
vt 0.528911 0.734603
vn -0.0948 -0.0037 -0.9955
vn -0.0958 -0.0017 -0.9954
vn -0.0972 0.0002 -0.9953
vn 0.9986 -0.0052 -0.0522
vn 0.9985 -0.0012 -0.0547
vn 0.9983 0.0022 -0.0582
vn -0.1209 0.0008 0.9927
vn -0.0010 0.9997 0.0224
vn -0.0031 0.9998 0.0194
vn 0.0002 0.9998 0.0217
vn -0.4915 0.7400 0.4592
vn 0.6149 0.7150 0.3326
vn -0.9235 0.3446 -0.1684
vn 0.2497 0.9619 0.1116
vn 0.3222 0.9464 -0.0248
vn -0.9988 0.0003 0.0490
vn -0.1757 -0.0810 0.9811
vn 0.0628 0.0052 0.9980
vn 0.0651 0.0389 0.9971
vn -0.0201 0.9997 -0.0143
vn -0.0122 0.9999 0.0112
vn -0.0086 0.9999 0.0107
vn -0.0098 0.9998 0.0144
vn 0.1124 -0.0017 -0.9937
vn -0.9988 -0.0002 -0.0487
vn 0.9988 -0.0012 0.0480
vn 0.0259 0.9995 -0.0158
vn 0.0092 0.9998 0.0190
vn 0.0060 0.9997 0.0218
vn 0.0017 0.9998 0.0205
vn 0.0259 0.9895 -0.1421
vn -0.1241 0.9919 -0.0256
vn -0.1413 0.0106 0.9899
vn -0.1410 0.0108 0.9900
vn -0.0360 0.9993 -0.0062
vn 0.9988 0.0010 -0.0495
vn 0.9988 0.0006 -0.0495
vn 0.9990 0.0018 -0.0448
vn -0.0452 0.9976 -0.0526
vn -0.9989 -0.0003 0.0476
vn 0.0635 0.9953 -0.0738
vn 0.0692 0.0092 0.9976
vn 0.0695 0.0085 0.9975
vn 0.0693 0.0090 0.9976
vn -0.9989 0.0004 -0.0469
vn -0.9989 0.0001 -0.0467
vn -0.9989 0.0006 -0.0472
vn 0.9989 -0.0004 0.0472
vn -0.0924 -0.0004 -0.9957
vn -0.0926 -0.0007 -0.9957
vn -0.0905 0.0003 -0.9959
vn -0.0902 -0.0001 -0.9959
vn 0.0107 0.9997 0.0234
vn 0.0077 0.9998 0.0204
vn 0.0098 0.9998 0.0190
vn 0.0885 0.0012 -0.9961
vn 0.0889 0.0020 -0.9960
g Tile_4_Tile_4_Collor_Material
usemtl Collor_Material
s off
f 28/1/1 6/2/2 5/3/3
f 23/4/4 11/5/5 10/6/6
f 15/7/7 14/8/7 1/9/7
f 15/10/8 18/11/9 17/12/10
f 13/13/11 14/14/11 15/15/11
f 17/16/12 18/17/12 19/18/12
f 17/19/13 19/20/13 16/21/13
f 20/22/14 21/23/14 22/24/14
f 25/25/15 6/26/15 12/27/15
f 1/28/16 14/29/16 13/30/16
f 19/31/17 18/32/17 15/33/17
f 3/34/18 21/35/18 20/36/18
f 20/37/19 16/38/19 19/39/19
f 9/40/20 13/41/20 17/42/20
f 13/43/21 15/44/22 17/45/23
f 5/46/24 6/47/24 25/48/24
f 8/49/25 9/50/25 27/51/25
f 10/52/26 11/53/26 22/54/26
f 22/55/27 11/56/27 12/57/27
f 17/58/28 16/59/29 20/60/30
f 11/61/31 23/62/31 12/63/31
f 12/64/32 6/65/32 28/66/32
f 15/67/33 1/68/34 7/69/34 19/70/34
f 12/71/35 27/72/35 9/73/35 17/74/35
f 23/75/36 10/76/37 4/77/38 24/78/38
f 28/79/39 26/80/39 27/81/39 12/82/39
f 13/83/40 9/84/40 8/85/40 1/86/40
f 23/87/41 24/88/41 25/89/41 12/90/41
f 7/91/42 3/92/43 20/93/44 19/94/44
f 27/95/45 26/96/46 2/97/46 8/98/47
f 3/99/48 10/100/48 22/101/48 21/102/48
f 28/103/49 5/104/50 2/105/51 26/106/52
f 22/107/53 12/108/53 17/109/54 20/110/55
f 4/111/56 5/112/56 25/113/57 24/114/56
