# Blender v3.0.0 OBJ File: 'aa.blend'
# www.blender.org
mtllib Tile_5.mtl
o Tile_5
v -0.159998 0.000000 0.155449
v -0.160207 -0.000000 -0.165189
v 0.159211 0.000000 0.154185
v 0.160357 -0.000000 -0.165074
v 0.000146 -0.000000 -0.180400
v 0.000151 0.093317 -0.173438
v 0.000276 0.000000 0.171567
v 0.000087 0.093195 0.164106
v -0.168202 -0.000000 -0.004851
v -0.161766 0.093315 -0.004857
v 0.169969 -0.000000 -0.004761
v 0.161835 0.093136 -0.004866
v -0.027565 0.094551 -0.022080
v 0.157708 0.092847 -0.089704
v 0.155001 0.074244 -0.159711
v 0.085193 0.092845 -0.165482
v 0.156411 0.035169 0.151431
v 0.157530 0.092745 0.052717
v 0.057922 0.092721 0.156638
v -0.154527 0.084205 -0.159479
v -0.155739 0.092545 -0.126764
v -0.155466 0.092743 0.118608
v -0.154953 0.067762 0.150232
v -0.123367 0.092710 0.151752
vt 0.417289 0.623244
vt 0.343749 0.577364
vt 0.417289 0.459455
vt 0.908181 0.178444
vt 0.844392 0.091641
vt 0.908181 0.000891
vt 0.992457 0.247678
vt 0.992457 0.542703
vt 0.926894 0.267794
vt 0.910882 0.885264
vt 0.836517 0.807304
vt 0.910882 0.729371
vt 0.841578 0.544418
vt 0.734906 0.475580
vt 0.841578 0.273261
vt 0.914989 0.557724
vt 0.914989 0.727589
vt 0.748907 0.592702
vt 0.201102 0.000891
vt 0.201102 0.295363
vt 0.000891 0.219911
vt 0.399958 0.625026
vt 0.399958 0.684930
vt 0.343749 0.664318
vt 0.449398 0.607721
vt 0.419071 0.556102
vt 0.449398 0.459455
vt 0.973602 0.178682
vt 0.909963 0.087828
vt 0.973602 0.000891
vt 0.638235 0.946555
vt 0.608098 0.849849
vt 0.638235 0.798078
vt 0.834735 0.729371
vt 0.834735 0.868330
vt 0.748907 0.868210
vt 0.606316 0.557662
vt 0.606316 0.796370
vt 0.467905 0.684781
vt 0.467360 0.558535
vt 0.188799 0.811953
vt 0.141075 0.585697
vt 0.188799 0.570084
vt 0.197296 0.446231
vt 0.157018 0.416248
vt 0.197296 0.297145
vt 0.474161 0.457673
vt 0.202884 0.389231
vt 0.474161 0.273261
vt 0.606316 0.555881
vt 0.475943 0.402751
vt 0.606316 0.273261
vt 0.733124 0.555942
vt 0.608098 0.538423
vt 0.733124 0.273261
vt 0.000891 0.319063
vt 0.155236 0.297145
vt 0.155236 0.568302
vt 0.925112 0.544418
vt 0.843360 0.518280
vt 0.925112 0.247678
vt 0.999109 0.852196
vt 0.916771 0.584809
vt 0.999109 0.557724
vt 0.139293 0.570084
vt 0.139293 0.807724
vt 0.086825 0.804033
vt 0.000891 0.657670
vt 0.420794 0.202002
vt 0.202884 0.271479
vt 0.242208 0.032828
vt 0.420794 0.000891
vt 0.441496 0.700453
vt 0.441496 0.839480
vt 0.260077 0.838968
vt 0.202884 0.701288
vt 0.790150 0.004692
vt 0.842610 0.000891
vt 0.842610 0.237679
vt 0.704178 0.151194
vt 0.341967 0.698671
vt 0.202884 0.697678
vt 0.203604 0.570724
vt 0.341967 0.459455
vt 0.564167 0.054514
vt 0.702396 0.000891
vt 0.702396 0.240312
vt 0.563441 0.238924
vt 0.608949 0.741953
vt 0.608098 0.558203
vt 0.747125 0.557724
vt 0.747125 0.796296
vt 0.561659 0.000891
vt 0.561659 0.240299
vt 0.436160 0.232696
vt 0.422576 0.001860
vn 0.1283 0.0794 0.9886
vn 0.1057 0.0851 -0.9907
vn 0.1030 0.0791 -0.9915
vn 0.1080 0.0811 -0.9908
vn -0.0063 1.0000 0.0071
vn -0.0021 0.9999 0.0152
vn -0.0068 1.0000 0.0046
vn 0.2686 0.9283 -0.2571
vn 0.0052 1.0000 -0.0082
vn 0.0062 1.0000 -0.0070
vn 0.0085 0.9999 -0.0125
vn 0.4684 0.7609 0.4491
vn 0.0114 0.9999 0.0108
vn 0.0070 1.0000 0.0069
vn -0.5426 0.6549 0.5261
vn -0.1146 0.0847 0.9898
vn 0.9954 0.0760 -0.0587
vn -0.9936 0.0801 0.0794
vn 0.9931 0.0870 0.0790
vn 0.9934 0.0868 0.0749
vn 0.9938 0.0838 0.0725
vn 0.9953 0.0768 -0.0597
vn 0.9953 0.0769 -0.0596
vn 0.9950 0.0869 -0.0487
vn 0.9950 0.0868 -0.0487
vn -0.0793 0.9653 -0.2490
vn -0.9955 0.0743 -0.0582
vn -0.9960 0.0709 -0.0550
vn -0.9956 0.0715 -0.0599
vn -0.0115 0.9999 0.0098
vn -0.0056 0.9999 0.0138
vn -0.0047 1.0000 0.0080
vn -0.0070 0.9999 0.0141
vn -0.0017 1.0000 0.0045
vn -0.0109 0.9999 0.0041
vn 0.0087 0.9999 -0.0093
vn 0.0078 1.0000 -0.0038
vn 0.0136 0.9999 -0.0047
vn 0.0068 1.0000 -0.0065
vn 0.0052 1.0000 -0.0062
vn 0.0115 0.9999 -0.0102
vn 0.0068 1.0000 0.0073
vn 0.0015 1.0000 0.0057
vn 0.0126 0.9999 0.0086
vn 0.0108 0.9999 0.0116
vn 0.0056 1.0000 -0.0003
vn 0.0090 0.9999 0.0060
vn 0.1072 0.0909 0.9901
vn -0.0149 0.9999 -0.0016
vn -0.0088 0.9999 -0.0084
vn -0.0082 0.9999 -0.0152
vn -0.9964 0.0687 -0.0497
vn -0.9963 0.0672 -0.0541
vn -0.9960 0.0717 -0.0536
vn 0.9937 0.0902 0.0660
vn 0.9939 0.0869 0.0686
vn 0.9938 0.0877 0.0690
vn 0.0933 0.0740 -0.9929
vn 0.0934 0.0740 -0.9929
vn 0.1010 0.0738 -0.9921
vn 0.0969 0.0778 -0.9923
vn -0.0997 0.0791 0.9919
vn -0.9963 0.0688 0.0511
vn -0.0941 0.0739 -0.9928
vn -0.0942 0.0736 -0.9928
g Tile_5_Tile_5_Collor_Material
usemtl Collor_Material
s off
f 19/1/1 8/2/1 7/3/1
f 16/4/2 15/5/3 4/6/4
f 24/7/5 13/8/6 22/9/7
f 14/10/8 15/11/8 16/12/8
f 16/13/9 6/14/10 13/15/11
f 17/16/12 18/17/12 19/18/12
f 13/19/13 19/20/14 18/21/14
f 22/22/15 23/23/15 24/24/15
f 24/25/16 23/26/16 1/27/16
f 4/28/17 15/29/17 14/30/17
f 1/31/18 23/32/18 22/33/18
f 11/34/19 12/35/20 18/36/21
f 11/37/22 4/38/23 14/39/24 12/40/25
f 6/41/26 20/42/26 21/43/26
f 21/44/27 20/45/28 2/46/29
f 8/47/30 13/48/31 24/49/32
f 13/50/33 10/51/34 22/52/35
f 12/53/36 14/54/37 13/55/38
f 14/56/39 16/57/40 13/58/41
f 18/59/42 12/60/43 13/61/44
f 13/62/45 8/63/46 19/64/47
f 7/65/48 3/66/48 17/67/48 19/68/48
f 13/69/49 6/70/50 21/71/50 10/72/51
f 9/73/52 10/74/52 21/75/53 2/76/54
f 17/77/55 3/78/55 11/79/56 18/80/57
f 5/81/58 6/82/59 16/83/60 4/84/61
f 24/85/62 1/86/62 7/87/62 8/88/62
f 22/89/63 10/90/63 9/91/63 1/92/63
f 5/93/64 2/94/65 20/95/64 6/96/64
