# Blender v3.0.0 OBJ File: 'aa.blend'
# www.blender.org
mtllib Tile_6.mtl
o Tile_6
v 0.147592 -0.000009 -0.163603
v 0.165741 0.000021 0.158884
v -0.173475 -0.000173 -0.144896
v -0.156780 0.000022 0.176633
v 0.005303 0.000021 0.182607
v 0.004880 0.089051 0.174933
v -0.062434 0.000039 -0.167013
v 0.165259 0.000042 0.054483
v -0.173411 0.000036 0.015799
v -0.166367 0.088488 0.015398
v -0.004397 0.089508 0.006497
v 0.149225 0.088860 -0.072777
v 0.142272 0.066584 -0.157177
v 0.057574 0.088996 -0.158167
v -0.169757 0.029380 -0.141270
v -0.165919 0.086948 -0.094997
v -0.122240 0.086647 -0.146166
v -0.060144 0.087743 -0.126753
v -0.048961 0.089078 -0.157725
v -0.062197 0.063310 -0.161548
v -0.093748 0.087658 -0.153374
v -0.154601 0.089007 0.125665
v -0.152713 0.056650 0.172104
v -0.106376 0.089009 0.170834
v 0.159136 0.079953 0.152967
v 0.158083 0.089009 0.118606
v 0.125051 0.088946 0.157166
v 0.157656 0.089009 0.060073
v 0.162842 0.032663 0.049963
v 0.156297 0.089016 0.020948
v 0.116607 0.089120 0.031905
vt 0.974820 0.833081
vt 0.932874 0.673386
vt 0.974820 0.644245
vt 0.910298 0.197452
vt 0.842385 0.079861
vt 0.910298 0.001079
vt 0.998921 0.501095
vt 0.961067 0.422079
vt 0.998921 0.342339
vt 0.633793 0.965886
vt 0.579714 0.883255
vt 0.633793 0.849380
vt 0.095981 0.712386
vt 0.001079 0.615372
vt 0.095981 0.518246
vt 0.721847 0.227113
vt 0.721847 0.278189
vt 0.676662 0.275180
vt 0.545878 0.278195
vt 0.648491 0.227113
vt 0.648491 0.331382
vt 0.098139 0.549276
vt 0.156356 0.518246
vt 0.156356 0.581298
vt 0.403328 0.777640
vt 0.403328 0.948805
vt 0.346828 0.865274
vt 0.795024 0.258372
vt 0.878233 0.230448
vt 0.878233 0.318062
vt 0.405739 0.358164
vt 0.577555 0.342339
vt 0.577555 0.603781
vt 0.158514 0.557646
vt 0.197028 0.518246
vt 0.197028 0.596936
vt 0.543720 0.001079
vt 0.543720 0.340181
vt 0.405739 0.199640
vt 0.827775 0.798253
vt 0.827775 0.914759
vt 0.768793 0.865015
vt 0.674503 0.998335
vt 0.635952 0.916216
vt 0.674503 0.849380
vt 0.955287 0.324753
vt 0.912456 0.207703
vt 0.955287 0.173170
vt 0.995256 0.332137
vt 0.957445 0.252376
vt 0.995256 0.173170
vt 0.732982 0.001079
vt 0.732982 0.224955
vt 0.545878 0.026601
vt 0.966132 0.171011
vt 0.912456 0.136500
vt 0.966132 0.001079
vt 0.352517 0.275914
vt 0.352517 0.601458
vt 0.214194 0.415301
vt 0.901654 0.574261
vt 0.822938 0.515174
vt 0.901654 0.342339
vt 0.865057 0.988169
vt 0.829933 0.959585
vt 0.865057 0.798253
vt 0.400832 0.275914
vt 0.400832 0.524963
vt 0.354675 0.281596
vt 0.766635 0.798253
vt 0.766635 0.973728
vt 0.720362 0.969088
vt 0.208231 0.357290
vt 0.190714 0.315216
vt 0.208231 0.254646
vt 0.792866 0.318062
vt 0.735141 0.250211
vt 0.792866 0.180229
vt 0.975616 0.987089
vt 0.932874 0.952322
vt 0.975616 0.835240
vt 0.674504 0.327958
vt 0.650649 0.265947
vt 0.674504 0.227113
vt 0.352517 0.603616
vt 0.352517 0.775482
vt 0.101441 0.616541
vt 0.720362 0.362412
vt 0.820779 0.342339
vt 0.820779 0.642086
vt 0.068522 0.911497
vt 0.001079 0.832312
vt 0.068522 0.714544
vt 0.930715 0.854521
vt 0.869981 0.722116
vt 0.930715 0.644245
vt 0.354675 0.562002
vt 0.392124 0.527121
vt 0.392124 0.768917
vt 0.958909 0.536912
vt 0.903812 0.480729
vt 0.958909 0.342339
vt 0.544120 0.605939
vt 0.544120 0.856533
vt 0.405739 0.778294
vt 0.406601 0.606431
vt 0.734815 0.680397
vt 0.867822 0.644245
vt 0.867822 0.796094
vt 0.720362 0.729491
vt 0.224025 0.074906
vt 0.403580 0.001079
vt 0.403580 0.273755
vt 0.214194 0.244553
vt 0.840226 0.001079
vt 0.840226 0.178071
vt 0.735141 0.129955
vt 0.745508 0.027836
vt 0.173566 0.913609
vt 0.101441 0.824521
vt 0.344670 0.777640
vt 0.344670 0.915160
vt 0.579780 0.420072
vt 0.718204 0.342339
vt 0.718204 0.593709
vt 0.579714 0.592616
vt 0.718204 0.595867
vt 0.718204 0.847222
vt 0.579877 0.785228
vt 0.579714 0.596959
vt 0.001079 0.177535
vt 0.041221 0.011144
vt 0.212035 0.001079
vt 0.212035 0.252487
vt 0.003470 0.304278
vt 0.188556 0.254646
vt 0.188556 0.516088
vt 0.001079 0.498836
vn 0.0009 0.9991 0.0434
vn 0.0378 0.0990 -0.9944
vn -0.0298 0.0818 0.9962
vn 0.2365 0.4663 0.8524
vn 0.2495 0.9310 -0.2663
vn -0.8359 0.4711 -0.2815
vn -0.6582 0.4978 -0.5648
vn 0.4237 0.7294 -0.5372
vn -0.0155 0.9998 -0.0161
vn -0.0100 0.9998 -0.0199
vn -0.0125 0.9998 -0.0165
vn -0.4816 0.7098 0.5141
vn -0.0005 1.0000 0.0027
vn -0.0025 1.0000 0.0086
vn 0.2750 0.9317 0.2371
vn 0.9948 0.0595 -0.0826
vn 0.9947 0.0641 -0.0806
vn 0.9949 0.0673 -0.0753
vn 0.5552 0.1961 -0.8083
vn 0.0044 1.0000 0.0002
vn 0.0027 1.0000 -0.0000
vn 0.0039 1.0000 0.0013
vn 0.1438 0.0849 0.9860
vn -0.9923 0.0789 0.0953
vn -0.0167 0.9998 -0.0065
vn -0.0123 0.9998 -0.0141
vn -0.0128 0.9999 -0.0079
vn 0.0033 1.0000 -0.0031
vn 0.0021 1.0000 -0.0018
vn 0.0021 1.0000 -0.0015
vn 0.0162 0.0773 -0.9969
vn 0.0097 0.0860 -0.9962
vn -0.0040 0.1488 -0.9889
vn -0.9922 0.1248 0.0002
vn -0.1936 0.1434 -0.9705
vn -0.2455 0.0073 -0.9694
vn 0.9955 0.0939 -0.0095
vn 0.9956 0.0929 -0.0073
vn 0.9954 0.0950 -0.0078
vn 0.9967 0.0803 -0.0106
vn 0.9966 0.0817 -0.0090
vn 0.9965 0.0824 -0.0099
vn -0.0275 0.9991 0.0315
vn -0.0027 1.0000 -0.0055
vn -0.0094 0.9999 -0.0064
vn -0.0125 0.9999 -0.0023
vn -0.0011 1.0000 -0.0018
vn -0.0018 1.0000 0.0019
vn -0.0061 1.0000 0.0063
vn 0.9904 0.0893 -0.1052
vn 0.9938 0.0829 -0.0747
vn 0.9942 0.0768 -0.0751
vn 0.9947 0.0624 -0.0818
vn 0.9945 0.0599 -0.0862
vn 0.9945 0.0679 -0.0792
vn -0.0002 1.0000 -0.0001
vn 0.0010 1.0000 0.0002
vn 0.0002 1.0000 0.0031
vn -0.9913 0.0815 0.1037
vn -0.9913 0.0821 0.1033
vn 0.9964 0.0843 -0.0023
vn 0.9966 0.0829 -0.0039
vn 0.9967 0.0813 -0.0032
vn 0.9966 0.0818 -0.0020
vn 0.0029 1.0000 -0.0018
vn 0.0032 1.0000 -0.0020
vn 0.0092 1.0000 -0.0036
vn 0.0023 1.0000 -0.0031
vn -0.2116 0.0881 -0.9734
vn -0.2114 0.0883 -0.9734
vn -0.9971 0.0762 -0.0076
vn -0.9970 0.0766 -0.0073
vn -0.9970 0.0770 -0.0070
vn -0.0364 0.0855 0.9957
vn -0.0367 0.0857 0.9956
vn 0.1458 0.0857 0.9856
vn -0.0099 0.9998 -0.0156
vn -0.0102 0.9998 -0.0141
vn -0.0099 0.9998 -0.0155
vn -0.0132 0.9998 -0.0157
vn 0.0008 1.0000 0.0033
vn 0.0052 1.0000 0.0073
vn 0.0020 1.0000 0.0020
vn 0.0006 1.0000 0.0019
g Tile_6_Tile_6_Collor_Material
usemtl Collor_Material
s off
f 14/1/1 19/2/1 18/3/1
f 14/4/2 13/5/2 1/6/2
f 24/7/3 23/8/3 4/9/3
f 29/10/4 30/11/4 31/12/4
f 12/13/5 13/14/5 14/15/5
f 18/16/6 19/17/6 20/18/6
f 15/19/7 16/20/7 17/21/7
f 18/22/8 20/23/8 21/24/8
f 16/25/9 18/26/10 17/27/11
f 22/28/12 23/29/12 24/30/12
f 24/31/13 6/32/13 11/33/14
f 25/34/15 26/35/15 27/36/15
f 8/37/16 1/38/17 12/39/18
f 29/40/19 31/41/19 28/42/19
f 26/43/20 28/44/21 31/45/22
f 2/46/23 25/47/23 27/48/23
f 4/49/24 23/50/24 22/51/24
f 18/52/25 11/53/26 14/54/27
f 31/55/28 30/56/29 12/57/30
f 1/58/31 7/59/31 14/60/31
f 7/61/32 20/62/32 14/63/32
f 20/64/33 19/65/33 14/66/33
f 3/67/34 9/68/34 15/69/34
f 7/70/35 3/71/35 15/72/35
f 17/73/36 21/74/36 20/75/36
f 29/76/37 28/77/38 26/78/39
f 26/79/40 25/80/41 2/81/42
f 18/82/43 21/83/43 17/84/43
f 10/85/44 22/86/45 11/87/46
f 22/88/47 24/89/48 11/90/49
f 1/91/50 13/92/50 12/93/50
f 12/94/51 30/95/52 29/96/52
f 29/97/53 8/98/54 12/99/55
f 27/100/56 26/101/57 31/102/58
f 9/103/59 4/104/59 22/105/60 10/106/59
f 29/107/61 26/108/62 2/109/63 8/110/64
f 12/111/65 14/112/66 11/113/67 31/114/68
f 7/115/69 15/116/70 17/117/70 20/118/70
f 16/119/71 15/120/72 9/121/73 10/122/72
f 24/123/74 4/124/75 5/125/75 6/126/75
f 5/127/76 2/128/76 27/129/76 6/130/76
f 18/131/77 16/132/78 10/133/79 11/134/80
f 31/135/81 11/136/82 6/137/83 27/138/84
