# Blender v3.0.0 OBJ File: 'aa.blend'
# www.blender.org
mtllib Tile_2.mtl
o Tile_2
v 0.146121 -0.000182 0.177792
v -0.182780 -0.000182 0.177218
v -0.173931 0.091224 0.168433
v 0.143773 -0.000182 -0.147045
v -0.182515 -0.000182 -0.150601
v -0.174116 0.090944 -0.139300
v -0.196283 -0.000182 -0.046101
v 0.151415 -0.000182 -0.041709
v 0.014709 -0.000182 0.181773
v 0.014283 0.091251 0.172872
v -0.080833 -0.000182 -0.161820
v -0.034305 0.091216 -0.153116
v -0.019639 0.090454 0.013931
v 0.091896 0.090714 0.170609
v 0.148268 0.067907 0.172129
v 0.141119 0.090628 0.125610
v 0.137154 0.066305 -0.142234
v 0.085762 0.091216 -0.144342
v 0.138205 0.090170 -0.091440
v -0.185156 0.090940 -0.064127
v -0.190508 0.054624 -0.046189
v -0.185992 0.091032 -0.034633
v -0.160502 0.090516 -0.046142
v 0.117422 0.089205 0.022654
v 0.143266 0.088535 0.050718
v 0.149375 0.030333 -0.022873
v 0.143608 0.088545 -0.002121
vt 0.184456 0.886552
vt 0.184456 0.948825
vt 0.139195 0.947282
vt 0.498017 0.905125
vt 0.450325 0.835235
vt 0.498017 0.735367
vt 0.305521 0.526244
vt 0.256590 0.447716
vt 0.305521 0.350929
vt 0.973253 0.274343
vt 0.973253 0.442681
vt 0.922714 0.303106
vt 0.310715 0.868486
vt 0.404282 0.837758
vt 0.404282 0.922369
vt 0.596223 0.845725
vt 0.648961 0.813553
vt 0.648961 0.965777
vt 0.593539 0.904428
vt 0.501862 0.891926
vt 0.593539 0.813553
vt 0.999049 0.172009
vt 0.968412 0.054594
vt 0.999049 0.000951
vt 0.896058 0.948751
vt 0.847326 0.890769
vt 0.896058 0.882604
vt 0.991796 0.819416
vt 0.991796 0.950541
vt 0.949331 0.859466
vt 0.920812 0.622419
vt 0.880781 0.601242
vt 0.920812 0.274343
vt 0.966510 0.172702
vt 0.906980 0.079405
vt 0.966510 0.000951
vt 0.947429 0.629751
vt 0.947429 0.985225
vt 0.897959 0.954658
vt 0.112325 0.903841
vt 0.000951 0.800073
vt 0.112325 0.575189
vt 0.896058 0.880703
vt 0.823679 0.783305
vt 0.896058 0.629751
vt 0.966941 0.608553
vt 0.922714 0.559365
vt 0.966941 0.444583
vt 0.000951 0.502150
vt 0.012584 0.376978
vt 0.254273 0.350929
vt 0.254273 0.573288
vt 0.310715 0.780434
vt 0.448424 0.735367
vt 0.448424 0.835856
vt 0.905078 0.244040
vt 0.838930 0.158702
vt 0.905078 0.000951
vt 0.441472 0.990182
vt 0.406183 0.872344
vt 0.441472 0.837758
vt 0.821778 0.582209
vt 0.652110 0.486286
vt 0.821778 0.274343
vt 0.983882 0.817515
vt 0.949331 0.770467
vt 0.983882 0.629751
vt 0.837028 0.001204
vt 0.837028 0.214057
vt 0.689177 0.126659
vt 0.688299 0.000951
vt 0.650208 0.638764
vt 0.501953 0.562678
vt 0.501862 0.367772
vt 0.650208 0.274343
vt 0.381809 0.298575
vt 0.499960 0.274343
vt 0.499960 0.582209
vt 0.307422 0.470976
vt 0.686397 0.074294
vt 0.686397 0.239914
vt 0.537559 0.228406
vt 0.536767 0.000951
vt 0.648961 0.811652
vt 0.540733 0.804659
vt 0.501862 0.722517
vt 0.648961 0.640666
vt 0.316189 0.117781
vt 0.534865 0.000951
vt 0.534865 0.272441
vt 0.307422 0.269953
vt 0.305521 0.349027
vt 0.000951 0.337167
vt 0.071836 0.083774
vt 0.305521 0.000951
vt 0.150328 0.777420
vt 0.308813 0.735367
vt 0.308813 0.884650
vt 0.139195 0.865944
vt 0.499960 0.733466
vt 0.147580 0.705271
vt 0.139195 0.616444
vt 0.499960 0.584111
vt 0.878880 0.627849
vt 0.823679 0.303167
vt 0.878880 0.274343
vt 0.800836 0.903929
vt 0.652110 0.902906
vt 0.652138 0.598105
vt 0.800836 0.584111
vn -0.3841 0.3223 -0.8652
vn 0.9838 -0.0454 -0.1734
vn 0.0794 0.0798 -0.9936
vn 0.9921 0.1064 -0.0662
vn 0.9918 0.1100 -0.0655
vn 0.9919 0.1079 -0.0674
vn 0.3398 0.8646 0.3701
vn 0.5494 0.6770 -0.4898
vn 0.4139 0.8206 -0.3941
vn 0.0545 0.9982 -0.0263
vn -0.5249 0.4379 0.7299
vn 0.6724 -0.1885 0.7157
vn 0.0193 0.9998 -0.0021
vn 0.0066 0.0827 0.9966
vn 0.9985 0.0499 0.0236
vn 0.9984 0.0519 0.0241
vn 0.9971 0.0706 0.0269
vn 0.9970 0.0717 0.0287
vn 0.9973 0.0688 0.0260
vn 0.9970 0.0724 0.0268
vn 0.9972 0.0702 0.0266
vn 0.9973 0.0689 0.0250
vn -0.9867 0.0738 -0.1449
vn 0.0050 0.9999 -0.0102
vn 0.0085 0.9999 -0.0077
vn 0.0111 0.9999 -0.0113
vn 0.9912 0.1188 -0.0578
vn -0.0090 0.9999 -0.0118
vn 0.0155 0.9999 0.0023
vn -0.0044 1.0000 0.0008
vn -0.0003 1.0000 0.0046
vn -0.0005 1.0000 -0.0008
vn 0.0401 0.9991 0.0158
vn 0.0300 0.0967 0.9949
vn 0.0297 0.0970 0.9948
vn 0.0680 0.0664 -0.9955
vn 0.0087 0.9999 0.0104
vn 0.0035 0.9999 0.0122
vn 0.0121 0.9999 0.0062
vn -0.1019 0.1391 -0.9850
vn -0.1023 0.1387 -0.9850
vn 0.9919 0.1050 -0.0713
vn 0.9921 0.1054 -0.0685
vn 0.9920 0.1053 -0.0694
vn -0.0015 1.0000 0.0047
vn -0.0063 1.0000 0.0022
vn 0.0009 1.0000 -0.0041
vn -0.0021 1.0000 -0.0010
vn 0.0047 1.0000 -0.0019
vn -0.9858 0.1052 -0.1307
vn -0.9857 0.1058 -0.1310
vn -0.9930 0.1020 0.0594
vn -0.9929 0.1027 0.0607
vn -0.9927 0.1046 0.0600
vn -0.9930 0.1019 0.0594
vn -0.9929 0.1043 0.0579
vn -0.9929 0.1027 0.0592
vn -0.9927 0.1054 0.0595
vn -0.0234 0.0969 0.9950
vn -0.0234 0.0970 0.9950
vn -0.0230 0.0977 0.9949
vn -0.0231 0.0976 0.9950
g Tile_2_Tile_2_Collor_Material
usemtl Collor_Material
s off
f 21/1/1 22/2/1 23/3/1
f 16/4/2 15/5/2 1/6/2
f 18/7/3 17/8/3 4/9/3
f 8/10/4 19/11/5 26/12/6
f 14/13/7 15/14/7 16/15/7
f 24/16/8 25/17/8 26/18/8
f 17/19/9 18/20/9 19/21/9
f 16/22/10 25/23/10 24/24/10
f 21/25/11 23/26/11 20/27/11
f 24/28/12 26/29/12 27/30/12
f 23/31/13 22/32/13 3/33/13
f 1/34/14 15/35/14 14/36/14
f 1/37/15 8/38/16 26/39/16
f 26/40/17 25/41/18 1/42/19
f 25/43/20 16/44/21 1/45/22
f 21/46/23 20/47/23 6/48/23
f 10/49/24 14/50/25 24/51/25 13/52/26
f 19/53/27 27/54/27 26/55/27
f 14/56/28 16/57/28 24/58/28
f 6/59/29 20/60/29 23/61/29
f 18/62/30 12/63/31 13/64/32
f 24/65/33 27/66/33 19/67/33
f 9/68/34 1/69/34 14/70/34 10/71/35
f 11/72/36 12/73/36 18/74/36 4/75/36
f 19/76/37 18/77/38 13/78/39 24/79/37
f 11/80/40 5/81/41 6/82/41 12/83/41
f 4/84/42 17/85/42 19/86/43 8/87/44
f 23/88/45 13/89/46 12/90/45 6/91/45
f 3/92/47 10/93/48 13/94/49 23/95/47
f 21/96/50 6/97/51 5/98/51 7/99/51
f 3/100/52 21/101/53 7/102/54 2/103/55
f 3/104/56 22/105/57 21/106/58
f 9/107/59 10/108/60 3/109/61 2/110/62
