# Blender v3.0.0 OBJ File: 'aa.blend'
# www.blender.org
mtllib Tile_3.mtl
o Tile_3
v -0.156359 -0.000182 0.155245
v -0.156677 -0.000182 -0.167746
v 0.165250 -0.000182 0.154210
v 0.166203 -0.000182 -0.167748
v 0.004740 -0.000182 -0.182622
v 0.004740 0.089067 -0.174936
v 0.053183 -0.000182 0.170326
v -0.162180 -0.000182 -0.063491
v 0.174018 -0.000182 -0.006246
v 0.166964 0.088445 -0.006229
v 0.004747 0.089531 -0.006245
v -0.152999 0.088847 0.064466
v -0.150694 0.066584 0.149121
v -0.066179 0.089009 0.154764
v 0.161778 0.029378 0.150321
v 0.160396 0.087010 0.103968
v 0.114044 0.086659 0.152797
v 0.053087 0.087613 0.129865
v 0.040220 0.089078 0.160177
v 0.053204 0.063299 0.164587
v 0.085178 0.087658 0.158294
v 0.161367 0.089015 -0.116984
v 0.161940 0.056650 -0.163452
v 0.115603 0.089009 -0.164730
v -0.150489 0.079953 -0.161481
v -0.151492 0.089022 -0.127123
v -0.116226 0.088922 -0.163801
v -0.154117 0.089009 -0.068646
v -0.159685 0.032650 -0.058827
v -0.154910 0.089016 -0.029506
v -0.114678 0.089151 -0.038265
vt 0.957441 0.190511
vt 0.915355 0.030320
vt 0.957441 0.001083
vt 0.910589 0.540619
vt 0.842356 0.422718
vt 0.910589 0.343430
vt 0.997688 0.160574
vt 0.959608 0.081363
vt 0.997688 0.001083
vt 0.959317 0.319764
vt 0.905025 0.236912
vt 0.959317 0.203001
vt 0.096281 0.714616
vt 0.001083 0.617307
vt 0.096281 0.519871
vt 0.415005 0.915778
vt 0.379802 0.878538
vt 0.415005 0.849877
vt 0.102070 0.831376
vt 0.205019 0.780125
vt 0.205019 0.884795
vt 0.656134 0.848283
vt 0.656134 0.914184
vt 0.600234 0.884583
vt 0.264084 0.780125
vt 0.264084 0.951746
vt 0.207186 0.867980
vt 0.925586 0.832686
vt 0.925586 0.920728
vt 0.842227 0.892878
vt 0.557334 0.644113
vt 0.407007 0.558327
vt 0.557334 0.343430
vt 0.658301 0.887895
vt 0.696840 0.848283
vt 0.696840 0.927387
vt 0.545707 0.001083
vt 0.545707 0.341264
vt 0.407007 0.200323
vt 0.099813 0.595060
vt 0.189145 0.519871
vt 0.189145 0.597269
vt 0.598068 0.997813
vt 0.559501 0.915387
vt 0.598068 0.848283
vt 0.365291 0.932381
vt 0.322260 0.814668
vt 0.365291 0.780125
vt 0.998917 0.757342
vt 0.960912 0.677026
vt 0.998917 0.597609
vt 0.735563 0.001083
vt 0.735563 0.225657
vt 0.547873 0.026685
vt 0.320093 0.950587
vt 0.266250 0.915968
vt 0.320093 0.780125
vt 0.353944 0.276776
vt 0.353944 0.603385
vt 0.214862 0.416561
vt 0.921350 0.830519
vt 0.842227 0.770864
vt 0.921350 0.597609
vt 0.958746 0.788077
vt 0.923517 0.759446
vt 0.958746 0.597609
vt 0.402421 0.276776
vt 0.402421 0.526603
vt 0.356111 0.282519
vt 0.379802 0.817953
vt 0.555007 0.801045
vt 0.555007 0.847710
vt 0.208879 0.358411
vt 0.191311 0.316212
vt 0.208879 0.255447
vt 0.902858 0.341264
vt 0.844953 0.273204
vt 0.902858 0.203001
vt 0.970656 0.985284
vt 0.927752 0.950445
vt 0.970656 0.832686
vt 0.024903 0.818046
vt 0.001083 0.755796
vt 0.024903 0.716783
vt 0.353944 0.605551
vt 0.353944 0.777958
vt 0.102070 0.618313
vt 0.842787 0.238444
vt 0.842787 0.341264
vt 0.547873 0.282640
vt 0.913188 0.198825
vt 0.845415 0.119144
vt 0.913188 0.001083
vt 0.096281 0.927691
vt 0.035344 0.794878
vt 0.096281 0.716783
vt 0.356111 0.564040
vt 0.393911 0.528769
vt 0.393911 0.771533
vt 0.968281 0.538612
vt 0.912756 0.482269
vt 0.968281 0.343430
vt 0.840060 0.597609
vt 0.840060 0.848984
vt 0.700928 0.770518
vt 0.701841 0.598113
vt 0.843248 0.001083
vt 0.843248 0.178798
vt 0.737729 0.130653
vt 0.747937 0.028196
vt 0.224725 0.075139
vt 0.404840 0.001083
vt 0.404840 0.274610
vt 0.214862 0.245316
vt 0.593580 0.651544
vt 0.695186 0.597678
vt 0.695186 0.846116
vt 0.559501 0.819765
vt 0.421616 0.682657
vt 0.555007 0.646280
vt 0.555007 0.798878
vt 0.407007 0.732251
vt 0.559592 0.421333
vt 0.698762 0.343430
vt 0.698762 0.595512
vt 0.559501 0.594416
vt 0.840190 0.343430
vt 0.840190 0.595442
vt 0.701156 0.533383
vt 0.700928 0.344527
vt 0.001083 0.178090
vt 0.041359 0.011262
vt 0.212695 0.001083
vt 0.212695 0.253280
vt 0.003481 0.305235
vt 0.189145 0.255447
vt 0.189145 0.517704
vt 0.001083 0.500402
vn 0.0018 0.9989 -0.0475
vn -0.0924 0.0987 0.9908
vn 0.0842 0.0814 -0.9931
vn -0.1897 0.4657 -0.8644
vn -0.2639 0.9310 0.2520
vn 0.8208 0.4691 0.3258
vn 0.6275 0.4970 0.5993
vn -0.4545 0.7289 0.5119
vn 0.0130 0.9998 0.0172
vn 0.0070 0.9998 0.0193
vn 0.0095 0.9998 0.0162
vn 0.5088 0.7093 -0.4878
vn 0.0008 1.0000 -0.0027
vn 0.0031 1.0000 -0.0087
vn -0.2610 0.9315 -0.2535
vn -0.9978 0.0602 0.0286
vn -0.9976 0.0647 0.0265
vn -0.9975 0.0680 0.0212
vn -0.5990 0.1945 0.7767
vn -0.0054 1.0000 -0.0003
vn -0.0036 1.0000 0.0001
vn -0.0043 1.0000 -0.0008
vn -0.0893 0.0845 -0.9924
vn 0.9961 0.0779 -0.0420
vn 0.0175 0.9998 0.0081
vn 0.0128 0.9998 0.0156
vn 0.0136 0.9999 0.0092
vn -0.0037 1.0000 0.0026
vn -0.0029 1.0000 0.0019
vn -0.0716 0.0777 0.9944
vn -0.0624 0.0899 0.9940
vn -0.0504 0.1437 0.9883
vn 0.9909 0.1235 0.0541
vn 0.1408 0.1454 0.9793
vn 0.1873 0.0079 0.9823
vn -0.9949 0.0915 -0.0424
vn -0.9949 0.0905 -0.0446
vn -0.9947 0.0925 -0.0437
vn -0.9957 0.0790 -0.0490
vn -0.9955 0.0808 -0.0504
vn -0.9954 0.0817 -0.0491
vn 0.0282 0.9990 -0.0334
vn 0.0030 1.0000 0.0059
vn 0.0095 0.9999 0.0074
vn 0.0129 0.9999 0.0033
vn 0.0010 1.0000 0.0018
vn 0.0019 1.0000 -0.0020
vn 0.0066 1.0000 -0.0063
vn -0.9947 0.0890 0.0505
vn -0.9966 0.0801 0.0199
vn -0.9971 0.0739 0.0204
vn -0.9971 0.0728 0.0209
vn -0.9972 0.0704 0.0253
vn -0.9968 0.0784 0.0182
vn 0.0008 1.0000 -0.0006
vn -0.0004 1.0000 -0.0007
vn 0.0007 1.0000 -0.0027
vn 0.9956 0.0805 -0.0489
vn 0.9955 0.0814 -0.0482
vn 0.1569 0.0886 0.9836
vn -0.0036 1.0000 0.0016
vn -0.0097 0.9999 0.0034
vn -0.0030 1.0000 0.0025
vn 0.9951 0.0770 0.0620
vn 0.9951 0.0773 0.0618
vn -0.9951 0.0844 -0.0519
vn -0.9953 0.0827 -0.0501
vn -0.9954 0.0814 -0.0509
vn -0.9953 0.0820 -0.0522
vn 0.0914 0.0854 -0.9921
vn -0.0914 0.0854 -0.9921
vn 0.0085 0.9998 0.0162
vn 0.0084 0.9998 0.0158
vn 0.0083 0.9998 0.0161
vn 0.0120 0.9998 0.0168
vn -0.0012 1.0000 -0.0031
vn -0.0050 1.0000 -0.0080
vn -0.0020 1.0000 -0.0023
vn -0.0008 1.0000 -0.0021
g Tile_3_Tile_3_Collor_Material
usemtl Collor_Material
s off
f 14/1/1 19/2/1 18/3/1
f 14/4/2 13/5/2 1/6/2
f 24/7/3 23/8/3 4/9/3
f 29/10/4 30/11/4 31/12/4
f 12/13/5 13/14/5 14/15/5
f 18/16/6 19/17/6 20/18/6
f 15/19/7 16/20/7 17/21/7
f 18/22/8 20/23/8 21/24/8
f 16/25/9 18/26/10 17/27/11
f 22/28/12 23/29/12 24/30/12
f 24/31/13 6/32/13 11/33/14
f 25/34/15 26/35/15 27/36/15
f 8/37/16 1/38/17 12/39/18
f 29/40/19 31/41/19 28/42/19
f 26/43/20 28/44/21 31/45/22
f 2/46/23 25/47/23 27/48/23
f 4/49/24 23/50/24 22/51/24
f 18/52/25 11/53/26 14/54/27
f 31/55/28 30/56/29 12/57/29
f 1/58/30 7/59/30 14/60/30
f 7/61/31 20/62/31 14/63/31
f 20/64/32 19/65/32 14/66/32
f 3/67/33 9/68/33 15/69/33
f 7/70/34 3/71/34 15/72/34
f 17/73/35 21/74/35 20/75/35
f 29/76/36 28/77/37 26/78/38
f 26/79/39 25/80/40 2/81/41
f 18/82/42 21/83/42 17/84/42
f 10/85/43 22/86/44 11/87/45
f 22/88/46 24/89/47 11/90/48
f 1/91/49 13/92/49 12/93/49
f 12/94/50 30/95/51 29/96/51
f 29/97/52 8/98/53 12/99/54
f 27/100/55 26/101/56 31/102/57
f 9/103/58 4/104/59 22/105/58 10/106/58
f 7/107/60 15/108/60 17/109/60 20/110/60
f 12/111/61 14/112/61 11/113/62 31/114/63
f 16/115/64 15/116/64 9/117/65 10/118/64
f 29/119/66 26/120/67 2/121/68 8/122/69
f 24/123/70 4/124/70 5/125/70 6/126/70
f 5/127/71 2/128/71 27/129/71 6/130/71
f 18/131/72 16/132/73 10/133/74 11/134/75
f 31/135/76 11/136/77 6/137/78 27/138/79
