# Blender v3.0.0 OBJ File: 'aa.blend'
# www.blender.org
mtllib Treasure_Chest.mtl
o Treasure_Chest
v 0.321537 0.285807 0.240012
v 0.208371 0.023091 0.142038
v 0.208371 0.023091 -0.142038
v 0.298260 0.220128 0.221415
v 0.274982 0.154449 0.202819
v 0.251705 0.088770 0.184222
v 0.292844 0.220128 -0.221415
v 0.269567 0.154449 -0.202819
v 0.246289 0.088770 -0.184222
v 0.325713 0.220128 -0.198633
v 0.299097 0.154449 -0.181950
v 0.272482 0.088770 -0.165267
v 0.325713 0.220128 0.198633
v 0.299097 0.154449 0.181950
v 0.272482 0.088770 0.165267
v 0.302576 0.215984 0.227195
v 0.279298 0.156596 0.208599
v 0.292844 0.215984 -0.227195
v 0.269567 0.156596 -0.208599
v 0.329919 0.215314 -0.205919
v 0.303303 0.155926 -0.188624
v 0.329919 0.215314 0.205919
v 0.303303 0.155926 0.188624
v 0.353461 0.283038 -0.226955
v 0.353461 0.283038 0.226954
v 0.316122 0.283472 -0.243540
v 0.325853 0.283472 0.243540
v 0.302576 0.221257 0.224943
v 0.292844 0.221257 -0.224943
v 0.326845 0.220823 -0.209370
v 0.326845 0.220823 0.209369
v 0.279298 0.152419 0.209296
v 0.256021 0.088617 0.190700
v 0.269567 0.152419 -0.209296
v 0.246289 0.088617 -0.190700
v 0.303811 0.151612 -0.194353
v 0.277195 0.087811 -0.176532
v 0.303811 0.151612 0.194352
v 0.277195 0.087811 0.176532
v 0.256021 0.086392 0.189021
v 0.232743 0.027730 0.170680
v 0.246289 0.086392 -0.189021
v 0.223012 0.023841 -0.170425
v 0.275974 0.085806 -0.171902
v 0.245866 0.023091 -0.148584
v 0.275974 0.085806 0.171902
v 0.245866 0.023091 0.148584
v 0.316886 0.308151 0.216007
v 0.316886 0.308151 -0.216007
v 0.228427 0.023091 0.165625
v 0.223012 0.023091 -0.165625
v 0.316122 0.285807 -0.240012
v 0.352329 0.285807 -0.215316
v 0.253623 0.000000 -0.172484
v 0.373081 0.308151 0.256896
v 0.228419 0.023091 0.180840
v 0.214989 0.023091 -0.178394
v 0.253623 0.000000 0.174930
v 0.373081 0.308151 -0.254450
v 0.260029 0.023091 -0.148486
v 0.260029 0.023091 0.148485
v 0.321537 0.285807 0.255225
v 0.308107 0.285807 -0.252779
v 0.366491 0.285807 -0.215226
v 0.366491 0.285807 0.215226
v 0.352329 0.285807 0.215316
v -0.321537 0.285807 0.240012
v -0.208371 0.023091 0.142038
v -0.208371 0.023091 -0.142038
v -0.298260 0.220128 0.221415
v -0.274982 0.154449 0.202819
v -0.251705 0.088770 0.184222
v -0.292844 0.220128 -0.221415
v -0.269567 0.154449 -0.202819
v -0.246289 0.088770 -0.184222
v -0.325713 0.220128 -0.198633
v -0.299097 0.154449 -0.181950
v -0.272482 0.088770 -0.165267
v -0.325713 0.220128 0.198633
v -0.299097 0.154449 0.181950
v -0.272482 0.088770 0.165267
v -0.302576 0.215984 0.227195
v -0.279298 0.156596 0.208599
v -0.292844 0.215984 -0.227195
v -0.269567 0.156596 -0.208599
v -0.329919 0.215314 -0.205919
v -0.303303 0.155926 -0.188624
v -0.329919 0.215314 0.205919
v -0.303303 0.155926 0.188624
v -0.353461 0.283038 -0.226955
v -0.353461 0.283038 0.226954
v -0.316122 0.283472 -0.243540
v -0.325853 0.283472 0.243540
v -0.302576 0.221257 0.224943
v -0.292844 0.221257 -0.224943
v -0.326845 0.220823 -0.209370
v -0.326845 0.220823 0.209369
v -0.279298 0.152419 0.209296
v -0.256021 0.088617 0.190700
v -0.269567 0.152419 -0.209296
v -0.246289 0.088617 -0.190700
v -0.303811 0.151612 -0.194353
v -0.277195 0.087811 -0.176532
v -0.303811 0.151612 0.194352
v -0.277195 0.087811 0.176532
v -0.256021 0.086392 0.189021
v -0.232743 0.027730 0.170680
v -0.246289 0.086392 -0.189021
v -0.223012 0.023841 -0.170425
v -0.275974 0.085806 -0.171902
v -0.245866 0.023091 -0.148584
v -0.275974 0.085806 0.171902
v -0.245866 0.023091 0.148584
v -0.316886 0.308151 0.216007
v -0.316886 0.308151 -0.216007
v -0.228427 0.023091 0.165625
v -0.223012 0.023091 -0.165625
v -0.316122 0.285807 -0.240012
v -0.352329 0.285807 -0.215316
v -0.253623 0.000000 -0.172484
v -0.373081 0.308151 0.256896
v -0.228419 0.023091 0.180840
v -0.214989 0.023091 -0.178394
v -0.253623 0.000000 0.174930
v -0.373081 0.308151 -0.254450
v -0.260029 0.023091 -0.148486
v -0.260029 0.023091 0.148485
v -0.321537 0.285807 0.255225
v -0.308107 0.285807 -0.252779
v -0.366491 0.285807 -0.215226
v -0.366491 0.285807 0.215226
v -0.352329 0.285807 0.215316
v 0.339712 0.520635 0.035143
v -0.339597 0.520635 -0.035962
v -0.339597 0.475799 0.085283
v -0.339597 0.435091 0.104543
v -0.339597 0.397573 0.137768
v 0.339712 0.475799 -0.086102
v 0.339712 0.435091 -0.105362
v 0.339712 0.397572 -0.138586
v -0.339597 0.520635 0.035143
v 0.339712 0.520635 -0.035962
v -0.339597 0.355595 -0.212383
v -0.339597 0.397572 -0.138586
v -0.339597 0.435091 -0.105362
v -0.339597 0.475799 -0.086102
v 0.339712 0.397573 0.137768
v 0.339712 0.435091 0.104543
v 0.339712 0.475799 0.085283
v 0.339712 0.355595 -0.212383
v -0.339597 0.355595 0.211564
v 0.339712 0.355595 0.211564
v -0.339597 0.404875 0.153579
v -0.339597 0.367908 0.218568
v 0.339712 0.367908 0.218568
v 0.339712 0.404875 0.153579
v -0.339597 0.443449 0.116064
v -0.339597 0.409362 0.146249
v 0.339712 0.409362 0.146249
v 0.339712 0.443449 0.116064
v -0.339597 0.481857 0.098087
v -0.339597 0.450995 0.112690
v 0.339712 0.450995 0.112690
v 0.339712 0.481857 0.098087
v -0.339597 0.525117 0.051381
v -0.339597 0.490048 0.090599
v 0.339712 0.490048 0.090599
v 0.339712 0.525117 0.051381
v -0.339597 0.534800 -0.035962
v -0.339597 0.534800 0.035143
v 0.339712 0.534800 0.035143
v 0.339712 0.534800 -0.035962
v -0.339597 0.486358 -0.095544
v -0.339597 0.531194 -0.045404
v 0.339712 0.531194 -0.045404
v 0.339712 0.486358 -0.095544
v -0.339597 0.449643 -0.114148
v -0.339597 0.481857 -0.098906
v 0.339712 0.481857 -0.098906
v 0.339712 0.449643 -0.114148
v -0.339597 0.406963 -0.149191
v -0.339597 0.444482 -0.115967
v 0.339712 0.444482 -0.115967
v 0.339712 0.406963 -0.149191
v -0.339597 0.367908 -0.219387
v -0.339597 0.403747 -0.156381
v 0.339712 0.403747 -0.156381
v 0.339712 0.367908 -0.219387
v 0.325747 0.520673 0.034086
v -0.325632 0.520673 -0.034905
v -0.325632 0.477170 0.082736
v -0.325632 0.437672 0.101424
v -0.366876 0.514879 0.020070
v -0.366876 0.514879 -0.020889
v 0.366991 0.514879 -0.020889
v 0.366991 0.514879 0.020070
v 0.366991 0.340334 -0.204040
v 0.366991 0.384490 -0.125029
v 0.366991 0.435118 -0.080035
v 0.366991 0.479657 -0.059084
v 0.366991 0.479657 0.058265
v 0.366991 0.435118 0.079217
v 0.366991 0.384490 0.124210
v 0.366991 0.340334 0.203221
v -0.366876 0.340334 0.203221
v -0.366876 0.384490 0.124210
v -0.366876 0.435118 0.079217
v -0.366876 0.479657 0.058265
v -0.366876 0.479657 -0.059084
v -0.366876 0.435118 -0.080035
v -0.366876 0.384490 -0.125029
v -0.366876 0.340334 -0.204040
v 0.341532 0.308151 0.232359
v -0.341417 0.308151 0.232359
v -0.341417 0.308151 -0.233178
v 0.341532 0.308151 -0.233178
v 0.366991 0.328882 0.209366
v -0.366876 0.328882 -0.210185
v 0.366991 0.328882 -0.210185
v -0.366876 0.328882 0.209366
v -0.375420 0.544634 0.038254
v -0.375420 0.544634 -0.039073
v 0.325747 0.547145 -0.040607
v 0.375535 0.544634 -0.039073
v 0.375535 0.544634 0.038254
v -0.325632 0.547145 0.039788
v 0.375535 0.494818 -0.093585
v 0.375535 0.359619 0.237240
v 0.375535 0.308151 0.261989
v -0.375420 0.494818 0.092766
v -0.375420 0.359619 -0.236036
v -0.375420 0.308151 -0.262808
v 0.375535 0.308151 -0.262808
v 0.375535 0.359619 -0.236036
v 0.375535 0.405024 -0.152639
v 0.375535 0.448548 -0.114292
v 0.375535 0.494818 0.092766
v 0.375535 0.448548 0.113473
v 0.375535 0.405024 0.151820
v -0.375420 0.308151 0.261989
v -0.375420 0.359619 0.237240
v -0.375420 0.405024 0.151820
v -0.375420 0.448548 0.113473
v -0.375420 0.494818 -0.093585
v -0.375420 0.448548 -0.114292
v -0.375420 0.405024 -0.152639
v -0.325632 0.401269 0.133661
v 0.325747 0.408002 -0.156643
v 0.325747 0.450423 -0.119077
v 0.325747 0.496450 -0.097300
v -0.325632 0.408002 0.155824
v -0.325632 0.450423 0.118258
v -0.325632 0.496450 0.096481
v -0.375420 0.328882 0.209366
v -0.375420 0.328882 -0.210185
v 0.325747 0.477170 -0.083555
v 0.325747 0.437672 -0.102243
v 0.375535 0.328882 -0.210185
v 0.375535 0.328882 0.209366
v -0.325632 0.547145 -0.040607
v 0.325747 0.547145 0.039788
v -0.325632 0.360539 -0.240083
v -0.325632 0.408002 -0.156643
v -0.325632 0.450423 -0.119077
v -0.325632 0.496450 -0.097300
v 0.325747 0.408002 0.155824
v 0.325747 0.450424 0.118258
v 0.325747 0.496450 0.096481
v 0.325747 0.401269 -0.134480
v -0.325632 0.520673 0.034086
v -0.375420 0.514879 0.020070
v -0.375420 0.514879 -0.020889
v 0.375535 0.514879 -0.020889
v 0.375535 0.514879 0.020070
v 0.375535 0.479657 -0.059084
v 0.375535 0.340334 0.203221
v -0.375420 0.479657 0.058265
v -0.375420 0.340334 -0.204040
v 0.375535 0.340334 -0.204040
v 0.375535 0.384490 -0.125029
v 0.375535 0.435118 -0.080035
v 0.375535 0.479657 0.058265
v 0.375535 0.435118 0.079217
v 0.375535 0.384490 0.124210
v -0.375420 0.340334 0.203221
v -0.375420 0.384490 0.124210
v -0.375420 0.435118 0.079217
v -0.375420 0.479657 -0.059084
v -0.375420 0.435118 -0.080035
v -0.375420 0.384490 -0.125029
v 0.325747 0.360539 -0.240083
v 0.325747 0.520673 -0.034905
v -0.325632 0.360539 0.237240
v 0.325747 0.360539 0.237240
v -0.325632 0.360539 -0.206083
v -0.325632 0.401269 -0.134480
v -0.325632 0.437672 -0.102243
v -0.325632 0.477170 -0.083555
v 0.325747 0.401269 0.133661
v 0.325747 0.437672 0.101424
v 0.325747 0.477170 0.082736
v 0.325747 0.360539 -0.206083
v -0.325632 0.360539 0.205264
v 0.325747 0.360539 0.205264
v -0.011635 0.238151 0.272828
v -0.026935 0.308151 0.272828
v -0.040169 0.257007 0.243161
v -0.026935 0.308151 0.256896
v 0.025024 0.238151 0.272828
v 0.040324 0.308151 0.272828
v 0.053558 0.257007 0.243161
v 0.040324 0.308151 0.256896
v -0.012234 0.191463 0.235578
v -0.001596 0.207562 0.270418
v 0.025623 0.191463 0.235578
v 0.014985 0.207562 0.270418
v -0.040169 0.257007 0.272828
v 0.053558 0.257007 0.272828
v -0.012234 0.191463 0.262573
v 0.025623 0.191463 0.262573
v -0.011635 0.238151 0.261756
v 0.025024 0.238151 0.261756
v -0.001596 0.207562 0.261756
v 0.014985 0.207562 0.261756
v -0.045761 0.282579 0.272828
v -0.045761 0.285807 0.255225
v 0.059150 0.285807 0.255225
v 0.059150 0.282579 0.272828
v -0.335300 0.253954 -0.092321
v -0.329382 0.237003 -0.092321
v -0.335300 0.253954 -0.079572
v -0.329382 0.237003 -0.079572
v -0.375646 0.251853 -0.086767
v -0.375646 0.239104 -0.086767
v -0.375646 0.251853 -0.079572
v -0.375646 0.239104 -0.079572
v -0.357034 0.253954 -0.079572
v -0.357034 0.237003 -0.079572
v -0.357034 0.253954 -0.092321
v -0.357034 0.237003 -0.092321
v -0.335300 0.253954 0.070436
v -0.329382 0.237003 0.070436
v -0.335300 0.253954 0.083185
v -0.329382 0.237003 0.083185
v -0.375646 0.251853 0.070436
v -0.375646 0.239104 0.070436
v -0.375646 0.251853 0.077631
v -0.375646 0.239104 0.077631
v -0.357034 0.253954 0.083185
v -0.357034 0.237003 0.083185
v -0.357034 0.253954 0.070436
v -0.357034 0.237003 0.070436
v 0.335415 0.253954 -0.092321
v 0.329497 0.237003 -0.092321
v 0.335415 0.253954 -0.079572
v 0.329497 0.237003 -0.079572
v 0.375761 0.251853 -0.086767
v 0.375761 0.239104 -0.086767
v 0.375761 0.251853 -0.079572
v 0.375761 0.239104 -0.079572
v 0.357149 0.253954 -0.079572
v 0.357149 0.237003 -0.079572
v 0.357149 0.253954 -0.092321
v 0.357149 0.237003 -0.092321
v 0.335415 0.253954 0.070436
v 0.329497 0.237003 0.070436
v 0.335415 0.253954 0.083185
v 0.329497 0.237003 0.083185
v 0.375761 0.251853 0.070436
v 0.375761 0.239104 0.070436
v 0.375761 0.251853 0.077631
v 0.375761 0.239104 0.077631
v 0.357149 0.253954 0.083185
v 0.357149 0.237003 0.083185
v 0.357149 0.253954 0.070436
v 0.357149 0.237003 0.070436
vt 0.685382 0.368029
vt 0.666544 0.029936
vt 0.685382 0.002400
vt 0.392951 0.873828
vt 0.391095 0.871719
vt 0.392951 0.839214
vt 0.657806 0.340070
vt 0.657805 0.678754
vt 0.639433 0.368743
vt 0.328216 0.619777
vt 0.328216 0.850207
vt 0.317767 0.639539
vt 0.904033 0.883080
vt 0.892291 0.725801
vt 0.904033 0.712843
vt 0.821936 0.002400
vt 0.821936 0.336367
vt 0.812010 0.304185
vt 0.100982 0.868331
vt 0.089302 0.638708
vt 0.100982 0.619777
vt 0.868271 0.712843
vt 0.868271 0.864706
vt 0.853852 0.854812
vt 0.762771 0.745605
vt 0.762771 0.894833
vt 0.748126 0.754233
vt 0.275768 0.746707
vt 0.275768 0.898731
vt 0.262455 0.756653
vt 0.767571 0.715533
vt 0.778551 0.375177
vt 0.778551 0.740791
vt 0.865102 0.250957
vt 0.853423 0.014750
vt 0.865102 0.002400
vt 0.391095 0.801909
vt 0.392951 0.799799
vt 0.392951 0.834414
vt 0.312967 0.619777
vt 0.312967 0.850207
vt 0.302518 0.830445
vt 0.194820 0.791430
vt 0.194820 0.949146
vt 0.183986 0.804031
vt 0.887491 0.712843
vt 0.887491 0.864706
vt 0.873072 0.722737
vt 0.059733 0.786630
vt 0.039765 0.638743
vt 0.059733 0.619777
vt 0.348961 0.786630
vt 0.333016 0.635445
vt 0.348961 0.619777
vt 0.744850 0.002400
vt 0.744850 0.354017
vt 0.731032 0.336770
vt 0.414914 0.726493
vt 0.429433 0.375177
vt 0.429433 0.743155
vt 0.813939 0.375177
vt 0.813939 0.618385
vt 0.798311 0.602758
vt 0.807209 0.002400
vt 0.807209 0.245610
vt 0.791581 0.229984
vt 0.625044 0.902474
vt 0.606302 0.881099
vt 0.625044 0.865349
vt 0.427254 0.912919
vt 0.409015 0.891695
vt 0.427254 0.875486
vt 0.124021 0.875143
vt 0.124021 0.912577
vt 0.105782 0.896367
vt 0.443306 0.370376
vt 0.414914 0.026797
vt 0.443306 0.002400
vt 0.601502 0.865349
vt 0.601502 0.902473
vt 0.582759 0.886724
vt 0.574503 0.002400
vt 0.574503 0.347119
vt 0.548593 0.028987
vt 0.535101 0.920128
vt 0.553938 0.912474
vt 0.553938 0.940458
vt 0.509639 0.943064
vt 0.490983 0.936799
vt 0.509639 0.915349
vt 0.338932 0.941454
vt 0.338932 0.961134
vt 0.333016 0.943811
vt 0.953867 0.939301
vt 0.953867 0.959633
vt 0.947867 0.941435
vt 0.937806 0.002400
vt 0.937806 0.233998
vt 0.928788 0.207791
vt 0.138212 0.851152
vt 0.148371 0.619777
vt 0.148371 0.876938
vt 0.940124 0.903786
vt 0.932232 0.871143
vt 0.940124 0.857607
vt 0.528546 0.932623
vt 0.520309 0.900067
vt 0.528546 0.885585
vt 0.695772 0.773925
vt 0.704010 0.741368
vt 0.704010 0.781733
vt 0.644217 0.955226
vt 0.652454 0.922669
vt 0.652454 0.963035
vt 0.168130 0.903254
vt 0.179109 0.861072
vt 0.179109 0.912479
vt 0.374720 0.546675
vt 0.374720 0.579930
vt 0.369729 0.563932
vt 0.291035 0.933313
vt 0.291035 0.956737
vt 0.285528 0.948143
vt 0.657254 0.944565
vt 0.666706 0.923132
vt 0.666706 0.958404
vt 0.793511 0.939068
vt 0.787254 0.935137
vt 0.787254 0.724443
vt 0.793511 0.720512
vt 0.410114 0.590636
vt 0.382578 0.571798
vt 0.382578 0.360106
vt 0.410114 0.340070
vt 0.803823 0.348323
vt 0.803823 0.369734
vt 0.793695 0.367614
vt 0.793695 0.342663
vt 0.081057 0.569428
vt 0.104814 0.567607
vt 0.104814 0.577955
vt 0.077130 0.580078
vt 0.511150 0.947864
vt 0.511150 0.958514
vt 0.504903 0.958514
vt 0.504903 0.947864
vt 0.339480 0.793957
vt 0.339480 0.936654
vt 0.333016 0.934128
vt 0.333017 0.791430
vt 0.938125 0.375177
vt 0.938125 0.599040
vt 0.930670 0.599036
vt 0.930669 0.375181
vt 0.707149 0.879490
vt 0.721730 0.888401
vt 0.721730 0.908471
vt 0.707149 0.917381
vt 0.574503 0.690535
vt 0.557226 0.661993
vt 0.574503 0.351919
vt 0.969748 0.900674
vt 0.965562 0.900674
vt 0.965562 0.695090
vt 0.969748 0.695090
vt 0.942606 0.002444
vt 0.949545 0.002400
vt 0.949545 0.213414
vt 0.942606 0.213370
vt 0.178142 0.582410
vt 0.179969 0.548658
vt 0.179969 0.584545
vt 0.634633 0.002400
vt 0.634633 0.368027
vt 0.614597 0.340490
vt 0.870694 0.366118
vt 0.870646 0.341167
vt 0.895172 0.341291
vt 0.895172 0.366131
vt 0.545044 0.371988
vt 0.545044 0.583680
vt 0.517507 0.602518
vt 0.517507 0.351952
vt 0.942925 0.586191
vt 0.942925 0.375177
vt 0.949865 0.375221
vt 0.949865 0.586147
vt 0.117197 0.619777
vt 0.117197 0.870343
vt 0.105782 0.849924
vt 0.943067 0.852807
vt 0.932232 0.840206
vt 0.943067 0.695090
vt 0.751792 0.407015
vt 0.762771 0.375177
vt 0.762771 0.740805
vt 0.409015 0.824330
vt 0.433512 0.823283
vt 0.433512 0.870686
vt 0.409111 0.870509
vt 0.297718 0.849699
vt 0.287015 0.830199
vt 0.297718 0.619777
vt 0.709546 0.751018
vt 0.741878 0.737330
vt 0.741878 0.783257
vt 0.709546 0.769569
vt 0.517507 0.752896
vt 0.521786 0.611600
vt 0.543614 0.607318
vt 0.543614 0.774171
vt 0.183986 0.635733
vt 0.201092 0.619777
vt 0.201092 0.786630
vt 0.084502 0.619777
vt 0.084502 0.786630
vt 0.064534 0.767664
vt 0.372634 0.619777
vt 0.372634 0.786630
vt 0.356689 0.770962
vt 0.051769 0.793351
vt 0.058972 0.791430
vt 0.058972 0.932789
vt 0.051770 0.934712
vt 0.793511 0.715712
vt 0.783351 0.400776
vt 0.793511 0.375177
vt 0.179186 0.856272
vt 0.168130 0.843360
vt 0.179186 0.619777
vt 0.397751 0.802325
vt 0.404215 0.799799
vt 0.404215 0.942498
vt 0.397752 0.945024
vt 0.039765 0.932789
vt 0.039766 0.791430
vt 0.046969 0.793352
vt 0.046969 0.934710
vt 0.249935 0.524585
vt 0.249935 0.560472
vt 0.248108 0.526720
vt 0.222998 0.791478
vt 0.222998 0.936999
vt 0.216058 0.937047
vt 0.216058 0.791430
vt 0.873072 0.878731
vt 0.885602 0.869506
vt 0.885602 0.920913
vt 0.873072 0.911688
vt 0.204318 0.791478
vt 0.211258 0.791430
vt 0.211258 0.937047
vt 0.204318 0.936999
vt 0.121997 0.640196
vt 0.133412 0.619777
vt 0.133412 0.870343
vt 0.239541 0.746707
vt 0.239541 0.916943
vt 0.227799 0.903986
vt 0.072320 0.932792
vt 0.064939 0.933136
vt 0.064942 0.791776
vt 0.072320 0.791430
vt 0.353761 0.934127
vt 0.353762 0.791430
vt 0.360225 0.793957
vt 0.360225 0.936653
vt 0.222998 0.619777
vt 0.222998 0.786630
vt 0.205892 0.770674
vt 0.782217 0.894820
vt 0.767571 0.886192
vt 0.782217 0.745591
vt 0.257654 0.898731
vt 0.244341 0.888785
vt 0.257654 0.746707
vt 0.455201 0.911671
vt 0.438426 0.908413
vt 0.438312 0.882954
vt 0.455201 0.875486
vt 0.366170 0.793956
vt 0.372634 0.791430
vt 0.372634 0.934129
vt 0.366171 0.936656
vt 0.925869 0.690290
vt 0.918415 0.690290
vt 0.918415 0.375177
vt 0.925869 0.375177
vt 0.155071 0.582085
vt 0.155071 0.585610
vt 0.148824 0.585610
vt 0.148824 0.582085
vt 0.862600 0.255757
vt 0.862600 0.329262
vt 0.853423 0.329262
vt 0.853423 0.255757
vt 0.584014 0.781491
vt 0.558555 0.781491
vt 0.558555 0.777304
vt 0.584014 0.777304
vt 0.853153 0.925714
vt 0.853153 0.951173
vt 0.848967 0.951173
vt 0.848967 0.925714
vt 0.962236 0.656878
vt 0.958049 0.656878
vt 0.958049 0.632759
vt 0.962236 0.632759
vt 0.907367 0.947295
vt 0.913614 0.947295
vt 0.913614 0.957944
vt 0.907367 0.957944
vt 0.316936 0.904160
vt 0.321123 0.904160
vt 0.321123 0.929619
vt 0.316936 0.929619
vt 0.953575 0.592793
vt 0.953575 0.599040
vt 0.942925 0.599040
vt 0.942925 0.592793
vt 0.731032 0.365065
vt 0.731032 0.358817
vt 0.744582 0.358817
vt 0.744582 0.365065
vt 0.793695 0.264358
vt 0.802872 0.264358
vt 0.802872 0.337863
vt 0.793695 0.337863
vt 0.928788 0.238798
vt 0.935035 0.238798
vt 0.935035 0.312303
vt 0.928788 0.312303
vt 0.296193 0.854499
vt 0.296193 0.928005
vt 0.287015 0.928005
vt 0.287015 0.854499
vt 0.310824 0.855007
vt 0.310824 0.928513
vt 0.302518 0.928513
vt 0.302518 0.855007
vt 0.558555 0.772504
vt 0.558555 0.763326
vt 0.632060 0.763326
vt 0.632060 0.772504
vt 0.216422 0.579886
vt 0.216422 0.584131
vt 0.208297 0.584131
vt 0.208297 0.579886
vt 0.588814 0.782729
vt 0.588814 0.777304
vt 0.606777 0.777304
vt 0.606777 0.782729
vt 0.129226 0.908332
vt 0.129226 0.875143
vt 0.133412 0.875143
vt 0.133412 0.908332
vt 0.941717 0.653748
vt 0.953249 0.647184
vt 0.953249 0.684451
vt 0.941717 0.685728
vt 0.711712 0.019062
vt 0.726232 0.002400
vt 0.726232 0.370377
vt 0.535044 0.783158
vt 0.528676 0.783158
vt 0.528676 0.778971
vt 0.535044 0.778971
vt 0.813554 0.667537
vt 0.809367 0.667537
vt 0.809367 0.623185
vt 0.813554 0.623185
vt 0.782217 0.906184
vt 0.782217 0.938164
vt 0.770685 0.936887
vt 0.770685 0.899620
vt 0.651362 0.869812
vt 0.636056 0.876883
vt 0.635566 0.832534
vt 0.651362 0.823283
vt 0.551270 0.870686
vt 0.536035 0.877909
vt 0.535101 0.833567
vt 0.551270 0.823283
vt 0.517507 0.778971
vt 0.523876 0.778971
vt 0.523876 0.783158
vt 0.517507 0.783158
vt 0.746992 0.726794
vt 0.733173 0.392424
vt 0.746992 0.375177
vt 0.321123 0.934419
vt 0.321123 0.958538
vt 0.316936 0.958538
vt 0.316936 0.934419
vt 0.259221 0.571677
vt 0.280178 0.567290
vt 0.280178 0.577639
vt 0.255756 0.582750
vt 0.216603 0.575086
vt 0.208297 0.575086
vt 0.208297 0.501581
vt 0.216603 0.501581
vt 0.770120 0.016919
vt 0.786781 0.002400
vt 0.786781 0.259557
vt 0.186783 0.335956
vt 0.203444 0.321437
vt 0.203444 0.578595
vt 0.969263 0.580762
vt 0.965077 0.580762
vt 0.965077 0.375177
vt 0.969263 0.375177
vt 0.259115 0.953243
vt 0.259115 0.946875
vt 0.263301 0.946875
vt 0.263301 0.953243
vt 0.936917 0.603840
vt 0.936917 0.677346
vt 0.930669 0.677346
vt 0.930669 0.603840
vt 0.958049 0.627959
vt 0.958049 0.603840
vt 0.962236 0.603840
vt 0.962236 0.627959
vt 0.155437 0.948183
vt 0.151250 0.948183
vt 0.151250 0.922724
vt 0.155437 0.922724
vt 0.809367 0.672337
vt 0.813554 0.672337
vt 0.813554 0.705526
vt 0.809367 0.705527
vt 0.316936 0.855007
vt 0.321123 0.855007
vt 0.321123 0.899360
vt 0.316936 0.899360
vt 0.728373 0.375177
vt 0.728373 0.694362
vt 0.711712 0.694362
vt 0.711713 0.375177
vt 0.553725 0.753500
vt 0.553725 0.749314
vt 0.598077 0.749314
vt 0.598077 0.753500
vt 0.334273 0.546676
vt 0.334273 0.579865
vt 0.330086 0.579865
vt 0.330086 0.546676
vt 0.466427 0.744469
vt 0.466427 0.782360
vt 0.441999 0.783112
vt 0.441999 0.743717
vt 0.630765 0.860549
vt 0.606328 0.860292
vt 0.606302 0.824106
vt 0.630765 0.823283
vt 0.601502 0.823283
vt 0.601502 0.860549
vt 0.577038 0.859726
vt 0.577064 0.823540
vt 0.632060 0.757534
vt 0.607561 0.758526
vt 0.607625 0.711996
vt 0.632060 0.710496
vt 0.690972 0.741368
vt 0.690972 0.780763
vt 0.666544 0.780011
vt 0.666544 0.742120
vt 0.535150 0.882723
vt 0.559627 0.882709
vt 0.559627 0.907549
vt 0.535101 0.907674
vt 0.574503 0.696327
vt 0.574503 0.743366
vt 0.550067 0.741865
vt 0.550004 0.695335
vt 0.412688 0.755346
vt 0.437199 0.754486
vt 0.437199 0.782910
vt 0.412681 0.783112
vt 0.812016 0.368933
vt 0.812010 0.341167
vt 0.836527 0.341369
vt 0.836527 0.369793
vt 0.900020 0.341180
vt 0.924498 0.341167
vt 0.924498 0.366007
vt 0.899972 0.366131
vt 0.841334 0.342027
vt 0.865846 0.341167
vt 0.865846 0.369591
vt 0.841328 0.369793
vt 0.438312 0.869638
vt 0.438408 0.823459
vt 0.462808 0.823283
vt 0.462808 0.870686
vt 0.543793 0.347152
vt 0.517507 0.320500
vt 0.543793 0.002400
vt 0.491031 0.910536
vt 0.490983 0.885585
vt 0.515509 0.885709
vt 0.515509 0.910549
vt 0.148831 0.576424
vt 0.148824 0.548658
vt 0.173342 0.548861
vt 0.173342 0.577285
vt 0.268101 0.954152
vt 0.268101 0.947904
vt 0.277619 0.946875
vt 0.277619 0.955181
vt 0.476088 0.002400
vt 0.476088 0.370378
vt 0.448106 0.345982
vt 0.179109 0.942120
vt 0.160643 0.942244
vt 0.161099 0.918130
vt 0.179109 0.917280
vt 0.364928 0.546675
vt 0.364928 0.583942
vt 0.340465 0.583118
vt 0.340490 0.546933
vt 0.325286 0.583943
vt 0.300848 0.583685
vt 0.300823 0.547500
vt 0.325286 0.546676
vt 0.798311 0.932994
vt 0.798311 0.623185
vt 0.804567 0.627112
vt 0.804567 0.929067
vt 0.764231 0.326384
vt 0.764231 0.364275
vt 0.749650 0.355365
vt 0.749650 0.335295
vt 0.941717 0.635820
vt 0.941717 0.603840
vt 0.953249 0.605117
vt 0.953249 0.642384
vt 0.804311 0.958126
vt 0.798311 0.955992
vt 0.804311 0.937794
vt 0.652454 0.881683
vt 0.652454 0.917869
vt 0.635566 0.910401
vt 0.635680 0.884942
vt 0.359677 0.961133
vt 0.353761 0.958777
vt 0.359677 0.941454
vt 0.132055 0.937057
vt 0.105782 0.928234
vt 0.132055 0.917377
vt 0.671958 0.830354
vt 0.671958 0.876883
vt 0.656162 0.867632
vt 0.656652 0.823283
vt 0.261287 0.931955
vt 0.244341 0.938114
vt 0.244484 0.904925
vt 0.261287 0.903531
vt 0.427481 0.917844
vt 0.427481 0.942684
vt 0.409471 0.941834
vt 0.409015 0.917719
vt 0.827969 0.879934
vt 0.827969 0.916119
vt 0.811081 0.908651
vt 0.811195 0.883192
vt 0.456778 0.941311
vt 0.438312 0.941436
vt 0.438768 0.917322
vt 0.456778 0.916471
vt 0.623247 0.913433
vt 0.623247 0.941857
vt 0.606445 0.940463
vt 0.606302 0.907274
vt 0.927190 0.931488
vt 0.927190 0.950038
vt 0.918415 0.944826
vt 0.918415 0.936701
vt 0.709537 0.719492
vt 0.728373 0.699162
vt 0.728373 0.727146
vt 0.572238 0.830506
vt 0.572238 0.877909
vt 0.556070 0.867625
vt 0.557003 0.823283
vt 0.765071 0.953388
vt 0.750534 0.953395
vt 0.756439 0.939017
vt 0.765071 0.940562
vt 0.829547 0.921044
vt 0.829547 0.945884
vt 0.811536 0.945034
vt 0.811081 0.920919
vt 0.155101 0.917924
vt 0.138327 0.914665
vt 0.138212 0.889206
vt 0.155101 0.881738
vt 0.222998 0.941847
vt 0.222998 0.957623
vt 0.218754 0.957623
vt 0.217573 0.941847
vt 0.601502 0.935698
vt 0.584556 0.941857
vt 0.584699 0.908668
vt 0.601502 0.907274
vt 0.506995 0.775654
vt 0.485167 0.771372
vt 0.480888 0.630076
vt 0.506995 0.608801
vt 0.153171 0.645563
vt 0.163330 0.619777
vt 0.163330 0.876935
vt 0.927432 0.926688
vt 0.918415 0.721296
vt 0.927432 0.695090
vt 0.749650 0.002400
vt 0.765319 0.002400
vt 0.765319 0.321584
vt 0.749651 0.321584
vt 0.607064 0.641402
vt 0.607064 0.685754
vt 0.602878 0.685754
vt 0.602878 0.641402
vt 0.868271 0.930444
vt 0.868271 0.954270
vt 0.857953 0.953479
vt 0.857953 0.925714
vt 0.891062 0.937734
vt 0.901191 0.932075
vt 0.901191 0.957025
vt 0.891062 0.959145
vt 0.700311 0.361480
vt 0.690182 0.367139
vt 0.690182 0.342188
vt 0.700311 0.340068
vt 0.883389 0.949541
vt 0.873072 0.954270
vt 0.873072 0.926505
vt 0.883389 0.925714
vt 0.866382 0.872246
vt 0.866382 0.918173
vt 0.853852 0.920914
vt 0.853852 0.869506
vt 0.277619 0.935511
vt 0.266087 0.942075
vt 0.266087 0.904808
vt 0.277619 0.903531
vt 0.310824 0.946357
vt 0.295835 0.951276
vt 0.295835 0.933313
vt 0.310824 0.938232
vt 0.471227 0.743717
vt 0.475414 0.743717
vt 0.475414 0.776907
vt 0.471227 0.776907
vt 0.138212 0.930532
vt 0.146450 0.922724
vt 0.146450 0.963089
vt 0.564427 0.885504
vt 0.577399 0.882709
vt 0.577399 0.922104
vt 0.564427 0.919310
vt 0.631179 0.930478
vt 0.639417 0.922669
vt 0.639417 0.963035
vt 0.937535 0.319093
vt 0.937535 0.366131
vt 0.929298 0.351650
vt 0.940124 0.908586
vt 0.940124 0.954765
vt 0.932232 0.941228
vt 0.934856 0.682146
vt 0.934856 0.688514
vt 0.930669 0.688514
vt 0.930669 0.682146
vt 0.564427 0.931634
vt 0.574745 0.926904
vt 0.574745 0.954670
vt 0.564427 0.955461
vt 0.963092 0.924297
vt 0.963092 0.933475
vt 0.959567 0.933475
vt 0.956845 0.924297
vt 0.842898 0.964975
vt 0.834596 0.933080
vt 0.842898 0.921387
vt 0.792824 0.259091
vt 0.791581 0.250410
vt 0.807141 0.250465
vt 0.807141 0.258272
vt 0.438312 0.951661
vt 0.438312 0.946236
vt 0.454088 0.947417
vt 0.454088 0.951661
vt 0.657984 0.766389
vt 0.657984 0.779617
vt 0.639433 0.779617
vt 0.639433 0.766389
vt 0.404215 0.956072
vt 0.393565 0.956072
vt 0.393565 0.949825
vt 0.404215 0.949825
vt 0.058972 0.948137
vt 0.043413 0.948192
vt 0.044655 0.939512
vt 0.058972 0.940331
vt 0.658556 0.916932
vt 0.657254 0.881683
vt 0.671710 0.883222
vt 0.671710 0.918332
vt 0.091742 0.887113
vt 0.100982 0.873131
vt 0.100982 0.919059
vt 0.091530 0.937698
vt 0.100982 0.923859
vt 0.100982 0.959131
vt 0.525815 0.960848
vt 0.520309 0.946018
vt 0.525815 0.937424
vt 0.077124 0.932790
vt 0.077121 0.791430
vt 0.084502 0.791774
vt 0.084502 0.933135
vt 0.765071 0.905793
vt 0.765071 0.934216
vt 0.748268 0.932822
vt 0.748126 0.899633
vt 0.075870 0.952314
vt 0.069965 0.937935
vt 0.084502 0.937942
vt 0.084502 0.950768
vt 0.904034 0.890674
vt 0.904034 0.924480
vt 0.891062 0.927275
vt 0.891062 0.887880
vt 0.295835 0.958798
vt 0.305013 0.956076
vt 0.305013 0.962324
vt 0.295835 0.962324
vt 0.409015 0.947484
vt 0.418135 0.948514
vt 0.418135 0.954761
vt 0.409015 0.955790
vt 0.552382 0.668612
vt 0.548856 0.668612
vt 0.548856 0.662365
vt 0.552382 0.662365
vt 0.721730 0.874690
vt 0.706429 0.871950
vt 0.706429 0.826023
vt 0.721730 0.823283
vt 0.211258 0.955397
vt 0.202952 0.955397
vt 0.202952 0.944747
vt 0.211258 0.941847
vt 0.548207 0.958808
vt 0.548207 0.945258
vt 0.554455 0.945258
vt 0.554455 0.958808
vt 0.170161 0.955351
vt 0.160643 0.954321
vt 0.160643 0.948074
vt 0.170161 0.947045
vt 0.244341 0.956464
vt 0.244341 0.942914
vt 0.252647 0.945814
vt 0.252647 0.956464
vt 0.927190 0.954839
vt 0.927190 0.964016
vt 0.923664 0.964016
vt 0.920942 0.954839
vt 0.602906 0.953934
vt 0.602906 0.947686
vt 0.612424 0.946657
vt 0.612424 0.954963
vt 0.548856 0.679659
vt 0.548856 0.673412
vt 0.552382 0.673412
vt 0.552382 0.679659
vt 0.543407 0.958808
vt 0.535101 0.958808
vt 0.535101 0.948158
vt 0.543407 0.945258
vt 0.190233 0.963124
vt 0.183986 0.963124
vt 0.186707 0.953946
vt 0.190233 0.953946
vt 0.111066 0.584950
vt 0.111066 0.577144
vt 0.144024 0.577144
vt 0.144024 0.584950
vt 0.602878 0.704104
vt 0.602878 0.690554
vt 0.609125 0.690554
vt 0.609125 0.704104
vt 0.490983 0.947864
vt 0.500103 0.948894
vt 0.500103 0.955141
vt 0.490983 0.956170
vt 0.132055 0.955407
vt 0.123749 0.955407
vt 0.123749 0.944757
vt 0.132055 0.941857
vt 0.549568 0.761421
vt 0.553754 0.761421
vt 0.553754 0.781491
vt 0.549568 0.781491
vt 0.166119 0.585610
vt 0.159871 0.585610
vt 0.159871 0.582085
vt 0.166119 0.582085
vt 0.447490 0.956462
vt 0.447490 0.962709
vt 0.438312 0.959987
vt 0.438312 0.956462
vt 0.835898 0.881338
vt 0.849052 0.879939
vt 0.849052 0.915048
vt 0.834596 0.916587
vt 0.785205 0.954518
vt 0.785205 0.943868
vt 0.793511 0.943868
vt 0.793511 0.957418
vt 0.046134 0.952993
vt 0.049660 0.952993
vt 0.049660 0.962170
vt 0.043413 0.962170
vt 0.295236 0.580485
vt 0.285719 0.581514
vt 0.285719 0.573208
vt 0.295236 0.574238
vt 0.778991 0.956514
vt 0.770685 0.956514
vt 0.770685 0.945864
vt 0.778991 0.942964
vt 0.820259 0.953406
vt 0.820259 0.956931
vt 0.811081 0.956931
vt 0.811081 0.950684
vt 0.617224 0.947686
vt 0.626344 0.946657
vt 0.626344 0.954963
vt 0.617224 0.953934
vt 0.962236 0.685797
vt 0.958049 0.685797
vt 0.958049 0.661678
vt 0.962236 0.661678
vt 0.366170 0.955006
vt 0.366170 0.941456
vt 0.374476 0.944356
vt 0.374476 0.955006
vt 0.057182 0.962170
vt 0.054460 0.952993
vt 0.060707 0.952993
vt 0.060707 0.962170
vt 0.584556 0.952904
vt 0.584556 0.946657
vt 0.598106 0.946657
vt 0.598106 0.952904
vt 0.422935 0.954761
vt 0.422935 0.948514
vt 0.432055 0.947484
vt 0.432055 0.955790
vt 0.114088 0.944757
vt 0.114088 0.955407
vt 0.105782 0.955407
vt 0.105782 0.941857
vt 0.206609 0.177437
vt 0.206609 0.316637
vt 0.002400 0.316637
vt 0.002400 0.177437
vt 0.631647 0.777304
vt 0.631647 0.781491
vt 0.611577 0.781491
vt 0.611577 0.777304
vt 0.990781 0.563787
vt 0.994073 0.375177
vt 0.994073 0.567190
vt 0.250956 0.351011
vt 0.250956 0.519785
vt 0.248108 0.514178
vt 0.945189 0.218214
vt 0.945189 0.368969
vt 0.942606 0.366220
vt 0.706900 0.568099
vt 0.706900 0.654446
vt 0.705433 0.652147
vt 0.328216 0.855007
vt 0.328216 0.989933
vt 0.325923 0.986364
vt 0.437288 0.551426
vt 0.434234 0.378735
vt 0.437288 0.375177
vt 0.552382 0.507158
vt 0.552382 0.657565
vt 0.549844 0.652571
vt 0.726530 0.969041
vt 0.729074 0.823283
vt 0.729074 0.971918
vt 0.348961 0.791430
vt 0.348961 0.985556
vt 0.345595 0.794908
vt 0.005633 0.804320
vt 0.005633 0.992958
vt 0.002400 0.808124
vt 0.250956 0.177437
vt 0.250956 0.346211
vt 0.248108 0.184120
vt 0.701629 0.823283
vt 0.701629 0.974038
vt 0.699046 0.827254
vt 0.706686 0.466241
vt 0.706686 0.552588
vt 0.705219 0.550288
vt 0.296022 0.340070
vt 0.296022 0.474996
vt 0.293730 0.349246
vt 0.552382 0.351952
vt 0.552382 0.502358
vt 0.549844 0.358136
vt 0.975852 0.221749
vt 0.975852 0.367529
vt 0.973358 0.225468
vt 0.530301 0.880785
vt 0.513042 0.841999
vt 0.530301 0.823283
vt 0.235958 0.921744
vt 0.235958 0.964196
vt 0.227799 0.945860
vt 0.024037 0.799520
vt 0.002400 0.638673
vt 0.024037 0.599956
vt 0.598077 0.641402
vt 0.598077 0.744513
vt 0.579303 0.668770
vt 0.404215 0.794999
vt 0.382578 0.634152
vt 0.404215 0.595436
vt 0.282215 0.741907
vt 0.257407 0.641824
vt 0.282215 0.619777
vt 0.974548 0.697371
vt 0.978196 0.695090
vt 0.978196 0.905669
vt 0.974554 0.903708
vt 0.974063 0.589044
vt 0.974063 0.375196
vt 0.977796 0.375177
vt 0.977796 0.589025
vt 0.024037 0.992959
vt 0.020805 0.808124
vt 0.024037 0.804320
vt 0.905304 0.335251
vt 0.905306 0.002400
vt 0.912246 0.002400
vt 0.912246 0.335251
vt 0.434234 0.562866
vt 0.437179 0.556226
vt 0.437179 0.730543
vt 0.684183 0.827222
vt 0.686814 0.823283
vt 0.686814 0.976742
vt 0.964757 0.005025
vt 0.968558 0.002400
vt 0.968558 0.220921
vt 0.964774 0.219212
vt 0.372354 0.541875
vt 0.340465 0.533400
vt 0.340465 0.348544
vt 0.372354 0.340069
vt 0.113906 0.321437
vt 0.144024 0.332844
vt 0.144024 0.560937
vt 0.113906 0.572344
vt 0.148824 0.321437
vt 0.181982 0.330054
vt 0.181982 0.535241
vt 0.148824 0.543858
vt 0.960761 0.919497
vt 0.956845 0.919478
vt 0.956845 0.695090
vt 0.960761 0.695109
vt 0.293730 0.491979
vt 0.295236 0.479796
vt 0.295236 0.568408
vt 0.961771 0.238818
vt 0.964125 0.229658
vt 0.964125 0.368134
vt 0.013465 0.979315
vt 0.010433 0.978028
vt 0.013465 0.804320
vt 0.109106 0.562807
vt 0.077130 0.551401
vt 0.077130 0.332844
vt 0.109106 0.321437
vt 0.954346 0.218934
vt 0.956971 0.212786
vt 0.956971 0.368134
vt 0.985541 0.002400
vt 0.985541 0.211942
vt 0.981883 0.211956
vt 0.981883 0.002414
vt 0.700633 0.568099
vt 0.700633 0.736568
vt 0.666544 0.725141
vt 0.666544 0.579526
vt 0.211409 0.177437
vt 0.243228 0.188843
vt 0.243228 0.485375
vt 0.211409 0.496781
vt 0.909650 0.940744
vt 0.909637 0.715368
vt 0.913614 0.712839
vt 0.913614 0.942494
vt 0.983146 0.367528
vt 0.980652 0.225468
vt 0.983146 0.221749
vt 0.072329 0.585620
vt 0.039765 0.574213
vt 0.039765 0.332843
vt 0.072330 0.321437
vt 0.986384 0.695090
vt 0.986384 0.890505
vt 0.982996 0.889186
vt 0.973358 0.004856
vt 0.977083 0.002400
vt 0.977083 0.216948
vt 0.973370 0.215124
vt 0.512707 0.312207
vt 0.480888 0.300800
vt 0.480888 0.013806
vt 0.512707 0.002400
vt 0.511383 0.604001
vt 0.480888 0.592595
vt 0.480888 0.328413
vt 0.511383 0.317007
vt 0.741878 0.794999
vt 0.409015 0.794999
vt 0.409015 0.788058
vt 0.741878 0.788058
vt 0.467608 0.996078
vt 0.467608 0.823305
vt 0.470624 0.823283
vt 0.470624 0.996055
vt 0.993633 0.002400
vt 0.993633 0.194413
vt 0.990341 0.191010
vt 0.478369 0.823283
vt 0.478369 0.997600
vt 0.475424 0.992030
vt 0.694246 0.823283
vt 0.694246 0.976741
vt 0.691615 0.974015
vt 0.332712 0.348545
vt 0.332712 0.533401
vt 0.300823 0.541876
vt 0.300823 0.340070
vt 0.705219 0.385011
vt 0.706726 0.372829
vt 0.706726 0.461441
vt 0.031192 0.849363
vt 0.031192 0.987836
vt 0.028837 0.984273
vt 0.476088 0.383911
vt 0.476088 0.556916
vt 0.442213 0.565649
vt 0.442213 0.375179
vt 0.679383 0.823283
vt 0.679383 0.978631
vt 0.676758 0.973666
vt 0.002400 0.321437
vt 0.034965 0.332844
vt 0.034965 0.583750
vt 0.002400 0.595156
vt 0.741877 0.823283
vt 0.741877 0.971918
vt 0.739333 0.969040
vt 0.960276 0.577751
vt 0.954665 0.580763
vt 0.954665 0.375177
vt 0.960276 0.378188
vt 0.382578 0.799799
vt 0.385926 0.799835
vt 0.385926 0.991683
vt 0.382578 0.991647
vt 0.893562 0.335251
vt 0.893563 0.002400
vt 0.900504 0.002400
vt 0.900504 0.335251
vt 0.690182 0.335268
vt 0.690182 0.002400
vt 0.706912 0.002400
vt 0.706912 0.335268
vt 0.866613 0.375177
vt 0.866613 0.708038
vt 0.859161 0.708038
vt 0.859160 0.375177
vt 0.741877 0.818482
vt 0.409015 0.818482
vt 0.409015 0.811541
vt 0.741877 0.811541
vt 0.877019 0.002400
vt 0.877019 0.335267
vt 0.869903 0.335267
vt 0.869902 0.002400
vt 0.883188 0.708028
vt 0.883189 0.375177
vt 0.890130 0.375177
vt 0.890130 0.708028
vt 0.840292 0.335263
vt 0.840293 0.002400
vt 0.848622 0.002400
vt 0.848622 0.335263
vt 0.372634 0.614977
vt 0.039765 0.614977
vt 0.039765 0.590420
vt 0.372634 0.590420
vt 0.486183 0.823283
vt 0.486183 0.995929
vt 0.483169 0.995945
vt 0.483169 0.823299
vt 0.377155 0.335270
vt 0.377155 0.002400
vt 0.410114 0.002400
vt 0.410114 0.335270
vt 0.741878 0.806741
vt 0.409015 0.806741
vt 0.409015 0.799800
vt 0.741878 0.799799
vt 0.715308 0.964634
vt 0.707149 0.940518
vt 0.715308 0.922182
vt 0.994509 0.885639
vt 0.991184 0.885617
vt 0.991184 0.695090
vt 0.994509 0.695112
vt 0.508242 0.823283
vt 0.508242 0.880785
vt 0.490983 0.862069
vt 0.835492 0.002400
vt 0.835492 0.335270
vt 0.826736 0.335270
vt 0.826737 0.002400
vt 0.288915 0.348686
vt 0.288915 0.553873
vt 0.255756 0.562490
vt 0.255756 0.340069
vt 0.954346 0.005411
vt 0.959957 0.002400
vt 0.959957 0.207986
vt 0.954346 0.204975
vt 0.849052 0.875139
vt 0.832770 0.833883
vt 0.849052 0.712843
vt 0.252607 0.619777
vt 0.252607 0.741907
vt 0.227799 0.719860
vt 0.827969 0.875133
vt 0.811687 0.833878
vt 0.827969 0.712838
vt 0.788894 0.367469
vt 0.770120 0.340101
vt 0.788894 0.264358
vt 0.243228 0.569350
vt 0.221403 0.579616
vt 0.221403 0.501581
vt 0.243228 0.511848
vt 0.952045 0.934501
vt 0.947867 0.934479
vt 0.947867 0.695090
vt 0.952045 0.695112
vt 0.871413 0.708035
vt 0.871414 0.375177
vt 0.878388 0.375177
vt 0.878388 0.708036
vt 0.297194 0.335270
vt 0.297194 0.002400
vt 0.332712 0.002400
vt 0.332712 0.335270
vt 0.605082 0.636602
vt 0.579303 0.636602
vt 0.579303 0.303732
vt 0.605083 0.303732
vt 0.609797 0.298932
vt 0.579303 0.287526
vt 0.579303 0.013806
vt 0.609797 0.002400
vt 0.982614 0.569160
vt 0.982596 0.377905
vt 0.985981 0.375177
vt 0.985981 0.570781
vt 0.639433 0.693820
vt 0.661258 0.683554
vt 0.661258 0.761589
vt 0.639433 0.751323
vt 0.028851 0.842844
vt 0.028837 0.602529
vt 0.033076 0.599956
vt 0.033076 0.844563
vt 0.476088 0.738917
vt 0.441999 0.727491
vt 0.441999 0.581875
vt 0.476088 0.570449
vt 0.906673 0.708039
vt 0.906673 0.375177
vt 0.913614 0.375177
vt 0.913614 0.708039
vt 0.832770 0.708043
vt 0.832770 0.375177
vt 0.841304 0.375177
vt 0.841304 0.708043
vt 0.700419 0.563299
vt 0.666544 0.554567
vt 0.666544 0.381561
vt 0.700419 0.372829
vt 0.002400 0.172637
vt 0.002400 0.002400
vt 0.250956 0.002400
vt 0.250956 0.172637
vt 0.901873 0.375177
vt 0.901873 0.708029
vt 0.894932 0.708029
vt 0.894930 0.375177
vt 0.614597 0.705695
vt 0.614597 0.372827
vt 0.632060 0.372827
vt 0.632060 0.705695
vt 0.292393 0.002400
vt 0.292393 0.335269
vt 0.255757 0.335269
vt 0.255756 0.002400
vt 0.923988 0.002400
vt 0.923988 0.335262
vt 0.917047 0.335262
vt 0.917046 0.002400
vt 0.372355 0.002400
vt 0.372354 0.335269
vt 0.337513 0.335269
vt 0.337512 0.002400
vt 0.846104 0.708031
vt 0.846106 0.375177
vt 0.854360 0.375177
vt 0.854360 0.708031
vt 0.639433 0.335270
vt 0.639433 0.002400
vt 0.661744 0.002400
vt 0.661744 0.335270
vt 0.881819 0.335252
vt 0.881821 0.002400
vt 0.888761 0.002400
vt 0.888761 0.335252
vt 0.827969 0.375177
vt 0.827969 0.708038
vt 0.818740 0.708038
vt 0.818739 0.375177
vn 0.0000 1.0000 -0.0000
vn 0.8654 -0.1951 -0.4616
vn 0.8680 -0.1936 -0.4573
vn 0.8695 -0.1940 -0.4543
vn 0.9592 -0.2829 0.0000
vn 0.9636 -0.2673 0.0000
vn 0.0000 -0.0746 -0.9972
vn 0.0000 -0.2480 -0.9688
vn 0.9427 -0.3128 -0.1165
vn 0.9328 -0.3598 -0.0209
vn 0.9304 -0.3665 -0.0065
vn 0.0379 -0.2733 0.9612
vn -0.0388 -0.2325 0.9718
vn 0.0502 -0.2812 0.9583
vn 0.9329 -0.3594 0.0221
vn 0.9437 -0.3063 0.1246
vn 0.9304 -0.3664 0.0070
vn 0.0000 -0.0746 0.9972
vn 0.0000 -0.2480 0.9688
vn -0.8680 -0.1936 -0.4573
vn -0.8654 -0.1951 -0.4616
vn -0.8695 -0.1940 -0.4543
vn -0.9592 -0.2829 0.0000
vn -0.9636 -0.2673 0.0000
vn -0.9328 -0.3598 -0.0209
vn -0.9427 -0.3128 -0.1165
vn -0.9304 -0.3665 -0.0065
vn -0.1436 -0.3150 0.9382
vn -0.0549 -0.2847 0.9570
vn -0.0502 -0.2812 0.9583
vn -0.9096 -0.3971 -0.1220
vn -0.9289 -0.3703 0.0012
vn -0.9304 -0.3664 0.0070
vn 0.0000 -1.0000 -0.0000
vn -0.0804 0.4600 -0.8843
vn 0.0125 0.4358 0.9000
vn 0.0080 0.4333 0.9012
vn 0.0099 0.4383 0.8988
vn -0.0125 0.4358 0.8999
vn -0.0099 0.4383 0.8988
vn -0.0080 0.4333 0.9012
vn -0.0018 0.4316 0.9021
vn -0.0058 0.4276 0.9040
vn -0.0015 0.4318 0.9020
vn 0.0804 0.4600 -0.8843
vn 0.0000 0.3980 -0.9174
vn 1.0000 0.0000 0.0000
vn -1.0000 0.0000 0.0000
vn 0.0000 0.0746 -0.9972
vn 0.0000 0.0000 1.0000
vn -0.3722 -0.2275 0.8999
vn -0.3041 -0.2065 0.9300
vn -0.2061 -0.2074 0.9563
vn 0.1726 -0.2066 0.9631
vn 0.0718 -0.1803 0.9810
vn 0.2061 -0.2074 0.9563
vn 0.0064 0.2487 -0.9686
vn 0.8711 -0.1943 -0.4511
vn 0.8695 -0.1940 -0.4542
vn 0.8736 -0.1928 -0.4468
vn -0.0919 0.4164 -0.9045
vn -0.0537 0.8725 0.4857
vn 0.0000 0.1149 -0.9934
vn -0.0373 -0.2769 -0.9602
vn 0.9289 -0.3705 -0.0006
vn 0.9119 -0.3947 0.1126
vn 0.1436 -0.3150 0.9382
vn 0.0549 -0.2847 0.9570
vn 0.9096 -0.3971 -0.1220
vn 0.9289 -0.3703 0.0012
vn 0.9425 0.3341 -0.0003
vn 0.9425 0.3342 -0.0006
vn 0.0068 0.2488 0.9685
vn 0.0064 0.2487 0.9686
vn 0.0061 0.2485 0.9686
vn -0.9425 0.3342 -0.0006
vn -0.9425 0.3341 0.0001
vn -0.8736 -0.1928 -0.4468
vn -0.8695 -0.1940 -0.4542
vn -0.8711 -0.1943 -0.4511
vn -0.7720 0.4109 0.4849
vn -0.0064 0.2487 0.9686
vn -0.0060 0.2485 0.9686
vn -0.0068 0.2488 0.9685
vn -0.9119 -0.3947 0.1126
vn -0.9289 -0.3705 -0.0006
vn -0.0379 -0.2733 0.9612
vn 0.0388 -0.2325 0.9718
vn -0.9329 -0.3594 0.0221
vn -0.9437 -0.3063 0.1246
vn -0.0064 0.2487 -0.9686
vn 0.1122 0.9937 0.0000
vn -0.0000 -0.7351 -0.6779
vn -0.0000 -0.7351 0.6779
vn -0.0000 -0.4257 -0.9049
vn 0.1122 -0.9937 0.0000
vn -0.1122 -0.9937 0.0000
vn -0.1122 0.9937 0.0000
vn -0.0000 -0.6643 0.7475
vn -0.0000 -0.4728 0.8811
vn -0.0000 -0.8729 0.4878
vn 0.0000 -0.4257 0.9049
vn -0.0000 -0.4728 -0.8811
vn -0.0000 -0.6643 -0.7475
vn -0.0000 -0.8729 -0.4878
vn 0.0504 0.9987 0.0000
vn 0.0661 0.7403 -0.6691
vn 0.0661 0.7403 0.6691
vn 0.0733 0.8714 -0.4851
vn -0.0504 0.9987 0.0000
vn -0.0916 0.4162 0.9047
vn -0.0919 0.4164 0.9045
vn -0.0733 0.8714 -0.4851
vn -0.0980 0.6588 0.7459
vn 0.0980 0.6588 0.7459
vn 0.0919 0.4164 -0.9045
vn 0.0980 0.6588 -0.7459
vn 0.0537 0.8725 0.4857
vn 0.0015 0.4317 0.9020
vn 0.0058 0.4275 0.9040
vn 0.0004 0.4219 0.9066
vn 0.0919 0.4164 0.9045
vn -0.0980 0.6588 -0.7459
vn -0.2860 -0.0000 -0.9582
vn -0.0661 0.7403 -0.6691
vn -0.0661 0.7403 0.6691
vn 0.0000 -0.4381 0.8989
vn 0.9800 -0.1986 -0.0136
vn -0.9501 0.3118 0.0000
vn 0.0373 -0.2769 -0.9602
vn -0.7859 0.6155 0.0593
vn 0.9501 0.3118 0.0000
vn 0.7859 0.6155 0.0593
vn -0.9199 -0.3921 0.0000
vn -0.1726 -0.2066 0.9631
vn -0.0718 -0.1803 0.9810
vn 0.3722 -0.2275 0.8999
vn 0.3041 -0.2065 0.9300
vn 0.7720 0.4109 0.4849
vn -0.9800 -0.1986 -0.0136
vn 0.0000 0.3864 -0.9223
vn 0.2860 -0.0000 -0.9582
vn 0.2860 0.0000 0.9582
vn 0.0000 -0.0000 -1.0000
vn 0.9199 -0.3921 0.0000
vn -0.2860 0.0000 0.9582
vn 0.7531 0.6579 -0.0000
vn 0.5157 0.8568 -0.0000
vn 0.3313 -0.9435 0.0000
vn 0.5229 -0.8524 0.0000
vn 0.9257 0.3784 -0.0000
vn 0.0000 -0.9524 0.3048
vn -0.1995 -0.9799 0.0000
vn 0.6472 0.7624 -0.0000
vn 0.0000 0.8339 0.5519
vn -0.7531 0.6579 -0.0000
vn -0.5157 0.8568 -0.0000
vn -0.3313 -0.9435 0.0000
vn -0.5229 -0.8524 0.0000
vn -0.9257 0.3784 -0.0000
vn 0.1995 -0.9799 0.0000
vn -0.6472 0.7624 -0.0000
vn 0.0000 -0.7368 0.6761
vn 0.0000 -0.9374 -0.3481
vn 0.0000 0.9039 -0.4277
vn 0.0000 -0.9374 0.3481
vn -0.9125 -0.4090 0.0000
vn 0.0000 -0.2984 0.9544
vn -0.9194 -0.3933 0.0000
vn 0.0000 0.9542 -0.2990
vn 0.0000 -0.2850 -0.9585
vn 0.0000 -0.9997 0.0236
vn -0.9015 -0.4328 0.0000
vn 0.0000 -0.2864 0.9581
vn 0.0000 0.9542 0.2991
vn 0.6472 0.7623 -0.0000
vn 0.0000 -0.2798 -0.9600
vn 0.0000 -0.9997 -0.0236
vn 0.0000 -0.2864 -0.9581
vn 0.0000 -0.2988 -0.9543
vn 0.0000 -0.4944 -0.8692
vn 0.0000 -0.9524 -0.3048
vn 0.9125 -0.4090 0.0000
vn 0.9229 -0.3850 0.0000
vn 0.0000 -0.2798 0.9600
vn -0.6472 0.7623 -0.0000
vn 0.0000 0.8339 -0.5519
vn 0.0000 -0.7487 -0.6630
vn 0.0000 0.4277 0.9039
vn 0.0000 -0.3495 0.9369
vn 0.0000 -0.5840 0.8118
vn 0.0000 0.9039 0.4277
vn 0.0000 -0.5168 -0.8561
vn 0.0000 0.6630 -0.7487
vn 0.0000 -0.9880 -0.1543
vn 0.0000 0.7454 -0.6666
vn 0.0000 -0.4944 0.8692
vn 0.0000 0.8960 -0.4441
vn 0.0000 -0.4559 0.8900
vn 0.9194 -0.3933 0.0000
vn 0.0000 0.8127 -0.5827
vn -0.0000 0.8094 -0.5872
vn 0.0000 0.8692 -0.4944
vn -0.0000 0.7454 0.6666
vn 0.0000 -0.2988 0.9543
vn 0.0000 0.8960 0.4441
vn 0.0000 0.8127 0.5827
vn 0.9015 -0.4328 0.0000
vn 0.0000 0.9079 -0.4193
vn -0.9229 -0.3850 0.0000
vn 0.0000 0.7487 0.6630
vn 0.0000 0.4277 -0.9039
vn 0.0000 0.8692 0.4944
vn -0.0000 0.6666 0.7454
vn 0.0000 0.9640 -0.2661
vn -0.0000 0.6630 0.7487
vn 0.0000 -0.6666 -0.7454
vn 0.0000 0.9447 0.3278
g Treasure_Chest_Treasure_Chest_Collor_Material
usemtl Collor_Material
s off
f 125/1/1 49/2/1 59/3/1
f 28/4/2 16/5/3 17/6/4
f 121/7/1 48/8/1 114/9/1
f 59/10/5 65/11/5 64/12/5
f 54/13/6 61/14/6 58/15/6
f 129/16/7 59/17/7 63/18/7
f 120/19/8 57/20/8 54/21/8
f 65/22/9 58/23/10 61/24/11
f 58/25/12 62/26/13 56/27/14
f 54/28/15 64/29/16 60/30/17
f 128/31/18 55/32/18 121/33/18
f 58/34/19 122/35/19 124/36/19
f 82/37/20 94/38/21 83/39/22
f 131/40/23 125/41/23 130/42/23
f 120/43/24 127/44/24 126/45/24
f 124/46/25 131/47/26 127/48/27
f 124/49/28 128/50/29 121/51/30
f 120/52/31 130/53/32 125/54/33
f 215/55/34 233/56/34 216/57/34
f 214/58/34 229/59/34 240/60/34
f 216/61/34 229/62/34 213/63/34
f 214/64/34 232/65/34 215/66/34
f 232/67/35 231/68/35 262/69/35
f 229/70/36 228/71/37 294/72/38
f 240/73/39 293/74/40 241/75/41
f 229/76/42 293/77/43 240/78/44
f 233/79/45 291/80/45 234/81/45
f 233/82/46 262/83/46 291/84/46
f 259/85/47 228/86/47 229/87/47
f 255/88/48 231/89/48 232/90/48
f 258/91/47 234/92/47 279/93/47
f 254/94/48 241/95/48 285/96/48
f 255/97/48 240/98/48 254/99/48
f 258/100/47 229/101/47 233/102/47
f 266/103/48 304/104/48 294/105/48
f 263/106/47 295/107/47 262/108/47
f 248/109/48 302/110/48 269/111/48
f 251/112/47 303/113/47 247/114/47
f 308/115/49 327/116/49 326/117/49
f 309/118/50 317/119/50 305/120/50
f 305/121/51 319/122/52 314/123/53
f 309/124/54 320/125/55 318/126/56
f 51/127/1 57/128/1 123/129/1 117/130/1
f 59/131/1 49/132/1 48/133/1 55/134/1
f 301/135/48 300/136/48 267/137/48 268/138/48
f 269/139/48 257/140/48 249/141/48 248/142/48
f 349/143/1 343/144/1 341/145/1 351/146/1
f 132/147/57 113/148/57 127/149/57 131/150/57
f 50/151/1 116/152/1 122/153/1 56/154/1
f 225/155/47 274/156/47 273/157/47 224/158/47
f 125/159/1 115/160/1 49/161/1
f 258/162/1 219/163/1 217/164/1 259/165/1
f 65/166/34 66/167/34 53/168/34 64/169/34
f 28/170/58 27/171/59 16/172/60
f 121/173/1 55/174/1 48/175/1
f 265/176/61 264/177/61 245/178/61 244/179/61
f 114/180/1 115/181/1 125/182/1 121/183/1
f 119/184/34 132/185/34 131/186/34 130/187/34
f 59/188/5 55/189/5 65/190/5
f 54/191/6 60/192/6 61/193/6
f 129/194/7 125/195/7 59/196/7
f 251/197/62 242/198/62 241/199/62 293/200/62
f 120/201/8 123/202/8 57/203/8
f 313/204/63 307/205/63 311/206/63 315/207/63
f 129/208/64 123/209/64 120/210/64 125/211/64
f 65/212/65 55/213/11 58/214/66
f 58/215/67 55/216/14 62/217/68
f 54/218/69 59/219/17 64/220/70
f 122/221/71 116/222/72 67/223/71 128/224/71
f 128/225/18 62/226/18 55/227/18
f 58/228/19 56/229/19 122/230/19
f 126/231/73 111/232/74 119/233/74 130/234/75
f 56/235/76 62/236/77 1/237/77 50/238/76
f 82/239/78 93/240/79 94/241/80
f 61/242/1 60/243/1 45/244/1 47/245/1
f 306/246/50 325/247/50 328/248/50 310/249/50
f 127/250/1 113/251/1 111/252/1 126/253/1
f 131/254/23 121/255/23 125/256/23
f 120/257/24 124/258/24 127/259/24
f 57/260/81 51/261/81 52/262/81 63/263/81
f 60/264/82 64/265/83 53/266/82 45/267/84
f 124/268/85 121/269/27 131/270/86
f 124/271/87 122/272/30 128/273/88
f 120/274/89 126/275/33 130/276/90
f 221/277/48 271/278/48 277/279/48 230/280/48
f 61/281/91 47/282/91 66/283/91 65/284/91
f 1/285/34 62/286/34 128/287/34 67/288/34
f 334/289/48 336/290/48 335/291/48 333/292/48
f 369/293/92 359/294/92 361/295/92 375/296/92
f 274/297/93 282/298/93 201/299/93 196/300/93
f 275/301/94 273/302/94 195/303/94 200/304/94
f 283/305/95 202/306/95 201/307/95 282/308/95
f 365/309/1 367/310/1 373/311/1 375/312/1
f 288/313/94 209/314/94 194/315/94 272/316/94
f 353/317/1 355/318/1 361/319/1 363/320/1
f 364/321/34 362/322/34 356/323/34 354/324/34
f 362/325/96 360/326/96 370/327/96 376/328/96
f 369/329/47 370/330/47 360/331/47 359/332/47
f 346/333/97 336/334/97 338/335/97 352/336/97
f 352/337/47 338/338/47 337/339/47 351/340/47
f 337/341/98 335/342/98 345/343/98 351/344/98
f 323/345/1 314/346/1 316/347/1 324/348/1
f 322/349/34 309/350/34 305/351/34 321/352/34
f 280/353/99 281/354/99 199/355/99 198/356/99
f 292/357/48 223/358/48 250/359/48 256/360/48
f 215/361/34 232/362/34 233/363/34
f 258/364/100 279/365/100 197/366/100 219/367/100
f 280/368/101 198/369/101 197/370/101 279/371/101
f 190/372/47 298/373/47 265/374/47 260/375/47
f 235/376/47 280/377/47 279/378/47 234/379/47
f 242/380/48 286/381/48 285/382/48 241/383/48
f 278/384/100 255/385/100 218/386/100 212/387/100
f 214/388/34 213/389/34 229/390/34
f 288/391/102 289/392/102 210/393/102 209/394/102
f 298/395/47 297/396/47 264/397/47 265/398/47
f 361/399/48 362/400/48 376/401/48 375/402/48
f 216/403/34 233/404/34 229/405/34
f 214/406/34 240/407/34 232/408/34
f 254/409/1 220/410/1 218/411/1 255/412/1
f 276/413/103 259/414/103 217/415/103 204/416/103
f 345/417/48 335/418/48 336/419/48 346/420/48
f 287/421/95 277/422/95 208/423/95 207/424/95
f 271/425/93 193/426/93 208/427/93 277/428/93
f 284/429/104 203/430/104 202/431/104 283/432/104
f 276/433/105 204/434/105 203/435/105 284/436/105
f 295/437/1 302/438/1 291/439/1 262/440/1
f 278/441/101 212/442/101 211/443/101 290/444/101
f 289/445/99 290/446/99 211/447/99 210/448/99
f 225/449/106 224/450/106 223/451/106 261/452/106
f 223/453/107 224/454/107 227/455/107 250/456/107
f 261/457/108 268/458/108 237/459/108 225/460/108
f 248/461/109 235/462/109 234/463/109 291/464/109
f 226/465/110 260/466/110 222/467/110 221/468/110
f 253/469/111 230/470/112 243/471/112 252/472/112
f 263/473/113 262/474/113 231/475/113 246/476/113
f 252/477/114 243/478/114 242/479/114 251/480/114
f 267/481/115 266/482/115 239/483/115 238/484/115
f 250/485/116 227/486/116 236/487/116 249/488/116
f 249/489/117 236/490/117 235/491/117 248/492/117
f 266/493/118 294/494/118 228/495/118 239/496/118
f 229/497/119 294/498/120 293/499/121
f 268/500/122 267/501/122 238/502/122 237/503/122
f 264/504/123 263/505/123 246/506/123 245/507/123
f 334/508/124 333/509/124 339/510/124 340/511/124
f 233/512/46 232/513/46 262/514/46
f 230/515/48 277/516/48 287/517/48 243/518/48
f 260/519/125 265/520/125 244/521/125 222/522/125
f 226/523/126 221/524/126 230/525/126 253/526/126
f 52/527/34 118/528/34 129/529/34 63/530/34
f 221/531/48 222/532/48 272/533/48 271/534/48
f 189/535/48 301/536/48 268/537/48 261/538/48
f 259/539/47 276/540/47 228/541/47
f 225/542/47 237/543/47 282/544/47 274/545/47
f 255/546/48 278/547/48 231/548/48
f 258/549/47 233/550/47 234/551/47
f 246/552/48 231/553/48 278/554/48 290/555/48
f 243/556/48 287/557/48 286/558/48 242/559/48
f 244/560/48 245/561/48 289/562/48 288/563/48
f 222/564/48 244/565/48 288/566/48 272/567/48
f 227/568/47 275/569/47 281/570/47 236/571/47
f 245/572/48 246/573/48 290/574/48 289/575/48
f 319/576/127 320/577/127 316/578/127 314/579/127
f 254/580/48 240/581/48 241/582/48
f 239/583/47 228/584/47 276/585/47 284/586/47
f 318/587/128 311/588/128 327/589/128 328/590/128
f 237/591/47 238/592/47 283/593/47 282/594/47
f 224/595/47 273/596/47 275/597/47 227/598/47
f 322/599/129 324/600/129 316/601/129 309/602/129
f 236/603/47 281/604/47 280/605/47 235/606/47
f 54/607/130 57/608/130 63/609/130 59/610/130
f 255/611/48 232/612/48 240/613/48
f 258/614/47 259/615/47 229/616/47
f 303/617/1 293/618/1 294/619/1 304/620/1
f 285/621/105 286/622/105 206/623/105 205/624/105
f 247/625/47 192/626/47 252/627/47 251/628/47
f 256/629/48 250/630/48 249/631/48 257/632/48
f 191/633/47 253/634/47 252/635/47 192/636/47
f 299/637/48 266/638/48 267/639/48 300/640/48
f 317/641/50 318/642/50 328/643/50 325/644/50
f 270/645/47 226/646/47 253/647/47 191/648/47
f 324/649/50 322/650/50 321/651/50 323/652/50
f 287/653/104 207/654/104 206/655/104 286/656/104
f 266/657/48 299/658/48 304/659/48
f 189/660/48 261/661/48 223/662/48 292/663/48
f 263/664/47 296/665/47 295/666/47
f 248/667/48 291/668/48 302/669/48
f 251/670/47 293/671/47 303/672/47
f 254/673/103 285/674/103 205/675/103 220/676/103
f 296/677/47 263/678/47 264/679/47 297/680/47
f 376/681/96 370/682/96 372/683/96 374/684/96
f 308/685/49 312/686/49 327/687/49
f 326/688/131 325/689/131 306/690/131 308/691/131
f 321/692/132 305/693/132 314/694/132 323/695/132
f 319/696/34 313/697/34 315/698/34 320/699/34
f 337/700/1 331/701/1 329/702/1 339/703/1
f 310/704/133 328/705/133 327/706/133 312/707/133
f 319/708/134 317/709/134 307/710/134 313/711/134
f 309/712/50 318/713/50 317/714/50
f 305/715/135 317/716/53 319/717/136
f 309/718/137 316/719/56 320/720/138
f 118/721/139 117/722/139 123/723/139 129/724/139
f 238/725/47 239/726/47 284/727/47 283/728/47
f 326/729/140 307/730/140 317/731/140 325/732/140
f 270/733/47 190/734/47 260/735/47 226/736/47
f 347/737/98 349/738/98 351/739/98 345/740/98
f 351/741/50 345/742/50 346/743/50 352/744/50
f 346/745/48 348/746/48 347/747/48 345/748/48
f 327/749/141 311/750/141 307/751/141 326/752/141
f 362/753/50 361/754/50 355/755/50 356/756/50
f 332/757/34 338/758/34 340/759/34 330/760/34
f 363/761/142 357/762/142 358/763/142 364/764/142
f 350/765/50 344/766/50 343/767/50 349/768/50
f 338/769/97 336/770/97 334/771/97 340/772/97
f 372/773/143 371/774/143 373/775/143 374/776/143
f 370/777/47 369/778/47 371/779/47 372/780/47
f 340/781/144 339/782/144 329/783/144 330/784/144
f 375/785/92 373/786/92 371/787/92 369/788/92
f 310/789/1 312/790/1 308/791/1 306/792/1
f 344/793/34 350/794/34 352/795/34 342/796/34
f 375/797/144 369/798/144 370/799/144 376/800/144
f 352/801/144 351/802/144 341/803/144 342/804/144
f 272/805/34 194/806/34 193/807/34 271/808/34
f 358/809/47 357/810/47 359/811/47 360/812/47
f 352/813/97 350/814/97 348/815/97 346/816/97
f 320/817/145 315/818/145 311/819/145 318/820/145
f 365/821/144 375/822/144 376/823/144 366/824/144
f 333/825/98 335/826/98 337/827/98 339/828/98
f 348/829/146 350/830/146 349/831/146 347/832/146
f 374/833/50 373/834/50 367/835/50 368/836/50
f 358/837/96 360/838/96 362/839/96 364/840/96
f 336/841/50 338/842/50 337/843/50 335/844/50
f 275/845/102 200/846/102 199/847/102 281/848/102
f 338/849/50 332/850/50 331/851/50 337/852/50
f 357/853/92 363/854/92 361/855/92 359/856/92
f 376/857/34 374/858/34 368/859/34 366/860/34
f 360/861/50 359/862/50 361/863/50 362/864/50
f 353/865/144 363/866/144 364/867/144 354/868/144
f 2/869/1 3/870/1 69/871/1 68/872/1
f 274/873/34 196/874/34 195/875/34 273/876/34
f 10/877/147 22/878/147 20/879/147
f 14/880/148 36/881/148 11/882/148
f 11/883/149 23/884/149 14/885/149
f 10/886/150 31/887/150 13/888/150
f 66/889/151 24/890/151 53/891/151
f 94/892/152 4/893/152 28/894/152
f 12/895/153 39/896/153 15/897/153
f 12/898/154 46/899/154 44/900/154
f 93/901/155 1/902/155 67/903/155
f 86/904/156 79/905/156 76/906/156
f 102/907/157 80/908/157 77/909/157
f 89/910/158 77/911/158 80/912/158
f 79/913/159 96/914/159 76/915/159
f 90/916/160 132/917/160 119/918/160
f 105/919/161 78/920/161 81/921/161
f 110/922/162 81/923/162 78/924/162
f 200/925/47 196/926/47 201/927/47
f 209/928/48 193/929/48 194/930/48
f 205/931/48 211/932/48 212/933/48
f 211/934/48 207/935/48 210/936/48
f 197/937/47 203/938/47 204/939/47
f 198/940/47 202/941/47 203/942/47
f 50/943/163 41/944/163 107/945/163 116/946/163
f 8/947/164 74/948/164 85/949/164 19/950/164
f 10/951/147 13/952/147 22/953/147
f 149/954/165 135/955/165 161/956/165 164/957/165
f 14/958/148 38/959/148 36/960/148
f 11/961/149 21/962/149 23/963/149
f 5/964/166 17/965/166 83/966/166 71/967/166
f 86/968/167 87/969/167 89/970/167 88/971/167
f 106/972/168 107/973/168 41/974/168 40/975/168
f 90/976/169 96/977/169 97/978/169 91/979/169
f 8/980/170 34/981/170 100/982/170 74/983/170
f 10/984/150 30/985/150 31/986/150
f 66/987/151 25/988/151 24/989/151
f 94/990/152 70/991/152 4/992/152
f 42/993/171 43/994/171 109/995/171 108/996/171
f 12/997/153 37/998/153 39/999/153
f 9/1000/172 75/1001/172 101/1002/172 35/1003/172
f 112/1004/173 110/1005/173 111/1006/173 113/1007/173
f 93/1008/174 94/1009/174 28/1010/174 27/1011/174
f 5/1012/175 71/1013/175 98/1014/175 32/1015/175
f 12/1016/176 15/1017/176 46/1018/176
f 34/1019/177 35/1020/177 101/1021/177 100/1022/177
f 93/1023/155 27/1024/155 1/1025/155
f 6/1026/178 33/1027/178 99/1028/178 72/1029/178
f 26/1030/179 29/1031/179 95/1032/179 92/1033/179
f 18/1034/180 19/1035/180 85/1036/180 84/1037/180
f 150/1038/181 143/1039/181 185/1040/181 188/1041/181
f 7/1042/182 73/1043/182 95/1044/182 29/1045/182
f 86/1046/156 88/1047/156 79/1048/156
f 102/1049/157 104/1050/157 80/1051/157
f 89/1052/158 87/1053/158 77/1054/158
f 23/1055/183 21/1056/183 20/1057/183 22/1058/183
f 79/1059/159 97/1060/159 96/1061/159
f 90/1062/160 91/1063/160 132/1064/160
f 39/1065/184 37/1066/184 36/1067/184 38/1068/184
f 105/1069/161 103/1070/161 78/1071/161
f 98/1072/185 99/1073/185 33/1074/185 32/1075/185
f 110/1076/186 112/1077/186 81/1078/186
f 212/1079/48 218/1080/48 220/1081/48 205/1082/48
f 52/1083/187 26/1084/187 92/1085/187 118/1086/187
f 140/1087/188 144/1088/188 181/1089/188 184/1090/188
f 164/1091/189 161/1092/189 162/1093/189 163/1094/189
f 135/1095/190 149/1096/190 167/1097/190 166/1098/190
f 141/1099/50 133/1100/50 171/1101/50 170/1102/50
f 137/1103/191 147/1104/191 159/1105/191 158/1106/191
f 146/1107/192 138/1108/192 179/1109/192 178/1110/192
f 139/1111/193 145/1112/193 177/1113/193 180/1114/193
f 184/1115/194 181/1116/194 182/1117/194 183/1118/194
f 51/1119/195 117/1120/195 109/1121/195 43/1122/195
f 176/1123/196 173/1124/196 174/1125/196 175/1126/196
f 151/1127/197 152/1128/197 155/1129/197 154/1130/197
f 200/1131/47 195/1132/47 196/1133/47
f 9/1134/198 42/1135/198 108/1136/198 75/1137/198
f 209/1138/48 208/1139/48 193/1140/48
f 136/1141/199 148/1142/199 163/1143/199 162/1144/199
f 31/1145/200 30/1146/200 24/1147/200 25/1148/200
f 204/1149/47 217/1150/47 219/1151/47 197/1152/47
f 205/1153/48 206/1154/48 211/1155/48
f 211/1156/48 206/1157/48 207/1158/48
f 197/1159/47 198/1160/47 203/1161/47
f 198/1162/47 199/1163/47 202/1164/47
f 209/1165/48 210/1166/48 207/1167/48 208/1168/48
f 7/1169/201 18/1170/201 84/1171/201 73/1172/201
f 148/1173/202 136/1174/202 157/1175/202 160/1176/202
f 188/1177/203 185/1178/203 186/1179/203 187/1180/203
f 167/1181/204 168/1182/204 165/1183/204 166/1184/204
f 82/1185/205 83/1186/205 17/1187/205 16/1188/205
f 6/1189/206 72/1190/206 106/1191/206 40/1192/206
f 201/1193/47 202/1194/47 199/1195/47 200/1196/47
f 4/1197/207 70/1198/207 82/1199/207 16/1200/207
f 46/1201/208 47/1202/208 45/1203/208 44/1204/208
f 142/1205/144 134/1206/144 169/1207/144 172/1208/144
f 147/1209/209 137/1210/209 153/1211/209 156/1212/209
f 102/1213/210 103/1214/210 105/1215/210 104/1216/210
f 54/1217/34 58/1218/34 124/1219/34 120/1220/34
f 145/1221/211 139/1222/211 183/1223/211 182/1224/211
f 180/1225/212 177/1226/212 178/1227/212 179/1228/212
f 156/1229/213 153/1230/213 154/1231/213 155/1232/213
f 134/1233/214 142/1234/214 175/1235/214 174/1236/214
f 172/1237/1 169/1238/1 170/1239/1 171/1240/1
f 133/1241/215 141/1242/215 165/1243/215 168/1244/215
f 160/1245/216 157/1246/216 158/1247/216 159/1248/216
f 138/1249/217 146/1250/217 173/1251/217 176/1252/217
f 144/1253/218 140/1254/218 187/1255/218 186/1256/218
