# Blender v3.0.0 OBJ File: 'aa.blend'
# www.blender.org
mtllib Vase_L_1.mtl
o Vase_L_1
v 0.000000 -0.000000 -0.072571
v 0.000000 0.569211 -0.072599
v 0.051316 -0.000000 -0.051315
v 0.051335 0.569210 -0.051335
v 0.072571 0.000000 0.000000
v 0.072598 0.569211 -0.000000
v 0.051316 0.000000 0.051315
v 0.051335 0.569211 0.051335
v 0.000000 0.000000 0.072571
v 0.000000 0.569210 0.072598
v -0.051316 0.000000 0.051315
v -0.051335 0.569210 0.051335
v -0.072571 0.000000 0.000000
v -0.072598 0.569211 -0.000000
v -0.051316 -0.000000 -0.051315
v -0.051335 0.569211 -0.051335
v 0.000000 0.022891 -0.044662
v 0.031581 0.022891 -0.031581
v 0.044662 0.022891 -0.000000
v 0.031581 0.022891 0.031581
v 0.000000 0.022891 0.044662
v -0.031581 0.022891 0.031581
v -0.044662 0.022891 -0.000000
v -0.031581 0.022891 -0.031581
v 0.000000 0.071583 -0.031524
v 0.022291 0.071583 -0.022291
v 0.031524 0.071583 -0.000000
v 0.022291 0.071583 0.022291
v 0.000000 0.071583 0.031524
v -0.022291 0.071583 0.022291
v -0.031524 0.071583 -0.000000
v -0.022291 0.071583 -0.022291
v 0.000000 0.118678 -0.033333
v 0.023570 0.118678 -0.023570
v 0.033333 0.118678 -0.000000
v 0.023570 0.118678 0.023570
v 0.000000 0.118678 0.033333
v -0.023570 0.118678 0.023570
v -0.033333 0.118678 -0.000000
v -0.023570 0.118678 -0.023570
v 0.000000 0.245494 -0.064471
v 0.045588 0.245494 -0.045588
v 0.064471 0.245494 -0.000000
v 0.045588 0.245494 0.045588
v 0.000000 0.245494 0.064471
v -0.045588 0.245494 0.045588
v -0.064471 0.245494 -0.000000
v -0.045588 0.245494 -0.045588
v 0.000000 0.408179 -0.082360
v 0.058237 0.408179 -0.058237
v 0.082360 0.408179 -0.000000
v 0.058237 0.408179 0.058237
v 0.000000 0.408179 0.082359
v -0.058237 0.408179 0.058237
v -0.082360 0.408179 -0.000000
v -0.058237 0.408179 -0.058237
v 0.000000 0.482170 -0.055814
v 0.039467 0.482170 -0.039467
v 0.055814 0.482170 -0.000000
v 0.039467 0.482170 0.039466
v 0.000000 0.482170 0.055814
v -0.039467 0.482170 0.039466
v -0.055814 0.482170 -0.000000
v -0.039467 0.482170 -0.039467
v 0.036644 0.523806 0.036643
v -0.036643 0.523806 0.036643
v -0.051822 0.523806 -0.000000
v -0.036643 0.523806 -0.036644
v 0.059211 0.348404 -0.059211
v 0.083737 0.348404 -0.000000
v 0.059211 0.348404 0.059211
v 0.000000 0.348404 0.083737
v -0.059211 0.348404 0.059211
v -0.083737 0.348404 -0.000000
v -0.059211 0.348404 -0.059211
v 0.000000 0.348403 -0.083737
v 0.051337 0.012223 -0.051337
v 0.072601 0.012223 -0.000000
v 0.051337 0.012223 0.051337
v 0.000000 0.012223 0.072601
v -0.051337 0.012223 0.051337
v -0.072601 0.012223 -0.000000
v -0.051337 0.012223 -0.051337
v 0.000000 0.012223 -0.072601
v 0.000000 0.575984 -0.068120
v 0.048168 0.575984 -0.048168
v 0.068120 0.575984 -0.000000
v 0.048168 0.575984 0.048168
v 0.000000 0.575984 0.068120
v -0.048168 0.575984 0.048168
v -0.068120 0.575984 -0.000000
v -0.048168 0.575984 -0.048168
v 0.027715 0.121329 -0.000000
v -0.019597 0.121329 0.019597
v -0.027714 0.121329 -0.000000
v -0.019597 0.121329 -0.019597
v 0.000000 0.121329 -0.027715
v 0.019597 0.121329 -0.019597
v 0.019597 0.121329 0.019597
v 0.000000 0.121329 0.027714
v 0.000000 0.234009 -0.055190
v 0.039026 0.234009 -0.039026
v 0.055190 0.234009 -0.000000
v 0.039026 0.234010 0.039025
v 0.000000 0.234010 0.055190
v -0.039026 0.234010 0.039025
v -0.055190 0.234009 -0.000000
v -0.039026 0.234009 -0.039026
v 0.000000 0.477350 -0.049744
v 0.035174 0.477350 -0.035175
v 0.049744 0.477350 -0.000000
v 0.035174 0.477350 0.035174
v 0.000000 0.477350 0.049744
v -0.035174 0.477350 0.035174
v -0.049744 0.477350 -0.000000
v -0.035174 0.477350 -0.035175
v 0.032566 0.526942 -0.032566
v 0.046055 0.526942 -0.000000
v -0.046055 0.526942 -0.000000
v -0.032566 0.526942 -0.032566
v 0.048845 0.349623 -0.048845
v 0.069077 0.349623 -0.000000
v 0.048845 0.349623 0.048845
v -0.000000 0.349623 0.069077
v -0.048845 0.349623 0.048845
v -0.069077 0.349623 -0.000000
v -0.048845 0.349623 -0.048845
v -0.000000 0.349623 -0.069078
v 0.027891 0.000000 0.067334
v 0.027880 0.569236 0.067309
v 0.017165 0.022891 0.041440
v 0.012115 0.071583 0.029249
v 0.012811 0.118678 0.030928
v 0.024796 0.245485 0.059863
v 0.032351 0.388074 0.078102
v 0.020875 0.480775 0.050398
v 0.032361 0.348420 0.078125
v 0.027902 0.012223 0.067362
v 0.026180 0.575984 0.063204
v 0.010651 0.121329 0.025715
v 0.021211 0.234010 0.051208
v 0.019118 0.477350 0.046154
v 0.017700 0.526942 0.042731
v 0.026548 0.349623 0.064093
v -0.027891 0.000000 0.067334
v -0.027880 0.569236 0.067309
v -0.017165 0.022891 0.041440
v -0.012115 0.071583 0.029249
v -0.012811 0.118678 0.030928
v -0.024796 0.245485 0.059863
v -0.032351 0.388074 0.078102
v -0.020875 0.480775 0.050398
v -0.032361 0.348420 0.078125
v -0.027902 0.012223 0.067362
v -0.026180 0.575984 0.063204
v -0.010651 0.121329 0.025715
v -0.021211 0.234010 0.051208
v -0.019118 0.477350 0.046154
v -0.026548 0.349623 0.064093
v 0.067334 0.000000 0.027891
v 0.067309 0.569236 0.027880
v 0.041440 0.022891 0.017165
v 0.029249 0.071583 0.012115
v 0.030928 0.118678 0.012811
v 0.059864 0.245485 0.024796
v 0.078102 0.388074 0.032351
v 0.050398 0.480775 0.020875
v 0.047653 0.523738 0.019738
v 0.078125 0.348420 0.032360
v 0.067363 0.012223 0.027902
v 0.063205 0.575984 0.026180
v 0.025715 0.121329 0.010651
v 0.051208 0.234009 0.021211
v 0.046155 0.477350 0.019117
v 0.064093 0.349623 0.026548
v 0.067334 -0.000000 -0.027891
v 0.067309 0.569236 -0.027881
v 0.041440 0.022891 -0.017165
v 0.029249 0.071583 -0.012115
v 0.030928 0.118678 -0.012811
v 0.059864 0.245485 -0.024796
v 0.078102 0.388074 -0.032351
v 0.050398 0.480775 -0.020876
v 0.047653 0.523738 -0.019739
v 0.078125 0.348420 -0.032361
v 0.067363 0.012223 -0.027902
v 0.063205 0.575984 -0.026180
v 0.025715 0.121329 -0.010652
v 0.051208 0.234009 -0.021211
v 0.046155 0.477350 -0.019118
v 0.064093 0.349623 -0.026548
v 0.027891 -0.000000 -0.067334
v 0.027880 0.569236 -0.067309
v 0.017165 0.022891 -0.041440
v 0.012115 0.071583 -0.029249
v 0.012811 0.118678 -0.030928
v 0.024796 0.245484 -0.059864
v 0.032351 0.388074 -0.078103
v 0.020875 0.480775 -0.050398
v 0.019738 0.523738 -0.047653
v 0.032361 0.348420 -0.078126
v 0.027902 0.012223 -0.067362
v 0.026180 0.575984 -0.063205
v 0.010651 0.121329 -0.025715
v 0.021211 0.234009 -0.051208
v 0.019118 0.477350 -0.046155
v 0.026548 0.349623 -0.064093
v -0.027891 -0.000000 -0.067334
v -0.027880 0.569236 -0.067309
v -0.017165 0.022891 -0.041440
v -0.012115 0.071583 -0.029249
v -0.012811 0.118678 -0.030928
v -0.024796 0.245484 -0.059864
v -0.032351 0.388074 -0.078103
v -0.020875 0.480775 -0.050398
v -0.019738 0.523738 -0.047653
v -0.032361 0.348420 -0.078126
v -0.027902 0.012223 -0.067362
v -0.026180 0.575984 -0.063205
v -0.010651 0.121329 -0.025715
v -0.021211 0.234009 -0.051208
v -0.019118 0.477350 -0.046155
v -0.026548 0.349623 -0.064093
v -0.067334 -0.000000 -0.027891
v -0.067309 0.569236 -0.027881
v -0.041440 0.022891 -0.017165
v -0.029249 0.071583 -0.012115
v -0.030928 0.118678 -0.012811
v -0.059864 0.245485 -0.024796
v -0.078102 0.388074 -0.032351
v -0.050398 0.480775 -0.020876
v -0.078125 0.348420 -0.032361
v -0.067363 0.012223 -0.027902
v -0.063205 0.575984 -0.026180
v -0.025715 0.121329 -0.010652
v -0.051208 0.234009 -0.021211
v -0.046154 0.477350 -0.019118
v -0.064093 0.349623 -0.026548
v -0.067334 0.000000 0.027891
v -0.067309 0.569236 0.027880
v -0.041440 0.022891 0.017165
v -0.029249 0.071583 0.012115
v -0.030928 0.118678 0.012811
v -0.059864 0.245485 0.024796
v -0.078102 0.388074 0.032351
v -0.050398 0.480775 0.020875
v -0.047653 0.523738 0.019738
v -0.078125 0.348420 0.032360
v -0.067363 0.012223 0.027902
v -0.063205 0.575984 0.026180
v -0.025715 0.121329 0.010651
v -0.051208 0.234009 0.021211
v -0.046154 0.477350 0.019117
v -0.042732 0.526942 0.017700
v -0.064093 0.349623 0.026548
v 0.000000 0.526942 -0.046055
v 0.032566 0.526942 0.032565
v 0.000000 0.526942 0.046054
v -0.032566 0.526942 0.032565
v -0.017700 0.526942 0.042731
v 0.042732 0.526942 0.017700
v 0.042732 0.526942 -0.017700
v 0.017700 0.526942 -0.042732
v -0.017700 0.526942 -0.042732
v -0.042732 0.526942 -0.017700
v 0.000000 0.523806 -0.051822
v 0.036644 0.523806 -0.036644
v 0.051822 0.523806 -0.000000
v 0.000000 0.523806 0.051821
v 0.019738 0.523738 0.047653
v -0.019738 0.523738 0.047653
v -0.047653 0.523738 -0.019739
vt 0.968835 0.964662
vt 0.968835 0.929945
vt 0.983788 0.929938
vt 0.983788 0.964670
vt 0.154203 0.421154
vt 0.147064 0.387179
vt 0.154203 0.353204
vt 0.154203 0.494392
vt 0.147064 0.460417
vt 0.154203 0.426442
vt 0.642490 0.788957
vt 0.635351 0.754982
vt 0.642490 0.721007
vt 0.154203 0.274677
vt 0.147064 0.240702
vt 0.154203 0.206726
vt 0.154203 0.201438
vt 0.147064 0.167463
vt 0.154203 0.133488
vt 0.642490 0.715719
vt 0.635351 0.681744
vt 0.642490 0.647768
vt 0.642490 0.642480
vt 0.635351 0.608505
vt 0.642490 0.574530
vt 0.154203 0.347915
vt 0.147064 0.313940
vt 0.154203 0.279965
vt 0.810269 0.791187
vt 0.784266 0.728409
vt 0.810269 0.665632
vt 0.479291 0.772371
vt 0.453288 0.709593
vt 0.479291 0.646815
vt 0.808649 0.283101
vt 0.782646 0.220323
vt 0.808649 0.157545
vt 0.159491 0.050692
vt 0.207539 0.002644
vt 0.207539 0.166690
vt 0.141776 0.315629
vt 0.139049 0.302655
vt 0.141776 0.289680
vt 0.141776 0.253153
vt 0.139049 0.240178
vt 0.141776 0.227203
vt 0.141776 0.159438
vt 0.139049 0.146463
vt 0.141776 0.133488
vt 0.141776 0.346868
vt 0.139050 0.333893
vt 0.141776 0.320918
vt 0.141776 0.284391
vt 0.139049 0.271416
vt 0.141776 0.258441
vt 0.141776 0.221914
vt 0.139049 0.208940
vt 0.141776 0.195965
vt 0.141776 0.190676
vt 0.139049 0.177701
vt 0.141776 0.164726
vt 0.141776 0.378106
vt 0.139050 0.365131
vt 0.141776 0.352156
vt 0.463218 0.825608
vt 0.453288 0.801634
vt 0.463218 0.777659
vt 0.479291 0.825608
vt 0.469360 0.801634
vt 0.479291 0.777659
vt 0.792662 0.404954
vt 0.782731 0.380980
vt 0.792662 0.357005
vt 0.302827 0.526600
vt 0.292896 0.502625
vt 0.302827 0.478651
vt 0.441428 0.863490
vt 0.477467 0.856431
vt 0.477467 0.891163
vt 0.441428 0.884856
vt 0.808345 0.943000
vt 0.808345 0.977731
vt 0.772306 0.970673
vt 0.772306 0.949307
vt 0.927526 0.672690
vt 0.963565 0.665632
vt 0.963565 0.700363
vt 0.927526 0.694056
vt 0.028648 0.002644
vt 0.154203 0.002644
vt 0.154203 0.128200
vt 0.002644 0.065422
vt 0.963184 0.784072
vt 0.963184 0.818803
vt 0.927145 0.811745
vt 0.927145 0.790379
vt 0.925906 0.284633
vt 0.961945 0.277575
vt 0.961945 0.312306
vt 0.925906 0.305999
vt 0.961944 0.237555
vt 0.961944 0.272286
vt 0.925906 0.265227
vt 0.925906 0.243862
vt 0.908666 0.426239
vt 0.970293 0.422919
vt 0.970293 0.444285
vt 0.908666 0.441319
vt 0.971546 0.351969
vt 0.971546 0.373335
vt 0.909918 0.370015
vt 0.909918 0.354935
vt 0.881677 0.951304
vt 0.881677 0.929938
vt 0.943304 0.933258
vt 0.943304 0.948338
vt 0.908681 0.116589
vt 0.970309 0.113270
vt 0.970309 0.134636
vt 0.908681 0.131670
vt 0.971546 0.325315
vt 0.971546 0.346681
vt 0.909918 0.343361
vt 0.909918 0.328281
vt 0.558117 0.935371
vt 0.619744 0.932052
vt 0.619744 0.953418
vt 0.558117 0.950452
vt 0.814761 0.957313
vt 0.876389 0.953994
vt 0.876389 0.975359
vt 0.814761 0.972393
vt 0.934355 0.923772
vt 0.881677 0.924650
vt 0.883191 0.898254
vt 0.934355 0.899091
vt 0.815558 0.921119
vt 0.815558 0.899087
vt 0.876389 0.898254
vt 0.876389 0.922051
vt 0.705391 0.969655
vt 0.763046 0.970063
vt 0.763046 0.985143
vt 0.705391 0.985601
vt 0.278263 0.976768
vt 0.278263 0.991849
vt 0.220608 0.992257
vt 0.220608 0.976311
vt 0.558117 0.958706
vt 0.615773 0.959114
vt 0.615773 0.974195
vt 0.558117 0.974652
vt 0.509498 0.148846
vt 0.567154 0.149255
vt 0.567154 0.164335
vt 0.509499 0.164793
vt 0.550069 0.953274
vt 0.550069 0.968354
vt 0.492413 0.968763
vt 0.492413 0.952817
vt 0.215319 0.955534
vt 0.215319 0.970614
vt 0.157663 0.971022
vt 0.157663 0.955076
vt 0.384258 0.955076
vt 0.441914 0.955485
vt 0.441914 0.970565
vt 0.384258 0.971022
vt 0.909918 0.381989
vt 0.971546 0.378670
vt 0.971546 0.400036
vt 0.909918 0.397070
vt 0.733445 0.160308
vt 0.733445 0.279501
vt 0.694821 0.252918
vt 0.707150 0.157545
vt 0.752786 0.437726
vt 0.791409 0.411143
vt 0.791409 0.530336
vt 0.765115 0.533099
vt 0.778977 0.668394
vt 0.778977 0.787587
vt 0.740353 0.761005
vt 0.752683 0.665632
vt 0.695831 0.024364
vt 0.695831 0.143558
vt 0.657206 0.116975
vt 0.669536 0.021602
vt 0.783655 0.024364
vt 0.783655 0.143558
vt 0.745031 0.116975
vt 0.757361 0.021602
vt 0.708873 0.437726
vt 0.747497 0.411143
vt 0.747497 0.530336
vt 0.721203 0.533099
vt 0.621048 0.437726
vt 0.659672 0.411143
vt 0.659672 0.530336
vt 0.633378 0.533099
vt 0.696441 0.692215
vt 0.735065 0.665632
vt 0.735065 0.784825
vt 0.708770 0.787587
vt 0.887961 0.886774
vt 0.886447 0.860378
vt 0.939125 0.861257
vt 0.939125 0.885937
vt 0.485953 0.948909
vt 0.433275 0.949788
vt 0.434789 0.923392
vt 0.485953 0.924229
vt 0.376823 0.949788
vt 0.375309 0.923392
vt 0.427987 0.924271
vt 0.427987 0.948951
vt 0.939125 0.854212
vt 0.886447 0.855090
vt 0.887961 0.828694
vt 0.939125 0.829531
vt 0.273285 0.948910
vt 0.220608 0.949788
vt 0.222122 0.923392
vt 0.273285 0.924229
vt 0.215319 0.948910
vt 0.162641 0.949788
vt 0.164156 0.923392
vt 0.215319 0.924229
vt 0.493927 0.947528
vt 0.492413 0.921132
vt 0.545091 0.922011
vt 0.545091 0.946691
vt 0.130761 0.491946
vt 0.002738 0.487984
vt 0.002644 0.457130
vt 0.130761 0.451766
vt 0.130761 0.446478
vt 0.002738 0.442516
vt 0.002644 0.411662
vt 0.130761 0.406298
vt 0.322757 0.527735
vt 0.322851 0.496881
vt 0.450874 0.492919
vt 0.450874 0.533099
vt 0.002644 0.168303
vt 0.002738 0.137449
vt 0.130761 0.133488
vt 0.130761 0.173668
vt 0.002644 0.259240
vt 0.002738 0.228386
vt 0.130761 0.224425
vt 0.130761 0.264605
vt 0.287608 0.518830
vt 0.159585 0.514869
vt 0.159491 0.484015
vt 0.287608 0.478651
vt 0.002644 0.350177
vt 0.002738 0.319322
vt 0.130761 0.315361
vt 0.130761 0.355541
vt 0.002644 0.395645
vt 0.002738 0.364791
vt 0.130761 0.360829
vt 0.130761 0.401009
vt 0.136475 0.938636
vt 0.151429 0.938642
vt 0.151429 0.973359
vt 0.136475 0.973367
vt 0.215319 0.976768
vt 0.215319 0.991848
vt 0.157663 0.992257
vt 0.157663 0.976311
vt 0.963546 0.929946
vt 0.963546 0.964663
vt 0.948593 0.964670
vt 0.948593 0.929938
vt 0.968472 0.784072
vt 0.983426 0.784078
vt 0.983426 0.818795
vt 0.968472 0.818803
vt 0.968853 0.700355
vt 0.968853 0.665638
vt 0.983806 0.665632
vt 0.983806 0.700363
vt 0.982186 0.157523
vt 0.982186 0.192239
vt 0.967233 0.192246
vt 0.967233 0.157515
vt 0.136049 0.502682
vt 0.151003 0.502689
vt 0.151003 0.537406
vt 0.136049 0.537414
vt 0.967233 0.237555
vt 0.982186 0.237561
vt 0.982186 0.272278
vt 0.967233 0.272286
vt 0.629396 0.752914
vt 0.629396 0.779316
vt 0.487643 0.772375
vt 0.487643 0.759116
vt 0.487643 0.715934
vt 0.487643 0.689532
vt 0.629397 0.696473
vt 0.629397 0.709731
vt 0.304914 0.786865
vt 0.446667 0.793068
vt 0.446667 0.806326
vt 0.304914 0.813267
vt 0.792662 0.293624
vt 0.792662 0.320026
vt 0.650909 0.313085
vt 0.650909 0.299827
vt 0.629396 0.784605
vt 0.629396 0.811007
vt 0.487643 0.804065
vt 0.487643 0.790807
vt 0.299625 0.755174
vt 0.299625 0.781576
vt 0.157872 0.774635
vt 0.157872 0.761377
vt 0.777104 0.365840
vt 0.777104 0.392242
vt 0.635351 0.385301
vt 0.635351 0.372043
vt 0.447999 0.650324
vt 0.447999 0.676726
vt 0.305580 0.679861
vt 0.305580 0.646815
vt 0.157872 0.685149
vt 0.300291 0.688284
vt 0.300291 0.714686
vt 0.157872 0.718195
vt 0.305580 0.714686
vt 0.305580 0.688284
vt 0.447999 0.685149
vt 0.447999 0.718195
vt 0.480734 0.205024
vt 0.322757 0.200659
vt 0.322757 0.176862
vt 0.480734 0.171979
vt 0.651918 0.037352
vt 0.651918 0.063755
vt 0.509498 0.066890
vt 0.509498 0.033844
vt 0.145064 0.652416
vt 0.002644 0.649281
vt 0.002644 0.622878
vt 0.145064 0.619370
vt 0.370805 0.112358
vt 0.212828 0.107993
vt 0.212828 0.084197
vt 0.370805 0.079312
vt 0.317469 0.243358
vt 0.159491 0.238994
vt 0.159491 0.215197
vt 0.317469 0.210313
vt 0.159491 0.315142
vt 0.159491 0.291346
vt 0.317469 0.286981
vt 0.317469 0.320026
vt 0.480735 0.320026
vt 0.322757 0.315662
vt 0.322757 0.291865
vt 0.480735 0.286981
vt 0.322757 0.276808
vt 0.322757 0.253011
vt 0.480735 0.248647
vt 0.480735 0.281692
vt 0.159491 0.353476
vt 0.159491 0.329679
vt 0.317469 0.325315
vt 0.317469 0.358360
vt 0.322757 0.353476
vt 0.322757 0.329679
vt 0.480735 0.325315
vt 0.480735 0.358360
vt 0.317469 0.396694
vt 0.159491 0.392330
vt 0.159491 0.368533
vt 0.317469 0.363649
vt 0.376094 0.068660
vt 0.376188 0.037805
vt 0.504210 0.033844
vt 0.504210 0.074024
vt 0.145064 0.584545
vt 0.145064 0.610947
vt 0.002644 0.614082
vt 0.002644 0.581036
vt 0.503044 0.003576
vt 0.503044 0.025608
vt 0.442213 0.026441
vt 0.442213 0.002644
vt 0.002644 0.657704
vt 0.145064 0.660839
vt 0.145064 0.687242
vt 0.002644 0.690750
vt 0.228761 0.895239
vt 0.289592 0.894307
vt 0.289592 0.918104
vt 0.228761 0.917271
vt 0.921857 0.806936
vt 0.861026 0.807868
vt 0.861026 0.784072
vt 0.921857 0.784904
vt 0.867587 0.499301
vt 0.928418 0.498369
vt 0.928418 0.522166
vt 0.867587 0.521333
vt 0.859406 0.268191
vt 0.859406 0.246159
vt 0.920237 0.245326
vt 0.920237 0.269123
vt 0.861026 0.706568
vt 0.921857 0.705636
vt 0.921857 0.729433
vt 0.861026 0.728600
vt 0.068764 0.910483
vt 0.129595 0.909551
vt 0.129595 0.933347
vt 0.068764 0.932515
vt 0.370805 0.150692
vt 0.212828 0.146328
vt 0.212828 0.122531
vt 0.370805 0.117646
vt 0.376093 0.003576
vt 0.436924 0.002644
vt 0.436924 0.026441
vt 0.376093 0.025608
vt 0.630063 0.645910
vt 0.487643 0.642775
vt 0.487643 0.616373
vt 0.630063 0.612864
vt 0.299625 0.749886
vt 0.157872 0.743683
vt 0.157872 0.730425
vt 0.299625 0.723483
vt 0.962982 0.660335
vt 0.962982 0.625618
vt 0.977936 0.625612
vt 0.977936 0.660343
vt 0.130761 0.219136
vt 0.002738 0.215175
vt 0.002644 0.184321
vt 0.130761 0.178956
vt 0.876716 0.564783
vt 0.875201 0.538387
vt 0.927879 0.539266
vt 0.927879 0.563946
vt 0.740353 0.564970
vt 0.778977 0.538387
vt 0.778977 0.657581
vt 0.752683 0.660343
vt 0.984801 0.713944
vt 0.984801 0.729024
vt 0.927145 0.729433
vt 0.927145 0.713487
vt 0.378970 0.955076
vt 0.378970 0.976442
vt 0.317343 0.973123
vt 0.317343 0.958042
vt 0.933707 0.494493
vt 0.969745 0.487435
vt 0.969745 0.522166
vt 0.933707 0.515859
vt 0.376094 0.159596
vt 0.376188 0.128742
vt 0.504210 0.124780
vt 0.504210 0.164960
vt 0.508332 0.003576
vt 0.569164 0.002644
vt 0.569164 0.026441
vt 0.508332 0.025608
vt 0.157872 0.646815
vt 0.300291 0.649951
vt 0.300291 0.676353
vt 0.157872 0.679861
vt 0.629422 0.851019
vt 0.629422 0.816302
vt 0.644375 0.816295
vt 0.644375 0.851026
vt 0.450874 0.442163
vt 0.322851 0.438201
vt 0.322757 0.407347
vt 0.450874 0.401983
vt 0.932557 0.047119
vt 0.879879 0.047998
vt 0.881394 0.021602
vt 0.932557 0.022439
vt 0.696441 0.564970
vt 0.735065 0.538387
vt 0.735065 0.657581
vt 0.708770 0.660343
vt 0.630099 0.149303
vt 0.630099 0.164384
vt 0.572443 0.164793
vt 0.572443 0.148846
vt 0.814761 0.930659
vt 0.876389 0.927339
vt 0.876389 0.948705
vt 0.814761 0.945739
vt 0.946795 0.078664
vt 0.982834 0.071605
vt 0.982834 0.106336
vt 0.946795 0.100029
vt 0.925906 0.204593
vt 0.961944 0.197535
vt 0.961944 0.232266
vt 0.925906 0.225959
vt 0.159491 0.430144
vt 0.159491 0.406347
vt 0.317469 0.401983
vt 0.317469 0.435028
vt 0.002644 0.932415
vt 0.002644 0.910383
vt 0.063475 0.909551
vt 0.063475 0.933347
vt 0.630063 0.369349
vt 0.630063 0.395751
vt 0.487643 0.398886
vt 0.487643 0.365840
vt 0.650909 0.325315
vt 0.792662 0.331518
vt 0.792662 0.344776
vt 0.650909 0.351717
vt 0.297101 0.923392
vt 0.312054 0.923399
vt 0.312054 0.958116
vt 0.297101 0.958124
vt 0.299625 0.813267
vt 0.157872 0.807064
vt 0.157872 0.793806
vt 0.299625 0.786865
vt 0.697955 0.937712
vt 0.696441 0.911316
vt 0.749119 0.912194
vt 0.749119 0.936875
vt 0.691152 0.668394
vt 0.691152 0.787587
vt 0.652529 0.761005
vt 0.664858 0.665632
vt 0.131187 0.965747
vt 0.131187 0.980828
vt 0.073531 0.981236
vt 0.073531 0.965290
vt 0.767018 0.943000
vt 0.767018 0.964366
vt 0.705391 0.961047
vt 0.705391 0.945966
vt 0.980451 0.852043
vt 0.980451 0.886774
vt 0.944413 0.879716
vt 0.944413 0.858350
vt 0.212828 0.069140
vt 0.212828 0.045343
vt 0.370805 0.040978
vt 0.370805 0.074024
vt 0.574452 0.025509
vt 0.574452 0.003477
vt 0.635283 0.002644
vt 0.635283 0.026441
vt 0.002644 0.542702
vt 0.145064 0.545837
vt 0.145064 0.572239
vt 0.002644 0.575748
vt 0.144397 0.727729
vt 0.144397 0.754131
vt 0.002644 0.747190
vt 0.002644 0.733932
vt 0.967233 0.197535
vt 0.982186 0.197542
vt 0.982186 0.232258
vt 0.967233 0.232266
vt 0.376094 0.114128
vt 0.376187 0.083274
vt 0.504210 0.079312
vt 0.504210 0.119492
vt 0.876716 0.596468
vt 0.875201 0.570072
vt 0.927879 0.570950
vt 0.927879 0.595630
vt 0.701119 0.048185
vt 0.739743 0.021602
vt 0.739743 0.140795
vt 0.713448 0.143558
vt 0.638475 0.969655
vt 0.696131 0.970063
vt 0.696131 0.985144
vt 0.638475 0.985601
vt 0.131187 0.956682
vt 0.069560 0.960002
vt 0.069560 0.938636
vt 0.131187 0.941601
vt 0.969206 0.538387
vt 0.969206 0.573119
vt 0.933168 0.566060
vt 0.933168 0.544694
vt 0.317469 0.200140
vt 0.159491 0.205024
vt 0.159491 0.171979
vt 0.317469 0.176343
vt 0.162641 0.895239
vt 0.223472 0.894307
vt 0.223472 0.918104
vt 0.162641 0.917271
vt 0.651918 0.114020
vt 0.651918 0.140423
vt 0.509499 0.143558
vt 0.509498 0.110512
vt 0.629396 0.747625
vt 0.487643 0.741423
vt 0.487643 0.728164
vt 0.629396 0.721223
vt 0.135645 0.904270
vt 0.135645 0.869553
vt 0.150598 0.869546
vt 0.150598 0.904277
vt 0.450874 0.487631
vt 0.322851 0.483669
vt 0.322757 0.452815
vt 0.450874 0.447451
vt 0.755922 0.937712
vt 0.754407 0.911316
vt 0.807085 0.912194
vt 0.807085 0.936875
vt 0.664961 0.437726
vt 0.703585 0.411143
vt 0.703585 0.530336
vt 0.677290 0.533099
vt 0.691153 0.936834
vt 0.638475 0.937712
vt 0.639989 0.911316
vt 0.691153 0.912153
vt 0.060300 0.965747
vt 0.060300 0.980828
vt 0.002644 0.981236
vt 0.002644 0.965290
vt 0.638475 0.946320
vt 0.700102 0.943000
vt 0.700102 0.964366
vt 0.638475 0.961400
vt 0.963564 0.744052
vt 0.963564 0.778783
vt 0.927526 0.771725
vt 0.927526 0.750359
vt 0.159491 0.468478
vt 0.159491 0.444681
vt 0.317469 0.440317
vt 0.317469 0.473362
vt 0.487643 0.208121
vt 0.630063 0.211256
vt 0.630063 0.237658
vt 0.487643 0.241167
vt 0.630063 0.654706
vt 0.630063 0.681108
vt 0.487643 0.684244
vt 0.487643 0.651198
vt 0.002644 0.785822
vt 0.002644 0.759420
vt 0.144397 0.766362
vt 0.144397 0.779620
vt 0.967233 0.312298
vt 0.967233 0.277581
vt 0.982186 0.277575
vt 0.982186 0.312306
vt 0.130761 0.310073
vt 0.002738 0.306111
vt 0.002644 0.275257
vt 0.130761 0.269893
vt 0.318857 0.949788
vt 0.317343 0.923392
vt 0.370020 0.924270
vt 0.370020 0.948951
vt 0.881677 0.956593
vt 0.939333 0.957001
vt 0.939333 0.972082
vt 0.881677 0.972539
vt 0.970293 0.449574
vt 0.970293 0.470939
vt 0.908666 0.467620
vt 0.908666 0.452539
vt 0.937846 0.028660
vt 0.973884 0.021602
vt 0.973884 0.056333
vt 0.937846 0.050026
vt 0.961945 0.157515
vt 0.961945 0.192246
vt 0.925906 0.185188
vt 0.925906 0.163822
vt 0.317469 0.281692
vt 0.159491 0.277327
vt 0.159491 0.253531
vt 0.317469 0.248647
vt 0.360481 0.895239
vt 0.360481 0.917271
vt 0.299650 0.918104
vt 0.299650 0.894307
vt 0.630063 0.607576
vt 0.487643 0.604441
vt 0.487643 0.578039
vt 0.630063 0.574530
vt 0.002644 0.696038
vt 0.144398 0.702242
vt 0.144398 0.715500
vt 0.002644 0.722441
vt 0.741909 0.792876
vt 0.756863 0.792883
vt 0.756863 0.827600
vt 0.741909 0.827607
vt 0.130761 0.537414
vt 0.002738 0.533453
vt 0.002644 0.502598
vt 0.130761 0.497234
vt 0.691153 0.541150
vt 0.691153 0.660343
vt 0.652529 0.633760
vt 0.664858 0.538387
vt 0.492413 0.974051
vt 0.550069 0.974460
vt 0.550069 0.989540
vt 0.492413 0.989997
vt 0.879879 0.106336
vt 0.879879 0.084971
vt 0.941507 0.088290
vt 0.941507 0.103371
vt 0.921655 0.660343
vt 0.921655 0.625612
vt 0.957694 0.632670
vt 0.957694 0.654036
vt 0.212828 0.030805
vt 0.212828 0.007008
vt 0.370805 0.002644
vt 0.370805 0.035690
vt 0.375309 0.917172
vt 0.375309 0.895140
vt 0.436140 0.894307
vt 0.436140 0.918104
vt 0.447333 0.749886
vt 0.305580 0.743683
vt 0.305580 0.730425
vt 0.447333 0.723483
vt 0.220608 0.955076
vt 0.278263 0.955485
vt 0.278263 0.970565
vt 0.220608 0.971022
vt 0.304914 0.755174
vt 0.446667 0.761376
vt 0.446667 0.774634
vt 0.304914 0.781576
vt 0.932557 0.078804
vt 0.879879 0.079682
vt 0.881394 0.053286
vt 0.932557 0.054123
vt 0.689533 0.160308
vt 0.689533 0.279501
vt 0.650909 0.252918
vt 0.663238 0.157545
vt 0.492413 0.914912
vt 0.492413 0.892880
vt 0.553244 0.892047
vt 0.553244 0.915844
vt 0.064271 0.938636
vt 0.064271 0.960002
vt 0.002644 0.956682
vt 0.002644 0.941602
vt 0.933168 0.585466
vt 0.969206 0.578407
vt 0.969206 0.613139
vt 0.933168 0.606831
vt 0.777357 0.160308
vt 0.777357 0.279501
vt 0.738733 0.252918
vt 0.751063 0.157545
vt 0.509498 0.101715
vt 0.509498 0.075313
vt 0.651918 0.072178
vt 0.651918 0.105224
vt 0.983806 0.778783
vt 0.968853 0.778776
vt 0.968853 0.744059
vt 0.983806 0.744052
vt 0.788944 0.147986
vt 0.788944 0.100037
vt 0.836893 0.100038
vt 0.836893 0.147986
vt 0.855737 0.738779
vt 0.815558 0.738612
vt 0.815741 0.690101
vt 0.855737 0.665632
vt 0.904630 0.400036
vt 0.843418 0.394683
vt 0.843724 0.370004
vt 0.904630 0.365320
vt 0.916367 0.660343
vt 0.855155 0.654990
vt 0.855461 0.630311
vt 0.916367 0.625627
vt 0.859712 0.187577
vt 0.859406 0.162899
vt 0.920617 0.157545
vt 0.920617 0.192262
vt 0.842472 0.439600
vt 0.842166 0.414922
vt 0.903378 0.409569
vt 0.903378 0.444285
vt 0.922237 0.778783
vt 0.861026 0.773430
vt 0.861332 0.748752
vt 0.922237 0.744067
vt 0.975092 0.521051
vt 0.975034 0.488463
vt 0.984915 0.487435
vt 0.984915 0.522151
vt 0.903393 0.147986
vt 0.842181 0.142633
vt 0.842488 0.117954
vt 0.903393 0.113270
vt 0.691153 0.906027
vt 0.629941 0.900674
vt 0.630247 0.875996
vt 0.691153 0.871311
vt 0.829917 0.587065
vt 0.829734 0.538554
vt 0.869913 0.538387
vt 0.869913 0.611534
vt 0.456162 0.464669
vt 0.615759 0.456776
vt 0.615759 0.487631
vt 0.456164 0.480615
vt 0.487643 0.546280
vt 0.647240 0.538387
vt 0.647240 0.569241
vt 0.487645 0.562226
vt 0.157872 0.597492
vt 0.157873 0.581545
vt 0.317469 0.574530
vt 0.317469 0.605384
vt 0.486023 0.256540
vt 0.645620 0.248647
vt 0.645620 0.279501
vt 0.486025 0.272486
vt 0.456162 0.443595
vt 0.456164 0.427649
vt 0.615760 0.420634
vt 0.615760 0.451488
vt 0.486023 0.333208
vt 0.645621 0.325315
vt 0.645621 0.356169
vt 0.486024 0.349154
vt 0.486023 0.309942
vt 0.486024 0.293996
vt 0.645621 0.286981
vt 0.645621 0.317835
vt 0.104401 0.839788
vt 0.104218 0.791277
vt 0.144397 0.791110
vt 0.144397 0.864257
vt 0.088292 0.864257
vt 0.048112 0.864091
vt 0.048295 0.815580
vt 0.088292 0.791110
vt 0.789127 0.070279
vt 0.788944 0.021769
vt 0.829123 0.021602
vt 0.829123 0.094749
vt 0.002828 0.839788
vt 0.002644 0.791277
vt 0.042824 0.791110
vt 0.042824 0.864257
vt 0.838130 0.398462
vt 0.797950 0.398295
vt 0.798134 0.349785
vt 0.838130 0.325315
vt 0.874591 0.094749
vt 0.834412 0.094582
vt 0.834595 0.046072
vt 0.874591 0.021602
vt 0.810269 0.869622
vt 0.770090 0.869456
vt 0.770273 0.820945
vt 0.810269 0.796475
vt 0.228761 0.856431
vt 0.294362 0.861412
vt 0.294362 0.883444
vt 0.228761 0.889019
vt 0.903378 0.484290
vt 0.842166 0.478936
vt 0.842472 0.454258
vt 0.903378 0.449574
vt 0.365251 0.856431
vt 0.365251 0.889019
vt 0.299650 0.883444
vt 0.299650 0.861412
vt 0.624133 0.848883
vt 0.558532 0.843902
vt 0.558532 0.821870
vt 0.624133 0.816295
vt 0.370514 0.818555
vt 0.370514 0.851143
vt 0.304914 0.845568
vt 0.304914 0.823536
vt 0.553244 0.854171
vt 0.553244 0.886759
vt 0.487643 0.881184
vt 0.487643 0.859152
vt 0.436140 0.889019
vt 0.370539 0.884038
vt 0.370539 0.862006
vt 0.436140 0.856431
vt 0.881158 0.855090
vt 0.815558 0.850109
vt 0.815558 0.828077
vt 0.881158 0.822502
vt 0.881158 0.860378
vt 0.881158 0.892966
vt 0.815558 0.887391
vt 0.815558 0.865360
vt 0.456162 0.510137
vt 0.615760 0.502245
vt 0.615760 0.533099
vt 0.456164 0.526083
vt 0.975655 0.146886
vt 0.975597 0.114299
vt 0.985478 0.113270
vt 0.985478 0.147986
vt 0.976892 0.358931
vt 0.976834 0.326343
vt 0.986715 0.325315
vt 0.986715 0.360031
vt 0.621119 0.992322
vt 0.621062 0.959735
vt 0.630943 0.958706
vt 0.630943 0.993422
vt 0.983282 0.626727
vt 0.993105 0.625627
vt 0.993105 0.660343
vt 0.983224 0.659315
vt 0.979231 0.055218
vt 0.979173 0.022631
vt 0.989054 0.021602
vt 0.989054 0.056318
vt 0.447260 0.956176
vt 0.457084 0.955076
vt 0.457084 0.989792
vt 0.447203 0.988764
vt 0.987533 0.231151
vt 0.987475 0.198563
vt 0.997356 0.197535
vt 0.997356 0.232251
vt 0.987533 0.158630
vt 0.997356 0.157530
vt 0.997356 0.192246
vt 0.987475 0.191218
vt 0.985798 0.853143
vt 0.995621 0.852043
vt 0.995621 0.886759
vt 0.985740 0.885731
vt 0.861332 0.695664
vt 0.861026 0.670985
vt 0.922237 0.665632
vt 0.922237 0.700348
vt 0.696624 0.841553
vt 0.696441 0.793042
vt 0.736621 0.792876
vt 0.736621 0.866023
vt 0.157872 0.561349
vt 0.157873 0.545403
vt 0.317469 0.538387
vt 0.317469 0.569242
vt 0.859712 0.227582
vt 0.859406 0.202903
vt 0.920617 0.197550
vt 0.920617 0.232266
vt 0.974553 0.539488
vt 0.984376 0.538387
vt 0.984376 0.573104
vt 0.974495 0.572075
vt 0.322758 0.618566
vt 0.482355 0.610673
vt 0.482355 0.641527
vt 0.322759 0.634512
vt 0.796698 0.489578
vt 0.862299 0.494559
vt 0.862299 0.516591
vt 0.796698 0.522166
vt 0.855737 0.817214
vt 0.815558 0.817048
vt 0.815741 0.768537
vt 0.855737 0.744067
vt 0.157872 0.633634
vt 0.157873 0.617688
vt 0.317469 0.610673
vt 0.317469 0.641527
vt 0.558839 0.922079
vt 0.558532 0.897401
vt 0.619744 0.892047
vt 0.619744 0.926763
vt 0.624133 0.886759
vt 0.558533 0.881778
vt 0.558532 0.859746
vt 0.624133 0.854171
vt 0.814121 0.284658
vt 0.813938 0.236147
vt 0.854117 0.235981
vt 0.854117 0.309128
vt 0.322757 0.218206
vt 0.482355 0.210313
vt 0.482355 0.241167
vt 0.322759 0.234152
vt 0.920617 0.309128
vt 0.859406 0.303774
vt 0.859712 0.279096
vt 0.920617 0.274412
vt 0.635409 0.209222
vt 0.645233 0.208121
vt 0.645233 0.242838
vt 0.635351 0.241809
vt 0.487643 0.848883
vt 0.487643 0.816295
vt 0.553244 0.821870
vt 0.553244 0.843902
vt 0.322757 0.388802
vt 0.322759 0.372855
vt 0.482355 0.365840
vt 0.482355 0.396694
vt 0.696747 0.901343
vt 0.696441 0.876665
vt 0.757653 0.871311
vt 0.757653 0.906028
vt 0.462430 0.956176
vt 0.472253 0.955076
vt 0.472253 0.989792
vt 0.462372 0.988764
vt 0.784266 0.627756
vt 0.849866 0.632737
vt 0.849866 0.654769
vt 0.784266 0.660343
vt 0.796881 0.459820
vt 0.796698 0.411310
vt 0.836877 0.411143
vt 0.836877 0.484290
vt 0.976892 0.398936
vt 0.976834 0.366349
vt 0.986715 0.365320
vt 0.986715 0.400036
vt 0.974553 0.579507
vt 0.984376 0.578407
vt 0.984376 0.613124
vt 0.974495 0.612095
vt 0.223472 0.818555
vt 0.223472 0.851143
vt 0.157872 0.845568
vt 0.157872 0.823536
vt 0.651157 0.841553
vt 0.650973 0.793042
vt 0.691153 0.792876
vt 0.691153 0.866023
vt 0.486023 0.194940
vt 0.486024 0.178994
vt 0.645620 0.171979
vt 0.645620 0.202833
vt 0.069451 0.899578
vt 0.069144 0.874899
vt 0.130356 0.869546
vt 0.130356 0.904262
vt 0.375803 0.851143
vt 0.375803 0.818555
vt 0.441403 0.824130
vt 0.441403 0.846162
vt 0.294362 0.851143
vt 0.228761 0.846162
vt 0.228761 0.824130
vt 0.294362 0.818555
vt 0.854117 0.230692
vt 0.813938 0.230526
vt 0.814121 0.182015
vt 0.854117 0.157545
vt 0.322757 0.561349
vt 0.322759 0.545403
vt 0.482355 0.538387
vt 0.482355 0.569242
vt 0.002951 0.899578
vt 0.002644 0.874899
vt 0.063856 0.869546
vt 0.063856 0.904262
vt 0.975640 0.456535
vt 0.975582 0.423948
vt 0.985463 0.422919
vt 0.985463 0.457636
vt 0.157872 0.889019
vt 0.157872 0.856431
vt 0.223472 0.862006
vt 0.223472 0.884038
vt 0.824445 0.611534
vt 0.784266 0.611368
vt 0.784449 0.562857
vt 0.824445 0.538387
vt 0.904630 0.360031
vt 0.843418 0.354678
vt 0.843725 0.329999
vt 0.904630 0.325315
vt 0.322757 0.582423
vt 0.482355 0.574530
vt 0.482355 0.605384
vt 0.322759 0.598369
vn 0.1845 -0.0024 -0.9828
vn 0.0000 -1.0000 0.0000
vn 0.0000 1.0000 0.0000
vn 0.2989 0.9321 -0.2044
vn 0.0668 0.9321 0.3559
vn -0.3559 0.9321 -0.0668
vn -0.3559 0.9321 0.0668
vn 0.3559 0.9321 0.0668
vn 0.2989 0.9321 0.2044
vn -0.9500 0.2563 -0.1784
vn 0.1784 0.2563 0.9500
vn 0.7979 0.2563 0.5456
vn 0.9500 0.2563 0.1784
vn -0.9500 0.2563 0.1784
vn -0.7979 0.2563 0.5456
vn 0.1784 0.2563 -0.9500
vn -0.8493 0.0803 0.5217
vn 0.9802 -0.0729 0.1840
vn -0.8249 -0.0377 -0.5641
vn 0.1844 -0.0377 -0.9821
vn 0.9821 -0.0377 -0.1844
vn -0.5641 -0.0377 0.8249
vn 0.5641 -0.0377 0.8249
vn 0.8249 -0.0377 -0.5641
vn 0.5641 -0.0377 -0.8249
vn -0.1784 0.2563 0.9500
vn 0.4331 0.3141 0.8448
vn 0.9036 0.3141 -0.2911
vn 0.9036 0.3141 0.2911
vn -0.4331 0.3141 -0.8448
vn 0.2911 0.3141 -0.9036
vn 0.2911 0.3141 0.9036
vn 0.8448 0.3141 0.4331
vn -0.9036 0.3141 0.2911
vn 0.9695 0.0803 -0.2317
vn -0.2317 0.0803 0.9695
vn 0.2317 0.0803 0.9695
vn 0.9695 0.0803 0.2317
vn -0.9695 0.0803 -0.2317
vn 0.2317 0.0803 -0.9695
vn -0.9695 0.0803 0.2317
vn -0.8067 -0.1828 -0.5620
vn 0.5620 -0.1828 -0.8067
vn -0.5620 -0.1828 -0.8067
vn -0.1731 -0.1828 0.9678
vn 0.8067 -0.1828 -0.5620
vn 0.1731 -0.1828 0.9678
vn -0.9678 -0.1828 -0.1731
vn 0.9678 -0.1828 0.1731
vn 0.5645 -0.0024 -0.8254
vn -0.1844 -0.0377 0.9821
vn 0.5645 -0.0024 0.8254
vn 0.1845 -0.0024 0.9828
vn -0.1845 -0.0024 0.9828
vn 0.9828 -0.0024 0.1845
vn -0.8254 -0.0024 -0.5645
vn 0.9828 -0.0024 -0.1845
vn 0.5489 0.2330 -0.8027
vn -0.5489 0.2331 0.8027
vn 0.8027 0.2330 -0.5489
vn 0.8027 0.2330 0.5489
vn -0.1794 0.2330 -0.9558
vn -0.8027 0.2330 -0.5489
vn -0.9558 0.2331 0.1794
vn 0.9760 0.1172 -0.1833
vn -0.5606 0.1172 -0.8198
vn -0.9760 0.1172 0.1833
vn 0.5583 -0.1471 -0.8165
vn -0.8198 0.1172 -0.5606
vn 0.5606 0.1172 0.8198
vn 0.9721 -0.1471 -0.1825
vn 0.8165 -0.1471 0.5583
vn -0.1825 -0.1471 0.9721
vn -0.9721 -0.1471 0.1825
vn -0.9721 -0.1471 -0.1825
vn 0.1825 -0.1471 -0.9721
vn 0.9721 -0.1471 0.1825
vn -0.5583 -0.1471 0.8165
vn 0.5620 -0.1828 0.8067
vn -0.1833 0.1172 -0.9760
vn -0.8232 -0.0729 0.5630
vn -0.9760 0.1172 -0.1833
vn -0.1840 -0.0729 -0.9802
vn 0.8232 -0.0729 0.5630
vn -0.9802 -0.0729 0.1840
vn 0.8232 -0.0729 -0.5630
vn 0.9802 -0.0729 -0.1840
vn -0.5630 -0.0729 0.8232
vn -0.8165 -0.1471 -0.5583
vn -0.8232 -0.0729 -0.5630
vn 0.8198 0.1172 -0.5606
vn -0.9558 0.2331 -0.1794
vn -0.5645 -0.0024 -0.8254
vn -0.1731 -0.1828 -0.9678
vn 0.5217 0.0803 -0.8493
vn -0.2911 0.3141 -0.9036
vn -0.9821 -0.0377 -0.1844
vn -0.1784 0.2563 -0.9500
vn 0.2044 0.9321 0.2989
vn 0.1731 -0.1828 -0.9678
vn 0.5630 -0.0729 -0.8232
vn 0.9760 0.1172 0.1833
vn -0.8254 -0.0024 0.5645
vn 0.8067 -0.1828 0.5620
vn 0.5217 0.0803 0.8493
vn -0.4331 0.3141 0.8448
vn -0.5641 -0.0377 -0.8249
vn 0.5456 0.2563 0.7979
vn -0.0668 0.9321 0.3559
vn -0.2989 0.9321 0.2044
vn -0.8165 -0.1471 0.5583
vn -0.5630 -0.0729 -0.8232
vn 0.1833 0.1172 0.9760
vn -0.8027 0.2330 0.5489
vn -0.5645 -0.0024 0.8254
vn 0.1794 0.2330 -0.9558
vn 0.8493 0.0803 0.5217
vn -0.9036 0.3141 -0.2911
vn -0.8249 -0.0377 0.5641
vn -0.7979 0.2563 -0.5456
vn -0.0668 0.9321 -0.3559
vn 0.5583 -0.1471 0.8165
vn 0.5630 -0.0729 0.8232
vn -0.1833 0.1172 0.9760
vn 0.9558 0.2331 -0.1794
vn -0.9828 -0.0024 0.1845
vn -0.8067 -0.1828 0.5620
vn -0.5217 0.0803 0.8493
vn 0.4331 0.3141 -0.8448
vn -0.1844 -0.0377 -0.9821
vn -0.5456 0.2563 -0.7979
vn 0.2044 0.9321 -0.2989
vn 0.1825 -0.1471 0.9721
vn 0.1840 -0.0729 0.9802
vn -0.5606 0.1172 0.8198
vn -0.5489 0.2330 -0.8027
vn 0.8254 -0.0024 -0.5645
vn -0.9678 -0.1828 0.1731
vn -0.8493 0.0803 -0.5217
vn -0.8448 0.3141 -0.4331
vn 0.8493 0.0803 -0.5217
vn 0.9821 -0.0377 0.1844
vn 0.7979 0.2563 -0.5456
vn -0.2044 0.9321 0.2989
vn -0.5583 -0.1471 -0.8165
vn 0.1833 0.1172 -0.9760
vn 0.5606 0.1172 -0.8198
vn 0.1794 0.2331 0.9558
vn -0.9828 -0.0024 -0.1845
vn 0.9678 -0.1828 -0.1731
vn -0.2317 0.0803 -0.9695
vn -0.9821 -0.0377 0.1844
vn 0.9500 0.2563 -0.1784
vn 0.0668 0.9321 -0.3559
vn 0.3559 0.9321 -0.0668
vn -0.1825 -0.1471 -0.9721
vn -0.1840 -0.0729 0.9802
vn -0.8198 0.1172 0.5606
vn 0.5489 0.2331 0.8027
vn 0.8254 -0.0024 0.5645
vn -0.5620 -0.1828 0.8067
vn 0.8448 0.3141 -0.4331
vn 0.1844 -0.0377 0.9821
vn -0.5456 0.2563 0.7979
vn -0.2989 0.9321 -0.2044
vn 0.8165 -0.1471 -0.5583
vn -0.9802 -0.0729 -0.1840
vn 0.9558 0.2331 0.1794
vn 0.8249 -0.0377 0.5641
vn -0.1794 0.2331 0.9558
vn -0.5217 0.0803 -0.8493
vn -0.8448 0.3141 0.4331
vn 0.1840 -0.0729 -0.9802
vn 0.5456 0.2563 -0.7979
vn -0.2044 0.9321 -0.2989
vn -0.2911 0.3141 0.9036
vn 0.8198 0.1172 0.5606
vn -0.1845 -0.0024 -0.9828
vn 0.8081 0.0139 0.5889
vn 0.1771 -0.4132 -0.8933
vn -0.8933 -0.4132 -0.1770
vn -0.8933 -0.4132 0.1770
vn -0.7568 -0.4132 -0.5064
vn -0.5064 -0.4132 -0.7568
vn 0.4735 0.5432 -0.6933
vn -0.7568 -0.4132 0.5064
vn 0.8933 -0.4132 0.1770
vn -0.5889 0.0139 -0.8081
vn 0.5497 -0.2348 -0.8017
vn 0.5502 -0.2348 -0.8013
vn 0.8017 -0.2348 0.5497
vn 0.8013 -0.2348 0.5502
vn 0.8014 -0.2348 0.5501
vn 0.9555 -0.2347 0.1785
vn 0.9557 -0.2348 0.1777
vn 0.9556 -0.2348 0.1781
vn 0.9556 -0.2348 -0.1781
vn 0.8022 -0.2346 -0.5490
vn 0.8017 -0.2348 -0.5497
vn 0.8013 -0.2348 -0.5502
vn 0.1781 -0.2348 0.9556
vn 0.1778 -0.2348 0.9556
vn 0.1777 -0.2348 0.9557
vn 0.1786 -0.2347 0.9555
vn -0.1785 -0.2347 0.9555
vn -0.1786 -0.2347 0.9555
vn -0.1778 -0.2348 0.9556
vn 0.5889 0.0139 0.8081
vn -0.8081 0.0139 -0.5889
vn -0.1550 0.0139 0.9878
vn -0.9878 0.0139 -0.1550
vn 0.9878 0.0139 -0.1550
vn -0.5889 0.0139 0.8081
vn 0.1550 0.0139 0.9878
vn -0.1688 0.4044 0.8989
vn -0.1771 -0.4132 0.8933
vn -0.1688 0.4044 -0.8989
vn 0.1688 0.4044 -0.8989
vn -0.5163 0.4044 0.7549
vn -0.7549 0.4044 -0.5163
vn 0.5163 0.4044 0.7549
vn -0.8989 0.4044 -0.1688
vn 0.5163 0.4044 -0.7549
vn -0.8022 -0.2346 -0.5490
vn -0.8013 -0.2348 -0.5502
vn -0.8014 -0.2348 -0.5501
vn -0.8019 -0.2347 -0.5495
vn 0.6933 0.5432 0.4735
vn -0.6933 0.5432 -0.4735
vn -0.6931 0.5436 -0.4734
vn 0.8254 0.5426 -0.1558
vn 0.8251 0.5432 -0.1555
vn 0.1555 0.5432 -0.8251
vn -0.1555 0.5432 -0.8251
vn -0.1552 0.5438 -0.8247
vn 0.4735 0.5432 0.6933
vn 0.4734 0.5435 0.6931
vn -0.8251 0.5432 0.1555
vn 0.8251 0.5432 0.1555
vn -0.8251 0.5432 -0.1555
vn -0.8248 0.5437 -0.1553
vn -0.5064 -0.4132 0.7568
vn -0.8081 0.0139 0.5889
vn -0.9555 -0.2346 -0.1790
vn -0.9556 -0.2348 -0.1781
vn 0.8933 -0.4132 -0.1770
vn -0.6933 0.5432 0.4735
vn -0.9556 -0.2348 0.1781
vn -0.9557 -0.2348 0.1777
vn 0.8989 0.4044 0.1688
vn 0.5889 0.0139 -0.8081
vn -0.8017 -0.2348 0.5497
vn -0.8019 -0.2347 0.5495
vn -0.8013 -0.2349 0.5503
vn 0.5064 -0.4132 -0.7568
vn -0.5163 0.4044 -0.7549
vn 0.9878 0.0139 0.1550
vn -0.5497 -0.2348 0.8017
vn -0.5495 -0.2347 0.8019
vn 0.5064 -0.4132 0.7568
vn 0.6935 0.5430 -0.4735
vn 0.6933 0.5432 -0.4735
vn 0.1688 0.4044 0.8989
vn 0.5497 -0.2348 0.8017
vn 0.5502 -0.2348 0.8013
vn 0.5503 -0.2349 0.8013
vn 0.1771 -0.4132 0.8933
vn -0.4735 0.5432 -0.6933
vn -0.7549 0.4044 0.5163
vn 0.8081 0.0139 -0.5889
vn -0.4735 0.5432 0.6933
vn -0.4735 0.5430 0.6935
vn -0.1555 0.5432 0.8251
vn -0.8989 0.4044 0.1688
vn 0.1550 0.0139 -0.9878
vn 0.1787 -0.2347 -0.9555
vn 0.1786 -0.2347 -0.9555
vn 0.1777 -0.2348 -0.9557
vn 0.1776 -0.2348 -0.9557
vn 0.7568 -0.4132 0.5064
vn 0.7567 -0.4130 0.5067
vn 0.7549 0.4044 0.5163
vn 0.7549 0.4044 -0.5163
vn -0.9878 0.0139 0.1550
vn -0.5497 -0.2348 -0.8017
vn -0.5500 -0.2348 -0.8015
vn -0.1771 -0.4132 -0.8933
vn 0.1555 0.5432 0.8251
vn 0.8989 0.4044 -0.1688
vn -0.1550 0.0139 -0.9878
vn 0.7568 -0.4132 -0.5064
vn -0.1781 -0.2348 -0.9556
vn -0.1776 -0.2348 -0.9557
vn -0.1777 -0.2348 -0.9557
vn -0.1787 -0.2347 -0.9555
g Vase_L_1_Vase_L_1_Collor_Material
usemtl Collor_Material
s off
f 192/1/1 1/2/1 84/3/1 202/4/1
f 1/5/2 192/6/2 3/7/2
f 3/8/2 176/9/2 5/10/2
f 5/11/2 160/12/2 7/13/2
f 7/14/2 129/15/2 9/16/2
f 9/17/2 145/18/2 11/19/2
f 11/20/2 239/21/2 13/22/2
f 13/23/2 224/24/2 15/25/2
f 15/26/2 208/27/2 1/28/2
f 1/29/2 3/30/2 5/31/2
f 5/32/2 7/33/2 9/34/2
f 9/35/2 11/36/2 13/37/2
f 13/38/2 15/39/2 9/40/2
f 97/41/3 220/42/3 96/43/3
f 96/44/3 235/45/3 95/46/3
f 95/47/3 251/48/3 94/49/3
f 94/50/3 156/51/3 100/52/3
f 100/53/3 140/54/3 99/55/3
f 99/56/3 172/57/3 93/58/3
f 93/59/3 188/60/3 98/61/3
f 98/62/3 204/63/3 97/64/3
f 97/65/3 96/66/3 95/67/3
f 95/68/3 94/69/3 100/70/3
f 100/71/3 99/72/3 93/73/3
f 93/74/3 98/75/3 97/76/3
f 178/77/4 186/78/4 77/79/4 18/80/4
f 80/81/5 138/82/5 131/83/5 21/84/5
f 226/85/6 233/86/6 82/87/6 23/88/6
f 1/89/2 5/90/2 9/91/2 15/92/2
f 82/93/7 249/94/7 241/95/7 23/96/7
f 162/97/8 170/98/8 78/99/8 19/100/8
f 79/101/9 170/102/9 162/103/9 20/104/9
f 227/105/10 226/106/10 23/107/10 31/108/10
f 21/109/11 131/110/11 132/111/11 29/112/11
f 20/113/12 162/114/12 163/115/12 28/116/12
f 163/117/13 162/118/13 19/119/13 27/120/13
f 23/121/14 241/122/14 242/123/14 31/124/14
f 242/125/15 241/126/15 22/127/15 30/128/15
f 195/129/16 194/130/16 17/131/16 25/132/16
f 247/133/17 246/134/17 62/135/17 66/136/17
f 265/137/18 119/138/18 115/139/18 237/140/18
f 40/141/19 32/142/19 227/143/19 228/144/19
f 195/145/20 25/146/20 33/147/20 196/148/20
f 35/149/21 27/150/21 179/151/21 180/152/21
f 38/153/22 30/154/22 148/155/22 149/156/22
f 132/157/23 28/158/23 36/159/23 133/160/23
f 179/161/24 26/162/24 34/163/24 180/164/24
f 34/165/25 26/166/25 195/167/25 196/168/25
f 148/169/26 147/170/26 21/171/26 29/172/26
f 136/173/27 135/174/27 52/175/27 60/176/27
f 51/177/28 182/178/28 183/179/28 59/180/28
f 167/181/29 166/182/29 51/183/29 59/184/29
f 215/185/30 214/186/30 56/187/30 64/188/30
f 199/189/31 198/190/31 49/191/31 57/192/31
f 53/193/32 135/194/32 136/195/32 61/196/32
f 52/197/33 166/198/33 167/199/33 60/200/33
f 55/201/34 245/202/34 246/203/34 63/204/34
f 59/205/35 183/206/35 184/207/35 268/208/35
f 271/209/36 152/210/36 61/211/36 269/212/36
f 61/213/37 136/214/37 270/215/37 269/216/37
f 168/217/38 167/218/38 59/219/38 268/220/38
f 272/221/39 231/222/39 63/223/39 67/224/39
f 200/225/40 199/226/40 57/227/40 266/228/40
f 63/229/41 246/230/41 247/231/41 67/232/41
f 75/233/42 48/234/42 229/235/42 232/236/42
f 69/237/43 42/238/43 197/239/43 201/240/43
f 213/241/44 48/242/44 75/243/44 217/244/44
f 150/245/45 45/246/45 72/247/45 153/248/45
f 181/249/46 42/250/46 69/251/46 185/252/46
f 72/253/47 45/254/47 134/255/47 137/256/47
f 229/257/48 47/258/48 74/259/48 232/260/48
f 165/261/49 43/262/49 70/263/49 169/264/49
f 77/265/50 3/266/50 192/267/50 202/268/50
f 148/269/51 29/270/51 37/271/51 149/272/51
f 129/273/52 7/274/52 79/275/52 138/276/52
f 80/277/53 9/278/53 129/279/53 138/280/53
f 145/281/54 9/282/54 80/283/54 154/284/54
f 160/285/55 5/286/55 78/287/55 170/288/55
f 83/289/56 15/290/56 224/291/56 233/292/56
f 78/293/57 5/294/57 176/295/57 186/296/57
f 106/297/58 157/298/58 156/299/58 94/300/58
f 102/301/59 205/302/59 204/303/59 98/304/59
f 106/305/60 94/306/60 251/307/60 252/308/60
f 108/309/61 236/310/61 235/311/61 96/312/61
f 105/313/62 141/314/62 140/315/62 100/316/62
f 104/317/63 173/318/63 172/319/63 99/320/63
f 103/321/64 189/322/64 188/323/64 93/324/64
f 252/325/65 107/326/65 126/327/65 255/328/65
f 123/329/66 104/330/66 141/331/66 144/332/66
f 189/333/67 103/334/67 122/335/67 191/336/67
f 125/337/68 114/338/68 158/339/68 159/340/68
f 173/341/69 104/342/69 123/343/69 175/344/69
f 127/345/70 108/346/70 221/347/70 223/348/70
f 126/349/71 115/350/71 253/351/71 255/352/71
f 127/353/72 116/354/72 237/355/72 238/356/72
f 206/357/73 109/358/73 128/359/73 207/360/73
f 122/361/74 111/362/74 190/363/74 191/364/74
f 174/365/75 111/366/75 122/367/75 175/368/75
f 158/369/76 113/370/76 124/371/76 159/372/76
f 237/373/77 115/374/77 126/375/77 238/376/77
f 121/377/78 110/378/78 206/379/78 207/380/78
f 134/381/79 44/382/79 71/383/79 137/384/79
f 141/385/80 105/386/80 124/387/80 144/388/80
f 262/389/81 117/390/81 110/391/81 190/392/81
f 122/393/82 103/394/82 173/395/82 175/396/82
f 143/397/83 142/398/83 113/399/83 258/400/83
f 265/401/84 237/402/84 116/403/84 120/404/84
f 262/405/85 190/406/85 111/407/85 118/408/85
f 254/409/86 259/410/86 114/411/86 253/412/86
f 254/413/87 253/414/87 115/415/87 119/416/87
f 263/417/88 206/418/88 110/419/88 117/420/88
f 123/421/89 112/422/89 174/423/89 175/424/89
f 261/425/90 174/426/90 112/427/90 257/428/90
f 125/429/91 106/430/91 252/431/91 255/432/91
f 103/433/92 93/434/92 172/435/92 173/436/92
f 208/437/93 15/438/93 83/439/93 218/440/93
f 76/441/94 41/442/94 213/443/94 217/444/94
f 58/445/95 199/446/95 200/447/95 267/448/95
f 49/449/96 214/450/96 215/451/96 57/452/96
f 227/453/97 31/454/97 39/455/97 228/456/97
f 17/457/98 210/458/98 211/459/98 25/460/98
f 131/461/99 138/462/99 79/463/99 20/464/99
f 197/465/100 41/466/100 76/467/100 201/468/100
f 260/469/101 158/470/101 114/471/101 259/472/101
f 126/473/102 107/474/102 236/475/102 238/476/102
f 239/477/103 11/478/103 81/479/103 249/480/103
f 71/481/104 44/482/104 165/483/104 169/484/104
f 270/485/105 136/486/105 60/487/105 65/488/105
f 54/489/106 151/490/106 152/491/106 62/492/106
f 211/493/107 32/494/107 40/495/107 212/496/107
f 132/497/108 131/498/108 20/499/108 28/500/108
f 147/501/109 154/502/109 80/503/109 21/504/109
f 241/505/110 249/506/110 81/507/110 22/508/110
f 190/509/111 110/510/111 121/511/111 191/512/111
f 143/513/112 257/514/112 112/515/112 142/516/112
f 221/517/113 101/518/113 128/519/113 223/520/113
f 102/521/114 98/522/114 188/523/114 189/524/114
f 81/525/115 11/526/115 145/527/115 154/528/115
f 105/529/116 100/530/116 156/531/116 157/532/116
f 60/533/117 167/534/117 168/535/117 65/536/117
f 231/537/118 230/538/118 55/539/118 63/540/118
f 242/541/119 30/542/119 38/543/119 243/544/119
f 24/545/120 226/546/120 227/547/120 32/548/120
f 84/549/121 218/550/121 210/551/121 17/552/121
f 222/553/122 116/554/122 127/555/122 223/556/122
f 264/557/123 120/558/123 116/559/123 222/560/123
f 128/561/124 101/562/124 205/563/124 207/564/124
f 107/565/125 252/566/125 251/567/125 95/568/125
f 82/569/126 13/570/126 239/571/126 249/572/126
f 244/573/127 46/574/127 73/575/127 248/576/127
f 62/577/128 152/578/128 271/579/128 66/580/128
f 50/581/129 198/582/129 199/583/129 58/584/129
f 33/585/130 25/586/130 211/587/130 212/588/130
f 211/589/131 210/590/131 24/591/131 32/592/131
f 77/593/132 202/594/132 194/595/132 18/596/132
f 222/597/133 223/598/133 128/599/133 109/600/133
f 264/601/134 222/602/134 109/603/134 256/604/134
f 205/605/135 102/606/135 121/607/135 207/608/135
f 104/609/136 99/610/136 140/611/136 141/612/136
f 176/613/137 3/614/137 77/615/137 186/616/137
f 74/617/138 47/618/138 244/619/138 248/620/138
f 64/621/139 231/622/139 272/623/139 68/624/139
f 56/625/140 230/626/140 231/627/140 64/628/140
f 184/629/141 183/630/141 58/631/141 267/632/141
f 163/633/142 27/634/142 35/635/142 164/636/142
f 179/637/143 178/638/143 18/639/143 26/640/143
f 81/641/144 154/642/144 147/643/144 22/644/144
f 142/645/145 112/646/145 123/647/145 144/648/145
f 124/649/146 105/650/146 157/651/146 159/652/146
f 157/653/147 106/654/147 125/655/147 159/656/147
f 101/657/148 221/658/148 220/659/148 97/660/148
f 224/661/149 13/662/149 82/663/149 233/664/149
f 70/665/150 43/666/150 181/667/150 185/668/150
f 57/669/151 215/670/151 216/671/151 266/672/151
f 39/673/152 31/674/152 242/675/152 243/676/152
f 19/677/153 178/678/153 179/679/153 27/680/153
f 194/681/154 202/682/154 84/683/154 17/684/154
f 78/685/155 186/686/155 178/687/155 19/688/155
f 124/689/156 113/690/156 142/691/156 144/692/156
f 263/693/157 256/694/157 109/695/157 206/696/157
f 121/697/158 102/698/158 189/699/158 191/700/158
f 108/701/159 96/702/159 220/703/159 221/704/159
f 79/705/160 7/706/160 160/707/160 170/708/160
f 73/709/161 46/710/161 150/711/161 153/712/161
f 183/713/162 182/714/162 50/715/162 58/716/162
f 37/717/163 29/718/163 132/719/163 133/720/163
f 22/721/164 147/722/164 148/723/164 30/724/164
f 83/725/165 233/726/165 226/727/165 24/728/165
f 253/729/166 114/730/166 125/731/166 255/732/166
f 261/733/167 118/734/167 111/735/167 174/736/167
f 107/737/168 95/738/168 235/739/168 236/740/168
f 36/741/169 28/742/169 163/743/169 164/744/169
f 101/745/170 97/746/170 204/747/170 205/748/170
f 216/749/171 215/750/171 64/751/171 68/752/171
f 246/753/172 245/754/172 54/755/172 62/756/172
f 260/757/173 258/758/173 113/759/173 158/760/173
f 18/761/174 194/762/174 195/763/174 26/764/174
f 210/765/175 218/766/175 83/767/175 24/768/175
f 152/769/176 151/770/176 53/771/176 61/772/176
f 236/773/177 108/774/177 127/775/177 238/776/177
f 84/777/178 1/778/178 208/779/178 218/780/178
f 95/781/3 100/782/3 93/783/3 97/784/3
f 71/785/179 169/786/179 166/787/179 52/788/179
f 193/789/180 200/790/180 266/791/180 2/792/180
f 225/793/181 272/794/181 67/795/181 14/796/181
f 67/797/182 247/798/182 240/799/182 14/800/182
f 68/801/183 272/802/183 225/803/183 16/804/183
f 209/805/184 216/806/184 68/807/184 16/808/184
f 203/809/185 86/810/185 4/811/185 193/812/185
f 240/813/186 247/814/186 66/815/186 12/816/186
f 161/817/187 168/818/187 268/819/187 6/820/187
f 214/821/188 217/822/188 75/823/188 56/824/188
f 196/825/189 197/826/190 42/827/189 34/828/189
f 164/829/191 165/830/192 44/831/193 36/832/191
f 164/833/194 35/834/194 43/835/195 165/836/196
f 180/837/197 181/838/197 43/839/197 35/840/197
f 180/841/198 34/842/199 42/843/200 181/844/200
f 133/845/201 134/846/202 45/847/203 37/848/204
f 149/849/205 37/850/206 45/851/207 150/852/207
f 135/853/208 137/854/208 71/855/208 52/856/208
f 75/857/209 232/858/209 230/859/209 56/860/209
f 151/861/210 153/862/210 72/863/210 53/864/210
f 230/865/211 232/866/211 74/867/211 55/868/211
f 70/869/212 185/870/212 182/871/212 51/872/212
f 73/873/213 153/874/213 151/875/213 54/876/213
f 72/877/214 137/878/214 135/879/214 53/880/214
f 85/881/215 256/882/215 263/883/215 203/884/215
f 146/885/216 271/886/216 269/887/216 10/888/216
f 89/889/217 139/890/217 143/891/217 258/892/217
f 89/893/218 258/894/218 260/895/218 155/896/218
f 86/897/219 203/898/219 263/899/219 117/900/219
f 88/901/220 171/902/220 261/903/220 257/904/220
f 92/905/221 120/906/221 264/907/221 219/908/221
f 87/909/222 118/910/222 261/911/222 171/912/222
f 90/913/223 155/914/223 260/915/223 259/916/223
f 228/917/224 229/918/225 48/919/226 40/920/227
f 171/921/228 88/922/228 8/923/228 161/924/228
f 234/925/229 92/926/229 16/927/230 225/928/229
f 187/929/231 87/930/232 6/931/232 177/932/232
f 203/933/233 193/934/233 2/935/233 85/936/233
f 219/937/234 85/938/234 2/939/235 209/940/234
f 139/941/236 130/942/236 8/943/237 88/944/236
f 250/945/238 91/946/238 14/947/238 240/948/238
f 171/949/239 161/950/239 6/951/239 87/952/239
f 234/953/240 225/954/240 14/955/240 91/956/241
f 66/957/242 271/958/242 146/959/242 12/960/242
f 245/961/243 248/962/243 73/963/243 54/964/243
f 228/965/244 39/966/245 47/967/245 229/968/245
f 268/969/246 184/970/246 177/971/246 6/972/246
f 250/973/247 240/974/247 12/975/247 90/976/247
f 243/977/248 244/978/248 47/979/249 39/980/248
f 91/981/250 119/982/250 265/983/250 234/984/250
f 69/985/251 201/986/251 198/987/251 50/988/251
f 243/989/252 38/990/253 46/991/252 244/992/254
f 267/993/255 200/994/255 193/995/255 4/996/255
f 88/997/256 257/998/256 143/999/256 139/1000/256
f 166/1001/257 169/1002/257 70/1003/257 51/1004/257
f 149/1005/258 150/1006/258 46/1007/258 38/1008/259
f 130/1009/260 270/1010/260 65/1011/260 8/1012/260
f 187/1013/261 177/1014/262 4/1015/262 86/1016/262
f 85/1017/263 219/1018/263 264/1019/263 256/1020/263
f 133/1021/264 36/1022/264 44/1023/265 134/1024/266
f 269/1025/267 270/1026/267 130/1027/267 10/1028/267
f 219/1029/268 209/1030/268 16/1031/268 92/1032/268
f 86/1033/269 117/1034/269 262/1035/269 187/1036/269
f 182/1037/270 185/1038/270 69/1039/270 50/1040/270
f 155/1041/271 90/1042/271 12/1043/272 146/1044/271
f 155/1045/273 146/1046/273 10/1047/273 89/1048/273
f 87/1049/274 187/1050/274 262/1051/274 118/1052/274
f 198/1053/275 201/1054/275 76/1055/275 49/1056/275
f 196/1057/276 33/1058/277 41/1059/278 197/1060/279
f 65/1061/280 168/1062/280 161/1063/281 8/1064/280
f 92/1065/282 234/1066/282 265/1067/282 120/1068/282
f 90/1069/283 259/1070/283 254/1071/283 250/1072/283
f 74/1073/284 248/1074/284 245/1075/284 55/1076/284
f 212/1077/285 40/1078/285 48/1079/285 213/1080/286
f 266/1081/287 216/1082/287 209/1083/287 2/1084/287
f 139/1085/288 89/1086/288 10/1087/288 130/1088/288
f 91/1089/289 250/1090/289 254/1091/289 119/1092/289
f 76/1093/290 217/1094/290 214/1095/290 49/1096/290
f 177/1097/291 184/1098/291 267/1099/291 4/1100/291
f 212/1101/292 213/1102/293 41/1103/294 33/1104/295
