# Blender v3.0.0 OBJ File: 'aa.blend'
# www.blender.org
mtllib Vase_M_1.mtl
o Vase_M_1
v -0.000007 -0.000000 -0.072580
v -0.000007 0.355628 -0.072629
v 0.051308 -0.000000 -0.051324
v 0.051343 0.355628 -0.051359
v 0.072564 -0.000000 -0.000009
v 0.072613 0.355628 -0.000009
v 0.051308 0.000000 0.051307
v 0.051343 0.355628 0.051341
v -0.000007 0.000000 0.072562
v -0.000007 0.355628 0.072611
v -0.051323 0.000000 0.051307
v -0.051357 0.355628 0.051341
v -0.072578 -0.000000 -0.000009
v -0.072627 0.355628 -0.000009
v -0.051323 -0.000000 -0.051324
v -0.051357 0.355628 -0.051359
v -0.000007 0.013844 -0.044671
v 0.031574 0.013844 -0.031590
v 0.044655 0.013844 -0.000009
v 0.031574 0.013844 0.031572
v -0.000007 0.013844 0.044653
v -0.031588 0.013844 0.031572
v -0.044669 0.013844 -0.000009
v -0.031588 0.013844 -0.031590
v -0.000007 0.044309 -0.031533
v 0.022284 0.044309 -0.022300
v 0.031517 0.044309 -0.000009
v 0.022284 0.044309 0.022282
v -0.000007 0.044309 0.031515
v -0.022298 0.044309 0.022282
v -0.031531 0.044309 -0.000009
v -0.022290 0.044310 -0.022292
v -0.000006 0.073789 -0.033311
v 0.023545 0.073785 -0.023561
v 0.033301 0.073785 -0.000009
v 0.023546 0.073785 0.023544
v -0.000008 0.073783 0.033302
v -0.023574 0.073776 0.023559
v -0.033309 0.073788 -0.000009
v -0.023514 0.073814 -0.023516
v -0.000014 0.143264 -0.060405
v 0.042669 0.143276 -0.042685
v 0.060345 0.143277 -0.000009
v 0.042668 0.143277 0.042666
v -0.000004 0.143281 0.060329
v -0.042745 0.143252 0.042738
v -0.060398 0.143266 -0.000015
v -0.042465 0.143380 -0.042462
v -0.000011 0.254827 -0.081703
v 0.057738 0.254830 -0.057754
v 0.081656 0.254830 -0.000009
v 0.057738 0.254830 0.057735
v -0.000006 0.254831 0.081648
v -0.057717 0.254836 0.057703
v -0.081702 0.254828 -0.000012
v -0.057687 0.254859 -0.057689
v -0.000007 0.301280 -0.055649
v 0.039334 0.301279 -0.039350
v 0.055630 0.301279 -0.000009
v 0.039334 0.301279 0.039332
v -0.000007 0.301279 0.055628
v -0.039345 0.301277 0.039329
v -0.055646 0.301280 -0.000009
v -0.039338 0.301269 -0.039340
v -0.000007 0.327307 -0.051874
v 0.036668 0.327307 -0.036684
v 0.051859 0.327307 -0.000009
v 0.036668 0.327307 0.036666
v -0.000007 0.327307 0.051857
v -0.036682 0.327307 0.036665
v -0.051872 0.327307 -0.000009
v -0.036679 0.327307 -0.036681
v 0.056146 0.207084 -0.056162
v 0.079406 0.207084 -0.000009
v 0.056146 0.207084 0.056144
v -0.000008 0.207090 0.079424
v -0.054293 0.204457 0.057466
v -0.079361 0.207094 -0.000000
v -0.056419 0.209867 -0.055464
v 0.000004 0.207095 -0.079359
v 0.051330 0.007170 -0.051346
v 0.072594 0.007170 -0.000009
v 0.051330 0.007170 0.051328
v -0.000007 0.007170 0.072592
v -0.051344 0.007170 0.051328
v -0.072608 0.007170 -0.000009
v -0.051344 0.007170 -0.051346
v -0.000007 0.007170 -0.072610
v -0.000007 0.359895 -0.068129
v 0.048161 0.359895 -0.048177
v 0.068113 0.359895 -0.000009
v 0.048161 0.359895 0.048159
v -0.000007 0.359895 0.068111
v -0.048175 0.359895 0.048159
v -0.068127 0.359895 -0.000009
v -0.048175 0.359895 -0.048177
v 0.027708 0.075433 -0.000009
v -0.000007 0.075433 0.027706
v -0.000007 0.075433 -0.027724
v 0.019590 0.075433 -0.019606
v 0.019590 0.075433 0.019588
v -0.019604 0.075433 0.019588
v -0.027722 0.075433 -0.000009
v -0.019604 0.075433 -0.019606
v -0.000007 0.155126 -0.059847
v 0.042305 0.155126 -0.042321
v 0.059831 0.155126 -0.000009
v 0.042305 0.155126 0.042303
v -0.000007 0.155126 0.059829
v -0.042319 0.155126 0.042303
v -0.059845 0.155126 -0.000009
v -0.042319 0.155126 -0.042321
v -0.000007 0.298183 -0.049753
v 0.035167 0.298183 -0.035183
v 0.049737 0.298183 -0.000009
v 0.035167 0.298183 0.035165
v -0.000007 0.298183 0.049735
v -0.035181 0.298183 0.035165
v -0.049751 0.298183 -0.000009
v -0.035181 0.298183 -0.035183
v -0.000007 0.329211 -0.046064
v 0.046048 0.329211 -0.000009
v -0.032573 0.329211 -0.032575
v 0.053508 0.218269 -0.053524
v 0.075675 0.218269 -0.000009
v 0.053508 0.218269 0.053506
v -0.000007 0.218269 0.075673
v -0.053522 0.218269 0.053506
v -0.075689 0.218269 -0.000009
v -0.053522 0.218269 -0.053524
v -0.000007 0.218269 -0.075691
v 0.027884 0.000000 0.067325
v 0.027865 0.355702 0.067280
v 0.017158 0.013844 0.041431
v 0.012108 0.044309 0.029240
v 0.012813 0.073765 0.030942
v 0.023293 0.143213 0.056241
v 0.032597 0.242402 0.078705
v 0.020940 0.300246 0.050561
v 0.019714 0.327149 0.047603
v 0.032002 0.217590 0.077269
v 0.027895 0.007170 0.067354
v 0.026173 0.359895 0.063195
v 0.010644 0.075433 0.025706
v 0.022990 0.155126 0.055511
v 0.019111 0.298183 0.046145
v 0.029079 0.218269 0.070212
v -0.027898 0.000000 0.067325
v -0.027879 0.355702 0.067280
v -0.017172 0.013844 0.041431
v -0.012122 0.044309 0.029240
v -0.012819 0.073774 0.030923
v -0.023263 0.143236 0.056165
v -0.032619 0.242400 0.078720
v -0.020955 0.300247 0.050563
v -0.019729 0.327149 0.047603
v -0.032072 0.217561 0.077332
v -0.027910 0.007170 0.067354
v -0.026187 0.359895 0.063195
v -0.010659 0.075433 0.025706
v -0.023004 0.155126 0.055511
v -0.019125 0.298183 0.046145
v -0.029094 0.218269 0.070212
v 0.067327 0.000000 0.027882
v 0.067282 0.355702 0.027863
v 0.041432 0.013844 0.017156
v 0.029242 0.044309 0.012106
v 0.030944 0.073765 0.012811
v 0.056244 0.143213 0.023291
v 0.078707 0.242402 0.032596
v 0.050563 0.300246 0.020938
v 0.047605 0.327149 0.019712
v 0.077270 0.217590 0.032000
v 0.067355 0.007170 0.027893
v 0.063197 0.359895 0.026171
v 0.025708 0.075433 0.010642
v 0.055513 0.155126 0.022988
v 0.046147 0.298183 0.019109
v 0.070214 0.218269 0.029077
v 0.067327 -0.000000 -0.027900
v 0.067282 0.355702 -0.027881
v 0.041432 0.013844 -0.017174
v 0.029242 0.044309 -0.012124
v 0.030944 0.073765 -0.012829
v 0.056244 0.143213 -0.023309
v 0.078707 0.242402 -0.032614
v 0.050563 0.300246 -0.020956
v 0.047605 0.327149 -0.019731
v 0.077270 0.217590 -0.032018
v 0.067355 0.007170 -0.027911
v 0.063197 0.359895 -0.026189
v 0.025708 0.075433 -0.010660
v 0.055513 0.155126 -0.023006
v 0.046147 0.298183 -0.019127
v 0.042724 0.329211 -0.017709
v 0.070214 0.218269 -0.029095
v 0.027884 -0.000000 -0.067343
v 0.027865 0.355702 -0.067299
v 0.017158 0.013844 -0.041449
v 0.012108 0.044309 -0.029258
v 0.012813 0.073766 -0.030956
v 0.023294 0.143209 -0.056270
v 0.032598 0.242402 -0.078729
v 0.020939 0.300245 -0.050578
v 0.019714 0.327149 -0.047621
v 0.031997 0.217583 -0.077272
v 0.027895 0.007170 -0.067371
v 0.026173 0.359895 -0.063214
v 0.010644 0.075433 -0.025724
v 0.022990 0.155126 -0.055529
v 0.019111 0.298183 -0.046164
v 0.017693 0.329211 -0.042741
v 0.029079 0.218269 -0.070230
v -0.027898 -0.000000 -0.067343
v -0.027879 0.355702 -0.067299
v -0.017172 0.013844 -0.041449
v -0.012122 0.044309 -0.029258
v -0.012843 0.073750 -0.030986
v -0.023405 0.143170 -0.056353
v -0.032647 0.242389 -0.078721
v -0.020957 0.300250 -0.050586
v -0.019730 0.327149 -0.047623
v -0.031853 0.217659 -0.077146
v -0.027910 0.007170 -0.067371
v -0.026187 0.359895 -0.063214
v -0.010659 0.075433 -0.025724
v -0.023004 0.155126 -0.055529
v -0.019125 0.298183 -0.046164
v -0.029094 0.218269 -0.070230
v -0.067341 -0.000000 -0.027900
v -0.067297 0.355702 -0.027881
v -0.041447 0.013844 -0.017174
v -0.029256 0.044309 -0.012124
v -0.030981 0.073751 -0.012844
v -0.056332 0.143178 -0.023388
v -0.078717 0.242390 -0.032643
v -0.050583 0.300250 -0.020959
v -0.047621 0.327149 -0.019732
v -0.077168 0.217648 -0.031883
v -0.067369 0.007170 -0.027911
v -0.063212 0.359895 -0.026189
v -0.025722 0.075433 -0.010660
v -0.055527 0.155126 -0.023006
v -0.046162 0.298183 -0.019127
v -0.070228 0.218269 -0.029095
v -0.067341 0.000000 0.027882
v -0.067296 0.355702 0.027863
v -0.041447 0.013844 0.017156
v -0.029256 0.044309 0.012106
v -0.030951 0.073768 0.012808
v -0.056270 0.143208 0.023295
v -0.078748 0.242398 0.032620
v -0.050580 0.300247 0.020939
v -0.047619 0.327149 0.019712
v -0.077250 0.217594 0.031974
v -0.067369 0.007170 0.027893
v -0.063212 0.359895 0.026171
v -0.025722 0.075433 0.010642
v -0.055527 0.155126 0.022988
v -0.046162 0.298183 0.019109
v -0.070228 0.218269 0.029077
v 0.032559 0.329211 -0.032575
v 0.032559 0.329211 0.032556
v -0.000007 0.329211 0.046046
v -0.032573 0.329211 0.032556
v -0.046062 0.329211 -0.000009
v 0.017693 0.329211 0.042722
v -0.017707 0.329211 0.042722
v 0.042724 0.329211 0.017691
v -0.017707 0.329211 -0.042741
v -0.042738 0.329211 -0.017709
v -0.042738 0.329211 0.017691
vt 0.360753 0.577213
vt 0.352213 0.536571
vt 0.360753 0.495928
vt 0.112992 0.425045
vt 0.104452 0.384403
vt 0.112992 0.343761
vt 0.112992 0.338450
vt 0.104452 0.297808
vt 0.112992 0.257166
vt 0.116291 0.528592
vt 0.107751 0.487950
vt 0.116291 0.447308
vt 0.244358 0.577213
vt 0.235819 0.536571
vt 0.244358 0.495928
vt 0.113603 0.681847
vt 0.105063 0.641205
vt 0.113603 0.600563
vt 0.440164 0.627588
vt 0.431624 0.586946
vt 0.440164 0.546304
vt 0.505223 0.576600
vt 0.496684 0.535958
vt 0.505223 0.495316
vt 0.583915 0.239754
vt 0.552809 0.164657
vt 0.583915 0.089559
vt 0.557867 0.524265
vt 0.526760 0.449168
vt 0.557867 0.374071
vt 0.547498 0.239754
vt 0.516392 0.164656
vt 0.547498 0.089559
vt 0.146727 0.060132
vt 0.204204 0.002655
vt 0.204204 0.198894
vt 0.116291 0.575441
vt 0.105798 0.575450
vt 0.105798 0.533903
vt 0.116291 0.533911
vt 0.444293 0.230975
vt 0.432414 0.202296
vt 0.444293 0.173616
vt 0.364092 0.639882
vt 0.352213 0.611203
vt 0.364092 0.582524
vt 0.319798 0.953669
vt 0.307918 0.924990
vt 0.319798 0.896311
vt 0.977860 0.081806
vt 0.965980 0.053127
vt 0.977860 0.024447
vt 0.505673 0.659793
vt 0.502411 0.644272
vt 0.505673 0.628751
vt 0.230508 0.526971
vt 0.227247 0.511449
vt 0.230508 0.495928
vt 0.372425 0.526971
vt 0.369164 0.511450
vt 0.372425 0.495928
vt 0.505673 0.696146
vt 0.502411 0.680625
vt 0.505673 0.665104
vt 0.230508 0.563324
vt 0.227247 0.547803
vt 0.230508 0.532281
vt 0.496310 0.118575
vt 0.493049 0.103054
vt 0.496310 0.087533
vt 0.504882 0.118575
vt 0.501621 0.103054
vt 0.504882 0.087533
vt 0.372425 0.563324
vt 0.369164 0.547802
vt 0.372425 0.532281
vt 0.632709 0.329281
vt 0.647187 0.252825
vt 0.678551 0.256422
vt 0.678551 0.352120
vt 0.912221 0.122645
vt 0.912221 0.097086
vt 0.953575 0.089541
vt 0.953575 0.131088
vt 0.479475 0.349677
vt 0.490200 0.252825
vt 0.524885 0.254826
vt 0.524885 0.368676
vt 0.511944 0.928617
vt 0.511944 0.903058
vt 0.553299 0.895514
vt 0.553299 0.937061
vt 0.002758 0.579623
vt 0.002757 0.554064
vt 0.044112 0.546519
vt 0.044112 0.588066
vt 0.299038 0.933205
vt 0.257683 0.925660
vt 0.257683 0.900101
vt 0.299038 0.891657
vt 0.465649 0.142907
vt 0.511081 0.123886
vt 0.511081 0.237735
vt 0.476421 0.239754
vt 0.292901 0.739310
vt 0.251546 0.731765
vt 0.251546 0.706206
vt 0.292901 0.697763
vt 0.817233 0.926176
vt 0.817233 0.900618
vt 0.858588 0.893073
vt 0.858588 0.934620
vt 0.263263 0.194923
vt 0.263256 0.176886
vt 0.311686 0.173335
vt 0.311686 0.198893
vt 0.920280 0.792560
vt 0.920280 0.774520
vt 0.968702 0.770972
vt 0.968702 0.796531
vt 0.805359 0.962924
vt 0.756936 0.959377
vt 0.756936 0.941337
vt 0.805359 0.937366
vt 0.687366 0.970114
vt 0.638943 0.966566
vt 0.638943 0.948526
vt 0.687366 0.944556
vt 0.919450 0.938790
vt 0.919450 0.956830
vt 0.871027 0.960378
vt 0.871027 0.934820
vt 0.923426 0.544565
vt 0.923426 0.526525
vt 0.971849 0.522977
vt 0.971849 0.548535
vt 0.250615 0.938515
vt 0.299038 0.942063
vt 0.299038 0.960103
vt 0.250615 0.964074
vt 0.960187 0.664089
vt 0.914470 0.663093
vt 0.914470 0.636738
vt 0.960187 0.635623
vt 0.016122 0.964081
vt 0.059314 0.963586
vt 0.059314 0.982658
vt 0.016098 0.982121
vt 0.933864 0.299696
vt 0.933864 0.318773
vt 0.890675 0.318273
vt 0.890652 0.300233
vt 0.939197 0.300197
vt 0.982386 0.299696
vt 0.982386 0.318773
vt 0.939174 0.318237
vt 0.736943 0.634177
vt 0.736943 0.653269
vt 0.693727 0.652677
vt 0.693773 0.634637
vt 0.863258 0.818316
vt 0.906446 0.817812
vt 0.906446 0.836890
vt 0.863237 0.836355
vt 0.862496 0.454323
vt 0.862496 0.473384
vt 0.819248 0.472736
vt 0.819323 0.454699
vt 0.934078 0.228441
vt 0.934078 0.247514
vt 0.890888 0.247023
vt 0.890862 0.228983
vt 0.365420 0.177306
vt 0.365420 0.195346
vt 0.316997 0.198894
vt 0.316997 0.173335
vt 0.428606 0.470904
vt 0.439607 0.374071
vt 0.474165 0.376177
vt 0.474165 0.490005
vt 0.491373 0.641990
vt 0.460008 0.645607
vt 0.445474 0.569098
vt 0.491373 0.546304
vt 0.002655 0.276289
vt 0.048265 0.257166
vt 0.048265 0.370992
vt 0.013752 0.373127
vt 0.209515 0.025943
vt 0.257969 0.002655
vt 0.257969 0.116472
vt 0.223371 0.118576
vt 0.053576 0.397511
vt 0.099134 0.378409
vt 0.099134 0.492237
vt 0.064575 0.494344
vt 0.428606 0.271926
vt 0.474165 0.252825
vt 0.474165 0.366653
vt 0.439607 0.368759
vt 0.377736 0.470904
vt 0.388737 0.374071
vt 0.423295 0.376177
vt 0.423295 0.490005
vt 0.002757 0.475267
vt 0.013686 0.378438
vt 0.048265 0.380534
vt 0.048265 0.494351
vt 0.479475 0.467441
vt 0.486887 0.374071
vt 0.521450 0.376168
vt 0.521450 0.489995
vt 0.627398 0.348497
vt 0.596031 0.352116
vt 0.581476 0.275568
vt 0.627398 0.252825
vt 0.557867 0.625248
vt 0.526500 0.628867
vt 0.511944 0.552319
vt 0.557867 0.529576
vt 0.172853 0.572470
vt 0.187410 0.495928
vt 0.218777 0.499548
vt 0.218777 0.595234
vt 0.249669 0.572493
vt 0.264266 0.495928
vt 0.295634 0.499559
vt 0.295634 0.595252
vt 0.423656 0.641976
vt 0.392289 0.645594
vt 0.377737 0.569051
vt 0.423656 0.546304
vt 0.099500 0.595329
vt 0.068134 0.598949
vt 0.053576 0.522402
vt 0.099500 0.499655
vt 0.967540 0.722352
vt 0.997058 0.723013
vt 0.997058 0.761504
vt 0.965489 0.761946
vt 0.934750 0.478070
vt 0.964268 0.478733
vt 0.964268 0.517221
vt 0.932697 0.517666
vt 0.960670 0.042655
vt 0.960670 0.081142
vt 0.931152 0.081806
vt 0.929098 0.042209
vt 0.934783 0.372845
vt 0.964301 0.373508
vt 0.964301 0.411996
vt 0.932729 0.412440
vt 0.249669 0.260664
vt 0.372426 0.252825
vt 0.372426 0.296135
vt 0.249669 0.289130
vt 0.263279 0.010494
vt 0.386036 0.002655
vt 0.386036 0.045965
vt 0.263279 0.038961
vt 0.990460 0.091937
vt 0.990460 0.130425
vt 0.960941 0.131088
vt 0.958886 0.091498
vt 0.933380 0.845622
vt 0.962898 0.846286
vt 0.962898 0.884773
vt 0.931325 0.885216
vt 0.129406 0.847174
vt 0.118914 0.847183
vt 0.118914 0.805636
vt 0.129406 0.805644
vt 0.126145 0.929809
vt 0.126145 0.971356
vt 0.115652 0.971347
vt 0.115652 0.929817
vt 0.978700 0.932065
vt 0.968207 0.932074
vt 0.968207 0.890527
vt 0.978700 0.890535
vt 0.558610 0.937061
vt 0.558610 0.895514
vt 0.569103 0.895523
vt 0.569103 0.937052
vt 0.429671 0.768162
vt 0.429671 0.726615
vt 0.440164 0.726624
vt 0.440164 0.768153
vt 0.978700 0.937384
vt 0.978700 0.978931
vt 0.968207 0.978922
vt 0.968207 0.937392
vt 0.429671 0.820339
vt 0.440164 0.820330
vt 0.440164 0.861877
vt 0.429671 0.861869
vt 0.626186 0.752848
vt 0.636679 0.752838
vt 0.636679 0.794386
vt 0.626186 0.794377
vt 0.688622 0.594624
vt 0.688622 0.628867
vt 0.563177 0.619158
vt 0.563177 0.603298
vt 0.493049 0.051917
vt 0.618493 0.042209
vt 0.618493 0.076452
vt 0.493049 0.067778
vt 0.244358 0.719224
vt 0.244358 0.753467
vt 0.118914 0.743759
vt 0.118914 0.727899
vt 0.244358 0.679670
vt 0.244358 0.713914
vt 0.118914 0.704205
vt 0.118914 0.688345
vt 0.589226 0.203869
vt 0.714670 0.194161
vt 0.714670 0.228404
vt 0.589226 0.219729
vt 0.511944 0.683439
vt 0.637389 0.673731
vt 0.637389 0.707974
vt 0.511944 0.699299
vt 0.249669 0.247514
vt 0.249669 0.204204
vt 0.372426 0.212043
vt 0.372426 0.240509
vt 0.386036 0.051276
vt 0.386036 0.094586
vt 0.263279 0.086747
vt 0.263279 0.058281
vt 0.749248 0.042209
vt 0.749248 0.076452
vt 0.623804 0.066744
vt 0.623804 0.050884
vt 0.372425 0.447308
vt 0.372425 0.490618
vt 0.249669 0.482779
vt 0.249669 0.454312
vt 0.244358 0.296135
vt 0.121602 0.289131
vt 0.121602 0.260664
vt 0.244358 0.252825
vt 0.244358 0.301446
vt 0.244358 0.344756
vt 0.121602 0.336917
vt 0.121602 0.308450
vt 0.249669 0.357906
vt 0.372426 0.350067
vt 0.372426 0.393376
vt 0.249669 0.386372
vt 0.688416 0.634177
vt 0.688416 0.662644
vt 0.642700 0.661529
vt 0.642700 0.635174
vt 0.004327 0.642781
vt 0.004327 0.608538
vt 0.099500 0.604260
vt 0.099500 0.647570
vt 0.800276 0.036899
vt 0.754559 0.035902
vt 0.754559 0.009547
vt 0.800276 0.008432
vt 0.620330 0.952443
vt 0.574614 0.951447
vt 0.574614 0.925092
vt 0.620330 0.923977
vt 0.851303 0.008432
vt 0.851303 0.036899
vt 0.805586 0.035784
vt 0.805586 0.009428
vt 0.491191 0.924920
vt 0.491191 0.953386
vt 0.445474 0.952271
vt 0.445474 0.925916
vt 0.953357 0.008432
vt 0.953357 0.036899
vt 0.907641 0.035784
vt 0.907641 0.009428
vt 0.903135 0.717041
vt 0.857418 0.716045
vt 0.857418 0.689689
vt 0.903135 0.688574
vt 0.933378 0.890527
vt 0.962896 0.891190
vt 0.962896 0.929678
vt 0.931325 0.930123
vt 0.099500 0.754911
vt 0.099500 0.789153
vt 0.004327 0.793432
vt 0.004327 0.750122
vt 0.967546 0.624498
vt 0.997064 0.625159
vt 0.997064 0.663658
vt 0.965497 0.664089
vt 0.004327 0.740023
vt 0.004327 0.705780
vt 0.099500 0.701501
vt 0.099500 0.744811
vt 0.620330 0.958185
vt 0.620330 0.996684
vt 0.590812 0.997345
vt 0.588764 0.957754
vt 0.642700 0.712253
vt 0.642700 0.678010
vt 0.737873 0.673731
vt 0.737873 0.717041
vt 0.683862 0.313598
vt 0.779036 0.308810
vt 0.779036 0.352120
vt 0.683862 0.347841
vt 0.642700 0.727140
vt 0.737873 0.722352
vt 0.737873 0.765662
vt 0.642700 0.761383
vt 0.390236 0.495316
vt 0.491373 0.499529
vt 0.491373 0.534041
vt 0.377737 0.540993
vt 0.760787 0.434863
vt 0.760787 0.469106
vt 0.665613 0.473384
vt 0.665613 0.430074
vt 0.110341 0.958275
vt 0.064625 0.957279
vt 0.064625 0.930924
vt 0.110341 0.929809
vt 0.209515 0.131726
vt 0.332271 0.123886
vt 0.332271 0.167197
vt 0.209515 0.160192
vt 0.423656 0.730012
vt 0.423656 0.764255
vt 0.298211 0.754547
vt 0.298211 0.738687
vt 0.449604 0.215164
vt 0.449604 0.173616
vt 0.460097 0.173626
vt 0.460097 0.215155
vt 0.442212 0.021748
vt 0.487738 0.002655
vt 0.487738 0.116468
vt 0.453160 0.118575
vt 0.968890 0.253283
vt 0.968890 0.291771
vt 0.939371 0.292434
vt 0.937318 0.252838
vt 0.346902 0.591629
vt 0.315535 0.595254
vt 0.300945 0.518688
vt 0.346902 0.495928
vt 0.298211 0.660613
vt 0.423656 0.650905
vt 0.423656 0.685148
vt 0.298211 0.676473
vt 0.195762 0.964155
vt 0.238952 0.963654
vt 0.238952 0.982728
vt 0.195741 0.982195
vt 0.373532 0.947139
vt 0.373532 0.965179
vt 0.325109 0.968727
vt 0.325109 0.943168
vt 0.900381 0.592020
vt 0.900381 0.566461
vt 0.941736 0.558916
vt 0.941736 0.600463
vt 0.346902 0.639087
vt 0.251728 0.643875
vt 0.251729 0.600565
vt 0.346902 0.604844
vt 0.004327 0.958275
vt 0.004327 0.929809
vt 0.050043 0.930924
vt 0.050043 0.957279
vt 0.244358 0.350067
vt 0.244358 0.393377
vt 0.121602 0.385538
vt 0.121602 0.357071
vt 0.511944 0.722993
vt 0.637389 0.713285
vt 0.637389 0.747528
vt 0.511944 0.738853
vt 0.147231 0.964200
vt 0.190430 0.963654
vt 0.190430 0.982730
vt 0.147230 0.982240
vt 0.377736 0.271927
vt 0.423296 0.252825
vt 0.423296 0.366653
vt 0.388738 0.368760
vt 0.121602 0.406526
vt 0.244358 0.398687
vt 0.244358 0.441997
vt 0.121602 0.434992
vt 0.366463 0.937858
vt 0.325109 0.930313
vt 0.325109 0.904754
vt 0.366463 0.896311
vt 0.914237 0.965689
vt 0.914237 0.984758
vt 0.871037 0.984236
vt 0.871027 0.966196
vt 0.044112 0.541209
vt 0.002757 0.533663
vt 0.002758 0.508105
vt 0.044112 0.499662
vt 0.640459 0.094348
vt 0.735632 0.089559
vt 0.735632 0.132870
vt 0.640459 0.128591
vt 0.902330 0.036899
vt 0.856614 0.035902
vt 0.856614 0.009547
vt 0.902330 0.008432
vt 0.244358 0.447308
vt 0.244358 0.490618
vt 0.121602 0.482779
vt 0.121602 0.454312
vt 0.257945 0.198894
vt 0.209515 0.195342
vt 0.209522 0.177306
vt 0.257945 0.173335
vt 0.429671 0.815019
vt 0.429671 0.773472
vt 0.440164 0.773481
vt 0.440164 0.815011
vt 0.953664 0.325522
vt 0.983183 0.326186
vt 0.983183 0.364673
vt 0.951608 0.365112
vt 0.589226 0.166107
vt 0.603781 0.089559
vt 0.635148 0.093178
vt 0.635148 0.188850
vt 0.918115 0.522977
vt 0.918115 0.551444
vt 0.872399 0.550328
vt 0.872399 0.523973
vt 0.817233 0.961518
vt 0.817233 0.943479
vt 0.865656 0.939931
vt 0.865656 0.965489
vt 0.741100 0.939245
vt 0.699745 0.931700
vt 0.699745 0.906142
vt 0.741100 0.897698
vt 0.015254 0.251855
vt 0.002655 0.204204
vt 0.116291 0.211180
vt 0.116291 0.245696
vt 0.640459 0.142968
vt 0.735633 0.138180
vt 0.735633 0.181490
vt 0.640459 0.177212
vt 0.789106 0.624078
vt 0.693933 0.628867
vt 0.693933 0.585557
vt 0.789106 0.589835
vt 0.618493 0.002655
vt 0.618493 0.036899
vt 0.493049 0.027190
vt 0.493049 0.011330
vt 0.749248 0.027190
vt 0.623804 0.036898
vt 0.623804 0.002655
vt 0.749248 0.011330
vt 0.429671 0.679766
vt 0.440164 0.679757
vt 0.440164 0.721304
vt 0.429671 0.721296
vt 0.614411 0.450582
vt 0.628936 0.374071
vt 0.660303 0.377684
vt 0.660303 0.473384
vt 0.991043 0.677888
vt 0.991043 0.716379
vt 0.961525 0.717041
vt 0.959473 0.677447
vt 0.121602 0.572499
vt 0.136175 0.495928
vt 0.167542 0.499547
vt 0.167542 0.595222
vt 0.900403 0.606290
vt 0.943592 0.605789
vt 0.943592 0.624865
vt 0.900381 0.624330
vt 0.378842 0.964756
vt 0.378842 0.946716
vt 0.427265 0.943168
vt 0.427265 0.968727
vt 0.946297 0.367069
vt 0.904942 0.359524
vt 0.904942 0.333965
vt 0.946297 0.325522
vt 0.099500 0.657669
vt 0.099500 0.691912
vt 0.004327 0.696191
vt 0.004327 0.652881
vt 0.960178 0.750818
vt 0.914461 0.749822
vt 0.914461 0.723467
vt 0.960178 0.722352
vt 0.372426 0.301446
vt 0.372426 0.344756
vt 0.249669 0.336917
vt 0.249669 0.308450
vt 0.118914 0.610271
vt 0.244358 0.600563
vt 0.244358 0.634806
vt 0.118914 0.626131
vt 0.982600 0.228441
vt 0.982600 0.247517
vt 0.939412 0.247016
vt 0.939389 0.228977
vt 0.440164 0.908726
vt 0.429671 0.908735
vt 0.429671 0.867188
vt 0.440164 0.867196
vt 0.684054 0.939245
vt 0.642700 0.931700
vt 0.642700 0.906142
vt 0.684054 0.897698
vt 0.978619 0.561312
vt 0.978619 0.599800
vt 0.949100 0.600463
vt 0.947046 0.560869
vt 0.660259 0.574388
vt 0.628895 0.577988
vt 0.614411 0.501533
vt 0.660259 0.478695
vt 0.809345 0.468383
vt 0.766174 0.468010
vt 0.766098 0.449973
vt 0.809345 0.449321
vt 0.741100 0.970114
vt 0.692677 0.966566
vt 0.692677 0.948526
vt 0.741100 0.944556
vt 0.932007 0.294386
vt 0.890652 0.286841
vt 0.890652 0.261282
vt 0.932007 0.252838
vt 0.371774 0.929414
vt 0.371774 0.903855
vt 0.413129 0.896311
vt 0.413129 0.937858
vt 0.683862 0.257613
vt 0.779036 0.252825
vt 0.779036 0.296135
vt 0.683862 0.291856
vt 0.135443 0.958343
vt 0.135443 0.929877
vt 0.181160 0.930992
vt 0.181160 0.957347
vt 0.337582 0.131725
vt 0.460338 0.123886
vt 0.460338 0.167196
vt 0.337582 0.160192
vt 0.637389 0.634177
vt 0.637389 0.668420
vt 0.511944 0.658712
vt 0.511944 0.642852
vt 0.129406 0.800316
vt 0.118914 0.800325
vt 0.118914 0.758778
vt 0.129406 0.758786
vt 0.053576 0.354013
vt 0.064591 0.257166
vt 0.099141 0.259271
vt 0.099141 0.373099
vt 0.933378 0.935434
vt 0.962896 0.936097
vt 0.962896 0.974585
vt 0.931325 0.975029
vt 0.576165 0.348523
vt 0.544796 0.352156
vt 0.530195 0.275591
vt 0.576165 0.252825
vt 0.968702 0.827400
vt 0.920280 0.823852
vt 0.920280 0.805812
vt 0.968702 0.801842
vt 0.488685 0.958697
vt 0.488685 0.977773
vt 0.445497 0.977273
vt 0.445474 0.959233
vt 0.915476 0.136399
vt 0.963899 0.139947
vt 0.963899 0.157987
vt 0.915476 0.161958
vt 0.251546 0.684008
vt 0.251546 0.658450
vt 0.292901 0.650905
vt 0.292901 0.692452
vt 0.665570 0.565837
vt 0.665570 0.531594
vt 0.760743 0.527315
vt 0.760743 0.570625
vt 0.241458 0.929877
vt 0.241458 0.958343
vt 0.195741 0.957228
vt 0.195741 0.930873
vt 0.249669 0.406526
vt 0.372426 0.398687
vt 0.372426 0.441997
vt 0.249669 0.434993
vt 0.298211 0.700167
vt 0.423656 0.690459
vt 0.423656 0.724702
vt 0.298211 0.716027
vt 0.107825 0.963586
vt 0.107825 0.982666
vt 0.064633 0.982134
vt 0.064625 0.964094
vt 0.391347 0.099490
vt 0.402337 0.002655
vt 0.436902 0.004758
vt 0.436902 0.118571
vt 0.964301 0.418196
vt 0.964301 0.456684
vt 0.934783 0.457347
vt 0.932729 0.417751
vt 0.563177 0.450619
vt 0.577733 0.374071
vt 0.609100 0.377689
vt 0.609100 0.473362
vt 0.292901 0.763710
vt 0.249729 0.763248
vt 0.249685 0.745208
vt 0.292901 0.744620
vt 0.890862 0.214668
vt 0.890862 0.189110
vt 0.932217 0.181565
vt 0.932217 0.223112
vt 0.665570 0.483483
vt 0.760743 0.478695
vt 0.760743 0.522005
vt 0.665570 0.517726
vt 0.760787 0.378859
vt 0.760787 0.413102
vt 0.665613 0.417381
vt 0.665613 0.374071
vt 0.244358 0.640117
vt 0.244358 0.674360
vt 0.118914 0.664651
vt 0.118914 0.648791
vt 0.429671 0.674446
vt 0.429671 0.632899
vt 0.440164 0.632908
vt 0.440164 0.674438
vt 0.969099 0.182009
vt 0.969099 0.220497
vt 0.939581 0.221160
vt 0.937527 0.181565
vt 0.563177 0.555220
vt 0.577733 0.478673
vt 0.609100 0.482291
vt 0.609100 0.577963
vt 0.908445 0.688574
vt 0.954162 0.689571
vt 0.954162 0.715926
vt 0.908445 0.717041
vt 0.504876 0.942371
vt 0.553299 0.945919
vt 0.553299 0.963959
vt 0.504876 0.967930
vt 0.141417 0.002655
vt 0.141417 0.198894
vt 0.060132 0.198893
vt 0.002655 0.060132
vt 0.244358 0.204204
vt 0.244358 0.247514
vt 0.121602 0.239676
vt 0.121602 0.211209
vt 0.978700 0.843669
vt 0.978700 0.885216
vt 0.968207 0.885207
vt 0.968207 0.843677
vt 0.511944 0.890203
vt 0.511944 0.832844
vt 0.569303 0.832844
vt 0.569303 0.890203
vt 0.909151 0.763880
vt 0.857418 0.757468
vt 0.858073 0.727949
vt 0.909151 0.722352
vt 0.906910 0.089559
vt 0.906910 0.131088
vt 0.855832 0.125491
vt 0.855178 0.095971
vt 0.865716 0.846233
vt 0.865716 0.887762
vt 0.814639 0.882165
vt 0.813981 0.852646
vt 0.423509 0.849471
vt 0.423509 0.891000
vt 0.372431 0.885402
vt 0.371774 0.855884
vt 0.992900 0.461213
vt 0.983911 0.459959
vt 0.984076 0.420977
vt 0.992900 0.419684
vt 0.309418 0.886347
vt 0.257683 0.879934
vt 0.258341 0.850416
vt 0.309418 0.844818
vt 0.366463 0.891000
vt 0.314729 0.884587
vt 0.315386 0.855068
vt 0.366463 0.849471
vt 0.872399 0.485352
vt 0.927386 0.478684
vt 0.927386 0.517666
vt 0.872399 0.511707
vt 0.855178 0.143068
vt 0.910165 0.136399
vt 0.910165 0.175382
vt 0.855178 0.169423
vt 0.872432 0.450678
vt 0.872432 0.424323
vt 0.927419 0.418364
vt 0.927419 0.457347
vt 0.751623 0.810926
vt 0.751623 0.845548
vt 0.642700 0.837137
vt 0.642730 0.818061
vt 0.743184 0.730764
vt 0.852107 0.722352
vt 0.852107 0.756966
vt 0.743214 0.749842
vt 0.852097 0.682462
vt 0.852097 0.717041
vt 0.743184 0.708701
vt 0.743206 0.689632
vt 0.740943 0.097970
vt 0.849867 0.089559
vt 0.849867 0.124182
vt 0.740974 0.117046
vt 0.314729 0.817949
vt 0.423653 0.809538
vt 0.423653 0.844160
vt 0.314759 0.837025
vt 0.885551 0.181565
vt 0.885551 0.247514
vt 0.837501 0.229783
vt 0.837730 0.193501
vt 0.992999 0.932055
vt 0.984010 0.930802
vt 0.984175 0.891820
vt 0.992999 0.890527
vt 0.500462 0.887295
vt 0.500462 0.913650
vt 0.445474 0.919609
vt 0.445474 0.880626
vt 0.190430 0.892252
vt 0.190430 0.918607
vt 0.135443 0.924566
vt 0.135443 0.885584
vt 0.629601 0.886352
vt 0.629601 0.912707
vt 0.574614 0.918666
vt 0.574614 0.879684
vt 0.839334 0.360400
vt 0.784346 0.367069
vt 0.784346 0.328086
vt 0.839334 0.334045
vt 0.914969 0.812501
vt 0.863237 0.806089
vt 0.863888 0.776571
vt 0.914969 0.770972
vt 0.871027 0.852902
vt 0.926014 0.846233
vt 0.926014 0.885216
vt 0.871027 0.879257
vt 0.064625 0.917830
vt 0.064625 0.891474
vt 0.119612 0.885516
vt 0.119612 0.924498
vt 0.620870 0.792892
vt 0.620870 0.827534
vt 0.511944 0.819137
vt 0.511975 0.800064
vt 0.423656 0.769566
vt 0.423656 0.804227
vt 0.314729 0.795853
vt 0.314750 0.776773
vt 0.135428 0.807119
vt 0.244343 0.798808
vt 0.244343 0.833433
vt 0.135439 0.826194
vt 0.992900 0.372845
vt 0.992900 0.414374
vt 0.984076 0.413080
vt 0.983911 0.374098
vt 0.978568 0.476138
vt 0.978568 0.517666
vt 0.969744 0.516373
vt 0.969579 0.477391
vt 0.992159 0.024447
vt 0.992159 0.065976
vt 0.983336 0.064683
vt 0.983171 0.025700
vt 0.978601 0.414373
vt 0.969612 0.413120
vt 0.969777 0.374138
vt 0.978601 0.372845
vt 0.983189 0.294367
vt 0.974200 0.293114
vt 0.974365 0.254132
vt 0.983189 0.252838
vt 0.505673 0.623440
vt 0.496684 0.622187
vt 0.496849 0.583204
vt 0.505673 0.581911
vt 0.983002 0.827400
vt 0.974013 0.826147
vt 0.974178 0.787165
vt 0.983002 0.785872
vt 0.567599 0.942371
vt 0.567599 0.983900
vt 0.558775 0.982607
vt 0.558610 0.943625
vt 0.871027 0.897195
vt 0.926014 0.890527
vt 0.926014 0.929509
vt 0.871027 0.923550
vt 0.187178 0.838744
vt 0.187178 0.880273
vt 0.136101 0.874676
vt 0.135443 0.845157
vt 0.992918 0.560869
vt 0.992918 0.602397
vt 0.984094 0.601104
vt 0.983929 0.562122
vt 0.909159 0.635623
vt 0.909159 0.677151
vt 0.858078 0.671553
vt 0.857427 0.642035
vt 0.719981 0.202581
vt 0.828905 0.194161
vt 0.828905 0.228789
vt 0.720012 0.221655
vt 0.852116 0.642635
vt 0.852116 0.677151
vt 0.743184 0.668679
vt 0.743243 0.649617
vt 0.694434 0.892387
vt 0.642700 0.885975
vt 0.643357 0.856456
vt 0.694434 0.850859
vt 0.992867 0.517666
vt 0.983879 0.516413
vt 0.984043 0.477431
vt 0.992867 0.476138
vt 0.004327 0.892184
vt 0.059314 0.885516
vt 0.059314 0.924498
vt 0.004327 0.918539
vt 0.895070 0.624865
vt 0.848896 0.614350
vt 0.847567 0.578077
vt 0.895070 0.558916
vt 0.642700 0.779374
vt 0.751625 0.770972
vt 0.751625 0.805615
vt 0.642729 0.798445
vt 0.808670 0.846233
vt 0.808670 0.887762
vt 0.757593 0.882165
vt 0.756936 0.852646
vt 0.844644 0.360400
vt 0.844644 0.334045
vt 0.899632 0.328086
vt 0.899632 0.367069
vt 0.849867 0.138180
vt 0.849867 0.172802
vt 0.740943 0.164393
vt 0.740973 0.145316
vt 0.751480 0.850859
vt 0.751480 0.892387
vt 0.700401 0.886790
vt 0.699745 0.857271
vt 0.992999 0.885198
vt 0.984010 0.883944
vt 0.984175 0.844962
vt 0.992999 0.843669
vt 0.927419 0.406385
vt 0.872432 0.413053
vt 0.872432 0.374071
vt 0.927419 0.380030
vt 0.113250 0.798743
vt 0.113250 0.833365
vt 0.004327 0.824955
vt 0.004357 0.805879
vt 0.113107 0.880205
vt 0.061372 0.873792
vt 0.062030 0.844274
vt 0.113107 0.838676
vt 0.756936 0.925387
vt 0.756936 0.899032
vt 0.811923 0.893073
vt 0.811923 0.932055
vt 0.978601 0.419684
vt 0.978601 0.461213
vt 0.969777 0.459920
vt 0.969612 0.420937
vt 0.992999 0.937384
vt 0.992999 0.978913
vt 0.984175 0.977620
vt 0.984010 0.938637
vt 0.250728 0.892252
vt 0.250728 0.918607
vt 0.195741 0.924566
vt 0.195741 0.885584
vt 0.511944 0.761330
vt 0.620875 0.752838
vt 0.620875 0.787581
vt 0.511979 0.780422
vt 0.754559 0.050676
vt 0.863489 0.042209
vt 0.863489 0.076721
vt 0.754616 0.069738
vt 0.056062 0.880205
vt 0.004327 0.873792
vt 0.004984 0.844274
vt 0.056062 0.838676
vt 0.983398 0.181565
vt 0.983398 0.223094
vt 0.974575 0.221801
vt 0.974410 0.182818
vt 0.868800 0.048878
vt 0.923787 0.042209
vt 0.923787 0.081192
vt 0.868800 0.075233
vt 0.244358 0.758778
vt 0.244358 0.793497
vt 0.135428 0.785029
vt 0.135462 0.765939
vt 0.244224 0.880273
vt 0.192489 0.873860
vt 0.193146 0.844342
vt 0.244224 0.838744
vt 0.626349 0.832844
vt 0.626349 0.874373
vt 0.575271 0.868776
vt 0.574614 0.839257
vt 0.309418 0.769566
vt 0.309418 0.839507
vt 0.261568 0.821134
vt 0.262343 0.784726
vt 0.885342 0.252825
vt 0.885342 0.322762
vt 0.837501 0.304373
vt 0.838361 0.267989
vt 0.377736 0.194900
vt 0.427103 0.173616
vt 0.427103 0.247514
vt 0.378501 0.231271
vt 0.493366 0.800064
vt 0.446578 0.784773
vt 0.445474 0.748507
vt 0.493366 0.730127
vt 0.867121 0.374071
vt 0.867121 0.444021
vt 0.819281 0.425650
vt 0.820118 0.389277
vt 0.813938 0.478695
vt 0.813938 0.548634
vt 0.766054 0.530252
vt 0.767114 0.493970
vt 0.867088 0.548645
vt 0.820086 0.533438
vt 0.819248 0.497066
vt 0.867088 0.478695
vt 0.493314 0.875316
vt 0.446309 0.860115
vt 0.445474 0.823742
vt 0.493314 0.805374
vt 0.842257 0.558916
vt 0.842257 0.628867
vt 0.794417 0.610496
vt 0.795255 0.574123
vt 0.813971 0.444010
vt 0.767017 0.428829
vt 0.766098 0.392462
vt 0.813971 0.374071
vt 0.857926 0.840923
vt 0.810924 0.825716
vt 0.810086 0.789343
vt 0.857926 0.770972
vt 0.832190 0.322775
vt 0.785197 0.307579
vt 0.784346 0.271195
vt 0.832190 0.252825
vt 0.804775 0.770972
vt 0.804775 0.840923
vt 0.756936 0.822552
vt 0.757774 0.786179
vt 0.447951 0.707754
vt 0.445474 0.671422
vt 0.492441 0.650918
vt 0.492441 0.724816
vn -0.0000 -1.0000 0.0000
vn -0.5645 -0.0041 0.8254
vn 0.0000 1.0000 0.0000
vn -0.4290 0.4680 -0.7726
vn -0.1950 0.9717 -0.1333
vn -0.1599 -0.2819 -0.9460
vn -0.1611 -0.2815 -0.9460
vn -0.1606 -0.2816 -0.9460
vn -0.0436 0.9717 -0.2321
vn 0.2321 0.9717 -0.0436
vn 0.1333 0.9717 0.1950
vn -0.9459 -0.2821 -0.1606
vn -0.9459 -0.2822 -0.1603
vn -0.2321 0.9717 -0.0436
vn 0.0436 0.9717 0.2321
vn -0.7598 0.3904 -0.5200
vn -0.7595 0.3905 -0.5202
vn 0.1699 0.3903 0.9049
vn 0.5197 0.3903 0.7600
vn -0.7600 0.3903 0.5197
vn -0.5197 0.3903 0.7600
vn 0.7600 0.3903 0.5197
vn -0.1699 0.3903 0.9049
vn -0.9762 -0.1161 0.1833
vn -0.9813 -0.0598 0.1828
vn -0.9814 -0.0600 0.1823
vn -0.9815 -0.0602 0.1819
vn -0.9813 -0.0598 0.1829
vn 0.5651 -0.0602 0.8228
vn 0.8228 -0.0602 0.5651
vn -0.1809 -0.0606 -0.9816
vn 0.1824 -0.0603 0.9814
vn 0.1816 -0.0606 0.9815
vn -0.8205 -0.0598 -0.5685
vn 0.1822 -0.0601 -0.9814
vn 0.5197 0.3903 -0.7600
vn 0.9452 -0.2843 -0.1603
vn -0.4282 0.4682 0.7729
vn -0.1607 -0.2856 0.9448
vn -0.7833 -0.2834 0.5533
vn 0.7817 -0.2843 -0.5551
vn 0.7820 -0.2841 -0.5547
vn 0.9452 -0.2843 0.1603
vn 0.7817 -0.2843 0.5551
vn -0.9455 -0.2833 0.1602
vn -0.5394 -0.2902 0.7905
vn -0.5397 -0.2904 0.7902
vn 0.8490 0.4683 -0.2448
vn 0.7734 0.4683 0.4272
vn -0.2444 0.4684 0.8490
vn -0.8488 0.4684 -0.2452
vn 0.2447 0.4683 0.8490
vn 0.4272 0.4684 -0.7734
vn -0.5239 0.1280 0.8421
vn 0.9659 0.1280 -0.2251
vn 0.2252 0.1281 -0.9659
vn 0.8422 0.1280 0.5238
vn 0.7864 -0.3039 0.5378
vn -0.9363 -0.3039 0.1758
vn -0.9659 0.1281 -0.2249
vn -0.9659 0.1281 0.2251
vn -0.8254 -0.0041 -0.5645
vn -0.9828 -0.0041 -0.1845
vn 0.8254 -0.0041 0.5645
vn 0.9828 -0.0041 0.1845
vn 0.1845 -0.0041 -0.9828
vn -0.8254 -0.0041 0.5645
vn -0.9828 -0.0041 0.1845
vn -0.1845 -0.0041 -0.9828
vn -0.7674 0.3683 -0.5248
vn 0.1716 0.3683 -0.9137
vn 0.7674 0.3683 0.5248
vn 0.9137 0.3683 -0.1716
vn -0.5248 0.3683 -0.7674
vn -0.9137 0.3683 -0.1716
vn 0.9363 -0.3039 0.1758
vn 0.5378 -0.3039 0.7864
vn -0.9137 0.3683 0.1716
vn -0.5378 -0.3039 -0.7864
vn 0.1758 -0.3039 0.9363
vn 0.1758 -0.3039 -0.9363
vn -0.5378 -0.3039 0.7864
vn -0.1833 -0.1161 0.9762
vn -0.8014 0.2394 -0.5481
vn 0.1833 -0.1161 0.9762
vn 0.5607 -0.1161 -0.8199
vn -0.8199 -0.1161 0.5607
vn 0.5607 -0.1161 0.8199
vn 0.9762 -0.1161 0.1833
vn -0.8199 -0.1161 -0.5607
vn 0.5238 0.1280 -0.8422
vn -0.1792 0.2394 -0.9542
vn -0.8418 0.1279 -0.5244
vn -0.9542 0.2394 0.1792
vn -0.5244 0.1279 -0.8418
vn 0.8014 0.2394 0.5481
vn -0.5481 0.2394 -0.8014
vn 0.5481 0.2394 0.8014
vn -0.7695 -0.2776 -0.5751
vn 0.5481 0.2394 -0.8014
vn 0.9762 -0.1161 -0.1833
vn -0.7864 -0.3039 -0.5378
vn -0.1716 0.3683 -0.9137
vn 0.5645 -0.0041 0.8254
vn 0.1599 -0.2835 -0.9456
vn 0.8422 0.1280 -0.5238
vn -0.8488 0.4687 0.2448
vn 0.7674 0.3683 -0.5248
vn 0.5650 -0.0602 -0.8229
vn 0.9049 0.3903 -0.1699
vn 0.1950 0.9717 0.1333
vn -0.8014 0.2394 0.5481
vn 0.1833 -0.1161 -0.9762
vn -0.1758 -0.3039 0.9363
vn 0.5248 0.3683 0.7674
vn -0.5637 -0.0603 0.8238
vn 0.5551 -0.2843 0.7817
vn 0.9363 -0.3039 -0.1758
vn -0.1333 0.9717 -0.1950
vn -0.1832 -0.0600 0.9812
vn 0.2321 0.9717 0.0436
vn 0.1792 0.2394 -0.9542
vn 0.8199 -0.1161 0.5607
vn -0.9363 -0.3039 -0.1758
vn -0.5200 0.3904 -0.7598
vn -0.5204 0.3906 -0.7593
vn -0.5645 -0.0041 -0.8254
vn -0.2249 0.1282 -0.9659
vn 0.4272 0.4683 0.7734
vn 0.8199 -0.1161 -0.5607
vn -0.1699 0.3903 -0.9049
vn 0.1950 0.9717 -0.1333
vn -0.5782 -0.2759 -0.7678
vn 0.9542 0.2394 0.1792
vn -0.9542 0.2394 -0.1792
vn 0.1716 0.3683 0.9137
vn 0.9137 0.3683 0.1716
vn 0.5645 -0.0041 -0.8254
vn -0.7727 0.4683 0.4284
vn -0.8421 0.1280 0.5240
vn 0.2452 0.4685 -0.8487
vn 0.9814 -0.0602 -0.1823
vn 0.9814 -0.0604 -0.1820
vn -0.9049 0.3903 0.1699
vn -0.1950 0.9717 0.1333
vn 0.1792 0.2394 0.9542
vn -0.5607 -0.1161 0.8199
vn 0.7864 -0.3039 -0.5378
vn -0.7674 0.3683 0.5248
vn 0.8224 -0.0605 -0.5657
vn 0.8228 -0.0602 -0.5651
vn 0.9828 -0.0041 -0.1845
vn 0.0436 0.9717 -0.2321
vn -0.2251 0.1280 0.9659
vn -0.7727 0.4680 -0.4289
vn -0.5686 -0.0598 -0.8205
vn 0.7600 0.3903 -0.5197
vn -0.0436 0.9717 0.2321
vn 0.1333 0.9717 -0.1950
vn -0.1792 0.2394 0.9542
vn -0.9762 -0.1161 -0.1833
vn -0.1758 -0.3039 -0.9363
vn -0.5248 0.3683 0.7674
vn 0.1845 -0.0041 0.9828
vn 0.1604 -0.2845 0.9452
vn 0.2251 0.1280 0.9659
vn -0.2452 0.4684 -0.8488
vn -0.9049 0.3903 -0.1699
vn 0.9815 -0.0604 0.1818
vn 0.9814 -0.0602 0.1823
vn 0.9049 0.3903 0.1699
vn -0.2321 0.9717 0.0436
vn 0.9542 0.2394 -0.1792
vn -0.5607 -0.1161 -0.8199
vn 0.5378 -0.3039 -0.7864
vn -0.1716 0.3683 0.9137
vn -0.8235 -0.0605 0.5641
vn 0.5551 -0.2842 -0.7818
vn 0.9659 0.1280 0.2251
vn 0.7734 0.4683 -0.4272
vn -0.9817 -0.0604 -0.1807
vn -0.9816 -0.0606 -0.1810
vn -0.1333 0.9717 0.1950
vn 0.8014 0.2394 -0.5481
vn -0.5481 0.2394 0.8014
vn 0.5248 0.3683 -0.7674
vn -0.1845 -0.0041 0.9828
vn 0.5238 0.1280 0.8422
vn 0.8490 0.4683 0.2448
vn -0.1833 -0.1161 -0.9762
vn 0.1699 0.3903 -0.9049
vn -0.7864 -0.3039 0.5378
vn 0.8254 -0.0041 -0.5645
vn -0.7938 -0.5871 -0.1588
vn -0.1588 -0.5871 -0.7938
vn 0.6736 -0.5871 0.4490
vn -0.4490 -0.5871 0.6736
vn 0.5737 0.7191 -0.3921
vn 0.5739 0.7189 -0.3922
vn 0.5742 0.7187 -0.3923
vn 0.6736 -0.5871 -0.4490
vn -0.1588 -0.5871 0.7938
vn -0.8026 0.5772 -0.1507
vn 0.4610 0.5772 0.6741
vn 0.1507 0.5772 0.8026
vn 0.9191 -0.3586 0.1635
vn 0.1632 -0.3585 0.9192
vn -0.1658 -0.3581 0.9188
vn -0.1661 -0.3581 0.9188
vn 0.7655 -0.3586 0.5343
vn 0.9191 -0.3586 -0.1635
vn -0.6546 -0.0604 -0.7536
vn -0.6541 -0.0610 -0.7539
vn -0.3922 0.7189 -0.5739
vn -0.3921 0.7192 -0.5736
vn -0.3923 0.7184 -0.5744
vn -0.1507 0.5772 -0.8026
vn 0.8026 0.5772 -0.1507
vn -0.4610 0.5772 0.6741
vn -0.4610 0.5772 -0.6741
vn -0.4491 -0.5871 -0.6735
vn 0.6741 0.5772 -0.4610
vn 0.6741 0.5772 0.4610
vn 0.1643 -0.3590 -0.9188
vn -0.7671 -0.3592 0.5316
vn -0.5290 -0.3587 0.7691
vn -0.5298 -0.3589 0.7685
vn -0.5295 -0.3588 0.7687
vn -0.1287 0.7184 -0.6836
vn -0.1285 0.7189 -0.6832
vn -0.1283 0.7192 -0.6828
vn -0.1287 0.7186 -0.6835
vn 0.6832 0.7189 -0.1285
vn 0.6829 0.7191 -0.1284
vn 0.3920 0.7194 -0.5734
vn 0.3923 0.7185 -0.5743
vn 0.3923 0.7186 -0.5743
vn 0.3921 0.7193 -0.5735
vn 0.3920 0.7193 0.5735
vn 0.3922 0.7189 0.5739
vn -0.5739 0.7189 0.3922
vn 0.6834 0.7187 0.1286
vn 0.6832 0.7189 0.1285
vn 0.6835 0.7185 0.1287
vn -0.1282 0.7195 0.6826
vn -0.1285 0.7189 0.6832
vn -0.1288 0.7184 0.6837
vn 0.5735 0.7193 0.3920
vn 0.5743 0.7185 0.3923
vn 0.5739 0.7189 0.3922
vn -0.6741 0.5772 0.4610
vn 0.1588 -0.5871 0.7938
vn -0.6827 0.7193 0.1283
vn -0.6832 0.7189 0.1285
vn -0.6829 0.7191 0.1284
vn -0.6735 -0.5871 -0.4491
vn 0.5343 -0.3587 -0.7654
vn 0.5346 -0.3587 -0.7652
vn -0.5471 -0.3575 -0.7569
vn -0.6736 -0.5871 0.4490
vn -0.6832 0.7189 -0.1285
vn 0.8026 0.5772 0.1507
vn -0.7544 -0.0584 -0.6538
vn -0.9188 -0.3590 0.1642
vn 0.7938 -0.5871 -0.1588
vn 0.4610 0.5772 -0.6741
vn 0.5342 -0.3586 0.7655
vn -0.7938 -0.5871 0.1588
vn -0.7936 -0.5873 0.1592
vn 0.1282 0.7195 -0.6826
vn 0.1285 0.7189 -0.6831
vn 0.1507 0.5772 -0.8026
vn 0.7655 -0.3586 -0.5342
vn 0.4490 -0.5871 0.6736
vn -0.6741 0.5772 -0.4610
vn -0.3920 0.7194 0.5734
vn -0.3922 0.7189 0.5739
vn -0.3924 0.7183 0.5745
vn -0.3921 0.7191 0.5737
vn -0.5733 0.7195 -0.3920
vn -0.5745 0.7183 -0.3924
vn -0.5746 0.7183 -0.3924
vn -0.5735 0.7193 -0.3920
vn -0.8026 0.5772 0.1507
vn -0.1605 -0.3594 -0.9193
vn -0.7574 -0.3574 -0.5464
vn 0.1588 -0.5871 -0.7938
vn 0.1282 0.7195 0.6826
vn 0.1286 0.7186 0.6834
vn 0.1287 0.7186 0.6835
vn 0.1283 0.7193 0.6827
vn -0.1507 0.5772 0.8026
vn -0.9192 -0.3593 -0.1611
vn 0.7938 -0.5871 0.1588
vn 0.4490 -0.5871 -0.6736
vn -0.0766 -0.0509 0.9958
vn -0.0758 -0.0501 0.9959
vn -0.0763 -0.0507 0.9958
vn 0.0764 -0.0528 -0.9957
vn 0.0769 -0.0532 -0.9956
vn -0.7534 -0.0575 0.6551
vn -0.7537 -0.0570 0.6547
vn -0.0786 -0.0547 -0.9954
vn 0.6498 -0.0512 0.7584
vn 0.6492 -0.0518 0.7588
vn -0.9955 -0.0543 -0.0783
vn 0.7584 -0.0512 0.6498
vn 0.7587 -0.0516 0.6494
vn 0.0770 -0.0509 0.9957
vn 0.9957 -0.0512 0.0768
vn -0.9956 -0.0536 0.0767
vn -0.9956 -0.0534 0.0765
vn 0.9957 -0.0516 -0.0772
vn 0.9957 -0.0512 -0.0768
vn 0.9957 -0.0518 -0.0774
vn 0.6496 -0.0515 -0.7585
vn 0.6491 -0.0521 -0.7589
vn 0.7586 -0.0515 -0.6496
vn 0.7584 -0.0513 -0.6498
vn -0.6527 -0.0510 0.7559
vn -0.6525 -0.0508 0.7561
g Vase_M_1_Vase_M_1_Collor_Material
usemtl Collor_Material
s off
f 1/1/1 197/2/1 3/3/1
f 3/4/1 180/5/1 5/6/1
f 5/7/1 164/8/1 7/9/1
f 7/10/1 132/11/1 9/12/1
f 9/13/1 148/14/1 11/15/1
f 11/16/1 246/17/1 13/18/1
f 13/19/1 230/20/1 15/21/1
f 15/22/1 214/23/1 1/24/1
f 1/25/1 3/26/1 5/27/1
f 5/28/1 7/29/1 9/30/1
f 9/31/1 11/32/1 13/33/1
f 13/34/1 15/35/1 9/36/1
f 148/37/2 158/38/2 85/39/2 11/40/2
f 99/41/3 104/42/3 103/43/3
f 97/44/3 100/45/3 99/46/3
f 98/47/3 101/48/3 97/49/3
f 103/50/3 102/51/3 98/52/3
f 104/53/3 242/54/3 103/55/3
f 99/56/3 226/57/3 104/58/3
f 100/59/3 209/60/3 99/61/3
f 97/62/3 192/63/3 100/64/3
f 101/65/3 176/66/3 97/67/3
f 98/68/3 144/69/3 101/70/3
f 102/71/3 160/72/3 98/73/3
f 103/74/3 258/75/3 102/76/3
f 56/77/4 64/78/4 221/79/4 220/80/4
f 232/81/5 24/82/5 87/83/5 240/84/5
f 80/85/6 41/86/7 219/87/8 223/88/8
f 216/89/9 17/90/9 88/91/9 224/92/9
f 182/93/10 19/94/10 82/95/10 190/96/10
f 83/97/11 20/98/11 134/99/11 142/100/11
f 78/101/12 239/102/13 235/103/12 47/104/12
f 86/105/14 23/106/14 232/107/14 240/108/14
f 134/109/15 21/110/15 84/111/15 142/112/15
f 233/113/16 32/114/17 24/115/16 232/116/16
f 135/117/18 29/118/18 21/119/18 134/120/18
f 20/121/19 28/122/19 135/123/19 134/124/19
f 22/125/20 30/126/20 249/127/20 248/128/20
f 151/129/21 30/130/21 22/131/21 150/132/21
f 167/133/22 28/134/22 20/135/22 166/136/22
f 21/137/23 29/138/23 151/139/23 150/140/23
f 115/141/24 122/142/24 195/143/24 194/144/24
f 249/145/25 250/146/26 39/147/27 31/148/28
f 36/149/29 136/150/29 135/151/29 28/152/29
f 167/153/30 168/154/30 36/155/30 28/156/30
f 218/157/31 33/158/31 25/159/31 217/160/31
f 135/161/32 136/162/32 37/163/33 29/164/32
f 234/165/34 40/166/34 32/167/34 233/168/34
f 33/169/35 201/170/35 200/171/35 25/172/35
f 200/173/36 26/174/36 18/175/36 199/176/36
f 74/177/37 43/178/37 185/179/37 189/180/37
f 155/181/38 62/182/38 54/183/38 154/184/38
f 76/185/39 157/186/39 153/187/39 45/188/39
f 77/189/40 255/190/40 251/191/40 46/192/40
f 73/193/41 189/194/41 185/195/42 42/196/41
f 74/197/43 173/198/43 169/199/43 43/200/43
f 75/201/44 44/202/44 169/203/44 173/204/44
f 78/205/45 47/206/45 251/207/45 255/208/45
f 77/209/46 46/210/47 153/211/47 157/212/47
f 187/213/48 59/214/48 51/215/48 186/216/48
f 171/217/49 60/218/49 52/219/49 170/220/49
f 53/221/50 61/222/50 155/223/50 154/224/50
f 55/225/51 63/226/51 237/227/51 236/228/51
f 139/229/52 61/230/52 53/231/52 138/232/52
f 204/233/53 58/234/53 50/235/53 203/236/53
f 156/237/54 70/238/54 62/239/54 155/240/54
f 188/241/55 67/242/55 59/243/55 187/244/55
f 57/245/56 65/246/56 205/247/56 204/248/56
f 172/249/57 68/250/57 60/251/57 171/252/57
f 244/253/58 245/254/58 130/255/58 120/256/58
f 194/257/59 196/258/59 125/259/59 115/260/59
f 63/261/60 71/262/60 238/263/60 237/264/60
f 254/265/61 71/266/61 63/267/61 253/268/61
f 230/269/62 240/270/62 87/271/62 15/272/62
f 86/273/63 240/274/63 230/275/63 13/276/63
f 164/277/64 174/278/64 83/279/64 7/280/64
f 82/281/65 174/282/65 164/283/65 5/284/65
f 88/285/66 207/286/66 197/287/66 1/288/66
f 85/289/67 256/290/67 246/291/67 11/292/67
f 246/293/68 256/294/68 86/295/68 13/296/68
f 214/297/69 224/298/69 88/299/69 1/300/69
f 108/301/70 177/302/70 176/303/70 101/304/70
f 160/305/71 161/306/71 109/307/71 98/308/71
f 112/309/72 243/310/72 242/311/72 104/312/72
f 111/313/73 259/314/73 258/315/73 103/316/73
f 144/317/74 145/318/74 108/319/74 101/320/74
f 176/321/75 177/322/75 107/323/75 97/324/75
f 129/325/76 245/326/76 244/327/76 119/328/76
f 130/329/77 229/330/77 228/331/77 120/332/77
f 107/333/78 193/334/78 192/335/78 97/336/78
f 126/337/79 147/338/79 146/339/79 116/340/79
f 131/341/80 113/342/80 228/343/80 229/344/80
f 127/345/81 163/346/81 162/347/81 117/348/81
f 211/349/82 213/350/82 124/351/82 114/352/82
f 113/353/83 211/354/83 212/355/83 121/356/83
f 177/357/84 108/358/84 126/359/84 179/360/84
f 113/361/85 121/362/85 270/363/85 228/364/85
f 118/365/86 265/366/86 268/367/86 162/368/86
f 114/369/87 194/370/87 195/371/87 262/372/87
f 120/373/88 228/374/88 270/375/88 123/376/88
f 119/377/89 244/378/89 271/379/89 266/380/89
f 116/381/90 263/382/90 269/383/90 178/384/90
f 205/385/91 66/386/91 58/387/91 204/388/91
f 145/389/92 109/390/92 127/391/92 147/392/92
f 238/393/93 72/394/93 64/395/93 237/396/93
f 193/397/94 107/398/94 125/399/94 196/400/94
f 64/401/95 72/402/95 222/403/95 221/404/95
f 243/405/96 112/406/96 130/407/96 245/408/96
f 145/409/97 147/410/97 126/411/97 108/412/97
f 227/413/98 229/414/98 130/415/98 112/416/98
f 79/417/99 48/418/99 235/419/99 239/420/99
f 161/421/100 110/422/100 128/423/100 163/424/100
f 119/425/101 266/426/101 272/427/101 260/428/101
f 178/429/102 179/430/102 126/431/102 116/432/102
f 109/433/103 145/434/103 144/435/103 98/436/103
f 83/437/104 142/438/104 132/439/104 7/440/104
f 80/441/105 206/442/105 202/443/105 41/444/105
f 58/445/106 66/446/106 188/447/106 187/448/106
f 253/449/107 63/450/107 55/451/107 252/452/107
f 258/453/108 259/454/108 110/455/108 102/456/108
f 200/457/109 201/458/109 34/459/109 26/460/109
f 183/461/110 27/462/110 19/463/110 182/464/110
f 166/465/111 20/466/111 83/467/111 174/468/111
f 193/469/112 196/470/112 124/471/112 106/472/112
f 117/473/113 162/474/113 268/475/113 264/476/113
f 131/477/114 213/478/114 211/479/114 113/480/114
f 226/481/115 227/482/115 112/483/115 104/484/115
f 151/485/116 152/486/116 38/487/116 30/488/116
f 75/489/117 141/490/117 137/491/117 44/492/117
f 260/493/118 261/494/118 129/495/118 119/496/118
f 87/497/119 24/498/119 216/499/119 224/500/119
f 37/501/120 152/502/120 151/503/120 29/504/120
f 82/505/121 19/506/121 166/507/121 174/508/121
f 161/509/122 163/510/122 127/511/122 109/512/122
f 120/513/123 123/514/123 271/515/123 244/516/123
f 125/517/124 179/518/124 178/519/124 115/520/124
f 24/521/125 32/522/126 217/523/125 216/524/125
f 87/525/127 224/526/127 214/527/127 15/528/127
f 222/529/128 65/530/128 57/531/128 221/532/128
f 52/533/129 60/534/129 139/535/129 138/536/129
f 118/537/130 260/538/130 272/539/130 265/540/130
f 217/541/131 25/542/131 17/543/131 216/544/131
f 81/545/132 18/546/132 182/547/132 190/548/132
f 79/549/133 223/550/133 219/551/133 48/552/133
f 243/553/134 245/554/134 129/555/134 111/556/134
f 177/557/135 179/558/135 125/559/135 107/560/135
f 105/561/136 227/562/136 226/563/136 99/564/136
f 242/565/137 243/566/137 111/567/137 103/568/137
f 197/569/138 207/570/138 81/571/138 3/572/138
f 54/573/139 62/574/139 253/575/139 252/576/139
f 62/577/140 70/578/140 254/579/140 253/580/140
f 49/581/141 57/582/141 204/583/141 203/584/141
f 183/585/142 184/586/142 35/587/143 27/588/142
f 249/589/144 31/590/144 23/591/144 248/592/144
f 85/593/145 22/594/145 248/595/145 256/596/145
f 227/597/146 105/598/146 131/599/146 229/600/146
f 114/601/147 262/602/147 212/603/147 211/604/147
f 128/605/148 261/606/148 260/607/148 118/608/148
f 192/609/149 193/610/149 106/611/149 100/612/149
f 34/613/150 184/614/151 183/615/151 26/616/151
f 180/617/152 190/618/152 82/619/152 5/620/152
f 88/621/153 17/622/153 199/623/153 207/624/153
f 61/625/154 69/626/154 156/627/154 155/628/154
f 237/629/155 64/630/155 56/631/155 236/632/155
f 218/633/156 217/634/156 32/635/156 40/636/156
f 18/637/157 26/638/157 183/639/157 182/640/157
f 84/641/158 21/642/158 150/643/158 158/644/158
f 199/645/159 18/646/159 81/647/159 207/648/159
f 210/649/160 213/650/160 131/651/160 105/652/160
f 115/653/161 178/654/161 269/655/161 122/656/161
f 146/657/162 147/658/162 127/659/162 117/660/162
f 106/661/163 210/662/163 209/663/163 100/664/163
f 132/665/164 142/666/164 84/667/164 9/668/164
f 76/669/165 45/670/165 137/671/165 141/672/165
f 140/673/166 69/674/166 61/675/166 139/676/166
f 221/677/167 57/678/167 49/679/167 220/680/167
f 23/681/168 31/682/168 233/683/168 232/684/168
f 35/685/169 168/686/170 167/687/170 27/688/170
f 19/689/171 27/690/171 167/691/171 166/692/171
f 248/693/172 23/694/172 86/695/172 256/696/172
f 259/697/173 111/698/173 129/699/173 261/700/173
f 116/701/174 146/702/174 267/703/174 263/704/174
f 162/705/175 163/706/175 128/707/175 118/708/175
f 209/709/176 210/710/176 105/711/176 99/712/176
f 38/713/177 250/714/177 249/715/177 30/716/177
f 73/717/178 42/718/178 202/719/178 206/720/178
f 59/721/179 67/722/179 172/723/179 171/724/179
f 50/725/180 58/726/180 187/727/180 186/728/180
f 234/729/181 233/730/182 31/731/182 39/732/182
f 150/733/183 22/734/183 85/735/183 158/736/183
f 259/737/184 261/738/184 128/739/184 110/740/184
f 210/741/185 106/742/185 124/743/185 213/744/185
f 110/745/186 161/746/186 160/747/186 102/748/186
f 84/749/187 158/750/187 148/751/187 9/752/187
f 60/753/188 68/754/188 140/755/188 139/756/188
f 51/757/189 59/758/189 171/759/189 170/760/189
f 117/761/190 264/762/190 267/763/190 146/764/190
f 17/765/191 25/766/191 200/767/191 199/768/191
f 9/769/1 15/770/1 1/771/1 5/772/1
f 124/773/192 196/774/192 194/775/192 114/776/192
f 81/777/193 190/778/193 180/779/193 3/780/193
f 99/781/3 103/782/3 98/783/3 97/784/3
f 231/785/194 238/786/194 71/787/194 14/788/194
f 215/789/195 2/790/195 65/791/195 222/792/195
f 165/793/196 8/794/196 68/795/196 172/796/196
f 149/797/197 12/798/197 70/799/197 156/800/197
f 4/801/198 90/802/199 191/803/200 181/804/199
f 181/805/201 188/806/201 66/807/201 4/808/201
f 149/809/202 156/810/202 69/811/202 10/812/202
f 269/813/203 175/814/203 91/815/203 122/816/203
f 270/817/204 225/818/204 96/819/204 123/820/204
f 270/821/205 121/822/205 89/823/205 225/824/205
f 43/825/206 169/826/206 168/827/206 35/828/206
f 136/829/207 137/830/207 45/831/207 37/832/207
f 45/833/208 153/834/209 152/835/209 37/836/209
f 168/837/210 169/838/210 44/839/210 36/840/210
f 184/841/211 185/842/211 43/843/211 35/844/211
f 79/845/212 56/846/212 220/847/213 223/848/212
f 16/849/214 96/850/215 225/851/216 215/852/214
f 267/853/217 264/854/217 93/855/217 143/856/217
f 272/857/218 266/858/218 95/859/218 257/860/218
f 212/861/219 262/862/219 90/863/219 208/864/219
f 267/865/220 143/866/220 92/867/220 263/868/220
f 215/869/221 222/870/221 72/871/221 16/872/221
f 272/873/222 257/874/222 94/875/222 265/876/222
f 271/877/223 123/878/223 96/879/223 241/880/223
f 41/881/224 202/882/224 201/883/224 33/884/224
f 46/885/225 251/886/225 250/887/225 38/888/225
f 152/889/226 153/890/227 46/891/228 38/892/226
f 2/893/229 215/894/230 225/895/231 89/896/232
f 6/897/233 181/898/233 191/899/233 91/900/234
f 4/901/235 198/902/236 208/903/237 90/904/238
f 8/905/239 92/906/240 143/907/240 133/908/240
f 12/909/241 94/910/241 257/911/241 247/912/241
f 6/913/242 91/914/243 175/915/244 165/916/243
f 10/917/245 93/918/246 159/919/247 149/920/246
f 8/921/248 165/922/249 175/923/249 92/924/250
f 195/925/251 191/926/251 90/927/251 262/928/251
f 133/929/252 10/930/252 69/931/252 140/932/252
f 14/933/253 247/934/254 257/935/255 95/936/254
f 231/937/256 16/938/256 72/939/256 238/940/256
f 201/941/257 202/942/258 42/943/257 34/944/257
f 48/945/259 219/946/259 218/947/259 40/948/259
f 247/949/260 254/950/260 70/951/260 12/952/260
f 14/953/261 95/954/261 241/955/261 231/956/261
f 271/957/262 241/958/262 95/959/262 266/960/262
f 79/961/263 239/962/263 236/963/263 56/964/263
f 250/965/264 251/966/264 47/967/264 39/968/264
f 181/969/265 6/970/265 67/971/265 188/972/265
f 268/973/266 265/974/266 94/975/266 159/976/266
f 44/977/267 137/978/267 136/979/267 36/980/267
f 247/981/268 14/982/268 71/983/269 254/984/268
f 2/985/270 89/986/271 208/987/271 198/988/271
f 268/989/272 159/990/272 93/991/272 264/992/272
f 42/993/273 185/994/273 184/995/273 34/996/273
f 133/997/274 140/998/274 68/999/274 8/1000/274
f 269/1001/275 263/1002/275 92/1003/275 175/1004/275
f 12/1005/276 149/1006/277 159/1007/278 94/1008/279
f 16/1009/280 231/1010/281 241/1011/282 96/1012/283
f 195/1013/284 122/1014/284 91/1015/284 191/1016/284
f 218/1017/285 219/1018/285 41/1019/285 33/1020/285
f 234/1021/286 235/1022/286 48/1023/286 40/1024/286
f 198/1025/287 205/1026/287 65/1027/287 2/1028/287
f 10/1029/288 133/1030/289 143/1031/290 93/1032/291
f 212/1033/292 208/1034/292 89/1035/292 121/1036/292
f 47/1037/293 235/1038/293 234/1039/293 39/1040/293
f 165/1041/294 172/1042/294 67/1043/294 6/1044/294
f 198/1045/295 4/1046/295 66/1047/295 205/1048/295
f 76/1049/296 53/1050/297 154/1051/298 157/1052/297
f 80/1053/299 49/1054/299 203/1055/300 206/1056/299
f 255/1057/301 77/1058/302 54/1059/301 252/1060/302
f 80/1061/303 223/1062/303 220/1063/303 49/1064/303
f 75/1065/304 52/1066/304 138/1067/305 141/1068/304
f 78/1069/306 55/1070/306 236/1071/306 239/1072/306
f 75/1073/307 173/1074/307 170/1075/308 52/1076/307
f 76/1077/309 141/1078/309 138/1079/309 53/1080/309
f 74/1081/310 51/1082/310 170/1083/310 173/1084/310
f 78/1085/311 255/1086/312 252/1087/312 55/1088/312
f 74/1089/313 189/1090/314 186/1091/315 51/1092/314
f 73/1093/316 206/1094/316 203/1095/317 50/1096/316
f 73/1097/318 50/1098/319 186/1099/319 189/1100/319
f 157/1101/320 154/1102/321 54/1103/321 77/1104/321
