# Blender v3.0.0 OBJ File: 'aa.blend'
# www.blender.org
mtllib Vase_L_2.mtl
o Vase_L_2
v 0.002597 -0.000000 -0.056346
v 0.007834 0.529607 -0.073554
v 0.051798 -0.000000 -0.051290
v 0.052584 0.541539 -0.051935
v 0.051040 0.000000 0.001543
v 0.070585 0.537483 -0.002612
v 0.051692 0.000000 0.051326
v 0.052527 0.532152 0.045038
v -0.009300 0.000000 0.067837
v -0.013536 0.541798 0.070850
v -0.036619 0.000000 0.043884
v -0.048611 0.534780 0.052705
v -0.072123 0.000000 0.000025
v -0.072680 0.541817 0.000153
v -0.050849 -0.000000 -0.051291
v -0.050399 0.542323 -0.050892
v 0.000488 0.020750 -0.044396
v 0.032325 0.021820 -0.031765
v 0.044588 0.020500 -0.000064
v 0.032742 0.022149 0.031734
v 0.000428 0.021340 0.044786
v -0.030946 0.020781 0.031457
v -0.044103 0.020865 0.000032
v -0.031098 0.021005 -0.031637
v 0.000457 0.067530 -0.031540
v 0.022778 0.067543 -0.022273
v 0.031981 0.067531 0.000033
v 0.022836 0.067558 0.022371
v 0.000484 0.067541 0.031563
v -0.021799 0.067533 0.022305
v -0.030962 0.067528 0.000039
v -0.022081 0.067493 -0.022397
v 0.001333 0.108000 -0.032784
v 0.023936 0.112482 -0.023449
v 0.033831 0.112440 0.000029
v 0.024053 0.112444 0.023596
v 0.000483 0.112444 0.033359
v -0.023088 0.112444 0.023596
v -0.032919 0.112435 0.000013
v -0.026960 0.106343 -0.021107
v 0.000264 0.224968 -0.064671
v 0.046050 0.233392 -0.045410
v 0.064471 0.229725 -0.002010
v 0.046202 0.233321 0.045819
v 0.000480 0.233375 0.064454
v -0.045092 0.233371 0.045598
v -0.063976 0.233371 0.000027
v -0.049628 0.227118 -0.043468
v 0.006689 0.384298 -0.083767
v 0.058693 0.388527 -0.058234
v 0.082355 0.391346 0.001215
v 0.059959 0.381723 0.059159
v 0.000347 0.388374 0.082220
v -0.057719 0.388412 0.058172
v -0.081745 0.388434 -0.000026
v -0.057615 0.388438 -0.057959
v 0.003573 0.457847 -0.059319
v 0.039828 0.459003 -0.039275
v 0.056631 0.459146 0.000156
v 0.041539 0.457028 0.039211
v -0.006310 0.455422 0.056207
v -0.039116 0.459129 0.039771
v -0.056774 0.453061 -0.001986
v -0.039118 0.459105 -0.039642
v 0.030346 0.495590 0.041637
v -0.036729 0.498359 0.037405
v -0.052175 0.492948 -0.002134
v -0.036606 0.498488 -0.037029
v 0.059922 0.331433 -0.059519
v 0.084114 0.330688 -0.000603
v 0.060737 0.324726 0.059807
v 0.000519 0.331490 0.083621
v -0.058635 0.331493 0.059097
v -0.083199 0.331498 0.000031
v -0.059182 0.331424 -0.059488
v 0.005557 0.323040 -0.085372
v 0.051545 0.010218 -0.051090
v 0.051584 0.011549 0.001584
v 0.051133 0.009873 0.051188
v -0.009242 0.010699 0.067781
v -0.036763 0.011266 0.044049
v -0.072196 0.003457 0.000013
v -0.050885 0.003790 -0.051256
v 0.002606 0.011299 -0.056599
v 0.007706 0.536454 -0.068701
v 0.049390 0.547973 -0.048720
v 0.066407 0.543836 -0.002564
v 0.048969 0.538675 0.042418
v -0.012925 0.548268 0.065845
v -0.045839 0.541010 0.049995
v -0.067782 0.548422 0.000044
v -0.047670 0.548466 -0.048135
v 0.028197 0.114972 0.000026
v -0.019115 0.114972 0.019623
v -0.027232 0.114972 0.000026
v -0.019115 0.114972 -0.019572
v 0.000483 0.114972 -0.027689
v 0.020080 0.114972 -0.019572
v 0.020080 0.114972 0.019623
v 0.000483 0.114972 0.027740
v 0.000483 0.222417 -0.055165
v 0.039508 0.222417 -0.039000
v 0.055673 0.222417 0.000025
v 0.039508 0.222417 0.039051
v 0.000483 0.222417 0.055216
v -0.038543 0.222417 0.039051
v -0.054708 0.222417 0.000025
v -0.038543 0.222417 -0.039000
v 0.000475 0.454452 -0.049732
v 0.035584 0.454443 -0.035071
v 0.050287 0.454457 0.000039
v 0.035393 0.454415 0.034998
v 0.000443 0.454444 0.049431
v -0.034710 0.454453 0.035224
v -0.049244 0.454449 0.000024
v -0.034699 0.454452 -0.035159
v 0.032358 0.502254 -0.032019
v 0.046406 0.501773 -0.000006
v -0.045431 0.501810 0.000002
v -0.032062 0.501748 -0.032509
v 0.049327 0.332658 -0.048820
v 0.069542 0.332655 0.000022
v 0.049275 0.332647 0.048819
v 0.000480 0.332651 0.069057
v -0.048363 0.332658 0.048870
v -0.068595 0.332658 0.000025
v -0.048363 0.332658 -0.048820
v 0.000482 0.332658 -0.069052
v 0.013939 0.000000 0.063554
v 0.009939 0.518126 0.064998
v 0.017624 0.020924 0.041413
v 0.012579 0.067526 0.029238
v 0.013286 0.112448 0.030938
v 0.025159 0.233398 0.059715
v 0.032878 0.369413 0.078397
v 0.021325 0.457636 0.050549
v 0.032958 0.331468 0.078329
v 0.013967 0.011130 0.063582
v 0.008935 0.523299 0.061369
v 0.011134 0.114972 0.025740
v 0.021694 0.222417 0.051233
v 0.019577 0.454450 0.046483
v 0.008729 0.500572 0.047080
v 0.027055 0.332667 0.064177
v -0.027387 0.000000 0.067354
v -0.027977 0.541675 0.068110
v -0.016795 0.021170 0.041493
v -0.011633 0.067537 0.029275
v -0.012328 0.112444 0.030954
v -0.024325 0.233353 0.059917
v -0.031885 0.369400 0.078023
v -0.027105 0.453910 0.050598
v -0.031482 0.324676 0.077194
v -0.027307 0.006709 0.067345
v -0.025860 0.548337 0.063522
v -0.010169 0.114972 0.025740
v -0.020728 0.222417 0.051233
v -0.018613 0.454445 0.046115
v -0.026068 0.332660 0.064133
v 0.045862 0.000000 0.029383
v 0.068542 0.541715 0.028329
v 0.041293 0.020302 0.017150
v 0.029678 0.067522 0.012111
v 0.031395 0.112448 0.012833
v 0.060655 0.233300 0.024861
v 0.080059 0.362601 0.033268
v 0.052918 0.455792 0.021212
v 0.049064 0.497087 0.019162
v 0.079508 0.324749 0.033135
v 0.046415 0.011757 0.029498
v 0.064110 0.548184 0.026562
v 0.026197 0.114972 0.010677
v 0.051691 0.222417 0.021237
v 0.046889 0.454491 0.019411
v 0.064626 0.332666 0.026600
v 0.067758 -0.000000 -0.027891
v 0.065401 0.537460 -0.030404
v 0.042250 0.021295 -0.016981
v 0.029767 0.067542 -0.012097
v 0.031510 0.112411 -0.012867
v 0.059880 0.229729 -0.026544
v 0.078434 0.372266 -0.031074
v 0.050944 0.457728 -0.020883
v 0.048175 0.498637 -0.019742
v 0.078330 0.330720 -0.033076
v 0.067508 0.004853 -0.028014
v 0.061366 0.543915 -0.028728
v 0.026197 0.114972 -0.010626
v 0.051691 0.222417 -0.021186
v 0.046677 0.454454 -0.019118
v 0.064575 0.332658 -0.026523
v 0.028389 -0.000000 -0.067297
v 0.034656 0.530569 -0.067210
v 0.017587 0.021164 -0.041528
v 0.012598 0.067536 -0.029253
v 0.013282 0.112452 -0.030857
v 0.025623 0.233234 -0.060332
v 0.038631 0.364673 -0.078157
v 0.021644 0.457923 -0.051000
v 0.020994 0.497912 -0.048631
v 0.038587 0.327188 -0.078377
v 0.028437 0.006285 -0.067213
v 0.033089 0.536690 -0.063587
v 0.011134 0.114972 -0.025689
v 0.021694 0.222417 -0.051182
v 0.019641 0.454456 -0.046194
v 0.027031 0.332658 -0.064067
v -0.017035 -0.000000 -0.052637
v -0.027567 0.541873 -0.067769
v -0.016560 0.020768 -0.041143
v -0.011611 0.067545 -0.029136
v -0.016169 0.101776 -0.028447
v -0.028954 0.218742 -0.057960
v -0.031997 0.369312 -0.078211
v -0.017096 0.456762 -0.054527
v -0.015854 0.497934 -0.051419
v -0.032831 0.327488 -0.078904
v -0.017157 0.011270 -0.052902
v -0.025804 0.548329 -0.063483
v -0.010169 0.114972 -0.025689
v -0.020728 0.222417 -0.051182
v -0.018623 0.454448 -0.046094
v -0.026066 0.332658 -0.064067
v -0.066806 -0.000000 -0.027848
v -0.067210 0.541853 -0.028175
v -0.041319 0.022007 -0.017275
v -0.028575 0.067585 -0.011978
v -0.030988 0.112357 -0.013034
v -0.059539 0.233344 -0.024926
v -0.077537 0.369315 -0.032287
v -0.051245 0.451682 -0.022902
v -0.077281 0.331590 -0.032112
v -0.066455 0.010012 -0.027712
v -0.062752 0.548511 -0.026170
v -0.025232 0.114972 -0.010626
v -0.050725 0.222417 -0.021186
v -0.045672 0.454451 -0.019092
v -0.063610 0.332658 -0.026523
v -0.052603 0.000000 0.020440
v -0.064546 0.534656 0.029873
v -0.040785 0.020881 0.017135
v -0.028766 0.067537 0.012141
v -0.030445 0.112444 0.012836
v -0.059385 0.233358 0.024825
v -0.077757 0.369376 0.032405
v -0.049809 0.457665 0.020878
v -0.047698 0.498428 0.019889
v -0.077657 0.331512 0.032389
v -0.052814 0.011161 0.020516
v -0.060874 0.540944 0.028296
v -0.025232 0.114972 0.010677
v -0.050725 0.222417 0.021236
v -0.045672 0.454451 0.019143
v -0.042421 0.501656 0.017756
v -0.063610 0.332658 0.026573
v 0.000387 0.501549 -0.046392
v 0.024189 0.500338 0.037516
v 0.000637 0.501900 0.046173
v -0.032221 0.501575 0.032876
v -0.017073 0.501902 0.042507
v 0.042460 0.501985 0.017052
v 0.043226 0.501704 -0.017696
v 0.018835 0.501278 -0.043163
v -0.017136 0.501901 -0.042414
v -0.042232 0.501743 -0.017671
v 0.003502 0.497917 -0.055798
v 0.036448 0.499280 -0.036080
v 0.052469 0.498667 0.000035
v -0.006212 0.495360 0.051973
v 0.010496 0.497236 0.052353
v -0.025527 0.495352 0.047398
v -0.048117 0.492844 -0.021434
vt 0.007230 0.945509
vt 0.033239 0.929885
vt 0.033239 0.971180
vt 0.874151 0.367847
vt 0.890449 0.353612
vt 0.890449 0.390410
vt 0.962515 0.456875
vt 0.962515 0.485552
vt 0.923788 0.467283
vt 0.796774 0.521238
vt 0.762244 0.428770
vt 0.796774 0.398043
vt 0.977717 0.844231
vt 0.963769 0.844212
vt 0.963639 0.808760
vt 0.977717 0.808639
vt 0.708928 0.114409
vt 0.746751 0.030561
vt 0.746751 0.152770
vt 0.979473 0.375846
vt 0.965365 0.354301
vt 0.979473 0.340374
vt 0.983236 0.790435
vt 0.955027 0.782615
vt 0.983236 0.754984
vt 0.972590 0.214505
vt 0.972590 0.248524
vt 0.934200 0.228682
vt 0.798889 0.385052
vt 0.763745 0.338376
vt 0.798889 0.280415
vt 0.780274 0.790878
vt 0.737913 0.744394
vt 0.780274 0.689331
vt 0.973805 0.331581
vt 0.956899 0.300922
vt 0.973805 0.269782
vt 0.111923 0.562598
vt 0.097477 0.545208
vt 0.111923 0.517201
vt 0.974595 0.555256
vt 0.958395 0.523902
vt 0.974595 0.492365
vt 0.381700 0.884818
vt 0.361341 0.855871
vt 0.381700 0.818799
vt 0.957741 0.178375
vt 0.940410 0.147469
vt 0.957741 0.108902
vt 0.118466 0.214364
vt 0.102949 0.189244
vt 0.118466 0.146581
vt 0.116379 0.511785
vt 0.097477 0.495478
vt 0.116379 0.403076
vt 0.811387 0.683914
vt 0.782878 0.662959
vt 0.811387 0.562280
vt 0.689406 0.743753
vt 0.732497 0.693736
vt 0.732497 0.788051
vt 0.952978 0.550792
vt 0.928938 0.535731
vt 0.952978 0.492365
vt 0.008286 0.343443
vt 0.005502 0.330191
vt 0.008286 0.316939
vt 0.679407 0.746473
vt 0.676623 0.733221
vt 0.679407 0.719970
vt 0.679407 0.714553
vt 0.676623 0.701302
vt 0.679407 0.688050
vt 0.008286 0.279603
vt 0.005502 0.266351
vt 0.008286 0.253099
vt 0.008286 0.311523
vt 0.005502 0.298271
vt 0.008286 0.285019
vt 0.679407 0.778393
vt 0.676623 0.765141
vt 0.679407 0.751890
vt 0.008286 0.407282
vt 0.005502 0.394031
vt 0.008286 0.380779
vt 0.008286 0.375363
vt 0.005502 0.362111
vt 0.008286 0.348859
vt 0.973766 0.078252
vt 0.963623 0.053767
vt 0.973766 0.029281
vt 0.313925 0.965449
vt 0.303783 0.940963
vt 0.313925 0.916477
vt 0.381558 0.618914
vt 0.371415 0.594428
vt 0.381558 0.569942
vt 0.231436 0.867785
vt 0.221294 0.843299
vt 0.231436 0.818813
vt 0.975115 0.398043
vt 0.975115 0.433635
vt 0.956055 0.424776
vt 0.955983 0.403066
vt 0.121169 0.960494
vt 0.114018 0.927371
vt 0.141985 0.936678
vt 0.141985 0.967303
vt 0.895350 0.544334
vt 0.893626 0.494196
vt 0.923522 0.499778
vt 0.923522 0.550792
vt 0.963251 0.158192
vt 0.981957 0.152805
vt 0.981957 0.177925
vt 0.963157 0.179876
vt 0.977974 0.980175
vt 0.949947 0.979583
vt 0.955299 0.948109
vt 0.977974 0.943582
vt 0.986124 0.890404
vt 0.971962 0.876596
vt 0.986124 0.860064
vt 0.988061 0.923854
vt 0.971962 0.909331
vt 0.988061 0.895821
vt 0.361341 0.899088
vt 0.379078 0.890234
vt 0.379078 0.911484
vt 0.996432 0.485552
vt 0.986121 0.466845
vt 0.996432 0.456875
vt 0.969666 0.636035
vt 0.969666 0.671582
vt 0.931399 0.661838
vt 0.932843 0.639781
vt 0.467682 0.267918
vt 0.418099 0.267846
vt 0.418729 0.255505
vt 0.467682 0.254011
vt 0.870465 0.937128
vt 0.818504 0.938165
vt 0.820297 0.911248
vt 0.870465 0.912327
vt 0.046761 0.952225
vt 0.107239 0.948210
vt 0.107239 0.969892
vt 0.047023 0.967623
vt 0.979208 0.017330
vt 0.936928 0.016918
vt 0.936927 0.012182
vt 0.979208 0.003244
vt 0.207636 0.924841
vt 0.207636 0.946789
vt 0.147401 0.940408
vt 0.148134 0.925117
vt 0.387904 0.925363
vt 0.447829 0.920035
vt 0.447829 0.942293
vt 0.388295 0.940784
vt 0.303850 0.209353
vt 0.171776 0.200158
vt 0.178902 0.173703
vt 0.303850 0.168347
vt 0.388565 0.891269
vt 0.447829 0.890309
vt 0.447829 0.914619
vt 0.388556 0.913746
vt 0.532421 0.964692
vt 0.532396 0.949303
vt 0.588569 0.948813
vt 0.588569 0.965093
vt 0.675715 0.979691
vt 0.675739 0.964270
vt 0.731901 0.963957
vt 0.731901 0.980171
vt 0.673269 0.930932
vt 0.672910 0.907533
vt 0.731901 0.906871
vt 0.731901 0.931222
vt 0.808340 0.019528
vt 0.752167 0.019044
vt 0.752217 0.003621
vt 0.808340 0.003244
vt 0.875388 0.019131
vt 0.875332 0.003722
vt 0.931511 0.003244
vt 0.931511 0.019523
vt 0.513150 0.563121
vt 0.388302 0.559241
vt 0.388181 0.527843
vt 0.513150 0.522054
vt 0.453613 0.950708
vt 0.514150 0.946876
vt 0.514150 0.968582
vt 0.453910 0.966263
vt 0.685805 0.007368
vt 0.746751 0.003244
vt 0.746751 0.025144
vt 0.685960 0.022731
vt 0.878991 0.943582
vt 0.878991 0.965350
vt 0.818556 0.962138
vt 0.818504 0.946771
vt 0.731901 0.936639
vt 0.731901 0.958540
vt 0.671568 0.953899
vt 0.671887 0.938514
vt 0.910871 0.765099
vt 0.949611 0.754743
vt 0.949611 0.790435
vt 0.912733 0.787279
vt 0.298430 0.903419
vt 0.298477 0.860264
vt 0.313925 0.862110
vt 0.313925 0.911060
vt 0.901809 0.353072
vt 0.929678 0.340374
vt 0.929678 0.389349
vt 0.895895 0.374761
vt 0.705874 0.476370
vt 0.705874 0.512682
vt 0.666307 0.500864
vt 0.668808 0.479060
vt 0.004174 0.694973
vt 0.041732 0.666499
vt 0.041732 0.777674
vt 0.022820 0.787322
vt 0.693678 0.595229
vt 0.732497 0.568537
vt 0.732497 0.677203
vt 0.707406 0.688320
vt 0.934994 0.158318
vt 0.909006 0.167135
vt 0.910661 0.115551
vt 0.934994 0.108902
vt 0.655845 0.274321
vt 0.630028 0.266193
vt 0.655845 0.175617
vt 0.283383 0.348678
vt 0.283321 0.324256
vt 0.437354 0.319702
vt 0.437354 0.353450
vt 0.925732 0.080626
vt 0.897894 0.088637
vt 0.898978 0.038386
vt 0.925732 0.029281
vt 0.758328 0.281452
vt 0.758328 0.392627
vt 0.717346 0.369562
vt 0.731371 0.280415
vt 0.966546 0.923448
vt 0.951176 0.923854
vt 0.944245 0.881258
vt 0.966546 0.872847
vt 0.977839 0.186510
vt 0.986222 0.186411
vt 0.986222 0.209018
vt 0.972853 0.209088
vt 0.973435 0.100480
vt 0.931148 0.099658
vt 0.931287 0.093586
vt 0.973435 0.086033
vt 0.277957 0.314285
vt 0.123882 0.309822
vt 0.123997 0.285632
vt 0.277957 0.280525
vt 0.248865 0.564018
vt 0.123992 0.560022
vt 0.123882 0.528512
vt 0.248865 0.522999
vt 0.741746 0.950914
vt 0.802284 0.947806
vt 0.802284 0.969491
vt 0.741710 0.966289
vt 0.785691 0.778880
vt 0.785729 0.774560
vt 0.821020 0.774273
vt 0.821020 0.788221
vt 0.257765 0.558908
vt 0.257897 0.527403
vt 0.382744 0.523556
vt 0.382744 0.564525
vt 0.132379 0.150489
vt 0.166359 0.146581
vt 0.166359 0.275108
vt 0.123882 0.267303
vt 0.255446 0.004102
vt 0.255446 0.142559
vt 0.223127 0.134807
vt 0.214280 0.002708
vt 0.620817 0.004490
vt 0.680091 0.003639
vt 0.680091 0.027931
vt 0.620602 0.026873
vt 0.516663 0.516637
vt 0.388181 0.512996
vt 0.391906 0.483648
vt 0.516663 0.476370
vt 0.382765 0.481453
vt 0.382765 0.512961
vt 0.265924 0.518139
vt 0.257765 0.476370
vt 0.922522 0.272614
vt 0.866362 0.272196
vt 0.866368 0.256795
vt 0.922522 0.256328
vt 0.604563 0.275118
vt 0.573051 0.274839
vt 0.573100 0.266456
vt 0.604563 0.261039
vt 0.670820 0.845137
vt 0.532396 0.838802
vt 0.532396 0.825261
vt 0.670820 0.818172
vt 0.670820 0.780374
vt 0.532396 0.774038
vt 0.532396 0.760497
vt 0.670820 0.753408
vt 0.687877 0.610303
vt 0.687877 0.637268
vt 0.549453 0.630179
vt 0.549453 0.616638
vt 0.526980 0.753408
vt 0.526980 0.780374
vt 0.388556 0.773284
vt 0.388556 0.759743
vt 0.375647 0.721653
vt 0.375647 0.748618
vt 0.237223 0.741529
vt 0.237223 0.727988
vt 0.237223 0.813382
vt 0.237223 0.786417
vt 0.375647 0.793506
vt 0.375647 0.807047
vt 0.277918 0.470954
vt 0.123882 0.466511
vt 0.123921 0.442311
vt 0.277918 0.437210
vt 0.573015 0.319711
vt 0.711809 0.322913
vt 0.711809 0.349879
vt 0.573015 0.353462
vt 0.671190 0.685443
vt 0.671190 0.712409
vt 0.532396 0.715610
vt 0.532396 0.681859
vt 0.657377 0.555825
vt 0.518586 0.552723
vt 0.518567 0.525758
vt 0.657377 0.522054
vt 0.671207 0.676433
vt 0.532432 0.673436
vt 0.532396 0.646470
vt 0.671207 0.642685
vt 0.602151 0.914338
vt 0.602207 0.891741
vt 0.661640 0.891293
vt 0.661640 0.915461
vt 0.376021 0.716237
vt 0.237240 0.713132
vt 0.237223 0.686167
vt 0.376021 0.682500
vt 0.388181 0.672832
vt 0.388185 0.645866
vt 0.526980 0.642685
vt 0.526980 0.676443
vt 0.779850 0.882999
vt 0.802284 0.882891
vt 0.802284 0.942390
vt 0.778002 0.942002
vt 0.453891 0.036459
vt 0.299872 0.031999
vt 0.299874 0.007697
vt 0.453891 0.002708
vt 0.283375 0.309287
vt 0.283373 0.284988
vt 0.437391 0.280525
vt 0.437391 0.314275
vt 0.277904 0.353460
vt 0.123891 0.349004
vt 0.123882 0.324720
vt 0.277904 0.319702
vt 0.959949 0.390433
vt 0.935094 0.390787
vt 0.936331 0.340542
vt 0.959949 0.340374
vt 0.526980 0.818172
vt 0.526980 0.845137
vt 0.388556 0.838048
vt 0.388556 0.824506
vt 0.283321 0.387626
vt 0.283325 0.363334
vt 0.437341 0.358876
vt 0.437341 0.392627
vt 0.510358 0.470954
vt 0.508997 0.444444
vt 0.560605 0.445059
vt 0.560605 0.469855
vt 0.453889 0.114793
vt 0.299873 0.110341
vt 0.299872 0.086031
vt 0.453889 0.081042
vt 0.442763 0.433720
vt 0.442847 0.402052
vt 0.567719 0.398043
vt 0.567719 0.438880
vt 0.453709 0.912610
vt 0.453613 0.890170
vt 0.512974 0.889264
vt 0.512974 0.913562
vt 0.231807 0.716251
vt 0.093013 0.713049
vt 0.093013 0.686083
vt 0.231807 0.682500
vt 0.123897 0.426807
vt 0.123882 0.402529
vt 0.277909 0.398043
vt 0.277909 0.431794
vt 0.853957 0.983286
vt 0.818504 0.983051
vt 0.818529 0.978731
vt 0.853957 0.970767
vt 0.532619 0.887391
vt 0.591757 0.886437
vt 0.591757 0.910738
vt 0.532396 0.909890
vt 0.958207 0.079939
vt 0.931148 0.080617
vt 0.933309 0.030605
vt 0.958207 0.029281
vt 0.953368 0.622221
vt 0.932136 0.623085
vt 0.937974 0.562280
vt 0.953368 0.562983
vt 0.926264 0.449867
vt 0.923788 0.398043
vt 0.950566 0.401805
vt 0.950566 0.451458
vt 0.054369 0.539146
vt 0.085978 0.539011
vt 0.085978 0.659641
vt 0.050278 0.664048
vt 0.123958 0.511671
vt 0.123882 0.480484
vt 0.252349 0.476370
vt 0.252349 0.517582
vt 0.522079 0.506381
vt 0.522108 0.479416
vt 0.660890 0.476370
vt 0.660890 0.510131
vt 0.093013 0.786431
vt 0.231436 0.792765
vt 0.231436 0.806306
vt 0.093013 0.813396
vt 0.370356 0.944473
vt 0.319342 0.944687
vt 0.321172 0.917563
vt 0.370356 0.918650
vt 0.351088 0.270328
vt 0.294926 0.269872
vt 0.294934 0.254504
vt 0.351088 0.254011
vt 0.913248 0.748362
vt 0.910871 0.689777
vt 0.935156 0.689331
vt 0.935156 0.749326
vt 0.220548 0.969608
vt 0.216469 0.920828
vt 0.231807 0.921105
vt 0.231807 0.977142
vt 0.287626 0.880058
vt 0.287626 0.915412
vt 0.237223 0.905616
vt 0.237653 0.884609
vt 0.508325 0.391749
vt 0.507824 0.369299
vt 0.567313 0.368334
vt 0.567313 0.392627
vt 0.485217 0.248512
vt 0.331204 0.244094
vt 0.331205 0.219737
vt 0.485217 0.214769
vt 0.573015 0.388853
vt 0.573049 0.361888
vt 0.711823 0.358878
vt 0.711823 0.392622
vt 0.237223 0.754035
vt 0.375647 0.760370
vt 0.375647 0.773911
vt 0.237223 0.781000
vt 0.448197 0.884892
vt 0.388556 0.882939
vt 0.389624 0.858763
vt 0.448197 0.850554
vt 0.451226 0.319711
vt 0.567598 0.324523
vt 0.567598 0.356031
vt 0.442770 0.360506
vt 0.098355 0.941487
vt 0.046761 0.942794
vt 0.048199 0.915746
vt 0.098355 0.916845
vt 0.960816 0.742926
vt 0.940572 0.749326
vt 0.942036 0.697375
vt 0.960816 0.693730
vt 0.214339 0.156990
vt 0.214280 0.149136
vt 0.249289 0.148810
vt 0.249289 0.162931
vt 0.813762 0.019064
vt 0.813756 0.003667
vt 0.869916 0.003244
vt 0.869916 0.019531
vt 0.884408 0.947613
vt 0.944531 0.943582
vt 0.944531 0.965492
vt 0.884538 0.963020
vt 0.934200 0.193779
vt 0.967437 0.187178
vt 0.967437 0.209088
vt 0.453613 0.925830
vt 0.513736 0.918979
vt 0.513736 0.941460
vt 0.454498 0.941228
vt 0.329330 0.862008
vt 0.355924 0.860264
vt 0.355924 0.912147
vt 0.319342 0.911268
vt 0.277909 0.392627
vt 0.123882 0.388150
vt 0.123901 0.363861
vt 0.277909 0.358876
vt 0.526976 0.685442
vt 0.526976 0.712408
vt 0.388181 0.715610
vt 0.388181 0.681859
vt 0.526605 0.747992
vt 0.388181 0.741657
vt 0.388181 0.728116
vt 0.526605 0.721026
vt 0.574448 0.995540
vt 0.574484 0.970577
vt 0.588569 0.970509
vt 0.588569 0.995630
vt 0.974221 0.618444
vt 0.958784 0.618580
vt 0.959149 0.567981
vt 0.974221 0.562280
vt 0.567635 0.277956
vt 0.567635 0.309474
vt 0.451262 0.314285
vt 0.442808 0.273501
vt 0.860946 0.181999
vt 0.860946 0.272614
vt 0.834036 0.269958
vt 0.710138 0.184228
vt 0.749580 0.158186
vt 0.749580 0.274789
vt 0.719497 0.270322
vt 0.974638 0.450466
vt 0.980704 0.450163
vt 0.980704 0.485552
vt 0.967931 0.485523
vt 0.356504 0.269780
vt 0.356524 0.254417
vt 0.412683 0.254011
vt 0.412683 0.270297
vt 0.878991 0.996519
vt 0.866801 0.988961
vt 0.878991 0.970767
vt 0.171901 0.269905
vt 0.171776 0.254597
vt 0.227936 0.253957
vt 0.227936 0.270437
vt 0.237223 0.643333
vt 0.376018 0.646535
vt 0.376018 0.673501
vt 0.237223 0.677084
vt 0.231437 0.721667
vt 0.231437 0.748633
vt 0.093013 0.741543
vt 0.093013 0.728002
vt 0.884508 0.975938
vt 0.884408 0.971203
vt 0.919839 0.970908
vt 0.919839 0.983427
vt 0.704721 0.161347
vt 0.704721 0.274237
vt 0.664118 0.251341
vt 0.678009 0.158186
vt 0.112307 0.111416
vt 0.002708 0.058663
vt 0.013191 0.024795
vt 0.112307 0.002708
vt 0.832002 0.761980
vt 0.891216 0.761025
vt 0.891216 0.785383
vt 0.831905 0.784438
vt 0.886644 0.647315
vt 0.925983 0.636035
vt 0.925983 0.672151
vt 0.888933 0.669257
vt 0.171778 0.243800
vt 0.171776 0.219226
vt 0.325788 0.214769
vt 0.325788 0.248541
vt 0.979720 0.029364
vt 0.993089 0.029281
vt 0.993089 0.058806
vt 0.979182 0.058834
vt 0.688262 0.602287
vt 0.549468 0.599085
vt 0.549468 0.572120
vt 0.688262 0.568537
vt 0.093013 0.754049
vt 0.231437 0.760384
vt 0.231437 0.773925
vt 0.093013 0.781014
vt 0.012820 0.127477
vt 0.044861 0.116833
vt 0.044861 0.242245
vt 0.002708 0.247683
vt 0.670820 0.812756
vt 0.532396 0.806421
vt 0.532396 0.792879
vt 0.670820 0.785790
vt 0.050278 0.140720
vt 0.096804 0.116833
vt 0.096804 0.231555
vt 0.070553 0.235494
vt 0.044861 0.424066
vt 0.044861 0.538789
vt 0.004174 0.514697
vt 0.011671 0.420899
vt 0.044813 0.544593
vt 0.044813 0.661083
vt 0.004174 0.643542
vt 0.015848 0.544205
vt 0.297708 0.948348
vt 0.297708 0.970018
vt 0.237223 0.966004
vt 0.237489 0.950569
vt 0.989491 0.665308
vt 0.975082 0.652220
vt 0.989491 0.636035
vt 0.299878 0.154680
vt 0.299872 0.130328
vt 0.453888 0.125882
vt 0.453888 0.159633
vt 0.711930 0.431794
vt 0.573136 0.428592
vt 0.573136 0.401626
vt 0.711930 0.398043
vt 0.711845 0.284118
vt 0.711845 0.311083
vt 0.573051 0.314285
vt 0.573051 0.280535
vt 0.662793 0.555825
vt 0.662793 0.528860
vt 0.801217 0.535949
vt 0.801217 0.549491
vt 0.297238 0.920828
vt 0.297238 0.942932
vt 0.237223 0.937512
vt 0.237698 0.922098
vt 0.658702 0.034296
vt 0.658702 0.157491
vt 0.620602 0.129355
vt 0.633863 0.033348
vt 0.717346 0.424071
vt 0.756828 0.398043
vt 0.756828 0.514533
vt 0.721475 0.514220
vt 0.877576 0.924432
vt 0.875882 0.872847
vt 0.909136 0.875247
vt 0.909136 0.924663
vt 0.703511 0.036168
vt 0.703511 0.152770
vt 0.664118 0.126747
vt 0.676472 0.033348
vt 0.534003 0.943396
vt 0.532396 0.916155
vt 0.583642 0.916931
vt 0.583642 0.942217
vt 0.990230 0.098270
vt 0.979182 0.079587
vt 0.990230 0.064251
vt 0.299872 0.070637
vt 0.299875 0.046320
vt 0.453889 0.041875
vt 0.453889 0.075626
vt 0.203586 0.968465
vt 0.147473 0.968289
vt 0.147401 0.952864
vt 0.203586 0.952206
vt 0.573136 0.467346
vt 0.573140 0.440381
vt 0.711929 0.437210
vt 0.711929 0.470953
vt 0.526980 0.812756
vt 0.388556 0.806421
vt 0.388556 0.792879
vt 0.526980 0.785790
vt 0.602151 0.927043
vt 0.662119 0.920877
vt 0.662119 0.942938
vt 0.602620 0.942376
vt 0.128936 0.010650
vt 0.166359 0.002708
vt 0.166359 0.141165
vt 0.117723 0.135560
vt 0.607642 0.255520
vt 0.490747 0.251761
vt 0.490633 0.219952
vt 0.607642 0.214769
vt 0.602151 0.953122
vt 0.662802 0.948355
vt 0.662802 0.969716
vt 0.602652 0.968520
vt 0.751933 0.940633
vt 0.737913 0.883112
vt 0.762102 0.882891
vt 0.762102 0.942325
vt 0.502407 0.368053
vt 0.502407 0.392627
vt 0.442763 0.390783
vt 0.443095 0.368908
vt 0.309316 0.204349
vt 0.309267 0.180181
vt 0.463338 0.175617
vt 0.463338 0.209353
vt 0.933085 0.859861
vt 0.931342 0.808639
vt 0.958222 0.809613
vt 0.958222 0.860272
vt 0.903734 0.855413
vt 0.901974 0.796294
vt 0.925925 0.801066
vt 0.925925 0.860272
vt 0.567827 0.983282
vt 0.532396 0.982953
vt 0.532578 0.975101
vt 0.567827 0.970509
vt 0.283326 0.403038
vt 0.437346 0.398043
vt 0.437346 0.431794
vt 0.283331 0.427330
vt 0.147513 0.895775
vt 0.206542 0.895109
vt 0.206542 0.919425
vt 0.147401 0.918563
vt 0.670820 0.721026
vt 0.670820 0.747992
vt 0.532396 0.740902
vt 0.532396 0.727361
vt 0.319342 0.965923
vt 0.319347 0.950516
vt 0.375495 0.950103
vt 0.375495 0.966390
vt 0.916357 0.873306
vt 0.938829 0.872847
vt 0.938829 0.932843
vt 0.914552 0.932500
vt 0.737913 0.594147
vt 0.777462 0.568537
vt 0.777462 0.681428
vt 0.750287 0.683914
vt 0.050278 0.434463
vt 0.090093 0.408716
vt 0.090093 0.530926
vt 0.063575 0.533595
vt 0.289510 0.270328
vt 0.233352 0.269798
vt 0.233399 0.254392
vt 0.289510 0.253957
vt 0.387385 0.950734
vt 0.447829 0.947710
vt 0.447829 0.969420
vt 0.387308 0.966131
vt 0.888193 0.476669
vt 0.887604 0.464327
vt 0.915968 0.463771
vt 0.915968 0.478478
vt 0.093013 0.673500
vt 0.093013 0.646535
vt 0.231807 0.643333
vt 0.231807 0.677084
vt 0.987373 0.175133
vt 0.989237 0.152493
vt 0.997292 0.151616
vt 0.997292 0.179876
vt 0.087597 0.684878
vt 0.087597 0.793544
vt 0.047863 0.768158
vt 0.060615 0.682500
vt 0.231807 0.879956
vt 0.231807 0.915338
vt 0.217361 0.915412
vt 0.217100 0.879941
vt 0.141985 0.818813
vt 0.141985 0.867785
vt 0.093013 0.867785
vt 0.093013 0.818813
vt 0.979759 0.108902
vt 0.979759 0.147388
vt 0.963157 0.134509
vt 0.857822 0.633443
vt 0.816803 0.633308
vt 0.816940 0.585998
vt 0.857822 0.562280
vt 0.896256 0.562280
vt 0.896256 0.627077
vt 0.863238 0.602415
vt 0.990789 0.693730
vt 0.990789 0.728123
vt 0.980760 0.696114
vt 0.926424 0.280415
vt 0.926424 0.334957
vt 0.895895 0.315934
vt 0.900851 0.181999
vt 0.900851 0.240365
vt 0.866362 0.207995
vt 0.081899 0.397015
vt 0.067061 0.403300
vt 0.050278 0.252746
vt 0.081899 0.240911
vt 0.983134 0.842822
vt 0.983347 0.809529
vt 0.992806 0.808639
vt 0.992806 0.843962
vt 0.901673 0.596358
vt 0.926719 0.562280
vt 0.926719 0.625579
vt 0.875449 0.739704
vt 0.886373 0.689331
vt 0.905454 0.690688
vt 0.905454 0.754163
vt 0.863275 0.488353
vt 0.888209 0.484536
vt 0.888209 0.550792
vt 0.853053 0.547448
vt 0.981670 0.534978
vt 0.990420 0.532241
vt 0.990420 0.565548
vt 0.980011 0.566441
vt 0.781150 0.118759
vt 0.781150 0.274789
vt 0.754996 0.266627
vt 0.769857 0.111276
vt 0.868735 0.390410
vt 0.804350 0.385293
vt 0.804305 0.362852
vt 0.868735 0.357059
vt 0.459304 0.134212
vt 0.615186 0.125882
vt 0.615186 0.157491
vt 0.459336 0.150426
vt 0.992601 0.948492
vt 0.992601 0.979453
vt 0.983390 0.976009
vt 0.984939 0.943582
vt 0.842585 0.161816
vt 0.834036 0.108902
vt 0.870171 0.114672
vt 0.870171 0.176582
vt 0.459305 0.091370
vt 0.615162 0.083275
vt 0.615162 0.114793
vt 0.459309 0.107656
vt 0.283335 0.450068
vt 0.434759 0.439767
vt 0.434759 0.470954
vt 0.283345 0.466439
vt 0.870033 0.689331
vt 0.870033 0.755609
vt 0.841626 0.750277
vt 0.831905 0.699748
vt 0.268879 0.629613
vt 0.257765 0.576900
vt 0.315716 0.569942
vt 0.315716 0.634739
vt 0.732497 0.864694
vt 0.691746 0.864630
vt 0.691525 0.817331
vt 0.732497 0.793467
vt 0.814804 0.843773
vt 0.814692 0.796464
vt 0.855662 0.796294
vt 0.855662 0.867431
vt 0.826489 0.760467
vt 0.785691 0.768857
vt 0.785710 0.712964
vt 0.826489 0.689331
vt 0.847637 0.555825
vt 0.806633 0.555372
vt 0.806922 0.508235
vt 0.847637 0.484536
vt 0.850194 0.100377
vt 0.809127 0.100381
vt 0.809266 0.052970
vt 0.850194 0.029281
vt 0.365999 0.628583
vt 0.321132 0.630232
vt 0.344382 0.569942
vt 0.365999 0.576022
vt 0.503580 0.446153
vt 0.503580 0.470954
vt 0.440376 0.467509
vt 0.440176 0.449143
vt 0.540424 0.881020
vt 0.532396 0.850554
vt 0.596735 0.856604
vt 0.596735 0.879037
vt 0.511895 0.850554
vt 0.511895 0.883847
vt 0.453613 0.874443
vt 0.453630 0.851986
vt 0.098192 0.910329
vt 0.046761 0.908742
vt 0.047179 0.882923
vt 0.098192 0.875539
vt 0.152571 0.889692
vt 0.147401 0.860591
vt 0.211597 0.866110
vt 0.211597 0.888586
vt 0.786641 0.167169
vt 0.786567 0.111276
vt 0.827404 0.119522
vt 0.827404 0.190619
vt 0.966232 0.735921
vt 0.969142 0.693730
vt 0.975344 0.698775
vt 0.975344 0.740616
vt 0.951483 0.269782
vt 0.951483 0.334957
vt 0.931841 0.298014
vt 0.526980 0.850569
vt 0.526980 0.884112
vt 0.519590 0.881063
vt 0.518877 0.850554
vt 0.156658 0.818813
vt 0.211784 0.827522
vt 0.211784 0.850022
vt 0.147401 0.855175
vt 0.881227 0.638860
vt 0.881227 0.672151
vt 0.816803 0.666294
vt 0.816851 0.643818
vt 0.208863 0.154195
vt 0.186688 0.162931
vt 0.171776 0.012097
vt 0.208863 0.002708
vt 0.093015 0.614441
vt 0.248861 0.606518
vt 0.248861 0.637917
vt 0.093013 0.630721
vt 0.802190 0.450319
vt 0.802194 0.398043
vt 0.843120 0.402708
vt 0.843120 0.473997
vt 0.355924 0.854847
vt 0.289779 0.851025
vt 0.290082 0.826385
vt 0.355924 0.818799
vt 0.978637 0.252134
vt 0.978007 0.215233
vt 0.988023 0.214505
vt 0.988023 0.253609
vt 0.087315 0.392142
vt 0.100136 0.240911
vt 0.116379 0.241650
vt 0.116379 0.397660
vt 0.294456 0.158796
vt 0.278191 0.159633
vt 0.260863 0.009145
vt 0.294456 0.002708
vt 0.803711 0.105860
vt 0.754996 0.100981
vt 0.755152 0.048706
vt 0.803711 0.029281
vt 0.980531 0.399584
vt 0.990341 0.398043
vt 0.990341 0.433524
vt 0.981281 0.432955
vt 0.013703 0.403917
vt 0.028783 0.253099
vt 0.044861 0.259423
vt 0.044861 0.415483
vt 0.757315 0.796294
vt 0.809276 0.797272
vt 0.809276 0.837539
vt 0.737913 0.838679
vt 0.004174 0.822550
vt 0.039496 0.792738
vt 0.039496 0.864110
vt 0.468755 0.199024
vt 0.468760 0.182737
vt 0.624611 0.175617
vt 0.624611 0.207125
vt 0.979221 0.271175
vt 0.989446 0.269782
vt 0.989446 0.305830
vt 0.979254 0.304526
vt 0.676351 0.797310
vt 0.686109 0.793467
vt 0.686109 0.840833
vt 0.676274 0.842207
vt 0.388181 0.576792
vt 0.544051 0.568537
vt 0.544051 0.600346
vt 0.388184 0.593070
vt 0.892477 0.030992
vt 0.892477 0.089275
vt 0.870812 0.092319
vt 0.855610 0.029281
vt 0.459322 0.067736
vt 0.459305 0.051452
vt 0.615170 0.044117
vt 0.615170 0.075626
vt 0.912446 0.246881
vt 0.906267 0.181999
vt 0.928784 0.183901
vt 0.928784 0.248524
vt 0.656102 0.885877
vt 0.602487 0.884947
vt 0.602151 0.859664
vt 0.656102 0.850554
vt 0.388181 0.629192
vt 0.388184 0.612905
vt 0.544037 0.605763
vt 0.544037 0.637268
vt 0.866654 0.280415
vt 0.890478 0.285471
vt 0.890478 0.339094
vt 0.851397 0.340416
vt 0.934002 0.264347
vt 0.931841 0.254851
vt 0.963559 0.254532
vt 0.963559 0.264365
vt 0.870465 0.872847
vt 0.870465 0.905831
vt 0.814692 0.897817
vt 0.814698 0.875028
vt 0.093052 0.592879
vt 0.093013 0.576399
vt 0.248865 0.569434
vt 0.248865 0.601101
vt 0.677783 0.870111
vt 0.732497 0.870289
vt 0.732497 0.895430
vt 0.672910 0.901454
vt 0.856277 0.412880
vt 0.882188 0.398043
vt 0.882188 0.462889
vt 0.848536 0.469720
vt 0.039496 0.871908
vt 0.039496 0.924469
vt 0.016148 0.922880
vt 0.007230 0.869526
vt 0.303601 0.972465
vt 0.313925 0.970865
vt 0.313925 0.989232
vt 0.303681 0.988885
vt 0.787549 0.249027
vt 0.786567 0.202201
vt 0.828619 0.196035
vt 0.828619 0.272614
vt 0.118432 0.873201
vt 0.141985 0.874966
vt 0.141985 0.920675
vt 0.107550 0.921954
vt 0.804405 0.336452
vt 0.804305 0.289040
vt 0.845980 0.280415
vt 0.845980 0.351642
vt 0.984889 0.342102
vt 0.994139 0.341056
vt 0.994139 0.375846
vt 0.985002 0.375086
vt 0.979637 0.617142
vt 0.980799 0.583871
vt 0.989856 0.583265
vt 0.989856 0.618580
vt 0.677908 0.680184
vt 0.676623 0.642685
vt 0.686890 0.643108
vt 0.686890 0.682633
vt 0.459307 0.013014
vt 0.615163 0.004949
vt 0.615163 0.036459
vt 0.459318 0.029331
vt 0.980011 0.525286
vt 0.981305 0.492958
vt 0.990385 0.492365
vt 0.990385 0.526824
vt 0.875588 0.162637
vt 0.881805 0.108902
vt 0.903589 0.111415
vt 0.903589 0.175847
vt 0.985632 0.111356
vt 0.995166 0.108902
vt 0.995166 0.140192
vt 0.985175 0.141211
vt 0.802284 0.877474
vt 0.737913 0.872439
vt 0.737941 0.850055
vt 0.802284 0.844095
vt 0.896558 0.796591
vt 0.896558 0.856969
vt 0.865009 0.856138
vt 0.861078 0.796294
vt 0.893449 0.398750
vt 0.918372 0.398043
vt 0.918372 0.447996
vt 0.887604 0.458355
vt 0.046839 0.846416
vt 0.046761 0.799278
vt 0.087597 0.798960
vt 0.087597 0.870123
vt 0.615079 0.218827
vt 0.624049 0.214769
vt 0.624049 0.272134
vt 0.613058 0.272389
vt 0.284362 0.823431
vt 0.284362 0.869140
vt 0.260184 0.874641
vt 0.237223 0.818799
vn -0.5186 0.8367 0.1758
vn 0.5977 0.7994 -0.0606
vn 0.5803 0.8039 0.1303
vn 0.4441 0.3242 -0.8353
vn -0.8260 -0.0192 0.5633
vn -0.8259 -0.0189 0.5634
vn 0.8918 0.3032 0.3358
vn 0.7521 0.6452 0.1345
vn -0.0455 0.8559 -0.5151
vn -0.2093 0.8299 -0.5171
vn 0.0000 -1.0000 0.0000
vn 0.0000 1.0000 -0.0000
vn -0.5196 0.7771 0.3552
vn -0.5193 0.7777 0.3542
vn 0.0804 0.8990 0.4305
vn -0.9699 0.0839 0.2284
vn -0.1174 0.7753 -0.6206
vn -0.3006 0.8792 0.3696
vn -0.6042 0.7883 0.1165
vn -0.3472 0.8183 0.4580
vn 0.6107 0.7468 0.2635
vn 0.7925 0.6045 -0.0811
vn 0.1727 0.8950 -0.4112
vn 0.3124 0.0129 0.9499
vn -0.2483 0.0932 0.9642
vn -0.5553 0.2662 0.7879
vn -0.0425 -0.0157 -0.9990
vn -0.9486 0.2752 -0.1560
vn 0.7986 0.2750 -0.5354
vn -0.8515 -0.1715 -0.4955
vn 0.8225 -0.0773 0.5635
vn 0.8234 -0.0768 0.5623
vn 0.8232 -0.0768 0.5625
vn 0.8229 -0.0771 0.5630
vn 0.1871 -0.0397 0.9815
vn 0.1868 -0.0396 0.9816
vn 0.5679 -0.0371 -0.8222
vn -0.1771 -0.0683 0.9818
vn -0.1774 -0.0682 0.9818
vn 0.5596 -0.0389 0.8279
vn 0.8283 -0.0392 0.5589
vn 0.1697 -0.1929 0.9664
vn -0.5236 0.2628 -0.8104
vn -0.5246 0.2631 -0.8097
vn -0.5247 0.2632 -0.8096
vn -0.5242 0.2630 -0.8099
vn 0.9498 0.2537 0.1833
vn 0.9497 0.2535 0.1839
vn -0.9475 0.2650 0.1787
vn 0.1882 0.2685 0.9447
vn 0.1877 0.2686 0.9448
vn 0.4426 0.8813 -0.1656
vn -0.5588 -0.0497 -0.8278
vn 0.1746 0.8942 0.4123
vn -0.4911 0.8693 0.0556
vn -0.4682 0.3143 0.8258
vn -0.8412 0.3245 -0.4325
vn -0.8206 0.0861 -0.5651
vn 0.4936 0.3467 -0.7976
vn -0.5698 -0.1544 -0.8071
vn 0.4842 0.0893 0.8704
vn -0.2889 0.3152 0.9040
vn -0.2186 -0.0180 -0.9756
vn -0.0258 0.0040 0.9997
vn -0.0256 0.0045 0.9997
vn 0.8744 -0.0133 0.4850
vn -0.1667 -0.1544 -0.9738
vn -0.9665 -0.1912 0.1714
vn -0.1838 0.2615 -0.9475
vn -0.1835 0.2614 -0.9476
vn -0.7230 -0.0172 0.6906
vn -0.7231 -0.0181 0.6905
vn -0.7231 -0.0177 0.6906
vn -0.8036 -0.1908 0.5638
vn 0.9714 -0.2007 0.1272
vn -0.6055 -0.1730 -0.7769
vn 0.5564 -0.0795 0.8271
vn 0.7914 -0.1888 -0.5813
vn 0.5216 -0.2040 0.8284
vn -0.5645 -0.0397 0.8245
vn -0.5648 -0.0398 0.8243
vn -0.9288 -0.0066 0.3705
vn 0.8006 0.2437 -0.5475
vn 0.5475 0.2437 0.8006
vn 0.8006 0.2437 0.5475
vn -0.5475 0.2437 0.8006
vn -0.8006 0.2437 -0.5475
vn 0.9532 0.2437 -0.1790
vn -0.8054 -0.1539 -0.5723
vn 0.8192 0.1229 -0.5602
vn 0.1831 0.1229 0.9754
vn -0.9756 0.1230 -0.1817
vn -0.9755 0.1228 -0.1826
vn -0.5624 0.1228 -0.8177
vn 0.1861 -0.0743 -0.9797
vn 0.1815 0.1228 -0.9757
vn 0.1819 0.1227 -0.9756
vn 0.1828 0.1226 -0.9755
vn 0.5604 0.1229 -0.8190
vn 0.5479 -0.0758 -0.8331
vn 0.9711 -0.1541 -0.1824
vn 0.9712 -0.1543 -0.1814
vn 0.9712 -0.1543 -0.1815
vn 0.9711 -0.1542 -0.1823
vn 0.9711 -0.1542 0.1820
vn 0.5562 -0.1544 -0.8166
vn 0.3981 0.0709 -0.9146
vn 0.1790 0.2437 0.9532
vn 0.5566 -0.1542 0.8163
vn 0.5569 -0.1542 0.8162
vn 0.5573 -0.1543 0.8158
vn 0.5571 -0.1543 0.8160
vn -0.2247 0.0825 -0.9709
vn 0.8157 -0.1541 0.5575
vn -0.9663 -0.1883 -0.1755
vn -0.9662 -0.1882 -0.1759
vn 0.9805 -0.0778 0.1806
vn -0.8192 0.1229 0.5602
vn -0.8137 -0.1544 0.5604
vn -0.9810 0.0220 -0.1925
vn 0.9815 -0.0759 -0.1755
vn 0.5790 0.0853 -0.8109
vn 0.8277 0.2689 0.4925
vn 0.9773 0.1019 0.1856
vn 0.9773 0.1018 0.1859
vn 0.9772 0.1016 0.1863
vn 0.6279 -0.2131 -0.7485
vn 0.9665 -0.1868 -0.1760
vn -0.1810 0.1229 -0.9758
vn -0.1790 0.2437 0.9532
vn -0.8585 0.0696 0.5081
vn -0.9820 -0.0410 0.1845
vn -0.9821 -0.0411 0.1840
vn -0.5995 -0.0768 0.7967
vn -0.8772 -0.0752 -0.4743
vn 0.1139 0.0457 0.9924
vn 0.2023 -0.0755 0.9764
vn -0.9712 -0.1537 0.1823
vn -0.8177 0.1228 -0.5623
vn 0.9532 0.2437 0.1790
vn -0.7619 -0.1264 -0.6352
vn -0.1636 -0.1923 0.9676
vn -0.9674 0.0960 -0.2342
vn -0.6487 0.0841 0.7564
vn -0.3861 -0.0076 -0.9224
vn -0.8243 -0.0398 0.5648
vn -0.8245 -0.0397 0.5645
vn -0.8247 -0.0396 0.5642
vn -0.1815 0.2701 0.9456
vn -0.0835 0.9173 0.3894
vn 0.5158 0.2738 0.8118
vn 0.7933 0.1467 0.5909
vn -0.5610 -0.1543 0.8133
vn 0.9754 0.1229 -0.1831
vn -0.5475 0.2437 -0.8006
vn -0.1844 -0.0229 -0.9826
vn -0.1847 -0.0234 -0.9825
vn -0.1849 -0.0237 -0.9825
vn 0.1787 -0.0361 -0.9832
vn -0.5685 -0.1921 0.7999
vn 0.9117 0.3493 0.2164
vn -0.9032 0.3361 0.2668
vn 0.8255 0.0305 -0.5635
vn 0.8255 0.0309 -0.5636
vn 0.9815 -0.0405 0.1869
vn 0.7646 0.6259 0.1536
vn -0.9843 -0.0500 -0.1695
vn -0.1831 0.1229 0.9754
vn -0.9532 0.2437 0.1790
vn -0.8285 0.0258 -0.5594
vn 0.8356 0.3304 -0.4388
vn -0.9804 -0.0786 0.1808
vn -0.3128 0.8710 -0.3788
vn -0.9725 -0.1528 -0.1758
vn 0.1796 0.0006 0.9837
vn 0.5602 0.1229 0.8192
vn -0.8006 0.2437 0.5475
vn 0.2297 -0.2134 -0.9496
vn 0.2292 -0.2136 -0.9497
vn -0.9532 0.2437 -0.1790
vn -0.2409 0.2941 -0.9249
vn -0.4659 0.3178 -0.8258
vn 0.4552 0.3256 0.8287
vn 0.1637 0.2652 -0.9502
vn 0.0816 0.7948 -0.6014
vn -0.1806 -0.1539 0.9714
vn -0.1811 -0.1538 0.9714
vn -0.1815 -0.1537 0.9713
vn 0.9754 0.1229 0.1831
vn -0.5602 0.1229 0.8192
vn -0.1790 0.2437 -0.9532
vn 0.5315 0.2734 -0.8018
vn 0.3669 0.3150 -0.8753
vn 0.2387 0.3431 0.9085
vn -0.5589 0.0846 -0.8249
vn -0.8419 0.3272 0.4291
vn 0.9670 0.0864 -0.2395
vn -0.3635 0.7336 -0.5742
vn 0.8159 -0.1540 -0.5572
vn 0.8179 -0.0389 -0.5740
vn -0.9754 0.1228 0.1828
vn 0.1790 0.2437 -0.9532
vn -0.7918 0.2734 -0.5462
vn -0.1829 -0.1929 -0.9640
vn 0.8011 -0.2143 0.5588
vn 0.9539 0.2642 -0.1422
vn -0.0765 -0.0370 -0.9964
vn -0.9764 -0.0906 -0.1962
vn 0.1756 -0.1556 -0.9721
vn 0.8343 0.0922 -0.5436
vn -0.5559 -0.1053 -0.8246
vn 0.5670 0.0212 -0.8235
vn 0.1837 -0.1542 0.9708
vn 0.1831 -0.1543 0.9709
vn 0.1834 -0.1542 0.9709
vn 0.8254 -0.0724 -0.5600
vn 0.5475 0.2437 -0.8006
vn -0.1852 -0.0393 0.9819
vn -0.1853 -0.0393 0.9819
vn -0.1849 -0.0394 0.9820
vn -0.1846 -0.0395 0.9820
vn -0.8073 -0.0842 0.5841
vn 0.8990 0.3293 -0.2886
vn 0.8347 0.3119 0.4539
vn 0.9832 -0.0410 -0.1777
vn 0.9832 -0.0409 -0.1781
vn 0.9832 -0.0410 -0.1778
vn -0.7949 0.2629 0.5468
vn -0.7946 0.2631 0.5471
vn 0.9720 0.0000 -0.2350
vn 0.8192 0.1229 0.5602
vn 0.3076 0.8340 0.4582
vn -0.8987 0.3281 -0.2910
vn 0.9821 -0.0475 0.1824
vn 0.9821 -0.0469 0.1827
vn 0.0385 -0.5167 0.8553
vn -0.9886 0.0142 0.1496
vn 0.9845 0.0060 -0.1753
vn 0.1792 0.5225 -0.8336
vn 0.6618 0.0036 -0.7496
vn 0.9910 -0.0149 0.1327
vn 0.2436 -0.2532 -0.9363
vn 0.2431 -0.2533 -0.9364
vn 0.2429 -0.2533 -0.9364
vn 0.8220 0.5480 -0.1552
vn -0.1724 -0.3942 0.9027
vn -0.5365 -0.4132 0.7358
vn -0.7126 -0.3829 -0.5879
vn -0.6030 0.5538 0.5742
vn -0.9008 -0.2419 -0.3605
vn 0.8902 0.4238 0.1671
vn 0.5662 -0.2480 -0.7860
vn 0.3265 0.5443 -0.7727
vn 0.3263 0.5446 -0.7726
vn 0.7268 -0.4529 0.5164
vn -0.5493 -0.2456 0.7987
vn 0.9519 -0.2512 -0.1756
vn -0.8857 -0.4179 0.2023
vn 0.9993 0.0296 -0.0208
vn 0.8049 0.0051 0.5934
vn -0.8043 0.0126 0.5941
vn -0.5811 0.0037 0.8138
vn -0.8159 0.0195 -0.5778
vn 0.1430 0.0143 0.9896
vn 0.2627 0.4574 0.8496
vn -0.1924 -0.4023 0.8951
vn 0.4178 0.4576 -0.7849
vn -0.8879 0.4287 0.1665
vn -0.7372 -0.4629 0.4922
vn -0.7125 0.4538 0.5352
vn -0.1650 0.0046 0.9863
vn 0.6564 0.5145 0.5518
vn 0.6304 0.4369 0.6416
vn 0.3459 0.4504 -0.8231
vn 0.9748 0.1228 -0.1861
vn 0.8910 0.4380 -0.1194
vn 0.7480 0.4214 0.5128
vn -0.1563 -0.2594 -0.9530
vn 0.1821 -0.2447 0.9524
vn -0.5973 0.0325 -0.8014
vn -0.9088 -0.3759 -0.1813
vn 0.8312 0.5556 -0.0193
vn 0.7676 -0.2509 -0.5898
vn 0.9535 -0.2471 0.1726
vn -0.1574 0.0250 -0.9872
vn -0.4828 0.5521 -0.6798
vn -0.6198 -0.2544 -0.7424
vn 0.8184 0.0288 -0.5739
vn 0.8186 0.0285 -0.5736
vn 0.6854 0.0311 -0.7275
vn -0.1763 -0.2454 0.9533
vn -0.1758 -0.2455 0.9533
vn -0.1755 -0.2455 0.9534
vn -0.7972 0.5842 -0.1521
vn 0.0642 0.5597 -0.8262
vn 0.7985 -0.2476 0.5488
vn -0.8873 0.4315 -0.1626
vn 0.5378 -0.2457 0.8064
vn 0.1741 0.4303 -0.8858
vn 0.8843 -0.4327 -0.1757
vn -0.7991 -0.2455 0.5488
vn 0.9016 -0.4156 0.1201
vn 0.7575 0.5552 -0.3435
vn 0.7275 0.4715 -0.4984
vn -0.9567 -0.2436 -0.1597
vn 0.7154 -0.4649 -0.5216
vn -0.7143 0.4793 -0.5099
vn -0.1560 0.5475 0.8221
vn -0.1462 0.6032 0.7841
vn 0.1941 0.0158 -0.9809
vn 0.2579 -0.5287 -0.8086
vn 0.5666 0.0105 0.8239
vn 0.5662 0.0101 0.8242
vn -0.6994 0.5258 0.4841
vn -0.6777 0.5584 -0.4784
vn -0.7631 0.5514 0.3372
vn -0.9528 -0.2452 0.1789
vn 0.1662 0.5547 -0.8153
vn -0.6756 0.5059 0.5363
vn 0.4445 0.5197 0.7296
vn 0.5116 0.4271 0.7456
vn -0.5379 -0.4099 -0.7366
vn 0.6531 -0.5150 -0.5552
vn -0.9872 0.0121 -0.1588
vn -0.4239 0.1671 0.8902
vn -0.2556 -0.4181 -0.8717
g Vase_L_2_Vase_L_2_Collor_Material
usemtl Collor_Material
s off
f 249/1/1 23/2/1 82/3/1
f 170/4/2 20/5/2 79/6/2
f 178/7/3 78/8/3 186/9/3
f 199/10/4 50/11/4 198/12/4
f 249/13/5 239/14/5 11/15/5 81/16/6
f 51/17/7 167/18/7 166/19/7
f 78/20/8 162/21/8 170/22/8
f 84/23/9 194/24/9 202/25/9
f 24/26/10 218/27/10 83/28/10
f 160/29/11 129/30/11 11/31/11
f 239/32/11 224/33/11 208/34/11
f 1/35/11 192/36/11 3/37/11
f 9/38/11 145/39/11 11/40/11
f 239/41/11 13/42/11 224/43/11
f 3/44/11 176/45/11 5/46/11
f 224/47/11 15/48/11 208/49/11
f 129/50/11 9/51/11 11/52/11
f 208/53/11 1/54/11 5/55/11
f 5/56/11 160/57/11 11/58/11
f 3/59/11 5/60/11 1/61/11
f 160/62/11 7/63/11 129/64/11
f 97/65/12 220/66/12 96/67/12
f 96/68/12 235/69/12 95/70/12
f 95/71/12 251/72/12 94/73/12
f 94/74/12 156/75/12 100/76/12
f 100/77/12 140/78/12 99/79/12
f 99/80/12 172/81/12 93/82/12
f 93/83/12 188/84/12 98/85/12
f 98/86/12 204/87/12 97/88/12
f 97/89/12 96/90/12 95/91/12
f 95/92/12 94/93/12 100/94/12
f 100/95/12 99/96/12 93/97/12
f 93/98/12 98/99/12 97/100/12
f 249/101/13 81/102/13 22/103/14 241/104/13
f 21/105/15 80/106/15 138/107/15 131/108/15
f 67/109/16 63/110/16 246/111/16 247/112/16
f 17/113/17 84/114/17 218/115/17 210/116/17
f 147/117/18 81/118/18 154/119/18 80/120/18
f 249/121/19 241/122/19 23/123/19
f 147/124/20 22/125/20 81/126/20
f 170/127/21 162/128/21 20/129/21
f 178/130/22 19/131/22 78/132/22
f 77/133/23 202/134/23 194/135/23 18/136/23
f 129/137/24 7/138/24 79/139/24 138/140/24
f 271/141/25 152/142/25 61/143/25 269/144/25
f 30/145/26 22/146/26 147/147/26 148/148/26
f 208/149/27 15/150/27 83/151/27 218/152/27
f 226/153/28 23/154/28 31/155/28 227/156/28
f 179/157/29 178/158/29 18/159/29 26/160/29
f 75/161/30 48/162/30 229/163/30 232/164/30
f 265/165/31 237/166/32 116/167/33 120/168/34
f 29/169/35 132/170/35 133/171/36 37/172/35
f 26/173/37 195/174/37 196/175/37 34/176/37
f 263/177/38 256/178/38 109/179/39 206/180/38
f 133/181/40 132/182/40 28/183/40 36/184/40
f 28/185/41 163/186/41 164/187/41 36/188/41
f 72/189/42 45/190/42 134/191/42 137/192/42
f 211/193/43 210/194/44 24/195/45 32/196/46
f 163/197/47 162/198/47 19/199/48 27/200/47
f 23/201/49 241/202/49 242/203/49 31/204/49
f 21/205/50 131/206/51 132/207/51 29/208/51
f 178/209/52 186/210/52 77/211/52 18/212/52
f 212/213/53 211/214/53 32/215/53 40/216/53
f 131/217/54 138/218/54 79/219/54 20/220/54
f 233/221/55 82/222/55 23/223/55 226/224/55
f 54/225/56 151/226/56 152/227/56 62/228/56
f 56/229/57 230/230/57 231/231/57 64/232/57
f 64/233/58 231/234/58 272/235/58 68/236/58
f 199/237/59 58/238/59 50/239/59
f 142/240/60 112/241/60 123/242/60 144/243/60
f 136/244/61 60/245/61 65/246/61 270/247/61
f 152/248/62 151/249/62 53/250/62 61/251/62
f 25/252/63 211/253/63 212/254/63 33/255/63
f 154/256/64 145/257/64 9/258/65 80/259/64
f 5/260/66 176/261/66 186/262/66 78/263/66
f 124/264/67 113/265/67 142/266/67 144/267/67
f 74/268/68 47/269/68 244/270/68 248/271/68
f 25/272/69 17/273/69 210/274/70 211/275/69
f 82/276/71 13/277/71 239/278/72 249/279/73
f 244/280/74 46/281/74 73/282/74 248/283/74
f 165/284/75 43/285/75 70/286/75 169/287/75
f 217/288/76 213/289/76 48/290/76 75/291/76
f 120/292/77 116/293/77 222/294/77 264/295/77
f 185/296/78 181/297/78 42/298/78 69/299/78
f 134/300/79 44/301/79 71/302/79 137/303/79
f 38/304/80 30/305/81 148/306/80 149/307/80
f 11/308/82 145/309/82 154/310/82 81/311/82
f 106/312/83 94/313/83 251/314/83 252/315/83
f 108/316/84 96/317/84 220/318/84 221/319/84
f 108/320/85 236/321/85 235/322/85 96/323/85
f 102/324/86 205/325/86 204/326/86 98/327/86
f 104/328/87 173/329/87 172/330/87 99/331/87
f 107/332/88 252/333/88 251/334/88 95/335/88
f 123/336/89 112/337/89 174/338/89 175/339/89
f 125/340/90 106/341/90 252/342/90 255/343/90
f 221/344/91 101/345/91 128/346/91 223/347/91
f 122/348/92 103/349/92 173/350/93 175/351/92
f 123/352/94 104/353/94 141/354/94 144/355/94
f 260/356/95 258/357/95 113/358/95 158/359/95
f 124/360/96 105/361/97 157/362/98 159/363/97
f 157/364/99 106/365/99 125/366/99 159/367/99
f 259/368/100 260/369/100 158/370/100 114/371/100
f 126/372/101 115/373/102 253/374/103 255/375/104
f 237/376/105 115/377/105 126/378/105 238/379/105
f 125/380/106 114/381/106 158/382/106 159/383/106
f 199/384/107 57/385/107 266/386/107 200/387/107
f 101/388/108 221/389/108 220/390/108 97/391/108
f 222/392/109 116/393/110 127/394/111 223/395/112
f 57/396/113 215/397/113 216/398/113 266/399/113
f 127/400/114 116/401/114 237/402/114 238/403/114
f 229/404/115 47/405/115 74/406/116 232/407/115
f 265/408/117 119/409/117 115/410/117 237/411/117
f 121/412/118 102/413/118 189/414/118 191/415/118
f 190/416/119 110/417/119 121/418/119 191/419/119
f 224/420/120 13/421/120 82/422/120 233/423/120
f 254/424/121 253/425/121 115/426/121 119/427/121
f 58/428/122 199/429/122 200/430/122 267/431/122
f 20/432/123 162/433/123 163/434/123 28/435/123
f 168/436/124 167/437/125 59/438/126 268/439/124
f 42/440/127 197/441/127 201/442/127 69/443/127
f 43/444/128 181/445/128 185/446/128 70/447/128
f 141/448/129 105/449/129 124/450/129 144/451/129
f 101/452/130 97/453/130 204/454/130 205/455/130
f 247/456/131 246/457/131 62/458/131 66/459/131
f 39/460/132 31/461/133 242/462/133 243/463/133
f 263/464/134 206/465/134 110/466/134 117/467/134
f 40/468/135 32/469/135 227/470/135 228/471/135
f 61/472/136 136/473/136 270/474/136 269/475/136
f 256/476/137 264/477/137 222/478/137 109/479/137
f 122/480/138 111/481/138 190/482/138 191/483/138
f 173/484/139 104/485/139 123/486/139 175/487/139
f 107/488/140 95/489/140 235/490/140 236/491/140
f 261/492/141 174/493/141 112/494/141 257/495/141
f 153/496/142 150/497/142 45/498/142 72/499/142
f 272/500/143 231/501/143 63/502/143 67/503/143
f 62/504/144 152/505/144 271/506/144 66/507/144
f 202/508/145 192/509/145 1/510/145 84/511/145
f 242/512/146 30/513/146 38/514/147 243/515/148
f 148/516/149 147/517/149 21/518/149 29/519/149
f 80/520/150 21/521/150 147/522/150
f 132/523/151 131/524/151 20/525/151 28/526/151
f 60/527/152 167/528/152 168/529/152 65/530/152
f 121/531/153 110/532/153 206/533/153 207/534/153
f 252/535/154 107/536/154 126/537/154 255/538/154
f 104/539/155 99/540/155 140/541/155 141/542/155
f 1/543/156 208/544/157 218/545/158 84/546/157
f 195/547/159 25/548/159 33/549/159 196/550/159
f 46/551/160 150/552/160 153/553/160 73/554/160
f 51/555/161 59/556/161 167/557/161
f 55/558/162 245/559/162 246/560/162 63/561/162
f 186/562/163 176/563/163 3/564/164 77/565/164
f 163/566/165 27/567/165 35/568/165 164/569/165
f 78/570/166 19/571/166 162/572/166
f 227/573/167 31/574/167 39/575/167 228/576/167
f 128/577/168 101/578/168 205/579/168 207/580/168
f 103/581/169 189/582/169 188/583/169 93/584/169
f 83/585/170 15/586/170 224/587/170 233/588/170
f 183/589/171 182/590/171 50/591/171 58/592/171
f 5/593/11 11/594/11 239/595/11 208/596/11
f 262/597/172 190/598/172 111/599/172 118/600/172
f 24/601/173 83/602/173 233/603/173 226/604/173
f 174/605/174 111/606/174 122/607/174 175/608/174
f 80/609/175 9/610/175 129/611/175 138/612/175
f 127/613/176 108/614/176 221/615/176 223/616/176
f 102/617/177 98/618/177 188/619/177 189/620/177
f 197/621/178 41/622/178 76/623/179 201/624/178
f 103/625/180 93/626/180 172/627/180 173/628/180
f 49/629/181 214/630/181 215/631/181 57/632/181
f 215/633/182 214/634/182 56/635/182 64/636/182
f 136/637/183 135/638/183 52/639/183 60/640/183
f 194/641/184 17/642/184 25/643/184 195/644/184
f 84/645/185 17/646/185 194/647/185
f 206/648/186 109/649/187 128/650/188 207/651/187
f 126/652/189 107/653/189 236/654/189 238/655/189
f 205/656/190 102/657/190 121/658/190 207/659/190
f 105/660/191 141/661/191 140/662/191 100/663/191
f 18/664/192 194/665/192 195/666/192 26/667/192
f 199/668/193 198/669/193 49/670/193 57/671/193
f 53/672/194 135/673/194 136/674/194 61/675/194
f 216/676/195 215/677/195 64/678/195 68/679/195
f 246/680/196 245/681/196 54/682/196 62/683/196
f 59/684/197 183/685/197 184/686/197 268/687/197
f 24/688/198 210/689/198 218/690/198
f 253/691/199 114/692/199 125/693/199 255/694/199
f 180/695/200 179/696/200 26/697/200 34/698/200
f 189/699/201 103/700/201 122/701/201 191/702/201
f 105/703/202 100/704/202 156/705/202 157/706/202
f 32/707/203 24/708/203 226/709/203 227/710/203
f 41/711/204 213/712/204 217/713/204 76/714/204
f 71/715/205 44/716/205 165/717/205 169/718/205
f 27/719/206 19/720/206 178/721/206 179/722/206
f 143/723/207 142/724/207 113/725/207 258/726/207
f 111/727/208 174/728/208 261/729/208 118/730/208
f 158/731/209 113/732/209 124/733/209 159/734/209
f 184/735/210 183/736/210 58/737/210 267/738/210
f 257/739/211 112/740/211 142/741/211 143/742/211
f 3/743/212 192/744/212 202/745/212 77/746/212
f 222/747/213 223/748/214 128/749/215 109/750/215
f 259/751/216 114/752/216 253/753/216 254/754/216
f 106/755/217 157/756/217 156/757/217 94/758/217
f 148/759/218 29/760/219 37/761/220 149/762/221
f 262/763/222 117/764/222 110/765/222 190/766/222
f 51/767/223 182/768/223 183/769/223 59/770/223
f 52/771/224 166/772/224 167/773/224 60/774/224
f 35/775/225 27/776/226 179/777/226 180/778/227
f 242/779/228 241/780/228 22/781/229 30/782/228
f 79/783/230 7/784/230 160/785/230 170/786/230
f 236/787/231 108/788/231 127/789/231 238/790/231
f 257/791/232 143/792/232 270/793/232 65/794/232
f 231/795/233 230/796/233 55/797/233 63/798/233
f 160/799/234 5/800/235 78/801/234 170/802/234
f 97/803/12 95/804/12 100/805/12 93/806/12
f 130/807/236 269/808/236 270/809/236
f 74/810/237 248/811/237 245/812/237 55/813/237
f 182/814/238 70/815/238 185/816/238
f 258/817/239 139/818/239 143/819/239
f 198/820/240 69/821/240 201/822/240
f 70/823/241 166/824/241 169/825/241
f 196/826/242 33/827/242 41/828/243 197/829/244
f 187/830/245 87/831/245 6/832/245 177/833/245
f 130/834/246 10/835/246 269/836/246
f 12/837/247 66/838/247 271/839/247 146/840/247
f 68/841/248 272/842/248 225/843/248 16/844/248
f 90/845/249 12/846/249 146/847/249 155/848/249
f 228/849/250 229/850/250 48/851/250 40/852/250
f 91/853/251 119/854/251 265/855/251 234/856/251
f 196/857/252 197/858/252 42/859/252 34/860/252
f 203/861/253 86/862/254 4/863/254 193/864/254
f 8/865/255 65/866/255 168/867/255 161/868/255
f 149/869/256 150/870/256 46/871/256 38/872/256
f 180/873/257 181/874/257 43/875/257 35/876/257
f 14/877/258 67/878/258 247/879/258 240/880/258
f 51/881/259 166/882/259 70/883/259 182/884/259
f 71/885/260 169/886/260 166/887/260 52/888/260
f 245/889/261 248/890/261 73/891/261 54/892/261
f 73/893/262 153/894/262 151/895/262 54/896/262
f 75/897/263 232/898/263 230/899/263 56/900/263
f 72/901/264 137/902/264 135/903/264 53/904/264
f 85/905/265 219/906/265 264/907/265 256/908/265
f 271/909/266 269/910/266 10/911/266 146/912/266
f 90/913/267 155/914/267 260/915/267 259/916/267
f 87/917/268 187/918/268 262/919/268 118/920/268
f 240/921/269 247/922/269 66/923/269 12/924/269
f 187/925/270 86/926/270 117/927/270 262/928/270
f 151/929/271 153/930/271 72/931/271 53/932/271
f 10/933/272 130/934/272 139/935/273 89/936/273
f 258/937/274 89/938/274 139/939/274
f 143/940/275 139/941/275 130/942/275 270/943/275
f 250/944/276 254/945/276 119/946/276 91/947/276
f 92/948/277 234/949/277 265/950/277 120/951/277
f 33/952/278 212/953/278 213/954/278 41/955/278
f 133/956/279 134/957/279 45/958/279 37/959/279
f 214/960/280 217/961/280 75/962/280 56/963/280
f 225/964/281 272/965/281 67/966/281 14/967/281
f 87/968/282 171/969/282 161/970/282 6/971/282
f 181/972/283 180/973/283 34/974/283 42/975/283
f 164/976/284 35/977/284 43/978/284 165/979/284
f 76/980/285 217/981/285 214/982/285 49/983/285
f 219/984/286 209/985/286 16/986/286 92/987/286
f 213/988/287 212/989/287 40/990/287 48/991/287
f 182/992/288 185/993/289 69/994/289 50/995/289
f 198/996/290 50/997/290 69/998/290
f 149/999/291 37/1000/292 45/1001/293 150/1002/292
f 234/1003/294 225/1004/294 14/1005/294 91/1006/294
f 85/1007/295 2/1008/295 209/1009/295 219/1010/295
f 164/1011/296 165/1012/296 44/1013/296 36/1014/296
f 87/1015/297 118/1016/297 261/1017/297 171/1018/297
f 133/1019/298 36/1020/298 44/1021/298 134/1022/298
f 89/1023/299 258/1024/299 260/1025/299 155/1026/299
f 6/1027/300 268/1028/300 184/1029/300 177/1030/300
f 243/1031/301 38/1032/301 46/1033/301 244/1034/301
f 168/1035/302 268/1036/302 6/1037/302 161/1038/302
f 187/1039/303 177/1040/303 4/1041/303 86/1042/303
f 250/1043/304 90/1044/304 259/1045/304 254/1046/304
f 228/1047/305 39/1048/305 47/1049/305 229/1050/305
f 177/1051/306 184/1052/306 267/1053/306 4/1054/306
f 88/1055/307 171/1056/307 261/1057/307 257/1058/307
f 85/1059/308 256/1060/308 263/1061/308 203/1062/308
f 155/1063/309 146/1064/309 10/1065/309 89/1066/309
f 198/1067/310 201/1068/310 76/1069/310 49/1070/310
f 200/1071/311 266/1072/311 2/1073/311 193/1074/311
f 135/1075/312 137/1076/313 71/1077/313 52/1078/313
f 250/1079/314 240/1080/314 12/1081/314 90/1082/314
f 234/1083/315 92/1084/315 16/1085/315 225/1086/315
f 250/1087/316 91/1088/316 14/1089/316 240/1090/316
f 243/1091/317 244/1092/317 47/1093/317 39/1094/317
f 85/1095/318 203/1096/318 193/1097/318 2/1098/318
f 203/1099/319 263/1100/319 117/1101/319 86/1102/319
f 88/1103/320 8/1104/320 161/1105/320 171/1106/320
f 92/1107/321 120/1108/321 264/1109/321 219/1110/321
f 209/1111/322 216/1112/322 68/1113/322 16/1114/322
f 267/1115/323 200/1116/323 193/1117/323 4/1118/323
f 230/1119/324 232/1120/324 74/1121/324 55/1122/324
f 8/1123/325 88/1124/325 257/1125/325 65/1126/325
f 2/1127/326 266/1128/326 216/1129/326 209/1130/326
