# Blender v3.0.0 OBJ File: 'aa.blend'
# www.blender.org
mtllib Vase_S_1.mtl
o Vase_S_1
v -0.000000 0.038032 -0.031181
v 0.022048 0.038032 -0.022048
v 0.031180 0.038032 -0.000000
v 0.022048 0.038032 0.022047
v -0.000000 0.038032 0.031180
v -0.022048 0.038032 0.022047
v -0.031181 0.038032 -0.000000
v -0.022048 0.038032 -0.022048
v -0.000000 0.066946 -0.075161
v 0.053147 0.066946 -0.053147
v 0.075161 0.066946 -0.000000
v 0.053147 0.066946 0.053147
v -0.000000 0.066946 0.075161
v -0.053147 0.066946 0.053147
v -0.075161 0.066946 -0.000000
v -0.053147 0.066946 -0.053147
v 0.000000 0.096457 -0.095271
v 0.067367 0.096457 -0.067367
v 0.095271 0.096457 0.000000
v 0.067367 0.096457 0.067367
v 0.000000 0.096457 0.095271
v -0.067367 0.096457 0.067367
v -0.095271 0.096457 0.000000
v -0.067367 0.096457 -0.067367
v 0.000000 0.145149 -0.074172
v 0.052448 0.145149 -0.052448
v 0.074173 0.145149 0.000000
v 0.052448 0.145149 0.052448
v 0.000000 0.145149 0.074173
v -0.052448 0.145149 0.052448
v -0.074172 0.145149 0.000000
v -0.052448 0.145149 -0.052448
v 0.000000 0.159824 -0.081149
v 0.057381 0.159824 -0.057381
v 0.081150 0.159824 0.000000
v 0.057381 0.159824 0.057381
v 0.000000 0.159824 0.081149
v -0.057381 0.159824 0.057381
v -0.081149 0.159824 0.000000
v -0.057381 0.159824 -0.057381
v 0.000000 0.167456 -0.096387
v 0.068156 0.167456 -0.068156
v 0.096388 0.167456 0.000000
v 0.068156 0.167456 0.068157
v 0.000000 0.167457 0.096388
v -0.068156 0.167456 0.068157
v -0.096387 0.167456 0.000000
v -0.068156 0.167456 -0.068156
v 0.052911 0.011258 -0.052912
v 0.053918 -0.000000 -0.053919
v 0.074828 0.011258 -0.000000
v 0.076252 -0.000000 -0.000000
v 0.052911 0.011258 0.052911
v 0.053918 0.000000 0.053918
v -0.000000 0.011258 0.074828
v -0.000000 0.000000 0.076252
v -0.052912 0.011258 0.052911
v -0.053919 0.000000 0.053918
v -0.074829 0.011258 -0.000000
v -0.076253 -0.000000 -0.000000
v -0.052912 0.011258 -0.052912
v -0.053919 -0.000000 -0.053919
v -0.000000 0.011258 -0.074829
v -0.000000 0.016257 -0.045861
v 0.026531 0.024483 -0.026531
v 0.032428 0.016257 -0.032429
v 0.037520 0.024483 -0.000000
v 0.045860 0.016257 -0.000000
v 0.026531 0.024483 0.026531
v 0.032428 0.016257 0.032428
v -0.000000 0.024483 0.037520
v -0.000000 0.016257 0.045860
v -0.026531 0.024483 0.026531
v -0.032429 0.016257 0.032428
v -0.037521 0.024483 -0.000000
v -0.045861 0.016257 -0.000000
v -0.026531 0.024483 -0.026531
v -0.032429 0.016257 -0.032429
v -0.000000 0.024483 -0.037521
v 0.027379 0.035789 -0.027380
v 0.038720 0.035789 -0.000000
v 0.027379 0.035789 0.027379
v -0.000000 0.035789 0.038720
v -0.027380 0.035789 0.027379
v -0.038720 0.035789 -0.000000
v -0.027380 0.035789 -0.027380
v -0.000000 0.035789 -0.038721
v 0.058180 0.064228 -0.058180
v 0.082278 0.064228 -0.000000
v 0.058180 0.064228 0.058180
v -0.000000 0.064228 0.082278
v -0.058180 0.064228 0.058180
v -0.082279 0.064228 -0.000000
v -0.058180 0.064228 -0.058180
v -0.000000 0.064228 -0.082279
v -0.000000 -0.000000 -0.076253
v 0.078169 0.106368 0.078169
v 0.000000 0.106368 0.110547
v -0.078169 0.106368 0.078169
v 0.110547 0.106368 0.000000
v 0.078169 0.106368 -0.078169
v 0.000000 0.106368 -0.110547
v -0.078169 0.106368 -0.078168
v -0.110547 0.106368 0.000000
v 0.071961 0.124951 0.071961
v 0.000000 0.124951 0.101769
v -0.071961 0.124951 0.071961
v 0.101769 0.124951 0.000000
v 0.071961 0.124951 -0.071961
v 0.000000 0.124951 -0.101769
v -0.071961 0.124951 -0.071961
v -0.101769 0.124951 0.000000
v 0.058322 0.145777 0.058322
v 0.000000 0.145777 0.082479
v -0.058321 0.145777 0.058322
v 0.082479 0.145777 0.000000
v 0.058322 0.145777 -0.058321
v 0.000000 0.145777 -0.082479
v -0.058321 0.145777 -0.058321
v -0.082479 0.145777 0.000000
v 0.060849 0.155636 0.060849
v 0.000000 0.155636 0.086053
v -0.060849 0.155636 0.060849
v 0.086054 0.155636 0.000000
v 0.060849 0.155636 -0.060849
v 0.000000 0.155636 -0.086053
v -0.060849 0.155636 -0.060849
v -0.086053 0.155636 0.000000
v 0.069070 0.162377 0.069070
v 0.000000 0.162377 0.097679
v -0.069069 0.162377 0.069070
v 0.097679 0.162377 0.000000
v 0.069070 0.162377 -0.069069
v 0.000000 0.162377 -0.097679
v -0.069069 0.162377 -0.069069
v -0.097679 0.162377 0.000000
vt 0.282452 0.074209
vt 0.354729 0.001932
vt 0.354729 0.248701
vt 0.784567 0.725058
vt 0.745451 0.630623
vt 0.784567 0.536189
vt 0.202446 0.248701
vt 0.100231 0.248701
vt 0.100231 0.001932
vt 0.278587 0.248701
vt 0.206310 0.176424
vt 0.278587 0.001932
vt 0.001932 0.041048
vt 0.096367 0.001932
vt 0.096367 0.269032
vt 0.825417 0.295417
vt 0.786301 0.200983
vt 0.825417 0.106548
vt 0.455683 0.231213
vt 0.439688 0.192598
vt 0.455683 0.153983
vt 0.495402 0.231213
vt 0.479407 0.192598
vt 0.495402 0.153983
vt 0.475543 0.231213
vt 0.459548 0.192598
vt 0.475543 0.153983
vt 0.515262 0.231213
vt 0.499267 0.192598
vt 0.515262 0.153983
vt 0.186726 0.617287
vt 0.186726 0.565384
vt 0.273032 0.536189
vt 0.273032 0.646482
vt 0.473903 0.536189
vt 0.560208 0.565383
vt 0.560208 0.617287
vt 0.473903 0.646482
vt 0.292525 0.721621
vt 0.292525 0.679824
vt 0.379868 0.650347
vt 0.379868 0.751098
vt 0.274070 0.650347
vt 0.274070 0.751098
vt 0.186726 0.721620
vt 0.186726 0.679824
vt 0.737604 0.252565
vt 0.737604 0.353317
vt 0.650259 0.323839
vt 0.650259 0.282042
vt 0.741587 0.636941
vt 0.654242 0.607464
vt 0.654242 0.565668
vt 0.741587 0.536189
vt 0.471076 0.751098
vt 0.383733 0.721621
vt 0.383733 0.679825
vt 0.471076 0.650347
vt 0.741586 0.640805
vt 0.741586 0.741557
vt 0.654242 0.712079
vt 0.654242 0.670282
vt 0.836439 0.676473
vt 0.836439 0.812892
vt 0.788432 0.799963
vt 0.788432 0.689402
vt 0.063008 0.684157
vt 0.063008 0.784908
vt 0.001932 0.798387
vt 0.001932 0.670678
vt 0.791369 0.532325
vt 0.730294 0.518846
vt 0.730294 0.418095
vt 0.791369 0.404616
vt 0.665353 0.518846
vt 0.665353 0.418094
vt 0.726429 0.404616
vt 0.726429 0.532325
vt 0.182862 0.532325
vt 0.121786 0.518846
vt 0.121786 0.418095
vt 0.182862 0.404616
vt 0.178406 0.798387
vt 0.117331 0.784908
vt 0.117331 0.684157
vt 0.178406 0.670678
vt 0.706114 0.868912
vt 0.706114 0.758350
vt 0.754121 0.745422
vt 0.754121 0.881841
vt 0.589302 0.764577
vt 0.589302 0.663825
vt 0.650378 0.650347
vt 0.650378 0.778056
vt 0.282452 0.532325
vt 0.282452 0.404616
vt 0.374313 0.418757
vt 0.374313 0.518184
vt 0.539981 0.129641
vt 0.539981 0.001932
vt 0.631842 0.016074
vt 0.631842 0.115500
vt 0.093793 0.538515
vt 0.001932 0.552656
vt 0.001932 0.424948
vt 0.093793 0.439089
vt 0.278587 0.404616
vt 0.278587 0.532325
vt 0.186726 0.518183
vt 0.186726 0.418757
vt 0.741468 0.258449
vt 0.776980 0.252565
vt 0.776980 0.400751
vt 0.741468 0.394868
vt 0.470038 0.518183
vt 0.378177 0.532325
vt 0.378177 0.404616
vt 0.470038 0.418757
vt 0.554534 0.266706
vt 0.646394 0.252565
vt 0.646394 0.380274
vt 0.554534 0.366133
vt 0.404371 0.754963
vt 0.404371 0.855269
vt 0.356688 0.835853
vt 0.356688 0.774378
vt 0.826147 0.102238
vt 0.778464 0.082823
vt 0.778464 0.021348
vt 0.826147 0.001932
vt 0.589302 0.781920
vt 0.636985 0.801336
vt 0.636985 0.862811
vt 0.589302 0.882226
vt 0.877696 0.102238
vt 0.830012 0.082823
vt 0.830012 0.021348
vt 0.877696 0.001932
vt 0.774599 0.001932
vt 0.774599 0.102238
vt 0.726916 0.082823
vt 0.726916 0.021348
vt 0.536017 0.882226
vt 0.488334 0.862810
vt 0.488334 0.801335
vt 0.536017 0.781920
vt 0.408236 0.774378
vt 0.455919 0.754963
vt 0.455919 0.855269
vt 0.408236 0.835853
vt 0.730515 0.947181
vt 0.710774 0.941591
vt 0.710774 0.891295
vt 0.730515 0.885705
vt 0.806043 0.299281
vt 0.806043 0.360757
vt 0.786301 0.355167
vt 0.786302 0.304871
vt 0.723051 0.102684
vt 0.635706 0.073207
vt 0.635706 0.031410
vt 0.723051 0.001932
vt 0.706909 0.885705
vt 0.706909 0.947181
vt 0.687168 0.941590
vt 0.687168 0.891295
vt 0.881560 0.046353
vt 0.901302 0.040763
vt 0.901302 0.102238
vt 0.881560 0.096648
vt 0.913066 0.045067
vt 0.932808 0.039477
vt 0.932808 0.100953
vt 0.913066 0.095363
vt 0.531681 0.947565
vt 0.511940 0.941976
vt 0.511940 0.891680
vt 0.531681 0.886090
vt 0.717496 0.133505
vt 0.717496 0.234257
vt 0.630152 0.204780
vt 0.630152 0.162983
vt 0.589302 0.937190
vt 0.589302 0.886895
vt 0.609198 0.886091
vt 0.609198 0.937994
vt 0.269760 0.958917
vt 0.249864 0.958113
vt 0.249864 0.907818
vt 0.269760 0.907014
vt 0.293521 0.907818
vt 0.293521 0.958113
vt 0.273624 0.958917
vt 0.273624 0.907014
vt 0.936672 0.090577
vt 0.936672 0.040281
vt 0.956568 0.039477
vt 0.956568 0.091381
vt 0.985456 0.676473
vt 0.985456 0.778688
vt 0.965604 0.777733
vt 0.965604 0.677427
vt 0.222238 0.958113
vt 0.202342 0.958917
vt 0.202342 0.907014
vt 0.222238 0.907818
vt 0.965628 0.911758
vt 0.965628 0.809543
vt 0.985480 0.810498
vt 0.985480 0.910804
vt 0.297385 0.958113
vt 0.297385 0.907818
vt 0.317281 0.907014
vt 0.317281 0.958917
vt 0.462260 0.912857
vt 0.462260 0.781920
vt 0.484469 0.789712
vt 0.484469 0.905065
vt 0.784567 0.859859
vt 0.762358 0.852067
vt 0.762358 0.736714
vt 0.784567 0.728922
vt 0.001932 0.637619
vt 0.001932 0.585715
vt 0.088237 0.556521
vt 0.088237 0.666814
vt 0.178406 0.666813
vt 0.092102 0.637619
vt 0.092102 0.585716
vt 0.178406 0.556521
vt 0.383733 0.617287
vt 0.383733 0.565383
vt 0.470038 0.536189
vt 0.470038 0.646482
vt 0.626287 0.243798
vt 0.539981 0.214604
vt 0.539981 0.162700
vt 0.626287 0.133505
vt 0.564073 0.617287
vt 0.564073 0.565383
vt 0.650378 0.536189
vt 0.650378 0.646482
vt 0.379868 0.646482
vt 0.293563 0.617288
vt 0.293563 0.565385
vt 0.379868 0.536189
vt 0.764716 0.864678
vt 0.784567 0.863724
vt 0.784567 0.965938
vt 0.764716 0.964984
vt 0.654242 0.885705
vt 0.674094 0.886660
vt 0.674094 0.986965
vt 0.654242 0.987920
vt 0.981066 0.341833
vt 0.961215 0.340879
vt 0.961215 0.240573
vt 0.981066 0.239619
vt 0.965213 0.105772
vt 0.985064 0.104817
vt 0.985064 0.207032
vt 0.965213 0.206077
vt 0.976490 0.395906
vt 0.976490 0.498121
vt 0.956639 0.497166
vt 0.956639 0.396860
vt 0.376539 0.859133
vt 0.376539 0.961348
vt 0.356688 0.960394
vt 0.356688 0.860088
vt 0.894789 0.496212
vt 0.847106 0.476797
vt 0.847106 0.415321
vt 0.894789 0.395906
vt 0.782437 0.234257
vt 0.721361 0.220779
vt 0.721361 0.120027
vt 0.782437 0.106548
vt 0.474941 0.764577
vt 0.474941 0.663825
vt 0.536017 0.650347
vt 0.536017 0.778055
vt 0.274070 0.897265
vt 0.238558 0.903149
vt 0.238558 0.754963
vt 0.274070 0.760846
vt 0.585437 0.792649
vt 0.549925 0.798533
vt 0.549925 0.650347
vt 0.585437 0.656231
vt 0.102385 0.676562
vt 0.102385 0.812981
vt 0.066873 0.818864
vt 0.066873 0.670678
vt 0.222238 0.760846
vt 0.222238 0.897265
vt 0.186727 0.903149
vt 0.186726 0.754963
vt 0.875816 0.682357
vt 0.875816 0.818776
vt 0.840304 0.824659
vt 0.840304 0.676473
vt 0.352823 0.754963
vt 0.352823 0.903149
vt 0.317311 0.897265
vt 0.317311 0.760846
vt 0.843241 0.519396
vt 0.795234 0.532325
vt 0.795234 0.395906
vt 0.843241 0.408834
vt 0.654242 0.758350
vt 0.702250 0.745422
vt 0.702250 0.881841
vt 0.654242 0.868912
vt 0.508075 0.886090
vt 0.508075 0.947565
vt 0.488334 0.941975
vt 0.488334 0.891680
vt 0.836439 0.549118
vt 0.836439 0.659680
vt 0.788432 0.672608
vt 0.788432 0.536189
vt 0.877289 0.119477
vt 0.877289 0.230039
vt 0.829282 0.242967
vt 0.829282 0.106548
vt 0.888311 0.659679
vt 0.840304 0.672608
vt 0.840304 0.536189
vt 0.888311 0.549118
vt 0.754121 0.947180
vt 0.734380 0.941591
vt 0.734380 0.891295
vt 0.754121 0.885705
vt 0.829282 0.259761
vt 0.877289 0.246832
vt 0.877289 0.383251
vt 0.829282 0.370322
vt 0.569628 0.418757
vt 0.661488 0.404616
vt 0.661488 0.532325
vt 0.569628 0.518184
vt 0.565763 0.404616
vt 0.565763 0.532325
vt 0.473903 0.518184
vt 0.473903 0.418757
vt 0.924087 0.534458
vt 0.946296 0.542249
vt 0.946296 0.657602
vt 0.924087 0.665395
vt 0.961348 0.104817
vt 0.961348 0.235754
vt 0.939140 0.227962
vt 0.939140 0.112609
vt 0.935275 0.370555
vt 0.913066 0.362764
vt 0.913066 0.247411
vt 0.935275 0.239619
vt 0.843879 0.959461
vt 0.821671 0.951669
vt 0.821671 0.836316
vt 0.843879 0.828524
vt 0.952774 0.395906
vt 0.952774 0.526843
vt 0.930566 0.519050
vt 0.930565 0.403697
vt 0.935275 0.104817
vt 0.935275 0.235754
vt 0.913066 0.227961
vt 0.913066 0.112609
vt 0.277935 0.760846
vt 0.313447 0.754963
vt 0.313447 0.903149
vt 0.277935 0.897265
vt 0.245999 0.958113
vt 0.226103 0.958917
vt 0.226103 0.907014
vt 0.245999 0.907818
vt 0.636985 0.937994
vt 0.617089 0.937190
vt 0.617089 0.886895
vt 0.636985 0.886091
vt 0.435823 0.231213
vt 0.358593 0.231213
vt 0.358593 0.153983
vt 0.435823 0.153983
vt 0.536116 0.150119
vt 0.449287 0.131172
vt 0.449287 0.020879
vt 0.536116 0.001932
vt 0.911617 0.913646
vt 0.911617 0.814219
vt 0.939689 0.809543
vt 0.939689 0.918322
vt 0.034936 0.906354
vt 0.034936 0.806928
vt 0.063008 0.802252
vt 0.063008 0.911031
vt 0.875816 0.833200
vt 0.875816 0.932627
vt 0.847744 0.937303
vt 0.847744 0.828524
vt 0.094944 0.931508
vt 0.066873 0.926832
vt 0.066873 0.827405
vt 0.094944 0.822729
vt 0.577997 0.911177
vt 0.549925 0.906501
vt 0.549925 0.807074
vt 0.577997 0.802398
vt 0.816504 0.925535
vt 0.788432 0.920859
vt 0.788432 0.821433
vt 0.816504 0.816756
vt 0.101064 0.252565
vt 0.187893 0.271512
vt 0.187893 0.381805
vt 0.101064 0.400751
vt 0.898654 0.514898
vt 0.898654 0.406119
vt 0.926701 0.395906
vt 0.926701 0.525111
vt 0.029979 0.931457
vt 0.001932 0.921244
vt 0.001932 0.812465
vt 0.029979 0.802252
vt 0.909201 0.249832
vt 0.909201 0.358611
vt 0.881154 0.368824
vt 0.881154 0.239619
vt 0.117331 0.921243
vt 0.117331 0.812464
vt 0.145377 0.802251
vt 0.145377 0.931457
vt 0.178406 0.931457
vt 0.150359 0.921244
vt 0.150360 0.812465
vt 0.178406 0.802251
vt 0.920223 0.665395
vt 0.892176 0.655182
vt 0.892176 0.546403
vt 0.920223 0.536189
vt 0.984931 0.369689
vt 0.984931 0.240484
vt 0.994070 0.239619
vt 0.994070 0.370555
vt 0.989494 0.396772
vt 0.989494 0.525977
vt 0.980355 0.526842
vt 0.980355 0.395906
vt 0.191758 0.400752
vt 0.191758 0.252565
vt 0.278587 0.271512
vt 0.278587 0.381805
vt 0.463840 0.381805
vt 0.463840 0.271512
vt 0.550669 0.252565
vt 0.550669 0.400751
vt 0.369281 0.252565
vt 0.369281 0.400751
vt 0.282452 0.381804
vt 0.282452 0.271512
vt 0.445423 0.150118
vt 0.358593 0.131172
vt 0.358593 0.020879
vt 0.445423 0.001932
vt 0.459975 0.252565
vt 0.459975 0.400751
vt 0.373146 0.381804
vt 0.373146 0.271512
vt 0.088762 0.421083
vt 0.001932 0.402137
vt 0.001932 0.291844
vt 0.088762 0.272897
vt 0.939664 0.681149
vt 0.939664 0.780576
vt 0.911593 0.785252
vt 0.911593 0.676473
vt 0.907752 0.918322
vt 0.879680 0.913646
vt 0.879680 0.814219
vt 0.907752 0.809543
vt 0.437709 0.974486
vt 0.437709 0.859133
vt 0.455919 0.861529
vt 0.455919 0.972090
vt 0.939140 0.354971
vt 0.939140 0.239619
vt 0.957350 0.242014
vt 0.957350 0.352576
vt 0.404371 0.974486
vt 0.386161 0.972090
vt 0.386161 0.861529
vt 0.404371 0.859133
vt 0.950161 0.665395
vt 0.950161 0.550042
vt 0.968371 0.552438
vt 0.968371 0.662999
vt 0.426446 0.974486
vt 0.408236 0.972090
vt 0.408236 0.861529
vt 0.426446 0.859133
vt 0.099711 0.519969
vt 0.099711 0.404616
vt 0.117921 0.407012
vt 0.117921 0.517573
vt 0.879680 0.795465
vt 0.879680 0.686686
vt 0.907728 0.676473
vt 0.907728 0.805679
vt 0.909201 0.235754
vt 0.881154 0.225541
vt 0.881154 0.116762
vt 0.909201 0.106548
vt 0.649989 0.782786
vt 0.649989 0.911991
vt 0.640850 0.912857
vt 0.640850 0.781920
vt 0.985239 0.534458
vt 0.994378 0.535324
vt 0.994378 0.664529
vt 0.985239 0.665395
vt 0.972236 0.534458
vt 0.981375 0.535324
vt 0.981375 0.664529
vt 0.972236 0.665395
vt 0.961739 0.791826
vt 0.943529 0.789430
vt 0.943529 0.678869
vt 0.961739 0.676473
vt 0.098809 0.822729
vt 0.107948 0.823595
vt 0.107948 0.952801
vt 0.098809 0.953666
vt 0.943553 0.809543
vt 0.961763 0.811939
vt 0.961763 0.922500
vt 0.943553 0.924896
vt 0.988929 0.234888
vt 0.988929 0.105683
vt 0.998068 0.104817
vt 0.998068 0.235754
vt 0.288660 0.751098
vt 0.279521 0.750232
vt 0.279521 0.621026
vt 0.288660 0.620161
vn 0.0000 -1.0000 0.0000
vn -0.0000 1.0000 -0.0000
vn 0.5332 -0.8167 0.2209
vn -0.2209 -0.8167 0.5332
vn 0.2219 0.8148 0.5357
vn 0.5357 0.8148 0.2219
vn 0.2219 0.8148 -0.5357
vn -0.5357 0.8148 0.2219
vn -0.2219 0.8148 0.5357
vn 0.5357 0.8148 -0.2219
vn -0.7020 0.6502 0.2908
vn 0.7818 0.5328 0.3238
vn 0.3238 0.5328 0.7818
vn 0.3238 0.5328 -0.7818
vn -0.7818 0.5328 -0.3238
vn -0.3238 0.5328 0.7818
vn 0.2908 0.6502 -0.7020
vn 0.7818 0.5328 -0.3238
vn 0.8577 -0.3716 -0.3553
vn -0.3553 -0.3716 -0.8577
vn 0.8577 -0.3716 0.3553
vn 0.3553 -0.3716 -0.8577
vn -0.3507 0.4000 0.8468
vn 0.3553 -0.3716 0.8577
vn -0.3553 -0.3716 0.8577
vn -0.0703 0.9830 0.1696
vn -0.1696 0.9830 -0.0703
vn 0.0703 0.9830 -0.1696
vn 0.1696 0.9830 0.0703
vn -0.1696 0.9830 0.0703
vn -0.0703 0.9830 -0.1696
vn 0.0703 0.9830 0.1696
vn -0.2793 0.6836 0.6743
vn 0.6743 0.6836 -0.2793
vn -0.5357 0.8148 -0.2219
vn 0.2793 0.6836 0.6743
vn 0.2793 0.6836 -0.6743
vn -0.2793 0.6836 -0.6743
vn -0.6743 0.6836 0.2793
vn -0.2219 0.8148 -0.5357
vn -0.9195 -0.0976 -0.3809
vn 0.9195 -0.0976 -0.3809
vn 0.3809 -0.0976 0.9195
vn 0.3809 -0.0976 -0.9195
vn 0.9176 0.1161 0.3801
vn -0.3809 -0.0976 0.9195
vn -0.3801 0.1161 0.9176
vn 0.9195 -0.0976 0.3809
vn 0.2034 -0.8470 0.4911
vn -0.2034 -0.8470 0.4911
vn -0.2209 -0.8167 -0.5332
vn -0.5332 -0.8167 -0.2209
vn 0.5332 -0.8167 -0.2209
vn 0.2209 -0.8167 0.5332
vn 0.2209 -0.8167 -0.5332
vn -0.5332 -0.8167 0.2209
vn -0.9176 0.1161 -0.3801
vn -0.3801 0.1161 -0.9176
vn -0.9176 0.1161 0.3801
vn 0.3801 0.1161 -0.9176
vn 0.9176 0.1161 -0.3801
vn 0.3801 0.1161 0.9176
vn 0.1696 0.9830 -0.0703
vn -0.7818 0.5328 0.3238
vn -0.3238 0.5328 -0.7818
vn 0.8468 0.4000 0.3507
vn -0.8468 0.4000 0.3507
vn -0.8468 0.4000 -0.3507
vn 0.3507 0.4000 -0.8468
vn -0.3507 0.4000 -0.8468
vn 0.8468 0.4000 -0.3507
vn -0.2908 0.6502 0.7020
vn 0.7020 0.6502 -0.2908
vn 0.6743 0.6836 0.2793
vn -0.7020 0.6502 -0.2908
vn -0.2908 0.6502 -0.7020
vn 0.2908 0.6502 0.7020
vn -0.6743 0.6836 -0.2793
vn 0.7020 0.6502 0.2908
vn -0.8577 -0.3716 0.3553
vn -0.8577 -0.3716 -0.3553
vn -0.4911 -0.8470 -0.2034
vn 0.2034 -0.8470 -0.4911
vn -0.4911 -0.8470 0.2034
vn -0.2034 -0.8470 -0.4911
vn 0.4911 -0.8470 -0.2034
vn 0.4911 -0.8470 0.2034
vn 0.3507 0.4000 0.8468
vn -0.9195 -0.0976 0.3809
vn -0.3809 -0.0976 -0.9195
vn -0.7853 -0.5268 -0.3253
vn -0.3504 0.4022 0.8459
vn 0.8459 0.4022 -0.3504
vn 0.8459 0.4022 0.3504
vn -0.8459 0.4022 0.3504
vn 0.3504 0.4022 -0.8459
vn -0.3504 0.4022 -0.8459
vn 0.3253 -0.5268 0.7853
vn 0.4403 0.8791 0.1824
vn -0.1824 0.8791 0.4403
vn 0.4403 0.8791 -0.1824
vn 0.1824 0.8791 0.4403
vn -0.4403 0.8791 0.1824
vn -0.4403 0.8791 -0.1824
vn 0.3725 0.2287 0.8994
vn -0.3725 0.2287 -0.8994
vn 0.7853 -0.5268 -0.3253
vn -0.3253 -0.5268 -0.7853
vn 0.7853 -0.5268 0.3253
vn -0.3253 -0.5268 0.7853
vn 0.3253 -0.5268 -0.7853
vn -0.7853 -0.5268 0.3253
vn 0.3504 0.4022 0.8459
vn -0.8459 0.4022 -0.3504
vn 0.3629 -0.3176 0.8760
vn -0.3629 -0.3176 0.8760
vn 0.3629 -0.3176 -0.8760
vn 0.8760 -0.3176 -0.3629
vn -0.8760 -0.3176 -0.3629
vn 0.8760 -0.3176 0.3629
vn 0.1824 0.8791 -0.4403
vn -0.1824 0.8791 -0.4403
vn -0.8994 0.2287 -0.3725
vn -0.3725 0.2287 0.8994
vn 0.3725 0.2287 -0.8994
vn -0.8760 -0.3176 0.3629
vn -0.8994 0.2287 0.3725
vn -0.3629 -0.3176 -0.8760
vn 0.8994 0.2287 0.3725
vn 0.8994 0.2287 -0.3725
g Vase_S_1_Vase_S_1_Collor_Material
usemtl Collor_Material
s off
f 96/1/1 50/2/1 60/3/1
f 60/4/1 62/5/1 96/6/1
f 52/7/1 54/8/1 60/9/1
f 54/10/1 56/11/1 60/12/1
f 50/13/1 52/14/1 60/15/1
f 56/16/1 58/17/1 60/18/1
f 5/19/2 4/20/2 3/21/2
f 3/22/2 2/23/2 1/24/2
f 1/25/2 8/26/2 7/27/2
f 7/28/2 6/29/2 5/30/2
f 82/31/3 81/32/3 89/33/3 90/34/3
f 92/35/4 84/36/4 83/37/4 91/38/4
f 8/39/5 1/40/5 9/41/5 16/42/5
f 16/43/6 15/44/6 7/45/6 8/46/6
f 14/47/7 13/48/7 5/49/7 6/50/7
f 10/51/8 2/52/8 3/53/8 11/54/8
f 9/55/9 1/56/9 2/57/9 10/58/9
f 15/59/10 14/60/10 6/61/10 7/62/10
f 112/63/11 107/64/11 115/65/11 120/66/11
f 15/67/12 16/68/12 24/69/12 23/70/12
f 24/71/13 16/72/13 9/73/13 17/74/13
f 13/75/14 14/76/14 22/77/14 21/78/14
f 19/79/15 11/80/15 12/81/15 20/82/15
f 17/83/16 9/84/16 10/85/16 18/86/16
f 118/87/17 117/88/17 109/89/17 110/90/17
f 14/91/18 15/92/18 23/93/18 22/94/18
f 22/95/19 23/96/19 31/97/19 30/98/19
f 20/99/20 21/100/20 29/101/20 28/102/20
f 31/103/21 23/104/21 24/105/21 32/106/21
f 21/107/22 22/108/22 30/109/22 29/110/22
f 107/111/23 99/112/23 98/113/23 106/114/23
f 32/115/24 24/116/24 17/117/24 25/118/24
f 25/119/25 17/120/25 18/121/25 26/122/25
f 57/123/26 55/124/26 72/125/26 74/126/26
f 59/127/27 76/128/27 78/129/27 61/130/27
f 63/131/28 64/132/28 66/133/28 49/134/28
f 51/135/29 68/136/29 70/137/29 53/138/29
f 59/139/30 57/140/30 74/141/30 76/142/30
f 61/143/31 78/144/31 64/145/31 63/146/31
f 72/147/32 55/148/32 53/149/32 70/150/32
f 72/151/33 71/152/33 73/153/33 74/154/33
f 68/155/34 66/156/34 65/157/34 67/158/34
f 11/159/35 3/160/35 4/161/35 12/162/35
f 72/163/36 70/164/36 69/165/36 71/166/36
f 65/167/37 66/168/37 64/169/37 79/170/37
f 79/171/38 64/172/38 78/173/38 77/174/38
f 74/175/39 73/176/39 75/177/39 76/178/39
f 13/179/40 12/180/40 4/181/40 5/182/40
f 77/183/41 75/184/41 85/185/41 86/186/41
f 81/187/42 67/188/42 65/189/42 80/190/42
f 71/191/43 69/192/43 82/193/43 83/194/43
f 65/195/44 79/196/44 87/197/44 80/198/44
f 54/199/45 52/200/45 51/201/45 53/202/45
f 71/203/46 83/204/46 84/205/46 73/206/46
f 58/207/47 56/208/47 55/209/47 57/210/47
f 69/211/48 67/212/48 81/213/48 82/214/48
f 129/215/49 130/216/49 122/217/49 121/218/49
f 131/219/50 123/220/50 122/221/50 130/222/50
f 87/223/51 86/224/51 94/225/51 95/226/51
f 94/227/52 86/228/52 85/229/52 93/230/52
f 81/231/53 80/232/53 88/233/53 89/234/53
f 91/235/54 83/236/54 82/237/54 90/238/54
f 80/239/55 87/240/55 95/241/55 88/242/55
f 93/243/56 85/244/56 84/245/56 92/246/56
f 61/247/57 62/248/57 60/249/57 59/250/57
f 62/251/58 61/252/58 63/253/58 96/254/58
f 58/255/59 57/256/59 59/257/59 60/258/59
f 49/259/60 50/260/60 96/261/60 63/262/60
f 52/263/61 50/264/61 49/265/61 51/266/61
f 56/267/62 54/268/62 53/269/62 55/270/62
f 49/271/63 66/272/63 68/273/63 51/274/63
f 18/275/64 10/276/64 11/277/64 19/278/64
f 12/279/65 13/280/65 21/281/65 20/282/65
f 105/283/66 97/284/66 100/285/66 108/286/66
f 112/287/67 104/288/67 99/289/67 107/290/67
f 112/291/68 111/292/68 103/293/68 104/294/68
f 110/295/69 109/296/69 101/297/69 102/298/69
f 111/299/70 110/300/70 102/301/70 103/302/70
f 100/303/71 101/304/71 109/305/71 108/306/71
f 115/307/72 107/308/72 106/309/72 114/310/72
f 116/311/73 108/312/73 109/313/73 117/314/73
f 70/315/74 68/316/74 67/317/74 69/318/74
f 120/319/75 119/320/75 111/321/75 112/322/75
f 119/323/76 118/324/76 110/325/76 111/326/76
f 114/327/77 106/328/77 105/329/77 113/330/77
f 76/331/78 75/332/78 77/333/78 78/334/78
f 113/335/79 105/336/79 108/337/79 116/338/79
f 26/339/80 18/340/80 19/341/80 27/342/80
f 19/343/81 20/344/81 28/345/81 27/346/81
f 135/347/82 127/348/82 128/349/82 136/350/82
f 134/351/83 133/352/83 125/353/83 126/354/83
f 136/355/84 128/356/84 123/357/84 131/358/84
f 134/359/85 126/360/85 127/361/85 135/362/85
f 133/363/86 132/364/86 124/365/86 125/366/86
f 132/367/87 129/368/87 121/369/87 124/370/87
f 106/371/88 98/372/88 97/373/88 105/374/88
f 73/375/89 84/376/89 85/377/89 75/378/89
f 87/379/90 79/380/90 77/381/90 86/382/90
f 5/383/2 3/384/2 1/385/2 7/386/2
f 103/387/91 94/388/91 93/389/91 104/390/91
f 25/391/92 26/392/92 34/393/92 33/394/92
f 30/395/93 31/396/93 39/397/93 38/398/93
f 31/399/94 32/400/94 40/401/94 39/402/94
f 34/403/95 26/404/95 27/405/95 35/406/95
f 37/407/96 29/408/96 30/409/96 38/410/96
f 36/411/97 28/412/97 29/413/97 37/414/97
f 98/415/98 91/416/98 90/417/98 97/418/98
f 39/419/99 40/420/99 48/421/99 47/422/99
f 41/423/100 33/424/100 34/425/100 42/426/100
f 38/427/101 39/428/101 47/429/101 46/430/101
f 40/431/102 33/432/102 41/433/102 48/434/102
f 42/435/103 34/436/103 35/437/103 43/438/103
f 43/439/104 35/440/104 36/441/104 44/442/104
f 44/443/105 45/444/105 130/445/105 129/446/105
f 48/447/106 41/448/106 134/449/106 135/450/106
f 101/451/107 100/452/107 89/453/107 88/454/107
f 95/455/108 94/456/108 103/457/108 102/458/108
f 100/459/109 97/460/109 90/461/109 89/462/109
f 99/463/110 92/464/110 91/465/110 98/466/110
f 102/467/111 101/468/111 88/469/111 95/470/111
f 104/471/112 93/472/112 92/473/112 99/474/112
f 32/475/113 25/476/113 33/477/113 40/478/113
f 35/479/114 27/480/114 28/481/114 36/482/114
f 121/483/115 122/484/115 114/485/115 113/486/115
f 122/487/116 123/488/116 115/489/116 114/490/116
f 125/491/117 117/492/117 118/493/117 126/494/117
f 125/495/118 124/496/118 116/497/118 117/498/118
f 127/499/119 119/500/119 120/501/119 128/502/119
f 124/503/120 121/504/120 113/505/120 116/506/120
f 37/507/121 38/508/121 46/509/121 45/510/121
f 44/511/122 36/512/122 37/513/122 45/514/122
f 47/515/123 48/516/123 135/517/123 136/518/123
f 130/519/124 45/520/124 46/521/124 131/522/124
f 134/523/125 41/524/125 42/525/125 133/526/125
f 128/527/126 120/528/126 115/529/126 123/530/126
f 131/531/127 46/532/127 47/533/127 136/534/127
f 126/535/128 118/536/128 119/537/128 127/538/128
f 43/539/129 44/540/129 129/541/129 132/542/129
f 133/543/130 42/544/130 43/545/130 132/546/130
