# Blender v3.0.0 OBJ File: 'aa.blend'
# www.blender.org
mtllib Vase_S_3.mtl
o Vase_S_3
v -0.000406 0.038431 -0.031676
v 0.021642 0.038431 -0.022544
v 0.030775 0.038431 -0.000496
v 0.021659 0.038384 0.021578
v -0.000410 0.038459 0.030665
v -0.022453 0.038431 0.021552
v -0.031586 0.038431 -0.000496
v -0.022453 0.038431 -0.022544
v -0.000405 0.067345 -0.075656
v 0.052741 0.067345 -0.053642
v 0.074809 0.067306 -0.000470
v 0.052779 0.067243 0.052874
v -0.000546 0.067448 0.074463
v -0.053472 0.067399 0.052638
v -0.075649 0.067290 -0.000471
v -0.053552 0.067345 -0.053642
v -0.000410 0.104291 -0.101143
v 0.070755 0.104292 -0.071656
v 0.100114 0.104323 -0.000549
v 0.070492 0.104550 0.069536
v -0.002254 0.089227 0.089101
v -0.070124 0.103264 0.070316
v -0.102079 0.104982 0.000206
v -0.071740 0.104305 -0.071718
v -0.000378 0.145516 -0.074766
v 0.052027 0.145608 -0.052836
v 0.073761 0.145588 -0.000468
v 0.052136 0.145861 0.052282
v -0.000391 0.144841 0.072963
v -0.052451 0.145391 0.052064
v -0.075030 0.145945 -0.000151
v -0.053001 0.145662 -0.052886
v -0.000828 0.157796 -0.081795
v 0.057072 0.159843 -0.058205
v 0.080806 0.160030 -0.000508
v 0.056994 0.160178 0.056966
v -0.000443 0.160362 0.080577
v -0.057655 0.160351 0.056823
v -0.081505 0.160519 -0.000369
v -0.056063 0.158433 -0.058922
v 0.014213 0.167068 -0.090966
v 0.073624 0.162807 -0.059545
v 0.096500 0.162659 -0.004663
v 0.068100 0.162872 0.060266
v -0.000383 0.167723 0.095935
v -0.068592 0.167771 0.067681
v -0.096817 0.167500 -0.000499
v -0.080133 0.163272 -0.033017
v 0.052506 0.011657 -0.053408
v 0.053513 0.001133 -0.054414
v 0.074423 0.011657 -0.000496
v 0.075847 0.001133 -0.000496
v 0.052506 0.011657 0.052416
v 0.053513 0.001133 0.053423
v -0.000406 0.011657 0.074332
v -0.000406 0.001133 0.075756
v -0.053317 0.011657 0.052416
v -0.054324 0.001133 0.053423
v -0.075234 0.011657 -0.000496
v -0.076658 0.001133 -0.000496
v -0.053317 0.011657 -0.053408
v -0.054324 0.001133 -0.054414
v -0.000406 0.011657 -0.075324
v -0.000406 0.016656 -0.046357
v 0.026163 0.024890 -0.027002
v 0.032023 0.016656 -0.032924
v 0.037047 0.024891 -0.000476
v 0.045455 0.016656 -0.000496
v 0.026125 0.024882 0.026035
v 0.032023 0.016656 0.031932
v -0.000406 0.024882 0.037025
v -0.000406 0.016656 0.045365
v -0.026937 0.024882 0.026035
v -0.032834 0.016656 0.031932
v -0.037926 0.024882 -0.000496
v -0.046266 0.016656 -0.000496
v -0.026956 0.024879 -0.027069
v -0.032834 0.016656 -0.032924
v -0.000369 0.024870 -0.038028
v 0.027266 0.035336 -0.028287
v 0.038215 0.036453 -0.000449
v 0.026949 0.036200 0.026885
v -0.000412 0.036208 0.038211
v -0.027763 0.036226 0.026873
v -0.039176 0.036112 -0.000499
v -0.027789 0.036081 -0.027922
v 0.000451 0.034022 -0.038951
v 0.057715 0.059586 -0.057954
v 0.082036 0.064358 -0.000522
v 0.057821 0.064521 0.057866
v -0.000406 0.064729 0.081622
v -0.058292 0.064829 0.057527
v -0.083276 0.064237 -0.000432
v -0.058488 0.064644 -0.058924
v 0.000720 0.061541 -0.082577
v -0.000406 0.001133 -0.076748
v 0.077283 0.106786 0.075762
v -0.001373 0.092074 0.099859
v -0.077983 0.105698 0.077009
v 0.109762 0.106605 -0.000474
v 0.079790 0.101345 -0.075604
v -0.000648 0.110010 -0.111076
v -0.078811 0.106952 -0.078417
v -0.111725 0.102836 0.001534
v 0.071924 0.125291 0.073067
v -0.001164 0.125560 0.099974
v -0.055143 0.126064 0.080108
v 0.101643 0.125419 -0.000478
v 0.074643 0.119932 -0.071359
v -0.000445 0.128725 -0.101545
v -0.071800 0.125082 -0.072394
v -0.101479 0.119144 -0.000157
v 0.058004 0.146308 0.057955
v -0.000367 0.145922 0.081671
v -0.058201 0.145878 0.057736
v 0.082119 0.146289 -0.000554
v 0.057547 0.145612 -0.058183
v -0.000241 0.146652 -0.083620
v -0.058848 0.146357 -0.058829
v -0.083101 0.146188 -0.000019
v 0.060461 0.155924 0.060395
v -0.000438 0.156101 0.085553
v -0.061082 0.156157 0.060254
v 0.085721 0.155980 -0.000526
v 0.060470 0.155877 -0.061540
v -0.000301 0.153010 -0.086292
v -0.059225 0.153684 -0.061529
v -0.086342 0.156330 -0.000307
v 0.068976 0.157869 0.061162
v -0.000380 0.162696 0.097236
v -0.069513 0.162711 0.068594
v 0.097576 0.158403 -0.004652
v 0.074397 0.158521 -0.060376
v 0.013626 0.162747 -0.092786
v -0.081877 0.158927 -0.034249
v -0.098282 0.162502 -0.000605
v -0.070391 0.121055 -0.070666
v -0.098095 0.120158 -0.001701
v 0.069875 0.121202 -0.070775
v -0.000398 0.121200 -0.099876
v 0.069986 0.120768 0.070329
v 0.099028 0.121181 -0.000476
v -0.002994 0.120723 0.095299
v -0.054119 0.122131 0.077455
vt 0.782264 0.502458
vt 0.734244 0.380470
vt 0.782264 0.343937
vt 0.688371 0.726142
vt 0.688371 0.861024
vt 0.642837 0.760805
vt 0.206861 0.074296
vt 0.279087 0.002070
vt 0.279087 0.248666
vt 0.806844 0.306133
vt 0.767755 0.211765
vt 0.806844 0.117396
vt 0.002070 0.002070
vt 0.096438 0.041158
vt 0.002070 0.268984
vt 0.355453 0.248666
vt 0.283227 0.176440
vt 0.355453 0.002070
vt 0.202721 0.248666
vt 0.100578 0.248666
vt 0.202721 0.002070
vt 0.825492 0.502458
vt 0.786404 0.408090
vt 0.825492 0.313721
vt 0.728684 0.386750
vt 0.712632 0.348187
vt 0.728684 0.309593
vt 0.973727 0.533666
vt 0.957743 0.495078
vt 0.973727 0.456490
vt 0.631898 0.973842
vt 0.615915 0.935254
vt 0.631898 0.896666
vt 0.948008 0.537194
vt 0.932014 0.498610
vt 0.948008 0.460048
vt 0.929355 0.979091
vt 0.946953 0.931382
vt 0.946953 0.987579
vt 0.177254 0.550516
vt 0.177254 0.651294
vt 0.089943 0.621706
vt 0.089959 0.579939
vt 0.713061 0.117396
vt 0.713061 0.218084
vt 0.625694 0.188335
vt 0.625885 0.146564
vt 0.730105 0.502458
vt 0.642843 0.473075
vt 0.642792 0.431308
vt 0.730105 0.401728
vt 0.713016 0.102829
vt 0.625727 0.073388
vt 0.625720 0.031620
vt 0.713016 0.002070
vt 0.611775 0.630704
vt 0.611775 0.765702
vt 0.556612 0.748739
vt 0.552364 0.650011
vt 0.638697 0.626564
vt 0.552490 0.597708
vt 0.552364 0.545881
vt 0.638697 0.516500
vt 0.375608 0.648636
vt 0.288272 0.619204
vt 0.288253 0.577406
vt 0.375608 0.547625
vt 0.644416 0.362544
vt 0.558331 0.333754
vt 0.558300 0.281933
vt 0.644416 0.252806
vt 0.695553 0.734551
vt 0.729077 0.726142
vt 0.729077 0.880751
vt 0.692510 0.876993
vt 0.109766 0.897147
vt 0.109766 0.958580
vt 0.090058 0.952928
vt 0.089943 0.902745
vt 0.201639 0.626128
vt 0.198300 0.575680
vt 0.282958 0.544329
vt 0.282958 0.653046
vt 0.708492 0.252806
vt 0.708492 0.386750
vt 0.648555 0.369145
vt 0.649280 0.269368
vt 0.257491 0.657186
vt 0.257491 0.787272
vt 0.198668 0.770263
vt 0.198300 0.670237
vt 0.792024 0.531955
vt 0.841088 0.516500
vt 0.841088 0.655331
vt 0.792688 0.642711
vt 0.893012 0.794214
vt 0.849069 0.752464
vt 0.893011 0.663114
vt 0.810983 0.238702
vt 0.815456 0.127417
vt 0.858680 0.117396
vt 0.858680 0.252452
vt 0.478279 0.786604
vt 0.611775 0.769841
vt 0.611775 0.826038
vt 0.477228 0.815017
vt 0.742163 0.672729
vt 0.791249 0.663114
vt 0.791249 0.796212
vt 0.734259 0.782099
vt 0.864637 0.257357
vt 0.862820 0.122314
vt 0.899249 0.117396
vt 0.899249 0.265756
vt 0.181393 0.516244
vt 0.181795 0.416047
vt 0.193812 0.411555
vt 0.193812 0.521294
vt 0.776067 0.096875
vt 0.717155 0.109912
vt 0.719171 0.011746
vt 0.776067 0.002070
vt 0.446847 0.248277
vt 0.359631 0.219230
vt 0.359593 0.177483
vt 0.446847 0.148078
vt 0.829632 0.448257
vt 0.839335 0.313721
vt 0.866969 0.314975
vt 0.866969 0.473496
vt 0.198300 0.791411
vt 0.245950 0.810813
vt 0.245950 0.872245
vt 0.198300 0.891647
vt 0.843039 0.803566
vt 0.843039 0.903802
vt 0.795388 0.884400
vt 0.795388 0.822968
vt 0.089943 0.893008
vt 0.089943 0.792772
vt 0.137593 0.812174
vt 0.137593 0.873606
vt 0.827857 0.002070
vt 0.827857 0.102306
vt 0.780206 0.082904
vt 0.780206 0.021472
vt 0.448326 0.792996
vt 0.448326 0.893232
vt 0.400676 0.873830
vt 0.400676 0.812398
vt 0.981644 0.818555
vt 0.995957 0.812287
vt 0.995957 0.923662
vt 0.982333 0.918296
vt 0.089943 0.672458
vt 0.149073 0.655433
vt 0.149073 0.788632
vt 0.089967 0.771693
vt 0.815105 0.907942
vt 0.815105 0.969374
vt 0.795438 0.963791
vt 0.795388 0.913461
vt 0.448326 0.897372
vt 0.448326 0.958804
vt 0.428643 0.953167
vt 0.428578 0.902880
vt 0.781909 0.904727
vt 0.781909 0.966160
vt 0.762181 0.960574
vt 0.762182 0.910313
vt 0.137593 0.897147
vt 0.137593 0.958580
vt 0.117790 0.952916
vt 0.117866 0.902733
vt 0.472909 0.898130
vt 0.472909 0.959563
vt 0.453181 0.953977
vt 0.453227 0.903661
vt 0.288623 0.669622
vt 0.347434 0.652776
vt 0.347434 0.785896
vt 0.288253 0.769049
vt 0.250325 0.792885
vt 0.279756 0.791411
vt 0.279756 0.926457
vt 0.250090 0.925628
vt 0.972525 0.002070
vt 0.991087 0.003023
vt 0.991087 0.103260
vt 0.972525 0.104213
vt 0.855721 0.308338
vt 0.835816 0.307682
vt 0.835403 0.257501
vt 0.855721 0.256591
vt 0.259999 0.931451
vt 0.279756 0.930597
vt 0.279756 0.982565
vt 0.260055 0.981767
vt 0.947069 0.308263
vt 0.927309 0.307492
vt 0.927128 0.257231
vt 0.947069 0.256358
vt 0.535060 0.197883
vt 0.535401 0.145979
vt 0.621555 0.117396
vt 0.621555 0.227865
vt 0.638652 0.512360
vt 0.552364 0.482848
vt 0.552601 0.431101
vt 0.638652 0.401728
vt 0.621581 0.113257
vt 0.535145 0.083946
vt 0.535060 0.031978
vt 0.621581 0.002070
vt 0.730119 0.722002
vt 0.642837 0.692545
vt 0.642837 0.650778
vt 0.730119 0.621321
vt 0.088495 0.534019
vt 0.002160 0.507633
vt 0.003079 0.454457
vt 0.088495 0.422296
vt 0.389271 0.618545
vt 0.391515 0.566201
vt 0.473828 0.542496
vt 0.473828 0.651974
vt 0.328121 0.809437
vt 0.375771 0.790035
vt 0.375771 0.890271
vt 0.328121 0.870870
vt 0.986171 0.428567
vt 0.967609 0.427613
vt 0.967609 0.327377
vt 0.986171 0.326423
vt 0.940247 0.447666
vt 0.910688 0.448354
vt 0.911852 0.315189
vt 0.940247 0.313721
vt 0.245950 0.997930
vt 0.227387 0.996977
vt 0.227387 0.896741
vt 0.245950 0.895787
vt 0.204685 0.895787
vt 0.223248 0.896741
vt 0.223248 0.996976
vt 0.204685 0.997930
vt 0.375771 0.894411
vt 0.375771 0.996555
vt 0.357208 0.995601
vt 0.357208 0.895365
vt 0.810983 0.307438
vt 0.812755 0.257286
vt 0.831263 0.256591
vt 0.831263 0.308983
vt 0.711073 0.987034
vt 0.692510 0.986080
vt 0.692510 0.885844
vt 0.711073 0.884891
vt 0.669808 0.967307
vt 0.669808 0.865163
vt 0.688371 0.866117
vt 0.688371 0.966353
vt 0.879646 0.102306
vt 0.831996 0.082904
vt 0.831996 0.021471
vt 0.879646 0.002070
vt 0.448326 0.656114
vt 0.448326 0.788857
vt 0.389506 0.772044
vt 0.389271 0.672300
vt 0.715213 0.890648
vt 0.725970 0.884891
vt 0.725970 0.985564
vt 0.717476 0.985426
vt 0.900776 0.522056
vt 0.927875 0.516500
vt 0.927875 0.653128
vt 0.898424 0.652121
vt 0.514207 0.685362
vt 0.490585 0.551112
vt 0.548225 0.540509
vt 0.548225 0.686772
vt 0.730119 0.617181
vt 0.642837 0.587725
vt 0.642837 0.545957
vt 0.730119 0.516500
vt 0.798576 0.675347
vt 0.844929 0.663114
vt 0.844929 0.799427
vt 0.795388 0.785576
vt 0.193401 0.655433
vt 0.193401 0.818094
vt 0.153213 0.784190
vt 0.002160 0.798367
vt 0.008690 0.687220
vt 0.057232 0.676842
vt 0.057232 0.813920
vt 0.874517 0.454305
vt 0.871109 0.317270
vt 0.906548 0.313721
vt 0.906548 0.465215
vt 0.289886 0.926238
vt 0.288253 0.793150
vt 0.323981 0.790035
vt 0.323981 0.931904
vt 0.420404 0.897372
vt 0.420404 0.958804
vt 0.400676 0.953218
vt 0.400676 0.902958
vt 0.734259 0.800352
vt 0.781909 0.819754
vt 0.781909 0.881186
vt 0.734259 0.900588
vt 0.734259 0.904727
vt 0.753987 0.910313
vt 0.753987 0.960574
vt 0.734259 0.966160
vt 0.847414 0.626024
vt 0.845228 0.516500
vt 0.894285 0.535420
vt 0.894285 0.636093
vt 0.897151 0.802512
vt 0.898527 0.663688
vt 0.932570 0.663114
vt 0.932570 0.808148
vt 0.906847 0.308711
vt 0.903388 0.258499
vt 0.922989 0.256358
vt 0.922989 0.309542
vt 0.734259 0.540402
vt 0.787885 0.516500
vt 0.787885 0.658975
vt 0.744338 0.650464
vt 0.819244 0.958976
vt 0.819273 0.908715
vt 0.839188 0.907942
vt 0.839188 0.959762
vt 0.951208 0.307376
vt 0.951221 0.257115
vt 0.971123 0.256358
vt 0.971123 0.308186
vt 0.044700 0.935377
vt 0.052349 0.931683
vt 0.052349 0.985516
vt 0.034840 0.979353
vt 0.977531 0.934643
vt 0.977531 0.984930
vt 0.961383 0.984214
vt 0.959034 0.933710
vt 0.903388 0.118266
vt 0.933053 0.117396
vt 0.933053 0.252218
vt 0.903388 0.251386
vt 0.328121 0.996555
vt 0.328121 0.894411
vt 0.346684 0.895365
vt 0.346684 0.995601
vt 0.396536 0.932545
vt 0.396536 0.991152
vt 0.387796 0.982640
vt 0.763616 0.280057
vt 0.730926 0.288797
vt 0.717200 0.144666
vt 0.763616 0.117396
vt 0.863347 0.799202
vt 0.893011 0.798353
vt 0.893011 0.932994
vt 0.863451 0.932400
vt 0.528163 0.171100
vt 0.528163 0.248277
vt 0.451017 0.248257
vt 0.450987 0.171100
vt 0.932014 0.594513
vt 0.953603 0.541334
vt 0.953603 0.653128
vt 0.064147 0.927543
vt 0.034840 0.836903
vt 0.064147 0.818060
vt 0.502171 0.830178
vt 0.502171 0.952288
vt 0.477228 0.846499
vt 0.978359 0.780397
vt 0.960126 0.723142
vt 0.978359 0.663114
vt 0.280606 0.503934
vt 0.291986 0.405305
vt 0.291986 0.526073
vt 0.995430 0.653233
vt 0.980751 0.542277
vt 0.995430 0.537806
vt 0.472909 0.768943
vt 0.472909 0.893991
vt 0.452466 0.882438
vt 0.990463 0.533666
vt 0.977866 0.460890
vt 0.990463 0.447257
vt 0.747619 0.294850
vt 0.747619 0.339797
vt 0.734244 0.295759
vt 0.298818 0.526112
vt 0.298912 0.425430
vt 0.375608 0.408439
vt 0.375608 0.543485
vt 0.389271 0.518715
vt 0.390378 0.417943
vt 0.467420 0.401728
vt 0.467420 0.538357
vt 0.294679 0.401165
vt 0.198300 0.381141
vt 0.207365 0.269787
vt 0.294679 0.252806
vt 0.473445 0.397589
vt 0.390766 0.382791
vt 0.389271 0.272332
vt 0.473445 0.252806
vt 0.471560 0.519286
vt 0.471566 0.418527
vt 0.548225 0.401728
vt 0.548225 0.536369
vt 0.276467 0.540189
vt 0.202088 0.525536
vt 0.198300 0.424878
vt 0.276467 0.405305
vt 0.454961 0.760130
vt 0.452466 0.661343
vt 0.482267 0.656114
vt 0.482267 0.764804
vt 0.977759 0.256894
vt 0.986215 0.256358
vt 0.986215 0.318823
vt 0.975262 0.319580
vt 0.516791 0.157843
vt 0.516791 0.166961
vt 0.452396 0.166907
vt 0.450987 0.158552
vt 0.194047 0.822233
vt 0.194047 0.943001
vt 0.186006 0.941063
vt 0.186347 0.823201
vt 0.570823 0.391981
vt 0.558300 0.384393
vt 0.560695 0.370923
vt 0.570823 0.366684
vt 0.516837 0.690911
vt 0.516837 0.755306
vt 0.490585 0.741950
vt 0.642837 0.889298
vt 0.659840 0.865163
vt 0.659840 0.983028
vt 0.396536 0.792996
vt 0.396536 0.928405
vt 0.381357 0.914159
vt 0.615915 0.874870
vt 0.617978 0.766006
vt 0.638647 0.768491
vt 0.638647 0.892526
vt 0.477585 0.368800
vt 0.477672 0.267788
vt 0.554160 0.252806
vt 0.554160 0.385976
vt 0.978573 0.252218
vt 0.960831 0.249934
vt 0.960634 0.139176
vt 0.978572 0.136791
vt 0.193812 0.651031
vt 0.186159 0.650354
vt 0.184828 0.526325
vt 0.193812 0.525433
vt 0.991600 0.663114
vt 0.991600 0.794084
vt 0.982555 0.793206
vt 0.982499 0.663989
vt 0.061372 0.799766
vt 0.061573 0.684760
vt 0.083680 0.676842
vt 0.083680 0.807812
vt 0.533773 0.941972
vt 0.506311 0.936975
vt 0.509413 0.836996
vt 0.533773 0.830178
vt 0.002160 0.637772
vt 0.025845 0.539909
vt 0.071836 0.538158
vt 0.071836 0.672703
vt 0.955986 0.778684
vt 0.938061 0.776205
vt 0.936709 0.666558
vt 0.955986 0.663114
vt 0.385131 0.404299
vt 0.298818 0.382801
vt 0.303292 0.271704
vt 0.385131 0.252806
vt 0.100578 0.529295
vt 0.100583 0.428613
vt 0.177254 0.411555
vt 0.177254 0.546377
vt 0.194160 0.407415
vt 0.107291 0.391846
vt 0.100578 0.283336
vt 0.194160 0.252806
vt 0.538085 0.934113
vt 0.537913 0.834878
vt 0.565642 0.830178
vt 0.565642 0.939370
vt 0.181866 0.930686
vt 0.153213 0.926580
vt 0.154365 0.827015
vt 0.181866 0.822233
vt 0.530920 0.148333
vt 0.473416 0.145973
vt 0.451462 0.038120
vt 0.530920 0.002070
vt 0.379689 0.781926
vt 0.351573 0.771643
vt 0.352137 0.663192
vt 0.379689 0.652776
vt 0.261744 0.762815
vt 0.261631 0.657186
vt 0.283970 0.658455
vt 0.283970 0.774025
vt 0.638294 0.630704
vt 0.638294 0.761867
vt 0.616343 0.753394
vt 0.615915 0.638550
vt 0.447323 0.002070
vt 0.447323 0.143939
vt 0.361875 0.121120
vt 0.359593 0.011665
vt 0.920949 0.106889
vt 0.917762 0.007512
vt 0.945282 0.002070
vt 0.945282 0.111553
vt 0.002540 0.826927
vt 0.030700 0.818060
vt 0.030700 0.927252
vt 0.002160 0.930991
vt 0.956495 0.252218
vt 0.937193 0.248915
vt 0.944503 0.138635
vt 0.956495 0.137264
vt 0.085081 0.669321
vt 0.075976 0.668489
vt 0.076040 0.539339
vt 0.085081 0.538158
vt 0.913622 0.110489
vt 0.883786 0.105461
vt 0.885149 0.007283
vt 0.913622 0.002070
vt 0.526778 0.700589
vt 0.548225 0.690911
vt 0.548225 0.756720
vt 0.954894 0.812287
vt 0.954894 0.927242
vt 0.929355 0.908230
vt 0.068286 0.832983
vt 0.084957 0.818060
vt 0.084957 0.943658
vt 0.849069 0.810722
vt 0.858152 0.798353
vt 0.858152 0.935439
vt 0.579911 0.830178
vt 0.579911 0.967263
vt 0.570960 0.966087
vt 0.570837 0.830679
vt 0.478727 0.645330
vt 0.478800 0.541265
vt 0.486445 0.540509
vt 0.486445 0.646139
vt 0.968385 0.002070
vt 0.968385 0.117075
vt 0.949422 0.114103
vt 0.949479 0.004557
vt 0.584051 0.934335
vt 0.584420 0.834557
vt 0.611775 0.830178
vt 0.611775 0.939060
vt 0.976611 0.537806
vt 0.976611 0.653128
vt 0.957743 0.650372
vt 0.958872 0.540103
vt 0.088495 0.418157
vt 0.002651 0.402534
vt 0.002070 0.291904
vt 0.088495 0.273123
vt 0.963469 0.313721
vt 0.963469 0.428567
vt 0.945022 0.425870
vt 0.944386 0.315794
vt 0.982712 0.139802
vt 0.995183 0.136791
vt 0.995183 0.212599
vt 0.977505 0.812287
vt 0.977505 0.929571
vt 0.964290 0.926026
vt 0.959034 0.814811
vt 0.567125 0.248277
vt 0.532303 0.247086
vt 0.535398 0.239416
vt 0.567125 0.236745
vt 0.923737 0.452494
vt 0.923737 0.510046
vt 0.910688 0.495505
vt 0.587436 0.391460
vt 0.576412 0.388077
vt 0.574963 0.376094
vt 0.587436 0.366684
vt 0.897270 0.931127
vt 0.897151 0.822708
vt 0.925216 0.812287
vt 0.925216 0.941503
vn 0.7559 -0.5076 -0.4136
vn -0.7792 0.5212 0.3480
vn -0.0000 -1.0000 0.0000
vn 0.0048 1.0000 0.0058
vn 0.0028 1.0000 0.0023
vn 0.0065 1.0000 0.0047
vn -0.0010 1.0000 0.0011
vn 0.0000 1.0000 -0.0000
vn -0.0016 1.0000 0.0007
vn 0.0000 1.0000 0.0004
vn -0.9961 -0.0326 0.0823
vn 0.5346 0.8152 0.2226
vn 0.5350 0.8151 0.2223
vn -0.2165 0.8147 -0.5379
vn -0.2166 0.8148 -0.5378
vn -0.2168 0.8142 -0.5385
vn 0.5351 0.8148 -0.2231
vn 0.5353 0.8147 -0.2228
vn 0.5352 0.8148 -0.2231
vn 0.5351 0.8148 -0.2230
vn -0.5354 0.8149 0.2221
vn -0.5357 0.8148 0.2219
vn -0.5350 0.8151 0.2223
vn -0.2553 -0.6553 -0.7109
vn 0.2169 -0.8170 0.5342
vn 0.2165 -0.8171 0.5342
vn -0.5351 0.8157 -0.2198
vn -0.5349 0.8160 -0.2191
vn -0.2238 -0.8142 0.5357
vn -0.2228 -0.8143 0.5360
vn -0.2230 -0.8144 0.5358
vn -0.2227 -0.8145 0.5357
vn 0.3978 0.3600 -0.8439
vn 0.3979 0.3600 -0.8439
vn 0.3979 0.3601 -0.8438
vn 0.3979 0.3600 -0.8438
vn 0.6736 0.6845 -0.2787
vn 0.6736 0.6845 -0.2788
vn 0.6737 0.6844 -0.2786
vn 0.6737 0.6845 -0.2786
vn 0.2095 -0.8387 -0.5027
vn 0.2095 -0.8386 -0.5028
vn -0.6714 -0.6877 -0.2761
vn -0.6714 -0.6876 -0.2763
vn -0.6714 -0.6876 -0.2764
vn 0.6911 -0.6661 0.2804
vn 0.6912 -0.6661 0.2804
vn 0.6972 0.6577 0.2851
vn 0.6972 0.6578 0.2851
vn 0.6973 0.6576 0.2852
vn 0.7132 -0.6221 -0.3230
vn -0.3024 0.6647 -0.6832
vn -0.3024 0.6646 -0.6832
vn -0.2987 0.1358 -0.9446
vn -0.2987 0.1359 -0.9446
vn 0.7057 0.6364 -0.3114
vn 0.7056 0.6364 -0.3115
vn 0.7055 0.6366 -0.3114
vn -0.3629 0.4147 -0.8345
vn -0.3629 0.4148 -0.8344
vn -0.1447 0.9255 0.3501
vn -0.1450 0.9254 0.3501
vn 0.2447 -0.6959 -0.6751
vn 0.2211 0.8136 -0.5377
vn 0.8108 -0.4175 -0.4102
vn 0.8108 -0.4176 -0.4102
vn -0.0703 0.9830 0.1696
vn 0.0703 0.9830 -0.1696
vn -0.1696 0.9830 -0.0703
vn 0.1696 0.9830 -0.0703
vn -0.0703 0.9830 -0.1696
vn 0.0399 0.9944 0.0984
vn 0.0399 0.9944 0.0983
vn -0.6675 -0.6913 0.2767
vn -0.2794 0.6828 -0.6751
vn -0.2795 0.6826 -0.6752
vn -0.2796 0.6821 -0.6757
vn 0.2796 0.6836 -0.6741
vn 0.2795 0.6829 -0.6750
vn 0.2795 0.6830 -0.6748
vn 0.2796 0.6838 -0.6740
vn -0.2793 0.6836 0.6743
vn 0.6740 0.6841 0.2789
vn 0.6739 0.6842 0.2789
vn 0.6742 0.6839 0.2787
vn -0.6746 0.6833 -0.2793
vn -0.6748 0.6831 -0.2793
vn -0.6751 0.6829 -0.2792
vn -0.2771 -0.6912 0.6675
vn -0.2772 -0.6916 0.6670
vn 0.3819 -0.0727 0.9213
vn 0.3820 -0.0726 0.9213
vn -0.3797 0.1240 -0.9167
vn 0.9206 -0.0940 0.3790
vn 0.9206 -0.0937 0.3790
vn 0.9206 -0.0946 0.3789
vn 0.9207 -0.0942 0.3788
vn -0.9193 -0.0999 -0.3806
vn -0.9192 -0.0982 0.3814
vn -0.9192 -0.0980 0.3813
vn -0.9191 -0.0981 0.3816
vn -0.9192 -0.0981 0.3815
vn -0.5280 -0.8179 0.2284
vn -0.5280 -0.8180 0.2283
vn 0.5279 -0.8209 0.2176
vn 0.5284 -0.8207 0.2173
vn 0.5286 -0.8206 0.2172
vn 0.5285 -0.8206 0.2173
vn -0.5289 -0.8184 -0.2247
vn -0.5290 -0.8183 -0.2247
vn -0.5286 -0.8185 -0.2250
vn -0.5290 -0.8184 -0.2247
vn 0.2219 0.8148 0.5357
vn -0.2553 -0.8192 -0.5135
vn 0.5220 -0.8379 -0.1598
vn 0.5221 -0.8379 -0.1593
vn 0.5224 -0.8377 -0.1593
vn 0.5222 -0.8378 -0.1593
vn 0.0703 0.9830 0.1696
vn 0.9167 0.1240 0.3797
vn -0.9223 -0.0424 -0.3841
vn 0.3797 0.1240 0.9167
vn -0.9167 0.1240 0.3797
vn -0.3797 0.1240 0.9167
vn 0.9219 -0.1130 -0.3706
vn 0.9219 -0.1129 -0.3706
vn 0.9167 0.1240 -0.3797
vn -0.9167 0.1240 -0.3797
vn 0.1696 0.9830 0.0703
vn 0.2779 -0.6896 0.6687
vn 0.2780 -0.6897 0.6686
vn 0.2779 -0.6897 0.6687
vn -0.2835 -0.5999 0.7482
vn 0.9172 -0.1298 0.3767
vn 0.9172 -0.1297 0.3767
vn 0.3081 0.0676 0.9489
vn 0.3082 0.0675 0.9489
vn -0.2219 0.8148 0.5357
vn 0.2761 0.6533 0.7050
vn -0.8146 0.3750 0.4424
vn -0.7640 0.5772 -0.2883
vn -0.7640 0.5773 -0.2883
vn -0.7639 0.5773 -0.2884
vn -0.7640 0.5772 -0.2882
vn -0.8380 0.4472 -0.3128
vn 0.8632 0.3505 -0.3634
vn 0.2793 0.6836 0.6743
vn -0.1696 0.9830 0.0703
vn -0.6743 0.6836 0.2793
vn -0.2716 0.6761 0.6849
vn -0.2717 0.6761 0.6849
vn 0.8640 0.3538 0.3583
vn 0.8640 0.3537 0.3583
vn -0.3752 -0.0841 -0.9231
vn -0.3752 -0.0840 -0.9231
vn 0.3372 0.6306 -0.6991
vn 0.3372 0.6305 -0.6991
vn 0.3371 0.6306 -0.6991
vn -0.3809 -0.0971 0.9195
vn -0.3811 -0.0961 0.9195
vn -0.3810 -0.0966 0.9195
vn 0.3808 -0.0965 0.9196
vn 0.3807 -0.0961 0.9197
vn 0.3650 -0.5687 0.7371
vn 0.3799 -0.1404 -0.9143
vn 0.3799 -0.1403 -0.9143
vn -0.3818 -0.0683 0.9217
vn 0.3797 0.1240 -0.9167
vn -0.9370 0.0046 0.3492
vn -0.7065 0.6304 0.3218
vn -0.7064 0.6304 0.3218
vn -0.9220 -0.0665 0.3814
vn -0.9219 -0.0664 0.3816
vn -0.9219 -0.0662 0.3817
vn 0.0000 1.0000 -0.0005
vn 0.0009 1.0000 0.0009
vn 0.0007 1.0000 0.0008
vn 0.2954 0.9510 0.0917
vn -0.2281 0.8431 0.4870
vn -0.1720 0.8886 -0.4253
vn -0.3447 -0.9320 -0.1124
vn 0.2087 -0.8412 -0.4989
vn 0.2086 -0.9751 0.0754
vn 0.2183 -0.9719 0.0876
vn 0.2143 -0.9728 0.0879
vn 0.1960 -0.8546 0.4808
vn 0.1959 -0.8548 0.4806
vn 0.6590 -0.0421 0.7510
vn -0.9968 -0.0787 -0.0121
vn -0.9968 -0.0786 -0.0121
vn -0.9968 -0.0786 -0.0120
vn 0.3219 0.5383 0.7788
vn 0.3227 0.5375 0.7791
vn 0.7773 0.5399 0.3231
vn 0.7770 0.5402 0.3233
vn 0.7776 0.5395 0.3230
vn -0.3283 -0.5001 -0.8013
vn -0.3283 -0.5000 -0.8014
vn -0.3283 -0.5002 -0.8013
vn -0.7570 -0.5541 0.3463
vn -0.7570 -0.5541 0.3464
vn -0.7570 -0.5540 0.3465
vn -0.7570 -0.5540 0.3464
vn -0.7800 0.5362 0.3228
vn -0.7796 0.5366 0.3228
vn -0.7798 0.5363 0.3229
vn -0.7797 0.5367 0.3225
vn 0.7755 0.5376 -0.3310
vn 0.7755 0.5377 -0.3309
vn 0.7755 0.5377 -0.3310
vn -0.3455 0.4036 -0.8472
vn -0.3455 0.4037 -0.8472
vn -0.3454 0.4037 -0.8472
vn -0.3454 0.4038 -0.8472
vn -0.5674 0.5587 -0.6049
vn -0.5674 0.5588 -0.6049
vn -0.8351 0.3102 -0.4543
vn 0.4673 0.2578 -0.8457
vn 0.4673 0.2579 -0.8457
vn 0.7217 -0.1635 -0.6726
vn 0.4032 0.9105 0.0923
vn -0.1383 0.9125 0.3851
vn -0.1235 0.9243 -0.3611
vn -0.1235 0.9243 -0.3612
vn -0.1938 0.9773 -0.0856
vn -0.1939 0.9773 -0.0856
vn -0.7829 0.5290 -0.3276
vn 0.8758 -0.3193 0.3621
vn 0.8758 -0.3191 0.3621
vn 0.8758 -0.3192 0.3621
vn 0.8927 0.2264 0.3897
vn -0.3723 0.2306 0.8990
vn -0.3724 0.2305 0.8990
vn -0.3723 0.2302 0.8991
vn -0.2003 -0.8529 0.4821
vn -0.2005 -0.8528 0.4821
vn -0.2004 -0.8530 0.4820
vn 0.8562 0.3719 0.3586
vn 0.8562 0.3719 0.3587
vn 0.8561 0.3721 0.3586
vn -0.3168 0.5050 -0.8028
vn -0.3168 0.5050 -0.8029
vn 0.8680 -0.3411 -0.3609
vn 0.8679 -0.3412 -0.3609
vn -0.7691 -0.5417 -0.3390
vn -0.7692 -0.5417 -0.3390
vn -0.7692 -0.5415 -0.3392
vn -0.7691 -0.5418 -0.3391
vn -0.3228 0.5373 0.7791
vn 0.3175 -0.4867 -0.8138
vn 0.3175 -0.4867 -0.8139
vn 0.3172 -0.4864 -0.8141
vn 0.3175 -0.4866 -0.8139
vn -0.8398 0.4186 0.3457
vn -0.8398 0.4185 0.3457
vn 0.8486 0.3898 -0.3577
vn 0.8487 0.3896 -0.3578
vn 0.3257 -0.4973 0.8041
vn 0.3257 -0.4973 0.8042
vn 0.4175 0.8920 -0.1732
vn 0.4175 0.8920 -0.1733
vn 0.1838 -0.9800 -0.0764
vn -0.4640 -0.8647 0.1925
vn -0.4640 -0.8647 0.1924
vn 0.7963 -0.5332 -0.2856
vn 0.7964 -0.5331 -0.2856
vn 0.7964 -0.5330 -0.2857
vn -0.3485 0.4470 0.8238
vn -0.3485 0.4470 0.8239
vn -0.3484 0.4471 0.8238
vn -0.1584 0.9852 0.0651
vn -0.1585 0.9852 0.0652
vn 0.3645 -0.3773 -0.8513
vn 0.3645 -0.3772 -0.8514
vn -0.8981 0.2344 0.3721
vn -0.8981 0.2343 0.3721
vn 0.3484 0.4077 -0.8440
vn 0.3485 0.4076 -0.8440
vn -0.4456 -0.8868 -0.1224
vn 0.2692 -0.7729 -0.5746
vn 0.2693 -0.7728 -0.5747
vn 0.2692 -0.7728 -0.5747
vn 0.2170 -0.9721 0.0889
vn 0.2216 -0.9711 0.0889
vn 0.2336 -0.9678 0.0941
vn 0.1635 -0.8865 0.4329
vn 0.4621 0.2283 0.8570
vn 0.8989 0.2288 -0.3737
vn -0.3631 -0.3326 0.8704
vn -0.3632 -0.3326 0.8703
vn -0.8451 0.4046 -0.3494
vn -0.8452 0.4045 -0.3494
vn -0.8451 0.4045 -0.3494
vn 0.3606 -0.3204 0.8760
vn 0.7901 -0.5146 0.3331
vn 0.7900 -0.5147 0.3330
vn 0.7900 -0.5146 0.3332
vn 0.7900 -0.5147 0.3331
vn -0.8773 -0.3033 0.3719
vn -0.8774 -0.3033 0.3718
vn 0.7126 -0.0090 0.7015
vn -0.8940 -0.2383 -0.3794
vn -0.6322 0.4351 -0.6411
vn -0.9887 -0.1100 0.1017
vn -0.9989 -0.0394 -0.0270
vn 0.1783 0.8852 -0.4297
vn 0.1782 0.8852 -0.4297
g Vase_S_3_Vase_S_3_Collor_Material
usemtl Collor_Material
s off
f 138/1/1 30/2/1 144/3/1
f 112/4/2 115/5/2 120/6/2
f 96/7/3 50/8/3 60/9/3
f 60/10/3 62/11/3 96/12/3
f 52/13/3 54/14/3 60/15/3
f 54/16/3 56/17/3 60/18/3
f 50/19/3 52/20/3 60/21/3
f 56/22/3 58/23/3 60/24/3
f 5/25/4 4/26/5 3/27/6
f 3/28/7 2/29/8 1/30/8
f 1/31/8 8/32/8 7/33/8
f 7/34/9 6/35/9 5/36/10
f 98/37/11 143/38/11 21/39/11
f 16/40/12 15/41/12 7/42/12 8/43/13
f 13/44/14 12/45/15 4/46/16 5/47/14
f 14/48/17 6/49/18 7/50/19 15/51/20
f 10/52/21 2/53/22 3/54/23 11/55/23
f 141/56/24 143/57/24 29/58/24 28/59/24
f 91/60/25 83/61/25 82/62/25 90/63/26
f 11/64/27 3/65/28 4/66/27 12/67/27
f 92/68/29 84/69/30 83/70/31 91/71/32
f 109/72/33 101/73/34 102/74/35 110/75/36
f 68/76/37 66/77/38 65/78/39 67/79/40
f 80/80/41 87/81/41 95/82/42 88/83/41
f 142/84/43 141/85/44 28/86/45 27/87/44
f 138/88/46 137/89/47 32/90/46 31/91/46
f 113/92/48 105/93/49 108/94/50 116/95/49
f 138/96/51 31/97/51 30/98/51
f 119/99/52 118/100/53 110/101/52 111/102/53
f 20/103/54 21/104/54 143/105/55 141/106/54
f 116/107/56 108/108/57 109/109/58 117/110/56
f 111/111/59 110/112/60 102/113/60 103/114/60
f 13/115/61 14/116/62 92/117/61 91/118/61
f 144/119/63 30/120/63 29/121/63 143/122/63
f 13/123/64 5/124/64 6/125/64 14/126/64
f 22/127/65 23/128/66 138/129/66 144/130/65
f 55/131/67 72/132/67 74/133/67 57/134/67
f 49/135/68 63/136/68 64/137/68 66/138/68
f 61/139/69 59/140/69 76/141/69 78/142/69
f 51/143/70 49/144/70 66/145/70 68/146/70
f 63/147/71 61/148/71 78/149/71 64/150/71
f 25/151/72 118/152/73 119/153/73 32/154/72
f 26/155/74 139/156/74 142/157/74 27/158/74
f 64/159/75 78/160/76 77/161/77 79/162/75
f 66/163/78 64/164/79 79/165/80 65/166/81
f 74/167/82 72/168/82 71/169/82 73/170/82
f 70/171/83 68/172/83 67/173/84 69/174/85
f 78/175/86 76/176/87 75/177/88 77/178/87
f 25/179/89 140/180/89 139/181/90 26/182/89
f 137/183/91 24/184/91 17/185/92 140/186/92
f 62/187/93 61/188/93 63/189/93 96/190/93
f 82/191/94 69/192/95 67/193/96 81/194/97
f 75/195/98 85/196/98 86/197/98 77/198/98
f 85/199/99 75/200/100 73/201/101 84/202/102
f 85/203/103 84/204/103 92/205/104 93/206/104
f 90/207/105 82/208/106 81/209/107 89/210/108
f 94/211/109 86/212/110 85/213/111 93/214/112
f 16/215/113 8/216/113 1/217/113 9/218/113
f 95/219/114 87/220/114 86/221/114 94/222/114
f 81/223/115 80/224/116 88/225/117 89/226/118
f 72/227/119 55/228/119 53/229/119 70/230/119
f 52/231/120 51/232/120 53/233/120 54/234/120
f 142/235/121 19/236/121 20/237/121 141/238/121
f 54/239/122 53/240/122 55/241/122 56/242/122
f 58/243/123 57/244/123 59/245/123 60/246/123
f 58/247/124 56/248/124 55/249/124 57/250/124
f 67/251/125 65/252/125 80/253/126 81/254/126
f 50/255/127 49/256/127 51/257/127 52/258/127
f 62/259/128 60/260/128 59/261/128 61/262/128
f 51/263/129 68/264/129 70/265/129 53/266/129
f 137/267/130 140/268/131 25/269/130 32/270/132
f 143/271/133 106/272/133 107/273/133 144/274/133
f 138/275/134 23/276/135 24/277/134 137/278/135
f 105/279/136 106/280/137 98/281/136 97/282/137
f 9/283/138 1/284/138 2/285/138 10/286/138
f 114/287/139 106/288/139 105/289/139 113/290/139
f 112/291/140 107/292/140 115/293/140
f 120/294/141 119/295/142 111/296/143 112/297/144
f 112/298/145 111/299/145 103/300/145 104/301/145
f 109/302/146 108/303/146 100/304/146 101/305/146
f 72/306/147 70/307/147 69/308/147 71/309/147
f 57/310/148 74/311/148 76/312/148 59/313/148
f 74/314/149 73/315/149 75/316/149 76/317/149
f 114/318/150 115/319/151 107/320/150 106/321/151
f 108/322/152 105/323/153 97/324/152 100/325/152
f 79/326/154 77/327/155 86/328/155 87/329/154
f 117/330/156 109/331/157 110/332/158 118/333/157
f 73/334/159 71/335/160 83/336/161 84/337/161
f 71/338/162 69/339/162 82/340/162 83/341/163
f 144/342/164 107/343/164 99/344/164 22/345/164
f 65/346/165 79/347/166 87/348/166 80/349/165
f 140/350/167 17/351/167 18/352/167 139/353/167
f 50/354/168 96/355/168 63/356/168 49/357/168
f 98/358/169 106/359/169 143/360/169
f 112/361/170 104/362/171 99/363/171 107/364/171
f 139/365/172 18/366/173 19/367/174 142/368/174
f 1/369/175 7/370/175 5/371/176 3/372/177
f 48/373/178 39/374/178 40/375/178
f 34/376/179 41/377/179 33/378/179
f 45/379/180 36/380/180 37/381/180
f 128/382/181 135/383/181 127/384/181
f 125/385/182 134/386/182 133/387/182
f 124/388/183 129/389/184 121/390/185
f 121/391/186 130/392/187 122/393/186
f 92/394/188 22/395/188 99/396/188
f 91/397/189 21/398/190 13/399/191
f 16/400/192 9/401/193 17/402/192 24/403/192
f 15/404/194 16/405/195 24/406/194 23/407/196
f 102/408/197 95/409/198 94/410/197 103/411/199
f 104/412/200 93/413/201 92/414/202 99/415/203
f 10/416/204 11/417/205 19/418/206 18/419/207
f 22/420/208 14/421/209 15/422/210 23/423/209
f 28/424/211 29/425/212 37/426/213 36/427/214
f 135/428/215 48/429/215 40/430/215 127/431/216
f 136/432/217 47/433/217 48/434/217 135/435/217
f 133/436/218 134/437/219 41/438/218 42/439/218
f 32/440/220 119/441/220 127/442/220 40/443/220
f 48/444/221 47/445/221 39/446/221
f 34/447/222 42/448/222 41/449/222
f 45/450/223 44/451/224 36/452/223
f 35/453/225 36/454/225 44/455/226 43/456/225
f 11/457/227 12/458/227 20/459/227 19/460/227
f 121/461/228 113/462/229 116/463/230 124/464/230
f 132/465/231 43/466/231 44/467/231 129/468/231
f 131/469/232 130/470/233 45/471/233 46/472/234
f 123/473/235 122/474/236 130/475/237 131/476/235
f 39/477/238 31/478/239 32/479/238 40/480/240
f 12/481/241 13/482/241 21/483/242 20/484/242
f 124/485/243 116/486/244 117/487/244 125/488/243
f 103/489/245 94/490/246 93/491/247 104/492/248
f 9/493/249 10/494/249 18/495/249 17/496/249
f 101/497/250 88/498/251 95/499/252 102/500/253
f 26/501/254 27/502/254 35/503/254 34/504/255
f 38/505/256 30/506/257 31/507/256 39/508/256
f 98/509/258 91/510/259 90/511/258 97/512/258
f 46/513/260 38/514/261 39/515/260 47/516/261
f 133/517/262 132/518/262 124/519/262 125/520/262
f 131/521/263 136/522/264 128/523/263 123/524/263
f 101/525/265 100/526/266 89/527/267 88/528/266
f 25/529/268 26/530/269 34/531/269 33/532/270
f 42/533/271 34/534/272 35/535/271 43/536/271
f 125/537/273 117/538/273 118/539/273 126/540/274
f 131/541/275 46/542/276 47/543/275 136/544/276
f 37/545/277 29/546/278 30/547/278 38/548/278
f 128/549/279 136/550/279 135/551/279
f 125/552/280 126/553/281 134/554/282
f 124/555/283 132/556/284 129/557/285
f 121/558/286 129/559/286 130/560/286
f 130/561/287 129/562/287 44/563/287 45/564/287
f 42/565/288 43/566/288 132/567/288 133/568/288
f 122/569/289 123/570/290 115/571/290 114/572/290
f 27/573/291 28/574/292 36/575/293 35/576/291
f 121/577/294 122/578/294 114/579/294 113/580/294
f 97/581/295 90/582/296 89/583/297 100/584/298
f 123/585/299 128/586/300 120/587/299 115/588/299
f 92/589/301 14/590/301 22/591/301
f 128/592/302 127/593/302 119/594/302 120/595/302
f 33/596/303 41/597/303 134/598/303 126/599/303
f 91/600/304 98/601/304 21/602/304
f 33/603/305 126/604/305 118/605/305 25/606/305
f 37/607/306 38/608/307 46/609/306 45/610/306
