# Blender v3.0.0 OBJ File: 'aa.blend'
# www.blender.org
mtllib Vase_L_3.mtl
o Vase_L_3
v 0.004347 -0.000000 -0.057684
v 0.000389 0.555904 -0.075953
v 0.050947 -0.000000 -0.050511
v 0.051825 0.568727 -0.051369
v 0.060521 -0.000000 -0.001715
v 0.076036 0.560341 0.000247
v 0.050007 0.000000 0.052917
v 0.059698 0.569457 0.039443
v 0.007946 0.000000 0.057792
v -0.043382 0.000000 0.036563
v -0.051781 0.569342 0.052233
v -0.080412 0.000000 0.001709
v -0.073151 0.569342 0.000853
v -0.051733 -0.000000 -0.050436
v -0.050607 0.562883 -0.050168
v -0.000423 0.022696 -0.043595
v 0.031125 0.022686 -0.030623
v 0.046432 0.018394 0.000060
v 0.027780 0.022939 0.035071
v -0.000440 0.022832 0.045445
v -0.031901 0.022757 0.032368
v -0.045350 0.023628 0.000933
v -0.032048 0.023144 -0.030734
v -0.000423 0.071714 -0.030615
v 0.021820 0.071689 -0.021383
v 0.031461 0.071882 0.000978
v 0.021741 0.071727 0.023071
v -0.000434 0.071717 0.032328
v -0.022689 0.071711 0.023152
v -0.032013 0.071740 0.000878
v -0.022719 0.071725 -0.021408
v -0.000434 0.118795 -0.032543
v 0.023399 0.118748 -0.022787
v 0.032884 0.118858 0.000908
v 0.022906 0.118935 0.024251
v -0.000440 0.118916 0.033857
v -0.023955 0.118810 0.024521
v -0.033799 0.118810 0.000909
v -0.023950 0.118842 -0.022616
v -0.000414 0.238308 -0.061732
v 0.044279 0.245843 -0.044277
v 0.063507 0.245711 0.000812
v 0.045510 0.238838 0.044626
v 0.002799 0.250521 0.065356
v -0.039210 0.245643 0.051043
v -0.064697 0.245672 0.000896
v -0.049720 0.245549 -0.040003
v -0.000279 0.397961 -0.082602
v 0.057818 0.408210 -0.057225
v 0.081314 0.408319 0.000918
v 0.057599 0.408378 0.058906
v -0.005516 0.408908 0.078605
v -0.061819 0.396161 0.059986
v -0.083300 0.392363 0.000873
v -0.067532 0.401559 -0.050200
v 0.004260 0.482487 -0.056361
v 0.039083 0.482408 -0.038770
v 0.055287 0.482305 0.000849
v 0.040211 0.482275 0.041665
v -0.007883 0.460784 0.061357
v -0.039928 0.482349 0.040406
v -0.055334 0.481992 0.000898
v -0.040520 0.482374 -0.038683
v 0.040547 0.540699 0.041802
v -0.037112 0.523967 0.037581
v -0.052095 0.523981 0.000894
v -0.042089 0.533360 -0.028766
v 0.059146 0.348410 -0.058455
v 0.079724 0.347127 0.004231
v 0.057526 0.331528 0.062330
v -0.000402 0.348399 0.083480
v -0.059713 0.348564 0.060246
v -0.080915 0.332017 0.006996
v -0.059708 0.348599 -0.058229
v -0.000436 0.348559 -0.083003
v 0.050987 0.004920 -0.050546
v 0.061037 0.010635 -0.001313
v 0.048166 0.006213 0.053938
v 0.007997 0.012577 0.057878
v -0.043503 0.012658 0.036598
v -0.080203 0.005247 0.001624
v -0.051716 0.007798 -0.050401
v 0.004318 0.012712 -0.057849
v 0.000406 0.561144 -0.072570
v 0.048696 0.575361 -0.048192
v 0.072816 0.565614 0.000396
v 0.056326 0.576020 0.036375
v -0.048596 0.576126 0.049051
v -0.068747 0.575983 0.000857
v -0.048411 0.567794 -0.047778
v 0.027286 0.121471 0.000883
v -0.020013 0.121476 0.020462
v -0.028155 0.121468 0.000881
v -0.020025 0.121471 -0.018714
v -0.000426 0.121476 -0.026810
v 0.019169 0.121471 -0.018714
v 0.019084 0.121504 0.020373
v -0.000433 0.121553 0.028231
v -0.000403 0.234148 -0.054319
v 0.038607 0.234149 -0.038156
v 0.054762 0.234151 0.000883
v 0.038479 0.234174 0.039731
v -0.000341 0.234314 0.054463
v -0.039491 0.234142 0.039969
v -0.055542 0.234162 0.000900
v -0.039537 0.234147 -0.038061
v 0.004823 0.478007 -0.050737
v 0.034731 0.477528 -0.034349
v 0.049275 0.477474 0.000861
v 0.035454 0.477318 0.036998
v -0.005236 0.457387 0.056259
v -0.035609 0.477496 0.036066
v -0.050021 0.477454 0.000912
v -0.036357 0.477837 -0.034744
v 0.031246 0.527818 -0.030797
v 0.046240 0.526709 0.001216
v -0.046282 0.527202 0.000921
v -0.038305 0.536680 -0.024530
v 0.053159 0.393659 -0.052657
v 0.075549 0.393721 0.000897
v 0.053708 0.393781 0.055045
v -0.001815 0.407573 0.073917
v -0.054070 0.393704 0.054500
v -0.076529 0.393727 0.000844
v -0.062689 0.400464 -0.045378
v -0.000281 0.393992 -0.075486
v 0.027481 0.000000 0.068182
v 0.016717 0.023212 0.042438
v 0.011721 0.071729 0.030224
v 0.012317 0.118776 0.031952
v 0.018824 0.238194 0.061554
v 0.031711 0.388498 0.079155
v 0.026763 0.480383 0.048684
v 0.030747 0.331530 0.081356
v 0.027468 0.005856 0.068109
v 0.010326 0.121379 0.026955
v 0.020899 0.233999 0.053425
v 0.024318 0.477122 0.045112
v 0.023351 0.527306 0.041435
v 0.028433 0.393432 0.074521
v -0.019905 0.000000 0.052465
v -0.038418 0.569418 0.061283
v -0.017546 0.022944 0.042225
v -0.012548 0.071729 0.030148
v -0.013143 0.118852 0.031713
v -0.022757 0.241098 0.059551
v -0.036040 0.376116 0.079662
v -0.021388 0.480939 0.051312
v -0.032719 0.348664 0.079272
v -0.019980 0.012446 0.052626
v -0.036550 0.576086 0.057283
v -0.011116 0.121423 0.026794
v -0.021622 0.234120 0.052517
v -0.019472 0.477502 0.046998
v -0.029631 0.393780 0.070839
v 0.066687 0.000000 0.028802
v 0.067770 0.568901 0.029115
v 0.041686 0.015130 0.018257
v 0.028630 0.071603 0.012944
v 0.030764 0.118665 0.014015
v 0.055213 0.233016 0.032500
v 0.078084 0.388136 0.033470
v 0.049370 0.480996 0.021497
v 0.047216 0.524391 0.020661
v 0.076234 0.340789 0.040372
v 0.066238 0.003412 0.028408
v 0.063174 0.575831 0.027195
v 0.025300 0.121467 0.011543
v 0.050720 0.234161 0.022054
v 0.045274 0.477602 0.019845
v 0.069805 0.393600 0.029961
v 0.080558 -0.000000 -0.018548
v 0.072166 0.560197 -0.021412
v 0.041745 0.024751 -0.016094
v 0.028800 0.071721 -0.011247
v 0.030291 0.118873 -0.011785
v 0.064202 0.250862 -0.010169
v 0.077921 0.388247 -0.031412
v 0.050054 0.480898 -0.020059
v 0.047450 0.523573 -0.019068
v 0.076830 0.348746 -0.031219
v 0.080239 0.010638 -0.018407
v 0.068900 0.565649 -0.020020
v 0.025287 0.121471 -0.009769
v 0.050780 0.234151 -0.020328
v 0.045807 0.477500 -0.018312
v 0.070015 0.393701 -0.028296
v 0.020509 -0.000000 -0.054573
v 0.021319 0.555784 -0.071994
v 0.016657 0.022806 -0.040411
v 0.011678 0.071726 -0.028350
v 0.012413 0.118820 -0.030067
v 0.024895 0.253899 -0.060315
v 0.031766 0.388023 -0.076655
v 0.020843 0.481248 -0.050956
v 0.019567 0.523652 -0.046155
v 0.031984 0.348535 -0.077278
v 0.020596 0.012588 -0.054765
v 0.019968 0.561015 -0.068899
v 0.010219 0.121473 -0.024822
v 0.020755 0.234163 -0.050233
v 0.018965 0.477732 -0.046513
v 0.028688 0.393549 -0.069138
v -0.028324 -0.000000 -0.066387
v -0.028545 0.569062 -0.066893
v -0.017578 0.023358 -0.040741
v -0.012561 0.071735 -0.028413
v -0.013289 0.118806 -0.030081
v -0.025574 0.253725 -0.060117
v -0.032749 0.387825 -0.076672
v -0.020017 0.537730 -0.046699
v -0.032980 0.348507 -0.077428
v -0.028328 0.007576 -0.066276
v -0.026778 0.575654 -0.062757
v -0.011102 0.121456 -0.024889
v -0.021834 0.234108 -0.050630
v -0.029203 0.385691 -0.069325
v -0.056357 -0.000000 -0.026148
v -0.062418 0.561541 -0.036007
v -0.041787 0.022770 -0.016245
v -0.029628 0.071709 -0.011219
v -0.031356 0.118820 -0.011928
v -0.060436 0.245602 -0.023930
v -0.079211 0.388193 -0.031760
v -0.050704 0.480904 -0.019847
v -0.077626 0.348607 -0.031210
v -0.056430 0.012647 -0.026160
v -0.059695 0.565978 -0.035099
v -0.026098 0.121483 -0.009747
v -0.051453 0.234181 -0.020181
v -0.045942 0.477245 -0.017869
v -0.071650 0.393897 -0.028760
v -0.067770 0.000000 0.028733
v -0.067708 0.569394 0.028751
v -0.041822 0.022964 0.018135
v -0.029684 0.071727 0.013008
v -0.031442 0.118792 0.013801
v -0.063418 0.267209 0.026746
v -0.078832 0.388072 0.033416
v -0.051229 0.481052 0.021863
v -0.048120 0.523865 0.020626
v -0.078252 0.348463 0.033258
v -0.067805 0.005925 0.028698
v -0.063645 0.576118 0.027064
v -0.026143 0.121471 0.011534
v -0.051636 0.234151 0.022094
v -0.046583 0.477492 0.020001
v -0.043130 0.527094 0.018577
v -0.070871 0.393701 0.030061
v -0.004673 0.530238 -0.045243
v 0.037222 0.544970 0.038330
v -0.032994 0.527084 0.033448
v -0.017976 0.527116 0.043724
v 0.041986 0.527712 0.018336
v 0.042652 0.526769 -0.017115
v 0.017657 0.526864 -0.041330
v -0.018066 0.540520 -0.041387
v -0.043105 0.527436 -0.016345
v -0.004747 0.527052 -0.050676
v 0.035488 0.524632 -0.034988
v 0.052283 0.523498 0.001238
v 0.026206 0.523750 0.045382
v -0.020312 0.523857 0.048489
v -0.047941 0.524320 -0.018486
v 0.031706 0.000000 0.031546
v 0.041325 0.000000 0.018297
vt 0.259586 0.801272
vt 0.241940 0.783050
vt 0.259586 0.761034
vt 0.958339 0.151935
vt 0.937041 0.124819
vt 0.958339 0.101557
vt 0.632147 0.704630
vt 0.610639 0.599870
vt 0.632147 0.586667
vt 0.318844 0.598675
vt 0.349383 0.518448
vt 0.349383 0.626487
vt 0.182354 0.863660
vt 0.182354 0.916036
vt 0.160946 0.914665
vt 0.152061 0.859160
vt 0.098129 0.824576
vt 0.098129 0.872651
vt 0.050355 0.872296
vt 0.050067 0.824526
vt 0.146692 0.907475
vt 0.085024 0.885624
vt 0.146692 0.883655
vt 0.212202 0.859160
vt 0.212202 0.925571
vt 0.189696 0.868192
vt 0.931685 0.268201
vt 0.914701 0.207190
vt 0.931685 0.185161
vt 0.961401 0.629803
vt 0.961401 0.683700
vt 0.943034 0.633600
vt 0.851987 0.712682
vt 0.872867 0.629803
vt 0.872867 0.737320
vt 0.858940 0.273556
vt 0.858940 0.385298
vt 0.834474 0.336068
vt 0.355054 0.521538
vt 0.395669 0.400896
vt 0.395669 0.535948
vt 0.871896 0.887939
vt 0.907825 0.874520
vt 0.907825 0.920289
vt 0.311808 0.550867
vt 0.285839 0.549214
vt 0.311808 0.518448
vt 0.050588 0.376369
vt 0.047767 0.363363
vt 0.050588 0.350354
vt 0.403690 0.426922
vt 0.401025 0.413906
vt 0.403690 0.400896
vt 0.057122 0.491173
vt 0.054383 0.478157
vt 0.057122 0.465157
vt 0.050588 0.344998
vt 0.047391 0.331989
vt 0.050588 0.319156
vt 0.050874 0.313801
vt 0.047391 0.300972
vt 0.050874 0.287990
vt 0.057122 0.459801
vt 0.054295 0.446859
vt 0.057122 0.433860
vt 0.057117 0.522551
vt 0.054383 0.509540
vt 0.057117 0.496528
vt 0.057115 0.553916
vt 0.054383 0.540907
vt 0.057115 0.527906
vt 0.976324 0.990234
vt 0.966361 0.966202
vt 0.976324 0.942159
vt 0.560458 0.975604
vt 0.550372 0.951622
vt 0.560458 0.927830
vt 0.990276 0.844620
vt 0.980323 0.820805
vt 0.990276 0.796849
vt 0.983065 0.268650
vt 0.973098 0.244612
vt 0.983065 0.220588
vt 0.105347 0.241445
vt 0.100310 0.130261
vt 0.105347 0.122530
vt 0.871896 0.808088
vt 0.898012 0.796849
vt 0.898012 0.868255
vt 0.883013 0.869165
vt 0.933937 0.425853
vt 0.919001 0.391267
vt 0.933937 0.339945
vt 0.939293 0.361260
vt 0.970986 0.339945
vt 0.970986 0.373622
vt 0.471077 0.571740
vt 0.412382 0.509010
vt 0.471077 0.478768
vt 0.049166 0.282634
vt 0.047391 0.250579
vt 0.049166 0.216607
vt 0.964105 0.906992
vt 0.976483 0.874520
vt 0.976483 0.934683
vt 0.851857 0.469019
vt 0.879808 0.438375
vt 0.879808 0.522295
vt 0.988043 0.874520
vt 0.988043 0.935547
vt 0.981838 0.931088
vt 0.981962 0.878306
vt 0.774738 0.858284
vt 0.761228 0.829914
vt 0.774738 0.795899
vt 0.830719 0.824337
vt 0.866541 0.796849
vt 0.866541 0.875412
vt 0.974113 0.008415
vt 0.982021 0.006295
vt 0.982021 0.073424
vt 0.974512 0.073387
vt 0.202393 0.178605
vt 0.228714 0.171969
vt 0.228714 0.215402
vt 0.194475 0.211033
vt 0.928586 0.035505
vt 0.947476 0.006295
vt 0.947476 0.074614
vt 0.869566 0.129234
vt 0.890952 0.101797
vt 0.890952 0.194120
vt 0.374430 0.256996
vt 0.354929 0.226132
vt 0.492599 0.221469
vt 0.492599 0.261858
vt 0.825363 0.629803
vt 0.825363 0.655894
vt 0.683151 0.646574
vt 0.683378 0.633283
vt 0.031706 0.719035
vt 0.031706 0.739121
vt 0.013141 0.739421
vt 0.003542 0.712659
vt 0.932955 0.620652
vt 0.918407 0.588135
vt 0.955808 0.595193
vt 0.955808 0.615552
vt 0.772432 0.993997
vt 0.754658 0.982125
vt 0.772432 0.968631
vt 0.988680 0.374426
vt 0.976342 0.356139
vt 0.988680 0.339945
vt 0.961390 0.596883
vt 0.978896 0.588135
vt 0.978896 0.623056
vt 0.961163 0.618245
vt 0.825281 0.605568
vt 0.683317 0.601276
vt 0.683151 0.588052
vt 0.825281 0.579350
vt 0.744905 0.261858
vt 0.602752 0.255838
vt 0.602719 0.242526
vt 0.744905 0.235223
vt 0.004557 0.951795
vt 0.066571 0.946897
vt 0.066571 0.968247
vt 0.005032 0.966923
vt 0.247458 0.890170
vt 0.307954 0.888579
vt 0.307954 0.912380
vt 0.246322 0.911817
vt 0.683151 0.567471
vt 0.683246 0.543560
vt 0.790615 0.537930
vt 0.790615 0.573995
vt 0.064165 0.017835
vt 0.146705 0.002678
vt 0.146705 0.117175
vt 0.056831 0.096055
vt 0.816777 0.941960
vt 0.816777 0.963276
vt 0.754658 0.959976
vt 0.754733 0.944873
vt 0.541110 0.970784
vt 0.483323 0.970425
vt 0.483287 0.955309
vt 0.541110 0.954743
vt 0.246322 0.964758
vt 0.246333 0.949655
vt 0.304139 0.949305
vt 0.304139 0.965356
vt 0.888650 0.981692
vt 0.830804 0.981583
vt 0.830719 0.966484
vt 0.888650 0.965888
vt 0.959618 0.796980
vt 0.974968 0.796849
vt 0.974968 0.854728
vt 0.959074 0.854634
vt 0.231562 0.979986
vt 0.173737 0.979810
vt 0.173720 0.964697
vt 0.231562 0.964056
vt 0.561463 0.779210
vt 0.561463 0.805651
vt 0.419322 0.798799
vt 0.419315 0.785506
vt 0.851882 0.432146
vt 0.851857 0.409822
vt 0.912880 0.409108
vt 0.912879 0.433019
vt 0.988202 0.046962
vt 0.994646 0.046948
vt 0.994646 0.083548
vt 0.987377 0.083493
vt 0.793217 0.968631
vt 0.793217 0.995776
vt 0.786033 0.995720
vt 0.777788 0.968736
vt 0.630126 0.984209
vt 0.629393 0.962974
vt 0.637011 0.964344
vt 0.637011 0.987718
vt 0.841145 0.202906
vt 0.840444 0.101797
vt 0.864210 0.103399
vt 0.864210 0.211235
vt 0.835113 0.393585
vt 0.844669 0.390654
vt 0.844669 0.433012
vt 0.834474 0.431259
vt 0.637502 0.436749
vt 0.676289 0.410317
vt 0.676289 0.529706
vt 0.649493 0.532575
vt 0.663670 0.096317
vt 0.683188 0.090567
vt 0.683188 0.225619
vt 0.648589 0.212040
vt 0.882133 0.273556
vt 0.882133 0.388053
vt 0.864295 0.378592
vt 0.866086 0.285637
vt 0.477931 0.883344
vt 0.406654 0.887613
vt 0.409889 0.864423
vt 0.477931 0.868255
vt 0.603721 0.591067
vt 0.603721 0.709983
vt 0.566821 0.680676
vt 0.585413 0.586999
vt 0.997322 0.588135
vt 0.997322 0.620239
vt 0.984271 0.619829
vt 0.984252 0.588290
vt 0.931543 0.941872
vt 0.931543 0.976794
vt 0.913354 0.963865
vt 0.913180 0.942511
vt 0.062477 0.596982
vt 0.101046 0.569882
vt 0.101046 0.690026
vt 0.073886 0.691802
vt 0.294316 0.671776
vt 0.152162 0.666518
vt 0.152061 0.653077
vt 0.294316 0.644438
vt 0.576921 0.930840
vt 0.575435 0.904437
vt 0.628205 0.905536
vt 0.628206 0.930110
vt 0.764766 0.882766
vt 0.825363 0.880768
vt 0.825363 0.905198
vt 0.763382 0.903845
vt 0.146705 0.719296
vt 0.146705 0.755640
vt 0.039207 0.748961
vt 0.039147 0.725051
vt 0.569661 0.278509
vt 0.607862 0.267213
vt 0.607862 0.396179
vt 0.567498 0.397039
vt 0.046938 0.636477
vt 0.003542 0.520531
vt 0.046938 0.515557
vt 0.294316 0.748806
vt 0.267148 0.750463
vt 0.267131 0.697151
vt 0.294316 0.677131
vt 0.433535 0.599136
vt 0.471077 0.577095
vt 0.471077 0.699275
vt 0.310868 0.638676
vt 0.349383 0.631843
vt 0.349383 0.666521
vt 0.310918 0.660261
vt 0.835089 0.101797
vt 0.835089 0.203440
vt 0.803731 0.181708
vt 0.649212 0.055452
vt 0.756271 0.044378
vt 0.756271 0.080765
vt 0.648909 0.073560
vt 0.412639 0.824481
vt 0.412639 0.857862
vt 0.405014 0.855290
vt 0.405454 0.824517
vt 0.566198 0.978472
vt 0.566198 0.963369
vt 0.624038 0.962974
vt 0.624038 0.978926
vt 0.953659 0.006295
vt 0.968758 0.006339
vt 0.968758 0.064129
vt 0.952831 0.064167
vt 0.212202 0.952542
vt 0.173720 0.958701
vt 0.187205 0.930926
vt 0.212202 0.931119
vt 0.239767 0.943295
vt 0.217557 0.944055
vt 0.224701 0.882235
vt 0.239767 0.883230
vt 0.964304 0.690446
vt 0.964304 0.712596
vt 0.944029 0.711161
vt 0.943034 0.689056
vt 0.062477 0.462884
vt 0.102826 0.433860
vt 0.102826 0.563098
vt 0.062684 0.564527
vt 0.823781 0.509927
vt 0.681644 0.503625
vt 0.681653 0.490345
vt 0.823781 0.483583
vt 0.700251 0.934256
vt 0.700251 0.955841
vt 0.638601 0.952210
vt 0.638762 0.937074
vt 0.708969 0.779238
vt 0.708969 0.805676
vt 0.566821 0.798675
vt 0.566825 0.785374
vt 0.708976 0.773883
vt 0.566821 0.767580
vt 0.566824 0.754294
vt 0.708976 0.747371
vt 0.363927 0.394498
vt 0.355054 0.271016
vt 0.403754 0.267213
vt 0.403754 0.395541
vt 0.561466 0.773854
vt 0.419315 0.767617
vt 0.419316 0.754322
vt 0.561466 0.747371
vt 0.096024 0.939267
vt 0.094228 0.912831
vt 0.146692 0.913090
vt 0.146692 0.938696
vt 0.823787 0.451867
vt 0.823787 0.478228
vt 0.681661 0.471410
vt 0.681644 0.458123
vt 0.562143 0.267213
vt 0.562143 0.401929
vt 0.529400 0.392170
vt 0.522272 0.270198
vt 0.816777 0.936589
vt 0.763382 0.936605
vt 0.765141 0.910553
vt 0.816777 0.912270
vt 0.742385 0.163874
vt 0.734821 0.159057
vt 0.735858 0.095314
vt 0.742385 0.090567
vt 0.516916 0.267213
vt 0.516916 0.404962
vt 0.485563 0.386761
vt 0.476433 0.268562
vt 0.152061 0.546389
vt 0.152130 0.522691
vt 0.280483 0.518448
vt 0.280483 0.558221
vt 0.637833 0.667035
vt 0.745362 0.661249
vt 0.745362 0.697594
vt 0.637502 0.690834
vt 0.375312 0.968064
vt 0.313310 0.964706
vt 0.313421 0.949607
vt 0.375312 0.946709
vt 0.830719 0.942732
vt 0.892764 0.939169
vt 0.892764 0.960532
vt 0.830863 0.957845
vt 0.428179 0.665490
vt 0.428179 0.738797
vt 0.414823 0.729538
vt 0.313310 0.913492
vt 0.313327 0.891414
vt 0.374325 0.890582
vt 0.374325 0.914451
vt 0.259647 0.677131
vt 0.259647 0.713941
vt 0.152071 0.706463
vt 0.152061 0.682885
vt 0.428179 0.577095
vt 0.428179 0.660135
vt 0.403235 0.638644
vt 0.852035 0.597704
vt 0.913052 0.596857
vt 0.913052 0.620652
vt 0.851857 0.619707
vt 0.468328 0.892969
vt 0.468328 0.916547
vt 0.406654 0.914789
vt 0.407127 0.893255
vt 0.388717 0.956952
vt 0.398284 0.956914
vt 0.398284 0.987245
vt 0.382769 0.987248
vt 0.643234 0.090567
vt 0.643234 0.218895
vt 0.612094 0.209918
vt 0.602719 0.092020
vt 0.980679 0.527651
vt 0.980679 0.581102
vt 0.974643 0.581101
vt 0.967622 0.527788
vt 0.382769 0.890522
vt 0.399658 0.889817
vt 0.399658 0.951558
vt 0.545016 0.927830
vt 0.545016 0.949388
vt 0.483287 0.943958
vt 0.483775 0.928814
vt 0.945744 0.718605
vt 0.945744 0.790280
vt 0.927715 0.769397
vt 0.912939 0.499005
vt 0.885164 0.503383
vt 0.894830 0.438626
vt 0.912939 0.438375
vt 0.964498 0.386202
vt 0.979632 0.386311
vt 0.979632 0.444071
vt 0.963807 0.444132
vt 0.964501 0.093991
vt 0.979527 0.093939
vt 0.979527 0.151748
vt 0.963694 0.151935
vt 0.515760 0.552390
vt 0.515760 0.671779
vt 0.476433 0.657614
vt 0.494403 0.550389
vt 0.967743 0.220588
vt 0.967743 0.262065
vt 0.958447 0.262035
vt 0.952146 0.220673
vt 0.525470 0.261858
vt 0.497955 0.202998
vt 0.525470 0.176390
vt 0.857654 0.932961
vt 0.830719 0.933814
vt 0.833779 0.881528
vt 0.857654 0.880768
vt 0.927371 0.096441
vt 0.869566 0.096063
vt 0.869584 0.080928
vt 0.927371 0.080385
vt 0.789202 0.446512
vt 0.681644 0.440744
vt 0.681767 0.416314
vt 0.789202 0.410317
vt 0.748511 0.291840
vt 0.769276 0.267213
vt 0.769276 0.401635
vt 0.961006 0.942159
vt 0.961006 0.975836
vt 0.956813 0.975142
vt 0.942443 0.942546
vt 0.494167 0.415735
vt 0.516929 0.410317
vt 0.516929 0.545033
vt 0.476433 0.543751
vt 0.968211 0.157303
vt 0.968211 0.215063
vt 0.953109 0.215233
vt 0.952146 0.157291
vt 0.700251 0.927818
vt 0.647580 0.928901
vt 0.648966 0.902250
vt 0.700251 0.903019
vt 0.146705 0.520940
vt 0.146705 0.641083
vt 0.108185 0.613885
vt 0.120424 0.518448
vt 0.395669 0.656894
vt 0.355169 0.660280
vt 0.369439 0.541303
vt 0.395669 0.541709
vt 0.407190 0.760858
vt 0.407190 0.787334
vt 0.265040 0.780373
vt 0.265040 0.767078
vt 0.313310 0.925745
vt 0.375195 0.919806
vt 0.375195 0.941353
vt 0.313948 0.940858
vt 0.522284 0.435858
vt 0.561466 0.410317
vt 0.561466 0.544740
vt 0.535103 0.546825
vt 0.975495 0.213737
vt 0.973566 0.160114
vt 0.983853 0.159023
vt 0.983853 0.215233
vt 0.536307 0.064381
vt 0.536387 0.047477
vt 0.643554 0.044378
vt 0.643554 0.083526
vt 0.944638 0.491686
vt 0.918294 0.489960
vt 0.920005 0.439318
vt 0.944638 0.438375
vt 0.146692 0.792792
vt 0.146692 0.819171
vt 0.004557 0.812098
vt 0.004570 0.798851
vt 0.709004 0.715338
vt 0.709004 0.742016
vt 0.566821 0.734651
vt 0.566845 0.721343
vt 0.732658 0.910115
vt 0.717386 0.864244
vt 0.753881 0.866065
vt 0.753881 0.906326
vt 0.259586 0.719296
vt 0.259586 0.755679
vt 0.152061 0.748958
vt 0.152080 0.725090
vt 0.104273 0.851703
vt 0.146692 0.824526
vt 0.146692 0.878300
vt 0.106117 0.873849
vt 0.937679 0.630249
vt 0.937679 0.698399
vt 0.917420 0.689667
vt 0.922335 0.629803
vt 0.407186 0.819126
vt 0.265040 0.812851
vt 0.265046 0.799566
vt 0.407186 0.792690
vt 0.716312 0.972681
vt 0.716306 0.965412
vt 0.747728 0.965153
vt 0.747728 0.980682
vt 0.744919 0.516497
vt 0.779707 0.516576
vt 0.779707 0.531846
vt 0.744786 0.532025
vt 0.913645 0.403696
vt 0.887488 0.400680
vt 0.897354 0.348204
vt 0.913645 0.339945
vt 0.739430 0.532575
vt 0.681645 0.532139
vt 0.681644 0.516986
vt 0.739430 0.516497
vt 0.966659 0.276780
vt 0.966659 0.334590
vt 0.951571 0.334424
vt 0.950369 0.276780
vt 0.915223 0.875586
vt 0.937087 0.874520
vt 0.937087 0.936517
vt 0.913180 0.936137
vt 0.962267 0.528301
vt 0.962267 0.570140
vt 0.930831 0.546860
vt 0.940148 0.527651
vt 0.094228 0.948714
vt 0.156186 0.944623
vt 0.156186 0.965997
vt 0.094540 0.963845
vt 0.406654 0.925420
vt 0.468786 0.921902
vt 0.468786 0.943332
vt 0.406737 0.940515
vt 0.561016 0.696160
vt 0.503227 0.695813
vt 0.503201 0.680719
vt 0.561016 0.679991
vt 0.046938 0.382906
vt 0.046938 0.510202
vt 0.032052 0.509457
vt 0.002678 0.392160
vt 0.271253 0.626742
vt 0.152061 0.639083
vt 0.159548 0.599833
vt 0.271253 0.600055
vt 0.468701 0.948687
vt 0.468701 0.969973
vt 0.406654 0.966444
vt 0.406789 0.951328
vt 0.700251 0.977163
vt 0.642462 0.976879
vt 0.642412 0.961741
vt 0.700251 0.961197
vt 0.628206 0.936196
vt 0.628206 0.957618
vt 0.566198 0.953127
vt 0.566476 0.938027
vt 0.297453 0.600351
vt 0.305484 0.599833
vt 0.305484 0.634350
vt 0.276608 0.634229
vt 0.742457 0.368015
vt 0.742457 0.398791
vt 0.703350 0.391524
vt 0.702870 0.375223
vt 0.247332 0.943950
vt 0.246322 0.917736
vt 0.298994 0.918774
vt 0.298994 0.943468
vt 0.146705 0.787437
vt 0.004557 0.781179
vt 0.004560 0.767875
vt 0.146705 0.760995
vt 0.279223 0.215402
vt 0.234070 0.215264
vt 0.234336 0.208826
vt 0.279223 0.199886
vt 0.677796 0.537930
vt 0.677796 0.655894
vt 0.639021 0.655344
vt 0.637502 0.538652
vt 0.062477 0.703377
vt 0.062490 0.697341
vt 0.100162 0.697158
vt 0.100162 0.712602
vt 0.918348 0.497444
vt 0.976133 0.497041
vt 0.976133 0.513072
vt 0.918294 0.512571
vt 0.541098 0.741140
vt 0.433535 0.734967
vt 0.433562 0.711172
vt 0.541098 0.704631
vt 0.561016 0.739868
vt 0.547883 0.722785
vt 0.561016 0.701515
vt 0.483287 0.899247
vt 0.543868 0.898571
vt 0.543868 0.922474
vt 0.483352 0.922162
vt 0.943659 0.936192
vt 0.942443 0.874520
vt 0.958750 0.874723
vt 0.958750 0.936803
vt 0.407552 0.677131
vt 0.407552 0.713696
vt 0.300504 0.707777
vt 0.299671 0.683541
vt 0.006760 0.940749
vt 0.004557 0.888330
vt 0.031211 0.889348
vt 0.031211 0.941542
vt 0.678525 0.002678
vt 0.678525 0.029465
vt 0.536324 0.022015
vt 0.536355 0.008619
vt 0.402003 0.465411
vt 0.401229 0.461232
vt 0.439384 0.459498
vt 0.439384 0.472569
vt 0.986306 0.546425
vt 0.995601 0.546344
vt 0.995601 0.581095
vt 0.986035 0.581102
vt 0.299685 0.725623
vt 0.407190 0.719051
vt 0.407190 0.755502
vt 0.299671 0.749527
vt 0.476433 0.680868
vt 0.495644 0.677134
vt 0.495644 0.698420
vt 0.561016 0.555127
vt 0.561016 0.674635
vt 0.522284 0.647978
vt 0.534506 0.552181
vt 0.627636 0.386230
vt 0.613218 0.267213
vt 0.653744 0.270635
vt 0.653744 0.385819
vt 0.747728 0.918979
vt 0.747728 0.959798
vt 0.717386 0.935618
vt 0.726588 0.915470
vt 0.946791 0.264921
vt 0.938574 0.268201
vt 0.937041 0.159491
vt 0.946791 0.157291
vt 0.985141 0.699068
vt 0.985141 0.764543
vt 0.978848 0.760059
vt 0.977704 0.703859
vt 0.561463 0.922306
vt 0.555315 0.919775
vt 0.561463 0.811006
vt 0.949993 0.488706
vt 0.950076 0.387595
vt 0.958452 0.386202
vt 0.958452 0.491686
vt 0.406885 0.539666
vt 0.401229 0.482695
vt 0.406885 0.477925
vt 0.778319 0.290535
vt 0.804731 0.273556
vt 0.804731 0.393443
vt 0.778527 0.396019
vt 0.659099 0.294065
vt 0.697514 0.267213
vt 0.697514 0.386721
vt 0.671165 0.389523
vt 0.996135 0.252884
vt 0.989477 0.255524
vt 0.988420 0.223329
vt 0.996135 0.220588
vt 0.987843 0.039886
vt 0.987377 0.007235
vt 0.995392 0.006295
vt 0.995392 0.041593
vt 0.102826 0.427329
vt 0.071946 0.428504
vt 0.056831 0.321528
vt 0.102826 0.298906
vt 0.922360 0.706078
vt 0.922360 0.721349
vt 0.887574 0.721470
vt 0.887438 0.706040
vt 0.710805 0.959501
vt 0.705606 0.955357
vt 0.710805 0.902250
vt 0.953052 0.080457
vt 0.953052 0.095902
vt 0.932861 0.095981
vt 0.932727 0.080385
vt 0.980394 0.683700
vt 0.966756 0.642347
vt 0.980394 0.630197
vt 0.409109 0.426043
vt 0.439384 0.267213
vt 0.439384 0.454142
vt 0.256262 0.876879
vt 0.217557 0.826860
vt 0.256262 0.806930
vt 0.110703 0.479831
vt 0.126256 0.326355
vt 0.142024 0.327418
vt 0.142024 0.493478
vt 0.972014 0.321683
vt 0.983515 0.276780
vt 0.983515 0.333165
vt 0.953719 0.796849
vt 0.953719 0.860700
vt 0.934202 0.806285
vt 0.945013 0.279006
vt 0.945013 0.334590
vt 0.920801 0.310824
vt 0.265040 0.868979
vt 0.307954 0.824481
vt 0.307954 0.883224
vt 0.105347 0.246801
vt 0.105347 0.292847
vt 0.100138 0.252209
vt 0.152061 0.935513
vt 0.152538 0.921469
vt 0.162342 0.921391
vt 0.162342 0.937487
vt 0.887488 0.292482
vt 0.915446 0.273556
vt 0.915446 0.334590
vt 0.899405 0.333262
vt 0.922360 0.788027
vt 0.897889 0.790280
vt 0.902615 0.728300
vt 0.922360 0.726825
vt 0.913188 0.159806
vt 0.923118 0.158721
vt 0.923118 0.178521
vt 0.913342 0.177705
vt 0.798375 0.267856
vt 0.782554 0.268201
vt 0.778319 0.117116
vt 0.798375 0.101797
vt 0.951099 0.726536
vt 0.972348 0.718605
vt 0.972348 0.764543
vt 0.212202 0.853805
vt 0.158284 0.853549
vt 0.152061 0.833362
vt 0.212202 0.806930
vt 0.851857 0.536861
vt 0.887815 0.527651
vt 0.887815 0.591501
vt 0.855068 0.588079
vt 0.708969 0.856670
vt 0.654831 0.852733
vt 0.650478 0.828659
vt 0.708969 0.811032
vt 0.349383 0.513093
vt 0.152065 0.508516
vt 0.152061 0.482004
vt 0.349383 0.476710
vt 0.846632 0.791494
vt 0.830719 0.632103
vt 0.846632 0.629803
vt 0.545726 0.811006
vt 0.545726 0.855173
vt 0.483287 0.834754
vt 0.488116 0.813403
vt 0.549071 0.893215
vt 0.483287 0.888212
vt 0.483287 0.866134
vt 0.549071 0.860529
vt 0.815889 0.227979
vt 0.864339 0.227812
vt 0.864339 0.268201
vt 0.803731 0.267973
vt 0.146705 0.712849
vt 0.107767 0.704747
vt 0.117156 0.657055
vt 0.146705 0.646439
vt 0.447680 0.466067
vt 0.444740 0.268310
vt 0.471077 0.267213
vt 0.471077 0.473413
vt 0.907825 0.928866
vt 0.907825 0.975740
vt 0.898287 0.973458
vt 0.900899 0.925644
vt 0.399658 0.882930
vt 0.359171 0.884462
vt 0.360844 0.850576
vt 0.399658 0.824481
vt 0.703529 0.337159
vt 0.702870 0.267213
vt 0.743155 0.268287
vt 0.743155 0.362659
vt 0.846502 0.438375
vt 0.846502 0.605568
vt 0.832935 0.599395
vt 0.830636 0.439321
vt 0.729465 0.184939
vt 0.694474 0.172405
vt 0.688544 0.113962
vt 0.729465 0.090567
vt 0.928847 0.797949
vt 0.928847 0.855608
vt 0.905954 0.854601
vt 0.903367 0.796849
vt 0.904609 0.529409
vt 0.925476 0.527651
vt 0.925476 0.574003
vt 0.893171 0.578765
vt 0.094665 0.292768
vt 0.078717 0.293550
vt 0.056831 0.135001
vt 0.094665 0.122530
vt 0.334006 0.198130
vt 0.333640 0.182069
vt 0.484839 0.169047
vt 0.484839 0.207825
vt 0.628206 0.899082
vt 0.566821 0.893743
vt 0.567182 0.868946
vt 0.628206 0.864272
vt 0.647813 0.892001
vt 0.647580 0.867308
vt 0.708969 0.862025
vt 0.708969 0.896895
vt 0.907833 0.210039
vt 0.896307 0.166760
vt 0.907833 0.158721
vt 0.985831 0.649885
vt 0.995550 0.648831
vt 0.995550 0.683700
vt 0.985750 0.682639
vt 0.753881 0.784419
vt 0.753881 0.858889
vt 0.719566 0.842211
vt 0.714359 0.793893
vt 0.152084 0.424538
vt 0.152061 0.398061
vt 0.349413 0.393162
vt 0.349413 0.429613
vt 0.349698 0.304022
vt 0.152283 0.301019
vt 0.152061 0.274676
vt 0.349698 0.267213
vt 0.632147 0.411074
vt 0.632147 0.581311
vt 0.602379 0.560619
vt 0.616109 0.410317
vt 0.349574 0.261858
vt 0.152061 0.256384
vt 0.152164 0.229046
vt 0.349574 0.222710
vt 0.546190 0.250632
vt 0.538444 0.090567
vt 0.562143 0.090600
vt 0.562143 0.250653
vt 0.530861 0.122271
vt 0.333761 0.118117
vt 0.333640 0.091676
vt 0.530861 0.086077
vt 0.905386 0.072518
vt 0.900967 0.006295
vt 0.923230 0.007947
vt 0.923230 0.073921
vt 0.424796 0.852811
vt 0.419315 0.829118
vt 0.477931 0.811006
vt 0.477931 0.859067
vt 0.811839 0.055315
vt 0.812209 0.006838
vt 0.852046 0.006295
vt 0.852046 0.079690
vt 0.353816 0.885089
vt 0.313310 0.885227
vt 0.313344 0.836982
vt 0.353816 0.824481
vt 0.812817 0.708364
vt 0.750717 0.686351
vt 0.756602 0.665631
vt 0.812817 0.661249
vt 0.871143 0.006295
vt 0.895612 0.009281
vt 0.895612 0.063071
vt 0.857401 0.065761
vt 0.349529 0.345942
vt 0.152323 0.342661
vt 0.152061 0.316284
vt 0.349529 0.309378
vt 0.912065 0.676714
vt 0.878222 0.686744
vt 0.879053 0.640814
vt 0.912065 0.629803
vt 0.761626 0.031096
vt 0.806484 0.006295
vt 0.806484 0.080765
vt 0.765833 0.079522
vt 0.227319 0.002678
vt 0.243229 0.003398
vt 0.243229 0.163592
vt 0.194475 0.166614
vt 0.530951 0.080722
vt 0.333695 0.076531
vt 0.333640 0.050048
vt 0.530951 0.044378
vt 0.987638 0.127517
vt 0.984883 0.093939
vt 0.994662 0.094396
vt 0.994662 0.129195
vt 0.333640 0.158862
vt 0.333658 0.132075
vt 0.530980 0.127627
vt 0.530980 0.163691
vt 0.152101 0.382867
vt 0.152061 0.356429
vt 0.349433 0.351298
vt 0.349433 0.387807
vt 0.992571 0.454183
vt 0.985431 0.456122
vt 0.984987 0.428537
vt 0.992571 0.426367
vt 0.812803 0.989636
vt 0.811844 0.968718
vt 0.819065 0.968631
vt 0.819065 0.991312
vt 0.152061 0.586432
vt 0.152074 0.570401
vt 0.312111 0.563576
vt 0.312111 0.594478
vt 0.799515 0.520193
vt 0.823933 0.520047
vt 0.823933 0.571039
vt 0.795970 0.573995
vt 0.803758 0.442385
vt 0.797315 0.446512
vt 0.794558 0.406059
vt 0.803758 0.402713
vt 0.051488 0.879923
vt 0.077022 0.878007
vt 0.077022 0.932287
vt 0.050067 0.933695
vt 0.798573 0.994604
vt 0.798921 0.969103
vt 0.806489 0.968631
vt 0.806489 0.995624
vt 0.634646 0.903209
vt 0.642224 0.902250
vt 0.642224 0.928382
vt 0.634610 0.927628
vt 0.892534 0.742802
vt 0.892534 0.790280
vt 0.869522 0.786186
vt 0.851987 0.742676
vt 0.818770 0.795899
vt 0.818770 0.871104
vt 0.780094 0.844127
vt 0.818770 0.790543
vt 0.775297 0.786303
vt 0.777678 0.737883
vt 0.818770 0.715338
vt 0.333640 0.033296
vt 0.333780 0.006854
vt 0.530969 0.002678
vt 0.530969 0.039023
vt 0.909346 0.266927
vt 0.869694 0.268201
vt 0.888530 0.220195
vt 0.909346 0.215934
vt 0.002678 0.024990
vt 0.051475 0.002678
vt 0.051475 0.208877
vt 0.024947 0.211251
vt 0.293964 0.019625
vt 0.328284 0.002678
vt 0.328284 0.216572
vt 0.302068 0.216858
vt 0.566821 0.835934
vt 0.572824 0.812813
vt 0.623422 0.811032
vt 0.623422 0.858917
vt 0.152061 0.199884
vt 0.163041 0.002678
vt 0.189119 0.003459
vt 0.189119 0.217354
vt 0.597023 0.411138
vt 0.597023 0.581644
vt 0.566821 0.569893
vt 0.580875 0.410317
vt 0.772963 0.261858
vt 0.757036 0.261568
vt 0.750260 0.107455
vt 0.772963 0.101797
vt 0.739006 0.216657
vt 0.688544 0.220774
vt 0.691528 0.190295
vt 0.739006 0.190524
vt 0.927825 0.101797
vt 0.927825 0.153366
vt 0.896307 0.141464
vt 0.225452 0.761034
vt 0.225452 0.801575
vt 0.177002 0.801542
vt 0.152061 0.761781
vt 0.005738 0.874161
vt 0.004557 0.825578
vt 0.044711 0.824526
vt 0.044711 0.882975
vt 0.349692 0.434968
vt 0.349692 0.471355
vt 0.152061 0.463012
vt 0.152555 0.436581
vt 0.829118 0.425315
vt 0.813297 0.425956
vt 0.810087 0.280754
vt 0.829118 0.273556
vt 0.081245 0.946972
vt 0.088872 0.944623
vt 0.088872 0.990260
vt 0.079101 0.991087
vt 0.288609 0.189607
vt 0.272588 0.190398
vt 0.248584 0.032148
vt 0.288609 0.002678
vt 0.002678 0.359996
vt 0.025768 0.216607
vt 0.042036 0.217460
vt 0.042036 0.377551
vt 0.985122 0.387272
vt 0.994921 0.386202
vt 0.994921 0.421011
vt 0.984987 0.419958
vt 0.642224 0.830524
vt 0.642224 0.896895
vt 0.634026 0.891507
vt 0.634675 0.829351
vt 0.718621 0.770148
vt 0.714359 0.715338
vt 0.769941 0.715818
vt 0.769941 0.779064
vt 0.749655 0.002678
vt 0.749655 0.035432
vt 0.683880 0.029718
vt 0.683962 0.007715
vt 0.984895 0.466081
vt 0.991263 0.464864
vt 0.991263 0.512924
vt 0.981489 0.513072
vt 0.990179 0.986947
vt 0.982721 0.989517
vt 0.981679 0.947044
vt 0.990179 0.942159
vt 0.110703 0.309885
vt 0.120036 0.122530
vt 0.146705 0.123193
vt 0.146705 0.321000
vt 0.057047 0.659059
vt 0.057047 0.707304
vt 0.016675 0.706932
vt 0.003542 0.641832
vt 0.044711 0.888330
vt 0.044711 0.940419
vt 0.038173 0.933910
vt 0.967177 0.486453
vt 0.963807 0.449487
vt 0.974145 0.451136
vt 0.974145 0.489441
vt 0.597363 0.261073
vt 0.581331 0.261858
vt 0.567498 0.111566
vt 0.597363 0.090567
vn -0.0107 0.8263 0.5631
vn 0.3384 0.8607 0.3803
vn 0.0657 -0.2151 0.9744
vn -0.9578 -0.1921 0.2138
vn -0.9593 -0.1939 0.2052
vn -0.9582 -0.1948 0.2097
vn 0.2489 0.1449 -0.9576
vn -0.0026 1.0000 -0.0029
vn 0.0028 1.0000 0.0008
vn -0.0020 1.0000 0.0010
vn 0.0028 1.0000 0.0009
vn 0.8687 -0.0640 0.4912
vn -0.8651 -0.0717 -0.4964
vn -0.2492 0.0256 -0.9681
vn 0.4533 0.0735 0.8883
vn 0.1983 -0.2906 -0.9361
vn -0.2812 0.2912 0.9144
vn 0.9644 -0.2007 0.1720
vn -0.4627 0.8712 -0.1639
vn -0.3677 0.8258 0.4275
vn -0.0033 0.9999 -0.0099
vn -0.0032 1.0000 -0.0070
vn -0.0012 0.9999 -0.0123
vn 0.0070 0.9999 0.0081
vn 0.0058 1.0000 0.0025
vn 0.0071 1.0000 -0.0008
vn 0.0001 1.0000 0.0034
vn -0.0006 1.0000 -0.0002
vn -0.0017 1.0000 -0.0023
vn -0.0164 0.9994 0.0314
vn 0.0219 0.9986 0.0480
vn 0.0102 0.9999 0.0064
vn 0.0088 1.0000 0.0020
vn 0.0122 0.9999 0.0006
vn -0.0021 1.0000 0.0031
vn -0.0000 1.0000 -0.0000
vn 0.0002 1.0000 0.0001
vn -0.0012 1.0000 0.0027
vn -0.0012 1.0000 -0.0027
vn 0.0038 1.0000 -0.0040
vn 0.0022 1.0000 -0.0026
vn -0.0030 1.0000 0.0047
vn -0.0022 1.0000 0.0007
vn -0.0041 1.0000 0.0045
vn -0.0007 1.0000 -0.0016
vn 0.0067 1.0000 0.0004
vn 0.0059 1.0000 -0.0012
vn -0.0006 1.0000 0.0034
vn 0.0003 1.0000 -0.0001
vn -0.0019 1.0000 0.0018
vn -0.6920 0.1934 0.6955
vn 0.8016 0.2358 0.5493
vn 0.0011 -1.0000 0.0006
vn 0.0000 -1.0000 0.0000
vn 0.0004 -1.0000 0.0012
vn 0.0019 -1.0000 -0.0019
vn -0.0010 -1.0000 0.0013
vn 0.0005 -1.0000 -0.0023
vn 0.0014 -1.0000 0.0009
vn 0.0025 -1.0000 0.0004
vn 0.0014 -1.0000 -0.0019
vn 0.9056 0.0028 0.4241
vn -0.0022 -1.0000 0.0009
vn -0.0007 -1.0000 0.0003
vn -0.0004 -1.0000 0.0007
vn 0.0003 -1.0000 0.0023
vn -0.0024 -1.0000 -0.0002
vn 0.8634 0.2070 0.4600
vn 0.0044 -1.0000 -0.0045
vn -0.0047 -1.0000 -0.0052
vn -0.0061 -1.0000 -0.0015
vn 0.0008 -1.0000 -0.0002
vn 0.0004 -1.0000 -0.0070
vn -0.0004 -1.0000 -0.0008
vn 0.0018 -1.0000 -0.0016
vn 0.0029 -1.0000 -0.0064
vn 0.1697 -0.1865 -0.9677
vn 0.1692 -0.1867 -0.9677
vn 0.1700 -0.1864 -0.9676
vn 0.1706 -0.1863 -0.9676
vn -0.0667 0.2302 -0.9709
vn 0.7897 0.0178 0.6133
vn 0.4022 0.8952 0.1921
vn 0.0872 0.7967 0.5980
vn 0.4743 0.8574 0.1998
vn -0.4045 0.6966 0.5926
vn 0.1002 0.2278 -0.9685
vn 0.5599 0.2342 0.7948
vn -0.1586 0.2560 -0.9536
vn -0.9732 -0.0645 -0.2205
vn 0.5340 -0.2915 -0.7936
vn 0.0022 -1.0000 -0.0007
vn 0.0015 -1.0000 -0.0020
vn 0.0070 -1.0000 -0.0011
vn -0.0016 -1.0000 -0.0018
vn 0.1766 0.2522 -0.9514
vn -0.8209 -0.0394 0.5698
vn 0.1866 -0.0394 -0.9816
vn -0.1715 -0.0334 0.9846
vn 0.9780 -0.0317 -0.2064
vn 0.9780 -0.0316 -0.2061
vn 0.9781 -0.0315 -0.2057
vn -0.5602 -0.0368 0.8275
vn -0.5455 0.2327 0.8051
vn -0.5459 0.2328 0.8048
vn -0.5463 0.2328 0.8046
vn 0.5613 -0.0722 -0.8244
vn -0.9074 0.0186 0.4198
vn -0.4673 0.0003 0.8841
vn -0.4177 -0.7583 0.5005
vn 0.8539 -0.3303 0.4022
vn -0.1841 0.8886 0.4201
vn 0.4534 0.3015 -0.8388
vn 0.7620 -0.2040 0.6146
vn 0.0043 -1.0000 0.0056
vn -0.0014 -1.0000 -0.0021
vn -0.0012 -1.0000 0.0000
vn -0.0008 -1.0000 -0.0026
vn 0.9322 0.2481 0.2634
vn 0.4241 0.3028 0.8535
vn 0.6538 -0.0254 0.7562
vn -0.1291 0.7167 0.6853
vn 0.8574 0.3091 0.4115
vn -0.5945 0.2355 -0.7688
vn -0.5210 0.0807 0.8497
vn -0.6071 -0.0985 0.7885
vn -0.7863 -0.2920 0.5445
vn -0.7862 -0.2920 0.5446
vn -0.7872 -0.2916 0.5434
vn -0.7871 -0.2917 0.5435
vn -0.5805 -0.1931 -0.7910
vn 0.9855 -0.1459 -0.0871
vn 0.9363 0.0191 0.3506
vn -0.0321 -0.1830 0.9826
vn -0.2799 0.8683 -0.4096
vn -0.9557 -0.1933 0.2219
vn -0.9570 -0.1921 0.2173
vn -0.9574 -0.1947 0.2134
vn -0.2336 -0.2695 0.9342
vn 0.5626 0.0215 0.8264
vn -0.8241 -0.0374 -0.5651
vn 0.8356 -0.0385 -0.5481
vn -0.4225 0.8686 -0.2588
vn -0.4225 0.8689 -0.2580
vn 0.7744 0.2639 -0.5750
vn 0.1041 0.8270 -0.5524
vn 0.1046 0.8269 -0.5526
vn -0.7922 -0.2012 0.5761
vn 0.9549 0.2320 0.1853
vn -0.5506 0.2587 -0.7936
vn 0.9563 0.2328 -0.1772
vn 0.9563 0.2328 -0.1771
vn 0.9562 0.2327 -0.1776
vn 0.8034 0.2334 -0.5477
vn 0.8426 -0.2032 -0.4988
vn -0.8030 0.2331 0.5485
vn 0.9686 0.0687 -0.2388
vn 0.8082 0.2324 0.5411
vn -0.1385 -0.1880 0.9724
vn -0.9741 0.0719 -0.2146
vn 0.7201 0.1473 -0.6781
vn -0.1706 -0.1882 -0.9672
vn -0.8201 -0.1756 -0.5447
vn -0.8204 -0.1757 -0.5441
vn -0.9364 -0.2951 -0.1899
vn -0.1747 0.2543 0.9512
vn -0.5497 0.2533 0.7960
vn 0.8855 -0.0508 0.4618
vn 0.8238 -0.0733 -0.5621
vn 0.8241 -0.0731 -0.5617
vn 0.8236 -0.0734 -0.5624
vn 0.9367 -0.3041 0.1737
vn -0.9661 0.0303 -0.2563
vn 0.9816 -0.0736 -0.1762
vn 0.9815 -0.0735 -0.1765
vn 0.9781 -0.0674 0.1969
vn -0.9820 -0.0025 -0.1887
vn 0.5670 -0.1897 -0.8016
vn 0.7357 0.0178 -0.6771
vn -0.5866 -0.0704 -0.8068
vn -0.9460 0.2592 0.1949
vn 0.2463 -0.0037 0.9692
vn -0.2280 -0.1260 0.9655
vn 0.1586 -0.0351 0.9867
vn 0.8088 -0.0423 0.5866
vn 0.2786 0.2786 -0.9191
vn 0.2538 -0.0022 -0.9672
vn 0.2540 -0.3076 -0.9170
vn 0.5556 0.1155 -0.8234
vn -0.1834 -0.0390 -0.9823
vn -0.5566 -0.2835 0.7809
vn -0.2597 0.2858 0.9224
vn -0.3783 0.0194 0.9255
vn -0.3783 0.0199 0.9255
vn -0.5393 -0.1908 0.8202
vn 0.5845 -0.0359 0.8106
vn -0.8451 0.0847 0.5278
vn 0.9049 0.3173 0.2838
vn -0.9380 0.2968 0.1793
vn -0.9558 0.2331 0.1794
vn -0.9451 0.2585 -0.1999
vn -0.4408 0.2969 0.8471
vn 0.3766 0.9263 -0.0138
vn -0.5745 -0.2937 -0.7640
vn 0.9625 0.0601 0.2645
vn -0.7980 0.2324 -0.5561
vn 0.1669 0.2343 0.9577
vn -0.4722 0.8650 0.1696
vn 0.7885 -0.2931 -0.5407
vn 0.7892 -0.2928 -0.5398
vn 0.3122 0.8572 -0.4097
vn 0.3126 0.8571 -0.4095
vn 0.9441 0.2730 -0.1849
vn -0.1825 0.2329 0.9552
vn -0.3071 -0.0026 0.9517
vn -0.5620 -0.0108 0.8271
vn -0.8839 0.0665 -0.4628
vn -0.9822 -0.0386 0.1839
vn 0.9804 -0.0391 0.1929
vn -0.7962 -0.0817 0.5994
vn -0.0148 0.8403 -0.5419
vn 0.1627 0.2561 0.9528
vn 0.5455 0.2534 -0.7989
vn 0.5585 -0.0412 -0.8285
vn 0.9860 -0.1593 0.0487
vn -0.8330 0.3098 0.4584
vn -0.7934 0.2545 0.5529
vn -0.5704 -0.0369 -0.8206
vn -0.8032 0.2561 -0.5378
vn 0.7478 0.2442 -0.6174
vn 0.2967 0.8471 0.4408
vn -0.9776 0.0760 0.1961
vn -0.9555 0.2327 -0.1810
vn -0.7585 0.0022 -0.6517
vn 0.5446 -0.2325 0.8058
vn 0.1332 -0.0139 -0.9910
vn 0.1332 -0.0142 -0.9910
vn -0.9811 -0.0380 -0.1899
vn 0.9389 -0.2953 -0.1767
vn -0.4941 0.8572 -0.1453
vn -0.9807 -0.0645 0.1844
vn 0.5500 0.2599 0.7937
vn -0.8148 -0.2922 -0.5007
vn 0.8334 0.0915 -0.5451
vn 0.5608 0.2340 -0.7942
vn 0.9825 -0.0046 -0.1860
vn -0.5623 0.0083 -0.8269
vn -0.9398 -0.2935 0.1749
vn -0.5258 0.7622 0.3776
vn 0.8430 0.3135 -0.4371
vn -0.9357 0.3018 -0.1826
vn 0.2924 0.8302 -0.4747
vn -0.9970 0.0364 0.0681
vn -0.9809 -0.1914 0.0342
vn -0.8685 0.1258 0.4795
vn 0.6543 -0.1160 -0.7473
vn -0.7829 0.0500 0.6202
vn -0.8147 0.0304 0.5791
vn -0.8164 0.0297 0.5767
vn -0.8660 0.3280 -0.3774
vn 0.9096 0.3127 -0.2735
vn 0.8256 0.5642 -0.0094
vn 0.4141 -0.8590 0.3010
vn -0.9717 -0.1724 -0.1616
vn -0.1861 -0.0099 0.9825
vn -0.8204 0.0295 0.5710
vn -0.8381 0.0014 0.5455
vn 0.1875 -0.0143 -0.9822
vn -0.4625 -0.5185 -0.7192
vn -0.9461 -0.2242 0.2336
vn 0.0879 0.0370 0.9954
vn -0.1433 -0.2287 0.9629
vn 0.3298 0.5240 0.7853
vn -0.8055 0.5453 -0.2321
vn -0.1293 -0.0297 0.9912
vn 0.9957 -0.0223 0.0902
vn 0.9951 -0.0267 0.0951
vn 0.9955 -0.0255 0.0916
vn 0.4211 0.9039 0.0749
vn 0.6627 0.5706 0.4850
vn 0.7070 -0.4299 0.5615
vn -0.5034 -0.4108 0.7601
vn -0.4715 0.5466 0.6921
vn 0.0883 -0.2388 0.9670
vn -0.6003 -0.5757 -0.5552
vn -0.6259 0.4868 0.6094
vn -0.7639 0.4257 -0.4851
vn 0.6706 -0.4735 -0.5711
vn 0.8188 0.1262 -0.5601
vn -0.9567 -0.2330 0.1746
vn -0.6433 0.4677 0.6061
vn 0.7550 0.4048 -0.5159
vn 0.1802 0.0112 -0.9836
vn 0.1799 0.0115 -0.9836
vn -0.8322 -0.0402 -0.5531
vn -0.8320 -0.0399 -0.5534
vn -0.8318 -0.0397 -0.5536
vn 0.8357 0.1370 0.5317
vn 0.3054 0.5326 -0.7893
vn -0.6018 -0.0449 0.7974
vn 0.5904 0.0293 0.8066
vn 0.9623 -0.2392 -0.1293
vn 0.7746 0.0405 0.6312
vn -0.8135 0.5596 0.1581
vn -0.8132 0.5599 0.1589
vn -0.8130 0.5600 0.1593
vn 0.4739 0.6207 0.6247
vn -0.5719 -0.2261 -0.7886
vn 0.5394 -0.2345 0.8087
vn -0.7580 -0.4123 0.5054
vn -0.8926 -0.4150 0.1762
vn -0.8927 -0.4149 0.1760
vn -0.7262 0.4122 -0.5502
vn -0.8249 0.5426 0.1589
vn -0.9919 -0.0220 0.1248
vn -0.9749 0.1270 0.1831
vn -0.9747 0.1268 0.1840
vn -0.9746 0.1267 0.1848
vn 0.9762 0.1306 0.1732
vn -0.1961 -0.2313 -0.9529
vn -0.6077 0.1327 -0.7830
vn -0.8045 -0.2372 -0.5445
vn -0.5547 0.1254 0.8225
vn -0.5559 0.1251 0.8218
vn -0.5544 0.1254 0.8227
vn 0.5163 0.4046 -0.7548
vn 0.5167 0.4045 -0.7545
vn -0.8892 -0.4208 -0.1796
vn 0.8159 0.0080 -0.5782
vn -0.1763 0.0136 -0.9842
vn -0.1766 0.0134 -0.9842
vn 0.8950 0.4277 0.1271
vn 0.8196 -0.4757 0.3194
vn -0.8264 0.1288 -0.5482
vn -0.4064 -0.5904 -0.6973
vn -0.9927 -0.0474 -0.1110
vn -0.9926 -0.0469 -0.1116
vn -0.9926 -0.0466 -0.1121
vn 0.8498 -0.2166 -0.4805
vn -0.8173 0.1261 0.5622
vn -0.6008 0.5409 -0.5886
vn 0.5594 0.1239 -0.8196
vn 0.9745 0.1274 -0.1848
vn -0.3773 0.4625 0.8023
vn -0.6708 0.5343 -0.5143
vn -0.9572 -0.2344 -0.1700
vn -0.0828 0.6482 0.7570
vn -0.0181 0.5382 -0.8426
vn 0.8192 -0.5481 -0.1690
vn 0.8352 0.5275 -0.1559
vn 0.1600 0.5334 -0.8306
vn 0.1597 0.5340 -0.8302
vn 0.1595 0.5344 -0.8300
vn -0.4930 -0.5420 -0.6806
vn 0.9964 -0.0199 0.0824
vn 0.9961 -0.0212 0.0857
vn 0.9959 -0.0247 0.0869
vn 0.9960 -0.0291 -0.0839
vn 0.9960 -0.0295 -0.0844
vn 0.9960 -0.0298 -0.0847
vn -0.9737 0.1264 -0.1894
vn 0.5401 0.5185 0.6629
vn 0.5996 0.1223 0.7909
vn 0.0688 0.1144 -0.9910
vn 0.5872 -0.4944 -0.6410
vn 0.0255 0.1205 -0.9924
vn 0.5537 -0.2285 -0.8008
vn -0.5139 -0.2316 0.8260
vn 0.0918 -0.6457 -0.7580
vn 0.3318 0.5489 0.7672
vn 0.5775 0.0242 -0.8160
vn -0.8311 -0.0249 0.5555
vn -0.2011 0.1270 0.9713
vn 0.7266 -0.2520 0.6392
vn 0.7607 0.5391 -0.3614
vn -0.7865 -0.2178 0.5779
vn 0.9602 -0.2312 0.1567
vn 0.9601 -0.2313 0.1572
vn -0.6938 0.5429 0.4732
vn 0.8097 0.1565 0.5656
vn -0.0071 0.0797 0.9968
vn 0.8969 0.4087 -0.1690
vn -0.7778 0.5283 -0.3405
vn -0.3712 0.3008 0.8785
vn 0.1698 0.1290 0.9770
vn -0.5918 0.0280 -0.8056
vn 0.4059 0.7543 0.5160
vn 0.8335 0.5461 0.0839
vn 0.1923 -0.2320 -0.9535
g Vase_L_3_Vase_L_3_Collor_Material
usemtl Collor_Material
s off
f 128/1/1 79/2/1 135/3/1
f 174/4/2 77/5/2 182/6/2
f 134/7/3 44/8/3 131/9/3
f 238/10/4 73/11/5 46/12/6
f 196/13/7 195/14/7 56/15/7 259/16/7
f 95/17/8 93/18/9 98/19/10 91/20/11
f 114/21/12 258/22/12 231/23/12
f 110/24/13 254/25/13 170/26/13
f 110/27/14 139/28/14 251/29/14
f 59/30/15 262/31/15 133/32/15
f 111/33/16 155/34/16 154/35/16
f 60/36/17 147/37/17 52/38/17
f 42/39/18 165/40/18 161/41/18
f 22/42/19 227/43/19 81/44/19
f 80/45/20 235/46/20 243/47/20
f 95/48/21 215/49/22 94/50/23
f 94/51/24 229/52/25 93/53/26
f 93/54/27 245/55/28 92/56/29
f 92/57/30 152/58/30 98/59/30
f 98/60/31 136/61/31 97/62/31
f 97/63/32 168/64/33 91/65/34
f 91/66/35 184/67/36 96/68/36
f 96/69/37 200/70/37 95/71/38
f 95/72/39 94/73/40 93/74/41
f 93/75/42 92/76/43 98/77/44
f 98/78/45 97/79/46 91/80/47
f 91/81/48 96/82/49 95/83/50
f 133/84/51 140/85/51 132/86/51
f 19/87/52 158/88/52 159/89/52 27/90/52
f 188/91/53 3/92/54 172/93/54
f 5/94/54 156/95/54 266/96/54
f 188/97/55 172/98/54 266/99/56
f 172/100/36 5/101/36 266/102/36
f 14/103/54 204/104/57 218/105/58
f 204/106/59 1/107/60 218/108/61
f 154/109/62 253/110/62 263/111/62 148/112/62
f 10/113/63 233/114/54 12/115/64
f 12/116/65 218/117/66 10/118/67
f 111/119/68 60/120/68 52/121/68 122/122/68
f 127/123/54 9/124/69 265/125/70 7/126/54
f 9/127/71 141/128/72 265/129/73
f 141/130/74 10/131/75 265/132/76
f 193/133/77 40/134/78 75/135/79 197/136/80
f 103/137/81 137/138/81 136/139/81 98/140/81
f 265/141/82 266/142/82 158/143/82 19/144/82
f 158/145/83 166/146/83 77/147/83 18/148/83
f 128/149/84 20/150/84 79/151/84
f 174/152/85 18/153/85 77/154/85
f 21/155/86 80/156/86 150/157/86 143/158/86
f 103/159/87 98/160/87 152/161/87 153/162/87
f 106/163/88 94/164/88 215/165/88 216/166/88
f 24/167/89 16/168/89 206/169/89 207/170/89
f 116/171/90 109/172/90 170/173/90 254/174/90
f 112/175/91 154/176/91 155/177/91 123/178/91
f 218/179/92 1/180/93 265/181/94 10/182/95
f 190/183/96 16/184/96 24/185/96 191/186/96
f 237/187/97 236/188/97 29/189/97 37/190/97
f 191/191/98 24/192/98 32/193/98 192/194/98
f 145/195/99 144/196/99 28/197/99 36/198/99
f 26/199/100 175/200/101 176/201/101 34/202/102
f 37/203/103 29/204/103 144/205/103 145/206/103
f 100/207/104 201/208/105 200/209/106 96/210/105
f 252/211/107 253/212/107 154/213/107 112/214/107
f 81/215/108 12/216/108 233/217/108 243/218/108
f 9/219/109 127/220/109 135/221/109 79/222/109
f 250/223/110 257/224/110 211/225/110 259/226/110
f 125/227/111 114/228/111 231/229/111 232/230/111
f 126/231/112 48/232/112 210/233/112 217/234/112
f 49/235/113 194/236/113 195/237/113 57/238/113
f 43/239/114 161/240/114 165/241/114 70/242/114
f 265/243/115 1/244/116 188/245/117 266/246/118
f 159/247/119 158/248/119 18/249/119 26/250/119
f 133/251/120 132/252/120 51/253/120 59/254/120
f 5/255/121 172/256/121 182/257/121 77/258/121
f 150/259/122 79/260/122 20/261/122 143/262/122
f 51/263/123 162/264/123 163/265/123 59/266/123
f 102/267/124 97/268/124 136/269/124 137/270/124
f 61/271/125 148/272/125 263/273/125 65/274/125
f 256/275/126 202/276/126 108/277/126 115/278/126
f 119/279/127 187/280/128 186/281/129 108/282/130
f 209/283/131 47/284/131 74/285/131 212/286/131
f 177/287/132 181/288/132 69/289/132
f 59/290/133 163/291/133 164/292/133 64/293/133
f 134/294/134 71/295/134 44/296/134
f 206/297/135 213/298/135 82/299/135 23/300/135
f 238/301/136 242/302/137 73/303/138
f 107/304/139 126/305/139 203/306/139 202/307/139
f 127/308/140 7/309/140 78/310/140 135/311/140
f 31/312/141 221/313/141 222/314/141 39/315/141
f 175/316/142 25/317/142 33/318/142 176/319/142
f 23/320/143 82/321/144 227/322/144 220/323/144
f 174/324/145 17/325/145 25/326/145 175/327/145
f 190/328/146 198/329/146 83/330/147 16/331/146
f 238/332/148 45/333/148 72/334/148 242/335/148
f 105/336/149 93/337/149 229/338/149 230/339/149
f 206/340/150 23/341/150 31/342/150 207/343/150
f 105/344/151 246/345/152 245/346/153 93/347/153
f 104/348/154 92/349/154 245/350/154 246/351/154
f 181/352/155 177/353/155 41/354/155 68/355/155
f 100/356/156 96/357/156 184/358/156 185/359/156
f 58/360/157 179/361/157 180/362/157 261/363/157
f 106/364/158 230/365/158 229/366/158 94/367/158
f 149/368/159 146/369/159 44/370/159 71/371/159
f 264/372/160 225/373/160 62/374/160 66/375/160
f 114/376/161 63/377/161 67/378/161 118/379/161
f 75/380/162 40/381/162 209/382/162 212/383/162
f 47/384/163 223/385/163 226/386/163 74/387/164
f 109/388/165 120/389/165 171/390/165 170/391/165
f 20/392/166 28/393/166 144/394/166 143/395/166
f 29/396/167 21/397/167 143/398/167 144/399/167
f 114/400/168 118/401/168 258/402/168
f 248/403/169 252/404/170 112/405/169 247/406/171
f 124/407/172 232/408/172 231/409/172 113/410/172
f 110/411/173 251/412/173 254/413/173
f 248/414/174 247/415/175 113/416/174 117/417/174
f 113/418/176 231/419/176 258/420/176 117/421/176
f 82/422/177 14/423/177 218/424/177 227/425/177
f 68/426/178 41/427/178 193/428/178 197/429/178
f 172/430/179 3/431/179 76/432/179 182/433/179
f 110/434/180 138/435/180 139/436/180
f 22/437/181 235/438/181 236/439/181 30/440/181
f 59/441/182 64/442/182 262/443/182
f 256/444/183 250/445/183 107/446/183 202/447/183
f 28/448/184 129/449/184 130/450/184 36/451/184
f 27/452/185 159/453/185 160/454/185 35/455/185
f 195/456/186 194/457/186 48/458/186 56/459/186
f 1/460/187 204/461/187 213/462/187 83/463/187
f 111/464/188 122/465/188 155/466/188
f 57/467/189 195/468/189 196/469/189 260/470/189
f 32/471/190 24/472/190 207/473/190 208/474/190
f 119/475/191 108/476/191 202/477/191 203/478/191
f 60/479/192 148/480/192 147/481/192
f 266/482/193 156/483/194 166/484/194 158/485/194
f 45/486/195 146/487/195 149/488/195 72/489/195
f 130/490/196 129/491/196 27/492/196 35/493/196
f 241/494/197 240/495/197 61/496/197 65/497/197
f 163/498/198 162/499/198 50/500/198 58/501/198
f 54/502/199 239/503/199 240/504/199 62/505/199
f 101/506/200 185/507/200 184/508/200 91/509/200
f 221/510/201 220/511/201 22/512/201 30/513/201
f 53/514/202 147/515/202 148/516/202 61/517/202
f 125/518/203 217/519/203 210/520/203 55/521/203
f 138/522/204 110/523/204 121/524/204 140/525/204
f 163/526/205 58/527/205 261/528/205 164/529/205
f 102/530/206 169/531/206 168/532/206 97/533/206
f 99/534/207 216/535/207 215/536/207 95/537/207
f 22/538/208 81/539/208 243/540/208 235/541/208
f 123/542/209 249/543/209 247/544/210 112/545/209
f 174/546/211 182/547/211 76/548/212 17/549/211
f 26/550/213 18/551/213 174/552/213 175/553/213
f 99/554/214 95/555/214 200/556/214 201/557/214
f 243/558/215 233/559/215 10/560/215 80/561/215
f 10/562/216 141/563/216 150/564/216 80/565/216
f 63/566/217 225/567/217 264/568/217 67/569/217
f 38/570/218 30/571/218 236/572/218 237/573/218
f 160/574/219 159/575/219 26/576/219 34/577/219
f 255/578/220 115/579/220 108/580/220 186/581/220
f 83/582/221 213/583/221 206/584/221 16/585/221
f 28/586/222 20/587/222 128/588/222 129/589/222
f 25/590/223 17/591/223 190/592/223 191/593/223
f 33/594/224 25/595/224 191/596/224 192/597/224
f 165/598/225 42/599/225 177/600/225 69/601/225
f 240/602/226 239/603/226 53/604/226 61/605/226
f 235/606/227 21/607/227 29/608/227 236/609/227
f 208/610/228 207/611/228 31/612/228 39/613/228
f 23/614/229 220/615/229 221/616/229 31/617/229
f 78/618/230 7/619/230 265/620/230 19/621/230
f 135/622/231 78/623/231 19/624/231 128/625/231
f 62/626/232 240/627/232 241/628/232 66/629/232
f 101/630/233 91/631/233 168/632/233 169/633/233
f 218/634/234 12/635/234 81/636/234 227/637/234
f 134/638/235 131/639/235 43/640/235 70/641/235
f 76/642/236 3/643/236 188/644/237 198/645/236
f 30/646/238 38/647/238 222/648/238 221/649/238
f 124/650/239 113/651/239 247/652/239 249/653/239
f 22/654/240 220/655/240 227/656/240
f 255/657/241 186/658/241 109/659/241 116/660/241
f 129/661/242 128/662/242 19/663/242 27/664/242
f 171/665/243 121/666/243 110/667/243 170/668/243
f 180/669/244 179/670/244 57/671/244 260/672/244
f 104/673/245 153/674/245 152/675/245 92/676/245
f 166/677/246 156/678/246 5/679/246 77/680/246
f 213/681/247 204/682/247 14/683/247 82/684/247
f 186/685/248 187/686/248 120/687/248 109/688/248
f 80/689/249 21/690/249 235/691/249
f 179/692/250 178/693/250 49/694/250 57/695/250
f 225/696/251 224/697/251 54/698/251 62/699/251
f 17/700/252 76/701/252 198/702/252 190/703/252
f 107/704/253 56/705/253 48/706/253 126/707/253
f 107/708/254 250/709/254 259/710/254 56/711/254
f 133/712/255 138/713/255 140/714/255
f 114/715/256 125/716/256 55/717/256 63/718/256
f 138/719/257 262/720/258 139/721/259
f 55/722/260 224/723/260 225/724/260 63/725/260
f 50/726/261 178/727/261 179/728/261 58/729/261
f 154/730/262 148/731/262 60/732/262 111/733/262
f 257/734/263 118/735/263 67/736/263 211/737/263
f 223/738/264 46/739/264 73/740/264 226/741/264
f 150/742/265 141/743/265 9/744/265 79/745/265
f 138/746/266 133/747/259 262/748/267
f 198/749/268 188/750/268 1/751/268 83/752/268
f 219/753/269 67/754/269 264/755/269
f 46/756/270 237/757/270 238/758/270
f 132/759/271 71/760/271 134/761/271
f 146/762/272 145/763/272 36/764/272 44/765/272
f 118/766/273 228/767/273 258/768/273
f 254/769/274 86/770/274 116/771/274
f 71/772/275 147/773/275 149/774/275
f 69/775/276 162/776/277 165/777/278
f 52/778/279 140/779/279 122/780/279
f 167/781/280 87/782/280 8/783/280 157/784/280
f 64/785/281 164/786/281 157/787/281 8/788/281
f 65/789/282 263/790/282 142/791/282 11/792/282
f 88/793/283 11/794/283 142/795/283 151/796/283
f 36/797/284 130/798/284 131/799/284 44/800/284
f 219/801/285 15/802/285 67/803/285
f 199/804/286 256/805/286 115/806/286 85/807/286
f 167/808/287 86/809/287 254/810/287 251/811/287
f 173/812/288 180/813/288 260/814/288 4/815/288
f 123/816/289 104/817/289 246/818/289 249/819/289
f 46/820/290 38/821/290 237/822/290
f 183/823/291 85/824/291 115/825/291 255/826/291
f 88/827/292 252/828/292 248/829/292 244/830/292
f 194/831/293 197/832/294 75/833/294 48/834/294
f 74/835/295 226/836/296 224/837/297 55/838/296
f 232/839/298 230/840/298 106/841/298 125/842/298
f 199/843/299 85/844/299 4/845/299 189/846/299
f 72/847/300 149/848/300 147/849/300 53/850/300
f 132/851/301 134/852/301 70/853/301 51/854/301
f 176/855/302 177/856/302 42/857/302 34/858/302
f 70/859/303 165/860/303 162/861/303 51/862/303
f 183/863/304 255/864/305 116/865/306 86/866/305
f 90/867/307 228/868/307 118/869/307 257/870/307
f 208/871/308 39/872/308 47/873/308 209/874/308
f 130/875/309 35/876/309 43/877/309 131/878/309
f 234/879/310 241/880/310 65/881/310 11/882/310
f 66/883/311 241/884/312 234/885/312 13/886/312
f 251/887/313 87/888/313 167/889/313
f 89/890/314 13/891/314 234/892/314 244/893/314
f 54/894/315 73/895/315 242/896/315 239/897/315
f 185/898/316 101/899/317 120/900/318 187/901/317
f 124/902/319 105/903/319 230/904/319 232/905/319
f 208/906/320 209/907/320 40/908/320 32/909/320
f 121/910/321 102/911/321 137/912/321 140/913/321
f 222/914/322 223/915/322 47/916/322 39/917/322
f 203/918/323 201/919/324 100/920/324 119/921/325
f 151/922/326 253/923/326 252/924/326 88/925/327
f 264/926/328 66/927/328 13/928/328 219/929/328
f 178/930/329 181/931/329 68/932/329 49/933/329
f 75/934/330 212/935/330 210/936/331 48/937/330
f 89/938/332 117/939/332 258/940/332 228/941/332
f 164/942/333 261/943/333 6/944/333 157/945/333
f 171/946/334 169/947/334 102/948/334 121/949/334
f 211/950/335 67/951/335 15/952/335 205/953/335
f 226/954/336 73/955/337 54/956/338 224/957/337
f 176/958/339 33/959/339 41/960/339 177/961/339
f 119/962/340 100/963/340 185/964/340 187/965/340
f 90/966/341 214/967/341 205/968/341 15/969/341
f 153/970/342 104/971/342 123/972/342 155/973/342
f 246/974/343 105/975/343 124/976/343 249/977/343
f 139/978/344 262/979/344 64/980/344 251/981/344
f 228/982/345 90/983/345 15/984/345 219/985/345
f 222/986/346 38/987/346 46/988/346 223/989/346
f 199/990/347 84/991/347 250/992/347 256/993/347
f 84/994/348 2/995/348 205/996/348 214/997/348
f 261/998/349 180/999/349 173/1000/349 6/1001/349
f 183/1002/350 86/1003/350 6/1004/350 173/1005/350
f 199/1006/351 189/1007/352 2/1008/353 84/1009/352
f 2/1010/354 259/1011/354 211/1012/354 205/1013/354
f 69/1014/355 50/1015/356 162/1016/357
f 69/1017/358 181/1018/359 178/1019/360 50/1020/359
f 101/1021/361 169/1022/361 171/1023/361 120/1024/361
f 84/1025/362 214/1026/362 257/1027/362 250/1028/362
f 217/1029/363 125/1030/363 106/1031/363 216/1032/363
f 155/1033/364 122/1034/364 103/1035/364 153/1036/364
f 260/1037/365 196/1038/365 189/1039/365 4/1040/365
f 140/1041/366 137/1042/366 103/1043/366 122/1044/366
f 192/1045/367 193/1046/367 41/1047/367 33/1048/367
f 37/1049/368 145/1050/368 146/1051/368 45/1052/368
f 189/1053/369 196/1054/369 259/1055/369 2/1056/369
f 257/1057/370 214/1058/370 90/1059/370
f 68/1060/371 197/1061/371 194/1062/371 49/1063/371
f 239/1064/372 242/1065/372 72/1066/372 53/1067/372
f 203/1068/373 126/1069/373 99/1070/373 201/1071/373
f 35/1072/374 160/1073/374 161/1074/374 43/1075/374
f 183/1076/375 173/1077/375 4/1078/375 85/1079/375
f 237/1080/376 37/1081/376 45/1082/376 238/1083/376
f 161/1084/377 160/1085/377 34/1086/377 42/1087/378
f 244/1088/379 234/1089/379 11/1090/379 88/1091/379
f 253/1092/380 151/1093/380 142/1094/380 263/1095/380
f 52/1096/381 147/1097/381 71/1098/381 132/1099/381
f 89/1100/382 244/1101/382 248/1102/382 117/1103/382
f 228/1104/383 219/1105/383 13/1106/383 89/1107/383
f 251/1108/384 64/1109/384 8/1110/384 87/1111/384
f 217/1112/385 216/1113/385 99/1114/385 126/1115/385
f 210/1116/386 212/1117/386 74/1118/386 55/1119/386
f 52/1120/387 132/1121/387 140/1122/387
f 86/1123/388 167/1124/388 157/1125/388 6/1126/388
f 192/1127/389 32/1128/389 40/1129/389 193/1130/389
