# Blender v3.0.0 OBJ File: 'aa.blend'
# www.blender.org
mtllib Vase_M_3.mtl
o Vase_M_3
v -0.012918 -0.000000 -0.072973
v 0.057689 0.357264 -0.045248
v 0.073099 -0.000000 -0.002942
v 0.073146 0.357025 -0.002931
v 0.051840 0.000000 0.048377
v 0.051886 0.357036 0.048402
v 0.004428 0.000000 0.049478
v -0.009045 0.356381 0.068865
v -0.050773 0.000000 0.048353
v -0.050790 0.357042 0.048364
v -0.072016 -0.000000 -0.002910
v -0.071481 0.347970 -0.003113
v -0.050739 -0.000000 -0.054242
v -0.051122 0.356654 -0.054539
v 0.000555 0.015231 -0.047614
v 0.032159 0.015233 -0.034533
v 0.045348 0.015485 -0.002899
v 0.032212 0.015703 0.028732
v 0.000574 0.014823 0.041402
v -0.030955 0.015145 0.028647
v -0.044043 0.015068 -0.002953
v -0.031053 0.015397 -0.034484
v 0.000588 0.045664 -0.034521
v 0.022851 0.045677 -0.025225
v 0.032400 0.045608 -0.002932
v 0.023150 0.045642 0.019568
v 0.000493 0.040248 0.030077
v -0.021705 0.045707 0.019374
v -0.030934 0.045701 -0.002946
v -0.021764 0.045696 -0.025252
v 0.002575 0.076953 -0.036674
v 0.024280 0.075034 -0.026665
v 0.035343 0.077374 -0.001855
v 0.026596 0.085048 0.023188
v 0.000598 0.075178 0.031232
v -0.023047 0.075157 0.020639
v -0.032951 0.075095 -0.002945
v -0.023023 0.075188 -0.026393
v 0.000533 0.144520 -0.063634
v 0.044980 0.141777 -0.044821
v 0.061355 0.144464 -0.002977
v 0.043258 0.144641 0.039839
v 0.000437 0.144586 0.057452
v -0.042171 0.144650 0.039760
v -0.059863 0.144656 -0.002920
v -0.042257 0.144552 -0.045872
v 0.014870 0.240504 -0.084432
v 0.058767 0.256273 -0.061017
v 0.083027 0.256161 -0.002942
v 0.058860 0.256146 0.055382
v 0.000727 0.256022 0.079202
v -0.057725 0.256151 0.055345
v -0.081818 0.256135 -0.002917
v -0.057761 0.251500 -0.061062
v 0.040281 0.302564 -0.042343
v 0.056229 0.302672 -0.002908
v 0.039983 0.302693 0.036499
v 0.000564 0.302665 0.052683
v -0.038869 0.302687 0.036474
v -0.055302 0.302713 -0.002935
v -0.039083 0.302763 -0.042853
v 0.042845 0.334264 -0.035367
v 0.052433 0.328655 -0.002947
v 0.037197 0.328649 0.033712
v 0.000781 0.318110 0.049682
v -0.036077 0.328641 0.033766
v -0.051704 0.328120 -0.002750
v -0.035526 0.328955 -0.038923
v 0.060360 0.218747 -0.062881
v 0.084363 0.218841 -0.002911
v 0.059744 0.218877 0.056219
v -0.019968 0.196338 0.072999
v -0.058719 0.218838 0.056379
v -0.083166 0.218888 -0.002928
v -0.058687 0.218914 -0.062176
v 0.000650 0.218811 -0.086057
v 0.073111 0.008311 -0.002958
v 0.051837 0.008057 0.048310
v 0.004434 0.008848 0.049580
v -0.050806 0.005848 0.048375
v -0.072066 0.005762 -0.002915
v -0.050744 0.008344 -0.054271
v -0.012926 0.008545 -0.073001
v 0.054405 0.361466 -0.042352
v 0.068674 0.361271 -0.002931
v 0.048724 0.361256 0.045237
v -0.009076 0.360447 0.064554
v -0.047615 0.361281 0.045187
v -0.067120 0.352267 -0.003125
v -0.047874 0.360833 -0.051360
v 0.020187 0.076786 -0.022574
v 0.028269 0.076809 -0.002931
v 0.020136 0.076819 0.016643
v 0.000547 0.076828 0.024733
v -0.019005 0.076832 -0.022480
v 0.000567 0.076833 -0.030584
v -0.019049 0.076804 0.016675
v -0.027160 0.076809 -0.002931
v 0.000647 0.183262 -0.071884
v 0.049759 0.183211 -0.052234
v 0.070001 0.183226 -0.002931
v 0.049669 0.183220 0.046189
v 0.000507 0.183233 0.066326
v -0.048522 0.183233 0.046149
v -0.068892 0.183226 -0.002931
v -0.048416 0.183247 -0.051862
v 0.014579 0.239541 -0.078491
v 0.055299 0.254792 -0.057440
v 0.078106 0.254799 -0.002934
v 0.055385 0.254781 0.051897
v 0.000389 0.254115 0.073182
v -0.054147 0.254539 0.051555
v -0.076966 0.254784 -0.002929
v -0.054053 0.254297 -0.057213
v 0.036214 0.299548 -0.038481
v 0.050221 0.299539 -0.002914
v 0.035658 0.299550 0.032122
v 0.000542 0.292664 0.048013
v -0.034651 0.299729 0.032375
v -0.049273 0.299574 -0.002923
v -0.035158 0.300102 -0.039110
v 0.038899 0.336191 -0.031405
v 0.046667 0.330591 -0.002944
v 0.033184 0.330611 0.029749
v 0.000863 0.318940 0.044289
v -0.032089 0.330585 0.029818
v -0.045917 0.330098 -0.002754
v -0.031547 0.330896 -0.034966
v -0.018603 0.197751 0.067452
v 0.028469 0.000000 0.064372
v 0.042207 0.357181 0.055000
v 0.017698 0.015266 0.038695
v 0.012750 0.045577 0.026973
v 0.014801 0.084992 0.031020
v 0.023768 0.144550 0.053494
v 0.032790 0.243602 0.075231
v 0.021460 0.301591 0.047565
v 0.020340 0.328778 0.044658
v 0.032829 0.219186 0.074660
v 0.028497 0.006123 0.064404
v 0.040265 0.361143 0.050989
v 0.011234 0.076771 0.022873
v 0.027252 0.183172 0.061894
v 0.030686 0.241331 0.069536
v 0.019589 0.291275 0.042964
v 0.018126 0.330347 0.039653
v 0.030658 0.219431 0.068872
v -0.023450 0.000000 0.044241
v -0.027086 0.357506 0.063752
v -0.016625 0.014967 0.038531
v -0.011579 0.045627 0.026442
v -0.012227 0.075118 0.027854
v -0.021772 0.138678 0.050778
v -0.031836 0.244075 0.075146
v -0.020387 0.301608 0.047654
v -0.019390 0.328085 0.045235
v -0.031739 0.218869 0.075215
v -0.023502 0.008867 0.044360
v -0.025318 0.361775 0.059571
v -0.010091 0.076815 0.022769
v -0.026105 0.183277 0.061359
v -0.029597 0.245011 0.070498
v -0.018321 0.298715 0.042258
v -0.017330 0.330056 0.040226
v -0.029645 0.219473 0.069837
v 0.054406 0.000000 0.030262
v 0.067869 0.357056 0.024952
v 0.041802 0.014712 0.014157
v 0.029390 0.045773 0.009001
v 0.032030 0.075052 0.010065
v 0.055366 0.140766 0.019815
v 0.078588 0.243836 0.029391
v 0.051001 0.301583 0.017965
v 0.048214 0.328555 0.016809
v 0.078557 0.218947 0.029387
v 0.054465 0.009018 0.030300
v 0.063759 0.361271 0.023249
v 0.026269 0.076809 0.007720
v 0.064989 0.183226 0.023759
v 0.072498 0.254790 0.026869
v 0.046690 0.299553 0.016177
v 0.043303 0.330584 0.014778
v 0.067889 -0.000000 -0.030822
v 0.068035 0.356888 -0.030940
v 0.041954 0.015240 -0.020081
v 0.029637 0.045729 -0.015000
v 0.031803 0.077001 -0.015612
v 0.056819 0.144569 -0.026356
v 0.078423 0.243788 -0.035168
v 0.050586 0.301584 -0.023565
v 0.048539 0.328765 -0.022840
v 0.078482 0.219021 -0.035169
v 0.067903 0.008501 -0.030831
v 0.063919 0.361111 -0.029235
v 0.026269 0.076809 -0.013583
v 0.065023 0.183221 -0.029648
v 0.072360 0.254718 -0.032647
v 0.046346 0.299604 -0.021836
v 0.043597 0.330777 -0.020782
v 0.051869 -0.000000 -0.054249
v 0.017715 0.015214 -0.044361
v 0.012644 0.045706 -0.032070
v 0.013328 0.075187 -0.033908
v 0.023952 0.144515 -0.059273
v 0.023352 0.247540 -0.082487
v 0.027246 0.271840 -0.067180
v 0.032469 0.218901 -0.080258
v 0.051891 0.008545 -0.054266
v 0.011178 0.076830 -0.028599
v 0.027058 0.183269 -0.066998
v 0.021753 0.246081 -0.077059
v 0.024957 0.270487 -0.062080
v -0.027337 -0.000000 -0.070265
v -0.035905 0.356978 -0.064586
v -0.016619 0.015269 -0.044375
v -0.011558 0.045685 -0.032208
v -0.011607 0.076689 -0.034414
v -0.022099 0.140828 -0.058771
v -0.031733 0.243783 -0.080316
v -0.027380 0.301252 -0.052806
v -0.019749 0.328801 -0.050914
v -0.031852 0.218909 -0.081639
v -0.027338 0.008493 -0.070280
v -0.034007 0.361116 -0.060580
v -0.010139 0.076761 -0.028758
v -0.026316 0.183158 -0.068039
v -0.029547 0.243556 -0.074963
v -0.025373 0.298651 -0.047621
v -0.017150 0.330775 -0.046078
v -0.052081 -0.000000 -0.020271
v -0.066345 0.347989 -0.030436
v -0.040853 0.014784 -0.020095
v -0.028627 0.045657 -0.015024
v -0.030055 0.072337 -0.015566
v -0.055856 0.144480 -0.026317
v -0.077281 0.243672 -0.035150
v -0.050228 0.301765 -0.024017
v -0.047391 0.328028 -0.022973
v -0.077574 0.218886 -0.035286
v -0.052160 0.009036 -0.020299
v -0.062324 0.352261 -0.028763
v -0.025161 0.076809 -0.013583
v -0.063881 0.183226 -0.029621
v -0.071268 0.254714 -0.032642
v -0.045849 0.299661 -0.022229
v -0.042403 0.330088 -0.020889
v -0.066754 0.000000 0.024950
v -0.067245 0.356635 0.025086
v -0.041022 0.015811 0.014291
v -0.028863 0.045672 0.009257
v -0.031113 0.077471 0.010178
v -0.055522 0.144641 0.020300
v -0.077481 0.243829 0.029391
v -0.049828 0.301579 0.017943
v -0.046735 0.329027 0.016693
v -0.077581 0.218895 0.029435
v -0.066676 0.007951 0.024917
v -0.063034 0.360806 0.023397
v -0.025161 0.076809 0.007720
v -0.063891 0.183225 0.023766
v -0.071329 0.254761 0.026826
v -0.045573 0.299582 0.016197
v -0.041826 0.331019 0.014650
v 0.000553 -0.000000 -0.047593
v 0.017720 -0.000000 -0.044368
vt 0.867062 0.888393
vt 0.867062 0.927371
vt 0.825482 0.917171
vt 0.815972 0.973558
vt 0.789260 0.967053
vt 0.815972 0.932276
vt 0.858732 0.401476
vt 0.858732 0.428716
vt 0.818077 0.417326
vt 0.096790 0.970610
vt 0.062216 0.968669
vt 0.096790 0.943509
vt 0.901986 0.911910
vt 0.901986 0.965741
vt 0.881735 0.949469
vt 0.172536 0.602671
vt 0.216434 0.549522
vt 0.216434 0.656605
vt 0.528046 0.878317
vt 0.578077 0.867153
vt 0.578077 0.909999
vt 0.883265 0.182914
vt 0.883265 0.253067
vt 0.851634 0.207904
vt 0.307385 0.854018
vt 0.275131 0.829197
vt 0.307385 0.784477
vt 0.938102 0.384997
vt 0.916618 0.360505
vt 0.938102 0.316063
vt 0.172536 0.842082
vt 0.258381 0.809208
vt 0.258381 0.844792
vt 0.970587 0.825329
vt 0.947979 0.812735
vt 0.970587 0.785076
vt 0.752984 0.261119
vt 0.791994 0.182914
vt 0.791994 0.269682
vt 0.971100 0.777750
vt 0.944861 0.763502
vt 0.971100 0.733844
vt 0.965665 0.443799
vt 0.949017 0.429702
vt 0.965665 0.390354
vt 0.125835 0.002678
vt 0.125835 0.082297
vt 0.002678 0.013771
vt 0.933430 0.147360
vt 0.911313 0.112736
vt 0.933430 0.076868
vt 0.528475 0.343995
vt 0.575201 0.311949
vt 0.575201 0.435603
vt 0.930313 0.902980
vt 0.907343 0.867685
vt 0.930313 0.832461
vt 0.911261 0.395682
vt 0.887488 0.382454
vt 0.911261 0.316063
vt 0.784164 0.347100
vt 0.812720 0.316063
vt 0.812720 0.418900
vt 0.854710 0.348141
vt 0.882131 0.316063
vt 0.882131 0.393334
vt 0.196638 0.002678
vt 0.196638 0.143818
vt 0.131191 0.061776
vt 0.521966 0.859150
vt 0.501738 0.822161
vt 0.521966 0.788458
vt 0.590484 0.181818
vt 0.543265 0.129478
vt 0.590484 0.076868
vt 0.679143 0.989099
vt 0.668317 0.973651
vt 0.679143 0.950120
vt 0.736463 0.913273
vt 0.721564 0.906950
vt 0.736463 0.885780
vt 0.279073 0.904339
vt 0.279073 0.930126
vt 0.263350 0.926584
vt 0.970422 0.727413
vt 0.947690 0.705376
vt 0.970422 0.692785
vt 0.753123 0.122825
vt 0.794534 0.076868
vt 0.794534 0.156018
vt 0.823290 0.435733
vt 0.823290 0.513379
vt 0.784915 0.469720
vt 0.818077 0.333324
vt 0.849353 0.316063
vt 0.849353 0.396119
vt 0.867260 0.600922
vt 0.882278 0.566079
vt 0.882278 0.691611
vt 0.736463 0.785506
vt 0.736463 0.880424
vt 0.724495 0.872077
vt 0.719138 0.785506
vt 0.719138 0.811438
vt 0.700461 0.808800
vt 0.887635 0.662780
vt 0.910028 0.640610
vt 0.910028 0.716624
vt 0.984857 0.966651
vt 0.972801 0.937529
vt 0.984857 0.908336
vt 0.775632 0.301011
vt 0.752984 0.301014
vt 0.753009 0.275044
vt 0.775632 0.275039
vt 0.233750 0.872368
vt 0.256087 0.850149
vt 0.256087 0.926135
vt 0.983116 0.443799
vt 0.971022 0.414716
vt 0.983116 0.385576
vt 0.342362 0.643319
vt 0.338779 0.627572
vt 0.342362 0.611820
vt 0.269407 0.837978
vt 0.266177 0.822189
vt 0.269407 0.806467
vt 0.787440 0.310707
vt 0.784164 0.294928
vt 0.787440 0.279123
vt 0.167161 0.635225
vt 0.163830 0.619473
vt 0.167161 0.603706
vt 0.342362 0.680189
vt 0.338852 0.664445
vt 0.342362 0.648675
vt 0.522663 0.772793
vt 0.519349 0.757028
vt 0.522663 0.741287
vt 0.522656 0.735930
vt 0.519349 0.720158
vt 0.522656 0.704381
vt 0.508172 0.685902
vt 0.504818 0.670167
vt 0.508172 0.654405
vt 0.231464 0.725314
vt 0.226348 0.683452
vt 0.275376 0.662177
vt 0.275376 0.750358
vt 0.523096 0.043471
vt 0.523436 0.008086
vt 0.638978 0.002678
vt 0.638978 0.051193
vt 0.742169 0.953542
vt 0.783408 0.950068
vt 0.783408 0.975855
vt 0.734642 0.972507
vt 0.695474 0.080617
vt 0.695474 0.176947
vt 0.648332 0.155174
vt 0.663616 0.076868
vt 0.954738 0.908336
vt 0.967444 0.908376
vt 0.967444 0.961237
vt 0.944821 0.961247
vt 0.528068 0.799067
vt 0.528046 0.770198
vt 0.606059 0.762519
vt 0.606059 0.807612
vt 0.221135 0.252332
vt 0.051549 0.242334
vt 0.051407 0.226181
vt 0.221135 0.211607
vt 0.634903 0.936526
vt 0.634903 0.962485
vt 0.585724 0.958775
vt 0.585590 0.940528
vt 0.699614 0.049019
vt 0.749605 0.043223
vt 0.749605 0.069151
vt 0.700887 0.067276
vt 0.631746 0.200611
vt 0.592439 0.200433
vt 0.592426 0.191865
vt 0.631746 0.187174
vt 0.962984 0.182914
vt 0.962984 0.215491
vt 0.923760 0.212901
vt 0.923250 0.183313
vt 0.401426 0.276027
vt 0.444179 0.266135
vt 0.444179 0.288784
vt 0.401453 0.288734
vt 0.333422 0.656821
vt 0.226477 0.654799
vt 0.226348 0.614390
vt 0.333422 0.611820
vt 0.891035 0.199426
vt 0.917894 0.182914
vt 0.917894 0.241260
vt 0.888622 0.238817
vt 0.226457 0.330590
vt 0.226549 0.314459
vt 0.396099 0.303932
vt 0.396099 0.344244
vt 0.979331 0.733852
vt 0.988437 0.733844
vt 0.988437 0.775955
vt 0.976456 0.776008
vt 0.961312 0.300174
vt 0.943069 0.300620
vt 0.940900 0.256932
vt 0.961312 0.241109
vt 0.950657 0.640794
vt 0.969040 0.640610
vt 0.969040 0.686828
vt 0.947690 0.687428
vt 0.395932 0.389980
vt 0.226348 0.378530
vt 0.226348 0.362415
vt 0.395932 0.349600
vt 0.957427 0.633368
vt 0.955767 0.589466
vt 0.974037 0.588525
vt 0.974037 0.635254
vt 0.970943 0.115956
vt 0.938787 0.116379
vt 0.940824 0.076868
vt 0.970943 0.076932
vt 0.395900 0.924536
vt 0.395900 0.950626
vt 0.346723 0.945511
vt 0.347445 0.927098
vt 0.104684 0.954255
vt 0.153317 0.949338
vt 0.153317 0.975523
vt 0.104904 0.973238
vt 0.624687 0.678327
vt 0.638489 0.669873
vt 0.638489 0.712132
vt 0.624428 0.704255
vt 0.908780 0.401672
vt 0.908780 0.443901
vt 0.865812 0.435141
vt 0.866509 0.409060
vt 0.710406 0.871197
vt 0.710406 0.913361
vt 0.668317 0.904803
vt 0.668442 0.878757
vt 0.614459 0.775041
vt 0.692478 0.766591
vt 0.692478 0.811622
vt 0.614547 0.803999
vt 0.695344 0.186537
vt 0.695344 0.283203
vt 0.648332 0.261274
vt 0.663512 0.182914
vt 0.145395 0.800548
vt 0.135813 0.761152
vt 0.167180 0.755437
vt 0.167180 0.803852
vt 0.395763 0.601835
vt 0.395763 0.698553
vt 0.348799 0.676588
vt 0.363908 0.598273
vt 0.940312 0.161016
vt 0.938787 0.121735
vt 0.971055 0.122313
vt 0.971055 0.160469
vt 0.229975 0.942765
vt 0.279073 0.938416
vt 0.279073 0.964436
vt 0.230102 0.961130
vt 0.046051 0.414388
vt 0.027849 0.421117
vt 0.004497 0.346232
vt 0.046051 0.322721
vt 0.528046 0.920191
vt 0.577759 0.915356
vt 0.577759 0.941287
vt 0.528293 0.938473
vt 0.045779 0.940889
vt 0.004664 0.940980
vt 0.006805 0.908998
vt 0.045779 0.910954
vt 0.408821 0.158778
vt 0.408779 0.140415
vt 0.452690 0.140189
vt 0.452690 0.159526
vt 0.528046 0.607003
vt 0.528186 0.571582
vt 0.643444 0.566079
vt 0.643444 0.614172
vt 0.596208 0.066738
vt 0.596210 0.058170
vt 0.638368 0.058075
vt 0.638368 0.069899
vt 0.531859 0.946644
vt 0.531859 0.988783
vt 0.523163 0.988782
vt 0.520035 0.946668
vt 0.256221 0.801057
vt 0.256249 0.758879
vt 0.269407 0.758851
vt 0.269407 0.801110
vt 0.390217 0.076868
vt 0.483946 0.091836
vt 0.483946 0.132102
vt 0.376939 0.134579
vt 0.547332 0.187174
vt 0.587069 0.187424
vt 0.587069 0.205708
vt 0.543265 0.206436
vt 0.511522 0.266135
vt 0.511522 0.287949
vt 0.498893 0.287948
vt 0.498816 0.266139
vt 0.403422 0.159526
vt 0.359666 0.159444
vt 0.359504 0.141171
vt 0.403422 0.140001
vt 0.201995 0.030194
vt 0.202000 0.014079
vt 0.371587 0.002678
vt 0.371587 0.043088
vt 0.918085 0.058351
vt 0.916537 0.011652
vt 0.944950 0.012401
vt 0.944950 0.058597
vt 0.154315 0.918079
vt 0.154315 0.943981
vt 0.104684 0.938366
vt 0.105273 0.920061
vt 0.538813 0.557984
vt 0.528046 0.442866
vt 0.576873 0.440960
vt 0.576873 0.560723
vt 0.221061 0.298388
vt 0.051450 0.287355
vt 0.051407 0.271200
vt 0.221061 0.257689
vt 0.475746 0.205970
vt 0.306228 0.194937
vt 0.306196 0.178850
vt 0.475746 0.165716
vt 0.396002 0.298062
vt 0.226424 0.286693
vt 0.226418 0.270572
vt 0.396002 0.257689
vt 0.333802 0.938416
vt 0.333802 0.964302
vt 0.284430 0.959806
vt 0.284453 0.941444
vt 0.687576 0.406835
vt 0.580557 0.404864
vt 0.580635 0.364330
vt 0.687576 0.362083
vt 0.635665 0.257144
vt 0.528584 0.254881
vt 0.528597 0.214501
vt 0.635665 0.212051
vt 0.287891 0.664235
vt 0.333422 0.662177
vt 0.333422 0.691896
vt 0.286926 0.690679
vt 0.741820 0.879682
vt 0.783903 0.871097
vt 0.783903 0.913301
vt 0.741926 0.905641
vt 0.434709 0.972189
vt 0.402691 0.970239
vt 0.403716 0.946864
vt 0.434709 0.932626
vt 0.754423 0.662118
vt 0.752951 0.635539
vt 0.800068 0.634372
vt 0.800068 0.663330
vt 0.644552 0.915766
vt 0.662960 0.916011
vt 0.662960 0.962632
vt 0.641837 0.963153
vt 0.912766 0.825333
vt 0.910556 0.787240
vt 0.942622 0.785076
vt 0.942622 0.826191
vt 0.920123 0.619890
vt 0.918443 0.596553
vt 0.950410 0.594564
vt 0.950410 0.635254
vt 0.906123 0.558454
vt 0.903923 0.512311
vt 0.932933 0.511351
vt 0.932933 0.558483
vt 0.284527 0.931798
vt 0.284430 0.904883
vt 0.330984 0.904339
vt 0.330984 0.933059
vt 0.493459 0.266640
vt 0.493459 0.284956
vt 0.453723 0.285344
vt 0.449536 0.266135
vt 0.742792 0.729377
vt 0.820125 0.722404
vt 0.820125 0.767156
vt 0.741820 0.758336
vt 0.522689 0.490252
vt 0.401120 0.482048
vt 0.407016 0.446521
vt 0.522689 0.440960
vt 0.061091 0.483977
vt 0.051407 0.449719
vt 0.176634 0.440975
vt 0.176634 0.489903
vt 0.472947 0.377924
vt 0.464966 0.360619
vt 0.519500 0.349600
vt 0.519500 0.378576
vt 0.201995 0.121739
vt 0.201997 0.105624
vt 0.371582 0.094191
vt 0.371582 0.134579
vt 0.167138 0.983299
vt 0.158673 0.983305
vt 0.159401 0.951784
vt 0.167138 0.949338
vt 0.517739 0.002678
vt 0.517739 0.044857
vt 0.376944 0.034988
vt 0.376944 0.009015
vt 0.940292 0.558483
vt 0.938289 0.518176
vt 0.970322 0.518721
vt 0.970322 0.557767
vt 0.405089 0.336666
vt 0.401456 0.303989
vt 0.520881 0.295007
vt 0.520881 0.344244
vt 0.051407 0.590715
vt 0.051639 0.555417
vt 0.167180 0.549522
vt 0.167180 0.598349
vt 0.226451 0.423934
vt 0.226348 0.407818
vt 0.395952 0.395337
vt 0.395952 0.435603
vt 0.947560 0.320412
vt 0.968931 0.316063
vt 0.968931 0.358950
vt 0.943459 0.364103
vt 0.988482 0.588525
vt 0.988482 0.640452
vt 0.981197 0.637674
vt 0.979394 0.590941
vt 0.619071 0.704751
vt 0.528046 0.716394
vt 0.540794 0.669873
vt 0.619071 0.676329
vt 0.226491 0.239564
vt 0.226494 0.223455
vt 0.396069 0.212051
vt 0.396069 0.252332
vt 0.459609 0.351351
vt 0.459609 0.378153
vt 0.413145 0.378611
vt 0.401289 0.349600
vt 0.112287 0.879094
vt 0.154315 0.870556
vt 0.154315 0.912723
vt 0.112184 0.905113
vt 0.642975 0.080545
vt 0.642975 0.177557
vt 0.595840 0.155194
vt 0.611061 0.076868
vt 0.692478 0.675510
vt 0.692478 0.761234
vt 0.648801 0.738594
vt 0.663352 0.671701
vt 0.909599 0.948964
vt 0.907343 0.908336
vt 0.939464 0.908805
vt 0.939464 0.947843
vt 0.435984 0.071512
vt 0.376992 0.070966
vt 0.376939 0.051982
vt 0.435984 0.050459
vt 0.172536 0.767468
vt 0.250864 0.758851
vt 0.250864 0.803852
vt 0.172850 0.796186
vt 0.158474 0.603706
vt 0.158474 0.648789
vt 0.051407 0.646270
vt 0.051412 0.605881
vt 0.943660 0.390467
vt 0.943660 0.436980
vt 0.924371 0.439100
vt 0.916618 0.390354
vt 0.226348 0.565426
vt 0.342131 0.557706
vt 0.342131 0.606463
vt 0.226501 0.600838
vt 0.694467 0.457650
vt 0.741383 0.435733
vt 0.741383 0.532669
vt 0.709675 0.536005
vt 0.868566 0.025729
vt 0.911180 0.016342
vt 0.911180 0.058597
vt 0.868947 0.051911
vt 0.741863 0.708804
vt 0.741820 0.679649
vt 0.819754 0.672060
vt 0.819754 0.717047
vt 0.487526 0.052517
vt 0.487526 0.070882
vt 0.443605 0.071512
vt 0.441341 0.050769
vt 0.860455 0.505963
vt 0.829815 0.486301
vt 0.828647 0.460448
vt 0.860455 0.435733
vt 0.166588 0.654146
vt 0.166588 0.739725
vt 0.157915 0.736659
vt 0.158190 0.656604
vt 0.051407 0.422450
vt 0.051443 0.406362
vt 0.220964 0.395337
vt 0.220964 0.435618
vt 0.492883 0.070625
vt 0.492890 0.058217
vt 0.543442 0.058075
vt 0.543442 0.071512
vt 0.051407 0.536291
vt 0.051577 0.501201
vt 0.167119 0.495259
vt 0.167119 0.544165
vt 0.129627 0.745453
vt 0.103540 0.654146
vt 0.152558 0.660963
vt 0.152558 0.746490
vt 0.700830 0.098506
vt 0.747766 0.076868
vt 0.747766 0.173198
vt 0.715815 0.176846
vt 0.967769 0.872291
vt 0.935669 0.872762
vt 0.937778 0.832461
vt 0.967769 0.833253
vt 0.694258 0.043223
vt 0.694258 0.069208
vt 0.644335 0.062853
vt 0.645813 0.044665
vt 0.407696 0.255145
vt 0.401426 0.220439
vt 0.523227 0.212051
vt 0.523227 0.260778
vt 0.783903 0.944712
vt 0.735438 0.942347
vt 0.734642 0.923960
vt 0.783903 0.918658
vt 0.980078 0.241116
vt 0.980078 0.297774
vt 0.967720 0.297804
vt 0.966669 0.241109
vt 0.523119 0.435603
vt 0.401309 0.427337
vt 0.407488 0.392409
vt 0.523119 0.386807
vt 0.312977 0.792554
vt 0.390886 0.784477
vt 0.390886 0.829093
vt 0.312742 0.822272
vt 0.950306 0.055824
vt 0.950435 0.012083
vt 0.968731 0.011652
vt 0.968731 0.059116
vt 0.668935 0.921870
vt 0.717587 0.918718
vt 0.717587 0.944764
vt 0.668317 0.940269
vt 0.172547 0.896262
vt 0.218995 0.895115
vt 0.218995 0.923946
vt 0.172536 0.923132
vt 0.300840 0.206251
vt 0.131191 0.194385
vt 0.131220 0.178243
vt 0.300840 0.165716
vt 0.983590 0.316063
vt 0.983590 0.377925
vt 0.975270 0.375948
vt 0.974288 0.317829
vt 0.627941 0.424260
vt 0.627803 0.412280
vt 0.655008 0.412192
vt 0.655008 0.425601
vt 0.053796 0.946337
vt 0.053796 0.972324
vt 0.004664 0.968380
vt 0.004670 0.949996
vt 0.949940 0.450499
vt 0.972802 0.452562
vt 0.972802 0.492298
vt 0.943337 0.492583
vt 0.401120 0.557657
vt 0.516834 0.549827
vt 0.516834 0.598661
vt 0.401293 0.592781
vt 0.354147 0.141220
vt 0.354147 0.159467
vt 0.310393 0.159894
vt 0.307542 0.140001
vt 0.522656 0.698978
vt 0.513529 0.699024
vt 0.514729 0.607365
vt 0.522656 0.604018
vt 0.098183 0.657019
vt 0.098183 0.753955
vt 0.051407 0.731857
vt 0.066430 0.654146
vt 0.411960 0.702831
vt 0.401120 0.654405
vt 0.497299 0.664577
vt 0.497299 0.697154
vt 0.051221 0.937284
vt 0.051136 0.909817
vt 0.096790 0.908998
vt 0.096790 0.938153
vt 0.741990 0.808906
vt 0.741820 0.779881
vt 0.820016 0.772513
vt 0.820016 0.817290
vt 0.201995 0.076013
vt 0.201997 0.059912
vt 0.371579 0.048445
vt 0.371579 0.088835
vt 0.220991 0.389981
vt 0.051407 0.378530
vt 0.051407 0.362415
vt 0.220991 0.349600
vt 0.395763 0.480899
vt 0.226367 0.469882
vt 0.226348 0.453831
vt 0.395763 0.440960
vt 0.590851 0.071233
vt 0.548801 0.070954
vt 0.548799 0.061849
vt 0.590851 0.058075
vt 0.701155 0.588270
vt 0.747594 0.566079
vt 0.747594 0.663091
vt 0.715769 0.666703
vt 0.302186 0.140689
vt 0.302186 0.159116
vt 0.258312 0.159625
vt 0.254769 0.140001
vt 0.051495 0.767827
vt 0.129489 0.759312
vt 0.129489 0.804395
vt 0.051407 0.796658
vt 0.986026 0.109548
vt 0.986026 0.161016
vt 0.976755 0.159437
vt 0.976412 0.110242
vt 0.496381 0.935043
vt 0.496381 0.961013
vt 0.447253 0.957384
vt 0.447085 0.939091
vt 0.401120 0.503161
vt 0.516897 0.495608
vt 0.516897 0.544470
vt 0.401241 0.538578
vt 0.582243 0.556551
vt 0.582230 0.547856
vt 0.623313 0.547537
vt 0.623313 0.560723
vt 0.739882 0.310119
vt 0.739882 0.406835
vt 0.692932 0.384885
vt 0.707802 0.306590
vt 0.205606 0.139936
vt 0.249412 0.140540
vt 0.249412 0.158945
vt 0.201995 0.159625
vt 0.051407 0.329281
vt 0.051607 0.313133
vt 0.221100 0.303745
vt 0.221100 0.344244
vt 0.648801 0.587995
vt 0.695799 0.566079
vt 0.695799 0.662746
vt 0.663897 0.666344
vt 0.909966 0.489939
vt 0.908578 0.450499
vt 0.937980 0.459239
vt 0.937980 0.505963
vt 0.221948 0.929302
vt 0.221948 0.955232
vt 0.180686 0.952029
vt 0.172536 0.933348
vt 0.986543 0.245241
vt 0.994171 0.241109
vt 0.994171 0.290468
vt 0.985435 0.287825
vt 0.125835 0.090111
vt 0.125835 0.206251
vt 0.051407 0.164010
vt 0.090733 0.087654
vt 0.189721 0.669510
vt 0.220137 0.661962
vt 0.220137 0.740426
vt 0.172536 0.753495
vt 0.700701 0.204874
vt 0.747627 0.182914
vt 0.747627 0.279632
vt 0.715681 0.283149
vt 0.016070 0.628016
vt 0.002927 0.560833
vt 0.046051 0.542732
vt 0.046051 0.634499
vt 0.873747 0.460818
vt 0.903221 0.449258
vt 0.903221 0.505963
vt 0.865812 0.485502
vt 0.988572 0.783156
vt 0.988572 0.825329
vt 0.976165 0.825312
vt 0.975944 0.783145
vt 0.538737 0.978490
vt 0.537215 0.946644
vt 0.577759 0.946998
vt 0.577759 0.977141
vt 0.874774 0.932728
vt 0.874774 0.958707
vt 0.825482 0.954610
vt 0.825587 0.936336
vt 0.501738 0.916441
vt 0.503610 0.864507
vt 0.522160 0.873003
vt 0.522160 0.931998
vt 0.589695 0.820730
vt 0.608542 0.812968
vt 0.608542 0.864936
vt 0.588823 0.864634
vt 0.904380 0.177216
vt 0.862098 0.169891
vt 0.861387 0.143847
vt 0.904380 0.134937
vt 0.346738 0.918082
vt 0.346723 0.891260
vt 0.393187 0.890310
vt 0.393187 0.919179
vt 0.503203 0.080113
vt 0.537908 0.076868
vt 0.537908 0.198715
vt 0.489303 0.194662
vt 0.502021 0.937375
vt 0.514379 0.937355
vt 0.514379 0.979529
vt 0.501738 0.979538
vt 0.812306 0.864848
vt 0.799600 0.864851
vt 0.799665 0.822646
vt 0.812306 0.822648
vt 0.825126 0.641033
vt 0.856625 0.641031
vt 0.856625 0.717017
vt 0.825111 0.717047
vt 0.794244 0.865740
vt 0.741820 0.857469
vt 0.794244 0.822646
vt 0.887635 0.594279
vt 0.913086 0.566079
vt 0.913086 0.635254
vt 0.395763 0.486256
vt 0.395763 0.592916
vt 0.350885 0.540275
vt 0.442799 0.927269
vt 0.402691 0.915163
vt 0.442799 0.888624
vt 0.622446 0.412192
vt 0.622446 0.428831
vt 0.580557 0.412907
vt 0.847251 0.827104
vt 0.825482 0.736300
vt 0.847251 0.722404
vt 0.846278 0.238438
vt 0.797350 0.238126
vt 0.797732 0.200647
vt 0.846278 0.182914
vt 0.800078 0.114278
vt 0.799891 0.077271
vt 0.848686 0.076868
vt 0.848686 0.132397
vt 0.442799 0.833204
vt 0.442799 0.879047
vt 0.416676 0.883268
vt 0.401120 0.829201
vt 0.662960 0.910410
vt 0.617647 0.905148
vt 0.617519 0.877681
vt 0.662960 0.871627
vt 0.046051 0.426474
vt 0.046051 0.537375
vt 0.029407 0.535813
vt 0.010736 0.429221
vt 0.806135 0.661179
vt 0.805425 0.635850
vt 0.814680 0.635398
vt 0.814680 0.663330
vt 0.935544 0.248331
vt 0.935544 0.300620
vt 0.914382 0.294484
vt 0.909473 0.251489
vt 0.181734 0.960589
vt 0.181734 0.996904
vt 0.172780 0.993336
vt 0.172536 0.960757
vt 0.330984 0.859375
vt 0.330984 0.898982
vt 0.275131 0.892187
vt 0.275258 0.865317
vt 0.869591 0.836734
vt 0.869591 0.878402
vt 0.840083 0.883036
vt 0.825482 0.832461
vt 0.988297 0.012997
vt 0.997310 0.011652
vt 0.997310 0.053848
vt 0.988225 0.052605
vt 0.846574 0.552767
vt 0.846081 0.522769
vt 0.898566 0.516285
vt 0.898566 0.558483
vt 0.026578 0.205025
vt 0.046051 0.202323
vt 0.046051 0.317365
vt 0.010728 0.314768
vt 0.716815 0.816978
vt 0.716815 0.865840
vt 0.679956 0.865723
vt 0.668317 0.817484
vt 0.778808 0.417470
vt 0.759523 0.418900
vt 0.745239 0.318443
vt 0.778808 0.306590
vt 0.186714 0.449387
vt 0.220964 0.440975
vt 0.220964 0.536257
vt 0.852193 0.264078
vt 0.904117 0.258424
vt 0.904117 0.300620
vt 0.851634 0.294112
vt 0.404730 0.735194
vt 0.401120 0.715583
vt 0.511753 0.708187
vt 0.511753 0.743278
vt 0.807793 0.629015
vt 0.752951 0.618098
vt 0.763181 0.570317
vt 0.807793 0.566079
vt 0.180902 0.497136
vt 0.180902 0.540230
vt 0.172476 0.538106
vt 0.172559 0.495259
vt 0.856030 0.177216
vt 0.799891 0.170775
vt 0.800348 0.143913
vt 0.856030 0.137754
vt 0.289524 0.744564
vt 0.390886 0.749180
vt 0.390886 0.768901
vt 0.281034 0.779121
vt 0.597058 0.873434
vt 0.612162 0.871627
vt 0.612162 0.927669
vt 0.585590 0.931169
vt 0.496381 0.878346
vt 0.454767 0.882991
vt 0.469997 0.829201
vt 0.496381 0.832728
vt 0.345365 0.541983
vt 0.321430 0.539169
vt 0.327376 0.492547
vt 0.345365 0.486256
vt 0.401120 0.815925
vt 0.401315 0.794873
vt 0.496381 0.788458
vt 0.496381 0.823844
vt 0.046051 0.087858
vt 0.046051 0.195215
vt 0.026604 0.196966
vt 0.007893 0.087654
vt 0.381943 0.993925
vt 0.373194 0.993727
vt 0.373418 0.957321
vt 0.381943 0.955983
vt 0.395763 0.739208
vt 0.281034 0.730727
vt 0.285117 0.711469
vt 0.395763 0.703909
vt 0.982019 0.832461
vt 0.982019 0.902197
vt 0.973802 0.899644
vt 0.973126 0.833553
vt 0.546607 0.813097
vt 0.583466 0.812968
vt 0.583466 0.861796
vt 0.528046 0.861487
vt 0.754451 0.037866
vt 0.644335 0.031067
vt 0.659149 0.010101
vt 0.754451 0.002678
vt 0.687545 0.356726
vt 0.580889 0.355677
vt 0.580557 0.315305
vt 0.687545 0.311949
vt 0.917708 0.643235
vt 0.942334 0.640610
vt 0.942334 0.696871
vt 0.915385 0.699122
vt 0.454999 0.893227
vt 0.496381 0.888348
vt 0.496381 0.929687
vt 0.454362 0.923967
vt 0.905956 0.119205
vt 0.854043 0.113455
vt 0.854065 0.083312
vt 0.905956 0.076868
vt 0.458047 0.158214
vt 0.458277 0.143004
vt 0.467098 0.142106
vt 0.467098 0.159526
vt 0.529112 0.751873
vt 0.528046 0.730771
vt 0.635989 0.721750
vt 0.635989 0.757162
vt 0.388199 0.993453
vt 0.387299 0.955983
vt 0.395900 0.956685
vt 0.395900 0.994672
vt 0.759541 0.437512
vt 0.779558 0.435733
vt 0.779558 0.543091
vt 0.746740 0.545072
vt 0.987939 0.835088
vt 0.996331 0.832461
vt 0.996331 0.879460
vt 0.987375 0.878359
vt 0.801606 0.925180
vt 0.789260 0.871097
vt 0.818939 0.874614
vt 0.818939 0.926919
vt 0.861903 0.621608
vt 0.813150 0.621009
vt 0.813387 0.584182
vt 0.861903 0.566079
vt 0.912552 0.774750
vt 0.910161 0.722404
vt 0.939505 0.725088
vt 0.939505 0.777750
vt 0.984206 0.727413
vt 0.975779 0.724842
vt 0.976447 0.659535
vt 0.984206 0.657160
vt 0.840724 0.518736
vt 0.840724 0.558483
vt 0.785403 0.551760
vt 0.784915 0.524850
vt 0.012146 0.807286
vt 0.009096 0.758608
vt 0.046051 0.756094
vt 0.046051 0.825831
vt 0.760476 0.040739
vt 0.759808 0.003917
vt 0.809029 0.002678
vt 0.809029 0.058597
vt 0.361646 0.834449
vt 0.390886 0.839004
vt 0.390886 0.881411
vt 0.346723 0.884953
vt 0.988273 0.100058
vt 0.988225 0.060451
vt 0.997286 0.059205
vt 0.997286 0.101403
vt 0.509211 0.753786
vt 0.509211 0.775144
vt 0.406317 0.783101
vt 0.401120 0.748635
vt 0.797641 0.281296
vt 0.797350 0.244220
vt 0.846254 0.243795
vt 0.846254 0.299319
vt 0.977037 0.218523
vt 0.976412 0.170112
vt 0.985111 0.166373
vt 0.985111 0.222009
vt 0.106827 0.903641
vt 0.051136 0.897559
vt 0.051338 0.870751
vt 0.106827 0.863943
vt 0.907485 0.955812
vt 0.916546 0.954321
vt 0.916546 0.996349
vt 0.907343 0.995273
vt 0.684610 0.951773
vt 0.693623 0.950120
vt 0.693623 0.992513
vt 0.684499 0.991471
vt 0.978728 0.492367
vt 0.978158 0.450499
vt 0.987326 0.450951
vt 0.987326 0.495256
vt 0.187091 0.986172
vt 0.187160 0.961407
vt 0.196141 0.960589
vt 0.196141 0.987708
vt 0.625934 0.817994
vt 0.662960 0.816978
vt 0.662960 0.866270
vt 0.614459 0.866135
vt 0.708913 0.952884
vt 0.717587 0.950120
vt 0.717587 0.994436
vt 0.708429 0.994754
vt 0.976179 0.556347
vt 0.975679 0.503948
vt 0.984587 0.502548
vt 0.984587 0.558483
vt 0.688480 0.443396
vt 0.688480 0.484120
vt 0.597975 0.486033
vt 0.582230 0.440960
vt 0.901986 0.836300
vt 0.901986 0.906553
vt 0.874947 0.888933
vt 0.876940 0.832461
vt 0.974684 0.068357
vt 0.974088 0.012886
vt 0.982869 0.011652
vt 0.982869 0.070515
vt 0.010908 0.742866
vt 0.025200 0.640659
vt 0.046051 0.639856
vt 0.046051 0.750737
vt 0.528046 0.662007
vt 0.528156 0.621627
vt 0.635094 0.619529
vt 0.635094 0.664516
vt 0.316073 0.552350
vt 0.226348 0.540338
vt 0.230407 0.500042
vt 0.316073 0.486256
vt 0.852608 0.757970
vt 0.852827 0.728037
vt 0.904804 0.722404
vt 0.904804 0.764796
vt 0.228393 0.889758
vt 0.172574 0.883738
vt 0.172536 0.856916
vt 0.228393 0.850149
vt 0.736463 0.675449
vt 0.736463 0.780150
vt 0.717901 0.777749
vt 0.701155 0.672060
vt 0.689110 0.491389
vt 0.689110 0.536005
vt 0.582230 0.531903
vt 0.582832 0.491628
vt 0.201533 0.962254
vt 0.210508 0.960589
vt 0.210508 0.986849
vt 0.201498 0.986353
vt 0.921983 0.995232
vt 0.921903 0.955485
vt 0.930998 0.954321
vt 0.930998 0.996658
vt 0.160911 0.865199
vt 0.112184 0.864882
vt 0.112324 0.827874
vt 0.160911 0.809752
vt 0.346773 0.957319
vt 0.355745 0.955983
vt 0.355745 0.997322
vt 0.346723 0.996102
vt 0.106827 0.809752
vt 0.106827 0.858586
vt 0.069750 0.858554
vt 0.051407 0.810099
vt 0.853245 0.821265
vt 0.852608 0.791152
vt 0.905199 0.785076
vt 0.905199 0.827104
vt 0.814386 0.040209
vt 0.814700 0.003895
vt 0.863209 0.003150
vt 0.863209 0.058597
vt 0.009096 0.847934
vt 0.038809 0.831187
vt 0.038809 0.896498
vt 0.011216 0.900833
vt 0.508172 0.604018
vt 0.508172 0.649048
vt 0.401158 0.646719
vt 0.401120 0.606331
vt 0.639134 0.306592
vt 0.528475 0.299213
vt 0.532108 0.279528
vt 0.639134 0.271467
vt 0.481409 0.159526
vt 0.472455 0.159234
vt 0.472901 0.144650
vt 0.481409 0.142887
vn -0.3082 0.9508 -0.0322
vn -0.0446 0.9202 0.3888
vn -0.1307 0.9155 0.3805
vn 0.2806 0.9554 0.0919
vn 0.1326 0.9715 -0.1967
vn -0.6663 0.1120 -0.7372
vn -0.3593 -0.4534 0.8157
vn -0.1597 0.2010 -0.9665
vn -0.5617 0.2069 -0.8011
vn -0.5900 0.0252 -0.8070
vn -0.1835 -0.3485 0.9192
vn 0.1753 0.3034 -0.9366
vn -0.1797 0.1585 0.9709
vn -0.3103 0.9336 -0.1795
vn 0.0000 -1.0000 0.0000
vn -0.4340 0.8629 -0.2588
vn -0.3199 0.8178 0.4784
vn 0.0685 0.8207 0.5673
vn 0.2781 0.9533 0.1181
vn 0.3886 0.4739 -0.7902
vn -0.3749 -0.4926 0.7854
vn -0.0034 0.0729 -0.9973
vn -0.4373 -0.3114 0.8437
vn -0.3032 0.1257 0.9446
vn -0.4496 0.8878 -0.0984
vn -0.0025 1.0000 0.0023
vn 0.0063 1.0000 0.0033
vn 0.0040 1.0000 -0.0014
vn 0.0007 1.0000 -0.0009
vn -0.0025 1.0000 0.0019
vn 0.0004 1.0000 0.0052
vn 0.1854 -0.0005 -0.9827
vn 0.1860 -0.0011 -0.9825
vn 0.1851 -0.0000 -0.9827
vn -0.0012 1.0000 0.0006
vn -0.0015 1.0000 0.0007
vn -0.0040 1.0000 0.0006
vn -0.0035 1.0000 -0.0003
vn -0.0025 1.0000 -0.0015
vn -0.0013 1.0000 0.0002
vn -0.0114 0.9996 -0.0274
vn -0.0069 1.0000 0.0067
vn -0.0015 1.0000 0.0096
vn 0.0037 0.9999 0.0112
vn -0.0063 1.0000 -0.0020
vn -0.0052 1.0000 0.0010
vn -0.0023 1.0000 0.0064
vn 0.0038 1.0000 0.0008
vn 0.0024 1.0000 0.0005
vn 0.0018 1.0000 0.0037
vn 0.0089 0.9998 0.0204
vn -0.0010 1.0000 0.0003
vn 0.0034 1.0000 -0.0008
vn 0.0009 1.0000 -0.0002
vn 0.0007 1.0000 -0.0006
vn -0.0073 1.0000 -0.0026
vn -0.0053 1.0000 -0.0010
vn -0.0078 1.0000 -0.0018
vn 0.5432 -0.2918 0.7873
vn 0.1049 0.3881 0.9156
vn -0.2571 0.4666 0.8463
vn -0.2782 -0.0002 -0.9605
vn -0.8386 -0.5217 -0.1567
vn 0.5487 0.3609 0.7541
vn 0.7631 0.3921 -0.5137
vn 0.8965 0.3895 0.2109
vn -0.6569 -0.0075 -0.7539
vn -0.6568 -0.0067 -0.7541
vn -0.6570 -0.0079 -0.7539
vn -0.8282 0.1521 -0.5394
vn 0.8833 -0.0008 -0.4688
vn -0.9766 0.1093 0.1854
vn -0.2282 -0.1081 -0.9676
vn -0.1536 0.3601 -0.9202
vn 0.5662 0.0010 0.8243
vn 0.8727 -0.1098 0.4757
vn -0.1702 -0.0635 -0.9834
vn 0.9171 0.3596 0.1722
vn 0.2171 -0.0735 -0.9734
vn -0.5335 0.1204 0.8372
vn -0.7476 0.3919 0.5363
vn 0.5225 0.3852 0.7607
vn -0.1111 0.7644 0.6351
vn -0.2144 0.9524 0.2168
vn 0.2413 0.9693 -0.0469
vn 0.2415 0.9692 -0.0473
vn 0.8393 -0.5193 -0.1613
vn 0.8392 -0.5196 -0.1605
vn 0.8410 0.4683 0.2709
vn 0.8935 0.0505 -0.4462
vn -0.7870 0.4679 0.4021
vn -0.9667 0.1257 -0.2229
vn -0.5181 0.3907 -0.7609
vn 0.4363 -0.4506 0.7789
vn -0.9053 0.3873 -0.1747
vn -0.8485 0.1315 0.5125
vn -0.5627 -0.0565 0.8247
vn 0.1745 -0.2850 -0.9425
vn 0.1738 -0.2853 -0.9426
vn 0.1733 -0.2854 -0.9426
vn -0.9822 0.0025 0.1878
vn -0.8270 0.0031 0.5622
vn -0.1841 -0.0127 0.9828
vn -0.1843 -0.0121 0.9828
vn -0.1844 -0.0118 0.9828
vn -0.5299 0.0966 0.8425
vn -0.9780 -0.0620 -0.1990
vn -0.1850 -0.0026 -0.9827
vn 0.5526 -0.0661 -0.8308
vn -0.9171 0.3597 0.1718
vn -0.9172 0.3598 0.1712
vn 0.5410 -0.0926 -0.8359
vn -0.7676 0.3891 -0.5093
vn 0.5099 -0.2895 -0.8100
vn -0.5358 0.3607 -0.7634
vn 0.1716 0.3585 -0.9176
vn 0.1711 0.3586 -0.9177
vn 0.1715 0.3585 -0.9176
vn 0.7693 0.3596 -0.5281
vn 0.7697 0.3595 -0.5276
vn 0.7700 0.3594 -0.5273
vn 0.7694 0.3595 -0.5280
vn -0.5225 0.3871 0.7597
vn -0.5229 0.3873 0.7593
vn -0.8213 0.1061 0.5605
vn -0.9768 0.1105 -0.1836
vn 0.8149 -0.1442 0.5614
vn 0.1967 0.9714 -0.1331
vn 0.1963 0.9715 -0.1332
vn -0.1955 0.1313 0.9719
vn 0.9720 -0.1160 -0.2044
vn 0.9688 -0.0768 -0.2357
vn -0.9602 0.1263 0.2490
vn -0.9601 0.1266 0.2494
vn 0.2098 0.1386 0.9679
vn 0.8286 -0.1201 -0.5468
vn 0.8284 -0.1199 -0.5471
vn -0.9776 -0.1021 0.1840
vn -0.8295 -0.0561 -0.5558
vn -0.8297 -0.0563 -0.5553
vn -0.8300 -0.0566 -0.5549
vn -0.7161 -0.5163 0.4697
vn -0.5577 -0.2951 -0.7758
vn -0.5573 -0.2953 -0.7760
vn -0.5351 -0.3018 0.7891
vn -0.8817 -0.0570 0.4683
vn 0.9171 0.3597 -0.1719
vn -0.4363 0.8531 0.2863
vn 0.9655 0.1252 0.2282
vn 0.8118 -0.2887 -0.5076
vn -0.9418 -0.2951 -0.1609
vn -0.9418 -0.2952 -0.1607
vn -0.9418 -0.2949 -0.1615
vn -0.9418 -0.2948 -0.1617
vn -0.5109 0.3588 0.7811
vn -0.0450 0.9712 -0.2340
vn -0.0446 0.9712 -0.2339
vn -0.0442 0.9713 -0.2339
vn 0.3023 -0.9429 0.1397
vn 0.4118 -0.4950 -0.7651
vn 0.5244 0.3590 -0.7721
vn 0.5246 0.3590 -0.7720
vn 0.5239 0.3589 -0.7725
vn -0.5332 -0.0980 -0.8403
vn -0.1384 0.9697 -0.2014
vn -0.1385 0.9697 -0.2011
vn 0.4028 0.4669 0.7872
vn -0.2892 -0.5096 -0.8104
vn 0.5213 0.1287 0.8436
vn 0.5624 -0.1188 0.8183
vn -0.8362 -0.5229 0.1656
vn -0.8206 0.1104 -0.5608
vn 0.6120 -0.1846 0.7690
vn 0.9397 -0.2925 -0.1774
vn 0.8367 0.4697 -0.2817
vn 0.1257 0.9548 0.2695
vn 0.8419 -0.5165 0.1565
vn -0.5658 -0.0578 -0.8225
vn 0.4810 0.2443 -0.8420
vn 0.4807 0.2443 -0.8422
vn -0.3988 0.9029 0.1604
vn 0.7664 0.3590 0.5326
vn -0.9992 -0.0050 -0.0405
vn -0.7842 -0.2984 0.5441
vn -0.4872 0.4242 -0.7634
vn -0.4084 0.4681 0.7837
vn 0.8442 0.1277 0.5206
vn 0.7854 0.3894 0.4812
vn 0.7857 -0.2969 0.5426
vn -0.9082 0.3916 0.1476
vn 0.8718 -0.0042 0.4898
vn 0.9379 -0.2955 0.1816
vn 0.7175 -0.5021 0.4828
vn 0.9642 -0.0968 0.2468
vn 0.9643 -0.0966 0.2464
vn 0.9002 0.3912 -0.1912
vn 0.9004 0.3910 -0.1909
vn -0.8202 -0.1115 -0.5611
vn -0.7730 0.3603 0.5221
vn -0.7836 0.5510 -0.2871
vn 0.9899 -0.0025 0.1420
vn 0.9898 -0.0030 0.1422
vn 0.9898 -0.0034 0.1424
vn -0.1706 0.3899 -0.9049
vn -0.1709 0.3898 -0.9049
vn -0.6025 0.2089 -0.7703
vn -0.9399 -0.2974 0.1678
vn 0.8312 -0.0677 -0.5519
vn 0.8306 -0.0682 -0.5527
vn 0.8309 -0.0680 -0.5523
vn 0.9335 0.0975 -0.3452
vn 0.7930 0.4668 -0.3915
vn -0.7774 0.4445 -0.4450
vn 0.9770 -0.1135 0.1808
vn 0.7057 -0.5157 -0.4858
vn -0.7700 0.3598 -0.5269
vn -0.7704 0.3597 -0.5264
vn -0.7706 0.3597 -0.5262
vn -0.9171 0.3596 -0.1722
vn -0.1705 0.3567 0.9185
vn -0.5258 -0.0064 0.8506
vn 0.2637 0.4663 0.8444
vn -0.8056 -0.0682 0.5885
vn -0.7030 -0.5219 -0.4831
vn -0.3074 -0.8742 0.3758
vn 0.1760 0.3910 -0.9034
vn -0.7830 -0.2939 -0.5483
vn 0.1476 -0.0086 0.9890
vn -0.8456 0.4613 -0.2685
vn -0.9848 -0.0710 0.1586
vn 0.1372 0.3598 0.9229
vn 0.7870 0.4676 0.4025
vn 0.2104 -0.1019 -0.9723
vn -0.1286 0.3917 0.9111
vn 0.8832 -0.2105 -0.4191
vn 0.1093 -0.2682 0.9571
vn -0.3034 -0.4967 -0.8132
vn -0.3037 -0.4968 -0.8130
vn -0.8412 0.4668 0.2731
vn 0.1773 -0.5095 -0.8420
vn 0.2592 0.9589 0.1156
vn -0.5647 -0.0021 -0.8253
vn -0.5649 -0.0029 -0.8252
vn -0.5648 -0.0024 -0.8253
vn -0.5646 -0.0016 -0.8254
vn 0.9670 0.1093 -0.2301
vn 0.5156 0.3918 -0.7620
vn 0.1654 -0.0736 0.9835
vn -0.2789 -0.0406 0.9595
vn -0.3061 0.9520 -0.0055
vn -0.3055 0.9522 -0.0049
vn -0.9766 -0.1134 -0.1829
vn -0.9766 -0.1137 -0.1823
vn -0.1404 -0.2902 -0.9466
vn 0.9830 -0.0018 -0.1837
vn 0.8256 -0.0027 -0.5643
vn 0.8255 -0.0022 -0.5644
vn -0.0027 1.0000 0.0048
vn -0.0017 1.0000 0.0016
vn 0.0003 1.0000 0.0001
vn 0.0010 1.0000 -0.0011
vn 0.3798 0.4487 -0.8090
vn 0.6154 0.0192 -0.7879
vn 0.6897 0.1087 -0.7159
vn 0.1792 -0.0439 -0.9828
vn 0.2264 -0.0037 -0.9740
vn 0.7420 -0.3485 0.5727
vn -0.5863 0.0223 0.8098
vn -0.5865 0.0227 0.8096
vn 0.9868 0.0208 0.1604
vn 0.9868 0.0202 0.1608
vn 0.5502 0.6352 0.5421
vn 0.7138 0.6872 0.1353
vn 0.7139 0.6869 0.1357
vn 0.1724 -0.3611 -0.9164
vn -0.1479 0.7207 0.6773
vn -0.1479 0.7211 0.6768
vn 0.6245 -0.5967 -0.5039
vn -0.9366 -0.0096 0.3504
vn -0.6756 0.5762 -0.4600
vn -0.6760 0.5760 -0.4597
vn -0.7116 -0.6494 0.2680
vn 0.6832 0.7189 0.1284
vn 0.6724 -0.5869 0.4510
vn -0.7562 -0.3577 -0.5479
vn -0.8105 0.0300 -0.5850
vn -0.5214 -0.3572 0.7749
vn 0.7647 -0.3626 0.5326
vn 0.7945 -0.5865 0.1575
vn -0.7720 -0.3583 0.5250
vn 0.5137 0.0784 -0.8544
vn -0.9191 0.2958 -0.2603
vn 0.4619 0.5576 -0.6897
vn -0.2021 -0.3525 0.9137
vn -0.4592 0.5766 -0.6758
vn -0.4587 0.5767 -0.6761
vn 0.7237 0.6345 -0.2714
vn -0.6262 0.5838 0.5168
vn 0.5282 -0.3653 0.7665
vn 0.4995 -0.3661 -0.7851
vn 0.8490 0.4020 0.3430
vn -0.9232 -0.3546 -0.1480
vn 0.0873 0.9921 0.0899
vn -0.9868 0.0265 -0.1599
vn 0.1947 -0.3581 0.9132
vn 0.8179 0.1084 -0.5650
vn 0.8181 0.1083 -0.5648
vn 0.8183 0.1082 -0.5645
vn 0.4678 0.5933 0.6551
vn -0.6963 -0.7045 -0.1373
vn -0.6966 -0.7042 -0.1370
vn 0.7954 -0.5875 -0.1492
vn 0.3840 0.7325 0.5621
vn 0.9112 -0.3625 -0.1955
vn 0.9182 -0.0037 0.3962
vn 0.8022 -0.3733 -0.4660
vn -0.6488 0.0814 -0.7566
vn 0.4432 -0.5848 0.6795
vn 0.9862 0.0226 -0.1641
vn 0.9861 0.0221 -0.1645
vn -0.4601 -0.6030 -0.6517
vn 0.9762 0.1915 0.1018
vn -0.8038 0.5774 0.1428
vn -0.8039 0.5773 0.1431
vn -0.1028 0.0943 -0.9902
vn 0.8207 0.0388 -0.5700
vn 0.8209 0.0384 -0.5697
vn -0.5470 -0.6513 -0.5260
vn 0.5729 0.7200 0.3916
vn -0.1378 -0.3709 -0.9184
vn -0.8101 0.0244 0.5858
vn -0.6986 0.1952 -0.6884
vn 0.6685 0.5877 -0.4557
vn -0.3868 0.7215 0.5744
vn -0.3870 0.7211 0.5746
vn -0.3865 0.7218 0.5742
vn -0.5692 0.7247 0.3884
vn -0.6917 0.6990 -0.1815
vn -0.3890 0.7282 -0.5643
vn -0.5860 0.0450 -0.8091
vn -0.5857 0.0444 -0.8093
vn -0.7094 0.6960 -0.1109
vn 0.8133 0.1948 -0.5483
vn 0.6019 0.1144 0.7903
vn 0.3863 0.5102 -0.7684
vn -0.7493 0.3515 0.5612
vn -0.5313 -0.3687 -0.7627
vn 0.9767 0.1093 0.1848
vn 0.9766 0.1095 0.1853
vn 0.9764 0.1098 0.1861
vn 0.9765 0.1096 0.1856
vn 0.1083 0.1047 0.9886
vn -0.6636 -0.6005 0.4462
vn -0.8029 0.5765 -0.1513
vn -0.8029 0.5767 -0.1509
vn 0.9174 -0.3528 0.1843
vn 0.9173 -0.3528 0.1846
vn 0.9175 -0.3526 0.1838
vn 0.8156 0.1079 0.5685
vn 0.8154 0.1080 0.5687
vn 0.8159 0.1077 0.5680
vn 0.5726 0.7183 -0.3953
vn 0.5727 0.7182 -0.3953
vn 0.5719 0.7189 -0.3952
vn 0.5716 0.7191 -0.3951
vn 0.6838 0.7183 -0.1283
vn 0.6833 0.7188 -0.1281
vn 0.6830 0.7191 -0.1279
vn 0.6830 0.7192 -0.1279
vn 0.8099 0.0187 0.5863
vn 0.8098 0.0190 0.5864
vn -0.6960 0.7061 -0.1304
vn -0.9875 0.0231 0.1559
vn -0.4563 -0.5688 0.6843
vn 0.5838 0.0122 0.8118
vn -0.3468 -0.5233 0.7784
vn 0.9767 0.1097 -0.1843
vn 0.9768 0.1099 -0.1837
vn 0.9769 0.1101 -0.1833
vn -0.9166 -0.3574 0.1791
vn -0.6604 0.7492 0.0499
g Vase_M_3_Vase_M_3_Collor_Material
usemtl Collor_Material
s off
f 240/1/1 22/2/1 82/3/1
f 158/4/2 20/5/2 80/6/2
f 132/7/3 79/8/3 140/9/3
f 176/10/4 18/11/4 78/12/4
f 208/13/5 201/14/5 16/15/5
f 147/16/6 110/17/6 102/18/6
f 108/19/7 212/20/7 211/21/7
f 103/22/8 147/23/8 143/24/8
f 102/25/9 143/26/9 147/27/9
f 147/28/10 144/29/10 110/30/10
f 72/31/11 153/32/11 43/33/11
f 161/34/12 129/35/12 103/36/12
f 210/37/13 107/38/13 99/39/13
f 21/40/14 240/41/14 81/42/14
f 213/43/15 1/44/15 264/45/15
f 166/46/15 7/47/15 265/48/15
f 148/49/15 9/50/15 247/51/15
f 3/52/15 166/53/15 265/54/15
f 5/55/15 130/56/15 7/57/15
f 166/58/15 5/59/15 7/60/15
f 183/61/15 3/62/15 265/63/15
f 200/64/15 183/65/15 265/66/15
f 264/67/15 148/68/15 230/69/15
f 247/70/15 11/71/15 230/72/15
f 148/73/15 247/74/15 230/75/15
f 240/76/16 232/77/16 22/78/16
f 158/79/17 150/80/17 20/81/17
f 132/82/18 19/83/18 79/84/18
f 176/85/19 168/86/19 18/87/19
f 206/88/20 55/89/20 48/90/20
f 108/91/21 115/92/21 212/93/21
f 103/94/22 129/95/22 147/96/22
f 72/97/23 157/98/23 153/99/23
f 210/100/24 211/101/24 107/102/24
f 21/103/25 232/104/25 240/105/25
f 91/106/26 96/107/27 93/108/28
f 93/109/29 92/110/30 91/111/31
f 264/112/32 15/113/33 201/114/32 265/115/34
f 97/116/35 94/117/36 95/118/37
f 95/119/38 98/120/39 97/121/40
f 96/122/41 225/123/41 95/124/41
f 91/125/42 209/126/43 96/127/44
f 92/128/45 195/129/46 91/130/47
f 93/131/48 178/132/49 92/133/50
f 94/134/51 142/135/51 93/136/51
f 97/137/52 160/138/40 94/139/40
f 98/140/53 259/141/54 97/142/55
f 95/143/56 242/144/57 98/145/58
f 13/146/15 213/147/15 264/148/15 230/149/15
f 135/150/59 42/151/59 71/152/59 139/153/59
f 27/154/60 19/155/60 132/156/60 133/157/60
f 155/158/61 154/159/61 51/160/61 58/161/61
f 208/162/62 200/163/62 265/164/62 201/165/62
f 181/166/63 116/167/63 109/168/63 180/169/63
f 106/170/64 95/171/64 225/172/64 226/173/64
f 185/174/65 16/175/65 24/176/65 186/177/65
f 169/178/66 168/179/66 17/180/66 25/181/66
f 230/182/67 11/183/67 81/184/68 240/185/69
f 61/186/70 237/187/70 238/188/70 68/189/70
f 83/190/71 15/191/71 264/192/71 1/193/71
f 197/194/72 196/195/72 101/196/72 109/197/72
f 125/198/73 146/199/73 145/200/73 118/201/73
f 142/202/74 94/203/74 103/204/74 143/205/74
f 140/206/75 130/207/75 5/208/75 78/209/75
f 26/210/76 169/211/76 170/212/76 34/213/76
f 23/214/77 216/215/77 217/216/77 31/217/77
f 105/218/78 98/219/78 242/220/78 243/221/78
f 203/222/79 202/223/79 23/224/79 31/225/79
f 59/226/80 155/227/80 156/228/80 66/229/80
f 249/230/81 20/231/81 28/232/81 250/233/81
f 133/234/82 132/235/82 18/236/82 26/237/82
f 150/238/83 158/239/83 79/240/83 19/241/83
f 257/242/84 80/243/84 20/244/84 249/245/84
f 77/246/85 193/247/86 185/248/86 17/249/86
f 262/250/87 261/251/88 113/252/88 120/253/88
f 173/254/89 172/255/89 49/256/89 56/257/89
f 191/258/90 190/259/90 55/260/90 62/261/90
f 254/262/91 253/263/91 52/264/91 59/265/91
f 238/266/92 237/267/92 60/268/92 67/269/92
f 216/270/93 215/271/93 22/272/93 30/273/93
f 228/274/94 121/275/94 114/276/94 227/277/94
f 233/278/95 232/279/95 21/280/95 29/281/95
f 255/282/96 254/283/96 59/284/96 66/285/96
f 28/286/97 151/287/97 152/288/97 36/289/97
f 204/290/98 39/291/99 76/292/100 207/293/99
f 81/294/101 11/295/101 247/296/101 257/297/101
f 247/298/102 9/299/102 80/300/102 257/301/102
f 148/302/103 7/303/104 79/304/105 158/305/103
f 211/306/106 210/307/106 100/308/106 108/309/106
f 234/310/107 233/311/107 29/312/107 37/313/107
f 1/314/108 213/315/108 223/316/108 83/317/108
f 32/318/109 24/319/109 202/320/109 203/321/109
f 195/322/110 92/323/111 101/324/111 196/325/111
f 164/326/112 163/327/112 119/328/112 126/329/112
f 22/330/113 232/331/113 233/332/113 30/333/113
f 204/334/114 207/335/114 69/336/114 40/337/114
f 102/338/115 93/339/115 142/340/115 143/341/115
f 103/342/116 94/343/117 160/344/117 161/345/118
f 104/346/119 97/347/120 259/348/121 260/349/122
f 20/350/123 150/351/123 151/352/124 28/353/123
f 108/354/125 100/355/125 196/356/125 197/357/125
f 109/358/126 101/359/126 179/360/126 180/361/126
f 246/362/127 245/363/127 121/364/127 128/365/127
f 185/366/128 193/367/128 208/368/128 16/369/129
f 155/370/130 58/371/130 65/372/130 156/373/130
f 127/374/131 263/375/131 262/376/131 120/377/131
f 25/378/132 186/379/132 187/380/132 33/381/132
f 67/382/133 60/383/134 254/384/134 255/385/134
f 65/386/135 58/387/135 137/388/135 138/389/135
f 126/390/136 119/391/137 262/392/137 263/393/137
f 123/394/138 199/395/138 198/396/138 116/397/138
f 30/398/139 233/399/140 234/400/140 38/401/141
f 115/402/142 108/403/142 197/404/142 198/405/142
f 222/406/143 218/407/144 46/408/143 75/409/143
f 44/410/145 153/411/145 157/412/145 73/413/145
f 199/414/146 122/415/146 115/416/146 198/417/146
f 259/418/147 98/419/147 105/420/147 260/421/147
f 138/422/148 146/423/148 125/424/148 65/425/148
f 7/426/15 148/427/15 264/428/15 265/429/15
f 174/430/149 173/431/149 56/432/149 63/433/149
f 188/434/150 40/435/150 69/436/150 192/437/150
f 235/438/151 45/439/152 74/440/153 239/441/154
f 209/442/155 91/443/155 100/444/155 210/445/155
f 83/446/156 223/447/157 215/448/157 15/449/158
f 51/450/159 154/451/159 162/452/159 111/453/159
f 163/454/160 162/455/160 112/456/160 119/457/160
f 160/458/161 97/459/162 104/460/163 161/461/163
f 146/462/164 124/463/164 117/464/164 145/465/164
f 215/466/165 223/467/165 82/468/166 22/469/165
f 137/470/167 136/471/167 50/472/167 57/473/167
f 145/474/168 144/475/168 111/476/168 118/477/168
f 138/478/169 137/479/169 57/480/169 64/481/169
f 134/482/170 133/483/170 26/484/170 34/485/170
f 198/486/171 197/487/171 109/488/171 116/489/171
f 110/490/172 180/491/172 179/492/172 102/493/172
f 128/494/173 121/495/173 228/496/173 229/497/173
f 188/498/174 192/499/174 70/500/174 41/501/174
f 49/502/175 189/503/175 190/504/175 56/505/175
f 132/506/176 140/507/176 78/508/176 18/509/176
f 245/510/177 120/511/177 113/512/177 244/513/177
f 216/514/178 30/515/178 38/516/178 217/517/178
f 165/518/179 129/519/179 161/520/180 104/521/179
f 72/522/181 139/523/181 147/524/181 129/525/181
f 242/526/182 95/527/182 106/528/182 243/529/182
f 82/530/183 13/531/183 230/532/183 240/533/183
f 252/534/184 44/535/184 73/536/184 256/537/184
f 220/538/185 219/539/185 54/540/185 61/541/185
f 52/542/186 154/543/186 155/544/186 59/545/186
f 57/546/187 173/547/187 174/548/187 64/549/187
f 18/550/188 168/551/188 169/552/188 26/553/188
f 42/554/189 171/555/189 175/556/189 71/557/189
f 249/558/190 250/559/190 29/560/190 21/561/190
f 166/562/191 3/563/191 77/564/191 176/565/191
f 175/566/192 171/567/192 41/568/192 70/569/192
f 245/570/193 244/571/193 114/572/193 121/573/193
f 170/574/194 169/575/194 25/576/195 33/577/194
f 25/578/196 17/579/196 185/580/197 186/581/196
f 182/582/198 181/583/198 117/584/198 124/585/198
f 100/586/199 91/587/199 195/588/199 196/589/199
f 55/590/200 206/591/200 212/592/200 115/593/200
f 78/594/201 5/595/202 166/596/203 176/597/202
f 15/598/204 215/599/204 216/600/205 23/601/204
f 220/602/206 61/603/206 68/604/206 221/605/206
f 252/606/207 256/607/207 74/608/207 45/609/207
f 186/610/208 24/611/209 32/612/209 187/613/210
f 220/614/211 228/615/211 227/616/211 219/617/211
f 190/618/212 189/619/212 48/620/212 55/621/212
f 54/622/213 236/623/213 237/624/213 61/625/213
f 246/626/214 127/627/214 120/628/214 245/629/214
f 262/630/215 119/631/215 112/632/215 261/633/215
f 178/634/216 93/635/216 102/636/217 179/637/218
f 101/638/219 92/639/219 178/640/219 179/641/219
f 99/642/220 96/643/220 209/644/220 210/645/220
f 7/646/221 130/647/221 140/648/221 79/649/221
f 51/650/222 136/651/222 137/652/222 58/653/222
f 250/654/223 28/655/223 36/656/223 251/657/223
f 181/658/224 180/659/224 110/660/224 117/661/224
f 136/662/225 51/663/225 111/664/225 144/665/225
f 201/666/226 15/667/226 23/668/226 202/669/226
f 235/670/227 239/671/227 75/672/227 46/673/227
f 80/674/228 9/675/228 148/676/228 158/677/228
f 237/678/229 236/679/229 53/680/229 60/681/229
f 37/682/230 29/683/230 250/684/230 251/685/230
f 225/686/231 96/687/231 99/688/231 226/689/231
f 50/690/232 172/691/232 173/692/232 57/693/232
f 125/694/233 118/695/233 163/696/233 164/697/233
f 150/698/234 19/699/234 27/700/234 151/701/234
f 221/702/235 229/703/235 228/704/235 220/705/235
f 135/706/236 139/707/236 72/708/236 43/709/236
f 145/710/237 117/711/237 110/712/238 144/713/237
f 53/714/239 253/715/239 254/716/239 60/717/239
f 118/718/240 111/719/240 162/720/240 163/721/240
f 168/722/241 176/723/241 77/724/241 17/725/241
f 213/726/242 13/727/243 82/728/244 223/729/245
f 56/730/246 190/731/246 191/732/246 63/733/246
f 16/734/247 201/735/247 202/736/247 24/737/247
f 35/738/248 27/739/248 133/740/248 134/741/248
f 151/742/249 27/743/249 35/744/249 152/745/249
f 257/746/250 249/747/251 21/748/251 81/749/251
f 182/750/252 123/751/252 116/752/253 181/753/252
f 39/754/254 218/755/254 222/756/254 76/757/254
f 77/758/255 3/759/255 183/760/255 193/761/255
f 200/762/256 208/763/256 193/764/257 183/765/256
f 96/766/258 95/767/259 94/768/260 93/769/261
f 206/770/262 48/771/262 205/772/262
f 162/773/263 165/774/263 112/775/263
f 104/776/264 112/777/264 165/778/264
f 47/779/265 207/780/265 76/781/265
f 47/782/266 205/783/266 207/784/266
f 171/785/267 34/786/267 170/787/267
f 73/788/268 157/789/269 154/790/269 52/791/269
f 172/792/270 175/793/270 70/794/271 49/795/270
f 241/796/272 246/797/272 128/798/272 90/799/272
f 89/800/273 127/801/273 246/802/274 241/803/273
f 204/804/275 203/805/275 31/806/275 39/807/275
f 87/808/276 159/809/276 149/810/277 8/811/276
f 184/812/278 191/813/278 62/814/278 2/815/278
f 139/816/279 136/817/279 144/818/279 147/819/279
f 86/820/280 177/821/280 182/822/281 124/823/280
f 12/824/282 67/825/282 255/826/282 248/827/282
f 177/828/283 167/829/283 4/830/283 85/831/283
f 64/832/284 174/833/284 167/834/284 6/835/284
f 38/836/285 234/837/285 235/838/285 46/839/285
f 75/840/286 239/841/286 236/842/286 54/843/286
f 36/844/287 152/845/287 153/846/287 44/847/287
f 171/848/288 42/849/288 34/850/288
f 63/851/289 4/852/289 167/853/289 174/854/289
f 251/855/290 36/856/290 44/857/290 252/858/290
f 48/859/291 69/860/291 207/861/291 205/862/291
f 206/863/292 205/864/292 211/865/292 212/866/292
f 159/867/293 164/868/293 126/869/293 88/870/293
f 153/871/294 152/872/294 35/873/294 43/874/294
f 141/875/295 86/876/295 124/877/296 146/878/295
f 89/879/297 258/880/297 263/881/297 127/882/297
f 194/883/298 84/884/298 122/885/298 199/886/298
f 134/887/299 34/888/299 42/889/299 135/890/299
f 40/891/300 32/892/300 203/893/300 204/894/300
f 72/895/301 129/896/301 165/897/301 157/898/301
f 235/899/302 234/900/302 37/901/302 45/902/302
f 47/903/303 219/904/303 227/905/303 107/906/303
f 236/907/304 239/908/304 74/909/304 53/910/304
f 43/911/305 35/912/305 134/913/305 135/914/305
f 112/915/306 104/916/307 260/917/308 261/918/307
f 224/919/309 90/920/309 128/921/309 229/922/309
f 67/923/310 12/924/310 231/925/311 238/926/310
f 4/927/312 63/928/312 191/929/312 184/930/312
f 86/931/313 141/932/313 131/933/313 6/934/313
f 33/935/314 187/936/314 188/937/314 41/938/314
f 154/939/315 157/940/315 165/941/315 162/942/315
f 187/943/316 32/944/316 40/945/316 188/946/316
f 62/947/317 122/948/317 84/949/317 2/950/317
f 131/951/318 138/952/318 64/953/318 6/954/318
f 70/955/319 192/956/320 189/957/320 49/958/320
f 214/959/321 221/960/321 68/961/321 14/962/321
f 87/963/322 8/964/322 65/965/322 125/966/322
f 85/967/323 194/968/323 199/969/324 123/970/324
f 76/971/325 222/972/325 219/973/325 47/974/325
f 189/975/326 192/976/326 69/977/327 48/978/326
f 68/979/328 238/980/328 231/981/328 14/982/328
f 177/983/329 86/984/329 6/985/329 167/986/329
f 31/987/330 217/988/330 218/989/330 39/990/330
f 253/991/331 256/992/331 73/993/331 52/994/331
f 62/995/332 55/996/332 115/997/332 122/998/332
f 88/999/333 126/1000/333 263/1001/333 258/1002/333
f 88/1003/334 10/1004/335 149/1005/336 159/1006/334
f 258/1007/337 248/1008/337 10/1009/337 88/1010/337
f 241/1011/338 90/1012/338 14/1013/338 231/1014/338
f 90/1015/339 224/1016/339 214/1017/339 14/1018/339
f 219/1019/340 222/1020/340 75/1021/340 54/1022/341
f 89/1023/342 12/1024/342 248/1025/342 258/1026/342
f 221/1027/343 214/1028/343 224/1029/343 229/1030/343
f 106/1031/344 226/1032/344 227/1033/344 114/1034/344
f 87/1035/345 125/1036/345 164/1037/345 159/1038/345
f 138/1039/346 131/1040/346 141/1041/346 146/1042/346
f 218/1043/347 217/1044/347 38/1045/347 46/1046/347
f 105/1047/348 243/1048/349 244/1049/350 113/1050/351
f 227/1051/352 226/1052/352 99/1053/352 107/1054/352
f 255/1055/353 66/1056/353 10/1057/353 248/1058/353
f 85/1059/354 123/1060/354 182/1061/354 177/1062/355
f 171/1063/356 170/1064/357 33/1065/357 41/1066/358
f 114/1067/359 244/1068/360 243/1069/361 106/1070/359
f 194/1071/362 184/1072/363 2/1073/364 84/1074/365
f 194/1075/366 85/1076/367 4/1077/368 184/1078/369
f 71/1079/370 175/1080/371 172/1081/371 50/1082/371
f 241/1083/372 231/1084/372 12/1085/372 89/1086/372
f 74/1087/373 256/1088/373 253/1089/373 53/1090/373
f 66/1091/374 156/1092/374 149/1093/374 10/1094/374
f 136/1095/375 139/1096/375 71/1097/375 50/1098/375
f 156/1099/376 65/1100/376 8/1101/376 149/1102/376
f 113/1103/377 261/1104/377 260/1105/378 105/1106/379
f 45/1107/380 37/1108/380 251/1109/380 252/1110/380
f 47/1111/381 107/1112/381 211/1113/381 205/1114/381
