# Blender v3.0.0 OBJ File: 'aa.blend'
# www.blender.org
mtllib Vase_M_2.mtl
o Vase_M_2
v 0.012403 -0.000000 -0.067962
v -0.000014 0.356395 -0.072945
v 0.051213 -0.000000 -0.050810
v 0.046529 0.343598 -0.051717
v 0.072534 0.000000 0.000638
v 0.072508 0.357146 0.000587
v 0.050143 0.000000 0.050921
v 0.051160 0.357211 0.051934
v -0.000193 0.000000 0.059885
v -0.051507 0.000000 0.051948
v -0.051514 0.357218 0.051959
v -0.062991 0.000000 0.001526
v -0.072757 0.357204 0.000606
v -0.051532 -0.000000 -0.050928
v -0.051286 0.357479 -0.050433
v -0.000161 0.015485 -0.044091
v 0.031390 0.015226 -0.030951
v 0.044457 0.015575 0.000585
v 0.031294 0.014992 0.032083
v -0.000110 0.014546 0.045109
v -0.031814 0.015265 0.032233
v -0.044734 0.014786 0.000604
v -0.031761 0.015296 -0.030986
v -0.000175 0.045860 -0.030920
v 0.022122 0.045860 -0.021685
v 0.031305 0.045941 0.000595
v 0.021810 0.045949 0.022594
v -0.000163 0.045826 0.032076
v -0.022411 0.045806 0.022828
v -0.031665 0.045830 0.000605
v -0.022470 0.045849 -0.021710
v -0.000129 0.075256 -0.032875
v 0.023405 0.075318 -0.022974
v 0.033275 0.075311 0.000635
v 0.023585 0.079382 0.024297
v -0.000267 0.075446 0.033665
v -0.023746 0.075319 0.024186
v -0.033625 0.075256 0.000608
v -0.023698 0.075345 -0.022896
v -0.000189 0.144770 -0.059988
v 0.042433 0.144854 -0.042093
v 0.061206 0.146167 0.000999
v 0.042848 0.144689 0.043631
v -0.000120 0.139308 0.059108
v -0.043135 0.144684 0.043635
v -0.060759 0.142869 0.000954
v -0.043109 0.144706 -0.042342
v -0.000219 0.256178 -0.081114
v 0.057966 0.256366 -0.057600
v 0.081861 0.256364 0.000597
v 0.057889 0.256359 0.058673
v -0.000197 0.256304 0.082543
v -0.058350 0.256300 0.058871
v -0.082218 0.256363 0.000606
v -0.058222 0.256472 -0.057534
v -0.000308 0.298523 -0.055980
v 0.039253 0.302835 -0.038783
v 0.055545 0.302829 0.000601
v 0.039215 0.302828 0.039984
v -0.000110 0.302836 0.055981
v -0.039621 0.302877 0.040102
v -0.055858 0.302827 0.000606
v -0.039531 0.302734 -0.038683
v -0.000435 0.325231 -0.051250
v 0.037008 0.328181 -0.036301
v 0.051541 0.328884 0.000628
v 0.036472 0.328822 0.037246
v 0.005872 0.321578 0.051542
v -0.036773 0.328825 0.037186
v -0.051987 0.328824 0.000604
v -0.036957 0.328541 -0.036249
v 0.051543 0.219003 -0.064146
v 0.081185 0.208178 0.000631
v 0.058048 0.207576 0.057771
v 0.000258 0.210450 0.080308
v -0.057401 0.208252 0.057657
v -0.081689 0.208109 0.000609
v -0.057714 0.208183 -0.056952
v -0.000176 0.208200 -0.080737
v 0.051141 0.006921 -0.050683
v 0.072314 0.008499 0.000603
v 0.049076 0.007530 0.050156
v -0.000203 0.009601 0.059937
v -0.051506 0.008905 0.051973
v -0.063105 0.009358 0.001524
v -0.051476 0.008794 -0.050624
v 0.007893 0.011011 -0.063263
v -0.000223 0.360803 -0.068091
v 0.044229 0.346784 -0.049591
v 0.068041 0.361369 0.000586
v 0.047999 0.361447 0.048773
v -0.048340 0.361405 0.048779
v -0.068289 0.361447 0.000605
v -0.048337 0.361447 -0.047563
v -0.000169 0.076985 -0.027110
v 0.019429 0.076985 -0.018992
v 0.027546 0.076985 0.000605
v -0.027883 0.076985 0.000605
v -0.019766 0.076985 -0.018992
v 0.019429 0.076985 0.020202
v -0.000169 0.076985 0.028320
v -0.019766 0.076985 0.020202
v -0.000169 0.183402 -0.068841
v 0.048937 0.183402 -0.048501
v 0.069278 0.183402 0.000605
v 0.048937 0.183403 0.049711
v -0.000169 0.183403 0.070051
v -0.049275 0.183403 0.049711
v -0.069615 0.183402 0.000605
v -0.049275 0.183402 -0.048501
v -0.000169 0.254966 -0.072416
v 0.051465 0.254966 -0.051029
v 0.072853 0.254966 0.000605
v 0.051465 0.254966 0.052239
v -0.000166 0.254916 0.073538
v -0.051797 0.254961 0.052230
v -0.073190 0.254966 0.000605
v -0.051802 0.254966 -0.051029
v -0.000175 0.299726 -0.049041
v 0.035067 0.299741 -0.034610
v 0.049591 0.299737 0.000602
v 0.035012 0.299738 0.035789
v -0.000133 0.299710 0.049964
v -0.035377 0.299749 0.035833
v -0.049913 0.299735 0.000605
v -0.035343 0.299735 -0.034569
v -0.000137 0.331380 -0.044952
v 0.033004 0.330063 -0.032159
v 0.045762 0.330831 0.000632
v 0.032397 0.330763 0.033170
v 0.005982 0.324283 0.046350
v -0.032694 0.330776 0.033107
v -0.046223 0.330763 0.000605
v -0.032734 0.330763 -0.031961
v 0.028199 0.000000 0.068328
v 0.039101 0.357308 0.060153
v 0.017002 0.015858 0.042102
v 0.011913 0.045895 0.029820
v 0.012436 0.079366 0.031605
v 0.022933 0.144943 0.056447
v 0.032287 0.243971 0.079179
v 0.020708 0.301720 0.050965
v 0.019729 0.328755 0.048218
v 0.032113 0.219074 0.078145
v 0.027476 0.008118 0.067650
v 0.037190 0.361365 0.056152
v 0.010483 0.076985 0.026320
v 0.026521 0.183403 0.065040
v 0.027902 0.254988 0.068393
v 0.018940 0.299716 0.046763
v 0.017389 0.330742 0.043387
v -0.028055 0.000000 0.067885
v -0.027557 0.357554 0.068141
v -0.020137 0.012789 0.042730
v -0.012343 0.045916 0.029962
v -0.012956 0.075361 0.031444
v -0.023287 0.144878 0.056518
v -0.032403 0.244087 0.078556
v -0.021055 0.301826 0.051416
v -0.019862 0.328572 0.047603
v -0.031704 0.216808 0.076535
v -0.028023 0.005628 0.067825
v -0.026814 0.361157 0.063552
v -0.010820 0.076985 0.026320
v -0.026859 0.183403 0.065040
v -0.028251 0.255007 0.068424
v -0.019280 0.299758 0.047021
v -0.017872 0.330650 0.042922
v 0.067581 0.000000 0.028925
v 0.067152 0.357228 0.028489
v 0.041422 0.015639 0.017859
v 0.029605 0.045677 0.013121
v 0.034640 0.089951 0.014504
v 0.055666 0.144885 0.023719
v 0.078238 0.243976 0.033066
v 0.050347 0.301797 0.021528
v 0.047484 0.328735 0.020345
v 0.077791 0.218965 0.032942
v 0.066954 0.008419 0.028255
v 0.063036 0.361447 0.026785
v 0.025546 0.076985 0.011257
v 0.064267 0.183402 0.027295
v 0.067583 0.254966 0.028669
v 0.045986 0.299735 0.019723
v 0.042553 0.330766 0.018303
v 0.067781 -0.000000 -0.024182
v 0.067633 0.356752 -0.027547
v 0.041244 0.015197 -0.016545
v 0.029037 0.045855 -0.011502
v 0.030825 0.075309 -0.012224
v 0.056040 0.144754 -0.022801
v 0.078231 0.243971 -0.031890
v 0.050263 0.301787 -0.020276
v 0.047107 0.329267 -0.018955
v 0.077431 0.219126 -0.031394
v 0.067803 0.007191 -0.024192
v 0.063590 0.360785 -0.025756
v 0.025546 0.076985 -0.010046
v 0.064267 0.183402 -0.026085
v 0.067583 0.254966 -0.027459
v 0.045897 0.299726 -0.018468
v 0.042087 0.331393 -0.016919
v 0.027574 -0.000000 -0.067724
v 0.030316 0.343852 -0.062407
v 0.017015 0.015458 -0.040833
v 0.011950 0.045859 -0.028660
v 0.012089 0.072245 -0.030248
v 0.024294 0.141264 -0.054322
v 0.032196 0.244126 -0.077836
v 0.020749 0.301663 -0.049842
v 0.019609 0.327859 -0.047869
v 0.032321 0.218952 -0.077615
v 0.027784 0.008370 -0.066252
v 0.029285 0.346766 -0.059822
v 0.010483 0.076985 -0.025110
v 0.026521 0.183402 -0.063830
v 0.027895 0.254966 -0.067147
v 0.018960 0.299741 -0.045619
v 0.017476 0.330072 -0.042759
v -0.038421 -0.000000 -0.059764
v -0.028328 0.356865 -0.067127
v -0.017335 0.015526 -0.040831
v -0.012254 0.045880 -0.028580
v -0.012251 0.075027 -0.030322
v -0.023316 0.144895 -0.055282
v -0.032569 0.243876 -0.077667
v -0.021320 0.297426 -0.050849
v -0.019833 0.324637 -0.047479
v -0.032415 0.218992 -0.077265
v -0.031649 0.010343 -0.059151
v -0.026366 0.361375 -0.062693
v -0.010820 0.076985 -0.025110
v -0.026859 0.183402 -0.063830
v -0.028232 0.254966 -0.067147
v -0.019289 0.299737 -0.045565
v -0.017850 0.330830 -0.042003
v -0.070853 -0.000000 -0.027348
v -0.067442 0.357265 -0.027248
v -0.041644 0.015711 -0.016536
v -0.029450 0.045883 -0.011525
v -0.031023 0.075365 -0.012181
v -0.056253 0.144806 -0.022594
v -0.078586 0.243984 -0.031884
v -0.050644 0.301784 -0.020294
v -0.047894 0.328701 -0.019182
v -0.078016 0.219016 -0.031656
v -0.070757 0.008382 -0.027274
v -0.063373 0.361447 -0.025575
v -0.025884 0.076985 -0.010046
v -0.064604 0.183402 -0.026085
v -0.067921 0.254966 -0.027459
v -0.046323 0.299735 -0.018513
v -0.042900 0.330763 -0.017095
v -0.069944 0.000000 0.029415
v -0.067487 0.357231 0.028489
v -0.041647 0.015680 0.017752
v -0.029426 0.045869 0.012722
v -0.031031 0.075367 0.013402
v -0.056312 0.144785 0.023831
v -0.078603 0.243978 0.033113
v -0.050679 0.301794 0.021528
v -0.047824 0.328733 0.020343
v -0.077932 0.219040 0.032814
v -0.069951 0.008420 0.029435
v -0.063373 0.361447 0.026785
v -0.025884 0.076985 0.011257
v -0.064604 0.183402 0.027295
v -0.067921 0.254966 0.028669
v -0.046323 0.299735 0.019723
v -0.042900 0.330763 0.018305
vt 0.970958 0.515424
vt 0.970958 0.551448
vt 0.946716 0.534990
vt 0.966316 0.419847
vt 0.948966 0.383407
vt 0.966316 0.374447
vt 0.965508 0.687598
vt 0.965508 0.734622
vt 0.948809 0.726971
vt 0.982082 0.901196
vt 0.973489 0.880895
vt 0.982082 0.839548
vt 0.214817 0.180004
vt 0.176691 0.155053
vt 0.214817 0.002679
vt 0.386082 0.510004
vt 0.358038 0.486304
vt 0.386082 0.352932
vt 0.724267 0.416817
vt 0.696950 0.385281
vt 0.724267 0.280529
vt 0.866339 0.163515
vt 0.847798 0.127190
vt 0.866339 0.055259
vt 0.935783 0.272888
vt 0.916475 0.237066
vt 0.935783 0.198606
vt 0.941357 0.551448
vt 0.923684 0.513219
vt 0.941357 0.476008
vt 0.937236 0.181405
vt 0.918388 0.143535
vt 0.937236 0.106271
vt 0.202600 0.904506
vt 0.182487 0.865959
vt 0.202600 0.826498
vt 0.275222 0.486492
vt 0.288126 0.467490
vt 0.288126 0.563426
vt 0.344796 0.260976
vt 0.386082 0.198606
vt 0.386082 0.347574
vt 0.538353 0.446931
vt 0.496049 0.384469
vt 0.538353 0.322377
vt 0.366515 0.940737
vt 0.343648 0.908520
vt 0.366515 0.904712
vt 0.204169 0.961326
vt 0.179180 0.948475
vt 0.204169 0.920967
vt 0.926436 0.789725
vt 0.945918 0.767753
vt 0.945918 0.832524
vt 0.117210 0.721141
vt 0.013111 0.720183
vt 0.013111 0.680728
vt 0.117210 0.679656
vt 0.983115 0.641066
vt 0.971321 0.612593
vt 0.983115 0.584121
vt 0.982661 0.744543
vt 0.970867 0.716070
vt 0.982661 0.687598
vt 0.983469 0.419847
vt 0.971675 0.391374
vt 0.983469 0.362902
vt 0.983024 0.098356
vt 0.971230 0.069884
vt 0.983024 0.041411
vt 0.351184 0.489683
vt 0.347946 0.474274
vt 0.351184 0.458864
vt 0.007752 0.652971
vt 0.004514 0.637562
vt 0.007752 0.622153
vt 0.446524 0.637768
vt 0.443287 0.622359
vt 0.446524 0.606950
vt 0.351184 0.417328
vt 0.347946 0.401919
vt 0.351184 0.386510
vt 0.446525 0.601591
vt 0.443287 0.586182
vt 0.446525 0.570773
vt 0.227201 0.601812
vt 0.223963 0.586403
vt 0.227201 0.570994
vt 0.007752 0.616794
vt 0.004514 0.601385
vt 0.007752 0.585976
vt 0.351184 0.453506
vt 0.347946 0.438096
vt 0.351184 0.422687
vt 0.268299 0.914214
vt 0.266169 0.874376
vt 0.298223 0.881052
vt 0.298222 0.918899
vt 0.640685 0.325882
vt 0.640685 0.420664
vt 0.594937 0.398602
vt 0.609549 0.322377
vt 0.072495 0.946850
vt 0.072472 0.920728
vt 0.117881 0.919675
vt 0.117881 0.947974
vt 0.716701 0.916341
vt 0.723825 0.879866
vt 0.751963 0.879269
vt 0.751963 0.924592
vt 0.968130 0.844051
vt 0.968130 0.882457
vt 0.950212 0.882351
vt 0.950005 0.839548
vt 0.649596 0.474469
vt 0.695002 0.452290
vt 0.695002 0.540825
vt 0.663762 0.544596
vt 0.547342 0.474301
vt 0.593140 0.452290
vt 0.593140 0.547056
vt 0.561988 0.550570
vt 0.913885 0.434827
vt 0.913885 0.478827
vt 0.870073 0.463780
vt 0.872526 0.438457
vt 0.926653 0.333682
vt 0.974984 0.329644
vt 0.974984 0.355002
vt 0.926697 0.351566
vt 0.739030 0.517327
vt 0.812047 0.510353
vt 0.812047 0.551812
vt 0.738781 0.545426
vt 0.420137 0.957895
vt 0.420137 0.983292
vt 0.372163 0.979463
vt 0.372177 0.961586
vt 0.735564 0.839365
vt 0.808574 0.832425
vt 0.808574 0.873911
vt 0.735567 0.867710
vt 0.590873 0.316225
vt 0.547838 0.316225
vt 0.549125 0.304413
vt 0.590873 0.302276
vt 0.769806 0.164708
vt 0.814088 0.163455
vt 0.814088 0.191697
vt 0.767709 0.190472
vt 0.374311 0.906352
vt 0.400375 0.906141
vt 0.400375 0.952536
vt 0.372163 0.951818
vt 0.862370 0.191697
vt 0.819524 0.191503
vt 0.819447 0.173600
vt 0.862370 0.172730
vt 0.543713 0.428421
vt 0.592411 0.427563
vt 0.592411 0.446931
vt 0.543712 0.446225
vt 0.731689 0.142303
vt 0.759029 0.127895
vt 0.759029 0.185663
vt 0.729505 0.167606
vt 0.159344 0.598327
vt 0.122628 0.598001
vt 0.122713 0.587553
vt 0.159344 0.585976
vt 0.013134 0.847687
vt 0.013111 0.819412
vt 0.086150 0.813161
vt 0.086150 0.854668
vt 0.354523 0.952322
vt 0.354523 0.977760
vt 0.306352 0.973078
vt 0.306730 0.955209
vt 0.257666 0.954593
vt 0.257666 0.979971
vt 0.209528 0.975835
vt 0.209657 0.957949
vt 0.821912 0.322928
vt 0.819849 0.297153
vt 0.866207 0.296042
vt 0.866207 0.324285
vt 0.499164 0.949734
vt 0.499164 0.975073
vt 0.450566 0.969318
vt 0.451356 0.951419
vt 0.874132 0.895025
vt 0.914234 0.883731
vt 0.914234 0.924124
vt 0.876020 0.920345
vt 0.404785 0.650221
vt 0.388262 0.563241
vt 0.437321 0.576391
vt 0.437321 0.653884
vt 0.542479 0.311674
vt 0.508192 0.313885
vt 0.496567 0.217598
vt 0.542479 0.198606
vt 0.691591 0.322377
vt 0.691591 0.416817
vt 0.646044 0.395076
vt 0.659491 0.324808
vt 0.946804 0.312855
vt 0.916475 0.321128
vt 0.921482 0.279914
vt 0.946804 0.278247
vt 0.338289 0.942915
vt 0.306352 0.946963
vt 0.308652 0.907622
vt 0.338289 0.904712
vt 0.209528 0.862033
vt 0.209528 0.833771
vt 0.282572 0.827531
vt 0.282572 0.869017
vt 0.403926 0.124850
vt 0.391235 0.012553
vt 0.437925 0.023907
vt 0.437925 0.131762
vt 0.924154 0.888180
vt 0.926824 0.839548
vt 0.944646 0.840032
vt 0.944646 0.904803
vt 0.891193 0.877597
vt 0.873946 0.839548
vt 0.918795 0.848435
vt 0.918795 0.873784
vt 0.941797 0.086447
vt 0.903011 0.094473
vt 0.919157 0.055259
vt 0.941797 0.057033
vt 0.065964 0.471046
vt 0.065964 0.565930
vt 0.020109 0.543739
vt 0.034859 0.467490
vt 0.547838 0.220691
vt 0.593601 0.198606
vt 0.593601 0.293397
vt 0.562449 0.296917
vt 0.223963 0.489299
vt 0.269863 0.467490
vt 0.269863 0.561930
vt 0.238718 0.565635
vt 0.598960 0.219792
vt 0.644841 0.198606
vt 0.644841 0.292754
vt 0.613416 0.296307
vt 0.168379 0.435197
vt 0.168379 0.450942
vt 0.002679 0.462131
vt 0.002679 0.422676
vt 0.972490 0.237551
vt 0.941142 0.237949
vt 0.943190 0.198606
vt 0.972490 0.199363
vt 0.504839 0.812949
vt 0.503789 0.781602
vt 0.541983 0.782438
vt 0.541983 0.812797
vt 0.973942 0.145220
vt 0.942594 0.145614
vt 0.944643 0.106271
vt 0.973942 0.107035
vt 0.764525 0.277728
vt 0.811784 0.274077
vt 0.811784 0.299559
vt 0.763832 0.296084
vt 0.547729 0.943129
vt 0.547618 0.917035
vt 0.593123 0.915967
vt 0.593123 0.944236
vt 0.985369 0.906769
vt 0.985369 0.947464
vt 0.974276 0.946940
vt 0.973489 0.906555
vt 0.529202 0.818599
vt 0.541983 0.818308
vt 0.541983 0.862599
vt 0.529803 0.862595
vt 0.500210 0.177038
vt 0.391235 0.183479
vt 0.403546 0.137121
vt 0.500210 0.142659
vt 0.936706 0.623456
vt 0.934518 0.584121
vt 0.965962 0.584451
vt 0.965962 0.622613
vt 0.802708 0.926933
vt 0.802708 0.953099
vt 0.757321 0.954088
vt 0.757321 0.925826
vt 0.722723 0.969289
vt 0.720599 0.929951
vt 0.751963 0.930278
vt 0.751963 0.968579
vt 0.839911 0.504412
vt 0.839915 0.486528
vt 0.882792 0.486016
vt 0.882792 0.504994
vt 0.908460 0.979090
vt 0.865536 0.978741
vt 0.865557 0.960802
vt 0.908460 0.960231
vt 0.173738 0.404796
vt 0.173738 0.389050
vt 0.339437 0.377862
vt 0.339437 0.417317
vt 0.168379 0.282875
vt 0.002680 0.271686
vt 0.002679 0.255941
vt 0.168379 0.243420
vt 0.168379 0.327689
vt 0.002680 0.316500
vt 0.002679 0.300755
vt 0.168379 0.288234
vt 0.339437 0.435197
vt 0.339437 0.450942
vt 0.173738 0.462131
vt 0.173738 0.422676
vt 0.220176 0.002679
vt 0.385875 0.013867
vt 0.385875 0.029613
vt 0.220176 0.042135
vt 0.339437 0.372503
vt 0.173738 0.361315
vt 0.173738 0.345569
vt 0.339437 0.333048
vt 0.168379 0.417317
vt 0.002679 0.406129
vt 0.002680 0.390383
vt 0.168379 0.377862
vt 0.873082 0.324285
vt 0.871566 0.293074
vt 0.910908 0.293578
vt 0.910908 0.323030
vt 0.125846 0.706303
vt 0.125846 0.664817
vt 0.229945 0.665889
vt 0.229945 0.705344
vt 0.947910 0.055288
vt 0.965871 0.055259
vt 0.965871 0.098356
vt 0.947156 0.098125
vt 0.117210 0.632811
vt 0.117210 0.674297
vt 0.013111 0.673224
vt 0.013111 0.633769
vt 0.209528 0.922084
vt 0.254922 0.920967
vt 0.254922 0.949234
vt 0.209537 0.948243
vt 0.791788 0.504393
vt 0.791670 0.486511
vt 0.834552 0.485975
vt 0.834552 0.504994
vt 0.615088 0.183446
vt 0.615088 0.141961
vt 0.719188 0.143033
vt 0.719188 0.182488
vt 0.598499 0.612493
vt 0.702599 0.613452
vt 0.702599 0.652907
vt 0.598499 0.653979
vt 0.791670 0.441811
vt 0.864714 0.434827
vt 0.864714 0.476313
vt 0.791670 0.470072
vt 0.288024 0.820496
vt 0.360950 0.813718
vt 0.360950 0.855237
vt 0.287931 0.848977
vt 0.771044 0.659166
vt 0.844140 0.652142
vt 0.844140 0.693628
vt 0.771104 0.687388
vt 0.865664 0.779853
vt 0.823434 0.780019
vt 0.824877 0.767753
vt 0.865664 0.769795
vt 0.013111 0.952814
vt 0.061898 0.946202
vt 0.061898 0.971516
vt 0.014181 0.970631
vt 0.547618 0.832046
vt 0.620662 0.825062
vt 0.620662 0.866548
vt 0.547618 0.860307
vt 0.657108 0.866922
vt 0.657128 0.838623
vt 0.730151 0.832425
vt 0.730151 0.873905
vt 0.450686 0.917593
vt 0.495977 0.915894
vt 0.495977 0.944375
vt 0.450566 0.943421
vt 0.298223 0.963040
vt 0.266601 0.963451
vt 0.269369 0.924258
vt 0.298223 0.924878
vt 0.951394 0.789721
vt 0.969270 0.789544
vt 0.969270 0.831968
vt 0.951277 0.832524
vt 0.934518 0.577926
vt 0.934570 0.560010
vt 0.977416 0.559800
vt 0.977416 0.578762
vt 0.407853 0.952238
vt 0.405734 0.906769
vt 0.433953 0.906141
vt 0.433953 0.952513
vt 0.117269 0.627452
vt 0.013247 0.626873
vt 0.013111 0.587418
vt 0.117269 0.585976
vt 0.943608 0.419847
vt 0.905418 0.410610
vt 0.914307 0.380723
vt 0.943608 0.380682
vt 0.013449 0.910907
vt 0.054662 0.904178
vt 0.054662 0.940843
vt 0.013111 0.936232
vt 0.522005 0.923380
vt 0.510519 0.871833
vt 0.539916 0.872816
vt 0.539916 0.922049
vt 0.339404 0.664817
vt 0.339404 0.706303
vt 0.235304 0.705230
vt 0.235304 0.665775
vt 0.596414 0.314602
vt 0.596232 0.302423
vt 0.639710 0.302276
vt 0.639710 0.315873
vt 0.385876 0.086948
vt 0.220176 0.075760
vt 0.220176 0.060014
vt 0.385876 0.047493
vt 0.918325 0.510353
vt 0.918325 0.551448
vt 0.878527 0.540026
vt 0.880171 0.514692
vt 0.404370 0.328886
vt 0.438579 0.322377
vt 0.438579 0.430232
vt 0.391441 0.437283
vt 0.220176 0.092307
vt 0.385876 0.103496
vt 0.385876 0.119241
vt 0.220176 0.131762
vt 0.014558 0.572167
vt 0.006244 0.571983
vt 0.006793 0.552464
vt 0.014558 0.548986
vt 0.171492 0.953717
vt 0.171492 0.979044
vt 0.123240 0.974148
vt 0.123481 0.956267
vt 0.117881 0.978680
vt 0.069855 0.975312
vt 0.069642 0.957394
vt 0.117881 0.953333
vt 0.386082 0.515362
vt 0.386082 0.556801
vt 0.348344 0.544775
vt 0.345051 0.521917
vt 0.456197 0.013406
vt 0.491134 0.012553
vt 0.491134 0.112099
vt 0.443284 0.125795
vt 0.547618 0.659338
vt 0.651717 0.660296
vt 0.651717 0.699751
vt 0.547618 0.700824
vt 0.173738 0.270354
vt 0.173738 0.254608
vt 0.339437 0.243420
vt 0.339437 0.282875
vt 0.218604 0.469627
vt 0.218604 0.582751
vt 0.173738 0.563129
vt 0.184263 0.467490
vt 0.173738 0.315168
vt 0.173738 0.299423
vt 0.339437 0.288234
vt 0.339437 0.327689
vt 0.872706 0.146973
vt 0.913029 0.135935
vt 0.913029 0.181405
vt 0.871698 0.172311
vt 0.492361 0.747569
vt 0.388270 0.746637
vt 0.388262 0.707182
vt 0.492361 0.706088
vt 0.541983 0.565414
vt 0.507956 0.565266
vt 0.496049 0.471361
vt 0.541983 0.452290
vt 0.951982 0.741871
vt 0.964215 0.741856
vt 0.964215 0.784156
vt 0.951277 0.784185
vt 0.700074 0.978624
vt 0.657108 0.978261
vt 0.657234 0.960333
vt 0.700074 0.959731
vt 0.735657 0.820079
vt 0.735564 0.791836
vt 0.808662 0.785580
vt 0.808662 0.827066
vt 0.955939 0.047541
vt 0.924474 0.047696
vt 0.927217 0.007895
vt 0.955939 0.008133
vt 0.543712 0.344503
vt 0.589578 0.322377
vt 0.589578 0.417160
vt 0.558518 0.420569
vt 0.437927 0.317018
vt 0.401249 0.313316
vt 0.391441 0.216851
vt 0.437927 0.198606
vt 0.382903 0.681653
vt 0.348915 0.678886
vt 0.350790 0.565732
vt 0.382903 0.563241
vt 0.607568 0.884988
vt 0.651378 0.871906
vt 0.651378 0.914226
vt 0.610011 0.910309
vt 0.553378 0.116456
vt 0.596473 0.116783
vt 0.596473 0.134632
vt 0.547773 0.135180
vt 0.229945 0.659458
vt 0.125846 0.658499
vt 0.125846 0.619044
vt 0.229945 0.617972
vt 0.972872 0.425206
vt 0.983977 0.425297
vt 0.983977 0.466080
vt 0.971675 0.466284
vt 0.767072 0.388078
vt 0.840108 0.381094
vt 0.840108 0.422580
vt 0.767012 0.416303
vt 0.220176 0.164055
vt 0.220176 0.148309
vt 0.385876 0.137121
vt 0.385876 0.176576
vt 0.117269 0.470981
vt 0.117269 0.565772
vt 0.071323 0.543959
vt 0.086018 0.467490
vt 0.955410 0.950396
vt 0.924154 0.948345
vt 0.926226 0.911258
vt 0.955410 0.910162
vt 0.339437 0.470923
vt 0.339437 0.565747
vt 0.293547 0.543825
vt 0.308302 0.467490
vt 0.601922 0.124738
vt 0.601832 0.116561
vt 0.643949 0.116456
vt 0.643949 0.130406
vt 0.906139 0.653249
vt 0.951526 0.652142
vt 0.951526 0.680403
vt 0.906139 0.679414
vt 0.914234 0.929482
vt 0.914234 0.954872
vt 0.865536 0.949281
vt 0.866552 0.931506
vt 0.598499 0.474378
vt 0.644237 0.452290
vt 0.644237 0.547115
vt 0.613104 0.550575
vt 0.170344 0.610754
vt 0.165805 0.588110
vt 0.218604 0.589184
vt 0.218604 0.607112
vt 0.651749 0.706183
vt 0.651749 0.747642
vt 0.547618 0.746281
vt 0.547727 0.706826
vt 0.921228 0.466088
vt 0.919244 0.434827
vt 0.959478 0.434944
vt 0.959478 0.464120
vt 0.657108 0.820063
vt 0.657201 0.791821
vt 0.730206 0.785580
vt 0.730206 0.827066
vt 0.993224 0.533197
vt 0.993224 0.578762
vt 0.983167 0.578660
vt 0.982775 0.533192
vt 0.928224 0.752822
vt 0.926436 0.695082
vt 0.943450 0.687598
vt 0.943450 0.762394
vt 0.924154 0.959757
vt 0.972132 0.955755
vt 0.972132 0.981155
vt 0.924156 0.977676
vt 0.457237 0.310860
vt 0.443286 0.198606
vt 0.491208 0.211825
vt 0.491208 0.311370
vt 0.489487 0.555998
vt 0.454994 0.558135
vt 0.443938 0.461946
vt 0.489487 0.442880
vt 0.076442 0.882067
vt 0.117881 0.873478
vt 0.117881 0.914317
vt 0.077052 0.907406
vt 0.013484 0.800758
vt 0.013111 0.772616
vt 0.086385 0.766326
vt 0.086385 0.807802
vt 0.547618 0.955269
vt 0.596226 0.949595
vt 0.596226 0.974944
vt 0.548379 0.973156
vt 0.986894 0.678640
vt 0.974670 0.680403
vt 0.970927 0.658679
vt 0.986894 0.649165
vt 0.339404 0.659458
vt 0.235304 0.658500
vt 0.235304 0.619045
vt 0.339404 0.617972
vt 0.123240 0.947404
vt 0.123244 0.921027
vt 0.168630 0.920084
vt 0.168630 0.948358
vt 0.450566 0.859491
vt 0.450573 0.831221
vt 0.523610 0.824988
vt 0.523610 0.866474
vt 0.339437 0.211127
vt 0.339437 0.226873
vt 0.173738 0.238061
vt 0.173738 0.198606
vt 0.650937 0.825138
vt 0.650937 0.866548
vt 0.626021 0.850801
vt 0.626083 0.819897
vt 0.490690 0.435389
vt 0.456346 0.437521
vt 0.443938 0.342108
vt 0.490690 0.322377
vt 0.878452 0.015694
vt 0.919115 0.007895
vt 0.919115 0.048819
vt 0.878062 0.041173
vt 0.644508 0.016043
vt 0.644508 0.110808
vt 0.598782 0.088759
vt 0.613337 0.012553
vt 0.603278 0.957769
vt 0.651378 0.953215
vt 0.651378 0.978656
vt 0.603631 0.975704
vt 0.986348 0.004615
vt 0.986348 0.036052
vt 0.971230 0.026312
vt 0.973615 0.003466
vt 0.115385 0.193247
vt 0.002679 0.183495
vt 0.003441 0.149204
vt 0.115385 0.132592
vt 0.339437 0.612613
vt 0.235337 0.611741
vt 0.235304 0.572286
vt 0.339437 0.571106
vt 0.657108 0.927218
vt 0.702495 0.926111
vt 0.702495 0.954372
vt 0.657108 0.953383
vt 0.372170 0.849743
vt 0.372163 0.821472
vt 0.445207 0.815231
vt 0.445207 0.856718
vt 0.002679 0.198606
vt 0.168379 0.209794
vt 0.168379 0.225540
vt 0.002680 0.238061
vt 0.759781 0.977709
vt 0.759742 0.959836
vt 0.802708 0.959447
vt 0.802708 0.978354
vt 0.542414 0.014693
vt 0.542414 0.127822
vt 0.496493 0.108853
vt 0.508014 0.012553
vt 0.944576 0.190268
vt 0.942594 0.150973
vt 0.973924 0.151379
vt 0.973924 0.189567
vt 0.547773 0.034654
vt 0.593423 0.012553
vt 0.593423 0.107437
vt 0.562486 0.111097
vt 0.965101 0.279933
vt 0.965101 0.321129
vt 0.956923 0.321118
vt 0.952163 0.279954
vt 0.609730 0.141961
vt 0.609730 0.183479
vt 0.505569 0.182194
vt 0.505637 0.142739
vt 0.862165 0.618636
vt 0.862165 0.644022
vt 0.814844 0.641289
vt 0.813391 0.623519
vt 0.921295 0.361445
vt 0.875549 0.368742
vt 0.894190 0.329644
vt 0.921295 0.336105
vt 0.437321 0.444814
vt 0.437321 0.557882
vt 0.391441 0.538901
vt 0.403099 0.442642
vt 0.002679 0.359983
vt 0.002680 0.344237
vt 0.168379 0.333048
vt 0.168379 0.372503
vt 0.911587 0.715977
vt 0.869828 0.715865
vt 0.869831 0.703632
vt 0.911587 0.702380
vt 0.101487 0.833618
vt 0.174531 0.826634
vt 0.174531 0.868120
vt 0.101490 0.861885
vt 0.814021 0.927589
vt 0.858334 0.927023
vt 0.858334 0.955368
vt 0.814037 0.954904
vt 0.970534 0.280205
vt 0.982811 0.279403
vt 0.982811 0.321126
vt 0.970460 0.321128
vt 0.593140 0.559832
vt 0.593140 0.653979
vt 0.547618 0.632396
vt 0.562205 0.555929
vt 0.605875 0.946661
vt 0.605991 0.920574
vt 0.651378 0.919585
vt 0.651378 0.947856
vt 0.512750 0.968182
vt 0.510519 0.928738
vt 0.541823 0.929217
vt 0.541823 0.967401
vt 0.688903 0.427587
vt 0.688903 0.445506
vt 0.650514 0.446641
vt 0.646026 0.427101
vt 0.168379 0.467490
vt 0.168379 0.580617
vt 0.122628 0.561786
vt 0.132936 0.467693
vt 0.668863 0.315646
vt 0.650200 0.278242
vt 0.691144 0.285940
vt 0.691144 0.311254
vt 0.388262 0.700729
vt 0.388262 0.659243
vt 0.492362 0.660316
vt 0.492362 0.699771
vt 0.022810 0.115721
vt 0.002679 0.057452
vt 0.171332 0.002679
vt 0.171332 0.127233
vt 0.597770 0.428658
vt 0.640667 0.427101
vt 0.640667 0.446931
vt 0.598245 0.446538
vt 0.598499 0.607134
vt 0.598499 0.565648
vt 0.702599 0.566721
vt 0.702599 0.606176
vt 0.445207 0.752928
vt 0.445207 0.809872
vt 0.388262 0.809872
vt 0.388262 0.752927
vt 0.820495 0.143443
vt 0.842439 0.055259
vt 0.842439 0.158096
vt 0.897582 0.641576
vt 0.873046 0.614940
vt 0.897582 0.565648
vt 0.382903 0.797669
vt 0.361986 0.707623
vt 0.382903 0.687012
vt 0.897653 0.055259
vt 0.897653 0.130576
vt 0.871698 0.084589
vt 0.541983 0.776243
vt 0.509308 0.696149
vt 0.541983 0.685370
vt 0.817143 0.199154
vt 0.851166 0.198606
vt 0.851166 0.285108
vt 0.210007 0.910032
vt 0.209528 0.880728
vt 0.260811 0.874376
vt 0.260811 0.915608
vt 0.757784 0.884837
vt 0.808574 0.879269
vt 0.808574 0.920468
vt 0.757321 0.914190
vt 0.988079 0.727510
vt 0.988020 0.688809
vt 0.996890 0.687598
vt 0.996890 0.728827
vt 0.983204 0.152683
vt 0.988802 0.150973
vt 0.988802 0.201056
vt 0.979283 0.201498
vt 0.862960 0.832388
vt 0.814021 0.834189
vt 0.838409 0.785580
vt 0.862960 0.793695
vt 0.770603 0.757769
vt 0.771140 0.721525
vt 0.818075 0.706183
vt 0.818075 0.776027
vt 0.910265 0.567801
vt 0.929159 0.565648
vt 0.929159 0.620559
vt 0.902941 0.623456
vt 0.708053 0.920752
vt 0.657240 0.915097
vt 0.657108 0.885921
vt 0.708053 0.879264
vt 0.872703 0.049900
vt 0.821777 0.044654
vt 0.820495 0.015822
vt 0.872703 0.007895
vt 0.941145 0.269800
vt 0.941142 0.243488
vt 0.979835 0.243308
vt 0.979835 0.270623
vt 0.868587 0.839548
vt 0.868587 0.878372
vt 0.814532 0.871853
vt 0.814021 0.845792
vt 0.235304 0.732030
vt 0.236503 0.713048
vt 0.344929 0.711662
vt 0.344929 0.747105
vt 0.755176 0.636538
vt 0.708820 0.620754
vt 0.707958 0.584421
vt 0.755176 0.565648
vt 0.985359 0.230443
vt 0.994714 0.228622
vt 0.994714 0.270623
vt 0.985194 0.269235
vt 0.808032 0.635761
vt 0.760902 0.619950
vt 0.760535 0.583703
vt 0.808032 0.565648
vt 0.165122 0.132592
vt 0.165122 0.187765
vt 0.120744 0.164551
vt 0.135343 0.132694
vt 0.764306 0.250679
vt 0.764584 0.214395
vt 0.811784 0.198606
vt 0.811784 0.268718
vt 0.594803 0.819703
vt 0.548248 0.807802
vt 0.547618 0.771601
vt 0.594803 0.753001
vt 0.450566 0.802083
vt 0.451065 0.762332
vt 0.497791 0.752927
vt 0.497791 0.819629
vt 0.729505 0.111360
vt 0.744088 0.012553
vt 0.762350 0.019518
vt 0.762350 0.122536
vt 0.987826 0.515238
vt 0.987081 0.477311
vt 0.995907 0.476008
vt 0.995907 0.518014
vt 0.975136 0.830752
vt 0.974629 0.777709
vt 0.983260 0.776390
vt 0.983260 0.832524
vt 0.849970 0.657824
vt 0.900780 0.652142
vt 0.900780 0.693421
vt 0.849498 0.687068
vt 0.099519 0.818799
vt 0.091744 0.766326
vt 0.120606 0.769907
vt 0.120606 0.821015
vt 0.818346 0.546148
vt 0.817406 0.517440
vt 0.873168 0.510353
vt 0.873168 0.552354
vt 0.067677 0.860027
vt 0.067677 0.898819
vt 0.013111 0.891829
vt 0.013593 0.865733
vt 0.911116 0.285108
vt 0.856525 0.279193
vt 0.856525 0.253027
vt 0.911116 0.246407
vt 0.988619 0.816016
vt 0.989068 0.777317
vt 0.997321 0.776390
vt 0.997321 0.817448
vt 0.900059 0.419847
vt 0.845467 0.413837
vt 0.845467 0.387743
vt 0.900059 0.381094
vt 0.123651 0.879151
vt 0.174531 0.873478
vt 0.174531 0.914725
vt 0.123240 0.908417
vt 0.657108 0.772096
vt 0.657113 0.753117
vt 0.765237 0.745921
vt 0.765237 0.780221
vt 0.988500 0.585433
vt 0.997311 0.584121
vt 0.997311 0.625367
vt 0.988474 0.624139
vt 0.665900 0.012553
vt 0.684814 0.013902
vt 0.684814 0.119753
vt 0.649867 0.119765
vt 0.959353 0.678530
vt 0.956885 0.629558
vt 0.965568 0.630019
vt 0.965568 0.680403
vt 0.977539 0.995666
vt 0.977490 0.956964
vt 0.986356 0.955755
vt 0.986356 0.996987
vt 0.729626 0.299110
vt 0.729804 0.280095
vt 0.738486 0.279156
vt 0.738486 0.300360
vt 0.426758 0.900783
vt 0.372163 0.894882
vt 0.372175 0.868759
vt 0.426758 0.862076
vt 0.921078 0.762394
vt 0.870110 0.757096
vt 0.869828 0.727646
vt 0.921078 0.721336
vt 0.988523 0.042677
vt 0.997250 0.041411
vt 0.997250 0.082609
vt 0.988383 0.081378
vt 0.182639 0.803551
vt 0.182487 0.766974
vt 0.229945 0.751431
vt 0.229945 0.821139
vt 0.981722 0.476008
vt 0.981722 0.506367
vt 0.946716 0.504750
vt 0.947161 0.476535
vt 0.014750 0.467699
vt 0.014750 0.543627
vt 0.006245 0.542806
vt 0.006244 0.467490
vt 0.733422 0.543239
vt 0.714755 0.544596
vt 0.700361 0.445761
vt 0.733422 0.434827
vt 0.360950 0.899354
vt 0.306361 0.893423
vt 0.306352 0.867336
vt 0.360950 0.860596
vt 0.741901 0.309151
vt 0.761653 0.305719
vt 0.761653 0.413390
vt 0.729626 0.416817
vt 0.842551 0.329644
vt 0.870190 0.339079
vt 0.870190 0.373645
vt 0.819849 0.375735
vt 0.452116 0.588145
vt 0.499794 0.570773
vt 0.499794 0.641663
vt 0.451883 0.624350
vt 0.758947 0.232964
vt 0.650200 0.225762
vt 0.650804 0.205942
vt 0.758947 0.198606
vt 0.344796 0.354083
vt 0.351184 0.352932
vt 0.351184 0.381151
vt 0.345380 0.380389
vt 0.767709 0.064383
vt 0.767924 0.028225
vt 0.815074 0.012553
vt 0.815074 0.082721
vt 0.988192 0.280690
vt 0.997014 0.279403
vt 0.997014 0.320682
vt 0.988170 0.319443
vt 0.127369 0.718977
vt 0.229945 0.711662
vt 0.229945 0.746072
vt 0.127217 0.738344
vt 0.765244 0.740562
vt 0.657108 0.733146
vt 0.657132 0.714253
vt 0.765244 0.706183
vt 0.296340 0.802141
vt 0.287931 0.767011
vt 0.346816 0.752464
vt 0.346816 0.808359
vt 0.505161 0.871833
vt 0.505161 0.910535
vt 0.450566 0.903909
vt 0.450570 0.877749
vt 0.786311 0.504994
vt 0.739141 0.489389
vt 0.738781 0.453106
vt 0.786311 0.434827
vt 0.979301 0.105987
vt 0.988783 0.104362
vt 0.988783 0.145614
vt 0.980526 0.144726
vt 0.657521 0.686396
vt 0.657076 0.668400
vt 0.765685 0.659338
vt 0.765685 0.693628
vt 0.174531 0.821275
vt 0.128181 0.808930
vt 0.127217 0.769188
vt 0.174531 0.751431
vt 0.767709 0.139992
vt 0.767900 0.103648
vt 0.815136 0.088080
vt 0.815136 0.158096
vt 0.987773 0.879394
vt 0.987441 0.840572
vt 0.996312 0.839548
vt 0.996312 0.881036
vt 0.282572 0.822172
vt 0.235462 0.806492
vt 0.235304 0.770334
vt 0.282572 0.752464
vt 0.650238 0.264721
vt 0.650200 0.245813
vt 0.758331 0.238323
vt 0.758331 0.272883
vt 0.724146 0.012890
vt 0.724146 0.118741
vt 0.705215 0.119906
vt 0.690173 0.012553
vt 0.864469 0.706183
vt 0.864469 0.762394
vt 0.834241 0.760493
vt 0.823434 0.710404
vt 0.868812 0.821251
vt 0.868319 0.791945
vt 0.919603 0.785580
vt 0.919603 0.826809
vt 0.649142 0.755304
vt 0.649142 0.794002
vt 0.624471 0.801719
vt 0.600162 0.753001
vt 0.856525 0.237307
vt 0.856525 0.198606
vt 0.911116 0.205226
vt 0.911116 0.231392
vt 0.602209 0.871906
vt 0.602209 0.910608
vt 0.547618 0.903988
vt 0.547618 0.877822
vt 0.867687 0.578922
vt 0.867687 0.613023
vt 0.831111 0.613277
vt 0.813391 0.565648
vt 0.121245 0.760967
vt 0.013111 0.753502
vt 0.013148 0.734644
vt 0.121245 0.726500
vt 0.541983 0.572340
vt 0.541983 0.680012
vt 0.523461 0.677621
vt 0.505153 0.570773
vt 0.814491 0.375735
vt 0.767626 0.359880
vt 0.767012 0.323763
vt 0.814491 0.305719
vt 0.868773 0.921664
vt 0.814021 0.915840
vt 0.814220 0.890013
vt 0.868773 0.883731
vn 0.2392 0.1508 0.9592
vn -0.1879 -0.1155 -0.9754
vn 0.9889 -0.0665 0.1328
vn -0.0000 -1.0000 0.0000
vn 0.0003 -1.0000 -0.0012
vn -0.0012 -1.0000 0.0002
vn -0.0018 -1.0000 -0.0018
vn 0.0022 -1.0000 -0.0038
vn -0.0014 -1.0000 0.0021
vn 0.0008 -1.0000 0.0057
vn 0.0030 -1.0000 -0.0032
vn 0.0054 -1.0000 0.0022
vn 0.0036 -1.0000 -0.0024
vn 0.0041 -1.0000 -0.0014
vn 0.0044 -1.0000 0.0000
vn -0.0043 -1.0000 0.0005
vn 0.0058 -1.0000 0.0001
vn -0.0043 -1.0000 -0.0039
vn 0.0032 -1.0000 0.0012
vn -0.0032 -1.0000 -0.0011
vn -0.0017 -1.0000 -0.0026
vn -0.0031 -1.0000 0.0003
vn -0.0025 -1.0000 -0.0023
vn -0.0019 -1.0000 -0.0028
vn -0.0040 -1.0000 -0.0017
vn -0.0019 -1.0000 -0.0055
vn 0.0033 -1.0000 -0.0007
vn 0.1798 0.1059 0.9780
vn -0.1646 -0.1033 -0.9809
vn 0.9933 -0.1137 0.0222
vn 0.9816 0.0490 0.1843
vn 0.0000 1.0000 0.0000
vn -0.5230 0.1322 -0.8420
vn -0.8449 0.4687 -0.2578
vn 0.8196 -0.1181 -0.5607
vn 0.8197 -0.1179 -0.5605
vn 0.1225 -0.1530 -0.9806
vn 0.1890 -0.0629 -0.9800
vn -0.2559 0.4833 -0.8372
vn 0.7801 0.4685 0.4147
vn -0.1863 0.9720 -0.1435
vn -0.1860 0.9720 -0.1436
vn 0.7621 0.3878 -0.5184
vn 0.7614 0.3882 -0.5192
vn 0.7617 0.3880 -0.5189
vn -0.1543 -0.4576 -0.8757
vn -0.1717 0.3928 -0.9035
vn -0.1722 0.3926 -0.9035
vn -0.5029 -0.4540 0.7355
vn -0.2762 0.0225 0.9608
vn -0.8367 -0.1138 0.5357
vn -0.9732 -0.1233 0.1940
vn -0.9798 -0.0615 0.1905
vn 0.5673 -0.0623 0.8212
vn -0.0422 0.9692 -0.2426
vn -0.0424 0.9693 -0.2423
vn 0.9829 0.0118 -0.1838
vn -0.5023 -0.4551 -0.7353
vn -0.5029 -0.4554 -0.7347
vn -0.5032 -0.4556 -0.7343
vn -0.7549 0.3936 0.5246
vn -0.7548 0.3935 0.5248
vn -0.7550 0.3937 0.5244
vn -0.5195 0.3911 -0.7597
vn -0.1539 -0.1136 0.9815
vn -0.9092 0.3876 -0.1518
vn 0.1970 0.9584 0.2064
vn -0.3869 0.4774 -0.7889
vn -0.3859 0.4767 -0.7899
vn -0.3865 0.4771 -0.7893
vn -0.5170 -0.3021 -0.8009
vn 0.2290 0.4776 -0.8482
vn -0.1429 0.9747 -0.1720
vn 0.2067 0.1279 -0.9700
vn 0.8752 -0.4550 0.1643
vn 0.1580 -0.2892 0.9441
vn 0.7357 -0.0911 0.6711
vn -0.2676 0.9633 -0.0214
vn -0.0832 0.9581 0.2739
vn 0.4126 0.4708 0.7798
vn -0.8453 0.4686 0.2568
vn 0.4098 0.4706 -0.7814
vn -0.4090 0.4638 0.7859
vn -0.7702 0.3596 -0.5267
vn -0.9658 0.1277 0.2254
vn 0.5269 0.1075 -0.8431
vn 0.8423 0.1280 0.5235
vn 0.9100 0.3877 0.1472
vn -0.9764 -0.1183 -0.1808
vn -0.9763 -0.1182 -0.1811
vn -0.9763 -0.1178 -0.1816
vn 0.6202 0.1421 0.7714
vn -0.7722 0.0208 -0.6350
vn -0.7721 0.0204 -0.6351
vn -0.5096 -0.2889 0.8104
vn -0.8429 0.1313 0.5218
vn 0.9762 -0.1161 0.1833
vn 0.9659 0.1300 0.2237
vn 0.8235 -0.0622 -0.5640
vn -0.8241 -0.0566 -0.5636
vn -0.8236 -0.0570 -0.5642
vn -0.8239 -0.0567 -0.5638
vn -0.8243 -0.0565 -0.5634
vn -0.9171 0.3596 0.1722
vn 0.5267 0.3596 0.7702
vn -0.5267 0.3596 -0.7702
vn 0.7702 0.3596 0.5267
vn -0.1722 0.3596 0.9171
vn -0.9171 0.3596 -0.1722
vn 0.9171 0.3596 0.1722
vn -0.8442 0.1204 -0.5223
vn 0.9816 0.0490 -0.1843
vn -0.1715 -0.0533 0.9837
vn -0.8245 0.0490 -0.5638
vn -0.8201 -0.1164 -0.5602
vn 0.9807 -0.0645 -0.1845
vn 0.9806 -0.0648 -0.1851
vn 0.9805 -0.0650 -0.1856
vn -0.9816 0.0490 0.1843
vn -0.9816 0.0490 -0.1843
vn 0.7350 -0.4550 0.5027
vn 0.5070 -0.4533 -0.7331
vn 0.5068 -0.4531 -0.7334
vn -0.8744 -0.4557 0.1664
vn -0.8744 -0.4558 0.1661
vn -0.8744 -0.4559 0.1658
vn 0.5684 0.0805 -0.8188
vn 0.1457 0.3880 0.9101
vn 0.8752 -0.4550 -0.1643
vn 0.7358 -0.4544 -0.5020
vn 0.7354 -0.4547 -0.5024
vn 0.5570 -0.1273 -0.8207
vn -0.5125 0.1471 0.8460
vn -0.5127 0.1473 0.8458
vn -0.5130 0.1476 0.8456
vn -0.1973 -0.0616 -0.9784
vn -0.9799 -0.0609 -0.1898
vn 0.1723 -0.1232 0.9773
vn 0.1816 0.0489 -0.9821
vn -0.1508 0.1994 0.9682
vn 0.2549 0.9632 -0.0857
vn -0.1470 0.3830 0.9120
vn -0.5638 0.0490 0.8245
vn -0.9657 -0.0021 0.2598
vn 0.7702 0.3596 -0.5267
vn 0.1980 0.9608 0.1943
vn -0.1699 -0.2816 0.9444
vn -0.7702 0.3596 0.5267
vn -0.3306 0.8244 0.4595
vn 0.9038 0.3902 -0.1757
vn 0.5239 0.3892 -0.7576
vn -0.0411 0.9633 0.2652
vn -0.0412 0.9634 0.2649
vn -0.9318 -0.2991 -0.2054
vn -0.1843 0.0490 0.9816
vn 0.1722 0.3596 0.9171
vn 0.8057 -0.3061 0.5071
vn -0.5267 0.3596 0.7702
vn 0.2415 0.9568 -0.1619
vn 0.2412 0.9568 -0.1620
vn 0.8244 0.0490 -0.5639
vn 0.9316 -0.3014 0.2033
vn -0.7739 -0.0020 0.6333
vn -0.5667 -0.0583 0.8219
vn -0.1611 -0.4553 0.8757
vn -0.2187 0.1503 -0.9641
vn -0.7795 0.4703 -0.4136
vn 0.1827 -0.3024 -0.9355
vn 0.5609 -0.2944 -0.7738
vn -0.1848 0.9728 0.1394
vn 0.1797 -0.0537 0.9822
vn -0.8245 0.0490 0.5638
vn 0.7703 0.1378 0.6226
vn 0.1621 -0.4557 0.8752
vn 0.1628 -0.4554 0.8753
vn 0.9171 0.3596 -0.1722
vn -0.7821 0.4689 0.4105
vn 0.8551 0.1237 -0.5036
vn 0.7818 0.4696 -0.4102
vn 0.2744 0.0001 0.9616
vn 0.8199 -0.1161 0.5607
vn 0.5422 0.3944 0.7420
vn 0.8446 0.4685 -0.2590
vn -0.5494 0.4033 0.7318
vn -0.1822 0.0487 -0.9821
vn 0.9630 0.1347 -0.2334
vn -0.7368 -0.4553 0.4998
vn 0.8477 0.0074 -0.5304
vn -0.1026 0.3547 -0.9294
vn -0.1026 0.3546 -0.9294
vn -0.1572 0.1606 -0.9744
vn 0.1707 0.3914 -0.9043
vn 0.1712 0.3911 -0.9043
vn -0.9319 -0.2971 0.2081
vn -0.9319 -0.2970 0.2084
vn -0.7957 -0.2954 0.5287
vn -0.7960 -0.2953 0.5284
vn 0.1813 0.9617 -0.2053
vn 0.1484 -0.4557 -0.8777
vn -0.9089 0.3879 0.1531
vn -0.0529 0.2923 -0.9549
vn 0.5638 0.0490 0.8245
vn -0.5594 -0.1168 -0.8206
vn -0.8752 -0.4549 -0.1646
vn -0.8752 -0.4548 -0.1649
vn -0.1722 0.3596 -0.9171
vn 0.0716 0.9724 -0.2219
vn 0.5072 -0.3014 0.8074
vn 0.2498 0.9672 0.0470
vn 0.8455 0.4679 0.2573
vn -0.7562 0.3910 -0.5247
vn -0.4638 0.2068 -0.8614
vn 0.7655 -0.2770 -0.5808
vn -0.5646 0.0494 -0.8239
vn -0.5638 0.0490 -0.8245
vn -0.5640 0.0491 -0.8243
vn -0.5647 0.0495 -0.8238
vn 0.9762 -0.1161 -0.1833
vn 0.5032 -0.4551 0.7346
vn 0.5029 -0.4549 0.7349
vn 0.5026 -0.4547 0.7352
vn 0.1722 0.3596 -0.9171
vn -0.8238 -0.0605 0.5636
vn -0.7992 -0.3006 -0.5205
vn -0.9663 0.1256 -0.2247
vn 0.2519 0.4716 0.8451
vn -0.5606 0.0032 0.8281
vn 0.5652 0.0496 -0.8234
vn 0.5649 0.0494 -0.8237
vn 0.7326 0.3865 0.5602
vn -0.2642 0.9641 0.0252
vn -0.1974 -0.3028 -0.9324
vn 0.5267 0.3596 -0.7702
vn -0.9707 -0.0064 -0.2402
vn -0.7352 -0.4550 -0.5025
vn -0.5610 -0.1047 0.8212
vn 0.9818 0.0567 0.1811
vn -0.2522 0.4648 0.8487
vn 0.5586 -0.1180 0.8210
vn 0.5216 0.1239 0.8441
vn 0.5574 -0.0569 -0.8283
vn 0.9339 -0.2964 -0.1999
vn -0.0285 0.9515 0.3063
vn 0.8245 0.0490 0.5638
vn -0.0003 -1.0000 -0.0012
vn -0.0014 -1.0000 -0.0041
vn 0.0000 -1.0000 -0.0034
vn -0.5505 -0.0531 -0.8331
vn 0.1843 0.0490 0.9816
vn 0.7894 -0.3764 0.4849
vn 0.2673 0.5923 -0.7601
vn 0.8913 -0.3528 0.2847
vn -0.2784 -0.6034 0.7472
vn 0.7789 -0.3816 0.4976
vn 0.9037 -0.3792 0.1990
vn 0.6723 -0.5871 0.4510
vn 0.6722 -0.5869 0.4514
vn -0.7955 -0.5854 -0.1563
vn -0.6831 0.7189 0.1283
vn 0.4762 0.6651 -0.5752
vn 0.0433 0.6502 0.7585
vn -0.7778 -0.0303 0.6278
vn -0.4612 0.5779 -0.6733
vn 0.7814 -0.6052 -0.1523
vn -0.4399 -0.5892 0.6778
vn -0.3542 0.7787 0.5178
vn -0.3541 0.7786 0.5181
vn -0.7885 0.5976 0.1457
vn 0.9162 -0.3599 -0.1764
vn 0.9161 -0.3600 -0.1768
vn 0.7826 -0.0117 0.6224
vn -0.1250 0.7274 -0.6747
vn -0.9935 -0.0167 0.1128
vn 0.0931 -0.6203 -0.7788
vn -0.9936 -0.0153 -0.1117
vn 0.0829 -0.0457 0.9955
vn -0.1149 -0.0599 0.9916
vn -0.1145 -0.0595 0.9916
vn 0.2179 -0.3689 0.9036
vn -0.3781 0.7421 0.5535
vn -0.7769 0.2786 0.5647
vn 0.7923 -0.5899 0.1562
vn 0.7925 -0.5896 0.1558
vn 0.4494 -0.5846 0.6754
vn -0.1627 -0.5534 -0.8168
vn 0.1502 0.5973 0.7878
vn 0.8026 0.5772 0.1507
vn -0.5761 0.7160 -0.3944
vn -0.5765 0.7156 -0.3945
vn -0.8007 0.5800 -0.1501
vn -0.6714 -0.5878 0.4513
vn 0.7644 -0.3579 -0.5363
vn -0.5711 0.7221 0.3904
vn -0.9106 -0.3625 -0.1985
vn 0.3439 0.6630 -0.6649
vn 0.5739 0.7189 0.3921
vn 0.5736 0.7193 0.3920
vn 0.3874 0.7267 0.5672
vn 0.6730 0.5782 -0.4612
vn -0.6777 -0.5761 -0.4570
vn -0.6841 0.7179 -0.1288
vn -0.6840 0.7180 -0.1288
vn -0.6834 0.7187 -0.1285
vn -0.6835 0.7186 -0.1285
vn 0.0979 -0.0079 -0.9952
vn 0.0983 -0.0082 -0.9951
vn 0.3635 -0.7547 -0.5462
vn 0.3632 -0.7548 -0.5462
vn 0.7635 0.5104 0.3957
vn -0.1780 -0.3604 0.9157
vn 0.4596 0.5798 0.6728
vn 0.5704 -0.3589 -0.7388
vn 0.6953 -0.6539 -0.2983
vn 0.6215 -0.0207 0.7831
vn -0.5104 -0.3607 -0.7806
vn 0.4086 0.6872 -0.6007
vn -0.6220 -0.0162 -0.7828
vn 0.6823 0.7197 0.1286
vn 0.5016 -0.3769 0.7787
vn -0.5106 -0.3596 0.7810
vn 0.7815 -0.0301 -0.6232
vn 0.7813 -0.0297 -0.6234
vn -0.6741 0.5773 -0.4607
vn -0.6739 0.5774 -0.4609
vn -0.7811 -0.0184 -0.6241
vn -0.7813 -0.0186 -0.6239
vn -0.3937 0.7202 -0.5713
vn -0.1874 -0.3569 -0.9152
vn -0.5998 -0.0474 0.7988
vn -0.5995 -0.0478 0.7990
vn 0.9941 -0.0156 0.1076
vn 0.9941 -0.0154 0.1073
vn 0.6765 0.7251 -0.1288
vn -0.1062 -0.0109 -0.9943
vn -0.1065 -0.0111 -0.9943
vn -0.7759 -0.3611 0.5173
vn -0.9097 -0.3637 0.2002
vn -0.5171 -0.5539 -0.6526
vn -0.7943 -0.5870 0.1565
vn -0.7107 0.6532 0.2611
vn 0.6741 0.5772 0.4610
vn 0.8026 0.5772 -0.1507
vn 0.5957 0.0212 -0.8029
vn -0.7748 -0.3609 -0.5191
vn 0.1459 -0.3541 -0.9238
vn 0.9933 -0.0209 -0.1132
vn 0.4594 0.5828 -0.6703
g Vase_M_2_Vase_M_2_Collor_Material
usemtl Collor_Material
s off
f 142/1/1 68/2/1 60/3/1
f 150/4/2 131/5/2 151/6/2
f 34/7/3 172/8/3 26/9/3
f 1/10/4 203/11/4 3/12/5
f 3/13/6 186/14/7 9/15/8
f 186/16/9 5/17/10 9/18/11
f 5/19/12 169/20/4 9/21/13
f 169/22/4 7/23/4 9/24/14
f 7/25/4 135/26/4 9/27/15
f 9/28/16 152/29/4 10/30/17
f 10/31/18 254/32/4 12/33/19
f 12/34/20 237/35/4 14/36/21
f 14/37/22 220/38/4 12/39/23
f 220/40/4 1/41/4 12/42/24
f 9/43/25 10/44/26 12/45/27
f 142/46/28 143/47/28 68/48/28
f 150/49/29 123/50/29 131/51/29
f 34/52/30 173/53/30 172/54/30
f 117/55/31 109/56/31 250/57/31 251/58/31
f 95/59/32 99/60/32 98/61/32
f 97/62/32 96/63/32 95/64/32
f 101/65/32 100/66/32 97/67/32
f 98/68/32 102/69/32 101/70/32
f 99/71/32 249/72/32 98/73/32
f 95/74/32 232/75/32 99/76/32
f 96/77/32 215/78/32 95/79/32
f 97/80/32 198/81/32 96/82/32
f 100/83/32 181/84/32 97/85/32
f 101/86/32 147/87/32 100/88/32
f 102/89/32 164/90/32 101/91/32
f 98/92/32 266/93/32 102/94/32
f 228/95/33 227/96/33 63/97/33 71/98/33
f 244/99/34 243/100/34 54/101/34 62/102/34
f 270/103/35 132/104/35 124/105/36 269/106/35
f 131/107/37 123/108/37 167/109/37 168/110/37
f 207/111/38 206/112/38 24/113/38 32/114/38
f 48/115/39 226/116/39 227/117/39 56/118/39
f 51/119/40 175/120/40 176/121/40 59/122/40
f 86/123/41 247/124/42 239/125/42 23/126/42
f 189/127/43 188/128/44 17/129/44 25/130/45
f 150/131/46 149/132/46 115/133/46 123/134/46
f 16/135/47 222/136/48 223/137/48 24/138/48
f 218/139/49 217/140/49 112/141/49 120/142/49
f 9/143/50 135/144/50 145/145/50 83/146/50
f 128/147/51 120/148/51 201/149/51 202/150/51
f 129/151/52 202/152/52 201/153/52 121/154/52
f 38/155/53 30/156/53 257/157/53 258/158/53
f 27/159/54 35/160/54 139/161/54 138/162/54
f 16/163/55 87/164/55 230/165/56 222/166/55
f 5/167/57 186/168/57 196/169/57 81/170/57
f 150/171/58 122/172/59 114/173/60 149/174/59
f 256/175/61 21/176/62 29/177/62 257/178/63
f 222/179/64 23/180/64 31/181/64 223/182/64
f 219/183/65 127/184/65 119/185/65 218/186/65
f 239/187/66 22/188/66 30/189/66 240/190/66
f 137/191/67 145/192/67 82/193/67 19/194/67
f 227/195/68 226/196/69 55/197/70 63/198/70
f 225/199/71 47/200/71 78/201/71 229/202/71
f 210/203/72 209/204/72 48/205/72 56/206/72
f 230/207/73 86/208/73 23/209/73 222/210/73
f 210/211/74 56/212/74 64/213/74 211/214/74
f 252/215/75 125/216/75 117/217/75 251/218/75
f 140/219/76 144/220/76 75/221/76 44/222/76
f 35/223/77 27/224/77 172/225/77 173/226/77
f 85/227/78 264/228/78 256/229/78 22/230/78
f 154/231/79 162/232/79 83/233/79 20/234/79
f 142/235/80 141/236/80 51/237/80 59/238/80
f 54/239/81 260/240/81 261/241/81 62/242/81
f 49/243/82 209/244/82 210/245/82 57/246/82
f 53/247/83 158/248/83 159/249/83 61/250/83
f 181/251/84 100/252/84 106/253/84 182/254/84
f 62/255/85 261/256/85 262/257/85 70/258/85
f 57/259/86 210/260/86 211/261/86 65/262/86
f 59/263/87 176/264/87 177/265/87 67/266/87
f 172/267/88 171/268/88 18/269/88 26/270/88
f 185/271/89 129/272/90 121/273/91 184/274/90
f 135/275/92 7/276/92 82/277/92 145/278/92
f 86/279/93 14/280/93 237/281/94 247/282/93
f 157/283/95 161/284/95 76/285/95 45/286/95
f 262/287/96 261/288/96 61/289/96 69/290/96
f 253/291/97 133/292/97 125/293/97 252/294/97
f 177/295/98 176/296/98 58/297/98 66/298/98
f 189/299/99 25/300/99 33/301/99 190/302/99
f 39/303/100 31/304/101 240/305/102 241/306/103
f 198/307/104 97/308/104 105/309/104 199/310/104
f 110/311/105 99/312/105 232/313/105 233/314/105
f 106/315/106 100/316/106 147/317/106 148/318/106
f 249/319/107 99/320/107 110/321/107 250/322/107
f 103/323/108 95/324/108 215/325/108 216/326/108
f 105/327/109 97/328/109 181/329/109 182/330/109
f 109/331/110 98/332/110 249/333/110 250/334/110
f 63/335/111 244/336/111 245/337/111 71/338/111
f 117/339/112 268/340/112 267/341/112 109/342/112
f 155/343/113 28/344/113 36/345/113 156/346/113
f 114/347/114 183/348/114 182/349/114 106/350/114
f 185/351/115 184/352/115 122/353/115 130/354/115
f 26/355/116 189/356/117 190/357/118 34/358/117
f 113/359/119 200/360/119 199/361/119 105/362/119
f 113/363/120 105/364/120 182/365/120 183/366/120
f 252/367/121 251/368/121 118/369/121 126/370/121
f 167/371/122 166/372/122 116/373/123 124/374/122
f 201/375/124 200/376/125 113/377/126 121/378/124
f 3/379/127 203/380/127 213/381/127 80/382/127
f 28/383/128 20/384/128 137/385/128 138/386/128
f 269/387/129 268/388/129 117/389/129 125/390/129
f 269/391/130 124/392/130 116/393/131 268/394/130
f 168/395/132 167/396/132 124/397/132 132/398/132
f 61/399/133 159/400/134 160/401/135 69/402/134
f 24/403/136 223/404/136 224/405/136 32/406/136
f 240/407/137 30/408/137 38/409/137 241/410/137
f 236/411/138 235/412/138 119/413/138 127/414/138
f 115/415/139 107/416/139 165/417/139 166/418/139
f 160/419/140 159/420/140 60/421/140 68/422/140
f 18/423/141 81/424/141 196/425/141 188/426/141
f 155/427/142 154/428/142 20/429/142 28/430/142
f 112/431/143 217/432/143 216/433/143 104/434/143
f 247/435/144 237/436/144 12/437/144 85/438/144
f 108/439/145 102/440/145 266/441/145 267/442/145
f 82/443/146 179/444/146 171/445/146 19/446/146
f 157/447/147 44/448/147 75/449/147 161/450/147
f 104/451/148 96/452/148 198/453/148 199/454/148
f 143/455/149 151/456/149 131/457/149 68/458/149
f 18/459/150 188/460/150 189/461/150 26/462/150
f 205/463/151 206/464/151 25/465/151 17/466/151
f 84/467/152 162/468/153 154/469/152 21/470/152
f 242/471/154 46/472/154 77/473/154 246/474/154
f 111/475/155 103/476/155 216/477/155 217/478/155
f 232/479/156 95/480/156 103/481/156 233/482/156
f 174/483/157 178/484/157 74/485/157 43/486/157
f 215/487/158 96/488/158 104/489/158 216/490/158
f 188/491/159 196/492/160 80/493/160 17/494/160
f 116/495/161 108/496/161 267/497/161 268/498/161
f 174/499/162 42/500/162 73/501/162 178/502/162
f 264/503/163 254/504/163 10/505/163 84/506/163
f 37/507/164 29/508/164 155/509/164 156/510/164
f 218/511/165 119/512/165 111/513/165 217/514/165
f 56/515/166 227/516/166 228/517/166 64/518/166
f 55/519/167 243/520/167 244/521/167 63/522/167
f 208/523/168 40/524/168 79/525/168 212/526/168
f 212/527/169 72/528/169 41/529/169 208/530/169
f 256/531/170 264/532/170 84/533/170 21/534/170
f 36/535/171 28/536/171 138/537/171 139/538/171
f 112/539/172 104/540/172 199/541/172 200/542/172
f 82/543/173 7/544/173 169/545/173 179/546/173
f 235/547/174 234/548/174 111/549/175 119/550/174
f 266/551/176 98/552/176 109/553/176 267/554/176
f 261/555/177 260/556/177 53/557/177 61/558/177
f 193/559/178 57/560/178 65/561/178 194/562/178
f 193/563/179 192/564/179 49/565/179 57/566/179
f 162/567/180 152/568/180 9/569/180 83/570/180
f 253/571/181 252/572/181 126/573/181 134/574/181
f 137/575/182 19/576/182 27/577/182 138/578/182
f 50/579/183 192/580/183 193/581/183 58/582/183
f 21/583/184 154/584/184 155/585/184 29/586/184
f 115/587/185 149/588/185 148/589/185 107/590/185
f 58/591/186 193/592/186 194/593/186 66/594/186
f 201/595/187 120/596/187 112/597/187 200/598/187
f 186/599/188 3/600/188 80/601/188 196/602/188
f 230/603/189 87/604/190 1/605/191 220/606/191
f 206/607/192 205/608/192 16/609/193 24/610/192
f 259/611/194 263/612/194 77/613/195 46/614/194
f 259/615/196 45/616/197 76/617/196 263/618/196
f 17/619/198 80/620/198 213/621/198 205/622/198
f 167/623/199 123/624/199 115/625/199 166/626/199
f 30/627/200 22/628/200 256/629/200 257/630/200
f 213/631/201 203/632/201 1/633/201 87/634/201
f 118/635/202 110/636/202 233/637/202 234/638/202
f 151/639/203 130/640/203 122/641/203 150/642/203
f 184/643/204 121/644/205 113/645/204 183/646/204
f 147/647/206 101/648/206 107/649/206 148/650/206
f 205/651/207 213/652/207 87/653/207 16/654/207
f 140/655/208 43/656/208 74/657/208 144/658/208
f 171/659/209 179/660/209 81/661/209 18/662/209
f 176/663/210 175/664/210 50/665/210 58/666/210
f 31/667/211 23/668/211 239/669/211 240/670/211
f 86/671/212 230/672/212 220/673/212 14/674/212
f 195/675/213 191/676/213 41/677/213 72/678/213
f 114/679/214 106/680/215 148/681/216 149/682/217
f 270/683/218 269/684/218 125/685/218 133/686/218
f 235/687/219 126/688/219 118/689/220 234/690/221
f 107/691/222 101/692/222 164/693/222 165/694/222
f 257/695/223 29/696/223 37/697/223 258/698/223
f 242/699/224 246/700/224 78/701/224 47/702/224
f 245/703/225 244/704/225 62/705/225 70/706/225
f 52/707/226 141/708/226 142/709/226 60/710/226
f 10/711/227 152/712/227 162/713/227 84/714/227
f 116/715/228 166/716/229 165/717/229 108/718/229
f 19/719/230 171/720/230 172/721/230 27/722/230
f 239/723/231 247/724/231 85/725/231 22/726/231
f 225/727/232 229/728/232 79/729/232 40/730/232
f 164/731/233 102/732/233 108/733/233 165/734/233
f 12/735/234 254/736/234 264/737/234 85/738/234
f 184/739/235 183/740/235 114/741/235 122/742/235
f 219/743/236 218/744/236 120/745/236 128/746/236
f 179/747/237 169/748/237 5/749/237 81/750/237
f 159/751/238 158/752/238 52/753/238 60/754/238
f 236/755/239 134/756/239 126/757/239 235/758/239
f 143/759/240 142/760/240 59/761/240 67/762/240
f 25/763/241 206/764/241 207/765/241 33/766/241
f 191/767/242 195/768/242 73/769/242 42/770/242
f 83/771/243 145/772/243 137/773/243 20/774/243
f 118/775/244 251/776/244 250/777/244 110/778/244
f 1/779/4 3/780/245 9/781/246 12/782/247
f 31/783/248 39/784/248 224/785/248 223/786/248
f 111/787/249 234/788/249 233/789/249 103/790/249
f 97/791/32 95/792/32 98/793/32 101/794/32
f 173/795/250 43/796/250 35/797/250
f 131/798/251 168/799/251 163/800/251
f 42/801/252 173/802/252 34/803/252
f 68/804/253 153/805/253 160/806/253
f 173/807/254 174/808/254 43/809/254
f 42/810/255 174/811/255 173/812/255
f 67/813/256 177/814/256 170/815/257 8/816/256
f 70/817/258 13/818/258 238/819/258 245/820/258
f 265/821/259 93/822/259 13/823/259 255/824/259
f 214/825/260 204/826/260 2/827/260 88/828/260
f 214/829/261 88/830/261 127/831/261 219/832/261
f 260/833/262 263/834/262 76/835/262 53/836/262
f 146/837/263 91/838/263 130/839/263 151/840/263
f 6/841/264 66/842/264 194/843/264 187/844/264
f 11/845/265 69/846/265 160/847/265 153/848/265
f 89/849/266 214/850/266 219/851/267 128/852/266
f 90/853/268 197/854/268 202/855/268 129/856/268
f 34/857/269 190/858/269 191/859/270 42/860/269
f 74/861/271 178/862/271 175/863/271 51/864/271
f 88/865/272 2/866/272 221/867/272 231/868/272
f 77/869/273 263/870/273 260/871/273 54/872/273
f 64/873/274 2/874/274 204/875/274 211/876/274
f 243/877/275 246/878/275 77/879/275 54/880/275
f 75/881/276 144/882/276 141/883/276 52/884/276
f 158/885/277 161/886/278 75/887/278 52/888/278
f 44/889/279 36/890/279 139/891/279 140/892/279
f 163/893/280 92/894/280 11/895/280 153/896/280
f 143/897/281 136/898/281 146/899/281 151/900/281
f 66/901/282 6/902/283 170/903/283 177/904/283
f 136/905/284 143/906/284 67/907/284 8/908/284
f 64/909/285 228/910/285 221/911/285 2/912/285
f 88/913/286 231/914/286 236/915/286 127/916/286
f 93/917/287 133/918/287 253/919/287 248/920/287
f 248/921/288 94/922/288 15/923/289 238/924/288
f 90/925/290 129/926/290 185/927/290 180/928/290
f 69/929/291 11/930/291 255/931/291 262/932/291
f 190/933/292 33/934/292 41/935/292 191/936/292
f 265/937/293 255/938/293 11/939/293 92/940/293
f 241/941/294 38/942/294 46/943/294 242/944/294
f 89/945/295 197/946/295 187/947/295 4/948/295
f 180/949/296 91/950/297 8/951/297 170/952/297
f 91/953/298 146/954/298 136/955/298 8/956/298
f 92/957/299 132/958/299 270/959/299 265/960/299
f 15/961/300 71/962/300 245/963/300 238/964/300
f 248/965/301 238/966/302 13/967/303 93/968/304
f 209/969/305 212/970/306 79/971/305 48/972/305
f 65/973/307 211/974/308 204/975/308 4/976/308
f 131/977/309 163/978/309 153/979/309 68/980/309
f 156/981/310 36/982/310 44/983/310 157/984/310
f 94/985/311 134/986/311 236/987/311 231/988/311
f 33/989/312 207/990/312 208/991/312 41/992/312
f 194/993/313 65/994/313 4/995/313 187/996/313
f 144/997/314 74/998/314 51/999/314 141/1000/314
f 225/1001/315 224/1002/315 39/1003/315 47/1004/315
f 89/1005/316 4/1006/316 204/1007/316 214/1008/316
f 226/1009/317 229/1010/317 78/1011/317 55/1012/317
f 180/1013/318 170/1014/318 6/1015/318 90/1016/318
f 35/1017/319 43/1018/319 140/1019/319 139/1020/319
f 45/1021/320 37/1022/320 156/1023/320 157/1024/320
f 192/1025/321 195/1026/321 72/1027/322 49/1028/321
f 91/1029/323 180/1030/324 185/1031/323 130/1032/323
f 78/1033/325 246/1034/325 243/1035/326 55/1036/325
f 231/1037/327 221/1038/327 15/1039/327 94/1040/327
f 32/1041/328 224/1042/328 225/1043/328 40/1044/328
f 76/1045/329 161/1046/329 158/1047/330 53/1048/329
f 175/1049/331 178/1050/332 73/1051/332 50/1052/332
f 197/1053/333 90/1054/333 6/1055/333 187/1056/333
f 79/1057/334 229/1058/334 226/1059/335 48/1060/334
f 258/1061/336 37/1062/336 45/1063/336 259/1064/336
f 46/1065/337 38/1066/337 258/1067/337 259/1068/337
f 221/1069/338 228/1070/338 71/1071/338 15/1072/338
f 70/1073/339 262/1074/339 255/1075/339 13/1076/339
f 89/1077/340 128/1078/340 202/1079/340 197/1080/340
f 94/1081/341 248/1082/341 253/1083/341 134/1084/341
f 93/1085/342 265/1086/342 270/1087/342 133/1088/342
f 72/1089/343 212/1090/343 209/1091/343 49/1092/343
f 47/1093/344 39/1094/344 241/1095/344 242/1096/344
f 208/1097/345 207/1098/345 32/1099/345 40/1100/345
f 73/1101/346 195/1102/346 192/1103/346 50/1104/346
f 163/1105/347 168/1106/347 132/1107/347 92/1108/347
