# Blender v3.0.0 OBJ File: 'aa.blend'
# www.blender.org
mtllib Vase_S_2.mtl
o Vase_S_2
v 0.000474 0.038511 -0.032057
v 0.022521 0.038511 -0.022925
v 0.031654 0.038511 -0.000877
v 0.022521 0.038511 0.021171
v 0.000474 0.038511 0.030303
v -0.021574 0.038511 0.021171
v -0.030707 0.038511 -0.000877
v -0.021574 0.038511 -0.022925
v 0.000470 0.067439 -0.076018
v 0.053635 0.067410 -0.054042
v 0.075610 0.067443 -0.000879
v 0.053638 0.067413 0.052281
v 0.000474 0.067426 0.074284
v -0.052673 0.067426 0.052270
v -0.074687 0.067426 -0.000876
v -0.052673 0.067426 -0.054023
v 0.000291 0.096681 -0.095729
v 0.067942 0.097178 -0.068672
v 0.095328 0.096711 -0.001081
v 0.068328 0.097197 0.066679
v 0.000485 0.096910 0.094345
v -0.066919 0.096958 0.066533
v -0.094786 0.096932 -0.000880
v -0.066877 0.096926 -0.068205
v -0.010518 0.145744 -0.071366
v 0.050038 0.140682 -0.053181
v 0.072403 0.140731 -0.001529
v 0.052625 0.145247 0.051801
v 0.000466 0.137110 0.076306
v -0.052151 0.145473 0.051960
v -0.073695 0.145641 -0.000859
v -0.051855 0.145795 -0.053594
v 0.000575 0.160211 -0.081891
v 0.055234 0.155154 -0.059444
v 0.078828 0.155490 -0.001869
v 0.057681 0.160900 0.056050
v 0.000618 0.154767 0.081259
v -0.056849 0.160145 0.056119
v -0.080539 0.160756 -0.000944
v -0.060584 0.160335 -0.050166
v 0.015239 0.168219 -0.090577
v 0.068718 0.167546 -0.069272
v 0.097046 0.167603 -0.000784
v 0.068604 0.167478 0.067310
v 0.001619 0.155884 0.098725
v -0.065810 0.162560 0.068666
v -0.096035 0.167469 -0.000811
v -0.083675 0.167632 -0.029598
v 0.053335 0.011599 -0.053790
v 0.054388 -0.000000 -0.054788
v 0.069720 0.008920 0.005565
v 0.070604 0.000000 0.005568
v 0.053297 0.011095 0.051912
v 0.054369 0.000000 0.053060
v 0.003465 0.012329 0.055631
v 0.003473 0.000000 0.056780
v -0.052892 0.008088 0.052363
v -0.053463 0.000000 0.053080
v -0.074243 0.011152 -0.000929
v -0.075773 -0.000000 -0.000888
v -0.048264 0.011567 -0.050126
v -0.049255 -0.000000 -0.051118
v 0.000457 0.011910 -0.075712
v 0.005510 0.016604 -0.048505
v 0.031475 0.024891 -0.029026
v 0.037984 0.016875 -0.035041
v 0.038494 0.025025 -0.001080
v 0.046218 0.016288 -0.000867
v 0.027083 0.025024 0.025708
v 0.032954 0.017315 0.031624
v 0.000460 0.024931 0.036625
v 0.000490 0.016179 0.044828
v -0.026265 0.024945 0.025745
v -0.031893 0.016447 0.031587
v -0.039165 0.022634 -0.000391
v -0.047774 0.014921 -0.000232
v -0.028316 0.022617 -0.026739
v -0.034277 0.014533 -0.032720
v 0.005448 0.024907 -0.040166
v 0.028371 0.036358 -0.028404
v 0.038705 0.036141 -0.000702
v 0.027813 0.036297 0.026477
v 0.000473 0.036217 0.037865
v -0.026649 0.036327 0.026376
v -0.038475 0.036263 -0.000751
v -0.026908 0.036440 -0.028240
v 0.000458 0.036108 -0.039636
v 0.052919 0.060807 -0.057366
v 0.082617 0.064826 -0.000825
v 0.058617 0.064765 0.057196
v 0.000318 0.064303 0.081928
v -0.057061 0.065409 0.056671
v -0.082263 0.064318 -0.000667
v -0.057980 0.064056 -0.059770
v -0.005045 0.061487 -0.080800
v 0.000465 -0.000000 -0.077158
v 0.078486 0.106604 0.076926
v -0.007647 0.100162 0.110382
v -0.075330 0.098075 0.075042
v 0.110499 0.106609 -0.000615
v 0.073383 0.103221 -0.077682
v -0.005634 0.102549 -0.110281
v -0.080233 0.095958 -0.078990
v -0.111886 0.095761 -0.001938
v 0.072638 0.125563 0.071520
v -0.000110 0.121181 0.103411
v -0.070250 0.124789 0.069892
v 0.102846 0.125577 -0.001192
v 0.071940 0.125772 -0.072976
v 0.000471 0.124684 -0.101900
v -0.074472 0.114336 -0.073737
v -0.104873 0.114418 -0.001083
v 0.059088 0.146336 0.058190
v 0.000449 0.136729 0.088824
v -0.058415 0.146504 0.058243
v 0.082992 0.146277 -0.000828
v 0.058482 0.146178 -0.058179
v -0.011253 0.146226 -0.079326
v -0.057871 0.145910 -0.058723
v -0.081800 0.146050 -0.000965
v 0.060902 0.156846 0.059185
v 0.000617 0.150846 0.086711
v -0.060230 0.155817 0.059332
v 0.086491 0.156160 -0.000932
v 0.061454 0.155738 -0.062243
v 0.000119 0.156678 -0.086198
v -0.063524 0.156151 -0.053206
v -0.085370 0.156593 -0.000951
v 0.069665 0.162077 0.068284
v 0.001624 0.150878 0.100036
v -0.066708 0.157440 0.069565
v 0.098180 0.162816 -0.000854
v 0.069578 0.162799 -0.070005
v 0.014971 0.163128 -0.092676
v -0.085249 0.163085 -0.030676
v -0.097397 0.162403 -0.000827
vt 0.898062 0.104545
vt 0.857030 0.039829
vt 0.898062 0.003560
vt 0.192886 0.874251
vt 0.233012 0.818842
vt 0.233012 0.908010
vt 0.256768 0.191056
vt 0.330440 0.117450
vt 0.330440 0.368761
vt 0.921939 0.895156
vt 0.892049 0.798342
vt 0.921939 0.702786
vt 0.252793 0.117450
vt 0.252793 0.206982
vt 0.001988 0.191012
vt 0.663007 0.368816
vt 0.622109 0.287486
vt 0.663007 0.117504
vt 0.251173 0.001988
vt 0.251173 0.113474
vt 0.001988 0.034602
vt 0.224022 0.677684
vt 0.169596 0.591678
vt 0.224022 0.502851
vt 0.592044 0.979087
vt 0.575753 0.939756
vt 0.592044 0.900426
vt 0.019378 0.977547
vt 0.003087 0.938217
vt 0.019378 0.898886
vt 0.886761 0.937678
vt 0.870470 0.898348
vt 0.886761 0.859017
vt 0.908340 0.977793
vt 0.892049 0.938463
vt 0.908340 0.899132
vt 0.622953 0.104600
vt 0.533998 0.074617
vt 0.533984 0.032046
vt 0.622953 0.001988
vt 0.344119 0.001988
vt 0.344119 0.104627
vt 0.255149 0.074574
vt 0.255154 0.032003
vt 0.704850 0.672596
vt 0.704850 0.775194
vt 0.615891 0.745162
vt 0.615895 0.702591
vt 0.165620 0.658902
vt 0.165620 0.761520
vt 0.076658 0.731496
vt 0.076658 0.688925
vt 0.437064 0.104612
vt 0.348108 0.074622
vt 0.348095 0.032051
vt 0.437064 0.001988
vt 0.333895 0.644030
vt 0.333234 0.591802
vt 0.421794 0.561608
vt 0.421794 0.673616
vt 0.530008 0.001988
vt 0.530008 0.104605
vt 0.441040 0.074538
vt 0.441052 0.031967
vt 0.621192 0.504001
vt 0.620853 0.451212
vt 0.708835 0.422673
vt 0.708835 0.534417
vt 0.066158 0.780988
vt 0.004561 0.767985
vt 0.003240 0.665381
vt 0.066158 0.650869
vt 0.798828 0.391951
vt 0.737275 0.378955
vt 0.736011 0.276339
vt 0.798828 0.261973
vt 0.333234 0.793894
vt 0.333304 0.691276
vt 0.395503 0.677591
vt 0.395503 0.807718
vt 0.739031 0.232656
vt 0.740020 0.130044
vt 0.801713 0.117504
vt 0.801713 0.247601
vt 0.529603 0.437591
vt 0.616878 0.422673
vt 0.616877 0.552792
vt 0.523863 0.539214
vt 0.191688 0.368897
vt 0.191688 0.498875
vt 0.105371 0.480013
vt 0.092094 0.367644
vt 0.609463 0.273911
vt 0.609463 0.404611
vt 0.531848 0.392211
vt 0.516763 0.289492
vt 0.278135 0.898225
vt 0.282410 0.758872
vt 0.318520 0.753548
vt 0.318520 0.906259
vt 0.712811 0.684036
vt 0.713455 0.581398
vt 0.775667 0.568110
vt 0.775667 0.698810
vt 0.775079 0.832859
vt 0.712942 0.819226
vt 0.712811 0.716608
vt 0.775079 0.702786
vt 0.190016 0.681660
vt 0.190016 0.758107
vt 0.170248 0.751468
vt 0.169596 0.686523
vt 0.715891 0.001988
vt 0.715891 0.104606
vt 0.626929 0.074582
vt 0.626929 0.032011
vt 0.779055 0.818245
vt 0.779558 0.715648
vt 0.841139 0.702786
vt 0.841139 0.832276
vt 0.428043 0.131379
vt 0.521134 0.117450
vt 0.521134 0.247577
vt 0.427555 0.233138
vt 0.042535 0.784964
vt 0.042535 0.894910
vt 0.005715 0.870391
vt 0.003240 0.807723
vt 0.854121 0.541085
vt 0.842285 0.422064
vt 0.890356 0.413857
vt 0.890356 0.552681
vt 0.468591 0.789613
vt 0.468591 0.891726
vt 0.426342 0.864858
vt 0.426166 0.802146
vt 0.200626 0.239497
vt 0.252793 0.210958
vt 0.252793 0.354961
vt 0.188572 0.329616
vt 0.990436 0.196155
vt 0.976413 0.180342
vt 0.990436 0.119527
vt 0.042535 0.967299
vt 0.023354 0.907761
vt 0.042535 0.898886
vt 0.833273 0.681659
vt 0.832732 0.570403
vt 0.882089 0.556900
vt 0.882089 0.696318
vt 0.809007 0.020317
vt 0.853054 0.001988
vt 0.853054 0.104545
vt 0.802504 0.083480
vt 0.229433 0.929264
vt 0.249734 0.922757
vt 0.249734 0.985469
vt 0.229532 0.979766
vt 0.298859 0.989975
vt 0.278135 0.994541
vt 0.278377 0.944039
vt 0.298859 0.936300
vt 0.519887 0.422673
vt 0.519887 0.552163
vt 0.426494 0.517548
vt 0.426166 0.437283
vt 0.632722 0.938201
vt 0.652241 0.932793
vt 0.652241 0.995423
vt 0.632116 0.990138
vt 0.628140 0.932793
vt 0.628140 0.995554
vt 0.608412 0.989551
vt 0.608147 0.938724
vt 0.072171 0.922070
vt 0.072171 0.984621
vt 0.052613 0.979357
vt 0.051622 0.928037
vt 0.669547 0.783855
vt 0.704850 0.779170
vt 0.704850 0.927766
vt 0.669427 0.924348
vt 0.956334 0.415066
vt 0.977701 0.413857
vt 0.977701 0.513978
vt 0.956930 0.513234
vt 0.845669 0.860071
vt 0.866494 0.859017
vt 0.866494 0.963158
vt 0.845115 0.962182
vt 0.369168 0.932324
vt 0.278135 0.931772
vt 0.280015 0.911870
vt 0.369168 0.910235
vt 0.421794 0.427534
vt 0.421794 0.557632
vt 0.334824 0.541031
vt 0.334416 0.440626
vt 0.318520 0.646954
vt 0.318520 0.749572
vt 0.229558 0.719548
vt 0.229558 0.676977
vt 0.703964 0.668620
vt 0.616062 0.639838
vt 0.615891 0.587293
vt 0.703964 0.556768
vt 0.426166 0.639366
vt 0.426234 0.586164
vt 0.514011 0.556139
vt 0.514011 0.670124
vt 0.523863 0.639154
vt 0.524005 0.586321
vt 0.611915 0.556768
vt 0.611915 0.669740
vt 0.535145 0.966355
vt 0.534311 0.886093
vt 0.547854 0.881550
vt 0.547854 0.972472
vt 0.979157 0.270070
vt 0.979157 0.371394
vt 0.959121 0.370056
vt 0.958385 0.270810
vt 0.942388 0.003527
vt 0.958372 0.003113
vt 0.958372 0.114599
vt 0.937556 0.113367
vt 0.982405 0.003113
vt 0.982405 0.107288
vt 0.967906 0.106494
vt 0.962348 0.004088
vt 0.427196 0.910866
vt 0.426166 0.896382
vt 0.527944 0.895702
vt 0.527944 0.917791
vt 0.217580 0.915406
vt 0.217580 0.966235
vt 0.193251 0.965186
vt 0.192886 0.911986
vt 0.571777 0.881550
vt 0.571777 0.971082
vt 0.555796 0.970579
vt 0.551830 0.882869
vt 0.998012 0.703548
vt 0.998012 0.755489
vt 0.978174 0.755017
vt 0.977830 0.702786
vt 0.333234 0.833172
vt 0.381072 0.811694
vt 0.381072 0.899493
vt 0.335816 0.895749
vt 0.527264 0.921767
vt 0.527264 0.984178
vt 0.506642 0.978471
vt 0.506969 0.926999
vt 0.274159 0.922757
vt 0.274159 0.985473
vt 0.254193 0.978002
vt 0.253710 0.926602
vt 0.666983 0.287400
vt 0.732035 0.261973
vt 0.732035 0.404054
vt 0.683458 0.399761
vt 0.666983 0.242362
vt 0.667314 0.130838
vt 0.735055 0.117504
vt 0.735055 0.257997
vt 0.483338 0.928954
vt 0.502666 0.921767
vt 0.502666 0.985264
vt 0.482126 0.981097
vt 0.086466 0.809229
vt 0.076658 0.775020
vt 0.228435 0.765496
vt 0.228435 0.814866
vt 0.852123 0.400797
vt 0.802804 0.403025
vt 0.810699 0.266996
vt 0.852123 0.261973
vt 0.571777 0.779404
vt 0.571777 0.877574
vt 0.532331 0.869911
vt 0.523863 0.793935
vt 0.805689 0.243780
vt 0.806256 0.130193
vt 0.854855 0.117504
vt 0.854855 0.257961
vt 0.776120 0.538953
vt 0.776143 0.436335
vt 0.838309 0.422673
vt 0.838309 0.552681
vt 0.853489 0.846546
vt 0.845115 0.702786
vt 0.888073 0.710256
vt 0.888073 0.855041
vt 0.610916 0.775428
vt 0.525566 0.759507
vt 0.523863 0.706651
vt 0.610916 0.673716
vt 0.722568 0.434509
vt 0.772145 0.422673
vt 0.772145 0.560223
vt 0.712811 0.564134
vt 0.792955 0.569771
vt 0.828757 0.556900
vt 0.828757 0.698810
vt 0.779643 0.688283
vt 0.197819 0.689008
vt 0.218445 0.681660
vt 0.218445 0.746608
vt 0.193992 0.741752
vt 0.003240 0.607520
vt 0.010792 0.555319
vt 0.088118 0.532738
vt 0.088118 0.646893
vt 0.237321 0.773148
vt 0.274159 0.753548
vt 0.274159 0.918781
vt 0.237665 0.915058
vt 0.236850 0.387102
vt 0.330440 0.372737
vt 0.330440 0.502745
vt 0.236599 0.488923
vt 0.615891 0.784105
vt 0.652241 0.779170
vt 0.652241 0.928817
vt 0.615989 0.924562
vt 0.478445 0.805379
vt 0.515407 0.789613
vt 0.515407 0.888861
vt 0.472567 0.867864
vt 0.859462 0.255053
vt 0.858831 0.117504
vt 0.899992 0.118646
vt 0.899992 0.271130
vt 0.504656 0.785637
vt 0.426819 0.764884
vt 0.426166 0.711213
vt 0.504656 0.674100
vt 0.540511 0.129855
vt 0.618134 0.117504
vt 0.618134 0.247577
vt 0.525110 0.233207
vt 0.693779 0.984532
vt 0.669427 0.984546
vt 0.673447 0.932545
vt 0.693779 0.931742
vt 0.304209 0.988427
vt 0.302835 0.937044
vt 0.324043 0.936300
vt 0.324043 0.989045
vt 0.996758 0.255403
vt 0.976413 0.255141
vt 0.976520 0.203667
vt 0.996758 0.202858
vt 0.348928 0.988358
vt 0.348984 0.937029
vt 0.369168 0.936300
vt 0.369168 0.989133
vt 0.798528 0.001988
vt 0.798528 0.080649
vt 0.719867 0.080649
vt 0.719867 0.001988
vt 0.104203 0.900704
vt 0.131665 0.855533
vt 0.131665 0.950283
vt 0.188910 0.956571
vt 0.165388 0.907656
vt 0.188910 0.855533
vt 0.399516 0.775061
vt 0.421794 0.677591
vt 0.421794 0.783066
vt 0.088118 0.528762
vt 0.012561 0.511999
vt 0.013118 0.398015
vt 0.088118 0.380166
vt 0.518295 0.674100
vt 0.518295 0.779574
vt 0.508631 0.777748
vt 0.509643 0.675056
vt 0.188910 0.818842
vt 0.188910 0.851557
vt 0.084433 0.849698
vt 0.076658 0.822314
vt 0.182540 0.210958
vt 0.182540 0.363669
vt 0.096448 0.338817
vt 0.092094 0.224745
vt 0.318520 0.506721
vt 0.318520 0.642978
vt 0.245141 0.630854
vt 0.236599 0.519329
vt 0.972437 0.254951
vt 0.962475 0.255403
vt 0.963495 0.121815
vt 0.972437 0.119527
vt 0.388501 0.915619
vt 0.385047 0.811855
vt 0.417762 0.811694
vt 0.417762 0.923514
vt 0.808213 0.946473
vt 0.779949 0.943094
vt 0.779055 0.841338
vt 0.808213 0.836252
vt 0.927519 0.419466
vt 0.952358 0.413857
vt 0.952358 0.533114
vt 0.933885 0.537999
vt 0.426166 0.942286
vt 0.478150 0.921767
vt 0.478150 0.951893
vt 0.650953 0.412012
vt 0.637282 0.408540
vt 0.641438 0.385847
vt 0.650953 0.381146
vt 0.633306 0.418697
vt 0.623347 0.418199
vt 0.620853 0.388145
vt 0.633306 0.381146
vt 0.895113 0.536838
vt 0.894332 0.425020
vt 0.923543 0.413857
vt 0.923543 0.547448
vt 0.954409 0.407340
vt 0.932310 0.398430
vt 0.936148 0.281972
vt 0.954409 0.270070
vt 0.165620 0.502851
vt 0.165620 0.654926
vt 0.092094 0.631741
vt 0.093250 0.520002
vt 0.512787 0.418697
vt 0.426166 0.393616
vt 0.437672 0.292556
vt 0.512787 0.273911
vt 0.088118 0.210958
vt 0.088118 0.376190
vt 0.009787 0.349094
vt 0.001988 0.236392
vt 0.984057 0.558906
vt 0.984057 0.692323
vt 0.975316 0.691521
vt 0.974132 0.559886
vt 0.775079 0.841301
vt 0.775079 0.943121
vt 0.746451 0.931583
vt 0.745820 0.836835
vt 0.900411 0.393260
vt 0.901116 0.280957
vt 0.928334 0.275106
vt 0.928334 0.407340
vt 0.948501 0.829448
vt 0.948501 0.962938
vt 0.925915 0.954838
vt 0.925966 0.836697
vt 0.707727 0.931764
vt 0.707727 0.965356
vt 0.698216 0.962850
vt 0.697755 0.931742
vt 0.561533 0.269935
vt 0.427555 0.269811
vt 0.429300 0.260748
vt 0.561533 0.260524
vt 0.575753 0.790853
vt 0.611516 0.779404
vt 0.611516 0.892554
vt 0.582157 0.896450
vt 0.973854 0.820927
vt 0.955291 0.818642
vt 0.955136 0.707384
vt 0.973854 0.702786
vt 0.933580 0.113528
vt 0.904943 0.111345
vt 0.903968 0.009564
vt 0.933580 0.003113
vt 0.958499 0.119527
vt 0.958499 0.252944
vt 0.935812 0.243993
vt 0.935845 0.127434
vt 0.422190 0.273911
vt 0.422190 0.423558
vt 0.334416 0.404557
vt 0.334543 0.292549
vt 0.971577 0.946006
vt 0.952477 0.945464
vt 0.953033 0.831877
vt 0.971577 0.829448
vt 0.812189 0.940564
vt 0.812589 0.840158
vt 0.841042 0.836252
vt 0.841042 0.947248
vt 0.232075 0.498875
vt 0.195664 0.491886
vt 0.195683 0.380889
vt 0.232075 0.366663
vt 0.046511 0.902251
vt 0.053154 0.784964
vt 0.072171 0.788101
vt 0.072171 0.918094
vt 0.423579 0.269935
vt 0.334416 0.249431
vt 0.335749 0.137901
vt 0.423579 0.117450
vt 0.946501 0.556900
vt 0.946501 0.692323
vt 0.924089 0.684201
vt 0.923677 0.565498
vt 0.741844 0.970813
vt 0.720306 0.967461
vt 0.720839 0.848108
vt 0.741844 0.836835
vt 0.390035 0.984167
vt 0.379536 0.985715
vt 0.381304 0.928557
vt 0.390035 0.927490
vt 0.951160 0.706117
vt 0.951160 0.825472
vt 0.934464 0.822088
vt 0.925915 0.702786
vt 0.417762 0.981766
vt 0.394011 0.979856
vt 0.417762 0.927490
vt 0.100227 0.855533
vt 0.100227 0.973007
vt 0.076658 0.952698
vt 0.907680 0.239105
vt 0.903968 0.128946
vt 0.931836 0.117504
vt 0.931836 0.252944
vt 0.921939 0.899132
vt 0.921939 0.956633
vt 0.912644 0.955553
vt 0.913159 0.899668
vt 0.984901 0.829448
vt 0.984901 0.966717
vt 0.975597 0.965299
vt 0.975553 0.829859
vt 0.970156 0.575802
vt 0.970156 0.692323
vt 0.950477 0.689673
vt 0.953124 0.576141
vt 0.665451 0.912660
vt 0.656768 0.912038
vt 0.656698 0.779825
vt 0.665451 0.779170
vt 0.896435 0.406747
vt 0.858831 0.396131
vt 0.868155 0.286111
vt 0.896435 0.275106
vt 0.919701 0.659597
vt 0.891690 0.678139
vt 0.886065 0.572497
vt 0.919701 0.556900
vt 0.142348 0.868524
vt 0.161412 0.855533
vt 0.161412 0.967057
vt 0.141713 0.969561
vn -0.0886 0.9519 0.2934
vn 0.0428 0.9664 0.2533
vn 0.0000 -1.0000 0.0000
vn -0.0000 1.0000 -0.0000
vn -0.5359 0.8147 -0.2213
vn -0.2216 0.8149 -0.5356
vn -0.2221 0.8147 -0.5357
vn 0.2217 0.8146 0.5359
vn 0.5357 0.8148 0.2219
vn -0.2213 0.8148 0.5359
vn 0.5344 -0.8162 0.2197
vn 0.5345 -0.8160 0.2202
vn -0.5359 0.8148 0.2213
vn -0.5360 0.8146 0.2217
vn -0.5276 -0.8141 0.2424
vn -0.7834 0.5332 -0.3193
vn -0.3201 0.5326 0.7835
vn 0.7818 0.5330 -0.3236
vn 0.7820 0.5323 -0.3241
vn 0.7817 0.5334 -0.3232
vn -0.7830 0.5322 0.3220
vn -0.8559 -0.4113 -0.3136
vn -0.3106 -0.4555 0.8343
vn -0.3459 -0.3814 -0.8573
vn -0.3461 -0.3818 -0.8570
vn 0.8824 0.2339 -0.4083
vn -0.3220 0.5343 -0.7816
vn -0.3225 0.5336 -0.7818
vn 0.3234 0.5328 -0.7820
vn -0.3032 0.6866 -0.6608
vn 0.2219 0.8148 -0.5357
vn 0.3234 0.5311 0.7832
vn 0.3237 0.5307 0.7833
vn 0.8592 -0.3698 -0.3535
vn 0.8592 -0.3702 -0.3532
vn 0.2963 0.9540 -0.0447
vn -0.2993 0.6139 0.7305
vn 0.0809 0.9777 -0.1940
vn -0.3499 0.5623 -0.7492
vn -0.1424 0.9193 0.3669
vn 0.0935 0.9457 0.3113
vn 0.6866 0.6649 -0.2941
vn -0.2035 0.9732 0.1066
vn 0.2761 0.6951 -0.6638
vn 0.3762 0.1805 -0.9088
vn 0.3588 -0.3584 0.8618
vn 0.6883 0.6714 0.2749
vn -0.6540 0.7046 -0.2755
vn 0.2647 0.6807 0.6830
vn -0.8631 0.3567 -0.3575
vn -0.4619 0.1107 -0.8800
vn 0.3808 0.1130 -0.9177
vn 0.3809 0.1126 -0.9177
vn 0.3811 0.1121 -0.9177
vn 0.3811 0.1119 -0.9177
vn 0.0745 0.1007 0.9921
vn -0.8271 -0.4449 0.3435
vn -0.8274 -0.4445 0.3433
vn 0.5357 0.8148 -0.2219
vn -0.2409 -0.8146 0.5276
vn -0.2410 -0.8148 0.5273
vn -0.5228 -0.8248 -0.2156
vn 0.2270 -0.8191 0.5268
vn 0.2272 -0.8193 0.5264
vn 0.0138 0.9992 0.0386
vn -0.8785 0.1169 -0.4633
vn -0.8785 0.1165 -0.4633
vn 0.9603 0.1032 -0.2592
vn -0.9189 0.1152 0.3773
vn -0.0646 0.0926 0.9936
vn -0.9223 0.0445 -0.3839
vn 0.9394 0.1105 0.3244
vn 0.9225 -0.0583 0.3814
vn 0.2622 0.9632 0.0596
vn -0.2815 0.6592 0.6974
vn 0.7206 0.6717 -0.1720
vn -0.7689 0.5670 0.2955
vn -0.7660 0.5574 -0.3201
vn -0.6655 0.6899 0.2848
vn -0.8762 0.2713 0.3983
vn -0.4196 0.3260 0.8471
vn -0.0885 0.9873 -0.1318
vn 0.7001 0.6537 0.2874
vn 0.7820 0.5325 0.3240
vn -0.3778 0.3928 -0.8384
vn -0.2302 -0.8379 -0.4950
vn 0.2271 0.7203 -0.6555
vn 0.2710 0.6457 0.7139
vn -0.3723 -0.0891 -0.9238
vn 0.5388 -0.8135 -0.2190
vn 0.5384 -0.8137 -0.2191
vn 0.3516 0.2633 0.8984
vn 0.8581 -0.3708 0.3551
vn 0.8578 -0.3713 0.3554
vn 0.8610 0.3627 0.3566
vn -0.1354 0.9886 -0.0651
vn 0.3664 0.2261 -0.9026
vn 0.2090 -0.8231 -0.5280
vn 0.3475 -0.3739 -0.8599
vn -0.9071 0.0065 0.4208
vn 0.9461 0.1343 -0.2948
vn -0.3825 -0.0822 0.9203
vn 0.3806 -0.0945 0.9199
vn 0.4286 0.8881 0.1662
vn -0.4718 -0.8610 -0.1899
vn 0.2133 -0.8234 -0.5258
vn -0.6944 -0.6608 -0.2849
vn 0.3642 0.2778 -0.8889
vn 0.4220 0.3004 -0.8554
vn 0.7710 -0.5278 -0.3563
vn -0.3396 -0.6158 0.7109
vn 0.3790 0.2353 0.8950
vn 0.3789 0.2357 0.8949
vn -0.4273 0.3022 -0.8521
vn 0.8564 0.3797 -0.3499
vn 0.4383 0.0055 0.8988
vn 0.4387 0.0055 0.8986
vn 0.3927 0.9031 0.1737
vn 0.4356 0.5184 -0.7358
vn -0.7684 0.6346 -0.0832
vn -0.2145 0.9621 -0.1687
vn -0.3237 -0.9412 0.0970
vn -0.7073 -0.6193 0.3409
vn -0.2897 -0.5924 -0.7517
vn 0.3380 -0.5329 0.7758
vn 0.8990 0.2268 0.3746
vn 0.8462 0.4054 0.3458
vn 0.1313 0.9880 -0.0814
vn 0.5026 -0.8401 -0.2038
vn -0.5778 0.5174 -0.6313
vn -0.3777 0.2291 0.8971
vn -0.2250 0.5806 0.7825
vn 0.8604 -0.3630 -0.3577
vn -0.8609 0.3696 -0.3498
vn -0.8608 0.3699 -0.3497
vn 0.4324 -0.8834 0.1806
vn 0.7860 -0.5262 0.3245
vn 0.8938 -0.2492 0.3729
vn -0.8398 0.4134 0.3519
vn -0.5558 0.7999 0.2264
vn 0.2566 -0.5986 -0.7588
vn 0.3185 -0.5404 -0.7788
vn 0.1958 -0.9702 0.1424
vn -0.1086 -0.9931 0.0446
vn -0.4736 0.5639 -0.6766
vn -0.4725 0.5637 -0.6775
vn -0.4349 0.0088 0.9004
vn -0.4283 -0.8825 -0.1945
vn 0.1706 -0.8656 -0.4708
vn 0.3072 0.9474 -0.0896
vn -0.8789 0.3096 -0.3629
vn -0.8859 0.2314 0.4021
vn -0.8942 -0.2626 0.3624
vn 0.9014 0.2199 -0.3730
vn 0.9016 0.2193 -0.3730
vn 0.9015 0.2194 -0.3730
vn -0.4602 0.8609 -0.2172
vn -0.1926 0.7918 0.5796
vn -0.8831 -0.2940 -0.3658
vn -0.8829 -0.2944 -0.3658
g Vase_S_2_Vase_S_2_Collor_Material
usemtl Collor_Material
s off
f 55/1/1 74/2/1 57/3/1
f 70/4/2 55/5/2 53/6/2
f 96/7/3 50/8/3 60/9/3
f 60/10/3 62/11/3 96/12/3
f 52/13/3 54/14/3 60/15/3
f 54/16/3 56/17/3 60/18/3
f 50/19/3 52/20/3 60/21/3
f 56/22/3 58/23/3 60/24/3
f 5/25/4 4/26/4 3/27/4
f 3/28/4 2/29/4 1/30/4
f 1/31/4 8/32/4 7/33/4
f 7/34/4 6/35/4 5/36/4
f 11/37/5 3/38/5 4/39/5 12/40/5
f 13/41/6 12/42/6 4/43/6 5/44/7
f 9/45/8 16/46/8 8/47/8 1/48/8
f 16/49/9 15/50/9 7/51/9 8/52/9
f 9/53/10 1/54/10 2/55/10 10/56/10
f 82/57/11 81/58/11 89/59/11 90/60/12
f 11/61/13 10/62/13 2/63/13 3/64/14
f 85/65/15 84/66/15 92/67/15 93/68/15
f 19/69/16 11/70/16 12/71/16 20/72/16
f 17/73/17 9/74/17 10/75/17 18/76/17
f 14/77/18 15/78/19 23/79/18 22/80/20
f 10/81/21 11/82/21 19/83/21 18/84/21
f 27/85/22 19/86/22 20/87/22 28/88/22
f 17/89/23 18/90/23 26/91/23 25/92/23
f 20/93/24 21/94/24 29/95/25 28/96/24
f 109/97/26 108/98/26 100/99/26 101/100/26
f 12/101/27 13/102/27 21/103/28 20/104/27
f 21/105/29 13/106/29 14/107/29 22/108/29
f 64/109/30 78/110/30 77/111/30 79/112/30
f 14/113/31 13/114/31 5/115/31 6/116/31
f 16/117/32 9/118/33 17/119/32 24/120/32
f 30/121/34 22/122/34 23/123/34 31/124/35
f 51/125/36 49/126/36 66/127/36 68/128/36
f 114/129/37 115/130/37 107/131/37 106/132/37
f 49/133/38 63/134/38 64/135/38 66/136/38
f 118/137/39 110/138/39 111/139/39 119/140/39
f 55/141/40 72/142/40 74/143/40
f 70/144/41 72/145/41 55/146/41
f 117/147/42 116/148/42 108/149/42 109/150/42
f 76/151/43 59/152/43 57/153/43 74/154/43
f 65/155/44 66/156/44 64/157/44 79/158/44
f 80/159/45 65/160/45 79/161/45 87/162/45
f 24/163/46 17/164/46 25/165/46 32/166/46
f 69/167/47 70/168/47 68/169/47 67/170/47
f 78/171/48 76/172/48 75/173/48 77/174/48
f 72/175/49 70/176/49 69/177/49 71/178/49
f 111/179/50 103/180/50 104/181/50 112/182/50
f 63/183/51 96/184/51 62/185/51 61/186/51
f 49/187/52 50/188/53 96/189/54 63/190/55
f 56/191/56 54/192/56 53/193/56 55/194/56
f 18/195/57 19/196/57 27/197/58 26/198/57
f 15/199/59 14/200/59 6/201/59 7/202/59
f 92/203/60 84/204/61 83/205/61 91/206/61
f 86/207/62 85/208/62 93/209/62 94/210/62
f 83/211/63 82/212/64 90/213/64 91/214/64
f 32/215/65 25/216/65 118/217/65 119/218/65
f 62/219/66 60/220/66 59/221/66 61/222/67
f 51/223/68 52/224/68 50/225/68 49/226/68
f 60/227/69 58/228/69 57/229/69 59/230/69
f 57/231/70 58/232/70 56/233/70 55/234/70
f 77/235/71 75/236/71 85/237/71 86/238/71
f 54/239/72 52/240/72 51/241/72 53/242/72
f 69/243/73 67/244/73 81/245/73 82/246/73
f 70/247/74 53/248/74 51/249/74 68/250/74
f 74/251/75 72/252/75 71/253/75 73/254/75
f 68/255/76 66/256/76 65/257/76 67/258/76
f 120/259/77 112/260/77 107/261/77 115/262/77
f 120/263/78 119/264/78 111/265/78 112/266/78
f 75/267/79 76/268/79 74/269/79 73/270/79
f 112/271/80 104/272/80 99/273/80 107/274/80
f 107/275/81 99/276/81 98/277/81 106/278/81
f 63/279/82 61/280/82 78/281/82 64/282/82
f 116/283/83 113/284/83 105/285/83 108/286/83
f 15/287/84 16/288/84 24/289/84 23/290/84
f 111/291/85 110/292/85 102/293/85 103/294/85
f 95/295/86 87/296/86 86/297/86 94/298/86
f 117/299/87 109/300/87 110/301/87 118/302/87
f 114/303/88 106/304/88 105/305/88 113/306/88
f 87/307/89 79/308/89 77/309/89 86/310/89
f 81/311/90 80/312/91 88/313/91 89/314/91
f 106/315/92 98/316/92 97/317/92 105/318/92
f 31/319/93 23/320/94 24/321/93 32/322/93
f 105/323/95 97/324/95 100/325/95 108/326/95
f 78/327/96 61/328/96 59/329/96 76/330/96
f 110/331/97 109/332/97 101/333/97 102/334/97
f 88/335/98 80/336/98 87/337/98 95/338/98
f 29/339/99 21/340/99 22/341/99 30/342/99
f 85/343/100 75/344/100 73/345/100 84/346/100
f 67/347/101 65/348/101 80/349/101 81/350/101
f 84/351/102 73/352/102 71/353/102 83/354/102
f 71/355/103 69/356/103 82/357/103 83/358/103
f 5/359/4 3/360/4 1/361/4 7/362/4
f 48/363/104 39/364/104 40/365/104
f 128/366/105 135/367/105 127/368/105
f 125/369/106 134/370/106 133/371/106
f 103/372/107 94/373/107 93/374/107 104/375/107
f 133/376/108 134/377/108 41/378/108 42/379/108
f 37/380/109 29/381/109 30/382/109 38/383/109
f 101/384/110 100/385/110 89/386/110 88/387/110
f 98/388/111 99/389/111 92/390/111 91/391/111
f 129/392/112 44/393/113 45/394/112 130/395/112
f 28/396/114 29/397/114 37/398/114 36/399/114
f 38/400/115 30/401/115 31/402/115 39/403/115
f 122/404/116 114/405/117 113/406/117 121/407/117
f 48/408/118 47/409/118 39/410/118
f 32/411/119 119/412/119 127/413/119 40/414/119
f 33/415/120 126/416/120 118/417/120 25/418/120
f 36/419/121 37/420/121 45/421/121 44/422/121
f 136/423/122 128/424/122 123/425/122 131/426/122
f 99/427/123 104/428/123 93/429/123 92/430/123
f 102/431/124 95/432/124 94/433/124 103/434/124
f 97/435/125 98/436/125 91/437/125 90/438/125
f 129/439/126 132/440/126 43/441/126 44/442/126
f 31/443/127 32/444/127 40/445/127 39/446/127
f 37/447/128 38/448/128 46/449/128 45/450/128
f 133/451/129 132/452/129 124/453/129 125/454/129
f 33/455/130 41/456/130 134/457/130 126/458/130
f 131/459/131 130/460/131 45/461/131 46/462/131
f 33/463/132 25/464/132 26/465/132 34/466/132
f 124/467/133 116/468/133 117/469/133 125/470/133
f 35/471/134 27/472/135 28/473/135 36/474/135
f 132/475/136 129/476/136 121/477/136 124/478/136
f 100/479/137 97/480/137 90/481/137 89/482/137
f 121/483/138 113/484/138 116/485/138 124/486/138
f 26/487/139 27/488/139 35/489/139 34/490/139
f 42/491/140 34/492/140 35/493/140 43/494/140
f 126/495/141 125/496/141 117/497/141 118/498/141
f 101/499/142 88/500/142 95/501/142 102/502/142
f 129/503/143 130/504/143 122/505/143 121/506/143
f 131/507/144 123/508/144 122/509/144 130/510/144
f 40/511/145 127/512/146 135/513/146 48/514/146
f 122/515/147 123/516/147 115/517/147 114/518/147
f 128/519/148 136/520/148 135/521/148
f 125/522/149 126/523/149 134/524/149
f 38/525/150 39/526/150 47/527/150 46/528/150
f 135/529/151 136/530/151 47/531/151 48/532/151
f 136/533/152 131/534/152 46/535/152 47/536/152
f 123/537/153 128/538/153 120/539/153 115/540/153
f 133/541/154 42/542/154 43/543/155 132/544/156
f 43/545/157 35/546/157 36/547/157 44/548/157
f 41/549/158 33/550/158 34/551/158 42/552/158
f 127/553/159 119/554/160 120/555/160 128/556/160
