# Blender v3.0.0 OBJ File: 'aa.blend'
# www.blender.org
mtllib WaterVase_2.mtl
o WaterVase_2
v 0.134802 -0.000000 -0.185539
v 0.151666 0.904116 -0.208751
v 0.218115 -0.000000 -0.070869
v 0.277168 0.857069 -0.026591
v 0.218115 0.000000 0.070869
v 0.277168 0.857069 0.026591
v 0.134802 0.000000 0.185539
v 0.151666 0.904116 0.208751
v 0.205678 0.774683 -0.283092
v 0.255205 0.594619 -0.351260
v 0.252377 0.385098 -0.347368
v 0.202354 0.193869 -0.278516
v 0.301029 0.821730 -0.026591
v 0.382910 0.662076 -0.026591
v 0.408356 0.385098 -0.132683
v 0.327416 0.193869 -0.106384
v 0.301029 0.821730 0.026591
v 0.382910 0.662076 0.026591
v 0.408356 0.385098 0.132683
v 0.327416 0.193869 0.106384
v 0.205678 0.774684 0.283092
v 0.255205 0.594619 0.351260
v 0.252377 0.385098 0.347368
v 0.202354 0.193869 0.278516
v 0.157517 0.934046 -0.216804
v 0.254868 0.934046 -0.082812
v 0.254868 0.934046 0.082811
v 0.157517 0.934046 0.216804
v 0.187826 1.007252 -0.258520
v 0.303909 1.007252 -0.098746
v 0.303909 1.007252 0.098746
v 0.187826 1.007252 0.258520
v 0.173180 1.052185 -0.238362
v 0.280211 1.052185 -0.091046
v 0.280211 1.052185 0.091046
v 0.173180 1.052185 0.238362
v 0.124533 0.023657 -0.171405
v 0.133969 0.898309 -0.184392
v 0.201499 0.023657 -0.065471
v 0.216766 0.898309 -0.070432
v 0.201499 0.023657 0.065471
v 0.216766 0.898309 0.070432
v 0.124533 0.023657 0.171405
v 0.133969 0.898309 0.184392
v 0.189985 0.759603 -0.261492
v 0.237541 0.588526 -0.326947
v 0.234768 0.391630 -0.323130
v 0.186251 0.207643 -0.256353
v 0.307402 0.759603 -0.099881
v 0.384349 0.588526 -0.124883
v 0.379862 0.391630 -0.123425
v 0.301361 0.207643 -0.097918
v 0.307402 0.759603 0.099881
v 0.384349 0.588526 0.124883
v 0.379862 0.391630 0.123425
v 0.301361 0.207643 0.097918
v 0.189985 0.759604 0.261492
v 0.237541 0.588526 0.326947
v 0.234768 0.391630 0.323130
v 0.186251 0.207643 0.256353
v 0.141577 0.948357 -0.194863
v 0.229076 0.948357 -0.074431
v 0.229076 0.948357 0.074431
v 0.141577 0.948357 0.194863
v 0.158602 1.034152 -0.218298
v 0.256624 1.034152 -0.083382
v 0.256624 1.034152 0.083382
v 0.158602 1.034152 0.218297
v 0.245402 0.904116 0.079736
v 0.245402 0.904116 -0.079736
v 0.362816 0.707227 -0.026591
v 0.362816 0.707227 0.026591
v 0.332795 0.774684 -0.108131
v 0.412931 0.594619 -0.134169
v 0.332795 0.774684 0.108131
v 0.412931 0.594619 0.134169
v 0.445258 0.696650 0.026591
v 0.425165 0.741800 0.026591
v 0.363377 0.856304 0.026591
v 0.363377 0.856304 -0.026591
v 0.339517 0.891643 -0.026591
v 0.445258 0.696650 -0.026591
v 0.339517 0.891643 0.026591
v 0.425165 0.741800 -0.026591
v 0.379680 0.891977 -0.026591
v 0.466879 0.730395 0.026591
v 0.466879 0.730395 -0.026591
v 0.454551 0.758095 0.026591
v 0.454551 0.758095 -0.026591
v 0.379680 0.891977 0.026591
v 0.392764 0.872599 0.026591
v 0.392764 0.872599 -0.026591
v -0.134802 -0.000000 -0.185539
v -0.151666 0.904116 -0.208751
v -0.218115 -0.000000 -0.070869
v -0.277168 0.857069 -0.026591
v -0.218115 0.000000 0.070869
v -0.277168 0.857069 0.026591
v -0.134802 0.000000 0.185539
v -0.151666 0.904116 0.208751
v 0.000000 0.193869 -0.344265
v 0.000000 0.385098 -0.429371
v 0.000000 0.594619 -0.434181
v -0.205678 0.774683 -0.283092
v -0.255205 0.594619 -0.351260
v -0.252377 0.385098 -0.347368
v -0.202354 0.193869 -0.278516
v -0.301029 0.821730 -0.026591
v -0.382910 0.662076 -0.026591
v -0.408356 0.385098 -0.132683
v -0.327416 0.193869 -0.106384
v -0.301029 0.821730 0.026591
v -0.382910 0.662076 0.026591
v -0.408356 0.385098 0.132683
v -0.327416 0.193869 0.106384
v -0.205678 0.774684 0.283092
v -0.255205 0.594619 0.351260
v -0.252377 0.385098 0.347368
v -0.202354 0.193869 0.278516
v 0.000000 0.594619 0.434181
v 0.000000 0.385098 0.429371
v 0.000000 0.193869 0.344265
v -0.157517 0.934046 -0.216804
v -0.254868 0.934046 -0.082812
v -0.254868 0.934046 0.082811
v -0.157517 0.934046 0.216804
v -0.187826 1.007252 -0.258520
v -0.303909 1.007252 -0.098746
v -0.303909 1.007252 0.098746
v -0.187826 1.007252 0.258520
v -0.173180 1.052185 -0.238362
v -0.280211 1.052185 -0.091046
v -0.280211 1.052185 0.091046
v -0.173180 1.052185 0.238362
v -0.124533 0.023657 -0.171405
v -0.133969 0.898309 -0.184392
v -0.201499 0.023657 -0.065471
v -0.216766 0.898309 -0.070432
v -0.201499 0.023657 0.065471
v -0.216766 0.898309 0.070432
v -0.124533 0.023657 0.171405
v -0.133969 0.898309 0.184392
v 0.000000 0.207643 -0.316870
v 0.000000 0.391630 -0.399411
v 0.000000 0.588526 -0.404129
v -0.189985 0.759603 -0.261492
v -0.237541 0.588526 -0.326947
v -0.234768 0.391630 -0.323130
v -0.186251 0.207643 -0.256353
v -0.307402 0.759603 -0.099881
v -0.384349 0.588526 -0.124883
v -0.379862 0.391630 -0.123425
v -0.301361 0.207643 -0.097918
v -0.307402 0.759603 0.099881
v -0.384349 0.588526 0.124883
v -0.379862 0.391630 0.123425
v -0.301361 0.207643 0.097918
v -0.189985 0.759604 0.261492
v -0.237541 0.588526 0.326947
v -0.234768 0.391630 0.323130
v -0.186251 0.207643 0.256353
v 0.000000 0.588526 0.404129
v 0.000000 0.391630 0.399411
v 0.000000 0.207643 0.316870
v -0.141577 0.948357 -0.194863
v -0.229076 0.948357 -0.074431
v -0.229076 0.948357 0.074431
v -0.141577 0.948357 0.194863
v -0.158602 1.034152 -0.218298
v -0.256624 1.034152 -0.083382
v -0.256624 1.034152 0.083382
v -0.158602 1.034152 0.218297
v 0.000000 0.774683 -0.349921
v 0.000000 0.904116 -0.258031
v 0.000000 0.000000 0.229339
v 0.000000 -0.000000 -0.229339
v 0.000000 0.904116 0.258031
v 0.000000 0.774684 0.349921
v 0.000000 0.934046 -0.267984
v 0.000000 0.934046 0.267984
v 0.000000 1.007252 0.319548
v 0.000000 1.007252 -0.319548
v 0.000000 1.052185 0.294631
v 0.000000 1.052185 -0.294631
v 0.000000 0.759603 -0.323222
v 0.000000 0.898309 -0.227922
v 0.000000 0.023657 0.211868
v 0.000000 0.023657 -0.211868
v 0.000000 0.898309 0.227921
v 0.000000 0.759604 0.323222
v 0.000000 0.948357 -0.240864
v 0.000000 0.948357 0.240864
v 0.000000 1.034152 0.269831
v 0.000000 1.034152 -0.269831
v -0.245402 0.904116 0.079736
v -0.245402 0.904116 -0.079736
v -0.362816 0.707227 -0.026591
v -0.362816 0.707227 0.026591
v -0.332795 0.774684 -0.108131
v -0.412931 0.594619 -0.134169
v -0.332795 0.774684 0.108131
v -0.412931 0.594619 0.134169
v -0.445258 0.696650 0.026591
v -0.425165 0.741800 0.026591
v -0.363377 0.856304 0.026591
v -0.363377 0.856304 -0.026591
v -0.339517 0.891643 -0.026591
v -0.445258 0.696650 -0.026591
v -0.339517 0.891643 0.026591
v -0.425165 0.741800 -0.026591
v -0.379680 0.891977 -0.026591
v -0.466879 0.730395 0.026591
v -0.466879 0.730395 -0.026591
v -0.454551 0.758095 0.026591
v -0.454551 0.758095 -0.026591
v -0.379680 0.891977 0.026591
v -0.392764 0.872599 0.026591
v -0.392764 0.872599 -0.026591
vt 0.486290 0.944171
vt 0.506746 0.905856
vt 0.506746 0.963321
vt 0.935203 0.787309
vt 0.957704 0.746810
vt 0.957704 0.804009
vt 0.990549 0.949379
vt 0.990549 0.995708
vt 0.980805 0.961258
vt 0.579013 0.643794
vt 0.579013 0.696474
vt 0.571571 0.661454
vt 0.906013 0.428750
vt 0.938627 0.379641
vt 0.938627 0.451279
vt 0.706836 0.924331
vt 0.706836 0.983284
vt 0.695126 0.937748
vt 0.903726 0.754231
vt 0.930332 0.696302
vt 0.930332 0.792996
vt 0.975933 0.892244
vt 0.975933 0.947604
vt 0.966723 0.909050
vt 0.521054 0.103767
vt 0.521054 0.147200
vt 0.512028 0.120672
vt 0.683805 0.100630
vt 0.683805 0.146960
vt 0.674060 0.112510
vt 0.997564 0.247146
vt 0.997564 0.293476
vt 0.987820 0.281596
vt 0.129890 0.182503
vt 0.129890 0.235183
vt 0.122449 0.200163
vt 0.974285 0.746810
vt 0.974285 0.805762
vt 0.962575 0.760226
vt 0.982949 0.247146
vt 0.982949 0.306098
vt 0.971238 0.292681
vt 0.988803 0.880761
vt 0.988803 0.944507
vt 0.980805 0.898175
vt 0.996019 0.152525
vt 0.996019 0.207884
vt 0.986808 0.191079
vt 0.534950 0.147200
vt 0.525925 0.130295
vt 0.534950 0.103767
vt 0.669189 0.146960
vt 0.659444 0.135080
vt 0.669189 0.100630
vt 0.906013 0.549359
vt 0.928514 0.532659
vt 0.928514 0.589858
vt 0.982949 0.369922
vt 0.971238 0.356505
vt 0.982949 0.310969
vt 0.906013 0.478679
vt 0.938627 0.456150
vt 0.938627 0.527788
vt 0.455573 0.969603
vt 0.447574 0.952188
vt 0.455573 0.905856
vt 0.511617 0.925007
vt 0.532073 0.905856
vt 0.532073 0.963321
vt 0.339225 0.922557
vt 0.361726 0.905857
vt 0.361726 0.963056
vt 0.957650 0.079290
vt 0.957650 0.136489
vt 0.935149 0.119789
vt 0.914301 0.175054
vt 0.946915 0.152525
vt 0.946915 0.224162
vt 0.946915 0.229379
vt 0.946915 0.301017
vt 0.914301 0.278488
vt 0.903726 0.633502
vt 0.930332 0.594737
vt 0.930332 0.691431
vt 0.966367 0.242274
vt 0.951786 0.197400
vt 0.966367 0.152525
vt 0.395207 0.918752
vt 0.380626 0.873877
vt 0.395207 0.829002
vt 0.898855 0.718267
vt 0.871120 0.680094
vt 0.898855 0.594737
vt 0.966367 0.336895
vt 0.951786 0.292020
vt 0.966367 0.247146
vt 0.480380 0.918752
vt 0.465799 0.873877
vt 0.480380 0.829002
vt 0.959281 0.476792
vt 0.943498 0.428217
vt 0.959281 0.379641
vt 0.871120 0.358883
vt 0.901141 0.317563
vt 0.901141 0.451279
vt 0.526685 0.309717
vt 0.485364 0.279696
vt 0.526685 0.152525
vt 0.901141 0.589866
vt 0.871120 0.548545
vt 0.901141 0.456150
vt 0.959281 0.578813
vt 0.943498 0.530237
vt 0.959281 0.481663
vt 0.706836 0.919460
vt 0.691053 0.870885
vt 0.706836 0.822309
vt 0.217253 0.147654
vt 0.164499 0.075045
vt 0.217253 0.002436
vt 0.058712 0.810445
vt 0.058712 0.888374
vt 0.002436 0.878142
vt 0.002436 0.820677
vt 0.962521 0.142144
vt 0.962521 0.082052
vt 0.973220 0.079290
vt 0.973220 0.144906
vt 0.244888 0.254091
vt 0.320406 0.254626
vt 0.320406 0.350249
vt 0.244888 0.350785
vt 0.981937 0.155286
vt 0.981937 0.215379
vt 0.971238 0.218141
vt 0.971238 0.152525
vt 0.972364 0.068051
vt 0.961665 0.065290
vt 0.961665 0.005197
vt 0.972364 0.002436
vt 0.591227 0.899730
vt 0.591227 0.959823
vt 0.558757 0.956597
vt 0.558757 0.902956
vt 0.705746 0.627692
vt 0.705746 0.551023
vt 0.785943 0.563820
vt 0.785943 0.614895
vt 0.400104 0.355656
vt 0.400104 0.451279
vt 0.325277 0.441802
vt 0.325277 0.365132
vt 0.297642 0.002436
vt 0.297642 0.099130
vt 0.222124 0.098594
vt 0.222124 0.002971
vt 0.002436 0.532056
vt 0.002436 0.454127
vt 0.073456 0.444744
vt 0.073456 0.541439
vt 0.775288 0.002436
vt 0.775288 0.079105
vt 0.695090 0.066308
vt 0.695090 0.015233
vt 0.239326 0.451279
vt 0.164499 0.441802
vt 0.164499 0.365133
vt 0.239326 0.355656
vt 0.325277 0.558241
vt 0.396246 0.557716
vt 0.396246 0.647717
vt 0.325277 0.647192
vt 0.780953 0.444586
vt 0.713358 0.435577
vt 0.713358 0.363594
vt 0.780953 0.354585
vt 0.486290 0.839614
vt 0.545996 0.829002
vt 0.545996 0.900985
vt 0.486290 0.890373
vt 0.625034 0.545101
vt 0.552953 0.535910
vt 0.552953 0.465341
vt 0.625034 0.456150
vt 0.240017 0.249219
vt 0.164499 0.248684
vt 0.164499 0.153061
vt 0.240017 0.152525
vt 0.804901 0.304748
vt 0.804901 0.330438
vt 0.789595 0.329094
vt 0.789595 0.303404
vt 0.396246 0.729258
vt 0.316049 0.716461
vt 0.316049 0.665386
vt 0.396246 0.652589
vt 0.244888 0.355656
vt 0.319715 0.365132
vt 0.319715 0.441802
vt 0.244888 0.451279
vt 0.477061 0.557716
vt 0.548030 0.558241
vt 0.548030 0.647192
vt 0.477061 0.647717
vt 0.299882 0.823081
vt 0.232286 0.814071
vt 0.232286 0.742088
vt 0.299882 0.733079
vt 0.304595 0.651538
vt 0.304595 0.723521
vt 0.244888 0.712909
vt 0.244888 0.662150
vt 0.462600 0.002436
vt 0.537427 0.011912
vt 0.537427 0.088582
vt 0.462600 0.098058
vt 0.077953 0.243220
vt 0.077953 0.338843
vt 0.002436 0.339379
vt 0.002436 0.242684
vt 0.244888 0.465533
vt 0.315909 0.456150
vt 0.315909 0.552845
vt 0.244888 0.543462
vt 0.978091 0.138971
vt 0.978091 0.079290
vt 0.989403 0.080398
vt 0.989403 0.137863
vt 0.983138 0.741938
vt 0.971826 0.740830
vt 0.971826 0.683365
vt 0.983138 0.682257
vt 0.979722 0.568427
vt 0.979723 0.508746
vt 0.991034 0.509854
vt 0.991034 0.567319
vt 0.854903 0.077875
vt 0.854903 0.137968
vt 0.822432 0.134743
vt 0.822432 0.081101
vt 0.401221 0.974247
vt 0.401221 0.908631
vt 0.419526 0.905856
vt 0.419526 0.977021
vt 0.097056 0.109935
vt 0.153333 0.099702
vt 0.153333 0.177632
vt 0.097057 0.167400
vt 0.966955 0.741938
vt 0.935203 0.736197
vt 0.935203 0.676515
vt 0.966955 0.670773
vt 0.070810 0.893245
vt 0.070810 0.964410
vt 0.039058 0.958668
vt 0.039058 0.898987
vt 0.714974 0.964432
vt 0.714974 0.904751
vt 0.746726 0.899009
vt 0.746726 0.970174
vt 0.629906 0.832542
vt 0.686182 0.822309
vt 0.686182 0.900238
vt 0.629906 0.890006
vt 0.850208 0.967399
vt 0.831903 0.970174
vt 0.831903 0.899008
vt 0.850208 0.901783
vt 0.769417 0.239657
vt 0.844852 0.227965
vt 0.844852 0.298533
vt 0.769417 0.286841
vt 0.911356 0.895837
vt 0.911356 0.961453
vt 0.893051 0.964228
vt 0.893051 0.893063
vt 0.629906 0.907884
vt 0.648211 0.905110
vt 0.648211 0.976275
vt 0.629906 0.973500
vt 0.856428 0.888191
vt 0.856428 0.816208
vt 0.916134 0.826820
vt 0.916134 0.877579
vt 0.952757 0.963410
vt 0.921006 0.957668
vt 0.921006 0.897986
vt 0.952757 0.892245
vt 0.849723 0.213896
vt 0.849723 0.163137
vt 0.909430 0.152525
vt 0.909430 0.224508
vt 0.827032 0.904750
vt 0.827032 0.964432
vt 0.795280 0.970173
vt 0.795280 0.899008
vt 0.291993 0.899935
vt 0.232286 0.889323
vt 0.232286 0.838564
vt 0.291993 0.827952
vt 0.083516 0.960373
vt 0.083516 0.906732
vt 0.102088 0.908173
vt 0.102088 0.958932
vt 0.032457 0.002436
vt 0.159628 0.043756
vt 0.159628 0.094831
vt 0.002436 0.094831
vt 0.155597 0.635260
vt 0.083516 0.626069
vt 0.083516 0.555501
vt 0.155597 0.546310
vt 0.472190 0.647192
vt 0.401221 0.647717
vt 0.401221 0.557716
vt 0.472190 0.558241
vt 0.316049 0.977022
vt 0.316049 0.905857
vt 0.334354 0.908632
vt 0.334354 0.974247
vt 0.710103 0.722565
vt 0.629906 0.709768
vt 0.629906 0.658693
vt 0.710103 0.645896
vt 0.555694 0.441896
vt 0.484673 0.451279
vt 0.484673 0.354585
vt 0.555694 0.363967
vt 0.637518 0.355110
vt 0.708486 0.354585
vt 0.708486 0.444586
vt 0.637518 0.444061
vt 0.957628 0.887373
vt 0.957628 0.816208
vt 0.975934 0.818983
vt 0.975934 0.884599
vt 0.862876 0.716464
vt 0.787441 0.704772
vt 0.787441 0.657588
vt 0.862876 0.645896
vt 0.542298 0.091386
vt 0.542298 0.002436
vt 0.614379 0.011627
vt 0.614379 0.082195
vt 0.620616 0.100769
vt 0.620616 0.147654
vt 0.608508 0.147515
vt 0.608508 0.100630
vt 0.002436 0.721124
vt 0.002436 0.649141
vt 0.070031 0.640132
vt 0.070031 0.730134
vt 0.790814 0.515026
vt 0.790814 0.467842
vt 0.866249 0.456150
vt 0.866249 0.526719
vt 0.603637 0.246347
vt 0.603637 0.335298
vt 0.531556 0.326107
vt 0.531556 0.255538
vt 0.083516 0.730133
vt 0.083516 0.640132
vt 0.154485 0.640657
vt 0.154485 0.729608
vt 0.151111 0.825006
vt 0.083516 0.815997
vt 0.083516 0.744014
vt 0.151111 0.735004
vt 0.855594 0.002436
vt 0.855594 0.073004
vt 0.780159 0.061312
vt 0.780159 0.014128
vt 0.002436 0.546310
vt 0.074517 0.555501
vt 0.074517 0.626070
vt 0.002436 0.635261
vt 0.654573 0.100769
vt 0.654573 0.147654
vt 0.642466 0.147515
vt 0.642466 0.100630
vt 0.596099 0.902505
vt 0.614404 0.899730
vt 0.614404 0.970895
vt 0.596098 0.968121
vt 0.153333 0.182503
vt 0.153333 0.236145
vt 0.134761 0.234703
vt 0.134761 0.183944
vt 0.461935 0.145642
vt 0.444195 0.147200
vt 0.444195 0.121510
vt 0.461935 0.119952
vt 0.507157 0.145642
vt 0.489417 0.147200
vt 0.489417 0.121510
vt 0.507157 0.119952
vt 0.395207 0.925065
vt 0.395207 0.975824
vt 0.376635 0.977265
vt 0.376635 0.923623
vt 0.892936 0.139383
vt 0.860465 0.136157
vt 0.860465 0.082515
vt 0.892936 0.079290
vt 0.404975 0.355656
vt 0.479802 0.365132
vt 0.479802 0.441802
vt 0.404975 0.451279
vt 0.897807 0.139383
vt 0.897807 0.079290
vt 0.930278 0.082515
vt 0.930278 0.136157
vt 0.382902 0.011912
vt 0.457729 0.002436
vt 0.457729 0.098059
vt 0.382902 0.088582
vt 0.964153 0.442495
vt 0.964153 0.382403
vt 0.974851 0.379641
vt 0.974851 0.445257
vt 0.802757 0.440950
vt 0.802757 0.430024
vt 0.814819 0.431083
vt 0.814819 0.448891
vt 0.547643 0.908618
vt 0.547643 0.968711
vt 0.536944 0.971472
vt 0.536944 0.905856
vt 0.722974 0.336880
vt 0.735036 0.328938
vt 0.735036 0.346747
vt 0.722974 0.347806
vt 0.974851 0.512982
vt 0.964153 0.515744
vt 0.964153 0.450128
vt 0.974851 0.452890
vt 0.480493 0.253019
vt 0.480493 0.348642
vt 0.405666 0.339165
vt 0.405666 0.262495
vt 0.819690 0.430024
vt 0.830616 0.430024
vt 0.830616 0.449188
vt 0.819690 0.449188
vt 0.979723 0.438214
vt 0.979722 0.380749
vt 0.991034 0.379641
vt 0.991034 0.439322
vt 0.269009 0.104001
vt 0.269009 0.123165
vt 0.222124 0.123165
vt 0.222124 0.104001
vt 0.325277 0.350785
vt 0.325277 0.254091
vt 0.400795 0.254626
vt 0.400795 0.350249
vt 0.829949 0.332698
vt 0.842011 0.324700
vt 0.842011 0.340065
vt 0.829949 0.341124
vt 0.317259 0.112427
vt 0.317259 0.104001
vt 0.336423 0.104001
vt 0.336423 0.112427
vt 0.408762 0.104001
vt 0.408762 0.123165
vt 0.383072 0.123165
vt 0.383072 0.104001
vt 0.408762 0.147200
vt 0.383072 0.147200
vt 0.383072 0.128036
vt 0.408762 0.128036
vt 0.466806 0.145642
vt 0.466806 0.119952
vt 0.484546 0.121510
vt 0.484546 0.147200
vt 0.413633 0.147200
vt 0.413633 0.128036
vt 0.439323 0.128036
vt 0.439323 0.147200
vt 0.225277 0.962952
vt 0.206706 0.964394
vt 0.206706 0.910752
vt 0.225277 0.912193
vt 0.842011 0.311830
vt 0.829949 0.319828
vt 0.829950 0.304463
vt 0.842011 0.303404
vt 0.785576 0.093961
vt 0.817561 0.077875
vt 0.817561 0.133235
vt 0.780159 0.146362
vt 0.400795 0.152525
vt 0.400795 0.249219
vt 0.325277 0.248683
vt 0.325277 0.153060
vt 0.980805 0.816208
vt 0.992116 0.817316
vt 0.992116 0.874781
vt 0.980805 0.875889
vt 0.159820 0.962952
vt 0.159820 0.912193
vt 0.178391 0.910752
vt 0.178391 0.964394
vt 0.585496 0.143142
vt 0.566333 0.143142
vt 0.566333 0.096258
vt 0.585496 0.096258
vt 0.714974 0.883905
vt 0.714974 0.826440
vt 0.771251 0.816208
vt 0.771251 0.894138
vt 0.558757 0.744362
vt 0.615033 0.734129
vt 0.615033 0.812059
vt 0.558757 0.801827
vt 0.703661 0.328938
vt 0.718103 0.328938
vt 0.718103 0.348102
vt 0.703661 0.348102
vt 0.974851 0.586231
vt 0.964153 0.583469
vt 0.964153 0.523377
vt 0.974851 0.520615
vt 0.851557 0.816208
vt 0.851557 0.894137
vt 0.795280 0.883905
vt 0.795280 0.826440
vt 0.264757 0.961673
vt 0.232286 0.964899
vt 0.232286 0.904806
vt 0.264757 0.908032
vt 0.705746 0.532820
vt 0.705746 0.456150
vt 0.785943 0.468948
vt 0.785943 0.520022
vt 0.158343 0.353726
vt 0.158343 0.430396
vt 0.083516 0.439873
vt 0.083516 0.344250
vt 0.240017 0.254091
vt 0.240017 0.350785
vt 0.164499 0.350249
vt 0.164499 0.254626
vt 0.325277 0.465533
vt 0.396298 0.456150
vt 0.396298 0.552845
vt 0.325278 0.543462
vt 0.920171 0.063807
vt 0.860465 0.074419
vt 0.860465 0.002436
vt 0.920171 0.013048
vt 0.164499 0.557716
vt 0.236580 0.566907
vt 0.236580 0.637475
vt 0.164499 0.646667
vt 0.700874 0.551023
vt 0.700874 0.641024
vt 0.629906 0.640499
vt 0.629906 0.551548
vt 0.714974 0.726888
vt 0.714974 0.654905
vt 0.782570 0.645896
vt 0.782570 0.735897
vt 0.316049 0.890374
vt 0.316049 0.839614
vt 0.375755 0.829002
vt 0.375755 0.900986
vt 0.164499 0.465533
vt 0.235520 0.456150
vt 0.235520 0.552845
vt 0.164499 0.543462
vt 0.378031 0.002971
vt 0.378031 0.098594
vt 0.302513 0.099130
vt 0.302513 0.002436
vt 0.990468 0.806491
vt 0.979157 0.805383
vt 0.979157 0.747918
vt 0.990468 0.746810
vt 0.684349 0.216397
vt 0.684348 0.165322
vt 0.764546 0.152525
vt 0.764546 0.229194
vt 0.244888 0.557716
vt 0.316969 0.566907
vt 0.316969 0.637476
vt 0.244888 0.646667
vt 0.608508 0.242001
vt 0.608508 0.153050
vt 0.679477 0.152525
vt 0.679477 0.242526
vt 0.159820 0.733079
vt 0.227415 0.742088
vt 0.227415 0.814071
vt 0.159820 0.823081
vt 0.764546 0.324067
vt 0.684348 0.311270
vt 0.684349 0.260195
vt 0.764546 0.247398
vt 0.077262 0.439873
vt 0.002436 0.430396
vt 0.002436 0.353727
vt 0.077262 0.344250
vt 0.320406 0.249219
vt 0.244888 0.248684
vt 0.244888 0.153061
vt 0.320406 0.152525
vt 0.154537 0.444744
vt 0.154537 0.541438
vt 0.083516 0.532056
vt 0.083516 0.454126
vt 0.678943 0.984013
vt 0.678943 0.924331
vt 0.690255 0.925440
vt 0.690255 0.982904
vt 0.302099 0.908032
vt 0.302099 0.961673
vt 0.269628 0.964899
vt 0.269628 0.904806
vt 0.988547 0.062117
vt 0.977235 0.061009
vt 0.977235 0.003544
vt 0.988547 0.002436
vt 0.971826 0.653310
vt 0.971826 0.595845
vt 0.983138 0.594737
vt 0.983138 0.654419
vt 0.714974 0.811337
vt 0.714974 0.740768
vt 0.790409 0.752461
vt 0.790409 0.799645
vt 0.966955 0.665902
vt 0.935203 0.660160
vt 0.935203 0.600479
vt 0.966955 0.594737
vt 0.034187 0.893245
vt 0.034187 0.964410
vt 0.002436 0.958668
vt 0.002436 0.898987
vt 0.558757 0.884627
vt 0.558757 0.827162
vt 0.615033 0.816930
vt 0.615033 0.894859
vt 0.952757 0.887373
vt 0.921006 0.881631
vt 0.921006 0.821950
vt 0.952757 0.816208
vt 0.159820 0.838184
vt 0.216096 0.827952
vt 0.216096 0.905881
vt 0.159820 0.895649
vt 0.442703 0.974247
vt 0.424398 0.977021
vt 0.424398 0.905856
vt 0.442703 0.908631
vt 0.866249 0.551023
vt 0.866249 0.621591
vt 0.790814 0.609899
vt 0.790814 0.562715
vt 0.653082 0.905110
vt 0.671387 0.907884
vt 0.671387 0.973500
vt 0.653082 0.976275
vt 0.077870 0.793881
vt 0.002436 0.805573
vt 0.002436 0.735005
vt 0.077870 0.746697
vt 0.849723 0.239991
vt 0.909430 0.229379
vt 0.909430 0.301362
vt 0.849723 0.290750
vt 0.888179 0.893063
vt 0.888179 0.964228
vt 0.856428 0.958486
vt 0.856428 0.898804
vt 0.083516 0.891248
vt 0.083516 0.840489
vt 0.143222 0.829877
vt 0.143222 0.901860
vt 0.956794 0.067859
vt 0.925043 0.073601
vt 0.925043 0.002436
vt 0.956794 0.008178
vt 0.401221 0.890373
vt 0.401221 0.839614
vt 0.460928 0.829002
vt 0.460928 0.900985
vt 0.485364 0.340278
vt 0.485364 0.314588
vt 0.503104 0.316146
vt 0.503104 0.341836
vt 0.870715 0.740768
vt 0.870715 0.811337
vt 0.795280 0.799645
vt 0.795280 0.752461
vt 0.472190 0.456150
vt 0.472190 0.552844
vt 0.401169 0.543462
vt 0.401169 0.465533
vt 0.201834 0.962952
vt 0.183263 0.964394
vt 0.183263 0.910752
vt 0.201834 0.912193
vt 0.468817 0.743139
vt 0.468817 0.815122
vt 0.401221 0.824131
vt 0.401221 0.734129
vt 0.844852 0.152525
vt 0.844852 0.223093
vt 0.769417 0.211401
vt 0.769417 0.164217
vt 0.477061 0.543462
vt 0.477061 0.465533
vt 0.548082 0.456150
vt 0.548082 0.552844
vt 0.679477 0.247398
vt 0.679477 0.337399
vt 0.608508 0.336874
vt 0.608508 0.247923
vt 0.629906 0.808429
vt 0.629906 0.736446
vt 0.697501 0.727437
vt 0.697501 0.817438
vt 0.401221 0.665385
vt 0.481419 0.652588
vt 0.481419 0.729258
vt 0.401221 0.716461
vt 0.552953 0.638923
vt 0.552953 0.549972
vt 0.625034 0.559163
vt 0.625034 0.629732
vt 0.700874 0.456150
vt 0.700874 0.546152
vt 0.629906 0.545626
vt 0.629906 0.456675
vt 0.553885 0.824131
vt 0.486290 0.815122
vt 0.486290 0.743138
vt 0.553885 0.734129
vt 0.785824 0.354585
vt 0.861259 0.366277
vt 0.861259 0.413461
vt 0.785824 0.425153
vt 0.632646 0.354585
vt 0.632646 0.443535
vt 0.560565 0.434344
vt 0.560565 0.363776
vt 0.619250 0.002436
vt 0.690219 0.002961
vt 0.690219 0.091912
vt 0.619250 0.092437
vt 0.875586 0.808562
vt 0.875586 0.742947
vt 0.893892 0.740172
vt 0.893892 0.811337
vt 0.047310 0.099702
vt 0.092185 0.114283
vt 0.092185 0.237813
vt 0.002436 0.237813
vt 0.531556 0.161716
vt 0.603637 0.152525
vt 0.603637 0.241476
vt 0.531556 0.232284
vt 0.590368 0.096397
vt 0.602475 0.096258
vt 0.602475 0.143142
vt 0.590368 0.143281
vt 0.316049 0.815122
vt 0.316049 0.743139
vt 0.383644 0.734130
vt 0.383644 0.824131
vt 0.769417 0.329094
vt 0.769417 0.303404
vt 0.784723 0.304748
vt 0.784723 0.330438
vt 0.125531 0.908173
vt 0.125531 0.958932
vt 0.106959 0.960373
vt 0.106959 0.906732
vt 0.115628 0.182503
vt 0.115628 0.236145
vt 0.097057 0.234703
vt 0.097056 0.183944
vt 0.130402 0.960373
vt 0.130402 0.906732
vt 0.148974 0.908173
vt 0.148974 0.958932
vt 0.695090 0.087202
vt 0.727561 0.083977
vt 0.727561 0.144069
vt 0.695090 0.140844
vt 0.480493 0.162001
vt 0.480493 0.238671
vt 0.405666 0.248148
vt 0.405667 0.152525
vt 0.764903 0.140844
vt 0.732432 0.144069
vt 0.732432 0.083977
vt 0.764903 0.087202
vt 0.906013 0.371544
vt 0.906013 0.317903
vt 0.938483 0.314677
vt 0.938483 0.374770
vt 0.776122 0.881824
vt 0.776122 0.816208
vt 0.786821 0.818970
vt 0.786821 0.879063
vt 0.785824 0.437966
vt 0.797886 0.430024
vt 0.797886 0.447832
vt 0.785824 0.448891
vt 0.296864 0.830713
vt 0.307563 0.827952
vt 0.307563 0.893568
vt 0.296864 0.890806
vt 0.240017 0.728208
vt 0.159820 0.715410
vt 0.159820 0.664335
vt 0.240017 0.651538
vt 0.067172 0.813206
vt 0.077870 0.810445
vt 0.077870 0.876061
vt 0.067172 0.873299
vt 0.784068 0.955876
vt 0.751597 0.959101
vt 0.751597 0.899009
vt 0.784068 0.902234
vt 0.542298 0.143142
vt 0.542298 0.096258
vt 0.561462 0.096258
vt 0.561462 0.143142
vt 0.809772 0.304748
vt 0.825078 0.303404
vt 0.825078 0.329094
vt 0.809772 0.330438
vt 0.413633 0.104001
vt 0.428106 0.104001
vt 0.428106 0.123165
vt 0.413633 0.123165
vt 0.378201 0.104001
vt 0.378201 0.123165
vt 0.352511 0.123165
vt 0.352511 0.104001
vt 0.739907 0.346747
vt 0.739907 0.328938
vt 0.751969 0.336880
vt 0.751969 0.347806
vt 0.328476 0.147200
vt 0.328476 0.121510
vt 0.347640 0.121510
vt 0.347640 0.147200
vt 0.158343 0.339378
vt 0.082825 0.338843
vt 0.082825 0.243220
vt 0.158343 0.242684
vt 0.299570 0.147200
vt 0.273880 0.147200
vt 0.273880 0.128036
vt 0.299570 0.128036
vt 0.847549 0.431083
vt 0.847549 0.446448
vt 0.835487 0.438450
vt 0.835487 0.430024
vt 0.523282 0.340278
vt 0.507976 0.341622
vt 0.507976 0.315932
vt 0.523282 0.314588
vt 0.378201 0.147200
vt 0.352511 0.147200
vt 0.352511 0.128036
vt 0.378201 0.128036
vt 0.637594 0.147515
vt 0.625487 0.147654
vt 0.625487 0.100769
vt 0.637594 0.100630
vt 0.583884 0.679399
vt 0.587636 0.643794
vt 0.625034 0.656931
vt 0.625034 0.712290
vt 0.698790 0.328938
vt 0.698790 0.348102
vt 0.684348 0.348102
vt 0.684348 0.328938
vt 0.991034 0.503875
vt 0.979722 0.502767
vt 0.979723 0.445302
vt 0.991034 0.444194
vt 0.480380 0.977265
vt 0.461808 0.975823
vt 0.461808 0.925064
vt 0.480380 0.923623
vt 0.222124 0.128036
vt 0.269009 0.128036
vt 0.269009 0.147200
vt 0.222124 0.147200
vt 0.846883 0.333125
vt 0.846883 0.324700
vt 0.858944 0.325759
vt 0.858944 0.341124
vt 0.566487 0.652588
vt 0.566487 0.729258
vt 0.486290 0.716461
vt 0.486290 0.665386
vt 0.304441 0.121510
vt 0.323605 0.121510
vt 0.323605 0.147200
vt 0.304441 0.147200
vt 0.273880 0.123165
vt 0.273880 0.104001
vt 0.288353 0.104001
vt 0.288353 0.123165
vt 0.293224 0.104001
vt 0.312388 0.104001
vt 0.312388 0.114927
vt 0.293224 0.114927
vt 0.852420 0.449188
vt 0.852420 0.430024
vt 0.860846 0.430024
vt 0.860846 0.449188
vn 0.8288 0.5596 0.0000
vn 0.9136 0.4066 0.0000
vn -0.8288 0.5596 0.0000
vn -0.9136 0.4066 -0.0000
vn -0.0000 1.0000 -0.0000
vn -0.0000 -1.0000 0.0000
vn 0.6705 0.5596 0.4871
vn 0.1877 0.7944 -0.5776
vn -0.3089 -0.0218 0.9508
vn 0.6074 0.7944 0.0000
vn -0.1877 0.7944 -0.5776
vn -0.9521 0.3057 0.0000
vn 0.8711 -0.4911 0.0000
vn -0.7450 -0.3898 -0.5413
vn -0.8088 -0.0218 0.5876
vn -0.7391 0.4066 0.5370
vn -0.2692 -0.4911 0.8285
vn 0.9209 -0.3898 0.0000
vn -0.8088 0.0228 -0.5876
vn -0.2818 -0.4102 0.8674
vn -0.6772 -0.5470 0.4920
vn 0.2842 0.3924 0.8748
vn 0.8088 -0.0218 0.5876
vn 0.0000 0.0000 1.0000
vn -0.2692 -0.4911 -0.8285
vn 0.7450 -0.3898 -0.5413
vn 0.8088 0.0228 -0.5876
vn -0.7378 -0.4102 0.5361
vn -0.2587 -0.5470 0.7962
vn -0.2846 -0.3898 0.8758
vn 0.8088 -0.0218 -0.5876
vn -0.7391 0.4066 -0.5370
vn 0.9534 -0.3016 0.0000
vn 0.7714 -0.3016 -0.5604
vn 0.2946 -0.3016 0.9068
vn 0.2942 0.3057 0.9055
vn 0.2733 0.4665 0.8412
vn 0.6705 0.5596 -0.4871
vn 0.6721 -0.5566 0.4883
vn 0.2567 -0.5566 -0.7901
vn -0.2567 -0.5566 0.7901
vn -0.2561 0.5596 -0.7882
vn -0.7156 0.4665 -0.5199
vn 0.7110 0.4770 0.5166
vn -0.8845 0.4665 0.0000
vn -0.2733 0.4665 0.8412
vn -0.8371 -0.5470 0.0000
vn -0.6721 -0.5566 -0.4883
vn 0.6772 -0.5470 0.4920
vn -0.6721 -0.5566 0.4883
vn -0.6772 -0.5470 -0.4920
vn 0.7856 0.2388 -0.5708
vn -0.2842 0.3924 -0.8748
vn -0.8088 0.0228 0.5876
vn -0.2733 0.4665 -0.8412
vn 0.7047 -0.4911 0.5120
vn 0.2823 0.4066 0.8689
vn 0.3089 0.0228 -0.9508
vn -0.7156 0.4665 0.5199
vn 0.7110 0.4770 -0.5166
vn 0.7441 0.3924 -0.5406
vn 0.0000 -0.0000 -1.0000
vn -0.2818 -0.4102 -0.8674
vn -0.7110 0.4770 0.5166
vn -0.9198 0.3924 -0.0000
vn 0.8088 0.0228 0.5876
vn 0.9120 -0.4102 0.0000
vn -0.7110 0.4770 -0.5166
vn 0.9198 0.3924 -0.0000
vn 0.7156 0.4665 0.5199
vn -0.7856 0.2388 -0.5708
vn -0.3001 0.2388 0.9235
vn -0.7703 0.3057 -0.5596
vn 0.2846 -0.3898 -0.8758
vn -0.2942 0.3057 0.9055
vn -0.9209 -0.3898 0.0000
vn -0.4914 0.7944 -0.3570
vn 0.1877 0.7944 0.5776
vn -0.1877 0.7944 0.5776
vn -0.2846 -0.3898 -0.8758
vn -0.2946 -0.3016 -0.9068
vn -0.8800 0.4749 0.0000
vn 0.9998 -0.0218 0.0000
vn 0.4849 -0.8745 0.0000
vn 0.4849 0.8745 0.0000
vn -0.4849 0.8745 0.0000
vn -0.7856 0.2388 0.5708
vn 0.8800 0.4749 0.0000
vn -0.9998 -0.0218 0.0000
vn -0.2946 -0.3016 0.9068
vn 0.3001 0.2388 -0.9235
vn -0.8800 -0.4749 0.0000
vn -0.6705 0.5596 -0.4871
vn -0.6705 0.5596 0.4871
vn -0.8420 -0.5395 0.0000
vn -0.6074 0.7944 0.0000
vn 0.2561 0.5596 -0.7882
vn -0.2942 0.3057 -0.9055
vn -0.8711 -0.4911 0.0000
vn 0.7450 -0.3898 0.5413
vn -0.3089 -0.0218 -0.9508
vn 0.7391 0.4066 0.5370
vn 0.2587 -0.5470 0.7962
vn 0.2842 0.3924 -0.8748
vn -0.9997 0.0228 0.0000
vn -0.9120 -0.4102 0.0000
vn -0.2587 -0.5470 -0.7962
vn -0.2823 0.4066 -0.8689
vn 0.3089 -0.0218 0.9508
vn -0.9534 -0.3016 0.0000
vn 0.2692 -0.4911 -0.8285
vn -0.7441 0.3924 0.5406
vn -0.3089 0.0228 -0.9508
vn 0.2818 -0.4102 -0.8674
vn 0.2692 -0.4911 0.8285
vn -0.7450 -0.3898 0.5413
vn -0.8088 -0.0218 -0.5876
vn 0.7391 0.4066 -0.5370
vn 0.7714 -0.3016 0.5604
vn 0.7703 0.3057 -0.5596
vn -0.7714 -0.3016 0.5604
vn -0.7714 -0.3016 -0.5604
vn -0.2716 0.4770 0.8359
vn 0.2567 -0.5566 0.7901
vn -0.8308 -0.5566 0.0000
vn -0.2561 0.5596 0.7882
vn -0.2567 -0.5566 -0.7901
vn 0.2561 0.5596 0.7882
vn 0.2733 0.4665 -0.8412
vn 0.2716 0.4770 -0.8359
vn 0.8845 0.4665 0.0000
vn 0.8789 0.4770 -0.0000
vn 0.8371 -0.5470 0.0000
vn 0.6721 -0.5566 -0.4883
vn 0.6772 -0.5470 -0.4920
vn 0.8308 -0.5566 0.0000
vn 0.2587 -0.5470 -0.7962
vn -0.2716 0.4770 -0.8359
vn 0.2823 0.4066 -0.8689
vn 0.9711 0.2388 0.0000
vn 0.7378 -0.4102 0.5361
vn -0.8789 0.4770 -0.0000
vn -0.2823 0.4066 0.8689
vn 0.9997 0.0228 0.0000
vn 0.7378 -0.4102 -0.5361
vn 0.7047 -0.4911 -0.5120
vn 0.7441 0.3924 0.5406
vn -0.3089 0.0228 0.9508
vn -0.7378 -0.4102 -0.5361
vn 0.2716 0.4770 0.8359
vn -0.2842 0.3924 0.8748
vn 0.3089 0.0228 0.9508
vn 0.7156 0.4665 -0.5199
vn -0.7441 0.3924 -0.5406
vn 0.2818 -0.4102 0.8674
vn 0.3001 0.2388 0.9235
vn -0.3001 0.2388 -0.9235
vn 0.7856 0.2388 0.5708
vn -0.7703 0.3057 0.5596
vn 0.2846 -0.3898 0.8758
vn 0.7703 0.3057 0.5596
vn 0.2942 0.3057 -0.9055
vn 0.4914 0.7944 0.3570
vn -0.4914 0.7944 0.3570
vn -0.7047 -0.4911 0.5120
vn 0.4914 0.7944 -0.3570
vn 0.9521 0.3057 0.0000
vn -0.0083 1.0000 0.0000
vn -0.4849 -0.8745 0.0000
vn 0.3089 -0.0218 -0.9508
vn 0.8420 -0.5395 0.0000
vn 0.2946 -0.3016 -0.9068
vn -0.9711 0.2388 0.0000
vn 0.8800 -0.4749 0.0000
vn -0.7047 -0.4911 -0.5120
vn 0.0083 1.0000 0.0000
g WaterVase_2_WaterVase_2_Collor_Material
usemtl Collor_Material
s off
f 6/1/1 70/2/1 69/3/1
f 4/4/1 73/5/1 70/6/1
f 6/7/1 75/8/1 17/9/1
f 17/10/1 73/11/1 13/12/1
f 71/13/2 74/14/2 73/15/2
f 72/16/2 76/17/2 18/18/2
f 14/19/2 76/20/2 74/21/2
f 71/22/2 75/23/2 72/24/2
f 98/25/3 196/26/3 96/27/3
f 96/28/3 199/29/3 108/30/3
f 201/31/3 98/32/3 112/33/3
f 108/34/3 201/35/3 112/36/3
f 197/37/4 200/38/4 109/39/4
f 202/40/4 198/41/4 113/42/4
f 109/43/4 202/44/4 113/45/4
f 201/46/4 197/47/4 198/48/4
f 6/49/1 4/50/1 70/51/1
f 4/52/1 13/53/1 73/54/1
f 6/55/1 69/56/1 75/57/1
f 71/58/2 14/59/2 74/60/2
f 72/61/2 75/62/2 76/63/2
f 14/64/2 18/65/2 76/66/2
f 98/67/3 195/68/3 196/69/3
f 96/70/3 196/71/3 199/72/3
f 201/73/3 195/74/3 98/75/3
f 197/76/4 199/77/4 200/78/4
f 202/79/4 201/80/4 198/81/4
f 109/82/4 200/83/4 202/84/4
f 39/85/5 37/86/5 188/87/5
f 188/88/5 135/89/5 137/90/5
f 139/91/5 141/92/5 43/93/5
f 141/94/5 187/95/5 43/96/5
f 43/97/5 41/98/5 39/99/5
f 176/100/6 1/101/6 3/102/6
f 3/103/6 5/104/6 176/105/6
f 7/106/6 175/107/6 95/108/6
f 175/109/6 99/110/6 95/111/6
f 99/112/6 97/113/6 95/114/6
f 95/115/6 93/116/6 176/117/6
f 39/118/5 188/119/5 137/120/5
f 21/121/7 75/122/7 69/123/7 8/124/7
f 193/125/8 172/126/8 134/127/8 183/128/8
f 117/129/9 118/130/9 121/131/9 120/132/9
f 171/133/10 170/134/10 132/135/10 133/136/10
f 36/137/11 68/138/11 193/139/11 183/140/11
f 67/141/12 66/142/12 62/143/12 63/144/12
f 16/145/13 20/146/13 5/147/13 3/148/13
f 110/149/14 106/150/14 107/151/14 111/152/14
f 117/153/15 202/154/15 114/155/15 118/156/15
f 116/157/16 201/158/16 202/159/16 117/160/16
f 122/161/17 119/162/17 99/163/17 175/164/17
f 19/165/18 20/166/18 16/167/18 15/168/18
f 59/169/19 58/170/19 54/171/19 55/172/19
f 46/173/20 45/174/20 185/175/20 145/176/20
f 38/177/21 45/178/21 49/179/21 40/180/21
f 148/181/22 149/182/22 143/183/22 144/184/22
f 22/185/23 23/186/23 19/187/23 76/188/23
f 83/189/24 6/190/24 17/191/24 79/192/24
f 101/193/25 176/194/25 93/195/25 107/196/25
f 15/197/26 16/198/26 12/199/26 11/200/26
f 159/201/27 160/202/27 156/203/27 155/204/27
f 50/205/28 49/206/28 45/207/28 46/208/28
f 185/209/29 45/210/29 38/211/29 186/212/29
f 118/213/30 119/214/30 122/215/30 121/216/30
f 15/217/31 11/218/31 10/219/31 74/220/31
f 104/221/32 105/222/32 200/223/32 199/224/32
f 26/225/33 27/226/33 69/227/33 70/228/33
f 26/229/34 70/230/34 2/231/34 25/232/34
f 28/233/35 180/234/35 177/235/35 8/236/35
f 194/237/36 169/238/36 165/239/36 191/240/36
f 36/241/37 183/242/37 181/243/37 32/244/37
f 70/245/38 73/246/38 9/247/38 2/248/38
f 32/249/39 28/250/39 27/251/39 31/252/39
f 182/253/40 29/254/40 25/255/40 179/256/40
f 126/257/41 180/258/41 181/259/41 130/260/41
f 174/261/42 173/262/42 104/263/42 94/264/42
f 131/265/43 127/266/43 128/267/43 132/268/43
f 135/269/44 149/270/44 153/271/44 137/272/44
f 133/273/45 132/274/45 128/275/45 129/276/45
f 134/277/46 130/278/46 181/279/46 183/280/46
f 49/281/47 53/282/47 42/283/47 40/284/47
f 127/285/48 123/286/48 124/287/48 128/288/48
f 136/289/49 138/290/49 150/291/49 146/292/49
f 125/293/50 126/294/50 130/295/50 129/296/50
f 57/297/51 44/298/51 42/299/51 53/300/51
f 167/301/52 168/302/52 142/303/52 140/304/52
f 176/305/6 5/306/6 7/307/6 95/308/6
f 59/309/53 60/310/53 164/311/53 163/312/53
f 51/313/54 50/314/54 46/315/54 47/316/54
f 182/317/55 127/318/55 131/319/55 184/320/55
f 24/321/56 7/322/56 5/323/56 20/324/56
f 178/325/57 120/326/57 22/327/57 21/328/57
f 160/329/58 159/330/58 162/331/58 163/332/58
f 129/333/59 130/334/59 134/335/59 133/336/59
f 161/337/60 141/338/60 139/339/60 157/340/60
f 156/341/61 160/342/61 161/343/61 157/344/61
f 206/345/62 210/346/62 215/347/62 218/348/62
f 190/349/63 57/350/63 58/351/63 162/352/63
f 37/353/64 39/354/64 52/355/64 48/356/64
f 55/357/65 51/358/65 52/359/65 56/360/65
f 147/361/66 151/362/66 152/363/66 148/364/66
f 151/365/67 150/366/67 154/367/67 155/368/67
f 60/369/68 56/370/68 41/371/68 43/372/68
f 156/373/69 157/374/69 153/375/69 152/376/69
f 79/377/24 78/378/24 88/379/24 91/380/24
f 36/381/70 32/382/70 31/383/70 35/384/70
f 64/385/71 63/386/71 42/387/71 44/388/71
f 197/389/62 109/390/62 208/391/62 210/392/62
f 77/393/24 78/394/24 72/395/24 18/396/24
f 186/397/72 38/398/72 61/399/72 191/400/72
f 67/401/73 63/402/73 64/403/73 68/404/73
f 11/405/74 12/406/74 101/407/74 102/408/74
f 65/409/75 194/410/75 191/411/75 61/412/75
f 115/413/76 114/414/76 110/415/76 111/416/76
f 67/417/77 68/418/77 36/419/77 35/420/77
f 86/421/24 88/422/24 78/423/24 77/424/24
f 169/425/78 194/426/78 184/427/78 131/428/78
f 87/429/62 82/430/62 84/431/62 89/432/62
f 65/433/79 33/434/79 184/435/79 194/436/79
f 106/437/80 102/438/80 101/439/80 107/440/80
f 212/441/4 214/442/4 215/443/4 213/444/4
f 174/445/81 94/446/81 123/447/81 179/448/81
f 217/449/82 218/450/82 215/451/82 214/452/82
f 74/453/83 76/454/83 19/455/83 15/456/83
f 90/457/24 83/458/24 79/459/24 91/460/24
f 92/461/1 85/462/1 90/463/1 91/464/1
f 18/465/84 14/466/84 82/467/84 77/468/84
f 204/469/85 198/470/85 197/471/85 210/472/85
f 82/473/62 14/474/62 71/475/62 84/476/62
f 78/477/86 84/478/86 71/479/86 72/480/86
f 40/481/87 62/482/87 61/483/87 38/484/87
f 211/485/62 207/486/62 206/487/62 218/488/62
f 17/489/88 75/490/88 71/491/88 73/492/88
f 202/493/89 200/494/89 110/495/89 114/496/89
f 126/497/90 100/498/90 177/499/90 180/500/90
f 189/501/91 142/502/91 168/503/91 192/504/91
f 79/505/92 80/506/92 84/507/92 78/508/92
f 196/509/93 94/510/93 104/511/93 199/512/93
f 195/513/94 201/514/94 116/515/94 100/516/94
f 213/517/95 208/518/95 203/519/95 212/520/95
f 34/521/96 66/522/96 67/523/96 35/524/96
f 9/525/97 173/526/97 174/527/97 2/528/97
f 192/529/98 193/530/98 68/531/98 64/532/98
f 115/533/99 111/534/99 95/535/99 97/536/99
f 24/537/100 20/538/100 19/539/100 23/540/100
f 105/541/101 103/542/101 102/543/101 106/544/101
f 21/545/102 22/546/102 76/547/102 75/548/102
f 136/549/103 146/550/103 185/551/103 186/552/103
f 163/553/104 164/554/104 161/555/104 160/556/104
f 54/557/105 50/558/105 51/559/105 55/560/105
f 53/561/106 49/562/106 50/563/106 54/564/106
f 189/565/107 44/566/107 57/567/107 190/568/107
f 173/569/108 103/570/108 105/571/108 104/572/108
f 121/573/109 23/574/109 22/575/109 120/576/109
f 124/577/110 196/578/110 195/579/110 125/580/110
f 1/581/111 176/582/111 101/583/111 12/584/111
f 47/585/112 48/586/112 52/587/112 51/588/112
f 59/589/113 163/590/113 162/591/113 58/592/113
f 159/593/114 158/594/114 190/595/114 162/596/114
f 122/597/115 175/598/115 7/599/115 24/600/115
f 114/601/116 115/602/116 119/603/116 118/604/116
f 105/605/117 106/606/117 110/607/117 200/608/117
f 74/609/118 10/610/118 9/611/118 73/612/118
f 27/613/119 28/614/119 8/615/119 69/616/119
f 168/617/120 167/618/120 171/619/120 172/620/120
f 125/621/121 195/622/121 100/623/121 126/624/121
f 94/625/122 196/626/122 124/627/122 123/628/122
f 48/629/123 143/630/123 188/631/123 37/632/123
f 181/633/124 180/634/124 28/635/124 32/636/124
f 129/637/125 128/638/125 124/639/125 125/640/125
f 177/641/126 100/642/126 116/643/126 178/644/126
f 182/645/127 179/646/127 123/647/127 127/648/127
f 177/649/128 178/650/128 21/651/128 8/652/128
f 33/653/129 29/654/129 182/655/129 184/656/129
f 161/657/130 164/658/130 187/659/130 141/660/130
f 30/661/131 34/662/131 35/663/131 31/664/131
f 137/665/132 153/666/132 157/667/132 139/668/132
f 140/669/133 154/670/133 150/671/133 138/672/133
f 29/673/134 30/674/134 26/675/134 25/676/134
f 140/677/135 142/678/135 158/679/135 154/680/135
f 26/681/136 30/682/136 31/683/136 27/684/136
f 142/685/137 189/686/137 190/687/137 158/688/137
f 203/689/24 113/690/24 198/691/24 204/692/24
f 164/693/138 60/694/138 43/695/138 187/696/138
f 10/697/139 103/698/139 173/699/139 9/700/139
f 138/701/140 166/702/140 167/703/140 140/704/140
f 146/705/141 150/706/141 151/707/141 147/708/141
f 56/709/142 52/710/142 39/711/142 41/712/142
f 178/713/143 116/714/143 117/715/143 120/716/143
f 151/717/144 155/718/144 156/719/144 152/720/144
f 154/721/145 158/722/145 159/723/145 155/724/145
f 1/725/146 12/726/146 16/727/146 3/728/146
f 148/729/147 152/730/147 153/731/147 149/732/147
f 46/733/148 145/734/148 144/735/148 47/736/148
f 58/737/149 57/738/149 53/739/149 54/740/149
f 149/741/150 135/742/150 188/743/150 143/744/150
f 47/745/151 144/746/151 143/747/151 48/748/151
f 147/749/152 148/750/152 144/751/152 145/752/152
f 33/753/153 34/754/153 30/755/153 29/756/153
f 137/757/5 139/758/5 43/759/5 39/760/5
f 60/761/154 59/762/154 55/763/154 56/764/154
f 214/765/24 204/766/24 205/767/24 217/768/24
f 185/769/155 146/770/155 147/771/155 145/772/155
f 207/773/62 96/774/62 108/775/62 206/776/62
f 136/777/156 186/778/156 191/779/156 165/780/156
f 192/781/157 64/782/157 44/783/157 189/784/157
f 165/785/158 166/786/158 138/787/158 136/788/158
f 62/789/159 66/790/159 65/791/159 61/792/159
f 122/793/160 24/794/160 23/795/160 121/796/160
f 165/797/161 169/798/161 170/799/161 166/800/161
f 192/801/162 168/802/162 172/803/162 193/804/162
f 131/805/163 132/806/163 170/807/163 169/808/163
f 212/809/24 203/810/24 204/811/24 214/812/24
f 66/813/164 34/814/164 33/815/164 65/816/164
f 115/817/165 97/818/165 99/819/165 119/820/165
f 171/821/166 133/822/166 134/823/166 172/824/166
f 166/825/167 170/826/167 171/827/167 167/828/167
f 89/829/88 92/830/88 91/831/88 88/832/88
f 81/833/62 80/834/62 13/835/62 4/836/62
f 85/837/168 81/838/168 83/839/168 90/840/168
f 205/841/169 206/842/169 108/843/169 112/844/169
f 210/845/62 208/846/62 213/847/62 215/848/62
f 113/849/169 203/850/169 208/851/169 109/852/169
f 10/853/170 11/854/170 102/855/170 103/856/170
f 13/857/84 80/858/84 79/859/84 17/860/84
f 205/861/24 209/862/24 216/863/24 217/864/24
f 112/865/24 98/866/24 209/867/24 205/868/24
f 96/869/85 207/870/85 209/871/85 98/872/85
f 80/873/62 92/874/62 89/875/62 84/876/62
f 108/877/82 199/878/82 197/879/82 201/880/82
f 87/881/171 86/882/171 77/883/171 82/884/171
f 25/885/172 2/886/172 174/887/172 179/888/172
f 62/889/173 40/890/173 42/891/173 63/892/173
f 205/893/174 204/894/174 210/895/174 206/896/174
f 85/897/62 92/898/62 80/899/62 81/900/62
f 111/901/175 107/902/175 93/903/175 95/904/175
f 4/905/86 6/906/86 83/907/86 81/908/86
f 209/909/176 207/910/176 211/911/176 216/912/176
f 89/913/2 88/914/2 86/915/2 87/916/2
f 218/917/3 217/918/3 216/919/3 211/920/3
