# Blender v3.0.0 OBJ File: 'aa.blend'
# www.blender.org
mtllib WaterVase_3.mtl
o WaterVase_3
v 0.134802 -0.000000 -0.185539
v 0.162649 0.877798 -0.223867
v 0.218115 -0.000000 -0.070869
v 0.277168 0.857069 -0.026591
v 0.218115 0.000000 0.070869
v 0.277168 0.857069 0.026591
v 0.134802 0.000000 0.185539
v 0.151666 0.904116 0.208751
v 0.205678 0.774683 -0.283092
v 0.309442 0.594619 -0.303331
v 0.252377 0.385098 -0.347368
v 0.202354 0.193869 -0.278516
v 0.301029 0.821730 -0.026591
v 0.382910 0.662076 -0.026591
v 0.408356 0.385098 -0.132683
v 0.327416 0.193869 -0.106384
v 0.301029 0.821730 0.026591
v 0.382910 0.662076 0.026591
v 0.408356 0.385098 0.132683
v 0.327416 0.193869 0.106384
v 0.205678 0.774684 0.283092
v 0.255205 0.594619 0.351260
v 0.252377 0.385098 0.347368
v 0.202354 0.193869 0.278516
v 0.158581 0.922382 -0.218269
v 0.254868 0.934046 -0.082812
v 0.254868 0.934046 0.082811
v 0.157517 0.934046 0.216804
v 0.155644 0.986849 -0.254606
v 0.282724 0.975628 -0.061020
v 0.303909 1.007252 0.098746
v 0.187826 1.007252 0.258520
v 0.126957 1.052185 -0.253381
v 0.280211 1.052185 0.002256
v 0.280211 1.052185 0.091046
v 0.173180 1.052185 0.238362
v 0.124533 0.023657 -0.171405
v 0.133969 0.898309 -0.184392
v 0.201499 0.023657 -0.065471
v 0.216766 0.898309 -0.070432
v 0.201499 0.023657 0.065471
v 0.216766 0.898309 0.070432
v 0.124533 0.023657 0.171405
v 0.133969 0.898309 0.184392
v 0.189985 0.759603 -0.261492
v 0.282528 0.593102 -0.286481
v 0.234768 0.391630 -0.323130
v 0.186251 0.207643 -0.256353
v 0.307402 0.759603 -0.099881
v 0.384349 0.588526 -0.124883
v 0.379862 0.391630 -0.123425
v 0.301361 0.207643 -0.097918
v 0.307402 0.759603 0.099881
v 0.384349 0.588526 0.124883
v 0.379862 0.391630 0.123425
v 0.301361 0.207643 0.097918
v 0.189985 0.759604 0.261492
v 0.237541 0.588526 0.326947
v 0.234768 0.391630 0.323130
v 0.186251 0.207643 0.256353
v 0.141577 0.948357 -0.194863
v 0.229076 0.948357 -0.074431
v 0.229076 0.948357 0.074431
v 0.141577 0.948357 0.194863
v 0.132217 1.012205 -0.219461
v 0.251403 1.017893 -0.081686
v 0.256624 1.034152 0.083382
v 0.158602 1.034152 0.218297
v 0.245402 0.904116 0.079736
v 0.245402 0.904116 -0.079736
v 0.362816 0.707227 -0.026591
v 0.362816 0.707227 0.026591
v 0.332795 0.774684 -0.108131
v 0.412931 0.594619 -0.134169
v 0.332795 0.774684 0.108131
v 0.412931 0.594619 0.134169
v 0.445258 0.696650 0.026591
v 0.425165 0.741800 0.026591
v 0.363377 0.856304 0.026591
v 0.363377 0.856304 -0.026591
v 0.339517 0.891643 -0.026591
v 0.445258 0.696650 -0.026591
v 0.339517 0.891643 0.026591
v 0.425165 0.741800 -0.026591
v 0.379680 0.891977 -0.026591
v 0.379680 0.891977 0.026591
v 0.392764 0.872599 0.026591
v 0.392764 0.872599 -0.026591
v -0.134802 -0.000000 -0.185539
v -0.151666 0.904116 -0.208751
v -0.218115 -0.000000 -0.070869
v -0.277168 0.857069 -0.026591
v -0.218115 0.000000 0.070869
v -0.277168 0.857069 0.026591
v -0.134802 0.000000 0.185539
v -0.151666 0.904116 0.208751
v 0.000000 0.193869 -0.344265
v 0.096825 0.325437 -0.380046
v -0.205678 0.774683 -0.283092
v -0.255205 0.662438 -0.351260
v -0.252377 0.385098 -0.347368
v -0.202354 0.193869 -0.278516
v -0.301029 0.821730 -0.026591
v -0.382910 0.662076 -0.026591
v -0.408356 0.385098 -0.132683
v -0.327416 0.193869 -0.106384
v -0.301029 0.821730 0.026591
v -0.382910 0.662076 0.026591
v -0.408356 0.385098 0.132683
v -0.327416 0.193869 0.106384
v -0.205678 0.774684 0.283092
v -0.255205 0.594619 0.351260
v -0.252377 0.385098 0.347368
v -0.202354 0.193869 0.278516
v 0.000000 0.594619 0.434181
v 0.000000 0.385098 0.429371
v 0.000000 0.193869 0.344265
v -0.157517 0.934046 -0.216804
v -0.254868 0.934046 -0.082812
v -0.254868 0.934046 0.082811
v -0.157517 0.934046 0.216804
v -0.187826 0.978500 -0.258520
v -0.303909 1.007252 -0.098746
v -0.303909 1.007252 0.098746
v -0.187826 1.007252 0.258520
v -0.173180 1.023433 -0.238362
v -0.280211 1.052185 -0.091046
v -0.280211 1.052185 0.091046
v -0.187046 1.009646 0.257446
v -0.124533 0.023657 -0.171405
v -0.133969 0.898309 -0.184392
v -0.201499 0.023657 -0.065471
v -0.216766 0.898309 -0.070432
v -0.201499 0.023657 0.065471
v -0.216766 0.898309 0.070432
v -0.124533 0.023657 0.171405
v -0.133969 0.898309 0.184392
v 0.000000 0.207643 -0.316870
v 0.095443 0.331969 -0.350535
v -0.189985 0.759603 -0.261492
v -0.237541 0.656344 -0.326947
v -0.234768 0.391630 -0.323130
v -0.186251 0.207643 -0.256353
v -0.307402 0.759603 -0.099881
v -0.384349 0.588526 -0.124883
v -0.379862 0.391630 -0.123425
v -0.301361 0.207643 -0.097918
v -0.307402 0.759603 0.099881
v -0.384349 0.588526 0.124883
v -0.379862 0.391630 0.123425
v -0.301361 0.207643 0.097918
v -0.189985 0.759604 0.261492
v -0.237541 0.588526 0.326947
v -0.234768 0.391630 0.323130
v -0.186251 0.207643 0.256353
v 0.000000 0.588526 0.404129
v 0.000000 0.391630 0.399411
v 0.000000 0.207643 0.316870
v -0.141577 0.948357 -0.194863
v -0.229076 0.948357 -0.074431
v -0.229076 0.948357 0.074431
v -0.141577 0.948357 0.194863
v -0.158602 1.034152 -0.218298
v -0.256624 1.034152 -0.083382
v -0.256624 1.034152 0.083382
v -0.151399 0.997855 0.208383
v 0.000000 0.715137 -0.349921
v 0.000000 0.904116 -0.258031
v 0.000000 0.000000 0.229339
v 0.000000 -0.000000 -0.229339
v 0.000000 0.904116 0.258031
v 0.000000 0.774684 0.349921
v 0.000000 0.934046 -0.267984
v 0.000000 0.934046 0.267984
v 0.000000 1.007252 0.319548
v 0.000000 1.007252 -0.319548
v 0.000000 1.052185 0.294631
v 0.000000 1.052185 -0.294631
v 0.000000 0.700057 -0.323222
v 0.000000 0.898309 -0.227922
v 0.000000 0.023657 0.211868
v 0.000000 0.023657 -0.211868
v 0.000000 0.898309 0.227921
v 0.000000 0.759604 0.323222
v 0.000000 0.948357 -0.240864
v 0.000000 0.948357 0.240864
v 0.000000 1.034152 0.269831
v 0.000000 1.034152 -0.269831
v -0.245402 0.904116 0.079736
v -0.245402 0.904116 -0.079736
v -0.362816 0.707227 -0.026591
v -0.362816 0.707227 0.026591
v -0.332795 0.774684 -0.108131
v -0.412931 0.594619 -0.134169
v -0.332795 0.774684 0.108131
v -0.412931 0.594619 0.134169
v -0.445258 0.696650 0.026591
v -0.425165 0.741800 0.026591
v -0.363377 0.856304 0.026591
v -0.363377 0.856304 -0.026591
v -0.346063 0.881948 -0.026591
v -0.445258 0.696650 -0.026591
v -0.341573 0.888597 0.009886
v -0.425165 0.741800 -0.026591
v -0.379680 0.891977 -0.026591
v -0.466879 0.730395 0.026591
v -0.466879 0.730395 -0.026591
v -0.454551 0.758095 0.026591
v -0.454551 0.758095 -0.026591
v -0.379680 0.891977 0.026591
v -0.403247 0.853172 0.026591
v -0.384695 0.854629 -0.026591
v 0.930610 -0.000000 -0.030254
v 1.028631 0.000000 0.104661
v 1.028631 0.000000 0.271426
v 0.924935 0.010504 0.398530
v 0.628500 0.005777 -0.009477
v 0.515383 0.000000 0.104661
v 0.515383 0.000000 0.271426
v 0.613405 0.000000 0.406341
v 0.772007 0.000000 0.457874
v 0.915514 0.030503 -0.009477
v 0.965069 0.033402 0.166568
v 0.965069 0.033402 0.209519
v 0.908928 0.031293 0.376498
v 0.772007 0.031466 0.418528
v 0.628500 0.030503 -0.009477
v 0.578946 0.033402 0.166568
v 0.578946 0.033402 0.209519
v 0.628500 0.030503 0.385564
v 0.835950 0.033742 0.100034
v 0.772007 0.040039 0.079258
v 0.914606 0.037140 0.162614
v 0.914606 0.037140 0.213472
v 0.835950 0.040039 0.276053
v 0.772007 0.040039 0.296829
v 0.708065 0.040039 0.100034
v 0.629408 0.037140 0.162614
v 0.629408 0.037140 0.213472
v 0.708065 0.040039 0.276053
v 1.004207 0.030503 0.263490
v 1.004207 0.030503 0.112597
v 0.539808 0.030503 0.263490
v 0.539808 0.030503 0.112597
v 0.875468 0.040039 0.221660
v 0.875468 0.040039 0.154427
v 0.668546 0.040039 0.221660
v 0.668546 0.034172 0.154427
v 0.965069 0.066902 0.209519
v 0.965069 0.066902 0.166568
v 0.578946 0.066902 0.209519
v 0.578946 0.066902 0.166568
v 0.909046 0.062466 0.211314
v 0.909046 0.062466 0.160457
v 0.629408 0.070640 0.213472
v 0.629408 0.070640 0.162614
v 0.955897 0.080206 0.202941
v 0.955897 0.080206 0.166568
v 0.588117 0.080206 0.209519
v 0.588117 0.080206 0.166568
v 0.914606 0.095748 0.213472
v 0.914606 0.095748 0.162614
v 0.629408 0.095748 0.213472
v 0.629408 0.095748 0.162614
v 0.757305 0.082227 0.162614
v 0.724474 0.082227 0.162614
v 0.724474 0.107336 0.162614
v 0.757305 0.107336 0.162614
v 0.724474 0.107336 0.213472
v 0.757305 0.107336 0.213472
v 0.724474 0.082227 0.213472
v 0.757305 0.082227 0.213472
v 0.772007 0.000000 0.079258
vt 0.842747 0.650888
vt 0.888149 0.608752
vt 0.888149 0.677960
vt 0.791290 0.855912
vt 0.841496 0.810699
vt 0.841496 0.883722
vt 0.974719 0.722918
vt 0.959602 0.668520
vt 0.974719 0.665167
vt 0.714118 0.916807
vt 0.736093 0.886513
vt 0.736093 0.942880
vt 0.940800 0.021025
vt 0.951317 0.002662
vt 0.951317 0.021398
vt 0.929154 0.331118
vt 0.929154 0.360767
vt 0.918681 0.359735
vt 0.114467 0.936845
vt 0.133950 0.900354
vt 0.133950 0.955085
vt 0.148584 0.932669
vt 0.170015 0.894096
vt 0.170015 0.948574
vt 0.728530 0.093708
vt 0.728530 0.137834
vt 0.719249 0.105023
vt 0.917640 0.924111
vt 0.917640 0.974285
vt 0.910553 0.940931
vt 0.860299 0.105296
vt 0.891362 0.058523
vt 0.891362 0.126753
vt 0.591496 0.933560
vt 0.591496 0.989708
vt 0.580343 0.946338
vt 0.225756 0.806170
vt 0.251096 0.750997
vt 0.251096 0.843091
vt 0.082385 0.858095
vt 0.082385 0.910821
vt 0.073613 0.874101
vt 0.238689 0.127566
vt 0.220572 0.120634
vt 0.238689 0.093468
vt 0.032037 0.931914
vt 0.032037 0.992640
vt 0.022433 0.936217
vt 0.996370 0.843486
vt 0.996370 0.904211
vt 0.986767 0.899908
vt 0.836861 0.688299
vt 0.836861 0.729666
vt 0.828265 0.704400
vt 0.713924 0.093708
vt 0.713924 0.137834
vt 0.704643 0.105023
vt 0.699318 0.093708
vt 0.699318 0.137834
vt 0.690037 0.126520
vt 0.915572 0.002662
vt 0.915572 0.052837
vt 0.908485 0.019482
vt 0.882074 0.932054
vt 0.882074 0.988203
vt 0.870921 0.944833
vt 0.348766 0.934142
vt 0.348766 0.990291
vt 0.337613 0.977512
vt 0.454620 0.881367
vt 0.454620 0.942082
vt 0.447002 0.897953
vt 0.289151 0.938555
vt 0.289151 0.991281
vt 0.280379 0.975275
vt 0.670106 0.093708
vt 0.670106 0.134847
vt 0.658724 0.132988
vt 0.081115 0.491413
vt 0.138206 0.397352
vt 0.138206 0.501301
vt 0.742451 0.135075
vt 0.733855 0.118974
vt 0.742451 0.093708
vt 0.684712 0.137834
vt 0.675431 0.126519
vt 0.684712 0.093708
vt 0.791290 0.904952
vt 0.812720 0.889047
vt 0.812720 0.943525
vt 0.575018 0.989708
vt 0.563865 0.976930
vt 0.575018 0.933560
vt 0.884041 0.170443
vt 0.915103 0.148986
vt 0.915103 0.217216
vt 0.200720 0.884248
vt 0.193102 0.867661
vt 0.200720 0.823533
vt 0.089660 0.918593
vt 0.109143 0.900354
vt 0.109143 0.955085
vt 0.175340 0.910002
vt 0.196770 0.894096
vt 0.196770 0.948574
vt 0.839476 0.889047
vt 0.839476 0.943525
vt 0.818045 0.927619
vt 0.860995 0.485136
vt 0.892057 0.463678
vt 0.892057 0.531909
vt 0.904183 0.367279
vt 0.904183 0.435509
vt 0.873120 0.414052
vt 0.853375 0.185907
vt 0.878716 0.148986
vt 0.878716 0.241080
vt 0.936852 0.936486
vt 0.922965 0.893746
vt 0.936852 0.851006
vt 0.945274 0.127018
vt 0.931387 0.084278
vt 0.945274 0.041537
vt 0.252250 0.435534
vt 0.225835 0.399177
vt 0.252250 0.317880
vt 0.946971 0.549159
vt 0.933084 0.506419
vt 0.946971 0.463678
vt 0.934316 0.234466
vt 0.920428 0.191726
vt 0.934316 0.148986
vt 0.478317 0.900012
vt 0.463285 0.853748
vt 0.478317 0.807483
vt 0.853481 0.776169
vt 0.882074 0.736815
vt 0.882074 0.864170
vt 0.138206 0.392027
vt 0.098852 0.363433
vt 0.138206 0.242311
vt 0.854974 0.130018
vt 0.826381 0.090663
vt 0.854974 0.002662
vt 0.931517 0.701281
vt 0.916485 0.655016
vt 0.931517 0.608752
vt 0.785697 0.901881
vt 0.770664 0.855616
vt 0.785697 0.809352
vt 0.959832 0.851006
vt 0.959832 0.909005
vt 0.942177 0.893992
vt 0.851148 0.965318
vt 0.864617 0.932054
vt 0.864617 0.983841
vt 0.708581 0.897837
vt 0.708581 0.933724
vt 0.703049 0.911500
vt 0.967421 0.326274
vt 0.967421 0.361566
vt 0.957788 0.340788
vt 0.879326 0.717911
vt 0.886151 0.683285
vt 0.886151 0.729858
vt 0.913501 0.222541
vt 0.913501 0.257833
vt 0.903869 0.237055
vt 0.855026 0.717911
vt 0.861851 0.683285
vt 0.861851 0.729858
vt 0.225832 0.631747
vt 0.221502 0.617793
vt 0.225832 0.614327
vt 0.076265 0.775874
vt 0.084335 0.763695
vt 0.084335 0.778897
vt 0.596330 0.142505
vt 0.581085 0.134051
vt 0.596330 0.130901
vt 0.925707 0.053137
vt 0.920897 0.036497
vt 0.925707 0.033736
vt 0.373441 0.140973
vt 0.323197 0.071818
vt 0.373441 0.002662
vt 0.911160 0.717618
vt 0.893474 0.663185
vt 0.911160 0.608752
vt 0.912201 0.572544
vt 0.897382 0.518111
vt 0.912201 0.463678
vt 0.905085 0.845681
vt 0.887399 0.791248
vt 0.905085 0.736815
vt 0.252900 0.725550
vt 0.231496 0.672468
vt 0.252900 0.621601
vt 0.940296 0.598428
vt 0.933084 0.576509
vt 0.940295 0.554484
vt 0.965190 0.932998
vt 0.978925 0.914330
vt 0.978925 0.974741
vt 0.983299 0.101981
vt 0.969665 0.083257
vt 0.983299 0.041537
vt 0.943973 0.725748
vt 0.936842 0.703802
vt 0.943973 0.681857
vt 0.478317 0.963337
vt 0.460691 0.920229
vt 0.478317 0.905337
vt 0.708581 0.892512
vt 0.703049 0.878848
vt 0.708581 0.856624
vt 0.002662 0.950437
vt 0.016132 0.931914
vt 0.016132 0.983701
vt 0.867176 0.695232
vt 0.874001 0.683285
vt 0.874001 0.729858
vt 0.947313 0.844648
vt 0.937680 0.830134
vt 0.947313 0.809356
vt 0.842747 0.695160
vt 0.849701 0.683285
vt 0.849701 0.729760
vt 0.848050 0.258162
vt 0.838417 0.243648
vt 0.848050 0.222870
vt 0.744200 0.361460
vt 0.735803 0.359523
vt 0.744200 0.346850
vt 0.225832 0.637071
vt 0.225832 0.654491
vt 0.221502 0.651025
vt 0.332015 0.936783
vt 0.332015 0.956080
vt 0.326673 0.953376
vt 0.806245 0.444230
vt 0.817647 0.442068
vt 0.817647 0.457270
vt 0.780454 0.457900
vt 0.763550 0.457541
vt 0.780454 0.439816
vt 0.395768 0.811239
vt 0.395768 0.866258
vt 0.337613 0.832563
vt 0.714118 0.837128
vt 0.765339 0.809352
vt 0.765339 0.881188
vt 0.496315 0.100082
vt 0.496315 0.130814
vt 0.441045 0.112254
vt 0.653399 0.131133
vt 0.639203 0.104168
vt 0.653399 0.093708
vt 0.812434 0.252057
vt 0.833023 0.237547
vt 0.833023 0.256944
vt 0.975309 0.575169
vt 0.987918 0.545048
vt 0.987918 0.602003
vt 0.997338 0.041537
vt 0.997338 0.104807
vt 0.988624 0.101635
vt 0.669389 0.932901
vt 0.678103 0.929729
vt 0.678103 0.992998
vt 0.978299 0.220786
vt 0.984464 0.216806
vt 0.984464 0.261460
vt 0.252900 0.246407
vt 0.252900 0.312555
vt 0.148584 0.281409
vt 0.395768 0.652144
vt 0.395768 0.726367
vt 0.342169 0.716621
vt 0.342169 0.661889
vt 0.573806 0.368078
vt 0.573806 0.435673
vt 0.508246 0.436857
vt 0.489090 0.367279
vt 0.220510 0.318390
vt 0.220510 0.409465
vt 0.148584 0.409975
vt 0.148584 0.317880
vt 0.965157 0.896346
vt 0.971735 0.851006
vt 0.981442 0.855072
vt 0.981442 0.904211
vt 0.093527 0.390592
vt 0.080115 0.387869
vt 0.080115 0.336082
vt 0.093527 0.333358
vt 0.533201 0.930767
vt 0.533201 0.985954
vt 0.520222 0.981614
vt 0.524747 0.930025
vt 0.148584 0.745672
vt 0.148584 0.672649
vt 0.224967 0.684838
vt 0.224967 0.733483
vt 0.483765 0.367279
vt 0.483765 0.458353
vt 0.412498 0.449327
vt 0.412498 0.376305
vt 0.328187 0.241081
vt 0.328187 0.148986
vt 0.400113 0.149496
vt 0.400113 0.240571
vt 0.614989 0.264448
vt 0.558622 0.261219
vt 0.559556 0.250434
vt 0.614989 0.239031
vt 0.485515 0.712978
vt 0.485515 0.664332
vt 0.561898 0.652144
vt 0.561898 0.725166
vt 0.219852 0.506375
vt 0.148584 0.497348
vt 0.148584 0.424326
vt 0.219852 0.415300
vt 0.148584 0.582104
vt 0.216177 0.581604
vt 0.216177 0.667324
vt 0.148584 0.666824
vt 0.143259 0.681230
vt 0.143259 0.749789
vt 0.078879 0.758370
vt 0.078879 0.672649
vt 0.515756 0.862389
vt 0.515756 0.919231
vt 0.485515 0.924700
vt 0.485515 0.856920
vt 0.620731 0.865676
vt 0.563865 0.855569
vt 0.563865 0.807224
vt 0.620731 0.797117
vt 0.713656 0.342882
vt 0.637273 0.330693
vt 0.637273 0.282047
vt 0.713656 0.269859
vt 0.482030 0.158012
vt 0.553297 0.148986
vt 0.553297 0.240060
vt 0.482030 0.231034
vt 0.325402 0.880367
vt 0.325402 0.931458
vt 0.302387 0.925794
vt 0.294476 0.877295
vt 0.778498 0.549399
vt 0.714118 0.540818
vt 0.714118 0.472259
vt 0.778498 0.463678
vt 0.401093 0.865935
vt 0.401093 0.817590
vt 0.457960 0.807483
vt 0.457960 0.876042
vt 0.477476 0.646819
vt 0.409883 0.646319
vt 0.409883 0.561599
vt 0.477476 0.561099
vt 0.412498 0.472615
vt 0.480140 0.463678
vt 0.480140 0.555774
vt 0.412498 0.546837
vt 0.982509 0.424121
vt 0.982509 0.367279
vt 0.993283 0.368335
vt 0.993283 0.423066
vt 0.037362 0.915329
vt 0.037362 0.858095
vt 0.068288 0.861167
vt 0.068288 0.912257
vt 0.368539 0.925745
vt 0.337613 0.928817
vt 0.337613 0.871583
vt 0.368539 0.874655
vt 0.785965 0.792891
vt 0.714118 0.804027
vt 0.714118 0.736815
vt 0.785965 0.747951
vt 0.860299 0.020883
vt 0.903160 0.002662
vt 0.903160 0.053198
vt 0.862341 0.043867
vt 0.225835 0.452412
vt 0.247433 0.440859
vt 0.247433 0.499162
vt 0.229834 0.498051
vt 0.662158 0.924404
vt 0.631917 0.918936
vt 0.631917 0.862093
vt 0.662158 0.856624
vt 0.990234 0.667797
vt 0.990234 0.725032
vt 0.980044 0.727662
vt 0.980044 0.665167
vt 0.936842 0.673889
vt 0.936842 0.611395
vt 0.954277 0.608752
vt 0.954277 0.676532
vt 0.929704 0.322721
vt 0.898778 0.325793
vt 0.911861 0.269859
vt 0.929704 0.271631
vt 0.631917 0.986964
vt 0.631917 0.929729
vt 0.645328 0.932453
vt 0.645328 0.984240
vt 0.633878 0.093708
vt 0.633878 0.138362
vt 0.622347 0.130918
vt 0.622347 0.093840
vt 0.697724 0.924404
vt 0.667483 0.918936
vt 0.667483 0.862093
vt 0.697724 0.856624
vt 0.791184 0.207438
vt 0.791184 0.159093
vt 0.848050 0.148986
vt 0.848050 0.217545
vt 0.258225 0.813519
vt 0.315091 0.803411
vt 0.315091 0.871970
vt 0.258225 0.861863
vt 0.795639 0.279966
vt 0.852505 0.269859
vt 0.852505 0.338418
vt 0.795639 0.328311
vt 0.961537 0.827193
vt 0.961537 0.844648
vt 0.952638 0.843907
vt 0.952638 0.826453
vt 0.330071 0.730875
vt 0.330071 0.798086
vt 0.258225 0.786950
vt 0.258225 0.742011
vt 0.252900 0.149497
vt 0.252900 0.240572
vt 0.180974 0.241082
vt 0.157703 0.148986
vt 0.714118 0.631864
vt 0.714118 0.563305
vt 0.778498 0.554724
vt 0.778498 0.640444
vt 0.708793 0.536701
vt 0.632410 0.524513
vt 0.632410 0.475867
vt 0.708793 0.463678
vt 0.896687 0.117987
vt 0.902884 0.061483
vt 0.926062 0.058523
vt 0.926062 0.127018
vt 0.795639 0.357583
vt 0.795639 0.345100
vt 0.810780 0.343743
vt 0.810780 0.361197
vt 0.733757 0.434491
vt 0.733757 0.367279
vt 0.805604 0.378415
vt 0.805604 0.423355
vt 0.627275 0.233706
vt 0.558622 0.224952
vt 0.558622 0.157740
vt 0.627275 0.148986
vt 0.816105 0.344483
vt 0.827686 0.343743
vt 0.827686 0.361197
vt 0.816105 0.361938
vt 0.741418 0.889156
vt 0.758852 0.886513
vt 0.758852 0.954293
vt 0.741418 0.951651
vt 0.220431 0.807072
vt 0.148584 0.818208
vt 0.148584 0.750997
vt 0.220431 0.762133
vt 0.071315 0.527177
vt 0.071315 0.611897
vt 0.002662 0.603143
vt 0.002662 0.535931
vt 0.532814 0.453679
vt 0.513574 0.452197
vt 0.515442 0.443465
vt 0.532814 0.442182
vt 0.778498 0.731490
vt 0.714118 0.722909
vt 0.714118 0.654350
vt 0.778498 0.645769
vt 0.783823 0.519754
vt 0.783823 0.474814
vt 0.855670 0.463678
vt 0.855670 0.530890
vt 0.215247 0.093468
vt 0.215247 0.142624
vt 0.174831 0.128793
vt 0.175209 0.105721
vt 0.977290 0.659842
vt 0.959602 0.658469
vt 0.959602 0.610125
vt 0.977290 0.608752
vt 0.790213 0.262015
vt 0.790213 0.237547
vt 0.807109 0.239031
vt 0.807109 0.263499
vt 0.887399 0.973828
vt 0.887399 0.925484
vt 0.905087 0.924111
vt 0.905087 0.975201
vt 0.959865 0.914330
vt 0.959865 0.965421
vt 0.942177 0.964048
vt 0.942177 0.915703
vt 0.073930 0.439804
vt 0.073930 0.512826
vt 0.002662 0.521852
vt 0.002663 0.430778
vt 0.891921 0.591396
vt 0.860995 0.594468
vt 0.860995 0.537234
vt 0.891921 0.540306
vt 0.384880 0.130553
vt 0.378766 0.100082
vt 0.435720 0.100314
vt 0.435720 0.125503
vt 0.407173 0.376305
vt 0.407173 0.449328
vt 0.335905 0.458353
vt 0.335905 0.367279
vt 0.953471 0.049852
vt 0.964340 0.041537
vt 0.964340 0.107686
vt 0.950599 0.107781
vt 0.575760 0.092707
vt 0.575760 0.143438
vt 0.532609 0.125917
vt 0.534278 0.102902
vt 0.459229 0.264343
vt 0.455417 0.245385
vt 0.496307 0.246091
vt 0.496307 0.264343
vt 0.988488 0.211481
vt 0.978299 0.208850
vt 0.978299 0.151616
vt 0.988488 0.148986
vt 0.733757 0.458068
vt 0.733757 0.439816
vt 0.758225 0.439816
vt 0.758225 0.458068
vt 0.800920 0.441172
vt 0.800920 0.455914
vt 0.785779 0.457270
vt 0.785779 0.439816
vt 0.581085 0.125576
vt 0.581085 0.092707
vt 0.598539 0.092707
vt 0.598539 0.125576
vt 0.857830 0.340413
vt 0.871584 0.340413
vt 0.871584 0.358665
vt 0.857830 0.358665
vt 0.566440 0.450207
vt 0.554952 0.457825
vt 0.554952 0.443191
vt 0.566440 0.442182
vt 0.400037 0.246406
vt 0.400037 0.263860
vt 0.391419 0.263860
vt 0.391419 0.246406
vt 0.378766 0.094757
vt 0.378766 0.002662
vt 0.450692 0.003172
vt 0.450692 0.094247
vt 0.220572 0.140916
vt 0.220572 0.132891
vt 0.238824 0.132891
vt 0.238824 0.140916
vt 0.274113 0.174493
vt 0.322862 0.148986
vt 0.322862 0.264534
vt 0.258225 0.239800
vt 0.920897 0.003943
vt 0.935475 0.002662
vt 0.935475 0.027131
vt 0.920897 0.028411
vt 0.954171 0.367279
vt 0.954171 0.434495
vt 0.952952 0.434431
vt 0.936881 0.369899
vt 0.975477 0.319576
vt 0.957788 0.320949
vt 0.957788 0.269859
vt 0.975477 0.271231
vt 0.255893 0.130088
vt 0.268685 0.130912
vt 0.268685 0.142952
vt 0.250437 0.143335
vt 0.984250 0.914330
vt 0.995023 0.915386
vt 0.995023 0.970117
vt 0.984250 0.971173
vt 0.969984 0.545048
vt 0.969984 0.596138
vt 0.952296 0.594766
vt 0.952296 0.546421
vt 0.889942 0.440834
vt 0.901210 0.440834
vt 0.901210 0.458289
vt 0.889942 0.458289
vt 0.342169 0.796168
vt 0.342169 0.741437
vt 0.395768 0.731692
vt 0.395768 0.805914
vt 0.558540 0.851595
vt 0.485515 0.838317
vt 0.500792 0.797694
vt 0.558540 0.797117
vt 0.335475 0.269859
vt 0.407401 0.270369
vt 0.407401 0.361443
vt 0.335475 0.361953
vt 0.293353 0.131838
vt 0.293353 0.143335
vt 0.275981 0.142052
vt 0.274010 0.133342
vt 0.567222 0.660690
vt 0.620822 0.650944
vt 0.620822 0.725166
vt 0.567223 0.715421
vt 0.851148 0.872567
vt 0.882074 0.869495
vt 0.882074 0.926729
vt 0.851148 0.923657
vt 0.477476 0.725167
vt 0.401093 0.712978
vt 0.401093 0.664333
vt 0.477476 0.652144
vt 0.412726 0.269859
vt 0.483994 0.278884
vt 0.483994 0.351907
vt 0.412726 0.360933
vt 0.093527 0.327532
vt 0.002662 0.328033
vt 0.025933 0.242311
vt 0.093527 0.242812
vt 0.652049 0.440301
vt 0.652049 0.367279
vt 0.728432 0.379468
vt 0.728432 0.428113
vt 0.627085 0.553723
vt 0.627085 0.638443
vt 0.558433 0.629689
vt 0.558433 0.562477
vt 0.935029 0.334996
vt 0.935029 0.272501
vt 0.952463 0.269859
vt 0.952463 0.337639
vt 0.441677 0.881367
vt 0.441677 0.949862
vt 0.424719 0.945025
vt 0.424047 0.881759
vt 0.335905 0.561099
vt 0.404558 0.569853
vt 0.404558 0.637064
vt 0.335905 0.645818
vt 0.074588 0.333358
vt 0.074588 0.425453
vt 0.002662 0.424943
vt 0.002663 0.333868
vt 0.305249 0.993625
vt 0.294476 0.992569
vt 0.294476 0.937838
vt 0.305249 0.936783
vt 0.334608 0.652527
vt 0.334608 0.725550
vt 0.258225 0.713361
vt 0.258225 0.664716
vt 0.631948 0.354578
vt 0.563296 0.345825
vt 0.563296 0.278613
vt 0.631948 0.269859
vt 0.553108 0.561098
vt 0.553108 0.646819
vt 0.485515 0.646318
vt 0.485515 0.561599
vt 0.424827 0.802158
vt 0.401093 0.730492
vt 0.472426 0.735941
vt 0.472426 0.793698
vt 0.401765 0.886204
vt 0.418722 0.881367
vt 0.418722 0.949861
vt 0.401093 0.949469
vt 0.476705 0.240060
vt 0.405438 0.231035
vt 0.405438 0.158012
vt 0.476705 0.148986
vt 0.335905 0.546837
vt 0.335906 0.472615
vt 0.403548 0.463678
vt 0.403548 0.555774
vt 0.354091 0.990985
vt 0.354091 0.934142
vt 0.364864 0.935198
vt 0.364864 0.989930
vt 0.563865 0.871001
vt 0.594791 0.874073
vt 0.594791 0.925163
vt 0.563865 0.928235
vt 0.991575 0.326702
vt 0.980802 0.325646
vt 0.980802 0.270914
vt 0.991575 0.269859
vt 0.503972 0.985812
vt 0.503972 0.931081
vt 0.514746 0.930025
vt 0.514746 0.986868
vt 0.749210 0.075199
vt 0.821056 0.086335
vt 0.821056 0.131275
vt 0.749210 0.142411
vt 0.833011 0.360929
vt 0.833011 0.343968
vt 0.844499 0.351532
vt 0.844499 0.361938
vt 0.917640 0.851006
vt 0.917640 0.918786
vt 0.887399 0.913317
vt 0.887399 0.856475
vt 0.089660 0.773440
vt 0.143259 0.763695
vt 0.143259 0.837917
vt 0.089660 0.828171
vt 0.783823 0.673229
vt 0.783823 0.618497
vt 0.837422 0.608752
vt 0.837422 0.682974
vt 0.897395 0.598144
vt 0.897382 0.580689
vt 0.910849 0.577869
vt 0.910849 0.601032
vt 0.684312 0.932453
vt 0.697724 0.929729
vt 0.697724 0.986964
vt 0.684312 0.984240
vt 0.703763 0.851299
vt 0.631917 0.840163
vt 0.631917 0.795224
vt 0.703763 0.784088
vt 0.383505 0.935839
vt 0.373864 0.879209
vt 0.393648 0.871583
vt 0.393648 0.938643
vt 0.821056 0.002662
vt 0.821056 0.069874
vt 0.749210 0.058738
vt 0.749210 0.013798
vt 0.864863 0.256811
vt 0.853375 0.264375
vt 0.853375 0.247414
vt 0.864863 0.246405
vt 0.081115 0.565078
vt 0.081115 0.516733
vt 0.137982 0.506626
vt 0.137982 0.575185
vt 0.810928 0.425731
vt 0.810928 0.377386
vt 0.867795 0.367279
vt 0.867795 0.435838
vt 0.521081 0.919231
vt 0.521081 0.862389
vt 0.551322 0.856920
vt 0.551322 0.924700
vt 0.607518 0.098228
vt 0.617022 0.093708
vt 0.617022 0.141878
vt 0.606587 0.143240
vt 0.955285 0.200076
vt 0.955285 0.148986
vt 0.972974 0.150358
vt 0.972974 0.198703
vt 0.632410 0.644259
vt 0.708793 0.632071
vt 0.708793 0.705094
vt 0.632410 0.692905
vt 0.485465 0.546837
vt 0.485465 0.472615
vt 0.553108 0.463678
vt 0.553108 0.555773
vt 0.855670 0.536215
vt 0.855670 0.603427
vt 0.783823 0.592291
vt 0.783823 0.547351
vt 0.258225 0.472998
vt 0.325867 0.464062
vt 0.325867 0.556157
vt 0.258225 0.547220
vt 0.674180 0.003163
vt 0.674180 0.087883
vt 0.606587 0.088383
vt 0.606587 0.002662
vt 0.939684 0.241915
vt 0.939641 0.151049
vt 0.949960 0.148986
vt 0.949960 0.244184
vt 0.031256 0.148986
vt 0.152378 0.188341
vt 0.152378 0.236986
vt 0.002662 0.236986
vt 0.558433 0.463678
vt 0.627085 0.472432
vt 0.627085 0.539644
vt 0.558433 0.548398
vt 0.258225 0.561982
vt 0.325818 0.561482
vt 0.325818 0.647202
vt 0.258225 0.646702
vt 0.143259 0.667324
vt 0.078879 0.658743
vt 0.078879 0.590184
vt 0.143259 0.581604
vt 0.113571 0.045403
vt 0.127458 0.002662
vt 0.245112 0.002662
vt 0.245112 0.088143
vt 0.557971 0.269859
vt 0.557971 0.354578
vt 0.489318 0.345825
vt 0.489318 0.278613
vt 0.646724 0.367279
vt 0.646724 0.452999
vt 0.579131 0.452499
vt 0.579131 0.367779
vt 0.074509 0.785558
vt 0.074509 0.852770
vt 0.002662 0.841634
vt 0.002662 0.796694
vt 0.532609 0.011416
vt 0.601262 0.002662
vt 0.601262 0.087382
vt 0.532609 0.078628
vt 0.386094 0.260147
vt 0.328187 0.258165
vt 0.328187 0.249679
vt 0.386094 0.246406
vt 0.679505 0.079802
vt 0.679505 0.011243
vt 0.743885 0.002662
vt 0.743885 0.088383
vt 0.924988 0.818091
vt 0.924988 0.842559
vt 0.910410 0.841279
vt 0.910410 0.816811
vt 0.977184 0.368652
vt 0.977184 0.416996
vt 0.959496 0.418369
vt 0.959496 0.367279
vt 0.822940 0.712767
vt 0.806044 0.714251
vt 0.806044 0.689783
vt 0.822940 0.688299
vt 0.060375 0.971744
vt 0.060375 0.920654
vt 0.078064 0.922027
vt 0.078064 0.970371
vt 0.902777 0.355937
vt 0.898778 0.331118
vt 0.913356 0.332398
vt 0.913356 0.356866
vt 0.252172 0.614472
vt 0.243618 0.615515
vt 0.243618 0.582646
vt 0.252172 0.581604
vt 0.228897 0.911093
vt 0.245267 0.905528
vt 0.245267 0.961942
vt 0.233667 0.960017
vt 0.148584 0.857445
vt 0.152158 0.823533
vt 0.187777 0.836045
vt 0.187777 0.888771
vt 0.708793 0.626746
vt 0.632410 0.614557
vt 0.632410 0.565912
vt 0.708793 0.553723
vt 0.791290 0.805374
vt 0.791290 0.736815
vt 0.848156 0.746922
vt 0.848156 0.795267
vt 0.236483 0.730875
vt 0.242029 0.730875
vt 0.242029 0.745616
vt 0.236483 0.745616
vt 0.784888 0.262015
vt 0.767992 0.263499
vt 0.767992 0.239031
vt 0.784888 0.237547
vt 0.526100 0.263638
vt 0.501632 0.263638
vt 0.501632 0.245385
vt 0.526100 0.245385
vt 0.730478 0.361591
vt 0.718981 0.361591
vt 0.718981 0.346850
vt 0.730478 0.346850
vt 0.498647 0.930025
vt 0.498647 0.986439
vt 0.485515 0.982588
vt 0.487035 0.931879
vt 0.243538 0.573639
vt 0.148584 0.576279
vt 0.170604 0.511699
vt 0.243538 0.525469
vt 0.330150 0.361954
vt 0.258225 0.361444
vt 0.258225 0.270369
vt 0.330150 0.269859
vt 0.720838 0.263499
vt 0.720838 0.239031
vt 0.739090 0.239031
vt 0.739090 0.263499
vt 0.310574 0.992569
vt 0.310574 0.937838
vt 0.321348 0.936783
vt 0.321348 0.993625
vt 0.884617 0.458289
vt 0.873120 0.458289
vt 0.873120 0.440834
vt 0.884617 0.440834
vt 0.669232 0.361140
vt 0.657339 0.359264
vt 0.662058 0.349750
vt 0.669232 0.348207
vt 0.549677 0.262347
vt 0.531425 0.262347
vt 0.531425 0.245385
vt 0.549677 0.245385
vt 0.952791 0.537507
vt 0.952296 0.465341
vt 0.963079 0.463678
vt 0.963079 0.539723
vt 0.108246 0.112694
vt 0.002662 0.143661
vt 0.004234 0.034806
vt 0.108246 0.002662
vt 0.133993 0.843242
vt 0.133993 0.895029
vt 0.089791 0.880673
vt 0.089660 0.857511
vt 0.538139 0.450207
vt 0.538139 0.442182
vt 0.549627 0.443191
vt 0.549627 0.457825
vt 0.708983 0.148986
vt 0.708983 0.222009
vt 0.632600 0.209820
vt 0.632600 0.161174
vt 0.637273 0.348207
vt 0.652014 0.348207
vt 0.652014 0.359704
vt 0.637273 0.359704
vt 0.697260 0.239031
vt 0.715513 0.239031
vt 0.715513 0.263499
vt 0.697260 0.263499
vt 0.551322 0.930025
vt 0.551322 0.987203
vt 0.538526 0.983421
vt 0.541068 0.932394
vt 0.785859 0.148986
vt 0.785859 0.221105
vt 0.728166 0.218524
vt 0.714308 0.177395
vt 0.067640 0.714662
vt 0.067640 0.780233
vt 0.003214 0.772010
vt 0.002662 0.703453
vt 0.931556 0.441950
vt 0.909508 0.434853
vt 0.909611 0.374409
vt 0.931556 0.367279
vt 0.961042 0.809695
vt 0.960295 0.738159
vt 0.970733 0.736815
vt 0.970733 0.813799
vt 0.654944 0.778763
vt 0.631917 0.710419
vt 0.708793 0.714494
vt 0.708793 0.768972
vt 0.916485 0.726870
vt 0.916485 0.709416
vt 0.929954 0.706606
vt 0.929954 0.729681
vt 0.650653 0.986964
vt 0.650653 0.929729
vt 0.664064 0.932453
vt 0.664064 0.984240
vt 0.073164 0.685282
vt 0.002662 0.698129
vt 0.005267 0.623952
vt 0.073164 0.617222
vt 0.579745 0.767922
vt 0.579606 0.744747
vt 0.623943 0.730491
vt 0.623943 0.782278
vt 0.247354 0.733132
vt 0.252900 0.730875
vt 0.252900 0.745616
vt 0.247354 0.745616
vt 0.932355 0.743945
vt 0.932355 0.804356
vt 0.910410 0.811486
vt 0.910410 0.736815
vt 0.258318 0.941703
vt 0.268360 0.938555
vt 0.268360 0.996823
vt 0.258225 0.994563
vt 0.238293 0.607021
vt 0.221502 0.609002
vt 0.225579 0.585654
vt 0.238293 0.581604
vt 0.953718 0.737005
vt 0.954970 0.736815
vt 0.954970 0.804031
vt 0.937680 0.801411
vt 0.251096 0.848416
vt 0.251096 0.900203
vt 0.206792 0.885847
vt 0.206792 0.862772
vt 0.884043 0.224511
vt 0.898544 0.222541
vt 0.898544 0.247810
vt 0.884041 0.248979
vt 0.790313 0.336076
vt 0.718981 0.341525
vt 0.742715 0.269859
vt 0.790313 0.278319
vt 0.330606 0.806042
vt 0.330606 0.863276
vt 0.320416 0.865906
vt 0.320416 0.803411
vt 0.316930 0.131838
vt 0.316930 0.143370
vt 0.298678 0.143370
vt 0.298678 0.131838
vt 0.638565 0.239240
vt 0.638565 0.264379
vt 0.625765 0.263705
vt 0.620314 0.239031
vt 0.643890 0.257283
vt 0.643890 0.239031
vt 0.668358 0.239031
vt 0.668358 0.257283
vt 0.955285 0.206774
vt 0.972974 0.205401
vt 0.972974 0.256491
vt 0.955285 0.255118
vt 0.055051 0.922027
vt 0.055051 0.970371
vt 0.037362 0.971744
vt 0.037362 0.920654
vt 0.210143 0.908165
vt 0.223572 0.905528
vt 0.223572 0.962762
vt 0.206792 0.958589
vt 0.668642 0.445626
vt 0.679910 0.445626
vt 0.679910 0.454244
vt 0.668642 0.454244
vt 0.289151 0.880368
vt 0.289151 0.931458
vt 0.271309 0.933230
vt 0.258225 0.877295
vt 0.984166 0.519581
vt 0.984166 0.462739
vt 0.994940 0.463795
vt 0.994940 0.518526
vt 0.783823 0.712767
vt 0.783823 0.688299
vt 0.800719 0.689783
vt 0.800719 0.714251
vt 0.876909 0.341259
vt 0.888376 0.340413
vt 0.888376 0.357832
vt 0.876909 0.358679
vt 0.456017 0.002662
vt 0.527284 0.011688
vt 0.527284 0.084711
vt 0.456017 0.093737
vt 0.405438 0.245385
vt 0.450092 0.245385
vt 0.450092 0.263638
vt 0.405438 0.263638
vt 0.673683 0.239031
vt 0.691935 0.239031
vt 0.691935 0.263499
vt 0.673683 0.263499
vt 0.922965 0.974680
vt 0.922965 0.941811
vt 0.931519 0.942854
vt 0.931519 0.975722
vt 0.932244 0.248852
vt 0.932244 0.263402
vt 0.920428 0.255300
vt 0.921934 0.239791
vt 0.950599 0.113106
vt 0.961005 0.113106
vt 0.961005 0.131358
vt 0.950599 0.131358
vt 0.519095 0.100082
vt 0.519095 0.132951
vt 0.501640 0.132951
vt 0.501640 0.100082
vt 0.206045 0.823533
vt 0.219830 0.823533
vt 0.219830 0.841785
vt 0.206045 0.841785
vt 0.317872 0.002662
vt 0.317872 0.124763
vt 0.266794 0.098590
vt 0.250437 0.027422
vt 0.762667 0.239031
vt 0.762667 0.263499
vt 0.744415 0.263499
vt 0.744415 0.239031
vt 0.935029 0.360383
vt 0.935029 0.342964
vt 0.946495 0.343810
vt 0.946495 0.361230
vt 0.862989 0.285179
vt 0.893453 0.269859
vt 0.893453 0.322585
vt 0.857830 0.335088
vt 0.609757 0.873805
vt 0.619901 0.871001
vt 0.619901 0.938060
vt 0.600116 0.930435
vt 0.918389 0.580987
vt 0.917526 0.465442
vt 0.927759 0.463678
vt 0.927759 0.585779
vt 0.489997 0.442182
vt 0.508249 0.442182
vt 0.508249 0.455115
vt 0.489090 0.457738
vt 0.032037 0.926589
vt 0.008859 0.923630
vt 0.002662 0.867126
vt 0.032037 0.858095
vt 0.574281 0.733703
vt 0.574281 0.778725
vt 0.506979 0.791792
vt 0.485515 0.730491
vt 0.258654 0.458352
vt 0.258225 0.367279
vt 0.330580 0.390677
vt 0.330580 0.458737
vt 0.775012 0.964769
vt 0.770358 0.907206
vt 0.785697 0.909329
vt 0.785697 0.966507
vt 0.976686 0.803776
vt 0.976058 0.737841
vt 0.986531 0.736815
vt 0.986531 0.808478
vt 0.969151 0.466843
vt 0.978841 0.462739
vt 0.978841 0.539723
vt 0.968404 0.538379
vt 0.169506 0.124200
vt 0.113571 0.134315
vt 0.117874 0.116081
vt 0.169506 0.093468
vt 0.948149 0.457275
vt 0.936881 0.457275
vt 0.936881 0.439820
vt 0.948149 0.439820
vt 0.663317 0.454244
vt 0.652049 0.454244
vt 0.652049 0.445626
vt 0.663317 0.445626
vn -0.3384 0.3986 0.8524
vn 0.2779 -0.4372 -0.8554
vn 0.2254 0.1416 -0.9639
vn 0.9728 0.1657 -0.1618
vn -0.0219 0.4755 -0.8794
vn -0.6074 0.7944 0.0000
vn 0.8288 0.5596 0.0000
vn 0.9136 0.4066 0.0000
vn 0.8116 0.3878 -0.4369
vn 0.1877 0.7944 0.5776
vn 0.4914 0.7944 0.3570
vn -0.8288 0.5596 0.0000
vn -0.9136 0.4066 -0.0000
vn 0.0000 -0.0000 -1.0000
vn -0.0220 -0.9993 -0.0294
vn -0.0000 1.0000 -0.0000
vn -0.0000 -1.0000 0.0000
vn 0.0871 0.9956 0.0338
vn 0.0739 0.9973 -0.0000
vn -0.0739 0.9973 -0.0000
vn -0.0821 0.0566 0.9950
vn -0.0953 0.0000 -0.9954
vn 0.2110 -0.0983 0.9725
vn 0.1026 0.0707 -0.9922
vn 0.1430 -0.9700 0.1968
vn 0.0510 -0.9987 0.0000
vn -0.1574 0.9875 -0.0000
vn 0.1273 0.9875 -0.0925
vn 0.0630 0.9942 -0.0868
vn -0.0228 0.9973 -0.0703
vn 0.0343 0.9809 -0.1916
vn -0.0953 0.0000 0.9954
vn -0.0821 0.0566 -0.9950
vn -0.0061 0.4399 0.8980
vn 0.1122 0.0456 -0.9926
vn 0.8728 0.3774 0.3095
vn -0.2770 0.4435 0.8524
vn 0.3315 -0.3952 -0.8567
vn 0.2567 -0.5566 -0.7901
vn 0.8845 0.4665 0.0000
vn 0.3334 -0.2031 -0.9207
vn -0.7046 0.7081 -0.0475
vn -0.2521 0.9177 -0.3071
vn -0.2141 0.9177 -0.3347
vn 0.6705 0.5596 0.4871
vn -0.8239 0.0583 0.5638
vn 0.3089 -0.0218 0.9508
vn -0.1886 0.6901 0.6987
vn 0.6315 0.6250 -0.4588
vn -0.7030 0.3958 -0.5909
vn 0.8711 -0.4911 0.0000
vn -0.7450 -0.3898 -0.5413
vn -0.8088 -0.0218 0.5876
vn 0.2430 -0.4210 -0.8739
vn 0.2692 -0.4911 -0.8285
vn 0.9209 -0.3898 0.0000
vn -0.8088 0.0228 -0.5876
vn 0.7378 -0.4102 -0.5361
vn -0.6721 -0.5566 0.4883
vn -0.6772 -0.5470 -0.4920
vn -0.2692 -0.4911 -0.8285
vn -0.9209 -0.3898 0.0000
vn -0.2942 0.3057 0.9055
vn 0.2818 -0.4102 -0.8674
vn 0.6772 -0.5470 0.4920
vn 0.8088 0.0228 -0.5876
vn 0.7391 0.4066 0.5370
vn 0.9534 -0.3016 0.0000
vn 0.2942 0.3057 0.9055
vn -0.2942 0.3057 -0.9055
vn 0.8789 0.4770 -0.0000
vn -0.0228 0.9973 0.0703
vn 0.3544 0.3020 -0.8850
vn 0.2567 -0.5566 0.7901
vn 0.6074 0.7944 0.0000
vn -0.8845 0.4665 0.0000
vn 0.7703 0.3057 -0.5596
vn -0.6315 0.6250 0.4588
vn -0.0000 0.0000 1.0000
vn 0.6721 -0.5566 0.4883
vn 0.2587 -0.5470 -0.7962
vn -0.6772 -0.5470 0.4920
vn 0.8371 -0.5470 0.0000
vn -0.9767 -0.2144 0.0000
vn -0.8789 0.4770 -0.0000
vn -0.8075 -0.0188 -0.5896
vn -0.2818 -0.4102 -0.8674
vn 0.7047 -0.4911 0.5120
vn -0.1889 -0.6395 -0.7452
vn 0.3523 0.9359 0.0000
vn -0.2716 0.4770 0.8359
vn -0.2842 0.3924 -0.8748
vn -0.9863 0.1648 -0.0000
vn 0.7156 0.4665 0.5199
vn 0.7110 0.4770 0.5166
vn -0.9198 0.3924 -0.0000
vn 0.0536 0.0417 0.9977
vn -0.7378 -0.4102 -0.5361
vn -0.7110 0.4770 0.5166
vn 0.0228 0.9973 0.0703
vn -0.9711 0.2388 0.0000
vn 0.3001 0.2388 -0.9235
vn -0.7856 0.2388 -0.5708
vn 0.2846 -0.3898 0.8758
vn 0.7703 0.3057 0.5596
vn -0.9521 0.3057 -0.0000
vn 0.7450 -0.3898 0.5413
vn -0.5412 0.1289 -0.8309
vn 0.0598 0.9973 0.0434
vn -0.8370 0.5293 -0.1387
vn -0.1877 0.7944 -0.5776
vn -0.4849 0.8745 0.0000
vn -0.3523 0.9359 -0.0000
vn -0.1210 0.9927 0.0000
vn -0.8420 -0.5395 0.0000
vn 1.0000 0.0000 0.0000
vn 0.9998 -0.0218 0.0000
vn 0.1923 0.2774 0.9413
vn -0.7156 0.4665 0.5199
vn 0.9711 0.2388 0.0000
vn 0.1649 0.9830 -0.0812
vn -0.2946 -0.3016 0.9068
vn -0.3001 0.2388 -0.9235
vn -0.6705 0.5596 -0.4871
vn 0.6705 0.5596 -0.4871
vn -0.3089 -0.0218 0.9508
vn 0.0942 -0.0276 -0.9952
vn -0.6705 0.5596 0.4871
vn 0.9521 0.3057 0.0000
vn 0.2692 -0.4911 0.8285
vn 0.7450 -0.3898 -0.5413
vn 0.8073 0.0194 0.5898
vn 0.8075 0.0198 0.5896
vn -0.8711 -0.4911 0.0000
vn 0.7441 0.3924 0.5406
vn 0.2733 0.4665 0.8412
vn -0.3397 0.4653 -0.8174
vn -0.7441 0.3924 0.5406
vn -0.9998 -0.0218 0.0000
vn -0.9534 -0.3016 0.0000
vn -0.2692 -0.4911 0.8285
vn 0.2842 0.3924 -0.8748
vn 0.9997 0.0228 0.0000
vn -0.1927 -0.4721 0.8602
vn -0.6724 0.4653 -0.5756
vn -0.7450 -0.3898 0.5413
vn -0.7391 0.4066 0.5370
vn 0.7714 -0.3016 0.5604
vn -0.7703 0.3057 -0.5596
vn -0.7714 -0.3016 0.5604
vn -0.7714 -0.3016 -0.5604
vn 0.2716 0.4770 0.8359
vn -0.8308 -0.5566 0.0000
vn 0.2561 0.5596 0.7882
vn -0.2561 0.5596 0.7882
vn 0.0009 0.9988 -0.0496
vn 0.7806 0.6250 -0.0000
vn 0.7110 0.4770 -0.5166
vn -0.0917 0.9072 -0.4105
vn -0.7110 0.4770 -0.5166
vn 0.6772 -0.5470 -0.4920
vn -0.2587 -0.5470 -0.7962
vn -0.2567 -0.5566 0.7901
vn 0.8090 -0.0000 -0.5878
vn 0.7856 0.2388 -0.5708
vn 0.7047 -0.4911 -0.5120
vn -0.2823 0.4066 0.8689
vn 0.2716 0.4770 -0.8359
vn 0.2823 0.4066 0.8689
vn -0.3089 0.0228 -0.9508
vn 0.9198 0.3924 -0.0000
vn 0.3089 0.0228 -0.9508
vn 0.9120 -0.4102 0.0000
vn 0.7441 0.3924 -0.5406
vn -0.9997 0.0228 0.0000
vn -0.2716 0.4770 -0.8359
vn -0.7441 0.3924 -0.5406
vn 0.5259 -0.0000 -0.8505
vn -0.9120 -0.4102 0.0000
vn -0.3001 0.2388 0.9235
vn 0.7856 0.2388 0.5708
vn 0.1853 0.7716 0.6085
vn -0.8800 0.4749 0.0000
vn -0.7047 -0.4911 0.5120
vn -0.8371 -0.5470 0.0000
vn -0.8233 0.5676 -0.0000
vn 0.4849 -0.8745 0.0000
vn 0.5655 0.7003 0.4357
vn -0.7472 0.4797 -0.4599
vn 0.8088 -0.0218 0.5876
vn -0.4849 -0.8745 0.0000
vn -0.2946 -0.3016 -0.9068
vn -0.6282 0.3011 -0.7174
vn -0.0572 0.9983 -0.0084
vn -0.7047 -0.4911 -0.5120
vn -1.0000 0.0000 0.0000
vn 0.4720 0.7977 -0.3754
vn 0.1930 0.4731 -0.8596
vn -0.7433 -0.4469 0.4978
vn -0.0458 0.9988 0.0149
vn 0.3805 -0.8349 -0.3977
vn -0.1978 0.4798 -0.8548
vn -0.7806 0.6250 -0.0000
vn 0.7443 0.4442 -0.4988
vn 0.0231 0.9984 -0.0524
vn 0.8233 0.5676 0.0000
vn -0.2976 0.8982 -0.3235
vn 0.8863 0.2652 0.3796
vn -0.2733 0.4665 0.8412
vn -0.0598 0.9973 0.0434
vn -0.0021 0.2411 0.9705
vn 0.1927 -0.4721 0.8602
vn -0.4914 0.7944 -0.3570
vn 0.3975 0.9134 -0.0876
vn -0.7856 0.2388 0.5708
vn 0.3001 0.2388 0.9235
vn -0.1926 0.7071 0.6804
vn 0.2942 0.3057 -0.9055
vn 0.2946 -0.3016 0.9068
vn -0.0781 0.0000 0.9969
vn -0.2846 -0.3898 0.8758
vn 0.8800 -0.4749 0.0000
vn 0.2088 0.0954 0.9733
vn 0.1210 -0.9927 0.0000
vn -0.0083 1.0000 0.0000
vn -0.1977 -0.2762 -0.9405
vn 0.4849 0.8745 0.0000
vn -0.0781 -0.0000 -0.9969
vn 0.8800 0.4749 0.0000
vn 0.4188 0.9072 -0.0397
vn 0.1428 0.9510 -0.2743
vn -0.9247 0.3471 -0.1565
vn -0.6504 -0.6395 -0.4099
vn 0.7469 -0.4879 0.4517
vn 0.8267 -0.0649 -0.5588
vn 0.8440 -0.0430 -0.5346
vn -0.5977 -0.2387 -0.7653
vn -0.3805 -0.8349 -0.3977
vn 0.8308 -0.5566 0.0000
g WaterVase_3_WaterVase_3_Collor_Material
usemtl Collor_Material
s off
f 139/1/1 48/2/1 47/3/1
f 98/4/2 12/5/2 97/6/2
f 168/7/3 25/8/3 2/9/3
f 34/10/4 31/11/4 30/12/4
f 62/13/5 30/14/5 26/15/5
f 34/16/6 67/17/6 35/18/6
f 6/19/7 70/20/7 69/21/7
f 4/22/7 73/23/7 70/24/7
f 6/25/7 75/26/7 17/27/7
f 17/28/7 73/29/7 13/30/7
f 71/31/8 74/32/8 73/33/8
f 72/34/8 76/35/8 18/36/8
f 14/37/8 76/38/8 74/39/8
f 71/40/8 75/41/8 72/42/8
f 30/43/9 66/44/9 34/45/9
f 178/46/10 163/47/10 188/48/10
f 163/49/11 127/50/11 164/51/11
f 94/52/12 190/53/12 92/54/12
f 92/55/12 193/56/12 103/57/12
f 195/58/12 94/59/12 107/60/12
f 103/61/12 195/62/12 107/63/12
f 191/64/13 194/65/13 104/66/13
f 196/67/13 192/68/13 108/69/13
f 104/70/13 196/71/13 108/72/13
f 195/73/13 191/74/13 192/75/13
f 212/76/14 204/77/14 209/78/14
f 273/79/15 219/80/15 217/81/15
f 6/82/7 4/83/7 70/84/7
f 4/85/7 13/86/7 73/87/7
f 6/88/7 69/89/7 75/90/7
f 71/91/8 14/92/8 74/93/8
f 72/94/8 75/95/8 76/96/8
f 14/97/8 18/98/8 76/99/8
f 94/100/12 189/101/12 190/102/12
f 92/103/12 190/104/12 193/105/12
f 195/106/12 189/107/12 94/108/12
f 191/109/13 193/110/13 194/111/13
f 196/112/13 195/113/13 192/114/13
f 104/115/13 194/116/13 196/117/13
f 39/118/16 37/119/16 182/120/16
f 182/121/16 130/122/16 132/123/16
f 134/124/16 136/125/16 43/126/16
f 136/127/16 181/128/16 43/129/16
f 43/130/16 41/131/16 39/132/16
f 170/133/17 1/134/17 3/135/17
f 3/136/17 5/137/17 170/138/17
f 7/139/17 169/140/17 91/141/17
f 169/142/17 95/143/17 91/144/17
f 95/145/17 93/146/17 91/147/17
f 91/148/17 89/149/17 170/150/17
f 222/151/18 232/152/18 231/153/18
f 223/154/19 241/155/19 242/156/19
f 228/157/20 243/158/20 229/159/20
f 234/160/19 241/161/19 224/162/19
f 239/163/20 243/164/20 247/165/20
f 238/166/20 244/167/20 228/168/20
f 233/169/19 242/170/19 246/171/19
f 255/172/21 259/173/21 251/174/21
f 256/175/22 260/176/22 264/177/22
f 253/178/23 257/179/23 261/180/23
f 254/181/24 258/182/24 250/183/24
f 39/184/16 182/185/16 132/186/16
f 213/187/17 214/188/17 215/189/17
f 215/190/25 216/191/25 221/192/25
f 221/193/17 220/194/17 219/195/17
f 219/196/26 218/197/26 217/198/26
f 245/199/27 246/200/27 231/201/27
f 231/202/28 232/203/28 245/204/28
f 248/205/29 247/206/29 236/207/29
f 247/208/16 240/209/16 236/210/16
f 227/211/30 237/212/30 232/213/30
f 223/214/19 224/215/19 241/216/19
f 228/217/20 244/218/20 243/219/20
f 234/220/19 245/221/19 241/222/19
f 239/223/20 229/224/20 243/225/20
f 238/226/31 248/227/31 244/228/31
f 233/229/19 223/230/19 242/231/19
f 255/232/32 263/233/32 259/234/32
f 256/235/33 252/236/33 260/237/33
f 253/238/34 249/239/34 257/240/34
f 254/241/35 262/242/35 258/243/35
f 65/244/36 29/245/36 33/246/36
f 139/247/37 138/248/37 48/249/37
f 98/250/38 11/251/38 12/252/38
f 173/253/39 176/254/39 29/255/39
f 34/256/40 35/257/40 31/258/40
f 62/259/41 66/260/41 30/261/41
f 34/262/42 66/263/42 67/264/42
f 178/265/43 126/266/43 163/267/43
f 163/268/44 126/269/44 127/270/44
f 212/271/14 200/272/14 204/273/14
f 273/274/17 213/275/17 215/276/17
f 21/277/45 75/278/45 69/279/45 8/280/45
f 51/281/46 50/282/46 46/283/46 47/284/46
f 116/285/47 23/286/47 22/287/47 115/288/47
f 33/289/48 178/290/48 188/291/48 65/292/48
f 213/293/49 222/294/49 242/295/49 214/296/49
f 217/297/50 218/298/50 244/299/50 227/300/50
f 16/301/51 20/302/51 5/303/51 3/304/51
f 105/305/52 101/306/52 102/307/52 106/308/52
f 112/309/53 196/310/53 109/311/53 113/312/53
f 25/313/54 168/314/54 173/315/54 29/316/54
f 1/317/55 170/318/55 97/319/55 12/320/55
f 19/321/56 20/322/56 16/323/56 15/324/56
f 59/325/57 58/326/57 54/327/57 55/328/57
f 148/329/58 152/330/58 153/331/58 149/332/58
f 120/333/59 121/334/59 125/335/59 124/336/59
f 57/337/60 44/338/60 42/339/60 53/340/60
f 97/341/61 170/342/61 89/343/61 102/344/61
f 110/345/62 109/346/62 105/347/62 106/348/62
f 185/349/63 61/350/63 65/351/63 188/352/63
f 153/353/64 152/354/64 184/355/64 156/356/64
f 131/357/65 133/358/65 144/359/65 140/360/65
f 153/361/66 154/362/66 150/363/66 149/364/66
f 21/365/67 22/366/67 76/367/67 75/368/67
f 26/369/68 27/370/68 69/371/68 70/372/68
f 188/373/69 163/374/69 159/375/69 185/376/69
f 186/377/70 187/378/70 68/379/70 64/380/70
f 132/381/71 147/382/71 151/383/71 134/384/71
f 240/385/72 230/386/72 226/387/72 236/388/72
f 33/389/73 29/390/73 176/391/73 178/392/73
f 175/393/74 174/394/74 28/395/74 32/396/74
f 165/397/75 164/398/75 127/399/75 128/400/75
f 128/401/76 127/402/76 123/403/76 124/404/76
f 161/405/77 165/406/77 166/407/77 162/408/77
f 219/409/78 220/410/78 230/411/78 243/412/78
f 198/413/79 199/414/79 211/415/79 208/416/79
f 32/417/80 28/418/80 27/419/80 31/420/80
f 137/421/81 183/422/81 184/423/81 152/424/81
f 38/425/82 45/426/82 49/427/82 40/428/82
f 135/429/83 148/430/83 144/431/83 133/432/83
f 233/433/84 234/434/84 253/435/84 254/436/84
f 56/437/85 52/438/85 39/439/85 41/440/85
f 101/441/86 105/442/86 194/443/86 100/444/86
f 184/445/87 57/446/87 58/447/87 156/448/87
f 24/449/88 7/450/88 5/451/88 20/452/88
f 173/453/89 118/454/89 122/455/89 176/456/89
f 257/457/90 258/458/90 262/459/90 261/460/90
f 48/461/91 138/462/91 182/463/91 37/464/91
f 59/465/92 60/466/92 158/467/92 157/468/92
f 262/469/93 254/470/93 253/471/93 261/472/93
f 36/473/94 32/474/94 31/475/94 35/476/94
f 130/477/95 143/478/95 147/479/95 132/480/95
f 55/481/96 51/482/96 52/483/96 56/484/96
f 249/485/97 253/486/97 234/487/97 224/488/97
f 58/489/98 57/490/98 53/491/98 54/492/98
f 37/493/99 39/494/99 52/495/99 48/496/99
f 226/497/100 225/498/100 235/499/100 236/500/100
f 62/501/101 40/502/101 42/503/101 63/504/101
f 197/505/79 108/506/79 192/507/79 198/508/79
f 183/509/102 137/510/102 162/511/102 186/512/102
f 64/513/103 63/514/103 42/515/103 44/516/103
f 117/517/104 24/518/104 23/519/104 116/520/104
f 159/521/105 163/522/105 164/523/105 160/524/105
f 63/525/106 67/526/106 66/527/106 62/528/106
f 24/529/107 20/530/107 19/531/107 23/532/107
f 222/533/108 213/534/108 273/535/108 232/536/108
f 225/537/109 241/538/109 245/539/109 235/540/109
f 211/541/110 212/542/110 209/543/110 208/544/110
f 36/545/111 68/546/111 187/547/111 177/548/111
f 78/549/112 84/550/112 71/551/112 72/552/112
f 260/553/113 259/554/113 263/555/113 264/556/113
f 263/557/114 269/558/114 267/559/114 264/560/114
f 207/561/115 202/562/115 197/563/115 206/564/115
f 86/565/79 83/566/79 79/567/79 87/568/79
f 272/569/116 265/570/116 268/571/116 270/572/116
f 74/573/117 76/574/117 19/575/117 15/576/117
f 88/577/7 85/578/7 86/579/7 87/580/7
f 138/581/118 139/582/118 142/583/118 143/584/118
f 81/585/14 80/586/14 13/587/14 4/588/14
f 124/589/119 125/590/119 129/591/119 128/592/119
f 133/593/120 160/594/120 161/595/120 135/596/120
f 203/597/121 201/598/121 205/599/121 210/600/121
f 121/601/122 96/602/122 171/603/122 174/604/122
f 186/605/123 64/606/123 44/607/123 183/608/123
f 269/609/16 270/610/16 268/611/16 267/612/16
f 190/613/124 90/614/124 99/615/124 193/616/124
f 73/617/125 9/618/125 2/619/125 70/620/125
f 112/621/126 113/622/126 116/623/126 115/624/126
f 250/625/127 223/626/127 233/627/127 254/628/127
f 189/629/128 195/630/128 111/631/128 96/632/128
f 160/633/129 164/634/129 165/635/129 161/636/129
f 117/637/130 169/638/130 7/639/130 24/640/130
f 15/641/131 16/642/131 12/643/131 11/644/131
f 142/645/132 141/646/132 145/647/133 146/648/132
f 110/649/134 106/650/134 91/651/134 93/652/134
f 142/653/135 146/654/135 147/655/135 143/656/135
f 36/657/136 177/658/136 175/659/136 32/660/136
f 176/661/137 122/662/137 126/663/137 178/664/137
f 47/665/138 48/666/138 52/667/138 51/668/138
f 196/669/139 194/670/139 105/671/139 109/672/139
f 119/673/140 190/674/140 189/675/140 120/676/140
f 117/677/141 114/678/141 95/679/141 169/680/141
f 157/681/142 158/682/142 155/683/142 154/684/142
f 145/685/143 149/686/143 150/687/143 146/688/143
f 180/689/144 179/690/144 45/691/144 38/692/144
f 126/693/145 122/694/145 123/695/145 127/696/145
f 109/697/146 110/698/146 114/699/146 113/700/146
f 111/701/147 195/702/147 196/703/147 112/704/147
f 27/705/148 28/706/148 8/707/148 69/708/148
f 67/709/149 63/710/149 64/711/149 68/712/149
f 120/713/150 189/714/150 96/715/150 121/716/150
f 90/717/151 190/718/151 119/719/151 118/720/151
f 143/721/152 130/722/152 182/723/152 138/724/152
f 204/725/14 202/726/14 207/727/14 209/728/14
f 124/729/153 123/730/153 119/731/153 120/732/153
f 171/733/154 172/734/154 21/735/154 8/736/154
f 171/737/155 96/738/155 111/739/155 172/740/155
f 238/741/156 239/742/156 247/743/156 248/744/156
f 241/745/157 215/746/157 214/747/157 242/748/157
f 155/749/158 136/750/158 134/751/158 151/752/158
f 187/753/159 166/754/159 129/755/159 177/756/159
f 60/757/160 56/758/160 41/759/160 43/760/160
f 206/761/79 197/762/79 198/763/79 208/764/79
f 135/765/161 137/766/161 152/767/161 148/768/161
f 183/769/162 44/770/162 57/771/162 184/772/162
f 121/773/163 174/774/163 175/775/163 125/776/163
f 141/777/164 100/778/164 99/779/164 140/780/164
f 161/781/165 162/782/165 137/783/165 135/784/165
f 1/785/166 12/786/166 16/787/166 3/788/166
f 172/789/167 111/790/167 112/791/167 115/792/167
f 155/793/168 158/794/168 181/795/168 136/796/168
f 172/797/169 115/798/169 22/799/169 21/800/169
f 59/801/170 157/802/170 156/803/170 58/804/170
f 141/805/164 142/806/164 101/807/164 100/808/164
f 170/809/17 5/810/17 7/811/17 91/812/17
f 150/813/171 151/814/171 147/815/171 146/816/171
f 154/817/172 153/818/172 156/819/172 157/820/172
f 145/821/173 144/822/173 148/823/173 149/824/173
f 132/825/16 134/826/16 43/827/16 39/828/16
f 150/829/174 154/830/174 155/831/174 151/832/174
f 54/833/175 50/834/175 51/835/175 55/836/175
f 158/837/176 60/838/176 43/839/176 181/840/176
f 60/841/177 59/842/177 55/843/177 56/844/177
f 273/845/178 217/846/178 227/847/178 232/848/178
f 53/849/179 49/850/179 50/851/179 54/852/179
f 83/853/79 6/854/79 17/855/79 79/856/79
f 180/857/180 38/858/180 61/859/180 185/860/180
f 77/861/79 78/862/79 72/863/79 18/864/79
f 159/865/181 160/866/181 133/867/181 131/868/181
f 201/869/14 92/870/14 103/871/14 200/872/14
f 271/873/79 269/874/79 263/875/79 255/876/79
f 226/877/182 221/878/182 216/879/182 225/880/182
f 103/881/183 193/882/183 191/883/183 195/884/183
f 110/885/184 93/886/184 95/887/184 114/888/184
f 49/889/185 53/890/185 42/891/185 40/892/185
f 251/893/186 259/894/186 260/895/186 252/896/186
f 191/897/14 104/898/14 202/899/14 204/900/14
f 13/901/187 80/902/187 79/903/187 17/904/187
f 223/905/116 250/906/116 249/907/116 224/908/116
f 216/909/188 215/910/188 241/911/188 225/912/188
f 100/913/189 194/914/189 193/915/189 99/916/189
f 22/917/190 23/918/190 19/919/190 76/920/190
f 108/921/191 197/922/191 202/923/191 104/924/191
f 168/925/192 90/926/192 118/927/192 173/928/192
f 238/929/116 256/930/116 255/931/116 239/932/116
f 205/933/14 201/934/14 200/935/14 212/936/14
f 84/937/8 78/938/8 77/939/8 82/940/8
f 47/941/193 46/942/193 10/943/193 11/944/193
f 273/945/17 215/946/17 221/947/17 219/948/17
f 227/949/194 244/950/194 248/951/194 237/952/194
f 85/953/14 88/954/14 80/955/14 81/956/14
f 106/957/195 102/958/195 89/959/195 91/960/195
f 228/961/196 229/962/196 251/963/196 252/964/196
f 18/965/187 14/966/187 82/967/187 77/968/187
f 26/969/197 25/970/197 61/971/197 62/972/197
f 167/973/198 168/974/198 2/975/198 9/976/198
f 46/977/199 50/978/199 49/979/199 45/980/199
f 237/981/200 248/982/200 236/983/200 235/984/200
f 45/985/201 179/986/201 167/987/201 9/988/201
f 168/989/202 167/990/202 99/991/202 90/992/202
f 234/993/19 233/994/19 246/995/19 245/996/19
f 218/997/203 219/998/203 243/999/203 244/1000/203
f 10/1001/204 9/1002/204 73/1003/204 74/1004/204
f 231/1005/205 246/1006/205 242/1007/205 222/1008/205
f 257/1009/206 249/1010/206 250/1011/206 258/1012/206
f 245/1013/16 232/1014/16 237/1015/16 235/1016/16
f 47/1017/207 11/1018/207 98/1019/207 139/1020/207
f 29/1021/208 65/1022/208 61/1023/208 25/1024/208
f 129/1025/209 125/1026/209 175/1027/209 177/1028/209
f 243/1029/210 230/1030/210 240/1031/210 247/1032/210
f 107/1033/211 94/1034/211 203/1035/211 199/1036/211
f 140/1037/212 179/1038/212 180/1039/212 131/1040/212
f 67/1041/213 68/1042/213 36/1043/213 35/1044/213
f 80/1045/187 88/1046/187 87/1047/187 79/1048/187
f 92/1049/214 201/1050/214 203/1051/214 94/1052/214
f 4/1053/112 6/1054/112 83/1055/112 81/1056/112
f 40/1057/215 62/1058/215 61/1059/215 38/1060/215
f 131/1061/216 180/1062/216 185/1063/216 159/1064/216
f 230/1065/217 220/1066/217 221/1067/217 226/1068/217
f 267/1069/14 268/1070/14 265/1071/14 266/1072/14
f 186/1073/218 162/1074/218 166/1075/218 187/1076/218
f 28/1077/219 174/1078/219 171/1079/219 8/1080/219
f 82/1081/14 14/1082/14 71/1083/14 84/1084/14
f 251/1085/220 229/1086/220 239/1087/220 255/1088/220
f 113/1089/221 114/1090/221 117/1091/221 116/1092/221
f 199/1093/222 198/1094/222 204/1095/222 200/1096/222
f 199/1097/191 200/1098/191 103/1099/191 107/1100/191
f 266/1101/14 256/1102/14 264/1103/14 267/1104/14
f 199/1105/223 203/1106/223 210/1107/223 211/1108/223
f 206/1109/13 208/1110/13 209/1111/13 207/1112/13
f 256/1113/224 266/1114/224 271/1115/224 255/1116/224
f 85/1117/225 81/1118/225 83/1119/225 86/1120/225
f 101/1121/226 98/1122/226 97/1123/226 102/1124/226
f 198/1125/227 192/1126/227 191/1127/227 204/1128/227
f 252/1129/228 256/1130/228 238/1131/228 228/1132/228
f 17/1133/229 75/1134/229 71/1135/229 73/1136/229
f 165/1137/230 128/1138/230 129/1139/230 166/1140/230
f 142/1141/231 139/1142/231 98/1143/231 101/1144/231
f 210/1145/232 205/1146/232 212/1147/232 211/1148/232
f 122/1149/233 118/1150/233 119/1151/233 123/1152/233
f 141/1153/234 140/1154/234 144/1155/234 145/1156/234
f 15/1157/235 11/1158/235 10/1159/235 74/1160/235
f 70/1161/236 2/1162/236 25/1163/236 26/1164/236
f 46/1165/237 45/1166/237 9/1167/237 10/1168/237
f 140/1169/238 99/1170/238 167/1171/238 179/1172/238
f 27/1173/239 26/1174/239 30/1175/239 31/1176/239
f 266/1177/17 265/1178/17 272/1179/17 271/1180/17
f 271/1181/79 272/1182/79 270/1183/79 269/1184/79
