# Blender v3.0.0 OBJ File: 'aa.blend'
# www.blender.org
mtllib WaterVase_1.mtl
o WaterVase_1
v 0.134802 -0.000000 -0.185539
v 0.151666 0.904116 -0.208751
v 0.218115 -0.000000 -0.070869
v 0.277168 0.857069 -0.026591
v 0.218115 0.000000 0.070869
v 0.277168 0.857069 0.026591
v 0.134802 0.000000 0.185539
v 0.151666 0.904116 0.208751
v 0.205678 0.774683 -0.283092
v 0.255205 0.594619 -0.351260
v 0.252377 0.385098 -0.347368
v 0.202354 0.193869 -0.278516
v 0.301029 0.821730 -0.026591
v 0.382910 0.662076 -0.026591
v 0.408356 0.385098 -0.132683
v 0.327416 0.193869 -0.106384
v 0.301029 0.821730 0.026591
v 0.382910 0.662076 0.026591
v 0.408356 0.385098 0.132683
v 0.327416 0.193869 0.106384
v 0.205678 0.774684 0.283092
v 0.255205 0.594619 0.351260
v 0.252377 0.385098 0.347368
v 0.202354 0.193869 0.278516
v 0.157517 0.934046 -0.216804
v 0.254868 0.934046 -0.082812
v 0.254868 0.934046 0.082811
v 0.157517 0.934046 0.216804
v 0.187826 1.007252 -0.258520
v 0.303909 1.007252 -0.098746
v 0.303909 1.007252 0.098746
v 0.187826 1.007252 0.258520
v 0.173180 1.052185 -0.238362
v 0.280211 1.052185 -0.091046
v 0.280211 1.052185 0.091046
v 0.173180 1.052185 0.238362
v 0.124533 0.023657 -0.171405
v 0.133969 0.898309 -0.184392
v 0.201499 0.023657 -0.065471
v 0.216766 0.898309 -0.070432
v 0.201499 0.023657 0.065471
v 0.216766 0.898309 0.070432
v 0.124533 0.023657 0.171405
v 0.133969 0.898309 0.184392
v 0.189985 0.759603 -0.261492
v 0.237541 0.588526 -0.326947
v 0.234768 0.391630 -0.323130
v 0.186251 0.207643 -0.256353
v 0.307402 0.759603 -0.099881
v 0.384349 0.588526 -0.124883
v 0.379862 0.391630 -0.123425
v 0.301361 0.207643 -0.097918
v 0.307402 0.759603 0.099881
v 0.384349 0.588526 0.124883
v 0.379862 0.391630 0.123425
v 0.301361 0.207643 0.097918
v 0.189985 0.759604 0.261492
v 0.237541 0.588526 0.326947
v 0.234768 0.391630 0.323130
v 0.186251 0.207643 0.256353
v 0.141577 0.948357 -0.194863
v 0.229076 0.948357 -0.074431
v 0.229076 0.948357 0.074431
v 0.141577 0.948357 0.194863
v 0.158602 1.034152 -0.218298
v 0.256624 1.034152 -0.083382
v 0.256624 1.034152 0.083382
v 0.158602 1.034152 0.218297
v 0.245402 0.904116 0.079736
v 0.245402 0.904116 -0.079736
v 0.362816 0.707227 -0.026591
v 0.362816 0.707227 0.026591
v 0.332795 0.774684 -0.108131
v 0.412931 0.594619 -0.134169
v 0.332795 0.774684 0.108131
v 0.412931 0.594619 0.134169
v 0.445258 0.696650 0.026591
v 0.425165 0.741800 0.026591
v 0.363377 0.856304 0.026591
v 0.363377 0.856304 -0.026591
v 0.339517 0.891643 -0.026591
v 0.445258 0.696650 -0.026591
v 0.339517 0.891643 0.026591
v 0.425165 0.741800 -0.026591
v 0.379680 0.891977 -0.026591
v 0.466879 0.730395 0.026591
v 0.466879 0.730395 -0.026591
v 0.454551 0.758095 0.026591
v 0.454551 0.758095 -0.026591
v 0.379680 0.891977 0.026591
v 0.392764 0.872599 0.026591
v 0.392764 0.872599 -0.026591
v -0.134802 -0.000000 -0.185539
v -0.151666 0.904116 -0.208751
v -0.218115 -0.000000 -0.070869
v -0.277168 0.857069 -0.026591
v -0.218115 0.000000 0.070869
v -0.277168 0.857069 0.026591
v -0.134802 0.000000 0.185539
v -0.151666 0.904116 0.208751
v 0.000000 0.193869 -0.344265
v 0.000000 0.385098 -0.429371
v 0.000000 0.594619 -0.434181
v -0.205678 0.774683 -0.283092
v -0.255205 0.594619 -0.351260
v -0.252377 0.385098 -0.347368
v -0.202354 0.193869 -0.278516
v -0.301029 0.821730 -0.026591
v -0.382910 0.662076 -0.026591
v -0.408356 0.385098 -0.132683
v -0.327416 0.193869 -0.106384
v -0.301029 0.821730 0.026591
v -0.382910 0.662076 0.026591
v -0.408356 0.385098 0.132683
v -0.327416 0.193869 0.106384
v -0.205678 0.774684 0.283092
v -0.255205 0.594619 0.351260
v -0.252377 0.385098 0.347368
v -0.202354 0.193869 0.278516
v 0.000000 0.594619 0.434181
v 0.000000 0.385098 0.429371
v 0.000000 0.193869 0.344265
v -0.157517 0.934046 -0.216804
v -0.254868 0.934046 -0.082812
v -0.254868 0.934046 0.082811
v -0.157517 0.934046 0.216804
v -0.187826 1.007252 -0.258520
v -0.303909 1.007252 -0.098746
v -0.303909 1.007252 0.098746
v -0.187826 1.007252 0.258520
v -0.173180 1.052185 -0.238362
v -0.280211 1.052185 -0.091046
v -0.280211 1.052185 0.091046
v -0.173180 1.052185 0.238362
v -0.124533 0.023657 -0.171405
v -0.133969 0.898309 -0.184392
v -0.201499 0.023657 -0.065471
v -0.216766 0.898309 -0.070432
v -0.201499 0.023657 0.065471
v -0.216766 0.898309 0.070432
v -0.124533 0.023657 0.171405
v -0.133969 0.898309 0.184392
v 0.000000 0.207643 -0.316870
v 0.000000 0.391630 -0.399411
v 0.000000 0.588526 -0.404129
v -0.189985 0.759603 -0.261492
v -0.237541 0.588526 -0.326947
v -0.234768 0.391630 -0.323130
v -0.186251 0.207643 -0.256353
v -0.307402 0.759603 -0.099881
v -0.384349 0.588526 -0.124883
v -0.379862 0.391630 -0.123425
v -0.301361 0.207643 -0.097918
v -0.307402 0.759603 0.099881
v -0.384349 0.588526 0.124883
v -0.379862 0.391630 0.123425
v -0.301361 0.207643 0.097918
v -0.189985 0.759604 0.261492
v -0.237541 0.588526 0.326947
v -0.234768 0.391630 0.323130
v -0.186251 0.207643 0.256353
v 0.000000 0.588526 0.404129
v 0.000000 0.391630 0.399411
v 0.000000 0.207643 0.316870
v -0.141577 0.948357 -0.194863
v -0.229076 0.948357 -0.074431
v -0.229076 0.948357 0.074431
v -0.141577 0.948357 0.194863
v -0.158602 1.034152 -0.218298
v -0.256624 1.034152 -0.083382
v -0.158602 1.034152 0.218297
v 0.000000 0.774683 -0.349921
v 0.000000 0.904116 -0.258031
v 0.000000 0.000000 0.229339
v 0.000000 -0.000000 -0.229339
v 0.000000 0.904116 0.258031
v 0.000000 0.774684 0.349921
v 0.000000 0.934046 -0.267984
v 0.000000 0.934046 0.267984
v 0.000000 1.007252 0.319548
v 0.000000 1.007252 -0.319548
v 0.000000 1.052185 0.294631
v 0.000000 1.052185 -0.294631
v 0.000000 0.759603 -0.323222
v 0.000000 0.898309 -0.227922
v 0.000000 0.023657 0.211868
v 0.000000 0.023657 -0.211868
v 0.000000 0.898309 0.227921
v 0.000000 0.759604 0.323222
v 0.000000 0.948357 -0.240864
v 0.000000 0.948357 0.240864
v 0.000000 1.034152 -0.269831
v -0.245402 0.904116 0.079736
v -0.245402 0.904116 -0.079736
v -0.362816 0.707227 -0.026591
v -0.362816 0.707227 0.026591
v -0.332795 0.774684 -0.108131
v -0.412931 0.594619 -0.134169
v -0.332795 0.774684 0.108131
v -0.412931 0.594619 0.134169
v -0.445258 0.696650 0.026591
v -0.425165 0.741800 0.026591
v -0.363377 0.856304 0.026591
v -0.363377 0.856304 -0.026591
v -0.339517 0.891643 -0.026591
v -0.445258 0.696650 -0.026591
v -0.339517 0.891643 0.026591
v -0.425165 0.741800 -0.026591
v -0.379680 0.891977 -0.026591
v -0.466879 0.730395 0.026591
v -0.466879 0.730395 -0.026591
v -0.454551 0.758095 0.026591
v -0.454551 0.758095 -0.026591
v -0.379680 0.891977 0.026591
v -0.392764 0.872599 0.026591
v -0.392764 0.872599 -0.026591
v -0.256624 1.034152 0.083382
v 0.000000 1.034152 0.269831
v 0.143507 1.066199 -0.197521
v 0.000000 1.066199 -0.244149
v 0.193062 1.069098 -0.021476
v 0.193062 1.069098 0.021476
v 0.143507 1.066199 0.197521
v 0.000000 1.066199 0.244149
v -0.143507 1.066199 -0.197521
v -0.193062 1.069098 -0.021476
v -0.193062 1.069098 0.021476
v -0.143507 1.066199 0.197521
v 0.063943 1.075734 -0.088009
v -0.000000 1.075734 -0.108786
v 0.142599 1.072835 -0.025429
v 0.142599 1.072835 0.025429
v 0.063942 1.075734 0.088009
v -0.000000 1.075734 0.108785
v -0.063943 1.075734 -0.088009
v -0.142599 1.072835 -0.025429
v -0.142599 1.072835 0.025429
v -0.063943 1.075734 0.088009
v 0.232199 1.066199 0.075446
v 0.232199 1.066199 -0.075446
v -0.232199 1.066199 0.075446
v -0.232199 1.066199 -0.075446
v 0.103461 1.075734 0.033616
v 0.103461 1.075734 -0.033617
v -0.103461 1.075734 0.033616
v -0.103461 1.075734 -0.033617
v 0.193062 1.102597 0.021476
v 0.193062 1.102597 -0.021476
v -0.193062 1.102597 0.021476
v -0.193062 1.102597 -0.021476
v 0.142599 1.106335 0.025429
v 0.142599 1.106335 -0.025429
v -0.142599 1.106335 0.025429
v -0.142599 1.106335 -0.025429
v 0.183890 1.115902 0.021476
v 0.183890 1.115902 -0.021476
v -0.183890 1.115902 0.021476
v -0.183890 1.115902 -0.021476
v 0.142599 1.131444 0.025429
v 0.142599 1.131444 -0.025429
v -0.142599 1.131444 0.025429
v -0.142599 1.131444 -0.025429
v 0.047533 1.117923 -0.025429
v -0.047533 1.117923 -0.025429
v -0.047533 1.143031 -0.025429
v 0.047533 1.143031 -0.025429
v -0.047533 1.143031 0.025429
v 0.047533 1.143031 0.025429
v -0.047533 1.117923 0.025429
v 0.047533 1.117923 0.025429
vt 0.847372 0.454973
vt 0.794246 0.445314
vt 0.794246 0.391065
vt 0.847372 0.381406
vt 0.975090 0.147111
vt 0.961384 0.149811
vt 0.961384 0.093081
vt 0.975090 0.095781
vt 0.280080 0.370688
vt 0.280080 0.279406
vt 0.351371 0.279911
vt 0.351371 0.370182
vt 0.249642 0.882037
vt 0.259742 0.884644
vt 0.259742 0.941373
vt 0.249642 0.943980
vt 0.962897 0.277605
vt 0.976604 0.274906
vt 0.976604 0.331635
vt 0.962897 0.328935
vt 0.651205 0.878764
vt 0.681858 0.875719
vt 0.681858 0.932448
vt 0.651205 0.929403
vt 0.797082 0.182712
vt 0.853447 0.192730
vt 0.853447 0.240648
vt 0.797082 0.250666
vt 0.280080 0.385046
vt 0.350718 0.376099
vt 0.350718 0.466370
vt 0.280080 0.457424
vt 0.275785 0.568972
vt 0.342782 0.568476
vt 0.342782 0.653440
vt 0.275785 0.652944
vt 0.415337 0.563064
vt 0.348291 0.554207
vt 0.348291 0.480639
vt 0.415337 0.471782
vt 0.284497 0.719148
vt 0.284497 0.670933
vt 0.360206 0.658851
vt 0.360206 0.731230
vt 0.427421 0.457424
vt 0.356782 0.466370
vt 0.356782 0.376099
vt 0.427421 0.385046
vt 0.432832 0.568476
vt 0.499829 0.568972
vt 0.499829 0.652944
vt 0.432832 0.653440
vt 0.190486 0.756112
vt 0.126674 0.747607
vt 0.126674 0.679653
vt 0.190486 0.671148
vt 0.869559 0.347360
vt 0.813195 0.337342
vt 0.813195 0.289424
vt 0.869559 0.279406
vt 0.581992 0.354701
vt 0.581992 0.288082
vt 0.650039 0.279406
vt 0.650039 0.363378
vt 0.203377 0.273994
vt 0.203377 0.182712
vt 0.274668 0.183218
vt 0.274668 0.273488
vt 0.797082 0.272033
vt 0.797082 0.257422
vt 0.812090 0.256077
vt 0.812090 0.273378
vt 0.651205 0.664614
vt 0.726913 0.652533
vt 0.726913 0.724911
vt 0.651205 0.712830
vt 0.203377 0.385046
vt 0.274015 0.376099
vt 0.274015 0.466370
vt 0.203377 0.457424
vt 0.343505 0.093482
vt 0.272214 0.093988
vt 0.272214 0.002706
vt 0.343505 0.003212
vt 0.727859 0.267676
vt 0.727859 0.182712
vt 0.791670 0.191217
vt 0.791670 0.259171
vt 0.120847 0.868066
vt 0.064482 0.858048
vt 0.064482 0.810130
vt 0.120847 0.800112
vt 0.002706 0.555497
vt 0.002706 0.465226
vt 0.073344 0.474172
vt 0.073344 0.546551
vt 0.348916 0.003212
vt 0.420207 0.002706
vt 0.420207 0.093988
vt 0.348916 0.093482
vt 0.270423 0.471782
vt 0.270423 0.563064
vt 0.203377 0.554207
vt 0.203377 0.480639
vt 0.982015 0.275952
vt 0.992694 0.274906
vt 0.992694 0.331247
vt 0.982015 0.330200
vt 0.058745 0.936665
vt 0.069424 0.935619
vt 0.069424 0.991960
vt 0.058745 0.990914
vt 0.681858 0.938906
vt 0.681858 0.993154
vt 0.671179 0.994200
vt 0.671180 0.937860
vt 0.002706 0.927162
vt 0.002706 0.876523
vt 0.033359 0.873478
vt 0.033359 0.930207
vt 0.612121 0.881873
vt 0.629402 0.884493
vt 0.629402 0.946436
vt 0.612121 0.949055
vt 0.568701 0.172967
vt 0.515575 0.163308
vt 0.515575 0.109059
vt 0.568701 0.099400
vt 0.905910 0.477202
vt 0.935884 0.471782
vt 0.935884 0.538963
vt 0.905910 0.533543
vt 0.797685 0.871680
vt 0.797685 0.938862
vt 0.767711 0.933441
vt 0.767711 0.877101
vt 0.906926 0.748329
vt 0.936900 0.742909
vt 0.936900 0.810090
vt 0.906926 0.804670
vt 0.845963 0.545349
vt 0.792837 0.535690
vt 0.792837 0.481441
vt 0.845963 0.471782
vt 0.220658 0.949219
vt 0.203377 0.946600
vt 0.203377 0.884657
vt 0.220658 0.882037
vt 0.203377 0.792222
vt 0.203377 0.747679
vt 0.274590 0.736641
vt 0.274590 0.803260
vt 0.143955 0.957477
vt 0.126674 0.954858
vt 0.126675 0.892915
vt 0.143955 0.890296
vt 0.911756 0.891487
vt 0.911756 0.953430
vt 0.894475 0.956050
vt 0.894475 0.888868
vt 0.002706 0.810130
vt 0.059070 0.800112
vt 0.059070 0.868066
vt 0.002706 0.858048
vt 0.732325 0.938862
vt 0.732325 0.871680
vt 0.762299 0.877101
vt 0.762299 0.933442
vt 0.857913 0.720487
vt 0.801549 0.710469
vt 0.801549 0.662551
vt 0.857913 0.652533
vt 0.897079 0.064467
vt 0.897079 0.008126
vt 0.927054 0.002706
vt 0.927054 0.069888
vt 0.861693 0.151018
vt 0.805329 0.161035
vt 0.805329 0.093081
vt 0.861693 0.103099
vt 0.220658 0.956101
vt 0.220658 0.980353
vt 0.203911 0.978883
vt 0.203911 0.954631
vt 0.576551 0.747679
vt 0.576551 0.792222
vt 0.505338 0.803259
vt 0.505338 0.736641
vt 0.577747 0.636461
vt 0.577747 0.569842
vt 0.645793 0.561166
vt 0.645793 0.645138
vt 0.203377 0.652944
vt 0.203377 0.568972
vt 0.270374 0.568476
vt 0.270374 0.653440
vt 0.459522 0.952129
vt 0.442242 0.949510
vt 0.442242 0.887567
vt 0.459522 0.884948
vt 0.272214 0.159697
vt 0.272214 0.111481
vt 0.347923 0.099400
vt 0.347923 0.171778
vt 0.432832 0.554207
vt 0.432832 0.480639
vt 0.499878 0.471782
vt 0.499878 0.563064
vt 0.651205 0.646625
vt 0.651205 0.562653
vt 0.718201 0.562157
vt 0.718201 0.647121
vt 0.482215 0.884948
vt 0.482215 0.952129
vt 0.464934 0.949510
vt 0.464934 0.887567
vt 0.355710 0.803260
vt 0.284497 0.792222
vt 0.284497 0.747679
vt 0.355710 0.736641
vt 0.642173 0.011383
vt 0.642173 0.078001
vt 0.574126 0.086678
vt 0.574126 0.002706
vt 0.287865 0.941009
vt 0.299295 0.940877
vt 0.299295 0.985138
vt 0.287865 0.985269
vt 0.719611 0.381406
vt 0.719611 0.466370
vt 0.655799 0.457865
vt 0.655799 0.389911
vt 0.722417 0.730323
vt 0.722417 0.796942
vt 0.651205 0.785904
vt 0.651205 0.741361
vt 0.576929 0.391075
vt 0.576929 0.457693
vt 0.508882 0.466370
vt 0.508882 0.382398
vt 0.415288 0.568476
vt 0.415288 0.653440
vt 0.348291 0.652944
vt 0.348291 0.568972
vt 0.725022 0.457865
vt 0.725022 0.389911
vt 0.788834 0.381406
vt 0.788834 0.466370
vt 0.807783 0.290443
vt 0.807783 0.334987
vt 0.736571 0.346024
vt 0.736571 0.279406
vt 0.568714 0.011563
vt 0.568714 0.085130
vt 0.501669 0.093988
vt 0.501669 0.002706
vt 0.532858 0.938137
vt 0.532858 0.982398
vt 0.521429 0.982266
vt 0.521429 0.938006
vt 0.226069 0.946600
vt 0.226069 0.884657
vt 0.243350 0.882037
vt 0.243350 0.949219
vt 0.874319 0.595169
vt 0.891851 0.593809
vt 0.891851 0.644448
vt 0.874319 0.643088
vt 0.976535 0.240233
vt 0.976535 0.264485
vt 0.959788 0.263015
vt 0.959788 0.238763
vt 0.226069 0.956101
vt 0.242816 0.954631
vt 0.242816 0.978883
vt 0.226069 0.980353
vt 0.851375 0.644448
vt 0.851375 0.593809
vt 0.868907 0.595169
vt 0.868907 0.643088
vt 0.905910 0.601104
vt 0.905910 0.544375
vt 0.936563 0.547420
vt 0.936563 0.598059
vt 0.432336 0.877999
vt 0.432336 0.934728
vt 0.401683 0.931683
vt 0.401683 0.881044
vt 0.979591 0.416247
vt 0.988069 0.415214
vt 0.988069 0.447792
vt 0.979591 0.448826
vt 0.073344 0.369543
vt 0.073344 0.459814
vt 0.002706 0.450868
vt 0.002706 0.378489
vt 0.497726 0.946891
vt 0.487627 0.944284
vt 0.487627 0.887555
vt 0.497726 0.884948
vt 0.170588 0.870655
vt 0.126674 0.884884
vt 0.126674 0.833554
vt 0.170588 0.847784
vt 0.979935 0.349675
vt 0.990035 0.347068
vt 0.990035 0.409011
vt 0.979935 0.406404
vt 0.442242 0.865307
vt 0.442242 0.842436
vt 0.486155 0.828206
vt 0.486155 0.879536
vt 0.121000 0.876085
vt 0.121000 0.932814
vt 0.110901 0.935421
vt 0.110901 0.873478
vt 0.717923 0.878764
vt 0.717923 0.929403
vt 0.687270 0.932448
vt 0.687270 0.875719
vt 0.151277 0.926465
vt 0.170588 0.890296
vt 0.170588 0.944544
vt 0.941975 0.582607
vt 0.963216 0.544375
vt 0.963216 0.598373
vt 0.797685 0.944274
vt 0.797685 0.988010
vt 0.788486 0.955489
vt 0.852863 0.873016
vt 0.852863 0.922747
vt 0.845838 0.889687
vt 0.863325 0.698893
vt 0.894114 0.652533
vt 0.894114 0.720161
vt 0.033359 0.935619
vt 0.033359 0.991271
vt 0.022304 0.948284
vt 0.858858 0.237398
vt 0.883975 0.182712
vt 0.883975 0.273994
vt 0.349954 0.941215
vt 0.349954 0.993475
vt 0.341259 0.957079
vt 0.815173 0.166986
vt 0.815173 0.177300
vt 0.797082 0.177300
vt 0.797082 0.166986
vt 0.951642 0.060227
vt 0.968389 0.058757
vt 0.968389 0.083009
vt 0.951642 0.084479
vt 0.974135 0.534469
vt 0.960472 0.534469
vt 0.960472 0.516378
vt 0.974135 0.516378
vt 0.091676 0.560908
vt 0.109767 0.560908
vt 0.109767 0.574542
vt 0.091676 0.574542
vt 0.151277 0.980619
vt 0.162664 0.979619
vt 0.162664 0.987573
vt 0.151277 0.995124
vt 0.620106 0.368789
vt 0.620106 0.374286
vt 0.605495 0.374286
vt 0.605495 0.368789
vt 0.972884 0.886813
vt 0.986518 0.886813
vt 0.986518 0.904904
vt 0.972884 0.904904
vt 0.847754 0.077538
vt 0.847754 0.059447
vt 0.872006 0.059447
vt 0.872006 0.077538
vt 0.936917 0.710649
vt 0.936917 0.734901
vt 0.922467 0.733632
vt 0.922467 0.709380
vt 0.901404 0.297396
vt 0.901404 0.341656
vt 0.883313 0.341656
vt 0.883313 0.297396
vt 0.109571 0.985093
vt 0.109571 0.940833
vt 0.121000 0.940964
vt 0.121000 0.985224
vt 0.276540 0.979628
vt 0.276540 0.994133
vt 0.265153 0.986582
vt 0.265153 0.978628
vt 0.300462 0.860932
vt 0.265153 0.873325
vt 0.270267 0.823857
vt 0.300462 0.808672
vt 0.274668 0.370182
vt 0.203377 0.370688
vt 0.203377 0.279406
vt 0.274668 0.279911
vt 0.982732 0.239052
vt 0.982732 0.182712
vt 0.993411 0.183758
vt 0.993411 0.238006
vt 0.414943 0.821257
vt 0.432475 0.822618
vt 0.432475 0.870536
vt 0.414943 0.871897
vt 0.975046 0.155222
vt 0.975046 0.173313
vt 0.961384 0.173313
vt 0.961384 0.155222
vt 0.645793 0.724117
vt 0.592667 0.714457
vt 0.592667 0.660209
vt 0.645793 0.650549
vt 0.495368 0.758887
vt 0.495368 0.813135
vt 0.442242 0.822795
vt 0.442242 0.749227
vt 0.428073 0.273488
vt 0.356782 0.273994
vt 0.356782 0.182712
vt 0.428073 0.183217
vt 0.960817 0.349768
vt 0.974524 0.347068
vt 0.974524 0.403797
vt 0.960817 0.401097
vt 0.645793 0.729528
vt 0.645793 0.803096
vt 0.592667 0.793436
vt 0.592667 0.739188
vt 0.839602 0.873016
vt 0.839602 0.929745
vt 0.808949 0.926700
vt 0.808949 0.876061
vt 0.655450 0.291487
vt 0.731159 0.279406
vt 0.731159 0.351784
vt 0.655450 0.339703
vt 0.197313 0.404653
vt 0.197313 0.477031
vt 0.126675 0.485977
vt 0.126674 0.395706
vt 0.073997 0.363626
vt 0.002706 0.364132
vt 0.002706 0.272850
vt 0.073997 0.273355
vt 0.723613 0.638616
vt 0.723613 0.570662
vt 0.787425 0.562157
vt 0.787425 0.647121
vt 0.203377 0.719149
vt 0.203377 0.670933
vt 0.279086 0.658851
vt 0.279086 0.731230
vt 0.194721 0.566684
vt 0.126674 0.575361
vt 0.126675 0.491389
vt 0.194721 0.500066
vt 0.572335 0.568971
vt 0.572335 0.652943
vt 0.505338 0.653439
vt 0.505338 0.568475
vt 0.434841 0.743815
vt 0.434841 0.658851
vt 0.498653 0.667356
vt 0.498653 0.735310
vt 0.808949 0.752927
vt 0.865314 0.742909
vt 0.865314 0.810863
vt 0.808949 0.800845
vt 0.642173 0.167385
vt 0.574126 0.176062
vt 0.574126 0.092090
vt 0.642173 0.100766
vt 0.356782 0.370182
vt 0.356782 0.279911
vt 0.428073 0.279406
vt 0.428073 0.370688
vt 0.651205 0.993154
vt 0.651205 0.938906
vt 0.661883 0.937860
vt 0.661883 0.994201
vt 0.723293 0.093081
vt 0.723293 0.165460
vt 0.647584 0.153379
vt 0.647584 0.105163
vt 0.002706 0.636204
vt 0.002706 0.569585
vt 0.070752 0.560908
vt 0.070752 0.644880
vt 0.718201 0.556250
vt 0.651205 0.556746
vt 0.651205 0.471782
vt 0.718201 0.472278
vt 0.342880 0.563064
vt 0.275834 0.554207
vt 0.275834 0.480639
vt 0.342880 0.471782
vt 0.581047 0.670932
vt 0.581047 0.719148
vt 0.505338 0.731229
vt 0.505338 0.658851
vt 0.496257 0.092977
vt 0.425619 0.084030
vt 0.425619 0.011652
vt 0.496257 0.002706
vt 0.280080 0.273488
vt 0.280080 0.183217
vt 0.351371 0.182712
vt 0.351371 0.273994
vt 0.572335 0.563064
vt 0.505289 0.554206
vt 0.505289 0.480639
vt 0.572335 0.471782
vt 0.101980 0.936665
vt 0.101980 0.990914
vt 0.091302 0.991960
vt 0.091302 0.935619
vt 0.365618 0.881044
vt 0.396271 0.877999
vt 0.396271 0.934728
vt 0.365618 0.931683
vt 0.687270 0.938906
vt 0.697948 0.937860
vt 0.697948 0.994201
vt 0.687270 0.993154
vt 0.980502 0.149423
vt 0.980502 0.093081
vt 0.991181 0.094128
vt 0.991181 0.148376
vt 0.589429 0.946436
vt 0.589429 0.884493
vt 0.606709 0.881873
vt 0.606709 0.949055
vt 0.305873 0.870834
vt 0.335848 0.865413
vt 0.335848 0.932595
vt 0.305873 0.927175
vt 0.505338 0.865413
vt 0.535313 0.870833
vt 0.535313 0.927174
vt 0.505338 0.932594
vt 0.789216 0.076273
vt 0.789216 0.002706
vt 0.842342 0.012365
vt 0.842342 0.066614
vt 0.903305 0.154843
vt 0.903305 0.098502
vt 0.933280 0.093081
vt 0.933280 0.160263
vt 0.792837 0.626065
vt 0.792837 0.571817
vt 0.845963 0.562157
vt 0.845963 0.635725
vt 0.875555 0.889314
vt 0.875555 0.956496
vt 0.858274 0.953876
vt 0.858274 0.891933
vt 0.133086 0.182712
vt 0.133086 0.267438
vt 0.002706 0.225075
vt 0.016470 0.182712
vt 0.002706 0.794701
vt 0.002706 0.728082
vt 0.073918 0.739120
vt 0.073918 0.783663
vt 0.799917 0.148662
vt 0.728705 0.159700
vt 0.728705 0.093081
vt 0.799917 0.104119
vt 0.259742 0.808672
vt 0.259742 0.876626
vt 0.203377 0.866608
vt 0.203377 0.818690
vt 0.894475 0.821695
vt 0.924449 0.816274
vt 0.924449 0.883456
vt 0.894475 0.878036
vt 0.707569 0.802353
vt 0.707569 0.870307
vt 0.651205 0.860289
vt 0.651205 0.812371
vt 0.906255 0.352488
vt 0.936229 0.347068
vt 0.936229 0.414250
vt 0.906255 0.408829
vt 0.589429 0.818525
vt 0.645793 0.808507
vt 0.645793 0.876461
vt 0.589429 0.866444
vt 0.799183 0.864218
vt 0.781650 0.865578
vt 0.781650 0.814939
vt 0.799183 0.816299
vt 0.510163 0.171778
vt 0.434455 0.159697
vt 0.434455 0.111481
vt 0.510163 0.099400
vt 0.645793 0.547077
vt 0.577747 0.555754
vt 0.577747 0.471782
vt 0.645793 0.480459
vt 0.959788 0.231990
vt 0.959788 0.184072
vt 0.977320 0.182712
vt 0.977320 0.233351
vt 0.796137 0.737497
vt 0.732325 0.728992
vt 0.732325 0.661038
vt 0.796137 0.652533
vt 0.365618 0.804808
vt 0.365618 0.760265
vt 0.436830 0.749227
vt 0.436830 0.815846
vt 0.576580 0.279406
vt 0.576580 0.370688
vt 0.509535 0.361830
vt 0.509535 0.288263
vt 0.722447 0.182712
vt 0.722447 0.267676
vt 0.655450 0.267180
vt 0.655450 0.183208
vt 0.783804 0.087670
vt 0.719993 0.079165
vt 0.719993 0.011211
vt 0.783804 0.002706
vt 0.197965 0.002706
vt 0.197965 0.151100
vt 0.110741 0.122759
vt 0.149749 0.002706
vt 0.581992 0.258007
vt 0.581992 0.191388
vt 0.650039 0.182712
vt 0.650039 0.266684
vt 0.193671 0.581269
vt 0.193671 0.665241
vt 0.126674 0.665737
vt 0.126674 0.580773
vt 0.723613 0.548241
vt 0.723613 0.480287
vt 0.787425 0.471782
vt 0.787425 0.556746
vt 0.732325 0.742909
vt 0.803538 0.753946
vt 0.803538 0.798489
vt 0.732325 0.809527
vt 0.650387 0.391075
vt 0.650387 0.457693
vt 0.582341 0.466370
vt 0.582341 0.382398
vt 0.647584 0.087174
vt 0.647584 0.003202
vt 0.714581 0.002706
vt 0.714581 0.087670
vt 0.938691 0.093081
vt 0.955972 0.095701
vt 0.955972 0.157644
vt 0.938691 0.160263
vt 0.126674 0.817105
vt 0.126674 0.772562
vt 0.197887 0.761524
vt 0.197887 0.828142
vt 0.509535 0.182712
vt 0.576580 0.191569
vt 0.576580 0.265136
vt 0.509535 0.273994
vt 0.435824 0.984400
vt 0.424395 0.984531
vt 0.424395 0.940271
vt 0.435824 0.940140
vt 0.429430 0.735310
vt 0.365618 0.743815
vt 0.365618 0.658851
vt 0.429430 0.667356
vt 0.894475 0.985713
vt 0.894475 0.961461
vt 0.908924 0.962730
vt 0.908924 0.986982
vt 0.947393 0.913398
vt 0.947393 0.964038
vt 0.929861 0.962677
vt 0.929861 0.914759
vt 0.951642 0.051985
vt 0.951642 0.004066
vt 0.969174 0.002706
vt 0.969174 0.053345
vt 0.952805 0.964038
vt 0.952805 0.913398
vt 0.970337 0.914759
vt 0.970337 0.962677
vt 0.295806 0.935466
vt 0.265153 0.932421
vt 0.265153 0.881782
vt 0.295806 0.878737
vt 0.038771 0.930207
vt 0.038771 0.873478
vt 0.069424 0.876523
vt 0.069424 0.927162
vt 0.644913 0.950261
vt 0.644913 0.982840
vt 0.636435 0.981806
vt 0.636435 0.949228
vt 0.996562 0.743942
vt 0.996562 0.776520
vt 0.988083 0.775487
vt 0.988083 0.742909
vt 0.550824 0.927356
vt 0.540724 0.924749
vt 0.540724 0.868020
vt 0.550824 0.865413
vt 0.086264 0.560908
vt 0.086264 0.622851
vt 0.076164 0.620244
vt 0.076164 0.563515
vt 0.975749 0.913398
vt 0.985849 0.916005
vt 0.985849 0.972734
vt 0.975749 0.975341
vt 0.353334 0.111481
vt 0.429043 0.099400
vt 0.429043 0.171778
vt 0.353334 0.159697
vt 0.409531 0.872587
vt 0.365618 0.858358
vt 0.365618 0.835487
vt 0.409531 0.821257
vt 0.105489 0.876523
vt 0.105489 0.927162
vt 0.074836 0.930207
vt 0.074836 0.873478
vt 0.496147 0.952303
vt 0.496147 0.993304
vt 0.487627 0.968262
vt 0.756135 0.944274
vt 0.756135 0.988010
vt 0.746936 0.955488
vt 0.783074 0.944274
vt 0.783074 0.988011
vt 0.773875 0.976796
vt 0.498592 0.828206
vt 0.498592 0.877938
vt 0.491567 0.844878
vt 0.049825 0.935619
vt 0.049825 0.991271
vt 0.038771 0.948284
vt 0.085890 0.935619
vt 0.085890 0.991271
vt 0.074836 0.978606
vt 0.120712 0.492245
vt 0.120712 0.552424
vt 0.113161 0.508685
vt 0.995314 0.671665
vt 0.995314 0.723925
vt 0.986620 0.708061
vt 0.323174 0.938007
vt 0.323174 0.970585
vt 0.305873 0.970585
vt 0.305873 0.938007
vt 0.123828 0.290150
vt 0.123828 0.272850
vt 0.138836 0.274194
vt 0.138836 0.288805
vt 0.134994 0.156511
vt 0.134994 0.174602
vt 0.110741 0.174602
vt 0.110741 0.156511
vt 0.382918 0.940140
vt 0.382918 0.972718
vt 0.365618 0.972718
vt 0.365618 0.940140
vt 0.817502 0.266391
vt 0.817502 0.256077
vt 0.828889 0.257077
vt 0.828889 0.273889
vt 0.783756 0.165112
vt 0.783756 0.176508
vt 0.766455 0.176508
vt 0.766455 0.165112
vt 0.126674 0.389789
vt 0.126674 0.299518
vt 0.197965 0.299013
vt 0.197965 0.390295
vt 0.282454 0.940877
vt 0.282454 0.973216
vt 0.265153 0.973216
vt 0.265153 0.940877
vt 0.118177 0.740483
vt 0.118177 0.792744
vt 0.079330 0.761694
vt 0.082872 0.728082
vt 0.482215 0.981793
vt 0.467765 0.983062
vt 0.467765 0.958810
vt 0.482215 0.957541
vt 0.607520 0.978719
vt 0.589429 0.978719
vt 0.589429 0.954467
vt 0.607520 0.954467
vt 0.964170 0.970288
vt 0.964170 0.987554
vt 0.952805 0.986715
vt 0.952805 0.969449
vt 0.990978 0.529143
vt 0.990978 0.537097
vt 0.979591 0.536097
vt 0.979591 0.521592
vt 0.359762 0.878856
vt 0.359762 0.922360
vt 0.341259 0.935803
vt 0.341259 0.865413
vt 0.169368 0.949956
vt 0.169368 0.974208
vt 0.151277 0.974208
vt 0.151277 0.949956
vt 0.445073 0.958810
vt 0.459523 0.957541
vt 0.459522 0.981793
vt 0.445073 0.983062
vt 0.941226 0.986715
vt 0.929861 0.987554
vt 0.929861 0.970288
vt 0.941226 0.969449
vt 0.924346 0.463922
vt 0.906255 0.463922
vt 0.906255 0.419661
vt 0.924346 0.419661
vt 0.365618 0.979130
vt 0.377004 0.978130
vt 0.377004 0.986084
vt 0.365618 0.993635
vt 0.002706 0.710589
vt 0.002706 0.662373
vt 0.078415 0.650292
vt 0.078415 0.722670
vt 0.258162 0.990394
vt 0.249642 0.974435
vt 0.258162 0.949392
vt 0.741524 0.988010
vt 0.732325 0.976796
vt 0.741524 0.944274
vt 0.936244 0.290671
vt 0.957485 0.274906
vt 0.957485 0.328903
vt 0.551779 0.988420
vt 0.540724 0.975754
vt 0.551779 0.932768
vt 0.858274 0.837542
vt 0.889063 0.816274
vt 0.889063 0.883902
vt 0.120712 0.486834
vt 0.113161 0.470394
vt 0.120712 0.426655
vt 0.942779 0.689743
vt 0.962089 0.671665
vt 0.962089 0.725913
vt 0.942779 0.628021
vt 0.964020 0.612256
vt 0.964020 0.666253
vt 0.963553 0.742909
vt 0.963553 0.796906
vt 0.942312 0.781141
vt 0.870725 0.764176
vt 0.901514 0.742909
vt 0.901514 0.810537
vt 0.897894 0.093081
vt 0.897894 0.160709
vt 0.867105 0.139442
vt 0.852784 0.400287
vt 0.877901 0.363691
vt 0.877901 0.454973
vt 0.954376 0.267438
vt 0.940612 0.225075
vt 0.954376 0.182712
vt 0.955061 0.538963
vt 0.941296 0.496600
vt 0.955061 0.454237
vt 0.877556 0.588397
vt 0.851375 0.552361
vt 0.877556 0.471782
vt 0.955405 0.431794
vt 0.941641 0.389431
vt 0.955405 0.347068
vt 0.946230 0.087432
vt 0.932465 0.045069
vt 0.946230 0.002706
vt 0.190899 0.925267
vt 0.176000 0.879411
vt 0.190899 0.833554
vt 0.092922 0.619780
vt 0.121263 0.580773
vt 0.121263 0.707004
vt 0.118416 0.421243
vt 0.079408 0.392903
vt 0.118416 0.272850
vt 0.107749 0.552886
vt 0.079408 0.513879
vt 0.107749 0.426655
vt 0.944760 0.907987
vt 0.929861 0.862130
vt 0.944760 0.816274
vt 0.937367 0.703968
vt 0.922467 0.658112
vt 0.937367 0.612256
vt 0.974586 0.070061
vt 0.985981 0.070061
vt 0.985981 0.087361
vt 0.974586 0.087361
vt 0.930832 0.258513
vt 0.930832 0.328903
vt 0.912329 0.271956
vt 0.305873 0.822901
vt 0.349787 0.808672
vt 0.349787 0.860001
vt 0.305873 0.845772
vt 0.890768 0.062233
vt 0.890768 0.079533
vt 0.877418 0.082318
vt 0.877418 0.059447
vt 0.983139 0.663554
vt 0.969432 0.666253
vt 0.969432 0.609524
vt 0.983139 0.612224
vt 0.981208 0.725694
vt 0.967501 0.728394
vt 0.967501 0.671665
vt 0.981208 0.674365
vt 0.982672 0.796938
vt 0.968965 0.799638
vt 0.968965 0.742909
vt 0.982672 0.745608
vt 0.176000 0.933378
vt 0.189706 0.930679
vt 0.189706 0.987408
vt 0.176000 0.984708
vt 0.960472 0.456937
vt 0.974179 0.454237
vt 0.974179 0.510966
vt 0.960472 0.508267
vt 0.989691 0.516180
vt 0.979591 0.513573
vt 0.979591 0.456844
vt 0.989691 0.454237
vt 0.823910 0.355908
vt 0.837260 0.353123
vt 0.837260 0.375994
vt 0.823910 0.373209
vt 0.968628 0.547075
vt 0.982335 0.544375
vt 0.982335 0.601104
vt 0.968628 0.598405
vt 0.986823 0.870304
vt 0.973116 0.873003
vt 0.973116 0.816274
vt 0.986823 0.818974
vt 0.732325 0.829168
vt 0.776239 0.814939
vt 0.776239 0.866269
vt 0.732325 0.852039
vt 0.559021 0.923348
vt 0.576553 0.921988
vt 0.576553 0.972627
vt 0.559021 0.971267
vt 0.808949 0.853375
vt 0.808949 0.830504
vt 0.852863 0.816274
vt 0.852863 0.867604
vt 0.317260 0.992808
vt 0.305873 0.993808
vt 0.305873 0.983494
vt 0.317260 0.975997
vt 0.418983 0.978890
vt 0.418983 0.995702
vt 0.407596 0.988204
vt 0.407596 0.977890
vt 0.505338 0.822900
vt 0.549252 0.808671
vt 0.549252 0.860001
vt 0.505338 0.845771
vt 0.991823 0.172488
vt 0.980458 0.173327
vt 0.980458 0.156061
vt 0.991823 0.155222
vt 0.847754 0.039806
vt 0.847754 0.016935
vt 0.891668 0.002706
vt 0.891668 0.054036
vt 0.002706 0.143956
vt 0.002706 0.036050
vt 0.105330 0.002706
vt 0.105330 0.177300
vt 0.832452 0.968127
vt 0.845802 0.935157
vt 0.845802 0.986487
vt 0.427421 0.471782
vt 0.427421 0.507353
vt 0.421937 0.485325
vt 0.634813 0.941209
vt 0.634813 0.884480
vt 0.644913 0.881873
vt 0.644913 0.943816
vt 0.974586 0.005313
vt 0.984685 0.002706
vt 0.984685 0.064649
vt 0.974586 0.062042
vt 0.882781 0.961907
vt 0.882781 0.996888
vt 0.873234 0.976293
vt 0.880967 0.923634
vt 0.887732 0.889314
vt 0.887732 0.935475
vt 0.867822 0.961907
vt 0.867822 0.996888
vt 0.858274 0.976293
vt 0.328586 0.972326
vt 0.335350 0.938007
vt 0.335350 0.984168
vt 0.699711 0.375287
vt 0.655450 0.375287
vt 0.655450 0.357196
vt 0.699711 0.357196
vt 0.426228 0.593690
vt 0.421937 0.579859
vt 0.426228 0.576424
vt 0.975749 0.980753
vt 0.987145 0.980753
vt 0.987145 0.995364
vt 0.975749 0.995364
vt 0.935200 0.182712
vt 0.935200 0.253102
vt 0.912329 0.253102
vt 0.912329 0.182712
vt 0.967704 0.866914
vt 0.950172 0.865553
vt 0.950172 0.817635
vt 0.967704 0.816274
vt 0.993312 0.247220
vt 0.993312 0.264485
vt 0.981947 0.263646
vt 0.981947 0.246380
vt 0.728705 0.165112
vt 0.761044 0.165112
vt 0.761044 0.173653
vt 0.728705 0.173653
vt 0.827040 0.979417
vt 0.808949 0.979417
vt 0.808949 0.935157
vt 0.827040 0.935157
vt 0.703360 0.938906
vt 0.714038 0.937860
vt 0.714038 0.994200
vt 0.703360 0.993154
vt 0.516017 0.993300
vt 0.505338 0.994347
vt 0.505338 0.938006
vt 0.516017 0.939052
vt 0.612931 0.978719
vt 0.612931 0.954467
vt 0.631022 0.954467
vt 0.631022 0.978719
vt 0.835682 0.737294
vt 0.821571 0.734040
vt 0.835682 0.728753
vt 0.076164 0.640335
vt 0.084162 0.628263
vt 0.084162 0.643332
vt 0.432832 0.457424
vt 0.432832 0.385045
vt 0.503471 0.376099
vt 0.503471 0.466370
vt 0.995700 0.584767
vt 0.995700 0.602858
vt 0.987747 0.602858
vt 0.987747 0.584767
vt 0.426228 0.571012
vt 0.421937 0.557182
vt 0.426228 0.553747
vt 0.135153 0.995467
vt 0.126674 0.996501
vt 0.126675 0.963922
vt 0.135153 0.962889
vt 0.600083 0.368789
vt 0.600083 0.376743
vt 0.581992 0.376743
vt 0.581992 0.368789
vt 0.559021 0.996130
vt 0.559021 0.978039
vt 0.569335 0.978039
vt 0.569335 0.996130
vt 0.794246 0.357903
vt 0.818498 0.357903
vt 0.818498 0.375994
vt 0.794246 0.375994
vt 0.504123 0.360730
vt 0.433485 0.369676
vt 0.433485 0.279406
vt 0.504123 0.288352
vt 0.088924 0.712416
vt 0.121263 0.712416
vt 0.121263 0.720957
vt 0.088924 0.720957
vt 0.504123 0.264036
vt 0.433485 0.272982
vt 0.433485 0.182712
vt 0.504123 0.191658
vt 0.747240 0.375994
vt 0.747240 0.351742
vt 0.765332 0.351742
vt 0.765332 0.375994
vt 0.816160 0.725899
vt 0.816160 0.737294
vt 0.801549 0.737294
vt 0.801549 0.725899
vt 0.705122 0.357196
vt 0.737701 0.357196
vt 0.737701 0.374496
vt 0.705122 0.374496
vt 0.197965 0.293601
vt 0.148165 0.225056
vt 0.197965 0.156511
vt 0.576551 0.916576
vt 0.559021 0.862624
vt 0.576551 0.808671
vt 0.900498 0.579687
vt 0.882968 0.525734
vt 0.900498 0.471782
vt 0.900843 0.454973
vt 0.883313 0.401021
vt 0.900843 0.347068
vt 0.917056 0.720161
vt 0.899525 0.666208
vt 0.917056 0.612256
vt 0.906917 0.290617
vt 0.889387 0.236664
vt 0.906917 0.182712
vt 0.924235 0.983944
vt 0.917167 0.962193
vt 0.924235 0.940441
vt 0.712981 0.820856
vt 0.726424 0.802353
vt 0.726424 0.862230
vt 0.834301 0.257077
vt 0.845687 0.256077
vt 0.845687 0.266391
vt 0.834301 0.273889
vt 0.396271 0.983643
vt 0.389203 0.961891
vt 0.396271 0.940140
vt 0.427421 0.548335
vt 0.421937 0.534792
vt 0.427421 0.512764
vt 0.002706 0.953978
vt 0.016056 0.935619
vt 0.016056 0.986948
vt 0.719450 0.949701
vt 0.726215 0.937860
vt 0.726215 0.984021
vt 0.970364 0.444189
vt 0.960817 0.429803
vt 0.970364 0.409209
vt 0.917167 0.900709
vt 0.923932 0.888868
vt 0.923932 0.935029
vt 0.997294 0.579355
vt 0.987747 0.564970
vt 0.997294 0.544375
vt 0.583069 0.992520
vt 0.574746 0.990600
vt 0.583069 0.978039
vt 0.120712 0.557836
vt 0.120712 0.575101
vt 0.116420 0.571666
vt 0.426228 0.599101
vt 0.426228 0.616367
vt 0.421937 0.612932
vt 0.834695 0.166986
vt 0.834695 0.175527
vt 0.820585 0.170240
vt 0.401683 0.972479
vt 0.401683 0.940140
vt 0.418983 0.940140
vt 0.418983 0.972479
vt 0.426228 0.636390
vt 0.420731 0.636390
vt 0.420731 0.621779
vt 0.426228 0.621779
vt 0.770743 0.375994
vt 0.770743 0.351742
vt 0.788834 0.351742
vt 0.788834 0.375994
vt 0.266802 0.177300
vt 0.203377 0.090003
vt 0.266802 0.002706
vt 0.967473 0.872325
vt 0.967473 0.904904
vt 0.950172 0.904904
vt 0.950172 0.872325
vn 0.2561 0.5596 0.7882
vn -0.7953 0.6062 0.0000
vn 0.3089 -0.0218 0.9508
vn -0.1877 0.7944 0.5776
vn 0.2458 0.6062 0.7564
vn -0.9521 0.3057 0.0000
vn -0.8371 -0.5470 0.0000
vn 0.7450 -0.3898 -0.5413
vn 0.8088 0.0228 -0.5876
vn 0.7391 0.4066 0.5370
vn -0.8711 -0.4911 0.0000
vn 0.9209 -0.3898 0.0000
vn -0.8088 0.0228 -0.5876
vn 0.7378 -0.4102 -0.5361
vn -0.6772 -0.5470 0.4920
vn -0.2842 0.3924 -0.8748
vn 0.8088 -0.0218 -0.5876
vn -0.3523 0.9359 0.0000
vn -0.2692 -0.4911 -0.8285
vn -0.7450 -0.3898 0.5413
vn 0.8088 -0.0218 0.5876
vn -0.2818 -0.4102 -0.8674
vn 0.2587 -0.5470 0.7962
vn 0.2846 -0.3898 0.8758
vn 0.3089 -0.0218 -0.9508
vn -0.7391 0.4066 0.5370
vn -0.7714 -0.3016 0.5604
vn 0.7714 -0.3016 -0.5604
vn 0.2946 -0.3016 0.9068
vn 0.2942 0.3057 0.9055
vn -0.8845 0.4665 0.0000
vn -0.6705 0.5596 0.4871
vn 0.6721 -0.5566 0.4883
vn -0.2567 -0.5566 0.7901
vn 0.2567 -0.5566 0.7901
vn -0.2561 0.5596 -0.7882
vn 0.7156 0.4665 0.5199
vn -0.8789 0.4770 -0.0000
vn -0.2733 0.4665 0.8412
vn -0.2733 0.4665 -0.8412
vn -0.6772 -0.5470 -0.4920
vn -0.6721 -0.5566 0.4883
vn 0.8371 -0.5470 0.0000
vn 0.6721 -0.5566 -0.4883
vn -0.2587 -0.5470 0.7962
vn -0.0000 0.0000 1.0000
vn 0.7110 0.4770 -0.5166
vn -0.7441 0.3924 0.5406
vn -0.8088 0.0228 0.5876
vn -0.7156 0.4665 -0.5199
vn 0.7047 -0.4911 0.5120
vn 0.7391 0.4066 -0.5370
vn -0.3089 0.0228 0.9508
vn 0.7156 0.4665 -0.5199
vn -0.7110 0.4770 -0.5166
vn 0.7441 0.3924 -0.5406
vn -0.0000 -0.0000 -1.0000
vn 0.9120 -0.4102 0.0000
vn -0.7110 0.4770 0.5166
vn -0.7441 0.3924 -0.5406
vn 0.3089 0.0228 -0.9508
vn 0.2818 -0.4102 -0.8674
vn -0.2716 0.4770 0.8359
vn 0.2823 0.4066 -0.8689
vn -0.7156 0.4665 0.5199
vn 0.3001 0.2388 -0.9235
vn -0.3001 0.2388 0.9235
vn 0.2942 0.3057 -0.9055
vn 0.7703 0.3057 0.5596
vn 0.7450 -0.3898 0.5413
vn 0.4914 0.7944 -0.3570
vn -0.0228 0.9973 0.0703
vn -0.6074 0.7944 0.0000
vn -0.0228 0.9973 -0.0703
vn 0.4914 0.7944 0.3570
vn -0.2942 0.3057 0.9055
vn 0.8288 0.5596 0.0000
vn 0.9136 0.4066 0.0000
vn 0.0083 1.0000 0.0000
vn 0.8420 -0.5395 0.0000
vn 0.8233 0.5676 0.0000
vn -0.8420 -0.5395 0.0000
vn -0.4849 0.8745 0.0000
vn -0.8800 0.4749 0.0000
vn 0.8800 0.4749 0.0000
vn -0.3089 -0.0218 0.9508
vn -0.2946 -0.3016 -0.9068
vn 0.7856 0.2388 -0.5708
vn -0.0083 1.0000 0.0000
vn 0.6705 0.5596 -0.4871
vn 0.6705 0.5596 0.4871
vn 0.9998 -0.0218 0.0000
vn 0.6434 0.6062 -0.4675
vn -0.6705 0.5596 -0.4871
vn -0.7703 0.3057 0.5596
vn 0.2692 -0.4911 0.8285
vn -0.7450 -0.3898 -0.5413
vn -0.8088 -0.0218 -0.5876
vn -0.7378 -0.4102 -0.5361
vn -0.2692 -0.4911 0.8285
vn 0.2842 0.3924 -0.8748
vn 0.9997 0.0228 0.0000
vn -0.9120 -0.4102 0.0000
vn 0.6772 -0.5470 -0.4920
vn 0.2842 0.3924 0.8748
vn -0.9998 -0.0218 0.0000
vn 0.9534 -0.3016 0.0000
vn 0.2692 -0.4911 -0.8285
vn -0.9198 0.3924 -0.0000
vn 0.3089 0.0228 0.9508
vn -0.7391 0.4066 -0.5370
vn 0.8711 -0.4911 0.0000
vn -0.9209 -0.3898 0.0000
vn -0.8088 -0.0218 0.5876
vn 0.2823 0.4066 0.8689
vn 0.7714 -0.3016 0.5604
vn -0.7703 0.3057 -0.5596
vn -0.9534 -0.3016 0.0000
vn -0.7714 -0.3016 -0.5604
vn 0.8845 0.4665 0.0000
vn -0.2567 -0.5566 -0.7901
vn 0.8308 -0.5566 0.0000
vn -0.2561 0.5596 0.7882
vn 0.2567 -0.5566 -0.7901
vn 0.2561 0.5596 -0.7882
vn 0.2733 0.4665 0.8412
vn -0.0000 1.0000 -0.0000
vn 0.8789 0.4770 -0.0000
vn 0.2716 0.4770 0.8359
vn 0.6772 -0.5470 0.4920
vn -0.6721 -0.5566 -0.4883
vn 0.2587 -0.5470 -0.7962
vn -0.8308 -0.5566 0.0000
vn -0.2587 -0.5470 -0.7962
vn 0.3001 0.2388 0.9235
vn 0.7047 -0.4911 -0.5120
vn 0.9198 0.3924 -0.0000
vn 0.7856 0.2388 0.5708
vn 0.7378 -0.4102 0.5361
vn 0.2716 0.4770 -0.8359
vn -0.2823 0.4066 0.8689
vn -0.3089 0.0228 -0.9508
vn 0.2818 -0.4102 0.8674
vn 0.0000 -1.0000 0.0000
vn -0.2842 0.3924 0.8748
vn 0.8088 0.0228 0.5876
vn -0.2818 -0.4102 0.8674
vn 0.7110 0.4770 0.5166
vn 0.7441 0.3924 0.5406
vn -0.9997 0.0228 0.0000
vn 0.2733 0.4665 -0.8412
vn -0.2716 0.4770 -0.8359
vn -0.2823 0.4066 -0.8689
vn -0.7378 -0.4102 0.5361
vn -0.7856 0.2388 0.5708
vn -0.3001 0.2388 -0.9235
vn 0.9711 0.2388 0.0000
vn -0.2942 0.3057 -0.9055
vn 0.7703 0.3057 -0.5596
vn -0.4914 0.7944 0.3570
vn -0.4914 0.7944 -0.3570
vn 0.1877 0.7944 0.5776
vn -0.7047 -0.4911 0.5120
vn 0.0228 0.9973 -0.0703
vn 0.9521 0.3057 0.0000
vn -0.8288 0.5596 0.0000
vn -0.9136 0.4066 -0.0000
vn -0.1210 -0.9927 0.0000
vn 0.3523 0.9359 0.0000
vn 0.4849 -0.8745 0.0000
vn 0.1210 -0.9927 0.0000
vn 1.0000 -0.0000 0.0000
vn -0.3089 -0.0218 -0.9508
vn 0.4849 0.8745 0.0000
vn 0.0781 0.0000 0.9969
vn -0.4849 -0.8745 0.0000
vn -0.0781 0.0000 0.9969
vn -0.7047 -0.4911 -0.5120
vn -1.0000 0.0000 0.0000
vn 0.0598 0.9973 0.0434
vn 0.0739 0.9973 0.0000
vn -0.2458 0.6062 -0.7564
vn -0.6434 0.6062 0.4675
vn -0.6434 0.6062 -0.4675
vn -0.2458 0.6062 0.7564
vn 0.7953 0.6062 0.0000
vn 0.6074 0.7944 0.0000
vn -0.0739 0.9973 0.0000
vn 0.6434 0.6062 0.4675
vn 0.2458 0.6062 -0.7564
vn -0.0598 0.9973 0.0434
vn -0.9711 0.2388 0.0000
vn 0.0598 0.9973 -0.0434
vn -0.0598 0.9973 -0.0434
vn 0.0781 -0.0000 -0.9969
vn 0.0228 0.9973 0.0703
vn -0.1877 0.7944 -0.5776
vn 0.1877 0.7944 -0.5776
vn 0.8800 -0.4749 0.0000
vn -0.0821 0.0566 0.9950
vn -0.7856 0.2388 -0.5708
vn -0.0781 -0.0000 -0.9969
vn -0.8800 -0.4749 0.0000
vn 0.2946 -0.3016 -0.9068
vn -0.2946 -0.3016 0.9068
vn -0.0953 -0.0000 -0.9954
vn 0.0953 0.0000 0.9954
vn -0.2846 -0.3898 -0.8758
vn 0.0821 0.0566 -0.9950
vn 0.2846 -0.3898 -0.8758
vn -0.2846 -0.3898 0.8758
vn -0.1210 0.9927 0.0000
vn -0.0953 0.0000 0.9954
vn -0.0821 0.0566 -0.9950
vn 0.0821 0.0566 0.9950
vn 0.0953 -0.0000 -0.9954
vn -0.8233 0.5676 0.0000
vn 0.1210 0.9927 0.0000
g WaterVase_1_WaterVase_1_Collor_Material
usemtl Collor_Material
s off
f 21/1/1 8/2/1 176/3/1 177/4/1
f 242/5/2 170/6/2 217/7/2 241/8/2
f 22/9/3 120/10/3 121/11/3 23/12/3
f 183/13/4 192/14/4 65/15/4 33/16/4
f 224/17/5 218/18/5 68/19/5 223/20/5
f 63/21/6 67/22/6 66/23/6 62/24/6
f 53/25/7 42/26/7 40/27/7 49/28/7
f 12/29/8 11/30/8 15/31/8 16/32/8
f 156/33/9 155/34/9 159/35/9 160/36/9
f 76/37/10 75/38/10 21/39/10 22/40/10
f 95/41/11 97/42/11 115/43/11 111/44/11
f 16/45/12 15/46/12 19/47/12 20/48/12
f 54/49/13 55/50/13 59/51/13 58/52/13
f 155/53/14 154/54/14 158/55/14 159/56/14
f 49/57/15 40/58/15 38/59/15 45/60/15
f 60/61/16 164/62/16 163/63/16 59/64/16
f 10/65/17 74/66/17 15/67/17 11/68/17
f 258/69/18 257/70/18 261/71/18 262/72/18
f 93/73/19 107/74/19 101/75/19 175/76/19
f 119/77/20 118/78/20 114/79/20 115/80/20
f 19/81/21 76/82/21 22/83/21 23/84/21
f 58/85/22 162/86/22 189/87/22 57/88/22
f 184/89/23 185/90/23 136/91/23 146/92/23
f 23/93/24 121/94/24 122/95/24 24/96/24
f 102/97/25 103/98/25 10/99/25 11/100/25
f 200/101/26 117/102/26 116/103/26 199/104/26
f 100/105/27 126/106/27 125/107/27 193/108/27
f 2/109/28 25/110/28 26/111/28 70/112/28
f 176/113/29 8/114/29 28/115/29 179/116/29
f 165/117/30 190/118/30 192/119/30 169/120/30
f 129/121/31 133/122/31 132/123/31 128/124/31
f 116/125/32 100/126/32 193/127/32 199/128/32
f 27/129/33 31/130/33 32/131/33 28/132/33
f 180/133/34 130/134/34 126/135/34 179/136/34
f 28/137/35 32/138/35 180/139/35 179/140/35
f 104/141/36 94/142/36 173/143/36 172/144/36
f 31/145/37 35/146/37 36/147/37 32/148/37
f 39/149/38 41/150/38 56/151/38 52/152/38
f 180/153/39 182/154/39 134/155/39 130/156/39
f 131/157/40 183/158/40 181/159/40 127/160/40
f 42/161/41 53/162/41 57/163/41 44/164/41
f 130/165/42 129/166/42 125/167/42 126/168/42
f 150/169/43 138/170/43 140/171/43 154/172/43
f 26/173/44 25/174/44 29/175/44 30/176/44
f 185/177/45 184/178/45 45/179/45 38/180/45
f 196/181/46 202/182/46 201/183/46 113/184/46
f 141/185/47 139/186/47 157/187/47 161/188/47
f 48/189/48 52/190/48 51/191/48 47/192/48
f 47/193/49 51/194/49 50/195/49 46/196/49
f 128/197/50 132/198/50 131/199/50 127/200/50
f 7/201/51 5/202/51 20/203/51 24/204/51
f 9/205/52 73/206/52 74/207/52 10/208/52
f 144/209/53 47/210/53 46/211/53 145/212/53
f 30/213/54 29/214/54 33/215/54 34/216/54
f 56/217/55 41/218/55 43/219/55 60/220/55
f 161/221/56 157/222/56 156/223/56 160/224/56
f 89/225/57 84/226/57 80/227/57 92/228/57
f 155/229/58 151/230/58 150/231/58 154/232/58
f 52/233/59 48/234/59 37/235/59 39/236/59
f 56/237/60 60/238/60 59/239/60 55/240/60
f 159/241/61 162/242/61 163/243/61 160/244/61
f 158/245/62 189/246/62 162/247/62 159/248/62
f 187/249/63 37/250/63 48/251/63 143/252/63
f 172/253/64 9/254/64 10/255/64 103/256/64
f 88/257/46 91/258/46 79/259/46 78/260/46
f 134/261/65 133/262/65 129/263/65 130/264/65
f 142/265/66 168/266/66 191/267/66 188/268/66
f 71/269/57 84/270/57 82/271/57 14/272/57
f 72/273/46 18/274/46 77/275/46 78/276/46
f 61/277/67 190/278/67 185/279/67 38/280/67
f 171/281/68 218/282/68 191/283/68 168/284/68
f 169/285/69 170/286/69 166/287/69 165/288/69
f 261/289/46 253/290/46 269/291/46 267/292/46
f 19/293/70 23/294/70 24/295/70 20/296/70
f 134/297/71 171/298/71 217/299/71 133/300/71
f 238/301/72 228/302/72 224/303/72 234/304/72
f 67/305/73 35/306/73 34/307/73 66/308/73
f 235/309/74 230/310/74 220/311/74 225/312/74
f 170/313/75 169/314/75 131/315/75 132/316/75
f 190/317/76 61/318/76 65/319/76 192/320/76
f 6/321/77 70/322/77 69/323/77
f 4/324/77 73/325/77 70/326/77
f 6/327/77 75/328/77 17/329/77
f 17/330/77 73/331/77 13/332/77
f 71/333/78 74/334/78 73/335/78
f 72/336/78 76/337/78 18/338/78
f 14/339/78 76/340/78 74/341/78
f 71/342/78 75/343/78 72/344/78
f 87/345/78 89/346/78 88/347/78 86/348/78
f 206/349/57 208/350/57 195/351/57 109/352/57
f 205/353/79 209/354/79 214/355/79 207/356/79
f 77/357/80 82/358/80 87/359/80 86/360/80
f 79/361/46 91/362/46 90/363/46 83/364/46
f 255/365/81 247/366/81 248/367/81 256/368/81
f 201/369/82 210/370/82 211/371/82 206/372/82
f 71/373/83 72/374/83 78/375/83 84/376/83
f 108/377/57 204/378/57 205/379/57 96/380/57
f 212/381/84 215/382/84 216/383/84 213/384/84
f 213/385/57 216/386/57 204/387/57 208/388/57
f 80/389/57 81/390/57 85/391/57 92/392/57
f 71/393/85 73/394/85 17/395/85 75/396/85
f 121/397/86 120/398/86 117/399/86 118/400/86
f 123/401/87 178/402/87 173/403/87 94/404/87
f 168/405/88 142/406/88 140/407/88 167/408/88
f 81/409/89 83/410/89 90/411/89 85/412/89
f 9/413/90 2/414/90 70/415/90 73/416/90
f 69/417/91 8/418/91 21/419/91 75/420/91
f 15/421/92 74/422/92 76/423/92 19/424/92
f 240/425/93 66/426/93 65/427/93 219/428/93
f 104/429/94 197/430/94 194/431/94 94/432/94
f 66/433/95 65/434/95 61/435/95 62/436/95
f 7/437/96 24/438/96 122/439/96 174/440/96
f 107/441/97 111/442/97 110/443/97 106/444/97
f 110/445/98 198/446/98 105/447/98 106/448/98
f 57/449/99 53/450/99 54/451/99 58/452/99
f 99/453/100 174/454/100 122/455/100 119/456/100
f 161/457/101 160/458/101 163/459/101 164/460/101
f 156/461/102 152/462/102 151/463/102 155/464/102
f 50/465/103 54/466/103 53/467/103 49/468/103
f 142/469/104 158/470/104 154/471/104 140/472/104
f 143/473/105 144/474/105 148/475/105 149/476/105
f 110/477/106 114/478/106 200/479/106 198/480/106
f 69/481/107 70/482/107 26/483/107 27/484/107
f 101/485/108 12/486/108 1/487/108 175/488/108
f 52/489/109 56/490/109 55/491/109 51/492/109
f 144/493/110 145/494/110 147/495/110 148/496/110
f 198/497/111 197/498/111 104/499/111 105/500/111
f 5/501/112 3/502/112 16/503/112 20/504/112
f 110/505/113 111/506/113 115/507/113 114/508/113
f 114/509/114 118/510/114 117/511/114 200/512/114
f 22/513/115 21/514/115 177/515/115 120/516/115
f 8/517/116 69/518/116 27/519/116 28/520/116
f 64/521/117 68/522/117 67/523/117 63/524/117
f 193/525/118 125/526/118 124/527/118 194/528/118
f 124/529/119 123/530/119 94/531/119 194/532/119
f 34/533/120 35/534/120 31/535/120 30/536/120
f 123/537/121 127/538/121 181/539/121 178/540/121
f 31/541/122 27/542/122 26/543/122 30/544/122
f 116/545/123 177/546/123 176/547/123 100/548/123
f 25/549/124 178/550/124 181/551/124 29/552/124
f 173/553/125 2/554/125 9/555/125 172/556/125
f 180/557/126 32/558/126 36/559/126 182/560/126
f 43/561/127 39/562/127 137/563/127 139/564/127
f 153/565/128 157/566/128 139/567/128 137/568/128
f 187/569/129 143/570/129 149/571/129 135/572/129
f 150/573/130 146/574/130 136/575/130 138/576/130
f 124/577/131 128/578/131 127/579/131 123/580/131
f 189/581/132 158/582/132 142/583/132 188/584/132
f 125/585/133 129/586/133 128/587/133 124/588/133
f 44/589/134 57/590/134 189/591/134 188/592/134
f 185/593/135 190/594/135 165/595/135 136/596/135
f 16/597/136 3/598/136 1/599/136 12/600/136
f 153/601/137 152/602/137 156/603/137 157/604/137
f 138/605/138 136/606/138 165/607/138 166/608/138
f 147/609/139 146/610/139 150/611/139 151/612/139
f 186/613/140 141/614/140 161/615/140 164/616/140
f 117/617/141 120/618/141 177/619/141 116/620/141
f 162/621/142 58/622/142 59/623/142 163/624/142
f 145/625/143 184/626/143 146/627/143 147/628/143
f 7/629/144 95/630/144 175/631/144 5/632/144
f 143/633/145 48/634/145 47/635/145 144/636/145
f 152/637/146 148/638/146 147/639/146 151/640/146
f 45/641/147 184/642/147 145/643/147 46/644/147
f 153/645/148 137/646/148 135/647/148 149/648/148
f 153/649/149 149/650/149 148/651/149 152/652/149
f 51/653/150 55/654/150 54/655/150 50/656/150
f 181/657/151 183/658/151 33/659/151 29/660/151
f 43/661/152 186/662/152 164/663/152 60/664/152
f 105/665/153 104/666/153 172/667/153 103/668/153
f 203/669/46 215/670/46 212/671/46 202/672/46
f 45/673/154 46/674/154 50/675/154 49/676/154
f 17/677/46 79/678/46 83/679/46 6/680/46
f 62/681/155 61/682/155 38/683/155 40/684/155
f 44/685/156 188/686/156 191/687/156 64/688/156
f 166/689/157 167/690/157 140/691/157 138/692/157
f 68/693/158 64/694/158 191/695/158 218/696/158
f 217/697/159 171/698/159 168/699/159 167/700/159
f 270/701/46 251/702/46 259/703/46 268/704/46
f 262/705/57 265/706/57 264/707/57 254/708/57
f 33/709/160 65/710/160 66/711/160 34/712/160
f 36/713/161 35/714/161 67/715/161 68/716/161
f 131/717/162 169/718/162 192/719/162 183/720/162
f 99/721/163 119/722/163 115/723/163 97/724/163
f 220/725/164 230/726/164 229/727/164 219/728/164
f 167/729/165 166/730/165 170/731/165 217/732/165
f 98/733/166 194/734/166 96/735/166
f 96/736/166 197/737/166 108/738/166
f 199/739/166 98/740/166 112/741/166
f 108/742/166 199/743/166 112/744/166
f 195/745/167 198/746/167 109/747/167
f 200/748/167 196/749/167 113/750/167
f 109/751/167 200/752/167 113/753/167
f 199/754/167 195/755/167 196/756/167
f 251/757/168 270/758/168 263/759/168 252/760/168
f 260/761/169 259/762/169 255/763/169 256/764/169
f 17/765/170 13/766/170 80/767/170 79/768/170
f 269/769/171 253/770/171 254/771/171 264/772/171
f 211/773/57 213/774/57 208/775/57 206/776/57
f 253/777/172 237/778/172 236/779/172 254/780/172
f 102/781/173 106/782/173 105/783/173 103/784/173
f 270/785/144 269/786/144 264/787/144 263/788/144
f 195/789/84 199/790/84 108/791/84 197/792/84
f 13/793/57 4/794/57 81/795/57 80/796/57
f 98/797/174 96/798/174 205/799/174 207/800/174
f 232/801/175 222/802/175 247/803/175 251/804/175
f 214/805/46 215/806/46 203/807/46 207/808/46
f 245/809/127 234/810/127 233/811/127 246/812/127
f 206/813/176 109/814/176 113/815/176 201/816/176
f 207/817/46 203/818/46 112/819/46 98/820/46
f 237/821/177 253/822/177 249/823/177 227/824/177
f 88/825/85 89/826/85 92/827/85 91/828/85
f 204/829/57 216/830/57 209/831/57 205/832/57
f 93/833/178 95/834/178 111/835/178 107/836/178
f 6/837/77 4/838/77 70/839/77
f 4/840/77 13/841/77 73/842/77
f 6/843/77 69/844/77 75/845/77
f 71/846/78 14/847/78 74/848/78
f 72/849/78 75/850/78 76/851/78
f 14/852/78 18/853/78 76/854/78
f 98/855/166 193/856/166 194/857/166
f 96/858/166 194/859/166 197/860/166
f 199/861/166 193/862/166 98/863/166
f 195/864/167 197/865/167 198/866/167
f 200/867/167 199/868/167 196/869/167
f 109/870/167 198/871/167 200/872/167
f 39/873/127 37/874/127 187/875/127
f 187/876/127 135/877/127 137/878/127
f 139/879/127 141/880/127 43/881/127
f 141/882/127 186/883/127 43/884/127
f 43/885/127 41/886/127 39/887/127
f 175/888/144 1/889/144 3/890/144
f 3/891/144 5/892/144 175/893/144
f 7/894/144 174/895/144 95/896/144
f 174/897/144 99/898/144 95/899/144
f 99/900/144 97/901/144 95/902/144
f 95/903/144 93/904/144 175/905/144
f 252/906/179 231/907/179 232/908/179 251/909/179
f 235/910/127 243/911/127 230/912/127
f 233/913/180 223/914/180 239/915/180 243/916/180
f 232/917/181 231/918/181 244/919/181 243/920/181
f 220/921/182 192/922/182 169/923/182 225/924/182
f 241/925/183 217/926/183 171/927/183 228/928/183
f 225/929/184 169/930/184 170/931/184 242/932/184
f 228/933/185 171/934/185 218/935/185 224/936/185
f 239/937/186 67/938/186 66/939/186 240/940/186
f 133/941/187 217/942/187 170/943/187 132/944/187
f 237/945/188 245/946/188 246/947/188 236/948/188
f 223/949/189 68/950/189 67/951/189 239/952/189
f 219/953/190 65/954/190 192/955/190 220/956/190
f 245/957/191 241/958/191 228/959/191 238/960/191
f 42/961/192 63/962/192 62/963/192 40/964/192
f 229/965/193 244/966/193 240/967/193 219/968/193
f 202/969/46 212/970/46 210/971/46 201/972/46
f 78/973/46 77/974/46 86/975/46 88/976/46
f 235/977/194 225/978/194 242/979/194 246/980/194
f 231/981/195 252/982/195 248/983/195 221/984/195
f 233/985/196 234/986/196 224/987/196 223/988/196
f 65/989/144 67/990/144 218/991/144 169/992/144
f 221/993/181 239/994/181 240/995/181
f 226/996/188 241/997/188 227/998/188
f 68/999/197 218/1000/197 182/1001/197 36/1002/197
f 171/1003/198 134/1004/198 182/1005/198 218/1006/198
f 232/1007/181 239/1008/181 222/1009/181
f 237/1010/188 241/1011/188 245/1012/188
f 236/1013/188 242/1014/188 226/1015/188
f 231/1016/181 240/1017/181 244/1018/181
f 208/1019/199 204/1020/199 203/1021/199 202/1022/199
f 253/1023/200 257/1024/200 249/1025/200
f 250/1026/179 226/1027/179 227/1028/179 249/1029/179
f 246/1030/127 233/1031/127 243/1032/127 235/1033/127
f 63/1034/201 42/1035/201 44/1036/201 64/1037/201
f 236/1038/202 226/1039/202 250/1040/202 254/1041/202
f 265/1042/57 266/1043/57 263/1044/57 264/1045/57
f 84/1046/203 78/1047/203 79/1048/203 80/1049/203
f 173/1050/204 178/1051/204 25/1052/204 2/1053/204
f 176/1054/205 179/1055/205 126/1056/205 100/1057/205
f 81/1058/83 4/1059/83 6/1060/83 83/1061/83
f 254/1062/206 258/1063/206 262/1064/206
f 251/1065/207 255/1066/207 259/1067/207
f 101/1068/208 107/1069/208 106/1070/208 102/1071/208
f 214/1072/166 209/1073/166 216/1074/166 215/1075/166
f 252/1076/209 256/1077/209 248/1078/209
f 263/1079/57 266/1080/57 260/1081/57 252/1082/57
f 90/1083/77 91/1084/77 92/1085/77 85/1086/77
f 211/1087/167 210/1088/167 212/1089/167 213/1090/167
f 77/1091/170 18/1092/170 14/1093/170 82/1094/170
f 101/1095/210 102/1096/210 11/1097/210 12/1098/210
f 268/1099/46 267/1100/46 269/1101/46 270/1102/46
f 122/1103/211 121/1104/211 118/1105/211 119/1106/211
f 112/1107/176 203/1108/176 204/1109/176 108/1110/176
f 247/1111/172 222/1112/172 221/1113/172 248/1114/172
f 265/1115/212 262/1116/212 261/1117/212 267/1118/212
f 39/1119/127 187/1120/127 137/1121/127
f 65/1122/144 66/1123/144 67/1124/144
f 67/1125/144 68/1126/144 218/1127/144
f 218/1128/144 171/1129/144 217/1130/144
f 217/1131/144 170/1132/144 169/1133/144
f 169/1134/144 192/1135/144 65/1136/144
f 243/1137/127 244/1138/127 229/1139/127
f 229/1140/127 230/1141/127 243/1142/127
f 84/1143/57 89/1144/57 87/1145/57 82/1146/57
f 245/1147/127 238/1148/127 234/1149/127
f 221/1150/181 222/1151/181 239/1152/181
f 226/1153/188 242/1154/188 241/1155/188
f 232/1156/181 243/1157/181 239/1158/181
f 237/1159/188 227/1160/188 241/1161/188
f 236/1162/188 246/1163/188 242/1164/188
f 231/1165/181 221/1166/181 240/1167/181
f 253/1168/213 261/1169/213 257/1170/213
f 254/1171/214 250/1172/214 258/1173/214
f 251/1174/215 247/1175/215 255/1176/215
f 252/1177/216 260/1178/216 256/1179/216
f 266/1180/127 265/1181/127 267/1182/127 268/1183/127
f 258/1184/217 250/1185/217 249/1186/217 257/1187/217
f 195/1188/174 208/1189/174 202/1190/174 196/1191/174
f 218/1192/144 217/1193/144 169/1194/144
f 260/1195/218 266/1196/218 268/1197/218 259/1198/218
