# Blender v3.0.0 OBJ File: 'aa.blend'
# www.blender.org
mtllib WodenLog.mtl
o WodenLog
v -1.037946 0.276275 0.040566
v -1.037946 0.304702 0.011402
v -1.037946 0.246658 0.009514
v -1.037946 0.275086 -0.019649
v -0.880059 0.276275 0.040566
v -0.880059 0.304702 0.011402
v -0.880059 0.246658 0.009514
v -0.880059 0.275086 -0.019649
v 1.036235 0.276275 0.040566
v 1.036235 0.304702 0.011402
v 1.036235 0.246658 0.009514
v 1.036235 0.275086 -0.019649
v 0.881633 0.109426 0.040566
v 0.881633 0.137853 0.011402
v 0.881633 0.079809 0.009514
v 0.881633 0.108236 -0.019649
v -1.112636 0.567218 -0.139644
v 1.127379 0.436083 -0.104268
v -1.112864 0.468354 -0.075958
v 1.119950 0.337185 -0.040582
v -1.112408 0.427382 0.005967
v 1.118878 0.296365 0.041300
v -1.112867 0.460269 0.072414
v 1.119953 0.337304 0.122726
v -1.112633 0.590586 0.112991
v 1.119040 0.443819 0.155261
v -1.112329 0.664195 0.086911
v 1.124594 0.517681 0.130749
v -1.095652 0.708788 0.007086
v 1.114068 0.574100 0.040169
v -1.095030 0.666176 -0.105749
v 1.115008 0.534855 -0.070298
v -1.117924 0.567320 -0.040297
v 1.131235 0.465062 0.043242
v -0.954229 0.478334 0.297116
v -0.954229 0.494470 0.305499
v -0.956323 0.480565 0.292357
v -0.956323 -0.000000 -0.320724
v -0.954229 0.599597 0.180734
v -0.954229 0.588544 0.165188
v -0.956323 0.584952 0.168469
v -0.892276 -0.000000 -0.128635
v -0.892276 0.494470 0.305499
v -0.892276 0.478334 0.297116
v -0.890181 0.480565 0.292357
v -0.892276 -0.000000 -0.327064
v -0.890181 -0.000000 -0.320724
v -0.892276 0.599597 0.180734
v -0.890181 0.584952 0.168469
v -0.892276 0.588544 0.165188
v -1.020830 0.000000 0.135844
v -1.020371 0.487956 -0.298663
v -1.020371 0.500534 -0.291090
v -1.022006 0.498902 -0.283199
v -1.022466 0.000000 0.279837
v -1.020371 0.593533 -0.180718
v -1.020371 0.598849 -0.166949
v -1.022770 0.585705 -0.180181
v -0.957241 0.000000 0.161277
v -0.958418 0.500534 -0.291090
v -0.958418 0.487956 -0.298663
v -0.956782 0.498902 -0.283199
v -0.956323 0.000000 0.279837
v -0.958418 0.593533 -0.180718
v -0.956019 0.585705 -0.180181
v -0.958418 0.598849 -0.166949
v 0.941839 -0.000000 -0.214712
v 0.944945 -0.000546 -0.220919
v 0.937891 0.214644 0.331061
v 0.938688 0.227594 0.343802
v 0.940972 0.217713 0.327442
v 0.973740 -0.018942 -0.396668
v 0.972674 -0.019699 -0.402914
v 0.971749 0.361507 0.256669
v 0.972727 0.355344 0.238643
v 0.973801 0.350685 0.240922
v 0.881171 -0.003774 -0.221595
v 0.878020 0.238094 0.336919
v 0.877224 0.225143 0.324179
v 0.876202 0.228923 0.320094
v 0.911082 0.372007 0.249786
v 0.909031 0.361895 0.233574
v 0.912060 0.365844 0.231761
v 1.019119 0.000000 0.135844
v 1.019836 0.000000 0.161277
v 1.018659 0.487956 -0.298663
v 1.018659 0.500534 -0.291090
v 1.020295 0.498902 -0.283199
v 1.018659 0.593533 -0.180718
v 1.018659 0.598849 -0.166949
v 1.021059 0.585705 -0.180181
v 0.955530 0.000000 0.161277
v 0.956247 0.000000 0.135844
v 0.956706 0.500534 -0.291090
v 0.956706 0.487956 -0.298663
v 0.955071 0.498902 -0.283199
v 0.956706 0.000000 0.303579
v 0.954612 0.000000 0.279837
v 0.956706 0.593533 -0.180718
v 0.954307 0.585705 -0.180181
v 0.956706 0.598849 -0.166949
v -0.956323 -0.000000 -0.135424
v -0.954229 -0.000000 -0.128635
v -0.954229 -0.000000 -0.327064
v -0.890181 -0.000000 -0.135424
v -1.021548 0.000000 0.161277
v -1.020371 0.000000 0.303579
v -0.958418 0.000000 0.303579
v -0.957959 0.000000 0.135844
v 0.908970 -0.022972 -0.404016
v 0.912007 -0.023474 -0.409797
v 0.880175 -0.004576 -0.228267
v 1.018659 0.000000 0.303579
v 1.020754 0.000000 0.279837
v -0.248664 0.319600 0.099500
v -0.021893 0.060706 0.101476
v -0.246762 0.540232 0.179383
v -0.238986 0.547040 -0.006912
v -0.239681 0.586553 0.099837
v -0.019217 0.164878 -0.115657
v -0.248603 0.358592 0.021450
v -0.022049 0.182933 0.139321
v -0.012529 0.305241 0.030293
v -0.011799 0.263773 -0.081737
v -0.021956 0.025082 0.029939
v -0.248604 0.353545 0.167665
v -0.019961 0.256628 0.113774
v -0.248752 0.470011 0.203725
v -0.021892 0.066003 -0.051972
v -0.246054 0.452807 -0.039233
v -0.820502 0.553568 -0.076202
v -0.821758 0.413751 0.069402
v -0.821956 0.448007 0.138394
v -0.820720 0.647931 0.151791
v -0.807990 0.652493 -0.042294
v -0.808666 0.694534 0.070138
v -0.821954 0.454698 -0.012516
v -0.821916 0.574278 0.177605
vt 0.039478 0.807801
vt 0.055886 0.798168
vt 0.055886 0.899026
vt 0.039478 0.908659
vt 0.450163 0.520747
vt 0.432117 0.521405
vt 0.432117 0.502378
vt 0.450163 0.501720
vt 0.157900 0.980041
vt 0.138874 0.980041
vt 0.138874 0.910034
vt 0.157900 0.910034
vt 0.358729 0.501720
vt 0.428736 0.501720
vt 0.428736 0.519778
vt 0.358729 0.519778
vt 0.539249 0.316377
vt 0.539249 0.297351
vt 0.557295 0.298008
vt 0.557295 0.317035
vt 0.997413 0.216420
vt 0.981901 0.225665
vt 0.981901 0.124808
vt 0.997413 0.115562
vt 0.617881 0.498610
vt 0.635927 0.497952
vt 0.635927 0.516979
vt 0.617881 0.517636
vt 0.981901 0.102548
vt 0.981901 0.001691
vt 0.998309 0.011323
vt 0.998309 0.112181
vt 0.957011 0.983662
vt 0.957011 0.913655
vt 0.975069 0.913655
vt 0.975069 0.983662
vt 0.997413 0.325844
vt 0.997413 0.426701
vt 0.981902 0.417456
vt 0.981902 0.316598
vt 0.397235 0.749637
vt 0.397235 0.768664
vt 0.379190 0.768006
vt 0.379190 0.748979
vt 0.116466 0.910034
vt 0.135493 0.910034
vt 0.135493 0.980041
vt 0.116466 0.980041
vt 0.421756 0.339802
vt 0.358729 0.054399
vt 0.421756 0.001691
vt 0.170833 0.558561
vt 0.212177 0.526090
vt 0.212177 0.856315
vt 0.841941 0.001691
vt 0.841941 0.331915
vt 0.800597 0.299445
vt 0.845322 0.406803
vt 0.879803 0.335296
vt 0.879803 0.662073
vt 0.880977 0.001691
vt 0.880977 0.331908
vt 0.845322 0.260979
vt 0.060297 0.820780
vt 0.101642 0.523026
vt 0.101642 0.853251
vt 0.841941 0.665521
vt 0.800597 0.367766
vt 0.841941 0.335296
vt 0.673501 0.803522
vt 0.673501 0.864040
vt 0.611631 0.833980
vt 0.925167 0.973649
vt 0.891162 0.967122
vt 0.925167 0.904863
vt 0.535868 0.297351
vt 0.535868 0.331945
vt 0.491544 0.307039
vt 0.720573 0.860075
vt 0.723807 0.674792
vt 0.723807 0.860818
vt 0.879525 0.810064
vt 0.879525 0.862324
vt 0.817493 0.837873
vt 0.365835 0.742089
vt 0.365835 0.791473
vt 0.315296 0.747634
vt 0.623631 0.528725
vt 0.625999 0.521017
vt 0.625999 0.529552
vt 0.478269 0.749050
vt 0.478269 0.757508
vt 0.475935 0.757245
vt 0.620250 0.529552
vt 0.617881 0.521844
vt 0.620250 0.521017
vt 0.535346 0.748295
vt 0.535346 0.756816
vt 0.533030 0.756429
vt 0.560039 0.320416
vt 0.560039 0.328848
vt 0.557378 0.326357
vt 0.460318 0.504115
vt 0.463057 0.501720
vt 0.463057 0.510058
vt 0.551335 0.322907
vt 0.553997 0.320416
vt 0.553997 0.328848
vt 0.453544 0.519383
vt 0.456283 0.513439
vt 0.456283 0.521777
vt 0.629967 0.485963
vt 0.632336 0.485136
vt 0.632336 0.493671
vt 0.483983 0.757508
vt 0.481650 0.749312
vt 0.483983 0.749050
vt 0.631749 0.521017
vt 0.631749 0.529552
vt 0.629380 0.528725
vt 0.491544 0.338400
vt 0.499949 0.337454
vt 0.499949 0.339802
vt 0.541911 0.328848
vt 0.539249 0.322907
vt 0.541911 0.320416
vt 0.459664 0.519383
vt 0.462404 0.513439
vt 0.462404 0.521777
vt 0.545292 0.326357
vt 0.547954 0.320416
vt 0.547954 0.328848
vt 0.453544 0.504115
vt 0.456283 0.501720
vt 0.456283 0.510058
vt 0.978520 0.609668
vt 0.978520 0.899367
vt 0.970141 0.898432
vt 0.978521 0.606287
vt 0.970141 0.317534
vt 0.978521 0.316598
vt 0.425137 0.287093
vt 0.488163 0.001691
vt 0.488163 0.339802
vt 0.600464 0.530409
vt 0.600464 0.602241
vt 0.315296 0.594490
vt 0.797216 0.001691
vt 0.797216 0.296783
vt 0.738739 0.284600
vt 0.358729 0.364237
vt 0.615456 0.343183
vt 0.615456 0.415015
vt 0.636469 0.001691
vt 0.636469 0.263419
vt 0.565009 0.008991
vt 0.957011 0.904595
vt 0.966760 0.609668
vt 0.966760 0.910274
vt 0.797216 0.300164
vt 0.797216 0.595257
vt 0.738739 0.583074
vt 0.614500 0.528803
vt 0.614500 0.739214
vt 0.610830 0.529169
vt 0.957011 0.600608
vt 0.966760 0.305682
vt 0.966760 0.606287
vt 0.978520 0.291389
vt 0.970140 0.002626
vt 0.978520 0.001691
vt 0.797216 0.598638
vt 0.797216 0.808130
vt 0.793562 0.807989
vt 0.218377 0.680478
vt 0.215710 0.530592
vt 0.218377 0.526090
vt 0.941970 0.683788
vt 0.941970 0.973488
vt 0.933590 0.972552
vt 0.561628 0.293969
vt 0.491544 0.017439
vt 0.561628 0.001691
vt 0.957011 0.007370
vt 0.966759 0.001691
vt 0.966759 0.302301
vt 0.735358 0.296783
vt 0.676882 0.013873
vt 0.735358 0.001691
vt 0.920461 0.348435
vt 0.930209 0.342756
vt 0.930209 0.643367
vt 0.735358 0.595257
vt 0.676882 0.312347
vt 0.735358 0.300164
vt 0.529649 0.797257
vt 0.490203 0.770711
vt 0.529649 0.748295
vt 0.557584 0.963648
vt 0.514844 0.944836
vt 0.526716 0.905994
vt 0.557584 0.894687
vt 0.629967 0.269667
vt 0.633699 0.266800
vt 0.633699 0.481755
vt 0.629997 0.481602
vt 0.790181 0.866334
vt 0.787178 0.864281
vt 0.787281 0.804549
vt 0.790181 0.802340
vt 0.673501 0.520752
vt 0.640251 0.530303
vt 0.639850 0.009721
vt 0.673501 0.001691
vt 0.215474 0.932036
vt 0.206953 0.932011
vt 0.206953 0.860179
vt 0.215474 0.859696
vt 0.606061 0.733452
vt 0.606061 0.854112
vt 0.603978 0.852790
vt 0.563337 0.927141
vt 0.564007 0.873604
vt 0.600464 0.903319
vt 0.600464 0.955463
vt 0.375760 0.742089
vt 0.375760 0.769559
vt 0.369216 0.769559
vt 0.369216 0.742089
vt 0.603978 0.531659
vt 0.607449 0.528803
vt 0.607449 0.729123
vt 0.603995 0.730071
vt 0.412455 0.748979
vt 0.420518 0.748979
vt 0.420518 0.776449
vt 0.412455 0.776449
vt 0.466438 0.525422
vt 0.466438 0.497952
vt 0.538779 0.497952
vt 0.538779 0.525422
vt 0.917036 0.399290
vt 0.914033 0.397237
vt 0.914137 0.337506
vt 0.917036 0.335296
vt 0.004443 0.537675
vt 0.054911 0.537075
vt 0.054911 0.794145
vt 0.001691 0.794787
vt 0.036097 0.801909
vt 0.036097 0.934565
vt 0.001720 0.930414
vt 0.001691 0.798168
vt 0.400616 0.776449
vt 0.400616 0.748979
vt 0.409074 0.748979
vt 0.409074 0.776449
vt 0.887781 0.904863
vt 0.887781 0.932332
vt 0.603845 0.932332
vt 0.603845 0.904863
vt 0.603845 0.901481
vt 0.603845 0.873604
vt 0.893549 0.873808
vt 0.893549 0.901278
vt 0.221758 0.829603
vt 0.221758 0.802134
vt 0.561962 0.802134
vt 0.561962 0.829603
vt 0.268120 0.015293
vt 0.268120 0.529197
vt 0.221758 0.524138
vt 0.223682 0.001691
vt 0.924400 0.901482
vt 0.896930 0.901481
vt 0.896930 0.837487
vt 0.924400 0.837487
vt 0.884745 0.259666
vt 0.884358 0.001691
vt 0.918498 0.002653
vt 0.918498 0.260513
vt 0.911828 0.327889
vt 0.884358 0.327889
vt 0.884358 0.263894
vt 0.911828 0.263894
vt 0.311915 0.005988
vt 0.311915 0.525963
vt 0.271501 0.522090
vt 0.271573 0.001691
vt 0.435193 0.768952
vt 0.435193 0.760889
vt 0.462663 0.760889
vt 0.462663 0.768952
vt 0.466044 0.749050
vt 0.472554 0.749050
vt 0.472554 0.776520
vt 0.466044 0.776520
vt 0.614500 0.525422
vt 0.542160 0.525422
vt 0.542160 0.497952
vt 0.614500 0.497952
vt 0.463057 0.493009
vt 0.358729 0.498339
vt 0.397368 0.418396
vt 0.463057 0.436276
vt 0.879525 0.800947
vt 0.845856 0.806683
vt 0.847099 0.674311
vt 0.879525 0.668902
vt 0.490232 0.736109
vt 0.490203 0.605622
vt 0.536433 0.612225
vt 0.536433 0.744914
vt 0.990423 0.502423
vt 0.981902 0.502398
vt 0.981902 0.430566
vt 0.990423 0.430082
vt 0.978450 0.985995
vt 0.978450 0.913655
vt 0.986971 0.914138
vt 0.986971 0.985970
vt 0.486822 0.738311
vt 0.435193 0.745669
vt 0.435278 0.613509
vt 0.486822 0.605622
vt 0.930209 0.646748
vt 0.930209 0.830774
vt 0.927020 0.829476
vt 0.218377 0.522269
vt 0.170833 0.522709
vt 0.176071 0.009160
vt 0.218377 0.001691
vt 0.622633 0.418396
vt 0.622633 0.489337
vt 0.584617 0.473426
vt 0.569229 0.422207
vt 0.786717 0.797534
vt 0.786717 0.598638
vt 0.790181 0.599125
vt 0.790181 0.798959
vt 0.990422 0.229046
vt 0.990422 0.301387
vt 0.981901 0.300903
vt 0.981901 0.229072
vt 0.108744 0.523026
vt 0.108744 0.737131
vt 0.105028 0.735967
vt 0.105023 0.523447
vt 0.930209 0.339375
vt 0.921926 0.338417
vt 0.921880 0.008194
vt 0.930209 0.001691
vt 0.221758 0.891306
vt 0.221758 0.863836
vt 0.559444 0.863836
vt 0.559444 0.891306
vt 0.945301 0.008194
vt 0.953630 0.001691
vt 0.953630 0.339355
vt 0.945346 0.338397
vt 0.559443 0.860455
vt 0.221758 0.860455
vt 0.221758 0.832985
vt 0.559443 0.832985
vt 0.279808 0.540776
vt 0.279808 0.798753
vt 0.226292 0.791108
vt 0.221758 0.532578
vt 0.215710 0.689432
vt 0.218332 0.683859
vt 0.218332 0.835241
vt 0.118985 0.541750
vt 0.163151 0.538533
vt 0.163151 0.797650
vt 0.116466 0.798808
vt 0.933590 0.673904
vt 0.933636 0.343694
vt 0.941920 0.342735
vt 0.941920 0.680407
vt 0.739900 0.855762
vt 0.738739 0.598638
vt 0.780767 0.598906
vt 0.780767 0.858128
vt 0.727188 0.676200
vt 0.730412 0.674792
vt 0.730412 0.860224
vt 0.621840 0.343183
vt 0.621840 0.407178
vt 0.618940 0.404968
vt 0.618837 0.345237
vt 0.068107 0.908023
vt 0.060297 0.856632
vt 0.108636 0.864420
vt 0.108636 0.931097
vt 0.617375 0.770065
vt 0.610830 0.770065
vt 0.610830 0.742595
vt 0.617375 0.742595
vt 0.941920 0.001691
vt 0.941920 0.339354
vt 0.933590 0.332850
vt 0.933637 0.002649
vt 0.108026 0.740512
vt 0.108026 0.804507
vt 0.105126 0.802297
vt 0.105023 0.742565
vt 0.462663 0.749050
vt 0.462663 0.757508
vt 0.435193 0.757508
vt 0.435193 0.749050
vt 0.221758 0.922564
vt 0.221758 0.894687
vt 0.511463 0.894890
vt 0.511463 0.922360
vt 0.116466 0.524143
vt 0.116850 0.001691
vt 0.167452 0.014753
vt 0.167452 0.535152
vt 0.883200 0.680423
vt 0.922859 0.671662
vt 0.922859 0.803821
vt 0.883184 0.812469
vt 0.237843 0.990815
vt 0.221758 0.961128
vt 0.237843 0.925945
vt 0.560236 0.782400
vt 0.539814 0.737087
vt 0.560236 0.697794
vt 0.203572 0.959235
vt 0.170833 0.920822
vt 0.203572 0.859696
vt 0.166898 0.871531
vt 0.154206 0.832613
vt 0.166898 0.802189
vt 0.626586 0.266800
vt 0.626586 0.333703
vt 0.586332 0.330120
vt 0.565009 0.295604
vt 0.315296 0.007079
vt 0.355348 0.001691
vt 0.355348 0.522709
vt 0.320178 0.527028
vt 0.720573 0.639481
vt 0.733893 0.598638
vt 0.733893 0.671411
vt 0.116466 0.842502
vt 0.150825 0.802189
vt 0.150825 0.906653
vt 0.561247 0.694413
vt 0.539814 0.653177
vt 0.561247 0.605622
vt 0.056358 0.980119
vt 0.039478 0.943195
vt 0.056358 0.912040
vt 0.503255 0.494571
vt 0.466438 0.418396
vt 0.565848 0.423474
vt 0.565848 0.477533
vt 0.883752 0.338775
vt 0.910652 0.335296
vt 0.910652 0.668041
vt 0.883184 0.668281
vt 0.317187 0.606344
vt 0.375808 0.605622
vt 0.375808 0.737868
vt 0.315296 0.738708
vt 0.311915 0.530243
vt 0.311915 0.792668
vt 0.284990 0.789386
vt 0.284460 0.529344
vt 0.717192 0.856499
vt 0.676882 0.861404
vt 0.678777 0.603202
vt 0.717192 0.598638
vt 0.061261 0.515593
vt 0.060297 0.001691
vt 0.113085 0.006068
vt 0.113085 0.519645
vt 0.056916 0.522709
vt 0.008769 0.533694
vt 0.001691 0.014684
vt 0.056916 0.001691
vt 0.600464 0.611001
vt 0.600464 0.870223
vt 0.566385 0.864188
vt 0.567940 0.605622
vt 0.842475 0.672450
vt 0.842475 0.802887
vt 0.801285 0.801556
vt 0.800597 0.668902
vt 0.624345 0.541035
vt 0.673501 0.533684
vt 0.673501 0.791893
vt 0.622007 0.800141
vt 0.379441 0.736108
vt 0.379190 0.605622
vt 0.431812 0.615161
vt 0.431812 0.745598
vt 0.431812 0.748979
vt 0.431812 0.776449
vt 0.425302 0.776449
vt 0.425302 0.748979
vn 0.6155 -0.5703 0.5440
vn 1.0000 0.0000 0.0000
vn 0.0000 0.7236 -0.6902
vn 0.0000 -0.7161 -0.6980
vn -1.0000 0.0000 0.0000
vn -0.6115 0.5666 0.5523
vn -0.6155 0.5703 -0.5440
vn 0.0000 0.7161 0.6980
vn 0.6115 -0.5666 -0.5523
vn 0.0000 -0.7236 0.6902
vn -1.0000 -0.0041 0.0003
vn -0.9999 -0.0066 -0.0077
vn -0.9999 -0.0100 -0.0074
vn 0.9999 -0.0100 -0.0075
vn 0.9999 -0.0066 -0.0077
vn 1.0000 -0.0042 0.0003
vn 0.9288 -0.3205 0.1857
vn -0.9336 0.3068 -0.1851
vn 1.0000 -0.0041 0.0002
vn 0.9999 -0.0100 -0.0073
vn -0.9999 -0.0099 -0.0073
vn -0.9993 -0.0094 0.0359
vn -0.9994 0.0155 0.0321
vn 0.9941 -0.0415 0.1004
vn -0.9581 -0.2664 0.1057
vn -0.9406 -0.3292 -0.0834
vn -0.9579 -0.2668 0.1058
vn 0.9961 -0.0878 -0.0115
vn 0.9966 -0.0813 -0.0101
vn 0.9963 -0.0839 -0.0162
vn 0.9943 -0.0232 0.1039
vn -0.9288 -0.1708 0.3288
vn -0.9174 0.3244 -0.2306
vn 0.9288 -0.1708 0.3288
vn 0.9174 0.3244 -0.2306
vn -0.9776 0.1085 -0.1802
vn -0.9524 0.2844 -0.1098
vn 0.9776 0.1085 -0.1802
vn 0.9524 0.2843 -0.1098
vn 0.8363 -0.4098 0.3643
vn 0.9764 0.2150 -0.0206
vn -0.9829 -0.0950 0.1579
vn -0.8203 0.5261 -0.2244
vn 0.9524 0.2844 -0.1098
vn 0.9963 -0.0570 -0.0650
vn -0.9963 -0.0570 -0.0650
vn -0.9998 0.0137 -0.0144
vn -1.0000 -0.0063 -0.0063
vn -1.0000 -0.0070 -0.0068
vn 0.9787 -0.1883 0.0820
vn -0.9788 0.1856 -0.0861
vn 0.9999 -0.0090 -0.0086
vn 0.9994 -0.0219 -0.0281
vn 0.9994 -0.0120 -0.0334
vn -0.9998 0.0136 -0.0144
vn -1.0000 -0.0063 -0.0065
vn -0.7508 0.5649 -0.3423
vn -0.8101 0.5612 -0.1696
vn -0.7502 0.5657 -0.3423
vn 0.9994 -0.0219 -0.0279
vn 0.9707 0.2402 0.0106
vn 0.9633 0.2319 -0.1353
vn 0.9631 0.2324 -0.1354
vn 0.6334 -0.7341 0.2447
vn 0.6963 -0.6660 0.2677
vn 0.6971 -0.6650 0.2681
vn -0.9999 -0.0090 -0.0086
vn -0.9994 -0.0119 -0.0335
vn -0.9994 -0.0220 -0.0279
vn 0.9998 0.0137 -0.0144
vn 1.0000 -0.0070 -0.0068
vn 1.0000 -0.0062 -0.0064
vn -0.9999 -0.0091 -0.0086
vn -0.9994 -0.0220 -0.0280
vn 1.0000 -0.0063 -0.0063
vn 0.9871 0.1590 -0.0180
vn 0.9874 0.1545 -0.0339
vn 0.9857 0.1674 -0.0220
vn -0.9992 -0.0401 -0.0022
vn 0.9178 0.2547 -0.3046
vn 0.9528 0.2304 -0.1975
vn -0.0876 0.3241 0.9420
vn -0.0804 0.3307 0.9403
vn -0.0913 0.3238 0.9417
vn -0.9735 0.2279 -0.0191
vn -0.9125 -0.3872 0.1322
vn -0.9577 -0.2678 0.1054
vn -0.9799 0.1923 -0.0524
vn -0.9981 -0.0319 -0.0531
vn 0.0000 0.9329 -0.3602
vn 0.9238 -0.2545 0.2860
vn -0.1979 -0.6812 0.7048
vn -0.0007 0.5455 0.8381
vn 0.9528 0.2304 -0.1976
vn 0.1887 0.9230 -0.3353
vn 0.1926 0.9208 -0.3393
vn 0.1939 0.9197 -0.3415
vn 0.1921 0.9202 -0.3412
vn -0.1797 0.3241 0.9288
vn -0.1876 0.3285 0.9257
vn -0.1875 0.3282 0.9258
vn 0.1961 0.9311 -0.3077
vn 0.0000 -0.6649 0.7470
vn 0.0000 -0.6650 -0.7468
vn 0.0000 0.6416 -0.7671
vn -0.0692 0.3217 -0.9443
vn -0.0675 0.3226 -0.9441
vn -0.0674 0.3232 -0.9439
vn 0.0000 0.7647 -0.6444
vn -0.1689 -0.8824 0.4392
vn -0.1685 -0.8832 0.4378
vn -0.1680 -0.8828 0.4388
vn 0.2123 -0.8750 -0.4352
vn 0.2116 -0.8749 -0.4356
vn 0.0000 -0.4610 0.8874
vn 0.0000 0.5158 -0.8567
vn 0.0000 0.7647 0.6444
vn -0.9991 0.0419 -0.0042
vn -0.9994 0.0215 -0.0261
vn -0.9988 0.0383 -0.0300
vn -0.9989 0.0415 -0.0195
vn -0.1373 -0.8877 0.4394
vn -0.1384 -0.8874 0.4398
vn -0.1373 -0.8879 0.4391
vn 0.2179 0.2865 -0.9330
vn 0.2179 0.2860 -0.9331
vn -0.9940 0.0834 0.0702
vn 0.9940 0.0834 0.0702
vn 0.1555 -0.5359 -0.8299
vn -0.6421 0.5918 -0.4873
vn -0.7497 0.5665 -0.3422
vn -0.2013 0.8371 0.5087
vn -0.1976 0.8420 0.5020
vn -0.2062 0.8407 0.5007
vn -0.9793 0.1830 -0.0861
vn -0.9238 -0.2545 0.2859
vn 0.9733 -0.1090 0.2018
vn -0.9178 0.2547 -0.3045
vn -0.9928 0.0739 0.0944
vn 0.0000 0.6178 0.7863
vn -0.0970 -0.2948 0.9506
vn -0.0965 -0.2939 0.9509
vn -0.0938 -0.2934 0.9514
vn -0.0986 -0.2915 0.9515
vn 0.9630 0.2331 -0.1352
vn 0.9632 0.2324 -0.1354
vn 0.9179 0.3037 -0.2553
vn 0.1142 0.3124 -0.9431
vn 0.1159 0.3116 -0.9431
vn 0.9928 0.0739 0.0944
vn 0.1413 0.8485 0.5099
vn 0.1396 0.8539 0.5014
vn 0.1353 0.8514 0.5068
vn 0.1299 0.8481 0.5137
vn 0.6979 -0.6642 0.2680
vn 0.6961 -0.7131 0.0834
vn -0.9528 0.2304 -0.1976
vn 0.9874 0.1545 -0.0340
vn 0.9877 0.1495 -0.0466
vn 0.9878 0.1425 -0.0623
vn 0.9884 0.1423 -0.0538
vn 0.0000 0.8150 -0.5795
vn 0.1366 -0.5413 -0.8297
vn 0.0556 -0.8930 -0.4467
vn 0.0556 -0.8932 -0.4463
vn 0.9999 -0.0108 0.0055
vn 0.9993 -0.0351 0.0164
vn 0.9999 -0.0068 0.0108
vn 0.9976 -0.0464 -0.0505
vn 0.9993 -0.0346 0.0167
vn 0.9969 -0.0666 -0.0411
vn 0.9984 -0.0453 0.0335
vn 0.9993 -0.0372 0.0029
vn 0.9987 -0.0476 0.0158
vn 0.9971 -0.0206 0.0739
vn 0.9995 -0.0258 0.0154
vn 0.9964 0.0137 0.0837
vn 0.9968 -0.0794 -0.0018
vn 0.9973 -0.0731 0.0000
vn 0.9973 -0.0735 -0.0065
vn 0.2040 -0.8760 0.4370
vn 0.2028 -0.8766 0.4364
vn 0.2045 -0.8763 0.4363
vn -0.9996 0.0278 -0.0096
vn -0.9980 -0.0078 -0.0626
vn -0.9967 -0.0177 -0.0787
vn -0.9993 0.0385 -0.0028
vn -0.9988 0.0436 -0.0210
vn -0.9989 0.0460 -0.0096
vn -0.9979 0.0528 0.0379
vn -0.9993 0.0348 -0.0169
vn -0.9977 0.0574 0.0367
vn -0.9999 0.0118 0.0061
vn -0.9993 0.0344 -0.0160
vn -0.9999 0.0014 -0.0101
vn 0.9990 -0.0309 0.0319
vn 0.9991 -0.0298 0.0312
vn 0.9992 -0.0388 0.0101
vn 0.9990 -0.0417 0.0165
vn 0.1051 0.8544 -0.5090
vn -0.2232 -0.2892 0.9309
vn -0.2202 -0.2877 0.9321
vn -0.0936 -0.9226 0.3742
vn -0.1230 -0.8877 -0.4438
vn -0.1226 -0.8878 -0.4436
vn -0.1228 -0.8880 -0.4432
vn -0.2166 0.9172 -0.3344
vn -0.2157 0.9169 -0.3359
vn -0.2244 0.9139 -0.3382
vn 0.0535 -0.2934 0.9545
vn 0.0529 -0.2899 0.9556
vn 0.0543 -0.2943 0.9542
vn 0.0244 0.3241 0.9457
vn 0.0221 0.3357 0.9417
vn 0.0165 0.3288 0.9443
vn 0.0180 0.3257 0.9453
vn -0.0547 0.8718 0.4867
vn -0.0606 0.8737 0.4827
vn -0.0408 -0.5405 -0.8404
vn -0.0408 -0.5401 -0.8406
vn 0.1224 0.9299 -0.3468
vn 0.1220 0.9293 -0.3485
g WodenLog_WodenLog_Collor_Material
usemtl Collor_Material
s off
f 11/1/1 9/2/1 13/3/1 15/4/1
f 11/5/2 12/6/2 10/7/2 9/8/2
f 6/9/3 8/10/3 4/11/3 2/12/3
f 7/13/4 3/14/4 4/15/4 8/16/4
f 2/17/5 4/18/5 3/19/5 1/20/5
f 9/21/6 10/22/6 14/23/6 13/24/6
f 6/25/2 5/26/2 7/27/2 8/28/2
f 14/29/7 10/30/7 12/31/7 16/32/7
f 1/33/8 5/34/8 6/35/8 2/36/8
f 11/37/9 15/38/9 16/39/9 12/40/9
f 15/41/5 13/42/5 14/43/5 16/44/5
f 1/45/10 3/46/10 7/47/10 5/48/10
f 49/49/2 105/50/2 47/51/2
f 106/52/11 55/53/12 58/54/13
f 65/55/14 63/56/15 59/57/16
f 68/58/17 72/59/17 76/60/17
f 82/61/18 110/62/18 112/63/18
f 85/64/19 91/65/20 114/66/15
f 100/67/21 92/68/11 98/69/12
f 23/70/22 25/71/22 33/72/22
f 25/73/23 27/74/23 33/75/23
f 28/76/24 26/77/24 34/78/24
f 80/79/25 77/80/26 79/81/27
f 20/82/28 18/83/29 34/84/30
f 26/85/31 24/86/31 34/87/31
f 35/88/32 36/89/32 37/90/32
f 39/91/33 40/92/33 41/93/33
f 43/94/34 44/95/34 45/96/34
f 48/97/35 49/98/35 50/99/35
f 52/100/36 54/101/36 53/102/36
f 56/103/37 58/104/37 57/105/37
f 60/106/38 62/107/38 61/108/38
f 64/109/39 66/110/39 65/111/39
f 69/112/40 71/113/40 70/114/40
f 74/115/41 76/116/41 75/117/41
f 78/118/42 80/119/42 79/120/42
f 81/121/43 83/122/43 82/123/43
f 86/124/38 87/125/38 88/126/38
f 89/127/44 90/128/44 91/129/44
f 94/130/36 95/131/36 96/132/36
f 99/133/37 100/134/37 101/135/37
f 109/136/45 61/137/45 62/138/45
f 93/139/46 96/140/46 95/141/46
f 102/142/5 41/143/5 38/144/5
f 49/145/2 45/146/2 105/147/2
f 93/148/47 100/149/48 96/150/49
f 68/151/50 76/152/50 71/153/50
f 82/154/51 112/155/51 80/156/51
f 109/157/52 65/158/53 59/159/54
f 51/160/55 58/161/56 54/162/49
f 83/163/57 110/164/58 82/165/59
f 84/166/52 91/167/60 85/168/54
f 51/169/46 54/170/46 52/171/46
f 72/172/61 75/173/62 76/174/63
f 71/175/64 67/176/65 68/177/66
f 84/178/45 86/179/45 88/180/45
f 102/181/5 37/182/5 41/183/5
f 93/184/67 92/185/68 100/186/69
f 109/187/70 62/188/71 65/189/72
f 51/190/73 106/191/68 58/192/74
f 84/193/70 88/194/71 91/195/75
f 30/196/76 28/197/77 34/198/78
f 33/199/79 19/200/79 21/201/79 23/202/79
f 47/203/80 46/204/80 50/205/80 49/206/80
f 64/207/81 65/208/81 62/209/81 60/210/81
f 26/211/82 28/212/82 127/213/83 122/214/84
f 81/215/85 82/216/85 80/217/85 78/218/85
f 80/219/86 112/220/27 77/221/87
f 33/222/88 31/223/88 17/224/89 19/225/89
f 57/226/90 66/227/90 64/228/90 56/229/90
f 42/230/91 105/231/91 45/232/91 44/233/91
f 78/234/92 79/235/92 69/236/92 70/237/92
f 78/238/93 70/239/93 74/240/93 81/241/93
f 89/242/94 91/243/94 88/244/94 87/245/94
f 119/246/95 118/247/96 135/248/97 136/249/98
f 134/250/99 27/251/100 25/252/101 138/253/101
f 75/254/102 83/255/102 81/256/102 74/257/102
f 103/258/103 42/259/103 44/260/103 35/261/103
f 84/262/104 93/263/104 95/264/104 86/265/104
f 46/266/105 104/267/105 40/268/105 50/269/105
f 124/270/106 32/271/107 18/272/108 120/273/107
f 60/274/109 53/275/109 56/276/109 64/277/109
f 126/278/110 133/279/111 132/280/112 115/281/112
f 87/282/109 94/283/109 99/284/109 89/285/109
f 22/286/113 125/287/114 129/288/113 20/289/113
f 44/290/115 43/291/115 36/292/115 35/293/115
f 95/294/116 94/295/116 87/296/116 86/297/116
f 43/298/117 48/299/117 39/300/117 36/301/117
f 122/302/118 124/303/119 129/304/120 116/305/121
f 132/306/122 133/307/123 23/308/122 21/309/124
f 31/310/125 135/311/125 131/312/125 17/313/126
f 39/314/127 41/315/127 37/316/127 36/317/127
f 48/318/128 43/319/128 45/320/128 49/321/128
f 131/322/129 137/323/129 19/324/129 17/325/129
f 83/326/130 111/327/59 110/328/131
f 28/329/132 30/330/132 123/331/133 127/332/134
f 33/333/135 27/334/135 29/335/135 31/336/135
f 103/337/136 35/338/136 37/339/136 102/340/136
f 74/341/137 70/342/137 71/343/137 76/344/137
f 40/345/138 104/346/138 38/347/138 41/348/138
f 57/349/139 58/350/139 55/351/139 107/352/139
f 97/353/140 113/354/140 90/355/140 101/356/140
f 98/357/139 97/358/139 101/359/139 100/360/139
f 108/361/140 66/362/140 57/363/140 107/364/140
f 133/365/141 126/366/142 128/367/143 138/368/144
f 72/369/145 73/370/146 75/371/147
f 118/372/148 130/373/149 131/374/149 135/375/149
f 63/376/150 65/377/150 66/378/150 108/379/150
f 119/380/151 136/381/152 134/382/153 117/383/154
f 71/384/155 69/385/66 67/386/156
f 99/387/157 94/388/157 96/389/157 100/390/157
f 32/391/158 30/392/159 34/393/160 18/394/161
f 90/395/90 89/396/90 99/397/90 101/398/90
f 90/399/150 113/400/150 114/401/150 91/402/150
f 56/403/157 53/404/157 54/405/157 58/406/157
f 40/407/162 39/408/162 48/409/162 50/410/162
f 109/411/104 51/412/104 52/413/104 61/414/104
f 120/415/163 18/416/163 20/417/163 129/418/163
f 21/419/164 19/420/164 137/421/165 132/422/164
f 126/423/166 115/424/167 121/425/168
f 121/426/169 130/427/170 118/428/171
f 118/429/172 119/430/173 128/431/174
f 119/432/175 117/433/176 128/434/177
f 34/435/178 24/436/179 22/437/179 20/438/180
f 22/439/181 24/440/181 116/441/182 125/442/183
f 127/443/184 123/444/185 122/445/186
f 123/446/187 124/447/188 122/448/189
f 124/449/190 120/450/191 129/451/192
f 129/452/193 125/453/194 116/454/195
f 121/455/196 118/456/197 128/457/198 126/458/199
f 73/459/200 111/460/200 83/461/200 75/462/200
f 133/463/201 138/464/202 25/465/201 23/466/201
f 79/467/203 77/468/203 67/469/203 69/470/203
f 132/471/204 137/472/205 121/473/205 115/474/206
f 32/475/207 124/476/208 123/477/209 30/478/207
f 24/479/210 26/480/210 122/481/211 116/482/212
f 117/483/213 134/484/214 138/485/215 128/486/216
f 136/487/217 29/488/218 27/489/218 134/490/218
f 130/491/219 121/492/219 137/493/219 131/494/220
f 135/495/221 31/496/222 29/497/222 136/498/222
f 61/499/116 52/500/116 53/501/116 60/502/116
