# Blender v3.0.0 OBJ File: 'aa.blend'
# www.blender.org
mtllib WodenLog_2.mtl
o WodenLog_2
v -1.037946 0.276275 0.040566
v -1.037946 0.304702 0.011402
v -1.037946 0.246658 0.009514
v -1.037946 0.275086 -0.019649
v -0.880059 0.276275 0.040566
v -0.880059 0.304702 0.011402
v -0.880059 0.246658 0.009514
v -0.880059 0.275086 -0.019649
v 1.036235 0.276275 0.040566
v 1.036235 0.304702 0.011402
v 1.036235 0.246658 0.009514
v 1.036235 0.275086 -0.019649
v 0.872447 0.276275 0.040566
v 0.872447 0.304702 0.011402
v 0.872447 0.246658 0.009514
v 0.872447 0.275086 -0.019649
v -1.112636 0.567218 -0.139644
v 1.127379 0.567218 -0.139644
v -1.112864 0.468354 -0.075958
v 1.119950 0.468320 -0.075958
v -1.112408 0.427382 0.005967
v 1.118878 0.427500 0.005924
v -1.112867 0.460269 0.072414
v 1.119953 0.468439 0.087350
v -1.112633 0.590586 0.112991
v 1.119040 0.574954 0.119885
v -1.112329 0.664195 0.086911
v 1.124594 0.648817 0.095373
v -1.095652 0.708788 0.007086
v 1.114068 0.705236 0.004793
v -1.095030 0.666176 -0.105749
v 1.115008 0.665990 -0.105674
v -1.117924 0.567320 -0.040297
v 1.131235 0.596198 0.007866
v -0.954229 0.478334 0.297116
v -0.954229 0.494470 0.305499
v -0.956323 0.480565 0.292357
v -0.956323 -0.000000 -0.320724
v -0.954229 0.599597 0.180734
v -0.954229 0.588544 0.165188
v -0.956323 0.584952 0.168469
v -0.892276 -0.000000 -0.128635
v -0.892276 0.494470 0.305499
v -0.892276 0.478334 0.297116
v -0.890181 0.480565 0.292357
v -0.892276 -0.000000 -0.327064
v -0.890181 -0.000000 -0.320724
v -0.892276 0.599597 0.180734
v -0.890181 0.584952 0.168469
v -0.892276 0.588544 0.165188
v -1.020830 0.000000 0.135844
v -1.020371 0.487956 -0.298663
v -1.020371 0.500534 -0.291090
v -1.022006 0.498902 -0.283199
v -1.022466 0.000000 0.279837
v -1.020371 0.593533 -0.180718
v -1.020371 0.598849 -0.166949
v -1.022770 0.585705 -0.180181
v -0.957241 0.000000 0.161277
v -0.958418 0.500534 -0.291090
v -0.958418 0.487956 -0.298663
v -0.956782 0.498902 -0.283199
v -0.956323 0.000000 0.279837
v -0.958418 0.593533 -0.180718
v -0.956019 0.585705 -0.180181
v -0.958418 0.598849 -0.166949
v 0.952517 -0.000000 -0.128635
v 0.954612 -0.000000 -0.135424
v 0.952517 0.478334 0.297116
v 0.952517 0.494470 0.305499
v 0.954612 0.480565 0.292357
v 0.954612 -0.000000 -0.320724
v 0.952517 -0.000000 -0.327064
v 0.952517 0.599597 0.180734
v 0.952517 0.588544 0.165188
v 0.954612 0.584952 0.168469
v 0.890564 -0.000000 -0.128635
v 0.890564 0.494470 0.305499
v 0.890564 0.478334 0.297116
v 0.888469 0.480565 0.292357
v 0.890564 0.599597 0.180734
v 0.888469 0.584952 0.168469
v 0.890564 0.588544 0.165188
v 1.019119 0.000000 0.135844
v 1.019836 0.000000 0.161277
v 1.018659 0.487956 -0.298663
v 1.018659 0.500534 -0.291090
v 1.020295 0.498902 -0.283199
v 1.018659 0.593533 -0.180718
v 1.018659 0.598849 -0.166949
v 1.021059 0.585705 -0.180181
v 0.955530 0.000000 0.161277
v 0.956247 0.000000 0.135844
v 0.956706 0.500534 -0.291090
v 0.956706 0.487956 -0.298663
v 0.955071 0.498902 -0.283199
v 0.956706 0.000000 0.303579
v 0.954612 0.000000 0.279837
v 0.956706 0.593533 -0.180718
v 0.954307 0.585705 -0.180181
v 0.956706 0.598849 -0.166949
v -0.956323 -0.000000 -0.135424
v -0.954229 -0.000000 -0.128635
v -0.954229 -0.000000 -0.327064
v -0.890181 -0.000000 -0.135424
v -1.021548 0.000000 0.161277
v -1.020371 0.000000 0.303579
v -0.958418 0.000000 0.303579
v -0.957959 0.000000 0.135844
v 0.888470 -0.000000 -0.320724
v 0.890564 -0.000000 -0.327064
v 0.888470 -0.000000 -0.135424
v 1.018659 0.000000 0.303579
v 1.020754 0.000000 0.279837
vt 0.398550 0.770912
vt 0.463837 0.770912
vt 0.463837 0.787146
vt 0.398550 0.787146
vt 0.382959 0.819018
vt 0.365854 0.819018
vt 0.365854 0.753731
vt 0.382959 0.753731
vt 0.529265 0.770912
vt 0.529265 0.787146
vt 0.466330 0.787146
vt 0.466330 0.770912
vt 0.634709 0.581261
vt 0.650932 0.580670
vt 0.650932 0.597774
vt 0.634709 0.598366
vt 0.619450 0.261783
vt 0.619450 0.278017
vt 0.556515 0.278017
vt 0.556515 0.261783
vt 0.691820 0.281100
vt 0.708043 0.280509
vt 0.708043 0.297614
vt 0.691820 0.298205
vt 0.689327 0.296743
vt 0.624040 0.296743
vt 0.624040 0.280509
vt 0.689327 0.280509
vt 0.653424 0.597774
vt 0.653424 0.580670
vt 0.669647 0.581261
vt 0.669647 0.598366
vt 0.337011 0.755641
vt 0.337011 0.818577
vt 0.319906 0.818577
vt 0.319906 0.755641
vt 0.484992 0.590049
vt 0.484992 0.572944
vt 0.501215 0.573535
vt 0.501215 0.590640
vt 0.632216 0.580670
vt 0.632216 0.597774
vt 0.566929 0.597774
vt 0.566929 0.580670
vt 0.346257 0.818577
vt 0.346257 0.755641
vt 0.363362 0.755641
vt 0.363362 0.818577
vt 0.494870 0.305204
vt 0.438210 0.048631
vt 0.494870 0.001246
vt 0.720536 0.336887
vt 0.757704 0.307696
vt 0.757704 0.604564
vt 0.435718 0.307696
vt 0.435718 0.604564
vt 0.398550 0.575374
vt 0.497363 0.048631
vt 0.554022 0.001246
vt 0.554022 0.305204
vt 0.376566 0.001246
vt 0.376566 0.305204
vt 0.319906 0.257820
vt 0.733683 0.268923
vt 0.770851 0.001246
vt 0.770851 0.298114
vt 0.718043 0.604564
vt 0.680875 0.336887
vt 0.718043 0.307696
vt 0.811786 0.298955
vt 0.811828 0.002107
vt 0.819274 0.001246
vt 0.819274 0.304802
vt 0.336606 0.646102
vt 0.383519 0.635581
vt 0.383519 0.683713
vt 0.319906 0.679173
vt 0.717104 0.661431
vt 0.717104 0.715836
vt 0.661483 0.688813
vt 0.341158 0.757628
vt 0.343765 0.755641
vt 0.343765 0.813172
vt 0.341065 0.811326
vt 0.564437 0.566646
vt 0.564437 0.597774
vt 0.503707 0.578302
vt 0.478057 0.572944
vt 0.478057 0.604044
vt 0.438210 0.581653
vt 0.844886 0.001684
vt 0.844886 0.181334
vt 0.841773 0.180053
vt 0.841773 0.001246
vt 0.717250 0.718329
vt 0.717250 0.765310
vt 0.661483 0.743329
vt 0.393451 0.703504
vt 0.393358 0.649806
vt 0.396058 0.647960
vt 0.396058 0.705490
vt 0.756405 0.649592
vt 0.789942 0.620501
vt 0.789942 0.680646
vt 0.388398 0.665053
vt 0.390527 0.658124
vt 0.390527 0.665797
vt 0.708963 0.624881
vt 0.706881 0.617568
vt 0.708963 0.617221
vt 0.390527 0.675962
vt 0.388398 0.669033
vt 0.390527 0.668289
vt 0.712633 0.298265
vt 0.710535 0.290898
vt 0.712633 0.290661
vt 0.385905 0.610483
vt 0.385905 0.618063
vt 0.383513 0.615823
vt 0.383443 0.582587
vt 0.385905 0.580434
vt 0.385905 0.587930
vt 0.383513 0.622795
vt 0.385905 0.620555
vt 0.385905 0.628135
vt 0.489947 0.598475
vt 0.492409 0.593132
vt 0.492409 0.600628
vt 0.706881 0.607800
vt 0.709010 0.607056
vt 0.709010 0.614729
vt 0.570752 0.576734
vt 0.578308 0.575473
vt 0.578308 0.577584
vt 0.390527 0.647960
vt 0.390527 0.655632
vt 0.388398 0.654889
vt 0.712617 0.288169
vt 0.710535 0.280856
vt 0.712617 0.280509
vt 0.497295 0.600712
vt 0.494902 0.595371
vt 0.497295 0.593132
vt 0.484992 0.598475
vt 0.487455 0.593132
vt 0.487455 0.600628
vt 0.383513 0.605751
vt 0.385905 0.600410
vt 0.385905 0.607991
vt 0.383443 0.592575
vt 0.385905 0.590422
vt 0.385905 0.597918
vt 0.839280 0.001246
vt 0.839280 0.261682
vt 0.831747 0.260841
vt 0.807402 0.840856
vt 0.799869 0.581270
vt 0.807402 0.580429
vt 0.379058 0.257820
vt 0.435718 0.001246
vt 0.435718 0.305204
vt 0.556515 0.003001
vt 0.621067 0.001246
vt 0.621067 0.257703
vt 0.319906 0.686206
vt 0.363362 0.693207
vt 0.363362 0.753149
vt 0.326927 0.732406
vt 0.761451 0.800692
vt 0.761451 0.743162
vt 0.786146 0.743162
vt 0.786146 0.800692
vt 0.623321 0.307696
vt 0.623321 0.572981
vt 0.570752 0.562029
vt 0.568259 0.564153
vt 0.503707 0.309451
vt 0.568259 0.307696
vt 0.784891 0.613535
vt 0.760196 0.613535
vt 0.760196 0.307696
vt 0.784891 0.307696
vt 0.798038 0.304822
vt 0.773343 0.304822
vt 0.773343 0.001246
vt 0.798038 0.001246
vt 0.398550 0.661431
vt 0.658991 0.661614
vt 0.658991 0.686309
vt 0.398550 0.686492
vt 0.651227 0.305204
vt 0.651227 0.299321
vt 0.675923 0.299321
vt 0.675923 0.305204
vt 0.621548 0.305204
vt 0.556515 0.305204
vt 0.556515 0.280509
vt 0.621548 0.280509
vt 0.283793 0.001246
vt 0.283793 0.891248
vt 0.247323 0.890821
vt 0.247280 0.001428
vt 0.398550 0.607056
vt 0.704389 0.607056
vt 0.704389 0.631751
vt 0.398550 0.631751
vt 0.501215 0.307696
vt 0.501215 0.570452
vt 0.438210 0.321854
vt 0.800530 0.266381
vt 0.809294 0.001246
vt 0.809294 0.271487
vt 0.649130 0.277662
vt 0.649130 0.270413
vt 0.673825 0.270413
vt 0.673825 0.277662
vt 0.398550 0.743725
vt 0.653805 0.743725
vt 0.653805 0.768420
vt 0.398550 0.768420
vt 0.011254 0.891170
vt 0.001246 0.001638
vt 0.055650 0.001246
vt 0.055650 0.891292
vt 0.676129 0.001246
vt 0.676129 0.266531
vt 0.623559 0.255579
vt 0.398550 0.634244
vt 0.702126 0.634244
vt 0.702126 0.658939
vt 0.398550 0.658939
vt 0.712222 0.634244
vt 0.712222 0.658939
vt 0.704619 0.658939
vt 0.704619 0.634244
vt 0.106220 0.882181
vt 0.058142 0.882429
vt 0.059489 0.001620
vt 0.106220 0.001246
vt 0.678383 0.575474
vt 0.678383 0.600169
vt 0.672531 0.600169
vt 0.672531 0.575474
vt 0.398550 0.716538
vt 0.653806 0.716537
vt 0.653806 0.741232
vt 0.398550 0.741232
vt 0.624040 0.299321
vt 0.648735 0.299321
vt 0.648735 0.305204
vt 0.624040 0.305204
vt 0.286286 0.001246
vt 0.317414 0.001363
vt 0.317414 0.890943
vt 0.286376 0.892921
vt 0.244788 0.001246
vt 0.244788 0.894126
vt 0.203092 0.887108
vt 0.203153 0.006177
vt 0.676317 0.270413
vt 0.701012 0.270413
vt 0.701012 0.277662
vt 0.676317 0.277662
vt 0.661483 0.768237
vt 0.669143 0.767802
vt 0.669143 0.832836
vt 0.661483 0.832813
vt 0.388398 0.645033
vt 0.388398 0.580457
vt 0.396058 0.580434
vt 0.396058 0.645468
vt 0.164109 0.007651
vt 0.200600 0.001246
vt 0.200600 0.892927
vt 0.158092 0.888442
vt 0.819087 0.613756
vt 0.819087 0.806235
vt 0.815746 0.805189
vt 0.815742 0.614135
vt 0.998754 0.897996
vt 0.998754 0.927549
vt 0.109365 0.933044
vt 0.108712 0.896719
vt 0.339075 0.629867
vt 0.319906 0.598838
vt 0.375263 0.572944
vt 0.375263 0.633089
vt 0.843002 0.487782
vt 0.839897 0.488635
vt 0.839881 0.310264
vt 0.843002 0.307696
vt 0.385451 0.754166
vt 0.393111 0.753731
vt 0.393111 0.818764
vt 0.385451 0.818742
vt 0.796147 0.773676
vt 0.792818 0.773538
vt 0.792792 0.583010
vt 0.796147 0.580433
vt 0.798639 0.572831
vt 0.807402 0.307696
vt 0.807402 0.577937
vt 0.848608 0.308134
vt 0.848608 0.487782
vt 0.845495 0.486502
vt 0.845495 0.307696
vt 0.390549 0.751239
vt 0.365854 0.751239
vt 0.365854 0.686206
vt 0.390549 0.686206
vt 0.837389 0.568132
vt 0.829856 0.308538
vt 0.837389 0.307696
vt 0.753913 0.633770
vt 0.753913 0.680646
vt 0.720536 0.655185
vt 0.721139 0.607056
vt 0.817383 0.611264
vt 0.809937 0.610403
vt 0.809895 0.313544
vt 0.817383 0.307696
vt 0.398550 0.713862
vt 0.398550 0.689167
vt 0.658991 0.688984
vt 0.658991 0.714045
vt 0.829255 0.001246
vt 0.829255 0.304809
vt 0.821767 0.298962
vt 0.821808 0.002107
vt 0.679296 0.768237
vt 0.679296 0.832813
vt 0.671636 0.832836
vt 0.671636 0.767802
vt 0.809895 0.616333
vt 0.813249 0.613756
vt 0.813249 0.806996
vt 0.809921 0.806858
vt 0.821584 0.805188
vt 0.821580 0.614135
vt 0.824925 0.613756
vt 0.824925 0.806234
vt 0.108712 0.891265
vt 0.108723 0.001246
vt 0.155600 0.001337
vt 0.155600 0.894226
vt 0.843002 0.671210
vt 0.839897 0.672063
vt 0.839881 0.493695
vt 0.843002 0.491127
vt 0.837389 0.570624
vt 0.837389 0.831060
vt 0.829856 0.830219
vt 0.377848 0.628488
vt 0.377755 0.574790
vt 0.380455 0.572944
vt 0.380455 0.630474
vt 0.731209 0.693304
vt 0.758959 0.683139
vt 0.758959 0.745134
vt 0.720536 0.728222
vt 0.761451 0.740669
vt 0.761451 0.683139
vt 0.786146 0.683139
vt 0.786146 0.740669
vt 0.819876 0.313543
vt 0.827363 0.307696
vt 0.827363 0.611260
vt 0.819916 0.610399
vt 0.681881 0.769789
vt 0.684488 0.767802
vt 0.684488 0.825333
vt 0.681788 0.823487
vt 0.382911 0.570452
vt 0.319906 0.321854
vt 0.382911 0.307696
vt 0.646637 0.270413
vt 0.646637 0.278017
vt 0.621942 0.278017
vt 0.621942 0.270413
vt 0.787383 0.312802
vt 0.796147 0.307696
vt 0.796147 0.577941
vt 0.731190 0.266531
vt 0.678621 0.012198
vt 0.731190 0.001246
vt 0.387295 0.312802
vt 0.396058 0.307696
vt 0.396058 0.577942
vt 0.678383 0.572981
vt 0.625814 0.318648
vt 0.678383 0.307696
vt 0.757053 0.747626
vt 0.757053 0.790370
vt 0.720536 0.772200
vt 0.728199 0.271810
vt 0.728199 0.277662
vt 0.703504 0.277662
vt 0.703504 0.271810
vn 0.0000 0.7161 0.6980
vn 0.0000 0.7236 -0.6902
vn 1.0000 0.0000 0.0000
vn 0.0000 -0.7161 -0.6980
vn -1.0000 0.0000 0.0000
vn 0.0000 -0.7236 0.6902
vn -1.0000 -0.0041 0.0003
vn -0.9999 -0.0066 -0.0077
vn -0.9999 -0.0100 -0.0074
vn 1.0000 -0.0043 -0.0035
vn 0.9999 -0.0066 -0.0077
vn 1.0000 -0.0042 0.0003
vn 1.0000 -0.0041 0.0002
vn 1.0000 -0.0044 -0.0034
vn -0.9999 -0.0100 -0.0073
vn 0.9928 0.0739 0.0944
vn -0.9793 0.1830 -0.0861
vn -0.9993 -0.0094 0.0359
vn 0.9528 0.2304 -0.1976
vn -0.9994 0.0155 0.0321
vn 0.9941 -0.0415 0.1004
vn -0.9238 -0.2545 0.2860
vn 0.9961 -0.0878 -0.0115
vn 0.9966 -0.0813 -0.0101
vn 0.9963 -0.0839 -0.0161
vn -0.9528 0.2304 -0.1976
vn 0.9943 -0.0232 0.1039
vn -0.9288 -0.1708 0.3288
vn -0.9174 0.3244 -0.2306
vn 0.9288 -0.1708 0.3288
vn 0.9174 0.3244 -0.2306
vn -0.9776 0.1085 -0.1802
vn -0.9524 0.2844 -0.1098
vn 0.9776 0.1085 -0.1802
vn 0.9524 0.2843 -0.1098
vn 0.9288 -0.1708 0.3287
vn 0.9524 0.2844 -0.1098
vn 0.9963 -0.0570 -0.0650
vn -0.9963 -0.0570 -0.0650
vn 0.9877 0.1495 -0.0466
vn 0.9878 0.1425 -0.0622
vn 0.9884 0.1423 -0.0538
vn 0.9874 0.1545 -0.0339
vn 0.0000 0.7647 -0.6444
vn -0.9998 0.0137 -0.0144
vn -1.0000 -0.0063 -0.0064
vn -1.0000 -0.0070 -0.0068
vn 0.0000 0.6416 -0.7671
vn 0.0000 0.6178 0.7863
vn 0.0000 -0.6650 -0.7468
vn 0.0000 0.9329 -0.3602
vn 0.0000 0.7647 0.6444
vn 0.0000 -0.8947 -0.4467
vn -0.0000 -0.8949 -0.4462
vn -0.0000 -0.8950 -0.4461
vn 0.0000 -0.8943 -0.4474
vn 1.0000 -0.0070 -0.0068
vn 0.9996 -0.0168 -0.0237
vn 0.9994 -0.0120 -0.0334
vn 0.0000 -0.4610 0.8874
vn 0.0000 -0.6649 0.7470
vn -0.0052 -0.2950 0.9555
vn -0.9998 0.0136 -0.0144
vn -1.0000 -0.0062 -0.0064
vn 0.0000 0.8150 -0.5795
vn 0.0006 0.9389 -0.3442
vn 0.0000 0.5158 -0.8567
vn -0.0010 0.3245 0.9459
vn 0.0000 0.3249 -0.9457
vn 0.0000 0.3241 -0.9460
vn 0.0000 0.3246 -0.9458
vn -0.9940 0.0834 0.0702
vn 0.9940 0.0834 0.0702
vn 0.0030 0.8602 0.5100
vn -0.9178 0.2547 -0.3046
vn -0.9180 0.2545 -0.3042
vn -0.9176 0.2550 -0.3049
vn 0.0002 -0.8947 0.4467
vn 0.9973 -0.0731 0.0000
vn 0.9973 -0.0735 -0.0065
vn 0.9968 -0.0794 -0.0018
vn 0.9238 -0.2546 0.2860
vn 0.9236 -0.2548 0.2863
vn 0.9176 0.2550 -0.3049
vn 0.9178 0.2547 -0.3046
vn 0.9180 0.2544 -0.3042
vn 0.9996 -0.0169 -0.0236
vn -0.9238 -0.2545 0.2859
vn -0.9981 -0.0319 -0.0531
vn -0.9799 0.1923 -0.0524
vn -0.9928 0.0739 0.0944
vn 0.9940 0.0833 0.0702
vn 0.9178 0.2547 -0.3045
vn 0.9180 0.2545 -0.3043
vn -0.9178 0.2547 -0.3045
vn -0.0000 -0.5415 -0.8407
vn 0.9238 -0.2545 0.2859
vn 0.9237 -0.2547 0.2862
vn -0.9992 -0.0401 -0.0022
vn 0.9528 0.2304 -0.1975
vn -0.9999 -0.0090 -0.0086
vn -0.9994 -0.0119 -0.0335
vn -0.9994 -0.0220 -0.0279
vn 1.0000 -0.0066 -0.0074
vn -0.9999 -0.0091 -0.0086
vn -0.9994 -0.0220 -0.0280
vn 1.0000 -0.0067 -0.0072
vn 0.9871 0.1591 -0.0180
vn 0.9857 0.1673 -0.0221
g WodenLog_2_WodenLog_2_Collor_Material
usemtl Collor_Material
s off
f 10/1/1 14/2/1 13/3/1 9/4/1
f 10/5/2 12/6/2 16/7/2 14/8/2
f 5/9/1 6/10/1 2/11/1 1/12/1
f 7/13/3 8/14/3 6/15/3 5/16/3
f 3/17/4 4/18/4 8/19/4 7/20/4
f 10/21/3 9/22/3 11/23/3 12/24/3
f 16/25/4 12/26/4 11/27/4 15/28/4
f 14/29/5 16/30/5 15/31/5 13/32/5
f 3/33/6 7/34/6 5/35/6 1/36/6
f 3/37/5 1/38/5 2/39/5 4/40/5
f 13/41/6 15/42/6 11/43/6 9/44/6
f 8/45/2 4/46/2 2/47/2 6/48/2
f 49/49/3 105/50/3 47/51/3
f 106/52/7 55/53/8 58/54/9
f 65/55/10 63/56/11 59/57/12
f 68/58/3 72/59/3 76/60/3
f 82/61/5 110/62/5 112/63/5
f 85/64/13 91/65/14 114/66/11
f 100/67/15 92/68/7 98/69/8
f 114/70/16 91/71/16 90/72/16 113/73/16
f 29/74/17 31/75/17 33/76/17 27/77/17
f 23/78/18 25/79/18 33/80/18
f 88/81/19 87/82/19 89/83/19 91/84/19
f 25/85/20 27/86/20 33/87/20
f 28/88/21 26/89/21 34/90/21
f 80/91/22 112/92/22 77/93/22 79/94/22
f 20/95/23 18/96/24 34/97/25
f 96/98/26 100/99/26 99/100/26 94/101/26
f 26/102/27 24/103/27 34/104/27
f 35/105/28 36/106/28 37/107/28
f 39/108/29 40/109/29 41/110/29
f 43/111/30 44/112/30 45/113/30
f 48/114/31 49/115/31 50/116/31
f 52/117/32 54/118/32 53/119/32
f 56/120/33 58/121/33 57/122/33
f 60/123/34 62/124/34 61/125/34
f 64/126/35 66/127/35 65/128/35
f 69/129/36 71/130/36 70/131/36
f 74/132/31 76/133/31 75/134/31
f 78/135/28 80/136/28 79/137/28
f 81/138/29 83/139/29 82/140/29
f 86/141/34 87/142/34 88/143/34
f 89/144/37 90/145/37 91/146/37
f 94/147/32 95/148/32 96/149/32
f 99/150/33 100/151/33 101/152/33
f 109/153/38 61/154/38 62/155/38
f 93/156/39 96/157/39 95/158/39
f 102/159/5 41/160/5 38/161/5
f 49/162/3 45/163/3 105/164/3
f 30/165/40 34/166/41 18/167/42 32/168/43
f 94/169/44 99/170/44 89/171/44 87/172/44
f 93/173/45 100/174/46 96/175/47
f 68/176/3 76/177/3 71/178/3
f 83/179/48 75/180/48 73/181/48 111/182/48
f 66/183/49 57/184/49 107/185/49 108/186/49
f 93/187/50 95/188/50 86/189/50 84/190/50
f 66/191/51 64/192/51 56/193/51 57/194/51
f 70/195/52 74/196/52 81/197/52 78/198/52
f 19/199/53 20/200/54 22/201/55 21/202/56
f 104/203/48 40/204/48 50/205/48 46/206/48
f 82/207/5 112/208/5 80/209/5
f 109/210/57 65/211/58 59/212/59
f 69/213/60 70/214/60 78/215/60 79/216/60
f 42/217/61 44/218/61 35/219/61 103/220/61
f 26/221/62 25/222/62 23/223/62 24/224/62
f 51/225/63 58/226/64 54/227/47
f 113/228/49 90/229/49 101/230/49 97/231/49
f 39/232/65 48/233/65 50/234/65 40/235/65
f 31/236/66 29/237/66 30/238/66 32/239/66
f 94/240/67 87/241/67 86/242/67 95/243/67
f 67/244/61 69/245/61 79/246/61 77/247/61
f 89/248/51 99/249/51 101/250/51 90/251/51
f 27/252/68 25/253/68 26/254/68 28/255/68
f 18/256/69 17/257/70 31/258/71 32/259/71
f 43/260/60 36/261/60 35/262/60 44/263/60
f 80/264/72 78/265/72 81/266/72 82/267/72
f 45/268/73 49/269/73 48/270/73 43/271/73
f 29/272/74 27/273/74 28/274/74 30/275/74
f 83/276/75 111/277/76 110/278/76 82/279/77
f 23/280/78 21/281/78 22/282/78 24/283/78
f 22/284/79 20/285/80 34/286/81 24/287/79
f 45/288/82 44/289/83 42/290/82 105/291/82
f 37/292/72 36/293/72 39/294/72 41/295/72
f 50/296/84 49/297/85 47/298/86 46/299/85
f 84/300/57 91/301/87 85/302/59
f 37/303/88 102/304/88 103/305/88 35/306/88
f 48/307/52 39/308/52 36/309/52 43/310/52
f 51/311/39 54/312/39 52/313/39
f 17/314/89 19/315/89 33/316/90 31/317/90
f 101/318/91 100/319/91 98/320/91 97/321/91
f 52/322/50 61/323/50 109/324/50 51/325/50
f 66/326/16 108/327/16 63/328/16 65/329/16
f 71/330/92 76/331/92 74/332/92 70/333/92
f 72/334/93 73/335/94 75/336/93 76/337/93
f 38/338/95 41/339/95 40/340/95 104/341/95
f 20/342/96 19/343/96 17/344/96 18/345/96
f 71/346/97 69/347/98 67/348/97 68/349/97
f 84/350/38 86/351/38 88/352/38
f 54/353/26 58/354/26 56/355/26 53/356/26
f 21/357/99 23/358/99 33/359/99 19/360/99
f 53/361/44 56/362/44 64/363/44 60/364/44
f 55/365/91 107/366/91 57/367/91 58/368/91
f 62/369/100 60/370/100 64/371/100 65/372/100
f 102/373/5 37/374/5 41/375/5
f 83/376/65 81/377/65 74/378/65 75/379/65
f 93/380/101 92/381/102 100/382/103
f 109/383/57 62/384/57 65/385/104
f 51/386/105 106/387/102 58/388/106
f 84/389/57 88/390/57 91/391/107
f 30/392/108 28/393/43 34/394/109
f 52/395/67 53/396/67 60/397/67 61/398/67
