# Blender v3.0.0 OBJ File: 'aa.blend'
# www.blender.org
mtllib Wooden_Box.mtl
o Wooden_Box
v -0.222933 0.055734 0.256150
v -0.222933 0.501600 0.256150
v 0.222933 0.501600 0.256150
v 0.222933 0.055734 0.256150
v -0.256150 0.055733 -0.222933
v -0.256150 0.055734 0.222933
v -0.256150 0.501600 0.222933
v -0.256150 0.501599 -0.222934
v -0.222933 0.501599 -0.256151
v -0.222933 0.055733 -0.256150
v 0.222933 0.055733 -0.256150
v 0.222933 0.501599 -0.256151
v -0.222933 0.204356 0.256150
v -0.222933 0.352978 0.256150
v 0.222933 0.204356 0.256150
v 0.222933 0.352978 0.256150
v -0.256150 0.352978 0.222933
v -0.256150 0.352977 -0.222934
v -0.222933 0.204355 -0.256151
v 0.222933 0.352977 -0.256151
v 0.222933 0.204355 -0.256151
v -0.222933 0.352977 -0.256151
v -0.074311 0.534817 0.222933
v -0.237840 0.055734 0.256150
v -0.237840 0.501600 0.256150
v 0.237840 0.501600 0.256150
v 0.237840 0.055734 0.256150
v -0.222933 0.534817 0.222933
v -0.222933 0.534817 -0.222934
v 0.222933 0.534817 -0.222934
v 0.222933 0.534817 0.222933
v 0.256150 0.501599 -0.222934
v 0.256150 0.055733 -0.222933
v 0.256150 0.055734 0.222933
v 0.256150 0.501600 0.222933
v -0.237840 0.501599 -0.256151
v -0.237840 0.055733 -0.256150
v 0.237840 0.055733 -0.256150
v 0.237840 0.501599 -0.256151
v -0.222933 0.022516 -0.222933
v -0.222933 0.022516 0.222933
v 0.222933 0.022516 -0.222933
v 0.222933 0.022516 0.222933
v 0.256150 0.204355 -0.222933
v 0.256150 0.352978 0.222933
v 0.256150 0.204356 0.222933
v 0.256150 0.352977 -0.222934
v -0.237840 0.352978 0.256150
v 0.237840 0.204356 0.256150
v -0.237840 0.204356 0.256150
v 0.237840 0.352978 0.256150
v -0.256150 0.204355 -0.222933
v -0.256150 0.204356 0.222933
v -0.237840 0.352977 -0.256151
v 0.237840 0.352977 -0.256151
v 0.237840 0.204355 -0.256151
v -0.237840 0.204355 -0.256151
v -0.074311 0.022516 -0.222933
v -0.074311 0.022516 0.222933
v 0.074311 0.534817 0.222933
v 0.074311 0.534817 -0.222934
v -0.074311 0.534817 -0.222934
v 0.074311 0.022516 -0.222933
v 0.074311 0.022516 0.222933
v -0.268063 0.357752 0.227986
v -0.268063 0.491208 0.227985
v -0.268063 0.491207 -0.227986
v -0.268063 0.357751 -0.227986
v -0.230702 0.357751 -0.268063
v -0.230702 0.491207 -0.268063
v 0.230702 0.491207 -0.268063
v 0.230702 0.357751 -0.268063
v 0.268063 0.357751 -0.227986
v 0.268063 0.491207 -0.227986
v 0.268063 0.491208 0.227985
v 0.268063 0.357752 0.227986
v 0.226752 0.357752 0.268062
v 0.226752 0.491208 0.268062
v -0.226752 0.491208 0.268062
v -0.226752 0.357752 0.268062
v 0.079085 0.010604 -0.227986
v 0.212541 0.010604 -0.227986
v 0.212541 0.010604 0.227986
v 0.079085 0.010604 0.227986
v -0.079085 0.546729 -0.227986
v -0.212541 0.546729 -0.227986
v -0.212541 0.546729 0.227985
v -0.079085 0.546729 0.227985
v 0.268063 0.066125 -0.227986
v 0.268063 0.199581 -0.227986
v 0.268063 0.199582 0.227986
v 0.268063 0.066126 0.227986
v 0.268063 0.211938 -0.227986
v 0.268063 0.345394 -0.227986
v 0.268063 0.345395 0.227986
v 0.268063 0.211939 0.227986
v 0.226752 0.066126 0.268062
v 0.226752 0.199582 0.268062
v -0.226752 0.199582 0.268062
v -0.226752 0.066126 0.268062
v 0.226752 0.211939 0.268062
v 0.226752 0.345395 0.268062
v -0.226752 0.345395 0.268062
v -0.226752 0.211939 0.268062
v -0.268063 0.066126 0.227986
v -0.268063 0.199582 0.227986
v -0.268063 0.199581 -0.227986
v -0.268063 0.066125 -0.227986
v -0.268063 0.211939 0.227986
v -0.268063 0.345395 0.227986
v -0.268063 0.345394 -0.227986
v -0.268063 0.211938 -0.227986
v -0.230702 0.066125 -0.268063
v -0.230702 0.199581 -0.268063
v 0.230702 0.199581 -0.268063
v 0.230702 0.066125 -0.268063
v -0.230702 0.211938 -0.268063
v -0.230702 0.345394 -0.268063
v 0.230702 0.345394 -0.268063
v 0.230702 0.211938 -0.268063
v -0.212541 0.010604 -0.227986
v -0.079085 0.010604 -0.227986
v -0.079085 0.010604 0.227986
v -0.212541 0.010604 0.227986
v -0.066728 0.010604 -0.227986
v 0.066728 0.010604 -0.227986
v 0.066728 0.010604 0.227986
v -0.066728 0.010604 0.227986
v 0.212541 0.546729 -0.227986
v 0.079085 0.546729 -0.227986
v 0.079085 0.546729 0.227985
v 0.212541 0.546729 0.227985
v 0.066728 0.546729 -0.227986
v -0.066728 0.546729 -0.227986
v -0.066728 0.546729 0.227985
v 0.066728 0.546729 0.227985
v 0.074311 0.534817 0.101953
v -0.074311 0.534817 0.101953
v -0.066728 0.546729 0.104264
v 0.046171 0.546729 0.104264
v -0.222933 0.534817 -0.103657
v -0.074311 0.534817 -0.103657
v -0.194866 0.546729 -0.106006
v -0.079085 0.546729 -0.106006
v 0.256150 0.204356 0.116816
v 0.256150 0.352978 0.116816
v 0.268063 0.327005 0.119463
v 0.268063 0.221985 -0.074244
v 0.256150 0.055733 -0.087096
v 0.256150 0.204355 -0.087096
v 0.268063 0.180926 -0.089070
v 0.268063 0.066126 -0.089070
v 0.068082 0.501599 -0.256151
v 0.068082 0.352977 -0.256151
v 0.066039 0.491207 -0.268063
v 0.066039 0.367484 -0.268063
v -0.132105 0.055733 -0.256150
v -0.132105 0.204355 -0.256151
v -0.128140 0.175153 -0.268063
v -0.128140 0.066125 -0.268063
v -0.256150 0.501600 -0.092820
v -0.256150 0.352977 -0.092820
v -0.268063 0.491207 -0.094924
v -0.268063 0.373617 -0.094924
v -0.256150 0.204355 0.057085
v -0.256150 0.352978 0.057085
v -0.268063 0.333454 0.058378
v -0.268063 0.211939 0.058378
v -0.256150 0.055733 -0.119355
v -0.256150 0.204355 -0.119355
v -0.268063 0.187262 -0.122060
v -0.268063 0.066125 -0.122060
v -0.081828 0.501600 0.256150
v -0.081828 0.352978 0.256150
v -0.078014 0.491208 0.268062
v -0.078014 0.372706 0.268062
v 0.119007 0.204356 0.256150
v 0.119007 0.352978 0.256150
v 0.026388 0.336423 0.268062
v 0.113460 0.229009 0.268062
v 0.000000 0.055734 0.256150
v 0.000000 0.204356 0.256150
v 0.000000 0.181820 0.268062
v 0.000000 0.066126 0.268062
v 0.222933 0.534817 -0.041392
v 0.074311 0.534817 -0.041392
v 0.089039 0.546729 0.011702
v 0.194691 0.546729 -0.042330
v 0.195903 0.544465 0.269477
v 0.238903 0.500843 0.279476
v -0.251297 0.104729 0.279476
v -0.228363 0.040089 0.279476
v 0.199970 0.549387 0.266619
v 0.243882 0.504838 0.266619
v -0.212814 0.032140 0.266619
v -0.256726 0.098152 0.266619
v -0.256726 0.098152 -0.264437
v -0.212814 0.032140 -0.264437
v 0.243882 0.504838 -0.264437
v 0.199970 0.549387 -0.264437
v -0.208298 0.040088 -0.277293
v -0.251297 0.104728 -0.277294
v 0.238903 0.500842 -0.277294
v 0.195903 0.544465 -0.277294
v -0.220011 0.498678 0.287188
v -0.287188 0.058655 -0.220011
v -0.220011 0.565854 -0.220012
v 0.220011 0.058655 0.287188
v 0.220011 0.498678 0.287188
v 0.287188 0.058655 -0.220011
v 0.220011 0.565854 -0.220012
v -0.287188 0.058655 0.220011
v -0.220011 0.565855 0.220011
v 0.220011 0.565855 0.220011
v 0.287188 0.058655 0.220011
v -0.287188 0.498677 -0.220012
v 0.287188 0.498677 -0.220012
v 0.287188 0.498678 0.220011
v 0.220011 0.498677 -0.287189
v 0.220011 0.058655 -0.287188
v 0.220011 -0.008521 0.220011
v -0.220011 0.058655 -0.287188
v -0.220011 -0.008521 0.220011
v -0.284131 0.562798 0.284131
v -0.220011 0.498677 -0.287189
v -0.220011 -0.008522 -0.220011
v 0.220011 -0.008522 -0.220011
v -0.284131 -0.005464 0.284131
v 0.284131 -0.005465 -0.284131
v -0.216227 0.062440 0.255943
v -0.216227 0.494893 0.255942
v 0.216227 0.494893 0.255942
v 0.216227 0.062440 0.255943
v -0.216227 0.534610 0.216226
v -0.216227 0.534609 -0.216227
v 0.216227 0.534609 -0.216227
v 0.216227 0.534610 0.216226
v 0.255943 0.494893 -0.216227
v 0.255943 0.062440 -0.216227
v 0.255943 0.062440 0.216226
v 0.255943 0.494893 0.216226
v -0.255943 0.062440 -0.216227
v -0.255943 0.062440 0.216226
v -0.255943 0.494893 0.216226
v -0.255943 0.494893 -0.216227
v -0.216227 0.494893 -0.255944
v -0.216227 0.062440 -0.255943
v 0.216227 0.062440 -0.255943
v 0.216227 0.494893 -0.255944
v -0.216227 0.022723 -0.216227
v -0.216227 0.022724 0.216227
v 0.216227 0.022723 -0.216227
v 0.216227 0.022724 0.216227
v 0.277686 0.357337 -0.224342
v 0.210509 0.357337 -0.291519
v 0.246441 0.355549 -0.220557
v 0.206724 0.355549 -0.260274
v -0.275923 0.182564 -0.224829
v -0.215770 0.182564 -0.284981
v -0.247945 0.184065 -0.221440
v -0.212381 0.184065 -0.257003
v -0.284714 0.278667 0.271901
v -0.220011 0.278667 0.287188
v -0.216227 0.278667 0.255943
v -0.255943 0.278667 0.216226
v 0.098532 0.556386 0.284436
v 0.078057 0.498678 0.287188
v 0.100817 0.564354 0.230220
v 0.076715 0.494893 0.255942
v 0.076715 0.534610 0.216226
v 0.080895 0.552126 -0.222912
v 0.080895 0.491096 -0.283942
v 0.079646 0.523740 -0.219474
v 0.079646 0.487658 -0.255556
v 0.142717 -0.001207 0.284131
v 0.110510 -0.004264 0.220011
v 0.108609 0.066698 0.255943
v 0.108609 0.026981 0.216226
v 0.271633 0.550300 -0.284728
v 0.272359 0.561928 -0.283940
v 0.275788 0.563195 -0.275789
v 0.262503 0.381895 -0.289040
v 0.275184 0.382123 -0.276818
v 0.274914 0.375821 -0.288332
v 0.267253 0.545920 0.284935
v 0.272190 0.563367 0.272189
v 0.284936 0.011414 0.267253
v 0.267253 0.011414 0.284936
v 0.267242 -0.004956 0.284131
v 0.284131 -0.005464 0.267234
v 0.284678 0.551328 -0.272662
v 0.284936 0.545920 0.267253
v -0.268646 0.563536 -0.268647
v -0.268173 0.546839 -0.284893
v -0.283715 0.547384 -0.284060
v -0.284651 0.551901 -0.273235
v -0.284131 0.562797 -0.268713
v 0.096521 0.534128 -0.281890
v 0.096467 0.550081 -0.265798
v 0.117423 0.550484 -0.281415
v -0.285557 0.024431 -0.254235
v -0.252230 0.026436 -0.285652
v -0.254383 -0.005465 -0.284131
v -0.263108 -0.006467 -0.263108
v -0.284131 -0.005465 -0.254383
v -0.242501 0.170727 -0.283707
v -0.274607 0.170341 -0.252431
v -0.273988 0.186876 -0.282382
v -0.273325 0.496999 0.218332
v -0.286523 0.512626 0.233959
v -0.287188 0.498678 0.206046
v -0.286523 0.278667 0.233959
v -0.273325 0.278667 0.218332
v -0.287188 0.264702 0.220011
v -0.230156 0.048511 0.286704
v -0.218806 0.059861 0.277234
v -0.220011 0.152889 0.287188
v 0.109905 0.064119 0.277237
v 0.115508 0.052963 0.286714
v 0.120527 0.062524 0.287188
vt 0.241847 0.505577
vt 0.239593 0.380007
vt 0.241847 0.375119
vt 0.674341 0.863784
vt 0.682636 0.606463
vt 0.682636 0.865955
vt 0.066272 0.156332
vt 0.153268 0.130043
vt 0.153268 0.156332
vt 0.496664 0.893100
vt 0.518766 0.843282
vt 0.518766 0.912175
vt 0.318491 0.898170
vt 0.330937 0.862405
vt 0.330937 0.947904
vt 0.835383 0.002502
vt 0.835383 0.196080
vt 0.818574 0.175680
vt 0.027336 0.825494
vt 0.046486 0.700354
vt 0.046486 0.844828
vt 0.277332 0.848725
vt 0.302449 0.826718
vt 0.302449 0.895611
vt 0.438890 0.890595
vt 0.460320 0.843777
vt 0.460320 0.910809
vt 0.869366 0.593692
vt 0.847680 0.466972
vt 0.869366 0.466766
vt 0.706368 0.027856
vt 0.731750 0.002502
vt 0.731750 0.220520
vt 0.847263 0.243744
vt 0.847263 0.437322
vt 0.830454 0.416922
vt 0.871086 0.980497
vt 0.860666 0.936495
vt 0.871086 0.931465
vt 0.876902 0.800501
vt 0.876902 0.926462
vt 0.860666 0.918415
vt 0.825544 0.229875
vt 0.818574 0.206791
vt 0.825544 0.201083
vt 0.825426 0.449399
vt 0.821741 0.422438
vt 0.825426 0.417538
vt 0.906525 0.460607
vt 0.900990 0.442275
vt 0.906525 0.431814
vt 0.160266 0.936237
vt 0.173734 0.891987
vt 0.173734 0.949849
vt 0.183455 0.844438
vt 0.179489 0.818304
vt 0.183455 0.812927
vt 0.713022 0.466766
vt 0.713022 0.685369
vt 0.687639 0.497642
vt 0.124046 0.643231
vt 0.149742 0.618194
vt 0.149742 0.769014
vt 0.183153 0.949056
vt 0.179489 0.926595
vt 0.183153 0.922532
vt 0.718025 0.492120
vt 0.743408 0.466766
vt 0.743408 0.679703
vt 0.125474 0.800441
vt 0.149742 0.774017
vt 0.149742 0.886471
vt 0.802501 0.793042
vt 0.827455 0.667486
vt 0.827455 0.818818
vt 0.867552 0.654736
vt 0.847680 0.609788
vt 0.867552 0.598695
vt 0.488798 0.843777
vt 0.488798 0.905216
vt 0.465323 0.882755
vt 0.022333 0.700354
vt 0.022333 0.849102
vt 0.002502 0.835600
vt 0.392383 0.753786
vt 0.417780 0.610336
vt 0.417780 0.779127
vt 0.749783 0.438228
vt 0.771717 0.243744
vt 0.771717 0.460428
vt 0.821741 0.460873
vt 0.827153 0.456489
vt 0.827153 0.461680
vt 0.842677 0.466766
vt 0.842677 0.660343
vt 0.825867 0.639944
vt 0.600608 0.764923
vt 0.600608 0.774811
vt 0.593372 0.769867
vt 0.895446 0.659086
vt 0.891999 0.653982
vt 0.895446 0.650857
vt 0.603335 0.537930
vt 0.595310 0.533946
vt 0.603335 0.527434
vt 0.153268 0.177683
vt 0.146338 0.167091
vt 0.153268 0.161335
vt 0.534930 0.710259
vt 0.548725 0.699131
vt 0.548725 0.712661
vt 0.748411 0.492120
vt 0.773794 0.466766
vt 0.773794 0.679703
vt 0.582307 0.773100
vt 0.588369 0.764923
vt 0.588369 0.777264
vt 0.830454 0.446514
vt 0.837373 0.442325
vt 0.837373 0.450134
vt 0.154745 0.866309
vt 0.173734 0.774530
vt 0.173734 0.886984
vt 0.754945 0.988152
vt 0.749426 0.983268
vt 0.754945 0.946684
vt 0.852266 0.459457
vt 0.857840 0.456749
vt 0.857840 0.461023
vt 0.840386 0.052502
vt 0.866165 0.002502
vt 0.866165 0.114956
vt 0.034041 0.851327
vt 0.046486 0.849831
vt 0.046486 0.936827
vt 0.034041 0.936827
vt 0.881894 0.655191
vt 0.886996 0.652048
vt 0.886996 0.659086
vt 0.882395 0.658688
vt 0.432671 0.821686
vt 0.422783 0.821686
vt 0.422783 0.610336
vt 0.432671 0.610336
vt 0.372137 0.880038
vt 0.372137 0.966370
vt 0.364049 0.966370
vt 0.364049 0.873859
vt 0.213918 0.678657
vt 0.213918 0.821261
vt 0.191155 0.823054
vt 0.188611 0.697990
vt 0.810632 0.226825
vt 0.810632 0.236039
vt 0.803934 0.231258
vt 0.804505 0.226624
vt 0.572501 0.808069
vt 0.578302 0.803524
vt 0.578302 0.940218
vt 0.572493 0.938059
vt 0.700637 0.894817
vt 0.700637 0.949982
vt 0.687639 0.940452
vt 0.688214 0.893147
vt 0.399061 0.784130
vt 0.399061 0.794018
vt 0.392584 0.793796
vt 0.392383 0.784349
vt 0.935958 0.232528
vt 0.923513 0.238049
vt 0.923513 0.152550
vt 0.935958 0.151054
vt 0.188611 0.945131
vt 0.189661 0.828057
vt 0.200978 0.828062
vt 0.200978 0.947174
vt 0.549434 0.852811
vt 0.549434 0.902072
vt 0.524825 0.882648
vt 0.524480 0.843282
vt 0.852627 0.393885
vt 0.870331 0.393045
vt 0.870331 0.450235
vt 0.852266 0.451746
vt 0.285001 0.955867
vt 0.272525 0.957079
vt 0.272543 0.901038
vt 0.285001 0.900614
vt 0.874369 0.468262
vt 0.886814 0.466766
vt 0.886814 0.640757
vt 0.874369 0.639260
vt 0.939048 0.670840
vt 0.944143 0.667486
vt 0.944143 0.921337
vt 0.939051 0.918826
vt 0.788962 0.897820
vt 0.791630 0.684332
vt 0.797498 0.683121
vt 0.797498 0.899807
vt 0.816738 0.419093
vt 0.816738 0.461680
vt 0.804297 0.456906
vt 0.804300 0.417538
vt 0.668606 0.945057
vt 0.659400 0.945421
vt 0.659648 0.800947
vt 0.668606 0.800759
vt 0.302029 0.679111
vt 0.302029 0.821715
vt 0.277332 0.801789
vt 0.279040 0.676790
vt 0.633487 0.583665
vt 0.608946 0.583701
vt 0.608920 0.335672
vt 0.633487 0.324183
vt 0.953357 0.495098
vt 0.948277 0.491721
vt 0.953357 0.243744
vt 0.568912 0.447701
vt 0.544185 0.448305
vt 0.538288 0.194511
vt 0.568912 0.187803
vt 0.943274 0.243744
vt 0.943274 0.503647
vt 0.938180 0.501143
vt 0.533285 0.188407
vt 0.533285 0.448307
vt 0.502661 0.441599
vt 0.508558 0.187803
vt 0.933177 0.243744
vt 0.933177 0.503646
vt 0.928014 0.500144
vt 0.928083 0.246248
vt 0.886702 0.668982
vt 0.899148 0.667486
vt 0.899148 0.841478
vt 0.886703 0.839981
vt 0.753775 0.824321
vt 0.766199 0.822654
vt 0.766199 0.941681
vt 0.754887 0.941343
vt 0.014835 0.914537
vt 0.014835 0.962777
vt 0.003747 0.961518
vt 0.002502 0.912299
vt 0.923011 0.416240
vt 0.910566 0.417737
vt 0.910566 0.243744
vt 0.923011 0.245241
vt 0.871168 0.174998
vt 0.871168 0.003998
vt 0.883613 0.002502
vt 0.883613 0.176494
vt 0.876891 0.659086
vt 0.874369 0.650972
vt 0.876891 0.645760
vt 0.840386 0.145185
vt 0.865896 0.119959
vt 0.865896 0.232413
vt 0.918083 0.235998
vt 0.899413 0.192531
vt 0.918083 0.181497
vt 0.447875 0.915812
vt 0.460320 0.915812
vt 0.460320 0.965546
vt 0.884014 0.460607
vt 0.875669 0.424562
vt 0.884014 0.422738
vt 0.582307 0.567445
vt 0.602939 0.546418
vt 0.602939 0.759920
vt 0.654396 0.927356
vt 0.638490 0.809311
vt 0.654396 0.800759
vt 0.026609 0.907296
vt 0.002502 0.904795
vt 0.026609 0.854105
vt 0.183455 0.807923
vt 0.178737 0.781915
vt 0.183455 0.774530
vt 0.502661 0.533222
vt 0.554143 0.511083
vt 0.554143 0.534053
vt 0.154745 0.643504
vt 0.180172 0.618194
vt 0.180172 0.769526
vt 0.780220 0.202432
vt 0.780220 0.220559
vt 0.767140 0.210754
vt 0.768400 0.201834
vt 0.590306 0.536883
vt 0.559146 0.532124
vt 0.590306 0.527434
vt 0.554577 0.776693
vt 0.577304 0.604192
vt 0.577304 0.798521
vt 0.794869 0.021182
vt 0.813570 0.002502
vt 0.813570 0.213853
vt 0.524480 0.920634
vt 0.536360 0.907075
vt 0.536360 0.964265
vt 0.776720 0.448718
vt 0.782358 0.438183
vt 0.782358 0.461017
vt 0.834568 0.232929
vt 0.830547 0.203423
vt 0.834568 0.201083
vt 0.852266 0.263432
vt 0.870666 0.243744
vt 0.870666 0.388042
vt 0.762136 0.215439
vt 0.736754 0.190085
vt 0.762136 0.002502
vt 0.359046 0.799628
vt 0.335715 0.627208
vt 0.359046 0.610336
vt 0.179489 0.912506
vt 0.183054 0.885796
vt 0.183054 0.917528
vt 0.792810 0.461289
vt 0.787361 0.451082
vt 0.792810 0.438183
vt 0.701364 0.221104
vt 0.675982 0.195750
vt 0.701364 0.002502
vt 0.631579 0.783613
vt 0.608920 0.611103
vt 0.631579 0.588705
vt 0.744779 0.456681
vt 0.719397 0.431327
vt 0.744779 0.243744
vt 0.387380 0.799628
vt 0.364049 0.627208
vt 0.387380 0.610336
vt 0.507796 0.917178
vt 0.507796 0.966413
vt 0.496664 0.962073
vt 0.714393 0.461763
vt 0.689011 0.436409
vt 0.714393 0.243744
vt 0.789866 0.196831
vt 0.767140 0.024330
vt 0.789866 0.002502
vt 0.179489 0.875590
vt 0.183353 0.849441
vt 0.183353 0.880792
vt 0.554577 0.920804
vt 0.555039 0.804971
vt 0.567490 0.803524
vt 0.567490 0.930451
vt 0.267396 0.963995
vt 0.264278 0.961073
vt 0.267396 0.937284
vt 0.904263 0.468262
vt 0.904263 0.639261
vt 0.891817 0.640758
vt 0.891818 0.466766
vt 0.771202 0.824566
vt 0.783590 0.822654
vt 0.783590 0.947744
vt 0.772432 0.947524
vt 0.815077 0.920188
vt 0.827455 0.918212
vt 0.827455 0.961544
vt 0.815048 0.962775
vt 0.788031 0.215449
vt 0.785223 0.208163
vt 0.788031 0.201834
vt 0.909266 0.468262
vt 0.921711 0.466766
vt 0.921711 0.640757
vt 0.909266 0.639261
vt 0.888617 0.003998
vt 0.901062 0.002502
vt 0.901062 0.176493
vt 0.888616 0.174996
vt 0.875669 0.245241
vt 0.888115 0.243744
vt 0.888115 0.417735
vt 0.875669 0.416239
vt 0.272329 0.881875
vt 0.246926 0.894569
vt 0.246898 0.851238
vt 0.272329 0.832613
vt 0.666694 0.217308
vt 0.670726 0.187803
vt 0.670726 0.219664
vt 0.776720 0.410696
vt 0.799294 0.243744
vt 0.799294 0.433180
vt 0.178099 0.170013
vt 0.175355 0.157980
vt 0.178099 0.130043
vt 0.893118 0.416240
vt 0.893118 0.245241
vt 0.905563 0.243744
vt 0.905563 0.417736
vt 0.916596 0.839981
vt 0.904151 0.841477
vt 0.904151 0.667486
vt 0.916596 0.668982
vt 0.603917 0.188339
vt 0.603917 0.442232
vt 0.573915 0.435733
vt 0.579703 0.187803
vt 0.788962 0.907481
vt 0.801209 0.904810
vt 0.801209 0.960098
vt 0.790001 0.961663
vt 0.918510 0.003998
vt 0.918510 0.174997
vt 0.906065 0.176493
vt 0.906065 0.002502
vt 0.925565 0.846016
vt 0.934044 0.844983
vt 0.934044 0.974971
vt 0.925562 0.974472
vt 0.055263 0.949282
vt 0.055286 0.833308
vt 0.067723 0.832470
vt 0.067723 0.950646
vt 0.958360 0.652599
vt 0.962018 0.629922
vt 0.962018 0.656282
vt 0.832458 0.783361
vt 0.855663 0.667486
vt 0.855663 0.795867
vt 0.272329 0.827610
vt 0.247578 0.801639
vt 0.272329 0.676790
vt 0.783590 0.817650
vt 0.759707 0.701913
vt 0.783590 0.690372
vt 0.832487 0.929918
vt 0.832458 0.801462
vt 0.844912 0.800870
vt 0.844912 0.931574
vt 0.218987 0.831208
vt 0.231382 0.829341
vt 0.231382 0.947517
vt 0.218921 0.947182
vt 0.597407 0.918914
vt 0.604398 0.918103
vt 0.604398 0.985135
vt 0.597451 0.985624
vt 0.911528 0.449072
vt 0.916739 0.431814
vt 0.916739 0.460607
vt 0.638490 0.778884
vt 0.661822 0.606463
vt 0.661822 0.795756
vt 0.442789 0.969365
vt 0.438890 0.954861
vt 0.442789 0.948095
vt 0.808733 0.903115
vt 0.827455 0.823821
vt 0.827455 0.913209
vt 0.845298 0.455405
vt 0.842376 0.449074
vt 0.845298 0.442325
vt 0.965340 0.235950
vt 0.952888 0.237385
vt 0.954194 0.188370
vt 0.965340 0.187831
vt 0.947885 0.151886
vt 0.947885 0.237385
vt 0.940962 0.237385
vt 0.940961 0.151054
vt 0.108033 0.833966
vt 0.108033 0.949800
vt 0.095588 0.950331
vt 0.095588 0.832470
vt 0.881699 0.795497
vt 0.860666 0.679528
vt 0.881699 0.667486
vt 0.734779 0.935371
vt 0.736062 0.812461
vt 0.747211 0.811963
vt 0.747211 0.936973
vt 0.597407 0.867895
vt 0.616689 0.846390
vt 0.616689 0.913100
vt 0.239593 0.539336
vt 0.242309 0.510580
vt 0.242309 0.543071
vt 0.909406 0.846481
vt 0.909406 0.901586
vt 0.886702 0.885914
vt 0.810045 0.945800
vt 0.806390 0.928052
vt 0.810045 0.918212
vt 0.921599 0.838483
vt 0.921599 0.667486
vt 0.934044 0.671511
vt 0.934044 0.839980
vt 0.246948 0.954825
vt 0.246898 0.899572
vt 0.259275 0.901060
vt 0.259275 0.957101
vt 0.804297 0.265299
vt 0.825450 0.243744
vt 0.825450 0.412535
vt 0.241688 0.824338
vt 0.218921 0.695632
vt 0.241688 0.678657
vt 0.820864 0.662483
vt 0.802501 0.489463
vt 0.820864 0.466766
vt 0.899134 0.908198
vt 0.899134 0.962280
vt 0.887832 0.961683
vt 0.886702 0.906589
vt 0.438890 0.933471
vt 0.442668 0.915812
vt 0.442668 0.943092
vt 0.267398 0.932281
vt 0.264278 0.901229
vt 0.267398 0.899572
vt 0.778797 0.485446
vt 0.797498 0.466766
vt 0.797498 0.678118
vt 0.712769 0.811963
vt 0.712769 0.873402
vt 0.689816 0.888144
vt 0.687639 0.832899
vt 0.302449 0.955780
vt 0.290004 0.957276
vt 0.290004 0.901145
vt 0.302449 0.900614
vt 0.889017 0.454898
vt 0.895987 0.431814
vt 0.895987 0.460607
vt 0.307381 0.782756
vt 0.330712 0.610336
vt 0.330712 0.799628
vt 0.681714 0.226669
vt 0.681714 0.319180
vt 0.666694 0.319180
vt 0.399511 0.941423
vt 0.387727 0.913617
vt 0.399511 0.873859
vt 0.894410 0.237752
vt 0.871168 0.193783
vt 0.894410 0.181497
vt 0.944142 0.988030
vt 0.939068 0.930724
vt 0.944142 0.926340
vt 0.002502 0.620178
vt 0.046550 0.575778
vt 0.046550 0.695351
vt 0.577780 0.945221
vt 0.577780 0.989532
vt 0.572493 0.986847
vt 0.710715 0.987193
vt 0.705640 0.897532
vt 0.710715 0.893147
vt 0.638490 0.569202
vt 0.682636 0.466766
vt 0.682636 0.601460
vt 0.078310 0.991580
vt 0.072726 0.948976
vt 0.078310 0.944592
vt 0.722846 0.991025
vt 0.717772 0.952038
vt 0.722846 0.949215
vt 0.614327 0.918103
vt 0.614327 0.992060
vt 0.609401 0.989718
vt 0.977361 0.521591
vt 0.968948 0.462797
vt 0.977361 0.387249
vt 0.496664 0.777220
vt 0.549322 0.719739
vt 0.549322 0.780661
vt 0.433073 0.826689
vt 0.433073 0.950496
vt 0.422783 0.948846
vt 0.308414 0.948086
vt 0.313488 0.804631
vt 0.313488 0.950909
vt 0.960909 0.974808
vt 0.965983 0.852789
vt 0.965983 0.979192
vt 0.734779 0.984580
vt 0.740362 0.941976
vt 0.740362 0.988965
vt 0.951805 0.650231
vt 0.943740 0.545751
vt 0.951805 0.509128
vt 0.400858 0.804631
vt 0.400858 0.868855
vt 0.364049 0.842445
vt 0.988707 0.092163
vt 0.993781 0.002502
vt 0.993781 0.096547
vt 0.681831 0.975476
vt 0.674341 0.891952
vt 0.681831 0.870958
vt 0.066272 0.564269
vt 0.183608 0.560421
vt 0.183608 0.613191
vt 0.066272 0.613191
vt 0.754704 0.695094
vt 0.754704 0.743143
vt 0.687639 0.743143
vt 0.687639 0.690372
vt 0.061269 0.247578
vt 0.061269 0.423880
vt 0.002502 0.423880
vt 0.002502 0.247578
vt 0.375119 0.178804
vt 0.375119 0.002502
vt 0.433887 0.002502
vt 0.433887 0.178804
vt 0.438890 0.178804
vt 0.438890 0.002502
vt 0.497657 0.002502
vt 0.497657 0.178804
vt 0.370116 0.183807
vt 0.370116 0.360110
vt 0.311349 0.360110
vt 0.311349 0.183807
vt 0.002502 0.183807
vt 0.178804 0.183807
vt 0.178804 0.242575
vt 0.002502 0.242575
vt 0.242575 0.130043
vt 0.242575 0.306346
vt 0.183807 0.306346
vt 0.183807 0.130043
vt 0.497657 0.365113
vt 0.497657 0.541415
vt 0.438890 0.541415
vt 0.438890 0.365113
vt 0.119043 0.375119
vt 0.119043 0.555418
vt 0.066272 0.555418
vt 0.066272 0.375119
vt 0.247578 0.360110
vt 0.247578 0.183807
vt 0.306345 0.183807
vt 0.306345 0.360110
vt 0.433887 0.360110
vt 0.375119 0.360110
vt 0.375119 0.183807
vt 0.433887 0.183807
vt 0.306345 0.178804
vt 0.247578 0.178804
vt 0.247578 0.002502
vt 0.306345 0.002502
vt 0.242575 0.125040
vt 0.066272 0.125040
vt 0.066272 0.066272
vt 0.242575 0.066272
vt 0.066272 0.002502
vt 0.242575 0.002502
vt 0.242575 0.061269
vt 0.066272 0.061269
vt 0.497657 0.183807
vt 0.497657 0.360110
vt 0.438890 0.360110
vt 0.438890 0.183807
vt 0.427890 0.365113
vt 0.427890 0.547559
vt 0.375119 0.547559
vt 0.375119 0.365113
vt 0.002502 0.178804
vt 0.002502 0.002502
vt 0.061269 0.002502
vt 0.061269 0.178804
vt 0.066272 0.311349
vt 0.242575 0.311349
vt 0.242575 0.370116
vt 0.066272 0.370116
vt 0.370116 0.002502
vt 0.370116 0.178804
vt 0.311349 0.178804
vt 0.311349 0.002502
vt 0.040235 0.942662
vt 0.046486 0.941830
vt 0.046486 0.993279
vt 0.040235 0.995277
vt 0.972059 0.380316
vt 0.968948 0.245003
vt 0.977159 0.243744
vt 0.977159 0.382246
vt 0.617049 0.319180
vt 0.608920 0.187803
vt 0.661691 0.187803
vt 0.661691 0.319180
vt 0.519050 0.917986
vt 0.519050 0.985111
vt 0.512799 0.982288
vt 0.512799 0.917178
vt 0.970987 0.845780
vt 0.970987 0.669484
vt 0.976061 0.667486
vt 0.976061 0.847779
vt 0.613205 0.139570
vt 0.613205 0.181455
vt 0.565305 0.181455
vt 0.560434 0.139570
vt 0.988707 0.235820
vt 0.988707 0.174130
vt 0.994958 0.178514
vt 0.994958 0.237328
vt 0.019838 0.914580
vt 0.028789 0.912299
vt 0.028789 0.971409
vt 0.555431 0.002502
vt 0.555431 0.182800
vt 0.502661 0.182800
vt 0.502661 0.002502
vt 0.949146 0.845787
vt 0.949146 0.669484
vt 0.955397 0.667486
vt 0.955397 0.847785
vt 0.300348 0.546418
vt 0.300348 0.671787
vt 0.254954 0.671787
vt 0.247578 0.546418
vt 0.078475 0.937866
vt 0.072726 0.833507
vt 0.084808 0.832470
vt 0.084808 0.939589
vt 0.460255 0.611250
vt 0.533667 0.604192
vt 0.533667 0.656962
vt 0.438890 0.653027
vt 0.491660 0.784849
vt 0.438890 0.784849
vt 0.442738 0.719739
vt 0.491660 0.719739
vt 0.988707 0.102062
vt 0.994291 0.101550
vt 0.994291 0.167129
vt 0.988707 0.169127
vt 0.670237 0.135188
vt 0.670237 0.178711
vt 0.618208 0.169895
vt 0.335940 0.938142
vt 0.342425 0.862405
vt 0.342425 0.981977
vt 0.438890 0.707713
vt 0.438890 0.661966
vt 0.528551 0.661966
vt 0.528551 0.714736
vt 0.347428 0.863101
vt 0.357483 0.862405
vt 0.357483 0.952341
vt 0.149011 0.986032
vt 0.149012 0.891987
vt 0.155262 0.896371
vt 0.155262 0.986032
vt 0.502661 0.456857
vt 0.602756 0.453310
vt 0.602756 0.506080
vt 0.542636 0.943954
vt 0.549434 0.907075
vt 0.549434 0.986382
vt 0.549434 0.838279
vt 0.496664 0.838279
vt 0.502937 0.785664
vt 0.549434 0.785664
vt 0.981065 0.667486
vt 0.987316 0.668555
vt 0.987316 0.803901
vt 0.981065 0.805899
vt 0.307381 0.558475
vt 0.427890 0.552562
vt 0.427890 0.605333
vt 0.307381 0.605333
vt 0.729775 0.944212
vt 0.717772 0.942753
vt 0.723458 0.813741
vt 0.729775 0.811963
vt 0.970987 0.978466
vt 0.970987 0.853614
vt 0.977238 0.852782
vt 0.977238 0.980464
vt 0.638490 0.936560
vt 0.650337 0.932359
vt 0.650337 0.974048
vt 0.960400 0.845788
vt 0.960400 0.669484
vt 0.965983 0.667486
vt 0.965983 0.847786
vt 0.176816 0.375119
vt 0.176816 0.555418
vt 0.124046 0.555418
vt 0.124046 0.375119
vt 0.963944 0.243744
vt 0.963944 0.431830
vt 0.958361 0.429008
vt 0.958360 0.246567
vt 0.602632 0.511083
vt 0.602632 0.522430
vt 0.560851 0.518559
vt 0.559146 0.512879
vt 0.234590 0.375119
vt 0.234590 0.555418
vt 0.181820 0.555418
vt 0.181820 0.375119
vt 0.849916 0.979171
vt 0.849915 0.802868
vt 0.854990 0.800870
vt 0.854990 0.981169
vt 0.956788 0.180803
vt 0.956788 0.004500
vt 0.963039 0.002502
vt 0.963039 0.182801
vt 0.311349 0.541415
vt 0.311349 0.365113
vt 0.370116 0.365113
vt 0.370116 0.541415
vt 0.983704 0.182798
vt 0.978629 0.180800
vt 0.978629 0.004500
vt 0.983704 0.002502
vt 0.968042 0.180798
vt 0.968042 0.004499
vt 0.973626 0.002502
vt 0.973626 0.182796
vt 0.125474 0.912692
vt 0.132305 0.891475
vt 0.132305 0.986333
vt 0.468725 0.975710
vt 0.465323 0.910220
vt 0.474381 0.910261
vt 0.474381 0.977493
vt 0.881673 0.980386
vt 0.876090 0.981300
vt 0.876090 0.933463
vt 0.881673 0.931465
vt 0.412141 0.919875
vt 0.406534 0.785647
vt 0.417780 0.784130
vt 0.417780 0.921711
vt 0.173159 0.300348
vt 0.066272 0.293290
vt 0.087637 0.251514
vt 0.173159 0.247578
vt 0.055272 0.428884
vt 0.055272 0.570775
vt 0.012161 0.570775
vt 0.002502 0.428884
vt 0.241460 0.831339
vt 0.241460 0.960479
vt 0.236385 0.961408
vt 0.236385 0.829341
vt 0.955396 0.974807
vt 0.949146 0.979191
vt 0.949146 0.852788
vt 0.955396 0.854296
vt 0.839261 0.938375
vt 0.844912 0.936577
vt 0.844912 0.997498
vt 0.690819 0.230231
vt 0.738520 0.226624
vt 0.738520 0.238741
vt 0.689011 0.235879
vt 0.684007 0.324183
vt 0.684007 0.461763
vt 0.638490 0.387469
vt 0.987628 0.528593
vt 0.987628 0.651182
vt 0.981377 0.651962
vt 0.981377 0.526595
vt 0.982241 0.854665
vt 0.987359 0.852782
vt 0.987359 0.978367
vt 0.745370 0.230646
vt 0.798931 0.226624
vt 0.798931 0.237046
vt 0.743523 0.235778
vt 0.083313 0.945521
vt 0.088388 0.944592
vt 0.088388 0.991756
vt 0.083313 0.993754
vt 0.438890 0.594318
vt 0.438890 0.546418
vt 0.577304 0.546418
vt 0.577304 0.599189
vt 0.207667 0.830880
vt 0.213918 0.828057
vt 0.213918 0.974339
vt 0.207667 0.972771
vt 0.935942 0.146050
vt 0.923513 0.004375
vt 0.935942 0.002502
vt 0.613205 0.002502
vt 0.613205 0.134567
vt 0.567423 0.134567
vt 0.560434 0.002502
vt 0.377141 0.985094
vt 0.377141 0.874370
vt 0.382724 0.873859
vt 0.382724 0.987092
vt 0.963944 0.436834
vt 0.963944 0.624919
vt 0.958361 0.622097
vt 0.958360 0.439656
vt 0.119043 0.618195
vt 0.119043 0.707856
vt 0.073296 0.707856
vt 0.066272 0.618194
vt 0.938737 0.640757
vt 0.926714 0.639245
vt 0.933089 0.510937
vt 0.938737 0.509128
vt 0.241382 0.560421
vt 0.241382 0.673654
vt 0.193333 0.673654
vt 0.188611 0.560421
vt 0.592404 0.968513
vt 0.583346 0.848199
vt 0.592404 0.846390
vt 0.630716 0.959722
vt 0.621692 0.958933
vt 0.625088 0.848261
vt 0.630716 0.846390
vt 0.624481 0.130185
vt 0.618208 0.002502
vt 0.670978 0.002502
vt 0.670978 0.130185
vt 0.567489 0.935454
vt 0.567489 0.980757
vt 0.557053 0.977136
vt 0.987622 0.492040
vt 0.982364 0.487270
vt 0.987622 0.387249
vt 0.055263 0.759993
vt 0.119043 0.712859
vt 0.119043 0.767534
vt 0.114220 0.952319
vt 0.114220 0.776015
vt 0.120471 0.774017
vt 0.120471 0.954316
vt 0.548725 0.604192
vt 0.548725 0.694128
vt 0.538670 0.693432
vt 0.904297 0.908498
vt 0.909406 0.906589
vt 0.909406 0.992202
vt 0.137308 0.895859
vt 0.143559 0.891475
vt 0.143559 0.985519
vt 0.137308 0.985519
vt 0.359046 0.814291
vt 0.359046 0.857402
vt 0.318491 0.857402
vt 0.318491 0.804631
vt 0.488798 0.975443
vt 0.483828 0.978446
vt 0.481421 0.911365
vt 0.488798 0.910220
vt 0.914409 0.975861
vt 0.914409 0.847394
vt 0.919993 0.846481
vt 0.919993 0.977859
vt 0.139932 0.161335
vt 0.139932 0.173461
vt 0.068181 0.171265
vt 0.066272 0.164986
vt 0.163938 0.177392
vt 0.158271 0.130569
vt 0.170352 0.130043
vt 0.170352 0.178780
vt 0.982162 0.246567
vt 0.988413 0.243744
vt 0.988413 0.364710
vt 0.982162 0.363902
vt 0.491660 0.838774
vt 0.438890 0.838774
vt 0.447019 0.789853
vt 0.491660 0.789853
vt 0.631579 0.795605
vt 0.631579 0.841387
vt 0.583346 0.841387
vt 0.583346 0.788617
vt 0.754704 0.803075
vt 0.748453 0.803856
vt 0.748453 0.750144
vt 0.754704 0.748146
vt 0.412618 0.977984
vt 0.408320 0.926715
vt 0.417780 0.926756
vt 0.417780 0.979744
vt 0.946201 0.006886
vt 0.951785 0.002502
vt 0.951785 0.143605
vt 0.940945 0.141478
vt 0.759948 0.987641
vt 0.759948 0.946684
vt 0.766199 0.947754
vt 0.766199 0.989639
vt 0.060942 0.703617
vt 0.051553 0.702462
vt 0.055831 0.577681
vt 0.060942 0.575778
vt 0.740409 0.806959
vt 0.687639 0.806959
vt 0.693552 0.748146
vt 0.740409 0.748146
vt 0.062639 0.772537
vt 0.108033 0.772537
vt 0.108033 0.827467
vt 0.055263 0.827467
vt 0.976374 0.526595
vt 0.976374 0.647563
vt 0.971300 0.644740
vt 0.968948 0.527363
vt 0.393260 0.988236
vt 0.393260 0.946426
vt 0.399511 0.949249
vt 0.399511 0.989803
vt 0.978640 0.229998
vt 0.970344 0.230434
vt 0.973480 0.189598
vt 0.978640 0.187831
vt 0.306345 0.365113
vt 0.306345 0.541415
vt 0.247578 0.541415
vt 0.247578 0.365113
vn -0.6475 0.7299 0.2193
vn -0.7007 0.7134 -0.0123
vn -0.7020 0.7120 -0.0141
vn 0.5867 -0.5774 0.5679
vn 0.3938 0.0565 0.9174
vn 0.5889 -0.5829 0.5598
vn -0.2404 -0.0465 0.9696
vn -0.1776 -0.0172 0.9840
vn -0.1525 -0.0238 0.9880
vn -0.0259 0.9951 0.0956
vn -0.0247 0.9978 0.0611
vn -0.0206 0.9940 0.1073
vn 0.9927 0.0000 0.1203
vn 0.9989 0.0476 -0.0000
vn 0.0419 0.9970 -0.0656
vn 0.0412 0.9932 -0.1090
vn 0.0407 0.9972 -0.0623
vn 0.0547 0.1366 0.9891
vn 0.1623 -0.1690 0.9722
vn 0.0183 0.2284 0.9734
vn 0.9937 -0.0580 -0.0957
vn 0.9926 -0.0529 -0.1090
vn 0.9942 -0.0583 -0.0904
vn 0.0284 0.9883 0.1499
vn 0.0080 0.9941 0.1081
vn 0.0097 0.9951 0.0982
vn 0.0469 -0.9989 0.0013
vn 0.0467 -0.9989 0.0013
vn 0.0740 -0.9971 -0.0172
vn 0.0476 0.0000 0.9989
vn -0.0537 0.0181 -0.9984
vn -0.0601 0.0182 -0.9980
vn -0.0615 0.0187 -0.9979
vn 0.0083 0.0391 -0.9992
vn 0.0105 0.0497 -0.9987
vn 0.0109 0.0515 -0.9986
vn 0.0000 -0.9989 -0.0476
vn -0.0476 0.9989 0.0000
vn -0.9989 -0.0476 0.0000
vn -0.9904 0.0810 -0.1123
vn -0.9871 0.0794 -0.1394
vn -0.9909 0.0804 -0.1076
vn 0.9989 -0.0476 0.0000
vn -0.9989 0.0476 -0.0000
vn 0.9979 0.0277 -0.0583
vn 0.9981 0.0267 -0.0547
vn 0.9959 0.0326 -0.0840
vn 0.0471 -0.0165 -0.9988
vn 0.0446 -0.0113 -0.9989
vn 0.0459 -0.0078 -0.9989
vn 0.0000 -0.0476 -0.9989
vn -0.9989 0.0000 0.0476
vn 0.0000 0.0476 0.9989
vn 0.0352 0.0250 -0.9991
vn 0.0306 0.0269 -0.9992
vn 0.0284 0.0262 -0.9993
vn -0.0228 0.0723 -0.9971
vn -0.0255 0.0655 -0.9975
vn -0.0232 0.0668 -0.9975
vn 0.0006 -0.0473 0.9989
vn 0.0003 -0.0469 0.9989
vn 0.0117 -0.9986 0.0518
vn 0.0105 -0.9979 0.0642
vn 0.0112 -0.9987 0.0504
vn 0.0476 0.9989 -0.0000
vn 0.4141 0.7943 -0.4445
vn 0.9989 0.0000 0.0476
vn 0.6741 0.3017 0.6741
vn -0.0009 0.8883 -0.4592
vn -0.1561 0.6907 -0.7061
vn -0.0136 0.9126 -0.4086
vn -0.4745 0.6244 -0.6205
vn -0.8900 0.0292 -0.4551
vn -0.6894 -0.1390 -0.7109
vn -0.9133 0.0169 -0.4070
vn -0.4235 -0.7893 -0.4445
vn -0.0476 -0.9989 0.0000
vn -0.4561 -0.7917 0.4065
vn -0.6315 0.5628 -0.5333
vn 0.6791 -0.0694 0.7308
vn -0.6294 0.2947 0.7191
vn -0.1545 0.0358 0.9873
vn -0.1151 0.0036 0.9933
vn -0.2070 0.0394 0.9775
vn 0.7489 0.1973 -0.6326
vn 0.7071 0.0000 0.7071
vn -0.7640 -0.0000 -0.6452
vn -0.9979 -0.0381 -0.0521
vn -0.9976 -0.0321 -0.0620
vn -0.9976 -0.0292 -0.0629
vn -0.9979 -0.0307 -0.0566
vn -0.2634 0.5262 -0.8085
vn -0.1929 0.5656 -0.8018
vn -0.0083 0.6453 0.7639
vn -0.0394 0.2962 -0.9543
vn 0.7065 -0.0349 0.7069
vn -0.1203 -0.0000 -0.9927
vn 0.0152 0.1209 0.9926
vn -0.0010 -0.0487 0.9988
vn -0.0017 -0.0489 0.9988
vn -0.6918 0.0586 -0.7198
vn -0.9910 0.0706 -0.1137
vn 0.0000 0.9927 -0.1203
vn -0.7020 0.7122 0.0086
vn 0.8047 0.5936 0.0053
vn 0.0389 0.9924 0.1166
vn 0.0309 0.7036 -0.7099
vn -0.0506 -0.0070 -0.9987
vn -0.0487 -0.0077 -0.9988
vn -0.0499 -0.0068 -0.9987
vn -0.0511 -0.0064 -0.9987
vn -0.0499 0.0617 0.9968
vn -0.7020 0.7120 -0.0154
vn -0.8460 0.5289 -0.0670
vn 0.0000 0.0000 1.0000
vn 0.5750 -0.7962 -0.1881
vn 0.5907 -0.5937 0.5465
vn 0.0000 -0.0000 -1.0000
vn 0.7133 -0.6907 -0.1191
vn 0.1203 0.9927 -0.0000
vn -0.0239 -0.9926 -0.1192
vn -0.1245 0.0503 0.9909
vn 0.9927 0.1203 -0.0000
vn -0.9927 0.1203 -0.0000
vn 0.0386 0.9923 0.1178
vn 0.0389 0.9924 0.1168
vn -0.1347 -0.0262 0.9905
vn -0.0557 0.0016 0.9984
vn -0.0147 0.9882 0.1522
vn -0.0117 0.9920 0.1260
vn 0.0331 0.9993 -0.0156
vn 0.0391 0.9977 -0.0550
vn 0.0112 0.1142 0.9934
vn 0.0063 0.1483 0.9889
vn 0.0308 0.0187 0.9993
vn -0.5930 0.5668 0.5719
vn 0.0062 0.1483 0.9889
vn -0.3227 0.4587 0.8280
vn 0.9954 -0.0639 -0.0711
vn 0.9947 -0.0587 -0.0839
vn 0.0097 0.9957 0.0921
vn -0.0186 0.9986 0.0489
vn -0.6894 -0.1391 -0.7109
vn -0.5198 -0.2544 -0.8155
vn -0.5554 -0.1826 -0.8113
vn 0.0185 -0.9987 0.0480
vn 0.0100 -0.9999 0.0136
vn 0.0503 -0.9987 -0.0043
vn 0.0463 -0.9989 0.0008
vn 0.0692 -0.9973 -0.0230
vn -0.0626 0.0189 -0.9979
vn -0.0693 0.0193 -0.9974
vn -0.9979 -0.0306 -0.0577
vn -0.9988 -0.0290 -0.0407
vn -0.9990 -0.0238 -0.0386
vn -0.9968 -0.0283 -0.0746
vn -0.9975 -0.0264 -0.0655
vn 0.0113 0.0524 -0.9986
vn 0.0115 0.0642 -0.9979
vn -0.0499 -0.0067 -0.9987
vn -0.0537 -0.0061 -0.9985
vn -0.0522 -0.0062 -0.9986
vn -0.0462 -0.0063 -0.9989
vn -0.0498 -0.0067 -0.9987
vn -0.0457 -0.0052 -0.9989
vn -0.9938 0.0823 -0.0749
vn -0.9918 0.0788 -0.1008
vn -0.0015 -0.0491 0.9988
vn 0.0167 0.2747 -0.9614
vn -0.0019 -0.0486 0.9988
vn -0.0021 -0.0478 0.9989
vn -0.9927 0.0000 0.1203
vn -0.1210 -0.0196 0.9925
vn -0.0047 -0.1207 -0.9927
vn -0.0016 -0.1206 -0.9927
vn -0.0045 -0.1238 -0.9923
vn -0.9927 -0.1203 0.0000
vn -0.1203 0.9927 -0.0000
vn 0.0000 -0.1203 0.9927
vn -0.0341 -0.9968 0.0726
vn 0.9927 -0.1203 0.0000
vn 0.1203 -0.9927 0.0000
vn -0.0331 0.1229 0.9919
vn 0.1203 -0.0000 -0.9927
vn -0.0129 0.9927 0.1195
vn -0.0129 0.9927 0.1199
vn -0.9923 -0.0336 -0.1191
vn 0.9980 0.0316 -0.0555
vn 0.9988 0.0114 -0.0468
vn 0.9982 0.0251 -0.0540
vn 0.9994 0.0244 -0.0228
vn 0.9982 0.0329 -0.0502
vn 0.0432 -0.0114 -0.9990
vn 0.0367 -0.0167 -0.9992
vn 0.0538 -0.0070 -0.9985
vn 0.0448 -0.0110 -0.9989
vn 0.0473 -0.0161 -0.9988
vn 0.0015 -0.1208 -0.9927
vn -0.0016 -0.1204 -0.9927
vn 0.0012 -0.1172 -0.9931
vn 0.0016 -0.1203 -0.9927
vn 0.1208 0.0184 0.9925
vn 0.6869 -0.0197 -0.7265
vn -0.1203 -0.9927 0.0000
vn 0.9926 -0.0321 -0.1174
vn 0.0000 -0.9927 0.1203
vn 0.9927 0.0126 -0.1198
vn 0.0264 0.0257 -0.9993
vn 0.0220 0.0281 -0.9994
vn -0.0235 0.0640 -0.9977
vn -0.0239 0.0701 -0.9973
vn -0.0225 0.0637 -0.9977
vn -0.0260 0.0560 -0.9981
vn -0.0235 0.0641 -0.9977
vn -0.0247 0.0620 -0.9978
vn -0.0185 0.0609 -0.9980
vn -0.0167 0.0544 -0.9984
vn 0.1236 -0.0390 0.9916
vn 0.0005 -0.0481 0.9988
vn -0.0001 -0.0480 0.9988
vn 0.0095 -0.9993 0.0362
vn 0.0109 -0.9988 0.0476
vn 0.0518 -0.9919 -0.1158
vn -0.0840 0.9908 -0.1059
vn -0.0763 0.9939 -0.0792
vn -0.0712 0.9945 -0.0770
vn -0.0761 0.9897 -0.1217
vn -0.0840 0.9908 -0.1060
vn -0.0759 0.9908 -0.1120
vn -0.0937 0.9904 -0.1015
vn -0.0862 0.9901 -0.1105
vn -0.0848 0.9901 -0.1115
vn -0.0844 0.9909 -0.1053
vn -0.1008 0.0194 0.9947
vn -0.1557 0.0245 0.9875
vn -0.0484 -0.0071 0.9988
vn -0.2331 0.0064 0.9724
vn -0.1794 0.0130 0.9837
vn 0.0906 -0.9758 0.1992
vn 0.0590 -0.7427 0.6670
vn 0.0347 -0.7075 0.7059
vn 1.0000 0.0000 0.0000
vn 0.5247 -0.8506 -0.0335
vn 0.6347 -0.7722 -0.0283
vn 0.6546 -0.7557 -0.0186
vn -0.0914 0.9782 0.1866
vn -0.0459 0.6931 0.7194
vn -0.0254 0.6630 0.7482
vn -0.0595 0.8589 0.5088
vn -0.0328 0.7599 0.6492
vn -0.0210 0.7465 0.6650
vn 0.0682 0.9729 -0.2209
vn 0.1206 0.6907 -0.7130
vn 0.0689 0.5878 -0.8061
vn -0.9418 0.3107 0.1280
vn -0.8133 0.5810 0.0307
vn -0.7918 0.6105 0.0187
vn 0.8160 -0.5095 0.2732
vn 0.7823 -0.6227 0.0143
vn 0.7748 -0.6320 0.0129
vn 0.8195 0.3758 -0.4327
vn 0.7753 0.6313 -0.0180
vn 0.7648 0.6440 -0.0192
vn -0.0385 0.6079 -0.7931
vn -0.0859 0.9784 -0.1882
vn -0.0193 0.5752 -0.8178
vn -0.0301 -0.7173 0.6961
vn -0.0829 -0.9802 0.1798
vn -0.0167 -0.6996 0.7144
vn -0.0764 -0.6627 0.7450
vn -0.0609 -0.9078 0.4149
vn -0.0447 -0.6086 0.7922
vn 0.1443 0.4107 0.9003
vn 0.0122 0.6800 0.7331
vn 0.0101 0.6850 0.7285
vn 0.0459 0.6931 0.7194
vn 0.0914 0.9782 0.1866
vn 0.0254 0.6630 0.7482
vn -0.5801 0.7593 -0.2950
vn -0.7483 0.6631 -0.0185
vn -0.7547 0.6559 -0.0156
vn -1.0000 0.0000 0.0000
vn 0.0000 1.0000 -0.0000
vn 0.0000 -1.0000 0.0000
vn -0.6574 0.7535 -0.0000
vn -0.6768 0.7360 -0.0131
vn 0.0000 0.7535 -0.6574
vn 0.9282 -0.3720 0.0000
vn 0.0000 0.7535 0.6574
vn 0.0278 -0.6827 0.7302
vn -0.1863 -0.2798 0.9418
vn 0.6574 0.7535 -0.0000
vn 0.5235 0.8519 -0.0175
vn -0.5370 -0.8436 0.0000
vn 0.6610 -0.7502 -0.0171
vn 0.7708 -0.6370 -0.0007
vn -0.0204 0.6431 0.7655
vn -0.0253 0.6630 0.7482
vn 0.2637 0.1776 0.9481
vn 0.0000 -0.7535 0.6574
vn -0.0176 0.7387 0.6738
vn 0.0523 0.6025 0.7964
vn -0.6574 -0.7535 0.0000
vn -0.5258 0.8505 -0.0141
vn 0.0643 0.5378 -0.8406
vn -0.1505 0.0355 -0.9880
vn -0.8436 -0.5370 0.0000
vn 0.0000 -0.8436 -0.5370
vn 0.8197 0.5707 -0.0489
vn -0.9282 -0.3720 0.0000
vn 0.7535 -0.6574 0.0000
vn 0.3720 -0.9282 0.0000
vn 0.8436 -0.5370 0.0000
vn -0.7848 0.6196 0.0144
vn -0.7919 0.6104 0.0187
vn -0.5037 0.8631 -0.0365
vn -0.7536 0.6569 -0.0234
vn -0.8436 0.5370 -0.0000
vn 0.8158 0.5781 0.0155
vn 0.9282 0.3720 -0.0000
vn 0.7593 -0.6506 0.0122
vn 0.7748 -0.6321 0.0129
vn 0.5473 -0.8366 -0.0246
vn 0.5477 0.8354 -0.0460
vn 0.6574 -0.7535 0.0000
vn 0.7514 0.6596 -0.0163
vn 0.3346 0.9301 0.1514
vn 0.7685 0.6384 0.0433
vn 0.0000 -0.7535 -0.6574
vn 0.3187 -0.0285 -0.9474
vn -0.0163 0.5591 -0.8290
vn 0.0000 0.8436 -0.5370
vn 0.5538 0.8324 0.0173
vn 0.2564 -0.2570 0.9318
vn -0.0168 -0.6996 0.7144
vn -0.0126 -0.6851 0.7283
vn -0.7520 0.6590 0.0139
vn 0.1012 -0.2280 0.9684
vn -0.0448 -0.6086 0.7922
vn -0.0383 -0.5742 0.8178
vn 0.0100 0.7072 0.7069
vn -0.0941 0.8554 0.5094
vn -0.7535 -0.6574 0.0000
vn -0.2637 0.1776 0.9481
vn 0.0253 0.6630 0.7482
vn 0.0204 0.6431 0.7655
vn -0.7665 0.6421 -0.0136
vn -0.9182 0.3763 0.1236
vn -0.0227 -0.7814 -0.6236
vn 0.5219 0.8527 0.0254
vn -0.5209 0.8528 0.0382
vn -0.7347 -0.6772 0.0408
vn 0.0146 -0.5959 0.8029
vn -0.7304 -0.6828 -0.0170
vn 0.0126 -0.7786 -0.6274
vn -0.6831 0.7290 0.0429
g Wooden_Box_Wooden_Box_Collor_Material
usemtl Collor_Material
s off
f 196/1/1 189/2/2 193/3/3
f 195/4/4 190/5/5 192/6/6
f 205/7/7 262/8/8 263/9/9
f 214/10/10 266/11/11 286/12/12
f 317/13/13 230/14/13 264/15/13
f 217/16/14 292/17/14 218/18/14
f 207/19/15 299/20/16 293/21/17
f 209/22/18 286/23/19 266/24/20
f 217/25/21 283/26/22 291/27/23
f 213/28/24 266/29/25 268/30/26
f 227/31/27 229/32/28 290/33/29
f 208/34/30 285/35/30 209/36/30
f 222/37/31 306/38/32 259/39/33
f 225/40/34 298/41/35 272/42/36
f 226/43/37 304/44/37 303/45/37
f 207/46/38 293/47/38 297/48/38
f 206/49/39 301/50/39 305/51/39
f 206/52/40 307/53/41 301/54/42
f 215/55/43 287/56/43 290/57/43
f 224/58/44 297/59/44 311/60/44
f 210/61/45 229/62/46 284/63/47
f 255/64/48 282/65/49 284/66/50
f 220/67/51 229/68/51 303/69/51
f 212/70/52 228/71/52 262/72/52
f 205/73/53 266/74/53 224/75/53
f 219/76/54 282/77/55 255/78/56
f 300/79/57 280/80/58 219/81/59
f 315/82/60 275/83/61 319/84/60
f 223/85/62 275/86/63 228/87/64
f 211/88/65 286/89/65 281/90/65
f 282/91/66 283/92/66 284/93/66
f 218/94/67 287/95/67 215/96/67
f 285/97/68 292/98/68 286/99/68
f 294/100/69 295/101/70 296/102/71
f 298/103/72 299/104/72 300/105/72
f 302/106/73 303/107/74 304/108/75
f 306/109/76 307/110/76 308/111/76
f 223/112/77 228/113/77 305/114/77
f 309/115/78 310/116/78 311/117/78
f 312/118/79 313/119/79 314/120/79
f 310/121/52 262/122/52 224/123/52
f 315/124/80 316/125/80 317/126/80
f 318/127/81 319/128/81 320/129/81
f 317/130/82 262/131/83 228/132/84
f 231/133/13 205/134/13 263/135/13 264/136/13
f 281/137/85 291/138/85 279/139/85 280/140/85
f 288/141/86 287/142/86 292/143/86 285/144/86
f 309/145/87 313/146/87 312/147/87 310/148/87
f 295/149/88 308/150/89 258/151/90 216/152/91
f 293/153/70 294/154/92 296/155/93 297/156/70
f 316/157/94 315/158/94 319/159/94 318/160/94
f 237/161/95 270/162/95 268/163/95 214/164/95
f 287/165/96 288/166/96 289/167/96 290/168/96
f 314/169/97 265/170/97 243/171/97 212/172/97
f 235/173/98 273/174/98 271/175/98 207/176/98
f 275/177/99 289/178/100 208/179/100 320/180/100
f 307/181/101 306/182/101 302/183/101 301/184/101
f 249/185/102 219/186/102 255/187/102 257/188/102
f 248/189/103 220/190/103 222/191/103 247/192/103
f 202/193/104 197/194/104 200/195/104 204/196/104
f 292/197/105 291/198/105 281/199/105 286/200/105
f 233/201/106 277/202/106 320/203/106 208/204/106
f 294/205/107 293/206/107 299/207/107 298/208/107
f 308/209/108 295/210/109 225/211/110 259/212/111
f 190/213/112 189/214/112 191/215/112 192/216/112
f 196/217/113 191/218/3 189/219/114
f 199/220/115 200/221/115 197/222/115 198/223/115
f 195/224/116 194/225/6 190/226/117
f 194/227/118 195/228/118 196/229/118 193/230/118
f 199/231/119 198/232/119 201/233/119 203/234/119
f 240/235/120 215/236/120 210/237/120 239/238/120
f 246/239/121 225/240/121 272/241/121 274/242/121
f 242/243/122 260/244/122 258/245/122 206/246/122
f 235/247/123 207/248/123 213/249/123 234/250/123
f 236/251/124 237/252/124 214/253/124 211/254/124
f 277/255/125 318/256/126 320/257/125
f 205/258/127 224/259/9 262/260/128
f 214/261/129 268/262/12 266/263/130
f 264/264/13 263/265/13 317/266/13
f 317/267/13 316/268/13 230/269/13
f 217/270/14 291/271/14 292/272/14
f 207/273/131 271/274/17 299/275/132
f 266/276/133 267/277/134 209/278/135
f 209/279/136 285/280/137 286/281/138
f 217/282/139 254/283/23 283/284/140
f 213/285/141 224/286/26 266/287/142
f 301/288/143 302/289/144 304/290/145 305/291/74
f 289/292/28 221/293/146 290/294/147
f 221/295/148 227/296/149 290/297/150
f 208/298/30 288/299/30 285/300/30
f 222/301/151 302/302/33 306/303/152
f 307/304/153 258/305/154 308/306/155
f 216/307/156 296/308/153 295/309/157
f 225/310/158 294/311/36 298/312/159
f 229/313/37 227/314/37 303/315/37
f 227/316/37 226/317/37 303/318/37
f 294/319/160 225/320/161 295/321/162
f 259/322/163 306/323/164 308/324/165
f 224/325/38 213/326/38 297/327/38
f 213/328/38 207/329/38 297/330/38
f 228/331/39 212/332/39 305/333/39
f 212/334/39 206/335/39 305/336/39
f 206/337/166 258/338/42 307/339/167
f 229/340/43 210/341/43 290/342/43
f 210/343/43 215/344/43 290/345/43
f 288/346/168 208/347/168 289/348/168
f 270/349/169 234/350/169 213/351/169 268/352/169
f 320/353/170 319/354/170 275/355/171
f 232/356/172 233/357/172 208/358/172 209/359/172
f 245/360/173 216/361/173 258/362/173 260/363/173
f 253/364/174 221/365/174 276/366/175 278/367/176
f 314/368/97 313/369/97 265/370/97
f 252/371/177 227/372/177 221/373/177 253/374/177
f 242/375/178 206/376/178 212/377/178 243/378/178
f 250/379/179 226/380/179 227/381/179 252/382/179
f 275/383/180 276/384/180 221/385/180 289/386/180
f 296/387/44 216/388/44 297/389/44
f 216/390/44 311/391/44 297/392/44
f 311/393/44 310/394/44 224/395/44
f 250/396/181 251/397/181 223/398/181 226/399/181
f 238/400/182 217/401/182 218/402/182 241/403/182
f 203/404/118 201/405/118 202/406/118 204/407/118
f 236/408/183 211/409/183 271/410/183 273/411/183
f 240/412/184 241/413/184 218/414/184 215/415/184
f 230/416/185 316/417/186 318/418/186 277/419/186
f 248/420/187 257/421/187 255/422/187 220/423/187
f 283/424/46 254/425/188 284/426/189
f 254/427/190 210/428/191 284/429/192
f 229/430/49 220/431/193 284/432/194
f 220/433/195 255/434/196 284/435/197
f 251/436/198 278/437/199 276/438/200 223/439/201
f 239/440/202 210/441/202 254/442/202 256/443/202
f 279/444/203 291/445/203 283/446/203 282/447/203
f 302/448/51 222/449/51 303/450/51
f 222/451/51 220/452/51 303/453/51
f 262/454/52 312/455/52 314/456/52
f 314/457/52 212/458/52 262/459/52
f 244/460/204 309/461/204 311/462/204
f 247/463/205 222/464/205 259/465/205 261/466/205
f 244/467/97 265/468/97 313/469/97 309/470/97
f 231/471/206 269/472/206 267/473/206 205/474/206
f 205/475/53 267/476/53 266/477/53
f 246/478/207 261/479/207 259/480/207 225/481/207
f 219/482/208 279/483/56 282/484/209
f 279/485/210 219/486/211 280/487/212
f 219/488/213 272/489/214 300/490/215
f 272/491/216 298/492/210 300/493/217
f 245/494/204 244/495/204 311/496/204 216/497/204
f 238/498/218 256/499/218 254/500/218 217/501/218
f 315/502/219 228/503/219 275/504/220
f 223/505/221 276/506/64 275/507/222
f 211/508/65 214/509/65 286/510/65
f 249/511/223 274/512/223 272/513/223 219/514/223
f 299/515/224 271/516/225 300/517/226
f 211/518/227 281/519/228 280/520/229
f 218/521/67 292/522/67 287/523/67
f 280/524/230 300/525/231 271/526/232 211/527/233
f 232/528/206 209/529/206 267/530/206 269/531/206
f 304/532/77 226/533/77 305/534/77
f 226/535/77 223/536/77 305/537/77
f 310/538/52 312/539/52 262/540/52
f 228/541/234 315/542/235 317/543/236
f 317/544/237 263/545/235 262/546/238
f 174/547/239 80/548/240 48/549/241
f 147/550/242 96/551/242 148/552/242
f 145/553/243 96/554/244 46/555/245
f 182/556/246 98/557/247 49/558/248
f 179/559/115 104/560/115 180/561/115
f 178/562/249 102/563/250 51/564/251
f 158/565/252 114/566/253 57/567/254
f 186/568/255 130/569/256 61/570/257
f 44/571/258 148/572/259 145/573/260
f 94/574/242 148/575/242 93/576/242
f 46/577/261 151/578/262 150/579/263
f 115/580/264 158/581/265 56/582/266
f 77/583/267 174/584/268 51/585/269
f 101/586/270 177/587/271 49/588/272
f 48/589/273 179/590/274 178/591/275
f 102/592/115 180/593/115 101/594/115
f 99/595/276 182/596/277 50/597/278
f 60/598/279 187/599/280 186/600/281
f 156/601/118 69/602/118 70/603/118 155/604/118
f 167/605/282 168/606/282 109/607/282 110/608/282
f 23/609/283 62/610/283 29/611/283 28/612/283
f 11/613/118 10/614/118 19/615/118 21/616/118
f 31/617/283 30/618/283 61/619/283 60/620/283
f 45/621/242 47/622/242 32/623/242 35/624/242
f 14/625/115 16/626/115 3/627/115 2/628/115
f 60/629/283 61/630/283 62/631/283 23/632/283
f 46/633/242 44/634/242 47/635/242 45/636/242
f 76/637/242 73/638/242 74/639/242 75/640/242
f 5/641/282 6/642/282 53/643/282 52/644/282
f 18/645/282 52/646/282 53/647/282 17/648/282
f 8/649/282 18/650/282 17/651/282 7/652/282
f 1/653/115 4/654/115 15/655/115 13/656/115
f 21/657/118 19/658/118 22/659/118 20/660/118
f 13/661/115 15/662/115 16/663/115 14/664/115
f 120/665/118 117/666/118 118/667/118 119/668/118
f 20/669/118 22/670/118 9/671/118 12/672/118
f 59/673/284 58/674/284 63/675/284 64/676/284
f 34/677/242 33/678/242 44/679/242 46/680/242
f 163/681/285 161/682/285 8/683/285 67/684/285
f 53/685/286 170/686/286 171/687/286 106/688/286
f 140/689/283 133/690/283 134/691/283 139/692/283
f 153/693/287 39/694/287 71/695/287 155/696/287
f 58/697/288 59/698/288 123/699/288 122/700/288
f 108/701/282 172/702/282 171/703/282 107/704/282
f 173/705/289 25/706/289 79/707/289 175/708/289
f 174/709/290 176/710/241 80/711/291
f 128/712/284 125/713/284 126/714/284 127/715/284
f 32/716/292 35/717/292 75/718/292 74/719/292
f 92/720/242 152/721/242 151/722/242 91/723/242
f 31/724/293 185/725/293 188/726/293 132/727/293
f 188/728/283 129/729/283 130/730/283 187/731/283
f 71/732/118 72/733/118 156/734/118 155/735/118
f 168/736/294 165/737/294 53/738/294 109/739/294
f 147/740/242 95/741/242 96/742/242
f 145/743/295 148/744/245 96/745/296
f 183/746/115 184/747/115 97/748/115 98/749/115
f 182/750/297 183/751/298 98/752/299
f 181/753/300 27/754/300 97/755/300 184/756/300
f 179/757/115 103/758/115 104/759/115
f 178/760/301 179/761/251 102/762/302
f 67/763/282 68/764/282 164/765/282 163/766/282
f 172/767/303 169/768/303 6/769/303 105/770/303
f 176/771/115 77/772/115 78/773/115 175/774/115
f 143/775/304 141/776/304 28/777/304 87/778/304
f 7/779/285 161/780/285 163/781/285 66/782/285
f 158/783/305 159/784/254 114/785/306
f 59/786/307 58/787/307 125/788/307 128/789/307
f 124/790/284 121/791/284 122/792/284 123/793/284
f 56/794/308 57/795/308 117/796/308 120/797/308
f 147/798/309 146/799/309 45/800/309 95/801/309
f 84/802/284 81/803/284 82/804/284 83/805/284
f 64/806/310 63/807/310 81/808/310 84/809/310
f 42/810/311 43/811/311 83/812/311 82/813/311
f 64/814/284 63/815/284 42/816/284 43/817/284
f 76/818/312 45/819/312 47/820/312 73/821/312
f 63/822/313 64/823/313 127/824/313 126/825/313
f 186/826/314 187/827/315 130/828/316
f 17/829/317 166/830/317 167/831/317 110/832/317
f 139/833/318 138/834/318 23/835/318 135/836/318
f 47/837/319 146/838/319 147/839/319 94/840/319
f 132/841/283 188/842/283 187/843/283 131/844/283
f 116/845/118 160/846/118 159/847/118 115/848/118
f 23/849/320 142/850/320 144/851/320 88/852/320
f 78/853/289 26/854/289 173/855/289 175/856/289
f 44/857/321 93/858/322 148/859/323
f 60/860/324 137/861/324 140/862/324 136/863/324
f 94/864/242 147/865/242 148/866/242
f 34/867/325 149/868/325 152/869/325 92/870/325
f 46/871/326 91/872/263 151/873/327
f 44/874/328 150/875/328 151/876/328 90/877/328
f 144/878/320 142/879/320 62/880/320 85/881/320
f 171/882/282 172/883/282 105/884/282 106/885/282
f 116/886/329 38/887/329 157/888/329 160/889/329
f 115/890/330 159/891/266 158/892/331
f 88/893/283 144/894/283 143/895/283 87/896/283
f 52/897/294 165/898/294 168/899/294 112/900/294
f 54/901/332 55/902/332 119/903/332 118/904/332
f 100/905/115 184/906/115 183/907/115 99/908/115
f 140/909/333 137/910/333 61/911/333 133/912/333
f 112/913/282 168/914/282 167/915/282 111/916/282
f 77/917/334 176/918/335 174/919/336
f 167/920/337 166/921/337 18/922/337 111/923/337
f 164/924/282 65/925/282 66/926/282 163/927/282
f 101/928/338 180/929/339 177/930/340
f 48/931/341 103/932/275 179/933/342
f 102/934/115 179/935/115 180/936/115
f 41/937/343 40/938/343 121/939/343 124/940/343
f 99/941/344 183/942/345 182/943/346
f 60/944/347 131/945/281 187/946/348
f 100/947/300 24/948/300 181/949/300 184/950/300
f 159/951/118 160/952/118 113/953/118 114/954/118
f 72/955/349 55/956/349 154/957/349 156/958/349
f 62/959/318 138/960/318 139/961/318 134/962/318
f 188/963/350 185/964/350 30/965/350 129/966/350
f 29/967/351 141/968/351 143/969/351 86/970/351
f 70/971/287 36/972/287 153/973/287 155/974/287
f 135/975/283 136/976/283 140/977/283 139/978/283
f 143/979/283 144/980/283 85/981/283 86/982/283
f 152/983/325 149/984/325 33/985/325 89/986/325
f 18/987/352 162/988/352 164/989/352 68/990/352
f 104/991/353 50/992/353 177/993/353 180/994/353
f 5/995/303 169/996/303 172/997/303 108/998/303
f 164/999/354 162/1000/354 17/1001/354 65/1002/354
f 79/1003/115 80/1004/115 176/1005/115 175/1006/115
f 151/1007/242 152/1008/242 89/1009/242 90/1010/242
f 154/1011/355 54/1012/355 69/1013/355 156/1014/355
f 157/1015/329 37/1016/329 113/1017/329 160/1018/329
f 171/1019/356 170/1020/356 52/1021/356 107/1022/356
f 41/1023/284 40/1024/284 58/1025/284 59/1026/284
